<svg width="332" height="58" viewBox="0 0 332 58" fill="none" xmlns="http://www.w3.org/2000/svg">
<rect x="2" y="2" width="330" height="56" rx="8" fill="#8E1053"/>
<rect width="330" height="56" rx="8" fill="#D23689"/>
<path d="M300.002 35.0292C299.768 35.0297 299.542 34.9483 299.362 34.7992C299.157 34.6297 299.029 34.3857 299.004 34.1212C298.98 33.8567 299.062 33.5933 299.232 33.3892L303.712 28.0292L299.392 22.6592C299.224 22.4526 299.145 22.1877 299.174 21.9231C299.202 21.6584 299.334 21.4159 299.542 21.2492C299.751 21.0652 300.027 20.9768 300.305 21.0052C300.582 21.0337 300.834 21.1765 301.002 21.3992L305.832 27.3992C306.135 27.7682 306.135 28.3002 305.832 28.6692L300.832 34.6692C300.628 34.9147 300.32 35.0484 300.002 35.0292Z" fill="#FAFBFD"/>
<path d="M68.86 28.02C68.86 26.66 69.1667 25.44 69.78 24.36C70.3933 23.2667 71.2267 22.4133 72.28 21.8C73.3467 21.1867 74.5267 20.88 75.82 20.88C77.34 20.88 78.6667 21.2467 79.8 21.98C80.9333 22.7133 81.76 23.7533 82.28 25.1H80.1C79.7133 24.26 79.1533 23.6133 78.42 23.16C77.7 22.7067 76.8333 22.48 75.82 22.48C74.8467 22.48 73.9733 22.7067 73.2 23.16C72.4267 23.6133 71.82 24.26 71.38 25.1C70.94 25.9267 70.72 26.9 70.72 28.02C70.72 29.1267 70.94 30.1 71.38 30.94C71.82 31.7667 72.4267 32.4067 73.2 32.86C73.9733 33.3133 74.8467 33.54 75.82 33.54C76.8333 33.54 77.7 33.32 78.42 32.88C79.1533 32.4267 79.7133 31.78 80.1 30.94H82.28C81.76 32.2733 80.9333 33.3067 79.8 34.04C78.6667 34.76 77.34 35.12 75.82 35.12C74.5267 35.12 73.3467 34.82 72.28 34.22C71.2267 33.6067 70.3933 32.76 69.78 31.68C69.1667 30.6 68.86 29.38 68.86 28.02ZM89.7692 35.18C88.7426 35.18 87.8092 34.9467 86.9692 34.48C86.1426 34.0133 85.4892 33.3533 85.0092 32.5C84.5426 31.6333 84.3092 30.6333 84.3092 29.5C84.3092 28.38 84.5492 27.3933 85.0292 26.54C85.5226 25.6733 86.1892 25.0133 87.0292 24.56C87.8692 24.0933 88.8092 23.86 89.8492 23.86C90.8892 23.86 91.8292 24.0933 92.6692 24.56C93.5092 25.0133 94.1692 25.6667 94.6492 26.52C95.1426 27.3733 95.3892 28.3667 95.3892 29.5C95.3892 30.6333 95.1359 31.6333 94.6292 32.5C94.1359 33.3533 93.4626 34.0133 92.6092 34.48C91.7559 34.9467 90.8092 35.18 89.7692 35.18ZM89.7692 33.58C90.4226 33.58 91.0359 33.4267 91.6092 33.12C92.1826 32.8133 92.6426 32.3533 92.9892 31.74C93.3492 31.1267 93.5292 30.38 93.5292 29.5C93.5292 28.62 93.3559 27.8733 93.0092 27.26C92.6626 26.6467 92.2092 26.1933 91.6492 25.9C91.0892 25.5933 90.4826 25.44 89.8292 25.44C89.1626 25.44 88.5492 25.5933 87.9892 25.9C87.4426 26.1933 87.0026 26.6467 86.6692 27.26C86.3359 27.8733 86.1692 28.62 86.1692 29.5C86.1692 30.3933 86.3292 31.1467 86.6492 31.76C86.9826 32.3733 87.4226 32.8333 87.9692 33.14C88.5159 33.4333 89.1159 33.58 89.7692 33.58ZM103.122 23.84C104.456 23.84 105.536 24.2467 106.362 25.06C107.189 25.86 107.602 27.02 107.602 28.54V35H105.802V28.8C105.802 27.7067 105.529 26.8733 104.982 26.3C104.436 25.7133 103.689 25.42 102.742 25.42C101.782 25.42 101.016 25.72 100.442 26.32C99.8822 26.92 99.6022 27.7933 99.6022 28.94V35H97.7822V24.04H99.6022V25.6C99.9622 25.04 100.449 24.6067 101.062 24.3C101.689 23.9933 102.376 23.84 103.122 23.84ZM114.455 35.18C113.615 35.18 112.862 35.04 112.195 34.76C111.528 34.4667 111.002 34.0667 110.615 33.56C110.228 33.04 110.015 32.4467 109.975 31.78H111.855C111.908 32.3267 112.162 32.7733 112.615 33.12C113.082 33.4667 113.688 33.64 114.435 33.64C115.128 33.64 115.675 33.4867 116.075 33.18C116.475 32.8733 116.675 32.4867 116.675 32.02C116.675 31.54 116.462 31.1867 116.035 30.96C115.608 30.72 114.948 30.4867 114.055 30.26C113.242 30.0467 112.575 29.8333 112.055 29.62C111.548 29.3933 111.108 29.0667 110.735 28.64C110.375 28.2 110.195 27.6267 110.195 26.92C110.195 26.36 110.362 25.8467 110.695 25.38C111.028 24.9133 111.502 24.5467 112.115 24.28C112.728 24 113.428 23.86 114.215 23.86C115.428 23.86 116.408 24.1667 117.155 24.78C117.902 25.3933 118.302 26.2333 118.355 27.3H116.535C116.495 26.7267 116.262 26.2667 115.835 25.92C115.422 25.5733 114.862 25.4 114.155 25.4C113.502 25.4 112.982 25.54 112.595 25.82C112.208 26.1 112.015 26.4667 112.015 26.92C112.015 27.28 112.128 27.58 112.355 27.82C112.595 28.0467 112.888 28.2333 113.235 28.38C113.595 28.5133 114.088 28.6667 114.715 28.84C115.502 29.0533 116.142 29.2667 116.635 29.48C117.128 29.68 117.548 29.9867 117.895 30.4C118.255 30.8133 118.442 31.3533 118.455 32.02C118.455 32.62 118.288 33.16 117.955 33.64C117.622 34.12 117.148 34.5 116.535 34.78C115.935 35.0467 115.242 35.18 114.455 35.18ZM130.744 24.04V35H128.924V33.38C128.578 33.94 128.091 34.38 127.464 34.7C126.851 35.0067 126.171 35.16 125.424 35.16C124.571 35.16 123.804 34.9867 123.124 34.64C122.444 34.28 121.904 33.7467 121.504 33.04C121.118 32.3333 120.924 31.4733 120.924 30.46V24.04H122.724V30.22C122.724 31.3 122.998 32.1333 123.544 32.72C124.091 33.2933 124.838 33.58 125.784 33.58C126.758 33.58 127.524 33.28 128.084 32.68C128.644 32.08 128.924 31.2067 128.924 30.06V24.04H130.744ZM135.637 20.2V35H133.817V20.2H135.637ZM140.959 25.54V32C140.959 32.5333 141.073 32.9133 141.299 33.14C141.526 33.3533 141.919 33.46 142.479 33.46H143.819V35H142.179C141.166 35 140.406 34.7667 139.899 34.3C139.393 33.8333 139.139 33.0667 139.139 32V25.54H137.719V24.04H139.139V21.28H140.959V24.04H143.819V25.54H140.959ZM145.344 29.48C145.344 28.36 145.571 27.38 146.024 26.54C146.478 25.6867 147.098 25.0267 147.884 24.56C148.684 24.0933 149.571 23.86 150.544 23.86C151.504 23.86 152.338 24.0667 153.044 24.48C153.751 24.8933 154.278 25.4133 154.624 26.04V24.04H156.464V35H154.624V32.96C154.264 33.6 153.724 34.1333 153.004 34.56C152.298 34.9733 151.471 35.18 150.524 35.18C149.551 35.18 148.671 34.94 147.884 34.46C147.098 33.98 146.478 33.3067 146.024 32.44C145.571 31.5733 145.344 30.5867 145.344 29.48ZM154.624 29.5C154.624 28.6733 154.458 27.9533 154.124 27.34C153.791 26.7267 153.338 26.26 152.764 25.94C152.204 25.6067 151.584 25.44 150.904 25.44C150.224 25.44 149.604 25.6 149.044 25.92C148.484 26.24 148.038 26.7067 147.704 27.32C147.371 27.9333 147.204 28.6533 147.204 29.48C147.204 30.32 147.371 31.0533 147.704 31.68C148.038 32.2933 148.484 32.7667 149.044 33.1C149.604 33.42 150.224 33.58 150.904 33.58C151.584 33.58 152.204 33.42 152.764 33.1C153.338 32.7667 153.791 32.2933 154.124 31.68C154.458 31.0533 154.624 30.3267 154.624 29.5ZM167.092 25.54V32C167.092 32.5333 167.205 32.9133 167.432 33.14C167.659 33.3533 168.052 33.46 168.612 33.46H169.952V35H168.312C167.299 35 166.539 34.7667 166.032 34.3C165.525 33.8333 165.272 33.0667 165.272 32V25.54H163.852V24.04H165.272V21.28H167.092V24.04H169.952V25.54H167.092ZM181.877 24.04V35H180.057V33.38C179.711 33.94 179.224 34.38 178.597 34.7C177.984 35.0067 177.304 35.16 176.557 35.16C175.704 35.16 174.937 34.9867 174.257 34.64C173.577 34.28 173.037 33.7467 172.637 33.04C172.251 32.3333 172.057 31.4733 172.057 30.46V24.04H173.857V30.22C173.857 31.3 174.131 32.1333 174.677 32.72C175.224 33.2933 175.971 33.58 176.917 33.58C177.891 33.58 178.657 33.28 179.217 32.68C179.777 32.08 180.057 31.2067 180.057 30.06V24.04H181.877ZM189.602 29.5C189.602 28.3667 189.829 27.38 190.282 26.54C190.736 25.6867 191.362 25.0267 192.162 24.56C192.976 24.0933 193.902 23.86 194.942 23.86C196.289 23.86 197.396 24.1867 198.262 24.84C199.142 25.4933 199.722 26.4 200.002 27.56H198.042C197.856 26.8933 197.489 26.3667 196.942 25.98C196.409 25.5933 195.742 25.4 194.942 25.4C193.902 25.4 193.062 25.76 192.422 26.48C191.782 27.1867 191.462 28.1933 191.462 29.5C191.462 30.82 191.782 31.84 192.422 32.56C193.062 33.28 193.902 33.64 194.942 33.64C195.742 33.64 196.409 33.4533 196.942 33.08C197.476 32.7067 197.842 32.1733 198.042 31.48H200.002C199.709 32.6 199.122 33.5 198.242 34.18C197.362 34.8467 196.262 35.18 194.942 35.18C193.902 35.18 192.976 34.9467 192.162 34.48C191.362 34.0133 190.736 33.3533 190.282 32.5C189.829 31.6467 189.602 30.6467 189.602 29.5ZM212.151 24.04V35H210.331V33.38C209.984 33.94 209.497 34.38 208.871 34.7C208.257 35.0067 207.577 35.16 206.831 35.16C205.977 35.16 205.211 34.9867 204.531 34.64C203.851 34.28 203.311 33.7467 202.911 33.04C202.524 32.3333 202.331 31.4733 202.331 30.46V24.04H204.131V30.22C204.131 31.3 204.404 32.1333 204.951 32.72C205.497 33.2933 206.244 33.58 207.191 33.58C208.164 33.58 208.931 33.28 209.491 32.68C210.051 32.08 210.331 31.2067 210.331 30.06V24.04H212.151ZM225.224 29.1C225.224 29.4467 225.204 29.8133 225.164 30.2H216.404C216.47 31.28 216.837 32.1267 217.504 32.74C218.184 33.34 219.004 33.64 219.964 33.64C220.75 33.64 221.404 33.46 221.924 33.1C222.457 32.7267 222.83 32.2333 223.044 31.62H225.004C224.71 32.6733 224.124 33.5333 223.244 34.2C222.364 34.8533 221.27 35.18 219.964 35.18C218.924 35.18 217.99 34.9467 217.164 34.48C216.35 34.0133 215.71 33.3533 215.244 32.5C214.777 31.6333 214.544 30.6333 214.544 29.5C214.544 28.3667 214.77 27.3733 215.224 26.52C215.677 25.6667 216.31 25.0133 217.124 24.56C217.95 24.0933 218.897 23.86 219.964 23.86C221.004 23.86 221.924 24.0867 222.724 24.54C223.524 24.9933 224.137 25.62 224.564 26.42C225.004 27.2067 225.224 28.1 225.224 29.1ZM223.344 28.72C223.344 28.0267 223.19 27.4333 222.884 26.94C222.577 26.4333 222.157 26.0533 221.624 25.8C221.104 25.5333 220.524 25.4 219.884 25.4C218.964 25.4 218.177 25.6933 217.524 26.28C216.884 26.8667 216.517 27.68 216.424 28.72H223.344ZM232.966 23.84C234.299 23.84 235.379 24.2467 236.206 25.06C237.033 25.86 237.446 27.02 237.446 28.54V35H235.646V28.8C235.646 27.7067 235.373 26.8733 234.826 26.3C234.279 25.7133 233.533 25.42 232.586 25.42C231.626 25.42 230.859 25.72 230.286 26.32C229.726 26.92 229.446 27.7933 229.446 28.94V35H227.626V24.04H229.446V25.6C229.806 25.04 230.293 24.6067 230.906 24.3C231.533 23.9933 232.219 23.84 232.966 23.84ZM242.639 25.54V32C242.639 32.5333 242.752 32.9133 242.979 33.14C243.206 33.3533 243.599 33.46 244.159 33.46H245.499V35H243.859C242.846 35 242.086 34.7667 241.579 34.3C241.072 33.8333 240.819 33.0667 240.819 32V25.54H239.399V24.04H240.819V21.28H242.639V24.04H245.499V25.54H242.639ZM247.024 29.48C247.024 28.36 247.251 27.38 247.704 26.54C248.157 25.6867 248.777 25.0267 249.564 24.56C250.364 24.0933 251.251 23.86 252.224 23.86C253.184 23.86 254.017 24.0667 254.724 24.48C255.431 24.8933 255.957 25.4133 256.304 26.04V24.04H258.144V35H256.304V32.96C255.944 33.6 255.404 34.1333 254.684 34.56C253.977 34.9733 253.151 35.18 252.204 35.18C251.231 35.18 250.351 34.94 249.564 34.46C248.777 33.98 248.157 33.3067 247.704 32.44C247.251 31.5733 247.024 30.5867 247.024 29.48ZM256.304 29.5C256.304 28.6733 256.137 27.9533 255.804 27.34C255.471 26.7267 255.017 26.26 254.444 25.94C253.884 25.6067 253.264 25.44 252.584 25.44C251.904 25.44 251.284 25.6 250.724 25.92C250.164 26.24 249.717 26.7067 249.384 27.32C249.051 27.9333 248.884 28.6533 248.884 29.48C248.884 30.32 249.051 31.0533 249.384 31.68C249.717 32.2933 250.164 32.7667 250.724 33.1C251.284 33.42 251.904 33.58 252.584 33.58C253.264 33.58 253.884 33.42 254.444 33.1C255.017 32.7667 255.471 32.2933 255.804 31.68C256.137 31.0533 256.304 30.3267 256.304 29.5Z" fill="#FAFBFD"/>
<rect width="56" height="56" rx="8" fill="#FAFBFD"/>
<path d="M20.1484 28.2499C20.1484 26.7388 20.5648 25.3232 21.2881 24.1111V18.9697H16.1467C14.1061 21.6199 13 24.8497 13 28.2499C13 31.65 14.1061 34.8799 16.1467 37.53H21.2881V32.3887C20.5648 31.1766 20.1484 29.761 20.1484 28.2499Z" fill="#FBBD00"/>
<path d="M28.25 36.3514L24.6758 39.9257L28.25 43.4999C31.6502 43.4999 34.88 42.3938 37.5302 40.3532V35.2173H32.3942C31.1716 35.9432 29.75 36.3514 28.25 36.3514Z" fill="#0F9D58"/>
<path d="M21.2881 32.3887L16.1467 37.5301C16.5507 38.0548 16.9906 38.5572 17.4666 39.0333C20.347 41.9136 24.1766 43.4999 28.25 43.4999V36.3515C25.2939 36.3515 22.703 34.7597 21.2881 32.3887Z" fill="#31AA52"/>
<path d="M43.5 28.25C43.5 27.3222 43.416 26.3926 43.2503 25.4873L43.1162 24.7546H28.25V31.9031H35.4849C34.7824 33.3007 33.7021 34.4409 32.3942 35.2174L37.5301 40.3534C38.0548 39.9494 38.5573 39.5094 39.0334 39.0334C41.9137 36.153 43.5 32.3234 43.5 28.25Z" fill="#3C79E6"/>
<path d="M33.9787 22.5213L34.6105 23.1531L39.6652 18.0984L39.0334 17.4666C36.1531 14.5863 32.3235 13 28.25 13L24.6758 16.5742L28.25 20.1484C30.414 20.1484 32.4485 20.9911 33.9787 22.5213Z" fill="#CF2D48"/>
<path d="M28.25 20.1484V13C24.1766 13 20.347 14.5863 17.4666 17.4666C16.9905 17.9426 16.5506 18.4451 16.1466 18.9698L21.288 24.1112C22.703 21.7402 25.2939 20.1484 28.25 20.1484Z" fill="#EB4132"/>
</svg>
