<svg width="332" height="58" viewBox="0 0 332 58" fill="none" xmlns="http://www.w3.org/2000/svg">
<rect x="2" y="2" width="330" height="56" rx="8" fill="#8E1053"/>
<rect width="330" height="56" rx="8" fill="#D23689"/>
<path d="M300.002 35.0292C299.768 35.0297 299.542 34.9483 299.362 34.7992C299.157 34.6297 299.029 34.3857 299.004 34.1212C298.98 33.8567 299.062 33.5933 299.232 33.3892L303.712 28.0292L299.392 22.6592C299.224 22.4526 299.145 22.1877 299.174 21.9231C299.202 21.6584 299.334 21.4159 299.542 21.2492C299.751 21.0652 300.027 20.9768 300.305 21.0052C300.582 21.0337 300.834 21.1765 301.002 21.3992L305.832 27.3992C306.135 27.7682 306.135 28.3002 305.832 28.6692L300.832 34.6692C300.628 34.9147 300.32 35.0484 300.002 35.0292Z" fill="#FAFBFD"/>
<path d="M73.88 21.06C75.4 21.06 76.7133 21.3467 77.82 21.92C78.94 22.48 79.7933 23.2867 80.38 24.34C80.98 25.3933 81.28 26.6333 81.28 28.06C81.28 29.4867 80.98 30.7267 80.38 31.78C79.7933 32.82 78.94 33.62 77.82 34.18C76.7133 34.7267 75.4 35 73.88 35H69.54V21.06H73.88ZM73.88 33.5C75.68 33.5 77.0533 33.0267 78 32.08C78.9467 31.12 79.42 29.78 79.42 28.06C79.42 26.3267 78.94 24.9733 77.98 24C77.0333 23.0267 75.6667 22.54 73.88 22.54H71.36V33.5H73.88ZM93.6806 29.1C93.6806 29.4467 93.6606 29.8133 93.6206 30.2H84.8606C84.9273 31.28 85.294 32.1267 85.9606 32.74C86.6406 33.34 87.4606 33.64 88.4206 33.64C89.2073 33.64 89.8606 33.46 90.3806 33.1C90.914 32.7267 91.2873 32.2333 91.5006 31.62H93.4606C93.1673 32.6733 92.5806 33.5333 91.7006 34.2C90.8206 34.8533 89.7273 35.18 88.4206 35.18C87.3806 35.18 86.4473 34.9467 85.6206 34.48C84.8073 34.0133 84.1673 33.3533 83.7006 32.5C83.234 31.6333 83.0006 30.6333 83.0006 29.5C83.0006 28.3667 83.2273 27.3733 83.6806 26.52C84.134 25.6667 84.7673 25.0133 85.5806 24.56C86.4073 24.0933 87.354 23.86 88.4206 23.86C89.4606 23.86 90.3806 24.0867 91.1806 24.54C91.9806 24.9933 92.594 25.62 93.0206 26.42C93.4606 27.2067 93.6806 28.1 93.6806 29.1ZM91.8006 28.72C91.8006 28.0267 91.6473 27.4333 91.3406 26.94C91.034 26.4333 90.614 26.0533 90.0806 25.8C89.5606 25.5333 88.9806 25.4 88.3406 25.4C87.4206 25.4 86.634 25.6933 85.9806 26.28C85.3406 26.8667 84.974 27.68 84.8806 28.72H91.8006ZM99.963 35.18C99.123 35.18 98.3696 35.04 97.703 34.76C97.0363 34.4667 96.5096 34.0667 96.123 33.56C95.7363 33.04 95.523 32.4467 95.483 31.78H97.363C97.4163 32.3267 97.6696 32.7733 98.123 33.12C98.5896 33.4667 99.1963 33.64 99.943 33.64C100.636 33.64 101.183 33.4867 101.583 33.18C101.983 32.8733 102.183 32.4867 102.183 32.02C102.183 31.54 101.97 31.1867 101.543 30.96C101.116 30.72 100.456 30.4867 99.563 30.26C98.7496 30.0467 98.083 29.8333 97.563 29.62C97.0563 29.3933 96.6163 29.0667 96.243 28.64C95.883 28.2 95.703 27.6267 95.703 26.92C95.703 26.36 95.8696 25.8467 96.203 25.38C96.5363 24.9133 97.0096 24.5467 97.623 24.28C98.2363 24 98.9363 23.86 99.723 23.86C100.936 23.86 101.916 24.1667 102.663 24.78C103.41 25.3933 103.81 26.2333 103.863 27.3H102.043C102.003 26.7267 101.77 26.2667 101.343 25.92C100.93 25.5733 100.37 25.4 99.663 25.4C99.0096 25.4 98.4896 25.54 98.103 25.82C97.7163 26.1 97.523 26.4667 97.523 26.92C97.523 27.28 97.6363 27.58 97.863 27.82C98.103 28.0467 98.3963 28.2333 98.743 28.38C99.103 28.5133 99.5963 28.6667 100.223 28.84C101.01 29.0533 101.65 29.2667 102.143 29.48C102.636 29.68 103.056 29.9867 103.403 30.4C103.763 30.8133 103.95 31.3533 103.963 32.02C103.963 32.62 103.796 33.16 103.463 33.64C103.13 34.12 102.656 34.5 102.043 34.78C101.443 35.0467 100.75 35.18 99.963 35.18ZM105.852 29.5C105.852 28.3667 106.079 27.38 106.532 26.54C106.986 25.6867 107.612 25.0267 108.412 24.56C109.226 24.0933 110.152 23.86 111.192 23.86C112.539 23.86 113.646 24.1867 114.512 24.84C115.392 25.4933 115.972 26.4 116.252 27.56H114.292C114.106 26.8933 113.739 26.3667 113.192 25.98C112.659 25.5933 111.992 25.4 111.192 25.4C110.152 25.4 109.312 25.76 108.672 26.48C108.032 27.1867 107.712 28.1933 107.712 29.5C107.712 30.82 108.032 31.84 108.672 32.56C109.312 33.28 110.152 33.64 111.192 33.64C111.992 33.64 112.659 33.4533 113.192 33.08C113.726 32.7067 114.092 32.1733 114.292 31.48H116.252C115.959 32.6 115.372 33.5 114.492 34.18C113.612 34.8467 112.512 35.18 111.192 35.18C110.152 35.18 109.226 34.9467 108.412 34.48C107.612 34.0133 106.986 33.3533 106.532 32.5C106.079 31.6467 105.852 30.6467 105.852 29.5ZM118.001 29.48C118.001 28.36 118.227 27.38 118.681 26.54C119.134 25.6867 119.754 25.0267 120.541 24.56C121.341 24.0933 122.227 23.86 123.201 23.86C124.161 23.86 124.994 24.0667 125.701 24.48C126.407 24.8933 126.934 25.4133 127.281 26.04V24.04H129.121V35H127.281V32.96C126.921 33.6 126.381 34.1333 125.661 34.56C124.954 34.9733 124.127 35.18 123.181 35.18C122.207 35.18 121.327 34.94 120.541 34.46C119.754 33.98 119.134 33.3067 118.681 32.44C118.227 31.5733 118.001 30.5867 118.001 29.48ZM127.281 29.5C127.281 28.6733 127.114 27.9533 126.781 27.34C126.447 26.7267 125.994 26.26 125.421 25.94C124.861 25.6067 124.241 25.44 123.561 25.44C122.881 25.44 122.261 25.6 121.701 25.92C121.141 26.24 120.694 26.7067 120.361 27.32C120.027 27.9333 119.861 28.6533 119.861 29.48C119.861 30.32 120.027 31.0533 120.361 31.68C120.694 32.2933 121.141 32.7667 121.701 33.1C122.261 33.42 122.881 33.58 123.561 33.58C124.241 33.58 124.861 33.42 125.421 33.1C125.994 32.7667 126.447 32.2933 126.781 31.68C127.114 31.0533 127.281 30.3267 127.281 29.5ZM134.016 25.82C134.336 25.1933 134.79 24.7067 135.376 24.36C135.976 24.0133 136.703 23.84 137.556 23.84V25.72H137.076C135.036 25.72 134.016 26.8267 134.016 29.04V35H132.196V24.04H134.016V25.82ZM144.177 23.86C145.124 23.86 145.951 24.0667 146.657 24.48C147.377 24.8933 147.911 25.4133 148.257 26.04V24.04H150.097V35.24C150.097 36.24 149.884 37.1267 149.457 37.9C149.031 38.6867 148.417 39.3 147.617 39.74C146.831 40.18 145.911 40.4 144.857 40.4C143.417 40.4 142.217 40.06 141.257 39.38C140.297 38.7 139.731 37.7733 139.557 36.6H141.357C141.557 37.2667 141.971 37.8 142.597 38.2C143.224 38.6133 143.977 38.82 144.857 38.82C145.857 38.82 146.671 38.5067 147.297 37.88C147.937 37.2533 148.257 36.3733 148.257 35.24V32.94C147.897 33.58 147.364 34.1133 146.657 34.54C145.951 34.9667 145.124 35.18 144.177 35.18C143.204 35.18 142.317 34.94 141.517 34.46C140.731 33.98 140.111 33.3067 139.657 32.44C139.204 31.5733 138.977 30.5867 138.977 29.48C138.977 28.36 139.204 27.38 139.657 26.54C140.111 25.6867 140.731 25.0267 141.517 24.56C142.317 24.0933 143.204 23.86 144.177 23.86ZM148.257 29.5C148.257 28.6733 148.091 27.9533 147.757 27.34C147.424 26.7267 146.971 26.26 146.397 25.94C145.837 25.6067 145.217 25.44 144.537 25.44C143.857 25.44 143.237 25.6 142.677 25.92C142.117 26.24 141.671 26.7067 141.337 27.32C141.004 27.9333 140.837 28.6533 140.837 29.48C140.837 30.32 141.004 31.0533 141.337 31.68C141.671 32.2933 142.117 32.7667 142.677 33.1C143.237 33.42 143.857 33.58 144.537 33.58C145.217 33.58 145.837 33.42 146.397 33.1C146.971 32.7667 147.424 32.2933 147.757 31.68C148.091 31.0533 148.257 30.3267 148.257 29.5ZM152.493 29.48C152.493 28.36 152.719 27.38 153.173 26.54C153.626 25.6867 154.246 25.0267 155.033 24.56C155.833 24.0933 156.719 23.86 157.693 23.86C158.653 23.86 159.486 24.0667 160.193 24.48C160.899 24.8933 161.426 25.4133 161.773 26.04V24.04H163.613V35H161.773V32.96C161.413 33.6 160.873 34.1333 160.153 34.56C159.446 34.9733 158.619 35.18 157.673 35.18C156.699 35.18 155.819 34.94 155.033 34.46C154.246 33.98 153.626 33.3067 153.173 32.44C152.719 31.5733 152.493 30.5867 152.493 29.48ZM161.773 29.5C161.773 28.6733 161.606 27.9533 161.273 27.34C160.939 26.7267 160.486 26.26 159.913 25.94C159.353 25.6067 158.733 25.44 158.053 25.44C157.373 25.44 156.753 25.6 156.193 25.92C155.633 26.24 155.186 26.7067 154.853 27.32C154.519 27.9333 154.353 28.6533 154.353 29.48C154.353 30.32 154.519 31.0533 154.853 31.68C155.186 32.2933 155.633 32.7667 156.193 33.1C156.753 33.42 157.373 33.58 158.053 33.58C158.733 33.58 159.353 33.42 159.913 33.1C160.486 32.7667 160.939 32.2933 161.273 31.68C161.606 31.0533 161.773 30.3267 161.773 29.5ZM168.508 25.82C168.828 25.1933 169.282 24.7067 169.868 24.36C170.468 24.0133 171.195 23.84 172.048 23.84V25.72H171.568C169.528 25.72 168.508 26.8267 168.508 29.04V35H166.688V24.04H168.508V25.82ZM192.661 23.84C193.515 23.84 194.275 24.02 194.941 24.38C195.608 24.7267 196.135 25.2533 196.521 25.96C196.908 26.6667 197.101 27.5267 197.101 28.54V35H195.301V28.8C195.301 27.7067 195.028 26.8733 194.481 26.3C193.948 25.7133 193.221 25.42 192.301 25.42C191.355 25.42 190.601 25.7267 190.041 26.34C189.481 26.94 189.201 27.8133 189.201 28.96V35H187.401V28.8C187.401 27.7067 187.128 26.8733 186.581 26.3C186.048 25.7133 185.321 25.42 184.401 25.42C183.455 25.42 182.701 25.7267 182.141 26.34C181.581 26.94 181.301 27.8133 181.301 28.96V35H179.481V24.04H181.301V25.62C181.661 25.0467 182.141 24.6067 182.741 24.3C183.355 23.9933 184.028 23.84 184.761 23.84C185.681 23.84 186.495 24.0467 187.201 24.46C187.908 24.8733 188.435 25.48 188.781 26.28C189.088 25.5067 189.595 24.9067 190.301 24.48C191.008 24.0533 191.795 23.84 192.661 23.84ZM199.407 29.48C199.407 28.36 199.634 27.38 200.087 26.54C200.54 25.6867 201.16 25.0267 201.947 24.56C202.747 24.0933 203.634 23.86 204.607 23.86C205.567 23.86 206.4 24.0667 207.107 24.48C207.814 24.8933 208.34 25.4133 208.687 26.04V24.04H210.527V35H208.687V32.96C208.327 33.6 207.787 34.1333 207.067 34.56C206.36 34.9733 205.534 35.18 204.587 35.18C203.614 35.18 202.734 34.94 201.947 34.46C201.16 33.98 200.54 33.3067 200.087 32.44C199.634 31.5733 199.407 30.5867 199.407 29.48ZM208.687 29.5C208.687 28.6733 208.52 27.9533 208.187 27.34C207.854 26.7267 207.4 26.26 206.827 25.94C206.267 25.6067 205.647 25.44 204.967 25.44C204.287 25.44 203.667 25.6 203.107 25.92C202.547 26.24 202.1 26.7067 201.767 27.32C201.434 27.9333 201.267 28.6533 201.267 29.48C201.267 30.32 201.434 31.0533 201.767 31.68C202.1 32.2933 202.547 32.7667 203.107 33.1C203.667 33.42 204.287 33.58 204.967 33.58C205.647 33.58 206.267 33.42 206.827 33.1C207.4 32.7667 207.854 32.2933 208.187 31.68C208.52 31.0533 208.687 30.3267 208.687 29.5ZM218.943 23.84C220.276 23.84 221.356 24.2467 222.183 25.06C223.009 25.86 223.423 27.02 223.423 28.54V35H221.623V28.8C221.623 27.7067 221.349 26.8733 220.803 26.3C220.256 25.7133 219.509 25.42 218.563 25.42C217.603 25.42 216.836 25.72 216.263 26.32C215.703 26.92 215.423 27.7933 215.423 28.94V35H213.603V24.04H215.423V25.6C215.783 25.04 216.269 24.6067 216.883 24.3C217.509 23.9933 218.196 23.84 218.943 23.84ZM236.115 24.04V35H234.295V33.38C233.949 33.94 233.462 34.38 232.835 34.7C232.222 35.0067 231.542 35.16 230.795 35.16C229.942 35.16 229.175 34.9867 228.495 34.64C227.815 34.28 227.275 33.7467 226.875 33.04C226.489 32.3333 226.295 31.4733 226.295 30.46V24.04H228.095V30.22C228.095 31.3 228.369 32.1333 228.915 32.72C229.462 33.2933 230.209 33.58 231.155 33.58C232.129 33.58 232.895 33.28 233.455 32.68C234.015 32.08 234.295 31.2067 234.295 30.06V24.04H236.115ZM238.508 29.48C238.508 28.36 238.735 27.38 239.188 26.54C239.642 25.6867 240.262 25.0267 241.048 24.56C241.848 24.0933 242.735 23.86 243.708 23.86C244.668 23.86 245.502 24.0667 246.208 24.48C246.915 24.8933 247.442 25.4133 247.788 26.04V24.04H249.628V35H247.788V32.96C247.428 33.6 246.888 34.1333 246.168 34.56C245.462 34.9733 244.635 35.18 243.688 35.18C242.715 35.18 241.835 34.94 241.048 34.46C240.262 33.98 239.642 33.3067 239.188 32.44C238.735 31.5733 238.508 30.5867 238.508 29.48ZM247.788 29.5C247.788 28.6733 247.622 27.9533 247.288 27.34C246.955 26.7267 246.502 26.26 245.928 25.94C245.368 25.6067 244.748 25.44 244.068 25.44C243.388 25.44 242.768 25.6 242.208 25.92C241.648 26.24 241.202 26.7067 240.868 27.32C240.535 27.9333 240.368 28.6533 240.368 29.48C240.368 30.32 240.535 31.0533 240.868 31.68C241.202 32.2933 241.648 32.7667 242.208 33.1C242.768 33.42 243.388 33.58 244.068 33.58C244.748 33.58 245.368 33.42 245.928 33.1C246.502 32.7667 246.955 32.2933 247.288 31.68C247.622 31.0533 247.788 30.3267 247.788 29.5ZM254.524 20.2V35H252.704V20.2H254.524Z" fill="#FAFBFD"/>
<rect width="56" height="56" rx="8" fill="#FAFBFD"/>
<path fill-rule="evenodd" clip-rule="evenodd" d="M11.3328 17.3237H44.4215C45.7099 17.3237 46.7543 18.3682 46.7543 19.6565V39.8658C46.7543 41.1541 45.7099 42.1986 44.4215 42.1986H11.3328C10.0444 42.1986 9 41.1541 9 39.8658V19.6565C9 18.3682 10.0444 17.3237 11.3328 17.3237Z" fill="#7783CD"/>
<mask id="mask0" mask-type="alpha" maskUnits="userSpaceOnUse" x="11" y="12" width="17" height="28">
<path d="M11.6167 14.1384V36.0217C11.6167 37.7932 13.0528 39.2293 14.8243 39.2293H22.9144C25.7058 39.2293 27.9688 36.9664 27.9688 34.1749V17.0544C27.9688 14.2629 25.7058 12 22.9144 12H13.7551C12.5741 12 11.6167 12.9574 11.6167 14.1384Z" fill="white"/>
</mask>
<g mask="url(#mask0)">
<path d="M11.6167 14.1384V36.0217C11.6167 37.7932 13.0528 39.2293 14.8243 39.2293H22.9144C25.7058 39.2293 27.9688 36.9664 27.9688 34.1749V17.0544C27.9688 14.2629 25.7058 12 22.9144 12H13.7551C12.5741 12 11.6167 12.9574 11.6167 14.1384Z" fill="#E4E8EA"/>
<path fill-rule="evenodd" clip-rule="evenodd" d="M9.77344 14.1384V36.0217C9.77344 37.7932 11.2095 39.2293 12.981 39.2293H21.0711C23.8626 39.2293 26.1255 36.9664 26.1255 34.1749V17.0544C26.1255 14.2629 23.8626 12 21.0711 12H11.9118C10.7308 12 9.77344 12.9574 9.77344 14.1384Z" fill="#FAFAFA"/>
</g>
<mask id="mask1" mask-type="alpha" maskUnits="userSpaceOnUse" x="27" y="12" width="18" height="28">
<path d="M27.9484 14.1384V36.0217C27.9484 37.7932 29.3845 39.2293 31.156 39.2293H39.246C42.0375 39.2293 44.3004 36.9664 44.3004 34.1749V17.0544C44.3004 14.2629 42.0375 12 39.246 12H30.0868C28.9058 12 27.9484 12.9574 27.9484 14.1384Z" fill="white"/>
</mask>
<g mask="url(#mask1)">
<path d="M44.3004 14.1384V36.0217C44.3004 37.7932 42.8643 39.2293 41.0928 39.2293H33.0027C30.2113 39.2293 27.9483 36.9664 27.9483 34.1749V17.0544C27.9483 14.2629 30.2113 12 33.0027 12H42.162C43.343 12 44.3004 12.9574 44.3004 14.1384Z" fill="#E4E8EA"/>
<path fill-rule="evenodd" clip-rule="evenodd" d="M42.0769 14.1384V36.0217C42.0769 37.7932 40.6408 39.2293 38.8693 39.2293H30.7792C27.9878 39.2293 25.7248 36.9664 25.7248 34.1749V17.0544C25.7248 14.2629 27.9878 12 30.7792 12H39.9385C41.1195 12 42.0769 12.9574 42.0769 14.1384Z" fill="#FAFAFA"/>
</g>
<path d="M24.4158 20.1526H14.8528C14.4502 20.1526 14.1238 20.479 14.1238 20.8816V20.8868C14.1238 21.2894 14.4502 21.6158 14.8528 21.6158H24.4158C24.8184 21.6158 25.1448 21.2894 25.1448 20.8868V20.8816C25.1448 20.479 24.8184 20.1526 24.4158 20.1526Z" fill="#C5D3DD"/>
<path d="M24.4158 22.5913H20.5566C20.154 22.5913 19.8276 22.9177 19.8276 23.3203V23.3255C19.8276 23.7282 20.154 24.0545 20.5566 24.0545H24.4158C24.8184 24.0545 25.1448 23.7282 25.1448 23.3255V23.3203C25.1448 22.9177 24.8184 22.5913 24.4158 22.5913Z" fill="#C5D3DD"/>
<path d="M31.187 22.2744C31.7393 22.2744 32.187 21.8267 32.187 21.2744C32.187 20.7221 31.7393 20.2744 31.187 20.2744C30.6347 20.2744 30.187 20.7221 30.187 21.2744C30.187 21.8267 30.6347 22.2744 31.187 22.2744Z" fill="#C5D3DD"/>
<path d="M31.187 25.396C31.7393 25.396 32.187 24.9483 32.187 24.396C32.187 23.8437 31.7393 23.396 31.187 23.396C30.6347 23.396 30.187 23.8437 30.187 24.396C30.187 24.9483 30.6347 25.396 31.187 25.396Z" fill="#C5D3DD"/>
<path d="M31.187 28.3223C31.7393 28.3223 32.187 27.8746 32.187 27.3223C32.187 26.77 31.7393 26.3223 31.187 26.3223C30.6347 26.3223 30.187 26.77 30.187 27.3223C30.187 27.8746 30.6347 28.3223 31.187 28.3223Z" fill="#C5D3DD"/>
<path d="M40.5605 20.6401H33.7045C33.3018 20.6401 32.9755 20.9665 32.9755 21.3691V21.3744C32.9755 21.777 33.3018 22.1034 33.7045 22.1034H40.5605C40.9631 22.1034 41.2895 21.777 41.2895 21.3744V21.3691C41.2895 20.9665 40.9631 20.6401 40.5605 20.6401Z" fill="#C5D3DD"/>
<path d="M40.5605 23.5669H33.7045C33.3018 23.5669 32.9755 23.8933 32.9755 24.2959V24.3011C32.9755 24.7037 33.3018 25.0301 33.7045 25.0301H40.5605C40.9631 25.0301 41.2895 24.7037 41.2895 24.3011V24.2959C41.2895 23.8933 40.9631 23.5669 40.5605 23.5669Z" fill="#C5D3DD"/>
<path d="M40.5605 26.4932H33.7045C33.3018 26.4932 32.9755 26.8195 32.9755 27.2222V27.2274C32.9755 27.63 33.3018 27.9564 33.7045 27.9564H40.5605C40.9631 27.9564 41.2895 27.63 41.2895 27.2274V27.2222C41.2895 26.8195 40.9631 26.4932 40.5605 26.4932Z" fill="#C5D3DD"/>
<path d="M24.4158 17.7139H14.8528C14.4502 17.7139 14.1238 18.0403 14.1238 18.4429V18.4481C14.1238 18.8507 14.4502 19.1771 14.8528 19.1771H24.4158C24.8184 19.1771 25.1448 18.8507 25.1448 18.4481V18.4429C25.1448 18.0403 24.8184 17.7139 24.4158 17.7139Z" fill="#C5D3DD"/>
<path d="M40.5605 17.7139H33.7045C33.3018 17.7139 32.9755 18.0403 32.9755 18.4429V18.4481C32.9755 18.8507 33.3018 19.1771 33.7045 19.1771H40.5605C40.9631 19.1771 41.2895 18.8507 41.2895 18.4481V18.4429C41.2895 18.0403 40.9631 17.7139 40.5605 17.7139Z" fill="#C5D3DD"/>
<path d="M31.187 19.3479C31.7393 19.3479 32.187 18.9002 32.187 18.3479C32.187 17.7956 31.7393 17.3479 31.187 17.3479C30.6347 17.3479 30.187 17.7956 30.187 18.3479C30.187 18.9002 30.6347 19.3479 31.187 19.3479Z" fill="#C5D3DD"/>
</svg>
