<svg xmlns="http://www.w3.org/2000/svg" width="160" height="84" fill="none" viewBox="0 0 160 84">
    <path fill="#00B0ED" d="M0 8c0-4.418 3.582-8 8-8h144c4.418 0 8 3.582 8 8v68c0 4.418-3.582 8-8 8H8c-4.418 0-8-3.582-8-8V8z"/>
    <mask id="prefix__a" width="60" height="61" x="30" y="14" maskUnits="userSpaceOnUse">
        <path fill="#fff" d="M30 14.73h59.897v59.896H30V14.73z"/>
    </mask>
    <g mask="url(#prefix__a)">
        <path fill="#70CCF5" fill-rule="evenodd" d="M89.897 44.678c0 16.54-13.409 29.948-29.949 29.948S30 61.218 30 44.678 43.408 14.73 59.949 14.73c16.54 0 29.948 13.408 29.948 29.948z" clip-rule="evenodd"/>
    </g>
    <path fill="#773C22" fill-rule="evenodd" d="M53.214 9.508c-5.65.695-13.758 7.41-10.437 13.64 1.56 2.8-.583 3.887-1.91 6.165-.628 1.035-.451 4.584 1.486 3.356-1.404 3.39 1.607 5.444 4.308 3.46.33 1.674 1.071 3.63 2.996 3.863 1.032.082 2.551-.525 2.904-1.564 1.645.785 4.052 1.024 5.91 1.186 1.307.086 2.547-.178 3.722-.72.898-.336 1.801-1.368 2.489-1.29.343.074.683.565 1.096.64.48.075.964-.058 1.447-.26.897-.337 1.73-1.022 2.218-1.85.976-1.449 1.264-3.045 1.278-4.783.013-1.46.638-2.148.924-3.466.537-2.928-1.2-4.974-1.714-7.694-.181-.959-.157-1.95-.34-2.902-1.297-6.723-10.914-8.5-16.377-7.78z" clip-rule="evenodd"/>
    <path fill="#FFBE99" fill-rule="evenodd" d="M61.919 11.503c2.402.474 4.458 1.79 5.53 4.14 1.152 2.526 1.865 5.768 2.216 8.514.198 1.551.196 3.803-.592 5.193-2.948 5.202-9.965 5.102-14.961 3.806-1.437-.372-3.44-1.269-4.393-2.528-.255.536-2.034.785-2.545.677-.682-.142-1.196-.655-1.509-1.289-.508-1.03-.453-2.555.598-3.171.589-.345 1.936-.37 2.531-.001-3.47-2.154-2.86-6.719-1.047-9.884 1.581-2.758 5.14-4.49 8.024-5.298 1.662-.465 3.99-.584 6.148-.159z" clip-rule="evenodd"/>
    <mask id="prefix__b" width="26" height="19" x="44" y="9" maskUnits="userSpaceOnUse">
        <path fill="#fff" d="M44.739 9.297h25.038v18.268H44.739V9.297z"/>
    </mask>
    <g mask="url(#prefix__b)">
        <path fill="#773C22" fill-rule="evenodd" d="M57.852 9.44c-2.985-.273-7.088-.39-9.381 1.888-2.24 2.225-3.593 4.353-3.728 7.57-.118 2.83 2.14 5.851 1.07 8.625.676-.487 1.088-.536 1.877-.41.639.101 1.422.841 1.89.181.558-.785.444-2.484.413-3.424-.035-1.094-.406-2.46-.862-2.747.648.408 1.004 1.242 1.619 1.752-.438-.785-.38-1.73-.383-2.616.462.863.666 2.01 1.224 2.819 1.087-1.441 16.88-1.892 18.186-1.81-.956-.759-.192-4.447-.94-5.339-.61-.823-1.841-1.584-2.244-2.541.482.005-5.087-3.612-8.74-3.947z" clip-rule="evenodd"/>
    </g>
    <path fill="#000" fill-rule="evenodd" d="M56.355 26.051c.654-.063.645-.96.515-1.403-.07-.24-.204-.533-.457-.643-.268-.117-.621.045-.727.298-.215.513-.194 1.834.669 1.748zM64.911 25.734c-.658-.006-.734-.9-.647-1.352.047-.245.153-.549.394-.68.256-.14.623-.01.753.232.263.493.367 1.809-.5 1.8z" clip-rule="evenodd"/>
    <path fill="#F57A67" fill-rule="evenodd" d="M64.49 29.427l-.001.1-.01.01-.006.007-.017.019-.017.018-.017.017-.016.018-.018.018-.017.018-.017.017-.018.017-.017.018-.018.017-.017.017-.018.018-.018.016-.011.011-.007.006-.018.017-.019.017-.018.017-.018.016-.019.016-.019.016-.018.017-.02.016-.018.016-.02.016-.019.016-.02.015-.019.016-.02.016-.019.015-.02.015-.02.016-.02.015-.02.015-.02.015-.02.015-.02.015-.02.014-.02.015-.021.014-.02.015-.022.014-.02.015-.022.013-.02.015-.021.014-.022.013-.021.014-.021.014-.01.006-.012.007-.021.013-.022.013-.022.014-.022.012-.022.013-.021.013-.022.013-.022.012-.023.013-.022.012-.022.012-.023.012-.022.012-.023.012-.022.012-.023.012-.023.011-.022.012-.023.011-.023.011-.008.004-.015.007-.023.011-.023.011-.024.01-.023.011-.023.01-.024.01-.023.011-.024.01-.023.01-.024.01-.024.01-.023.01-.024.01-.024.008-.024.01-.024.01-.024.008-.024.009-.024.009-.024.009-.013.004-.012.004-.024.008-.024.009-.025.007-.024.008-.025.008-.024.008-.025.007-.025.008-.024.007-.025.007-.025.007-.024.007-.025.007-.025.006-.025.007-.025.006-.025.007-.024.006-.026.006-.014.003-.01.002-.026.006-.025.006-.025.005-.025.005-.025.005-.026.005-.025.005-.025.004-.02.004h-.005l-.026.005-.025.004-.025.004-.026.003-.025.004-.026.004-.025.003-.026.003h-.002l-.023.003-.026.003-.025.002-.026.003-.025.002-.026.002-.025.002-.026.002h-.004l-.022.001-.025.002-.026.001h-.025l-.026.002-.025.001h-.026l-.026.001h-.153l-.025-.001h-.025l-.026-.002-.025-.001-.026-.001-.025-.002-.026-.001-.025-.002-.026-.002-.025-.002-.025-.002-.018-.001h-.007l-.026-.004-.025-.002-.025-.003-.025-.003-.026-.003-.024-.004-.026-.003-.025-.004-.025-.004-.025-.003-.025-.005-.025-.004-.025-.004-.025-.005-.025-.004-.024-.005-.025-.005-.01-.002-.015-.003-.024-.006-.025-.005-.024-.006-.025-.006-.024-.006-.025-.006-.024-.007-.025-.006-.024-.007-.024-.006-.024-.008-.024-.006-.025-.008-.024-.007-.024-.008-.024-.008-.022-.007h-.001l-.024-.009-.024-.008-.024-.008-.023-.009-.024-.009-.023-.009-.023-.009-.024-.009-.023-.01-.023-.01-.023-.009-.024-.01-.022-.01-.023-.01-.023-.01-.023-.011-.023-.01-.022-.011-.023-.011-.022-.011-.023-.012-.022-.011-.022-.012-.023-.012-.022-.011-.022-.012-.022-.013-.021-.012-.022-.012-.022-.014-.022-.012-.021-.013-.012-.008-.01-.005-.02-.014-.022-.014-.02-.013-.022-.014-.02-.014-.022-.015-.02-.014-.01-.007-.01-.007-.011-.008-.01-.007-.01-.008-.01-.007-.01-.007-.011-.008-.01-.008-.01-.007-.01-.008-.01-.008-.01-.007-.01-.008-.01-.008-.01-.008-.01-.008-.01-.008-.01-.008-.01-.008-.01-.008-.01-.008-.01-.008-.009-.008-.01-.009-.01-.008-.009-.008-.01-.008-.01-.009-.009-.008-.01-.008-.009-.009-.01-.009-.009-.008-.007-.007-.002-.002-.01-.008-.01-.1.095-.01.01.007.001.002.008.006.01.007.01.007.01.006.01.008.01.007.01.007.01.007.01.006.01.007.01.007.01.007.01.007.01.006.01.007.01.006.01.007.01.006.011.007.01.006.01.006.01.006.01.007.011.006.01.006.01.006.01.006.011.006.01.006.01.007.011.005.01.006.011.006.01.006.01.005.022.012.021.011.02.011.022.011.021.01.021.012.021.01.01.004.012.006.021.01.021.01.022.01.021.01.022.01.021.009.022.01.022.008.021.009.022.009.022.008.022.009.022.008.022.008.022.008.022.008.022.008.022.008.022.007.022.007.022.007.023.007.022.007.023.007.022.006.023.006.022.006.023.006.022.006.023.006.023.005.022.006h.001l.022.005.023.006.023.005.022.005.023.005.023.005.023.004.023.005.023.004.023.004.023.004.023.004.023.004.023.003.023.004.023.003.023.003.015.002.008.001.024.003.023.003.023.003.023.003.024.002.023.003.024.002.023.002.023.002.024.002.023.002.023.001.024.002h.023l.024.002.023.001h.024l.006.001h.017l.024.002h.024l.023.001h.047l.024.001h.094l.024-.001h.023l.024-.001.024-.001.023-.001.024-.001h.012l.011-.001.024-.002h.024l.024-.002.023-.001.024-.002.024-.002.023-.002.02-.002h.004l.024-.002.023-.002.024-.002.024-.002.024-.003.023-.002.024-.003.02-.003h.004l.023-.002.024-.003.023-.003.024-.003.024-.003.023-.004.024-.003.023-.004h.007l.017-.003.024-.004.024-.003.023-.004.024-.004.024-.004.023-.004.024-.005.023-.004.01-.002.014-.002.023-.005.024-.004.024-.005.023-.005.023-.004.024-.005.023-.005.024-.006.023-.005.024-.005.023-.006.024-.006.023-.005.023-.006.023-.006.024-.007.023-.006.023-.006.023-.007.012-.003.011-.003.024-.007.023-.006.023-.007.023-.007.023-.007.023-.007.023-.007.023-.008.023-.007.023-.008.023-.007.023-.008.022-.008.023-.008.023-.008.023-.008.022-.009.022-.008.023-.009.023-.008.014-.006.008-.003.023-.009.022-.009.022-.009.022-.009.023-.01.022-.008.022-.01.022-.01.022-.009.022-.01.022-.01.022-.01.022-.01.022-.01.021-.01.022-.01.021-.01.022-.012.021-.01.022-.011.011-.006.01-.005.022-.01.02-.012.022-.011.021-.011.021-.012.021-.011.021-.012.021-.011.021-.012.02-.012.021-.012.021-.012.02-.012.021-.013.02-.012.02-.012.021-.013.02-.013.02-.012.02-.014.02-.013.02-.013.02-.013.02-.013.02-.014.019-.013.02-.014.019-.013.02-.015.018-.013.02-.014.019-.014.018-.015.02-.014.006-.005.012-.01.019-.014.018-.014.02-.015.018-.015.018-.015.018-.015.018-.015.018-.015.019-.015.018-.016.017-.015.018-.015.017-.016.007-.006.011-.01.097.002zM61.486 25.937c-.009.01-.023.319-.009.572.019.314.053.629.132.93 0 0-.081.053.11-.014.4-.142.797-.38 1.255-.241.351.106.57.572.423.94-.188.465-.715.707-1.187.758-.213.023-.44.004-.62-.105l-.052-.136.123-.04c.008.005.016.008.024.011.466.173 1.067-.15 1.285-.543.075-.134.074-.356-.106-.409-.337-.099-.69.152-1.124.24-.18.036-.415.015-.49-.216-.19-.575-.156-1.31.056-1.79.031-.07.085-.143.167-.144l.095.09s-.105.1-.081.097z" clip-rule="evenodd"/>
    <path fill="#FFCDAD" fill-rule="evenodd" d="M56.823 57.118c-.202 1.173-2.33 12.806-2.536 13.527-1.069 1.07-5.087 3.222-4.64-1 .45-4.53.51-12.101.51-12.101s4.116.71 6.666-.426z" clip-rule="evenodd"/>
    <path fill="#fff" fill-rule="evenodd" d="M49.905 66.699c1.464 1.563 3.79 1.22 4.959.736-.293 1.726-.517 3-.577 3.21-1.069 1.07-5.087 3.222-4.64-1 .08-.817.169-1.832.258-2.946z" clip-rule="evenodd"/>
    <path fill="#FFCDAD" fill-rule="evenodd" d="M67.951 57.318c.028 2.064-.014 9.005-.02 9.895-.007.89 2.636 3.797 2.398 4.52-.24.724-4.886.293-6.22-1.427-.613-3.283-1.754-11.915-1.754-11.915-1.401-.221 7.186-3.06 5.596-1.073z" clip-rule="evenodd"/>
    <path fill="#fff" fill-rule="evenodd" d="M63.669 66.82c2.091.94 3.447.454 4.284-.197-.014.287-.022.494-.023.59-.006.89 2.637 3.797 2.398 4.52-.239.724-4.801.468-6.136-1.252-.308-.663-.418-2.117-.523-3.661z" clip-rule="evenodd"/>
    <path fill="#FFCDAD" fill-rule="evenodd" d="M51.215 38.92c-1.613 1.058-3.302 7.205-3.888 11.306-.453 4.005-1.392 3.224-2.185 3.5-.793.275-1.452.67-.63 1.159-.407.41.129.892.5.8-.415.373.383.75 1.1.302.72-.45 1.097-.506 1.247-.158.15.348-.104.642.584.855.69.213 3.262-7.594 3.272-12.142-.13-2.163-.009-5.504 0-5.622z" clip-rule="evenodd"/>
    <path fill="#EC9165" fill-rule="evenodd" d="M44.931 55.95l-.003-.067c.002-.02.003-.042.012-.064.009-.023.023-.043.044-.063.02-.02.046-.038.077-.056.028-.019.064-.033.099-.052l.232-.103c.16-.072.319-.152.433-.225.115-.07.186-.131.186-.131s-.09.01-.219.045c-.128.034-.296.09-.46.161-.08.04-.162.078-.235.127-.072.049-.14.104-.181.176-.021.035-.032.075-.032.109-.002.035.008.063.015.084.008.02.018.033.023.043l.01.015zM44.411 55.188v-.019c0-.012-.005-.031.001-.052.005-.02.01-.04.026-.063.01-.024.035-.045.057-.068.025-.022.053-.042.086-.064.032-.02.069-.04.106-.06.075-.04.16-.077.245-.113.17-.072.345-.14.475-.2.131-.056.218-.103.218-.103s-.098-.006-.24.014c-.143.019-.33.063-.51.139-.177.077-.353.186-.445.326-.021.035-.04.069-.045.105-.01.034-.006.068-.002.092.003.024.016.037.02.05l.008.016z" clip-rule="evenodd"/>
    <path fill="#FFCDAD" fill-rule="evenodd" d="M65.838 40.93c1.549.532 4.087 4.134 5.169 7.487 1.286 3.348 1.367 2.742 2.071 2.792.705.05 1.329.236.776.852.422.257.1.8-.221.808.421.224-.137.74-.821.521-.685-.218-1.004-.176-1.045.159-.04.335.232.53-.276.876-.508.347-3.939-4.01-4.992-7.932-.391-1.898-.626-5.463-.66-5.562z" clip-rule="evenodd"/>
    <path fill="#FFBE99" fill-rule="evenodd" d="M59.894 32.817c.044.9-.133 2.705.001 2.747.134.041 1.905.911 1.905.911l1.317.843S60.2 41.485 57.23 41.05c-2.968-.435-4.514-3.901-4.514-3.901l2.953-1.65.263-3.19s1.247.774 3.961.508z" clip-rule="evenodd"/>
    <path fill="#fff" fill-rule="evenodd" d="M61.438 36.326c.084 1.702-4.264 3.853-7.274-.074-1.702 1.008-2.795 1.865-3.824 2.47-1.012.594-4.321 14.927-4.321 14.927.383 1.348 2.703 1.212 3.415 1.07.437-1.133 2.141-8.774 2.435-9.235-.011.806-1.634 8.308-1.782 10.402 2.485 1.438 15.134-.248 17.227-2.669.077-2.516-2.487-9.618-2.487-9.618.473.289 2.328 6.517 3.533 7.64.7.806 3.434-.823 3.431-1.489-2.067-5.8-4.78-11.358-7.703-12.932l-2.65-.492z" clip-rule="evenodd"/>
    <path fill="#4C55A4" fill-rule="evenodd" d="M67.404 53.217c-1.38-.578-2.682-9.1-4.191-9.78-1.51-.679-7.065-.32-7.945.539-.88.859-1.83 10.267-3.153 11.466-1.464 1.49-1.627-1.208-1.627-1.208-.523 1.875-.263 6.045-.263 6.045.504 2.72 6.429 3.21 8.573 1.831.72-2.24.77-3.738.77-3.738l1.447-.564c-.113 2.07-.163 4.173-.163 4.173 1.881 1.375 8.167-.797 8.34-1.66.172-.862-.747-4.587-1.788-7.104z" clip-rule="evenodd"/>
    <path fill="#A0A0A0" fill-rule="evenodd" d="M63.104 37.068l-.079.121c-.05.08-.127.195-.231.333-.05.071-.108.147-.176.226-.066.08-.135.168-.218.254-.079.09-.165.181-.262.272-.093.094-.198.185-.307.28-.221.184-.47.37-.75.535-.277.17-.585.319-.913.44-.654.246-1.396.364-2.135.323-.369-.021-.736-.08-1.093-.17-.354-.1-.7-.214-1.022-.364-.163-.07-.316-.157-.47-.233-.149-.088-.3-.165-.437-.258-.278-.178-.535-.362-.765-.543-.23-.182-.432-.36-.611-.522-.175-.164-.325-.313-.45-.434l-.38-.397.324.452c.112.137.243.309.407.493l.265.288c.095.101.202.198.31.303.22.207.47.419.75.62.139.104.291.194.44.296.157.09.316.183.484.265.335.168.694.312 1.07.42.378.099.769.168 1.163.194.395.017.791-.008 1.174-.072.384-.06.75-.183 1.094-.323.345-.138.66-.32.942-.515.285-.19.531-.407.745-.62.214-.212.393-.425.537-.626.075-.097.138-.194.195-.285.06-.089.109-.174.151-.253.09-.154.147-.28.187-.367l.061-.133z" clip-rule="evenodd"/>
    <path fill="#EC9165" fill-rule="evenodd" d="M73.759 53.078l.004-.015c.001-.01.007-.023.009-.042 0-.02.003-.047-.007-.076-.008-.03-.026-.062-.051-.087-.05-.052-.118-.084-.188-.109-.07-.026-.144-.04-.219-.054-.149-.024-.297-.031-.408-.03-.112 0-.188.012-.188.012s.071.036.18.07c.11.035.257.068.403.091.072.011.145.023.211.035.032.007.065.011.092.02.029.009.055.018.075.03.021.013.038.027.05.045.013.017.019.035.025.052l.012.058zM73.987 52.333l.003-.017c0-.01.008-.025.005-.046-.002-.022-.005-.052-.02-.079-.01-.03-.032-.056-.056-.084-.025-.025-.054-.05-.087-.07-.032-.022-.067-.04-.104-.056-.074-.033-.155-.053-.236-.07-.162-.029-.323-.025-.442-.01-.12.015-.197.043-.197.043s.08.021.198.04c.118.021.274.042.426.07.076.013.152.03.22.048.035.011.069.02.099.033.03.012.057.024.081.038.022.017.046.03.06.048.017.018.025.035.033.051.009.017.01.035.013.045l.004.016z" clip-rule="evenodd"/>
    <path fill="#4C55A4" fill-rule="evenodd" d="M65.593 37.597c.321 1.16-.314 4.999-.727 5.303-1.103-.947-2.19-.934-2.19-.934.863-1.214.932-4.493.636-5.156.04-.5 2.068.476 2.281.787z" clip-rule="evenodd"/>
    <path fill="#FFB659" fill-rule="evenodd" d="M61.358 45.563c.022.451.379.802.797.783.418-.019.739-.4.716-.852-.022-.45-.379-.801-.797-.782-.418.018-.738.4-.716.851z" clip-rule="evenodd"/>
    <path fill-rule="evenodd" stroke="#FFB659" stroke-width=".85" d="M65.367 43.696c.205-.508-2.155-2.217-3.022-1.75-.764.568.258 1.234.08 1.634-.178.4.722 1.249 1.125.732.403-.516 1.678-.076 1.817-.616z" clip-rule="evenodd"/>
    <path fill="#4C55A4" fill-rule="evenodd" d="M51.859 37.365c.951.648 3.085 4.08 2.965 4.605-.049.351-2.045 1.335-2.045 1.335-.106-1.535-2.404-4.309-3.031-4.598-.277-.407 1.762-1.424 2.11-1.342z" clip-rule="evenodd"/>
    <path fill="#FFB659" fill-rule="evenodd" d="M56.69 45.917c.022.452-.298.833-.717.852-.418.019-.775-.332-.797-.783-.023-.451.299-.832.717-.851.418-.02.775.331.797.782z" clip-rule="evenodd"/>
    <path fill-rule="evenodd" stroke="#FFB659" stroke-width=".85" d="M52.497 44.28c-.255-.487 1.927-2.402 2.837-2.016.816.497-.137 1.252.08 1.634.217.382-.595 1.309-1.047.83-.453-.477-1.68.077-1.87-.448z" clip-rule="evenodd"/>
    <path fill="#616FBB" fill-rule="evenodd" d="M68.98 57.607c.444-.127 1.165.214 1.172.356.008.142-.081 1.393.012 2.065.093.672.16 1.677-.44 2.227-3.862 3.546-7.853 2.28-8.903 1.65-.767-.458-.568-.94-.575-1.1-.07-1.65-.305-2.607-.087-2.893.063-.082.773-.439.773-.439.003.677.034 1.292.034 1.292 1.402.471 5.694.752 7.871-1.911.169-.222.143-1.247.143-1.247zM50.335 57.676c-.613-.139-1.267.223-.674 2.261-.19.769-.071 2.212.301 2.86.358.62 3.821 3.93 8.262 1.927.192-.087.533-.321.517-.641-.07-1.522 1.14-3.767-.124-3.673l-.24.9c-1.202.981-6.074 1.119-8.022-1.879.06-.53-.02-1.755-.02-1.755z" clip-rule="evenodd"/>
    <path fill="#B4643A" fill-rule="evenodd" d="M54.459 70.282c-.7.506-2.518 1.087-2.676 1.023-.206-1.723-1.993-2.615-2.458-1.194-.212.603-1.438 1.988-.94 2.963.496.974 3.152-.096 5.041-.99.957-.541.857-.822 1.033-1.802z" clip-rule="evenodd"/>
    <path fill="#fff" fill-rule="evenodd" d="M51.14 71.571c-.131-.92-1.357-1.623-1.958-1.216-.146.196-.192.317-.192.317.447-.044 1.526.145 1.886 1.15.222.297.264-.25.264-.25zM50.281 71.99c-.232-.511-1.087-1.042-1.562-.878-.267.178-.207.342-.207.342.591.115 1.221.276 1.43.67.267.154.34-.133.34-.133z" clip-rule="evenodd"/>
    <path fill="#B4643A" fill-rule="evenodd" d="M63.876 69.64c.754.51 2.603 1.01 2.76.937.083-1.835 1.846-2.85 2.427-1.361.263.63 1.62 2.051 1.184 3.104-.436 1.052-3.235.02-5.235-.853-1.02-.537-.883-.793-1.136-1.827z" clip-rule="evenodd"/>
    <path fill="#fff" fill-rule="evenodd" d="M67.314 70.834c.066-.98 1.268-1.774 1.914-1.365.164.202.22.329.22.329-.46-.03-1.552.212-1.845 1.29-.205.325-.289-.254-.289-.254zM68.225 71.245c.2-.551 1.035-1.147 1.534-.992.287.179.237.355.237.355-.597.145-1.23.34-1.415.766-.26.174-.356-.129-.356-.129z" clip-rule="evenodd"/>
    <path fill="#32459F" fill-rule="evenodd" d="M62.61 58.298s-.08-.005-.219-.002c-.138.004-.334.013-.565.04-.115.013-.24.027-.372.048-.131.017.323-1.428.182-1.389-.284.076-.584.169-.88.273-.15.05-.291.117-.432.183-.14.064-.277.133-.408.201-.131.067-.256.137-.374.204-.117.067-.222.15-.32.22-.194.142-.35.272-.455.366-.106.093-.163.152-.163.152s.081-.012.216-.044c.135-.031.325-.08.543-.153.111-.032.226-.078.352-.115.127-.037.26-.077.395-.123.136-.046.275-.094.414-.149.141-.05.28-.116.424-.16.285-.102.567-.213.828-.33.131-.058.256-.12.382-.168.124-.051.239-.105.346-.154.213-.098.387-.193.508-.263.122-.07-.402 1.363-.402 1.363zM49.643 59.772s.002.06.012.162c.012.102.035.25.08.417.043.17.103.363.184.56.08.198.177.403.29.595.057.096.116.19.18.277.06.091.133.167.195.248.136.15.273.278.405.36.064.043.125.078.183.1.055.024.103.044.146.05.084.017.13.022.13.022l-.105-.097c-.034-.025-.07-.07-.112-.112-.043-.042-.087-.097-.135-.154-.05-.055-.096-.126-.149-.193-.052-.067-.1-.15-.157-.224-.103-.163-.214-.334-.318-.516-.056-.087-.103-.181-.157-.269-.048-.092-.103-.176-.149-.265l-.263-.48-.26-.48zM69.454 57.995l.004.039c.007.026-.006.063-.013.096l-.025.061-.04.066c-.031.045-.068.092-.114.141-.042.05-.099.097-.152.15-.056.052-.118.103-.182.157-.061.057-.135.103-.2.16l-.213.161-.215.162c-.072.05-.139.111-.208.16-.069.049-.133.103-.195.153-.063.047-.121.095-.175.14-.107.091-.197.168-.258.227l-.095.096s.046-.005.124-.021c.078-.017.19-.04.319-.089.258-.086.589-.251.893-.48.151-.115.296-.246.42-.389.064-.068.118-.144.169-.218.05-.075.094-.147.127-.225.036-.072.06-.15.076-.217.005-.036.013-.068.015-.1l-.003-.087c-.01-.057-.023-.095-.038-.112l-.02-.032zM60.655 59.937s-.026.026-.066.076c-.017.027-.04.065-.06.114-.017.048-.035.108-.034.182-.002.072.012.156.045.234.033.076.08.147.135.204.027.034.057.054.087.08.03.026.06.047.092.065.062.042.128.07.193.098.13.05.262.076.384.089.123.01.237.008.334-.009.194-.023.321-.083.321-.083s-.03-.02-.084-.049c-.053-.029-.129-.063-.219-.102-.09-.038-.193-.078-.303-.116-.108-.04-.223-.078-.331-.12-.054-.021-.108-.042-.156-.066-.051-.022-.095-.049-.136-.075-.081-.053-.134-.108-.167-.182-.015-.038-.024-.08-.031-.12-.003-.04-.006-.077-.007-.11.004-.07.003-.11.003-.11zM70.106 58.855s-.03.042-.076.118c-.023.038-.052.084-.08.139-.032.053-.061.12-.102.178-.04.061-.082.126-.122.197-.038.072-.087.141-.137.216-.048.074-.1.15-.148.229-.056.073-.109.148-.163.225-.05.08-.111.148-.167.22-.059.067-.104.151-.165.21-.059.06-.112.126-.163.188-.052.06-.108.107-.154.16-.05.046-.09.103-.135.136-.042.036-.08.07-.11.099-.062.057-.097.094-.097.094s.044-.004.124-.019c.04-.008.09-.017.145-.033.057-.011.113-.044.177-.075.063-.033.137-.062.204-.113.066-.049.138-.1.209-.16.074-.056.137-.13.204-.202.068-.073.135-.147.191-.233.058-.085.116-.17.17-.255.05-.09.091-.184.135-.272.02-.044.043-.087.06-.13l.047-.137c.031-.088.055-.172.077-.25.026-.076.031-.149.042-.213.01-.064.016-.12.022-.168.01-.093.012-.148.012-.148zM50.167 58.086l-.026.006c-.018.005-.042 0-.073.028-.035.021-.066.06-.097.112l-.037.09c-.01.033-.015.07-.023.107-.01.075-.016.16-.007.244.004.087.023.171.043.26.044.173.115.342.199.496.042.078.089.15.136.22.048.067.099.13.148.19.051.057.102.11.15.159.05.048.1.087.147.124.09.077.175.122.233.156.059.032.094.047.094.047s-.018-.042-.053-.109c-.034-.068-.087-.157-.148-.265-.062-.105-.132-.228-.21-.352-.037-.065-.075-.13-.115-.195l-.114-.201c-.035-.068-.074-.134-.105-.202-.036-.067-.064-.134-.094-.198-.025-.065-.054-.13-.07-.19-.022-.06-.035-.118-.046-.172l-.01-.078-.002-.07c.007-.041.01-.084.023-.11.008-.032.03-.057.04-.072l.017-.025zM59.075 48.886c-1.399.063-2.42-.306-3.03-.527-.113-.04-.238-.086-.319-.11-.175.424-.296 2.025-.21 2.37.29.302 2.256 1.197 3.369 1.232.035.002.071.001.109 0 1.18-.054 3.137-1.311 3.308-1.55.077-.225-.064-1.404-.292-2.152-.986.446-1.971.694-2.935.737zm-.201 3.622c-1.176-.038-3.654-1.047-3.9-1.588-.189-.417-.053-2.208.17-2.861.051-.152.14-.363.324-.448.172-.079.372-.016.765.126.57.206 1.524.551 2.81.493.981-.045 1.992-.32 3.006-.82.073-.036.157-.039.233-.008.076.031.138.093.172.173.27.632.637 2.505.395 3.021-.223.475-2.528 1.852-3.823 1.91-.052.003-.103.004-.152.002z" clip-rule="evenodd"/>
    <path fill="#32459F" fill-rule="evenodd" d="M53.39 56.688l-.097.3-.113.338c-.043.13-.097.274-.152.432-.117.313.339-.804.177-.425-.16.38-.337.78-.531 1.165-.098.192-.197.384-.303.564-.106.18-.213.354-.327.508-.113.155-.228.299-.349.404-.12.104-.241.179-.355.2-.113.02-.228-.008-.323-.076-.097-.064-.178-.145-.238-.218-.065-.07-.105-.137-.137-.179l-.05-.066s.008.028.02.082c.017.051.028.134.072.228.038.097.091.217.194.333.093.12.263.237.469.25.205.016.412-.06.59-.172.18-.112.342-.257.488-.422.15-.163.285-.345.408-.538.127-.19.236-.395.343-.6.102-.208.198-.417.28-.63.085-.211.158-.424.22-.631.065-.208.114-.413.158-.608.045-.194-.515 1.098-.491.925.05-.346.064-.638.061-.844.003-.102-.007-.182-.009-.236l-.006-.084zM58.842 60.755l-.001.027c.002.02-.01.04-.019.058-.011.021-.03.04-.051.062-.023.022-.052.04-.081.063-.13.08-.313.167-.503.26-.189.095-.38.2-.522.303-.142.097-.234.194-.234.194s.03.009.08.018c.05.008.123.02.207.016.17.002.39-.046.598-.15.052-.026.104-.056.152-.09.05-.03.097-.072.141-.109.088-.081.163-.173.214-.273.026-.05.044-.1.056-.149.011-.049.012-.096.007-.133-.005-.04-.018-.068-.028-.077l-.016-.02z" clip-rule="evenodd"/>
    <path fill="#fff" d="M113.84 50.112V35.064l1.128.576-4.632 2.952v-1.896l4.368-2.784h1.128v16.2h-1.992zm-3.768.888v-1.656h9.528V51h-9.528zm15.447-9.864c-.752 0-1.4-.152-1.944-.456-.528-.32-.936-.76-1.224-1.32-.288-.56-.432-1.2-.432-1.92s.144-1.352.432-1.896c.288-.544.696-.968 1.224-1.272.544-.32 1.192-.48 1.944-.48.768 0 1.416.16 1.944.48.544.304.96.728 1.248 1.272.288.544.432 1.176.432 1.896s-.144 1.36-.432 1.92c-.288.56-.704 1-1.248 1.32-.528.304-1.176.456-1.944.456zm0-1.392c.624 0 1.096-.2 1.416-.6.32-.4.48-.968.48-1.704 0-.72-.16-1.28-.48-1.68-.32-.4-.792-.6-1.416-.6-.608 0-1.072.2-1.392.6-.304.4-.456.96-.456 1.68 0 .736.152 1.304.456 1.704.32.4.784.6 1.392.6z"/>
</svg>
