<svg xmlns="http://www.w3.org/2000/svg" width="350" height="84" fill="none" viewBox="0 0 350 84">
    <rect width="350" height="84" fill="#697AE4" rx="8"/>
    <path fill="#C5C9F3" d="M59.997 71.994c16.567 0 29.997-13.43 29.997-29.997S76.564 12 59.997 12 30 25.43 30 41.997s13.43 29.997 29.997 29.997z" opacity=".8"/>
    <path fill="#905115" d="M54.933 67.366l1.161-3.32C51.44 62.736 47.3 59.5 44.163 56.18l2.432-2.427c.784 3.283 7.842 7.236 13.266 7.245 10.396 0 20.287-9.668 20.301-20.07 0-5.424-3.246-11.71-6.917-13.753l2.43-2.427c4.288 4.07 7.547 11.362 7.541 17.724-.018 12.226-10.506 22.102-22.717 22.182l.716 3.021c6.273 1.367 11.483 5.317 11.483 5.317l-30.425-.039s5.736-4.684 12.66-5.587z"/>
    <path fill="#FFF2D9" d="M56.52 64.256l-1.688 5.05c.345.594.758.87 1.23.92l1.102-5.869-.645-.1zM54.039 68.115c-3.372.413-7.102 2.335-10.946 4.723 3.565.08 6.998-.072 9.933.044-4.462-1.773-5.005-1.723 1.013-4.767zM75.701 25.227l-2.02 1.88c1.15.79 2.19 1.645 2.929 2.747-2.926-4.399.665-4.321 4.247 2.995-1.387-2.995-3.035-5.635-5.156-7.622zM46.414 54.41l-1.806 1.827c2.032 2.212 4.378 4.113 6.962 5.643-9.273-7.114-1.933-3.232 4.04-1.188-4.47-1.53-7.574-3.606-9.196-6.282z" opacity=".3"/>
    <path fill="#B76053" d="M60.178 64.788l1.096 4.952c-.594 1.004-1.91 1.25-3.742.935.638-2.195 1.051-4.271.923-6.053l1.723.166zm-1.96 6.561c-.042.428-.342.87-1.574 1.453 5.91-.339 10.506.297 14.325 0-3.03-1.895-6.041-3.395-9.009-4.102.173 1.654-1.232 2.471-3.742 2.65zm-.663-7.562c1.882.342 3.803.407 5.703.193 1.913-.222 3.785-.716 5.558-1.467 7.235-3.139 12.342-9.783 13.515-17.581.555-3.814.045-7.707-1.474-11.249 1.177 3.593 1.45 7.42.796 11.145-.67 3.684-2.213 7.154-4.5 10.12-2.267 2.98-5.223 5.366-8.613 6.956-3.436 1.584-7.23 2.233-10.996 1.883h.011z" opacity=".6"/>
    <path fill="#AD522F" d="M46.444 53.27c0-.35.21-.664.532-.797.322-.133.693-.059.94.188.245.247.319.618.184.94-.134.322-.45.53-.798.53-.474-.002-.858-.387-.858-.862zm26.308-24.55c.348 0 .663-.208.798-.53.134-.322.061-.693-.185-.94s-.617-.32-.94-.188c-.322.133-.532.448-.532.796 0 .229.09.448.25.61.162.16.38.252.609.252z"/>
    <path fill="url(#prefix__paint0_radial)" d="M76.078 46.855c3.37-8.804-1.034-18.674-9.838-22.045-8.805-3.37-18.675 1.034-22.046 9.838-3.37 8.805 1.034 18.675 9.839 22.046 8.804 3.37 18.674-1.034 22.045-9.839z"/>
    <path fill="url(#prefix__paint1_radial)" d="M71.12 33.122c.68.362 1.563.487 2.187.941 1.571 1.147-.505 3.211-1.821 3.455-.225.015-.442.087-.63.21-.107.118-.2.248-.276.387-.243.344-.656.52-.983.79-.698.594-.912 1.565-.956 2.474-.045.91.032 1.848-.247 2.712L67 41.379c-.249-.408-.402-.867-.449-1.342 0-.594.33-1.188.339-1.783 0-.864-.633-1.586-.924-2.403-.231-.644-.237-1.342-.344-2.016-.107-.675-.345-1.382-.891-1.783.89-.858 2.34-.567 3.528-.22.996.328 1.955.76 2.86 1.29zm-10.728.133c-.232-.683-.734-.338-1.022.16-.134.307-.337.579-.594.794-.178.119-.413.184-.505.374-.148.297.2.627.517.76.164.09.355.112.535.063.155-.08.28-.208.353-.365.25-.395.888-1.278.716-1.786zm.707 1.188c-.087-.061-.191-.093-.297-.089-.223 0-.175.042-.297.176-.018.02-.045.032-.06.056-.007.027-.007.056 0 .083l.018.202c-.001.026.005.052.018.075 0 .023.039.035.06.053.02.018.095.098.148.137.137.1.328.08.443-.045.136-.195.123-.458-.033-.639v-.008zm1.485-.225c-.042-.002-.085.004-.125.018-.057.015-.112.035-.166.059-.094.024-.163.105-.172.202-.017.055-.006.115.03.16.06.033.134.033.195 0l.297-.086c.025-.007.05-.017.072-.03.16-.077.023-.302-.143-.314l.012-.01zm-9.02 7.532c-.53 0-1.052.205-1.578.149-.519-.08-.99-.347-1.325-.752-.33-.401-.6-.85-.799-1.33-.157-.342-.338-.722-.692-.853-.128-.047-.267-.056-.395-.107-.36-.145-.51-.576-.823-.805-.34-.232-.796-.2-1.102.078-.093.112-.2.212-.32.297-.115.037-.225.086-.33.145-.083.08-.14.184-.164.297-.415 1.485-.525 3.021-1.018 4.456-.142.363-.26.735-.35 1.114-.067.392-.075.793-.025 1.188.152 1.034.446 2.043.874 2.997.32.893.79 1.725 1.39 2.46.597.628 1.28 1.17 2.029 1.609.442.28.953.573 1.46.446.057-.339-.219-.657-.213-1.001.017-.14.04-.277.071-.413.057-.449-.222-.868-.297-1.316-.098-.68.297-1.36.196-2.04-.039-.122-.03-.254.024-.369.043-.047.096-.085.155-.11.417-.25.883-.408 1.366-.466.567-.03 1.152.214 1.687.023.267-.098.532-.297.805-.222.273.074.392.338.636.344.165-.012.318-.093.421-.223 1.783-1.758 1.254-5.625-1.684-5.595zm23.58-2.447v-.06c-.505-.166-1.075 0-1.53-.314-.647-.44-.736-1.188-1.71-1.188.221.429.19.945-.08 1.345-.272.386-.633.701-1.052.918-.229.134-.49.297-.508.561.004.15.056.295.149.413.297.472.745.85 1.063 1.316.318.466.508 1.087.264 1.595-.116.212-.27.401-.454.558-.957.927-1.992 1.77-3.092 2.522-1.01.69-2.21 1.55-2.124 2.772.502.121 1.019-.116 1.459-.392.409-.318.876-.553 1.375-.693.51-.089 1.132.176 1.215.687.023.266-.047.531-.2.751-.325.542-.821.96-1.41 1.188-.11.033-.212.09-.297.167-.11.177-.154.387-.125.593.003.832-.552 1.563-1.353 1.785-.802.22-1.653-.122-2.078-.837-.124-.199-.21-.422-.344-.618-.514-.745-1.572-.855-2.471-.77.074.747-.562 1.352-1.141 1.828-.918.748-1.874 1.526-2.997 1.936-1.106.386-2.31.386-3.416 0 .348 1.188 1.553 1.874 2.673 2.433 4.973.34 9.847-1.508 13.344-5.06 3.497-3.552 5.27-8.454 4.852-13.421l-.012-.015zM45.826 37.52l2.117-1.165c.23-.127.574-.222.701 0 .043.093.055.197.036.297-.036.425-.068.853-.104 1.28.538.051 1.164.072 1.527-.335.148-.17.229-.392.362-.573.312-.416.862-.572 1.346-.384.484.188.784.675.733 1.192-.053.472-.38.855-.626 1.259-.247.404-.413.945-.146 1.334.671-.265 1.435-.636 1.574-1.343.048-.252 0-.514.054-.766.053-.253.226-.514.481-.52.183.022.352.11.475.247.401.356.826.754.915 1.283.104.594-.27 1.256-.041 1.83.228.573 1.06.772 1.63.487.555-.333.946-.882 1.078-1.515.17-.615.208-1.26.369-1.878.147-.372.204-.774.166-1.173-.12-.388-.37-.722-.71-.944-.573-.452-1.23-.8-1.758-1.304-.529-.505-.933-1.224-.802-1.943.077-.413.32-.778.433-1.188.16-.594-.4-1.568.633-1.001.52.297.829 1.013.891 1.571.045.333.137.77.473.793.216.018.386-.169.52-.338.445-.573.89-1.206.935-1.928.11-1.39-1.156-2.46-2.302-3.25-.447-.36-.971-.61-1.533-.73-.567-.077-1.223.187-1.402.73-.08.241-.059.503-.121.746-.146.639-.891 1.022-1.55.936-.66-.137-1.238-.532-1.605-1.096-.219-.348-.457-.683-.713-1.004-1.827 1.379-3.36 3.11-4.509 5.09.112.109.247.19.395.238.594.179 1.287-.169 1.8.16.176.328.14.729-.092 1.02-.228.278-.507.511-.823.686-.67.424-1.401.992-1.413 1.782-.021.523.3.989.606 1.41v.007z"/>
    <path fill="#3D509D" d="M73.758 32.792c1.812 3.52 2.573 7.616 1.88 11.516-.691 3.9-2.866 7.553-6.133 9.805-4.087 2.822-9.392 3.234-14.335 2.715 4.37-.918 8.418-3.327 11.697-6.363 3.291-3.057 5.696-6.947 6.96-11.257.571-2.104.547-4.325-.069-6.416z" opacity=".2"/>
    <path fill="#fff" d="M148.536 51.192c-.88 0-1.704-.072-2.472-.216-.768-.16-1.48-.4-2.136-.72-.656-.336-1.248-.744-1.776-1.224l.744-1.512c.864.72 1.728 1.232 2.592 1.536.88.304 1.904.456 3.072.456 1.36 0 2.416-.264 3.168-.792.752-.544 1.128-1.304 1.128-2.28 0-.592-.192-1.064-.576-1.416-.368-.368-.88-.656-1.536-.864-.64-.224-1.368-.432-2.184-.624-.816-.176-1.592-.376-2.328-.6-.736-.24-1.392-.536-1.968-.888-.56-.352-1-.8-1.32-1.344-.32-.544-.48-1.224-.48-2.04 0-.976.256-1.832.768-2.568.512-.752 1.232-1.336 2.16-1.752.928-.416 2.024-.624 3.288-.624.784 0 1.536.088 2.256.264.72.16 1.384.4 1.992.72.624.32 1.176.712 1.656 1.176l-.768 1.512c-.784-.688-1.592-1.192-2.424-1.512-.832-.32-1.736-.48-2.712-.48-1.328 0-2.368.28-3.12.84-.752.56-1.128 1.344-1.128 2.352 0 .624.168 1.128.504 1.512.336.384.808.696 1.416.936.608.224 1.304.432 2.088.624.832.192 1.632.4 2.4.624.768.224 1.448.504 2.04.84.608.32 1.088.744 1.44 1.272.352.512.528 1.168.528 1.968 0 .976-.256 1.824-.768 2.544s-1.24 1.28-2.184 1.68c-.944.4-2.064.6-3.36.6zm19.177-1.632c-.528.496-1.208.888-2.04 1.176-.816.288-1.656.432-2.52.432-1.248 0-2.328-.248-3.24-.744-.896-.496-1.592-1.208-2.088-2.136-.48-.944-.72-2.064-.72-3.36 0-1.248.24-2.344.72-3.288s1.144-1.68 1.992-2.208c.864-.528 1.856-.792 2.976-.792 1.072 0 1.992.24 2.76.72.768.464 1.352 1.136 1.752 2.016.416.88.624 1.936.624 3.168v.36h-9.12v-1.272h8.016l-.624.888c.032-1.408-.248-2.488-.84-3.24-.576-.752-1.424-1.128-2.544-1.128-1.168 0-2.088.416-2.76 1.248-.656.816-.984 1.952-.984 3.408 0 1.568.344 2.752 1.032 3.552.704.8 1.728 1.2 3.072 1.2.704 0 1.376-.112 2.016-.336.656-.24 1.28-.6 1.872-1.08l.648 1.416zm8.231 1.608c-1.184 0-2.208-.256-3.072-.768-.864-.512-1.536-1.232-2.016-2.16-.464-.928-.696-2.024-.696-3.288 0-1.248.24-2.344.72-3.288.48-.96 1.16-1.704 2.04-2.232.88-.528 1.92-.792 3.12-.792.816 0 1.6.144 2.352.432.768.272 1.4.656 1.896 1.152l-.648 1.44c-.592-.464-1.176-.808-1.752-1.032-.56-.24-1.144-.36-1.752-.36-1.216 0-2.184.408-2.904 1.224-.704.816-1.056 1.968-1.056 3.456 0 1.472.352 2.608 1.056 3.408.704.8 1.672 1.2 2.904 1.2.592 0 1.176-.112 1.752-.336.576-.24 1.16-.592 1.752-1.056l.648 1.44c-.512.48-1.16.864-1.944 1.152-.768.272-1.568.408-2.4.408zm11.091 0c-1.44 0-2.528-.4-3.264-1.2-.72-.8-1.08-1.984-1.08-3.552v-7.488h1.944v7.44c0 1.088.224 1.888.672 2.4.448.512 1.128.768 2.04.768 1.072 0 1.936-.344 2.592-1.032.656-.688.984-1.608.984-2.76v-6.816h1.944V51h-1.896v-2.616l.288-.144c-.32.96-.864 1.688-1.632 2.184-.752.496-1.616.744-2.592.744zm9.579-.168v-8.688c0-.56-.016-1.12-.048-1.68-.016-.576-.064-1.144-.144-1.704h1.848l.216 2.496-.24.192c.336-.976.896-1.712 1.68-2.208.784-.512 1.688-.768 2.712-.768 2.896 0 4.344 1.592 4.344 4.776V51h-1.944v-7.488c0-1.12-.224-1.936-.672-2.448-.448-.528-1.152-.792-2.112-.792-1.12 0-2.016.344-2.688 1.032-.672.688-1.008 1.616-1.008 2.784V51h-1.944zm24.671 0h-1.92v-3.24l.288.264c-.272 1.008-.792 1.784-1.56 2.328-.768.544-1.704.816-2.808.816-1.056 0-1.992-.256-2.808-.768-.8-.528-1.424-1.264-1.872-2.208-.448-.96-.672-2.072-.672-3.336 0-1.264.216-2.36.648-3.288.448-.928 1.072-1.648 1.872-2.16.816-.512 1.76-.768 2.832-.768 1.104 0 2.04.28 2.808.84.768.544 1.288 1.312 1.56 2.304l-.312.24v-8.688h1.944V51zm-5.616-1.44c1.168 0 2.072-.4 2.712-1.2.656-.816.984-1.968.984-3.456 0-1.472-.32-2.608-.96-3.408-.64-.816-1.552-1.224-2.736-1.224-1.184 0-2.112.4-2.784 1.2-.656.8-.984 1.928-.984 3.384 0 1.488.328 2.648.984 3.48.672.816 1.6 1.224 2.784 1.224zm14.007 1.608c-1.072 0-2.016-.248-2.832-.744-.8-.512-1.424-1.232-1.872-2.16-.432-.944-.648-2.048-.648-3.312 0-1.264.224-2.368.672-3.312.448-.944 1.072-1.68 1.872-2.208.816-.528 1.752-.792 2.808-.792 1.104 0 2.04.272 2.808.816.768.544 1.288 1.32 1.56 2.328l-.288.192v-3.048h1.92V51h-1.92v-3.12l.288.144c-.272 1.008-.792 1.784-1.56 2.328-.768.544-1.704.816-2.808.816zm.384-1.608c1.184 0 2.096-.4 2.736-1.2.64-.816.96-1.968.96-3.456s-.328-2.632-.984-3.432c-.64-.8-1.544-1.2-2.712-1.2-1.184 0-2.112.416-2.784 1.248-.656.816-.984 1.96-.984 3.432s.328 2.608.984 3.408c.672.8 1.6 1.2 2.784 1.2zm9.375 1.44v-8.688c0-.56-.016-1.12-.048-1.68-.016-.576-.064-1.144-.144-1.704h1.847l.265 2.976-.265-.072c.225-1.056.705-1.848 1.441-2.376.752-.544 1.592-.816 2.52-.816.208 0 .4.016.576.048.192.016.368.048.528.096l-.048 1.776c-.368-.128-.792-.192-1.272-.192-.832 0-1.504.184-2.016.552-.496.368-.864.84-1.104 1.416-.224.56-.336 1.152-.336 1.776V51h-1.944zm8.695 0V38.928h1.944V51h-1.944zm-.192-17.184h2.376v2.208h-2.376v-2.208zm10.543 17.352c-1.072 0-2.016-.248-2.832-.744-.8-.512-1.424-1.232-1.872-2.16-.432-.944-.648-2.048-.648-3.312 0-1.264.224-2.368.672-3.312.448-.944 1.072-1.68 1.872-2.208.816-.528 1.752-.792 2.808-.792 1.104 0 2.04.272 2.808.816.768.544 1.288 1.32 1.56 2.328l-.288.192v-3.048h1.92V51h-1.92v-3.12l.288.144c-.272 1.008-.792 1.784-1.56 2.328-.768.544-1.704.816-2.808.816zm.384-1.608c1.184 0 2.096-.4 2.736-1.2.64-.816.96-1.968.96-3.456s-.328-2.632-.984-3.432c-.64-.8-1.544-1.2-2.712-1.2-1.184 0-2.112.416-2.784 1.248-.656.816-.984 1.96-.984 3.432s.328 2.608.984 3.408c.672.8 1.6 1.2 2.784 1.2zM274.617 51v-1.488l5.976-6.624c.8-.896 1.384-1.704 1.752-2.424.368-.72.552-1.44.552-2.16 0-.944-.272-1.664-.816-2.16-.544-.512-1.32-.768-2.328-.768-.832 0-1.648.168-2.448.504-.8.32-1.6.808-2.4 1.464l-.744-1.512c.672-.64 1.52-1.152 2.544-1.536 1.024-.384 2.056-.576 3.096-.576s1.936.184 2.688.552c.768.352 1.36.864 1.776 1.536.416.672.624 1.472.624 2.4 0 .976-.224 1.92-.672 2.832-.432.896-1.16 1.904-2.184 3.024l-5.76 6.24-.144-.96h9.48V51h-10.992zm16.527-9.864c-.752 0-1.4-.152-1.944-.456-.528-.32-.936-.76-1.224-1.32-.288-.56-.432-1.2-.432-1.92s.144-1.352.432-1.896c.288-.544.696-.968 1.224-1.272.544-.32 1.192-.48 1.944-.48.768 0 1.416.16 1.944.48.544.304.96.728 1.248 1.272.288.544.432 1.176.432 1.896s-.144 1.36-.432 1.92c-.288.56-.704 1-1.248 1.32-.528.304-1.176.456-1.944.456zm0-1.392c.624 0 1.096-.2 1.416-.6.32-.4.48-.968.48-1.704 0-.72-.16-1.28-.48-1.68-.32-.4-.792-.6-1.416-.6-.608 0-1.072.2-1.392.6-.304.4-.456.96-.456 1.68 0 .736.152 1.304.456 1.704.32.4.784.6 1.392.6z"/>
    <defs>
        <radialGradient id="prefix__paint0_radial" cx="0" cy="0" r="1" gradientTransform="rotate(-69.05 52.333 -27.603) scale(18.0472)" gradientUnits="userSpaceOnUse">
            <stop offset=".19" stop-color="#9AD5EB"/>
            <stop offset=".32" stop-color="#91D2E4"/>
            <stop offset=".52" stop-color="#7ACAD2"/>
            <stop offset=".77" stop-color="#54BDB4"/>
            <stop offset="1" stop-color="#2CB095"/>
        </radialGradient>
        <radialGradient id="prefix__paint1_radial" cx="0" cy="0" r="1" gradientTransform="rotate(162.393 10.458 9.822) scale(35.9026 35.594)" gradientUnits="userSpaceOnUse">
            <stop stop-color="#F3D07B"/>
            <stop offset=".06" stop-color="#F3CA70"/>
            <stop offset=".38" stop-color="#F5AA37"/>
            <stop offset=".54" stop-color="#F59E21"/>
            <stop offset=".62" stop-color="#EF9920"/>
            <stop offset=".74" stop-color="#DE891E"/>
            <stop offset=".86" stop-color="#C3701B"/>
            <stop offset="1" stop-color="#9D4D16"/>
        </radialGradient>
    </defs>
</svg>
