<?xml version="1.0" standalone="no"?>
<!DOCTYPE svg PUBLIC "-//W3C//DTD SVG 20010904//EN"
 "http://www.w3.org/TR/2001/REC-SVG-20010904/DTD/svg10.dtd">
<svg version="1.0" xmlns="http://www.w3.org/2000/svg"
 width="253.000000pt" height="253.000000pt" viewBox="0 0 253.000000 253.000000"
 preserveAspectRatio="xMidYMid meet">
<metadata>
Created by potrace 1.11, written by Peter Selinger 2001-2013
</metadata>
<g transform="translate(0.000000,253.000000) scale(0.100000,-0.100000)"
fill="#000000" stroke="none">
<path d="M1195 2243 c-16 -9 -138 -79 -270 -156 -132 -77 -256 -148 -275 -159
-41 -24 -559 -326 -612 -357 l-36 -22 31 -54 30 -54 55 31 c46 25 56 28 63 16
5 -8 17 -25 27 -38 l19 -23 219 133 c120 73 244 148 274 167 30 19 150 92 266
163 l212 128 68 1 68 0 215 -131 c119 -72 325 -198 459 -280 313 -191 300
-184 318 -161 7 10 14 20 14 23 0 3 4 11 9 19 7 11 19 7 64 -17 l56 -31 30 52
30 52 -21 16 c-17 13 -239 144 -313 185 -51 28 -385 223 -422 247 -24 15 -44
27 -47 27 -2 0 -62 34 -132 76 -123 73 -210 122 -264 151 -34 18 -98 16 -135
-4z"/>
<path d="M169 1363 c-1 -24 -1 -1018 0 -1064 l1 -35 120 0 120 1 1 30 c0 36 0
1007 0 1053 l-1 32 -120 0 c-107 0 -120 -2 -121 -17z"/>
<path d="M2120 822 l0 -558 118 0 c70 0 120 4 124 11 4 5 7 256 7 558 l0 547
-125 0 -124 0 0 -558z"/>
<path d="M1702 1349 c-31 -20 -34 -21 -52 -4 -18 16 -20 16 -37 -4 -22 -26
-35 -26 -51 -1 -18 29 -25 25 -50 -26 -19 -38 -26 -44 -43 -39 -25 8 -39 -8
-39 -47 0 -23 -4 -28 -24 -28 -23 0 -24 -2 -15 -32 13 -46 11 -58 -6 -58 -24
0 -28 -25 -10 -59 14 -27 14 -31 0 -31 -17 0 -20 -23 -5 -50 5 -10 13 -42 16
-72 19 -158 137 -271 284 -272 78 0 91 3 153 33 80 39 157 159 157 244 0 11
10 37 22 59 21 36 21 40 6 49 -15 9 -16 13 -3 50 16 45 13 61 -10 52 -16 -5
-16 -5 -19 82 -1 49 -1 50 -31 47 -27 -2 -34 3 -53 37 -21 36 -25 39 -56 34
-29 -5 -37 -1 -57 26 -27 37 -33 37 -77 10z m-13 -201 c15 29 23 28 42 -5 l17
-26 11 21 c17 31 30 27 47 -13 16 -39 23 -41 63 -20 28 14 29 14 35 -15 3 -17
12 -30 20 -30 13 0 30 -55 21 -70 -14 -23 -15 -78 -1 -89 33 -28 -32 -156
-105 -207 -138 -95 -335 -41 -405 111 -29 61 -30 87 -4 110 11 10 17 21 15 25
-3 4 -7 28 -10 54 -5 37 -3 46 10 46 9 0 18 12 22 30 5 25 9 29 27 24 36 -11
40 -10 44 14 3 17 8 21 22 17 13 -4 27 3 46 25 l28 31 22 -28 21 -27 12 22z"/>
<path d="M1574 926 c-9 -24 0 -51 18 -54 21 -4 34 34 18 53 -16 19 -29 19 -36
1z"/>
<path d="M1771 918 c-9 -25 3 -48 24 -48 19 0 27 28 15 51 -14 25 -29 24 -39
-3z"/>
<path d="M1770 754 c-61 -33 -91 -31 -195 12 -17 7 -18 6 -7 -8 19 -23 91 -46
138 -43 45 3 128 41 119 55 -4 6 -7 9 -8 9 -1 -1 -22 -12 -47 -25z"/>
<path d="M804 1330 c-83 -17 -163 -72 -222 -151 -12 -16 -55 -127 -74 -189
-12 -40 -14 -150 -4 -233 8 -64 1 -97 -18 -97 -8 0 -19 -6 -25 -14 -9 -11 -5
-18 22 -35 19 -12 44 -21 57 -21 33 0 77 30 107 72 23 35 28 37 42 24 9 -9 39
-25 66 -37 87 -38 202 -23 282 37 l31 24 21 -33 c37 -60 68 -82 117 -82 33 0
49 6 66 24 18 18 20 25 9 28 -32 12 -51 43 -44 71 3 15 7 81 7 147 1 90 -3
129 -15 155 -9 19 -21 57 -28 84 -37 153 -228 262 -397 226z m55 -250 c87 -59
148 -81 228 -82 29 0 33 -4 39 -35 30 -162 -96 -313 -262 -313 -140 0 -244 97
-268 250 -5 32 19 123 40 155 15 22 109 63 152 64 7 1 39 -17 71 -39z"/>
<path d="M757 924 c-12 -12 -8 -41 7 -53 17 -14 39 9 34 36 -3 18 -29 29 -41
17z"/>
<path d="M947 918 c-8 -23 11 -58 28 -52 23 9 20 64 -4 64 -10 0 -21 -6 -24
-12z"/>
<path d="M750 756 c24 -22 104 -45 141 -40 42 6 109 34 109 46 0 11 -2 11 -51
-12 -56 -25 -86 -25 -149 0 -60 24 -69 25 -50 6z"/>
</g>
</svg>
