<svg xmlns="http://www.w3.org/2000/svg" xmlns:xlink="http://www.w3.org/1999/xlink" width="311" height="159" viewBox="0 0 311 159">
    <defs>
        <filter id="prefix__a" width="134.1%" height="184.5%" x="-17.1%" y="-40.3%" filterUnits="objectBoundingBox">
            <feMorphology in="SourceAlpha" operator="dilate" radius=".5" result="shadowSpreadOuter1"/>
            <feOffset dy="2" in="shadowSpreadOuter1" result="shadowOffsetOuter1"/>
            <feGaussianBlur in="shadowOffsetOuter1" result="shadowBlurOuter1" stdDeviation="14"/>
            <feComposite in="shadowBlurOuter1" in2="SourceAlpha" operator="out" result="shadowBlurOuter1"/>
            <feColorMatrix in="shadowBlurOuter1" values="0 0 0 0 0 0 0 0 0 0 0 0 0 0 0 0 0 0 0.06 0"/>
        </filter>
        <rect id="prefix__b" width="255" height="103" x="0" y="0" rx="4"/>
        <path id="prefix__c" d="M.136 31.466C.136 14.13 14.19.076 31.526.076s31.39 14.054 31.39 31.39-14.054 31.39-31.39 31.39S.136 48.802.136 31.466z"/>
    </defs>
    <g fill="none" fill-rule="evenodd" transform="translate(28 26)">
        <use fill="#000" filter="url(#prefix__a)" xlink:href="#prefix__b"/>
        <use fill="#FFF" stroke="#E4E9F2" xlink:href="#prefix__b"/>
        <g transform="translate(13 21)">
            <path fill="#4FBA71" d="M.136 31.466C.136 14.13 14.19.076 31.526.076s31.39 14.054 31.39 31.39-14.054 31.39-31.39 31.39S.136 48.802.136 31.466z"/>
            <path fill="#4FBA71" d="M.136 31.466C.136 14.13 14.19.076 31.526.076s31.39 14.054 31.39 31.39-14.054 31.39-31.39 31.39S.136 48.802.136 31.466z"/>
            <mask id="prefix__d" fill="#fff">
                <use xlink:href="#prefix__c"/>
            </mask>
            <use fill="#52AF32" xlink:href="#prefix__c"/>
            <path stroke="#5765CE" stroke-linejoin="round" stroke-width="4.86" d="M44.06 24.906s11.697 6.175 14.546 32.578" mask="url(#prefix__d)"/>
            <g fill="#5E6CD0">
                <path d="M2.356 2.486C1.423 2.976.73 3.58.429 4.306c-.99 2.384.715 3.245 1.9 3.591-.014.987.107 1.989.335 2.842 0 0 1.469 6.494 2.32 8.105.85 1.61 2.262 1.727 2.262 1.727s7.014-.472 8.785-2.842c.712-.952 1.022-2.68.73-4.383 1.294-.239 2.225-1.506 2.094-2.96-.092-1.014-.68-1.803-1.465-2.198.103-.75.39-3.066.03-4.433-.42-1.6-1.435-.785-1.75-1.232-.316-.447 1.075-2.892-2.727-2.402-2.852.367-7.788.896-10.587 2.365zM19.578 23.517c-.206-.103-.195-.072.071-.072" transform="translate(24.948 .324)"/>
            </g>
            <g fill="#FEFFFE">
                <path d="M.362.635L.303 4.611c-.004.274.199.412.453.308l4.78-1.961c.254-.104.258-.283.01-.4L.819.349C.571.234.366.362.362.636z" transform="translate(14.256 47.952)"/>
            </g>
            <g stroke="#68CD88" stroke-linecap="round" stroke-linejoin="round" stroke-width=".5">
                <path d="M.079.214L2.466.214 2.466 2.356.079 2.356zM.146 4.743L2.532 4.743 2.532 6.885.146 6.885z" transform="translate(40.824 44.388)"/>
                <path d="M.568 1.1l.833.94S2.722.356 4.044.239M.946 5.21l.785.913s1.248-1.637 2.496-1.75" transform="translate(40.824 44.388)"/>
            </g>
            <g>
                <path fill="#5E6CD0" d="M7.59 40.81l8.113.035c.415 0 .752.11.752.244v.8c0 .135-.337.244-.752.244l-8.114-.035c-.415 0-.752-.109-.752-.243v-.801s.337-.243.752-.243z" transform="translate(7.452 12.636)"/>
                <path fill="#D6DBD8" d="M1.738 34.416h3.058c.33 0 .597.284.597.636v1.02c0 .351-.267.636-.597.636H1.738c-.329 0-.596-.285-.596-.636v-1.02c0-.352.267-.636.596-.636zM17.177 33.822h3.578c.374 0 .676.285.676.636v.867c0 .352-.302.636-.676.636h-3.578c-.374 0-.676-.284-.676-.636v-.867c0-.351.302-.636.676-.636z" transform="translate(7.452 12.636)"/>
                <path fill="#5E6CD0" d="M33.782 4.137l1.759 6.225s-5.344 1.354-5.735.424c-.39-.93-1.477-3.94-1.477-3.94l5.453-2.709z" transform="translate(7.452 12.636)"/>
                <path fill="#5E6CD0" d="M38.499 10.754c2.434 2.602 2.266 3.525 3.274 9.485 1.535 9.086-1.314 21.893-1.314 21.893l-19.816.362s3.98-9.434 4.628-14.348c1.277-9.676-3.12-13.482.553-17.308 2.014-2.099 9.749-3.212 12.675-.084zM51.229.434c0-.026.021-.048.047-.048.027 0 .048.022.048.048 0 .026-.021.048-.048.048-.026 0-.047-.022-.047-.048z" transform="translate(7.452 12.636)"/>
                <path stroke="#5E6CD0" stroke-linejoin="round" stroke-width="4.86" d="M8.675 13.84c3.202.41 5.03 11.487 11.248 9.77 6.24-1.725 6.089-7.81 7.328-9.834" transform="translate(7.452 12.636)"/>
                <path fill="#5E6CD0" d="M2.14 14.125c0-1.653 2.17-2.994 4.845-2.994s4.844 1.34 4.844 2.994c0 1.654-2.169 2.994-4.844 2.994-2.676 0-4.844-1.34-4.844-2.994z" transform="translate(7.452 12.636)"/>
                <path fill="#FA9B61" d="M2.186 21.745c.392-.8 1.66-.984 2.832-.41 1.172.573 1.805 1.687 1.414 2.487-.392.8-1.66.984-2.832.41-1.172-.574-1.805-1.687-1.414-2.487z" transform="translate(7.452 12.636)"/>
                <path fill="#5E6CD0" d="M.38 22.364c0-.018.01-.033.022-.033.012 0 .022.015.022.033 0 .018-.01.033-.022.033-.012 0-.021-.015-.021-.033zM1.338 22.08c0-.023.042-.042.094-.042s.094.019.094.042c0 .023-.042.042-.094.042s-.094-.019-.094-.042z" transform="translate(7.452 12.636)"/>
                <path fill="#D23689" d="M10.963 26.88c-.392-.8-1.66-.984-2.832-.41-1.172.573-1.805 1.687-1.414 2.487.392.8 1.66.984 2.832.41 1.172-.573 1.805-1.687 1.414-2.487z" transform="translate(7.452 12.636)"/>
                <path fill="#D6DBD8" d="M20.674 31.992l-1.393 8.355c-.04.239-.268.432-.509.432l-14.965.091c-.241 0-.47-.193-.51-.432l-1.392-8.24c-.04-.24.123-.434.364-.436l18.041-.2c.241-.001.404.191.364.43z" transform="translate(7.452 12.636)"/>
                <path fill="#5765CE" d="M35.529 9.143c.464.327 2.75 2.05 3.452 4.82 4.704 18.558-5.864 25.933-11.137 28.4l12.615-.233s2.852-12.804 1.317-21.89c-1.007-5.96-.846-6.885-3.28-9.487-.74-.791-1.783-1.309-2.967-1.61z" transform="translate(7.452 12.636)"/>
                <path fill="#68CD88" d="M36.012 40.03c.852-.431 4.746-2.53 6.897-.778 1.183.963-.88.768-.847.912.07.3 2.626-.319 1.646 1.98 0 0-2.278-.138-4.356-.333-2.078-.194-.98-1.113-3.412-1.002" transform="translate(7.452 12.636)"/>
                <path fill="#1EB1EA" d="M4.734 41.882h38.4c.32 0 .58.287.58.641v1.239c0 .354-.26.642-.58.642h-38.4c-.321 0-.581-.288-.581-.642v-1.239c0-.354.26-.641.58-.641z" transform="translate(7.452 12.636)"/>
                <path fill="#FA9B61" d="M23.52 40.587c.825-.783 8.123-3.347 11.29-2.857 3.167.49 1.525 4.155 1.525 4.155l-13.375.084s-.263-.6.56-1.382z" transform="translate(7.452 12.636)"/>
                <path fill="#DE844D" d="M32.25 37.817s-.315.63-.384 1.213c-.08.667.096 1.296.296 1.272.18-.021.24-.562.636-1.228.396-.666.947-1.435.947-1.435M28.48 41.922s-.154-.32-.153-.764c.001-.4.112-.918.268-.933.157-.015.266.474.36.874.093.4.51.778.51.778l-.984.045z" transform="translate(7.452 12.636)"/>
                <path fill="#E1E3E2" d="M1.752 31.08h19.02c.342 0 .618.276.618.617v.414c0 .341-.276.618-.617.618H1.753c-.341 0-.618-.277-.618-.618v-.414c0-.34.277-.617.617-.617z" transform="translate(7.452 12.636)"/>
                <path fill="#DE844D" d="M2.508 21.435c.476-.575 1.73-.513 2.8.138 1.07.65 1.552 1.644 1.077 2.218-.476.575-1.73.513-2.8-.137-1.07-.651-1.553-1.645-1.077-2.22z" transform="translate(7.452 12.636)"/>
                <path fill="#C0317D" d="M10.695 26.78c-.368-.693-1.558-.852-2.658-.355-1.1.496-1.694 1.46-1.327 2.154.368.692 1.558.852 2.658.355 1.1-.497 1.694-1.461 1.327-2.154z" transform="translate(7.452 12.636)"/>
            </g>
            <text fill="#333E53" font-family="Montserrat-Medium, Montserrat" font-size="20" font-weight="400">
                <tspan x="84.32" y="41">Alimentación</tspan>
            </text>
        </g>
    </g>
</svg>
