<?xml version="1.0" encoding="utf-8"?>
<!-- Generator: Adobe Illustrator 24.0.2, SVG Export Plug-In . SVG Version: 6.00 Build 0)  -->
<svg version="1.1" id="Capa_1" xmlns="http://www.w3.org/2000/svg" xmlns:xlink="http://www.w3.org/1999/xlink" x="0px" y="0px"
	 viewBox="0 0 311 133" style="enable-background:new 0 0 311 133;" xml:space="preserve">
<style type="text/css">
	.st0{display:none;filter:url(#prefix__a);}
	.st1{display:inline;fill-rule:evenodd;clip-rule:evenodd;}
	.st2{fill-rule:evenodd;clip-rule:evenodd;fill:#FFFFFF;stroke:#E4E9F2;}
	.st3{fill-rule:evenodd;clip-rule:evenodd;fill:#4FBA71;}
	.st4{fill-rule:evenodd;clip-rule:evenodd;fill:#52AF32;}
	.st5{filter:url(#Adobe_OpacityMaskFilter);}
	.st6{fill-rule:evenodd;clip-rule:evenodd;fill:#FFFFFF;}
	.st7{mask:url(#prefix__d_1_);fill:none;stroke:#5765CE;stroke-width:4.86;stroke-linejoin:round;}
	.st8{fill-rule:evenodd;clip-rule:evenodd;fill:#5E6CD0;}
	.st9{fill-rule:evenodd;clip-rule:evenodd;fill:#FEFFFE;}
	.st10{fill:none;stroke:#68CD88;stroke-width:0.5;stroke-linecap:round;stroke-linejoin:round;}
	.st11{fill-rule:evenodd;clip-rule:evenodd;fill:#D6DBD8;}
	.st12{fill:none;stroke:#5E6CD0;stroke-width:4.86;stroke-linejoin:round;}
	.st13{fill-rule:evenodd;clip-rule:evenodd;fill:#FA9B61;}
	.st14{fill-rule:evenodd;clip-rule:evenodd;fill:#D23689;}
	.st15{fill-rule:evenodd;clip-rule:evenodd;fill:#5765CE;}
	.st16{fill-rule:evenodd;clip-rule:evenodd;fill:#68CD88;}
	.st17{fill-rule:evenodd;clip-rule:evenodd;fill:#1EB1EA;}
	.st18{fill-rule:evenodd;clip-rule:evenodd;fill:#DE844D;}
	.st19{fill-rule:evenodd;clip-rule:evenodd;fill:#E1E3E2;}
	.st20{fill-rule:evenodd;clip-rule:evenodd;fill:#C0317D;}
	.st21{fill:#333E53;}
	.st22{font-family:'Montserrat-Medium';}
	.st23{font-size:24.0095px;}
</style>
<filter  filterUnits="objectBoundingBox" height="184.5%" id="prefix__a" width="134.1%" x="-17.1%" y="-40.3%">
	<feMorphology  in="SourceAlpha" operator="dilate" radius=".5" result="shadowSpreadOuter1"></feMorphology>
	<feOffset  dy="2" in="shadowSpreadOuter1" result="shadowOffsetOuter1"></feOffset>
	<feGaussianBlur  in="shadowOffsetOuter1" result="shadowBlurOuter1" stdDeviation="14"></feGaussianBlur>
	<feComposite  in="shadowBlurOuter1" in2="SourceAlpha" operator="out" result="shadowBlurOuter1"></feComposite>
	<feColorMatrix  in="shadowBlurOuter1" values="0 0 0 0 0 0 0 0 0 0 0 0 0 0 0 0 0 0 0.06 0"></feColorMatrix>
</filter>
<g transform="translate(28 26)">
	<g class="st0">
		<path id="prefix__b_2_" class="st1" d="M-20.3-21h296.5c2.7,0,4.8,2.1,4.8,4.8v114c0,2.7-2.1,4.8-4.8,4.8H-20.3
			c-2.7,0-4.8-2.1-4.8-4.8v-114C-25.1-18.9-23-21-20.3-21z"/>
	</g>
	<g>
		<path id="prefix__b_1_" class="st2" d="M-20.3-21h296.5c2.7,0,4.8,2.1,4.8,4.8v114c0,2.7-2.1,4.8-4.8,4.8H-20.3
			c-2.7,0-4.8-2.1-4.8-4.8v-114C-25.1-18.9-23-21-20.3-21z"/>
	</g>
	<g transform="translate(13 21)">
		<path class="st3" d="M-22.4,21c0-20.8,16.9-37.7,37.7-37.7S53,0.2,53,21S36.1,58.7,15.3,58.7S-22.4,41.8-22.4,21z"/>
		<path class="st3" d="M-22.4,21c0-20.8,16.9-37.7,37.7-37.7S53,0.2,53,21S36.1,58.7,15.3,58.7S-22.4,41.8-22.4,21z"/>
		<g>
			<path id="prefix__c_1_" class="st4" d="M-22.4,21c0-20.8,16.9-37.7,37.7-37.7S53,0.2,53,21S36.1,58.7,15.3,58.7
				S-22.4,41.8-22.4,21z"/>
		</g>
		<defs>
			<filter id="Adobe_OpacityMaskFilter" filterUnits="userSpaceOnUse" x="29.2" y="11" width="21" height="41.5">
				<feColorMatrix  type="matrix" values="1 0 0 0 0  0 1 0 0 0  0 0 1 0 0  0 0 0 1 0"/>
			</filter>
		</defs>
		<mask maskUnits="userSpaceOnUse" x="29.2" y="11" width="21" height="41.5" id="prefix__d_1_">
			<g class="st5">
				<path id="prefix__c_2_" class="st6" d="M-22.4,21c0-20.8,16.9-37.7,37.7-37.7S53,0.2,53,21S36.1,58.7,15.3,58.7
					S-22.4,41.8-22.4,21z"/>
			</g>
		</mask>
		<path class="st7" d="M30.4,13.1c0,0,14,7.4,17.5,39.1"/>
		<g>
			<path class="st8" d="M10.3-13.4c-1.1,0.6-2,1.3-2.3,2.2c-1.2,2.9,0.9,3.9,2.3,4.3c0,1.2,0.1,2.4,0.4,3.4c0,0,1.8,7.8,2.8,9.7
				c1,1.9,2.7,2.1,2.7,2.1s8.4-0.6,10.5-3.4c0.9-1.1,1.2-3.2,0.9-5.3c1.6-0.3,2.7-1.8,2.5-3.6c-0.1-1.2-0.8-2.2-1.8-2.6
				c0.1-0.9,0.5-3.7,0-5.3c-0.5-1.9-1.7-0.9-2.1-1.5c-0.4-0.5,1.3-3.5-3.3-2.9C19.5-15.8,13.6-15.2,10.3-13.4z M30.9,11.8
				C30.7,11.7,30.7,11.7,30.9,11.8"/>
		</g>
		<g>
			<path class="st9" d="M-5,41.5L-5,46.3c0,0.3,0.2,0.5,0.5,0.4l5.7-2.4c0.3-0.1,0.3-0.3,0-0.5l-5.7-2.7C-4.7,41.1-5,41.2-5,41.5
				L-5,41.5z"/>
		</g>
		<g>
			<path class="st10" d="M26.6,36.8h2.9v2.6h-2.9V36.8z M26.7,42.2h2.9v2.6h-2.9V42.2z"/>
			<path class="st10" d="M27.2,37.8l1,1.1c0,0,1.6-2,3.2-2.2 M27.6,42.8l0.9,1.1c0,0,1.5-2,3-2.1"/>
		</g>
		<g>
			<path class="st8" d="M-4.5,47.4l9.7,0c0.5,0,0.9,0.1,0.9,0.3v1c0,0.2-0.4,0.3-0.9,0.3l-9.7,0c-0.5,0-0.9-0.1-0.9-0.3v-1
				C-5.4,47.7-5,47.4-4.5,47.4L-4.5,47.4z"/>
			<path class="st11" d="M-11.5,39.7h3.7c0.4,0,0.7,0.3,0.7,0.8v1.2c0,0.4-0.3,0.8-0.7,0.8h-3.7c-0.4,0-0.7-0.3-0.7-0.8v-1.2
				C-12.2,40-11.9,39.7-11.5,39.7z M7.1,39h4.3c0.4,0,0.8,0.3,0.8,0.8v1c0,0.4-0.4,0.8-0.8,0.8H7.1c-0.4,0-0.8-0.3-0.8-0.8v-1
				C6.2,39.3,6.6,39,7.1,39z"/>
			<path class="st8" d="M27,3.3l2.1,7.5c0,0-6.4,1.6-6.9,0.5c-0.5-1.1-1.8-4.7-1.8-4.7S27,3.3,27,3.3z"/>
			<path class="st8" d="M32.6,11.3c2.9,3.1,2.7,4.2,3.9,11.4C38.4,33.6,35,49,35,49l-23.8,0.4c0,0,4.8-11.3,5.6-17.2
				C18.3,20.6,13,16,17.4,11.4C19.8,8.9,29.1,7.5,32.6,11.3z M47.9-1.1C47.9-1.1,48-1.2,47.9-1.1c0.1-0.1,0.1,0,0.1,0S48-1,47.9-1.1
				C48-1,47.9-1.1,47.9-1.1z"/>
			<path class="st12" d="M-3.2,15c3.8,0.5,6,13.8,13.5,11.7c7.5-2.1,7.3-9.4,8.8-11.8"/>
			<path class="st8" d="M-11,15.3c0-2,2.6-3.6,5.8-3.6s5.8,1.6,5.8,3.6s-2.6,3.6-5.8,3.6C-8.4,18.9-11,17.3-11,15.3L-11,15.3z"/>
			<path class="st13" d="M-10.9,24.5c0.5-1,2-1.2,3.4-0.5c1.4,0.7,2.2,2,1.7,3c-0.5,1-2,1.2-3.4,0.5S-11.4,25.4-10.9,24.5z"/>
			<path class="st8" d="M-13.1,25.2C-13.1,25.2-13.1,25.2-13.1,25.2C-13.1,25.2-13.1,25.2-13.1,25.2C-13.1,25.2-13.1,25.3-13.1,25.2
				C-13.1,25.3-13.1,25.2-13.1,25.2L-13.1,25.2z M-12,24.9c0,0,0.1-0.1,0.1-0.1s0.1,0,0.1,0.1c0,0-0.1,0.1-0.1,0.1S-12,24.9-12,24.9
				z"/>
			<path class="st14" d="M-0.4,30.6c-0.5-1-2-1.2-3.4-0.5c-1.4,0.7-2.2,2-1.7,3c0.5,1,2,1.2,3.4,0.5C-0.7,32.9,0.1,31.6-0.4,30.6z"
				/>
			<path class="st11" d="M11.2,36.8l-1.7,10c0,0.3-0.3,0.5-0.6,0.5l-18,0.1c-0.3,0-0.6-0.2-0.6-0.5l-1.7-9.9c0-0.3,0.1-0.5,0.4-0.5
				l21.7-0.2C11.1,36.3,11.3,36.5,11.2,36.8z"/>
			<path class="st15" d="M29.1,9.4c0.6,0.4,3.3,2.5,4.1,5.8c5.6,22.3-7,31.1-13.4,34.1L35,49c0,0,3.4-15.4,1.6-26.3
				c-1.2-7.2-1-8.3-3.9-11.4C31.8,10.3,30.5,9.7,29.1,9.4z"/>
			<path class="st16" d="M29.7,46.4c1-0.5,5.7-3,8.3-0.9c1.4,1.2-1.1,0.9-1,1.1c0.1,0.4,3.2-0.4,2,2.4c0,0-2.7-0.2-5.2-0.4
				c-2.5-0.2-1.2-1.3-4.1-1.2"/>
			<path class="st17" d="M-7.9,48.7h46.1c0.4,0,0.7,0.3,0.7,0.8v1.5c0,0.4-0.3,0.8-0.7,0.8H-7.9c-0.4,0-0.7-0.3-0.7-0.8v-1.5
				C-8.6,49-8.3,48.7-7.9,48.7L-7.9,48.7z"/>
			<path class="st13" d="M14.7,47.1c1-0.9,9.8-4,13.6-3.4s1.8,5,1.8,5L14,48.8C14,48.8,13.7,48,14.7,47.1z"/>
			<path class="st18" d="M25.1,43.8c0,0-0.4,0.8-0.5,1.5c-0.1,0.8,0.1,1.6,0.4,1.5c0.2,0,0.3-0.7,0.8-1.5c0.5-0.8,1.1-1.7,1.1-1.7
				 M20.6,48.7c0,0-0.2-0.4-0.2-0.9c0-0.5,0.1-1.1,0.3-1.1c0.2,0,0.3,0.6,0.4,1c0.1,0.5,0.6,0.9,0.6,0.9L20.6,48.7L20.6,48.7z"/>
			<path class="st19" d="M-11.5,35.7h22.8c0.4,0,0.7,0.3,0.7,0.7v0.5c0,0.4-0.3,0.7-0.7,0.7h-22.8c-0.4,0-0.7-0.3-0.7-0.7v-0.5
				C-12.2,36-11.9,35.7-11.5,35.7z"/>
			<path class="st18" d="M-10.6,24.1c0.6-0.7,2.1-0.6,3.4,0.2c1.3,0.8,1.9,2,1.3,2.7c-0.6,0.7-2.1,0.6-3.4-0.2
				C-10.6,26-11.1,24.8-10.6,24.1L-10.6,24.1z"/>
			<path class="st20" d="M-0.7,30.5c-0.4-0.8-1.9-1-3.2-0.4c-1.3,0.6-2,1.8-1.6,2.6c0.4,0.8,1.9,1,3.2,0.4
				C-1,32.5-0.3,31.4-0.7,30.5z"/>
		</g>
		<text transform="matrix(1 0 0 1 78.709 32.4287)" class="st21 st22 st23">Alimentación</text>
	</g>
</g>
</svg>
