<svg xmlns="http://www.w3.org/2000/svg" width="277" height="124" viewBox="0 0 277 124">
    <g fill="none" fill-rule="evenodd" transform="translate(0 1)">
        <rect width="255" height="99" x="21" fill="#FFF" stroke="#E4E9F2" rx="4"/>
        <g fill-rule="nonzero">
            <path fill="#E6E6E6" d="M30.571 51.07L40.125 54.023 50.183 51.07 46.462 44.857 36.492 40.014 30.571 44.857 26.732 48.785z" transform="translate(0 14)"/>
            <path fill="#C2C7CC" d="M46.462 51.07h3.721l-3.721-6.213h-15.89v2.777h11.777c1.712 0 2.107.206 3.024 1.562l1.089 1.874z" transform="translate(0 14)"/>
            <path fill="#E6E6E6" d="M0 40.816c0 2.223 1.82 4.041 4.045 4.041h7.111c6.472 0 12.94.03 19.415 0H69.68c2.22 0 4.037-1.81 4.049-4.024V4.024C73.715 1.811 71.898 0 69.678 0H4.047C1.82 0 0 1.82 0 4.041v36.775z" transform="translate(0 14)"/>
            <path fill="#C2C7CC" d="M69.72 4.041v36.793c-.012 2.213-1.829 4.023-4.05 4.023h4.009c2.22 0 4.036-1.81 4.049-4.023V4.024C73.715 1.811 71.898 0 69.678 0h-4.007c2.22 0 4.037 1.81 4.05 4.024v.017z" transform="translate(0 14)"/>
            <path fill="#64B0D9" d="M30.571 56.976H55.07c1.623 0 2.952-1.328 2.952-2.953 0-1.626-1.329-2.953-2.952-2.953H30.57l-2.67 3.116 2.67 2.79z" transform="translate(0 14)"/>
            <path fill="#A2D6F2" d="M6.976 38.93h9.13v-1.987c0-.995.815-1.806 1.812-1.806h10.845c.992 0 1.808.81 1.808 1.806v1.987h36.176c.45 0 .82-.365.82-.814V6.742c0-.45-.37-.815-.82-.815H6.977c-.45 0-.817.366-.817.815v31.374c0 .449.366.814.816.814z" transform="translate(0 14)"/>
            <path fill="#64B0D9" d="M64.225 38.93h2.522c.45 0 .82-.365.82-.814V6.742c0-.45-.37-.815-.82-.815h-2.522V38.93z" transform="translate(0 14)"/>
            <path fill="#4A83C9" d="M55.07 56.976c1.623 0 2.952-1.328 2.952-2.953 0-1.626-1.329-2.953-2.952-2.953h-4.887c1.628 0 2.957 1.327 2.957 2.953 0 1.625-1.33 2.953-2.957 2.953h4.887z" transform="translate(0 14)"/>
            <path fill="gray" d="M21.084 62.432h.694c.093 0 .177.008.265.025h6.72c.992 0 1.808-.814 1.808-1.81V36.943c0-.995-.816-1.806-1.808-1.806H17.918c-.997 0-1.813.811-1.813 1.806v2.832c.009.017.009.038.009.063 0 .02 0 .042-.009.067v8.557c.143.508 0 4.104 0 7.056v6.914h4.98z" transform="translate(0 14)"/>
            <path fill="#FFDDA6" d="M17.61 64.6l3.474-2.168c-.037-1.932-.403-3.873-.933-5.456-.122-.37-.256-.719-.395-1.046-.518-1.21-.425-1.298.445-2.017.795-.655 1.792-1.57 2.123-2.843.127-.466.16-.987.06-1.554-.543-3.113-1.876-1.441-3.331-.395-1.249.894-2.649.42-2.948-.66v-8.556c.013-.046.013-.092 0-.13-.084-.29-.76-.29-1.808.634-.85.752-1.938 2.121-3.14 4.448-.12.227-.237.462-.354.702-2.738 5.625-.866 12.265.904 16.873l.013.025 5.89 2.143z" transform="translate(0 14)"/>
            <path fill="#FCC368" d="M21.084 62.432c-.037-1.932-.403-3.873-.933-5.456-.122-.37-.256-.719-.395-1.046-.518-1.21-.425-1.298.445-2.017.795-.655 1.792-1.57 2.123-2.843.127-.466.16-.987.06-1.554-.387-2.218-1.173-2.008-2.12-1.324l-.21.156c-.096.071.139.462.37 1.088.193.516.071 1.109 0 1.306-.408 1.13-1.257 1.403-1.98 2.017-.87.739-1.564 1.721-1.043 2.969.138.332.269.693.395 1.071.576 1.78 1.102 3.755 1.14 5.633h2.148z" transform="translate(0 14)"/>
            <path fill="#666" d="M30.571 51.07V36.943c0-.995-.816-1.806-1.808-1.806l-2.653-.017c.997 0 1.809.815 1.809 1.81v23.704c0 .996-.812 1.81-1.809 1.81l2.653.013c.992.005 1.808-.814 1.808-1.81V51.07z" transform="translate(0 14)"/>
            <path fill="#50D960" d="M11.58 70.56h10.732c.438 0 .791-.357.791-.794v-6.01c0-.639-.458-1.177-1.06-1.299-.088-.017-.172-.025-.265-.025H11.581c-.437 0-.79.353-.79.79v6.544c0 .437.353.794.79.794z" transform="translate(0 14)"/>
            <path fill="#2BAD3B" d="M20.252 63.755v6.011c0 .437-.357.794-.795.794h2.855c.438 0 .791-.357.791-.794v-6.01c0-.64-.458-1.177-1.06-1.299-.059-.013-.118-.02-.176-.025h-2.932c.089 0 .169.008.252.025.24.046.459.164.632.324.265.24.433.588.433.974z" transform="translate(0 14)"/>
            <path fill="#E6E6E6" d="M21.274 45.2c-.62 0-1.124-.5-1.124-1.12v-.004c0-.62.503-1.122 1.124-1.122.62 0 1.123.502 1.123 1.122 0 .62-.503 1.125-1.123 1.125zM25.76 45.2c-.62 0-1.123-.5-1.123-1.12v-.004c0-.62.503-1.122 1.123-1.122s1.124.502 1.124 1.122c0 .62-.503 1.125-1.124 1.125zM25.76 49.048c-.62 0-1.123-.5-1.123-1.12v-.004c0-.62.503-1.123 1.123-1.123s1.124.502 1.124 1.123c0 .62-.503 1.124-1.124 1.124zM25.76 52.896c-.62 0-1.123-.5-1.123-1.12v-.005c0-.62.503-1.122 1.123-1.122s1.124.502 1.124 1.122c0 .62-.503 1.125-1.124 1.125zM21.274 41.353c-.62 0-1.124-.5-1.124-1.12v-.005c0-.62.503-1.122 1.124-1.122.62 0 1.123.502 1.123 1.122 0 .62-.503 1.125-1.123 1.125z" transform="translate(0 14)"/>
            <path fill="#D92525" d="M25.76 41.353c-.62 0-1.123-.5-1.123-1.12v-.005c0-.62.503-1.122 1.123-1.122s1.124.502 1.124 1.122c0 .62-.503 1.125-1.124 1.125z" transform="translate(0 14)"/>
            <path fill="#666" d="M20.55 30.715c-.168 0-.338-.037-.498-.116-.556-.275-.784-.948-.508-1.504.854-1.724 2.787-2.795 5.045-2.796 2.259 0 4.192 1.072 5.046 2.796.275.556.048 1.229-.508 1.504-.556.275-1.23.048-1.505-.508-.466-.94-1.656-1.546-3.033-1.546-1.376 0-2.567.607-3.032 1.545-.195.396-.594.625-1.008.625z" transform="translate(0 14)"/>
            <path fill="#666" d="M31.632 28.384c-.414 0-.813-.23-1.008-.625-1.153-2.33-3.872-3.16-6.032-3.161h-.003c-2.162 0-4.883.83-6.039 3.161-.275.556-.949.783-1.505.508-.556-.275-.784-.948-.508-1.504 1.348-2.72 4.434-4.41 8.052-4.41h.004c3.616 0 6.7 1.69 8.045 4.41.275.556.047 1.23-.51 1.505-.16.079-.33.116-.496.116z" transform="translate(0 14)"/>
        </g>
        <g font-size="16">
            <text fill="#222B45" font-family="Montserrat-Medium, Montserrat" font-weight="400" transform="translate(109 10)">
                <tspan x="2.212" y="41">Programación </tspan>
            </text>
            <text fill="#B3337F" font-family="Montserrat-Bold, Montserrat" font-weight="bold" transform="translate(109 10)">
                <tspan x="1.972" y="15">Calendario TV</tspan>
            </text>
        </g>
        <g transform="translate(72 75)">
            <rect width="191" height="48" fill="#FD9B5B" rx="24"/>
            <g fill="#FFF">
                <text font-family="Montserrat-Medium, Montserrat" font-size="18" font-weight="400" transform="translate(44 16)">
                    <tspan x="0" y="17">Consultar</tspan>
                </text>
                <path fill-rule="nonzero" d="M101.5 13c-.256 0-.512-.098-.707-.293-.391-.391-.391-1.023 0-1.414l3.305-3.305-3.18-3.293c-.383-.398-.372-1.031.025-1.414.398-.383 1.03-.372 1.414.024l3.862 4c.379.393.374 1.016-.012 1.402l-4 4c-.195.195-.451.293-.707.293" transform="translate(44 16)"/>
            </g>
        </g>
    </g>
</svg>
