<svg xmlns="http://www.w3.org/2000/svg" xmlns:xlink="http://www.w3.org/1999/xlink" width="274" height="124" viewBox="0 0 274 124">
    <defs>
        <path id="prefix__a" d="M6.306.325C5.71 3.665 3.732 6.028.316 6.657c-.27.051-.27.44 0 .49 3.384.62 5.399 2.979 5.991 6.293.037.209.26.21.247.205.121 0 .225-.087.246-.206.302-1.709 1.149-4.03 3.472-5.386.742-.433 1.594-.739 2.533-.91.119-.022.205-.126.205-.245 0-.12-.087-.223-.206-.245-.412-.074-.811-.175-1.186-.3C8.866 5.432 7.31 3.2 6.798.324 6.775.189 6.664.12 6.553.12c-.11 0-.222.068-.246.204z"/>
        <path id="prefix__b" d="M.317 1.082c-.271.05-.271.439 0 .488 3.383.622 5.398 2.98 5.99 6.294.037.209.26.21.247.205.121 0 .225-.087.246-.205.167-.946.502-2.08 1.16-3.134C7.068 2.258 5.359.719 2.932.114 2.13.6 1.241.912.317 1.082z"/>
        <path id="prefix__c" d="M2.433.202c-.109 0-.206.07-.239.174-.302.963-.938 1.7-1.93 2.036-.225.077-.225.394 0 .47.985.336 1.625 1.066 1.931 2.038.057.179.246.177.24.174.109 0 .206-.07.238-.175.226-.727.625-1.29 1.187-1.671.614-.418.915-.297.914-.599 0-.107-.069-.202-.171-.236-.974-.32-1.617-1.04-1.93-2.037C2.623.22 2.47.201 2.439.201c-.004 0-.007 0-.006.001z"/>
        <path id="prefix__d" d="M46.39.469L5.56 8.406c-.645.125-1.125.667-1.172 1.322L.057 36.955c-.07.955.788 1.714 1.727 1.532l40.83-7.936c.644-.125 1.125-.668 1.171-1.323l4.332-27.226c-.158-.816-.674-1.559-1.466-1.559-.084 0-.171.009-.26.026z"/>
        <path id="prefix__f" d="M2.411.332L.343.735l1.596 8.21 3.648-.71L4.3 1.605C4.149.835 3.475.302 2.719.302c-.1 0-.204.01-.308.03z"/>
        <path id="prefix__h" d="M1.5.695C.63.865.06 1.708.229 2.582l7.577 38.977.188-.029L9.62 31.42 3.57.292 1.5.695z"/>
        <path id="prefix__j" d="M21.104 2.773L.124 6.85l5.099 26.236.094-.591c.047-.655.528-1.197 1.173-1.323l1.824-.354 31.26-6.077-2.127-10.946L34.787.112l-13.683 2.66z"/>
        <path id="prefix__l" d="M22.985.185L1.092 4.441c-.504.098-.833.585-.735 1.09.099.504.586.832 1.09.735L23.34 2.01c.503-.098.832-.585.735-1.09-.087-.444-.476-.752-.911-.752-.06 0-.12.006-.18.017z"/>
        <path id="prefix__n" d="M9.902.464L.78 2.237c-.503.098-.833.585-.735 1.09.099.504.586.832 1.09.735l9.122-1.774c.504-.097.833-.585.735-1.089-.086-.444-.476-.752-.912-.752-.059 0-.118.006-.178.017z"/>
        <path id="prefix__p" d="M22.832.066L.94 4.322c-.504.097-.834.585-.735 1.09.097.503.585.832 1.089.734L23.187 1.89c.504-.097.833-.585.735-1.089-.086-.445-.475-.752-.91-.752-.06 0-.12.005-.18.017z"/>
        <path id="prefix__r" d="M.108 3.041l11.071 7.468c2.062-3.057 1.255-7.208-1.802-9.27C8.232.467 6.934.097 5.65.097 3.505.097 1.398 1.13.108 3.041z"/>
        <path id="prefix__t" d="M.715 1.49c-.03.01-.06.017-.09.023-.065.013-.128.005-.192.002L0 11.833l1.39-2.061c.258-.383.776-.484 1.159-.226.382.259.483.776.225 1.159l-1.39 2.061 9.4-4.263c-.039-.085-.07-.175-.079-.272l-.35-4.288L6.25 5.225c-.028.01-.059.017-.088.023h-.001c-.03.006-.06.01-.09.013-.033.002-.063-.01-.095-.012-.062-.002-.122-.006-.18-.022-.045-.012-.085-.03-.127-.046-.053-.025-.103-.051-.15-.086-.037-.026-.07-.056-.102-.088-.04-.04-.075-.084-.106-.133-.027-.04-.049-.081-.068-.128-.01-.024-.029-.043-.037-.07-.01-.03-.003-.061-.01-.092-.006-.031-.023-.057-.025-.089L4.82.21.715 1.491z"/>
        <path id="prefix__v" d="M5.04 25.806L1.214 27l-.748 1.108-.034.821c.064.002.127.01.192-.002.03-.005.06-.013.09-.023l4.106-1.281.35 4.286c.003.033.02.058.025.09.007.03 0 .06.01.09.009.027.026.047.038.072.018.045.04.087.067.127.031.048.066.093.106.133.032.032.066.062.103.088.046.034.097.06.15.085.04.019.082.035.126.047.058.015.118.02.18.022.033.001.062.013.094.011.03-.002.06-.006.09-.013h.004c.028-.005.059-.013.088-.022l4.106-1.282.35 4.287c.008.099.04.188.078.273l.752-.34.749-1.11-.326-3.994L29.064 5.114 27.68 4.18 10.576 29.54 6.75 30.733l-.325-3.995L23.529 1.38 22.145.447 5.04 25.806z"/>
        <path id="prefix__x" d="M13.505.953c-1.1 1.07-2.03 2.309-3.073 3.436-1.155 1.239-2.227 2.478-3.411 3.688-.677.677-1.41 1.41-1.861 2.254-1.015-.986-1.889-2.056-3.017-2.929-.818-.62-2.17-1.07-2.143.423.057 1.943 1.777 4.027 3.046 5.35.535.564 1.24 1.155 2.058 1.183.987.057 2.001-1.126 2.593-1.774 1.043-1.126 1.89-2.394 2.848-3.549 1.24-1.52 2.51-3.013 3.722-4.562.76-.958 3.157-3.323 1.268-4.337-.142-.077-.288-.11-.434-.11-.604 0-1.21.564-1.596.927zM.818 7.628c.084-.057.226-.029.423.084-.028 0-.056 0-.113.028-.113-.028-.197-.056-.31-.112z"/>
        <path id="prefix__z" d="M.075.194v2.713L0 4.647l1.617-.72 2.517-1.02c.287-.419-.792-2.218-1.217-2.5C2.632.218 1.59 0 .843 0 .47 0 .17.055.075.194z"/>
    </defs>
    <g fill="none" fill-rule="evenodd">
        <g transform="translate(0 1) translate(18)">
            <rect width="255" height="99" fill="#FFF" stroke="#E4E9F2" rx="4"/>
            <g font-size="16">
                <text fill="#222B45" font-family="Montserrat-Medium, Montserrat" font-weight="400" transform="translate(33 10)">
                    <tspan x="28.324" y="41">Actividades escolares</tspan>
                </text>
                <text fill="#B3337F" font-family="Montserrat-Bold, Montserrat" font-weight="bold" transform="translate(33 10)">
                    <tspan x=".028" y="15">Carpeta de experiencias</tspan>
                </text>
            </g>
            <g transform="translate(51 75)">
                <rect width="191" height="48" fill="#F1315B" rx="24"/>
                <g fill="#FFF">
                    <text font-family="Montserrat-Medium, Montserrat" font-size="18" font-weight="400" transform="translate(44 16)">
                        <tspan x="0" y="17">Consultar</tspan>
                    </text>
                    <path fill-rule="nonzero" d="M101.5 13c-.256 0-.512-.098-.707-.293-.391-.391-.391-1.023 0-1.414l3.305-3.305-3.18-3.293c-.383-.398-.372-1.031.025-1.414.398-.383 1.03-.372 1.414.024l3.862 4c.379.393.374 1.016-.012 1.402l-4 4c-.195.195-.451.293-.707.293" transform="translate(44 16)"/>
                </g>
            </g>
        </g>
        <g>
            <g transform="translate(0 1) translate(0 10) translate(63.191)"/>
            <g transform="translate(0 1) translate(0 10) translate(63.191 5.576)"/>
            <g transform="translate(0 1) translate(0 10) translate(60.403 10.687)"/>
            <g transform="translate(0 1) translate(0 10) translate(7.899 33.454)">
                <mask id="prefix__e" fill="#fff">
                    <use xlink:href="#prefix__d"/>
                </mask>
                <path fill="#EFCE4A" d="M-7.864 8.649L49.605 -2.522 55.988 30.317 -1.481 41.488z" mask="url(#prefix__e)"/>
            </g>
            <g transform="translate(0 1) translate(0 10) translate(44.605 26.484)">
                <mask id="prefix__g" fill="#fff">
                    <use xlink:href="#prefix__f"/>
                </mask>
                <path fill="#EBBA16" d="M-2.381 -1.103L5.829 -2.699 8.311 10.072 0.102 11.668z" mask="url(#prefix__g)"/>
            </g>
            <g transform="translate(0 1) translate(0 10) translate(0 28.343)">
                <mask id="prefix__i" fill="#fff">
                    <use xlink:href="#prefix__h"/>
                </mask>
                <path fill="#EBBA16" d="M-2.802 -0.835L5.407 -2.431 14.179 42.695 5.969 44.291z" mask="url(#prefix__i)"/>
            </g>
            <g transform="translate(0 1) translate(0 10) translate(6.97 10.687)">
                <mask id="prefix__k" fill="#fff">
                    <use xlink:href="#prefix__j"/>
                </mask>
                <path fill="#F4EFDC" d="M-2.6 5.013L36.624 -2.611 42.611 28.186 3.386 35.81z" mask="url(#prefix__k)"/>
            </g>
            <g transform="translate(0 1) translate(0 10) translate(14.868 24.626)">
                <mask id="prefix__m" fill="#fff">
                    <use xlink:href="#prefix__l"/>
                </mask>
                <path fill="#CEC9AE" d="M-2.544 2.781L25.734 -2.716 26.976 3.67 -1.303 9.166z" mask="url(#prefix__m)"/>
            </g>
            <g transform="translate(0 1) translate(0 10) translate(13.94 20.444)">
                <mask id="prefix__o" fill="#fff">
                    <use xlink:href="#prefix__n"/>
                </mask>
                <path fill="#CEC9AE" d="M-2.856 0.578L12.652 -2.437 13.893 3.949 -1.614 6.963z" mask="url(#prefix__o)"/>
            </g>
            <g transform="translate(0 1) translate(0 10) translate(16.262 31.13)">
                <mask id="prefix__q" fill="#fff">
                    <use xlink:href="#prefix__p"/>
                </mask>
                <path fill="#CEC9AE" d="M-2.697 2.661L25.582 -2.835 26.823 3.55 -1.455 9.047z" mask="url(#prefix__q)"/>
            </g>
            <path fill="#CEC9AE" d="M4.711 19.894L10.915 51.808 12.193 43.773 7.448 19.361z" transform="translate(0 1) translate(0 10)"/>
            <path fill="#D1BF86" d="M2.329 22.25L9.636 59.843 10.915 51.809 5.065 21.718z" transform="translate(0 1) translate(0 10)"/>
            <g transform="translate(0 1) translate(0 10) translate(65.05 25.555)">
                <mask id="prefix__s" fill="#fff">
                    <use xlink:href="#prefix__r"/>
                </mask>
                <path fill="#D75A4A" d="M-2.989 -0.716L12.761 -3.778 15.823 11.973 0.073 15.034z" mask="url(#prefix__s)"/>
            </g>
            <path fill="#ED8A19" d="M52.848 66.25L53.174 70.245 72.028 42.291 69.952 40.891zM47.312 62.516L47.638 66.511 51.464 65.317 68.569 39.958 64.417 37.158zM42.103 62.777L45.928 61.583 63.034 36.224 60.957 34.824z" transform="translate(0 1) translate(0 10)"/>
            <path fill="#C7CAC7" d="M63.757 30.673L63.758 30.673 74.828 38.139 76.229 36.064 65.157 28.597zM61.891 33.44L72.962 40.907 73.895 39.523 62.824 32.056z" transform="translate(0 1) translate(0 10)"/>
            <g transform="translate(0 1) translate(0 10) translate(40.888 63.191)">
                <mask id="prefix__u" fill="#fff">
                    <use xlink:href="#prefix__t"/>
                </mask>
                <path fill="#FBCE9D" d="M-4.724 -0.303L11.293 -3.416 14.406 12.601 -1.611 15.715z" mask="url(#prefix__u)"/>
            </g>
            <path fill="#F2ECBF" d="M63.757 30.673L62.823 32.056 73.895 39.523 74.828 38.139 63.758 30.673z" transform="translate(0 1) translate(0 10)"/>
            <g transform="translate(0 1) translate(0 10) translate(40.888 35.777)">
                <mask id="prefix__w" fill="#fff">
                    <use xlink:href="#prefix__v"/>
                </mask>
                <path fill="#EBBA16" d="M-6.836 3.714L29.775 -3.402 36.891 33.209 0.28 40.326z" mask="url(#prefix__w)"/>
            </g>
            <path fill="#F2ECBF" d="M60.957 34.824L63.034 36.224 64.417 37.158 68.569 39.958 69.952 40.891 72.028 42.291 72.961 40.907 61.891 33.44z" transform="translate(0 1) translate(0 10)"/>
            <g transform="translate(0 1) translate(0 10) translate(21.838 19.05)">
                <mask id="prefix__y" fill="#fff">
                    <use xlink:href="#prefix__x"/>
                </mask>
                <path fill="#00A2AA" d="M-2.323 16.683L18.568 16.683 18.568 -2.298 -2.323 -2.298z" mask="url(#prefix__y)"/>
            </g>
            <g transform="translate(0 1) translate(0 10) translate(40.888 72.02)">
                <mask id="prefix__A" fill="#fff">
                    <use xlink:href="#prefix__z"/>
                </mask>
                <path fill="#38454F" d="M-3.717 -1.909L5.613 -3.717 7.434 5.627 -1.895 7.434z" mask="url(#prefix__A)"/>
            </g>
        </g>
    </g>
</svg>
