<svg xmlns="http://www.w3.org/2000/svg" xmlns:xlink="http://www.w3.org/1999/xlink" width="311" height="159" viewBox="0 0 311 159">
    <defs>
        <filter id="prefix__a" width="134.1%" height="184.5%" x="-17.1%" y="-40.3%" filterUnits="objectBoundingBox">
            <feMorphology in="SourceAlpha" operator="dilate" radius=".5" result="shadowSpreadOuter1"/>
            <feOffset dy="2" in="shadowSpreadOuter1" result="shadowOffsetOuter1"/>
            <feGaussianBlur in="shadowOffsetOuter1" result="shadowBlurOuter1" stdDeviation="14"/>
            <feComposite in="shadowBlurOuter1" in2="SourceAlpha" operator="out" result="shadowBlurOuter1"/>
            <feColorMatrix in="shadowBlurOuter1" values="0 0 0 0 0 0 0 0 0 0 0 0 0 0 0 0 0 0 0.06 0"/>
        </filter>
        <rect id="prefix__b" width="255" height="103" x="0" y="0" rx="4"/>
    </defs>
    <g fill="none" fill-rule="evenodd" transform="translate(28 26)">
        <use fill="#000" filter="url(#prefix__a)" xlink:href="#prefix__b"/>
        <use fill="#FFF" stroke="#E4E9F2" xlink:href="#prefix__b"/>
        <g>
            <path fill="#5E6CD0" d="M.134 30.966C.134 13.906 13.964.075 31.025.075c17.062 0 30.892 13.83 30.892 30.891 0 17.062-13.83 30.892-30.892 30.892-17.06 0-30.891-13.83-30.891-30.892z" transform="translate(10 21)"/>
            <path fill="#FA9B61" d="M43.478 4.614c.292 5.498 2.43 12.732 2.43 12.732.024.308.295.562.603.568 0 0 4.445-.168 4.804 1.471 1.379 6.291 3.41 17.477 3.41 22.947L39.147 43.55c-.302.064-.58-.04-.621-.233 0 0 .67-13.38-1.447-19.136-1.508-4.103 4.291-5.232 4.291-5.232.306-.048.516-.335.47-.64 0 0-.181-1.754-.49-1.73 0 0-3.873 1.994-4.58 1.145-2.094-2.51-2.981-9.742-2.92-11.853.054-1.927 9.524-3.19 9.627-1.257z" transform="translate(10 21)"/>
            <path fill="#FA9B61" d="M42.2 8.758c0-1.078.875-1.952 1.953-1.952s1.952.874 1.952 1.952c0 1.078-.874 1.952-1.952 1.952-1.078 0-1.952-.874-1.952-1.952z" transform="translate(10 21)"/>
            <path fill="#DE844D" d="M49.891 18.324c1.304 3.596 4.908 16.141-4.394 24.732l9.227-.728c0-5.47-2.03-16.656-3.408-22.947-.118-.54-.725-.838-1.425-1.057z" transform="translate(10 21)"/>
            <path fill="#52B572" d="M23.894 1.893c-1.85.142-3.404.874-3.647 2.79-.076.608-.262 1.628-.388 2.432-.186-.049-.367-.11-.568-.11-1.274 0-2.302 1.028-2.302 2.302 0 1.22.953 2.19 2.152 2.272-.404 2.277-.798 4.332-.906 4.902-.224 1.18-1.143-.04-3.488-.17-2.417-.132-4.735.563-5.75 7.663-1.014 7.1-1.545 15.598-1.474 21.493.071 5.895 2.118 1.63 2.461 1.604l17.996 3c-.09-3.303-.576-12.042 1.893-22.141 2.121-8.678-1.575-8.733-3.976-9.217-.828-.167-.783-.811-.697-1.365.085-.554.309-1.345.309-1.345l2.91.717c.514.052 1.279-.229 1.922-1.644.643-1.415 1.445-6.945 1.445-6.945.361-1.911.434-4.638-2.451-5.5-1.443-.431-3.59-.88-5.44-.738z" transform="translate(10 21)"/>
            <g fill="#68CD88">
                <path d="M15.116.289c-.484-.029-.962-.026-1.425.01-1.851.142-3.404.873-3.647 2.79-.077.608-.263 1.627-.389 2.431-.186-.048-.366-.11-.568-.11-1.273 0-2.301 1.029-2.301 2.302 0 1.22.952 2.191 2.152 2.272-.404 2.277-.799 4.333-.907 4.903-.078.41-.281.481-.558.458l.1.279c-3.347-.413-4.086 2.302-4.086 2.302C-2.393 32.127.7 41.112 4.595 46.284l13.182 2.192c-.09-3.302-.575-12.04 1.893-22.14 2.122-8.678-1.575-8.733-3.975-9.217-.828-.167-.783-.812-.698-1.365.086-.554.31-1.346.31-1.346l2.909.718c.514.052 1.28-.229 1.923-1.644.643-1.416 1.445-6.945 1.445-6.945.36-1.911.433-4.639-2.452-5.5C18.05.712 16.568.374 15.116.288z" transform="translate(10 21) translate(10.203 1.594)"/>
            </g>
            <g>
                <path fill="#FEFFFE" d="M11.829 5.446l-.142-3.783s9.865-1.07 11.78 1.856c0 0 7.453-4.354 11.64-2.927v4.07l-10.504 5.567L11.83 5.446z" transform="translate(10 21) translate(7.015 32.523)"/>
                <path fill="#1EB1EA" d="M10.197 5.09S19.565 2.09 23.68 6.73c0 0 3.244-1.907 6.713-2.999 2.382-.75 4.87-1.114 6.487-.213l-.639 16.918s-8.587-3.427-12.348.642c0 0-9.936-2.998-11.71-.5L10.197 5.09z" transform="translate(10 21) translate(7.015 32.523)"/>
                <g>
                    <path fill="#D23689" d="M2.99 0h13.58c1.652 0 2.99 1.339 2.99 2.99v6.532c0 1.652-1.338 2.991-2.99 2.991H2.99C1.34 12.513 0 11.174 0 9.523V2.99C0 1.339 1.339 0 2.99 0z" transform="translate(10 21) translate(7.015 32.523) translate(0 11)"/>
                    <path fill="#FEFFFE" d="M7.058 4.324L7 8.236c-.004.27.195.406.445.304l4.705-1.93c.25-.103.254-.279.01-.393L7.507 4.042c-.245-.114-.446.012-.45.282z" transform="translate(10 21) translate(7.015 32.523) translate(0 11)"/>
                </g>
            </g>
            <g>
                <path fill="#F2F3F8" d="M.178 11.484L.41.414C.412.35.463.3.526.3L17.883.138c.062 0 .111.05.11.112l-.359 12.094c-.002.063-.053.11-.116.108l-17.23-.85c-.062-.003-.111-.056-.11-.118z" transform="translate(10 21) translate(38.263 41.451)"/>
                <path stroke="#68CD88" stroke-linecap="round" stroke-linejoin="round" stroke-width=".5" d="M1.991 2.443L4.34 2.443 4.34 4.551 1.991 4.551zM2.057 6.9L4.405 6.9 4.405 9.008 2.057 9.008z" transform="translate(10 21) translate(38.263 41.451)"/>
                <path stroke="#68CD88" stroke-linecap="round" stroke-linejoin="round" stroke-width=".5" d="M2.472 3.315l.82.925s1.3-1.658 2.6-1.773M2.844 7.359l.773.899s1.228-1.611 2.456-1.723" transform="translate(10 21) translate(38.263 41.451)"/>
                <path fill="#68CD88" d="M6.703 2.87l-.003.9c0 .063.05.114.112.115l8.632.136c.062 0 .11-.049.108-.11l-.042-1.034c-.002-.062-.055-.113-.117-.113l-8.577-.007c-.063 0-.113.05-.113.112zM6.256 7.347l-.003.902c0 .062.05.113.113.114l8.63.135c.063.002.111-.048.109-.11l-.042-1.034c-.002-.062-.055-.112-.117-.112l-8.577-.007c-.063 0-.113.05-.113.112z" transform="translate(10 21) translate(38.263 41.451)"/>
            </g>
        </g>
        <g fill="#333E53" font-family="Montserrat-Medium, Montserrat" font-size="20" font-weight="400">
            <text transform="translate(81 28)">
                <tspan x=".42" y="19">Formación para</tspan> <tspan x="46.15" y="43">padres</tspan>
            </text>
        </g>
    </g>
</svg>
