<?xml version="1.0" encoding="utf-8"?>
<!-- Generator: Adobe Illustrator 24.0.2, SVG Export Plug-In . SVG Version: 6.00 Build 0)  -->
<svg version="1.1" id="Capa_1" xmlns="http://www.w3.org/2000/svg" xmlns:xlink="http://www.w3.org/1999/xlink" x="0px" y="0px"
	 viewBox="0 0 313 133" style="enable-background:new 0 0 313 133;" xml:space="preserve">
<style type="text/css">
	.st0{display:none;}
	.st1{filter:url(#prefix__a);}
	.st2{display:inline;fill-rule:evenodd;clip-rule:evenodd;}
	.st3{display:inline;}
	.st4{fill-rule:evenodd;clip-rule:evenodd;fill:#4FBA71;}
	.st5{fill-rule:evenodd;clip-rule:evenodd;fill:#52AF32;}
	.st6{filter:url(#Adobe_OpacityMaskFilter);}
	.st7{fill-rule:evenodd;clip-rule:evenodd;fill:#FFFFFF;}
	.st8{mask:url(#prefix__d_1_);fill:none;stroke:#5765CE;stroke-width:4.86;stroke-linejoin:round;}
	.st9{fill-rule:evenodd;clip-rule:evenodd;fill:#5E6CD0;}
	.st10{fill-rule:evenodd;clip-rule:evenodd;fill:#FEFFFE;}
	.st11{fill:none;stroke:#68CD88;stroke-width:0.5;stroke-linecap:round;stroke-linejoin:round;}
	.st12{fill-rule:evenodd;clip-rule:evenodd;fill:#D6DBD8;}
	.st13{fill:none;stroke:#5E6CD0;stroke-width:4.86;stroke-linejoin:round;}
	.st14{fill-rule:evenodd;clip-rule:evenodd;fill:#FA9B61;}
	.st15{fill-rule:evenodd;clip-rule:evenodd;fill:#D23689;}
	.st16{fill-rule:evenodd;clip-rule:evenodd;fill:#5765CE;}
	.st17{fill-rule:evenodd;clip-rule:evenodd;fill:#68CD88;}
	.st18{fill-rule:evenodd;clip-rule:evenodd;fill:#1EB1EA;}
	.st19{fill-rule:evenodd;clip-rule:evenodd;fill:#DE844D;}
	.st20{fill-rule:evenodd;clip-rule:evenodd;fill:#E1E3E2;}
	.st21{fill-rule:evenodd;clip-rule:evenodd;fill:#C0317D;}
	.st22{fill:#333E53;}
	.st23{font-family:'Montserrat-Medium';}
	.st24{font-size:24.0095px;}
	.st25{fill-rule:evenodd;clip-rule:evenodd;fill:#00BCFD;}
	.st26{fill-rule:evenodd;clip-rule:evenodd;fill:#00A2DA;}
	.st27{fill-rule:evenodd;clip-rule:evenodd;fill:#006DD0;}
	.st28{fill-rule:evenodd;clip-rule:evenodd;fill:#E9EDEB;}
	.st29{font-size:23.8353px;}
	.st30{fill-rule:evenodd;clip-rule:evenodd;fill:#F08936;}
	.st31{fill-rule:evenodd;clip-rule:evenodd;fill:#2CB1CD;}
	.st32{fill-rule:evenodd;clip-rule:evenodd;fill:#57AC3D;}
	.st33{fill-rule:evenodd;clip-rule:evenodd;fill:#349FBC;}
	.st34{fill-rule:evenodd;clip-rule:evenodd;fill:#5A9E43;}
	.st35{fill-rule:evenodd;clip-rule:evenodd;fill:#B82E79;}
	.st36{fill-rule:evenodd;clip-rule:evenodd;fill:#D33689;}
	.st37{fill-rule:evenodd;clip-rule:evenodd;fill:#89247A;}
	.st38{fill-rule:evenodd;clip-rule:evenodd;fill:#FBCD42;}
	.st39{fill-rule:evenodd;clip-rule:evenodd;fill:#52B572;}
	.st40{fill-rule:evenodd;clip-rule:evenodd;fill:#F2F3F8;}
	.st41{font-size:23.5159px;}
</style>
<filter  filterUnits="objectBoundingBox" height="184.5%" id="prefix__a" width="134.1%" x="-17.1%" y="-40.3%">
	<feMorphology  in="SourceAlpha" operator="dilate" radius=".5" result="shadowSpreadOuter1"></feMorphology>
	<feOffset  dy="2" in="shadowSpreadOuter1" result="shadowOffsetOuter1"></feOffset>
	<feGaussianBlur  in="shadowOffsetOuter1" result="shadowBlurOuter1" stdDeviation="14"></feGaussianBlur>
	<feComposite  in="shadowBlurOuter1" in2="SourceAlpha" operator="out" result="shadowBlurOuter1"></feComposite>
	<feColorMatrix  in="shadowBlurOuter1" values="0 0 0 0 0 0 0 0 0 0 0 0 0 0 0 0 0 0 0.06 0"></feColorMatrix>
</filter>
<g transform="translate(28 26)" class="st0">
	<g class="st1">
		<path id="prefix__b_1_" class="st2" d="M-20.3-21h296.5c2.7,0,4.8,2.1,4.8,4.8v114c0,2.7-2.1,4.8-4.8,4.8H-20.3
			c-2.7,0-4.8-2.1-4.8-4.8v-114C-25.1-18.9-23-21-20.3-21z"/>
	</g>
	<g transform="translate(13 21)" class="st3">
		<path class="st4" d="M-22.4,21c0-20.8,16.9-37.7,37.7-37.7S53,0.2,53,21S36.1,58.7,15.3,58.7S-22.4,41.8-22.4,21z"/>
		<path class="st4" d="M-22.4,21c0-20.8,16.9-37.7,37.7-37.7S53,0.2,53,21S36.1,58.7,15.3,58.7S-22.4,41.8-22.4,21z"/>
		<g>
			<path id="prefix__c_1_" class="st5" d="M-22.4,21c0-20.8,16.9-37.7,37.7-37.7S53,0.2,53,21S36.1,58.7,15.3,58.7
				S-22.4,41.8-22.4,21z"/>
		</g>
		<defs>
			<filter id="Adobe_OpacityMaskFilter" filterUnits="userSpaceOnUse" x="29.2" y="11" width="21" height="41.5">
				<feColorMatrix  type="matrix" values="1 0 0 0 0  0 1 0 0 0  0 0 1 0 0  0 0 0 1 0"/>
			</filter>
		</defs>
		<mask maskUnits="userSpaceOnUse" x="29.2" y="11" width="21" height="41.5" id="prefix__d_1_">
			<g class="st6">
				<path id="prefix__c_2_" class="st7" d="M-22.4,21c0-20.8,16.9-37.7,37.7-37.7S53,0.2,53,21S36.1,58.7,15.3,58.7
					S-22.4,41.8-22.4,21z"/>
			</g>
		</mask>
		<path class="st8" d="M30.4,13.1c0,0,14,7.4,17.5,39.1"/>
		<g>
			<path class="st9" d="M10.3-13.4c-1.1,0.6-2,1.3-2.3,2.2c-1.2,2.9,0.9,3.9,2.3,4.3c0,1.2,0.1,2.4,0.4,3.4c0,0,1.8,7.8,2.8,9.7
				c1,1.9,2.7,2.1,2.7,2.1s8.4-0.6,10.5-3.4c0.9-1.1,1.2-3.2,0.9-5.3c1.6-0.3,2.7-1.8,2.5-3.6c-0.1-1.2-0.8-2.2-1.8-2.6
				c0.1-0.9,0.5-3.7,0-5.3c-0.5-1.9-1.7-0.9-2.1-1.5c-0.4-0.5,1.3-3.5-3.3-2.9C19.5-15.8,13.6-15.2,10.3-13.4z M30.9,11.8
				C30.7,11.7,30.7,11.7,30.9,11.8"/>
		</g>
		<g>
			<path class="st10" d="M-5,41.5L-5,46.3c0,0.3,0.2,0.5,0.5,0.4l5.7-2.4c0.3-0.1,0.3-0.3,0-0.5l-5.7-2.7C-4.7,41.1-5,41.2-5,41.5
				L-5,41.5z"/>
		</g>
		<g>
			<path class="st11" d="M26.6,36.8h2.9v2.6h-2.9V36.8z M26.7,42.2h2.9v2.6h-2.9V42.2z"/>
			<path class="st11" d="M27.2,37.8l1,1.1c0,0,1.6-2,3.2-2.2 M27.6,42.8l0.9,1.1c0,0,1.5-2,3-2.1"/>
		</g>
		<g>
			<path class="st9" d="M-4.5,47.4l9.7,0c0.5,0,0.9,0.1,0.9,0.3v1c0,0.2-0.4,0.3-0.9,0.3l-9.7,0c-0.5,0-0.9-0.1-0.9-0.3v-1
				C-5.4,47.7-5,47.4-4.5,47.4L-4.5,47.4z"/>
			<path class="st12" d="M-11.5,39.7h3.7c0.4,0,0.7,0.3,0.7,0.8v1.2c0,0.4-0.3,0.8-0.7,0.8h-3.7c-0.4,0-0.7-0.3-0.7-0.8v-1.2
				C-12.2,40-11.9,39.7-11.5,39.7z M7.1,39h4.3c0.4,0,0.8,0.3,0.8,0.8v1c0,0.4-0.4,0.8-0.8,0.8H7.1c-0.4,0-0.8-0.3-0.8-0.8v-1
				C6.2,39.3,6.6,39,7.1,39z"/>
			<path class="st9" d="M27,3.3l2.1,7.5c0,0-6.4,1.6-6.9,0.5c-0.5-1.1-1.8-4.7-1.8-4.7S27,3.3,27,3.3z"/>
			<path class="st9" d="M32.6,11.3c2.9,3.1,2.7,4.2,3.9,11.4C38.4,33.6,35,49,35,49l-23.8,0.4c0,0,4.8-11.3,5.6-17.2
				C18.3,20.6,13,16,17.4,11.4C19.8,8.9,29.1,7.5,32.6,11.3z M47.9-1.1C47.9-1.1,48-1.2,47.9-1.1c0.1-0.1,0.1,0,0.1,0S48-1,47.9-1.1
				C48-1,47.9-1.1,47.9-1.1z"/>
			<path class="st13" d="M-3.2,15c3.8,0.5,6,13.8,13.5,11.7c7.5-2.1,7.3-9.4,8.8-11.8"/>
			<path class="st9" d="M-11,15.3c0-2,2.6-3.6,5.8-3.6s5.8,1.6,5.8,3.6s-2.6,3.6-5.8,3.6C-8.4,18.9-11,17.3-11,15.3L-11,15.3z"/>
			<path class="st14" d="M-10.9,24.5c0.5-1,2-1.2,3.4-0.5c1.4,0.7,2.2,2,1.7,3c-0.5,1-2,1.2-3.4,0.5S-11.4,25.4-10.9,24.5z"/>
			<path class="st9" d="M-13.1,25.2C-13.1,25.2-13.1,25.2-13.1,25.2C-13.1,25.2-13.1,25.2-13.1,25.2C-13.1,25.2-13.1,25.3-13.1,25.2
				C-13.1,25.3-13.1,25.2-13.1,25.2L-13.1,25.2z M-12,24.9c0,0,0.1-0.1,0.1-0.1s0.1,0,0.1,0.1c0,0-0.1,0.1-0.1,0.1S-12,24.9-12,24.9
				z"/>
			<path class="st15" d="M-0.4,30.6c-0.5-1-2-1.2-3.4-0.5c-1.4,0.7-2.2,2-1.7,3c0.5,1,2,1.2,3.4,0.5C-0.7,32.9,0.1,31.6-0.4,30.6z"
				/>
			<path class="st12" d="M11.2,36.8l-1.7,10c0,0.3-0.3,0.5-0.6,0.5l-18,0.1c-0.3,0-0.6-0.2-0.6-0.5l-1.7-9.9c0-0.3,0.1-0.5,0.4-0.5
				l21.7-0.2C11.1,36.3,11.3,36.5,11.2,36.8z"/>
			<path class="st16" d="M29.1,9.4c0.6,0.4,3.3,2.5,4.1,5.8c5.6,22.3-7,31.1-13.4,34.1L35,49c0,0,3.4-15.4,1.6-26.3
				c-1.2-7.2-1-8.3-3.9-11.4C31.8,10.3,30.5,9.7,29.1,9.4z"/>
			<path class="st17" d="M29.7,46.4c1-0.5,5.7-3,8.3-0.9c1.4,1.2-1.1,0.9-1,1.1c0.1,0.4,3.2-0.4,2,2.4c0,0-2.7-0.2-5.2-0.4
				c-2.5-0.2-1.2-1.3-4.1-1.2"/>
			<path class="st18" d="M-7.9,48.7h46.1c0.4,0,0.7,0.3,0.7,0.8v1.5c0,0.4-0.3,0.8-0.7,0.8H-7.9c-0.4,0-0.7-0.3-0.7-0.8v-1.5
				C-8.6,49-8.3,48.7-7.9,48.7L-7.9,48.7z"/>
			<path class="st14" d="M14.7,47.1c1-0.9,9.8-4,13.6-3.4s1.8,5,1.8,5L14,48.8C14,48.8,13.7,48,14.7,47.1z"/>
			<path class="st19" d="M25.1,43.8c0,0-0.4,0.8-0.5,1.5c-0.1,0.8,0.1,1.6,0.4,1.5c0.2,0,0.3-0.7,0.8-1.5c0.5-0.8,1.1-1.7,1.1-1.7
				 M20.6,48.7c0,0-0.2-0.4-0.2-0.9c0-0.5,0.1-1.1,0.3-1.1c0.2,0,0.3,0.6,0.4,1c0.1,0.5,0.6,0.9,0.6,0.9L20.6,48.7L20.6,48.7z"/>
			<path class="st20" d="M-11.5,35.7h22.8c0.4,0,0.7,0.3,0.7,0.7v0.5c0,0.4-0.3,0.7-0.7,0.7h-22.8c-0.4,0-0.7-0.3-0.7-0.7v-0.5
				C-12.2,36-11.9,35.7-11.5,35.7z"/>
			<path class="st19" d="M-10.6,24.1c0.6-0.7,2.1-0.6,3.4,0.2c1.3,0.8,1.9,2,1.3,2.7c-0.6,0.7-2.1,0.6-3.4-0.2
				C-10.6,26-11.1,24.8-10.6,24.1L-10.6,24.1z"/>
			<path class="st21" d="M-0.7,30.5c-0.4-0.8-1.9-1-3.2-0.4c-1.3,0.6-2,1.8-1.6,2.6c0.4,0.8,1.9,1,3.2,0.4
				C-1,32.5-0.3,31.4-0.7,30.5z"/>
		</g>
		<text transform="matrix(1 0 0 1 78.709 32.4287)" class="st22 st23 st24">Alimentación</text>
	</g>
</g>
<g transform="translate(28 26)" class="st0">
	<g class="st3">
		<path class="st25" d="M-2.4,41.7C-2.4,21.4,14,5,34.3,5C54.6,5,71,21.4,71,41.7c0,20.3-16.4,36.7-36.7,36.7
			C14,78.4-2.4,61.9-2.4,41.7z"/>
		<path class="st9" d="M49.5,32.8C49.3,32.6,49.3,32.7,49.5,32.8"/>
		<g>
			<path class="st20" d="M27,36.6c-0.2-0.4-5.8,13.4-5.8,13.4c-0.7,1.8-0.5,4.6,0.3,6.3l3.8,7.3C25.4,63.5,27.4,37.4,27,36.6z
				 M43.4,36.4c0.2-0.4,5.8,13.4,5.8,13.4c0.7,1.8,0.5,4.6-0.3,6.3L45,63.4C45,63.4,43.1,37.2,43.4,36.4L43.4,36.4z"/>
			<path class="st7" d="M9,25.9c-2.5-0.1-5.2,1.6-6.2,5.2c-1.5,5.4,10.2,15.1,10.3,15.2v0.1l0,0v0c0.1-0.1,11.8-9.8,10.3-15.2
				c-1.6-5.7-7.5-6.6-10.5-3.3C12,26.6,10.5,26,9,25.9z"/>
			<path class="st26" d="M12.7,30.2c-0.2,0-0.4,0.2-0.4,0.4v3l-3,0c-0.2,0-0.4,0.2-0.4,0.4l0,1.4c0,0.2,0.2,0.4,0.4,0.4l3,0v3
				c0,0.2,0.2,0.4,0.4,0.4h1.4c0.2,0,0.4-0.2,0.4-0.4v-3l3,0c0.2,0,0.4-0.2,0.4-0.4l0-1.4c0-0.2-0.2-0.4-0.4-0.4l-3,0v-3
				c0-0.2-0.2-0.4-0.4-0.4C14.1,30.2,12.7,30.2,12.7,30.2z"/>
			<path class="st17" d="M47.9,34c0-5.7,4.6-10.3,10.3-10.3c5.7,0,10.3,4.6,10.3,10.3c0,5.7-4.6,10.3-10.3,10.3S47.9,39.7,47.9,34z"
				/>
		</g>
		<g>
			<path class="st9" d="M66.1,20.2C66.1,20.1,66.1,20.1,66.1,20.2c0.1-0.1,0.1,0,0.1,0C66.2,20.2,66.2,20.2,66.1,20.2
				C66.1,20.2,66.1,20.2,66.1,20.2z M6.6,45.8C6.6,45.8,6.6,45.8,6.6,45.8C6.6,45.8,6.7,45.8,6.6,45.8C6.7,45.8,6.6,45.8,6.6,45.8
				C6.6,45.8,6.6,45.8,6.6,45.8z M7.7,45.5c0,0,0,0,0.1,0s0.1,0,0.1,0c0,0,0,0-0.1,0C7.8,45.5,7.7,45.5,7.7,45.5L7.7,45.5z"/>
			<path class="st27" d="M33.2,15.8h3.5c3.1,0,5.7,2.5,5.7,5.7V28c0,3.1-2.5,5.7-5.7,5.7h-3.5c-3.1,0-5.7-2.5-5.7-5.7v-6.6
				C27.5,18.3,30.1,15.8,33.2,15.8L33.2,15.8z"/>
			<path class="st17" d="M63.3,4.1h0.2l0,0H63.3z"/>
			<path class="st27" d="M26.8,14.2c0-2,1.6-3.6,3.6-3.6c2,0,3.6,1.6,3.6,3.6s-1.6,3.6-3.6,3.6C28.4,17.9,26.8,16.2,26.8,14.2z"/>
			<path class="st27" d="M26.1,20.1c0,0,0.2,11.4,9.9-0.3c0,0,6.1,3.7,8.8,1.4c2.2-1.8-0.9-11.8-14.3-5.9
				C26,17.3,26.1,20.1,26.1,20.1z"/>
			<path class="st27" d="M24.1,26.1c0-1.6,1.3-2.9,2.9-2.9c1.6,0,2.9,1.3,2.9,2.9c0,1.6-1.3,2.9-2.9,2.9
				C25.4,29,24.1,27.7,24.1,26.1z M39.4,25.9c0-1.6,1.3-2.9,2.9-2.9c1.6,0,2.9,1.3,2.9,2.9c0,1.6-1.3,2.9-2.9,2.9
				C40.7,28.8,39.4,27.5,39.4,25.9z M33.1,32H36v5.3h-2.8V32z"/>
			<path class="st27" d="M43,37.1l1.5,39.7c0,0-5.5,1.6-10.4,1.6c-5,0-9.5-1.5-9.5-1.5l2.6-39.6c0-0.4,0.4-0.8,0.8-0.8l14.3-0.2
				C42.6,36.3,43,36.6,43,37.1z"/>
			<path class="st28" d="M43.7,36.9l1.5,23.4l0.9,13.2c0,0-1.5,2-4,2.9C39.6,77.2,36,77,36,77l-1.3-12.2l-1.5,12.7
				c0,0-2.5,0.2-4.9-0.5c-2.4-0.7-4.7-2.3-4.7-2.3l1.5-18.2l1.6-19.3c0,0-0.3-0.6,1.1-0.9c1.4-0.2,4.5-0.1,4.5-0.1l2.1,6.4l2.2-6.3
				l6.1,0C43.2,36.2,43.6,36.5,43.7,36.9z"/>
			<path class="st10" d="M29.9,39.6c-0.2,0.2,0,0.5,0.3,0.6l1.9,0c0.3,0.1,2.5,5.3,2.5,5.3l-0.1-2.9l-1.7-6.2c0,0-0.5-0.5-0.8-0.1
				C32.1,36.2,29.9,39.6,29.9,39.6z"/>
			<path class="st10" d="M39.2,39.4c0.2,0.2,0,0.5-0.3,0.6L37,40c-0.3,0.1-2.5,5.3-2.5,5.3l0.1-2.9l1.7-6.2c0,0,0.5-0.5,0.8-0.1
				L39.2,39.4L39.2,39.4z"/>
		</g>
		<g>
			<path class="st9" d="M26.6,45.9c0-0.5,0.4-1,1-1c0.6,0,1,0.4,1,1c0,0.5-0.4,1-1,1C27,46.9,26.6,46.4,26.6,45.9L26.6,45.9z"/>
			<path class="st9" d="M30.2,40.7c-1.3-0.1-2.5,0.8-2.7,2.1l-0.3,3l0.8,0.1l0.3-3c0.1-0.9,0.9-1.5,1.8-1.4c0.9,0.1,1.6,0.9,1.5,1.7
				L31.4,46l0.8,0.1l0.2-2.9C32.5,41.9,31.5,40.8,30.2,40.7z"/>
			<path class="st9" d="M30.6,46.4c0-0.5,0.4-1,1-1c0.6,0,1,0.4,1,1c0,0.5-0.4,1-1,1S30.6,46.9,30.6,46.4L30.6,46.4z M36.6,35.7
				c-0.5,0-1,0-1.5,0c-0.2,0-0.3,0-0.4,0.1h0.1c-1.9,0-3.3,1-4.1,2.6c-0.3,0.6-0.5,1.2-0.7,1.8c-0.1,0.4-0.1,0.6-0.2,0.8
				c0,0.2,0.1,0.4,0.3,0.4c0.2,0,0.4-0.1,0.4-0.3c0,0,0-0.1,0-0.2c0-0.2,0.1-0.3,0.1-0.5c0.1-0.5,0.3-1.1,0.6-1.6
				c0.7-1.4,1.9-2.2,3.5-2.2l0.1,0c0.1,0,0.2,0,0.3,0c0.9-0.1,1.8-0.1,2.7,0.2c2,0.6,3.1,2.3,2.9,5.5c0,0.2,0.2,0.4,0.4,0.4
				c0.2,0,0.4-0.2,0.4-0.4c0.1-3.5-1.2-5.5-3.5-6.2C37.7,35.9,37.1,35.8,36.6,35.7z"/>
			<path class="st9" d="M40.1,42.8c0-0.6,0.5-1.1,1.1-1.1s1.1,0.5,1.1,1.1c0,0.6-0.5,1.1-1.1,1.1S40.1,43.4,40.1,42.8z"/>
			<path class="st10" d="M58.3,26.4c1.1,0.9,1.3,2.6,0.3,3.7l-4.9,5.9c-0.9,1.1-2.6,1.3-3.7,0.3c-1.1-0.9-1.3-2.6-0.3-3.7l4.9-5.9
				C55.6,25.6,57.2,25.5,58.3,26.4L58.3,26.4z"/>
			<path class="st15" d="M56.4,25.8c-0.7,0.1-1.3,0.4-1.8,0.9l-2.2,2.6l4.2,3.2l2.1-2.5c0.9-1.1,0.8-2.8-0.3-3.7
				C57.8,25.9,57.1,25.7,56.4,25.8L56.4,25.8z"/>
			<path class="st10" d="M65.2,41c-1,0.6-2.3,0.4-2.9-0.6L59,35.3c-0.6-1-0.4-2.3,0.6-2.9c1-0.6,2.3-0.4,2.9,0.6l3.4,5.1
				C66.4,39,66.2,40.3,65.2,41z"/>
			<path class="st9" d="M66.1,39.6c0.1-0.5,0-1.1-0.3-1.6l-1.5-2.3l-3.4,2.5l1.4,2.1c0.6,1,1.9,1.2,2.9,0.6
				C65.7,40.6,66,40.2,66.1,39.6z"/>
		</g>
	</g>
	<g class="st3">
		<text transform="matrix(1 0 0 1 139.1769 53.7861)" class="st22 st23 st29">Salud</text>
	</g>
</g>
<g transform="translate(28 26)" class="st0">
	<g class="st3">
		<path class="st30" d="M-3.7,41.5c0-20.3,16.4-36.7,36.7-36.7s36.7,16.4,36.7,36.7c0,20.3-16.4,36.7-36.7,36.7
			C12.8,78.3-3.7,61.8-3.7,41.5z"/>
		<g>
			<path class="st31" d="M23.2,3.9c-4.1,0-7.4,3.3-7.4,7.4c0,2.6,1.3,4.8,3.3,6.1c0,0.5,0.1,1,0,1.4C5,18.3,6.9,29.2,5.6,37.6
				c-1.3,8.3,0.7,11.7,0.7,11.7l4.7,7.6l19.8,1.9l1.8-18.6l0.1-11c-0.4-5.9-4.2-8.4-7.5-9.5c0.1-0.5,0.2-0.7,0.2-1.3
				c3-0.9,5.3-3.7,5.3-7C30.6,7.2,27.2,3.9,23.2,3.9z"/>
			<path class="st32" d="M41.7,3.9c-4.1,0-7.4,3.3-7.4,7.4c0,3.6,2.5,6.5,5.9,7.2l0.1,0.7c-5.8,1.5-7.3,5.7-7.3,8.1
				C32.6,35.2,33,40.7,33,40.7s7.3,16.5,7.9,16.8c0.6,0.3,6.1,0.9,7.2,1.1c1.1,0.1,5.4-2.3,6.2-2.9c0.8-0.6,3.7-8,3.7-8l1.1-9.2
				c0,0,0.2-6.6-1.8-13.5c-1.7-5.8-7.2-6.7-10.8-6.7l-0.3-1.3c1.8-1.4,2.9-3.5,2.9-5.8C49.1,7.2,45.7,3.9,41.7,3.9z"/>
		</g>
		<g>
			<path class="st33" d="M21.4,4.1c-3.2,0.8-5.6,3.7-5.6,7.2c0,2.3,1.1,4.3,2.8,5.7c-0.8-1.2-2-3.4-1.5-6.1c0.7-4,4-5.9,7-6.9
				c-0.6,0-1-0.1-1.3,0C22.4,3.9,22,4,21.4,4.1L21.4,4.1z M19.1,17.7c0,0.1,0,0.2,0,0.3c0.1,0,0.1,0,0.2-0.1
				C19.3,18,19.1,17.8,19.1,17.7z M16.6,18.8C5.2,19.7,6.8,29.7,5.6,37.6c-1.3,8.3,0.7,11.7,0.7,11.7l4.7,7.6L23.1,58l-2.8-14.1
				c0,0-10.5-2.3-11-10.3c-0.5-7,3.1-12.5,7.8-14.8C16.9,18.8,16.8,18.8,16.6,18.8L16.6,18.8z"/>
			<path class="st34" d="M38.1,4.8c-2.3,1.3-3.8,3.7-3.8,6.5c0,3.6,2.5,6.5,5.9,7.2l0.1,0.6l0.6-0.6c-3.6-1.5-4.3-5.4-4.3-5.4
				c-1.3-4.5,2.8-8.8,2.7-8.8c-0.1,0-0.3,0.1-0.8,0.3C38.4,4.7,38.3,4.7,38.1,4.8z M40.1,19.3c-5.7,1.6-7.1,5.7-7.2,8
				C32.6,35.2,33,40.7,33,40.7s1.5,3.3,2.9,6.4l-0.5-7l-0.8-10.3C34.4,25.7,38.6,20.9,40.1,19.3z"/>
		</g>
		<g>
			<path class="st35" d="M38.4,37.1c-3.6,0.1-5.7,3.1-6,3.4c-0.4-0.6-3.2-4.1-7.7-2.9c-3.6,1-6.8,3.7-5.7,9.7
				c0.8,4.4,5.9,9.1,13.9,13.7c0,0,0,0,0,0v0l0.2-0.1c0,0,12.4-9.8,13-13.9c1-6-2.3-8.7-6-9.6C39.6,37.1,39,37,38.4,37.1z"/>
			<path class="st36" d="M26.4,37.3c-0.5,0-1,0.1-1.6,0.2c-3.6,1-6.8,3.7-5.7,9.7c0.8,4.4,5.9,9.1,13.9,13.7c0,0,0,0,0,0v0l0.2-0.1
				c0,0,0,0,0,0c5.2-9.1,0.8-18.6-0.4-20.8c-0.1,0.1-0.3,0.3-0.3,0.4C32.1,39.9,29.9,37.2,26.4,37.3z"/>
		</g>
		<g>
			<path class="st37" d="M34.6,75.2c0,0-22.6-1.3-30.1-24.1c0,0-2.7-11.8,1.7-13c0,0,1.7-0.4,1.5,2.4c0,0-0.8,6.7,2,10.4
				c2.8,3.8,9.2,4.6,9.2,4.6s-6.8-6.7-4.2-8.8c0,0,1.4-0.6,3,1.6c0,0,11.1,11.8,15.6,12.7C34.7,61.4,36,70.5,34.6,75.2z"/>
			<path class="st38" d="M33,75.1c4.8,1,20.2-1.2,27-24.9c0,0,2.3-12.2-2.1-13.3c0,0-1.7-0.3-1.4,2.6c0,0,1,6.8-1.7,10.8
				c-2.7,4-9.1,5-9.1,5s6.6-7.1,4-9.2c0,0-2.1-0.5-3.6,1.8c0,0-10.4,11.5-14.1,14C28.3,64.4,28.2,74.1,33,75.1z"/>
			<path class="st37" d="M34.6,75.2c0,0-22.6-1.3-30.1-24.1c0,0-2.7-11.8,1.7-13c0,0,1.7-0.4,1.5,2.4c0,0-0.8,6.7,2,10.4
				c2.8,3.8,9.2,4.6,9.2,4.6s-6.8-6.7-4.2-8.8c0,0,1.4-0.6,3,1.6c0,0,7.3,7.5,12.5,10.9c1.2,0.8,2.4,1.7,3.2,1.8
				C34.8,61.3,36,70.5,34.6,75.2z"/>
		</g>
	</g>
	<g class="st3">
		<text transform="matrix(1 0 0 1 76.8359 53.7109)" class="st22 st23 st29">Socioemocional</text>
	</g>
</g>
<g transform="translate(28 26)">
	<g>
		<path class="st9" d="M-12.1,42.6c0-20.1,16.3-36.3,36.3-36.3c20.1,0,36.3,16.3,36.3,36.3c0,20.1-16.3,36.3-36.3,36.3
			C4.2,78.9-12.1,62.6-12.1,42.6z"/>
		<path class="st14" d="M38.9,11.6c0.3,6.5,2.9,15,2.9,15c0,0.4,0.3,0.7,0.7,0.7c0,0,5.2-0.2,5.6,1.7c1.6,7.4,4,20.5,4,27l-18.3,1.4
			c-0.4,0.1-0.7,0-0.7-0.3c0,0,0.8-15.7-1.7-22.5c-1.8-4.8,5-6.2,5-6.2c0.4-0.1,0.6-0.4,0.6-0.8c0,0-0.2-2.1-0.6-2
			c0,0-4.6,2.3-5.4,1.3c-2.5-3-3.5-11.5-3.4-13.9C27.6,10.8,38.7,9.3,38.9,11.6L38.9,11.6z"/>
		<path class="st14" d="M37.4,16.5c0-1.3,1-2.3,2.3-2.3c1.3,0,2.3,1,2.3,2.3s-1,2.3-2.3,2.3C38.4,18.8,37.4,17.7,37.4,16.5
			L37.4,16.5z"/>
		<path class="st19" d="M46.4,27.7c1.5,4.2,5.8,19-5.2,29.1l10.8-0.9c0-6.4-2.4-19.6-4-27C47.9,28.3,47.2,28,46.4,27.7z"/>
		<path class="st39" d="M15.8,8.4c-2.2,0.2-4,1-4.3,3.3c-0.1,0.7-0.3,1.9-0.5,2.9c-0.2-0.1-0.4-0.1-0.7-0.1c-1.5,0-2.7,1.2-2.7,2.7
			c0,1.4,1.1,2.6,2.5,2.7c-0.5,2.7-0.9,5.1-1.1,5.8c-0.3,1.4-1.3,0-4.1-0.2c-2.8-0.2-5.6,0.7-6.8,9c-1.2,8.3-1.8,18.3-1.7,25.3
			c0.1,6.9,2.5,1.9,2.9,1.9L20.6,65c-0.1-3.9-0.7-14.2,2.2-26c2.5-10.2-1.9-10.3-4.7-10.8c-1-0.2-0.9-1-0.8-1.6
			c0.1-0.7,0.4-1.6,0.4-1.6l3.4,0.8c0.6,0.1,1.5-0.3,2.3-1.9c0.8-1.7,1.7-8.2,1.7-8.2c0.4-2.2,0.5-5.5-2.9-6.5
			C20.5,8.7,18,8.2,15.8,8.4L15.8,8.4z"/>
		<g>
			<path class="st17" d="M17.5,8.4c-0.6,0-1.1,0-1.7,0c-2.2,0.2-4,1-4.3,3.3c-0.1,0.7-0.3,1.9-0.5,2.9c-0.2-0.1-0.4-0.1-0.7-0.1
				c-1.5,0-2.7,1.2-2.7,2.7c0,1.4,1.1,2.6,2.5,2.7c-0.5,2.7-0.9,5.1-1.1,5.8c-0.1,0.5-0.3,0.6-0.7,0.5l0.1,0.3
				c-3.9-0.5-4.8,2.7-4.8,2.7c-6.9,16.7-3.3,27.3,1.3,33.3L20.6,65c-0.1-3.9-0.7-14.2,2.2-26c2.5-10.2-1.9-10.3-4.7-10.8
				c-1-0.2-0.9-1-0.8-1.6c0.1-0.7,0.4-1.6,0.4-1.6l3.4,0.8c0.6,0.1,1.5-0.3,2.3-1.9c0.8-1.7,1.7-8.2,1.7-8.2
				c0.4-2.2,0.5-5.5-2.9-6.5C21,8.9,19.2,8.5,17.5,8.4L17.5,8.4z"/>
		</g>
		<g>
			<path class="st10" d="M9.9,50.8l-0.2-4.4c0,0,11.6-1.3,13.9,2.2c0,0,8.8-5.1,13.7-3.4v4.8l-12.4,6.5L9.9,50.8L9.9,50.8z"/>
			<path class="st18" d="M8,50.4c0,0,11-3.5,15.9,1.9c0,0,3.8-2.2,7.9-3.5c2.8-0.9,5.7-1.3,7.6-0.3l-0.8,19.9c0,0-10.1-4-14.5,0.8
				c0,0-11.7-3.5-13.8-0.6L8,50.4z"/>
			<g>
				<path class="st15" d="M-0.5,57.3h16c1.9,0,3.5,1.6,3.5,3.5v7.7c0,1.9-1.6,3.5-3.5,3.5h-16C-2.4,72-4,70.5-4,68.5v-7.7
					C-4,58.9-2.4,57.3-0.5,57.3z"/>
				<path class="st10" d="M4.3,62.4L4.2,67c0,0.3,0.2,0.5,0.5,0.4l5.5-2.3c0.3-0.1,0.3-0.3,0-0.5l-5.5-2.6C4.5,62,4.3,62.1,4.3,62.4
					L4.3,62.4z"/>
			</g>
		</g>
		<g>
			<path class="st40" d="M32.9,68.4l0.3-13c0-0.1,0.1-0.1,0.1-0.1l20.4-0.2c0.1,0,0.1,0.1,0.1,0.1l-0.4,14.2c0,0.1-0.1,0.1-0.1,0.1
				l-20.3-1C33,68.5,32.9,68.5,32.9,68.4z"/>
			<path class="st11" d="M35.1,57.8h2.8v2.5h-2.8V57.8z M35.2,63h2.8v2.5h-2.8V63z"/>
			<path class="st11" d="M35.6,58.8l1,1.1c0,0,1.5-1.9,3.1-2.1 M36.1,63.5l0.9,1.1c0,0,1.4-1.9,2.9-2"/>
			<path class="st17" d="M40.6,58.3l0,1.1c0,0.1,0.1,0.1,0.1,0.1l10.1,0.2c0.1,0,0.1-0.1,0.1-0.1l0-1.2c0-0.1-0.1-0.1-0.1-0.1
				l-10.1,0C40.7,58.1,40.6,58.2,40.6,58.3L40.6,58.3z M40.1,63.5l0,1.1c0,0.1,0.1,0.1,0.1,0.1l10.1,0.2c0.1,0,0.1-0.1,0.1-0.1
				l0-1.2c0-0.1-0.1-0.1-0.1-0.1l-10.1,0C40.2,63.4,40.1,63.5,40.1,63.5z"/>
		</g>
	</g>
	<g>
		<text transform="matrix(1 0 0 1 71.7217 36.7285)" class="st22 st23 st41">Formación para</text>
		<text transform="matrix(1 0 0 1 260.4121 36.7285)" class="st22 st23 st41"> </text>
		<text transform="matrix(1 0 0 1 125.4912 64.9473)" class="st22 st23 st41">padres</text>
	</g>
</g>
</svg>
