<?xml version="1.0" encoding="utf-8"?>
<!-- Generator: Adobe Illustrator 24.0.2, SVG Export Plug-In . SVG Version: 6.00 Build 0)  -->
<svg version="1.1" id="Capa_1" xmlns="http://www.w3.org/2000/svg" xmlns:xlink="http://www.w3.org/1999/xlink" x="0px" y="0px"
	 viewBox="0 0 320 205" style="enable-background:new 0 0 320 205;" xml:space="preserve">
<style type="text/css">
	.st0{filter:url(#Adobe_OpacityMaskFilter);}
	.st1{fill-rule:evenodd;clip-rule:evenodd;fill:#FFFFFF;}
	.st2{mask:url(#prefix__c_1_);}
	.st3{fill:#0052C2;}
	.st4{fill:#E0F4FF;}
	.st5{fill:#FFDA2D;}
	.st6{fill:#00B8F0;}
	.st7{fill-rule:evenodd;clip-rule:evenodd;fill:#58CB7D;}
	.st8{fill:#FDBF00;}
	.st9{fill:#F03800;}
</style>
<g>
	<defs>
		<filter id="Adobe_OpacityMaskFilter" filterUnits="userSpaceOnUse" x="136.4" y="73.7" width="47.2" height="41.5">
			<feColorMatrix  type="matrix" values="1 0 0 0 0  0 1 0 0 0  0 0 1 0 0  0 0 0 1 0"/>
		</filter>
	</defs>
	<mask maskUnits="userSpaceOnUse" x="136.4" y="73.7" width="47.2" height="41.5" id="prefix__c_1_">
		<g class="st0">
			<path id="prefix__a_3_" class="st1" d="M23.4,61.7h272c4.4,0,8,3.6,8,8v244c0,4.4-3.6,8-8,8h-272c-4.4,0-8-3.6-8-8v-244
				C15.4,65.3,19,61.7,23.4,61.7z"/>
		</g>
	</mask>
	<g class="st2">
		<g transform="translate(121 12)">
			<path class="st3" d="M62.6,65.9c0-2.3-1.9-4.1-4.1-4.1H19.6c-2.3,0-4.1,1.9-4.1,4.1v8.3l0.9,0.9h45.3l0.9-0.9V65.9z"/>
			<path class="st4" d="M15.4,74.1V99c0,2.3,1.9,4.1,4.1,4.1h38.9c2.3,0,4.1-1.9,4.1-4.1V74.1H15.4z"/>
			<path class="st5" d="M33.5,89.4H22.4c-0.8,0-1.4,0.6-1.4,1.4v5.5c0,0.8,0.6,1.4,1.4,1.4h11.1c0.8,0,1.4-0.6,1.4-1.4v-5.5
				C34.9,90,34.2,89.4,33.5,89.4z"/>
			<path class="st6" d="M47.3,78.3H22.4c-0.8,0-1.4,0.6-1.4,1.4c0,0.8,0.6,1.4,1.4,1.4h24.9c0.8,0,1.4-0.6,1.4-1.4
				S48.1,78.3,47.3,78.3z M41.8,83.8H22.4c-0.8,0-1.4,0.6-1.4,1.4s0.6,1.4,1.4,1.4h19.4c0.8,0,1.4-0.6,1.4-1.4
				C43.1,84.4,42.5,83.8,41.8,83.8z"/>
			<circle class="st7" cx="22.4" cy="68.6" r="1.4"/>
			<circle class="st8" cx="27.9" cy="68.6" r="1.4"/>
			<circle class="st9" cx="33.5" cy="68.6" r="1.4"/>
		</g>
	</g>
</g>
</svg>
