<svg xmlns="http://www.w3.org/2000/svg" xmlns:xlink="http://www.w3.org/1999/xlink" width="359" height="155" viewBox="0 0 359 155">
    <defs>
        <filter id="prefix__a" width="134.1%" height="187.9%" x="-17.1%" y="-41.9%" filterUnits="objectBoundingBox">
            <feMorphology in="SourceAlpha" operator="dilate" radius=".5" result="shadowSpreadOuter1"/>
            <feOffset dy="2" in="shadowSpreadOuter1" result="shadowOffsetOuter1"/>
            <feGaussianBlur in="shadowOffsetOuter1" result="shadowBlurOuter1" stdDeviation="14"/>
            <feComposite in="shadowBlurOuter1" in2="SourceAlpha" operator="out" result="shadowBlurOuter1"/>
            <feColorMatrix in="shadowBlurOuter1" values="0 0 0 0 0 0 0 0 0 0 0 0 0 0 0 0 0 0 0.06 0"/>
        </filter>
        <rect id="prefix__b" width="255" height="99" x="76" y="0" rx="4"/>
    </defs>
    <g fill="none" fill-rule="evenodd" transform="translate(0 26)">
        <use fill="#000" filter="url(#prefix__a)" xlink:href="#prefix__b"/>
        <use fill="#FFF" stroke="#E4E9F2" xlink:href="#prefix__b"/>
        <g font-size="16">
            <text fill="#222B45" font-family="Montserrat-Medium, Montserrat" font-weight="400" transform="translate(135 10)">
                <tspan x="2.532" y="41">Teléfono: </tspan>
            </text>
            <text fill="#B3337F" font-family="Montserrat-Bold, Montserrat" font-weight="bold" transform="translate(135 10)">
                <tspan x="84.416" y="45">36 01 87 20</tspan>
            </text>
            <text fill="#B3337F" font-family="Montserrat-Bold, Montserrat" font-weight="bold" transform="translate(135 10)">
                <tspan x="20.028" y="15">Maestro en línea</tspan>
            </text>
        </g>
        <g transform="translate(127 75)">
            <rect width="191" height="48" fill="#006DD0" rx="24"/>
            <g fill="#FFF">
                <text font-family="Montserrat-Medium, Montserrat" font-size="18" font-weight="400" transform="translate(43 16)">
                    <tspan x="0" y="17">Contactar</tspan>
                </text>
                <path fill-rule="nonzero" d="M102.5 13c-.256 0-.512-.098-.707-.293-.391-.391-.391-1.023 0-1.414l3.305-3.305-3.18-3.293c-.383-.398-.372-1.031.025-1.414.398-.383 1.03-.372 1.414.024l3.862 4c.379.393.374 1.016-.012 1.402l-4 4c-.195.195-.451.293-.707.293" transform="translate(43 16)"/>
            </g>
        </g>
        <g>
            <g fill="#0065C1" fill-rule="nonzero" transform="translate(0 11) translate(56.004 25.48)">
                <circle cx="13.572" cy="5.127" r="4.904"/>
                <path d="M9.136 2.964L0.057 31.491 10.254 32.744 18.028 7.082z"/>
            </g>
            <g transform="translate(0 11) translate(67.964)">
                <path fill="#0065C1" fill-rule="nonzero" d="M38.678 56.01c.013.196.098.381.239.52.049.046.107.081.171.103.055.016.112.016.167 0 .132-.04.249-.12.333-.229.099-.125.173-.268.218-.42.052-.17.052-.351 0-.52-.07-.176-.215-.31-.395-.365-.025-.006-.046-.023-.057-.047-.059.011-.115.033-.167.063-.324.175-.524.516-.52.884"/>
                <path fill="#0275D8" fill-rule="nonzero" d="M40.009 55.5c.016-.028.016-.061 0-.089-.039-.239-.204-.438-.432-.52-.21-.041-.427.008-.598.135-.38.26-.574.717-.494 1.17.089.385.453.796.879.63.35-.173.59-.508.64-.895.026-.137.026-.278 0-.416m-.203.52c-.04.155-.112.299-.213.421-.083.113-.2.195-.333.234-.056.016-.116.016-.172 0-.064-.018-.121-.054-.166-.104-.143-.137-.23-.322-.245-.52 0-.366.199-.703.52-.878.053-.029.11-.051.167-.068.011.023.032.04.057.047.18.055.325.19.395.364.055.169.055.35 0 .52"/>
                <path fill="#F3D19F" fill-rule="nonzero" d="M28.761 62.774c.756 1.178 1.664 2.252 2.699 3.193.272.347.708.522 1.144.458.378-.158.708-.413.957-.739.665-.707 1.362-1.393 1.997-2.132.296-.343.764-.925.452-1.383-.162-.207-.336-.405-.52-.593l-.13-.15-.276.182c-.305.193-.623.367-.951.52l-.11.052c.003.034-.019.066-.051.078-.584.253-1.087.663-1.451 1.185-.073.104-.245 0-.172-.099.331-.476.772-.867 1.285-1.138-.004-.035.015-.068.046-.084.547-.234 1.07-.522 1.56-.858l.162-.114c.846-.612 1.584-1.36 2.184-2.215.067-.099.234-.359.301-.453-.207-.148-.405-.31-.593-.483-.348-.323-.673-.67-.972-1.04-.673-.783-1.26-1.638-1.747-2.548-.198-.375-.375-.76-.551-1.139 0-.042-.042-.13-.063-.172-.02-.041-.182-.462-.203-.52 0 .094-.104.188-.114.286-.036.552 0 1.607-.12 2.153-.062.347-.14.685-.234 1.014 0 .099-.057.203-.088.307-.459 1.529-1.213 2.953-2.22 4.191-.668.815-1.413 1.562-2.226 2.231"/>
                <path fill="#0275D8" fill-rule="nonzero" d="M38.1 49.754c-.166-.37-.234-.796-.38-1.18l-.363.228c-.465.303-.915.63-1.347.978-.421.358-.816.748-1.222 1.118-.162.163-.335.315-.52.452-.163.095-.32.2-.468.317-.255.24-.088.65 0 .931.114.328.27.634.41.946.405.922.913 1.794 1.514 2.6.307.406.63.801.967 1.18.327.385.693.733 1.092 1.04l.13.1c.05.039.102.075.156.109.082.053.174.088.27.104.17.006.335-.06.453-.182.255-.219.437-.52.707-.702.447-.328.884-.645 1.305-1.009.422-.364.858-.764 1.285-1.144l.946-.868c-2.135-1.118-3.857-2.889-4.914-5.055m1.924 6.162c-.05.387-.29.722-.64.895-.426.166-.79-.245-.878-.63-.08-.453.113-.91.494-1.17.171-.127.388-.176.598-.135.228.082.393.281.431.52.016.028.016.061 0 .089.026.137.026.278 0 .416"/>
                <path fill="#0065C1" fill-rule="nonzero" d="M52.172 45.204c-.095.462-.294.896-.583 1.268-.607.838-1.274 1.63-1.997 2.372-.754.79-1.56 1.534-2.376 2.262-1.394 1.242-2.813 2.46-4.202 3.702-.25-.135-.488-.28-.733-.432-1.216-.772-2.284-1.755-3.156-2.901-.433-.587-.799-1.22-1.092-1.888-.14-.317-.291-.645-.421-.983.12-.083.244-.176.353-.27.142-.082.253-.208.317-.359.016-.1.001-.204-.041-.296-.064-.168-.064-.353 0-.52.182-.35.595-.513.967-.38.03.008.06.002.085-.016.025-.018.04-.047.04-.077 0-.297-.167-.77.15-.952l.058-.031c.045-.016.092-.026.14-.031.199-.005.395.04.572.13.466.21.898.491 1.28.832.093.083.233-.058.14-.14-.456-.41-.985-.73-1.56-.942-.185-.073-.387-.09-.583-.052-.332-.442-.686-.858-1.04-1.274-.613-.723-1.2-1.461-1.783-2.21-.479-.608-.947-1.232-1.451-1.82-.421-.484-.837-.957-1.248-1.44l-.068-.078-.093-.11c-.349-.4-.962-.998-1.16-1.211-4.05-3.64-4.461-7.759-1.908-11.664.057 0 .166-.161.223-.182.609-.244 1.129-.629 1.716-.92.287-.166.61-.259.942-.27.261.021.51.119.717.28.486.388.895.862 1.207 1.399.14.218.265.437.395.66-.002.012-.002.025 0 .037.118.275.268.535.447.775.017.012.03.028.042.046.426.615.897 1.197 1.409 1.742.712.754 1.456 1.482 2.179 2.231 1.601 1.659 3.234 3.287 4.82 4.961.79.832 1.56 1.674 2.356 2.501.795.827 1.56 1.623 2.33 2.444.384.416.769.837 1.138 1.264.349.372.677.762.983 1.17.318.376.483.859.463 1.352"/>
                <path stroke="#034F87" stroke-linecap="round" stroke-linejoin="round" stroke-width=".52" d="M39.52 45.594s.874-.23 2.054.925"/>
                <path fill="#EABF8F" fill-rule="nonzero" d="M14.602 30.498c.732 1.735 1.186 3.574 1.346 5.45v.431c.151-.416.307-.827.474-1.232.348-.858.712-1.716 1.133-2.533.2-.463.432-.912.697-1.341-.954-.025-1.9-.186-2.808-.479"/>
                <path fill="#0275D8" fill-rule="nonzero" d="M33.322 43.3c0-.52.072-1.003.135-1.502.12-.973.52-2.346.67-3.313-.285-.333-.629-.52-.889-.863-.093-.125-.208-.062-.29-.198 0 0-.063-.046-.063-.062-4.046-3.64-4.477-7.8-1.924-11.705-.843.317-1.976.587-2.803.832 0 0-.863-2.767-1.362-2.902-2.637-.728-10.4-.447-10.712.291-.151.318-4.316-.842-6.391-.078-.666.245-1.191 3.24-1.201 3.24-.713-.255-2.19-.14-2.918-.328-.52-.135-1.086-.28-1.617-.462-.442-.156-.587-.188-.4-.1-.265 1.56-1.862 3.396-2.241 6.293.028.022.042.058.036.093-.104.567-.15 1.144-.208 1.711-.114 1.089-.213 2.179-.296 3.271-.146 1.794-.266 3.593-.349 5.398v.369C.451 44.29.414 45.294.39 46.295c-.031 1.212-.042 2.434 0 3.64v.703c.026.925.114 2.189.229 3.12.624.707 1.253 1.94 1.94 2.6.924.776 1.967 1.4 3.088 1.846 1.272.608 2.61 1.065 3.989 1.362.062 0 .743.187.81.198 1.14.239 1.587.488 2.746.55 1.597.09 2.87 1.52 4.452 1.332.067 0 1.352-1.492 1.414-1.503.815-.071 1.626-.188 2.428-.348.396-.089.874-.416 1.27-.52 0 0 .52-.26.55-.26.052.27 3.401 1.934 3.557-1.274.057-.026 2.496-.645 3.12-1.212.624-.567 3.432-2.324 3.609-2.574 0-.223-.047-4.55-.13-5.683-.14-1.653-.188-3.313-.14-4.972zM28.2 44.6l-.032.255-.213.104-.452.198c-.551.247-1.126.437-1.716.567-1.11.262-2.27.215-3.354-.136-.192-.063-.38-.14-.562-.228l-.197-.104v-.23c-.13-2.007-.14-4.022-.032-6.031v-.198l.193.037c.587.114 1.185.213 1.783.28 0-.634.042-1.274.078-1.908-.044-.085-.044-.186 0-.27.057-.085.145-.143.245-.162.052-.007.104-.007.156 0 .15-.02.303.028.416.13.078.067.114.17.093.27v.027c-.052.66-.088 1.326-.104 1.991h.645c-.012-.806.1-1.61.333-2.381-.048-.154-.087-.31-.114-.468-.066-.367-.09-.74-.073-1.113-.083-.064-.107-.178-.057-.27.123-.17.312-.28.52-.302.15-.018.302-.018.452 0 .286-.01.572.032.842.125.192.057.37.154.52.286.018.022.034.047.047.073.048.015.076.065.063.114l-.312 1.186-.078.286c-.015.087-.043.17-.084.25-.012.019-.028.036-.046.051.095.656.123 1.32.083 1.981.319-.072.633-.164.941-.275l.192-.073v.203c.126 1.913.067 3.834-.176 5.735z"/>
                <path fill="#0275D8" fill-rule="nonzero" d="M28.2 44.6l-.032.255-.213.104-.452.198c-.551.247-1.126.437-1.716.567-1.11.262-2.27.215-3.354-.136-.192-.063-.38-.14-.562-.228l-.197-.104v-.23c-.13-2.007-.14-4.022-.032-6.031v-.198l.193.037c.587.114 1.185.213 1.783.28 0-.634.042-1.274.078-1.908-.044-.085-.044-.186 0-.27.057-.085.145-.143.245-.162.052-.007.104-.007.156 0 .15-.02.303.028.416.13.078.067.114.17.093.27v.027c-.052.66-.088 1.326-.104 1.991h.645c-.012-.806.1-1.61.333-2.381-.048-.154-.087-.31-.114-.468-.066-.367-.09-.74-.073-1.113-.083-.064-.107-.178-.057-.27.123-.17.312-.28.52-.302.15-.018.302-.018.452 0 .286-.01.572.032.842.125.192.057.37.154.52.286.018.022.034.047.047.073.048.015.076.065.063.114l-.312 1.186-.078.286c-.015.087-.043.17-.084.25-.012.019-.028.036-.046.051.095.656.123 1.32.083 1.981.319-.072.633-.164.941-.275l.192-.073v.203c.126 1.913.067 3.834-.176 5.735zM.421 43.046c-.073 1.29-.12 2.568-.125 3.811.021-1.269.063-2.543.125-3.811zM3.64 26.125c-.265 1.56-1.862 3.395-2.241 6.292.38-2.881 2.08-6.38 2.246-6.292"/>
                <path fill="#0065C1" fill-rule="nonzero" d="M28.32 40.747c0 1.319-.09 2.635-.266 3.942-.296.145-.598.286-.905.405-1.659.656-3.64.832-5.2 0-.136-2.032-.15-4.07-.041-6.104.592.109 1.19.208 1.794.275v1.129c0 .16 0 .369.166.457.056.034.123.043.186.024.063-.018.114-.063.142-.123.018-.1.018-.201 0-.301v-1.134l.42.031h.776c.568 0 1.136-.052 1.695-.156l.197-.041c.329-.069.652-.161.968-.276.036.614.057 1.227.057 1.841"/>
                <path fill="#822E82" fill-rule="nonzero" d="M27.414 35.594s-.093.047-.109.052c-.069.025-.14.043-.213.052-.326.039-.656.039-.983 0-.163-.011-.324-.045-.478-.099-.053-.012-.103-.031-.151-.057v-.125c.003-.014.003-.028 0-.041l.062-.037c.063-.032.13-.056.198-.073.024.009.05.009.073 0 .125-.024.252-.038.38-.041h.254c.314.026.618.122.89.28 0 0 .083.037.077.063"/>
                <path fill="#A546A0" fill-rule="nonzero" d="M27.45 35.573l-.28 1.082c-.031.104-.052.218-.088.322-.037.104-.151.14-.245.177-.177.068-.366.1-.556.094-.185.011-.368-.04-.52-.146-.027-.033-.048-.07-.063-.11.013-.022.013-.05 0-.072-.006-.034-.015-.067-.026-.099-.026-.104-.052-.213-.072-.322-.057-.32-.083-.643-.078-.967.199.072.407.117.618.135.232.013.465.013.697 0 .205.005.41-.026.603-.094.014.003.028.003.042 0"/>
                <path fill="#FFF" fill-rule="nonzero" d="M27.113 39c-.564.108-1.137.163-1.711.166-.004-.724.087-1.446.27-2.147.06.06.133.107.214.135.319.106.663.106.982 0 .058 0 .12-.036.177-.062.088.632.11 1.271.068 1.908"/>
                <path fill="#95C11F" fill-rule="nonzero" stroke="#95C121" stroke-linecap="round" stroke-linejoin="round" stroke-width=".5" d="M24.44 37.336c-.047.603-.078 1.212-.094 1.815h-.197 0c-.03-.016-.065-.016-.094 0h0l-.047.369v1.154c0 .032-.088 0-.109-.052-.015-.096-.015-.194 0-.29v-.64-.786h0c0-.52.037-1.04.068-1.56h0c.085.028.175.04.265.037.083-.002.165-.014.244-.037"/>
                <circle cx="24.196" cy="37.279" r="1" fill="#84A51C" fill-rule="nonzero"/>
                <path fill="#5B3818" fill-rule="nonzero" d="M18.242 59.504c.098.686.38 1.357.462 2.038.957-.125 2.106-.312 3.048-.52 2.779-.603 5.476-1.537 8.034-2.782.842-.41 1.669-.858 2.48-1.326.358-.204.705-.426 1.04-.666.068-.218.12-.436.172-.66.093-.618.14-1.242.14-1.867-.187.218-.4.412-.634.577-.63.427-1.306.775-1.971 1.144-1.203.67-2.449 1.26-3.729 1.768l-.182.073c-1.04.406-2.08.76-3.12 1.071l-.192.052-.343.1-.198.056-.431.115c-1.396.361-2.813.632-4.244.811M.764 53.71c.063.422.14.838.245 1.254.104.416.187.707.296 1.04.52.572 1.04 1.128 1.591 1.648.947.886 2.022 1.624 3.188 2.19 1.313.607 2.686 1.072 4.098 1.388-.068-.691-.087-1.386-.058-2.08-1.153-.226-2.287-.544-3.39-.952-1.229-.484-2.38-1.147-3.416-1.965-.917-.773-1.771-1.618-2.554-2.527"/>
                <path fill="#C0C99F" fill-rule="nonzero" d="M10.182 61.246c1.19.257 2.398.417 3.614.478 1.638.082 3.28.022 4.908-.182-.083-.681-.228-1.362-.332-2.044-1.208.143-2.424.21-3.64.203-1.552-.008-3.098-.169-4.618-.478-.027.675 0 1.352.083 2.023"/>
                <path fill="#0065C1" fill-rule="nonzero" d="M28.527 27.747c-.001.038-.01.075-.026.11-.304.634-.652 1.248-1.04 1.835-.519.772-1.081 1.513-1.685 2.22-.218.255-.431.52-.644.77-.292.354-.583.702-.884 1.04-.738.9-1.585 1.704-2.522 2.392-.071.047-.16.057-.24.026-.08-.028-.14-.094-.16-.177-.118-.446-.266-.884-.443-1.31-.213-.604-.515-1.174-.894-1.69-.112-.16-.265-.288-.442-.37-.178-.053-.37-.02-.52.089-.594.421-1.062.996-1.352 1.664-.333.624-.614 1.3-.884 1.95-.151.37-.307.738-.468 1.102-.143.17-.32.309-.52.406-.039.109-.14.183-.255.187-.26 0-.291 0-.754-2.974l-.036-.219c-.068-.44-.174-.873-.318-1.294-.151-.55-.435-1.053-.826-1.467-.384-.273-.91-.217-1.228.13-.478.431-.853.965-1.097 1.56-.145.34-.27.687-.374 1.04-.03.1-.115.171-.218.184-.103.012-.203-.037-.255-.127-.214-.353-.437-.738-.656-1.149C8.734 31.727 8.06 29.598 7.8 27.4l-.057-.603v-.224c.029-.402.083-.801.161-1.196.056-.359.16-.708.307-1.04.325-.541.93-.85 1.56-.796.074-.002.145.027.197.078.051.054.08.124.078.198-.098 1.225.152 2.453.723 3.541.837 1.396 2.119 2.47 3.64 3.047.063.027.114.078.14.14l.141.35c.45 1.118.799 2.275 1.04 3.457.068.582.103 1.167.104 1.753.161-.448.338-.89.52-1.337l.031-.083c.307-.707.619-1.44.983-2.137.212-.41.457-.801.733-1.17.056-.055.13-.089.208-.094h.728c.98-.049 1.944-.26 2.855-.624 1.848-.71 3.342-2.118 4.16-3.92.407-.969.568-2.023.468-3.069-.007-.085.029-.168.095-.222.067-.054.156-.072.238-.048l.114.031.255.078c.41.12.765.379 1.004.733.221.447.32.944.286 1.44v.62c.004.024.004.048 0 .072.005.028.005.056 0 .084v.187c.01.338.015.717.015 1.102z"/>
                <path fill="#F3D19F" fill-rule="nonzero" d="M19.464 30.53l-.432.712h-.728c-.078.005-.152.038-.208.093-.276.37-.521.76-.733 1.17-.364.697-.676 1.43-.983 2.137l-.031.084c-.193.447-.37.889-.52 1.336-.001-.586-.036-1.17-.104-1.752-.242-1.182-.59-2.34-1.04-3.458l-.125-.328c-.027-.063-.077-.114-.14-.14v-.12l5.044.265zM11.237 16.416c-.367-.802-.91-1.513-1.586-2.08-.325-.344-.827-.457-1.269-.286-.38.233-.653.607-.759 1.04-.319.9-.352 1.875-.093 2.793.23.794.737 1.478 1.43 1.929.667.456 1.514.56 2.272.28.4-1.19.4-2.48 0-3.67m-.031 2.568c-.343-.192-.723-.442-.77-.863-.014-.183.031-.365.13-.52.085-.241.037-.51-.125-.707-.406-.703-1.08-1.21-1.866-1.41-.125-.03-.068-.218.052-.186.755.191 1.415.652 1.856 1.294.275.288.374.7.26 1.082-.135.207-.135.474 0 .681.154.193.35.347.572.453.046.025.062.084.036.13-.025.046-.084.062-.13.036"/>
                <path fill="#000" fill-rule="nonzero" d="M11.206 18.985c-.343-.192-.723-.442-.77-.863-.014-.183.032-.365.13-.52.085-.241.038-.51-.124-.707-.407-.703-1.08-1.211-1.867-1.41-.125-.03-.068-.218.052-.187.755.192 1.415.652 1.856 1.295.275.288.374.7.26 1.082-.135.207-.135.474 0 .681.154.193.35.347.572.452.046.026.062.084.037.13-.026.046-.084.063-.13.037"/>
                <path fill="#56322A" fill-rule="nonzero" d="M24.96 18.954c-.108.472-.283.925-.52 1.347-.273.453-.625.853-1.04 1.18-1.425 1.155-3.42 1.3-4.997.364-1.654 1.17-4.191 1.269-5.757-.109-.381-.32-.654-.75-.78-1.232 0-.068 0-.14-.036-.214.003-.026.003-.052 0-.078v-.135c-.027-.318.176-.61.484-.697.14-.033.286-.033.426 0-.493-1.104-.797-2.284-.9-3.489-.026-.239-.046-.483-.057-.728v-.244-.323-.842-.437c-.021-.327.045-.654.193-.946.218-.307.644-.333.93-.551.15-.119.232-.304.219-.494v-.094c-.028-.18-.08-.355-.156-.52-.067-.13-.11-.27-.125-.416v-.057c.006-.138.057-.27.146-.375.35-.4.79-.714 1.284-.915.536-.219 1.094-.38 1.664-.478 1.21-.247 2.448-.31 3.676-.187 1.222.099 2.406.466 3.469 1.076.51.278.916.717 1.154 1.248.056.145.09.298.104.452v.125c.008.088.008.177 0 .265 0 .078-.026.162-.031.245-.003.026-.003.052 0 .078-.005.048-.005.097 0 .145.046.153.165.272.317.318.228.075.438.195.619.353.155.172.264.379.317.603.05.182.082.369.094.557v.197c.005.1.005.198 0 .297v.624c-.099 1.382-.332 2.75-.697 4.087m-5.403 3.697c.007.047-.022.092-.067.104-.712.216-1.472.216-2.184 0-.024-.003-.045-.017-.057-.037-.013-.02-.017-.044-.011-.067.002-.028.017-.054.04-.07.023-.016.052-.02.08-.013.678.205 1.401.205 2.08 0 .027-.008.056-.003.08.013.023.016.037.042.04.07"/>
                <path fill="#56322A" fill-rule="nonzero" d="M28.6 14.56v.203c-.416-.029-.828.103-1.15.369-.61.56-1.103 1.235-1.45 1.986-.052.11-.099.219-.146.333-.005.012-.005.025 0 .037-.147.48-.23.979-.25 1.482v.712c.027.334.083.664.167.988l.047.161c-.003.04.015.077.047.099-.002.026-.002.052 0 .078-.002.02-.002.042 0 .062.005.026.022.048.047.058.057.089.109.18.156.275.277.56.463 1.16.55 1.779 0 .067 0 .14.027.213.026.073 0 .244.031.369v.489c0 .135 0 .265-.026.4-.088.933-.375 1.835-.842 2.647-1.051 1.73-2.727 2.99-4.68 3.52-.847.236-1.722.357-2.6.36h-.25c-1.267.002-2.526-.216-3.718-.646l-.094-.036-.26-.114c-1.733-.683-3.117-2.037-3.837-3.755-.212-.584-.34-1.195-.38-1.815-.005-.086-.005-.173 0-.26v-.52-.239c-.005-.07-.005-.142 0-.213.209-1.297.52-2.575.931-3.822.002-.012.002-.024 0-.036.192-.583-.458-4.68-.858-5.143-.08-.517-.128-1.038-.146-1.56v-.936-.338-.447c.025-.283.012-.568-.036-.848-.52-.328-1.009-.666-1.487-1.04-.602-.491-1.15-1.046-1.633-1.654-.287-.307-.5-.675-.624-1.076-.005-.059-.005-.118 0-.177V6.47c-.003-.023-.003-.045 0-.068.043-.333.234-.629.52-.806.35-.218.738-.37 1.144-.447.428-.094.863-.155 1.3-.182.867-.036 1.735-.017 2.6.057.274.163.557.31.848.442.749.409 1.543.73 2.366.957.072 0 .098 0 .093-.042-.005-.041-.14-.052-.187-.062-.829-.248-1.623-.597-2.366-1.04-.208-.114-.4-.172-.598-.296-.005-.06-.055-.105-.114-.104 0 0-.037-.073-.063-.073l-.364-.255c-.26-.192-.728-.473-.728-.848-.005-.034-.005-.07 0-.104.089-.358.52-.55.832-.676.378-.142.77-.243 1.17-.301.833-.12 1.676-.166 2.517-.135 1.683.031 3.354.285 4.971.754 1.461.426 3.047.977 4.16 2.08.685.704 1.109 1.621 1.201 2.6v.754c-.02.256-.063.51-.13.759-.003.03.011.06.037.078.009.032.034.057.066.065.032.009.066 0 .09-.024.358-.473.825-.853 1.362-1.107.279-.102.585-.102.863 0 .224.114.406.296.52.52.241.512.396 1.06.458 1.622.072.418.116.84.13 1.264v.67c-.012.643-.086 1.282-.224 1.909-.035-.003-.067.024-.07.06-.003.036.024.067.06.07z"/>
                <path fill="#F3D19F" fill-rule="nonzero" stroke="#F3D19F" stroke-linecap="round" stroke-linejoin="round" stroke-width=".52" d="M25.48 14.04c-.003.652-.043 1.303-.12 1.95-.184 1.317-.492 2.615-.92 3.874-.036-.03-.077-.054-.12-.073-.21-.044-.428-.044-.64 0l-.696.068c-.518.053-1.04.069-1.56.047-.712-.047-4.971-.245-5.637-.14-.596.095-1.203.095-1.799 0-.286-.05-.567-.119-.842-.209l-.089-.031h0c-.156-.308-.292-.626-.405-.952-.364-1.113-.574-2.272-.624-3.442v-1.04c-.01-.409.014-.817.072-1.222.007-.136.05-.267.125-.38.133-.117.289-.205.458-.26.364-.156.634-.327.697-.738.015-.342-.064-.682-.23-.983-.067-.132-.067-.289 0-.421.152-.208.343-.385.562-.52.963-.607 2.062-.965 3.198-1.04 1.184-.164 2.387-.138 3.562.078.594.113 1.174.287 1.732.52.562.217 1.075.544 1.508.962.214.227.368.504.447.806.047.288.047.58 0 .868-.022.23.082.452.27.583.225.1.443.21.656.333.322.375.466.872.395 1.362"/>
                <path fill="#000" fill-rule="nonzero" d="M26.182 19.802c.338-.193.718-.442.77-.869.01-.182-.035-.364-.13-.52-.084-.239-.04-.504.12-.702.407-.703 1.082-1.212 1.871-1.409.043-.02.065-.07.052-.115-.013-.046-.056-.076-.104-.072-.756.19-1.416.65-1.856 1.295-.278.286-.377.7-.26 1.081.135.205.135.471 0 .676-.152.196-.348.353-.572.458-.035.031-.043.083-.019.123.024.04.073.058.118.043"/>
                <path fill="#56322A" fill-rule="nonzero" stroke="#1D1D1B" stroke-width=".5" d="M13.333 13.166c.244-.032.481-.104.702-.213.24-.082.494-.12.749-.114.117.006.233.02.348.041.135.046.275.08.416.1.395 0 .307-.474.161-.682-.063-.089-.142-.164-.234-.224-.025.01-.053.01-.078 0-.427-.196-.903-.261-1.367-.187-.484.042-.904.351-1.087.801-.037.12-.012.249.066.346.078.097.2.148.324.138M19.469 13.042c.247-.027.486-.1.707-.214.24-.08.491-.117.744-.109.117.006.233.02.348.042.138.04.279.074.421.099.39 0 .302-.474.156-.682-.061-.09-.139-.167-.229-.228-.025.01-.053.01-.078 0-.429-.197-.906-.262-1.372-.188-.484.04-.902.35-1.082.801-.04.118-.017.248.061.345.078.097.2.147.324.134"/>
                <path fill="#000" fill-rule="nonzero" d="M13.9 15.158c0 .395.213.718.478.718s.484-.323.484-.718c0-.395-.219-.718-.484-.718s-.478.323-.478.718M20.13 14.924c0 .395.212.718.478.718.265 0 .478-.323.478-.718 0-.395-.213-.718-.478-.718-.266 0-.479.323-.479.718"/>
                <path fill="#FF74BE" fill-rule="nonzero" d="M16.453 24.7c.59.225 1.215.34 1.846.338 1.23-.033 2.401-.534 3.276-1.399.39-.357.6-.87.572-1.399-2.548 1.56-5.304.905-6.24.609-.195-.06-.328-.239-.328-.442v-.858c-.315.016-.599.196-.749.473-.52.936.172 2.111 1.602 2.678"/>
                <path stroke="#000" stroke-linecap="round" stroke-linejoin="round" stroke-width=".5" d="M16.453 24.7c.59.225 1.215.34 1.846.338 1.23-.033 2.401-.534 3.276-1.399.39-.357.6-.87.572-1.399-2.548 1.56-5.304.905-6.24.609-.195-.06-.328-.239-.328-.442v-.858c-.315.016-.599.196-.749.473-.499.936.193 2.111 1.623 2.678z"/>
                <path stroke="#000" stroke-linecap="round" stroke-linejoin="round" stroke-width=".5" d="M15.6 22.407c0 .203.133.382.328.442.92.296 3.676.951 6.24-.609-.025-.203-.095-.398-.203-.572-.593-.977-2.72 0-3.77.037-1.05.036-1.94-.234-2.574-.156-.021.25-.021.603-.021.858z"/>
                <path fill="#FFF" fill-rule="nonzero" d="M15.6 22.407c0 .203.133.382.328.442.92.296 3.676.951 6.24-.609-.025-.203-.095-.398-.203-.572-.593-.977-2.72 0-3.77.037-1.05.036-1.94-.234-2.574-.156v.858"/>
                <path stroke="#000" stroke-linecap="round" stroke-linejoin="round" stroke-width=".5" d="M15.6 22.407c0 .203.133.382.328.442.92.296 3.676.951 6.24-.609-.025-.203-.095-.398-.203-.572-.593-.977-2.72 0-3.77.037-1.05.036-1.94-.234-2.574-.156-.021.25-.021.603-.021.858zM13.572 16.068c.52-.409 1.258-.387 1.752.052M19.687 15.891c.521-.407 1.26-.383 1.753.057"/>
                <path fill="#F3D19F" fill-rule="nonzero" d="M25.808 20.888c.8.286 1.688.188 2.407-.265.69-.456 1.194-1.141 1.425-1.934.254-.917.22-1.89-.099-2.787-.106-.434-.379-.808-.759-1.04-.44-.173-.94-.06-1.264.286-.678.566-1.222 1.276-1.59 2.08-.44 1.166-.485 2.445-.13 3.64m.067-1.254c.224-.105.42-.261.572-.457.135-.205.135-.471 0-.676-.114-.381-.015-.794.26-1.082.442-.636 1.1-1.09 1.851-1.279.047-.004.091.026.104.072.013.046-.01.094-.052.115-.787.199-1.46.707-1.867 1.41-.161.196-.207.463-.12.701.094.157.14.338.13.52-.051.427-.431.671-.769.869-.044.015-.093-.003-.117-.043-.024-.04-.016-.092.018-.124"/>
                <path fill="#000" fill-rule="nonzero" d="M26 19.802c.338-.193.718-.442.77-.869.008-.182-.037-.363-.13-.52-.088-.238-.042-.505.12-.702.402-.693 1.064-1.196 1.84-1.399.043-.02.065-.069.052-.115-.013-.046-.057-.076-.104-.072-.756.192-1.415.652-1.856 1.295-.275.288-.374.7-.26 1.082.135.205.135.47 0 .676-.152.195-.348.352-.572.457-.035.032-.043.083-.019.124.024.04.073.058.117.043"/>
                <path stroke="#000" stroke-linecap="round" stroke-linejoin="round" stroke-width=".5" d="M11.768 4.966s1.742 1.222 3.203 1.42M10.02 10.598c.331.32.743.542 1.191.644"/>
                <path fill="#56322A" fill-rule="nonzero" d="M26.395 7.94c1.586-.38 2.678-1.834 2.6-3.463-.004-.16-.022-.32-.052-.478-.01-.08-.027-.158-.052-.234 0-.042-.067-.115-.125-.12-.057-.005-.098.094-.114.13-.203.323-.364.681-.546 1.04l-.52 1.04-1.144 2.132M26.26.322c0 .744 0 1.488.026 2.231l.031 2.247c.568-.952.78-2.074.598-3.167-.046-.28-.12-.556-.218-.822-.053-.142-.114-.28-.182-.416-.03-.066-.066-.13-.104-.192 0-.042-.078-.11-.14-.052-.063.057 0 .15 0 .171"/>
                <path fill="#7A4941" fill-rule="nonzero" stroke="#7A4A42" stroke-width=".52" d="M11.211 20.28c.072.463.297.888.64 1.206.727.653 1.665 1.022 2.641 1.04 1.119.064 2.224-.27 3.12-.94.078-.058.151 0 .14.103 1.42.803 3.173.72 4.51-.213.315-.221.599-.486.842-.785.119-.141.225-.293.317-.453.062-.114.109-.275-.052-.338-.096-.02-.195-.02-.291 0-.93.125-1.871.162-2.808.11-.627-.056-1.235-.244-1.784-.552-.03.251-.084.498-.161.739-.064.28-.231.525-.468.686-.256.134-.571.067-.749-.161-.199-.296-.282-.655-.234-1.009v-.489l-.208.11c-.452.238-.935.413-1.435.52-1.01.213-2.057.155-3.037-.167-.244-.078-.562-.213-.8-.052-.175.166-.248.411-.193.645"/>
                <path fill="#C69471" fill-rule="nonzero" stroke="#C69471" stroke-linecap="round" stroke-linejoin="round" stroke-width=".5" d="M17.061 20.062c.026.306.208.806.614.686.28-.083.405-.432.478-.686.066-.235.111-.475.135-.718v-.224c.024-.39.003-.783-.062-1.17-.099-.685-.282-1.356-.546-1.996-.15.618-.296 1.237-.406 1.861-.062.354-.124.713-.16 1.077v.228c-.041.312-.059.627-.053.942h0z"/>
                <path stroke="#CEA676" stroke-linecap="round" stroke-linejoin="round" stroke-width=".5" d="M32.49 63.367c.736-.901 1.708-1.58 2.808-1.96"/>
                <path fill="#CEE5F2" fill-rule="nonzero" d="M4.456 52.182H17.274V53.529H4.456z"/>
                <path fill="#CEE5F2" fill-rule="nonzero" d="M4.456 52.182H17.274V53.529H4.456z"/>
                <path fill="#BCD3DD" fill-rule="nonzero" d="M17.274 52.182H30.092V53.529H17.274z"/>
                <path fill="#95C121" fill-rule="nonzero" d="M32.053 53.513h-8.091s-.312.083-.312-.208.312-.182.312-.182h8.09l1.04.177-1.04.213z"/>
            </g>
            <path fill="#74B4D1" fill-rule="nonzero" d="M121.16 53.518v18.72c-.002 2.466-1.597 4.464-3.566 4.467H3.566C1.61 76.702.02 74.73 0 72.28V53.56l121.16-.042z" transform="translate(0 11)"/>
            <g transform="translate(0 11) translate(3.364 6.24)">
                <path fill="#00599B" fill-rule="nonzero" d="M43.982 47.263s-3.375-4.79-.078-6.313c.52-.244 3.073 2.194 3.073 2.194s.39 2.533.39 2.6c-.3.372-.623.725-.967 1.056l-1.518.52-.9-.057z"/>
                <path fill="#838689" fill-rule="nonzero" d="M37.264 44.876h3.879c1.117 0 2.023.906 2.023 2.023v.395H35.24v-.395c0-1.117.905-2.023 2.023-2.023z"/>
                <path fill="#F3D19F" fill-rule="nonzero" d="M45.792 41.98s-7.28-1.95-9.106-1.337c-1.092.37-2.438 2.127-3.458 3.682-.884 1.357.115 2.938.115 2.938l5.122.062 1.513-1.903 1.659-.083 4.227.478-.072-3.837z"/>
                <path stroke="#D6AA70" stroke-width=".5" d="M36.213 47.107s.52-3.51 3.37-3.822M33.92 47.195s.562-4.16 3.708-4.721"/>
                <path fill="#F3D19F" fill-rule="nonzero" d="M42.817 43.96s2.465 2.96-.171 3.485c-.281.057-2.247 0-1.347-1.29 0 0 .057-.255-.395-.816"/>
                <path fill="#0065C1" fill-rule="nonzero" d="M43.982 47.263c.784-1.049 1.287-2.28 1.461-3.578.104-1.284-1.456-2.771-1.456-2.771l19.292 4.113.676 2.267-19.973-.031z"/>
                <path fill="#0275D8" fill-rule="nonzero" d="M47.56 38.002l-43.8-1.337c-3.084-.25-3.702-2.08-3.702-3.723l.759-27.29C.825 4.022 2.13 2.694 3.76 2.657L46.686.114c4.389 0 3.926 3.578 3.926 5.268l.052 29.64c-.01.81-.344 1.58-.927 2.14-.584.561-1.369.863-2.177.84z"/>
                <path fill="#0065C1" fill-rule="nonzero" d="M46.062 36.546L2.959 35.214C1.351 35.164.07 33.85.063 32.24V4.29c.002-1.613 1.284-2.934 2.896-2.985L46.062 0c.808-.025 1.591.278 2.171.84.58.563.907 1.337.907 2.145v30.602c-.006.803-.337 1.57-.916 2.127-.58.557-1.359.857-2.162.832z"/>
                <circle cx="24.305" cy="17.753" r="3.006" fill="#BCD3DD" fill-rule="nonzero"/>
                <circle cx="24.066" cy="17.779" r="3.006" fill="#CEE5F2" fill-rule="nonzero"/>
                <path fill="#0065C1" fill-rule="nonzero" d="M21.58 29.557H26.723V47.31H21.58z"/>
                <path fill="#0275D8" fill-rule="nonzero" d="M29.916 45.843L17.602 45.817 17.602 47.336 29.916 47.388z"/>
                <path fill="#0275D8" fill-rule="nonzero" d="M27.3 45.921L26.624 45.921 26.624 35.885 27.274 35.979z"/>
                <path fill="#1B91EA" fill-rule="nonzero" d="M31.772 47.304L29.916 47.388 29.916 45.843 31.772 45.942z"/>
            </g>
        </g>
    </g>
</svg>
