<svg xmlns="http://www.w3.org/2000/svg" xmlns:xlink="http://www.w3.org/1999/xlink" width="311" height="159" viewBox="0 0 311 159">
    <defs>
        <filter id="prefix__a" width="134.1%" height="184.5%" x="-17.1%" y="-40.3%" filterUnits="objectBoundingBox">
            <feMorphology in="SourceAlpha" operator="dilate" radius=".5" result="shadowSpreadOuter1"/>
            <feOffset dy="2" in="shadowSpreadOuter1" result="shadowOffsetOuter1"/>
            <feGaussianBlur in="shadowOffsetOuter1" result="shadowBlurOuter1" stdDeviation="14"/>
            <feComposite in="shadowBlurOuter1" in2="SourceAlpha" operator="out" result="shadowBlurOuter1"/>
            <feColorMatrix in="shadowBlurOuter1" values="0 0 0 0 0 0 0 0 0 0 0 0 0 0 0 0 0 0 0.06 0"/>
        </filter>
        <rect id="prefix__b" width="255" height="103" x="0" y="0" rx="4"/>
    </defs>
    <g fill="none" fill-rule="evenodd" transform="translate(28 26)">
        <use fill="#000" filter="url(#prefix__a)" xlink:href="#prefix__b"/>
        <use fill="#FFF" stroke="#E4E9F2" xlink:href="#prefix__b"/>
        <g>
            <path fill="#00BCFD" d="M.133 31.832c0-17.012 13.792-30.804 30.804-30.804 17.013 0 30.804 13.792 30.804 30.804 0 17.013-13.791 30.804-30.804 30.804C13.925 62.636.133 48.845.133 31.832z" transform="translate(18 20)"/>
            <path fill="#5E6CD0" d="M43.695 24.35c-.202-.102-.192-.07.07-.07" transform="translate(18 20)"/>
            <g>
                <path fill="#E1E3E2" d="M20.696 11.012c-.145-.348-4.833 11.209-4.833 11.209-.59 1.473-.46 3.843.29 5.293l3.171 6.127s1.65-21.963 1.372-22.629zM34.43 10.904c.145-.349 4.833 11.208 4.833 11.208.59 1.473.46 3.843-.291 5.294l-3.17 6.126s-1.65-21.963-1.373-22.628z" transform="translate(18 20) translate(4.133 16.533)"/>
                <path fill="#FFF" d="M5.59 2.09C3.457 2.017 1.248 3.428.398 6.46c-1.265 4.512 8.57 12.667 8.667 12.748v.043l.029-.015v-.014c.097-.08 9.932-8.236 8.667-12.748-1.348-4.806-6.331-5.546-8.783-2.74-.904-1.046-2.134-1.6-3.388-1.644z" transform="translate(18 20) translate(4.133 16.533)"/>
                <path fill="#00A2DA" d="M8.657 5.693c-.197 0-.357.16-.357.357v2.49l-2.49-.022c-.198-.001-.356.16-.358.358l-.023 1.195c-.001.197.16.367.358.368l2.513.023v2.513c0 .197.16.357.357.357h1.195c.198 0 .358-.16.358-.357v-2.49l2.49.022c.198.001.367-.16.37-.358l.01-1.195c.002-.197-.16-.367-.357-.369l-2.513-.022V6.05c0-.197-.16-.357-.358-.357H8.657z" transform="translate(18 20) translate(4.133 16.533)"/>
                <path fill="#68CD88" d="M38.242 8.864c0-4.778 3.874-8.653 8.653-8.653 4.78 0 8.653 3.875 8.653 8.653 0 4.78-3.874 8.653-8.653 8.653s-8.653-3.874-8.653-8.653z" transform="translate(18 20) translate(4.133 16.533)"/>
            </g>
            <g>
                <path fill="#5E6CD0" d="M50.272 13.78c0-.026.02-.047.047-.047.026 0 .047.02.047.047 0 .026-.021.047-.047.047s-.047-.021-.047-.047zM.373 35.3c0-.018.01-.032.022-.032.012 0 .021.014.021.032 0 .018-.01.032-.021.032-.012 0-.022-.014-.022-.032zM1.313 35.021c0-.022.041-.04.092-.04s.092.018.092.04c0 .023-.041.041-.092.041-.05 0-.092-.018-.092-.04z" transform="translate(18 20) translate(7.313)"/>
                <path fill="#006DD0" d="M22.716 10.117h2.905c2.634 0 4.77 2.135 4.77 4.77v5.505c0 2.634-2.136 4.77-4.77 4.77h-2.905c-2.634 0-4.77-2.136-4.77-4.77v-5.506c0-2.634 2.136-4.77 4.77-4.77z" transform="translate(18 20) translate(7.313)"/>
                <path fill="#68CD88" d="M47.945 0.314L48.13 0.314 48.13 0.314z" transform="translate(18 20) translate(7.313)"/>
                <path fill="#006DD0" d="M17.31 8.818c0-1.685 1.37-3.05 3.06-3.05 1.689 0 3.058 1.365 3.058 3.05 0 1.685-1.37 3.05-3.059 3.05-1.69 0-3.059-1.365-3.059-3.05z" transform="translate(18 20) translate(7.313)"/>
                <path fill="#006DD0" d="M16.769 13.757s.134 9.545 8.285-.254c0 0 5.108 3.096 7.376 1.164 1.819-1.55-.774-9.902-11.99-4.951-3.804 1.68-3.671 4.041-3.671 4.041z" transform="translate(18 20) translate(7.313)"/>
                <path fill="#006DD0" d="M15.089 18.776c0-1.34 1.085-2.425 2.425-2.425 1.339 0 2.425 1.085 2.425 2.425 0 1.339-1.086 2.425-2.425 2.425-1.34 0-2.425-1.086-2.425-2.425zM27.87 18.615c0-1.339 1.086-2.425 2.425-2.425 1.339 0 2.425 1.086 2.425 2.425 0 1.34-1.086 2.425-2.425 2.425-1.34 0-2.425-1.085-2.425-2.425zM22.629 23.694L25.019 23.694 25.019 28.159 22.629 28.159z" transform="translate(18 20) translate(7.313)"/>
                <path fill="#006DD0" d="M30.924 27.966l1.299 33.346s-4.581 1.34-8.768 1.353c-4.188.013-7.981-1.3-7.981-1.3l2.173-33.212c.018-.347.314-.631.661-.636l11.96-.17c.346-.004.64.273.656.619z" transform="translate(18 20) translate(7.313)"/>
                <path fill="#E9EDEB" d="M31.467 27.868l1.29 19.596.73 11.1s-1.23 1.671-3.344 2.397c-2.114.726-5.11.505-5.11.505l-1.127-10.248-1.272 10.627s-2.098.142-4.101-.442c-2.004-.584-3.913-1.893-3.913-1.893l1.273-15.284 1.35-16.228s-.24-.538.95-.737c1.19-.2 3.81-.06 3.81-.06l1.793 5.374 1.838-5.327 5.097-.015c.389-.005.718.28.736.635z" transform="translate(18 20) translate(7.313)"/>
                <path fill="#FEFFFE" d="M19.897 30.125c-.132.2-.007.407.28.463l1.614-.02c.287.055 2.069 4.441 2.069 4.441l-.073-2.41-1.39-5.193s-.417-.443-.667-.122l-1.833 2.841z" transform="translate(18 20) translate(7.313)"/>
                <path fill="#FEFFFE" d="M27.766 29.97c.131.198.007.405-.28.462l-1.615-.02c-.286.055-2.068 4.441-2.068 4.441l.073-2.41 1.39-5.193s.417-.443.667-.122l1.833 2.841z" transform="translate(18 20) translate(7.313)"/>
            </g>
            <g>
                <path fill="#5E6CD0" d="M.286 16.933c0-.458.375-.829.84-.829.463 0 .839.371.839.829 0 .457-.376.828-.84.828-.464 0-.84-.37-.84-.828z" transform="translate(18 20) translate(24.164 18.441)"/>
                <path fill="#5E6CD0" d="M3.319 12.541c-1.12-.105-2.126.682-2.246 1.759l-.219 2.504.636.05.219-2.494c.08-.717.77-1.256 1.55-1.183.776.074 1.332.72 1.252 1.44l-.209 2.405.636.05.209-2.395c.12-1.073-.705-2.03-1.828-2.136z" transform="translate(18 20) translate(24.164 18.441)"/>
                <path fill="#5E6CD0" d="M3.652 17.35c0-.457.375-.828.839-.828.464 0 .84.37.84.829 0 .457-.376.828-.84.828-.464 0-.84-.37-.84-.828zM8.714 8.416c-.43-.03-.847-.02-1.252.03-.15.018-.265.036-.328.05h.06c-1.595.04-2.731.86-3.458 2.185-.257.468-.446.972-.576 1.47-.079.3-.113.536-.13.676-.02.175.104.327.279.348.174.02.327-.104.347-.278.003-.026.017-.082.03-.16.024-.13.048-.268.09-.426.117-.452.287-.903.516-1.322.626-1.141 1.566-1.823 2.912-1.858l.06-.01c.045-.01.137-.023.267-.04.727-.09 1.532-.06 2.276.18 1.644.53 2.583 1.937 2.474 4.58-.008.175.132.32.308.327.175.008.32-.132.328-.307.12-2.924-.99-4.587-2.911-5.207-.423-.136-.863-.208-1.292-.238z" transform="translate(18 20) translate(24.164 18.441)"/>
                <path fill="#5E6CD0" d="M11.631 14.334c0-.51.427-.925.953-.925s.952.414.952.925c0 .51-.426.925-.952.925s-.953-.414-.953-.925z" transform="translate(18 20) translate(24.164 18.441)"/>
                <path fill="#FEFFFE" d="M26.923.562c.931.774 1.059 2.155.285 3.086L23.12 8.57c-.773.931-2.155 1.059-3.086.285-.931-.773-1.059-2.155-.285-3.086l4.088-4.92c.774-.932 2.155-1.06 3.086-.286z" transform="translate(18 20) translate(24.164 18.441)"/>
                <path fill="#D23689" d="M25.326.072c-.558.051-1.099.31-1.486.775L22 3.057l3.484 2.656 1.723-2.065c.773-.93.641-2.316-.29-3.09-.465-.387-1.032-.538-1.59-.486z" transform="translate(18 20) translate(24.164 18.441)"/>
                <path fill="#FEFFFE" d="M32.712 12.802c-.804.536-1.89.318-2.426-.487l-2.83-4.253c-.536-.804-.318-1.89.487-2.426.804-.536 1.89-.318 2.426.487l2.83 4.253c.536.804.318 1.89-.487 2.426z" transform="translate(18 20) translate(24.164 18.441)"/>
                <path fill="#5E6CD0" d="M33.453 11.692c.088-.439.014-.912-.254-1.314l-1.27-1.913-2.829 2.059 1.186 1.79c.536.804 1.626 1.02 2.43.485.403-.268.649-.667.737-1.107z" transform="translate(18 20) translate(24.164 18.441)"/>
            </g>
        </g>
        <g fill="#333E53" font-family="Montserrat-Medium, Montserrat" font-size="20" font-weight="400">
            <text transform="translate(136 43)">
                <tspan x=".93" y="19">Salud</tspan>
            </text>
        </g>
    </g>
</svg>
