<svg xmlns="http://www.w3.org/2000/svg" xmlns:xlink="http://www.w3.org/1999/xlink" width="311" height="159" viewBox="0 0 311 159">
    <defs>
        <filter id="prefix__a" width="134.1%" height="184.5%" x="-17.1%" y="-40.3%" filterUnits="objectBoundingBox">
            <feMorphology in="SourceAlpha" operator="dilate" radius=".5" result="shadowSpreadOuter1"/>
            <feOffset dy="2" in="shadowSpreadOuter1" result="shadowOffsetOuter1"/>
            <feGaussianBlur in="shadowOffsetOuter1" result="shadowBlurOuter1" stdDeviation="14"/>
            <feComposite in="shadowBlurOuter1" in2="SourceAlpha" operator="out" result="shadowBlurOuter1"/>
            <feColorMatrix in="shadowBlurOuter1" values="0 0 0 0 0 0 0 0 0 0 0 0 0 0 0 0 0 0 0.06 0"/>
        </filter>
        <rect id="prefix__b" width="255" height="103" x="0" y="0" rx="4"/>
    </defs>
    <g fill="none" fill-rule="evenodd" transform="translate(28 26)">
        <use fill="#000" filter="url(#prefix__a)" xlink:href="#prefix__b"/>
        <use fill="#FFF" stroke="#E4E9F2" xlink:href="#prefix__b"/>
        <g>
            <path fill="#F08936" d="M.06 31.77C.06 14.747 13.86.947 30.883.947s30.822 13.8 30.822 30.823c0 17.022-13.8 30.822-30.822 30.822C13.86 62.592.06 48.792.06 31.77z" transform="translate(17 20)"/>
            <g>
                <path fill="#2CB1CD" d="M15.266.189c-3.423 0-6.192 2.77-6.192 6.192 0 2.15 1.095 4.042 2.757 5.154.003.386.05.805.038 1.141C.01 12.287 1.607 21.42.51 28.471c-1.081 6.948.59 9.833.59 9.833l3.936 6.346 16.577 1.578 1.474-15.59.103-9.257c-.357-4.97-3.56-7.05-6.334-7.961.07-.404.15-.621.205-1.129 2.544-.772 4.41-3.114 4.41-5.91 0-3.423-2.781-6.192-6.205-6.192z" transform="translate(17 20) translate(7.313)"/>
                <path fill="#57AC3D" d="M30.792.215C27.37.215 24.6 2.997 24.6 6.42c0 2.985 2.112 5.462 4.923 6.051l.115.59c-4.88 1.296-6.091 4.766-6.166 6.769-.248 6.607.064 11.27.064 11.27s6.124 13.82 6.654 14.102c.53.282 5.158.778 6.077.884.918.107 4.51-1.94 5.217-2.435.707-.495 3.077-6.68 3.077-6.68l.885-7.705s.145-5.514-1.551-11.308c-1.433-4.895-6.06-5.64-9.077-5.59l-.27-1.05c1.474-1.134 2.45-2.896 2.45-4.898 0-3.423-2.783-6.205-6.206-6.205z" transform="translate(17 20) translate(7.313)"/>
            </g>
            <g>
                <path fill="#349FBC" d="M13.81.363c-2.664.692-4.736 3.135-4.736 6.018 0 1.94.925 3.633 2.32 4.77-.684-1.022-1.666-2.874-1.281-5.129.57-3.341 3.34-4.972 5.844-5.795-.493-.041-.863-.054-1.111-.038-.23.014-.574.072-1.035.174zm-1.967 11.441c.004.089-.004.169 0 .257.052-.015.102-.038.154-.052 0 0-.105-.147-.154-.205zm-2.038.91c-9.6.71-8.266 9.146-9.295 15.757-1.081 6.948.59 9.833.59 9.833l3.936 6.346 10.166.962-2.346-11.82s-8.778-1.9-9.243-8.654c-.404-5.857 2.594-10.47 6.525-12.423-.106.005-.23-.008-.333 0z" transform="translate(17 20) translate(7.313)"/>
                <path fill="#5A9E43" d="M27.817.987C25.9 2.042 24.6 4.075 24.6 6.42c0 2.985 2.112 5.462 4.923 6.051l.103.513.487-.513c-3.022-1.257-3.603-4.526-3.603-4.526C25.4 4.182 28.87.57 28.788.564c-.045-.004-.266.064-.684.263-.056.026-.152.08-.287.16zm1.706 12.112c-4.775 1.322-5.977 4.745-6.051 6.731-.248 6.607.064 11.27.064 11.27s1.256 2.809 2.397 5.332l-.448-5.884-.68-8.667c-.095-3.355 3.43-7.408 4.718-8.782z" transform="translate(17 20) translate(7.313)"/>
            </g>
            <g>
                <path fill="#B82E79" d="M16.64.043c-3.05.046-4.823 2.572-5 2.833-.36-.493-2.694-3.45-6.448-2.449C2.15 1.24-.543 3.564.372 8.607c.673 3.715 4.957 7.667 11.653 11.462.006.002.008.01.013.012v-.025l.129-.077S22.53 11.775 23.09 8.286c.812-5.06-1.942-7.327-5-8.077-.513-.125-.99-.173-1.45-.166z" transform="translate(17 20) translate(18.759 27.98)"/>
                <path fill="#D33689" d="M6.538.222c-.424.014-.877.08-1.346.205C2.15 1.24-.543 3.564.372 8.607c.673 3.715 4.957 7.667 11.653 11.462.006.002.008.01.013.012v-.025l.129-.077c0-.002.011.002.012 0 4.342-7.604.65-15.594-.295-17.423-.091.118-.218.282-.243.32C11.326 2.444 9.505.124 6.538.222z" transform="translate(17 20) translate(18.759 27.98)"/>
            </g>
            <g>
                <path fill="#89247A" d="M26.16 32.394S7.227 31.34.908 12.144c0 0-2.226-9.907 1.412-10.88 0 0 1.446-.314 1.271 2.048 0 0-.645 5.61 1.713 8.763 2.357 3.153 7.717 3.85 7.717 3.85s-5.665-5.608-3.553-7.413c0 0 1.198-.507 2.495 1.328 0 0 9.322 9.912 13.113 10.684 1.157.236 2.205 7.942 1.084 11.87z" transform="translate(17 20) translate(6.041 27.662)"/>
                <path fill="#FBCD42" d="M24.83 32.247c4.021.834 16.937-.977 22.644-20.91 0 0 1.903-10.254-1.79-11.127 0 0-1.464-.273-1.209 2.147 0 0 .84 5.74-1.426 9.06-2.264 3.32-7.633 4.221-7.633 4.221s5.51-5.956 3.323-7.737c0 0-1.739-.404-2.981 1.525 0 0-8.739 9.627-11.84 11.77-3.101 2.141-3.108 10.217.912 11.051z" transform="translate(17 20) translate(6.041 27.662)"/>
                <path fill="#89247A" d="M26.16 32.394S7.227 31.34.908 12.144c0 0-2.226-9.907 1.412-10.88 0 0 1.446-.314 1.271 2.048 0 0-.645 5.61 1.713 8.763 2.357 3.153 7.717 3.85 7.717 3.85s-5.665-5.608-3.553-7.413c0 0 1.198-.507 2.495 1.328 0 0 6.114 6.284 10.475 9.113.972.63 2.011 1.392 2.702 1.533 1.157.235 2.14 7.98 1.02 11.908z" transform="translate(17 20) translate(6.041 27.662)"/>
            </g>
        </g>
        <g fill="#333E53" font-family="Montserrat-Medium, Montserrat" font-size="20" font-weight="400">
            <text transform="translate(84 43)">
                <tspan x=".62" y="19">Socioemocional</tspan>
            </text>
        </g>
    </g>
</svg>
