<svg xmlns="http://www.w3.org/2000/svg" width="730" height="400" viewBox="0 0 730 400">
    <defs>
        <linearGradient id="prefix__a" x1="7.243%" x2="92.864%" y1="46.508%" y2="53.749%">
            <stop offset="0%" stop-color="#00C9CB"/>
            <stop offset="27%" stop-color="#00C6CF"/>
            <stop offset="56%" stop-color="#00BCDC"/>
            <stop offset="84%" stop-color="#00ABF0"/>
            <stop offset="100%" stop-color="#009FFF"/>
        </linearGradient>
        <linearGradient id="prefix__b" x1="15.721%" x2="123.632%" y1="51.717%" y2="51.717%">
            <stop offset="0%" stop-color="#00C9CB"/>
            <stop offset="27%" stop-color="#00C6CF"/>
            <stop offset="56%" stop-color="#00BCDC"/>
            <stop offset="84%" stop-color="#00ABF0"/>
            <stop offset="100%" stop-color="#009FFF"/>
        </linearGradient>
        <linearGradient id="prefix__c" x1="0%" x2="100%" y1="50.005%" y2="50.005%">
            <stop offset="8%" stop-color="#E0C73C"/>
            <stop offset="46%" stop-color="#B6BE3E"/>
            <stop offset="81%" stop-color="#95B83F"/>
            <stop offset="100%" stop-color="#89B540"/>
        </linearGradient>
        <linearGradient id="prefix__d" x1="0%" x2="100%" y1="49.999%" y2="49.999%">
            <stop offset="8%" stop-color="#E0C73C"/>
            <stop offset="46%" stop-color="#B6BE3E"/>
            <stop offset="81%" stop-color="#95B83F"/>
            <stop offset="100%" stop-color="#89B540"/>
        </linearGradient>
        <linearGradient id="prefix__e" x1="0%" x2="100%" y1="50%" y2="50%">
            <stop offset="0%" stop-color="#6E79E0"/>
            <stop offset="41%" stop-color="#616ECA"/>
            <stop offset="100%" stop-color="#4B5AA5"/>
        </linearGradient>
        <linearGradient id="prefix__f" x1="0%" x2="100%" y1="50.003%" y2="50.003%">
            <stop offset="0%" stop-color="#6E79E0"/>
            <stop offset="41%" stop-color="#616ECA"/>
            <stop offset="100%" stop-color="#4B5AA5"/>
        </linearGradient>
        <linearGradient id="prefix__g" x1="0%" x2="100%" y1="50.01%" y2="50.01%">
            <stop offset="0%" stop-color="#6E79E0"/>
            <stop offset="41%" stop-color="#616ECA"/>
            <stop offset="100%" stop-color="#4B5AA5"/>
        </linearGradient>
    </defs>
    <g fill="none" fill-rule="evenodd">
        <path fill="#F2F4F9" d="M0 0H730V400H0z"/>
        <g fill-rule="nonzero">
            <g>
                <path fill="#FF3757" d="M111.348 75.025L.057 88.895l53.434 132.82 96.55-36.481s9.306 2.454 22.71-3.624c13.405-6.078 13.683-9.709 13.683-9.709l93.49-52.61L214.998 4.58l-103.65 70.446z" transform="translate(205 139) translate(245 39)"/>
                <path fill="#FF5069" d="M112.76 76.637L3.928 90.197 55.24 218.592l94.433-36.684s8.87 2.34 21.69-3.466c12.823-5.806 13.057-9.266 13.057-9.266l89.277-50.269L211.704 9.373 112.76 76.637z" transform="translate(205 139) translate(245 39)"/>
                <path fill="#FFAE86" d="M166.005 176.55s-56.71 11.15-107.16 36.051c0 0-31.84-84.998-55.747-131.39 0 0 66.737-10.468 111.563-5.459l51.344 100.798z" transform="translate(205 139) translate(245 39)"/>
                <path fill="#FFCBB2" d="M166.005 176.55s42.215-35.596 98.646-63.716L205.103 3.27s-65.325 36.469-90.442 72.463l51.344 100.817zM166.005 176.55s-38.276-8.108-106.172 23.124c0 0-35.989-93.797-50.876-122.372 0 0 65.25-21.043 105.678-1.569l51.37 100.817z" transform="translate(205 139) translate(245 39)"/>
                <path fill="#FDEEE9" d="M166.005 176.55L114.66 75.733c-31.675-15.25-78.552-5.654-97.38-.772l-.177.443s34.208 69.383 49.184 120.98l1.267-.139c63.057-27.19 98.45-19.695 98.45-19.695z" style="mix-blend-mode:multiply" transform="translate(205 139) translate(245 39)"/>
                <path fill="#FDA385" d="M182.995 154.609L202.835 181.224 187.853 178.017 187.359 191.084 171.319 168.138z" transform="translate(205 139) translate(245 39)"/>
                <path fill="#FDDFD4" d="M185.997 158.638l-3.002-4.029-11.676 13.53 2.256 3.263c.5-.633.893-1.38 1.324-1.993.96-1.332 2.008-2.6 3.135-3.794 1.267-1.348 2.61-2.613 3.991-3.833 1.257-1.13 2.584-2.18 3.972-3.144z" style="mix-blend-mode:multiply" transform="translate(205 139) translate(245 39)"/>
                <path fill="#FFDFD4" d="M166.005 176.55s21.443-34.438 88.896-67.827c0 0-38.009-65.537-58.787-107.521 0 0-56.234 34.198-81.479 74.525l51.37 100.823z" transform="translate(205 139) translate(245 39)"/>
                <path fill="#FDEEE9" d="M165.79 176.133c4.845-9.254 11.858-17.343 19.574-24.452 9.255-8.526 19.574-15.812 29.482-23.547 7.722-6.066 29.679-18.14 31.58-20.056-13.564-12.65-26.607-26.052-36.546-41.68-3.662-5.743-6.886-11.752-10.066-17.773-6.601-12.428-13.012-25.04-17.333-38.379-16.755 11.707-45.148 33.597-63.183 58.58-.159 2.606-.235 5.218-.178 7.83.077 3.119.322 6.231.735 9.323l45.934 90.154z" style="mix-blend-mode:multiply" transform="translate(205 139) translate(245 39)"/>
                <path fill="#FFDFD4" d="M166.005 176.55L114.66 75.733s-38.364-25.736-94.687-8.368c0 0 30.73 62.552 49.285 120.684-.026 0 55.86-21.98 96.746-11.499z" transform="translate(205 139) translate(245 39)"/>
                <path fill="#FFECE1" d="M114.66 75.733S117.455 30.03 171.39.468c0 0 37.9 81.59 61.22 110.608-.001 0-51.478 24.698-66.58 65.461L114.66 75.733z" transform="translate(205 139) translate(245 39)"/>
                <g fill="#FDE9E2">
                    <path d="M67.333 58.017c-4.14-1.543-8.37-2.83-12.67-3.852-12.999-3.063-26.45-3.725-39.687-1.954-4.408.59-8.775 1.455-13.076 2.587-.538.14-1.07.285-1.609.436-.373.108-.17.683.21.576 4.253-1.195 8.578-2.12 12.948-2.77 13.1-1.95 26.448-1.492 39.384 1.353 4.294.94 8.526 2.148 12.67 3.618.525.183 1.045.373 1.57.57.361.12.627-.43.26-.564zM76.652 69.143c-4.735-1.118-9.524-1.994-14.349-2.625-4.806-.62-9.637-1.002-14.494-1.145-9.76-.286-19.523.417-29.14 2.1-4.778.833-9.51 1.912-14.178 3.232-.576.158-1.159.329-1.735.5-.374.113-.171.683.209.575 4.65-1.379 9.37-2.516 14.14-3.41 19.082-3.576 38.693-3.249 57.646.962l1.761.405c.38.095.488-.506.14-.594zM72.8 76.91c-20.335-2.984-41.088-1.118-60.561 5.445-.16.056-.243.23-.187.389.056.159.23.242.39.187 15.084-5.073 30.974-7.337 46.877-6.68 4.475.188 8.937.61 13.367 1.266.393.05.5-.55.114-.608zM81.751 88.718c-21.274-1.58-42.628 1.744-62.41 9.715-.362.151-.16.72.202.575 15.321-6.18 31.626-9.573 48.145-10.018 4.648-.128 9.3-.018 13.936.329.4.031.514-.57.127-.601zM88.333 102.544c-21.26-1.632-42.58 2.262-61.885 11.302-.355.165-.152.74.203.57 14.944-6.996 31.144-10.923 47.638-11.55 4.646-.182 9.3-.096 13.936.26.387.044.5-.55.108-.582zM90.386 113.018c-6.877.344-13.722 1.14-20.494 2.384-6.75 1.24-13.414 2.916-19.948 5.016-3.687 1.189-7.33 2.515-10.928 3.978-.36.145-.158.72.21.575 12.719-5.17 26.065-8.647 39.693-10.34 3.801-.481 7.638-.816 11.51-1.006.169-.012.295-.158.283-.326-.012-.168-.159-.294-.326-.281zM100.515 128.26c-17.508.44-34.913 2.819-51.895 7.09-4.755 1.198-9.469 2.54-14.14 4.03-.373.12-.164.689.21.569 16.63-5.304 33.8-8.747 51.191-10.266 4.882-.421 9.775-.697 14.678-.828.393 0 .349-.607-.044-.595zM165.137 83.652c-7.226 3.62-14.09 7.92-20.5 12.839-6.393 4.907-12.31 10.402-17.674 16.413-3.022 3.394-5.86 6.947-8.501 10.644-.229.317.24.709.468.393 12.011-16.805 27.94-30.438 46.41-39.72.348-.17.145-.734-.203-.57zM156.224 66.935c-13.458 7.676-25.534 17.546-35.729 29.202-2.876 3.289-5.592 6.708-8.147 10.259-.228.316.241.714.47.392 9.036-12.57 20.125-23.533 32.801-32.434 3.543-2.488 7.196-4.807 10.96-6.957.335-.158-.013-.658-.355-.462zM142.99 47.347c-12.354 9.085-23.184 20.071-32.086 32.548-2.496 3.5-4.831 7.1-7.006 10.802-.197.342.354.601.55.266 7.728-13.145 17.49-24.986 28.926-35.084 3.201-2.82 6.525-5.498 9.97-8.032.318-.234-.037-.734-.354-.5zM135.3 35.843c-5.6 5.06-10.968 10.357-16.104 15.894-5.135 5.536-9.992 11.296-14.57 17.28-2.584 3.372-5.08 6.805-7.488 10.296-.221.322.241.715.47.392 4.26-6.186 8.8-12.171 13.62-17.956 4.818-5.785 9.886-11.334 15.203-16.647 3.002-2.998 6.081-5.918 9.236-8.76.272-.26-.101-.759-.367-.5zM130.498 11.03c-3.743 1.74-7.355 3.748-10.808 6.009-3.46 2.275-6.754 4.792-9.857 7.533-3.09 2.732-5.985 5.676-8.666 8.81-2.69 3.154-5.154 6.493-7.373 9.993-2.213 3.499-4.167 7.154-5.847 10.936l-.634 1.404c-.152.36.4.633.551.266 3.204-7.57 7.489-14.636 12.72-20.98 5.222-6.35 11.318-11.932 18.106-16.577 3.803-2.598 7.814-4.88 11.991-6.824.387-.165.19-.74-.183-.57zM112.019.443c-5.4 3.883-10.307 8.407-14.614 13.472-4.31 5.058-7.997 10.613-10.985 16.545-1.673 3.328-3.116 6.766-4.32 10.29-.127.367.424.633.55.26 2.136-6.257 5.025-12.231 8.603-17.792 3.558-5.537 7.763-10.632 12.524-15.18 2.696-2.563 5.567-4.939 8.59-7.108.317-.222-.031-.721-.348-.487z" style="mix-blend-mode:multiply" transform="translate(205 139) translate(245 39) translate(43.077 25.932)"/>
                </g>
                <path fill="#FDF6F3" d="M114.66 75.733c-2.756-1.732-5.638-3.256-8.621-4.56-.032 1.638.443 3.586.526 4.743.827 11.361-.213 22.78-3.079 33.806-1.613 6.243-3.81 12.32-6.563 18.153-7.73 16.256-19.538 30.24-34.278 40.598 1.736 4.89 6.62 19.576 6.62 19.576 14.266-4.953 62.981-20.164 96.771-11.499L114.661 75.733z" style="mix-blend-mode:multiply" transform="translate(205 139) translate(245 39)"/>
                <path fill="#FDF6F3" d="M156.73 91.007c-8.822-2.635-17.39-6.056-25.599-10.22-4.105-2.088-8.117-4.36-12.036-6.819-1.324-.834-2.648-1.657-3.87-2.605-.288 1.444-.5 2.903-.634 4.37l51.37 100.817c15.101-40.763 66.578-65.461 66.578-65.461-3.744-4.765-7.239-9.72-10.471-14.845-3.51.468-7.032.829-10.56 1.05-18.488 1.15-37.034-.978-54.778-6.287z" style="mix-blend-mode:multiply" transform="translate(205 139) translate(245 39)"/>
            </g>
            <g>
                <path fill="#BE6C82" d="M60.709 105.717L68.379 116.734 68.069 111.934 74.017 112.769 66.587 101.847z" transform="translate(205 139) translate(0 122)"/>
                <path fill="#FF908F" d="M0 41.987L46.141 0.999 94.186 70.523 48.619 109.854z" transform="translate(205 139) translate(0 122)"/>
                <path fill="#FFBA96" d="M.448 42.373L45.34 2.726s4.377 1.227 10.09-1.177c0 0-39.026 34.335-43.138 38.326-4.112 3.99-10.45 5.983-11.844 2.498z" transform="translate(205 139) translate(0 122)"/>
                <path fill="url(#prefix__a)" d="M56.768 0.436L11.668 39.034 62.021 108.222 110.451 71.617z" transform="translate(205 139) translate(0 122)"/>
                <path fill="url(#prefix__b)" d="M11.668 39.04S2.523 44.074 0 41.987l49.445 69.182s5.57 1.998 12.576-2.947L11.668 39.04z" transform="translate(205 139) translate(0 122)"/>
                <path fill="#FBEBE7" d="M15.414 34.62c4.995-4.162 9.942-8.378 14.84-12.65 4.898-4.27 9.74-8.61 14.524-13.021 2.246-2.05 4.476-4.11 6.692-6.185-.271.05-.53.088-.788.126-4.146 3.858-8.323 7.678-12.532 11.46-4.831 4.347-9.715 8.628-14.65 12.845-2.776 2.373-5.563 4.728-8.364 7.064-.189.17.095.525.278.36zM42.117 8.67l6.307-5.609h-.63L34.46 14.85 17.728 29.655l-9.46 8.354c-.183.158.095.506.278.348L25.36 23.476 42.117 8.67z" style="mix-blend-mode:multiply" transform="translate(205 139) translate(0 122)"/>
                <path fill="#FFF" d="M4.352 48.065c4.082.18 8.112-.979 11.478-3.301l-.788-1.082c-3.402 2.347-7.51 3.438-11.624 3.086l.934 1.297zM6.622 51.227c4.109.245 8.185-.866 11.605-3.162l-.789-1.082c-3.461 2.32-7.62 3.358-11.762 2.935l.946 1.309zM58.653 103.624c-1.872 1.024-3.869 1.8-5.94 2.308-1.113.27-2.242.462-3.381.576-1.092.188-2.21.164-3.292-.07l1.009 1.404c.678.057 1.36.057 2.037 0 1.244-.102 2.479-.293 3.696-.569 2.33-.513 4.575-1.365 6.66-2.53l-.789-1.119zM56.32 100.392c-1.918 1.067-3.969 1.873-6.099 2.397-1.112.267-2.242.457-3.38.57-.983.151-1.982.151-2.964 0l.958 1.347c.585.018 1.17 0 1.753-.051 1.244-.102 2.48-.292 3.696-.57 2.394-.53 4.694-1.42 6.824-2.637l-.788-1.056z" transform="translate(205 139) translate(0 122)"/>
                <path fill="#FDD4E2" d="M23.733 60.334l25.321 35.062s-2.983 2.03-5.896 2.037L17.3 61.473c2.2.084 4.394-.304 6.433-1.139zM96.305 68.492L65.017 93.651l-.63-.867c-.432-.595-1.09-.986-1.817-1.081-.722-.097-1.452.109-2.018.569l-.839.696-35.621-48.192.776-.632c1.13-.9 1.34-2.537.473-3.694l-.587-.796 31.32-25.19.63.86c.435.59 1.091.976 1.817 1.068.726.092 1.457-.118 2.024-.581l.833-.633 35.583 48.217-.77.632c-1.125.901-1.337 2.534-.479 3.694l.593.771zM65.307 90.767L93.55 68.062c-.752-1.642-.508-3.57.63-4.97L60.925 18.017c-1.692.815-3.704.555-5.134-.664L27.51 40.09c.75 1.642.505 3.569-.63 4.97l33.3 45.043c1.688-.824 3.7-.576 5.14.632l-.013.032z" style="mix-blend-mode:multiply" transform="translate(205 139) translate(0 122)"/>
                <path fill="#FDD9E6" d="M60.596 74.678c-1.82 7.283-4.355 14.367-7.568 21.148l9.018 12.396 48.43-36.605L56.762.437l-1.078.923c.444.848.842 1.72 1.192 2.612 1.181 3.174 2.218 6.394 3.11 9.657 1.825 6.66 3.068 13.468 3.714 20.345 1.281 13.646.232 27.412-3.103 40.704zM36.088 72.584c-2.914-1.12-5.815-2.384-8.628-3.718-4.812-2.287-9.45-4.925-13.875-7.893l35.86 50.196s5.57 1.998 12.576-2.947L36.088 72.584z" style="mix-blend-mode:multiply" transform="translate(205 139) translate(0 122)"/>
            </g>
            <g>
                <path fill="#F6BDA6" d="M30.559 58.26L27.203 64.867 26.994 62.23 23.797 63.145 27.026 56.607z" transform="translate(205 139) translate(336)"/>
                <path fill="#806894" d="M58.975 18.768L30.407 0 9.402 41.669 37.532 59.579z" transform="translate(205 139) translate(336)"/>
                <path fill="#FFBA96" d="M58.765 19.033L30.985.896c-1.822.629-3.796.677-5.647.139 0 0 24.108 15.695 26.715 17.55 2.608 1.855 6.211 2.442 6.712.448z" transform="translate(205 139) translate(336)"/>
                <path fill="url(#prefix__c)" d="M24.52 0.517L52.332 18.067 30.033 59.731 0.546 43.531z" transform="translate(205 139) translate(336)"/>
                <path fill="url(#prefix__d)" d="M52.332 18.067s5.437 2.039 6.643.701L37.183 60.355s-2.906 1.528-7.15-.63l22.3-41.658z" transform="translate(205 139) translate(336)"/>
                <path fill="#FBEBE7" d="M49.922 15.953c-3.07-1.889-6.12-3.807-9.149-5.755-3.028-1.948-6.033-3.936-9.015-5.964-1.387-.946-2.774-1.899-4.161-2.858h.444c2.576 1.78 5.17 3.538 7.784 5.275 3.003 1.986 6.03 3.943 9.078 5.87 1.692 1.08 3.407 2.15 5.145 3.205.121.082-.006.297-.126.227zM33.218 3.875L29.29 1.306l.368-.056 8.247 5.395 10.36 6.778 5.843 3.824c.114.07 0 .284-.127.208l-10.41-6.809-10.354-6.771z" style="mix-blend-mode:multiply" transform="translate(205 139) translate(336)"/>
                <path fill="#FFF" d="M57.059 22.422c-2.232.416-4.54.097-6.573-.909l.35-.631c2.053 1.018 4.4 1.293 6.635.776l-.412.764zM56.056 24.328c-2.242.45-4.57.157-6.63-.833l.35-.631c2.082.992 4.446 1.23 6.686.675l-.406.789zM31.517 56.96c1.705.646 3.526.934 5.348.846.616.021 1.23-.077 1.809-.29l-.445.845c-.37.077-.745.126-1.122.145-.691.048-1.384.048-2.075 0-1.324-.1-2.626-.393-3.864-.87l.35-.676zM32.558 55.017c1.14.434 2.332.714 3.546.833.633.058 1.269.074 1.903.05.552.007 1.102-.07 1.63-.227l-.424.808c-.319.06-.64.098-.965.113-.692.048-1.388.048-2.08 0-1.358-.103-2.692-.407-3.96-.902l.35-.675z" transform="translate(205 139) translate(336)"/>
                <path fill="#BCADC7" d="M47.359 30.626L36.16 51.748c1.062.493 2.232.71 3.4.63l11.42-21.632c-1.202.219-2.438.178-3.622-.12zM8.342 40.243c.386-.699.145-1.576-.545-1.981l-.476-.278 15.81-29.073.507.303c.35.205.77.26 1.161.151.39-.105.718-.365.907-.72l.286-.523 19.19 11.302-.26.486c-.383.699-.139 1.574.552 1.975l.47.278-15.829 29.06-.513-.302c-.349-.204-.765-.258-1.155-.152-.392.107-.722.37-.914.726l-.279.518-19.172-11.29.26-.48zm19.8 9.428c.491-.14 1.013-.128 1.498.032l14.8-27.168c-.735-.672-1.021-1.704-.736-2.656L26.372 9.674c-.335.382-.777.656-1.268.79-.491.144-1.013.144-1.504 0L8.825 37.611c.735.675 1.022 1.707.742 2.663l17.3 10.21c.336-.39.78-.672 1.275-.814z" style="mix-blend-mode:multiply" transform="translate(205 139) translate(336)"/>
                <path fill="#FDD9E6" d="M28.2 41.322c1.577 3.83 3.53 7.495 5.83 10.943l-3.997 7.466L.546 43.544 24.52.517l.634.423c-.163.5-.3 1.008-.412 1.521-.4 1.818-.717 3.66-.958 5.503-.48 3.777-.63 7.588-.444 11.39.352 7.545 1.996 14.974 4.86 21.968z" style="mix-blend-mode:multiply" transform="translate(205 139) translate(336)"/>
                <path fill="#FDD9E6" d="M41.516 38.274c1.516-.852 3.007-1.748 4.44-2.707 2.474-1.619 4.824-3.418 7.03-5.383L37.183 60.355s-2.906 1.528-7.15-.63l11.483-21.45z" style="mix-blend-mode:multiply" transform="translate(205 139) translate(336)"/>
            </g>
            <g>
                <path fill="#D98D75" d="M1.875 37.979L56.526 70.943 95.892 36.8 37.154 4.438z" transform="translate(205 139) translate(216 8)"/>
                <path fill="#FFB48B" d="M56.367 70.043l36.76-32.255c-.273-3.592-.173-7.204.298-10.776L57.53 57.745s-4.425 4.38-1.163 12.298z" transform="translate(205 139) translate(216 8)"/>
                <path fill="#FF8650" d="M36.747 0.133L0.998 25.383 57.53 57.738 94.404 26.169z" transform="translate(205 139) translate(216 8)"/>
                <path fill="#FF8555" d="M.998 25.357s-2.123 6.77.91 12.622l54.675 32.964s-1.666-7.962 1.004-13.205L.998 25.358z" transform="translate(205 139) translate(216 8)"/>
                <g fill="#FBEBE7">
                    <path d="M12.168 25.306c-2.174 1.775-4.352 3.538-6.535 5.287-.165.127.063.362.222.229 3.925-3.14 7.82-6.31 11.686-9.51 3.865-3.199 7.69-6.41 11.475-9.635 2.06-1.754 4.114-3.518 6.16-5.293v-.412c-3.788 3.288-7.603 6.548-11.443 9.781-3.84 3.233-7.695 6.418-11.565 9.553zM35.234.456c-1.558 1.325-3.115 2.657-4.686 3.969-3.814 3.22-7.66 6.407-11.539 9.56-2.166 1.774-4.344 3.537-6.535 5.286-.16.127.063.355.229.229 3.916-3.136 7.809-6.306 11.678-9.51C28.01 6.987 31.612 3.959 35.19.908c.026-.153.039-.273.045-.45zM28.304 8.837c-3.463 3.08-7 6.075-10.61 8.983-3.612 2.907-7.284 5.716-11.019 8.425-2.119 1.534-4.255 3.038-6.408 4.513-.172.114 0 .393.159.28 3.84-2.625 7.612-5.345 11.317-8.16 3.704-2.814 7.326-5.71 10.865-8.684 1.996-1.69 3.971-3.4 5.925-5.129.153-.133-.076-.367-.229-.228z" style="mix-blend-mode:multiply" transform="translate(205 139) translate(216 8) translate(57.854 29.795)"/>
                </g>
                <path fill="#F6E2DB" style="mix-blend-mode:multiply" d="M31.788 3.639L90.819 29.237 79.133 39.24 20.777 11.417z" transform="translate(205 139) translate(216 8)"/>
                <path fill="#F6E2DB" d="M40.345 61.187l6.778 4.108c.225-4.161.936-8.282 2.117-12.28l-6.307-3.607c-1.257 3.83-2.124 7.776-2.588 11.779z" transform="translate(205 139) translate(216 8)"/>
                <path fill="#F6E2DB" d="M40.345 61.187l6.778 4.108c.225-4.161.936-8.282 2.117-12.28l-6.307-3.607c-1.257 3.83-2.124 7.776-2.588 11.779zM8.093 29.44c-1.174 3.619-1.78 7.397-1.799 11.201l7.235 4.368c.006-.275-.006-.55-.038-.824-.454-3.74-.167-7.534.845-11.164L8.093 29.44z" transform="translate(205 139) translate(216 8)"/>
                <path fill="#FBEBE7" d="M58.312 63.133L63.074 59.088 72.089 65.13 66.037 65.833 67.588 70.385z" transform="translate(205 139) translate(216 8)"/>
                <path fill="#F7EBE8" d="M57.53 57.738l36.874-31.57L38.966 1.136c2.94 4.337 5.492 8.923 7.629 13.705 1.408 3.185 2.558 6.477 3.44 9.845 2.364 9.237 2.32 19.29-1.158 28.109l8.653 4.944z" style="mix-blend-mode:multiply" transform="translate(205 139) translate(216 8)"/>
                <path fill="#F7EBE8" d="M56.526 70.943S54.86 62.98 57.53 57.738L37.98 46.55c-1.62 0-3.248-.05-4.87-.145-5.715-.33-11.388-1.179-16.949-2.536-3.347-.884-6.638-1.968-9.854-3.246l50.219 30.32z" style="mix-blend-mode:multiply" transform="translate(205 139) translate(216 8)"/>
            </g>
            <g>
                <path fill="#FA93A2" d="M87.495 91.49L95.198 105.404 96.054 98.823 101.64 100.315 93.867 86.957z" transform="translate(205 139) translate(116 124)"/>
                <path fill="#FFDFD4" d="M51.819 37.931s-23.003-1.897-38.105-.822c.764 1.305 1.45 2.654 2.054 4.04l36.05-3.218zM51.819 37.931s9.047-21.545 18.557-32.722c0 0 2.746 4.425 4.083 5.317L51.82 37.93z" transform="translate(205 139) translate(116 124)"/>
                <path fill="#FFCBB2" d="M2.79 49.5c3.596-2.253 6.881-4.968 9.77-8.073l39.259-3.496 27.84-33.689c2.873-.357 5.686-1.097 8.362-2.2L52.598 39.341 2.79 49.5z" transform="translate(205 139) translate(116 124)"/>
                <path fill="url(#prefix__e)" d="M.063 50.063l47.324-9.818 34.06 61.126-48.3 8.073S16.94 77.05.063 50.063z" transform="translate(205 139) translate(116 124)"/>
                <path fill="url(#prefix__f)" d="M89.48.531L56.11 35.402l34.06 61.126 32.399-36.622S103.542 29.08 89.479.53z" transform="translate(205 139) translate(116 124)"/>
                <path fill="url(#prefix__g)" d="M47.387 40.245c3.142-1.158 6.086-2.791 8.73-4.843L90.17 96.528c-2.27 2.556-5.348 4.263-8.724 4.836l-34.06-61.12z" transform="translate(205 139) translate(116 124)"/>
                <path fill="#BF9DA8" style="mix-blend-mode:multiply" d="M67.551 45.136L71.904 45.141 71.966 95.194 67.613 95.188z" transform="translate(205 139) translate(116 124) rotate(-29.05 69.759 70.165)"/>
                <path fill="#FFECE1" d="M66.071 38.026L90.671 12.814 104.867 38.285 79.411 61.967z" transform="translate(205 139) translate(116 124)"/>
                <path fill="#FDEEE9" d="M27.472 43.115c-6.562.967-13.13 1.928-19.705 2.826-.438.354-.863.676-1.268.986 7.063-.948 14.113-1.985 21.163-3.028.52-.076.324-.86-.19-.784zM71.949 17.46c4.779-4.522 9.256-9.351 13.403-14.457-.482.152-.945.284-1.376.404-3.92 4.742-8.126 9.243-12.592 13.479-.374.36.19.935.565.575z" style="mix-blend-mode:multiply" transform="translate(205 139) translate(116 124)"/>
                <path fill="#F4CBD8" d="M33.147 109.444l48.3-8.073-9.435-16.93c-7.932-.392-15.85-.86-23.51-2.896-16.852-4.482-30.73-16.07-44.013-27.342-1.37-1.163-2.74-2.326-4.064-3.552 16.75 26.861 32.722 58.793 32.722 58.793zM89.48.531l-.343.36c.482 1.36 1.7 3.06 2.162 4.103.742 1.67 1.42 3.363 2.06 5.058 1.364 3.654 2.537 7.377 3.608 11.126 3.608 12.568 6.245 25.591 5.503 38.646-.716 12.643-4.875 25.432-13.314 34.909l.99 1.783 32.398-36.623S103.542 29.08 89.479.531z" style="mix-blend-mode:multiply" transform="translate(205 139) translate(116 124)"/>
            </g>
        </g>
        <g>
            <path fill="#C62A84" fill-rule="nonzero" d="M122.328 50.04h-12.104l-2.304 5.6h-6.184l11.616-26.04h5.96l11.648 26.024h-6.328l-2.304-5.584zm-1.904-4.576l-4.128-9.976-4.136 9.976h8.264zM150.184 36.584c1.514.84 2.76 2.09 3.592 3.608.896 1.66 1.345 3.523 1.304 5.408.044 1.888-.406 3.755-1.304 5.416-.832 1.52-2.077 2.774-3.592 3.616-1.553.863-3.304 1.304-5.08 1.28-2.265.12-4.469-.757-6.032-2.4v9.336h-5.808V35.6h5.552v2.304c1.44-1.739 3.536-2.608 6.288-2.608 1.777-.021 3.528.423 5.08 1.288zm-2.4 13.064c.987-1.11 1.495-2.565 1.416-4.048.062-1.469-.452-2.904-1.432-4-2.034-2.006-5.302-2.006-7.336 0-.98 1.096-1.494 2.531-1.432 4-.073 1.483.442 2.934 1.432 4.04 2.03 2.014 5.306 2.014 7.336 0l.016.008zM167.312 36.04c1.294-.518 2.679-.771 4.072-.744v5.36c-.648-.048-1.08-.072-1.304-.072-1.438-.084-2.848.421-3.904 1.4-1.01 1.148-1.508 2.66-1.376 4.184v9.456h-5.808v-20h5.544v2.64c.699-.987 1.66-1.757 2.776-2.224zM194.168 47.248h-15.152c.242 1.194.935 2.249 1.936 2.944 1.122.749 2.452 1.124 3.8 1.072.943.018 1.882-.139 2.768-.464.843-.33 1.61-.829 2.256-1.464l3.088 3.344c-1.888 2.16-4.643 3.24-8.264 3.24-2.074.041-4.128-.411-5.992-1.32-1.654-.817-3.041-2.088-4-3.664-.963-1.611-1.459-3.459-1.432-5.336-.026-1.862.455-3.695 1.392-5.304.912-1.558 2.238-2.832 3.832-3.68 1.676-.899 3.554-1.356 5.456-1.328 1.852-.027 3.68.41 5.32 1.272 1.572.82 2.872 2.08 3.744 3.624.931 1.68 1.4 3.576 1.36 5.496 0 .08-.04.6-.112 1.568zm-13.6-6.44c-.898.782-1.469 1.873-1.6 3.056h9.832c-.14-1.176-.71-2.259-1.6-3.04-.916-.764-2.08-1.168-3.272-1.136-1.213-.049-2.402.346-3.344 1.112l-.016.008zM216.336 37.528c1.525 1.499 2.288 3.71 2.288 6.632v11.464H212.8V45.048c.1-1.271-.27-2.535-1.04-3.552-.769-.804-1.85-1.233-2.96-1.176-1.305-.062-2.576.432-3.496 1.36-.938 1.113-1.406 2.548-1.304 4v9.944h-5.808v-20h5.544v2.344c.782-.86 1.747-1.532 2.824-1.968 1.198-.467 2.474-.7 3.76-.688 2.222-.103 4.392.696 6.016 2.216zM244.496 28v27.624h-5.544v-2.312c-1.44 1.744-3.528 2.608-6.256 2.608-1.787.023-3.55-.412-5.12-1.264-1.512-.837-2.752-2.09-3.576-3.608-.897-1.67-1.346-3.545-1.304-5.44-.042-1.893.407-3.764 1.304-5.432.826-1.523 2.073-2.775 3.592-3.608 1.569-.857 3.332-1.295 5.12-1.272 2.254-.128 4.45.751 5.992 2.4V28h5.792zm-7.144 21.648c1.002-1.103 1.523-2.56 1.448-4.048.062-1.472-.458-2.909-1.448-4-2.034-2.006-5.302-2.006-7.336 0-.993 1.09-1.516 2.527-1.456 4-.07 1.487.453 2.94 1.456 4.04 2.03 2.014 5.306 2.014 7.336 0v.008zM269.36 47.248h-15.152c.242 1.194.935 2.249 1.936 2.944 1.122.749 2.452 1.124 3.8 1.072.946.018 1.887-.14 2.776-.464.84-.333 1.604-.83 2.248-1.464l3.088 3.344c-1.877 2.16-4.632 3.24-8.264 3.24-2.074.041-4.128-.411-5.992-1.32-1.655-.816-3.042-2.087-4-3.664-.963-1.612-1.458-3.459-1.432-5.336-.026-1.862.455-3.695 1.392-5.304.915-1.558 2.244-2.832 3.84-3.68 3.374-1.75 7.384-1.772 10.776-.056 1.568.823 2.865 2.082 3.736 3.624.935 1.678 1.405 3.576 1.36 5.496 0 .08-.032.6-.112 1.568zm-13.6-6.44c-.913.775-1.499 1.867-1.64 3.056H264c-.134-1.185-.705-2.277-1.6-3.064-.916-.764-2.08-1.168-3.272-1.136-1.219-.044-2.411.36-3.352 1.136l-.016.008zM303.384 47.248h-15.152c.242 1.194.935 2.249 1.936 2.944 1.122.749 2.452 1.124 3.8 1.072.946.018 1.887-.14 2.776-.464.84-.333 1.604-.83 2.248-1.464l3.088 3.344c-1.888 2.16-4.643 3.24-8.264 3.24-2.074.041-4.128-.411-5.992-1.32-1.656-.814-3.045-2.085-4-3.664-.96-1.612-1.453-3.46-1.424-5.336-.026-1.862.455-3.695 1.392-5.304.914-1.556 2.24-2.83 3.832-3.68 3.376-1.746 7.385-1.764 10.776-.048 1.568.823 2.865 2.082 3.736 3.624.931 1.68 1.4 3.576 1.36 5.496 0 .072-.04.592-.112 1.56zm-13.6-6.44c-.913.775-1.499 1.867-1.64 3.056h9.864c-.14-1.176-.71-2.259-1.6-3.04-.916-.764-2.08-1.168-3.272-1.136-1.21-.047-2.396.348-3.336 1.112l-.016.008zM325.552 37.528c1.53 1.499 2.293 3.71 2.288 6.632v11.464h-5.808V45.048c.1-1.271-.27-2.535-1.04-3.552-.782-.82-1.886-1.25-3.016-1.176-1.305-.062-2.576.432-3.496 1.36-.938 1.113-1.406 2.548-1.304 4v9.944h-5.808v-20h5.544v2.344c.795-.866 1.777-1.54 2.872-1.968 1.198-.469 2.474-.702 3.76-.688 2.22-.102 4.386.698 6.008 2.216zM349.304 54.336c-2.1-1.1-3.853-2.762-5.064-4.8-2.465-4.298-2.465-9.582 0-13.88 1.216-2.034 2.967-3.695 5.064-4.8 2.23-1.173 4.72-1.767 7.24-1.728 2.1-.03 4.184.376 6.12 1.192 1.783.762 3.359 1.935 4.6 3.424l-3.872 3.576c-1.603-1.966-4.016-3.091-6.552-3.056-1.508-.028-2.997.339-4.32 1.064-1.247.687-2.273 1.713-2.96 2.96-1.407 2.705-1.407 5.927 0 8.632.69 1.245 1.715 2.27 2.96 2.96 1.324.722 2.812 1.088 4.32 1.064 2.544.03 4.96-1.111 6.552-3.096l3.872 3.576c-1.237 1.51-2.82 2.699-4.616 3.464-1.945.814-4.036 1.22-6.144 1.192-2.509.035-4.985-.565-7.2-1.744zM385.984 37.512c1.664 1.483 2.496 3.71 2.496 6.68v11.432h-5.432v-2.496c-1.099 1.867-3.133 2.797-6.104 2.792-1.376.03-2.742-.243-4-.8-1.05-.455-1.947-1.202-2.584-2.152-.602-.931-.914-2.02-.896-3.128-.067-1.722.72-3.365 2.104-4.392 1.4-1.072 3.568-1.6 6.496-1.6h4.616c.07-1.099-.353-2.171-1.152-2.928-.991-.752-2.223-1.116-3.464-1.024-1.068 0-2.13.17-3.144.504-.948.294-1.837.755-2.624 1.36l-2.088-4.056c1.197-.817 2.526-1.423 3.928-1.792 1.535-.42 3.12-.632 4.712-.632 3.096.016 5.472.76 7.136 2.232zm-4.952 13.808c.757-.463 1.324-1.18 1.6-2.024v-2.048h-4c-2.4 0-3.568.8-3.568 2.344-.01.71.342 1.377.936 1.768.71.468 1.55.698 2.4.656.925.015 1.836-.225 2.632-.696zM395.592 55.304c-1.342-.304-2.626-.825-3.8-1.544l1.936-4.16c.993.619 2.071 1.09 3.2 1.4 1.209.35 2.461.531 3.72.536 2.459 0 3.688-.608 3.688-1.824-.015-.591-.43-1.096-1.008-1.224-1.004-.322-2.039-.536-3.088-.64-1.37-.188-2.726-.474-4.056-.856-1.061-.314-2.02-.905-2.776-1.712-.834-.966-1.254-2.222-1.168-3.496-.012-1.224.388-2.416 1.136-3.384.826-1.053 1.937-1.846 3.2-2.288 1.591-.575 3.277-.847 4.968-.8 1.42.003 2.837.159 4.224.464 1.22.243 2.395.677 3.48 1.288l-1.936 4.136c-1.757-.998-3.747-1.514-5.768-1.496-.96-.058-1.92.124-2.792.528-.54.23-.901.75-.928 1.336-.007.616.41 1.156 1.008 1.304 1.043.333 2.114.568 3.2.704 1.35.212 2.686.506 4 .88 1.043.304 1.984.888 2.72 1.688.815.948 1.229 2.176 1.152 3.424.015 1.194-.374 2.359-1.104 3.304-.854 1.042-1.986 1.822-3.264 2.248-1.632.57-3.352.84-5.08.8-1.641.005-3.276-.203-4.864-.616zM428.72 37.512c1.653 1.483 2.48 3.71 2.48 6.68v11.432h-5.44v-2.496c-1.067 1.867-3.101 2.797-6.104 2.792-1.376.03-2.742-.243-4-.8-1.05-.455-1.947-1.202-2.584-2.152-.602-.931-.914-2.02-.896-3.128-.067-1.722.72-3.365 2.104-4.392 1.4-1.072 3.568-1.6 6.496-1.6h4.616c.07-1.099-.353-2.171-1.152-2.928-.988-.74-2.21-1.097-3.44-1.008-1.068 0-2.13.17-3.144.504-.949.293-1.838.753-2.624 1.36l-2.088-4.056c1.197-.817 2.526-1.423 3.928-1.792 1.535-.42 3.12-.632 4.712-.632 3.088 0 5.472.744 7.136 2.216zm-4.952 13.808c.755-.465 1.321-1.182 1.6-2.024v-2.048h-4c-2.384 0-3.576.781-3.576 2.344-.022.7.309 1.363.88 1.768.708.473 1.55.703 2.4.656.946.028 1.881-.214 2.696-.696z" transform="translate(40 60)"/>
            <g stroke-width=".5">
                <path stroke="#C62A84" d="M33.752 20.288L.752.192M33.56 21.112L.56 1.024" transform="translate(40 60) translate(45.6 7.2)"/>
                <path stroke="#FFF" d="M35.488 44.624L2.48 24.536" opacity=".2" transform="translate(40 60) translate(45.6 7.2)"/>
            </g>
            <path stroke="#C62A84" stroke-width=".808" d="M42.016 7.312L43.512 4.856 79.04 25.832 77.168 28.712z" transform="translate(40 60)"/>
            <g stroke-width=".5">
                <path stroke="#C62A84" d="M1.992 20.288L35 .192M2.184 21.112L35.192 1.024" transform="translate(40 60) translate(3.2 7.2)"/>
                <path stroke="#FFF" d="M0.264 44.624L33.264 24.536" opacity=".2" transform="translate(40 60) translate(3.2 7.2)"/>
            </g>
            <path stroke="#C62A84" stroke-width=".808" d="M42.536 7.312L41.04 4.856 5.464 25.872 7.384 28.712z" transform="translate(40 60)"/>
            <path fill="#C62A84" fill-rule="nonzero" d="M38.776 7.2c.8.8 1.512 1.896 3.496 1.784 1.372-.047 2.653-.7 3.496-1.784l36.72 21.04 2.064-3.568L44.664 1.448c-1.481-.873-3.319-.873-4.8 0L0 24.64l2.056 3.568L38.776 7.2zM56.192 55.648c-5.474-.009-9.908-4.446-9.912-9.92 0-.406.024-.812.072-1.216l.616.072c-.048.38-.072.762-.072 1.144-.033 3.456 1.853 6.645 4.897 8.282 3.044 1.637 6.744 1.452 9.609-.48 2.865-1.933 4.423-5.295 4.046-8.73l.616-.064c0 .336.048.672.048 1.016-.018 5.467-4.453 9.892-9.92 9.896z" transform="translate(40 60)"/>
            <path fill="#C62A84" fill-rule="nonzero" d="M66.576 42.568l.8-3.12c.018-.075-.003-.154-.057-.209-.054-.055-.132-.079-.207-.063l-.856.224c-.066.014-.135-.001-.187-.043-.053-.042-.084-.106-.085-.173v-4.288c.001-.07-.032-.138-.09-.18-.057-.041-.131-.052-.198-.028l-1.48.512c-.097.033-.204-.007-.256-.096l-1.56-2.592c-.045-.087-.145-.13-.24-.104l-1.648.456c-.08.017-.162-.01-.216-.072l-1.816-2.088c-.069-.077-.181-.096-.272-.048l-2.4 1.392c-.073.049-.167.049-.24 0l-1.04-.872c-.04-.042-.094-.066-.152-.066-.058 0-.113.024-.152.066l-1.104 1.352c-.04.05-.1.08-.164.08s-.125-.03-.164-.08l-1.28-1.472c-.048-.056-.12-.084-.193-.074-.073.01-.136.056-.167.122l-1.296 2.776c-.04.093-.141.144-.24.12l-1.392-.304c-.06-.014-.124-.001-.173.036-.05.037-.08.094-.083.156l-.264 2.528c-.006.067-.042.127-.099.163-.056.036-.126.044-.189.021l-.88-.336c-.077-.032-.166-.016-.228.04-.061.057-.085.144-.06.224l.568 2.4c.024.097-.018.198-.104.248l-1.232.728c-.1.059-.137.184-.088.288l.88 1.904c.029.057.031.123.007.182-.025.058-.074.103-.135.122l-.624.2c-.113.041-.174.165-.136.28l.872 2.632c.004.024.004.048 0 .072 0 .096 0 .384.232.376 0 0 .272.184.432.304.076.056.18.056.256 0l.936-.744c.064-.052.095-.135.08-.216l-.656-3.56c-.019-.08.009-.163.071-.215.063-.053.15-.065.225-.033l.616.256c.062.051.148.063.222.03.074-.031.124-.102.13-.182l.408-1.76c.013-.06.05-.112.104-.143.054-.03.118-.037.176-.017l1.6.544c.067.02.139.008.195-.033.057-.04.09-.105.093-.175v-1.4c.003-.082.05-.156.124-.193.073-.036.16-.03.228.017l.8.592c.093.068.224.05.296-.04l1.576-1.984c.039-.057.103-.091.172-.091.069 0 .133.034.172.091l.984 1.496c.04.064.109.103.184.103s.145-.04.184-.103l.872-1.408c.04-.067.113-.109.192-.109s.152.042.192.109l.8 1.664c.038.068.11.11.188.11s.15-.042.188-.11l.88-1.344c.038-.068.11-.11.188-.11s.15.042.188.11l1.136 2.4c.023.054.066.096.12.117.055.02.115.019.168-.005l2.112-.968c.07-.03.15-.022.212.02.063.042.1.112.1.188l.16 1.6c-.002.076.035.147.1.188.063.041.144.046.212.012l.536-.264c.07-.03.152-.022.216.022.063.044.1.117.096.194l-.072 1.048c-.004.06.016.12.057.166.04.045.098.072.159.074.067 0 .13.032.173.085.042.052.057.121.043.187l-.768 3.12c-.023.056-.023.12 0 .176l.456.72c.04.06.108.097.18.097s.14-.037.18-.097l2.232-3.2c.046-.064.054-.147.023-.219-.03-.072-.097-.122-.175-.133l-.704-.088c-.062-.012-.116-.051-.147-.107-.03-.055-.035-.122-.013-.181zM56.536 52.624c-1.615-.073-3.17-.63-4.464-1.6-.1-.076-.121-.218-.048-.32.079-.101.223-.122.328-.048 1.221.892 2.674 1.412 4.184 1.496 1.498-.086 2.94-.602 4.152-1.488.049-.039.11-.056.172-.049.062.008.118.04.156.089.085.09.085.23 0 .32-1.297.975-2.859 1.533-4.48 1.6z" transform="translate(40 60)"/>
            <path fill="#C62A84" fill-rule="nonzero" d="M53.992 46.288c0 .616-.36 1.112-.8 1.112-.44 0-.8-.496-.8-1.112 0-.616.36-1.12.8-1.12.44 0 .8.504.8 1.12zM60.656 46.288c0 .616-.36 1.112-.8 1.112-.44 0-.8-.496-.8-1.112 0-.616.36-1.12.8-1.12.44 0 .8.504.8 1.12z" transform="translate(40 60)"/>
            <path fill="#C72A85" fill-rule="nonzero" d="M40.4 41.552v-.592c-.408-5.136-5.848-9.16-11.2-9.16-5.668-.02-10.516 4.067-11.456 9.656l.6.512 1.992-.984s4-1.976 6.528-1.992c0 0 5.448 5.304 11.696 3.84l1.344-1.392.496.112z" transform="translate(40 60)"/>
            <path fill="#C72A85" fill-rule="nonzero" d="M41.192 52.32c1.28-8.64-.8-10.864-.8-10.864l-4.08-1.52c-1.862-2.36-4.722-3.712-7.728-3.652-3.005.06-5.81 1.524-7.576 3.956l-3.264 1.216s-2.088 2.224-.8 10.864c0 0 .8 2.184-2.032 2.648 0 0 3.48 5.048 7.368-1.936 3.82 3.496 9.723 3.333 13.344-.368.072.136.136.264.216.4 3.904 6.936 7.36 1.904 7.36 1.904-2.84-.464-2.008-2.648-2.008-2.648zM28.8 54.928c-3.653.013-6.953-2.177-8.36-5.548-1.407-3.371-.643-7.258 1.936-9.846 2.578-2.587 6.462-3.365 9.838-1.97 3.376 1.395 5.578 4.687 5.578 8.34-.004 4.97-4.023 9.002-8.992 9.024z" transform="translate(40 60)"/>
            <path fill="#C72A85" fill-rule="nonzero" d="M26.64 46.44c0 .6-.352 1.088-.8 1.088-.448 0-.8-.488-.8-1.088 0-.6.352-1.08.8-1.08.448 0 .8.488.8 1.08zM33.104 46.44c0 .6-.352 1.088-.8 1.088-.448 0-.8-.488-.8-1.088 0-.6.352-1.08.8-1.08.448 0 .8.488.8 1.08zM29.096 52.592c-1.552-.087-3.044-.623-4.296-1.544-.097-.078-.115-.22-.04-.32.04-.043.097-.067.156-.067s.115.024.156.067c1.184.863 2.593 1.366 4.056 1.448 1.446-.082 2.836-.585 4-1.448.042-.043.1-.067.16-.067s.118.024.16.067c.074.097.056.236-.04.312-1.249.939-2.751 1.48-4.312 1.552z" transform="translate(40 60)"/>
            <path fill="#C62A84" fill-rule="nonzero" d="M-9.06 44.98H28.171999999999997V53.132H-9.06z" transform="translate(40 60) rotate(-90 9.556 49.056)"/>
            <g fill="#FFF" fill-rule="nonzero" opacity=".5">
                <path d="M4.568 23.8H6.847999999999999V34.496H4.568z" transform="translate(40 60) translate(4 32) rotate(-90 5.708 29.148)"/>
                <path d="M4.216 27.408H6.496V38.104H4.216z" transform="translate(40 60) translate(4 32) rotate(-90 5.356 32.756)"/>
                <path d="M4.568 -3.936H6.847999999999999V6.76H4.568z" transform="translate(40 60) translate(4 32) rotate(-90 5.708 1.412)"/>
                <path d="M4.208 -0.328H6.4879999999999995V10.368H4.208z" transform="translate(40 60) translate(4 32) rotate(-90 5.348 5.02)"/>
            </g>
            <path fill="#C62A84" fill-rule="nonzero" d="M56.372 44.98H93.604V53.132H56.372z" transform="translate(40 60) rotate(-90 74.988 49.056)"/>
            <g fill="#FFF" fill-rule="nonzero" opacity=".5">
                <path d="M5.2 23.8H7.48V34.496H5.2z" transform="translate(40 60) translate(68.8 32) rotate(-90 6.34 29.148)"/>
                <path d="M4.84 27.408H7.119999999999999V38.104H4.84z" transform="translate(40 60) translate(68.8 32) rotate(-90 5.98 32.756)"/>
                <path d="M5.2 -3.928H7.48V6.768H5.2z" transform="translate(40 60) translate(68.8 32) rotate(-90 6.34 1.42)"/>
                <path d="M4.84 -0.328H7.119999999999999V10.368H4.84z" transform="translate(40 60) translate(68.8 32) rotate(-90 5.98 5.02)"/>
            </g>
        </g>
    </g>
</svg>
