<svg xmlns="http://www.w3.org/2000/svg" xmlns:xlink="http://www.w3.org/1999/xlink" width="730" height="400" viewBox="0 0 730 400">
    <defs>
        <linearGradient id="prefix__c" x1="0%" x2="100%" y1="50.005%" y2="50.005%">
            <stop offset="8%" stop-color="#E0C73C"/>
            <stop offset="46%" stop-color="#B6BE3E"/>
            <stop offset="81%" stop-color="#95B83F"/>
            <stop offset="100%" stop-color="#89B540"/>
        </linearGradient>
        <linearGradient id="prefix__d" x1="0%" x2="100%" y1="49.999%" y2="49.999%">
            <stop offset="8%" stop-color="#E0C73C"/>
            <stop offset="46%" stop-color="#B6BE3E"/>
            <stop offset="81%" stop-color="#95B83F"/>
            <stop offset="100%" stop-color="#89B540"/>
        </linearGradient>
        <linearGradient id="prefix__e" x1="0%" x2="100%" y1="50%" y2="50%">
            <stop offset="0%" stop-color="#6E79E0"/>
            <stop offset="41%" stop-color="#616ECA"/>
            <stop offset="100%" stop-color="#4B5AA5"/>
        </linearGradient>
        <linearGradient id="prefix__f" x1="0%" x2="100%" y1="50.003%" y2="50.003%">
            <stop offset="0%" stop-color="#6E79E0"/>
            <stop offset="41%" stop-color="#616ECA"/>
            <stop offset="100%" stop-color="#4B5AA5"/>
        </linearGradient>
        <linearGradient id="prefix__g" x1="0%" x2="100%" y1="50.01%" y2="50.01%">
            <stop offset="0%" stop-color="#6E79E0"/>
            <stop offset="41%" stop-color="#616ECA"/>
            <stop offset="100%" stop-color="#4B5AA5"/>
        </linearGradient>
        <linearGradient id="prefix__h" x1="7.243%" x2="92.864%" y1="46.508%" y2="53.749%">
            <stop offset="0%" stop-color="#00C9CB"/>
            <stop offset="27%" stop-color="#00C6CF"/>
            <stop offset="56%" stop-color="#00BCDC"/>
            <stop offset="84%" stop-color="#00ABF0"/>
            <stop offset="100%" stop-color="#009FFF"/>
        </linearGradient>
        <linearGradient id="prefix__i" x1="15.721%" x2="123.632%" y1="51.717%" y2="51.717%">
            <stop offset="0%" stop-color="#00C9CB"/>
            <stop offset="27%" stop-color="#00C6CF"/>
            <stop offset="56%" stop-color="#00BCDC"/>
            <stop offset="84%" stop-color="#00ABF0"/>
            <stop offset="100%" stop-color="#009FFF"/>
        </linearGradient>
        <path id="prefix__a" d="M0 0H730V400H0z"/>
    </defs>
    <g fill="none" fill-rule="evenodd">
        <mask id="prefix__b" fill="#fff">
            <use xlink:href="#prefix__a"/>
        </mask>
        <use fill="#FFF" xlink:href="#prefix__a"/>
        <g mask="url(#prefix__b)">
            <g transform="translate(-86 257)">
                <path fill="#ECE4DC" d="M.369 102.05c188.276-87.171 523.194-76.166 1004.755 33.014L0 137.548"/>
                <path fill="#DFD3C2" d="M.369 111.008C182.92 61.384 462.82 71.941 840.07 142.678H.37v-31.67z"/>
                <circle cx="171.5" cy="106.5" r="10.5" fill="#FFF" opacity=".466"/>
                <circle cx="133.5" cy="113.5" r="5.5" fill="#FFF" opacity=".466"/>
                <circle cx="345.869" cy="108.179" r="15.5" fill="#FFF" opacity=".466"/>
                <circle cx="455.369" cy="104.679" r="9" fill="#FFF" opacity=".466"/>
                <path fill="#C8B08F" d="M0.369 127.45L0.369 142.679 1280.369 142.679 1280.369 127.45z"/>
                <g fill-rule="nonzero">
                    <path fill="#806894" d="M243.734 78.075L124.894 0 37.512 173.345 154.532 247.849z" transform="translate(151)"/>
                    <path fill="#FFBA96" d="M242.864 79.177L127.296 3.727c-7.58 2.616-15.79 2.818-23.489.578 0 0 100.288 65.29 111.134 73.008 10.847 7.719 25.838 10.16 27.923 1.864z" transform="translate(151)"/>
                    <path fill="url(#prefix__c)" d="M100.403 2.153L216.103 75.161 123.337 248.479 0.67 181.089z" transform="translate(151)"/>
                    <path fill="url(#prefix__d)" d="M216.103 75.16s22.617 8.48 27.631 2.915L153.08 251.078s-12.087 6.353-29.743-2.625l92.766-173.292z" transform="translate(151)"/>
                    <path fill="#FBEBE7" d="M206.074 66.366c-12.774-7.858-25.459-15.839-38.056-23.942-12.598-8.103-25.099-16.373-37.503-24.809-5.77-3.937-11.541-7.902-17.312-11.892h1.847c10.715 7.403 21.509 14.719 32.382 21.947 12.492 8.26 25.08 16.4 37.766 24.415 7.038 4.498 14.172 8.943 21.404 13.336.501.341-.027 1.234-.528.945zM136.585 16.119L120.25 5.434l1.53-.236 34.31 22.446 43.097 28.195 24.306 15.909c.475.289 0 1.181-.528.866l-43.308-28.326-43.07-28.169z" style="mix-blend-mode:multiply" transform="translate(151)"/>
                    <path fill="#FFF" d="M235.764 93.275c-9.284 1.73-18.883.403-27.341-3.78l1.451-2.626c8.545 4.236 18.306 5.378 27.606 3.23l-1.716 3.176zM231.594 101.203c-9.326 1.871-19.013.654-27.579-3.465l1.452-2.625c8.66 4.128 18.498 5.122 27.816 2.809l-1.689 3.281z" transform="translate(151)"/>
                    <path fill="#BCADC7" d="M195.412 127.403L148.83 215.27c4.416 2.053 9.283 2.956 14.146 2.625l47.504-89.993c-5 .91-10.14.74-15.07-.499zM33.105 167.412c1.604-2.907.6-6.555-2.27-8.244l-1.98-1.155L94.624 37.068l2.111 1.26c1.456.857 3.201 1.085 4.83.63 1.62-.435 2.986-1.519 3.774-2.992l1.188-2.18 79.834 47.019-1.083 2.021c-1.596 2.906-.579 6.548 2.297 8.217l1.953 1.156L123.68 213.09l-2.138-1.26c-1.45-.846-3.182-1.074-4.803-.63-1.63.444-3.004 1.536-3.8 3.019l-1.162 2.153-79.754-46.966 1.082-1.995zm82.367 39.22c2.042-.58 4.213-.534 6.229.132l61.57-113.017c-3.06-2.798-4.248-7.089-3.06-11.052l-72.102-42.45c-1.395 1.588-3.232 2.73-5.278 3.282-2.04.604-4.214.604-6.255 0L35.11 156.464c3.059 2.812 4.254 7.102 3.088 11.079l71.97 42.476c1.397-1.62 3.241-2.797 5.304-3.386z" style="mix-blend-mode:multiply" transform="translate(151)"/>
                    <path fill="#FDD9E6" d="M115.71 171.9c6.563 15.93 14.686 31.177 24.253 45.523l-16.626 31.056L.67 181.142l99.733-178.99 2.639 1.76c-.679 2.078-1.251 4.19-1.716 6.326-1.662 7.561-2.982 15.227-3.985 22.893-2 15.711-2.618 31.567-1.847 47.385 1.466 31.384 8.302 62.288 20.216 91.385z" style="mix-blend-mode:multiply" transform="translate(151)"/>
                    <path fill="#FDD9E6" d="M171.105 159.221c6.308-3.544 12.51-7.272 18.474-11.262 10.291-6.735 20.065-14.22 29.242-22.394L153.08 251.078s-12.087 6.353-29.743-2.625l47.768-89.232z" style="mix-blend-mode:multiply" transform="translate(151)"/>
                </g>
            </g>
        </g>
        <g mask="url(#prefix__b)">
            <g transform="translate(-28)">
                <path fill="#ECE4DC" d="M0 1v123.868c178.236 44.678 487.423 31.112 927.563-40.697L1280 34.857V1L0 0"/>
                <path fill="#DFD3C2" d="M0 1v113.433c165.043 18.3 310.71 21.61 437 9.932C645.375 105.095 1013.586 32.063 1183.392 1"/>
                <circle cx="80" cy="41" r="22" fill="#FFF" opacity=".466"/>
                <circle cx="237" cy="89" r="26" fill="#FFF" opacity=".466"/>
                <circle cx="446" cy="37" r="26" fill="#FFF" opacity=".466"/>
                <circle cx="591.5" cy="55.5" r="10.5" fill="#FFF" opacity=".466"/>
                <circle cx="689.5" cy="47.5" r="10.5" fill="#FFF" opacity=".466"/>
                <circle cx="640" cy="29" r="16" fill="#FFF" opacity=".466"/>
                <circle cx="285" cy="41" r="16" fill="#FFF" opacity=".466"/>
            </g>
        </g>
        <g mask="url(#prefix__b)">
            <g fill-rule="nonzero">
                <path fill="#FFDFD4" d="M93.273 84.276s-41.404-3.414-68.588-1.48c1.376 2.35 2.61 4.777 3.698 7.272l64.89-5.792zM93.273 84.276s16.286-38.78 33.404-58.9c0 0 4.942 7.966 7.35 9.57l-40.754 49.33z" transform="rotate(180 263.5 73.5)"/>
                <path fill="#FFCBB2" d="M5.021 105.1c6.475-4.056 12.387-8.942 17.587-14.531l70.665-6.293 50.112-60.64c5.173-.643 10.235-1.975 15.053-3.96L94.677 86.813 5.021 105.1z" transform="rotate(180 263.5 73.5)"/>
                <path fill="url(#prefix__e)" d="M.114 106.113L85.296 88.44l61.307 110.026L59.663 213S30.494 154.69.115 106.113z" transform="rotate(180 263.5 73.5)"/>
                <path fill="url(#prefix__f)" d="M161.063 16.956l-60.064 62.768 61.308 110.027 58.317-65.92s-34.249-55.486-59.561-106.875z" transform="rotate(180 263.5 73.5)"/>
                <path fill="url(#prefix__g)" d="M85.296 88.44c5.656-2.084 10.956-5.023 15.715-8.716l61.296 110.027c-4.087 4.6-9.627 7.672-15.704 8.705L85.296 88.44z" transform="rotate(180 263.5 73.5)"/>
                <path fill="#BF9DA8" style="mix-blend-mode:multiply" d="M121.592 97.244L129.427 97.254 129.538 187.349 121.703 187.339z" transform="rotate(180 263.5 73.5) rotate(-29.05 125.565 142.297)"/>
                <path fill="#FFECE1" d="M118.928 84.447L163.208 39.066 188.761 84.913 142.94 127.54z" transform="rotate(180 263.5 73.5)"/>
                <path fill="#FDEEE9" d="M49.45 93.607c-11.812 1.74-23.635 3.47-35.47 5.086-.787.638-1.552 1.218-2.282 1.776 12.713-1.707 25.404-3.573 38.094-5.451.936-.137.582-1.548-.342-1.411zM129.508 47.43c8.602-8.141 16.661-16.835 24.125-26.025-.867.273-1.7.512-2.476.728-7.058 8.535-14.627 16.637-22.665 24.261-.673.649.342 1.684 1.016 1.036z" style="mix-blend-mode:multiply" transform="rotate(180 263.5 73.5)"/>
                <path fill="#F4CBD8" d="M59.664 212.999l86.94-14.532-16.982-30.474c-14.277-.705-28.531-1.547-42.317-5.211-30.334-8.068-55.316-28.926-79.225-49.216-2.465-2.094-4.93-4.187-7.315-6.395 30.151 48.35 58.899 105.828 58.899 105.828zM161.063 16.956l-.616.648c.867 2.447 3.058 5.508 3.891 7.386 1.335 3.004 2.557 6.053 3.71 9.103 2.453 6.577 4.564 13.28 6.493 20.028 6.493 22.622 11.241 46.063 9.906 69.561-1.29 22.759-8.776 45.78-23.966 62.837l1.78 3.209 58.317-65.92s-34.203-55.463-59.515-106.852z" style="mix-blend-mode:multiply" transform="rotate(180 263.5 73.5)"/>
                <g>
                    <path fill="#FF908F" d="M0 67.18L73.825 1.599 150.698 112.836 77.791 175.766z" transform="rotate(180 263.5 73.5) translate(301)"/>
                    <path fill="#FFBA96" d="M.716 67.797L72.544 4.36s7.003 1.963 16.145-1.882c0 0-62.443 54.936-69.022 61.32-6.58 6.386-16.72 9.573-18.95 3.998z" transform="rotate(180 263.5 73.5) translate(301)"/>
                    <path fill="url(#prefix__h)" d="M90.828 0.698L18.668 62.454 99.234 173.155 176.722 114.587z" transform="rotate(180 263.5 73.5) translate(301)"/>
                    <path fill="url(#prefix__i)" d="M18.668 62.464S4.036 70.52 0 67.18l79.113 110.69s8.91 3.198 20.121-4.715L18.668 62.465z" transform="rotate(180 263.5 73.5) translate(301)"/>
                    <path fill="#FBEBE7" d="M24.662 55.391c7.992-6.658 15.907-13.404 23.744-20.238s15.584-13.778 23.24-20.835c3.592-3.278 7.16-6.577 10.706-9.896-.434.08-.848.142-1.261.202C74.457 10.797 67.774 16.91 61.04 22.96c-7.73 6.955-15.543 13.805-23.441 20.551-4.44 3.798-8.9 7.566-13.38 11.303-.304.273.15.84.443.577zM67.387 13.873l10.091-8.975h-1.01L55.138 23.759 28.366 47.448 13.229 60.815c-.292.253.152.81.444.556l26.903-23.81 26.811-23.688z" style="mix-blend-mode:multiply" transform="rotate(180 263.5 73.5) translate(301)"/>
                    <path fill="#FFF" d="M6.963 76.904c6.531.288 12.979-1.566 18.365-5.282l-1.261-1.73c-5.443 3.754-12.015 5.5-18.598 4.937l1.494 2.075zM10.595 81.963c6.574.392 13.095-1.385 18.568-5.06l-1.262-1.73c-5.538 3.712-12.192 5.372-18.82 4.696l1.514 2.094z" transform="rotate(180 263.5 73.5) translate(301)"/>
                    <path fill="#FDD4E2" d="M37.972 96.534l40.515 56.1s-4.773 3.248-9.435 3.258L27.68 98.356c3.521.135 7.03-.486 10.293-1.822zM154.088 109.588l-50.06 40.253-1.01-1.386c-.69-.953-1.742-1.578-2.906-1.73-1.156-.155-2.324.174-3.23.91l-1.341 1.113-56.994-77.106 1.241-1.012c1.808-1.439 2.143-4.06.757-5.91l-.938-1.274 50.111-40.304 1.01 1.376c.694.945 1.744 1.562 2.906 1.71 1.16.147 2.331-.19 3.239-.93l1.332-1.013 56.933 77.147-1.231 1.012c-1.801 1.441-2.14 4.054-.767 5.91l.948 1.234zm-49.597 35.639l45.187-36.327c-1.204-2.627-.812-5.713 1.01-7.954L97.478 28.83c-2.707 1.305-5.926.888-8.214-1.063L44.017 64.144c1.199 2.628.808 5.71-1.01 7.953l53.28 72.067c2.701-1.317 5.922-.921 8.225 1.012l-.02.05z" style="mix-blend-mode:multiply" transform="rotate(180 263.5 73.5) translate(301)"/>
                    <path fill="#FDD9E6" d="M96.953 119.484c-2.91 11.653-6.967 22.988-12.109 33.838l14.43 19.833 77.488-58.568L90.818.698l-1.725 1.478c.71 1.357 1.347 2.752 1.907 4.179 1.89 5.08 3.548 10.23 4.975 15.451 2.921 10.657 4.91 21.55 5.943 32.553 2.05 21.833.372 43.858-4.965 65.125zM57.74 116.135c-4.662-1.791-9.304-3.815-13.804-5.95-7.699-3.659-15.119-7.88-22.2-12.629l57.377 80.314s8.91 3.198 20.121-4.715l-41.494-57.02z" style="mix-blend-mode:multiply" transform="rotate(180 263.5 73.5) translate(301)"/>
                </g>
            </g>
        </g>
        <g mask="url(#prefix__b)">
            <g>
                <path fill="#FF3757" fill-rule="nonzero" d="M144.306 97.232L.074 115.208l69.25 172.135 125.129-47.28s12.06 3.18 29.432-4.697c17.373-7.877 17.734-12.582 17.734-12.582l121.162-68.182L278.638 5.935 144.306 97.232z" transform="translate(414 214)"/>
                <path fill="#FF5069" fill-rule="nonzero" d="M146.137 99.322L5.09 116.896l66.5 166.398 122.387-47.542s11.494 3.033 28.11-4.492c16.617-7.525 16.921-12.009 16.921-12.009l115.703-65.149-80.343-141.954-128.23 87.174z" transform="translate(414 214)"/>
                <path fill="#FFAE86" fill-rule="nonzero" d="M215.142 228.809s-73.496 14.451-138.88 46.722c0 0-41.263-110.158-72.247-170.283 0 0 86.492-13.565 144.585-7.073l66.542 130.634z" transform="translate(414 214)"/>
                <path fill="#FFCBB2" fill-rule="nonzero" d="M215.142 228.809s54.711-46.132 127.845-82.576L265.814 4.238S181.153 51.5 148.6 98.15l66.542 130.659zM215.142 228.809S165.537 218.3 77.543 258.777c0 0-46.64-121.56-65.934-158.594 0 0 84.562-27.271 136.958-2.033l66.575 130.659z" transform="translate(414 214)"/>
                <path fill="#FDEEE9" fill-rule="nonzero" d="M215.142 228.809L148.6 98.15c-41.05-19.763-101.803-7.328-126.203-1l-.23.574s44.334 89.92 63.742 156.79l1.642-.18c81.722-35.238 127.59-25.525 127.59-25.525z" style="mix-blend-mode:multiply" transform="translate(414 214)"/>
                <path fill="#FFDFD4" fill-rule="nonzero" d="M215.142 228.809s27.79-44.632 115.21-87.904c0 0-49.26-84.936-76.188-139.348 0 0-72.88 44.321-105.597 96.585l66.575 130.667z" transform="translate(414 214)"/>
                <path fill="#FDEEE9" fill-rule="nonzero" d="M214.863 228.268c6.28-11.992 15.369-22.476 25.368-31.69 11.995-11.049 25.37-20.492 38.21-30.517 10.008-7.86 38.463-23.508 40.926-25.992-17.577-16.394-34.482-33.763-47.363-54.018-4.745-7.443-8.924-15.23-13.046-23.033-8.554-16.107-16.863-32.452-22.462-49.739-21.715 15.173-58.512 43.542-81.886 75.92-.205 3.377-.304 6.762-.23 10.148.099 4.041.417 8.075.952 12.082l59.53 116.839z" style="mix-blend-mode:multiply" transform="translate(414 214)"/>
                <path fill="#FFDFD4" fill-rule="nonzero" d="M215.142 228.809L148.6 98.15S98.88 64.797 25.886 87.305c0 0 39.826 81.068 63.873 156.406-.032 0 72.396-28.484 125.383-14.902z" transform="translate(414 214)"/>
                <path fill="#FFECE1" fill-rule="nonzero" d="M148.6 98.15s3.62-59.231 73.52-97.543c0 0 49.12 105.74 79.341 143.347 0 0-66.714 32.01-86.286 84.839L148.6 98.15z" transform="translate(414 214)"/>
                <g>
                    <path fill="#FDE9E2" fill-rule="nonzero" d="M87.264 75.19c-5.365-2-10.85-3.668-16.42-4.992-16.847-3.97-34.28-4.828-51.436-2.532-5.712.765-11.372 1.885-16.945 3.352-.698.18-1.387.369-2.085.566-.485.14-.222.885.27.746 5.513-1.549 11.118-2.748 16.782-3.59 16.978-2.528 34.277-1.933 51.041 1.754 5.566 1.218 11.05 2.784 16.42 4.688.681.238 1.355.484 2.036.738.468.156.813-.557.337-.73zM99.34 89.609c-6.136-1.449-12.343-2.584-18.595-3.402-6.229-.803-12.49-1.298-18.784-1.484-12.649-.37-25.302.541-37.766 2.722-6.193 1.08-12.326 2.478-18.374 4.188-.747.205-1.503.427-2.25.648-.484.148-.221.885.271.746 6.028-1.787 12.145-3.261 18.325-4.418 24.731-4.635 50.148-4.212 74.71 1.246l2.283.524c.492.123.632-.655.18-.77zM94.349 99.675c-26.354-3.867-53.25-1.448-78.487 7.057-.207.073-.315.298-.243.504.073.206.299.314.505.242 19.55-6.575 40.143-9.509 60.754-8.656 5.8.243 11.582.79 17.323 1.64.509.065.649-.714.148-.787zM105.95 114.978c-27.572-2.048-55.246 2.26-80.885 12.59-.468.197-.205.935.263.747 19.856-8.01 40.988-12.407 62.395-12.984 6.024-.165 12.053-.023 18.062.426.517.04.665-.738.164-.779zM114.48 132.897c-27.553-2.116-55.185 2.931-80.203 14.648-.46.213-.197.959.262.737 19.369-9.066 40.363-14.155 61.74-14.967 6.021-.237 12.052-.124 18.061.336.5.057.649-.713.14-.754zM117.14 146.47c-8.912.448-17.784 1.48-26.56 3.091-8.749 1.607-17.385 3.779-25.853 6.5-4.778 1.541-9.499 3.26-14.162 5.156-.468.189-.205.935.271.746 16.485-6.701 33.781-11.207 51.444-13.402 4.926-.623 9.898-1.057 14.917-1.303.218-.016.381-.205.365-.422-.015-.218-.205-.381-.422-.365zM214.017 108.413c-9.364 4.693-18.26 10.264-26.567 16.64-8.285 6.358-15.954 13.48-22.906 21.27-3.917 4.4-7.595 9.004-11.018 13.796-.295.41.312.918.608.508 15.566-21.78 36.21-39.447 60.146-51.477.451-.221.189-.95-.263-.737zM202.466 86.748c-17.441 9.948-33.092 22.74-46.304 37.845-3.728 4.263-7.247 8.694-10.558 13.296-.296.41.312.926.607.508 11.712-16.29 26.083-30.5 42.511-42.034 4.592-3.224 9.327-6.23 14.203-9.017.436-.205-.016-.852-.46-.598zM185.315 61.362c-16.01 11.774-30.046 26.012-41.583 42.182-3.235 4.535-6.262 9.202-9.08 14-.255.443.46.779.714.344 10.015-17.035 22.667-32.381 37.486-45.468 4.15-3.656 8.457-7.126 12.923-10.41.41-.304-.05-.951-.46-.648zM175.348 46.452c-7.257 6.558-14.214 13.424-20.87 20.599-6.655 7.175-12.95 14.64-18.882 22.394-3.35 4.372-6.585 8.82-9.705 13.344-.287.418.312.927.608.509 5.523-8.017 11.406-15.774 17.651-23.271 6.245-7.498 12.813-14.69 19.704-21.575 3.892-3.885 7.882-7.67 11.97-11.352.353-.337-.131-.984-.476-.648zM169.125 14.295c-4.851 2.255-9.532 4.857-14.006 7.788-4.485 2.948-8.753 6.21-12.775 9.762-4.004 3.542-7.757 7.357-11.231 11.418-3.487 4.087-6.68 8.415-9.556 12.951-2.868 4.534-5.4 9.271-7.578 14.173l-.821 1.82c-.197.467.517.82.714.344 4.152-9.81 9.705-18.968 16.486-27.19 6.767-8.23 14.666-15.463 23.464-21.483 4.93-3.368 10.127-6.326 15.541-8.845.501-.213.246-.959-.238-.738zM145.177.574c-6.998 5.033-13.358 10.895-18.94 17.46-5.585 6.555-10.364 13.754-14.237 21.442-2.168 4.314-4.039 8.77-5.599 13.337-.164.475.55.82.714.336 2.767-8.109 6.511-15.851 11.15-23.058 4.61-7.176 10.06-13.78 16.23-19.673 3.495-3.323 7.214-6.401 11.133-9.213.41-.287-.04-.935-.451-.631z" style="mix-blend-mode:multiply" transform="translate(414 214) translate(55.828 33.607)"/>
                </g>
                <path fill="#FDF6F3" fill-rule="nonzero" d="M148.6 98.15c-3.572-2.244-7.307-4.22-11.174-5.91-.04 2.123.575 4.648.682 6.148 1.072 14.723-.276 29.523-3.99 43.812-2.09 8.09-4.938 15.967-8.506 23.525-10.019 21.068-25.322 39.193-44.424 52.616 2.25 6.337 8.58 25.37 8.58 25.37 18.488-6.418 81.623-26.132 125.415-14.902L148.6 98.15z" style="mix-blend-mode:multiply" transform="translate(414 214)"/>
                <path fill="#FDF6F3" fill-rule="nonzero" d="M203.122 117.946c-11.433-3.416-22.536-7.849-33.176-13.247-5.32-2.705-10.52-5.65-15.599-8.836-1.716-1.082-3.432-2.148-5.016-3.377-.372 1.872-.647 3.763-.821 5.664l66.574 130.659c19.573-52.83 86.287-84.838 86.287-84.838-4.852-6.175-9.382-12.597-13.571-19.238-4.548.606-9.113 1.073-13.686 1.36-23.96 1.491-47.995-1.267-70.992-8.147z" style="mix-blend-mode:multiply" transform="translate(414 214)"/>
            </g>
        </g>
        <g mask="url(#prefix__b)">
            <g>
                <path fill="#D98D75" fill-rule="nonzero" d="M3.001 60.766L90.441 113.509 153.427 58.879 59.446 7.1z" transform="translate(485 97)"/>
                <path fill="#FFB48B" fill-rule="nonzero" d="M90.187 112.068l58.815-51.606c-.435-5.75-.275-11.527.478-17.243L92.048 92.39s-7.08 7.009-1.861 19.677z" transform="translate(485 97)"/>
                <path fill="#FF8650" fill-rule="nonzero" d="M58.795 0.213L1.597 40.612 92.048 92.381 151.047 41.87z" transform="translate(485 97)"/>
                <path fill="#FF8555" fill-rule="nonzero" d="M1.597 40.571S-1.8 51.404 3.052 60.766l87.48 52.743s-2.665-12.74 1.608-21.128L1.597 40.571z" transform="translate(485 97)"/>
                <g>
                    <path fill="#FBEBE7" fill-rule="nonzero" d="M19.47 40.49c-3.48 2.84-6.965 5.66-10.457 8.46-.265.202.101.578.356.365C15.649 44.29 21.88 39.219 28.065 34.1c6.185-5.118 12.305-10.258 18.36-15.417 3.297-2.806 6.582-5.63 9.858-8.47v-.658c-6.063 5.26-12.166 10.477-18.31 15.65C31.829 30.378 25.66 35.473 19.47 40.49zM56.374.73c-2.492 2.12-4.984 4.25-7.497 6.35-6.103 5.152-12.257 10.25-18.462 15.295-3.465 2.84-6.951 5.66-10.457 8.46-.254.202.102.567.366.364 6.266-5.017 12.495-10.088 18.686-15.214 5.805-4.808 11.57-9.652 17.293-14.535.04-.243.061-.436.071-.72zM45.287 14.14c-5.54 4.929-11.2 9.72-16.978 14.372-5.778 4.652-11.654 9.145-17.628 13.48-3.39 2.454-6.809 4.861-10.254 7.221-.274.183 0 .629.255.446 6.144-4.199 12.179-8.55 18.106-13.053 5.927-4.504 11.722-9.136 17.384-13.896 3.194-2.705 6.355-5.44 9.48-8.206.245-.213-.121-.588-.365-.365z" style="mix-blend-mode:multiply" transform="translate(485 97) translate(92.567 47.671)"/>
                </g>
                <path fill="#F6E2DB" fill-rule="nonzero" style="mix-blend-mode:multiply" d="M50.861 5.822L145.31 46.779 126.613 62.784 33.243 18.267z" transform="translate(485 97)"/>
                <path fill="#F6E2DB" fill-rule="nonzero" d="M64.553 97.899l10.843 6.572c.362-6.657 1.498-13.25 3.388-19.646l-10.091-5.772c-2.011 6.128-3.398 12.441-4.14 18.846z" transform="translate(485 97)"/>
                <path fill="#F6E2DB" fill-rule="nonzero" d="M64.553 97.899l10.843 6.572c.362-6.657 1.498-13.25 3.388-19.646l-10.091-5.772c-2.011 6.128-3.398 12.441-4.14 18.846zM12.95 47.103c-1.88 5.791-2.85 11.837-2.88 17.923l11.576 6.988c.01-.44-.01-.88-.06-1.318-.727-5.985-.267-12.054 1.352-17.862l-9.989-5.73z" transform="translate(485 97)"/>
                <path fill="#FBEBE7" fill-rule="nonzero" d="M93.299 101.013L100.918 94.542 115.342 104.208 105.658 105.334 108.141 112.616z" transform="translate(485 97)"/>
                <path fill="#F7EBE8" fill-rule="nonzero" d="M92.048 92.381l58.999-50.511L62.345 1.816c4.704 6.94 8.788 14.277 12.207 21.928 2.252 5.097 4.092 10.364 5.503 15.752 3.784 14.778 3.713 30.865-1.851 44.974l13.844 7.911z" style="mix-blend-mode:multiply" transform="translate(485 97)"/>
                <path fill="#F7EBE8" fill-rule="nonzero" d="M90.44 113.509s-2.664-12.74 1.608-21.128L60.768 74.48c-2.593 0-5.197-.081-7.791-.233-9.145-.528-18.222-1.886-27.12-4.057-5.355-1.415-10.62-3.149-15.766-5.194l80.35 48.514z" style="mix-blend-mode:multiply" transform="translate(485 97)"/>
            </g>
        </g>
        <g>
            <path fill="#C62A84" fill-rule="nonzero" d="M122.328 50.04h-12.104l-2.304 5.6h-6.184l11.616-26.04h5.96l11.648 26.024h-6.328l-2.304-5.584zm-1.904-4.576l-4.128-9.976-4.136 9.976h8.264zM150.184 36.584c1.514.84 2.76 2.09 3.592 3.608.896 1.66 1.345 3.523 1.304 5.408.044 1.888-.406 3.755-1.304 5.416-.832 1.52-2.077 2.774-3.592 3.616-1.553.863-3.304 1.304-5.08 1.28-2.265.12-4.469-.757-6.032-2.4v9.336h-5.808V35.6h5.552v2.304c1.44-1.739 3.536-2.608 6.288-2.608 1.777-.021 3.528.423 5.08 1.288zm-2.4 13.064c.987-1.11 1.495-2.565 1.416-4.048.062-1.469-.452-2.904-1.432-4-2.034-2.006-5.302-2.006-7.336 0-.98 1.096-1.494 2.531-1.432 4-.073 1.483.442 2.934 1.432 4.04 2.03 2.014 5.306 2.014 7.336 0l.016.008zM167.312 36.04c1.294-.518 2.679-.771 4.072-.744v5.36c-.648-.048-1.08-.072-1.304-.072-1.438-.084-2.848.421-3.904 1.4-1.01 1.148-1.508 2.66-1.376 4.184v9.456h-5.808v-20h5.544v2.64c.699-.987 1.66-1.757 2.776-2.224zM194.168 47.248h-15.152c.242 1.194.935 2.249 1.936 2.944 1.122.749 2.452 1.124 3.8 1.072.943.018 1.882-.139 2.768-.464.843-.33 1.61-.829 2.256-1.464l3.088 3.344c-1.888 2.16-4.643 3.24-8.264 3.24-2.074.041-4.128-.411-5.992-1.32-1.654-.817-3.041-2.088-4-3.664-.963-1.611-1.459-3.459-1.432-5.336-.026-1.862.455-3.695 1.392-5.304.912-1.558 2.238-2.832 3.832-3.68 1.676-.899 3.554-1.356 5.456-1.328 1.852-.027 3.68.41 5.32 1.272 1.572.82 2.872 2.08 3.744 3.624.931 1.68 1.4 3.576 1.36 5.496 0 .08-.04.6-.112 1.568zm-13.6-6.44c-.898.782-1.469 1.873-1.6 3.056h9.832c-.14-1.176-.71-2.259-1.6-3.04-.916-.764-2.08-1.168-3.272-1.136-1.213-.049-2.402.346-3.344 1.112l-.016.008zM216.336 37.528c1.525 1.499 2.288 3.71 2.288 6.632v11.464H212.8V45.048c.1-1.271-.27-2.535-1.04-3.552-.769-.804-1.85-1.233-2.96-1.176-1.305-.062-2.576.432-3.496 1.36-.938 1.113-1.406 2.548-1.304 4v9.944h-5.808v-20h5.544v2.344c.782-.86 1.747-1.532 2.824-1.968 1.198-.467 2.474-.7 3.76-.688 2.222-.103 4.392.696 6.016 2.216zM244.496 28v27.624h-5.544v-2.312c-1.44 1.744-3.528 2.608-6.256 2.608-1.787.023-3.55-.412-5.12-1.264-1.512-.837-2.752-2.09-3.576-3.608-.897-1.67-1.346-3.545-1.304-5.44-.042-1.893.407-3.764 1.304-5.432.826-1.523 2.073-2.775 3.592-3.608 1.569-.857 3.332-1.295 5.12-1.272 2.254-.128 4.45.751 5.992 2.4V28h5.792zm-7.144 21.648c1.002-1.103 1.523-2.56 1.448-4.048.062-1.472-.458-2.909-1.448-4-2.034-2.006-5.302-2.006-7.336 0-.993 1.09-1.516 2.527-1.456 4-.07 1.487.453 2.94 1.456 4.04 2.03 2.014 5.306 2.014 7.336 0v.008zM269.36 47.248h-15.152c.242 1.194.935 2.249 1.936 2.944 1.122.749 2.452 1.124 3.8 1.072.946.018 1.887-.14 2.776-.464.84-.333 1.604-.83 2.248-1.464l3.088 3.344c-1.877 2.16-4.632 3.24-8.264 3.24-2.074.041-4.128-.411-5.992-1.32-1.655-.816-3.042-2.087-4-3.664-.963-1.612-1.458-3.459-1.432-5.336-.026-1.862.455-3.695 1.392-5.304.915-1.558 2.244-2.832 3.84-3.68 3.374-1.75 7.384-1.772 10.776-.056 1.568.823 2.865 2.082 3.736 3.624.935 1.678 1.405 3.576 1.36 5.496 0 .08-.032.6-.112 1.568zm-13.6-6.44c-.913.775-1.499 1.867-1.64 3.056H264c-.134-1.185-.705-2.277-1.6-3.064-.916-.764-2.08-1.168-3.272-1.136-1.219-.044-2.411.36-3.352 1.136l-.016.008zM303.384 47.248h-15.152c.242 1.194.935 2.249 1.936 2.944 1.122.749 2.452 1.124 3.8 1.072.946.018 1.887-.14 2.776-.464.84-.333 1.604-.83 2.248-1.464l3.088 3.344c-1.888 2.16-4.643 3.24-8.264 3.24-2.074.041-4.128-.411-5.992-1.32-1.656-.814-3.045-2.085-4-3.664-.96-1.612-1.453-3.46-1.424-5.336-.026-1.862.455-3.695 1.392-5.304.914-1.556 2.24-2.83 3.832-3.68 3.376-1.746 7.385-1.764 10.776-.048 1.568.823 2.865 2.082 3.736 3.624.931 1.68 1.4 3.576 1.36 5.496 0 .072-.04.592-.112 1.56zm-13.6-6.44c-.913.775-1.499 1.867-1.64 3.056h9.864c-.14-1.176-.71-2.259-1.6-3.04-.916-.764-2.08-1.168-3.272-1.136-1.21-.047-2.396.348-3.336 1.112l-.016.008zM325.552 37.528c1.53 1.499 2.293 3.71 2.288 6.632v11.464h-5.808V45.048c.1-1.271-.27-2.535-1.04-3.552-.782-.82-1.886-1.25-3.016-1.176-1.305-.062-2.576.432-3.496 1.36-.938 1.113-1.406 2.548-1.304 4v9.944h-5.808v-20h5.544v2.344c.795-.866 1.777-1.54 2.872-1.968 1.198-.469 2.474-.702 3.76-.688 2.22-.102 4.386.698 6.008 2.216zM349.304 54.336c-2.1-1.1-3.853-2.762-5.064-4.8-2.465-4.298-2.465-9.582 0-13.88 1.216-2.034 2.967-3.695 5.064-4.8 2.23-1.173 4.72-1.767 7.24-1.728 2.1-.03 4.184.376 6.12 1.192 1.783.762 3.359 1.935 4.6 3.424l-3.872 3.576c-1.603-1.966-4.016-3.091-6.552-3.056-1.508-.028-2.997.339-4.32 1.064-1.247.687-2.273 1.713-2.96 2.96-1.407 2.705-1.407 5.927 0 8.632.69 1.245 1.715 2.27 2.96 2.96 1.324.722 2.812 1.088 4.32 1.064 2.544.03 4.96-1.111 6.552-3.096l3.872 3.576c-1.237 1.51-2.82 2.699-4.616 3.464-1.945.814-4.036 1.22-6.144 1.192-2.509.035-4.985-.565-7.2-1.744zM385.984 37.512c1.664 1.483 2.496 3.71 2.496 6.68v11.432h-5.432v-2.496c-1.099 1.867-3.133 2.797-6.104 2.792-1.376.03-2.742-.243-4-.8-1.05-.455-1.947-1.202-2.584-2.152-.602-.931-.914-2.02-.896-3.128-.067-1.722.72-3.365 2.104-4.392 1.4-1.072 3.568-1.6 6.496-1.6h4.616c.07-1.099-.353-2.171-1.152-2.928-.991-.752-2.223-1.116-3.464-1.024-1.068 0-2.13.17-3.144.504-.948.294-1.837.755-2.624 1.36l-2.088-4.056c1.197-.817 2.526-1.423 3.928-1.792 1.535-.42 3.12-.632 4.712-.632 3.096.016 5.472.76 7.136 2.232zm-4.952 13.808c.757-.463 1.324-1.18 1.6-2.024v-2.048h-4c-2.4 0-3.568.8-3.568 2.344-.01.71.342 1.377.936 1.768.71.468 1.55.698 2.4.656.925.015 1.836-.225 2.632-.696zM395.592 55.304c-1.342-.304-2.626-.825-3.8-1.544l1.936-4.16c.993.619 2.071 1.09 3.2 1.4 1.209.35 2.461.531 3.72.536 2.459 0 3.688-.608 3.688-1.824-.015-.591-.43-1.096-1.008-1.224-1.004-.322-2.039-.536-3.088-.64-1.37-.188-2.726-.474-4.056-.856-1.061-.314-2.02-.905-2.776-1.712-.834-.966-1.254-2.222-1.168-3.496-.012-1.224.388-2.416 1.136-3.384.826-1.053 1.937-1.846 3.2-2.288 1.591-.575 3.277-.847 4.968-.8 1.42.003 2.837.159 4.224.464 1.22.243 2.395.677 3.48 1.288l-1.936 4.136c-1.757-.998-3.747-1.514-5.768-1.496-.96-.058-1.92.124-2.792.528-.54.23-.901.75-.928 1.336-.007.616.41 1.156 1.008 1.304 1.043.333 2.114.568 3.2.704 1.35.212 2.686.506 4 .88 1.043.304 1.984.888 2.72 1.688.815.948 1.229 2.176 1.152 3.424.015 1.194-.374 2.359-1.104 3.304-.854 1.042-1.986 1.822-3.264 2.248-1.632.57-3.352.84-5.08.8-1.641.005-3.276-.203-4.864-.616zM428.72 37.512c1.653 1.483 2.48 3.71 2.48 6.68v11.432h-5.44v-2.496c-1.067 1.867-3.101 2.797-6.104 2.792-1.376.03-2.742-.243-4-.8-1.05-.455-1.947-1.202-2.584-2.152-.602-.931-.914-2.02-.896-3.128-.067-1.722.72-3.365 2.104-4.392 1.4-1.072 3.568-1.6 6.496-1.6h4.616c.07-1.099-.353-2.171-1.152-2.928-.988-.74-2.21-1.097-3.44-1.008-1.068 0-2.13.17-3.144.504-.949.293-1.838.753-2.624 1.36l-2.088-4.056c1.197-.817 2.526-1.423 3.928-1.792 1.535-.42 3.12-.632 4.712-.632 3.088 0 5.472.744 7.136 2.216zm-4.952 13.808c.755-.465 1.321-1.182 1.6-2.024v-2.048h-4c-2.384 0-3.576.781-3.576 2.344-.022.7.309 1.363.88 1.768.708.473 1.55.703 2.4.656.946.028 1.881-.214 2.696-.696z" transform="translate(45 179)"/>
            <g stroke-width=".5">
                <path stroke="#C62A84" d="M33.752 20.288L.752.192M33.56 21.112L.56 1.024" transform="translate(45 179) translate(45.6 7.2)"/>
                <path stroke="#FFF" d="M35.488 44.624L2.48 24.536" opacity=".2" transform="translate(45 179) translate(45.6 7.2)"/>
            </g>
            <path stroke="#C62A84" stroke-width=".808" d="M42.016 7.312L43.512 4.856 79.04 25.832 77.168 28.712z" transform="translate(45 179)"/>
            <g stroke-width=".5">
                <path stroke="#C62A84" d="M1.992 20.288L35 .192M2.184 21.112L35.192 1.024" transform="translate(45 179) translate(3.2 7.2)"/>
                <path stroke="#FFF" d="M0.264 44.624L33.264 24.536" opacity=".2" transform="translate(45 179) translate(3.2 7.2)"/>
            </g>
            <path stroke="#C62A84" stroke-width=".808" d="M42.536 7.312L41.04 4.856 5.464 25.872 7.384 28.712z" transform="translate(45 179)"/>
            <path fill="#C62A84" fill-rule="nonzero" d="M38.776 7.2c.8.8 1.512 1.896 3.496 1.784 1.372-.047 2.653-.7 3.496-1.784l36.72 21.04 2.064-3.568L44.664 1.448c-1.481-.873-3.319-.873-4.8 0L0 24.64l2.056 3.568L38.776 7.2zM56.192 55.648c-5.474-.009-9.908-4.446-9.912-9.92 0-.406.024-.812.072-1.216l.616.072c-.048.38-.072.762-.072 1.144-.033 3.456 1.853 6.645 4.897 8.282 3.044 1.637 6.744 1.452 9.609-.48 2.865-1.933 4.423-5.295 4.046-8.73l.616-.064c0 .336.048.672.048 1.016-.018 5.467-4.453 9.892-9.92 9.896z" transform="translate(45 179)"/>
            <path fill="#C62A84" fill-rule="nonzero" d="M66.576 42.568l.8-3.12c.018-.075-.003-.154-.057-.209-.054-.055-.132-.079-.207-.063l-.856.224c-.066.014-.135-.001-.187-.043-.053-.042-.084-.106-.085-.173v-4.288c.001-.07-.032-.138-.09-.18-.057-.041-.131-.052-.198-.028l-1.48.512c-.097.033-.204-.007-.256-.096l-1.56-2.592c-.045-.087-.145-.13-.24-.104l-1.648.456c-.08.017-.162-.01-.216-.072l-1.816-2.088c-.069-.077-.181-.096-.272-.048l-2.4 1.392c-.073.049-.167.049-.24 0l-1.04-.872c-.04-.042-.094-.066-.152-.066-.058 0-.113.024-.152.066l-1.104 1.352c-.04.05-.1.08-.164.08s-.125-.03-.164-.08l-1.28-1.472c-.048-.056-.12-.084-.193-.074-.073.01-.136.056-.167.122l-1.296 2.776c-.04.093-.141.144-.24.12l-1.392-.304c-.06-.014-.124-.001-.173.036-.05.037-.08.094-.083.156l-.264 2.528c-.006.067-.042.127-.099.163-.056.036-.126.044-.189.021l-.88-.336c-.077-.032-.166-.016-.228.04-.061.057-.085.144-.06.224l.568 2.4c.024.097-.018.198-.104.248l-1.232.728c-.1.059-.137.184-.088.288l.88 1.904c.029.057.031.123.007.182-.025.058-.074.103-.135.122l-.624.2c-.113.041-.174.165-.136.28l.872 2.632c.004.024.004.048 0 .072 0 .096 0 .384.232.376 0 0 .272.184.432.304.076.056.18.056.256 0l.936-.744c.064-.052.095-.135.08-.216l-.656-3.56c-.019-.08.009-.163.071-.215.063-.053.15-.065.225-.033l.616.256c.062.051.148.063.222.03.074-.031.124-.102.13-.182l.408-1.76c.013-.06.05-.112.104-.143.054-.03.118-.037.176-.017l1.6.544c.067.02.139.008.195-.033.057-.04.09-.105.093-.175v-1.4c.003-.082.05-.156.124-.193.073-.036.16-.03.228.017l.8.592c.093.068.224.05.296-.04l1.576-1.984c.039-.057.103-.091.172-.091.069 0 .133.034.172.091l.984 1.496c.04.064.109.103.184.103s.145-.04.184-.103l.872-1.408c.04-.067.113-.109.192-.109s.152.042.192.109l.8 1.664c.038.068.11.11.188.11s.15-.042.188-.11l.88-1.344c.038-.068.11-.11.188-.11s.15.042.188.11l1.136 2.4c.023.054.066.096.12.117.055.02.115.019.168-.005l2.112-.968c.07-.03.15-.022.212.02.063.042.1.112.1.188l.16 1.6c-.002.076.035.147.1.188.063.041.144.046.212.012l.536-.264c.07-.03.152-.022.216.022.063.044.1.117.096.194l-.072 1.048c-.004.06.016.12.057.166.04.045.098.072.159.074.067 0 .13.032.173.085.042.052.057.121.043.187l-.768 3.12c-.023.056-.023.12 0 .176l.456.72c.04.06.108.097.18.097s.14-.037.18-.097l2.232-3.2c.046-.064.054-.147.023-.219-.03-.072-.097-.122-.175-.133l-.704-.088c-.062-.012-.116-.051-.147-.107-.03-.055-.035-.122-.013-.181zM56.536 52.624c-1.615-.073-3.17-.63-4.464-1.6-.1-.076-.121-.218-.048-.32.079-.101.223-.122.328-.048 1.221.892 2.674 1.412 4.184 1.496 1.498-.086 2.94-.602 4.152-1.488.049-.039.11-.056.172-.049.062.008.118.04.156.089.085.09.085.23 0 .32-1.297.975-2.859 1.533-4.48 1.6z" transform="translate(45 179)"/>
            <path fill="#C62A84" fill-rule="nonzero" d="M53.992 46.288c0 .616-.36 1.112-.8 1.112-.44 0-.8-.496-.8-1.112 0-.616.36-1.12.8-1.12.44 0 .8.504.8 1.12zM60.656 46.288c0 .616-.36 1.112-.8 1.112-.44 0-.8-.496-.8-1.112 0-.616.36-1.12.8-1.12.44 0 .8.504.8 1.12z" transform="translate(45 179)"/>
            <path fill="#C72A85" fill-rule="nonzero" d="M40.4 41.552v-.592c-.408-5.136-5.848-9.16-11.2-9.16-5.668-.02-10.516 4.067-11.456 9.656l.6.512 1.992-.984s4-1.976 6.528-1.992c0 0 5.448 5.304 11.696 3.84l1.344-1.392.496.112z" transform="translate(45 179)"/>
            <path fill="#C72A85" fill-rule="nonzero" d="M41.192 52.32c1.28-8.64-.8-10.864-.8-10.864l-4.08-1.52c-1.862-2.36-4.722-3.712-7.728-3.652-3.005.06-5.81 1.524-7.576 3.956l-3.264 1.216s-2.088 2.224-.8 10.864c0 0 .8 2.184-2.032 2.648 0 0 3.48 5.048 7.368-1.936 3.82 3.496 9.723 3.333 13.344-.368.072.136.136.264.216.4 3.904 6.936 7.36 1.904 7.36 1.904-2.84-.464-2.008-2.648-2.008-2.648zM28.8 54.928c-3.653.013-6.953-2.177-8.36-5.548-1.407-3.371-.643-7.258 1.936-9.846 2.578-2.587 6.462-3.365 9.838-1.97 3.376 1.395 5.578 4.687 5.578 8.34-.004 4.97-4.023 9.002-8.992 9.024z" transform="translate(45 179)"/>
            <path fill="#C72A85" fill-rule="nonzero" d="M26.64 46.44c0 .6-.352 1.088-.8 1.088-.448 0-.8-.488-.8-1.088 0-.6.352-1.08.8-1.08.448 0 .8.488.8 1.08zM33.104 46.44c0 .6-.352 1.088-.8 1.088-.448 0-.8-.488-.8-1.088 0-.6.352-1.08.8-1.08.448 0 .8.488.8 1.08zM29.096 52.592c-1.552-.087-3.044-.623-4.296-1.544-.097-.078-.115-.22-.04-.32.04-.043.097-.067.156-.067s.115.024.156.067c1.184.863 2.593 1.366 4.056 1.448 1.446-.082 2.836-.585 4-1.448.042-.043.1-.067.16-.067s.118.024.16.067c.074.097.056.236-.04.312-1.249.939-2.751 1.48-4.312 1.552z" transform="translate(45 179)"/>
            <path fill="#C62A84" fill-rule="nonzero" d="M-9.06 44.98H28.171999999999997V53.132H-9.06z" transform="translate(45 179) rotate(-90 9.556 49.056)"/>
            <g fill="#FFF" fill-rule="nonzero" opacity=".5">
                <path d="M4.568 23.8H6.847999999999999V34.496H4.568z" transform="translate(45 179) translate(4 32) rotate(-90 5.708 29.148)"/>
                <path d="M4.216 27.408H6.496V38.104H4.216z" transform="translate(45 179) translate(4 32) rotate(-90 5.356 32.756)"/>
                <path d="M4.568 -3.936H6.847999999999999V6.76H4.568z" transform="translate(45 179) translate(4 32) rotate(-90 5.708 1.412)"/>
                <path d="M4.208 -0.328H6.4879999999999995V10.368H4.208z" transform="translate(45 179) translate(4 32) rotate(-90 5.348 5.02)"/>
            </g>
            <path fill="#C62A84" fill-rule="nonzero" d="M56.372 44.98H93.604V53.132H56.372z" transform="translate(45 179) rotate(-90 74.988 49.056)"/>
            <g fill="#FFF" fill-rule="nonzero" opacity=".5">
                <path d="M5.2 23.8H7.48V34.496H5.2z" transform="translate(45 179) translate(68.8 32) rotate(-90 6.34 29.148)"/>
                <path d="M4.84 27.408H7.119999999999999V38.104H4.84z" transform="translate(45 179) translate(68.8 32) rotate(-90 5.98 32.756)"/>
                <path d="M5.2 -3.928H7.48V6.768H5.2z" transform="translate(45 179) translate(68.8 32) rotate(-90 6.34 1.42)"/>
                <path d="M4.84 -0.328H7.119999999999999V10.368H4.84z" transform="translate(45 179) translate(68.8 32) rotate(-90 5.98 5.02)"/>
            </g>
        </g>
    </g>
</svg>
