<svg xmlns="http://www.w3.org/2000/svg" xmlns:xlink="http://www.w3.org/1999/xlink" viewBox="0 0 730.39 400"><defs><style>.cls-1{fill:#9b2446;}.cls-2,.cls-86{fill:#fac17e;}.cls-3{fill:#08030e;}.cls-4,.cls-8{fill:#d26e1f;stroke:#935b18;}.cls-10,.cls-111,.cls-12,.cls-21,.cls-24,.cls-25,.cls-26,.cls-27,.cls-28,.cls-29,.cls-30,.cls-32,.cls-33,.cls-36,.cls-37,.cls-38,.cls-39,.cls-4,.cls-40,.cls-41,.cls-42,.cls-43,.cls-44,.cls-47,.cls-49,.cls-50,.cls-54,.cls-6,.cls-62,.cls-64,.cls-65,.cls-67,.cls-7,.cls-70,.cls-71,.cls-8,.cls-9,.cls-91,.cls-93,.cls-94,.cls-95,.cls-96{stroke-miterlimit:10;}.cls-31,.cls-36,.cls-4,.cls-47,.cls-59,.cls-6,.cls-68{stroke-width:0.3px;}.cls-5{fill:#909e88;}.cls-27,.cls-41,.cls-6{fill:#fcfe0e;}.cls-6{stroke:#e0da0b;}.cls-7{fill:#62300f;stroke:#421d09;}.cls-49,.cls-50,.cls-60,.cls-61,.cls-62,.cls-63,.cls-7{stroke-width:0.4px;}.cls-111,.cls-12,.cls-21,.cls-32,.cls-33,.cls-37,.cls-38,.cls-39,.cls-40,.cls-41,.cls-42,.cls-43,.cls-44,.cls-51,.cls-56,.cls-58,.cls-64,.cls-8,.cls-9{stroke-width:0.5px;}.cls-9{fill:#7fc41c;stroke:#72a813;}.cls-10,.cls-11{fill:#fefffe;}.cls-10{stroke:#aaa;stroke-width:0.2px;}.cls-101,.cls-111,.cls-12,.cls-24,.cls-35,.cls-39,.cls-47,.cls-54,.cls-56,.cls-58,.cls-59,.cls-67,.cls-69,.cls-70,.cls-71,.cls-94,.cls-96,.cls-97{fill:none;}.cls-12{stroke:#030100;}.cls-13{fill:#030100;}.cls-14{fill:#480300;}.cls-15{fill:#c0010a;}.cls-16{fill:#26130c;}.cls-17{font-size:12px;fill:#762ab4;}.cls-112,.cls-113,.cls-117,.cls-17,.cls-78,.cls-79,.cls-81,.cls-82,.cls-83,.cls-86{font-family:Arial-BoldMT, Arial;font-weight:700;}.cls-18{letter-spacing:-0.04em;}.cls-19{letter-spacing:-0.02em;}.cls-20,.cls-28,.cls-64{fill:#fcff04;}.cls-21,.cls-65,.cls-66{fill:#ff330e;}.cls-101,.cls-21,.cls-25,.cls-26,.cls-29,.cls-30,.cls-31,.cls-32,.cls-33,.cls-37,.cls-38,.cls-39,.cls-40,.cls-41,.cls-42,.cls-43,.cls-44,.cls-49,.cls-50,.cls-51,.cls-54,.cls-58,.cls-60,.cls-62,.cls-63,.cls-87,.cls-88,.cls-89,.cls-93,.cls-94,.cls-95,.cls-96{stroke:#2d4712;}.cls-22{font-size:18.44px;}.cls-22,.cls-23{fill:#fffffc;}.cls-22,.cls-23,.cls-72,.cls-73{font-family:OPTIAltoGreeting-Script, OPTIAltoGreeting Script;}.cls-23{font-size:15.18px;}.cls-24{stroke:#7a0a5c;}.cls-25{fill:#ffa05e;}.cls-26,.cls-53{fill:#9d620f;}.cls-27,.cls-28,.cls-46,.cls-47,.cls-48,.cls-64{stroke:#069fc3;}.cls-29,.cls-37,.cls-60{fill:#f51401;}.cls-101,.cls-29,.cls-30,.cls-90,.cls-91,.cls-93,.cls-96{stroke-width:0.4px;}.cls-106,.cls-107,.cls-109,.cls-112,.cls-113,.cls-117,.cls-30,.cls-31,.cls-33,.cls-61,.cls-63{fill:#fff;}.cls-101,.cls-31,.cls-35,.cls-46,.cls-48,.cls-51,.cls-56,.cls-58,.cls-59,.cls-60,.cls-61,.cls-63,.cls-68,.cls-69,.cls-87,.cls-88,.cls-89,.cls-90,.cls-92,.cls-97{stroke-linecap:round;stroke-linejoin:round;}.cls-32{fill:#533c10;}.cls-34{fill:#f4fef6;}.cls-35{stroke:#e1023b;}.cls-36{stroke:#377d9c;fill:url(#Degradado_sin_nombre_4);}.cls-38{fill:#ccc;}.cls-40{fill:#85027b;}.cls-42{fill:#81c122;}.cls-43{fill:#45a82b;}.cls-44{fill:#956614;}.cls-45{fill:#010300;}.cls-46,.cls-48{fill:#e1023b;}.cls-46{stroke-width:1.4px;}.cls-49{fill:#42a82a;}.cls-50{fill:#ff7e06;}.cls-51{fill:#ffed87;}.cls-52{fill:#fd3606;}.cls-55{fill:#040303;}.cls-56,.cls-59,.cls-68{stroke:#040303;}.cls-57{fill:#bc8847;}.cls-61{stroke:#08030e;}.cls-62{fill:#fffffb;}.cls-65{stroke:#df5e1c;}.cls-65,.cls-87,.cls-88,.cls-89,.cls-92,.cls-94,.cls-95{stroke-width:0.3px;}.cls-67{stroke:#000;}.cls-68{fill:#fe590b;}.cls-69,.cls-70,.cls-71{stroke:#fe590b;}.cls-71{stroke-dasharray:4.6 4.6;}.cls-72{font-size:24.42px;}.cls-72,.cls-73{fill:#7f0560;}.cls-73{font-size:27.92px;}.cls-117,.cls-74,.cls-83{font-size:14px;}.cls-103,.cls-74{fill:#88274a;}.cls-107,.cls-109,.cls-116,.cls-74{font-family:Arial-Black, Arial;font-weight:800;}.cls-74{letter-spacing:0.1em;}.cls-75{letter-spacing:0.08em;}.cls-76{letter-spacing:0.09em;}.cls-77{letter-spacing:0.1em;}.cls-78{font-size:10.69px;letter-spacing:0.08em;}.cls-102,.cls-78,.cls-79,.cls-81,.cls-82{fill:#67308c;}.cls-79{font-size:11.49px;letter-spacing:0.08em;}.cls-80{letter-spacing:0.06em;}.cls-81,.cls-82{font-size:9.78px;}.cls-81{letter-spacing:0.08em;}.cls-82{letter-spacing:0.08em;}.cls-83{fill:#0a3e3c;letter-spacing:0.01em;}.cls-84{letter-spacing:-0.02em;}.cls-85{fill:#153628;}.cls-86{font-size:7.31px;letter-spacing:0.01em;}.cls-87,.cls-93,.cls-95{fill:#fbca7e;}.cls-88{fill:#f2f6ec;}.cls-89{fill:#549fc2;}.cls-90{fill:#c7196d;stroke:#9b1353;}.cls-91,.cls-92{fill:#0b0146;stroke:#05012b;}.cls-97{stroke:#26130c;}.cls-98{fill:#fa9f82;}.cls-99{fill:#4d0107;}.cls-100{fill:#161d48;}.cls-104{fill:#34b764;}.cls-105{fill:#0e4f42;}.cls-107{font-size:5.5px;}.cls-108{letter-spacing:-0.07em;}.cls-109{font-size:5.11px;}.cls-110{letter-spacing:-0.05em;}.cls-111{stroke:#fff;}.cls-112{font-size:17.84px;}.cls-113{font-size:9px;}.cls-114{letter-spacing:-0.07em;}.cls-115{letter-spacing:-0.02em;}.cls-118{letter-spacing:-0.07em;}.cls-119,.cls-120{font-family:ArialMT, Arial;font-weight:400;}.cls-120{letter-spacing:-0.06em;}</style><linearGradient id="Degradado_sin_nombre_4" x1="272.43" y1="131" x2="291.21" y2="131" gradientUnits="userSpaceOnUse"><stop offset="0" stop-color="#6dadd7"/><stop offset="1" stop-color="#d8e6f3"/></linearGradient></defs><title>banner dia del niño2</title><g id="Capa_7" data-name="Capa 7"><rect class="cls-1" width="730.39" height="400"/><rect class="cls-2" x="20.32" y="20.34" width="689.36" height="359.32"/></g><g id="Capa_2" data-name="Capa 2"><ellipse class="cls-3" cx="182.32" cy="238.27" rx="41.27" ry="3.06"/><path class="cls-4" d="M162.45,231l6.41.43c.58-1.63,2.45-9.18,2.45-9.18l-6.54-1.86-2.27,10.38Z" transform="translate(0.39 -0.36)"/><path class="cls-5" d="M160.92,232.07a6.35,6.35,0,0,1,3.19.07c.73.29,1.51,1.75,2.3,2.4a1.06,1.06,0,0,0,.68.33c.29,0,.74-.38,1.11-.76l.38-.42,0-.24.25-2.07-6.41-.43.05-.23-1-.1Z" transform="translate(0.39 -0.36)"/><path class="cls-6" d="M153.28,237c-.06,2.84,3.69,2.84,3.69,2.84h7.54c4.2.22,5.11-1.74,5.11-1.74,1.12-2.36-.76-4.74-.76-4.74l-.28.34-.38.42c-.37.38-.82.77-1.11.76a1.06,1.06,0,0,1-.68-.33c-.79-.65-1.57-2.11-2.3-2.4a6.35,6.35,0,0,0-3.19-.07l-.22.07c-.77.34-1.44,2.55-2.28,2.51C155.45,234.5,153.3,235.78,153.28,237Z" transform="translate(0.39 -0.36)"/><path class="cls-4" d="M205.46,231.41l-6.4.43c-.58-1.64-2.26-8.46-2.26-8.46l6.78-.62,1.84,8.42Z" transform="translate(0.39 -0.36)"/><path class="cls-5" d="M207,232.53a6.34,6.34,0,0,0-3.19.07c-.73.28-1.51,1.75-2.3,2.4a1.08,1.08,0,0,1-.68.33c-.3,0-.74-.38-1.11-.77a4.65,4.65,0,0,1-.38-.42l0-.23-.25-2.07,6.4-.43,0-.23,1-.1Z" transform="translate(0.39 -0.36)"/><path class="cls-6" d="M214.64,237.46c.06,2.84-3.69,2.84-3.69,2.84h-7.54c-4.2.21-5.11-1.74-5.11-1.74-1.13-2.36.76-4.75.76-4.75s.11.15.28.34l.38.42c.37.39.81.78,1.11.77a1.08,1.08,0,0,0,.68-.33c.79-.65,1.57-2.12,2.3-2.4a6.34,6.34,0,0,1,3.19-.07.74.74,0,0,1,.21.07c.78.34,1.45,2.54,2.29,2.51C212.47,235,214.62,236.23,214.64,237.46Z" transform="translate(0.39 -0.36)"/><path class="cls-7" d="M160.71,221s10.39,1,13.43,3.09c0,0,4-7,9.48-8.31,0,0,4.73,1.11,6.13,8.31,0,0,15.23-1.35,16.44-2.46L200.24,208l-34.17.82S161.63,218.79,160.71,221Z" transform="translate(0.39 -0.36)"/><path class="cls-7" d="M198.7,211.93s1,7.54,5.07,7.69c0,0,3.62-.49,2.42-3.15,0,0-1.74-7.39-5.8-6.09C200.39,210.38,198.53,210.9,198.7,211.93Z" transform="translate(0.39 -0.36)"/><path class="cls-7" d="M164.89,211.5s-2.63-.58-3.5,1.16l-1.07,3s-.95,2.78,1.51,2.72Z" transform="translate(0.39 -0.36)"/><polygon class="cls-8" points="208.26 189.68 199.2 179.57 206.9 172.25 218.12 184.14 208.26 189.68"/><path class="cls-8" d="M220.81,182.69s4.83-2.42,5.58-1.21-3.82,4.69-3.82,4.69.77,6.38-3.76,8c-2.45.89-8.66,3.16-10.4-2.28,0,0-3.09-2.91-1.4-5.68.6-1,1.7-.23,2.34-.11a.37.37,0,0,0,.42-.25c.35-1,1.47-3.82,2.51-4.09.64-.16,2,.91,2.68,1.48a.38.38,0,0,0,.6-.14c.37-.89,1.17-2.66,1.89-2.79s2.5,1.69,3,2.25A.36.36,0,0,0,220.81,182.69Z" transform="translate(0.39 -0.36)"/><path class="cls-9" d="M202.53,208.93l-40.73.58.72-24,2-4.12,4.12-8.35,5-5.5c9.13,2.68,13.77-1.61,13.77-1.61,4.85,2.55,11.3,14.94,11.3,14.94l.16,1.18Z" transform="translate(0.39 -0.36)"/><path class="cls-10" d="M207.39,172.33l-8.47,9.73-.16-1.18s-6.45-12.39-11.3-14.94c0,0-4.64,4.29-13.77,1.61l-5,5.5-4.12,8.35-9.86-3.78s3-13.2,19.93-12.69c0,0,7.39,1.81,17-2C191.6,162.9,204.42,164.35,207.39,172.33Z" transform="translate(0.39 -0.36)"/><polygon class="cls-11" points="167.84 181.7 163.31 180.41 169.37 169.64 167.84 181.7"/><path class="cls-8" d="M178.18,190.59s8.12-2.09,8.7,0c.39,1.43-5.08,3-5.08,3s.69,2.82.36,3.7c-.47,1.29-4,3.84-4,3.84s-4.2,2.17-7.68-2.9c0,0-13.85,1.35-16.17-6.53-1-3.24-2.07-8.42,2.52-13.31l9.47,3.3s-1.77,6.95,3,8.3C169.34,190,175.28,191.39,178.18,190.59Z" transform="translate(0.39 -0.36)"/><path class="cls-12" d="M198.7,211.93" transform="translate(0.39 -0.36)"/><path class="cls-8" d="M209.17,139.24c.23-1.13.44-2.3.6-3.53l1.3-7.94c2.72-1.09,7.5-2.13,8,3.57C219.07,131.34,219.55,139.62,209.17,139.24Z" transform="translate(0.39 -0.36)"/><circle class="cls-13" cx="171.19" cy="134.86" r="1.7"/><path class="cls-8" d="M153.71,140.89c-8.77.43-8.37-6.47-8.37-6.47.41-4.71,4.35-3.83,6.59-2.93A61,61,0,0,0,153.71,140.89Z" transform="translate(0.39 -0.36)"/><path class="cls-8" d="M207.25,103.48l-23.39-3.86-20.3,8-9.18,11.21-2.51,12s0,.23.06.65a61,61,0,0,0,1.78,9.4c2.87,10.65,10,25.89,27.35,25.52,9.81-.22,24.29-6.93,28.3-26.34.24-1.13.44-2.3.6-3.53l1.31-7.94,1.2-7.33Z" transform="translate(0.39 -0.36)"/><path class="cls-14" d="M188.84,143.76v3.91a10.62,10.62,0,0,0-9.1,4.3c-.48-1.32-1.64-3.07-4.08-5.3C176,147,181.56,151,188.84,143.76Z" transform="translate(0.39 -0.36)"/><path class="cls-15" d="M188.84,147.67v3.27s-1.38,5.29-9.58,4.5c0,0,1.35-1.06.48-3.47A10.62,10.62,0,0,1,188.84,147.67Z" transform="translate(0.39 -0.36)"/><path class="cls-16" d="M151.93,131.49c.44.24,3.85-6.33,4.57-8.68.34-1.07.6-3.53,1.09-4.35,1.58-2.61,8.41-3.48,9.79-7.32,0,0-3.7,7.25-1.89,8.41,2.52,1.62,9-6.13,10.41-7.81a.14.14,0,0,1,.25.1c0,1.37.15,5.8,1.52,6.19,2.25.64,6.28-5.37,7.48-7.27a.14.14,0,0,1,.26.09c-.17,1.44-.44,4.77.6,5.29,3.54,1.77,12.2-6.08,15.43-9.2a.55.55,0,0,1,.92.49c-.42,2.42-.08,7.66.74,9.21s5.29,2.2,5.67,4c.21,1-1.55,3.29-1.81,4.32-.65,2.54.36,8.53.36,8.53l5.15-5.78,3-1.16S226.39,93,189.78,87.29c-13.91-2.15-31.17,0-40.26,26.39l-1.29,17.14Z" transform="translate(0.39 -0.36)"/><path class="cls-12" d="M191.3,126.22s5,2.1,9.21,2" transform="translate(0.39 -0.36)"/><path class="cls-12" d="M170.06,129s-5.65,2.94-9.64,1.8" transform="translate(0.39 -0.36)"/><path class="cls-12" d="M212.47,135.22s.77-6.24,4.55-3.63" transform="translate(0.39 -0.36)"/><path class="cls-12" d="M147.37,133.08s3.83-1,3.84,3.36" transform="translate(0.39 -0.36)"/><circle class="cls-13" cx="171.19" cy="134.86" r="1.7"/><circle class="cls-13" cx="197.49" cy="133.55" r="1.7"/><text class="cls-17" transform="translate(39.53 284.4)">Celebra el DÍ<tspan class="cls-18" x="72.7" y="0">A</tspan><tspan x="80.92" y="0" xml:space="preserve"> DE</tspan><tspan class="cls-19" x="100.92" y="0">L</tspan><tspan x="108.04" y="0" xml:space="preserve"> NIÑO de 27 al 30 de abril de 2020 con actividades virtuales de música, danza, teatro y mucho </tspan><tspan x="219.74" y="14.4">más. !Quédate en casa y diviertete!</tspan></text></g><g id="Capa_6" data-name="Capa 6"><path class="cls-20" d="M393.24,160.17c-3.15-3.15-15.73,1-18.57,2a1,1,0,0,0-.67.81l-1.91,12.8a1.48,1.48,0,0,0,0,.21l.85,13.88a1,1,0,0,0,1,1h4.63a1,1,0,0,1,.56.17l8.61,5.7a1,1,0,0,1,.42.56c.45,1.57,2.37,7.88,4.29,10a1,1,0,0,1-.21,1.51c-2.44,1.6-7.7,4.62-7.1.24.19-1.32,6-.78,2.72-4.59s-7,4.33-7,4.33-2.64,3.81,3.35,5.62-4.34,4.81-6.35,5.25c-1.83.39-11.58,1.81-7.24-2a27,27,0,0,1,4.89-3.38,1,1,0,0,0-.83-1.85l-.12.05c-3.55,1.43-10.12,8.57-11.22,9.79a1.05,1.05,0,0,1-.39.27c-2.28.85-20.79,7.69-24.58,5s-11.13,4.72-12.09,5.71a.88.88,0,0,1-.24.19c-1.65.86-17.12,8.45-30.65-3.27-5.2-4.51-14-14.91-1-27.53l2.82-2.7.15-.18a35.27,35.27,0,0,0,3.37-6.63c.9-2.85,11.12-7.63,12.16-6.91s30-20.65,31.43-25.68,7.76-18.77,15.27-19.42,9.35-14.34-5.66-16l-.55.51s4,2.19,1.61,4.72c-2.2,2.33-6.57,2.78-7.07-1.6a1,1,0,0,0-1.28-.83l-8.16,2.32a1,1,0,0,1-1.19-.53l-3-6.07a.27.27,0,0,0-.06-.1l-3.71-5.73a1,1,0,0,1,.08-1.21c1.73-2,7.78-8.42,14.25-9.59a1.78,1.78,0,0,1,1.59.51c1,1,3.78,2.59,10.44-.91,4.18-2.2,8.61-5.36,13.91-6.69a22.81,22.81,0,0,1,3-.53c5.39-.54,11.68,1.06,19.37,7.22,16.46,13.17,7,31.91,6.14,33.52a1.06,1.06,0,0,0-.09.25L396.44,153a1,1,0,0,0,.77,1.21c2.6.59,9.4,2.3,9.61,4.27.26,2.43-8.16,13.62-22.42,16.3a1,1,0,0,1-.6-.06l-2.24-.94a1,1,0,0,1-.38-1.59l4.55-5.48a1,1,0,0,1,.51-.32C388,165.88,396.44,163.38,393.24,160.17Z" transform="translate(0.39 -0.36)"/><path class="cls-21" d="M294.06,123.59a10.92,10.92,0,0,0-1.75-12l.35-.34c.54-.75,1-1.51,1.51-2.28a33.9,33.9,0,0,0,2.57-5.25l.32.22,53.69-20.57L363.36,98l-69.3,25.58Z" transform="translate(0.39 -0.36)"/><text class="cls-22" transform="matrix(0.91, -0.41, 0.41, 0.91, 298.96, 115.64)">festival </text><text class="cls-23" transform="matrix(0.91, -0.41, 0.41, 0.91, 338.74, 105.51)">del</text><path class="cls-24" d="M366,125.76s-9.28-12-5.17-14.68c.83-.54,5.3,4.63,2.29,14.93-.56,1.91-6.72,3.34-7.95-.39-.71-2.15-1.2-6.73,6.66-6.11" transform="translate(0.39 -0.36)"/><path class="cls-24" d="M364.33,122.4s8.8-1.46,9-5.72-9.25-.72-6,4.78,8-1.23,8-1.23" transform="translate(0.39 -0.36)"/><path class="cls-24" d="M386.32,118.94s4.37-4,5.82-.29,3,7.15,3,7.15" transform="translate(0.39 -0.36)"/><path class="cls-24" d="M392.84,120.88s-7.51-.84-6.52,4.17c.78,4,7.41,1,7.83-1.07" transform="translate(0.39 -0.36)"/><polyline class="cls-24" points="377.3 114.28 380.18 113.4 384.97 128.18"/><path class="cls-25" d="M274,182.34l2.62-2.34-.69-3.55s-1.8-5-2-5.41-3.43.23-3.83.19-3.91,3.89-3.89,3.93.62,3.52.62,3.52c.56,1.71,1.62,4.34,3.28,5.66Z" transform="translate(0.39 -0.36)"/><path class="cls-26" d="M273.15,175.66a4.5,4.5,0,0,1-3.28,1.38,4.38,4.38,0,0,1-1.85-.39,4,4,0,0,1-2.44-3,3,3,0,0,1-.05-.6v0a4.18,4.18,0,0,1,4.34-4,5.46,5.46,0,0,1,.58,0c.59,1.56,1.17,3,1.71,4.27C272.51,174.18,272.84,175,273.15,175.66Z" transform="translate(0.39 -0.36)"/><path class="cls-25" d="M268,176.65a16.84,16.84,0,0,1-1.21,2h0c-4.51,6.38-10.2,2.48-10.2,2.48-2.43-2.95,1.7-7,4.16-8.95a14.91,14.91,0,0,0,4.81,1.43A4,4,0,0,0,268,176.65Z" transform="translate(0.39 -0.36)"/><path class="cls-25" d="M270.45,169.07a5.46,5.46,0,0,0-.58,0,4.18,4.18,0,0,0-4.34,4v0a3,3,0,0,0,.05.6,14.91,14.91,0,0,1-4.81-1.43c-3.95-2.08-3-5.34-3-5.34,2.91-5.66,9.18-2.57,11.46-1.19C269.63,166.87,270,168,270.45,169.07Z" transform="translate(0.39 -0.36)"/><path class="cls-27" d="M292.62,194.74l-4.47,1.83c2-2,3.08-5.55-.66-11.51a21.06,21.06,0,0,0,6.06,2.58l.45,4.84A2.22,2.22,0,0,1,292.62,194.74Z" transform="translate(0.39 -0.36)"/><path class="cls-27" d="M290.56,166.56A26.12,26.12,0,0,0,286,172c-.85-3.84-2.81-8.4-7.2-6.93-2.91,1-5,5.46-.33,11a12.18,12.18,0,0,0-4.47,1.45c-.28-.57-.56-1.2-.87-1.9s-.64-1.48-1-2.32c-.54-1.28-1.12-2.71-1.71-4.27-.41-1.06-.82-2.2-1.25-3.39a146.45,146.45,0,0,1-4.63-15.91l-.3-1.35h0c-.29-1.31-.56-2.65-.82-4l-.24-1.3c-.18-1-.36-2.09-.52-3.15s-.31-2.16-.44-3.26h0c-.18-1.37-.32-2.74-.44-4.15h0c-.07-.6-.11-1.2-.16-1.8q-.25-3.51-.29-7.11a71.09,71.09,0,0,1,12.88-7.4c1.05-.44,2.13-.88,3.24-1.29h0l.93-.32h0a37.86,37.86,0,0,1,6.2-1.59,27.4,27.4,0,0,1,3.91-.39s0,1-.07,2.64a2.18,2.18,0,0,1,0,.25c0,.58,0,1.25,0,2-.12,5.71-.24,15.68.08,25.72.06,1.68.13,3.35.2,5A139.91,139.91,0,0,0,290.56,166.56Z" transform="translate(0.39 -0.36)"/><path class="cls-28" d="M420.84,120a11.45,11.45,0,0,1,9.09-.52,5,5,0,0,1,2.8,2.83c4,10.5,24,66.18,14,101.09a4.93,4.93,0,0,1-2.3,3c-4.8,2.73-18.75,10.17-28.76,10.37a4.92,4.92,0,0,1-5-5.75c2.47-14.29,9.33-58.75,7.36-102V124.4A4.9,4.9,0,0,1,420.84,120Z" transform="translate(0.39 -0.36)"/><path class="cls-29" d="M411,248.6C397.41,244,391.35,236.28,388.85,229c5.51-5.22,14-9.31,27-8.3a16.54,16.54,0,0,1,4.44,9.44C421.18,237.14,417.29,244.46,411,248.6Z" transform="translate(0.39 -0.36)"/><path class="cls-30" d="M411,248.6a20.73,20.73,0,0,1-8.81,3.24c-9.47,1.17-18.12-3.62-21.3-11.13a34.67,34.67,0,0,1,8-11.76C391.35,236.28,397.41,244,411,248.6Z" transform="translate(0.39 -0.36)"/><path class="cls-29" d="M388.85,229a34.67,34.67,0,0,0-8,11.76,15.81,15.81,0,0,1-1.18-4.35c-.76-6.24,2.39-12.56,7.61-16.74A30,30,0,0,0,388.85,229Z" transform="translate(0.39 -0.36)"/><path class="cls-30" d="M415.86,220.65c-13-1-21.5,3.08-27,8.3a30,30,0,0,1-1.57-9.33,22.1,22.1,0,0,1,11.07-4.73C405.4,214,411.79,216.34,415.86,220.65Z" transform="translate(0.39 -0.36)"/><ellipse class="cls-3" cx="356.1" cy="264.55" rx="21.05" ry="3.32"/><path class="cls-31" d="M340.05,260.62a10.21,10.21,0,0,0,.3,1.46,25.42,25.42,0,0,1-3.21-.44c-11-2.16-8.8-10.17-8.8-10.17a4.75,4.75,0,0,1,3.18-3.08c1.88-.65,3.91-.38,4.26.68l0,.14c.47,1.76-1.72,2-1.65,2.1a5.93,5.93,0,0,0,4.2,2.79,6.93,6.93,0,0,0,2.14,0c-.07.31-.14.66-.2,1a2,2,0,0,0-.06.35,1.35,1.35,0,0,0-.05.29c0,.17-.05.34-.07.52s-.08.64-.11,1A16,16,0,0,0,340.05,260.62Z" transform="translate(0.39 -0.36)"/><path class="cls-31" d="M344.61,242.63c-5.72,2.27-6.27,8.79-6.25,11.47a5.93,5.93,0,0,1-4.2-2.79c-.07-.11,2.12-.34,1.65-2.1l0-.14c-.35-1.06-2.38-1.33-4.26-.68a6.72,6.72,0,0,1,4.9-4.84s-3.4-2.3-3.56-3.91c-.23-2.38,2.74-6.11,7.92-3.21C342.38,237.32,343.89,238.69,344.61,242.63Z" transform="translate(0.39 -0.36)"/><path class="cls-31" d="M366.37,238.91a6.93,6.93,0,0,1-.07.88,10.48,10.48,0,0,1-3.41,7.35,7.94,7.94,0,0,0-3.71-3,6.66,6.66,0,0,0-1.22-.37l-1.79-.11a18.6,18.6,0,0,0,1.27-1.61c1.1-1.55,2.21-3.67,2-5.59,0,0-2,1.27-3.1-.4,0,0-.36-4.5,4.91-4.41l.56,0S366.72,232.57,366.37,238.91Z" transform="translate(0.39 -0.36)"/><path class="cls-31" d="M368.73,247.14l-2.48,7-.45,1.28-.44-.16s0-.34-.06-.91a16.07,16.07,0,0,0-2.41-7.23,10.48,10.48,0,0,0,3.41-7.35,6.93,6.93,0,0,0,.07-.88C367.93,239.76,370.07,241.93,368.73,247.14Z" transform="translate(0.39 -0.36)"/><path class="cls-31" d="M381.13,258.49c-1.62-1.75-8.1-.7-10.62-.21a11.15,11.15,0,0,0-4.71-2.84l.45-1.28C376.7,252,381.13,258.49,381.13,258.49Z" transform="translate(0.39 -0.36)"/><path class="cls-31" d="M370.51,258.28a11.15,11.15,0,0,0-4.71-2.84l-.44-.16s0-.34-.06-.91a16.07,16.07,0,0,0-2.41-7.23,7.94,7.94,0,0,0-3.71-3,6.66,6.66,0,0,0-1.22-.37l-1.79-.11c-2-.12-5-.29-5.75-.31,0,0-8.5.87-9.41,8.76,0,0-.25.78-.51,2-.07.31-.14.66-.2,1a2,2,0,0,0-.06.35,1.35,1.35,0,0,0-.05.29c0,.17-.05.34-.07.52s-.08.64-.11,1a16,16,0,0,0,0,3.38,10.21,10.21,0,0,0,.3,1.46,5.52,5.52,0,0,0,3.12,3.75,6.53,6.53,0,0,0,2.12.52s-10.76,1.84-10.3,3.69c0,0,3.12,2.78,12.1.12,0,0,3-.55,4.06.1,0,0,6.41,1.33,9.22-1.71,0,0,4.69-3.53,4.82-7.8,0,0,4.08,1.26,4.11,5.43,0,0,0,4.11,2.17,1C371.77,267.15,374.08,262.11,370.51,258.28Zm-19.12,5.52a2,2,0,1,1-.22-3.9,2,2,0,0,1,.69.06h0a2,2,0,0,1,1.59,1.75A2.08,2.08,0,0,1,351.39,263.8Z" transform="translate(0.39 -0.36)"/><path class="cls-20" d="M345.61,233.1c1.82-.61,4.87-1.89,6.34-4a1,1,0,0,1,1.59-.15l2.51,2.67a1,1,0,0,1,.07,1.3l-2.48,3.29a1,1,0,0,1-.46.34,7.57,7.57,0,0,1-8-1.78A1,1,0,0,1,345.61,233.1Z" transform="translate(0.39 -0.36)"/><path class="cls-32" d="M313.83,255.29a6,6,0,0,1-2.15,2.74l-1.81,2.33c-1.71.68-5.59-.78-9.18-2.5-3.89-1.86-7.44-4-7.44-4-1.34-.77-3.53-1.87-6.15-3.13C277.27,246,261.36,239,261.36,239c-10.87-5-6.21-9.89-6.21-9.89q.36-.41.72-.78c-.56,1.82-.17,5.08,7,8.41,0,0,16.39,7.22,26.17,12,2.44,1.18,4.46,2.2,5.72,2.92,0,0,3,1.87,6.61,3.63,3.8,1.88,8.17,3.64,10,2.9l1.82-2.32A3,3,0,0,0,313.83,255.29Z" transform="translate(0.39 -0.36)"/><path class="cls-33" d="M315.56,242.83c0,.16,0,.32,0,.48a79.73,79.73,0,0,1-8.17,5.34c-3.29,1.07-5.06,3.81-6,6.55-3.56-1.76-6.61-3.63-6.61-3.63-1.26-.72-3.28-1.74-5.72-2.92,3.37-4.5,2.87-10.53,2.09-14.25,6.58,1.47,7.86-1.67,8.11-2.78a2.66,2.66,0,0,0,.06-.36l.36,0,21.56,1.58Z" transform="translate(0.39 -0.36)"/><path class="cls-21" d="M289.07,248.65c-9.78-4.74-26.17-12-26.17-12-7.2-3.33-7.59-6.59-7-8.41,10-10.68,14-12.26,19.65-11.13,10.93,2.21,15.46,17.21,15.46,17.21l.18,0C291.94,238.12,292.44,244.15,289.07,248.65Z" transform="translate(0.39 -0.36)"/><polygon class="cls-34" points="284.01 242.61 280.88 236.41 275.7 233.68 278.68 230.87 276.86 224.66 281.82 229.12 285.88 228.02 285.98 233.59 290.3 239.12 285.4 238.09 284.01 242.61"/><path class="cls-21" d="M313.84,255.28h0a3,3,0,0,1-.6.49l-1.82,2.32c-1.84.74-6.21-1-10-2.9,1-2.74,2.72-5.48,6-6.55a79.73,79.73,0,0,0,8.17-5.34C315.84,249.47,314.88,253.15,313.84,255.28Z" transform="translate(0.39 -0.36)"/><path class="cls-35" d="M291.67,238.05S299,238.61,303,234" transform="translate(0.39 -0.36)"/><path class="cls-36" d="M283.75,116.32s-4.73,10.15-2.79,17c1,3.54,2.32,7.37,9.7,11.06l.55,4.14s-17-.52-18.66-17.33c-.75-7.75,2.45-17.73,2.45-17.73Z" transform="translate(0.39 -0.36)"/><path class="cls-37" d="M299.14,85.74A15.69,15.69,0,0,0,288.85,80a49.17,49.17,0,0,1,8.21-5A45,45,0,0,1,299.14,85.74Z" transform="translate(0.39 -0.36)"/><path class="cls-38" d="M296.74,103.68a33.9,33.9,0,0,1-2.57,5.25,25.58,25.58,0,0,0-4.56-4.57,22.45,22.45,0,0,0-15-4.53A39.45,39.45,0,0,1,288.85,80a15.69,15.69,0,0,1,10.29,5.76A40.79,40.79,0,0,1,296.74,103.68Z" transform="translate(0.39 -0.36)"/><path class="cls-38" d="M294.17,108.93c-.47.77-1,1.53-1.51,2.28l-.35.34-.1-.12c-.26.34-.61.74-1,1.18l-1.12,1.07L287.68,116s-5.18-7-13.05-6.22h0c-.4,0-.83.12-1.25.2a.67.67,0,0,1,0-.1c0-.71.16-4.89.46-6.71,0-.11,0-.21,0-.3.21-1,.47-2,.79-3a22.45,22.45,0,0,1,15,4.53A25.58,25.58,0,0,1,294.17,108.93Z" transform="translate(0.39 -0.36)"/><path class="cls-39" d="M273.33,109.88a.67.67,0,0,0,0,.1h0Z" transform="translate(0.39 -0.36)"/><path class="cls-39" d="M292.31,111.55l-1.1,1.06c.39-.44.74-.84,1-1.18Z" transform="translate(0.39 -0.36)"/><path class="cls-37" d="M273.79,103.17c-.3,1.82-.44,6-.46,6.71-2.42.27-7.63,1.27-10.87,5C262.46,114.83,263,103.68,273.79,103.17Z" transform="translate(0.39 -0.36)"/><path class="cls-37" d="M294.06,123.59h0a15.22,15.22,0,0,1-2.65,4.07c.48-4.88-2.34-9.38-3.79-11.33.29-.29,1.42-1.4,2.53-2.58.36-.38.73-.78,1.06-1.15s.74-.84,1-1.18l.1.12A10.92,10.92,0,0,1,294.06,123.59Z" transform="translate(0.39 -0.36)"/><path class="cls-40" d="M287.68,116,284,118.52s-1.31.26-1.62,0,0-1.46-.32-1.75-1.7.3-2.14,0-.24-1.36-.61-1.55-1.16.52-1.52.35-.32-1.14-.65-1.29c-.53-.25-1.78.84-2.29.55-1-.58-1.47-4.2-1.54-4.85.42-.08.85-.15,1.25-.2h0C282.5,109,287.68,116,287.68,116Z" transform="translate(0.39 -0.36)"/><ellipse class="cls-41" cx="291.06" cy="89.65" rx="5.13" ry="4.71"/><ellipse class="cls-40" cx="291.27" cy="89.88" rx="3.63" ry="3.32"/><path class="cls-42" d="M318.36,77.39a7.14,7.14,0,0,1-6.26-1.59,29.25,29.25,0,0,0,4.16-.73l.2.19-.21.15A18.32,18.32,0,0,0,318.36,77.39Z" transform="translate(0.39 -0.36)"/><path class="cls-43" d="M338.3,79.18c-8.77,5.6-16.39,1.12-19.94-1.79a18.32,18.32,0,0,1-2.11-2l.21-.15-.2-.19a6.85,6.85,0,0,1-1.92-4.71,6.15,6.15,0,0,1,.6-2.67h0A7,7,0,0,1,317.22,65a6.65,6.65,0,0,1,8.4.66,6.48,6.48,0,0,1,1.2,1.54,3.19,3.19,0,0,1,.2.46l0,0s0,.1,0,.15a6.13,6.13,0,0,1,.57,2.16c2.81,8.69,9.29,9.14,10.62,9.14A.06.06,0,0,1,338.3,79.18Z" transform="translate(0.39 -0.36)"/><path class="cls-44" d="M317.22,65a7,7,0,0,0-2.28,2.71l-.47-3.5Z" transform="translate(0.39 -0.36)"/><circle class="cls-33" cx="320.57" cy="67.92" r="1.65"/><circle class="cls-45" cx="320.27" cy="67.54" r="1.03"/><polyline class="cls-39" points="318.17 84.24 319.77 83.66 322.28 79.41"/><polyline class="cls-39" points="320.04 85.5 319.77 83.66 318.87 85.28"/><polyline class="cls-39" points="324.87 86.65 325.95 85.33 325.93 80.77"/><polyline class="cls-39" points="327.12 86.78 325.95 85.33 326.01 87.19"/><path class="cls-46" d="M313.07,120.91C308.12,110,289.59,125,289.59,125l2.72,31.71S319.15,134.36,313.07,120.91Zm-16,14.42-.39-6.33c4.08-4.6,5.83-2.92,5.83-2.92C304.26,131,297.06,135.33,297.06,135.33Z" transform="translate(0.39 -0.36)"/><path class="cls-47" d="M297.06,135.33l-.39-6.33c4.08-4.6,5.83-2.92,5.83-2.92C304.26,131,297.06,135.33,297.06,135.33Z" transform="translate(0.39 -0.36)"/><path class="cls-46" d="M314.59,128l9-3.5,7.83,7.77s-15.2,3.49-16.5,7.56Z" transform="translate(0.39 -0.36)"/><path class="cls-46" d="M315.17,121.43l4.79,2.85s3.88-7.18,8.15-9.64a34.26,34.26,0,0,0-7.89-6.74S318.53,119.3,315.17,121.43Z" transform="translate(0.39 -0.36)"/><path class="cls-46" d="M349.13,122.27l-2.27.9s2.2-7-1.49-11c0,0-8.86-4.78-15.58,5.56,0,0-.88,4,3.07,3.64a7.91,7.91,0,0,1,.7-1.29,6.68,6.68,0,0,1,5.93-3.64,9.12,9.12,0,0,0-5.93,3.64,8,8,0,0,0-.54,1.27l-.16,0a11.8,11.8,0,0,0-.48,7.1s2.39,7.44,11.25,3.11l7.95-5S354,122.6,349.13,122.27Zm-8.51,4.9s-3.05-.27-3-2.64a6.14,6.14,0,0,1,3.93-4.3Z" transform="translate(0.39 -0.36)"/><path class="cls-48" d="M332.86,121.38a7.91,7.91,0,0,1,.7-1.29,8,8,0,0,0-.54,1.27Z" transform="translate(0.39 -0.36)"/><path class="cls-46" d="M304.24,148.53,312.65,191s5.82,1.81,12.81-6l-5.7-16.69,16,22.82s6-4.19,8.54-3.41c0,0-8.66-39.85-5.69-54.2l-15.65,5s.13,14.23,1.29,19.15a28.69,28.69,0,0,1-12.81-13.46Z" transform="translate(0.39 -0.36)"/><ellipse class="cls-46" cx="344.34" cy="143.94" rx="8.35" ry="6.84" transform="translate(-28.22 157.65) rotate(-24.85)"/><path class="cls-46" d="M343.44,158.56l8.74-5.73s1.44,15.14,4.74,20.38c0,0-8.63,8.83-11.93,6.4C345,179.61,344.7,162.92,343.44,158.56Z" transform="translate(0.39 -0.36)"/><path class="cls-46" d="M356,142.55l5.48,2.76,4.27-5.53s9.32,6.07,13.73-4.07l-2.62-1.89-.1-7.38s-3.46,7.58-5.91,8.2c-2.28.58-6-3.78-8.25-3.06C359.37,132.64,356,142.55,356,142.55Z" transform="translate(0.39 -0.36)"/><path class="cls-46" d="M380.21,161a51.71,51.71,0,0,1-2.72,7c-2.52,3.1-5.14.77-5.14.77,1.65-11.54-1.94-11.54-1.94-11.54-5.24.39-3,12.71-3,12.71h-2.91c-6.6-2-7.56-19.12-7.56-19.12l5.81-5.42,3.21,4.16c2.28-8.25,8.27-9.45,11.3-7.66a8.74,8.74,0,0,1,3.9,4.89C382.62,151.06,381.56,156.64,380.21,161Z" transform="translate(0.39 -0.36)"/><path class="cls-46" d="M326.75,236.43l-2.46-42.62s5.76-5.59,9.51-2.67l16.62,18.38L345,187s-.32-3.43,4.14-4.66l11.45-2.91s-1,16.62,0,22.83c0,0,3.1,16.56,2.13,21.6,0,0-5.3,5.37-9.38,4.08l-12.87-19s-.26,17.85,1.68,21.67Z" transform="translate(0.39 -0.36)"/><ellipse class="cls-46" cx="368.75" cy="183.91" rx="7.96" ry="9.48"/><path class="cls-46" d="M362.9,198.53l11.91-3.88,5.75,8.47s.59,3.36-1,3.82l-15.33,8.79S362.25,202.86,362.9,198.53Z" transform="translate(0.39 -0.36)"/><path class="cls-46" d="M377.85,189.8s6.85,11.9,4.78,18.63l5.24-3.69s-.26-10.8,2.65-12.23c0,0,3.11-.64,4.86,8.28l8.53-4.65s.84-14.82-8-15.53c0,0-6.79,1.75-9.25,8.48L383.09,185Z" transform="translate(0.39 -0.36)"/><path class="cls-46" d="M420.08,173.63c-5.21-2-13.4,3.5-15.65,9.31s.5,13.69,5.7,15.72,12.1-1,14.35-6.79S425.3,175.65,420.08,173.63Zm-1.37,11.06a3.6,3.6,0,0,1-4.45,2.11c-1.62-.63-2.48-3.08-1.77-4.89s3.24-3.52,4.86-2.88S419.42,182.89,418.71,184.69Z" transform="translate(0.39 -0.36)"/><path class="cls-46" d="M376.31,182.94l3.17,2.07s2-4.6,3.48-5.24c2.31-1,7.75,1.22,10.09.26s7.44-7.7,7.44-7.7l-4.86-6.92s-.72,6.82-2.52,7.79c-2.49,1.34-8.77-2.42-11.25-1.06C379.2,173.6,376.31,182.94,376.31,182.94Z" transform="translate(0.39 -0.36)"/><path class="cls-49" d="M433.28,152.67l-21.67,9.38-2.67-6.26c2.87-.57,8.4-2.26,6.35-6.74,0,0-2.18-6.48-9,.59l-2.68-6.28,7.46-3.22c-1.78-1.87-4.22-5.16-1.69-7.2,0,0,8.14-6.2,8.51,4.25l7.59-3.28,2.6,6.28c-2.58.15-9.4,1.05-7.68,6.1,0,0,1.64,7.25,10-.54Z" transform="translate(0.39 -0.36)"/><path class="cls-50" d="M445.45,160.21,442.62,163a.9.9,0,0,1-1.42-.21c-1.33-2.39-4-5.95-7.11-3.27,0,0-5,3.48,2.69,7.57a.9.9,0,0,1,.21,1.44l-3.26,3.21a.91.91,0,0,1-1.27,0L429,168.31a.9.9,0,0,0-1.36.12c-3.68,5-6.83-.75-6.83-.75-.76-1.71.58-3.23,1.83-4.2a.9.9,0,0,0,.09-1.35l-4.08-4a.9.9,0,0,1,0-1.28l2.91-2.92a.89.89,0,0,1,1.35.09c1.63,2.2,4.48,5,7.15,2.17,0,0,4.19-3.58-2.32-6.75a.89.89,0,0,1-.26-1.45l2.77-2.78a.91.91,0,0,1,1.27,0l3.67,3.63a.9.9,0,0,0,1.42-.21c1.05-1.92,2.75-3.93,4.89-2.74,0,0,7.18,4.26.41,8a.89.89,0,0,0-.19,1.42l3.73,3.69A.91.91,0,0,1,445.45,160.21Z" transform="translate(0.39 -0.36)"/><path class="cls-51" d="M460.35,183.59a127.45,127.45,0,0,0-17.87,7.24,347.73,347.73,0,0,0-35,19.93c-1.55,1-2.49,1.62-2.65,1.73l.64-.51.7-.55,0,0,35.31-27.84,2.8-2.21C457.15,180.48,460.35,183.59,460.35,183.59Z" transform="translate(0.39 -0.36)"/><polygon class="cls-51" points="440.08 181.48 407.58 210.14 405.91 211.62 417.98 198.18 425.36 189.98 432.99 181.48 440.08 181.48"/><path class="cls-51" d="M443.57,194.65l-36.05,16.11a347.73,347.73,0,0,1,35-19.93Z" transform="translate(0.39 -0.36)"/><polygon class="cls-51" points="441.93 183.21 406.63 211.05 407.58 210.14 440.08 181.48 441.93 183.21"/><polygon class="cls-52" points="258.06 144.95 255.55 140.15 250.18 139.5 253.97 135.63 252.92 130.32 257.77 132.73 262.5 130.09 261.72 135.45 265.68 139.13 260.34 140.04 258.06 144.95"/><polygon class="cls-52" points="271.2 150.59 267.91 148.3 264.16 149.71 265.32 145.87 262.81 142.74 266.83 142.66 269.04 139.31 270.35 143.1 274.22 144.16 271.02 146.59 271.2 150.59"/><path class="cls-53" d="M289.15,180.7c0,.15,0,.31,0,.45s0,.31-.06.45a4,4,0,0,1-.14.57l0,.09a3.82,3.82,0,0,1-.13.36c0,.11-.1.23-.16.34a3.07,3.07,0,0,1-.17.31l-.1.16a3.9,3.9,0,0,1-.34.46,4.68,4.68,0,0,1-.38.39,4.78,4.78,0,0,1-.42.34l-.2.14c-.13.07-.25.15-.39.21h0l-.35.15h-.05a3,3,0,0,1-.74.19,1.39,1.39,0,0,1-.3,0l-.3,0a4.18,4.18,0,0,1-3.45-1.9,4.93,4.93,0,0,1-.84-2.78,5.1,5.1,0,0,1,.44-2.08,4.81,4.81,0,0,1,.75-1.16A4.25,4.25,0,0,1,284,176.1a3.92,3.92,0,0,1,2.64.35,4.2,4.2,0,0,1,1.2.9,4.32,4.32,0,0,1,.68,1A4.92,4.92,0,0,1,289.15,180.7Z" transform="translate(0.39 -0.36)"/><path class="cls-54" d="M286.68,176.8s0-.12,0-.35" transform="translate(0.39 -0.36)"/><path class="cls-25" d="M302.4,181.89c0,2.64-1.17,7.4-8.85,5.75a21.06,21.06,0,0,1-6.06-2.58h0c-.08-.14-.18-.29-.28-.43a4.78,4.78,0,0,0,.42-.34,3.5,3.5,0,0,0,.38-.39,3.9,3.9,0,0,0,.34-.46l.1-.16a3.07,3.07,0,0,0,.17-.31c.06-.11.11-.23.16-.34a3.82,3.82,0,0,0,.13-.36l0-.09a4,4,0,0,0,.14-.57c0-.14,0-.29.06-.45s0-.3,0-.45a4.92,4.92,0,0,0-.61-2.4c1.13-.51,2.16-1,3.08-1.5C295.92,176.43,302.39,176.86,302.4,181.89Z" transform="translate(0.39 -0.36)"/><path class="cls-54" d="M287,184.76l-.32-.2" transform="translate(0.39 -0.36)"/><path class="cls-25" d="M288.15,196.57h0a7.13,7.13,0,0,1-4.17,2.09c-5.05,0-4.83-5.87-3.86-10.46a43.69,43.69,0,0,1,1.3-4.73,4.18,4.18,0,0,0,3.45,1.9l.3,0a1.39,1.39,0,0,0,.3,0,3,3,0,0,0,.74-.19h.05l.35-.15h0c.14-.06.26-.14.39-.21l.48.29h0C291.23,191,290.11,194.59,288.15,196.57Z" transform="translate(0.39 -0.36)"/><path class="cls-25" d="M291.62,176.8c-.92.49-1.95,1-3.08,1.5a4.32,4.32,0,0,0-.68-1,4.2,4.2,0,0,0-1.2-.9c0-.37-.08-1-.19-1.83S286.22,173,286,172a26.12,26.12,0,0,1,4.54-5.47c2.18-1.88,4.81-3,7.32-1.16C297.88,165.4,303.75,170.29,291.62,176.8Z" transform="translate(0.39 -0.36)"/><path class="cls-25" d="M281.41,183.48a43.69,43.69,0,0,0-1.3,4.73c-9,4.58-10-3.12-10-3.12,0-.26,0-.51,0-.74h0a7.62,7.62,0,0,1,3.93-6.78,12.18,12.18,0,0,1,4.47-1.45,20.82,20.82,0,0,0,2,2.09l.48.42a5.1,5.1,0,0,0-.44,2.08A4.93,4.93,0,0,0,281.41,183.48Z" transform="translate(0.39 -0.36)"/><polygon class="cls-34" points="275.26 225.39 273.89 222.69 271.63 221.49 272.93 220.26 272.13 217.55 274.3 219.5 276.08 219.02 276.12 221.45 278.01 223.87 275.86 223.42 275.26 225.39"/><ellipse class="cls-27" cx="293.54" cy="209.39" rx="11.74" ry="11.48"/><path class="cls-55" d="M353.46,261.72a2.19,2.19,0,1,1-2.29-1.82,2.15,2.15,0,0,1,2.29,1.82Z" transform="translate(0.39 -0.36)"/><ellipse class="cls-11" cx="350.55" cy="261.59" rx="1.32" ry="1" transform="translate(-14.18 20.39) rotate(-3.32)"/><path class="cls-56" d="M348.37,260.11s2.63-.84,3.75,0" transform="translate(0.39 -0.36)"/><path class="cls-57" d="M360.54,258.49c-.09.06-6.21,3.1-7.11-3s3.53-8.21,3.53-8.21c1.55-.49,2,1.15,2,1.83a14,14,0,0,0,1.14,3.38C363.07,256.8,360.64,258.42,360.54,258.49Z" transform="translate(0.39 -0.36)"/><ellipse class="cls-55" cx="358.06" cy="254.12" rx="1.95" ry="2.18"/><ellipse class="cls-11" cx="358.35" cy="253.41" rx="1" ry="1.32"/><path class="cls-56" d="M356.63,251.16s-1.95,2.67-.6,4.53" transform="translate(0.39 -0.36)"/><path class="cls-55" d="M352.12,252.86c.11.93-1.94,2.64-2.84,2.4-.59-.15-.67-1.82-.46-2.4a1.66,1.66,0,0,1,.95-.75C350.38,252,352.05,252.25,352.12,252.86Z" transform="translate(0.39 -0.36)"/><path class="cls-58" d="M349.16,249.49a3.25,3.25,0,0,1,1.39-.42c.7,0,2,1.92,2,1.92" transform="translate(0.39 -0.36)"/><path class="cls-58" d="M347.39,256.45s-2.1-1.75-2-2.57a2.49,2.49,0,0,1,.28-.91" transform="translate(0.39 -0.36)"/><path class="cls-59" d="M349.28,255.26c-.59-.15-.67-1.82-.46-2.4a1.66,1.66,0,0,1,.95-.75c.61-.11,2.28.14,2.35.75C352.23,253.79,350.18,255.5,349.28,255.26Z" transform="translate(0.39 -0.36)"/><path class="cls-59" d="M353.46,261.72a2.19,2.19,0,1,1-2.29-1.82,2.15,2.15,0,0,1,2.29,1.82Z" transform="translate(0.39 -0.36)"/><path class="cls-59" d="M352.12,252.86c.11.93-1.94,2.64-2.84,2.4-.59-.15-.67-1.82-.46-2.4a1.66,1.66,0,0,1,.95-.75C350.38,252,352.05,252.25,352.12,252.86Z" transform="translate(0.39 -0.36)"/><path class="cls-31" d="M357.44,242a18.6,18.6,0,0,1-1.27,1.61c-2-.12-5-.29-5.75-.31,0,0-8.5.87-9.41,8.76,0,0-.25.78-.51,2a6.93,6.93,0,0,1-2.14,0c0-2.68.53-9.2,6.25-11.47l.13,0a15.38,15.38,0,0,1,7.82-1.42A19.55,19.55,0,0,1,357.44,242Z" transform="translate(0.39 -0.36)"/><path class="cls-59" d="M339.62,243.84s-2.06-1-3.34-.39" transform="translate(0.39 -0.36)"/><path class="cls-31" d="M359.41,236.43c.24,1.92-.87,4-2,5.59a19.55,19.55,0,0,0-4.88-.86c-.28-1.65-1.18-5.92-.16-7.7s3.29-4,7.91-3.17a.69.69,0,0,1,.5.36,7.06,7.06,0,0,1,.41,1c-4.4-.07-4.88,3-4.91,4.09a.77.77,0,0,0,.19.56C357.64,237.57,359.41,236.43,359.41,236.43Z" transform="translate(0.39 -0.36)"/><path class="cls-31" d="M343.47,265.83a14.36,14.36,0,0,1-6.33-4.19,25.42,25.42,0,0,0,3.21.44A5.52,5.52,0,0,0,343.47,265.83Z" transform="translate(0.39 -0.36)"/><path class="cls-60" d="M373.32,97.66l0,.06h-2.19l.26-1.06a.91.91,0,0,0,0-.49l-1.73-6.3c1.67-.33,4.34-.55,6.34.85-1.1,2.55-2.27,5.25-2.69,6.2A1,1,0,0,0,373.32,97.66Z" transform="translate(0.39 -0.36)"/><path class="cls-61" d="M373.87,99.4a22.81,22.81,0,0,0-3,.53.92.92,0,0,1-.07-.66l.38-1.55h2.19l.47,1.2A1,1,0,0,1,373.87,99.4Z" transform="translate(0.39 -0.36)"/><path class="cls-62" d="M378.48,82.57a16.86,16.86,0,0,0-.26,2.83c.07,0-1,2.57-2.2,5.32-2-1.4-4.67-1.18-6.34-.85l-1-3.56a1.17,1.17,0,0,1,0-.26V81.78a1,1,0,0,1,.13-.48l4.2-7.44a1,1,0,0,1,.85-.49h.88a1,1,0,0,1,.91.65l2.8,8.11A.94.94,0,0,1,378.48,82.57Z" transform="translate(0.39 -0.36)"/><path class="cls-60" d="M397.69,76.42l-5.51,3.26a2.08,2.08,0,0,0-.57.49l-.7.84c-.56-.58-1.21-1.24-1.76-1.76L390.59,78l2.72-6A7.58,7.58,0,0,1,397.69,76.42Z" transform="translate(0.39 -0.36)"/><path class="cls-63" d="M390.91,81l-6.78,8.13s-4.17,1-2.66-3.4l7.68-6.49C389.7,79.77,390.35,80.43,390.91,81Z" transform="translate(0.39 -0.36)"/><path class="cls-63" d="M404.46,71.68a2.29,2.29,0,0,1-1,1.33l-5.76,3.41a7.58,7.58,0,0,0-4.38-4.36l2.24-4.91A2.25,2.25,0,0,1,396.76,66s8.62-5.25,10.42-4.18C408.63,62.69,404.46,71.68,404.46,71.68Z" transform="translate(0.39 -0.36)"/><path class="cls-60" d="M392.94,107.51l.31-6.4a2.12,2.12,0,0,0-.1-.75l-.31-1c.79-.15,1.7-.33,2.44-.5l.22,1.87,3.49,5.55A7.58,7.58,0,0,1,392.94,107.51Z" transform="translate(0.39 -0.36)"/><path class="cls-63" d="M392.84,99.32l-3.07-10.13s1.49-4,4.31-.36l1.2,10C394.54,99,393.63,99.17,392.84,99.32Z" transform="translate(0.39 -0.36)"/><path class="cls-63" d="M393.18,115.77a2.3,2.3,0,0,1-.55-1.58l.31-6.68a7.58,7.58,0,0,0,6.05-1.27l2.87,4.57a2.25,2.25,0,0,1,.29,1.64s-.36,10.09-2.23,11C398.39,124.19,393.18,115.77,393.18,115.77Z" transform="translate(0.39 -0.36)"/><path class="cls-64" d="M438.56,107.1a18.4,18.4,0,0,1-3.58,3.84,17.92,17.92,0,0,1-11.35,4,18.63,18.63,0,0,1-18.36-17.91q0-.52,0-1a19.83,19.83,0,0,1,.43-4.11,65.12,65.12,0,0,0,14.77,9.32C427.54,104.64,434.23,106.73,438.56,107.1Z" transform="translate(0.39 -0.36)"/><path class="cls-28" d="M442,96c0,.62,0,1.24-.09,1.84a17.76,17.76,0,0,1-.66,3.53,19,19,0,0,1-2.71,5.7c-4.33-.37-11-2.46-18.12-5.86a65.12,65.12,0,0,1-14.77-9.32,19.1,19.1,0,0,1,2.82-6.66,18.36,18.36,0,0,1,15.14-8.2C433.79,77.06,442,85.55,442,96Z" transform="translate(0.39 -0.36)"/><path class="cls-65" d="M441.93,97.87a17.76,17.76,0,0,1-.66,3.53c1.78,1.85,2.58,3.44,2.07,4.5s-2.24,1.42-4.78,1.2c-4.33-.37-11-2.46-18.12-5.86a65.12,65.12,0,0,1-14.77-9.32c-2.57-2.33-3.82-4.34-3.22-5.61s2.8-1.52,6-1a18.07,18.07,0,0,1,2.12-2.63c-8.31-2.2-14.55-2.11-15.91.74s2.91,8.32,10.57,13.71a94,94,0,0,0,13.41,7.77,92,92,0,0,0,16.3,6.09c8.09,2.08,14.13,1.94,15.48-.86S448.3,102.73,441.93,97.87Z" transform="translate(0.39 -0.36)"/><polygon class="cls-66" points="457.71 108.51 459.9 112.93 464.78 113.64 461.25 117.08 462.08 121.94 457.71 119.65 453.35 121.94 454.18 117.08 450.65 113.64 455.53 112.93 457.71 108.51"/><polygon class="cls-66" points="449.25 123.09 451.72 126.09 455.58 125.76 453.49 129.03 454.99 132.6 451.24 131.62 448.31 134.16 448.08 130.29 444.76 128.28 448.37 126.86 449.25 123.09"/><polygon class="cls-66" points="460.29 124.28 462.25 126.67 465.33 126.42 463.67 129.02 464.87 131.87 461.87 131.09 459.53 133.11 459.35 130.03 456.7 128.42 459.58 127.3 460.29 124.28"/><path class="cls-42" d="M334.86,71.76a0,0,0,0,1,.06,0c-1.69,6.92-9.18,6.21-9.18,6.21l0-.12h0a3.3,3.3,0,1,1,.93-6.46l.23.1h0l.07,0a3.11,3.11,0,0,1,.94.57C331.92,74.28,334.39,72.22,334.86,71.76Z" transform="translate(0.39 -0.36)"/><path d="M298.55,111.43" transform="translate(0.39 -0.36)"/><path class="cls-67" d="M298.55,112" transform="translate(0.39 -0.36)"/><path class="cls-47" d="M297.06,135.33l-.39-6.33c4.08-4.6,5.83-2.92,5.83-2.92C304.26,131,297.06,135.33,297.06,135.33Z" transform="translate(0.39 -0.36)"/><path class="cls-68" d="M345.63,253c-.08-.19-.19-.45-.3-.74h0c-.51-1.29-1.14-3.31-.46-3.9s3.29.62,4.29,1.17A9.16,9.16,0,0,0,345.63,253Z" transform="translate(0.39 -0.36)"/><path class="cls-59" d="M348.82,252.86a1.66,1.66,0,0,1,.95-.75c.61-.11,2.28.14,2.35.75.11.93-1.94,2.64-2.84,2.4C348.69,255.11,348.61,253.44,348.82,252.86Z" transform="translate(0.39 -0.36)"/><path class="cls-69" d="M345.77,251.83s-2.46,3.23-1.36,5.72" transform="translate(0.39 -0.36)"/><path class="cls-70" d="M448.63,143.77s1,0,2.5,0" transform="translate(0.39 -0.36)"/><path class="cls-71" d="M455.73,143.91c4.28.31,9.25,1.13,11,3.23,4.89,5.89,2.08,13.57-11.72,26.65" transform="translate(0.39 -0.36)"/><path class="cls-70" d="M453.31,175.36c-.6.55-1.21,1.11-1.85,1.68" transform="translate(0.39 -0.36)"/><path class="cls-46" d="M401.41,157.93c-.24-2.67-4.13-3.54-4.13-3.54-.67-2.72,2.87-6.71,3.35-9.08,2.62-13.09-9.5-14.41-9.5-14.41-5.59,1.65-4.08,6-4.08,6l1.89.19c8.49,3.06,5,7.47,5,7.47-5.66-4.14-10.11-1.77-12.79,2.18,1.47,4.3.41,9.88-.94,14.25a8.37,8.37,0,0,0,6.93,3.42c2.12-.08,8.15-2.28,8.15-2.28l1.46.58c1.6,2.52,3.2.29,3.2.29A8.69,8.69,0,0,0,401.41,157.93Zm-13.89-3.41a3.43,3.43,0,1,1,3.42-3.42A3.42,3.42,0,0,1,387.52,154.52Z" transform="translate(0.39 -0.36)"/><path class="cls-25" d="M286.66,176.45a3.92,3.92,0,0,0-2.64-.35,4.25,4.25,0,0,0-2.26,1.36l-.79,1.26a31.11,31.11,0,0,1-2.48-2.61c-4.67-5.55-2.58-10,.33-11,4.39-1.47,6.35,3.09,7.2,6.93.2.95.36,1.84.45,2.59S286.63,176.08,286.66,176.45Z" transform="translate(0.39 -0.36)"/><text class="cls-72" transform="translate(307.32 203.35) rotate(-14.22)">y</text><text class="cls-73" transform="translate(306.55 225.7) rotate(-14.22)">el</text><text class="cls-74" transform="translate(162.39 316.98)">V<tspan class="cls-75" x="12.24" y="0" xml:space="preserve">isita   c</tspan><tspan class="cls-76" x="79.09" y="0">a</tspan><tspan class="cls-75" x="89.68" y="0">pitalcultu</tspan><tspan class="cls-77" x="173.99" y="0">r</tspan><tspan class="cls-75" x="181.56" y="0">alennuest</tspan><tspan class="cls-77" x="267.09" y="0">r</tspan><tspan class="cls-75" x="274.67" y="0">acasa.cdmx.gob.mx</tspan></text><text class="cls-78" transform="translate(567.32 362.63)">#QuédateEnCasaCDMX</text><text class="cls-79" transform="translate(571.38 346.67)">#Salva<tspan class="cls-80" x="41.92" y="0">V</tspan><tspan x="50.3" y="0">idas</tspan></text><text class="cls-81" transform="translate(44.43 334.73)">cultura.cdmx.gob.mx</text><text class="cls-82" transform="translate(45.54 350.62)">/cultura.Ciudad.de.Mexico</text><text class="cls-83" transform="translate(57.56 90.35)">#EN </text><text class="cls-83" transform="translate(37.65 103.97)">NUESTR<tspan class="cls-84" x="58.73" y="0">A</tspan></text><text class="cls-83" transform="translate(50.59 118.78)">CAS<tspan class="cls-84" x="30.15" y="0">A</tspan></text><polygon class="cls-85" points="105.88 93.78 103.88 93.78 103.88 88.04 72.48 68.57 39.18 88.56 39.18 91.23 37.18 91.23 37.18 87.43 72.5 66.23 105.88 86.93 105.88 93.78"/><polygon class="cls-85" points="105.88 130.27 37.18 130.27 37.18 105.65 39.18 105.65 39.18 128.27 103.88 128.27 103.88 105.65 105.88 105.65 105.88 130.27"/><rect class="cls-85" x="37.65" y="121.08" width="67.57" height="9.19"/><text class="cls-86" transform="translate(39.18 128.21)">streaming cultural</text><ellipse class="cls-3" cx="580.33" cy="229.11" rx="29.36" ry="4"/><polygon class="cls-16" points="554.37 148.77 554.37 162.25 563.53 161.4 563.08 132.13 554.66 123.65 554.37 148.77"/><ellipse class="cls-16" cx="519.23" cy="176.84" rx="7.61" ry="7.27"/><ellipse class="cls-16" cx="523.93" cy="186.41" rx="5.83" ry="5.53"/><ellipse class="cls-16" cx="528.87" cy="193.11" rx="4.95" ry="4.69"/><circle class="cls-16" cx="532.42" cy="198.41" r="3.59"/><path class="cls-16" d="M535,207.31a5.72,5.72,0,0,0-3.69-5l4-5.16S541.08,202.12,535,207.31Z" transform="translate(0.39 -0.36)"/><path class="cls-87" d="M596.65,198.51l9.59,4.65a15.74,15.74,0,0,0,4.29-6l-7.46-3.69A20.83,20.83,0,0,1,596.65,198.51Z" transform="translate(0.39 -0.36)"/><path class="cls-88" d="M609.18,205a4.18,4.18,0,0,1,0-1l2-.32s-1.26-1.75-.09-5a4.89,4.89,0,0,1,1.25-2l-1.46-.45s-.13.37-.38.94a15.74,15.74,0,0,1-4.29,6Z" transform="translate(0.39 -0.36)"/><path class="cls-89" d="M613.32,208.75l5.13-5.6c5.33-5.66,2.83-8.48,2.83-8.48-2.66-2.71-5.32,1.84-5.32,1.84-1.66-1-2.83-.59-3.59.11a4.89,4.89,0,0,0-1.25,2c-1.17,3.27.09,5,.09,5l-2,.32a4.18,4.18,0,0,0,0,1C609.46,208.22,613.32,208.75,613.32,208.75Z" transform="translate(0.39 -0.36)"/><path class="cls-90" d="M596.31,202.5s8.57-6.61,10.18-11.51l-6.09-1.66L591,199Z" transform="translate(0.39 -0.36)"/><path class="cls-87" d="M561.42,139.79l-.31-7.41s-2.24-7.43-1.74-9.9c.08-.43,1-1.55,1.76,0l1.36,3.91s-.71-4.15-.37-5.48c.1-.42,1.39-2.22,1.72-.35s1,4.89,1,4.89.48-3.22,1.23-3.94c.39-.38,1.37-.38,1,1.94a12.5,12.5,0,0,1-.82,3.13l1.56-2.36s2-.41,1,1.74l-2,2.92s1,4-2.07,5.78l.88,5.46-4.38-.27" transform="translate(0.39 -0.36)"/><path class="cls-87" d="M562.23,133.36s-5.32-4-4.87-5.07c0,0,2-2.11,5.78,2.6" transform="translate(0.39 -0.36)"/><path class="cls-87" d="M530.48,178.29l-7.33,1.19s-7.73-.7-10,.28c-.41.17-1.33,1.29.38,1.72l4.11.54s-4.2.15-5.44.74c-.39.19-1.9,1.81,0,1.76s5,0,5,0-3.06,1.13-3.62,2c-.29.46-.09,1.43,2.09.57a12.81,12.81,0,0,0,2.91-1.43l-2,2s0,2.05,1.9.62l2.46-2.57s4.06.14,5.25-3.19l5.52-.23-1.15-4.24" transform="translate(0.39 -0.36)"/><path class="cls-87" d="M524.34,180.38s-5-4.42-6-3.75c0,0-1.66,2.37,3.71,5.13" transform="translate(0.39 -0.36)"/><polygon class="cls-91" points="529.21 176.79 549.28 173.89 556.03 183.06 532.06 183.06 529.21 176.79"/><path class="cls-91" d="M560.31,160.12V138.81s4.46.89,6.65.59l4,26.93Z" transform="translate(0.39 -0.36)"/><path class="cls-92" d="M604.74,188.26l-3.48,4.85a1.13,1.13,0,0,1-.36.36l-8.81,5.81a1.37,1.37,0,0,0-.59.91l-.85,4.62a1.31,1.31,0,0,1-.29.63,1.14,1.14,0,0,1-.19.19l-8.49,7-.13.13-1.47,1.56-1.5,1.6a1.38,1.38,0,0,1-2.3-.48l-2.88-7.84a1.4,1.4,0,0,0-.91-.85,2,2,0,0,1-1.56-2.36,1.35,1.35,0,0,0-.32-1.06l-11.17-14.59-13.35-13.65a1.37,1.37,0,0,1-.05-1.73c2.37-3.14,10.53-13.57,15.45-15.19a1.35,1.35,0,0,1,1.24.19l29.48,21.4a1.37,1.37,0,0,0,1.18.21,1.26,1.26,0,0,1,.38-.06,1.36,1.36,0,0,1,1.33,1l.06.18a1.39,1.39,0,0,0,.71.88l8.36,4.18A1.38,1.38,0,0,1,604.74,188.26Z" transform="translate(0.39 -0.36)"/><path class="cls-93" d="M515.12,173.21c-4.07,7.92-9.72,3.2-11.77,1a10.77,10.77,0,0,1-.8-.9,5.1,5.1,0,0,1-.12-1.08,4.08,4.08,0,0,1,0-.61c0-.19.06-.36.1-.53h0s0-.09.05-.13a.67.67,0,0,1,.07-.24,1.09,1.09,0,0,1,.09-.23.06.06,0,0,1,0,0,1,1,0,0,1,.1-.24A2.06,2.06,0,0,1,503,170s0,0,0,0l0,0c.08-.15.18-.3.27-.44a7.78,7.78,0,0,1,1.13-1.36h0a1.7,1.7,0,0,1,.24-.23,9.89,9.89,0,0,1,.87-.73c.41-.3.83-.57,1.21-.8a32.26,32.26,0,0,0,3.57,3.61A24.84,24.84,0,0,0,515.12,173.21Z" transform="translate(0.39 -0.36)"/><line class="cls-94" x1="555.18" y1="127.24" x2="555.17" y2="127.24"/><path class="cls-16" d="M549.25,115.85a10.61,10.61,0,0,0-1,5c-.12.19-.26.39-.39.57-9.71,13.72-34.82,8.18-34.82,8.18-7.14-.1-6.28,8.94-6.28,8.94-4.38,0-3.14,6.67-3.14,6.67,7.77,11,5.25,17.71,2.92,20.82l.26.32c-.38.23-.8.5-1.21.8a9.89,9.89,0,0,0-.87.73,1.34,1.34,0,0,0-.2.21l0,0h0a8.78,8.78,0,0,0-1.13,1.36c-.09.14-.19.29-.27.44l0,0s0,0,0,0a2.06,2.06,0,0,0-.12.26,1,1,0,0,0-.1.24.06.06,0,0,0,0,0,1.09,1.09,0,0,0-.09.23.67.67,0,0,0-.07.24s0,.09-.05.13h0c0,.17-.07.34-.1.53a4.08,4.08,0,0,0,0,.61,5.1,5.1,0,0,0,.12,1.08,10.77,10.77,0,0,0,.8.9c-3.35-.26-9.9-1.83-10.88-10.14a18,18,0,0,0-3.8-11.22s-8.29-13.52,4.09-24.08c0,0,1.23-19.09,17.21-19.78,0,0,11.76-.48,17.82-3.81C527.79,105.22,538.42,100.54,549.25,115.85Z" transform="translate(0.39 -0.36)"/><path class="cls-95" d="M554.79,127.6a25.66,25.66,0,0,0-3.2-3.33,37.36,37.36,0,0,0-3.35-2.6c0-.26,0-.55,0-.84a10.61,10.61,0,0,1,1-5,3.17,3.17,0,0,1,4.11-1.69C556.51,115.39,568,123.05,554.79,127.6Z" transform="translate(0.39 -0.36)"/><path class="cls-93" d="M557.92,137.19l-5.32,20.36a7.44,7.44,0,0,1-.77,1.78c-1.73,2.94-5.49,5.66-7.5,7v0c-.82.53-1.34.83-1.34.83s-15,6.78-20.36,7.9c-2.66.55-5.27-.67-7.51-1.85a24.84,24.84,0,0,1-4.77-3.27,32.26,32.26,0,0,1-3.57-3.61l-.26-.32c2.33-3.11,4.85-9.82-2.92-20.82,0,0-1.24-6.67,3.14-6.67,0,0-.86-9,6.28-8.94,0,0,25.11,5.54,34.82-8.18l.4.27a37.36,37.36,0,0,1,3.35,2.6,25.66,25.66,0,0,1,3.2,3.33C559.14,133.1,557.92,137.19,557.92,137.19Z" transform="translate(0.39 -0.36)"/><path class="cls-94" d="M548.24,121.67l-.4-.27c.13-.18.27-.38.39-.57C548.23,121.12,548.24,121.41,548.24,121.67Z" transform="translate(0.39 -0.36)"/><path class="cls-96" d="M506.52,166a9.2,9.2,0,0,1-2.07,2.09" transform="translate(0.39 -0.36)"/><path class="cls-16" d="M534,136.81a14.3,14.3,0,0,1,1.41-2.64,9.57,9.57,0,0,1,2.11-2.2,7.77,7.77,0,0,1,2.79-1.31,6.3,6.3,0,0,1,3,0,13.63,13.63,0,0,0-2.79.77,10.74,10.74,0,0,0-2.42,1.38,15,15,0,0,0-2.11,1.88C535.37,135.34,534.81,136.14,534,136.81Z" transform="translate(0.39 -0.36)"/><path class="cls-16" d="M515.12,162a14.2,14.2,0,0,1,0-3,9.56,9.56,0,0,1,.79-2.95,7.94,7.94,0,0,1,1.8-2.49,6.47,6.47,0,0,1,2.63-1.49,14.1,14.1,0,0,0-2.06,2,11,11,0,0,0-1.46,2.38,16.24,16.24,0,0,0-.94,2.67C515.56,160.06,515.46,161,515.12,162Z" transform="translate(0.39 -0.36)"/><path class="cls-97" d="M511.4,147.66s-3.45,4.34-3,7.38" transform="translate(0.39 -0.36)"/><path class="cls-98" d="M540.8,138s5.23-8.56,8.94-4.23c.73.84.51,2.47-3,4.34-1.4.75-4.45,3.85-5.79,2A1.59,1.59,0,0,1,540.8,138Z" transform="translate(0.39 -0.36)"/><path class="cls-98" d="M524.9,156.69s-6.3,7.8-1,9.85c1,.4,2.51-.35,3.09-4.28.23-1.57,2.13-5.5,0-6.14A1.58,1.58,0,0,0,524.9,156.69Z" transform="translate(0.39 -0.36)"/><path class="cls-16" d="M510.84,172.36a7.2,7.2,0,0,0-1.57-.89,4.84,4.84,0,0,0-1.66-.45,4.53,4.53,0,0,0-1.54.28,9.88,9.88,0,0,0-1.58.71l-.08-.07a2.62,2.62,0,0,1,1.26-1.56,2.89,2.89,0,0,1,2.06-.15,6.3,6.3,0,0,1,3.18,2.05Z" transform="translate(0.39 -0.36)"/><path class="cls-16" d="M554.24,124.05a8.42,8.42,0,0,1-1.43-1.37,4.82,4.82,0,0,1-.93-1.85,2.38,2.38,0,0,1,.47-2.17,2.73,2.73,0,0,1,1.9-.9l0,.09c-.21.29-.45.5-.65.73a4.71,4.71,0,0,0-.5.68,2.58,2.58,0,0,0-.47,1.45,4,4,0,0,0,.56,1.69A8.29,8.29,0,0,0,554.3,124Z" transform="translate(0.39 -0.36)"/><path class="cls-95" d="M556.83,162c-1.72,8.23-8.85,9-8.85,9l-3.65-4.7v0c2-1.32,5.77-4,7.5-7Z" transform="translate(0.39 -0.36)"/><path class="cls-99" d="M532.78,159.76c-.22-.18,10.64-4.85,11.85-15.41,0,0,4.28,8.24,0,12.68C544.63,157,537.49,163.54,532.78,159.76Z" transform="translate(0.39 -0.36)"/><path class="cls-100" d="M565.36,185.8c1.54.13,3.08.17,4.61.18a34.11,34.11,0,0,0,4.53-.25,20.4,20.4,0,0,0,4.39-1,14.33,14.33,0,0,0,4-2.22,9.73,9.73,0,0,1-3.65,2.94,15.49,15.49,0,0,1-4.56,1.27,21.73,21.73,0,0,1-4.7,0A19.67,19.67,0,0,1,565.36,185.8Z" transform="translate(0.39 -0.36)"/><path class="cls-100" d="M574.45,202.29c.76-.74,1.54-1.45,2.28-2.2s1.53-1.45,2.26-2.2c1.48-1.5,3-3,4.38-4.52s2.8-3.11,4.1-4.75c.34-.4.63-.83.95-1.25s.62-.84.9-1.28.62-.85.88-1.31.53-.91.81-1.36a24.69,24.69,0,0,1-2.92,5.66,41.46,41.46,0,0,1-4,5,53.05,53.05,0,0,1-4.6,4.4A47.4,47.4,0,0,1,574.45,202.29Z" transform="translate(0.39 -0.36)"/><path class="cls-100" d="M574.1,206.13c.76-.74,1.53-1.45,2.28-2.2s1.52-1.45,2.26-2.2c1.47-1.49,3-3,4.38-4.52s2.8-3.11,4.1-4.74c.34-.4.63-.84,1-1.25s.62-.85.9-1.29.61-.85.87-1.31.53-.91.81-1.36a24.65,24.65,0,0,1-2.91,5.66,42.56,42.56,0,0,1-4,5,54.41,54.41,0,0,1-4.59,4.4A46.77,46.77,0,0,1,574.1,206.13Z" transform="translate(0.39 -0.36)"/><path class="cls-101" d="M579.73,218.35l0-.2v.19Z" transform="translate(0.39 -0.36)"/><path class="cls-87" d="M587,214.5v4.75a15.8,15.8,0,0,1-7.26,1.51l0-2.42A20.66,20.66,0,0,0,587,214.5Z" transform="translate(0.39 -0.36)"/><path class="cls-88" d="M587.53,222.69a4.09,4.09,0,0,0-1-.39L585.47,224s-1.1-1.86-4.57-2.1a4.83,4.83,0,0,0-2.35.33l.16-1.52s.39,0,1,0a15.8,15.8,0,0,0,7.26-1.51Z" transform="translate(0.39 -0.36)"/><path class="cls-89" d="M589.28,228l-7.19,2.44c-7.32,2.62-8.9-.8-8.9-.8-1.42-3.52,3.81-4.14,3.81-4.14-.22-1.91.6-2.82,1.55-3.24a4.83,4.83,0,0,1,2.35-.33c3.47.24,4.57,2.1,4.57,2.1l1.09-1.71a4.09,4.09,0,0,1,1,.39C590.34,224.22,589.28,228,589.28,228Z" transform="translate(0.39 -0.36)"/><path class="cls-90" d="M590.65,209.36A12.17,12.17,0,0,1,587,214.5a20.66,20.66,0,0,1-7.24,3.84v-.19l.33-3.79,1.47-1.56.13-.13,8.49-7a1.14,1.14,0,0,0,.19-.19Z" transform="translate(0.39 -0.36)"/><text class="cls-81" transform="translate(58.86 366.01)">@CulturaCiudadMx</text><path class="cls-102" d="M43.28,360.36a5.07,5.07,0,0,1-.83.28,2.74,2.74,0,0,0,.69-1.1h0a.14.14,0,0,0-.2-.16h0a4.62,4.62,0,0,1-1.28.53h-.08a.4.4,0,0,1-.23-.08,2.56,2.56,0,0,0-1.73-.66,3,3,0,0,0-.83.13,2.52,2.52,0,0,0-1.7,1.83,2.84,2.84,0,0,0-.07,1,.07.07,0,0,1,0,.07.1.1,0,0,1-.07,0h0a6.82,6.82,0,0,1-4.71-2.51h0a.14.14,0,0,0-.23,0h0a2.66,2.66,0,0,0-.35,1.32,2.57,2.57,0,0,0,.78,1.86,2.19,2.19,0,0,1-.6-.23h0a.14.14,0,0,0-.2.12h0a2.6,2.6,0,0,0,1.52,2.41h-.05a2.12,2.12,0,0,1-.44,0h0a.14.14,0,0,0-.16.18h0a2.64,2.64,0,0,0,2.07,1.78,4.79,4.79,0,0,1-2.7.82h-.3a.2.2,0,0,0-.2.15.21.21,0,0,0,.1.23,7.13,7.13,0,0,0,3.61,1,7.33,7.33,0,0,0,3.08-.65,6.91,6.91,0,0,0,2.26-1.69,7.39,7.39,0,0,0,1.38-2.31,7.49,7.49,0,0,0,.47-2.53v0a.45.45,0,0,1,.16-.35,4.89,4.89,0,0,0,1-1.14h0a.13.13,0,0,0-.17-.2Z" transform="translate(0.39 -0.36)"/><path class="cls-102" d="M53.2,358.16H48.3a3.63,3.63,0,0,0-3.62,3.62v4.9a3.62,3.62,0,0,0,3.62,3.61h4.9a3.62,3.62,0,0,0,3.62-3.61v-4.9A3.62,3.62,0,0,0,53.2,358.16Zm2.4,8.52a2.4,2.4,0,0,1-2.4,2.39H48.3a2.4,2.4,0,0,1-2.4-2.39v-4.9a2.4,2.4,0,0,1,2.4-2.4h4.9a2.4,2.4,0,0,1,2.4,2.4v4.9Z" transform="translate(0.39 -0.36)"/><path class="cls-102" d="M50.75,361.09a3.14,3.14,0,1,0,3.14,3.14A3.15,3.15,0,0,0,50.75,361.09Zm0,5.06a1.92,1.92,0,1,1,1.92-1.92A1.92,1.92,0,0,1,50.75,366.15Z" transform="translate(0.39 -0.36)"/><circle class="cls-102" cx="54.29" cy="360.75" r="0.75"/><path class="cls-102" d="M33.64,346.08h1v4.22a.15.15,0,0,0,.15.15h1.74a.14.14,0,0,0,.15-.15v-4.2h1.18A.15.15,0,0,0,38,346l.18-1.55a.16.16,0,0,0,0-.12.17.17,0,0,0-.12-.05H36.71v-1c0-.29.16-.44.47-.44h.89a.15.15,0,0,0,.15-.15v-1.43a.15.15,0,0,0-.15-.15H36.79a2.32,2.32,0,0,0-1.53.58,1.6,1.6,0,0,0-.54,1.43v1.14H33.64a.15.15,0,0,0-.15.15v1.53A.16.16,0,0,0,33.64,346.08Z" transform="translate(0.39 -0.36)"/><path class="cls-102" d="M39.49,329.11a4.86,4.86,0,1,0,0,6.88A4.86,4.86,0,0,0,39.49,329.11Zm-.21,6.18a4.6,4.6,0,0,0-.72-.53,7.71,7.71,0,0,0,.29-1.9h1.43a4.12,4.12,0,0,1-1,2.43Zm-7.47-2.43h1.43a8.2,8.2,0,0,0,.3,1.9,4.68,4.68,0,0,0-.73.53A4.18,4.18,0,0,1,31.81,332.86Zm1-3.06a5.51,5.51,0,0,0,.73.54,8.12,8.12,0,0,0-.3,1.9H31.81A4.24,4.24,0,0,1,32.81,329.8Zm2.93.6a4.18,4.18,0,0,1-1.45-.36,2.68,2.68,0,0,1,1.45-1.69Zm0,.62v1.22H33.86a8.1,8.1,0,0,1,.24-1.61A4.8,4.8,0,0,0,35.74,331Zm0,1.84v1.21a4.81,4.81,0,0,0-1.64.4,8.21,8.21,0,0,1-.24-1.61Zm0,1.83v2.06a2.68,2.68,0,0,1-1.45-1.69A4.19,4.19,0,0,1,35.74,334.69Zm.62,0a4.19,4.19,0,0,1,1.44.37,2.66,2.66,0,0,1-1.44,1.69Zm0-.62v-1.21h1.87a7.53,7.53,0,0,1-.23,1.61,4.87,4.87,0,0,0-1.64-.4Zm0-1.83V331a4.86,4.86,0,0,0,1.64-.39,7.44,7.44,0,0,1,.23,1.61Zm0-1.84v-2A2.66,2.66,0,0,1,37.8,330,4.18,4.18,0,0,1,36.36,330.4Zm1.39-1.74a4.11,4.11,0,0,1,1.1.7,6,6,0,0,1-.5.38A4.21,4.21,0,0,0,37.75,328.66Zm-4,1.08a4.57,4.57,0,0,1-.49-.38,4.22,4.22,0,0,1,1.09-.7,4.91,4.91,0,0,0-.6,1.08Zm0,5.62a5.42,5.42,0,0,0,.6,1.08,4.5,4.5,0,0,1-1.09-.7A3.57,3.57,0,0,1,33.74,335.36Zm4.61,0a4.4,4.4,0,0,1,.5.38,4.37,4.37,0,0,1-1.1.7,4.58,4.58,0,0,0,.6-1.08Zm.5-3.12a7.63,7.63,0,0,0-.29-1.9,5.41,5.41,0,0,0,.72-.54,4.17,4.17,0,0,1,1,2.44Z" transform="translate(0.39 -0.36)"/><path class="cls-103" d="M224.47,308.63a6.09,6.09,0,1,0,0,8.62A6.1,6.1,0,0,0,224.47,308.63Zm-.25,7.75a6,6,0,0,0-.91-.68,9.88,9.88,0,0,0,.37-2.37h1.79a5.28,5.28,0,0,1-1.25,3.05Zm-9.35-3.05h1.79a9.88,9.88,0,0,0,.37,2.37,6,6,0,0,0-.91.68A5.28,5.28,0,0,1,214.87,313.33Zm1.25-3.83a6,6,0,0,0,.91.68,9.88,9.88,0,0,0-.37,2.37h-1.79A5.28,5.28,0,0,1,216.12,309.5Zm3.66.76a5.37,5.37,0,0,1-1.81-.46,3.41,3.41,0,0,1,1.81-2.12Zm0,.77v1.52h-2.34a8.55,8.55,0,0,1,.29-2A6,6,0,0,0,219.78,311Zm0,2.3v1.52a6,6,0,0,0-2.05.49,8.55,8.55,0,0,1-.29-2Zm0,2.29v2.58a3.38,3.38,0,0,1-1.81-2.12A5.61,5.61,0,0,1,219.78,315.62Zm.78,0a5.61,5.61,0,0,1,1.81.46,3.38,3.38,0,0,1-1.81,2.12Zm0-.77v-1.52h2.34a9.1,9.1,0,0,1-.29,2,6,6,0,0,0-2.05-.49Zm0-2.3V311a6,6,0,0,0,2.05-.49,9.1,9.1,0,0,1,.29,2Zm0-2.29v-2.58a3.41,3.41,0,0,1,1.81,2.12A5.37,5.37,0,0,1,220.56,310.26Zm1.74-2.19a5.3,5.3,0,0,1,1.38.88,5.73,5.73,0,0,1-.63.47A5.75,5.75,0,0,0,222.3,308.07Zm-5,1.35a5.73,5.73,0,0,1-.63-.47,5.3,5.3,0,0,1,1.38-.88,5.75,5.75,0,0,0-.75,1.35Zm0,7a5.75,5.75,0,0,0,.75,1.35,5.3,5.3,0,0,1-1.38-.88A5.73,5.73,0,0,1,217.29,316.46Zm5.76,0a5.73,5.73,0,0,1,.63.47,5.3,5.3,0,0,1-1.38.88,5.75,5.75,0,0,0,.75-1.35Zm.63-3.91a9.88,9.88,0,0,0-.37-2.37,6,6,0,0,0,.91-.68,5.28,5.28,0,0,1,1.25,3.05Z" transform="translate(0.39 -0.36)"/><rect class="cls-104" width="730.39" height="45.06"/><rect class="cls-105" y="35.53" width="730.39" height="22.53"/><path class="cls-106" d="M50.56,21.86a.67.67,0,0,0,.59.3.75.75,0,0,0,.59-.34l6-7.65a.7.7,0,0,1,1-.1.71.71,0,0,1,.12.95l-1.34,1.71h0a.65.65,0,0,0,0,.88h0l1.35,1.71,4.24-5.4-1.67-2.17-.32-.41a1.42,1.42,0,0,0-.89-.49H57.62a1.38,1.38,0,0,0-1,.48l-7.12,9.12Z" transform="translate(0.39 -0.36)"/><path class="cls-106" d="M50.26,17.17,48.56,15a.69.69,0,1,1,1.11-.83.35.35,0,0,1,0,.08L51.13,16l1.68-2.14-1.94-2.48a1.27,1.27,0,0,0-1.15-.56h-2.3a1.26,1.26,0,0,0-1.05.46l-2,2.57,4.24,5.42Z" transform="translate(0.39 -0.36)"/><path class="cls-106" d="M56.82,19a.72.72,0,0,0-.57-.29.67.67,0,0,0-.56.26l-6,7.77a.7.7,0,1,1-1.11-.85l1.36-1.74h0a.64.64,0,0,0,.19-.46.62.62,0,0,0-.16-.41h0L48.58,21.6,44.33,27l2.37,3h3.73l7.5-9.6Z" transform="translate(0.39 -0.36)"/><path class="cls-106" d="M57.13,23.72l1.72,2.2a.69.69,0,0,1-.1,1,.72.72,0,0,1-1-.16l0-.06-1.43-1.83L54.57,27,57,30.06h3.7l2.37-3-4.25-5.45Z" transform="translate(0.39 -0.36)"/><path class="cls-106" d="M63,21.38a.92.92,0,0,1,0-1.83.92.92,0,0,1,.92.9.9.9,0,0,1-.9.91h0m0-2.61a1.7,1.7,0,1,0,1.72,1.7A1.72,1.72,0,0,0,63,18.77" transform="translate(0.39 -0.36)"/><path class="cls-106" d="M53.69,8.25a.92.92,0,1,1-.91.92h0a.92.92,0,0,1,.91-.92h0m0,2.61A1.7,1.7,0,1,0,52,9.19a1.71,1.71,0,0,0,1.72,1.67" transform="translate(0.39 -0.36)"/><path class="cls-106" d="M53.69,30.88a.92.92,0,1,1-.91.92h0a.92.92,0,0,1,.91-.92h0m0,2.62A1.71,1.71,0,1,0,52,31.8a1.72,1.72,0,0,0,1.72,1.7" transform="translate(0.39 -0.36)"/><path class="cls-106" d="M43.42,20.45a.9.9,0,0,1,.91-.9.92.92,0,0,1,.9.92.91.91,0,0,1-1.81,0h0m2.62,0a1.72,1.72,0,1,0-1.74,1.7h0A1.7,1.7,0,0,0,46,20.45h0" transform="translate(0.39 -0.36)"/><path class="cls-106" d="M35.72,9.14H16v13.2c0,7.24,9.88,9.42,9.88,9.42h0s9.88-2.18,9.88-9.42Zm-.48.5v12.7a6.8,6.8,0,0,1-1.44,4.22,11.09,11.09,0,0,1-3.24,2.78,18.81,18.81,0,0,1-4.72,1.92,18.86,18.86,0,0,1-4.7-1.91,11,11,0,0,1-3.26-2.78,6.9,6.9,0,0,1-1.45-4.23V9.64Z" transform="translate(0.39 -0.36)"/><path class="cls-106" d="M28.23,13.38V12.17H27V13.3H26.5V12.17H25.22V13.3h-.47V12.17H23.49v1.21l.62,1.06a.24.24,0,0,1,0,.12v5.55h.6v-2a1.15,1.15,0,0,1,2.24,0v2h.61V16.16h0v-1.6a.28.28,0,0,1,0-.12Z" transform="translate(0.39 -0.36)"/><path class="cls-106" d="M23.63,20.23V18.4l-.22.13a.24.24,0,0,1-.26,0l-.27-.17h0v.7a.23.23,0,0,1-.09.19l.08,0a.86.86,0,0,1,.27.93Z" transform="translate(0.39 -0.36)"/><path class="cls-106" d="M25.84,17.7c-.38,0-.64.27-.64.42v2h1.26v-2a.63.63,0,0,0-.64-.42" transform="translate(0.39 -0.36)"/><path class="cls-106" d="M18.42,20.23a2.11,2.11,0,0,1-.15-.56,3.69,3.69,0,0,1-.05-.75.23.23,0,0,1,.17-.22l.53-.16-.6-.42a.26.26,0,0,1-.1-.2v-.68a.25.25,0,0,1,.13-.22l.24-.12v-.22l-.22-.09a.23.23,0,0,1-.15-.22v-.82a.24.24,0,0,1,.24-.24h.75a3.16,3.16,0,0,1,0-.69,2.88,2.88,0,0,1,.33-.79l-.05-.28a.31.31,0,0,1,.06-.19.25.25,0,0,1,.19-.09h.42a.33.33,0,0,1,.13,0l1,.63h.45a.29.29,0,0,1,.18.07.25.25,0,0,1,.06.18L22,15a.21.21,0,0,1-.08.17h.3a.25.25,0,0,1,.18.08l.14.14.1-.08.18-.37a.23.23,0,0,1,.21-.14h.65v-.14L23,13.57a.24.24,0,0,1,0-.12V11.92a.24.24,0,0,1,.24-.24h5.23a.25.25,0,0,1,.25.24v1.52a.16.16,0,0,1,0,.12l-.62,1.07v.13h.64a.26.26,0,0,1,.22.14l.17.37.11.08.14-.14a.21.21,0,0,1,.17-.08h.3a.3.3,0,0,1-.08-.17l0-.79a.24.24,0,0,1,.07-.18.23.23,0,0,1,.17-.07h.46l1-.63a.17.17,0,0,1,.12,0h.42a.27.27,0,0,1,.19.08.29.29,0,0,1,.05.2l0,.28a2.79,2.79,0,0,1,.32.78,2.67,2.67,0,0,1,0,.69h.75a.24.24,0,0,1,.24.24h0v.82a.25.25,0,0,1-.15.22l-.22.09v.23l.24.12a.23.23,0,0,1,.13.21v.68a.26.26,0,0,1-.1.2l-.6.42.53.16a.24.24,0,0,1,.17.23,4.73,4.73,0,0,1,0,.75,2.14,2.14,0,0,1-.15.55h.89V10.84H17.54v9.39Z" transform="translate(0.39 -0.36)"/><path class="cls-106" d="M28.83,19.3l.07,0a.23.23,0,0,1-.09-.19v-.71h0l-.29.16a.26.26,0,0,1-.27,0L28,18.4v1.83h.48a.89.89,0,0,1,.29-.94" transform="translate(0.39 -0.36)"/><path class="cls-106" d="M32.06,25.26a.25.25,0,0,1-.25-.25h0V23.43a.59.59,0,0,0-.18-.38.66.66,0,0,0-.5-.19.63.63,0,0,0-.63.58V25a.25.25,0,0,1-.24.25H28.81a.25.25,0,0,1-.24-.25h0V23.43a.59.59,0,0,0-.18-.38.66.66,0,0,0-.5-.19.59.59,0,0,0-.42.17l1.18,6.06a10,10,0,0,0,4.73-3.83Z" transform="translate(0.39 -0.36)"/><path class="cls-106" d="M28.19,29.24l-1.68-8.51H25.17l-1.68,8.51v0a21.84,21.84,0,0,0,2.36.8,21.61,21.61,0,0,0,2.35-.79v-.05" transform="translate(0.39 -0.36)"/><path class="cls-106" d="M24.22,23a.61.61,0,0,0-.42-.16h0a.73.73,0,0,0-.49.19.65.65,0,0,0-.18.38V25a.23.23,0,0,1-.23.25H21.44a.24.24,0,0,1-.17-.07.25.25,0,0,1-.08-.18V23.44a.63.63,0,0,0-.63-.58h0a.73.73,0,0,0-.49.19.59.59,0,0,0-.18.38V25a.24.24,0,0,1-.23.25H18.32A9.87,9.87,0,0,0,23,29.08Z" transform="translate(0.39 -0.36)"/><path class="cls-106" d="M34.15,20.72H27l.34,1.79a1.17,1.17,0,0,1,1.37.2,1,1,0,0,1,.32.72v1.34h1V23.41a1.14,1.14,0,0,1,1.11-1,1.21,1.21,0,0,1,.84.34,1.07,1.07,0,0,1,.32.72v1.34h1.34a6,6,0,0,0,.53-2.47V20.72h0" transform="translate(0.39 -0.36)"/><path class="cls-106" d="M19.4,24.77V23.43a1,1,0,0,1,.32-.72,1.2,1.2,0,0,1,.84-.34,1.12,1.12,0,0,1,1.1,1h0v1.34h1V23.43a1,1,0,0,1,.33-.72,1.15,1.15,0,0,1,1.35-.21l.35-1.78H17.54V22.3a6,6,0,0,0,.53,2.47Z" transform="translate(0.39 -0.36)"/><path class="cls-106" d="M20,19.73h.4a.84.84,0,0,1,.05.17V20a1,1,0,0,1,0,.24H19c-.2-.13-.3-.67-.31-1.12l.6-.19a.23.23,0,0,0,.17-.23v-.23a.21.21,0,0,0-.1-.2l-.67-.47v-.4l.23-.13a.23.23,0,0,0,.14-.21v-.54a.25.25,0,0,0-.15-.23l-.22-.09v-.41h.64l.3.49V17l-.2.66a.22.22,0,0,0,0,.22.26.26,0,0,0,.2.1h.18a.25.25,0,0,0,.24-.21,3.39,3.39,0,0,1,.13-.55,2.62,2.62,0,0,1,.34-.48.23.23,0,0,0,0-.31l-.84-1a3,3,0,0,1,0-.73A2.72,2.72,0,0,1,20,14a.23.23,0,0,0,0-.16v-.09h0l1,.63a.25.25,0,0,0,.13,0h.26v.36l-.31.11a.26.26,0,0,0-.17.23v.25a.24.24,0,0,0,.25.24h.83l.22.23a.24.24,0,0,0,.32,0,4.23,4.23,0,0,0,.4-.34l.14-.28h.48v.93l-1,.33c-.08,0-.09.31-.08.37a.18.18,0,0,0,.1.17,4,4,0,0,0,.34.23L23.3,17l.34,0v.83l-.32.2-1-.72a.26.26,0,0,0-.34.05l-.15.21a.24.24,0,0,0,0,.34h0l.59.55v.44l-.59.26a.25.25,0,0,0-.14.22v.1a.24.24,0,0,0,.25.24h.7a.51.51,0,0,1,0,.48H21a.45.45,0,0,1-.1-.27v-.09a2,2,0,0,1,0-.42l.37-.49a.35.35,0,0,0,.06-.14v-.23a.25.25,0,0,0-.24-.25.16.16,0,0,0-.1,0l-.61.25a.23.23,0,0,0-.15.19l0,.24-.35.11a.24.24,0,0,0-.17.23v.1a.24.24,0,0,0,.24.24" transform="translate(0.39 -0.36)"/><path class="cls-106" d="M31.71,19.73h-.39a.49.49,0,0,0-.06.17.14.14,0,0,1,0,.09,2,2,0,0,0,0,.24h1.38c.2-.13.3-.67.31-1.12l-.61-.19a.24.24,0,0,1-.17-.23v-.23a.26.26,0,0,1,.1-.2l.67-.47v-.4l-.23-.13a.23.23,0,0,1-.13-.21v-.54a.25.25,0,0,1,.15-.23l.21-.09v-.41h-.63l-.3.49V17l.21.66a.25.25,0,0,1-.16.31h-.26a.25.25,0,0,1-.24-.21,4.94,4.94,0,0,0-.15-.55,3.08,3.08,0,0,0-.32-.48.23.23,0,0,1,0-.31l.83-1a2.24,2.24,0,0,0,0-.73,3,3,0,0,0-.3-.71.29.29,0,0,1,0-.16v-.09h-.05l-1,.63a.2.2,0,0,1-.13,0h-.29v.36l.32.12a.23.23,0,0,1,.16.23v.25a.24.24,0,0,1-.24.24h-.84l-.21.22a.26.26,0,0,1-.33,0,4,4,0,0,1-.39-.33l-.14-.29h-.46v.92l1,.33c.07,0,.09.31.08.37A.18.18,0,0,1,29,17a4,4,0,0,1-.34.23L28.4,17l-.34,0v.83l.33.2,1-.7a.23.23,0,0,1,.32,0l.17.21a.24.24,0,0,1,0,.32l-.58.55v.44l.58.26a.25.25,0,0,1,.15.23v.1a.25.25,0,0,1-.25.24h-.69a.5.5,0,0,0,0,.5h1.63a.46.46,0,0,0,.09-.27v-.1a1.84,1.84,0,0,0,0-.41L30.35,19a.34.34,0,0,1-.05-.14v-.23a.26.26,0,0,1,.11-.21.24.24,0,0,1,.23,0l.61.25a.26.26,0,0,1,.15.19l0,.24.35.11a.25.25,0,0,1,.17.23v.1a.25.25,0,0,1-.24.25h0" transform="translate(0.39 -0.36)"/><path class="cls-106" d="M70,17.58h0a1.68,1.68,0,0,1,1.62-1.74h.08a1.76,1.76,0,0,1,1.26.42l-.25.29a1.42,1.42,0,0,0-1-.39,1.32,1.32,0,0,0-1.28,1.35v0h0a1.29,1.29,0,0,0,1.19,1.39h.14a1.55,1.55,0,0,0,1-.34v-.84h-1v-.34H73v1.34a2,2,0,0,1-1.38.54,1.64,1.64,0,0,1-1.71-1.58v-.15" transform="translate(0.39 -0.36)"/><path class="cls-106" d="M77.3,17.58h0A1.33,1.33,0,0,0,76,16.19h0a1.31,1.31,0,0,0-1.32,1.32v.06h0A1.34,1.34,0,0,0,76,19h0a1.33,1.33,0,0,0,1.32-1.33.07.07,0,0,0,0-.05m-3,0h0a1.72,1.72,0,1,1,3.44-.17.48.48,0,0,1,0,.17h0A1.71,1.71,0,0,1,76,19.32h0a1.68,1.68,0,0,1-1.72-1.64v-.1" transform="translate(0.39 -0.36)"/><path class="cls-106" d="M80.5,17.72H79.44v1.19h1.13c.51,0,.83-.23.83-.6h0c0-.37-.3-.58-.89-.58m.71-.95c0-.33-.27-.55-.75-.55h-1v1.16h1c.46,0,.77-.2.77-.6Zm-2.15-.89H80.5a1.21,1.21,0,0,1,.88.3.7.7,0,0,1,.22.54h0a.82.82,0,0,1-.54.79c.4.12.72.35.72.81h0c0,.58-.48.92-1.22.92h-1.5Z" transform="translate(0.39 -0.36)"/><rect class="cls-106" x="83.54" y="15.52" width="0.38" height="3.37"/><polygon class="cls-106" points="85.45 15.52 87.89 15.52 87.89 15.87 85.84 15.87 85.84 17.02 87.67 17.02 87.67 17.36 85.84 17.36 85.84 18.54 87.91 18.54 87.91 18.89 85.45 18.89 85.45 15.52"/><path class="cls-106" d="M90.2,17.6c.5,0,.86-.26.86-.69h0c0-.42-.32-.67-.86-.67h-1V17.6Zm-1.42-1.72h1.45a1.41,1.41,0,0,1,1,.34,1,1,0,0,1,.26.67h0a1,1,0,0,1-.92,1l1,1.37H91.1l-1-1.3h-1v1.31h-.38Z" transform="translate(0.39 -0.36)"/><polygon class="cls-106" points="93.21 15.52 93.57 15.52 95.69 18.22 95.69 15.52 96.06 15.52 96.06 18.89 95.76 18.89 93.58 16.13 93.58 18.89 93.21 18.89 93.21 15.52"/><path class="cls-106" d="M100.07,17.58h0a1.33,1.33,0,0,0-1.29-1.39h0a1.33,1.33,0,0,0-1.32,1.33v.05h0A1.34,1.34,0,0,0,98.7,19h0a1.33,1.33,0,0,0,1.32-1.33v-.05m-3,0h0a1.72,1.72,0,1,1,3.44-.17v.17h0a1.73,1.73,0,0,1-1.64,1.8A1.71,1.71,0,0,1,97,17.75a.48.48,0,0,1,0-.17" transform="translate(0.39 -0.36)"/><path class="cls-106" d="M104,16.24V18.9h.78a1.3,1.3,0,0,0,1.39-1.21.41.41,0,0,0,0-.11h0a1.32,1.32,0,0,0-1.28-1.35H104Zm-.38-.36h1.16a1.69,1.69,0,0,1,1.79,1.56v.12h0a1.68,1.68,0,0,1-1.67,1.68h-1.29Z" transform="translate(0.39 -0.36)"/><polygon class="cls-106" points="108.14 15.52 110.58 15.52 110.58 15.87 108.52 15.87 108.52 17.02 110.36 17.02 110.36 17.36 108.52 17.36 108.52 18.54 110.6 18.54 110.6 18.89 108.14 18.89 108.14 15.52"/><polygon class="cls-106" points="113.63 15.52 114.01 15.52 114.01 18.54 115.9 18.54 115.9 18.89 113.63 18.89 113.63 15.52"/><path class="cls-106" d="M118.78,18,118,16.3,117.25,18Zm-.93-2.18h.35l1.54,3.39h-.42l-.42-.88h-1.83l-.42.88h-.39Z" transform="translate(0.39 -0.36)"/><path class="cls-106" d="M69.88,23.35h0a1.71,1.71,0,0,1,1.67-1.75h.1a1.76,1.76,0,0,1,1.32.52l-.48.54a1.25,1.25,0,0,0-.86-.38,1,1,0,0,0-1,1v0h0a1,1,0,0,0,.94,1.06h.06a1.2,1.2,0,0,0,.89-.39l.47.47a1.77,1.77,0,0,1-3.11-1.07v-.06" transform="translate(0.39 -0.36)"/><rect class="cls-106" x="74" y="21.3" width="0.74" height="3.37"/><path class="cls-106" d="M75.2,23.58V21.66h.74v1.91c0,.54.28.83.73.83s.72-.27.72-.81V21.66h.74v1.9a1.47,1.47,0,1,1-2.93,0" transform="translate(0.39 -0.36)"/><path class="cls-106" d="M80.29,24.36a1,1,0,0,0,1-.9v-.11h0a1,1,0,0,0-.92-1h-.67v2ZM79,21.66h1.31a1.68,1.68,0,0,1,1.79,1.55v.13h0A1.66,1.66,0,0,1,80.41,25H79Z" transform="translate(0.39 -0.36)"/><path class="cls-106" d="M84.5,23.62l-.44-1.08-.45,1.1Zm-.78-2h.69L85.85,25h-.79l-.31-.76H83.33L83,25h-.76Z" transform="translate(0.39 -0.36)"/><path class="cls-106" d="M87.7,24.36a1,1,0,0,0,1-.9v-.11h0a1,1,0,0,0-.92-1h-.65v2Zm-1.31-2.7H87.7a1.68,1.68,0,0,1,1.79,1.55v.13h0A1.67,1.67,0,0,1,87.82,25H86.39Z" transform="translate(0.39 -0.36)"/><path class="cls-106" d="M93,24.36a1,1,0,0,0,1-.9.21.21,0,0,0,0-.11h0a1,1,0,0,0-.92-1h-.66v2Zm-1.32-2.7H93a1.67,1.67,0,0,1,1.78,1.55.53.53,0,0,1,0,.13h0A1.67,1.67,0,0,1,93.08,25H91.64Z" transform="translate(0.39 -0.36)"/><polygon class="cls-106" points="95.85 21.3 98.38 21.3 98.38 21.95 96.58 21.95 96.58 22.64 98.17 22.64 98.17 23.3 96.58 23.3 96.58 24.01 98.41 24.01 98.41 24.66 95.85 24.66 95.85 21.3"/><polygon class="cls-106" points="100.56 21.3 101.36 21.3 102.25 22.72 103.13 21.3 103.93 21.3 103.93 24.66 103.19 24.66 103.19 22.46 102.25 23.91 102.23 23.91 101.29 22.48 101.29 24.66 100.56 24.66 100.56 21.3"/><path class="cls-106" d="M105.83,20.54l.63.28-.62.58h-.55Zm-1.41,1.12H107v.66h-1.8V23h1.59v.66h-1.59v.71H107V25h-2.57Z" transform="translate(0.39 -0.36)"/><polygon class="cls-106" points="109.03 22.95 107.9 21.3 108.77 21.3 109.48 22.39 110.19 21.3 111.03 21.3 109.91 22.94 111.08 24.66 110.22 24.66 109.46 23.51 108.7 24.66 107.86 24.66 109.03 22.95"/><rect class="cls-106" x="111.65" y="21.3" width="0.74" height="3.37"/><path class="cls-106" d="M112.7,23.35h0a1.72,1.72,0,0,1,1.68-1.74h.08a1.75,1.75,0,0,1,1.34.51l-.48.55a1.24,1.24,0,0,0-.85-.38,1,1,0,0,0-1,1v0h0a1,1,0,0,0,1,1.06h0a1.24,1.24,0,0,0,.88-.39l.47.47a1.72,1.72,0,0,1-1.38.6,1.7,1.7,0,0,1-1.74-1.66v-.07" transform="translate(0.39 -0.36)"/><path class="cls-106" d="M119,23.35h0a1,1,0,0,0-1-1.06h0a1,1,0,0,0-1,1v0h0a1,1,0,0,0,1,1.06h0a1,1,0,0,0,1-1v0m-2.8,0h0a1.73,1.73,0,0,1,1.74-1.74h0a1.74,1.74,0,0,1,1.79,1.67v.06h0a1.79,1.79,0,0,1-3.58,0" transform="translate(0.39 -0.36)"/><text class="cls-107" transform="translate(138.44 17.65)">SECRE<tspan class="cls-108" x="20.49" y="0">T</tspan><tspan x="24.09" y="0">ARÍA</tspan></text><text class="cls-109" transform="translate(139.77 23.92)">DE CU<tspan class="cls-110" x="17.61" y="0">L</tspan><tspan x="20.76" y="0">TURA</tspan></text><line class="cls-111" x1="133.66" y1="7.77" x2="133.66" y2="29.36"/><line class="cls-111" x1="184.7" y1="12.14" x2="184.7" y2="25.15"/><line class="cls-111" x1="228.59" y1="12.14" x2="228.59" y2="25.15"/><image width="640" height="360" transform="translate(228.59 7.77) scale(0.06)" xlink:href="logo_c21_2019_color_1.png"/><text class="cls-112" transform="translate(191.4 25.15)">DIF</text><text class="cls-113" transform="translate(540.63 15.74)">CIUDAD INNO<tspan class="cls-114" x="60" y="0">V</tspan><tspan x="65.33" y="0">ADOR</tspan><tspan class="cls-18" x="91.83" y="0">A</tspan><tspan class="cls-115" x="98" y="0" xml:space="preserve"> Y</tspan><tspan x="106.18" y="0" xml:space="preserve"> DE </tspan><tspan x="0" y="10.8" xml:space="preserve">          DERECHOS / </tspan><tspan class="cls-116" x="83.51" y="10.8">NUESTRA CASA</tspan></text><text class="cls-117" transform="translate(242.53 50.42)">CAPI<tspan class="cls-118" x="33.45" y="0">T</tspan><tspan x="40.96" y="0">A</tspan><tspan class="cls-19" x="51.07" y="0">L</tspan><tspan x="59.37" y="0" xml:space="preserve"> CU</tspan><tspan class="cls-118" x="83.48" y="0">L</tspan><tspan x="90.99" y="0">TURA</tspan><tspan class="cls-19" x="129.88" y="0">L</tspan><tspan x="138.17" y="0"> </tspan><tspan class="cls-119" x="142.06" y="0">DE</tspan><tspan class="cls-120" x="161.51" y="0"> </tspan><tspan class="cls-119" x="164.63" y="0">AMÉRIC</tspan><tspan class="cls-120" x="219.08" y="0">A</tspan></text></g></svg>