<?xml version="1.0" encoding="UTF-8"?>
<svg width="311px" height="366px" viewBox="0 0 311 366" version="1.1" xmlns="http://www.w3.org/2000/svg" xmlns:xlink="http://www.w3.org/1999/xlink">
    <!-- Generator: Sketch 63.1 (92452) - https://sketch.com -->
    <title>alimentacion@2x</title>
    <desc>Created with Sketch.</desc>
    <defs>
        <rect id="path-1" x="0" y="0" width="255" height="310" rx="8"></rect>
        <filter x="-16.9%" y="-13.2%" width="133.7%" height="127.7%" filterUnits="objectBoundingBox" id="filter-3">
            <feOffset dx="0" dy="2" in="SourceAlpha" result="shadowOffsetOuter1"></feOffset>
            <feGaussianBlur stdDeviation="14" in="shadowOffsetOuter1" result="shadowBlurOuter1"></feGaussianBlur>
            <feColorMatrix values="0 0 0 0 0   0 0 0 0 0   0 0 0 0 0  0 0 0 0.06 0" type="matrix" in="shadowBlurOuter1"></feColorMatrix>
        </filter>
        <path d="M3.00025,7.99927241 C2.74425,7.99927241 2.48825,7.90127241 2.29325,7.70627241 C1.90225,7.31527241 1.90225,6.68327241 2.29325,6.29227241 L5.59825,2.98727241 L2.41825,-0.305727588 C2.03525,-0.703727588 2.04625,-1.33672759 2.44325,-1.71972759 C2.84125,-2.10272759 3.47425,-2.09172759 3.85725,-1.69572759 L7.71925,2.30427241 C8.09825,2.69727241 8.09325,3.32027241 7.70725,3.70627241 L3.70725,7.70627241 C3.51225,7.90127241 3.25625,7.99927241 3.00025,7.99927241" id="path-4"></path>
    </defs>
    <g id="Screens" stroke="none" stroke-width="1" fill="none" fill-rule="evenodd">
        <g id="Materias-" transform="translate(-707.000000, -1723.000000)" fill="#D8D8D8">
            <g id="Ficha-de-repaso" transform="translate(735.000000, 1749.000000)">
                <g id="Group" fill="none">
                    <mask id="mask-2" fill="white">
                        <use xlink:href="#path-1"></use>
                    </mask>
                    <g id="Mask">
                        <use fill="black" fill-opacity="1" filter="url(#filter-3)" xlink:href="#path-1"></use>
                        <use fill="#FFFFFF" fill-rule="evenodd" xlink:href="#path-1"></use>
                    </g>
                    <rect id="Rectangle" fill="#E4E9F2" fill-rule="nonzero" opacity="0.497465588" mask="url(#mask-2)" x="0" y="0" width="255" height="88"></rect>
                    <g id="atomo/-button/-primario/-228x48px/-active-copy-2" mask="url(#mask-2)">
                        <g transform="translate(27.000000, 232.000000)" id="Group">
                            <g>
                                <rect id="Rectangle" fill="#52AF32" x="0" y="0" width="200" height="48" rx="24"></rect>
                                <g id="Group-2" transform="translate(30.225131, 16.000000)">
                                    <g id="Group-3">
                                        <text id="Ver-actividades" font-family="Montserrat-Medium, Montserrat" font-size="16" font-weight="400" line-spacing="16" fill="#FFFFFF">
                                            <tspan x="0.298429319" y="15">Ver actividades</tspan>
                                        </text>
                                        <g id="Arrow_down" transform="translate(140.596859, 9.000000) rotate(-90.000000) translate(-140.596859, -9.000000) translate(135.596859, 6.000000)">
                                            <mask id="mask-5" fill="white">
                                                <use xlink:href="#path-4"></use>
                                            </mask>
                                            <use id="🎨-Icon-Сolor" fill="#FFFFFF" fill-rule="nonzero" transform="translate(5.000080, 2.999636) rotate(-270.000000) translate(-5.000080, -2.999636) " xlink:href="#path-4"></use>
                                        </g>
                                    </g>
                                </g>
                            </g>
                        </g>
                    </g>
                    <text id="Fichas-de-repaso" font-family="Montserrat-Medium, Montserrat" font-size="20" font-weight="400" letter-spacing="0.416666667" fill="#333E53">
                        <tspan x="16.8933333" y="196">Salud y alimentación</tspan>
                    </text>
                </g>
                <g id="icono_01--copy-11" fill="none" transform="translate(74.000000, 24.000000)">
                    <g id="convocatoria" fill="#52AF32">
                        <g id="Capa_1_1_">
                            <path d="M0.0114435754,53.9396648 C0.0114435754,24.1495642 24.1610279,0 53.9511285,0 C83.7412291,0 107.890793,24.1495642 107.890793,53.9396648 C107.890793,83.7297654 83.7412291,107.87933 53.9511285,107.87933 C24.1610279,107.87933 0.0114435754,83.7297654 0.0114435754,53.9396648 Z" id="Path"></path>
                        </g>
                    </g>
                    <g id="food-and-restaurant">
                        <rect id="Rectangle" fill="#48C1E1" fill-rule="nonzero" x="12.8254219" y="9.8128125" width="10.9212891" height="7.28767969"></rect>
                        <path d="M25.9993125,9.01061719 C25.9993125,9.60820312 25.5105703,10.0971562 24.9129844,10.0971562 L11.6591484,10.0971562 C11.0615625,10.0971562 10.5728203,9.60820312 10.5728203,9.01061719 L10.5728203,1.17914063 C10.5728203,0.581554688 11.0615625,0.0926015625 11.6591484,0.0926015625 L24.9127734,0.0926015625 C25.5103594,0.0926015625 25.9991016,0.581554688 25.9991016,1.17914063 L25.9993125,9.01061719 L25.9993125,9.01061719 Z" id="Path" fill="#046699" fill-rule="nonzero"></path>
                        <g id="Group" opacity="0.1" transform="translate(10.546875, 0.000000)" fill="#000000" fill-rule="nonzero">
                            <path d="M4.55751562,9.01061719 L4.55751562,1.17914063 C4.55751562,0.581554688 5.04625781,0.0926015625 5.64405469,0.0926015625 L1.11227344,0.0926015625 C0.5146875,0.0926015625 0.0259453125,0.581554688 0.0259453125,1.17914063 L0.0259453125,9.01061719 C0.0259453125,9.60820313 0.5146875,10.0971563 1.11227344,10.0971563 L5.64405469,10.0971563 C5.04646875,10.0971563 4.55751562,9.60820313 4.55751562,9.01061719 Z" id="Path"></path>
                        </g>
                        <path d="M9.439875,68.8883906 C9.49577344,68.8653984 9.53922656,68.8194141 9.55884375,68.76225 C9.57867188,68.7050859 9.57276563,68.6422266 9.54323438,68.5897031 C9.45274219,68.4298125 9.40696875,68.2726641 9.40696875,68.1228984 C9.40696875,66.9602109 11.9865234,65.7154687 15.8270625,65.7154687 C17.0629453,65.7154687 18.2669766,65.8527891 19.3090078,66.112875 C19.3258828,66.1170937 19.3429688,66.1192031 19.3600547,66.1192031 C19.4153203,66.1192031 19.4691094,66.0974766 19.5091875,66.0573984 C19.5617109,66.004875 19.5828047,65.9289375 19.5646641,65.8572187 C18.8945156,63.1823203 18.5108203,60.4331719 18.42075,57.6236953 C18.4194844,57.591 18.417375,57.5583047 18.4163203,57.5253984 C18.4042969,57.1244062 18.3979688,56.7221484 18.3979688,56.3188359 C18.3979688,55.8324141 18.7926328,55.4366953 19.278,55.4366953 L21.1838203,55.4366953 C21.2437266,55.4366953 21.3011016,55.4111719 21.3409688,55.3664531 C21.3808359,55.3217344 21.4000313,55.2620391 21.3934922,55.2023437 C21.3622734,54.9228516 21.3477188,54.6893437 21.3477188,54.4672266 C21.3477188,51.4951172 23.2482656,48.8993203 26.0771484,48.0081094 C26.1353672,47.9897578 26.1828281,47.9469375 26.2070859,47.8908281 C26.2315547,47.8347187 26.2302891,47.7708047 26.2037109,47.71575 C25.9467891,47.1797578 25.7666484,46.6195078 25.6679297,46.0508203 C25.1751797,43.2071719 26.6629219,40.3759687 29.2855078,39.1658203 C29.3846484,39.1200469 29.4325313,39.0061406 29.3958281,38.9032031 C29.2726406,38.5585312 29.1794062,38.2045781 29.1182344,37.8508359 C28.7182969,35.5436016 29.6206875,33.3059766 31.2921563,31.8891094 L31.2921563,22.8303984 C31.2921563,19.4954766 28.5700078,16.767 25.2424687,16.767 L11.3292422,16.767 C8.002125,16.767 5.27976563,19.4954766 5.27976563,22.8303984 L5.27976563,71.4044531 C6.49202344,70.3826719 7.88948438,69.5271094 9.439875,68.8883906 Z" id="Path" fill="#A2DFF9" fill-rule="nonzero"></path>
                        <path d="M26.0773594,48.0076875 C26.1355781,47.9893359 26.1830391,47.9465156 26.2072969,47.8904062 C26.2317656,47.8342969 26.2305,47.7703828 26.2039219,47.7153281 C25.947,47.1793359 25.7668594,46.6190859 25.6681406,46.0503984 C25.1753906,43.20675 26.6631328,40.3755469 29.2857187,39.1653984 C29.3848594,39.119625 29.4327422,39.0057187 29.3960391,38.9027812 C29.2728516,38.5581094 29.1796172,38.2041562 29.1184453,37.8504141 C28.7185078,35.5431797 29.6208984,33.3055547 31.2923672,31.8886875 L31.2923672,27.81 L5.27976563,27.81 L5.27976563,50.2541719 L22.8126797,50.2541719 C23.6309063,49.2226875 24.7499297,48.4259766 26.0773594,48.0076875 Z" id="Path" fill="#046699" fill-rule="nonzero"></path>
                        <path d="M11.8125,66.2584219 L11.8125,22.8301875 C11.8125,19.4952656 14.5346484,16.7667891 17.8619766,16.7667891 L11.3292422,16.7667891 C8.002125,16.7667891 5.27976563,19.4952656 5.27976563,22.8301875 L5.27976563,71.4044531 C6.49202344,70.3826719 7.88948438,69.5273203 9.439875,68.8883906 C9.49577344,68.8653984 9.53922656,68.8194141 9.55884375,68.76225 C9.57867188,68.7050859 9.57276563,68.6422266 9.54323438,68.5897031 C9.45274219,68.4298125 9.40696875,68.2726641 9.40696875,68.1228984 C9.40717969,67.4396719 10.2992344,66.7290234 11.8125,66.2584219 Z" id="Path" fill="#000000" fill-rule="nonzero" opacity="0.1"></path>
                        <path d="M51.1607813,34.01325 C51.2217422,34.3650938 51.2531719,34.7300156 51.2538047,35.0981016 C51.2540156,35.2073672 51.3373359,35.2982813 51.4461797,35.3079844 C54.1463906,35.5452891 56.4040547,37.4688281 57.0647109,40.0947891 C57.0828516,40.1671406 57.1381172,40.2245156 57.209625,40.2456094 C57.2294531,40.2515156 57.2492813,40.2542578 57.2693203,40.2542578 C57.3220547,40.2542578 57.3735234,40.2344297 57.4131797,40.1975156 C58.5134297,39.1713047 59.882625,38.5545234 61.3728984,38.4140391 C61.4785781,38.404125 61.5606328,38.3170078 61.5637969,38.2109063 C61.6597734,35.2529297 62.8625391,32.4712969 64.9508203,30.3785859 C64.9944844,30.3349219 65.0400469,30.2942109 65.0843438,30.2511797 C64.6223906,27.3060703 63.2652188,24.4759219 61.0056563,22.2112969 C60.5612109,21.7662187 59.8408594,21.7660078 59.3957813,22.2112969 L50.1364687,31.4919141 C50.641875,32.2289297 50.9992031,33.0819609 51.1607813,34.01325 Z" id="Path" fill="#EF5050" fill-rule="nonzero"></path>
                        <g id="Group" transform="translate(54.843750, 26.156250)" fill="#C0272D" fill-rule="nonzero">
                            <path d="M2.22075,13.9385391 C2.23889063,14.0108906 2.29415625,14.0682656 2.36566406,14.0893594 C2.38549219,14.0952656 2.40532031,14.0980078 2.42535938,14.0980078 C2.47809375,14.0980078 2.5295625,14.0781797 2.56921875,14.0412656 C3.1066875,13.5398672 3.709125,13.1380312 4.35796875,12.8399766 C4.28540625,12.5980313 4.15399219,12.3697969 3.96309375,12.1782656 L2.42725781,10.6386328 C1.81047656,10.0201641 0.808734375,10.0186875 0.190054688,10.6358906 C0.185414063,10.6403203 0.181828125,10.6451719 0.177398438,10.6498125 C1.16121094,11.4887109 1.89063281,12.625875 2.22075,13.9385391 Z" id="Path"></path>
                            <path d="M5.51074219,9.25572656 L3.33892969,9.25572656 C2.46501563,9.25572656 1.75689844,8.54739844 1.75689844,7.67369531 C1.75689844,6.79999219 2.46501563,6.09166406 3.33892969,6.09166406 L5.51074219,6.09166406 C6.38465625,6.09166406 7.09277344,6.79999219 7.09277344,7.67369531 C7.09277344,8.54760937 6.38465625,9.25572656 5.51074219,9.25572656 Z" id="Path"></path>
                            <path d="M3.0324375,4.88510156 C2.62807031,4.88510156 2.22370312,4.73111719 1.91489062,4.4229375 C1.29642187,3.80573438 1.29557812,2.80399219 1.91257031,2.18552344 L3.44903906,0.646101562 C4.06624219,0.02784375 5.06798437,0.0267890625 5.68624219,0.643992187 C6.30471094,1.26119531 6.30555469,2.2629375 5.6885625,2.88140625 L4.15209375,4.42082812 C3.84328125,4.7300625 3.43785938,4.88510156 3.0324375,4.88510156 Z" id="Path"></path>
                        </g>
                        <path d="M77.7102187,27.8146406 C77.6916562,27.7663359 77.6627578,27.7233047 77.6268984,27.6872344 C77.5908281,27.6511641 77.5480078,27.6224766 77.4997031,27.6034922 C73.1183203,25.8584062 68.1338672,26.8892578 64.8010547,30.2294531 C62.5870547,32.4485156 61.3914609,35.3982656 61.3477969,38.4161484 C61.56675,38.3946328 61.7888672,38.3830313 62.0133047,38.3830313 C65.2942266,38.3830313 68.0349375,40.7392031 68.6432812,43.8517969 C71.0357344,43.4619844 73.3012031,42.3355781 75.0905859,40.5421875 C78.4231875,37.2015703 79.4515078,32.2059375 77.7102187,27.8146406 Z" id="Path" fill="#89C947" fill-rule="nonzero"></path>
                        <path d="M72.0262969,33.3009141 C71.4078281,32.6837109 70.4060859,32.6847656 69.7890938,33.3034453 L64.3165313,38.7884531 C65.3494922,39.1649766 66.2653828,39.7872422 66.9941719,40.584375 L72.0290391,35.5381172 C72.6462422,34.9196484 72.6449766,33.9179063 72.0262969,33.3009141 Z" id="Path" fill="#D5E962" fill-rule="nonzero"></path>
                        <g id="Group" transform="translate(21.093750, 35.648438)" fill="#FFC502" fill-rule="nonzero">
                            <path d="M58.8884766,10.2840469 C58.9435313,10.6029844 58.9717969,10.9314141 58.9720078,11.2604766 C58.9722188,11.3697422 59.05575,11.4606562 59.1643828,11.4703594 C60.0205781,11.5456641 60.8369062,11.8110234 61.5905859,12.2590547 C61.624125,12.2790937 61.66125,12.2887969 61.698375,12.2887969 C61.7574375,12.2887969 61.8160781,12.2639062 61.8574219,12.2164453 C62.0373516,12.0103594 62.1915469,11.8435078 62.3434219,11.6914219 C63.6166406,10.41525 65.1562734,9.50442187 66.835125,9.007875 C66.9926953,8.42484375 67.078125,7.81228125 67.078125,7.17925781 C67.078125,3.3226875 63.9587813,0.195960937 60.1106484,0.195960937 C56.8288828,0.195960937 54.0784687,2.47092187 53.3397656,5.53267969 C56.0912344,5.58035156 58.4166094,7.5616875 58.8884766,10.2840469 Z" id="Path"></path>
                            <path d="M11.1393984,19.6363828 C10.4329688,18.3844688 9.98578125,17.0114766 9.81492188,15.5986172 C7.759125,15.2623828 6.01382812,13.9457109 5.11966406,12.0972656 C2.19100781,12.9237188 0.043453125,15.6186563 0.043453125,18.8181563 C0.043453125,19.0953281 0.064546875,19.3674375 0.0959765625,19.6361719 L11.1393984,19.6361719 L11.1393984,19.6363828 Z" id="Path"></path>
                        </g>
                        <path d="M85.4073281,51.8518125 C85.6110938,53.0273672 85.4490938,54.2113594 84.9398906,55.2848203 L93.8929219,55.2848203 C96.0071484,52.3156641 96.51825,48.4407422 95.1435703,44.9729297 C95.1260625,44.9288437 95.0999063,44.8891875 95.0667891,44.8560703 C95.0336719,44.8229531 94.9940156,44.7965859 94.9501406,44.7790781 C90.9260859,43.176375 86.3487422,44.1230625 83.2878281,47.1907266 C83.0642344,47.4149531 82.8551953,47.6490937 82.6543828,47.8887187 C84.0752578,48.7231875 85.1124375,50.1501797 85.4073281,51.8518125 Z" id="Path" fill="#89C947" fill-rule="nonzero"></path>
                        <path d="M84.9398906,55.2848203 L86.8963359,55.2848203 L90.0167344,52.1574609 C90.6339375,51.5389922 90.6326719,50.53725 90.0139922,49.9202578 C89.3955234,49.3030547 88.3937813,49.3041094 87.7767891,49.9227891 L85.4600625,52.2447891 C85.5689063,53.2895625 85.3923516,54.3309609 84.9398906,55.2848203 Z" id="Path" fill="#D5E962" fill-rule="nonzero"></path>
                        <path d="M57.3068672,40.2169219 C56.6721563,37.3755938 54.2670469,35.3438438 51.4647422,35.0976797 C51.4641094,34.7279063 51.4341563,34.3534922 51.3687656,33.9769688 C50.7473438,30.391875 47.3328984,27.9916172 43.7427422,28.616625 C41.8791094,28.9410469 40.3365234,30.0178828 39.3678984,31.4782031 C37.965375,30.4304766 36.1502578,29.9383594 34.286625,30.2625703 C30.6958359,30.8877891 28.28925,34.3011797 28.9110938,37.8862734 C28.9760625,38.2627969 29.0735156,38.6256094 29.1977578,38.9736563 C26.5483828,40.1960391 24.9395625,43.0797656 25.4605781,46.0862578 C25.9529063,48.9282187 28.2012891,51.0234609 30.9008672,51.4592578 C30.6393047,49.6468828 30.8491875,47.7762891 31.5497109,46.0092656 C31.5564609,45.9919688 31.5665859,45.9767813 31.579875,45.9632813 C31.5927422,45.9504141 31.6083516,45.9402891 31.6254375,45.9333281 C32.8822031,45.4327734 34.2030938,45.1788047 35.5509844,45.1788047 C38.3861953,45.1788047 41.0530781,46.2864375 43.0601484,48.2979375 C43.2052734,48.4436953 43.3444922,48.5940938 43.480125,48.7468125 C43.3679063,48.0195 43.3096875,47.2791094 43.3096875,46.5288047 C43.3096875,46.0162266 43.7254453,45.5992031 44.2365469,45.5992031 L55.2820781,45.5992031 C55.2725859,45.4523906 55.265625,45.3047344 55.265625,45.1553906 C55.265625,43.227 56.0456719,41.4808594 57.3068672,40.2169219 Z" id="Path" fill="#368C0E" fill-rule="nonzero"></path>
                        <g id="Group" transform="translate(32.484375, 34.171875)" fill="#89C947" fill-rule="nonzero">
                            <path d="M1.72019531,6.66288281 C1.71091406,6.66288281 1.70184375,6.66267187 1.69277344,6.66267187 C0.819070313,6.64790625 0.122976562,5.92776562 0.137742188,5.0540625 C0.184148438,2.31503906 2.43063281,0.1164375 5.16227344,0.1164375 C5.1890625,0.1164375 5.21564062,0.116648437 5.24264063,0.117070312 C6.61879688,0.138375 7.94074219,0.733429687 8.86907813,1.7499375 C9.45822656,2.39519531 9.412875,3.39588281 8.76782813,3.98503125 C8.12278125,4.57439062 7.12209375,4.52903906 6.53273438,3.88399219 C6.18510938,3.50303906 5.70923438,3.2889375 5.19307031,3.28092187 C4.16475,3.26425781 3.31846875,4.08438281 3.30117188,5.10785156 C3.28682812,5.9720625 2.58124219,6.66267188 1.72019531,6.66288281 Z" id="Path"></path>
                            <path d="M10.4538516,9.38503125 C10.2711797,9.38503125 10.0853437,9.35317969 9.90414844,9.28589062 C9.08486719,8.98192969 8.667,8.07173437 8.97075,7.25245313 C9.8533125,4.87328906 12.5083828,3.65238281 14.8902891,4.5309375 C16.0749141,4.96842188 17.0376328,5.88578906 17.5314375,7.04805469 C17.8731562,7.85214844 17.4985312,8.78111719 16.6942266,9.12283594 C15.8905547,9.46476563 14.961375,9.08992969 14.6194453,8.285625 C14.4627187,7.91711719 14.1697266,7.63783594 13.7946797,7.49925 C13.0464844,7.22334375 12.214125,7.60640625 11.937375,8.35270313 C11.7009141,8.99057813 11.0963672,9.38503125 10.4538516,9.38503125 Z" id="Path"></path>
                        </g>
                        <path d="M68.7559219,45.5821172 L68.698125,45.5821172 C68.6977031,45.5968828 68.6977031,45.6118594 68.6970703,45.626625 L70.8161484,45.626625 C71.4449531,45.626625 71.9543672,46.1373047 71.9543672,46.7671641 C71.9543672,49.9459922 70.9283672,52.8851953 69.2001562,55.2848203 L85.1672812,55.2848203 C85.6446328,54.2343516 85.8266719,53.0372813 85.6151016,51.8157422 C85.1447109,49.1005547 82.9009687,47.1390469 80.2766953,46.9084922 C80.2762734,46.5745781 80.2486406,46.2362344 80.19,45.8964141 C79.6286953,42.6581016 76.5447891,40.4902969 73.3022578,41.0547656 C71.6189766,41.3481797 70.2253125,42.3203906 69.3507656,43.6398047 C69.0670547,43.4280234 68.7637266,43.2436641 68.4462656,43.0850391 C68.6559375,43.7381016 68.7704766,44.4335625 68.7704766,45.1556016 C68.7702656,45.2948203 68.765625,45.4357266 68.7559219,45.5821172 Z" id="Path" fill="#368C0E" fill-rule="nonzero"></path>
                        <path d="M68.9645391,45.5992031 C68.9742422,45.4523906 68.9812031,45.3047344 68.9812031,45.1553906 C68.9812031,41.2983984 65.8616484,38.1718828 62.0135156,38.1718828 C58.1655938,38.1718828 55.0460391,41.2986094 55.0460391,45.1553906 C55.0460391,45.3047344 55.053,45.4523906 55.0624922,45.5992031 L68.9645391,45.5992031 Z" id="Path" fill="#F7931E" fill-rule="nonzero"></path>
                        <path d="M43.2094922,48.1492266 C40.1485781,45.0817734 35.5710234,44.1350859 31.5471797,45.7375781 C31.5030937,45.7552969 31.4636484,45.7816641 31.4303203,45.8145703 C31.3974141,45.8476875 31.3710469,45.8871328 31.3535391,45.9316406 C30.1225078,49.0370625 30.4043203,52.4688047 31.9939453,55.2848203 L46.3545703,55.2848203 C44.8999453,53.3471484 43.9138125,51.0378047 43.5676641,48.5259609 C43.4516484,48.3981328 43.3324687,48.2724141 43.2094922,48.1492266 Z" id="Path" fill="#89C947" fill-rule="nonzero"></path>
                        <path d="M38.6441719,55.2848203 L43.1137266,55.2848203 L38.7201094,50.8812891 C38.1029063,50.2630313 37.1015859,50.2613438 36.4829062,50.8787578 C35.8642266,51.49575 35.8629609,52.4974922 36.4801641,53.1159609 L38.6441719,55.2848203 Z" id="Path" fill="#D5E962" fill-rule="nonzero"></path>
                        <path d="M69.3068906,55.2848203 C71.1397266,52.8430078 72.2325938,49.8128906 72.2325938,46.5288047 C72.2325938,45.8989453 71.7233906,45.3882656 71.094375,45.3882656 L44.2365469,45.3882656 C43.6077422,45.3882656 43.09875,45.8989453 43.09875,46.5288047 C43.09875,49.8128906 44.1916172,52.8430078 46.0246641,55.2848203 L69.3068906,55.2848203 Z" id="Path" fill="#EF5050" fill-rule="nonzero"></path>
                        <g id="Group" transform="translate(46.617188, 47.671875)" fill="#C0272D" fill-rule="nonzero">
                            <path d="M12.6878906,7.61294531 L12.6878906,6.51860156 C12.6878906,5.64489844 11.9797734,4.93657031 11.1058594,4.93657031 C10.2319453,4.93657031 9.52382812,5.64489844 9.52382812,6.51860156 L9.52382812,7.61294531 L12.6878906,7.61294531 Z" id="Path"></path>
                            <path d="M15.7230703,7.61294531 L18.1832344,7.61294531 C18.6922266,6.99215625 18.6576328,6.07457813 18.0786094,5.49407812 L16.5427734,3.95465625 C15.9257812,3.3361875 14.9240391,3.33471094 14.3055703,3.95191406 C13.6868906,4.56911719 13.6858359,5.57064844 14.3028281,6.18911719 L15.7230703,7.61294531 Z" id="Path"></path>
                            <path d="M6.23932031,7.61294531 L7.65935156,6.18953906 C8.27655469,5.57107031 8.2755,4.56932813 7.65703125,3.95233594 C7.0385625,3.33513281 6.03682031,3.3361875 5.41961719,3.95465625 L3.88357031,5.49407813 C3.30454687,6.07436719 3.26974219,6.99194531 3.77852344,7.61273438 L6.23932031,7.61294531 L6.23932031,7.61294531 Z" id="Path"></path>
                            <path d="M3.807,3.34652344 L1.63476563,3.34652344 C0.760851563,3.34652344 0.052734375,2.63819531 0.052734375,1.76449219 C0.052734375,0.890789063 0.760851563,0.182460938 1.63476563,0.182460938 L3.807,0.182460938 C4.68091406,0.182460938 5.38903125,0.890789063 5.38903125,1.76449219 C5.38903125,2.63819531 4.68070312,3.34652344 3.807,3.34652344 Z" id="Path"></path>
                            <path d="M20.4622031,3.34652344 L18.2897578,3.34652344 C17.4160547,3.34652344 16.7077266,2.63819531 16.7077266,1.76449219 C16.7077266,0.890789063 17.4160547,0.182460938 18.2897578,0.182460938 L20.4622031,0.182460938 C21.3361172,0.182460938 22.0442344,0.890789063 22.0442344,1.76449219 C22.0442344,2.63819531 21.3359063,3.34652344 20.4622031,3.34652344 Z" id="Path"></path>
                        </g>
                        <path d="M19.6129687,66.1930312 C19.6319531,66.1983047 19.6511484,66.2010469 19.6701328,66.2010469 C19.7156953,66.2010469 19.7604141,66.1862812 19.7975391,66.1582266 C19.8502734,66.1183594 19.8810703,66.0561328 19.8810703,65.9901094 L19.8810703,63.3126797 C19.8810703,62.5566797 20.4961641,61.9415859 21.2521641,61.9415859 C22.0081641,61.9415859 22.6232578,62.5566797 22.6232578,63.3126797 L22.6232578,65.9901094 C22.6232578,66.0561328 22.6540547,66.1183594 22.7067891,66.1582266 C22.7439141,66.1862812 22.7886328,66.2010469 22.8341953,66.2010469 C22.8533906,66.2010469 22.8725859,66.1985156 22.8913594,66.1930312 C24.0011016,65.8804219 25.3103906,65.7150469 26.6770547,65.7150469 C30.5171719,65.7150469 33.0969375,66.9597891 33.0969375,68.1224766 C33.0969375,68.2726641 33.0511641,68.4298125 32.9606719,68.5897031 C32.9307187,68.6422266 32.9250234,68.7052969 32.9448516,68.7624609 C32.9646797,68.819625 33.0079219,68.8656094 33.0638203,68.8886016 C37.9805625,70.9152891 41.4646172,75.2144062 42.1567031,80.1079453 C42.1657734,80.1714375 42.2031094,80.2273359 42.2581641,80.2600312 C42.2910703,80.2794375 42.3281953,80.2893516 42.3655312,80.2893516 C42.3908437,80.2893516 42.4161562,80.2847109 42.4404141,80.2756406 L75.7421719,67.6244531 C76.3865859,67.3797656 77.0628516,67.2557344 77.7521953,67.2557344 C78.7180781,67.2557344 79.6734141,67.5048516 80.5152656,67.975875 C81.9791719,68.7951562 82.9935703,70.2082266 83.298375,71.8524844 L83.5884141,73.4186953 C83.6010703,73.4864063 83.6455781,73.5437812 83.7084375,73.5722578 C83.7362812,73.5849141 83.7660234,73.5912422 83.7957656,73.5912422 C83.8331016,73.5912422 83.8702266,73.5815391 83.9031328,73.5619219 L95.0996953,66.9524062 C96.0617812,63.5240391 96.5494687,59.9693203 96.5494687,56.3182031 C96.5494687,55.7145 96.0609375,55.225125 95.4585,55.225125 L19.2782109,55.225125 C18.6757734,55.225125 18.1872422,55.7145 18.1872422,56.3182031 C18.1872422,59.6828672 18.6032109,62.9654766 19.4205937,66.1430391 C19.4845078,66.1599141 19.5503203,66.1753125 19.6129687,66.1930312 Z" id="Path" fill="#E6E9ED" fill-rule="nonzero"></path>
                        <path d="M19.6129688,66.1930313 C19.6319531,66.1983047 19.6511484,66.2010469 19.6701328,66.2010469 C19.7156953,66.2010469 19.7604141,66.1862813 19.7975391,66.1582266 C19.8502734,66.1183594 19.8810703,66.0561328 19.8810703,65.9901094 L19.8810703,63.3126797 C19.8810703,62.5566797 20.4961641,61.9415859 21.2521641,61.9415859 C22.0081641,61.9415859 22.6232578,62.5566797 22.6232578,63.3126797 L22.6232578,65.9901094 C22.6232578,66.0561328 22.6540547,66.1183594 22.7067891,66.1582266 C22.7439141,66.1862813 22.7886328,66.2010469 22.8341953,66.2010469 C22.8533906,66.2010469 22.8725859,66.1985156 22.8913594,66.1930313 C23.8412109,65.9253516 24.937875,65.7667266 26.0910703,65.7264375 C25.3435078,62.6788125 24.964875,59.5358437 24.964875,56.3182031 C24.964875,55.7145 25.4531953,55.225125 26.0558438,55.225125 L19.2782109,55.225125 C18.6757734,55.225125 18.1872422,55.7145 18.1872422,56.3182031 C18.1872422,59.6828672 18.6032109,62.9654766 19.4205937,66.1430391 C19.4845078,66.1599141 19.5503203,66.1753125 19.6129688,66.1930313 Z" id="Path" fill="#000000" fill-rule="nonzero" opacity="0.1"></path>
                        <path d="M21.2519531,66.9458672 C21.6852188,66.7026562 22.2218438,66.4906641 22.8344063,66.3179063 L22.8344063,63.3124688 C22.8344063,62.4387656 22.1262891,61.7304375 21.252375,61.7304375 C20.3784609,61.7304375 19.6703438,62.4387656 19.6703438,63.3124688 L19.6703438,66.3179063 C20.2829063,66.4904531 20.8188984,66.7026563 21.2519531,66.9458672 Z" id="Path" fill="#89C947" fill-rule="nonzero"></path>
                        <path d="M37.4137734,96.3035156 L31.6998984,96.3058359 L31.6977891,96.3058359 C28.97775,96.305625 26.6454141,94.3725938 26.1522422,91.7090859 L26.0959219,91.4061797 C25.6025391,88.74225 27.0896484,86.1074297 29.6320781,85.1413359 L42.3965391,80.2923047 C41.7392578,75.0348984 38.0343516,70.6317891 32.9469609,68.6116406 C32.4533672,69.4412578 30.7536328,70.1635078 28.5404766,70.4231719 C28.4561016,70.4330859 28.3856484,70.4927813 28.3622344,70.574625 C28.3388203,70.6564688 28.3666641,70.7442188 28.4331094,70.797375 C29.5801875,71.7149531 30.30075,72.6823125 30.3608672,73.3853672 C30.3828047,73.6401797 30.3201563,73.8468984 30.169125,74.0173359 C29.9001797,74.3210859 29.3711484,74.4816094 28.6396172,74.4816094 C28.6396172,74.4816094 28.6396172,74.4816094 28.6394063,74.4816094 C27.2151563,74.4816094 25.2892969,73.8861328 23.4874688,72.8888203 C22.6939219,72.4490156 21.9879141,71.9687109 21.3882188,71.4605625 C21.3487734,71.4272344 21.3002578,71.4105703 21.2519531,71.4105703 C21.2034375,71.4105703 21.1549219,71.4272344 21.1156875,71.4605625 C20.5155703,71.9691328 19.8095625,72.4496484 19.0168594,72.8886094 C17.2150313,73.8861328 15.2889609,74.4816094 13.8647109,74.4816094 C13.1329688,74.4816094 12.6041484,74.3210859 12.3352031,74.0173359 C12.1841719,73.8468984 12.1213125,73.6403906 12.14325,73.3855781 C12.2035781,72.6825234 12.9241406,71.7151641 14.0707969,70.797375 C14.1370313,70.7442188 14.1650859,70.6564688 14.1416719,70.574625 C14.1184688,70.4927813 14.0480156,70.4330859 13.9634297,70.4231719 C11.7496406,70.1635078 10.0496953,69.4408359 9.55694531,68.6107969 C3.93546094,70.8425156 0,75.9830625 0,81.9705234 C0,90.0042891 7.08349219,96.5167734 15.8211563,96.5167734 L37.7578125,96.5167734 C37.9946953,96.5167734 37.8113906,96.4326094 37.4137734,96.3035156 Z" id="Path" fill="#EF5050" fill-rule="nonzero"></path>
                        <path d="M6.84492187,81.9705234 C6.84492187,77.1986953 9.34410938,72.9637031 13.2042656,70.3109531 C11.3661563,69.9901172 9.99147656,69.3431719 9.55673437,68.6110078 C3.93546094,70.8425156 0,75.9830625 0,81.9705234 C0,90.0042891 7.08349219,96.5167734 15.8211562,96.5167734 L22.6662891,96.5167734 C13.928625,96.5167734 6.84492187,90.0042891 6.84492187,81.9705234 Z" id="Path" fill="#000000" fill-rule="nonzero" opacity="0.1"></path>
                        <path d="M33.3080859,68.1226875 C33.3080859,66.6765 30.3393516,65.5043203 26.6772656,65.5043203 C24.4341563,65.5043203 22.4517656,65.9445469 21.2517422,66.6180703 C20.0525625,65.9447578 18.0703828,65.5043203 15.8268516,65.5043203 C12.1649766,65.5043203 9.19582031,66.6765 9.19582031,68.1226875 C9.19582031,69.3094219 11.1967734,70.3111641 13.9383281,70.6328437 C12.2611641,71.9750391 11.4931406,73.3855781 12.1765781,74.1571875 C13.0821328,75.1796016 16.1905078,74.6940234 19.1183203,73.0731797 C19.9403438,72.6179766 20.6606953,72.1222734 21.2513203,71.6215078 C21.8425781,72.1224844 22.5633516,72.6179766 23.3847422,73.0731797 C26.3127656,74.6940234 29.4209297,75.1791797 30.3262734,74.1571875 C31.0099219,73.3855781 30.2421094,71.9750391 28.5643125,70.6328437 C31.3077656,70.3111641 33.3080859,69.3094219 33.3080859,68.1226875 Z" id="Path" fill="#368C0E" fill-rule="nonzero"></path>
                        <g id="Group-2" transform="translate(25.734375, 65.279572)" fill-rule="nonzero">
                            <path d="M82.2411562,12.2106394 L81.8163281,9.91901437 C81.6703594,9.12799874 80.9073984,8.60529562 80.1130078,8.75084249 L63.716625,11.7628191 L74.1856641,4.76454562 C74.682,4.43295187 74.9117109,3.84717843 74.8096172,3.29093624 C74.7807187,3.13652999 74.7262969,2.98507687 74.6452969,2.84100655 L73.4604609,0.742600305 C73.2680859,0.400881555 72.9442969,0.15070968 72.5639766,0.0496706173 C72.1838672,-0.0517903202 71.7788672,0.00347530478 71.4401016,0.203654992 L57.8211328,8.24311593 L60.3975234,22.1523347 L76.0182891,24.9594909 C76.4074687,25.0295222 76.8090937,24.9392409 77.1301406,24.7097409 C77.4513984,24.48003 77.6663437,24.1300847 77.7241406,23.7400612 L78.07725,21.3710222 C78.1017187,21.2079675 78.0983437,21.0468112 78.0696562,20.8932487 C77.9667187,20.3361628 77.5412578,19.8714675 76.9590703,19.7379441 L64.6715391,16.9196081 L81.0681328,13.9074206 C81.8629453,13.7614519 82.3875469,13.0020769 82.2411562,12.2106394 Z" id="Path" fill="#89C947"></path>
                            <path d="M0.210515625,26.467905 C0.722460937,29.23203 3.14317969,31.2380456 5.96552344,31.2369913 L55.3179375,31.2180066 C57.0545859,31.2173737 58.7017969,30.4480847 59.8125937,29.1183347 C60.9238125,27.7887956 61.3840781,26.0363269 61.0689375,24.3346941 L57.7719844,6.53431124 C57.4566328,4.8331003 56.3987812,3.35949093 54.8844609,2.51194405 C53.3701406,1.66439718 51.5562891,1.53129562 49.9333359,2.14744405 L3.82282031,19.6643269 C1.18567969,20.6664909 -0.357539063,23.4004519 0.154195312,26.1647878 L0.210515625,26.467905 Z" id="Path" fill="#F7931E"></path>
                            <g id="Group" opacity="0.1" transform="translate(0.000000, 1.587616)" fill="#000000">
                                <path d="M0.210515625,24.8802891 C0.288984375,25.3046953 0.417445312,25.7084297 0.5805,26.0925469 C1.26077344,24.8840859 2.35342969,23.9063906 3.73275,23.3822109 L51.8874609,5.08865625 C53.5823438,4.44508594 55.4767734,4.58430469 57.0579609,5.4691875 C57.3901875,5.65523438 57.7000547,5.87165625 57.9873516,6.11149219 L57.7719844,4.94690625 C57.4566328,3.24569531 56.3987813,1.77208594 54.8844609,0.924539062 C53.3701406,0.0769921875 51.5562891,-0.056109375 49.9333359,0.560039062 L3.82282031,18.0769219 C1.18567969,19.0790859 -0.357539063,21.8130469 0.154195312,24.5773828 L0.210515625,24.8802891 Z" id="Path"></path>
                            </g>
                            <g id="Group" transform="translate(10.335938, 6.861053)" fill="#FFC502">
                                <path d="M42.1531172,16.9570547 C41.9890078,16.09875 41.1583359,15.5361797 40.3021406,15.7005 C39.4440469,15.8646094 38.8814766,16.6933828 39.0455859,17.5514766 L40.3479141,24.3588516 L43.5691406,24.3575859 L42.1531172,16.9570547 Z" id="Path"></path>
                                <path d="M33.5776641,18.8329219 C33.4156641,17.9741953 32.5887891,17.4097266 31.7298516,17.5713047 C30.8713359,17.7330937 30.3064453,18.5603906 30.4684453,19.4189062 L31.4003672,24.3622266 L34.6199062,24.3609609 L33.5776641,18.8329219 Z" id="Path"></path>
                                <path d="M25.1941641,6.91748437 C25.3749375,7.63509375 26.0193516,8.1135 26.7272578,8.1135 C26.8550859,8.1135 26.9852344,8.09789062 27.11475,8.06519531 C27.9620859,7.8519375 28.4759297,6.99215625 28.2626719,6.14460937 L26.7567891,0.16453125 L23.7787734,1.296 L25.1941641,6.91748437 Z" id="Path"></path>
                                <path d="M16.9621172,17.4542344 C16.8070781,16.5944531 15.9850547,16.0228125 15.1244297,16.1780625 C14.2646484,16.3331016 13.6932188,17.1559687 13.8482578,18.01575 L14.9938594,24.3685547 L18.2087578,24.3672891 L16.9621172,17.4542344 Z" id="Path"></path>
                                <path d="M1.002375,14.4973125 C1.15867969,15.2429766 1.81617188,15.7547109 2.54896875,15.7547109 C2.65675781,15.7547109 2.76602344,15.7437422 2.87571094,15.7205391 C3.73085156,15.5412422 4.27823438,14.7023438 4.0989375,13.8474141 L3.11238281,9.14709375 L0.118335938,10.2844688 L1.002375,14.4973125 Z" id="Path"></path>
                            </g>
                        </g>
                    </g>
                </g>
            </g>
        </g>
    </g>
</svg>