<?xml version="1.0" encoding="UTF-8"?>
<svg width="311px" height="366px" viewBox="0 0 311 366" version="1.1" xmlns="http://www.w3.org/2000/svg" xmlns:xlink="http://www.w3.org/1999/xlink">
    <!-- Generator: Sketch 63.1 (92452) - https://sketch.com -->
    <title>apoyo_socioemocional@2x</title>
    <desc>Created with Sketch.</desc>
    <defs>
        <rect id="path-1" x="0" y="0" width="255" height="310" rx="8"></rect>
        <filter x="-16.9%" y="-13.2%" width="133.7%" height="127.7%" filterUnits="objectBoundingBox" id="filter-3">
            <feOffset dx="0" dy="2" in="SourceAlpha" result="shadowOffsetOuter1"></feOffset>
            <feGaussianBlur stdDeviation="14" in="shadowOffsetOuter1" result="shadowBlurOuter1"></feGaussianBlur>
            <feColorMatrix values="0 0 0 0 0   0 0 0 0 0   0 0 0 0 0  0 0 0 0.06 0" type="matrix" in="shadowBlurOuter1"></feColorMatrix>
        </filter>
        <path d="M3.00025,7.99927241 C2.74425,7.99927241 2.48825,7.90127241 2.29325,7.70627241 C1.90225,7.31527241 1.90225,6.68327241 2.29325,6.29227241 L5.59825,2.98727241 L2.41825,-0.305727588 C2.03525,-0.703727588 2.04625,-1.33672759 2.44325,-1.71972759 C2.84125,-2.10272759 3.47425,-2.09172759 3.85725,-1.69572759 L7.71925,2.30427241 C8.09825,2.69727241 8.09325,3.32027241 7.70725,3.70627241 L3.70725,7.70627241 C3.51225,7.90127241 3.25625,7.99927241 3.00025,7.99927241" id="path-4"></path>
        <circle id="path-6" cx="54.0201117" cy="53.9396648" r="53.9396648"></circle>
        <filter x="-300.0%" y="-300.0%" width="700.0%" height="700.0%" filterUnits="objectBoundingBox" id="filter-8">
            <feGaussianBlur stdDeviation="2" in="SourceGraphic"></feGaussianBlur>
        </filter>
        <filter x="-300.0%" y="-300.0%" width="700.0%" height="700.0%" filterUnits="objectBoundingBox" id="filter-9">
            <feGaussianBlur stdDeviation="2" in="SourceGraphic"></feGaussianBlur>
        </filter>
    </defs>
    <g id="Screens" stroke="none" stroke-width="1" fill="none" fill-rule="evenodd">
        <g id="Materias-" transform="translate(-707.000000, -1366.000000)">
            <g id="apoyo_socioemocional" transform="translate(735.000000, 1392.000000)">
                <g id="Group">
                    <mask id="mask-2" fill="white">
                        <use xlink:href="#path-1"></use>
                    </mask>
                    <g id="Mask">
                        <use fill="black" fill-opacity="1" filter="url(#filter-3)" xlink:href="#path-1"></use>
                        <use fill="#FFFFFF" fill-rule="evenodd" xlink:href="#path-1"></use>
                    </g>
                    <rect id="Rectangle" fill="#E4E9F2" fill-rule="nonzero" opacity="0.497465588" mask="url(#mask-2)" x="0" y="0" width="255" height="88"></rect>
                    <g id="atomo/-button/-primario/-228x48px" mask="url(#mask-2)">
                        <g transform="translate(27.000000, 232.000000)" id="Group">
                            <g>
                                <rect id="Rectangle-Copy" fill="#A546A0" x="0" y="0" width="200" height="48" rx="24"></rect>
                                <g id="Group-2" transform="translate(30.225131, 16.000000)">
                                    <g id="Group-3">
                                        <text id="Ver-actividades" font-family="Montserrat-Medium, Montserrat" font-size="16" font-weight="400" line-spacing="16" fill="#FFFFFF">
                                            <tspan x="0.298429319" y="15">Ver actividades</tspan>
                                        </text>
                                        <g id="Arrow_down" transform="translate(140.596859, 9.000000) rotate(-90.000000) translate(-140.596859, -9.000000) translate(135.596859, 6.000000)">
                                            <mask id="mask-5" fill="white">
                                                <use xlink:href="#path-4"></use>
                                            </mask>
                                            <use id="🎨-Icon-Сolor" fill="#FFFFFF" fill-rule="nonzero" transform="translate(5.000080, 2.999636) rotate(-270.000000) translate(-5.000080, -2.999636) " xlink:href="#path-4"></use>
                                        </g>
                                    </g>
                                </g>
                            </g>
                        </g>
                    </g>
                    <text id="Apoyo-socioemocional" font-family="Montserrat-Medium, Montserrat" font-size="20" font-weight="400" letter-spacing="0.416666667" fill="#333E53">
                        <tspan x="94.3283333" y="186">Apoyo</tspan>
                        <tspan x="41.975" y="210"> socioemocional</tspan>
                    </text>
                </g>
                <g id="ayuda-emocional" transform="translate(74.000000, 24.000000)">
                    <g id="Capa_1_1_">
                        <g id="Capa_2_1_">
                            <mask id="mask-7" fill="white">
                                <use xlink:href="#path-6"></use>
                            </mask>
                            <use id="Mask" fill="#99A2C6" xlink:href="#path-6"></use>
                            <g mask="url(#mask-7)">
                                <g transform="translate(-7.843575, 21.117318)">
                                    <g id="Group" stroke-width="1" fill="none" fill-rule="evenodd">
                                        <polygon id="Path" fill="#6F2E81" fill-rule="nonzero" points="69.0636872 88.3709497 63.150838 90.1005587 62.7083799 84.0469274 60.9586592 84.0469274 60.5162011 89.8994413 53.2558659 87.526257 54.3620112 77.0078212 68.0581006 76.8469274"></polygon>
                                        <polygon id="Path" fill="#1C117A" fill-rule="nonzero" points="37.6089385 67.0122905 38.9564246 82.9005587 16.6726257 76.8469274 21.298324 65.2424581"></polygon>
                                        <polygon id="Path" fill="#5C5CB4" fill-rule="nonzero" points="84.2882682 67.0122905 83.624581 85.5150838 105.988827 81.6536313 102.791061 66.0067039"></polygon>
                                        <path d="M101.26257,27.9955307 C101.26257,27.9955307 107.07486,30.8111732 104.842458,36.3217877 L97.7832402,36.9653631 L95.8726257,36.1608939 C95.8726257,36.1608939 95.7318436,30.9318436 98.5675978,28.6391061 L101.26257,27.9955307 Z" id="Path" fill="#3F4E66" fill-rule="nonzero"></path>
                                        <path d="M97.3810056,27.7139665 L97.5418994,29.2223464 C97.5418994,29.2223464 100.820112,28.7396648 101.564246,27.8346369 L100.960894,25.5620112 L97.3810056,27.7139665 Z" id="Path" fill="#EDE579" fill-rule="nonzero"></path>
                                        <path d="M95.1888268,28.5184358 C95.1888268,28.5184358 111.278212,29.2223464 102.77095,7.94413408 L97.0994413,14.8022346 L95.1888268,28.5184358 Z" id="Path" fill="#3F4E66" fill-rule="nonzero"></path>
                                        <polygon id="Path" fill="#F9DDB7" fill-rule="nonzero" points="94.4849162 26.7083799 94.9877095 34.652514 91.2670391 34.1899441 89.6782123 27.0100559"></polygon>
                                        <path d="M103.897207,67.5150838 C103.897207,67.5150838 98.5675978,69.6469274 93.4592179,70.2301676 C89.3363128,70.6927374 83.624581,68.0178771 83.624581,68.0178771 L83.9664804,36.7441341 C83.9061453,34.6122905 85.5955307,32.8424581 87.747486,32.7821229 C87.7675978,32.7821229 87.7877095,32.7821229 87.7877095,32.7821229 L88.0290503,32.7821229 L97.501676,32.6413408 L98.6480447,32.6212291 C100.739665,32.5810056 102.489385,34.2301676 102.569832,36.3217877 L103.897207,67.5150838 Z" id="Path" fill="#F2E26B" fill-rule="nonzero"></path>
                                        <path d="M88.0290503,32.7821229 C88.5117318,34.4111732 90.2815642,35.6782123 92.473743,35.8391061 C95.0078212,36.0201117 97.2,34.6122905 97.501676,32.6413408 L88.0290503,32.7821229 Z" id="Path" fill="#F9DDB7" fill-rule="nonzero"></path>
                                        <path d="M92.7351955,21.4592179 L88.2502793,21.6201117 C87.7877095,21.6402235 87.4055866,21.2782123 87.3854749,20.8156425 L87.3854749,20.8156425 C87.3653631,20.3530726 87.7273743,19.9709497 88.1899441,19.950838 L92.6748603,19.7899441 C93.1374302,19.7698324 93.5195531,20.1318436 93.5396648,20.5944134 L93.5396648,20.5944134 C93.5597765,21.077095 93.1977654,21.4592179 92.7351955,21.4592179 Z" id="Path" fill="#684642" fill-rule="nonzero"></path>
                                        <path d="M92.6949721,29.8055866 C97.2804469,28.7798883 100.277095,24.3553073 99.5128492,19.7296089 L98.3463687,12.4089385 C97.5620112,7.56201117 93.0167598,4.26368715 88.1698324,5.04804469 L87.2044693,5.20893855 C82.3575419,5.99329609 79.0592179,10.5385475 79.8435754,15.3854749 C79.8435754,15.3854749 79.8435754,15.3854749 79.8435754,15.3854749 L81.0301676,22.7061453 C81.8145251,27.5530726 86.3597765,30.8513966 91.2067039,30.0670391 C91.2067039,30.0670391 91.2067039,30.0670391 91.2067039,30.0670391 L92.172067,29.9061453 C92.3530726,29.8860335 92.5139665,29.8458101 92.6949721,29.8055866" id="Path" fill="#F9DDB7" fill-rule="nonzero"></path>
                                        <circle id="Oval" fill="#E966E2" filter="url(#filter-8)" cx="93.8435754" cy="20.8826816" r="1"></circle>
                                        <circle id="Oval-Copy" fill="#E966E2" filter="url(#filter-9)" cx="83.8435754" cy="23.8826816" r="1"></circle>
                                        <ellipse id="Oval" fill="#684642" fill-rule="nonzero" transform="translate(83.259380, 18.219105) rotate(-11.209924) translate(-83.259380, -18.219105) " cx="83.2593801" cy="18.2191053" rx="1" ry="1.1262323"></ellipse>
                                        <ellipse id="Oval" fill="#684642" fill-rule="nonzero" transform="translate(90.727745, 16.891154) rotate(-12.022329) translate(-90.727745, -16.891154) " cx="90.727745" cy="16.8911537" rx="1" ry="1.12629556"></ellipse>
                                        <path d="M88.4235774,25.0175169 C89.1073763,24.9772935 89.7385475,24.4558659 90.2815642,24.0134078 C90.4022346,23.9128492 90.4022346,23.7519553 90.301676,23.6312849 C90.2011173,23.5106145 90.0402235,23.5106145 89.9195531,23.6111732 C89.4881457,23.9723515 88.9577852,24.4873663 88.4235774,24.5082396 C87.8869059,24.5292092 87.3463156,24.0544179 86.8826816,23.7117318 C86.7620112,23.6312849 86.6011173,23.6513966 86.5206704,23.772067 C86.4402235,23.8927374 86.4603352,24.0536313 86.5810056,24.1340782 C87.1039106,24.5564246 87.7598903,25.0376287 88.4235774,25.0175169 Z" id="Path" fill="#684642" fill-rule="nonzero" transform="translate(88.423577, 24.278112) rotate(-12.000000) translate(-88.423577, -24.278112) "></path>
                                        <circle id="Oval" fill="#F9DDB7" fill-rule="nonzero" cx="99.2715084" cy="17.6782123" r="3.35865922"></circle>
                                        <path d="M98.326257,17.6379888 C98.7888268,15.1642458 101.081564,16.1094972 101.081564,16.1094972 C101.081564,16.1094972 100.779888,16.0893855 99.6938547,16.7731844 C99.3519553,16.9944134 98.326257,17.6379888 98.326257,17.6379888 Z" id="Path" fill="#E2C39F" fill-rule="nonzero"></path>
                                        <path d="M98.3061453,17.7988827 C98.3865922,17.7988827 98.4469274,17.7385475 98.4670391,17.6782123 C98.6078212,16.9944134 98.8893855,16.5318436 99.3318436,16.2905028 C100.075978,15.8882682 101.001117,16.2703911 101.021229,16.2703911 C101.101676,16.3106145 101.202235,16.2703911 101.222346,16.1899441 C101.242458,16.1094972 101.222346,16.0089385 101.141899,15.9888268 C101.101676,15.9687151 100.055866,15.5463687 99.1910615,16.0290503 C98.6681564,16.3106145 98.326257,16.8536313 98.1653631,17.6379888 C98.1452514,17.7184358 98.2055866,17.7988827 98.2860335,17.8189944 L98.3061453,17.7988827 Z" id="Path" fill="#684642" fill-rule="nonzero"></path>
                                        <path d="M101.926257,15.5664804 C101.926257,15.5664804 97.8234637,12.6502793 96.7173184,16.9541899 L96.6368715,18.3821229 L95.2692737,11.9463687 C95.1083799,9.25139665 92.7955307,7.40111732 86.3195531,8.56759777 C83.8458101,9.01005587 81.2715084,10.9206704 80.8290503,14.6614525 C80.6480447,16.2502793 80.7888268,21.2178771 80.7888268,21.2178771 C80.7888268,21.2178771 78.9586592,12.6502793 79.6826816,9.75418994 C80.5273743,6.41564246 84.449162,2.11173184 91.649162,3.05698324 C91.9106145,3.0972067 100.075978,3.94189944 102.449162,7.17988827 C104.158659,9.49273743 101.926257,15.5664804 101.926257,15.5664804 Z" id="Path" fill="#3F4E66" fill-rule="nonzero"></path>
                                        <path d="M91.6893855,8.16536313 C91.6893855,8.16536313 92.7955307,11.624581 95.852514,12.7709497 L96.8178771,11.7452514 L95.852514,9.09050279 L93.5798883,7.80335196 L91.6893855,8.16536313 Z" id="Path" fill="#3F4E66" fill-rule="nonzero"></path>
                                        <path d="M82.7597765,15.4659218 C83.2022346,15.3251397 83.6044693,15.0435754 83.9061453,14.6815642 C83.9664804,14.6011173 83.9463687,14.5005587 83.8659218,14.4603352 C83.8659218,14.4603352 83.8659218,14.4603352 83.8458101,14.4603352 C83.7653631,14.4201117 83.6446927,14.4402235 83.5843575,14.5206704 C83.101676,15.1441341 82.277095,15.3854749 81.5329609,15.1441341 C81.4324022,15.1240223 81.3318436,15.1642458 81.2916201,15.2446927 C81.2513966,15.3251397 81.2916201,15.4256983 81.372067,15.4659218 C81.372067,15.4659218 81.3921788,15.4659218 81.3921788,15.4659218 C81.8547486,15.5865922 82.3173184,15.5865922 82.7597765,15.4659218 Z" id="Path" fill="#684642" fill-rule="nonzero"></path>
                                        <path d="M90.4826816,14.4201117 C90.9452514,14.3597765 91.4078212,14.1787709 91.7698324,13.877095 C91.8301676,13.8167598 91.8502793,13.7162011 91.7899441,13.6558659 C91.7899441,13.6558659 91.7899441,13.6558659 91.7698324,13.6357542 C91.6893855,13.575419 91.5888268,13.575419 91.5083799,13.6357542 C90.9251397,14.1385475 90.0603352,14.2189944 89.3765363,13.8368715 C89.2960894,13.796648 89.175419,13.8167598 89.1150838,13.8972067 C89.0547486,13.9776536 89.0748603,14.0782123 89.1553073,14.1184358 C89.1553073,14.1184358 89.175419,14.1184358 89.175419,14.1385475 C89.5776536,14.3597765 90.0201117,14.4603352 90.4826816,14.4201117 Z" id="Path" fill="#684642" fill-rule="nonzero"></path>
                                        <path d="M120.811173,62.7284916 C122.4,62.7284916 123.687151,61.4413408 123.687151,59.852514 C123.687151,59.1687151 123.44581,58.5050279 123.003352,57.9821229 L102.30838,33.6670391 C101.282682,32.4402235 99.4726257,32.2793296 98.2458101,33.3050279 C97.0189944,34.3307263 96.8581006,36.1407821 97.8837989,37.3675978 C97.9039106,37.3877095 97.9039106,37.4078212 97.9240223,37.4078212 L118.618994,61.722905 C119.162011,62.3664804 119.96648,62.7284916 120.811173,62.7284916 Z" id="Path" fill="#F2E26B" fill-rule="nonzero"></path>
                                        <path d="M69.7675978,59.5106145 C70.4513966,59.4100559 71.0949721,59.0681564 71.5575419,58.5452514 L87.9486034,38.0312849 C88.9743017,36.8044693 88.8134078,34.9944134 87.5865922,33.9687151 C86.4,32.9631285 84.6301676,33.0837989 83.6044693,34.2502793 L67.2134078,54.7642458 C66.1675978,55.9709497 66.2882682,57.7810056 67.4949721,58.8268156 C68.1184358,59.3698324 68.9430168,59.6312849 69.7675978,59.5106145 Z" id="Path" fill="#F2E26B" fill-rule="nonzero"></path>
                                        <path d="M89.1150838,19.2268156 C89.1150838,19.2268156 85.9173184,18.7441341 86.2592179,21.2178771" id="Path" stroke="#684642" stroke-width="0.5" stroke-linecap="round" stroke-linejoin="round"></path>
                                        <polygon id="Path" fill="#F9DDB7" fill-rule="nonzero" points="29.3430168 26.5675978 28.8603352 34.5117318 32.5810056 34.049162 34.1497207 26.8692737"></polygon>
                                        <path d="M39.8817399,36.603352 L39.0368715,67.8368715 C39.0368715,67.8368715 35.2558659,70.1899441 30.3888268,70.0893855 C27.6938547,70.0290503 19.950838,67.3743017 19.950838,67.3743017 L21.2782123,36.1810056 C21.3586592,34.0893855 23.1083799,32.4402235 25.2,32.4804469 L26.3463687,32.5005587 C26.6480447,34.4715084 28.8402235,35.8793296 31.3743017,35.698324 C33.5664804,35.5374302 35.3363128,34.2703911 35.8189944,32.6413408 L36.0603352,32.6413408 C38.1921788,32.6614525 39.901676,34.4312849 39.8817399,36.5631285 C39.8817399,36.5832402 39.8817399,36.5832402 39.8817399,36.603352 Z" id="Path" fill="#5C5CB4" fill-rule="nonzero"></path>
                                        <path d="M35.8189944,32.6413408 C35.3363128,34.2703911 33.5664804,35.5374302 31.3743017,35.698324 C28.8402235,35.8793296 26.6480447,34.4715084 26.3463687,32.5005587 L35.8189944,32.6413408 Z" id="Path" fill="#F9DDB7" fill-rule="nonzero"></path>
                                        <path d="M31.3541899,18.5027933 L36.2815642,18.7642458 C36.7843575,18.7843575 37.1664804,19.2268156 37.1463687,19.7296089 L37.1463687,19.7296089 C37.126257,20.2324022 36.6837989,20.6145251 36.1810056,20.5944134 L31.2536313,20.3329609 C30.750838,20.3128492 30.3687151,19.8703911 30.3888268,19.3675978 L30.3888268,19.3675978 C30.4290503,18.8648045 30.8513966,18.4826816 31.3541899,18.5027933 Z" id="Path" fill="#684642" fill-rule="nonzero"></path>
                                        <path d="M36.603352,2.43351955 L37.649162,2.61452514 C42.9385475,3.55977654 46.4581006,8.62793296 45.5128492,13.9374302 L44.0648045,21.9418994 C43.1195531,27.2312849 38.0513966,30.750838 32.7418994,29.8055866 L31.6960894,29.624581 C26.4067039,28.6793296 22.8871508,23.6111732 23.8324022,18.301676 L25.2804469,10.2972067 C26.2256983,4.9877095 31.2938547,1.46815642 36.603352,2.43351955 Z" id="Path" fill="#F9DDB7" fill-rule="nonzero"></path>
                                        <ellipse id="Oval" fill="#684642" fill-rule="nonzero" transform="translate(41.729627, 16.943655) rotate(-77.707963) translate(-41.729627, -16.943655) " cx="41.7296273" cy="16.9436554" rx="1.24695906" ry="1"></ellipse>
                                        <ellipse id="Oval" fill="#684642" fill-rule="nonzero" transform="translate(33.557853, 15.361361) rotate(-76.908756) translate(-33.557853, -15.361361) " cx="33.5578525" cy="15.3613609" rx="1.24691381" ry="1"></ellipse>
                                        <path d="M35.9266528,24.4315948 C35.1825187,24.3712596 34.4715084,23.6715084 33.8882682,23.1888268 C33.7675978,23.0681564 33.7675978,22.8871508 33.8681564,22.7664804 C33.9687151,22.6458101 34.1698324,22.6458101 34.2905028,22.7463687 C34.7635791,23.1680237 35.3246116,23.8030112 35.9266528,23.8249876 C36.5019526,23.8459878 37.1175654,23.2713355 37.6089385,22.9273743 C37.7497207,22.8469274 37.9307263,22.8670391 38.0111732,23.0078212 C38.0916201,23.1486034 38.0715084,23.3296089 37.9307263,23.4100559 C37.3675978,23.8324022 36.6506751,24.4517065 35.9266528,24.4315948 Z" id="Path" fill="#684642" fill-rule="nonzero"></path>
                                        <path d="M35.5173184,20.473743 C34.1094972,19.9106145 30.9117318,20.1117318 29.7854749,22.4446927 C29.7854749,22.4446927 34.1899441,22.5854749 35.477095,21.9821229 C35.477095,21.9821229 35.6379888,22.8268156 36.8044693,22.2636872 C36.8044693,22.2636872 37.8301676,22.5452514 38.8960894,22.947486 C39.6804469,23.249162 40.4648045,23.7318436 40.9675978,23.5307263 C42.1139665,23.0681564 39.3385475,20.4335196 36.8849162,20.6145251 L36.2614525,20.996648 C36.0603352,20.7955307 35.7988827,20.6145251 35.5173184,20.473743 Z" id="Path" fill="#684642" fill-rule="nonzero"></path>
                                        <circle id="Oval" fill="#F9DDB7" fill-rule="nonzero" cx="24.1743017" cy="16.0290503" r="3.70055866"></circle>
                                        <path d="M25.2,16.0089385 C24.7374302,13.2938547 22.203352,14.2793296 22.203352,14.2793296 C22.203352,14.2793296 22.5251397,14.2592179 23.7117318,15.0435754 C24.0938547,15.2849162 25.2,16.0089385 25.2,16.0089385 Z" id="Path" fill="#E2C39F" fill-rule="nonzero"></path>
                                        <path d="M25.2201117,16.1899441 C25.1396648,16.1899441 25.0793296,16.1296089 25.0592179,16.049162 C24.9184358,15.2849162 24.6167598,14.7620112 24.1541899,14.5005587 C23.3497207,14.0379888 22.3240223,14.4402235 22.3039106,14.4402235 C22.2234637,14.4804469 22.122905,14.4402235 22.0826816,14.3396648 C22.0424581,14.2592179 22.0826816,14.1586592 22.1832402,14.1184358 C22.1832402,14.1184358 22.1832402,14.1184358 22.1832402,14.1184358 C22.2234637,14.098324 23.3698324,13.6558659 24.3150838,14.1988827 C24.8782123,14.5206704 25.2603352,15.1240223 25.4011173,15.9888268 C25.4212291,16.0893855 25.3608939,16.1698324 25.2603352,16.1899441 L25.2201117,16.1899441 L25.2201117,16.1899441 Z" id="Path" fill="#684642" fill-rule="nonzero"></path>
                                        <path d="M23.0681564,12.5296089 C23.0681564,12.5296089 26.627933,12.7910615 26.9698324,15.3050279 L27.0301676,16.873743 L28.9608939,9.4122905 C29.101676,8.84916201 29.5843575,8.44692737 30.147486,8.38659218 C31.7363128,8.22569832 35.0547486,8.00446927 38.0916201,8.46703911 C40.8871508,8.88938547 43.4212291,10.4379888 44.2659218,11.0413408 L44.4067039,20.4536313 L47.624581,7.56201117 C47.7653631,7.01899441 47.6446927,6.41564246 47.2826816,5.99329609 C45.673743,4.1027933 40.7463687,-0.703910615 32.8223464,0.181005587 C32.3396648,0.241340782 32.0178771,0.683798883 32.0782123,1.14636872 C32.0782123,1.16648045 32.0782123,1.18659218 32.0782123,1.18659218 L32.2189944,1.95083799 L24.2346369,4.1027933 C23.6513966,4.26368715 23.249162,4.78659218 23.2290503,5.38994413 L23.0681564,12.5296089 Z" id="Path" fill="#684642" fill-rule="nonzero"></path>
                                        <path d="M42.3150838,13.9575419 C41.8324022,13.796648 41.3899441,13.4748603 41.0681564,13.0726257 C41.0078212,12.9921788 41.027933,12.8916201 41.1083799,12.8312849 C41.1083799,12.8312849 41.1284916,12.8312849 41.1284916,12.8111732 C41.2290503,12.750838 41.3497207,12.7910615 41.4100559,12.8715084 C41.9128492,13.5553073 42.8178771,13.8569832 43.6424581,13.5955307 C43.7430168,13.5553073 43.8636872,13.6156425 43.9039106,13.7162011 C43.9441341,13.8167598 43.9039106,13.9173184 43.803352,13.9374302 C43.803352,13.9374302 43.7832402,13.9374302 43.7832402,13.9374302 C43.3005587,14.098324 42.7776536,14.098324 42.3150838,13.9575419 Z" id="Path" fill="#684642" fill-rule="nonzero"></path>
                                        <path d="M33.8681564,12.6502793 C33.3452514,12.5899441 32.8625698,12.3687151 32.4804469,12.0268156 C32.4,11.9664804 32.4,11.8458101 32.4603352,11.7854749 C32.4603352,11.7854749 32.4804469,11.7653631 32.4804469,11.7653631 C32.5608939,11.7050279 32.6815642,11.7050279 32.7620112,11.7653631 C33.4055866,12.3486034 34.3307263,12.449162 35.0949721,12.0268156 C35.1955307,11.9664804 35.3162011,12.0067039 35.3765363,12.1072626 C35.4368715,12.1877095 35.396648,12.3083799 35.3162011,12.3486034 C35.3162011,12.3486034 35.2960894,12.3486034 35.2960894,12.3687151 C34.873743,12.5899441 34.3709497,12.6905028 33.8681564,12.6502793 Z" id="Path" fill="#684642" fill-rule="nonzero"></path>
                                        <path d="M3.03687151,62.5877095 C1.44804469,62.5877095 0.160893855,61.3005587 0.160893855,59.7117318 C0.160893855,59.027933 0.402234637,58.3642458 0.844692737,57.8413408 L21.5195531,33.526257 C22.5452514,32.2994413 24.3553073,32.1385475 25.5821229,33.1642458 C26.8089385,34.1899441 26.9698324,36 25.9441341,37.2268156 C25.9240223,37.2469274 25.9240223,37.2670391 25.9039106,37.2670391 L5.22905028,61.5821229 C4.68603352,62.2256983 3.88156425,62.5877095 3.03687151,62.5877095 Z" id="Path" fill="#5C5CB4" fill-rule="nonzero"></path>
                                        <path d="M51.3050279,61.5821229 C50.6413408,61.3810056 50.0581006,60.9586592 49.6759777,60.3553073 L35.4368715,37.8502793 C34.5921788,36.5027933 34.9743017,34.7329609 36.3217877,33.8681564 C37.6692737,33.0234637 39.4391061,33.4055866 40.3039106,34.7530726 L40.3039106,34.7530726 L54.5430168,57.2581006 C55.3877095,58.6055866 55.0055866,60.375419 53.6581006,61.2402235 C52.9541899,61.7027933 52.0893855,61.8234637 51.3050279,61.5821229 Z" id="Path" fill="#5C5CB4" fill-rule="nonzero"></path>
                                        <path d="M35.7787709,17.3162011 C35.7787709,17.3162011 38.9765363,16.8335196 38.6346369,19.3072626" id="Path" stroke="#684642" stroke-width="0.5" stroke-linecap="round" stroke-linejoin="round"></path>
                                        <path d="M66.4893855,48.8715084 L56.2324022,48.8715084 C54.7843575,48.8715084 53.6178771,50.0379888 53.6178771,51.4860335 L53.6178771,78.0134078 C53.6178771,78.0134078 58.5854749,79.9843575 61.9039106,79.6625698 C64.498324,79.4011173 69.0837989,78.0134078 69.0837989,78.0134078 L69.0837989,51.4860335 C69.0837989,50.0581006 67.9173184,48.8916201 66.4893855,48.8715084 Z" id="Path" fill="#FF881D" fill-rule="nonzero"></path>
                                        <rect id="Rectangle" fill="#E2C39F" fill-rule="nonzero" x="60.1541899" y="45.2111732" width="2.69497207" height="4.50502793"></rect>
                                        <path d="M61.5821229,47.8256983 L61.5821229,47.8256983 C55.8100559,47.8256983 51.1240223,43.1597765 51.1240223,37.4078212 C51.1240223,37.3877095 51.1240223,37.3877095 51.1240223,37.3675978 L51.1240223,32.5407821 C51.1240223,26.7687151 55.8100559,22.0826816 61.5821229,22.0826816 L61.5821229,22.0826816 C67.3541899,22.0826816 72.0402235,26.7687151 72.0402235,32.5407821 L72.0402235,37.3675978 C72.0402235,43.1396648 67.3541899,47.8256983 61.5821229,47.8256983 L61.5821229,47.8256983 Z" id="Path" fill="#F9DDB7" fill-rule="nonzero"></path>
                                        <circle id="Oval" fill="#F9DDB7" fill-rule="nonzero" cx="71.8793296" cy="36.1810056" r="3.37877095"></circle>
                                        <path d="M50.5407821,34.4513966 C50.5206704,34.5318436 50.5206704,34.6324022 50.5206704,34.7128492 C50.4804469,34.6122905 50.4402235,34.4715084 50.3798883,34.2905028 C50.4201117,34.350838 50.4804469,34.4111732 50.5407821,34.4513966 Z" id="Path" fill="#684642" fill-rule="nonzero"></path>
                                        <path d="M50.5608939,34.8335196 L50.6011173,36.2413408 C50.5005587,35.7385475 50.4804469,35.2156425 50.5206704,34.7128492 C50.5407821,34.7932961 50.5608939,34.8335196 50.5608939,34.8335196 Z" id="Path" fill="#684642" fill-rule="nonzero"></path>
                                        <path d="M72.8446927,33.3251397 C72.7843575,33.5664804 72.603352,33.7675978 72.3821229,33.8681564 L71.7184358,34.1296089 C71.7184358,34.1296089 71.1351955,33.9083799 71.1351955,33.6871508 C71.0346369,31.3944134 70.0893855,29.2022346 68.4804469,27.5530726 C67.052514,27.9351955 65.6044693,28.196648 64.1564246,28.3776536 L53.6581006,29.0614525 L53.5776536,29.1217877 C52.8335196,30.4290503 52.0089385,32.3798883 51.9687151,34.572067 C51.9687151,34.7530726 51.5664804,34.9340782 51.5664804,34.9340782 L50.6614525,34.5117318 C50.6212291,34.4916201 50.5810056,34.4715084 50.5407821,34.4312849 C50.4804469,34.3910615 50.4201117,34.3307263 50.3798883,34.2703911 C50.2994413,34.0290503 50.1787709,33.6871508 50.0782123,33.3050279 L50.0782123,33.3050279 C49.4949721,31.4547486 48.6703911,28.3173184 48.7709497,26.2458101 C48.8715084,28.277095 49.5955307,30.8916201 50.0782123,32.5407821 L50.0782123,32.5407821 C50.1988827,32.922905 50.2994413,33.2648045 50.3798883,33.5061453 C50.4201117,33.5664804 50.4804469,33.6268156 50.5407821,33.6670391 C50.5810056,33.7072626 50.6212291,33.7273743 50.6614525,33.747486 L51.5664804,34.1698324 C51.5664804,34.1698324 51.9687151,34.0089385 51.9687151,33.8078212 C52.0089385,31.6156425 52.8335196,29.6648045 53.5776536,28.3575419 L53.6581006,28.2972067 L64.1564246,27.6134078 C65.624581,27.452514 67.0726257,27.1709497 68.4804469,26.7888268 C70.0893855,28.4379888 71.0346369,30.6301676 71.1351955,32.922905 C71.1351955,33.1441341 71.7184358,33.3653631 71.7184358,33.3653631 L72.3821229,33.1039106 C72.6234637,33.0234637 72.8044693,32.8022346 72.8446927,32.5608939 C73.126257,31.3541899 73.3072626,30.1072626 73.347486,28.8603352 C73.3675978,30.3486034 73.2067039,31.8569832 72.8446927,33.3251397 Z" id="Path" fill="#543734" fill-rule="nonzero"></path>
                                        <path d="M72.9251397,25.5620112 C72.8446927,25.6223464 72.7642458,25.6826816 72.6837989,25.7430168 C73.1061453,26.7083799 73.3273743,27.7743017 73.347486,28.8201117 C73.347486,28.8402235 73.347486,28.8402235 73.347486,28.8402235 C73.3675978,30.3486034 73.2067039,31.8569832 72.8446927,33.3251397 C72.7843575,33.5664804 72.603352,33.7675978 72.3821229,33.8681564 L71.7184358,34.1296089 C71.7184358,34.1296089 71.1351955,33.9083799 71.1351955,33.6871508 C71.0346369,31.3944134 70.0893855,29.2022346 68.4804469,27.5530726 C67.052514,27.9351955 65.6044693,28.196648 64.1564246,28.3776536 L53.6581006,29.0614525 L53.5776536,29.1217877 C52.8335196,30.4290503 52.0089385,32.3798883 51.9687151,34.572067 C51.9687151,34.7530726 51.5664804,34.9340782 51.5664804,34.9340782 L50.6614525,34.5117318 C50.6212291,34.4916201 50.5810056,34.4715084 50.5407821,34.4312849 C50.4804469,34.3910615 50.4201117,34.3307263 50.3798883,34.2703911 C50.2994413,34.0290503 50.1787709,33.6871508 50.0782123,33.3050279 L50.0782123,33.3050279 C49.4949721,31.4547486 48.6703911,28.3173184 48.7709497,26.2458101 L48.7709497,26.2256983 C48.8111732,25.4011173 49.0122905,24.7374302 49.4346369,24.3955307 C49.5955307,24.2748603 49.8972067,24.3150838 50.2391061,24.4357542 C50.9631285,24.6569832 50.8223464,24.2547486 51.0234637,23.5307263 C51.4256983,22.2234637 52.049162,20.4536313 52.6927374,19.950838 C57.0167598,16.6324022 73.427933,17.1351955 74.8156425,22.4849162 L74.8156425,22.4849162 C74.8558659,22.6256983 74.8960894,22.7664804 74.8960894,22.9072626 C74.8960894,22.9072626 74.8156425,24.2145251 72.9251397,25.5620112 Z" id="Path" fill="#684642" fill-rule="nonzero"></path>
                                        <path d="M50.3798883,34.2905028 C50.2793296,34.1899441 50.2189944,34.049162 50.1787709,33.9083799 C50.1385475,33.747486 50.098324,33.5463687 50.0581006,33.3251397 C50.1787709,33.7072626 50.2793296,34.049162 50.3798883,34.2905028 Z" id="Path" fill="#684642" fill-rule="nonzero"></path>
                                        <path d="M66.8111732,35.8793296 C66.1273743,35.8592179 65.4636872,35.6379888 64.9206704,35.2156425 C64.8201117,35.0949721 64.8402235,34.9340782 64.9407821,34.8335196 C65.0212291,34.7530726 65.1620112,34.7530726 65.2625698,34.8134078 C66.147486,35.5173184 67.4145251,35.5173184 68.3195531,34.8134078 C68.4402235,34.7128492 68.6011173,34.7329609 68.701676,34.8335196 C68.8022346,34.9340782 68.7821229,35.1150838 68.6815642,35.2156425 C68.6815642,35.2156425 68.6614525,35.2357542 68.6614525,35.2357542 C68.1184358,35.6379888 67.4748603,35.8793296 66.8111732,35.8793296 Z" id="Path" fill="#684642" fill-rule="nonzero"></path>
                                        <path d="M56.6949721,35.8793296 C56.0111732,35.8592179 55.347486,35.6379888 54.8044693,35.2156425 C54.7039106,35.0949721 54.7240223,34.9340782 54.824581,34.8335196 C54.9050279,34.7530726 55.0458101,34.7530726 55.1463687,34.8134078 C56.0312849,35.5173184 57.298324,35.5173184 58.203352,34.8134078 C58.3240223,34.7128492 58.4849162,34.7329609 58.5854749,34.8335196 C58.6860335,34.9340782 58.6659218,35.1150838 58.5653631,35.2156425 C58.5653631,35.2156425 58.5452514,35.2357542 58.5452514,35.2357542 C58.0022346,35.6379888 57.3586592,35.8793296 56.6949721,35.8793296 Z" id="Path" fill="#684642" fill-rule="nonzero"></path>
                                        <path d="M63.4927374,39.4994413 L63.4927374,39.4994413 C63.3921788,39.4994413 63.3318436,39.4189944 63.3318436,39.3184358 C63.3318436,39.3184358 63.4324022,38.3731844 62.7486034,38.0513966 C61.9441341,37.649162 60.5162011,38.4134078 60.4960894,38.4134078 C60.4156425,38.4536313 60.3150838,38.4335196 60.2748603,38.3530726 C60.2346369,38.2726257 60.2547486,38.172067 60.3351955,38.1318436 C60.3955307,38.0916201 61.9240223,37.2871508 62.8893855,37.7497207 C63.7743017,38.1921788 63.6536313,39.298324 63.6536313,39.3586592 C63.6335196,39.4391061 63.5731844,39.4994413 63.4927374,39.4994413 Z" id="Path" fill="#684642" fill-rule="nonzero"></path>
                                        <path d="M56.6346369,31.1731844 C57.3184358,31.1932961 57.9821229,31.4145251 58.5251397,31.8368715 C58.6256983,31.9575419 58.6055866,32.1184358 58.4849162,32.2189944 C58.4044693,32.2994413 58.2636872,32.2994413 58.1832402,32.2391061 C57.298324,31.5351955 56.0312849,31.5351955 55.126257,32.2391061 C55.0055866,32.3396648 54.8446927,32.3195531 54.7441341,32.2189944 C54.6435754,32.1184358 54.6636872,31.9374302 54.7642458,31.8368715 C54.7642458,31.8368715 54.7843575,31.8167598 54.7843575,31.8167598 C55.3273743,31.4145251 55.9709497,31.1932961 56.6346369,31.1731844 Z" id="Path" fill="#684642" fill-rule="nonzero"></path>
                                        <path d="M66.750838,31.1731844 C67.4346369,31.1932961 68.098324,31.4145251 68.6413408,31.8368715 C68.7418994,31.9575419 68.7217877,32.1184358 68.6011173,32.2189944 C68.5206704,32.2994413 68.3798883,32.2994413 68.2994413,32.2391061 C67.4145251,31.5351955 66.147486,31.5351955 65.2625698,32.2592179 C65.1418994,32.3597765 64.9810056,32.3396648 64.8804469,32.2391061 C64.7798883,32.1385475 64.8,31.9575419 64.9005587,31.8569832 C64.9005587,31.8569832 64.9206704,31.8368715 64.9206704,31.8368715 C65.4435754,31.4145251 66.0871508,31.1932961 66.750838,31.1731844 Z" id="Path" fill="#684642" fill-rule="nonzero"></path>
                                        <path d="M64.5988827,48.8312849 C64.5988827,48.9519553 64.5787709,49.0726257 64.5586592,49.1731844 C64.5586592,49.2536313 64.5385475,49.3139665 64.5184358,49.3944134 C64.4178771,49.8368715 64.196648,50.2391061 63.9150838,50.5810056 C63.8547486,50.6413408 63.7944134,50.7217877 63.7340782,50.7821229 C63.673743,50.8424581 63.6335196,50.8826816 63.5731844,50.9430168 C63.4324022,51.0636872 63.2715084,51.1843575 63.0905028,51.2648045 C63.0100559,51.3050279 62.9296089,51.3452514 62.849162,51.3854749 C62.7888268,51.4256983 62.7284916,51.4458101 62.6681564,51.4659218 C62.5675978,51.5061453 62.4469274,51.5463687 62.326257,51.5664804 C62.2458101,51.5865922 62.1452514,51.6067039 62.0446927,51.6268156 L62.0446927,51.6268156 C61.9441341,51.6469274 61.8636872,51.6469274 61.7631285,51.6469274 C61.7430168,51.6469274 61.7027933,51.6469274 61.6826816,51.6469274 C60.1139665,51.6469274 58.8268156,50.4201117 58.7664804,48.8312849 L64.5988827,48.8312849 Z" id="Path" fill="#E2C39F" fill-rule="nonzero"></path>
                                        <path d="M71.396648,36.7843575 C71.9597765,34.3106145 74.2122905,35.3363128 74.2122905,35.3363128 C74.2122905,35.3363128 73.9106145,35.2960894 72.7843575,35.9597765 C72.4424581,36.1608939 71.396648,36.7843575 71.396648,36.7843575 Z" id="Path" fill="#E2C39F" fill-rule="nonzero"></path>
                                        <path d="M71.396648,36.7843575 C71.9597765,34.3106145 74.2122905,35.3363128 74.2122905,35.3363128" id="Path" stroke="#684642" stroke-width="0.5" stroke-linecap="round"></path>
                                        <circle id="Oval" fill="#F9DDB7" fill-rule="nonzero" cx="50.4402235" cy="36.8648045" r="3.37877095"></circle>
                                        <path d="M51.3653631,36.7843575 C50.8022346,34.3106145 48.5497207,35.3363128 48.5497207,35.3363128 C48.5497207,35.3363128 48.8513966,35.2960894 49.9776536,35.9597765 C50.3195531,36.1608939 51.3653631,36.7843575 51.3653631,36.7843575 Z" id="Path" fill="#E2C39F" fill-rule="nonzero"></path>
                                        <path d="M48.5899441,35.3564246 C48.5899441,35.3564246 50.8424581,34.3307263 51.4055866,36.8044693" id="Path" stroke="#684642" stroke-width="0.5" stroke-linecap="round"></path>
                                        <path d="M62.0044693,43.6022346 C61.3206704,43.5217877 60.677095,43.2402235 60.1743017,42.7776536 C60.073743,42.677095 60.073743,42.4960894 60.1944134,42.3955307 C60.2949721,42.2949721 60.4558659,42.2949721 60.5564246,42.3955307 C61.3810056,43.1798883 62.6480447,43.2804469 63.5932961,42.6569832 C63.7139665,42.5765363 63.8748603,42.6167598 63.9553073,42.7374302 C64.0357542,42.8581006 63.9955307,43.0189944 63.8748603,43.0994413 L63.8748603,43.0994413 C63.3117318,43.4815642 62.6681564,43.6424581 62.0044693,43.6022346 Z" id="Path" fill="#684642" fill-rule="nonzero"></path>
                                    </g>
                                    <path d="M57.1374302,64.3776536 C56.9363128,64.6592179 56.6547486,64.9005587 56.3329609,65.0413408 C56.1519553,65.1217877 55.9709497,65.1620112 55.7899441,65.1821229 L53.6379888,65.4234637 L53.5575419,65.4234637 L45.9955307,66.2882682 C45.9150838,66.2882682 45.8547486,66.3083799 45.7743017,66.3083799 C45.0905028,66.3083799 44.4670391,65.9463687 44.1050279,65.3631285 C43.9642458,65.1217877 43.8837989,64.8603352 43.8435754,64.5787709 C43.803352,64.1162011 43.9240223,63.6335196 44.2055866,63.2715084 L53.6178771,50.2994413 C54.0201117,49.7363128 54.6837989,49.4346369 55.3675978,49.5351955 C55.7094972,49.5553073 56.0312849,49.6759777 56.2927374,49.877095 C57.1575419,50.5005587 57.3385475,51.6871508 56.7150838,52.5519553 C56.7150838,52.5519553 56.7150838,52.5519553 56.7150838,52.5519553 L53.5374302,56.9363128 L49.877095,61.9843575 L52.8335196,61.6424581 L53.5374302,61.5620112 L55.3273743,61.3608939 C55.3877095,61.3608939 55.4681564,61.3407821 55.5284916,61.3407821 C56.5944134,61.3407821 57.4592179,62.1854749 57.4793296,63.2513966 C57.4793296,63.6536313 57.3586592,64.0558659 57.1374302,64.3776536 Z" id="Path" fill="#FF881D" fill-rule="nonzero"></path>
                                    <path d="M78.6167598,64.4379888 C78.596648,65.4837989 77.7519553,66.3083799 76.7061453,66.3083799 C76.6256983,66.3083799 76.5653631,66.3083799 76.4849162,66.2882682 L66.7307263,65.1620112 L66.7106145,65.1620112 C65.6648045,65.0413408 64.9005587,64.0960894 65.0212291,63.0301676 C65.1418994,62.0446927 65.9664804,61.3206704 66.9519553,61.3206704 C67.0122905,61.3206704 67.0927374,61.3206704 67.1530726,61.3407821 L68.4,61.4815642 L69.6469274,61.6223464 L72.603352,61.9642458 L68.3798883,56.172067 L65.7452514,52.5318436 C65.1217877,51.6670391 65.322905,50.4804469 66.1675978,49.8569832 C66.3284916,49.7363128 66.4893855,49.6558659 66.6703911,49.5955307 C67.4748603,49.3139665 68.3597765,49.5955307 68.8424581,50.2793296 L78.2547486,63.2513966 C78.4960894,63.5932961 78.6368715,64.0156425 78.6167598,64.4379888 Z" id="Path" fill="#FF881D" fill-rule="nonzero"></path>
                                    <path d="M65.7050279,49.5955307 C65.5240223,49.6558659 65.3430168,49.7363128 65.2022346,49.8569832 C64.3575419,50.4804469 64.1564246,51.6871508 64.7798883,52.5318436 L67.4145251,56.172067 L67.4145251,52.9139665 C67.4145251,51.6067039 66.7910615,50.3798883 65.7050279,49.5955307 Z M66.6301676,60.1139665 L66.6301676,60.1139665 C66.6301676,60.1139665 61.0994413,58.5452514 60.6167598,60.9184358 C60.2748603,62.5877095 63.8748603,65.3430168 63.8748603,65.3430168 L63.8949721,65.3027933 C64.8402235,66.1877095 66.2480447,66.3687151 67.3944134,65.7653631 L67.3944134,60.4156425 C67.1731844,60.2547486 66.9117318,60.1541899 66.6301676,60.1139665 L66.6301676,60.1139665 Z" id="Shape" fill="#FF881D" fill-rule="nonzero"></path>
                                    <path d="M56.3329609,65.0413408 C56.1519553,65.1217877 55.9709497,65.1620112 55.7899441,65.1821229 L53.6379888,65.4234637 L53.5575419,65.4234637 L45.9955307,66.2882682 C45.9150838,66.2882682 45.8547486,66.3083799 45.7743017,66.3083799 C45.0905028,66.3083799 44.4670391,65.9463687 44.1050279,65.3631285 C43.9642458,65.1217877 43.8837989,64.8603352 43.8435754,64.5787709 L52.5117318,63.5530726 L56.0111732,63.150838 L56.3329609,65.0413408 Z" id="Path" fill="#ED7818" fill-rule="nonzero"></path>
                                    <path d="M57.6201117,65.322905 L57.6,65.2625698 C56.4938547,66.3083799 54.8044693,66.3687151 53.6178771,65.4234637 C53.5977654,65.403352 53.5575419,65.3832402 53.5374302,65.3631285 C52.9944134,64.9005587 52.6324022,64.2569832 52.5117318,63.5530726 C52.2502793,61.9642458 53.2960894,60.4558659 54.8648045,60.1139665 L54.8648045,60.1139665 C54.8648045,60.1139665 60.3955307,58.5452514 60.8782123,60.9184358 C61.2402235,62.5877095 57.6201117,65.322905 57.6201117,65.322905 Z" id="Path" fill="#F9DDB7" fill-rule="nonzero"></path>
                                    <path d="M78.6167598,64.4379888 C78.596648,65.4837989 77.7519553,66.3083799 76.7061453,66.3083799 C76.6256983,66.3083799 76.5653631,66.3083799 76.4849162,66.2882682 L66.7307263,65.1620112 L68.7217877,63.0703911 L78.6167598,64.4379888 Z" id="Path" fill="#ED7818" fill-rule="nonzero"></path>
                                    <path d="M69.9687151,63.0703911 C69.9687151,63.1307263 69.9687151,63.1910615 69.9687151,63.2715084 L69.9687151,63.2715084 C69.9083799,64.1162011 69.5061453,64.9005587 68.8625698,65.4234637 C68.7217877,65.5441341 68.5608939,65.6446927 68.3798883,65.7452514 C67.2335196,66.3687151 65.8055866,66.1675978 64.8603352,65.2826816 L64.8402235,65.322905 C64.8402235,65.322905 61.2402235,62.5877095 61.5821229,60.898324 C62.0648045,58.5251397 67.5955307,60.0938547 67.5955307,60.0938547 L67.5955307,60.0938547 C67.877095,60.1541899 68.1385475,60.2547486 68.3798883,60.375419 C69.3452514,60.898324 69.9687151,61.9240223 69.9687151,63.0703911 L69.9687151,63.0703911 Z" id="Path" fill="#F9DDB7" fill-rule="nonzero"></path>
                                </g>
                            </g>
                        </g>
                    </g>
                    <path d="M62.3664804,13.1932961 C57.6603352,9.69385475 54.7441341,14.3798883 54.2614525,15.2648045 C53.7586592,14.3798883 50.8625698,9.69385475 46.1564246,13.1932961 C44.5877095,14.3597765 42.0335196,19.4681564 47.7050279,24.1743017 C49.0726257,25.3005587 51.8882682,27.2715084 53.3765363,28.7396648 C53.6782123,29.0212291 53.9597765,29.3430168 54.2212291,29.7050279 C54.2413408,29.7251397 54.2614525,29.7452514 54.2614525,29.7854749 C54.2815642,29.7653631 54.301676,29.7452514 54.3217877,29.7050279 C54.5832402,29.3430168 54.8648045,29.0212291 55.1664804,28.7396648 C56.6346369,27.2715084 59.4703911,25.3005587 60.8379888,24.1743017 C66.4893855,19.4681564 63.9351955,14.3597765 62.3664804,13.1932961 Z" id="Path" fill="#FFFFFF" fill-rule="nonzero"></path>
                </g>
            </g>
        </g>
    </g>
</svg>