<?xml version="1.0" encoding="UTF-8"?>
<svg width="311px" height="366px" viewBox="0 0 311 366" version="1.1" xmlns="http://www.w3.org/2000/svg" xmlns:xlink="http://www.w3.org/1999/xlink">
    <!-- Generator: Sketch 63.1 (92452) - https://sketch.com -->
    <title>card_programacion@2x</title>
    <desc>Created with Sketch.</desc>
    <defs>
        <rect id="path-1" x="0" y="0" width="255" height="310" rx="8"></rect>
        <filter x="-16.9%" y="-13.2%" width="133.7%" height="127.7%" filterUnits="objectBoundingBox" id="filter-3">
            <feOffset dx="0" dy="2" in="SourceAlpha" result="shadowOffsetOuter1"></feOffset>
            <feGaussianBlur stdDeviation="14" in="shadowOffsetOuter1" result="shadowBlurOuter1"></feGaussianBlur>
            <feColorMatrix values="0 0 0 0 0   0 0 0 0 0   0 0 0 0 0  0 0 0 0.06 0" type="matrix" in="shadowBlurOuter1"></feColorMatrix>
        </filter>
        <path d="M3.00025,7.99927241 C2.74425,7.99927241 2.48825,7.90127241 2.29325,7.70627241 C1.90225,7.31527241 1.90225,6.68327241 2.29325,6.29227241 L5.59825,2.98727241 L2.41825,-0.305727588 C2.03525,-0.703727588 2.04625,-1.33672759 2.44325,-1.71972759 C2.84125,-2.10272759 3.47425,-2.09172759 3.85725,-1.69572759 L7.71925,2.30427241 C8.09825,2.69727241 8.09325,3.32027241 7.70725,3.70627241 L3.70725,7.70627241 C3.51225,7.90127241 3.25625,7.99927241 3.00025,7.99927241" id="path-4"></path>
    </defs>
    <g id="Screens" stroke="none" stroke-width="1" fill="none" fill-rule="evenodd">
        <g id="Materias-" transform="translate(-422.000000, -1521.000000)">
            <g id="card_programacion" transform="translate(450.000000, 1547.000000)">
                <g id="Group">
                    <mask id="mask-2" fill="white">
                        <use xlink:href="#path-1"></use>
                    </mask>
                    <g id="Mask">
                        <use fill="black" fill-opacity="1" filter="url(#filter-3)" xlink:href="#path-1"></use>
                        <use fill="#FFFFFF" fill-rule="evenodd" xlink:href="#path-1"></use>
                    </g>
                    <rect id="Rectangle" fill="#E4E9F2" fill-rule="nonzero" opacity="0.497465588" mask="url(#mask-2)" x="0" y="0" width="255" height="88"></rect>
                    <g id="atomo/-button/-primario/-228x48px" mask="url(#mask-2)">
                        <g transform="translate(27.000000, 232.000000)" id="Group">
                            <g>
                                <rect id="Rectangle" fill="#017C2C" x="0" y="0" width="200" height="48" rx="24"></rect>
                                <g id="Group-2" transform="translate(30.225131, 16.000000)">
                                    <g id="Group-3">
                                        <text id="Ver-actividades" font-family="Montserrat-Medium, Montserrat" font-size="16" font-weight="400" line-spacing="16" fill="#FFFFFF">
                                            <tspan x="0.298429319" y="15">Ver actividades</tspan>
                                        </text>
                                        <g id="Arrow_down" transform="translate(140.596859, 9.000000) rotate(-90.000000) translate(-140.596859, -9.000000) translate(135.596859, 6.000000)">
                                            <mask id="mask-5" fill="white">
                                                <use xlink:href="#path-4"></use>
                                            </mask>
                                            <use id="🎨-Icon-Сolor" fill="#FFFFFF" fill-rule="nonzero" transform="translate(5.000080, 2.999636) rotate(-270.000000) translate(-5.000080, -2.999636) " xlink:href="#path-4"></use>
                                        </g>
                                    </g>
                                </g>
                            </g>
                        </g>
                    </g>
                    <text id="Fichas-de-repaso" font-family="Montserrat-Medium, Montserrat" font-size="20" font-weight="400" letter-spacing="0.416666667" fill="#333E53">
                        <tspan x="52.5" y="196">Programación</tspan>
                    </text>
                </g>
                <g id="icono_01--copy-6" transform="translate(74.000000, 24.000000)">
                    <g id="repaso" transform="translate(-0.600000, 0.000000)" fill="#95C120">
                        <path d="M108.6,53.991202 C108.603239,75.8333014 95.447941,95.5263378 75.2690921,103.886444 C55.0902431,112.24655 31.8622778,107.627116 16.4175811,92.1824189 C0.972884294,76.7377222 -3.64654995,53.5097569 4.71355613,33.3309079 C13.0736622,13.152059 32.7666986,-0.00323886789 54.608798,0 C84.4254832,0.00442279848 108.595577,24.1745168 108.6,53.991202" id="Path"></path>
                    </g>
                    <g id="remote-control" transform="translate(11.200000, 11.200000)">
                        <g id="Group" transform="translate(0.000000, 26.139661)">
                            <rect id="Rectangle" fill="#006DD0" x="0" y="0" width="70.7308475" height="49.2040678" rx="1.68"></rect>
                            <path d="M39.9783051,0 C39.9783051,5.09524805 44.1088197,9.22576271 49.2040678,9.22576271 L56.8922034,9.22576271 C59.4398274,9.22576271 61.5050847,11.29102 61.5050847,13.8386441 L61.5050847,23.0644068 C61.5050847,28.1596548 65.6355994,32.2901695 70.7308475,32.2901695 L70.7308475,4.61288136 C70.7308475,2.06525733 68.6655901,0 66.1179661,0 L39.9783051,0 Z" id="Path" fill="#84D2F4" fill-rule="nonzero"></path>
                            <path d="M9.22576271,58.4298305 L61.5050847,58.4298305 C63.2035008,58.4298305 64.580339,59.8066687 64.580339,61.5050847 L64.580339,64.580339 L6.15050847,64.580339 L6.15050847,61.5050847 C6.15050847,59.8066687 7.52734669,58.4298305 9.22576271,58.4298305 Z" id="Path" fill="#E9F1F2" fill-rule="nonzero"></path>
                            <polygon id="Path" fill="#D0D8DA" fill-rule="nonzero" points="52.279322 58.4298305 18.4515254 58.4298305 23.0644068 49.2040678 47.6664407 49.2040678"></polygon>
                            <polygon id="Path" fill="#93999A" fill-rule="nonzero" points="18.4515254 58.4298305 23.0644068 49.2040678 47.6664407 49.2040678"></polygon>
                            <path d="M12.3010169,58.4298305 L9.22576271,58.4298305 C7.52734669,58.4298305 6.15050847,59.8066687 6.15050847,61.5050847 L6.15050847,64.580339 L64.580339,64.580339 L64.580339,61.5050847 L15.3762712,61.5050847 C13.6778552,61.5050847 12.3010169,60.1282465 12.3010169,58.4298305 Z" id="Path" fill="#D0D8DA" fill-rule="nonzero"></path>
                            <g transform="translate(49.204068, 21.526780)" fill="#95C11F" id="Path">
                                <path d="M6.56413017,11.0709183 C6.01370449,11.0720015 5.50468213,10.7787859 5.22946983,10.3021017 L2.15421559,4.97576136 C1.87954496,4.49975715 1.87968405,3.9133761 2.15458047,3.43750225 C2.42947689,2.96162841 2.93736732,2.66855834 3.48693437,2.66868865 C4.03650141,2.66881905 4.54425276,2.96213004 4.81892339,3.43813424 L7.89417763,8.76447458 C8.16870785,9.23997421 8.16885824,9.82577895 7.89457221,10.3014195 C7.62028617,10.77706 7.11318975,11.0703524 6.56413017,11.0709183 L6.56413017,11.0709183 Z"></path>
                                <path d="M1.59451932,8.61071186 C1.56222915,8.61071186 1.52840136,8.61071186 1.49457356,8.61071186 C1.08757756,8.58463235 0.707614013,8.3979321 0.438280691,8.091688 C0.168947369,7.7854439 0.0323096204,7.38474526 0.0584298305,6.97775186 L0.415159322,1.44229424 C0.448304955,0.92933103 0.735585924,0.466859301 1.18074641,0.209833955 C1.62590689,-0.04719139 2.17005894,-0.0647698149 2.63088,0.162988475 L7.60049085,2.62319186 C8.35612531,3.00245454 8.66380184,3.92063555 8.2892503,4.67861626 C7.91469876,5.43659698 6.99845082,5.74998318 6.23815322,5.38015729 L3.33511322,3.94555119 L3.12753356,7.17456814 C3.07411819,7.98213141 2.40384695,8.6100485 1.59451932,8.61071186 L1.59451932,8.61071186 Z"></path>
                            </g>
                            <g transform="translate(4.612881, 9.225763)" fill="#E9F1F2" fill-rule="nonzero">
                                <path d="M4.61288136,9.22576271 C2.06525733,9.22576271 0,7.16050538 0,4.61288136 C0,2.06525733 2.06525733,-5.4627489e-15 4.61288136,-5.4627489e-15 C7.16050538,-5.4627489e-15 9.22576271,2.06525733 9.22576271,4.61288136 C9.22576271,7.16050538 7.16050538,9.22576271 4.61288136,9.22576271 L4.61288136,9.22576271 Z M4.61288136,3.07525424 C3.76367335,3.07525424 3.07525424,3.76367335 3.07525424,4.61288136 C3.07525424,5.46208936 3.76367335,6.15050847 4.61288136,6.15050847 C5.46208936,6.15050847 6.15050847,5.46208936 6.15050847,4.61288136 C6.15050847,3.76367335 5.46208936,3.07525424 4.61288136,3.07525424 Z" id="Shape"></path>
                                <path d="M16.9138983,21.5267797 C14.3662743,21.5267797 12.3010169,19.4615223 12.3010169,16.9138983 C12.3010169,14.3662743 14.3662743,12.3010169 16.9138983,12.3010169 C19.4615223,12.3010169 21.5267797,14.3662743 21.5267797,16.9138983 C21.5267797,19.4615223 19.4615223,21.5267797 16.9138983,21.5267797 Z M16.9138983,15.3762712 C16.0646903,15.3762712 15.3762712,16.0646903 15.3762712,16.9138983 C15.3762712,17.7631063 16.0646903,18.4515254 16.9138983,18.4515254 C17.7631063,18.4515254 18.4515254,17.7631063 18.4515254,16.9138983 C18.4515254,16.0646903 17.7631063,15.3762712 16.9138983,15.3762712 Z" id="Shape"></path>
                                <path d="M19.9891525,33.8277966 C17.4415285,33.8277966 15.3762712,31.7625393 15.3762712,29.2149153 C15.3762712,26.6672912 17.4415285,24.6020339 19.9891525,24.6020339 C22.5367766,24.6020339 24.6020339,26.6672912 24.6020339,29.2149153 C24.6020339,31.7625393 22.5367766,33.8277966 19.9891525,33.8277966 Z M19.9891525,27.6772881 C19.1399445,27.6772881 18.4515254,28.3657072 18.4515254,29.2149153 C18.4515254,30.0641233 19.1399445,30.7525424 19.9891525,30.7525424 C20.8383606,30.7525424 21.5267797,30.0641233 21.5267797,29.2149153 C21.5267797,28.3657072 20.8383606,27.6772881 19.9891525,27.6772881 Z" id="Shape"></path>
                                <path d="M38.440678,33.8277966 C35.8930539,33.8277966 33.8277966,31.7625393 33.8277966,29.2149153 C33.8277966,26.6672912 35.8930539,24.6020339 38.440678,24.6020339 C40.988302,24.6020339 43.0535593,26.6672912 43.0535593,29.2149153 C43.0535593,31.7625393 40.988302,33.8277966 38.440678,33.8277966 L38.440678,33.8277966 Z M38.440678,27.6772881 C37.59147,27.6772881 36.9030508,28.3657072 36.9030508,29.2149153 C36.9030508,30.0641233 37.59147,30.7525424 38.440678,30.7525424 C39.289886,30.7525424 39.9783051,30.0641233 39.9783051,29.2149153 C39.9783051,28.3657072 39.289886,27.6772881 38.440678,27.6772881 Z" id="Shape"></path>
                                <path d="M56.8922034,33.8277966 C54.3445794,33.8277966 52.279322,31.7625393 52.279322,29.2149153 C52.279322,26.6672912 54.3445794,24.6020339 56.8922034,24.6020339 C59.4398274,24.6020339 61.5050847,26.6672912 61.5050847,29.2149153 C61.5050847,31.7625393 59.4398274,33.8277966 56.8922034,33.8277966 Z M56.8922034,27.6772881 C56.0429954,27.6772881 55.3545763,28.3657072 55.3545763,29.2149153 C55.3545763,30.0641233 56.0429954,30.7525424 56.8922034,30.7525424 C57.7414114,30.7525424 58.4298305,30.0641233 58.4298305,29.2149153 C58.4298305,28.3657072 57.7414114,27.6772881 56.8922034,27.6772881 Z" id="Shape"></path>
                                <path d="M4.61288136,21.5267797 C2.06525733,21.5267797 0,19.4615223 0,16.9138983 C0,14.3662743 2.06525733,12.3010169 4.61288136,12.3010169 C7.16050538,12.3010169 9.22576271,14.3662743 9.22576271,16.9138983 C9.22576271,19.4615223 7.16050538,21.5267797 4.61288136,21.5267797 Z M4.61288136,15.3762712 C3.76367335,15.3762712 3.07525424,16.0646903 3.07525424,16.9138983 C3.07525424,17.7631063 3.76367335,18.4515254 4.61288136,18.4515254 C5.46208936,18.4515254 6.15050847,17.7631063 6.15050847,16.9138983 C6.15050847,16.0646903 5.46208936,15.3762712 4.61288136,15.3762712 Z" id="Shape"></path>
                                <path d="M13.8386441,9.22576271 C12.9894361,9.22576271 12.3010169,8.5373436 12.3010169,7.68813559 L12.3010169,1.53762712 C12.3010169,0.68841911 12.9894361,0 13.8386441,0 C14.6878521,0 15.3762712,0.68841911 15.3762712,1.53762712 L15.3762712,7.68813559 C15.3762712,8.5373436 14.6878521,9.22576271 13.8386441,9.22576271 Z" id="Path"></path>
                                <path d="M26.139661,21.5267797 C25.290453,21.5267797 24.6020339,20.8383606 24.6020339,19.9891525 L24.6020339,13.8386441 C24.6020339,12.9894361 25.290453,12.3010169 26.139661,12.3010169 C26.988869,12.3010169 27.6772881,12.9894361 27.6772881,13.8386441 L27.6772881,19.9891525 C27.6772881,20.8383606 26.988869,21.5267797 26.139661,21.5267797 Z" id="Path"></path>
                                <path d="M29.2149153,33.8277966 C28.3657072,33.8277966 27.6772881,33.1393775 27.6772881,32.2901695 L27.6772881,26.139661 C27.6772881,25.290453 28.3657072,24.6020339 29.2149153,24.6020339 C30.0641233,24.6020339 30.7525424,25.290453 30.7525424,26.139661 L30.7525424,32.2901695 C30.7525424,33.1393775 30.0641233,33.8277966 29.2149153,33.8277966 Z" id="Path"></path>
                                <path d="M47.6664407,33.8277966 C46.8172327,33.8277966 46.1288136,33.1393775 46.1288136,32.2901695 L46.1288136,26.139661 C46.1288136,25.290453 46.8172327,24.6020339 47.6664407,24.6020339 C48.5156487,24.6020339 49.2040678,25.290453 49.2040678,26.139661 L49.2040678,32.2901695 C49.2040678,33.1393775 48.5156487,33.8277966 47.6664407,33.8277966 Z" id="Path"></path>
                                <path d="M4.61288136,33.8277966 C3.76367335,33.8277966 3.07525424,33.1393775 3.07525424,32.2901695 L3.07525424,26.139661 C3.07525424,25.290453 3.76367335,24.6020339 4.61288136,24.6020339 C5.46208936,24.6020339 6.15050847,25.290453 6.15050847,26.139661 L6.15050847,32.2901695 C6.15050847,33.1393775 5.46208936,33.8277966 4.61288136,33.8277966 Z" id="Path"></path>
                                <path d="M10.7633898,33.8277966 C9.91418182,33.8277966 9.22576271,33.1393775 9.22576271,32.2901695 L9.22576271,26.139661 C9.22576271,25.290453 9.91418182,24.6020339 10.7633898,24.6020339 C11.6125978,24.6020339 12.3010169,25.290453 12.3010169,26.139661 L12.3010169,32.2901695 C12.3010169,33.1393775 11.6125978,33.8277966 10.7633898,33.8277966 Z" id="Path"></path>
                                <path d="M21.5267797,9.22576271 C20.6775717,9.22576271 19.9891525,8.5373436 19.9891525,7.68813559 L19.9891525,1.53762712 C19.9891525,0.68841911 20.6775717,0 21.5267797,0 C22.3759877,0 23.0644068,0.68841911 23.0644068,1.53762712 L23.0644068,7.68813559 C23.0644068,8.5373436 22.3759877,9.22576271 21.5267797,9.22576271 Z" id="Path"></path>
                            </g>
                            <g transform="translate(4.612881, 9.225763)" fill="#D0D8DA" fill-rule="nonzero">
                                <path d="M6.41190508,8.8567322 C5.84231503,9.09679232 5.23098244,9.22219387 4.61288136,9.22576271 C2.06525733,9.22576271 0,7.16050538 0,4.61288136 C0,2.06525733 2.06525733,-5.4627489e-15 4.61288136,-5.4627489e-15 L4.65901017,-5.4627489e-15 C4.7058904,1.04519284 4.808545,2.08713704 4.96653559,3.12138305 C4.85130483,3.08995719 4.73231773,3.07443713 4.61288136,3.07525424 C3.94773935,3.07763478 3.35953699,3.50742151 3.15514983,4.1403871 C2.95076267,4.77335269 3.17653459,5.46597502 3.71467639,5.85690079 C4.25281819,6.24782655 4.98130862,6.24841508 5.52008136,5.85835932 C5.76137998,6.87362015 6.05911695,7.87463236 6.41190508,8.8567322 L6.41190508,8.8567322 Z" id="Path"></path>
                                <path d="M6.15050847,26.139661 L6.15050847,32.2901695 C6.15050847,33.1393775 5.46208936,33.8277966 4.61288136,33.8277966 C3.76367335,33.8277966 3.07525424,33.1393775 3.07525424,32.2901695 L3.07525424,26.139661 C3.07525424,25.290453 3.76367335,24.6020339 4.61288136,24.6020339 C5.46208936,24.6020339 6.15050847,25.290453 6.15050847,26.139661 Z" id="Path"></path>
                                <path d="M4.61288136,12.3010169 C2.06525733,12.3010169 0,14.3662743 0,16.9138983 C0,19.4615223 2.06525733,21.5267797 4.61288136,21.5267797 C7.16050538,21.5267797 9.22576271,19.4615223 9.22576271,16.9138983 C9.21816345,14.3694286 7.15735102,12.3086162 4.61288136,12.3010169 L4.61288136,12.3010169 Z M4.61288136,18.4515254 C3.76367335,18.4515254 3.07525424,17.7631063 3.07525424,16.9138983 C3.07525424,16.0646903 3.76367335,15.3762712 4.61288136,15.3762712 C5.46208936,15.3762712 6.15050847,16.0646903 6.15050847,16.9138983 C6.15050847,17.7631063 5.46208936,18.4515254 4.61288136,18.4515254 Z" id="Shape"></path>
                                <path d="M12.3010169,26.139661 L12.3010169,32.2901695 C12.3010169,33.1393775 11.6125978,33.8277966 10.7633898,33.8277966 C9.91418182,33.8277966 9.22576271,33.1393775 9.22576271,32.2901695 L9.22576271,26.139661 C9.22576271,25.290453 9.91418182,24.6020339 10.7633898,24.6020339 C11.6125978,24.6020339 12.3010169,25.290453 12.3010169,26.139661 Z" id="Path"></path>
                                <path d="M24.0638644,27.0622373 C22.4006674,26.408775 20.8001145,25.6059253 19.2818441,24.663539 C17.2987939,24.9706706 15.7417951,26.5245895 15.4307374,28.5070276 C15.1196796,30.4894657 16.1259315,32.4455756 17.9196175,33.3453024 C19.7133035,34.2450291 21.8828832,33.8819408 23.2858918,32.4472337 C24.6889005,31.0125266 25.0034341,28.8353776 24.0638644,27.0622373 L24.0638644,27.0622373 Z M19.9891525,30.7525424 C19.1399445,30.7525424 18.4515254,30.0641233 18.4515254,29.2149153 C18.4515254,28.3657072 19.1399445,27.6772881 19.9891525,27.6772881 C20.8383606,27.6772881 21.5267797,28.3657072 21.5267797,29.2149153 C21.5267797,30.0641233 20.8383606,30.7525424 19.9891525,30.7525424 Z" id="Shape"></path>
                                <path d="M27.6772881,28.2462102 C28.692122,28.5076068 29.7069559,28.7074983 30.7525424,28.8766373 L30.7525424,32.2901695 C30.7525424,33.1393775 30.0641233,33.8277966 29.2149153,33.8277966 C28.3657072,33.8277966 27.6772881,33.1393775 27.6772881,32.2901695 L27.6772881,28.2462102 Z" id="Path"></path>
                                <path d="M43.0535593,29.2149153 C43.0535593,31.7625393 40.988302,33.8277966 38.440678,33.8277966 C35.8930539,33.8277966 33.8277966,31.7625393 33.8277966,29.2149153 L33.8277966,29.1687864 C34.3352136,29.199539 34.8580068,29.2149153 35.3654237,29.2149153 L36.9030508,29.2149153 C36.9030508,30.0641233 37.59147,30.7525424 38.440678,30.7525424 C39.289886,30.7525424 39.9783051,30.0641233 39.9783051,29.2149153 L43.0535593,29.2149153 Z" id="Path"></path>
                                <path d="M46.1288136,29.2149153 L49.2040678,29.2149153 L49.2040678,32.2901695 C49.2040678,33.1393775 48.5156487,33.8277966 47.6664407,33.8277966 C46.8172327,33.8277966 46.1288136,33.1393775 46.1288136,32.2901695 L46.1288136,29.2149153 Z" id="Path"></path>
                                <path d="M61.5050847,29.2149153 C61.5050847,31.7625393 59.4398274,33.8277966 56.8922034,33.8277966 C54.3445794,33.8277966 52.279322,31.7625393 52.279322,29.2149153 L55.3545763,29.2149153 C55.3545763,30.0641233 56.0429954,30.7525424 56.8922034,30.7525424 C57.7414114,30.7525424 58.4298305,30.0641233 58.4298305,29.2149153 L61.5050847,29.2149153 Z" id="Path"></path>
                                <g>
                                    <path d="M5.52008136,5.85835932 C4.98130862,6.24841508 4.25281819,6.24782655 3.71467639,5.85690079 C3.17653459,5.46597502 2.95076267,4.77335269 3.15514983,4.1403871 C3.35953699,3.50742151 3.94773935,3.07763478 4.61288136,3.07525424 C4.73231773,3.07443713 4.85130483,3.08995719 4.96653559,3.12138305 C4.808545,2.08713704 4.7058904,1.04519284 4.65901017,1.09254978e-14 L4.61288136,1.09254978e-14 C2.06525733,1.09254978e-14 2.73137445e-15,2.06525733 2.73137445e-15,4.61288136 C2.73137445e-15,7.16050538 2.06525733,9.22576271 4.61288136,9.22576271 C5.23098244,9.22219387 5.84231503,9.09679232 6.41190508,8.8567322 C6.05911695,7.87463236 5.76137998,6.87362015 5.52008136,5.85835932 L5.52008136,5.85835932 Z" id="Path"></path>
                                    <path d="M24.0638644,27.0622373 C22.4006674,26.408775 20.8001145,25.6059253 19.2818441,24.663539 C17.2987939,24.9706706 15.7417951,26.5245895 15.4307374,28.5070276 C15.1196796,30.4894657 16.1259315,32.4455756 17.9196175,33.3453024 C19.7133035,34.2450291 21.8828832,33.8819408 23.2858918,32.4472337 C24.6889005,31.0125266 25.0034341,28.8353776 24.0638644,27.0622373 L24.0638644,27.0622373 Z M19.9891525,30.7525424 C19.1399445,30.7525424 18.4515254,30.0641233 18.4515254,29.2149153 C18.4515254,28.3657072 19.1399445,27.6772881 19.9891525,27.6772881 C20.8383606,27.6772881 21.5267797,28.3657072 21.5267797,29.2149153 C21.5267797,30.0641233 20.8383606,30.7525424 19.9891525,30.7525424 Z" id="Shape"></path>
                                    <path d="M39.9783051,29.2149153 C39.9783051,30.0641233 39.289886,30.7525424 38.440678,30.7525424 C37.59147,30.7525424 36.9030508,30.0641233 36.9030508,29.2149153 L35.3654237,29.2149153 C34.8580068,29.2149153 34.3352136,29.199539 33.8277966,29.1687864 L33.8277966,29.2149153 C33.8277966,31.7625393 35.8930539,33.8277966 38.440678,33.8277966 C40.988302,33.8277966 43.0535593,31.7625393 43.0535593,29.2149153 L39.9783051,29.2149153 Z" id="Path"></path>
                                    <path d="M58.4298305,29.2149153 C58.4298305,30.0641233 57.7414114,30.7525424 56.8922034,30.7525424 C56.0429954,30.7525424 55.3545763,30.0641233 55.3545763,29.2149153 L52.279322,29.2149153 C52.279322,31.7625393 54.3445794,33.8277966 56.8922034,33.8277966 C59.4398274,33.8277966 61.5050847,31.7625393 61.5050847,29.2149153 L58.4298305,29.2149153 Z" id="Path"></path>
                                    <path d="M4.61288136,12.3010169 C2.06525733,12.3010169 0,14.3662743 0,16.9138983 C0,19.4615223 2.06525733,21.5267797 4.61288136,21.5267797 C7.16050538,21.5267797 9.22576271,19.4615223 9.22576271,16.9138983 C9.21816345,14.3694286 7.15735102,12.3086162 4.61288136,12.3010169 L4.61288136,12.3010169 Z M4.61288136,18.4515254 C3.76367335,18.4515254 3.07525424,17.7631063 3.07525424,16.9138983 C3.07525424,16.0646903 3.76367335,15.3762712 4.61288136,15.3762712 C5.46208936,15.3762712 6.15050847,16.0646903 6.15050847,16.9138983 C6.15050847,17.7631063 5.46208936,18.4515254 4.61288136,18.4515254 Z" id="Shape"></path>
                                    <path d="M30.7525424,28.8766373 L30.7525424,32.2901695 C30.7525424,33.1393775 30.0641233,33.8277966 29.2149153,33.8277966 C28.3657072,33.8277966 27.6772881,33.1393775 27.6772881,32.2901695 L27.6772881,28.2462102 C28.692122,28.5076068 29.7069559,28.7074983 30.7525424,28.8766373 L30.7525424,28.8766373 Z" id="Path"></path>
                                    <path d="M49.2040678,29.2149153 L49.2040678,32.2901695 C49.2040678,33.1393775 48.5156487,33.8277966 47.6664407,33.8277966 C46.8172327,33.8277966 46.1288136,33.1393775 46.1288136,32.2901695 L46.1288136,29.2149153 L49.2040678,29.2149153 Z" id="Path"></path>
                                    <path d="M6.15050847,26.139661 L6.15050847,32.2901695 C6.15050847,33.1393775 5.46208936,33.8277966 4.61288136,33.8277966 C3.76367335,33.8277966 3.07525424,33.1393775 3.07525424,32.2901695 L3.07525424,26.139661 C3.07525424,25.290453 3.76367335,24.6020339 4.61288136,24.6020339 C5.46208936,24.6020339 6.15050847,25.290453 6.15050847,26.139661 Z" id="Path"></path>
                                    <path d="M12.3010169,26.139661 L12.3010169,32.2901695 C12.3010169,33.1393775 11.6125978,33.8277966 10.7633898,33.8277966 C9.91418182,33.8277966 9.22576271,33.1393775 9.22576271,32.2901695 L9.22576271,26.139661 C9.22576271,25.290453 9.91418182,24.6020339 10.7633898,24.6020339 C11.6125978,24.6020339 12.3010169,25.290453 12.3010169,26.139661 Z" id="Path"></path>
                                </g>
                            </g>
                        </g>
                        <g id="Group" transform="translate(12.108814, 0.000000)">
                            <rect id="Rectangle" fill="#333E53" fill-rule="nonzero" x="64.7725424" y="0" width="12.3010169" height="43.0535593" rx="6.15050847"></rect>
                            <rect id="Rectangle" fill="#FFFFFF" fill-rule="nonzero" x="67.8477966" y="4.61288136" width="6.15050847" height="33.8277966" rx="3.07525424"></rect>
                            <path d="M43.2580637,11.5506549 C37.4027192,12.0419283 31.5203868,10.9995366 26.1904027,8.52614237 L18.6437288,5.02496542 C17.889588,4.58953485 16.9861964,4.4942472 16.1578057,4.76275602 C15.329415,5.03126484 14.6536997,5.6383932 14.2983946,6.43343186 C13.6877012,7.93691483 14.2997774,9.65945331 15.7222373,10.4404881 L28.5152949,18.1286237 L7.29604068,12.4394034 C5.81195877,12.0058312 4.23065219,12.6992731 3.54423051,14.0846644 C3.1664665,14.9078432 3.17078737,15.8556894 3.55604066,16.6753899 C3.94129395,17.4950903 4.66829885,18.1032803 5.54314576,18.337741 L25.8198346,24.6020339 L3.43198373,24.6020339 C1.88692664,24.5677676 0.539447638,25.6457508 0.233719322,27.1606454 C0.0814565444,28.0540885 0.331057222,28.9692018 0.915865886,29.6616057 C1.50067455,30.3540097 2.36113317,30.7531886 3.26745763,30.7525424 L27.2098495,30.7525424 L24.8142264,36.3433546 C23.8192026,38.664514 23.8192026,41.2920962 24.8142264,43.6132556 L26.8731092,48.4183403 C27.4150018,49.7644931 28.691118,50.6718868 30.1405668,50.7420714 C31.3366485,50.7591194 32.460474,50.1707331 33.1275871,49.1778206 C33.7947001,48.1849081 33.9146736,46.9220587 33.4464651,45.8212881 L31.4644637,41.1945681 C31.1327891,40.4208483 31.1327891,39.5449876 31.4644637,38.7712678 L32.4546956,36.4648271 C33.9344723,33.0011496 37.3373113,30.7537635 41.1038481,30.7525424 C43.9130997,30.7528412 46.2409092,32.9313805 46.4271132,35.7344542 C46.4593501,36.2174744 46.2622354,36.6874732 45.8950942,37.0029966 L43.8362115,38.7728054 C42.6645023,39.7012277 42.0864825,41.1907081 42.3252032,42.6664732 C42.563924,44.1422384 43.5820567,45.3735241 44.9867158,45.8851913 C46.3913748,46.3968585 47.9629147,46.1088983 49.0948963,45.1324312 L53.240339,41.5758997 C54.3417626,40.6293296 54.9331066,39.2193329 54.8363959,37.7702725 C54.7160202,35.9533083 55.3536816,34.1676525 56.5977449,32.8379323 C57.8418083,31.5082122 59.5811165,30.7532381 61.4020637,30.7525424 L70.9230508,30.7525424 L70.9230508,9.22576271 L43.2580637,11.5506549 Z" id="Path" fill="#FFB233"></path>
                            <path d="M60.159661,10.1298875 L60.159661,11.5491173 C60.1595984,15.4503325 57.1695396,18.7004255 53.2818549,19.0250603 C45.6980255,19.6569308 38.0807089,18.2962981 31.1846156,15.0779715 C27.2140607,13.2232043 23.8988064,10.2087032 21.6759295,6.43189424 L18.6437288,5.02496542 C17.889588,4.58953485 16.9861964,4.4942472 16.1578057,4.76275602 C15.329415,5.03126484 14.6536997,5.6383932 14.2983946,6.43343186 C13.6914594,7.93393483 14.3024323,9.65126415 15.7206997,10.4312624 L28.5137573,18.119398 L7.29450305,12.4301776 C5.81042114,11.9966055 4.22911456,12.6900473 3.54269288,14.0754386 C3.16492887,14.8986174 3.16924975,15.8464637 3.55450303,16.6661641 C3.93975632,17.4858646 4.66676123,18.0940546 5.54160814,18.3285153 L25.8198346,24.6020339 L3.43198373,24.6020339 C1.88692664,24.5677676 0.539447638,25.6457508 0.233719322,27.1606454 C0.0814565444,28.0540885 0.331057222,28.9692018 0.915865886,29.6616057 C1.50067455,30.3540097 2.36113317,30.7531886 3.26745763,30.7525424 L27.2098495,30.7525424 L24.8142264,36.3433546 C23.8192026,38.664514 23.8192026,41.2920962 24.8142264,43.6132556 L26.8731092,48.4183403 C27.4150018,49.7644931 28.691118,50.6718868 30.1405668,50.7420714 C31.3366485,50.7591194 32.460474,50.1707331 33.1275871,49.1778206 C33.7947001,48.1849081 33.9146736,46.9220587 33.4464651,45.8212881 L31.4644637,41.1945681 C31.1327891,40.4208483 31.1327891,39.5449876 31.4644637,38.7712678 L32.4546956,36.4648271 C33.9344723,33.0011496 37.3373113,30.7537635 41.1038481,30.7525424 C43.9136922,30.7520315 46.2424076,32.9307893 46.4286508,35.7344542 C46.4608878,36.2174744 46.2637731,36.6874732 45.8966319,37.0029966 L43.8377492,38.7728054 C42.66604,39.7012277 42.0880201,41.1907081 42.3267409,42.6664732 C42.5654616,44.1422384 43.5835944,45.3735241 44.9882534,45.8851913 C46.3929124,46.3968585 47.9644523,46.1088983 49.0964339,45.1324312 L53.240339,41.5758997 C54.3417626,40.6293296 54.9331066,39.2193329 54.8363959,37.7702725 C54.7160202,35.9533083 55.3536816,34.1676525 56.5977449,32.8379323 C57.8418083,31.5082122 59.5811165,30.7532381 61.4020637,30.7525424 L70.9230508,30.7525424 L70.9230508,9.22576271 L60.159661,10.1298875 Z" id="Path" fill="#FFB233"></path>
                            <circle id="Oval" fill="#57B7EB" fill-rule="nonzero" cx="50.9338983" cy="19.9891525" r="3.07525424"></circle>
                            <path d="M47.9939553,19.1326942 C47.6042873,20.418545 48.0945009,21.8085093 49.2046105,22.5654175 C50.3147202,23.3223257 51.7876996,23.2709291 52.8423521,22.438486 C53.8970046,21.6060429 54.289144,20.1852907 53.8107986,18.9297275 C53.6324339,18.9574047 53.4632949,19.0096841 53.2818549,19.0250603 C51.523012,19.1676777 49.7571449,19.2036215 47.9939553,19.1326942 L47.9939553,19.1326942 Z" id="Path" fill="#4891D3" fill-rule="nonzero"></path>
                            <path d="M65.8811715,23.0644068 L64.6925858,19.5032624 C64.4835368,18.8756128 63.8964629,18.4520277 63.2349153,18.4515254 L55.2638563,18.4515254 C54.6220332,16.6092489 52.8847749,15.3748174 50.9338983,15.3748174 C48.9830217,15.3748174 47.2457634,16.6092489 46.6039403,18.4515254 L39.269459,18.4515254 L36.6447295,15.8267959 C36.0413971,15.244078 35.08237,15.2524117 34.4892552,15.8455264 C33.8961405,16.4386412 33.8878068,17.3976683 34.4705247,18.0010007 L37.545779,21.0762549 C37.8340729,21.3646359 38.2251106,21.5266926 38.6328814,21.5267797 L46.6039403,21.5267797 C47.2457634,23.3690562 48.9830217,24.6034877 50.9338983,24.6034877 C52.8847749,24.6034877 54.6220332,23.3690562 55.2638563,21.5267797 L62.1262861,21.5267797 L63.3148719,25.0879241 C63.5239208,25.7155737 64.1109948,26.1391587 64.7725424,26.139661 L70.9230508,26.139661 L70.9230508,23.0644068 L65.8811715,23.0644068 Z M50.9338983,21.5267797 C50.0846903,21.5267797 49.3962712,20.8383606 49.3962712,19.9891525 C49.3962712,19.1399445 50.0846903,18.4515254 50.9338983,18.4515254 C51.7831063,18.4515254 52.4715254,19.1399445 52.4715254,19.9891525 C52.4715254,20.8383606 51.7831063,21.5267797 50.9338983,21.5267797 Z" id="Shape" fill="#E9F1F2" fill-rule="nonzero"></path>
                            <path d="M65.8796339,23.0644068 L64.695661,19.4971119 C64.4786237,18.8749163 63.8938608,18.4563492 63.2349153,18.4515254 L55.5775322,18.4515254 C54.8487603,18.7612045 54.0754495,18.9532347 53.2864678,19.0204475 C52.9174373,19.0512 52.5484068,19.0819525 52.1793763,19.0973288 C52.3711799,19.3549083 52.4737485,19.6680126 52.4715254,19.9891525 C52.4715254,20.8383606 51.7831063,21.5267797 50.9338983,21.5267797 C50.0846903,21.5267797 49.3962712,20.8383606 49.3962712,19.9891525 C49.3996311,19.7018738 49.4792253,19.4206408 49.6269153,19.1742102 C46.9760071,19.172959 44.3306848,18.9310716 41.7235119,18.4515254 L39.2633085,18.4515254 L38.556,17.7442169 C37.0537591,17.3587278 35.5751521,16.886395 34.1276339,16.3296 C33.8945994,16.9056053 34.027706,17.5650879 34.4659119,18.0056136 L37.5411661,21.0808678 C37.8343663,21.3640922 38.2252378,21.5237439 38.6328814,21.5267797 L46.5977898,21.5267797 C47.2430813,23.3689809 48.9819489,24.6023452 50.9338983,24.6023452 C52.8858477,24.6023452 54.6247153,23.3689809 55.2700068,21.5267797 L62.1278237,21.5267797 L63.3117966,25.0940746 C63.5288339,25.7162702 64.1135968,26.1348373 64.7725424,26.139661 L70.9230508,26.139661 L70.9230508,23.0644068 L65.8796339,23.0644068 Z" id="Path" fill="#D0D8DA" fill-rule="nonzero"></path>
                        </g>
                    </g>
                </g>
            </g>
        </g>
    </g>
</svg>