<?xml version="1.0" encoding="UTF-8"?>
<svg width="311px" height="366px" viewBox="0 0 311 366" version="1.1" xmlns="http://www.w3.org/2000/svg" xmlns:xlink="http://www.w3.org/1999/xlink">
    <!-- Generator: Sketch 63.1 (92452) - https://sketch.com -->
    <title>activacion copy@2x</title>
    <desc>Created with Sketch.</desc>
    <defs>
        <rect id="path-1" x="0" y="0" width="255" height="310" rx="8"></rect>
        <filter x="-16.9%" y="-13.2%" width="133.7%" height="127.7%" filterUnits="objectBoundingBox" id="filter-3">
            <feOffset dx="0" dy="2" in="SourceAlpha" result="shadowOffsetOuter1"></feOffset>
            <feGaussianBlur stdDeviation="14" in="shadowOffsetOuter1" result="shadowBlurOuter1"></feGaussianBlur>
            <feColorMatrix values="0 0 0 0 0   0 0 0 0 0   0 0 0 0 0  0 0 0 0.06 0" type="matrix" in="shadowBlurOuter1"></feColorMatrix>
        </filter>
        <path d="M3.00025,7.99927241 C2.74425,7.99927241 2.48825,7.90127241 2.29325,7.70627241 C1.90225,7.31527241 1.90225,6.68327241 2.29325,6.29227241 L5.59825,2.98727241 L2.41825,-0.305727588 C2.03525,-0.703727588 2.04625,-1.33672759 2.44325,-1.71972759 C2.84125,-2.10272759 3.47425,-2.09172759 3.85725,-1.69572759 L7.71925,2.30427241 C8.09825,2.69727241 8.09325,3.32027241 7.70725,3.70627241 L3.70725,7.70627241 C3.51225,7.90127241 3.25625,7.99927241 3.00025,7.99927241" id="path-4"></path>
        <linearGradient x1="4.5548192%" y1="56.0206448%" x2="95.7120788%" y2="44.0174347%" id="linearGradient-6">
            <stop stop-color="#F1315B" offset="0%"></stop>
            <stop stop-color="#980035" offset="100%"></stop>
        </linearGradient>
        <linearGradient x1="-0.0617283951%" y1="50%" x2="100%" y2="50%" id="linearGradient-7">
            <stop stop-color="#F1315B" offset="0%"></stop>
            <stop stop-color="#980035" offset="100%"></stop>
        </linearGradient>
    </defs>
    <g id="Screens" stroke="none" stroke-width="1" fill="none" fill-rule="evenodd">
        <g id="Materias-" transform="translate(-137.000000, -1521.000000)">
            <g id="Ficha-de-repaso" transform="translate(165.000000, 1547.000000)">
                <g id="Group">
                    <mask id="mask-2" fill="white">
                        <use xlink:href="#path-1"></use>
                    </mask>
                    <g id="Mask">
                        <use fill="black" fill-opacity="1" filter="url(#filter-3)" xlink:href="#path-1"></use>
                        <use fill="#FFFFFF" fill-rule="evenodd" xlink:href="#path-1"></use>
                    </g>
                    <rect id="Rectangle" fill="#E4E9F2" fill-rule="nonzero" opacity="0.497465588" mask="url(#mask-2)" x="0" y="0" width="255" height="88"></rect>
                    <g id="atomo/-button/-primario/-228x48px/-active-copy-2" mask="url(#mask-2)">
                        <g transform="translate(27.000000, 232.000000)" id="Group">
                            <g>
                                <rect id="Rectangle" fill="#FFB233" x="0" y="0" width="200" height="48" rx="24"></rect>
                                <g id="Group-2" transform="translate(30.225131, 16.000000)">
                                    <g id="Group-3">
                                        <text id="Ver-actividades" font-family="Montserrat-Medium, Montserrat" font-size="16" font-weight="400" line-spacing="16" fill="#FFFFFF">
                                            <tspan x="0.298429319" y="15">Ver actividades</tspan>
                                        </text>
                                        <g id="Arrow_down" transform="translate(140.596859, 9.000000) rotate(-90.000000) translate(-140.596859, -9.000000) translate(135.596859, 6.000000)">
                                            <mask id="mask-5" fill="white">
                                                <use xlink:href="#path-4"></use>
                                            </mask>
                                            <use id="🎨-Icon-Сolor" fill="#FFFFFF" fill-rule="nonzero" transform="translate(5.000080, 2.999636) rotate(-270.000000) translate(-5.000080, -2.999636) " xlink:href="#path-4"></use>
                                        </g>
                                    </g>
                                </g>
                            </g>
                        </g>
                    </g>
                    <text id="Fichas-de-repaso" font-family="Montserrat-Medium, Montserrat" font-size="20" font-weight="400" letter-spacing="0.416666667" fill="#333E53">
                        <tspan x="35.1083333" y="196">Cineclub Familiar</tspan>
                    </text>
                </g>
                <g id="icono_01--copy-5" transform="translate(74.000000, 24.000000)">
                    <g id="repaso" transform="translate(2.400000, 0.000000)" fill="#FFB233">
                        <path d="M108,53.991202 C108.003239,75.8333014 94.847941,95.5263378 74.6690921,103.886444 C54.4902431,112.24655 31.2622778,107.627116 15.8175811,92.1824189 C0.372884294,76.7377222 -4.24654995,53.5097569 4.11355613,33.3309079 C12.4736622,13.152059 32.1666986,-0.00323886789 54.008798,0 C83.8254832,0.00442279848 107.995577,24.1745168 108,53.991202" id="Path"></path>
                    </g>
                    <g id="Recurso-1" transform="translate(-16.000000, 7.200000)">
                        <g id="_Grupo_2" fill="#FFFFFF" fill-rule="nonzero">
                            <g id="_Grupo_3">
                                <g id="_Grupo_4" transform="translate(0.558835, 22.912243)">
                                    <g id="_Grupo_5" transform="translate(10.059034, 7.264858)">
                                        <path d="M0.5588352,1.42502976 L17.7094875,7.2648576 L0.944431488,0.385596288 C0.575600256,0.22353408 0.156473856,0.318536064 0.08382528,0.61471872 C0.036904093,0.779678545 0.0616975878,0.956775644 0.152115516,1.10250807 C0.242533444,1.2482405 0.390197341,1.34910413 0.5588352,1.38032294 C0.5588352,1.42502976 0.5588352,1.42502976 0.5588352,1.42502976 Z" id="_Trazado_"></path>
                                        <path d="M9.17607398,6.11365709 L17.8827264,7.44368486 L9.18725069,5.588352 C8.98607002,5.52688013 8.83518451,5.62188211 8.82400781,5.80070938 C8.84410858,5.97501743 8.96431595,6.12145186 9.13136717,6.17512896 L9.17607398,6.11365709 Z" id="_Trazado_2"></path>
                                    </g>
                                    <g id="_Grupo_6">
                                        <path d="M0.832664448,1.99504166 L26.9135032,12.8532096 L2.32475443,0.368831232 C1.70458675,0.0849983485 0.97599864,0.18752422 0.458244864,0.631483776 C0.245622561,0.820766198 0.152589957,1.11059921 0.215326918,1.38826835 C0.278063879,1.66593749 0.486668606,1.88761814 0.760015872,1.9670999 C0.760015872,1.9670999 0.821487744,1.99504166 0.832664448,1.99504166 Z" id="_Trazado_3"></path>
                                    </g>
                                </g>
                                <path d="M44.7850529,17.8380196 L45.9027233,33.3345197 L40.4764335,18.8048045 C40.0744001,18.0370002 40.1524276,17.1059993 40.6766548,16.4158252 C41.2008821,15.7256512 42.0768173,15.4007075 42.9243338,15.5820088 C43.7718503,15.7633102 44.4381837,16.4181772 44.6341674,17.2624193 C44.7227433,17.4421556 44.7740665,17.6379444 44.7850529,17.8380196 Z" id="_Trazado_4"></path>
                                <path d="M95.5049357,95.5608192 L77.4769121,86.2170947 L92.1239827,100.243858 C93.3045252,101.314368 95.1146255,101.280076 96.2537748,100.165621 C97.341399,98.9930686 97.2993048,97.1681627 96.1587729,96.0470058 C95.9511018,95.8715648 95.7327358,95.7091901 95.5049357,95.5608192 Z" id="_Trazado_5"></path>
                                <path d="M39.6772992,102.708321 L42.1138207,86.222683 L35.1730875,101.400647 C34.7920906,102.175314 34.861442,103.095714 35.3542192,103.804543 C35.8469965,104.513372 36.6855902,104.898995 37.5444555,104.811711 C38.4033209,104.724427 39.1471918,104.177984 39.4872952,103.384512 C39.5722246,103.165749 39.635854,102.939303 39.6772992,102.708321 L39.6772992,102.708321 Z" id="_Trazado_6"></path>
                                <g id="_Grupo_7" transform="translate(64.824883, 0.000000)">
                                    <g id="_Grupo_8" transform="translate(0.000000, 11.176704)">
                                        <path d="M2.58181862,0.899724672 L1.57032691,19.0003968 L3.65478221,0.994726656 C3.72184243,0.564423552 3.5038967,0.22353408 3.20771405,0.206769024 C2.91153139,0.190003968 2.64887885,0.469421568 2.57623027,0.899724672 L2.58181862,0.899724672 Z" id="_Trazado_7"></path>
                                        <path d="M0.396772992,10.4390415 L1.46973658,19.1848124 L0.910901376,10.288156 C0.910901376,10.1205055 0.78236928,9.98079667 0.603542016,10.0366802 C0.445398324,10.1030216 0.346684888,10.2623092 0.357654528,10.4334532 L0.396772992,10.4390415 Z" id="_Trazado_8"></path>
                                    </g>
                                    <g id="_Grupo_9" transform="translate(2.794176, 0.000000)">
                                        <path d="M3.57095693,0.821487744 L0.217945728,28.8861915 L5.588352,1.83856781 C5.68221189,1.16492536 5.37706166,0.497954159 4.80598272,0.128532096 C4.57034342,-0.0240659239 4.27039437,-0.0365603228 4.02288045,0.0959119155 C3.77536653,0.228384154 3.61939168,0.484894166 3.61566374,0.765604224 C3.60245096,0.78552301 3.58748952,0.804224806 3.57095693,0.821487744 L3.57095693,0.821487744 Z" id="_Trazado_9"></path>
                                    </g>
                                </g>
                                <g id="_Grupo_10" transform="translate(111.767040, 19.000397)">
                                    <g id="_Grupo_11" transform="translate(0.000000, 3.353011)">
                                        <path d="M15.6473856,0.514128384 L0.5588352,10.4837484 L16.2676927,1.44738317 C16.5914381,1.2932223 16.742289,0.916095061 16.6141705,0.581188608 C16.463285,0.340889472 16.0553353,0.340889472 15.7032691,0.525305088 L15.6473856,0.514128384 Z" id="_Trazado_10"></path>
                                        <path d="M6.65013888,4.4706816 L0.285005952,10.5116901 L7.09161869,4.77804096 C7.22573914,4.67745062 7.2648576,4.52656512 7.14750221,4.43156314 C7.01117033,4.30789314 6.80323582,4.30789314 6.66690394,4.43156314 L6.65013888,4.4706816 Z" id="_Trazado_11"></path>
                                    </g>
                                    <g id="_Grupo_12" transform="translate(2.235341, 0.000000)">
                                        <path d="M24.6837508,0.240299136 L0.190003968,14.2614743 L25.052582,2.42534477 C25.6697847,2.14189786 26.0382204,1.49713542 25.9690717,0.821487744 C25.9599799,0.541071557 25.7993149,0.287715847 25.5495438,0.159925944 C25.2997726,0.0321360401 25.0003055,0.0500753495 24.7675761,0.206769024 C24.7411628,0.22144168 24.7129967,0.232708124 24.6837508,0.240299136 L24.6837508,0.240299136 Z" id="_Trazado_12"></path>
                                    </g>
                                </g>
                                <g id="_Grupo_13" transform="translate(59.795366, 86.060621)">
                                    <g id="_Grupo_14" transform="translate(1.117670, 0.000000)">
                                        <path d="M4.42038643,17.9777284 L0.117355392,0.413538048 L3.38654131,18.2347926 C3.40737521,18.5827042 3.69745055,18.8531135 4.04596685,18.8495469 C4.20478033,18.7990797 4.33567797,18.6852343 4.40764566,18.5349488 C4.47961334,18.3846633 4.48624696,18.2113112 4.42597478,18.0559653 C4.4458006,18.0327397 4.44331207,17.9979003 4.42038643,17.9777284 Z" id="_Trazado_13"></path>
                                        <path d="M3.77772595,8.17017062 L0.19559232,0.162062208 L3.32506944,8.54459021 C3.32165335,8.61782938 3.35948433,8.68682828 3.42307028,8.72333133 C3.48665624,8.75983438 3.56531702,8.75771038 3.62684045,8.71782912 C3.7871702,8.61026216 3.85013891,8.4050308 3.77772595,8.22605414 L3.77772595,8.17017062 Z" id="_Trazado_14"></path>
                                    </g>
                                    <g id="_Grupo_15" transform="translate(0.000000, 1.676506)">
                                        <path d="M5.20275571,28.1708824 L0.234710784,0.402361344 L2.98976832,27.7852861 C3.09582754,28.4705232 3.57729581,29.0383535 4.23597082,29.2550227 C4.50861826,29.3071492 4.78931256,29.219981 4.98447047,29.0225799 C5.17962837,28.8251788 5.26358305,28.5435067 5.20834406,28.2714728 C5.20834406,28.2714728 5.18599066,28.1988242 5.20275571,28.1708824 Z" id="_Trazado_15"></path>
                                    </g>
                                </g>
                                <g id="_Grupo_16" transform="translate(0.000000, 26.824090)">
                                    <g id="_Grupo_17">
                                        <polygon id="_Trazado_compuesto_" points="2.56505357 6.02983181 2.60417203 6.09689203 2.87800128 8.9413632 5.0295168 6.95190989 7.91869478 7.56662861 6.7060224 4.9009847 8.19252403 2.35269619 5.23628582 2.70476237 3.26918592 0.50295168 2.71035072 3.40889472 0 4.58803699"></polygon>
                                    </g>
                                </g>
                            </g>
                            <g id="_Grupo_18" transform="translate(35.206618, 5.029517)">
                                <g id="_Grupo_19">
                                    <polygon id="_Trazado_compuesto_2" points="3.3530112 7.15309056 3.3530112 7.23132749 3.68272397 10.7519892 6.33719117 8.27076096 9.86344128 9.03077683 8.32105613 5.77835597 10.1540356 2.6544672 6.5551369 3.09594701 4.16891059 0.39118464 3.47595494 3.93978816 0.162062208 5.38158298"></polygon>
                                </g>
                            </g>
                            <g id="_Grupo_20" transform="translate(66.501389, 102.266842)">
                                <g id="_Grupo_21">
                                    <polygon id="_Trazado_compuesto_3" points="3.39771802 7.04132352 3.44242483 7.11956045 3.75537254 10.6346339 6.40983974 8.17017062 9.95844326 8.91900979 8.41046976 5.65541222 10.2210958 2.53711181 6.62778547 2.98417997 4.24155917 0.290594304 3.54860352 3.82802112 0.257064192 5.26422758"></polygon>
                                </g>
                            </g>
                        </g>
                        <g id="_Grupo_22" transform="translate(17.882726, 25.706419)" fill-rule="nonzero">
                            <path d="M92.7666432,14.7867794 L90.2407081,2.43652147 C90.1430608,1.98882307 89.8714742,1.59829276 89.4857541,1.35092883 C89.1000341,1.1035649 88.631812,1.01965268 88.1841946,1.1176704 L1.50326669,18.8271579 C0.571716047,19.023104 -0.0272146174,19.9339778 0.162062208,20.8669064 L2.68799731,33.2115759 C2.85746704,34.0289823 3.5857781,34.6092818 4.42038643,34.5918989 C8.05095404,34.5312184 11.2097072,37.0654109 11.9375997,40.6227801 C12.6654922,44.1801493 10.7560029,47.7513822 7.3933897,49.1216141 C6.62054632,49.435385 6.1795962,50.2539573 6.34277952,51.0719489 L8.86871462,63.4222068 C8.96019934,63.8700301 9.22604857,64.2630759 9.6076411,64.5146754 C9.98923363,64.7662748 10.4552297,64.8557645 10.9028748,64.7634113 L97.5782143,47.0259821 C98.5112574,46.8353094 99.1137983,45.9252476 98.9250071,44.991822 L96.399072,32.641564 C96.2248767,31.8255225 95.4953186,31.2484444 94.6610945,31.2668294 C91.0398362,31.310421 87.8977149,28.7765196 87.1730476,25.2282427 C86.4483803,21.6799658 88.3453201,18.1169331 91.6936796,16.7371142 C92.476948,16.4331928 92.9292382,15.6110612 92.7666432,14.7867794 Z" id="_Trazado_16" fill="#1D1D1B" opacity="0.1"></path>
                            <g id="_Grupo_23" transform="translate(1.117670, 0.000000)">
                                <path d="M91.3919086,13.6411672 L88.8995036,1.46973658 C88.8148347,1.02610996 88.5547598,0.635408097 88.1781702,0.386101614 C87.8015807,0.136795131 87.3403335,0.0499736883 86.8988736,0.145297152 L1.47532493,17.6256622 C1.03049982,17.710233 0.63879726,17.9711363 0.389335715,18.3490127 C0.13987417,18.726889 0.0538681988,19.1896032 0.150885504,19.6318806 L2.6432905,31.8033112 C2.81208103,32.606256 3.5273785,33.1761487 4.34773786,33.1612808 C7.93879922,33.0902391 11.067658,35.5954901 11.7836634,39.1151641 C12.4996687,42.6348381 10.5982639,46.1633929 7.2648576,47.500992 C6.49566148,47.7986367 6.05721497,48.6115403 6.23101248,49.4177967 L8.71782912,61.5892274 C8.91107686,62.5055849 9.80546162,63.0960283 10.7240475,62.9136668 L96.1475962,45.4333018 C97.0639536,45.240054 97.6543971,44.3456693 97.4720356,43.4270834 L95.001984,31.227711 C94.8371994,30.4339616 94.136144,29.8661067 93.3254784,29.8697414 C89.7585567,29.9144055 86.6621534,27.4204894 85.9457817,23.9259598 C85.2294099,20.4314302 87.0948019,16.9203557 90.3915936,15.557972 C91.1475309,15.2481158 91.5700488,14.4384865 91.3919086,13.6411672 Z" id="_Trazado_17" fill="url(#linearGradient-6)"></path>
                                <g id="_Grupo_24" transform="translate(17.323891, 8.382528)" fill="#FFFFFF">
                                    <g id="_Grupo_25" transform="translate(1.676506, 5.029517)">
                                        <g id="_Grupo_26" transform="translate(0.000000, 10.059034)">
                                            <path d="M5.1692256,2.02857178 C4.99626797,1.93938553 4.80497007,1.89156105 4.6103904,1.88886298 C4.43479334,1.87932256 4.25867946,1.88869032 4.08508531,1.91680474 C3.6978176,2.05470762 3.35966168,2.303466 3.11271206,2.63211379 C2.84429127,3.00144782 2.65412723,3.42171034 2.55387686,3.86713958 C2.42397473,4.41622613 2.36389089,4.97951214 2.3750496,5.54364518 C2.38165427,6.21919622 2.45087347,6.8926803 2.58181862,7.5554519 C2.66806116,8.04213045 2.80671425,8.5180478 2.99535667,8.97489331 C3.1703799,9.40982647 3.39943898,9.82100629 3.67713562,10.1987424 C3.91668422,10.5232994 4.20957371,10.8048513 4.54333018,11.0314068 C4.83163987,11.2274291 5.18024346,11.31458 5.52688013,11.2772943 C5.74578884,11.2527488 5.95611792,11.1781776 6.14159885,11.0593486 C6.37199312,10.914133 6.5824088,10.7394129 6.76749427,10.5396319 L7.88516467,11.8081878 C7.62740915,12.1678355 7.28601372,12.4593642 6.89043802,12.6576173 C6.55738749,12.8114057 6.20895926,12.9294217 5.85100454,13.0096835 C5.28583063,13.1298726 4.69682661,13.0611555 4.17449894,12.8140911 C3.61910072,12.5443931 3.12466488,12.1640578 2.72152742,11.6964207 C2.26806421,11.1733078 1.89170134,10.5880635 1.60385702,9.95844326 C1.28413672,9.28839252 1.04406219,8.5831736 0.888547968,7.85722291 C0.704028686,7.02454439 0.619605697,6.17281024 0.637072128,5.3201111 C0.644310277,4.51710074 0.774346388,3.71992284 1.02266842,2.95623821 C1.22349332,2.27414695 1.57488563,1.64584222 2.05092518,1.1176704 C2.55368826,0.613115322 3.20678536,0.285586145 3.9118464,0.184415616 C4.1669769,0.145421448 4.42500492,0.128593533 4.68303898,0.134120448 C4.95953152,0.140263449 5.23394835,0.183493497 5.49893837,0.262652544 L5.1692256,2.02857178 Z" id="_Trazado_compuesto_4"></path>
                                            <path d="M5.8565929,13.160569 C5.25579443,13.2895419 4.62923512,13.2168689 4.07390861,12.9537999 C3.50024881,12.6779327 2.9887695,12.2881436 2.57064192,11.8081878 C2.10285434,11.2838626 1.71323708,10.6947311 1.41385306,10.0590336 C1.0895469,9.37756201 0.843938364,8.66136002 0.681778944,7.92428314 C0.497273745,7.08025457 0.4128665,6.21742496 0.430303104,5.35364122 C0.439478342,4.53573323 0.571341541,3.72383267 0.821487744,2.9450615 C1.04983853,2.24221561 1.43160723,1.59893536 1.93915814,1.06178688 C2.45972879,0.526565871 3.14043402,0.175423984 3.87831629,0.061471872 C4.14423453,0.0178497364 4.41364367,-0.000859231996 4.68303898,0.005588352 C4.97264221,0.013170375 5.2600417,0.0582526484 5.53805683,0.1397088 L5.66658893,0.178827264 L5.28099264,2.29122432 L5.08540032,2.18504563 C4.94130397,2.10637092 4.78014094,2.06416155 4.61597875,2.06210189 C4.45448354,2.04293015 4.29128734,2.04293015 4.12979213,2.06210189 C3.77766416,2.18863603 3.47057874,2.41603472 3.24683251,2.71593907 C2.98347153,3.06759787 2.79343406,3.46857693 2.68799731,3.89508134 C2.56218407,4.43341011 2.50398881,4.98532648 2.5147584,5.53805683 C2.51908665,6.20606001 2.58644549,6.87216413 2.71593907,7.52751014 C2.80296408,8.00431493 2.93969331,8.47069273 3.12388877,8.91900979 C3.29430578,9.34232094 3.5177627,9.74229006 3.78890266,10.1093288 C4.01526404,10.4208771 4.29533431,10.6895932 4.61597875,10.9028748 C5.04413259,11.2012511 5.61285468,11.2012511 6.04100851,10.9028748 C6.26122055,10.7684783 6.46075632,10.602826 6.63337382,10.4110998 L6.75631757,10.2825677 L8.03605018,11.7746577 L7.9634016,11.8696596 C7.6908689,12.2484746 7.33030697,12.5553358 6.91279142,12.763796 C6.5762387,12.9341536 6.22206797,13.0672018 5.8565929,13.160569 Z M3.81684442,0.357654528 C3.17871951,0.46734284 2.59178051,0.776464048 2.14033882,1.24061414 C1.67202077,1.74776843 1.32265737,2.35294982 1.1176704,3.01212173 C0.875843893,3.76168447 0.74958972,4.54370659 0.743250816,5.33128781 C0.726709566,6.17257163 0.809239742,7.01287887 0.989138304,7.8348695 C1.13920528,8.54970928 1.36979903,9.24524004 1.6765056,9.9081481 C1.9682903,10.5168072 2.3445617,11.0812143 2.794176,11.5846537 C3.18737833,12.0326097 3.66618697,12.3974163 4.2024407,12.6576173 C5.04357802,13.0031529 5.99648079,12.9455259 6.78984768,12.5011434 C7.1247367,12.3320885 7.41703902,12.0894585 7.64486554,11.7914227 L6.74514086,10.7464009 C6.57675311,10.9084958 6.38906531,11.0492616 6.18630566,11.1655273 C5.66506148,11.5018869 4.99626389,11.5062439 4.4706816,11.176704 C4.12315556,10.9419073 3.81877686,10.6488719 3.57095693,10.3105094 C3.28237509,9.92391043 3.04565247,9.50119146 2.86682458,9.05313024 C2.67375374,8.5872974 2.53136274,8.10204385 2.44210982,7.60574707 C2.30981432,6.92810061 2.24059542,6.23965313 2.2353408,5.54923354 C2.22509414,4.97190901 2.28704618,4.39556729 2.41975642,3.83360947 C2.53116846,3.36880437 2.73239972,2.93027212 3.01212173,2.54270016 C3.28173585,2.192107 3.64640664,1.92636286 4.0627319,1.77709594 C4.25633182,1.74285676 4.4530772,1.72974041 4.64950886,1.73797747 C4.7917755,1.74392922 4.93266483,1.76835004 5.06863526,1.81062605 L5.33128781,0.368831232 C5.12087209,0.316967569 4.90530644,0.28885031 4.68862733,0.285005952 C4.42869726,0.277442741 4.16863083,0.294281574 3.9118464,0.33530112 L3.81684442,0.357654528 Z" id="_Trazado_compuesto_5"></path>
                                        </g>
                                        <g id="_Grupo_27" transform="translate(6.147187, 8.382528)">
                                            <polygon id="_Trazado_compuesto_6" points="3.04565184 14.0323519 2.71593907 12.4005531 4.44832819 12.0484869 2.5259351 2.66005555 0.793545984 3.01212173 0.452656512 1.33561613 5.67217728 0.268240896 6.0074784 1.9447465 4.27508928 2.30240102 6.19748237 11.685244 7.92987149 11.3331779 8.26517261 12.9649766"></polygon>
                                            <path d="M8.44958822,13.082332 L2.9227081,14.2000024 L2.53152346,12.272021 L4.26391258,11.9199548 L2.40299136,2.83888282 L0.67060224,3.19094899 L0.273829248,1.2462025 L5.79512102,0.128532096 L6.19189402,2.07327859 L4.4595049,2.43093312 L6.32042611,11.5231818 L8.05281523,11.1655273 L8.44958822,13.082332 Z M3.16859558,13.859113 L8.08075699,12.8532096 L7.8236928,11.5120051 L6.09130368,11.8640713 L4.09626202,2.18504563 L5.82865114,1.83297946 L5.54923354,0.47500992 L0.637072128,1.48091328 L0.916489728,2.83329446 L2.64887885,2.48122829 L4.63274381,12.160254 L2.89476634,12.5179085 L3.16859558,13.859113 Z" id="_Trazado_compuesto_7"></path>
                                        </g>
                                        <g id="_Grupo_28" transform="translate(12.853210, 6.147187)">
                                            <polygon id="_Trazado_compuesto_8" points="2.44769818 5.1692256 4.38685632 14.6247172 2.77182259 14.95443 0.178827264 2.26887091 1.97827661 1.90003968 8.18134733 9.97520832 6.34836787 1.03384512 7.99134336 0.692955648 10.6178688 13.3561613 8.9413632 13.6914624"></polygon>
                                            <path d="M10.7743427,13.4679283 L8.87430298,13.859113 L2.72711578,5.80629773 L4.55450688,14.7476609 L2.63770214,15.1388456 L0,2.15151552 L2.05092518,1.73238912 L7.90192973,9.34372454 L6.1471872,0.888547968 L8.09752205,0.486186624 L10.7743427,13.4679283 Z M9.01401178,13.5238118 L10.4055114,13.2388059 L7.87398797,0.843841152 L6.53278349,1.1176704 L8.47194163,10.6178688 L1.91121638,2.06210189 L0.357654528,2.38063795 L2.89476634,14.7756027 L4.2024407,14.5073618 L2.16269222,4.53774182 L9.01401178,13.5238118 Z" id="_Trazado_compuesto_9"></path>
                                        </g>
                                        <g id="_Grupo_29" transform="translate(21.794573, 5.029517)">
                                            <polygon id="_Trazado_compuesto_10" points="5.4374665 0.497363328 5.76717926 2.12916211 2.41416806 2.82211776 3.31389274 7.23691584 6.14159885 6.67808064 6.48248832 8.35458624 3.65478221 8.91342144 4.3309728 12.2161375 7.71192576 11.5064168 8.05281523 13.1829224 2.90035469 14.2391209 0.30735936 1.56473856"></polygon>
                                            <path d="M8.20928909,13.2835127 L2.75505754,14.4011831 L0.106178688,1.43061811 L5.56041024,0.312947712 L5.95159488,2.24092915 L2.57064192,2.9338848 L3.41448307,7.05808858 L6.24218918,6.49925338 L6.64455053,8.46076493 L3.81684442,9.01960013 L4.43156314,12.0205452 L7.78457434,11.3164128 L8.20928909,13.2835127 Z M3.00094502,14.0435286 L7.84604621,13.0488019 L7.56662861,11.6796557 L4.18567565,12.3893764 L3.45360154,8.7904777 L6.24777754,8.2316425 L5.96835994,6.8569079 L3.14065382,7.4157431 L2.2353408,2.70476237 L5.588352,2.01180672 L5.31452275,0.676190592 L0.469421568,1.6765056 L3.00094502,14.0435286 Z" id="_Trazado_compuesto_11"></path>
                                        </g>
                                        <g id="_Grupo_30" transform="translate(29.059430, 3.911846)">
                                            <path d="M5.91247642,13.5014584 C5.27785558,13.6383744 4.61577771,13.5617541 4.02920179,13.2835127 C3.43553107,13.001877 2.90658131,12.6004079 2.47563994,12.1043704 C1.99915349,11.5594697 1.60217071,10.9498847 1.29649766,10.2937444 C0.969262157,9.60320598 0.721778295,8.87762829 0.5588352,8.13105216 C0.369706354,7.27633576 0.283406303,6.40207872 0.301771008,5.52688013 C0.310054638,4.69383083 0.443813792,3.86678479 0.698544,3.0735936 C0.933327972,2.34469511 1.32645416,1.67676227 1.84974451,1.1176704 C2.4050595,0.556135432 3.12966384,0.19285141 3.9118464,0.08382528 C4.18713418,0.0400024266 4.46583603,0.0212976044 4.74451085,0.02794176 C5.0475003,0.0338909975 5.34828471,0.0808885617 5.63864717,0.16765056 L5.90129971,0.245887488 L5.4486432,2.70476237 L5.06304691,2.48681664 C4.93921455,2.42077271 4.80102891,2.3862263 4.66068557,2.3862263 C4.51752306,2.37373716 4.37354497,2.37373716 4.23038246,2.3862263 C3.91120654,2.50582698 3.63227159,2.71309114 3.42565978,2.98417997 C3.18124163,3.31859244 3.00641437,3.69865171 2.91153139,4.10185037 C2.78830727,4.62735508 2.73012497,5.16601055 2.73829248,5.70570739 C2.74828167,6.36599489 2.81559479,7.02416755 2.93947315,7.6728073 C3.02470455,8.13853603 3.15959499,8.59379125 3.3418345,9.03077683 C3.50547197,9.44524153 3.72346304,9.83612208 3.99008333,10.193154 C4.20639059,10.4905173 4.47306502,10.7477352 4.77804096,10.9531699 C5.15742905,11.2112813 5.65603207,11.2112813 6.03542016,10.9531699 C6.24243459,10.8276217 6.43058817,10.6733358 6.59425536,10.4949251 L6.8345545,10.2266842 L8.30987942,11.9478966 L8.16458227,12.1379005 C7.87565877,12.5387034 7.4915694,12.8613385 7.04691187,13.0767437 C6.6865523,13.2619101 6.30583847,13.4044434 5.91247642,13.5014584 Z M3.86713958,0.698544 C3.2715154,0.809683631 2.72490966,1.10250813 2.30240102,1.5367968 C1.84406438,2.02703147 1.50047142,2.61304834 1.29649766,3.25242086 C1.05651099,3.98689903 0.932083562,4.75420149 0.927666432,5.52688013 C0.909263901,6.35685665 0.989933524,7.18606534 1.16796557,7.99693171 C1.32238003,8.70842149 1.55671532,9.40017925 1.86650957,10.0590336 C2.14662668,10.6664154 2.51165783,11.2308965 2.95064986,11.7355392 C3.32793463,12.1692961 3.79009545,12.521147 4.30861939,12.7693843 C5.10663364,13.0990769 6.01224416,13.0413158 6.76190592,12.6129105 C7.03747497,12.4772215 7.28270459,12.287121 7.48280333,12.0540753 L6.76749427,11.176704 C6.633075,11.301105 6.48496661,11.4098428 6.32601446,11.5008284 C5.73508849,11.8854488 4.96967993,11.8721759 4.39244467,11.4672983 C4.02934237,11.2245351 3.71158924,10.9200217 3.45360154,10.5675736 C3.15942655,10.1696502 2.91717506,9.73585104 2.73270413,9.27666432 C2.53417171,8.80220997 2.38800935,8.30750658 2.29681267,7.80133939 C2.16517934,7.11982764 2.09596974,6.42773163 2.09004365,5.73364915 C2.07916404,5.14490924 2.14300824,4.55716701 2.28004762,3.98449498 C2.39246953,3.49784377 2.60359627,3.03945147 2.90035469,2.63770214 C3.18390677,2.2610686 3.57290006,1.97710349 4.01802509,1.82180275 L4.05714355,1.82180275 C4.25631626,1.78696444 4.4586821,1.77384813 4.66068557,1.78268429 C4.75630766,1.78774502 4.85150577,1.79894479 4.94569152,1.8162144 L5.1580489,0.698544 C5.00341335,0.666820319 4.84638873,0.648126912 4.68862733,0.642659572 C4.4493026,0.642517207 4.21026822,0.659324312 3.97331827,0.692955648 L3.86713958,0.698544 Z" id="_Trazado_compuesto_12"></path>
                                        </g>
                                        <g id="_Grupo_31" transform="translate(35.206618, 2.794176)">
                                            <path d="M8.62282714,12.8532096 L2.86123622,14.0323519 L0.150885504,0.787957632 L2.53152346,0.301771008 L4.76686426,11.3052361 L8.14781722,10.6122804 L8.62282714,12.8532096 Z M3.3530112,13.3170428 L7.89075302,12.3893764 L7.6728073,11.3275895 L4.3197961,12.0205452 L2.0844553,1.01708006 L0.927666432,1.25179085 L3.3530112,13.3170428 Z" id="_Trazado_compuesto_13"></path>
                                        </g>
                                        <g id="_Grupo_32" transform="translate(40.794970, 0.558835)">
                                            <path d="M6.4266048,14.384418 C5.80993474,14.5294869 5.16284941,14.4706609 4.58244864,14.2167675 C4.09380567,13.9709884 3.67196622,13.6105074 3.3530112,13.1661573 C3.01316782,12.689514 2.74400669,12.1662497 2.55387686,11.6125955 C2.35269619,11.0537603 2.16828058,10.4613949 1.99504166,9.87461798 C1.70444736,8.75694758 1.43620646,7.49956838 1.17355392,6.17512896 C0.910901376,4.85068954 0.665013888,3.49272 0.402361344,2.0844553 L0.346477824,1.79386099 L2.60976038,1.33002778 L2.66005555,1.63738714 C2.8873152,2.90780582 3.11830042,4.1800873 3.3530112,5.45423155 C3.58772198,6.71161075 3.87272794,7.99693171 4.20802906,9.28784102 C4.29744269,9.64549555 4.40362138,10.0143268 4.53215347,10.4055114 C4.64914241,10.7478791 4.7969062,11.0789448 4.97363328,11.3946497 C5.11887178,11.6445737 5.308211,11.8661006 5.53246848,12.0484869 C5.67349108,12.1669998 5.85923187,12.2180275 6.04100851,12.1881957 C6.23113285,12.1599323 6.39572415,12.0411766 6.48248832,11.8696596 C6.61683359,11.6023952 6.70021831,11.3124439 6.72837581,11.0146418 C6.77050116,10.6339328 6.77050116,10.2497386 6.72837581,9.86902963 C6.68925734,9.44431488 6.64455053,9.03636518 6.58866701,8.6619456 C6.40425139,7.42133146 6.16954061,6.18071731 5.88453466,4.98480998 C5.5995287,3.78890266 5.32569946,2.49799334 5.0183401,1.16796557 L4.95686822,0.871782912 L7.19220902,0.413538048 L7.70633741,2.72711578 C7.85536013,3.41262029 8.00065728,4.08322253 8.14222886,4.7389225 C8.28193766,5.39834803 8.41605811,6.02983181 8.5334135,6.63896218 C8.6507689,7.24809254 8.75135923,7.81810445 8.83518451,8.31546778 C8.9301865,8.91342144 9.00283507,9.53372851 9.04754189,10.1596239 C9.09892507,10.7614247 9.06316336,11.3674915 8.9413632,11.9590733 C8.81862162,12.5217393 8.55302613,13.0433072 8.17017062,13.4735167 C7.69964352,13.9535017 7.08934233,14.272345 6.4266048,14.384418 L6.4266048,14.384418 Z M1.07296358,2.2353408 C1.31885107,3.53556403 1.55915021,4.80225715 1.79386099,6.03542016 C2.04533683,7.34868288 2.31916608,8.57812032 2.60417203,9.69579072 C2.76064589,10.2546259 2.9338848,10.8134611 3.12947712,11.3722963 C3.30448569,11.8716864 3.54905651,12.3438962 3.85596288,12.7749727 C4.11838959,13.1410043 4.46540844,13.4381751 4.86745459,13.6411672 C5.32324931,13.8330035 5.82843079,13.8741229 6.30924941,13.7585226 C6.83004759,13.6668293 7.31001334,13.417091 7.683984,13.0432136 C7.99890002,12.6917071 8.21657452,12.2640634 8.31546778,11.8025994 C8.43310231,11.2652785 8.47076404,10.7135342 8.42723482,10.1652123 C8.38996466,9.56588606 8.32094478,8.96895735 8.22046579,8.37693965 C8.14222886,7.86839962 8.04163853,7.30956442 7.92428314,6.70043405 C7.80692774,6.09130368 7.67839565,5.46540826 7.53868685,4.81715942 C7.39897805,4.16891059 7.2536809,3.49272 7.10279539,2.8053527 L6.7060224,1.1176704 L5.67217728,1.33002778 C5.93482982,2.54828851 6.23101248,3.72743078 6.46572326,4.83392448 C6.75631757,6.04659686 6.9966167,7.30397606 7.18662067,8.56135526 C7.23691584,8.9525399 7.28721101,9.36607795 7.32632947,9.80196941 C7.37122589,10.2236297 7.37122589,10.6488651 7.32632947,11.0705253 C7.29143921,11.4430959 7.18519221,11.8054741 7.01338176,12.1379005 C6.83220961,12.4815701 6.4979897,12.7182227 6.11365709,12.7749727 L6.11365709,12.7749727 C5.75521064,12.8381511 5.38714751,12.7400009 5.10775373,12.5067318 C4.83383069,12.2782198 4.60619786,11.9993696 4.43715149,11.685244 C4.23633874,11.3300321 4.07159224,10.9556082 3.94537651,10.5675736 C3.81125606,10.176389 3.69948902,9.78520435 3.61007539,9.41637312 C3.27477427,8.12546381 2.97859162,6.81778944 2.74388083,5.54923354 C2.5259351,4.37567962 2.31357773,3.20771405 2.1068087,2.03416013 L1.07296358,2.2353408 Z" id="_Trazado_compuesto_14"></path>
                                        </g>
                                        <g id="_Grupo_33" transform="translate(48.618662, 0.000000)">
                                            <path d="M4.05714355,13.8199945 C3.80566771,13.875878 3.54860352,13.9149965 3.28036262,13.9485266 L2.99535667,13.9876451 L0.301771008,0.827076096 L0.592365312,0.75442752 C1.15120051,0.620307072 1.71003571,0.508540032 2.33593114,0.4191264 C2.94178711,0.329805991 3.55746627,0.329805991 4.16332224,0.4191264 C4.75191093,0.512225273 5.30744225,0.752506985 5.77835597,1.1176704 C6.29521633,1.54713588 6.65329737,2.13737935 6.79543603,2.794176 C6.89857855,3.15724741 6.92709388,3.53745186 6.87926131,3.9118464 C6.83358129,4.23769372 6.73742683,4.55443783 6.59425536,4.85068954 C6.46342066,5.1201242 6.29605653,5.37023015 6.09689203,5.59394035 L5.9963017,5.70570739 C6.57643611,5.893476 7.09685617,6.2307853 7.50515674,6.68366899 C8.03158277,7.29334921 8.38645546,8.03202443 8.5334135,8.82400781 C8.66086013,9.4186966 8.62415721,10.0368511 8.42723482,10.6122804 C8.2157142,11.1975592 7.87361759,11.7269489 7.42691981,12.160254 C6.91783292,12.6474689 6.32537572,13.0392857 5.67776563,13.3170428 C5.15819136,13.5451054 4.61454609,13.7138229 4.05714355,13.8199945 L4.05714355,13.8199945 Z M3.49830835,13.3114545 C4.16364048,13.2148653 4.81243597,13.0268086 5.42628979,12.7526193 C5.99970743,12.5071835 6.52555251,12.1629252 6.97985165,11.7355392 C7.35813805,11.3683035 7.64686508,10.9189601 7.8236928,10.4222765 C7.98806784,9.94604501 8.01898907,9.43391211 7.91310643,8.9413632 C7.78803489,8.25020362 7.47917955,7.6054681 7.01897011,7.07485363 C6.56768004,6.58150991 5.96326521,6.25469278 5.30334605,6.1471872 L4.6215671,6.01306675 L5.1804023,5.61070541 C5.34277682,5.49005745 5.49089018,5.35131835 5.62188211,5.19716736 C5.78618404,5.01783001 5.92189433,4.81426457 6.02424346,4.59362534 C6.14396497,4.35500698 6.22327824,4.09818307 6.25895424,3.83360947 C6.29418838,3.53369392 6.26949431,3.22976685 6.18630566,2.93947315 C6.07804189,2.40462851 5.79493822,1.92099307 5.38158298,1.56473856 C4.99401519,1.26659715 4.53575847,1.07405231 4.0515552,1.00590336 C3.50876219,0.924937632 2.95696107,0.924937632 2.41416806,1.00590336 C1.93356979,1.07855194 1.46973658,1.16237722 1.02266842,1.26296755 L3.49830835,13.3114545 Z M4.68303898,11.8976014 L4.49862336,11.9311315 L4.21361741,11.9646616 L3.23565581,7.19220902 L3.55419187,7.1363255 C3.97854044,7.05258613 4.41516426,7.05258613 4.83951283,7.1363255 C5.18644304,7.204235 5.51559091,7.34312398 5.80629773,7.5442752 C6.07313619,7.73586366 6.29446894,7.98390898 6.45454656,8.27076096 C6.61321797,8.55699663 6.7263407,8.86619876 6.78984768,9.18725069 C6.85737347,9.51137235 6.83416876,9.84784069 6.72278746,10.1596239 C6.61121295,10.4661648 6.44243468,10.7487261 6.22542413,10.9922884 C6.0027981,11.2423433 5.74032521,11.4538323 5.4486432,11.6181838 C5.20779856,11.7511359 4.94756169,11.8454246 4.67745062,11.8976014 L4.68303898,11.8976014 Z M3.97331827,7.683984 L4.71098074,11.2772943 C4.85832345,11.2300745 5.00059714,11.1682977 5.13569549,11.0928787 C5.36665328,10.9597456 5.57584946,10.7920117 5.75600256,10.5955154 C5.91933057,10.4103817 6.04634874,10.196157 6.13042214,9.96403162 C6.20842629,9.75129056 6.22583787,9.52107074 6.18071731,9.29901773 C6.12641022,9.03658743 6.03217553,8.78403844 5.90129971,8.55017856 C5.78614975,8.33112426 5.6239317,8.1402795 5.42628979,7.99134336 C5.2056186,7.84147112 4.95639896,7.73873936 4.69421568,7.68957235 C4.45383511,7.64974071 4.2086948,7.64785501 3.96772992,7.683984 L3.97331827,7.683984 Z M2.9450615,5.77835597 L2.29681267,2.60976038 L2.18504563,2.53711181 L2.21857574,2.34151949 L2.21857574,2.29122432 L2.21857574,2.17945728 L2.34710784,2.15151552 C2.39261263,2.12469752 2.44147017,2.10402702 2.49240499,2.09004365 C2.75949367,1.99791746 3.03760023,1.94154451 3.31948109,1.92239309 C3.59278211,1.90227584 3.86745272,1.93258432 4.12979213,2.01180672 C4.38493872,2.09019975 4.6157904,2.23255828 4.80039437,2.42534477 C4.99483577,2.64253115 5.11945259,2.9131833 5.1580489,3.2021257 C5.19726984,3.46723489 5.18013176,3.73763566 5.10775373,3.99567168 C5.0328506,4.25447626 4.91373885,4.49837175 4.75568755,4.71656909 C4.58515525,4.94841993 4.37744534,5.15046502 4.14096883,5.31452275 C3.87606889,5.49593578 3.58081049,5.62842352 3.26918592,5.70570739 L2.9450615,5.77835597 Z M2.9450615,2.58740698 L3.44801318,5.0183401 C3.56789549,4.96920305 3.68217584,4.90737925 3.78890266,4.83392448 C3.96869142,4.70895737 4.12559876,4.55394048 4.25273587,4.37567962 C4.37640886,4.20861997 4.46568538,4.01866994 4.51538842,3.81684442 C4.56587172,3.63509137 4.57917651,3.44502297 4.55450688,3.25800922 C4.53314119,3.08630468 4.46116371,2.92484167 4.34773786,2.794176 C4.23596204,2.67627043 4.09534254,2.58958718 3.93978816,2.54270016 C3.75813781,2.49172001 3.56934147,2.47095241 3.38095296,2.48122829 C3.22563131,2.5044166 3.07239991,2.53992144 2.9227081,2.58740698 L2.9450615,2.58740698 Z" id="_Trazado_compuesto_15"></path>
                                        </g>
                                    </g>
                                    <g id="_Grupo_34" transform="translate(3.911846, 20.118067)">
                                        <rect id="_Rectángulo_" transform="translate(28.349858, 6.786986) rotate(-11.560000) translate(-28.349858, -6.786986) " x="0.0169137567" y="6.21418011" width="56.6658893" height="1.14561216"></rect>
                                    </g>
                                    <g id="_Grupo_35">
                                        <rect id="_Rectángulo_2" transform="translate(28.052797, 6.311115) rotate(-11.560000) translate(-28.052797, -6.311115) " x="-0.280147906" y="5.73830882" width="56.6658893" height="1.14561216"></rect>
                                    </g>
                                </g>
                                <g id="_Grupo_36" transform="translate(24.029914, 32.971277)" fill="#FFFFFF">
                                    <polygon id="_Trazado_compuesto_16" points="4.7500992 9.53931686 5.0183401 10.8525796 2.00063002 11.4672983 2.72711578 15.0159018 5.25305088 14.5297152 5.52688013 15.8709197 3.00094502 16.3850481 3.81684442 20.3639547 2.2353408 20.6769024 0.150885504 10.4949251"></polygon>
                                    <path d="M13.7864644,18.2962644 L12.288786,18.6036238 L10.8637563,15.6473856 L8.72900582,16.0832771 L8.57253197,19.3412863 L7.07485363,19.6486456 L7.60015872,8.9413632 L9.08666035,8.63959219 L13.7864644,18.2962644 Z M8.75694758,14.7308959 L10.2266842,14.4291249 L8.9413632,11.6964207 L8.75694758,14.7308959 Z" id="_Trazado_compuesto_17"></path>
                                    <polygon id="_Trazado_compuesto_18" points="14.9935484 9.82991117 16.6085821 17.7206642 15.1723757 18.0112585 13.0879204 7.8236928 14.6973658 7.49398003 17.1227105 9.81873446 18.4415616 6.7060224 20.051007 6.37630963 22.1410506 16.5694637 20.6992558 16.8656463 19.0842221 8.97489331 18.0727304 11.4281798 16.8824114 11.668479"></polygon>
                                    <polygon id="_Trazado_compuesto_19" points="23.4096065 16.3291645 23.1413656 15.0159018 24.6893391 14.6973658 23.146954 7.15867891 21.5989805 7.47162662 21.3251512 6.1471872 25.9858368 5.19157901 26.2540777 6.52160678 24.7061042 6.8345545 26.2540777 14.3788297 27.7964628 14.0602936 28.0702921 15.3735564"></polygon>
                                    <polygon id="_Trazado_compuesto_20" points="28.8358963 4.6103904 30.6465224 13.4511633 33.6642324 12.8308562 33.9380617 14.160884 29.338848 15.0885504 27.2599811 4.92333811"></polygon>
                                    <polygon id="_Trazado_compuesto_21" points="35.2066176 13.9149965 34.9383767 12.6017338 36.4863502 12.2831977 34.9439651 4.7389225 33.3959916 5.05745856 33.1221623 3.73301914 37.7828479 2.77741094 38.0510888 4.10185037 36.5031153 4.42038643 38.0510888 11.9646616 39.5990623 11.6461256 39.8673032 12.9593883"></polygon>
                                    <path d="M47.8586465,11.3220012 L46.3609682,11.6293605 L44.9359384,8.70106406 L42.801188,9.13695552 L42.6447141,12.3893764 L41.1470358,12.6967357 L41.6723409,1.9670999 L43.1588425,1.6653289 L47.8586465,11.3220012 Z M42.8570715,7.75663258 L44.3268081,7.45486157 L43.0303104,4.72215744 L42.8570715,7.75663258 Z" id="_Trazado_compuesto_22"></path>
                                    <path d="M49.1774976,11.0537603 L47.0986307,0.899724672 L48.0318854,0.692955648 L48.9651402,0.525305088 C49.2521038,0.479190709 49.5411978,0.44748363 49.8313348,0.430303104 C50.0714136,0.415750096 50.3121534,0.415750096 50.5522322,0.430303104 C50.9121768,0.464360443 51.262702,0.564781174 51.5860773,0.72648576 C51.8541474,0.866357629 52.0931177,1.05601665 52.2902097,1.28532096 C52.4764663,1.48585837 52.6276044,1.71634395 52.7372778,1.9670999 C52.8463356,2.21056477 52.9342115,2.46297422 52.9999304,2.72152742 C53.0747226,3.05124817 53.0992158,3.3903846 53.0725789,3.72743078 C53.0498626,4.07449911 52.9666475,4.4149244 52.8266915,4.73333414 C52.6817854,5.06874295 52.4751585,5.37394419 52.2175611,5.63305882 C51.916851,5.93170419 51.5622496,6.17063349 51.1725393,6.33719117 L54.5255505,9.97520832 L52.8490449,10.3160978 L49.7642746,6.90161472 L50.5578205,10.8134611 L49.1774976,11.0537603 Z M51.4687219,3.02329843 C51.4024597,2.7963169 51.3006031,2.58128632 51.1669509,2.3862263 C51.0340688,2.19511285 50.8527784,2.04275183 50.6416458,1.9447465 C50.3907031,1.83730469 50.1210568,1.78033716 49.8480998,1.77709594 C49.4700969,1.77126698 49.0933551,1.82212712 48.7304294,1.92798144 L49.4457385,5.40952474 C49.8208794,5.37426313 50.1873934,5.27602224 50.5298788,5.11893043 C50.7974687,4.98815025 51.0309012,4.79681219 51.2116577,4.56009523 C51.3695802,4.34706128 51.4696897,4.09678746 51.502252,3.83360947 C51.5472554,3.56435737 51.5377538,3.28881099 51.4743103,3.02329843 L51.4687219,3.02329843 Z" id="_Trazado_compuesto_23"></path>
                                </g>
                            </g>
                        </g>
                        <g id="_Grupo_37" transform="translate(29.618266, 33.530112)" fill-rule="nonzero">
                            <path d="M92.0066616,15.4462049 L92.0066616,2.83888282 C92.0066616,1.88828345 91.2360143,1.1176704 90.2854149,1.1176704 L1.81062605,1.1176704 C0.860026679,1.1176704 0.089404547,1.88828345 0.089404547,2.83888282 L0.089404547,15.4462049 C0.100303113,16.2727494 0.695425595,16.9756499 1.50885504,17.1227105 C5.06104174,17.8085718 7.62741574,20.9178651 7.62741574,24.5356595 C7.62741574,28.1534538 5.06104174,31.2627471 1.50885504,31.9486084 C0.695425595,32.095669 0.100303113,32.7985696 0.089404547,33.625114 L0.089404547,46.2324361 C0.0879283599,46.6898975 0.268613961,47.1291316 0.591565027,47.4531312 C0.914516094,47.7771309 1.35316224,47.9592369 1.81062605,47.9592369 L90.2854149,47.9592369 C90.7428787,47.9592369 91.1815249,47.7771309 91.5044759,47.4531312 C91.827427,47.1291316 92.0081126,46.6898975 92.0066616,46.2324361 L92.0066616,33.6586441 C91.9957378,32.8320997 91.4006154,32.1291991 90.5871859,31.9821385 C87.0349992,31.2962772 84.4686252,28.1869839 84.4686252,24.5691896 C84.4686252,20.9513952 87.0349992,17.842102 90.5871859,17.1562406 C91.4130073,17.0068815 92.0118775,16.2854078 92.0066616,15.4462049 L92.0066616,15.4462049 Z" id="_Trazado_18" fill="#1D1D1B" opacity="0.1"></path>
                            <g id="_Grupo_38" transform="translate(1.117670, 0.000000)">
                                <path d="M90.8889569,14.2782394 L90.8889569,1.85533286 C90.8889569,0.929424388 90.1383598,0.178827264 89.2124513,0.178827264 L2.03416013,0.178827264 C1.10825165,0.178827264 0.357654528,0.929424388 0.357654528,1.85533286 L0.357654528,14.2782394 C0.360392032,15.1019736 0.950006332,15.8066919 1.76033088,15.954745 C5.26179735,16.6288342 7.7922932,19.6929583 7.7922932,23.258721 C7.7922932,26.8244837 5.26179735,29.8886078 1.76033088,30.5626971 C0.950006332,30.7107502 0.360392032,31.4154685 0.357654528,32.2392027 L0.357654528,44.6509325 C0.357654528,45.576841 1.10825165,46.3274381 2.03416013,46.3274381 L89.2124513,46.3274381 C90.1383598,46.3274381 90.8889569,45.576841 90.8889569,44.6509325 L90.8889569,32.228026 C90.8867209,31.4060438 90.2999727,30.701946 89.4918689,30.5515204 C85.9904025,29.8774311 83.4599066,26.813307 83.4599066,23.2475443 C83.4599066,19.6817816 85.9904025,16.6176575 89.4918689,15.9435683 C90.295863,15.7939408 90.8813813,15.096003 90.8889569,14.2782394 Z" id="_Trazado_19" fill="url(#linearGradient-7)"></path>
                                <g id="_Grupo_39" transform="translate(16.765056, 5.029517)" fill="#FFFFFF">
                                    <g id="_Grupo_40" transform="translate(0.000000, 4.470682)">
                                        <g id="_Grupo_41" transform="translate(0.000000, 0.558835)">
                                            <path d="M5.89012301,2.3638729 C5.74230854,2.24189413 5.56824448,2.1558185 5.38158298,2.11239706 C5.2117973,2.0678595 5.03735664,2.04347532 4.86186624,2.03974848 C4.44655957,2.08885952 4.05638461,2.26443825 3.74419584,2.54270016 C3.40076907,2.85490255 3.12662878,3.23565295 2.93947315,3.66037056 C2.69867803,4.17214953 2.52583675,4.71321791 2.42534477,5.26981594 C2.30239655,5.92779846 2.23880633,6.59549577 2.2353408,7.2648576 C2.22563331,7.75795213 2.26872268,8.25066971 2.3638729,8.73459418 C2.45060014,9.19252557 2.5951937,9.63757326 2.794176,10.0590336 C2.96375774,10.4249896 3.19429961,10.7594643 3.47595494,11.0481719 C3.71969521,11.2958297 4.04144541,11.45177 4.38685632,11.4896517 C4.60464165,11.50969 4.82415791,11.4810575 5.0295168,11.4058264 C5.28473608,11.3136488 5.52557568,11.1857027 5.74482586,11.0258185 L6.56072525,12.4843784 C6.24385329,12.780985 5.86063637,12.9975025 5.44305485,13.1158621 C5.07717816,13.2056259 4.70209909,13.2525108 4.32538445,13.2555709 C3.74156625,13.2541508 3.17500942,13.0574297 2.71593907,12.6967357 C2.22454891,12.3243954 1.81548183,11.8544439 1.51444339,11.3164128 C1.16611837,10.7147539 0.908157764,10.065145 0.748839168,9.38843136 C0.57435835,8.66522828 0.480646006,7.92490076 0.469421568,7.18103232 C0.456596346,6.3297755 0.544762798,5.48000097 0.732074112,4.64950886 C0.90190792,3.86612999 1.18823366,3.1126412 1.58150362,2.41416806 C1.93607765,1.79289747 2.42249781,1.25688153 3.00653338,0.843841152 C3.59612209,0.443086183 4.30088257,0.246774071 5.01275174,0.285005952 C5.27227453,0.295784056 5.53033981,0.329444745 5.78394432,0.385596288 C6.05173372,0.451177898 6.31065897,0.548743933 6.5551369,0.676190592 L5.89012301,2.3638729 Z" id="_Trazado_compuesto_24"></path>
                                            <path d="M4.3309728,13.4120675 C3.72600116,13.4144958 3.13697394,13.2181533 2.6544672,12.8532096 C2.14686039,12.4697331 1.72281476,11.9867394 1.4082647,11.4337682 C1.05709235,10.8163724 0.795544694,10.1521542 0.631483776,9.46107994 C0.452543243,8.7290883 0.35693408,7.97921252 0.346477824,7.22573914 C0.335522124,6.36133831 0.425545423,5.49861502 0.61471872,4.65509722 C0.785591411,3.85538664 1.07769599,3.08649201 1.48091328,2.3750496 C1.84245127,1.7309972 2.34488072,1.17698754 2.95064986,0.75442752 C3.56203554,0.337811908 4.29008214,0.126443541 5.0295168,0.150885504 C5.29845915,0.163158966 5.5658348,0.198684403 5.82865114,0.257064192 C6.11141506,0.322389918 6.384006,0.425786483 6.63896218,0.564423552 L6.76190592,0.625895424 L5.95718323,2.62093709 L5.78953267,2.47005158 C5.66116311,2.3654652 5.50989092,2.29270136 5.34805286,2.25769421 C5.19084913,2.21752076 5.02965081,2.19502797 4.86745459,2.19063398 C4.49900679,2.24554004 4.15390047,2.4045216 3.87272794,2.64887885 C3.55033312,2.94480373 3.29007399,3.30194765 3.10712371,3.69948902 C2.87581762,4.20231157 2.70691177,4.73154992 2.60417203,5.27540429 C2.47496371,5.93089831 2.40575455,6.59680262 2.39740301,7.2648576 C2.3857745,7.74849847 2.42700015,8.23196291 2.52034675,8.70665242 C2.60067543,9.15689366 2.73970701,9.59465527 2.9338848,10.0087384 C3.09218356,10.3595385 3.31169388,10.6793423 3.58213363,10.9531699 C3.79832882,11.1781542 4.08756709,11.3188112 4.39803302,11.3499429 C4.58829322,11.3657705 4.77962513,11.3370707 4.95686822,11.2661176 C5.19966927,11.1806787 5.42777049,11.058145 5.63305882,10.9028748 L5.77835597,10.7966961 L6.73955251,12.5179085 L6.65013888,12.5961454 C6.30651203,12.9138336 5.89007497,13.1422023 5.4374665,13.2611593 C5.07579101,13.3544813 4.70442992,13.4051214 4.3309728,13.4120675 Z M4.889808,0.463833216 C4.24671633,0.460100289 3.61819899,0.65529201 3.09035866,1.02266842 C2.52683209,1.42542099 2.05772793,1.94601219 1.71562406,2.54828851 C1.32602389,3.23283123 1.04512035,3.9737379 0.882959616,4.74451085 C0.695916481,5.56558337 0.607739514,6.40607872 0.620307072,7.24809254 C0.629266998,7.9810687 0.723030025,8.71054505 0.899724672,9.42196147 C1.06671606,10.0732405 1.32843459,10.6964695 1.6765056,11.271706 C1.95605781,11.7871324 2.33610254,12.2412859 2.794176,12.6073221 C3.54779039,13.1165434 4.49385844,13.2505182 5.35922957,12.970565 C5.72176588,12.8729207 6.05783739,12.6953375 6.34277952,12.4508483 L5.67217728,11.2437642 C5.48087113,11.3664878 5.27658761,11.4676925 5.06304691,11.5455352 C4.83404965,11.6354726 4.58701937,11.6699419 4.3421495,11.6461256 C3.96758175,11.610519 3.61745515,11.4443572 3.3530112,11.176704 C3.05766795,10.8784728 2.81739437,10.5303599 2.6432905,10.1484472 C2.44737533,9.70627155 2.3102254,9.24033755 2.2353408,8.76253594 C2.13304181,8.26992428 2.08247232,7.76797527 2.0844553,7.2648576 C2.09559642,6.58031903 2.16476725,5.89795813 2.29122432,5.22510912 C2.38955758,4.65678469 2.55851687,4.10297368 2.794176,3.57654528 C2.99536265,3.14170021 3.2823937,2.75202229 3.63801715,2.43093312 C3.96673758,2.13152792 4.37728016,1.93695797 4.81715942,1.87209792 C5.00574442,1.87759082 5.19315161,1.90382783 5.37599462,1.95033485 C5.5146902,1.98440292 5.64815273,2.03703603 5.77276762,2.1068087 L6.33160282,0.748839168 C6.14646516,0.666693794 5.95366108,0.603049726 5.75600256,0.5588352 C5.51694677,0.504730261 5.27405779,0.469231102 5.0295168,0.452656512 L4.889808,0.463833216 Z" id="_Trazado_compuesto_25"></path>
                                        </g>
                                        <g id="_Grupo_42" transform="translate(7.264858, 0.558835)">
                                            <polygon id="_Trazado_compuesto_26" points="0.497363328 13.2891011 0.497363328 11.6125955 2.26887091 11.6125955 2.26887091 2.03974848 0.497363328 2.03974848 0.497363328 0.36324288 5.82306278 0.36324288 5.82306278 2.03974848 4.05714355 2.03974848 4.05714355 11.6181838 5.82306278 11.6181838 5.82306278 13.2946894"></polygon>
                                            <path d="M5.97953664,13.4120448 L0.340889472,13.4120448 L0.340889472,11.4672983 L2.11239706,11.4672983 L2.11239706,2.19063398 L0.340889472,2.19063398 L0.340889472,0.201180672 L5.97953664,0.201180672 L5.97953664,2.19063398 L4.20802906,2.19063398 L4.20802906,11.4672983 L5.97953664,11.4672983 L5.97953664,13.4120448 Z M0.653837184,13.1158621 L5.68335398,13.1158621 L5.68335398,11.7690693 L3.9118464,11.7690693 L3.9118464,1.88886298 L5.67776563,1.88886298 L5.67776563,0.50295168 L0.648248832,0.50295168 L0.648248832,1.88886298 L2.41975642,1.88886298 L2.41975642,11.7690693 L0.653837184,11.7690693 L0.653837184,13.1158621 Z" id="_Trazado_compuesto_27"></path>
                                        </g>
                                        <g id="_Grupo_43" transform="translate(13.970880, 0.558835)">
                                            <polygon id="_Trazado_compuesto_28" points="2.00063002 3.63801715 2.00063002 13.2891011 0.357654528 13.2891011 0.357654528 0.33530112 2.19622234 0.33530112 6.66690394 9.49461005 6.66690394 0.33530112 8.34340954 0.33530112 8.34340954 13.2891011 6.66690394 13.2891011"></polygon>
                                            <path d="M8.49429504,13.4120448 L6.5551369,13.4120448 L2.15710387,4.29744269 L2.15710387,13.4120448 L0.201180672,13.4120448 L0.201180672,0.184415616 L2.29681267,0.184415616 L6.49925338,8.81841946 L6.49925338,0.184415616 L8.49429504,0.184415616 L8.49429504,13.4120448 Z M6.75631757,13.1158621 L8.18134733,13.1158621 L8.18134733,0.486186624 L6.81220109,0.486186624 L6.81220109,10.1652123 L2.095632,0.486186624 L0.514128384,0.486186624 L0.514128384,13.1382156 L1.84415616,13.1382156 L1.84415616,2.95623821 L6.75631757,13.1158621 Z" id="_Trazado_compuesto_29"></path>
                                        </g>
                                        <g id="_Grupo_44" transform="translate(22.912243, 0.558835)">
                                            <polygon id="_Trazado_compuesto_30" points="5.90688806 0.352066176 5.90688806 2.02857178 2.45328653 2.02857178 2.45328653 6.53837184 5.33687616 6.53837184 5.33687616 8.21487744 2.45328653 8.21487744 2.45328653 11.5678886 5.90688806 11.5678886 5.90688806 13.2443942 0.648248832 13.2443942 0.648248832 0.352066176"></polygon>
                                            <path d="M6.06336192,13.4120448 L0.47500992,13.4120448 L0.47500992,0.201180672 L6.06336192,0.201180672 L6.06336192,2.16828058 L2.60976038,2.16828058 L2.60976038,6.38189798 L5.49335002,6.38189798 L5.49335002,8.382528 L2.60976038,8.382528 L2.60976038,11.4505332 L6.06336192,11.4505332 L6.06336192,13.4120448 Z M0.804722688,13.1158621 L5.75041421,13.1158621 L5.75041421,11.7355392 L2.29681267,11.7355392 L2.29681267,8.08075699 L5.18599066,8.08075699 L5.18599066,6.7060224 L2.29681267,6.7060224 L2.29681267,1.90003968 L5.75041421,1.90003968 L5.75041421,0.50295168 L0.804722688,0.50295168 L0.804722688,13.1158621 Z" id="_Trazado_compuesto_31"></path>
                                        </g>
                                        <g id="_Grupo_45" transform="translate(29.618266, 0.000000)">
                                            <path d="M4.40362138,14.1105888 C3.75700848,14.1267949 3.12292513,13.9304843 2.59858368,13.5517536 C2.07621791,13.1526715 1.63916514,12.6529112 1.31326272,12.082017 C0.956004365,11.4524274 0.690663308,10.7749608 0.525305088,10.0702103 C0.341761833,9.32756467 0.244256171,8.56627046 0.234710784,7.80133939 C0.221229346,6.92574626 0.311267326,6.05162754 0.50295168,5.19716736 C0.679452729,4.38425155 0.97709509,3.6024694 1.3859113,2.87800128 C1.7586352,2.21268173 2.27622106,1.63970845 2.90035469,1.20149568 C3.5445572,0.752869645 4.31778007,0.527182767 5.10216538,0.5588352 C5.38045638,0.573341901 5.65708179,0.610723713 5.92924147,0.67060224 C6.22600226,0.73614884 6.51198495,0.84339235 6.77867098,0.989138304 L7.01897011,1.1176704 L6.08571533,3.43683648 L5.75041421,3.14065382 C5.6406082,3.05370344 5.51263911,2.99258388 5.37599462,2.96182656 C5.23660808,2.92733495 5.09451259,2.90489882 4.95127987,2.89476634 C4.61489094,2.94615428 4.30051355,3.09363996 4.04596685,3.31948109 C3.73824347,3.60127218 3.48942452,3.94126143 3.31389274,4.3197961 C3.0888431,4.81239514 2.92373709,5.33022762 2.82211776,5.86218125 C2.69944899,6.50900658 2.63399858,7.16538072 2.62652544,7.8236928 C2.61554155,8.29780096 2.6548801,8.77173682 2.74388083,9.23754586 C2.82308355,9.67589358 2.95831241,10.1022401 3.14624218,10.5061018 C3.29853886,10.8401283 3.50852031,11.144696 3.76654925,11.4058264 C3.95423701,11.5964577 4.20407542,11.7134455 4.4706816,11.7355392 C4.64353631,11.7511357 4.81764812,11.7262626 4.97922163,11.6628906 C5.20397832,11.5779347 5.41635724,11.4632876 5.61070541,11.3220012 L5.90129971,11.1096438 L7.01897011,13.0879204 L6.84014285,13.2443942 C6.48867583,13.5854231 6.05881742,13.8348945 5.588352,13.97088 C5.20067402,14.0659056 4.8027693,14.1128283 4.40362138,14.1105888 L4.40362138,14.1105888 Z M4.96245658,1.15678886 C4.36445709,1.14869989 3.77868367,1.32638449 3.28595098,1.6653289 C2.73896981,2.05270484 2.28471861,2.55658012 1.9559232,3.14065382 C1.56982647,3.81354223 1.28724162,4.54072725 1.1176704,5.2977577 C0.937702046,6.10855167 0.851448835,6.93733253 0.860606208,7.76780928 C0.872883278,8.48731324 0.964718226,9.20325099 1.13443546,9.90255974 C1.29020306,10.5443564 1.53472031,11.1612923 1.86092122,11.7355392 C2.14198874,12.2372486 2.52227035,12.6764739 2.97859162,13.0264485 C3.69384413,13.5070957 4.59086259,13.6308223 5.40952474,13.3617496 C5.70860852,13.284011 5.98832516,13.1451041 6.23101248,12.9537999 L5.70011904,11.9926034 C5.54103803,12.0843276 5.37469085,12.1628285 5.20275571,12.2273142 C4.54493196,12.4773067 3.80138823,12.3101194 3.31389274,11.8025994 C3.00558793,11.4909248 2.75406179,11.1278193 2.57064192,10.7296358 C2.36446371,10.2822565 2.21430532,9.81113456 2.12357376,9.32695949 C2.02834739,8.82042923 1.9852784,8.3054739 1.99504166,7.79016269 C2.0024302,7.09773702 2.07351565,6.4074599 2.20739904,5.7280608 C2.32299041,5.1480959 2.5107284,4.58488194 2.76623424,4.0515552 C2.97342654,3.59849398 3.27214937,3.19322035 3.6436055,2.86123622 C4.00048574,2.55482242 4.43979205,2.36043909 4.90657306,2.30240102 L4.95127987,2.30240102 C5.15315742,2.30726354 5.35380076,2.33539111 5.54923354,2.3862263 L5.82306278,2.47563994 L6.25336589,1.4082647 C6.10934985,1.34560126 5.95963687,1.29694454 5.80629773,1.26296755 C5.5731714,1.20941891 5.33557959,1.17761528 5.09657702,1.16796557 L4.96245658,1.15678886 Z" id="_Trazado_compuesto_32"></path>
                                        </g>
                                        <g id="_Grupo_46" transform="translate(36.883123, 0.558835)">
                                            <path d="M6.1471872,13.5685187 L0.290594304,13.5685187 L0.290594304,0.050295168 L2.72152742,0.050295168 L2.72152742,11.2828827 L6.1471872,11.2828827 L6.1471872,13.5685187 Z M0.89413632,12.970565 L5.52688013,12.970565 L5.52688013,11.8864247 L2.07327859,11.8864247 L2.07327859,0.653837184 L0.89413632,0.653837184 L0.89413632,12.970565 Z" id="_Trazado_compuesto_33"></path>
                                        </g>
                                        <g id="_Grupo_47" transform="translate(43.030310, 0.000000)">
                                            <path d="M3.48713165,14.1441189 C2.84966855,14.156663 2.22558935,13.9604117 1.71003571,13.5852837 C1.27675183,13.2471377 0.933234516,12.8076658 0.709720704,12.3055511 C0.470748305,11.7727709 0.310728773,11.2079961 0.234710784,10.6290455 C0.150885504,10.0366802 0.089413632,9.42754982 0.05588352,8.81841946 C0,7.6728073 0,6.39866304 0,5.0295168 C0,3.66037056 0.039118464,2.29681267 0.061471872,0.86619456 L0.061471872,0.570011904 L2.36946125,0.570011904 L2.36946125,0.882959616 C2.33593114,2.17573171 2.30612659,3.46664102 2.28004762,4.75568755 C2.28004762,6.03542016 2.28004762,7.35985958 2.35269619,8.66753395 C2.35269619,9.03636518 2.39740301,9.41637312 2.44769818,9.78520435 C2.49321512,10.145581 2.57178301,10.5010071 2.68240896,10.8469912 C2.76659638,11.1164372 2.89915425,11.3682971 3.0735936,11.590242 C3.1842687,11.7359377 3.35457287,11.8241675 3.53742682,11.8305412 C3.73078409,11.8474586 3.91907124,11.7628351 4.03479014,11.6070071 C4.22305119,11.374065 4.36357312,11.1063138 4.44832819,10.8190495 C4.56542162,10.4557221 4.6440888,10.0811165 4.68303898,9.70137907 C4.73333414,9.27666432 4.76686426,8.87430298 4.78921766,8.48870669 C4.86186624,7.23691584 4.87304294,5.97953664 4.83392448,4.7500992 C4.79480602,3.52066176 4.76686426,2.19063398 4.75568755,0.8382528 L4.75568755,0.53089344 L7.05808858,0.53089344 L7.10279539,2.90594304 C7.10279539,3.61007539 7.10279539,4.29744269 7.10279539,4.96804493 C7.10279539,5.63864717 7.10279539,6.28130765 7.10279539,6.90161472 C7.10279539,7.52192179 7.10279539,8.1031104 7.05808858,8.62282714 C7.05808858,9.2319575 6.97985165,9.85226458 6.90161472,10.4725716 C6.82382556,11.0722332 6.6600827,11.6575669 6.4154281,12.2105491 C6.17967913,12.7350117 5.81427103,13.1908102 5.35364122,13.5349885 C4.81255714,13.9322875 4.15841083,14.1457664 3.48713165,14.1441189 L3.48713165,14.1441189 Z M0.692955648,1.19590733 C0.67060224,2.52220954 0.650111616,3.80939328 0.631483776,5.05745856 C0.631483776,6.39307469 0.631483776,7.65604224 0.692955648,8.8128311 C0.732074112,9.3716663 0.787957632,9.99197338 0.871782912,10.573162 C0.939144136,11.0977035 1.08220391,11.6097069 1.29649766,12.0931937 C1.47995578,12.505508 1.76208431,12.8663254 2.11798541,13.1438039 C2.52506997,13.4226196 3.01079347,13.5636361 3.5038967,13.5461652 C4.03359048,13.5653772 4.55581113,13.4167301 4.99598669,13.1214505 C5.37781856,12.8300199 5.67807407,12.445077 5.8677696,12.0037801 C6.08717347,11.5018425 6.23394537,10.9712056 6.30366106,10.4278648 C6.38189798,9.82432282 6.4377815,9.2207808 6.46013491,8.63400384 C6.48248832,8.04722688 6.49925338,7.54986355 6.50484173,6.95749824 C6.51043008,6.36513293 6.50484173,5.70011904 6.50484173,5.03510515 C6.50484173,4.37009126 6.50484173,3.67713562 6.47689997,2.97859162 L6.44336986,1.19590733 L5.38717133,1.19590733 C5.38717133,2.44210982 5.42628979,3.64919386 5.46540826,4.78921766 C5.50452672,6.03542016 5.46540826,7.31515277 5.42070144,8.58370867 C5.42070144,8.97489331 5.35922957,9.39401971 5.31452275,9.82432282 C5.26992154,10.2476288 5.18190775,10.6652261 5.05187021,11.0705253 C4.9399949,11.4284157 4.76179466,11.7620672 4.52656512,12.0540753 C4.28153125,12.354121 3.907379,12.5183322 3.52066176,12.4955551 L3.52066176,12.4955551 C3.15675903,12.4846867 2.81580569,12.3152308 2.58740698,12.0317219 C2.36753038,11.7514278 2.20085504,11.4332294 2.095632,11.0928787 C1.97180579,10.7126116 1.88387087,10.3215818 1.83297946,9.92491315 C1.78268429,9.51696346 1.74915418,9.11460211 1.73238912,8.73459418 C1.6653289,7.39897805 1.63738714,6.06336192 1.6653289,4.77245261 C1.6653289,3.57654528 1.71003571,2.3862263 1.74356582,1.19590733 L0.692955648,1.19590733 Z" id="_Trazado_compuesto_34"></path>
                                        </g>
                                        <g id="_Grupo_48" transform="translate(50.854003, 0.558835)">
                                            <path d="M1.22943744,13.5852837 C0.972373248,13.5852837 0.709720704,13.5852837 0.44706816,13.5517536 L0.156473856,13.5517536 L0.156473856,0.1397088 L0.458244864,0.1397088 C1.04835388,0.109221488 1.63964343,0.109221488 2.22975245,0.1397088 C2.84210491,0.169542915 3.44664154,0.290073584 4.02361344,0.497363328 C4.58153683,0.700194611 5.07933249,1.04038701 5.47099661,1.48650163 C5.89454102,2.00496548 6.13255764,2.65016756 6.1471872,3.31948109 C6.1784091,3.69769053 6.13083734,4.07826465 6.0074784,4.43715149 C5.89746269,4.74874263 5.73904704,5.04105722 5.53805683,5.30334605 C5.35455876,5.53945212 5.1403013,5.74995068 4.9009847,5.92924147 L4.77804096,6.0186551 C5.31102192,6.31805099 5.75466228,6.75397586 6.06336192,7.28162266 C6.45125612,7.98566678 6.6441758,8.78049584 6.62219712,9.58402368 C6.62777268,10.1936365 6.4653614,10.7930115 6.15277555,11.3164128 C5.83158421,11.8494762 5.38933744,12.2993809 4.86186624,12.6296755 C4.26633807,13.0060697 3.60739394,13.2711622 2.91711974,13.4120448 C2.36270687,13.5320903 1.79667678,13.5901927 1.22943744,13.5852837 L1.22943744,13.5852837 Z M0.78236928,12.970565 C1.45517805,13.0240892 2.13215385,12.9845989 2.794176,12.8532096 C3.4106025,12.7261299 3.99924466,12.4895374 4.53215347,12.1546656 C4.9868711,11.8744914 5.36964962,11.4917128 5.64982387,11.0369952 C5.90765044,10.604732 6.04108776,10.1096602 6.03542016,9.60637709 C6.05032544,8.90538124 5.87868035,8.21301511 5.53805683,7.60015872 C5.19345063,7.02102464 4.66098398,6.57730242 4.02920179,6.34277952 L3.3530112,6.04659686 L3.99008333,5.76717926 C4.17070522,5.67670515 4.34278119,5.57009286 4.50421171,5.4486432 C4.91619778,5.14230913 5.22750142,4.72010357 5.39834803,4.23597082 C5.49595378,3.95057824 5.5321374,3.6477784 5.50452672,3.34742285 C5.5105228,2.80143411 5.33125415,2.2695381 4.99598669,1.83856781 C4.6754425,1.469366 4.2656351,1.18846515 3.80566771,1.02266842 C3.28921893,0.839658169 2.74899886,0.732367075 2.20181069,0.704132352 C1.71562406,0.676190592 1.24061414,0.665013888 0.787957632,0.676190592 L0.78236928,12.970565 Z M2.2241641,11.8528946 L2.03416013,11.8528946 L1.74915418,11.8528946 L1.74915418,6.91837875 L2.06769024,6.91837875 C2.50060542,6.91804134 2.92948974,7.00154094 3.33065779,7.16426726 C3.65651864,7.30103795 3.95120648,7.50256641 4.19685235,7.75663258 C4.42097423,7.99822473 4.58890724,8.28638251 4.68862733,8.60047373 C4.78532708,8.91361205 4.83430891,9.23952962 4.83393413,9.56725862 C4.83501246,9.89849193 4.74408238,10.2235186 4.57127194,10.5061018 C4.40176877,10.7895629 4.17761804,11.0365086 3.9118464,11.2325875 C3.64228877,11.4322133 3.34223681,11.5869571 3.02329843,11.6908324 C2.76929042,11.776528 2.50339637,11.8217866 2.2353408,11.8249528 L2.2241641,11.8528946 Z M2.3750496,7.57780531 L2.3750496,11.2437642 C2.52920066,11.2303757 2.6811795,11.198479 2.82770611,11.1487622 C3.08015448,11.0682621 3.31793156,10.9474864 3.53183846,10.7911077 C3.73395811,10.6406491 3.90320677,10.4504821 4.02920179,10.2322725 C4.14897635,10.0415935 4.21107803,9.82035622 4.20802906,9.59520038 C4.20946567,9.32808979 4.16988617,9.06234177 4.09067366,8.80724275 C4.01990234,8.57608594 3.8976157,8.36399505 3.73301914,8.18693568 C3.5466275,7.99375387 3.32205273,7.84149978 3.0735936,7.73986752 C2.85161899,7.64178299 2.61612398,7.57772834 2.3750496,7.54986355 L2.3750496,7.57780531 Z M1.74915418,5.51011507 L1.74915418,2.2353408 L1.65415219,2.14033882 L1.72680077,1.9559232 C1.72480489,1.94108776 1.72480489,1.92605183 1.72680077,1.91121638 L1.72680077,1.79386099 L1.86092122,1.79386099 C1.91120054,1.77523561 1.96389866,1.76394316 2.01739507,1.76033088 C2.29749838,1.72393918 2.58113292,1.72393918 2.86123622,1.76033088 C3.13272195,1.79546301 3.39576681,1.87872901 3.63801715,2.00621837 C3.86904425,2.14161076 4.06145996,2.33402647 4.19685235,2.56505357 C4.34785226,2.81519017 4.41628354,3.1065119 4.39244467,3.39771802 C4.37985805,3.66489437 4.30930395,3.92613525 4.18567565,4.16332224 C4.058198,4.40147144 3.8920064,4.61676509 3.69390067,4.80039437 C3.4806855,4.99352107 3.23712946,5.15022767 2.97300326,5.26422758 C2.67684377,5.38858605 2.36071955,5.45862555 2.03974848,5.47099661 L1.74915418,5.51011507 Z M2.3750496,2.3750496 L2.3750496,4.86186624 C2.50326853,4.83460779 2.62863034,4.79531529 2.74946918,4.74451085 C2.95391894,4.65883541 3.14275588,4.53986813 3.30830438,4.39244467 C3.45415801,4.2568118 3.57685713,4.09824678 3.67154726,3.9230231 C3.7562025,3.76033457 3.80390674,3.58096663 3.81125606,3.39771802 C3.82975658,3.22485203 3.79255584,3.05059595 3.70507738,2.90035469 C3.62166752,2.7610271 3.50188944,2.64704473 3.35859955,2.57064192 C3.18391519,2.48058677 2.99475695,2.42194772 2.79976435,2.39740301 C2.6598397,2.36884419 2.51777443,2.35202067 2.3750496,2.34710784 L2.3750496,2.3750496 Z" id="_Trazado_compuesto_35"></path>
                                        </g>
                                    </g>
                                    <g id="_Grupo_49" transform="translate(0.000000, 21.235738)">
                                        <rect id="_Rectángulo_3" x="0.50295168" y="0.262652544" width="56.6658893" height="1.14561216"></rect>
                                    </g>
                                    <g id="_Grupo_50">
                                        <rect id="_Rectángulo_4" x="0.50295168" y="0.480598272" width="56.6658893" height="1.14561216"></rect>
                                    </g>
                                </g>
                                <g id="_Grupo_51" transform="translate(19.000397, 29.618266)" fill="#FFFFFF">
                                    <polygon id="_Trazado_compuesto_36" points="4.7612759 0.39118464 4.7612759 1.73238912 1.6765056 1.73238912 1.6765056 5.35364122 4.25273587 5.35364122 4.25273587 6.7060224 1.6765056 6.7060224 1.6765056 10.763166 0.072648576 10.763166 0.072648576 0.39118464"></polygon>
                                    <path d="M11.8584829,10.779931 L10.3272745,10.779931 L9.5001984,7.62251213 L7.32074112,7.62251213 L6.51601843,10.779931 L5.0295168,10.779931 L7.6951607,0.374419584 L9.21519245,0.374419584 L11.8584829,10.779931 Z M7.6728073,6.30924941 L9.17607398,6.30924941 L8.43282317,3.3530112 L7.6728073,6.30924941 Z" id="_Trazado_compuesto_37"></path>
                                    <polygon id="_Trazado_compuesto_38" points="14.7420726 2.72711578 14.7420726 10.779931 13.272336 10.779931 13.272336 0.374419584 14.9153115 0.374419584 16.8265279 3.16859558 18.7545093 0.374419584 20.3974848 0.374419584 20.3974848 10.779931 18.9277482 10.779931 18.9277482 2.72711578 17.4412466 4.92892646 16.2062208 4.92892646"></polygon>
                                    <polygon id="_Trazado_compuesto_39" points="21.6828058 10.779931 21.6828058 9.44431488 23.258721 9.44431488 23.258721 1.74356582 21.6828058 1.74356582 21.6828058 0.39118464 26.432905 0.39118464 26.432905 1.74356582 24.8569897 1.74356582 24.8569897 9.44431488 26.432905 9.44431488 26.432905 10.779931"></polygon>
                                    <polygon id="_Trazado_compuesto_40" points="29.3500247 0.39118464 29.3500247 9.41637312 32.4124416 9.41637312 32.4124416 10.7687543 27.7182259 10.7687543 27.7182259 0.39118464"></polygon>
                                    <polygon id="_Trazado_compuesto_41" points="33.7257043 10.779931 33.7257043 9.44431488 35.3072079 9.44431488 35.3072079 1.74356582 33.7257043 1.74356582 33.7257043 0.39118464 38.4813919 0.39118464 38.4813919 1.74356582 36.8831232 1.74356582 36.8831232 9.44431488 38.4590385 9.44431488 38.4590385 10.779931"></polygon>
                                    <path d="M46.6403858,10.779931 L45.1091773,10.779931 L44.2988663,7.62251213 L42.119409,7.62251213 L41.3146863,10.779931 L39.7834779,10.779931 L42.4714752,0.374419584 L43.9859186,0.374419584 L46.6403858,10.779931 Z M42.4547101,6.30924941 L43.9523885,6.30924941 L43.2091377,3.3530112 L42.4547101,6.30924941 Z" id="_Trazado_compuesto_42"></path>
                                    <path d="M47.9871786,10.779931 L47.9871786,0.4191264 C48.3001263,0.4191264 48.6186624,0.4191264 48.9427868,0.4191264 C49.2613229,0.4191264 49.5798589,0.4191264 49.8928067,0.4191264 C50.1830326,0.428532618 50.4723572,0.456531776 50.7590012,0.50295168 C50.9978165,0.534529482 51.2334209,0.586886007 51.4631336,0.659425536 C51.8081236,0.765847447 52.131622,0.932326173 52.4187418,1.15120051 C52.6424967,1.3362864 52.8316978,1.55954373 52.977577,1.81062605 C53.1189591,2.04580372 53.2208968,2.30253579 53.279348,2.57064192 C53.3372226,2.83149884 53.3708956,3.09714102 53.3799383,3.3641879 C53.3908193,3.70197261 53.349347,4.03940612 53.2569946,4.36450291 C53.1616559,4.69756024 53.0125309,5.01279931 52.8155148,5.2977577 C52.6036317,5.59701019 52.3384125,5.85465164 52.0331455,6.05777357 C51.6794723,6.28986303 51.2850751,6.45293109 50.8707683,6.53837184 L53.4302335,10.7743427 L51.7481395,10.7743427 L49.40662,6.81220109 L49.40662,10.7743427 L47.9871786,10.779931 Z M51.8431415,3.36977626 C51.8235192,3.13510445 51.7669379,2.90500731 51.6754909,2.68799731 C51.5869986,2.46677399 51.4402287,2.27365573 51.2507762,2.12916211 C51.0268461,1.97312545 50.7742395,1.86296619 50.5075254,1.8050377 C50.1403819,1.72733605 49.7639678,1.70286913 49.389855,1.73238912 L49.389855,5.29216934 C49.7638598,5.33026033 50.1415986,5.3057073 50.5075254,5.21952077 C50.7934222,5.15456224 51.0597115,5.02237548 51.2843063,4.83392448 C51.4804443,4.65563435 51.6284436,4.43075232 51.7146094,4.1800873 C51.811899,3.91565247 51.8555916,3.63450017 51.8431415,3.3530112 L51.8431415,3.36977626 Z" id="_Trazado_compuesto_43"></path>
                                </g>
                            </g>
                        </g>
                    </g>
                </g>
            </g>
        </g>
    </g>
</svg>