<?xml version="1.0" encoding="UTF-8"?>
<svg width="311px" height="366px" viewBox="0 0 311 366" version="1.1" xmlns="http://www.w3.org/2000/svg" xmlns:xlink="http://www.w3.org/1999/xlink">
    <!-- Generator: Sketch 63.1 (92452) - https://sketch.com -->
    <title>primeros_pasos@2x</title>
    <desc>Created with Sketch.</desc>
    <defs>
        <rect id="path-1" x="0" y="0" width="255" height="310" rx="8"/>
        <filter x="-16.9%" y="-13.2%" width="133.7%" height="127.7%" filterUnits="objectBoundingBox" id="filter-3">
            <feOffset dx="0" dy="2" in="SourceAlpha" result="shadowOffsetOuter1"/>
            <feGaussianBlur stdDeviation="14" in="shadowOffsetOuter1" result="shadowBlurOuter1"/>
            <feColorMatrix values="0 0 0 0 0   0 0 0 0 0   0 0 0 0 0  0 0 0 0.06 0" type="matrix" in="shadowBlurOuter1"/>
        </filter>
        <path d="M3.00025,7.99927241 C2.74425,7.99927241 2.48825,7.90127241 2.29325,7.70627241 C1.90225,7.31527241 1.90225,6.68327241 2.29325,6.29227241 L5.59825,2.98727241 L2.41825,-0.305727588 C2.03525,-0.703727588 2.04625,-1.33672759 2.44325,-1.71972759 C2.84125,-2.10272759 3.47425,-2.09172759 3.85725,-1.69572759 L7.71925,2.30427241 C8.09825,2.69727241 8.09325,3.32027241 7.70725,3.70627241 L3.70725,7.70627241 C3.51225,7.90127241 3.25625,7.99927241 3.00025,7.99927241" id="path-4"/>
    </defs>
    <g id="Screens" stroke="none" stroke-width="1" fill="none" fill-rule="evenodd">
        <g id="Materias-" transform="translate(-992.000000, -1366.000000)">
            <g id="primeros_pasos" transform="translate(1020.000000, 1392.000000)">
                <g id="Group">
                    <mask id="mask-2" fill="white">
                        <use xlink:href="#path-1"/>
                    </mask>
                    <g id="Mask">
                        <use fill="black" fill-opacity="1" filter="url(#filter-3)" xlink:href="#path-1"/>
                        <use fill="#FFFFFF" fill-rule="evenodd" xlink:href="#path-1"/>
                    </g>
                    <rect id="Rectangle" fill="#E4E9F2" fill-rule="nonzero" opacity="0.497465588" mask="url(#mask-2)" x="0" y="0" width="255" height="88"/>
                    <g id="atomo/-button/-primario/-228x48px" mask="url(#mask-2)">
                        <g transform="translate(27.000000, 232.000000)" id="Group">
                            <g>
                                <rect id="Rectangle-Copy-2" fill="#6E79E0" x="0" y="0" width="200" height="48" rx="24"/>
                                <g id="Group-2" transform="translate(30.225131, 16.000000)">
                                    <g id="Group-3">
                                        <text id="Ver-actividades" font-family="Montserrat-Medium, Montserrat" font-size="16" font-weight="400" line-spacing="16" fill="#FFFFFF">
                                            <tspan x="0.298429319" y="15">Ver actividades</tspan>
                                        </text>
                                        <g id="Arrow_down" transform="translate(140.596859, 9.000000) rotate(-90.000000) translate(-140.596859, -9.000000) translate(135.596859, 6.000000)">
                                            <mask id="mask-5" fill="white">
                                                <use xlink:href="#path-4"/>
                                            </mask>
                                            <use id="🎨-Icon-Сolor" fill="#FFFFFF" fill-rule="nonzero" transform="translate(5.000080, 2.999636) rotate(-270.000000) translate(-5.000080, -2.999636) " xlink:href="#path-4"/>
                                        </g>
                                    </g>
                                </g>
                            </g>
                        </g>
                    </g>
                    <text id="Primeros-pasos" font-family="Montserrat-Medium, Montserrat" font-size="20" font-weight="400" letter-spacing="0.416666667" fill="#333E53">
                        <tspan x="47.3633333" y="198">Primeros pasos</tspan>
                    </text>
                </g>
                <g id="icono_01--copy-8" transform="translate(60.000000, 24.000000)">
                    <g id="Group-2" transform="translate(-0.750000, 0.000000)" fill="#A546A0">
                        <g id="repaso" transform="translate(0.750000, 0.000000)">
                            <path d="M135,67.4890025 C135.004049,94.7916268 118.559926,119.407922 93.3363651,129.858055 C68.1128039,140.308187 39.0778473,134.533895 19.7719763,115.228024 C0.466105367,95.9221527 -5.30818744,66.8871961 5.14194516,41.6636349 C15.5920778,16.4400738 40.2083732,-0.00404858486 67.5109975,0 C104.781854,0.0055284981 134.994472,30.218146 135,67.4890025" id="Path"/>
                        </g>
                    </g>
                    <g id="primeros-pasos" transform="translate(11.000000, 33.000000)">
                        <g id="Group">
                            <g id="Layer-1">
                                <polygon id="Path" fill="#F2E26B" points="17.7747712 20.3395073 67.666676 14.8575494 66.9639444 64.3352682 17.7747712 69.6767204"/>
                                <polygon id="Path" fill="#E4D357" points="17.7747712 20.3395073 0.197053994 6.89332626 0.197053994 50.6661109 17.7747712 69.6767204"/>
                                <polygon id="Path" fill="#FFF186" points="0.197053994 6.89332626 46.3010707 0.0898013966 67.666676 14.8575494 17.8684416 20.8050084"/>
                                <polygon id="Path" fill="#F9F0B3" points="19.6270014 22.7185316 66.0651159 16.5623506 65.1638439 61.9411751 19.6270014 66.7028891"/>
                                <polygon id="Path" fill="#F2E26B" points="0.197053994 6.89332626 46.3010707 0.0898013966 67.666676 14.8575494 17.8684416 20.8050084"/>
                                <polygon id="Path" fill="#F9F0B3" points="3.19849768 7.72434553 45.5561874 1.46614525 63.5669673 13.8343022 18.6098631 19.6799455"/>
                                <polygon id="Path" fill="#F9F0B3" points="16.4542223 21.5431718 1.34742821 10.4475067 1.34742821 49.4648899 16.4542223 65.1442953"/>
                                <polygon id="Path" fill="#D1C041" points="1.34742821 10.4475067 2.90396539 11.5788821 2.90396539 49.6353293 1.34742821 49.5840142"/>
                                <polygon id="Path" fill="#D1C041" points="1.34742821 49.5740363 2.90396539 49.6353293 16.4542223 63.3881791 16.4542223 65.1442953"/>
                                <polygon id="Path" fill="#D1C041" points="3.15455405 7.7078514 45.5622964 1.46614525 45.9381997 1.71600084 63.5669673 13.8257497 61.8648134 14.0578894 44.8707645 2.55944162 4.59064332 8.81866006"/>
                                <polygon id="Path" fill="#D1C041" points="66.1475866 16.5623506 64.4712939 16.8012101 63.7451447 53.4106534 63.5669673 62.0486925 65.1721927 61.9462659"/>
                                <polygon id="Path" fill="#D1C041" points="19.6270014 65.3324506 64.9913682 60.2341341 65.0718025 61.9499313 19.6270014 66.7028891"/>
                                <path d="M29.2133514,58.3538028 L27.8685704,57.2505285 C27.7763254,57.1747777 27.7303047,57.021036 27.7659402,56.9070025 L38.3991587,22.8802148 C38.4347941,22.7663849 38.5592128,22.658664 38.6771154,22.6399299 L45.5256427,21.545819 C45.6435453,21.5268813 45.8064503,21.5810472 45.8897355,21.6665723 L47.0950291,22.9064832 C47.1783142,22.9920084 47.1612092,23.1082818 47.0567464,23.1663168 L41.9244235,26.0130821 C41.8201642,26.0709134 41.7097961,26.2112154 41.6782332,26.326267 L36.4115137,45.4969307 C36.3799508,45.6119824 36.308069,45.7903634 36.2508486,45.8950299 L29.4837737,58.3010623 C29.426757,58.4059324 29.3055964,58.4295536 29.2133514,58.3538028 Z" id="Path" fill="#D1C041"/>
                                <polygon id="Path" fill="#D1C041" points="45.4621098 40.6386955 49.2146271 56.0071559 50.4659413 56.4406869 50.8691313 54.1235665 47.0306816 39.9322986"/>
                                <path d="M29.282586,58.2861972 L39.2332324,24.3891226 C39.320183,24.0928391 39.6392732,23.8218059 39.9459419,23.7839304 L46.6409313,22.9573911 C46.9476,22.9195156 47.2821662,23.1241651 47.3882581,23.414136 L58.9734528,55.0810408 C59.0795447,55.3712154 58.9172506,55.6389905 58.6109891,55.6791059 L51.0202257,56.6740483 C50.7139642,56.7141637 50.404852,56.5038126 50.3301193,56.2040673 L46.6303425,41.3984439 C46.5554061,41.0986986 46.245683,40.8824422 45.9384034,40.9150232 L41.4892634,41.3888732 C41.1819838,41.4216578 40.8846821,41.6939128 40.8248145,41.9969162 L37.7271754,57.7190841 C37.6675115,58.0222911 37.3691916,58.2841609 37.0608939,58.3043204 L29.6833324,58.7863156 C29.3750346,58.8064751 29.1956355,58.5824807 29.282586,58.2861972 Z" id="Path" fill="#F2E26B"/>
                                <path d="M42.3105084,28.2852 L40.9492332,36.2058461 C40.9276483,36.3308757 41.0119517,36.4168081 41.1375922,36.3976668 L46.4399472,35.5886397 C46.5655877,35.5694983 46.6413385,35.454243 46.6093684,35.3314534 L44.6789439,27.9243654 C44.6469737,27.8013721 44.5192969,27.7178832 44.3938601,27.7374318 L42.5766545,28.0227193 C42.451014,28.0424715 42.3318897,28.1599668 42.3105084,28.2852 Z" id="Path" fill="#F9F0B3"/>
                                <path d="M43.8126964,27.832324 L45.2030908,35.7818858 L46.4118461,35.6208134 C46.5623296,35.6020793 46.6539637,35.4676827 46.6166992,35.3208645 L44.6624497,27.8689777 C44.639643,27.7816198 44.5486198,27.7215486 44.4594293,27.7349883 L43.8126964,27.832324 Z" id="Path" fill="#D1C041"/>
                                <path d="M41.0143953,35.7818858 L46.2285779,34.9370196 L46.2646207,35.6401584 L41.0840372,36.4047939 C41.0113408,36.4159936 40.9078961,36.3646785 40.927852,36.2940184 L41.0143953,35.7818858 Z" id="Path" fill="#D1C041"/>
                            </g>
                            <g id="Layer-2" transform="translate(3.461732, 3.868994)">
                                <path d="M28.484555,1.17597067 C28.6067338,0.819208659 27.6121986,1.18370866 27.6121986,1.18370866 L26.8294399,1.77383212 L26.1032908,1.89397458 L25.3771416,2.01432067 C25.3337682,2.0216514 25.2901911,2.03712737 25.2484466,2.05911955 C25.2067022,2.08111173 25.1667905,2.10921285 25.1307478,2.14199749 C25.094705,2.17457849 25.0627349,2.21163939 25.0366701,2.25094022 C25.0108089,2.29044469 24.9908531,2.33239274 24.9790425,2.37474804 L24.2054472,5.1563514 L23.431852,7.93815838 L22.6582567,10.7197617 L21.8620584,12.3862802 L21.8846615,13.5015687 C21.8728508,13.543924 21.87,13.582614 21.8752944,13.6166204 C21.8805888,13.6504232 21.8940285,13.6795425 21.914188,13.7025528 C21.9343475,13.7255631 21.9616341,13.7424645 21.9946223,13.7522388 C22.0276106,13.7618095 22.0663006,13.7642531 22.1098777,13.7583478 L23.2082648,13.6078642 L24.3064483,13.4575844 L25.4048355,13.3071008 L26.503019,13.1568209 C26.5465961,13.150712 26.5889514,13.1356433 26.6282522,13.1136511 C26.6673494,13.0914553 26.7033922,13.0625397 26.7345478,13.0289405 C26.7657034,12.9953413 26.7919718,12.956855 26.8113168,12.9161288 C26.8308654,12.8751989 26.8436941,12.8316218 26.8477668,12.7878411 L26.9719818,11.468514 L27.0961969,10.1491869 L27.220412,8.82985978 L27.3446271,7.51053268 C27.3489034,7.46675196 27.3617321,7.4227676 27.3812807,7.38102318 C27.4008293,7.33907514 27.4273014,7.29957067 27.458457,7.26413883 C27.4896126,7.22891061 27.5258589,7.19816229 27.5649561,7.17393017 C27.6040534,7.14969804 27.6460014,7.13238939 27.6891712,7.12383687 L28.3149302,7.00226899 L28.9406891,6.88049749 L29.5662444,6.75892961 L30.1920034,6.63736173 C30.2351732,6.62880922 30.2826193,6.62636564 30.3316944,6.62921648 C30.3807696,6.63227095 30.4314737,6.64061983 30.4807525,6.65365223 C30.5300313,6.66668464 30.5778846,6.68460419 30.6216654,6.70659637 C30.6654461,6.72838492 30.7049506,6.75465335 30.7375316,6.78417989 L32.0554332,7.98356816 L33.3731313,9.18295642 L34.691033,10.3823447 L36.0089346,11.581733 C36.041312,11.6112595 36.0808165,11.6379352 36.1245972,11.6607419 C36.1681743,11.6835486 36.2160277,11.7026899 36.2651028,11.717555 C36.3143816,11.7322165 36.3648821,11.742398 36.4141609,11.7474888 C36.463236,11.7525796 36.5108858,11.752376 36.5544628,11.746267 L38.0560399,11.5387668 L39.557617,11.3312665 L41.0589905,11.1237662 L42.5605676,10.9162659 C42.6041447,10.910157 42.6377439,10.8991609 42.6613651,10.8847031 C42.6851899,10.8700416 42.6988332,10.8521221 42.702295,10.8317589 C42.7059603,10.8113958 42.6827464,10.4764223 42.6585142,10.1465397 C42.6344858,9.81665698 42.6094391,9.49186508 42.6094391,9.49186508 L39.1711249,7.83247374 L35.7328106,6.17287877 L32.2977545,3.91297877 L28.8624947,1.65287514 C28.8258411,1.62884665 28.7818567,1.60746536 28.734207,1.58934218 C28.6863536,1.57121899 28.6346313,1.55655754 28.5818908,1.54596872 C28.5293539,1.53517626 28.7529411,1.1761743 28.7018296,1.17393436 C28.6507182,1.17169441 28.3625799,1.53252905 28.484555,1.17597067 Z M28.1495816,2.74780056 C28.2123,2.73782263 28.2959925,2.76979274 28.3377369,2.81744246 L29.906105,4.6057324 C29.9478494,4.65338212 29.9248391,4.69431201 29.8623243,4.70428994 L27.3678411,5.11033073 C27.3053263,5.12030866 27.2454587,5.07652793 27.2419969,5.0131986 L27.1350905,3.02453547 C27.1316288,2.96140978 27.178464,2.90866927 27.2409788,2.89869134 L28.1495816,2.74780056 Z" id="Shape" fill="#D1C041"/>
                                <path d="M28.2691131,0.156185196 L25.3649237,0.637365922 C25.1914299,0.666485196 25.0138634,0.828168436 24.9666209,0.997793296 L21.8722399,12.1244103 C21.8249975,12.2940352 21.9233514,12.4054215 22.0976598,12.3811894 L26.4908011,11.7798662 C26.6651095,11.7556341 26.8188511,11.5860092 26.8353453,11.4108863 L27.3324092,6.13357793 C27.349107,5.9582514 27.504274,5.78088855 27.6769534,5.74667849 L30.1795818,5.26040698 C30.3522612,5.22640056 30.5949897,5.28871173 30.7251101,5.40722514 L35.9965131,10.2045746 C36.1266335,10.323088 36.3679366,10.3935444 36.542245,10.3693123 L42.5483497,9.53910754 C42.7224545,9.51487542 42.7379304,9.41244888 42.5909087,9.31572402 L28.8502768,0.275920391 C28.703255,0.179195531 28.4428106,0.127065922 28.2691131,0.156185196 Z M28.1373637,1.37084581 C28.1998785,1.36086788 28.2835709,1.39283799 28.3253154,1.44048771 L29.8936835,3.22877765 C29.9354279,3.27642737 29.9126212,3.31715363 29.8501064,3.3273352 L27.3554196,3.73317235 C27.2929047,3.74335391 27.2330372,3.69957318 27.2297791,3.63624385 L27.122669,1.64758073 C27.1192073,1.5842514 27.1660425,1.53171453 27.2285573,1.52173659 L28.1373637,1.37084581 Z" id="Shape" fill="#F2E26B"/>
                                <path d="M5.47963642,16.4912832 C5.43891017,16.5067592 4.65258796,16.4858454 4.65258796,16.4858454 L0.956333966,44.0772134 C0.934993408,44.2091665 1.00538874,44.3842894 1.10799855,44.4698145 L2.17987291,45.9583592 C2.28248271,46.0438844 3.09739475,46.0206704 3.11537539,45.8883101 L4.2930362,37.2433475 C4.31101684,37.1109872 4.41596841,37.0680209 4.52501296,37.1451972 L6.10415321,38.2602821 C6.21319777,38.3374584 6.29892654,38.5103413 6.30035196,38.6439235 L6.42538156,49.1091461 C6.42680698,49.2427282 6.5050014,49.420702 6.60376257,49.5105034 L9.14691369,52.4594916 C9.24567486,52.5494966 9.94901732,52.463157 9.94054215,52.3297785 L9.73520447,49.0289154 L7.77260615,18.5345196 C7.76385,18.4011411 7.67017961,18.2270363 7.56734581,18.1419184 L5.62238196,16.5360821 C5.57090397,16.4935232 5.52036268,16.4760109 5.47963642,16.4912832 Z M5.99708388,23.013186 L6.7198324,23.3878676 C6.76951844,23.4135251 6.80902291,23.4746145 6.80902291,23.5306131 L6.80902291,33.3087838 C6.80902291,33.3647824 6.77338743,33.3873855 6.72858855,33.3533791 L4.76588841,31.8634089 C4.72127279,31.8296061 4.68685911,31.7583352 4.69451564,31.7029475 L5.89003492,23.0667411 C5.89769145,23.0111497 5.94725531,22.9875285 5.99708388,23.013186 Z" id="Shape" fill="#D1C041"/>
                                <path d="M4.6853726,16.4912832 C4.64464634,16.5067592 4.6157307,16.5503363 4.60508078,16.6163128 L0.16207014,44.0772134 C0.140729581,44.2091665 0.211124916,44.3842894 0.313734721,44.4698145 L2.10699327,45.9687444 C2.20960307,46.0542696 2.30313092,46.0206704 2.32111156,45.8883101 L2.59572872,43.872564 L3.49877237,37.2433475 C3.51675302,37.1109872 3.62170458,37.0680209 3.73074913,37.1451972 L5.30988939,38.2602821 C5.41893394,38.3374584 5.50464235,38.5103413 5.50616958,38.6439235 L5.63107701,49.1091461 C5.63258388,49.2427282 5.7107783,49.420702 5.80949874,49.5105034 L8.98563771,52.4102128 C9.08439888,52.5002179 9.15485531,52.463157 9.14630279,52.3297785 L8.94104246,49.0289154 L8.73456034,45.8198899 L8.65738408,44.6215198 L6.9782405,18.5345196 C6.96968799,18.4011411 6.8760176,18.2270363 6.77298017,18.1419184 L4.82811813,16.5360821 C4.77664014,16.4935232 4.72609885,16.4760109 4.6853726,16.4912832 Z M5.20282006,23.013186 L5.92548712,23.3878676 C5.9753157,23.4135251 6.01469799,23.4746145 6.01469799,23.5306131 L6.01469799,33.3087838 C6.01469799,33.3647824 5.97902179,33.3873855 5.93440617,33.3533791 L3.97162458,31.8634089 C3.92700897,31.8296061 3.89259528,31.7583352 3.90025182,31.7029475 L5.09577109,23.0667411 C5.10342763,23.0111497 5.15299148,22.9875285 5.20282006,23.013186 Z" id="Shape" fill="#F2E26B"/>
                            </g>
                        </g>
                        <g id="Layer-3" transform="translate(72.000000, 0.000000)">
                            <path d="M18.9444972,33.9966955 C18.9444972,28.6038603 23.3160084,24.2321229 28.7088436,24.2321229 C34.1016788,24.2321229 38.4734162,28.6038603 38.4734162,33.9966955 C38.4734162,39.3893045 34.1016788,43.7610419 28.7088436,43.7610419 C23.3160084,43.7610419 18.9444972,39.3893045 18.9444972,33.9966955 Z" id="Path" stroke="#E8964D" stroke-width="3.62011173" stroke-linejoin="round"/>
                            <path d="M40.6169749,15.6777989 C41.5348994,20.0866425 35.8968017,27.395648 27.0069385,32.8975391 C17.5174944,38.7702654 7.84319832,40.4067821 4.89280726,36.765176 C4.97177095,37.1995894 5.10051117,37.6179385 5.34328492,38.0102682 C7.90768156,42.1541648 17.9469302,40.5943492 27.7619581,34.5200279 C37.5767598,28.445933 43.4528799,20.1592709 40.8884832,16.0156006 C40.8099721,15.8888966 40.7072514,15.7909274 40.6169749,15.6777989 Z" id="Path" fill="#F6A55D"/>
                            <path d="M36.7624609,14.1478241 C32.6027263,14.1578045 26.2243156,16.9790028 19.4766536,21.1550279 C10.5910894,26.6542039 4.13801397,32.611324 4.89280726,36.765176 C7.84319832,40.4067821 17.5174944,38.7702654 27.0069385,32.8975391 C35.8968017,27.395648 41.5348994,20.0866425 40.6169749,15.6777989 C39.7838966,14.635433 38.467986,14.1437765 36.7624609,14.1478241 Z" id="Path" fill="#DC8D46"/>
                            <path d="M0.10724581,11.8357291 C0.10724581,5.34147486 5.3717933,0.0769273743 11.8660475,0.0769273743 C18.3600754,0.0769273743 23.6248492,5.34147486 23.6248492,11.8357291 C23.6248492,18.3299832 18.3600754,23.5945307 11.8660475,23.5945307 C5.3717933,23.5945307 0.10724581,18.3299832 0.10724581,11.8357291 Z" id="Path" fill="#F2E26B"/>
                            <path d="M18.1358547,30.0867486 C19.3791369,29.8944302 22.5311229,29.2980168 24.7165391,27.9354972 C26.6967402,26.7008128 27.8832318,24.8373603 28.4006816,23.8698855 C28.608838,23.4809497 28.5246704,23.0422374 28.2262374,22.6865615 C26.9573883,21.1740335 23.6248492,16.7531983 23.6248492,12.0409441 L10.5431229,23.5239385 C10.5431229,23.5239385 15.2768715,24.4995587 17.3846816,29.5923771 C17.4609302,29.7765503 17.7994106,30.1387877 18.1358547,30.0867486 Z" id="Path" fill="#F2E26B"/>
                            <path d="M8.77107821,5.69149441 C8.77107821,3.23864246 10.8042235,1.25006983 13.3125084,1.25006983 C15.820567,1.25006983 17.8539385,3.23864246 17.8539385,5.69149441 C17.8539385,8.14434637 15.820567,10.1326927 13.3125084,10.1326927 C10.8042235,10.1326927 8.77107821,8.14434637 8.77107821,5.69149441 Z" id="Path" fill="#F9F0B3"/>
                        </g>
                    </g>
                </g>
            </g>
        </g>
    </g>
<link xmlns="" type="text/css" id="dark-mode" rel="stylesheet" href=""/><style xmlns="" type="text/css" id="dark-mode-custom-style"/></svg>