<?xml version="1.0" encoding="UTF-8"?>
<svg width="311px" height="366px" viewBox="0 0 311 366" version="1.1" xmlns="http://www.w3.org/2000/svg" xmlns:xlink="http://www.w3.org/1999/xlink">
    <title>button_reforzamiento@2x</title>
    <defs>
        <rect id="path-1" x="0" y="0" width="255" height="310" rx="8"></rect>
        <filter x="-16.9%" y="-13.2%" width="133.7%" height="127.7%" filterUnits="objectBoundingBox" id="filter-3">
            <feOffset dx="0" dy="2" in="SourceAlpha" result="shadowOffsetOuter1"></feOffset>
            <feGaussianBlur stdDeviation="14" in="shadowOffsetOuter1" result="shadowBlurOuter1"></feGaussianBlur>
            <feColorMatrix values="0 0 0 0 0   0 0 0 0 0   0 0 0 0 0  0 0 0 0.06 0" type="matrix" in="shadowBlurOuter1"></feColorMatrix>
        </filter>
        <path d="M3.00025,7.99927241 C2.74425,7.99927241 2.48825,7.90127241 2.29325,7.70627241 C1.90225,7.31527241 1.90225,6.68327241 2.29325,6.29227241 L5.59825,2.98727241 L2.41825,-0.305727588 C2.03525,-0.703727588 2.04625,-1.33672759 2.44325,-1.71972759 C2.84125,-2.10272759 3.47425,-2.09172759 3.85725,-1.69572759 L7.71925,2.30427241 C8.09825,2.69727241 8.09325,3.32027241 7.70725,3.70627241 L3.70725,7.70627241 C3.51225,7.90127241 3.25625,7.99927241 3.00025,7.99927241" id="path-4"></path>
        <path d="M-1.25055521e-13,53.9396648 C-1.25055521e-13,24.1495642 24.1495844,1.47792889e-13 53.9396849,1.47792889e-13 C83.7297855,1.47792889e-13 107.87935,24.1495642 107.87935,53.9396648 C107.87935,83.7297654 83.7297855,107.87933 53.9396849,107.87933 C24.1495844,107.87933 -1.25055521e-13,83.7297654 -1.25055521e-13,53.9396648 Z" id="path-6"></path>
        <path d="M0.602528,-2.3128166e-13 L7.344032,0.1166888 C6.31382759,6.33955864 0.583899143,4.79543014 0.602528,-2.3128166e-13 Z" id="path-8"></path>
    </defs>
    <g id="Screens" stroke="none" stroke-width="1" fill="none" fill-rule="evenodd">
        <g id="Group-26" transform="translate(28.000000, 26.000000)">
            <g id="button_reforzamiento">
                <g id="Group">
                    <mask id="mask-2" fill="white">
                        <use xlink:href="#path-1"></use>
                    </mask>
                    <g id="Mask">
                        <use fill="black" fill-opacity="1" filter="url(#filter-3)" xlink:href="#path-1"></use>
                        <use fill="#FFFFFF" fill-rule="evenodd" xlink:href="#path-1"></use>
                    </g>
                    <rect id="Rectangle" fill="#E4E9F2" fill-rule="nonzero" opacity="0.497465588" mask="url(#mask-2)" x="0" y="0" width="255" height="88"></rect>
                    <g id="atomo/-button/-primario/-228x48px/-active-copy-2" mask="url(#mask-2)">
                        <g transform="translate(27.000000, 232.000000)" id="Group">
                            <g>
                                <rect id="Rectangle" fill="#FF881D" x="0" y="0" width="200" height="48" rx="24"></rect>
                                <g id="Group-2" transform="translate(30.225131, 16.000000)">
                                    <g id="Group-3">
                                        <text id="Ver-actividades" font-family="Montserrat-Medium, Montserrat" font-size="16" font-weight="400" line-spacing="16" fill="#FFFFFF">
                                            <tspan x="0.298429319" y="15">Ver actividades</tspan>
                                        </text>
                                        <g id="Arrow_down" transform="translate(140.596859, 9.000000) rotate(-90.000000) translate(-140.596859, -9.000000) translate(135.596859, 6.000000)">
                                            <mask id="mask-5" fill="white">
                                                <use xlink:href="#path-4"></use>
                                            </mask>
                                            <use id="🎨-Icon-Сolor" fill="#FFFFFF" fill-rule="nonzero" transform="translate(5.000080, 2.999636) rotate(-270.000000) translate(-5.000080, -2.999636) " xlink:href="#path-4"></use>
                                        </g>
                                    </g>
                                </g>
                            </g>
                        </g>
                    </g>
                    <text id="Fichas-de-repaso" font-family="Montserrat-Medium, Montserrat" font-size="20" font-weight="400" letter-spacing="0.416666667" fill="#333E53">
                        <tspan x="49.7116667" y="186">Reforzamiento </tspan>
                        <tspan x="35.4766667" y="210">del conocimiento</tspan>
                    </text>
                </g>
                <g id="icono_01--copy-12" transform="translate(74.000000, 24.000000)">
                    <g id="reforzamiento-3-01" transform="translate(0.011444, 0.000000)">
                        <g id="Path" transform="translate(-0.000000, 0.000000)">
                            <g id="Path-2" transform="translate(-0.000000, 0.000000)">
                                <g id="Path" transform="translate(-0.000000, -0.000000)">
                                    <mask id="mask-7" fill="white">
                                        <use xlink:href="#path-6"></use>
                                    </mask>
                                    <use id="Mask" fill="#00A2AA" fill-rule="nonzero" xlink:href="#path-6"></use>
                                    <g id="Group" mask="url(#mask-7)">
                                        <g transform="translate(66.529593, 90.487109)"></g>
                                    </g>
                                </g>
                            </g>
                        </g>
                    </g>
                    <g id="Group-3" transform="translate(0.000000, -12.000000)">
                        <g id="Recurso-1" transform="translate(0.320000, 15.943281)">
                            <line x1="101.374157" y1="4.3790544" x2="101.374157" y2="4.3790544" id="Path" stroke="#A1C2FF" stroke-width="0.5" stroke-linecap="round" stroke-linejoin="round"></line>
                            <line x1="96.2956512" y1="17.853696" x2="96.2956512" y2="17.853696" id="Path" stroke="#A1C2FF" stroke-width="0.5" stroke-linecap="round" stroke-linejoin="round"></line>
                            <rect id="Rectangle" fill="#FFFFFF" fill-rule="nonzero" x="14.315616" y="0.1986768" width="78.7984848" height="50.3713728" rx="2.20776192"></rect>
                            <rect id="Rectangle" fill="#001DFF" fill-rule="nonzero" opacity="0.56984747" x="17.6033088" y="2.6971056" width="72.2203776" height="42.035112" rx="0.79906176"></rect>
                            <path d="M14.3210592,47.9355408 C14.3851687,49.4086642 15.598079,50.5699869 17.0725968,50.5700496 L90.35712,50.5700496 C91.8316378,50.5699869 93.0445481,49.4086642 93.1086576,47.9355408 L14.3210592,47.9355408 Z" id="Path" fill="#E5E5E5" fill-rule="nonzero"></path>
                            <path d="M-3.29167294e-06,71.9781552 L107.426995,71.9781552 L107.426995,73.1375568 C107.426995,73.8891059 106.817744,74.4983568 106.066195,74.4983568 L1.1267424,74.4983568 C0.82743959,74.4983568 0.54043503,74.3792741 0.329051432,74.1673799 C0.117667833,73.9554858 -3.29167294e-06,73.6681947 -3.29167294e-06,73.3688928 L-3.29167294e-06,71.9781552 L-3.29167294e-06,71.9781552 Z" id="Path" fill="#FFFFFF" fill-rule="nonzero"></path>
                            <path d="M91.5083568,50.621756 L15.9186384,50.621756 C14.9523446,50.6220146 14.0482577,51.0984929 13.5018576,51.8954688 L0.217728,71.2596528 C-0.0342251708,71.6333442 -0.0600331483,72.1153822 0.15057975,72.513839 C0.361192649,72.9122959 0.77403122,73.1624779 1.22472,73.1647728 L106.202275,73.1647728 C106.652964,73.1624779 107.065803,72.9122959 107.276415,72.513839 C107.487028,72.1153822 107.46122,71.6333442 107.209267,71.2596528 L93.9251376,51.887304 C93.3769095,51.093428 92.4731317,50.6201659 91.5083568,50.621756 L91.5083568,50.621756 Z" id="Path" fill="#FFFFFF" fill-rule="nonzero"></path>
                            <path d="M25.9803936,63.2309328 L61.1842896,63.2309328 C61.5664537,63.2287073 61.9217978,63.4270389 62.12052,63.75348 L64.311408,67.305168 C64.6588365,67.8737305 65.2780623,68.2194649 65.944368,68.2169661 L94.3878096,68.2169661 C94.6171039,68.2201204 94.8299612,68.0982359 94.9432459,67.8988548 C95.0565306,67.6994738 95.0522705,67.4542272 94.9321296,67.2589008 L86.5904256,53.7271056 C86.1945137,53.0831602 85.4929338,52.6906463 84.737016,52.690176 L22.2300288,52.690176 C21.5432206,52.6905464 20.9073227,53.0524395 20.5562448,53.642736 L12.1192848,67.876704 C12.0784465,67.9463084 12.077842,68.0324121 12.1176991,68.102583 C12.1575562,68.172754 12.2318201,68.2163324 12.3125184,68.2169661 L21.3046848,68.2169661 C21.9823121,68.2195115 22.610323,67.8619805 22.9539744,67.277952 L25.03872,63.7698096 C25.2363564,63.4374406 25.5937086,63.2329442 25.9803936,63.2309328 L25.9803936,63.2309328 Z" id="Path" fill="#333E53" fill-rule="nonzero" opacity="0.152134487"></path>
                            <path d="M63.41328,67.2071904 L61.6006944,64.2651408 C61.4805416,64.0691389 61.2672219,63.9495974 61.0373232,63.9494352 L26.140968,63.9494352 C25.9069325,63.9499855 25.6906157,64.0741865 25.5721536,64.2760272 L23.827608,67.22352 C23.7065015,67.4287591 23.7046534,67.6831551 23.8227652,67.8901321 C23.9408771,68.0971091 24.1608378,68.2249293 24.399144,68.2250688 L62.8390224,68.2250688 C63.083797,68.2315059 63.3120966,68.102174 63.4324122,67.8889132 C63.5527278,67.6756524 63.5453669,67.4133677 63.41328,67.2071904 L63.41328,67.2071904 Z" id="Path" fill="#333E53" fill-rule="nonzero" opacity="0.152134487"></path>
                            <path d="M88.8248592,2.6971056 L39.2917392,2.6971056 C41.2385816,21.9247782 57.4231388,36.5582615 76.74912,36.5647117 C81.207602,36.5687768 85.6311963,35.778981 89.8128,34.2322848 L89.8128,3.6959328 C89.8128,3.14851936 89.3722401,2.70307196 88.8248592,2.6971056 L88.8248592,2.6971056 Z" id="Path" fill="#FFFFFF" fill-rule="nonzero" opacity="0.413298921" style="mix-blend-mode: overlay;"></path>
                            <path d="M40.769568,0.1986768 L41.7792816,2.4712128 C42.3822193,3.82393803 43.7247631,4.69515186 45.205776,4.69476013 L62.2212192,4.69476013 C63.7022321,4.69515186 65.0447759,3.82393803 65.6477136,2.4712128 L66.6574272,0.1986768 L40.769568,0.1986768 Z" id="Path" fill="#F7F7F7" fill-rule="nonzero"></path>
                        </g>
                        <g id="science" transform="translate(57.600000, 0.800000)" fill-rule="nonzero">
                            <g id="Group">
                                <g transform="translate(0.000000, 9.408000)" id="Path">
                                    <path d="M9.9861888,1.6008384 L2.0270208,1.6008384 L2.0270208,26.8351104 C2.0272896,29.0328192 3.8090304,30.81456 6.0067392,30.81456 C8.2045824,30.81456 9.9863232,29.0329536 9.9861888,26.8351104 L9.9861888,1.6008384 Z" fill="#EEF4FF"></path>
                                    <path d="M9.9861888,1.6008384 L2.0270208,1.6008384 L2.0270208,26.8351104 C2.0272896,29.0328192 3.8090304,30.81456 6.0067392,30.81456 C8.2045824,30.81456 9.9863232,29.0329536 9.9861888,26.8351104 L9.9861888,1.6008384 Z" fill="#EEF4FF"></path>
                                    <path d="M6.0066048,30.81456 L6.0067392,30.81456 C8.2045824,30.81456 9.9863232,29.0329536 9.9861888,26.8351104 L9.9861888,1.6008384 L6.0066048,1.6008384 L6.0066048,30.81456 Z" fill="#D6E9F8"></path>
                                    <path d="M6.007008,28.7986944 C4.9242816,28.7986944 4.0432896,27.917568 4.0430208,26.834976 L4.0430208,1.3777344 L7.9701888,1.3777344 L7.9701888,26.8351104 C7.9701888,27.3596736 7.7660352,27.8526528 7.3952256,28.2235968 C7.024416,28.5944064 6.5314368,28.7986944 6.007008,28.7986944 L6.007008,28.7986944 Z" fill="#D6E9F8"></path>
                                    <path d="M6.007008,28.7986944 C4.9242816,28.7986944 4.0432896,27.917568 4.0430208,26.834976 L4.0430208,1.3777344 L7.9701888,1.3777344 L7.9701888,26.8351104 C7.9701888,27.3596736 7.7660352,27.8526528 7.3952256,28.2235968 C7.024416,28.5944064 6.5314368,28.7986944 6.007008,28.7986944 L6.007008,28.7986944 Z" fill="#B2D7F3"></path>
                                    <path d="M6.0066048,1.3777344 L6.0066048,28.79856 L6.0068736,28.79856 C6.5313024,28.79856 7.024416,28.594272 7.3950912,28.2235968 C7.7659008,27.8526528 7.9700544,27.3596736 7.9700544,26.8351104 L7.9700544,1.3777344 L6.0066048,1.3777344 Z" fill="#8BBBFF"></path>
                                    <polygon fill="#EEF4FF" points="0.0838656 0.1005312 11.929344 0.1005312 11.929344 3.1011456 0.0838656 3.1011456"></polygon>
                                    <polygon fill="#D6E9F8" points="6.0066048 0.1005312 11.929344 0.1005312 11.929344 3.1011456 6.0066048 3.1011456"></polygon>
                                    <path d="M6.007008,28.7986944 C4.9242816,28.7986944 4.0432896,27.917568 4.0430208,26.834976 L4.0430208,11.4961728 L7.9701888,11.4961728 L7.9701888,26.8352448 C7.9701888,27.359808 7.7660352,27.8527872 7.3952256,28.2237312 C7.024416,28.5944064 6.5314368,28.7986944 6.007008,28.7986944 L6.007008,28.7986944 Z" fill="#FF4F49"></path>
                                    <path d="M6.0066048,11.4961728 L6.0066048,28.7986944 L6.0068736,28.7986944 C6.5313024,28.7986944 7.024416,28.5944064 7.3950912,28.2237312 C7.7659008,27.8527872 7.9700544,27.359808 7.9700544,26.8352448 L7.9700544,11.4961728 L6.0066048,11.4961728 Z" fill="#F24237"></path>
                                </g>
                                <g transform="translate(11.961600, 0.000000)">
                                    <g id="Path">
                                        <polygon fill="#EEF4FF" points="20.22048 15.4964544 20.22048 1.5856512 9.9829632 1.5856512 9.9829632 15.4964544 0.0505344 40.22256 30.1529088 40.22256"></polygon>
                                        <polygon fill="#B2D7F3" points="3.0328704 38.20656 11.9989632 15.8862144 11.9989632 1.5856512 18.20448 1.5856512 18.20448 15.8862144 27.1705728 38.20656"></polygon>
                                        <polygon fill="#D6E9F8" points="20.22048 15.4964544 20.22048 1.5856512 15.1017216 1.5856512 15.1017216 40.22256 30.1529088 40.22256"></polygon>
                                        <polygon fill="#8BBBFF" points="27.1705728 38.20656 18.20448 15.8862144 18.20448 1.5856512 15.1017216 1.5856512 15.1017216 38.20656"></polygon>
                                        <polygon fill="#EEF4FF" points="9.1789824 0.085344 21.0244608 0.085344 21.0244608 3.0859584 9.1789824 3.0859584"></polygon>
                                        <polygon fill="#D6E9F8" points="15.1017216 0.085344 21.0244608 0.085344 21.0244608 3.0859584 15.1017216 3.0859584"></polygon>
                                        <polygon fill="#A160E4" points="3.0328704 38.20656 9.1370496 23.010624 21.0606144 22.996512 27.1705728 38.20656"></polygon>
                                        <polygon fill="#7A3EB4" points="27.1705728 38.20656 21.0606144 22.996512 15.1017216 23.010624 15.1017216 38.20656"></polygon>
                                    </g>
                                    <circle id="Oval" fill="#7A3EB4" cx="11.7715584" cy="27.8459328" r="1.3808256"></circle>
                                    <circle id="Oval" fill="#613393" cx="19.0331904" cy="32.290272" r="2.1029568"></circle>
                                </g>
                            </g>
                        </g>
                        <g id="school-material-2" transform="translate(7.200000, 0.000000)" fill-rule="nonzero">
                            <g id="school-material">
                                <polygon id="Path" fill="#FFCD00" points="23.22432 20.8438272 23.22432 14.19264 19.3536 18.06336 19.3536 24.7145472"></polygon>
                                <path d="M24.3623117,26.7905434 L25.8048,29.67552 L27.2472883,26.7905434 C26.3392172,26.3365251 25.2703828,26.3365251 24.3623117,26.7905434 L24.3623117,26.7905434 Z" id="Path" fill="#000000"></path>
                                <polygon id="Path" fill="#FFA31C" points="25.8048 22.5792 28.38528 24.51456 28.38528 16.3279872 28.38528 9.03168 28.38528 6.4512 25.8048 6.4512"></polygon>
                                <polygon id="Path" fill="#F7941D" points="23.22432 24.51456 25.8048 22.5792 25.8048 6.4512 23.22432 6.4512 23.22432 14.19264 23.22432 20.8438272"></polygon>
                                <path d="M25.8048,26.44992 C26.3057143,26.4485416 26.7999024,26.5652372 27.2472883,26.7905434 L28.38528,24.51456 L25.8048,22.5792 L23.22432,24.51456 L24.3623117,26.7905434 C24.8096976,26.5652372 25.3038857,26.4485416 25.8048,26.44992 L25.8048,26.44992 Z" id="Path" fill="#FFFFFF"></path>
                                <polygon id="Path" fill="#2488FF" points="28.38528 6.4512 28.38528 3.87072 23.22432 3.87072 23.22432 6.4512 25.8048 6.4512"></polygon>
                                <path d="M28.38528,2.58048 C28.38528,1.15532025 27.2299598,0 25.8048,0 C24.3796402,0 23.22432,1.15532025 23.22432,2.58048 L23.22432,3.87072 L28.38528,3.87072 L28.38528,2.58048 Z" id="Path" fill="#F08FC6"></path>
                                <polygon id="Path" fill="#FFA31C" points="27.09504 6.4512 27.09504 9.03168 27.09504 16.3279872 27.09504 23.54688 28.38528 24.51456 28.38528 16.3279872 28.38528 9.03168 28.38528 6.4512"></polygon>
                                <polygon id="Path" fill="#006DF0" points="27.09504 3.87072 28.38528 3.87072 28.38528 6.4512 27.09504 6.4512"></polygon>
                                <path d="M25.8048,0 C25.5867683,0.00278364204 25.369981,0.0333506638 25.15968,0.09096192 C26.2969501,0.382484305 27.0929787,1.40644239 27.09504,2.58048 L27.09504,3.87072 L28.38528,3.87072 L28.38528,2.58048 C28.38528,1.15532025 27.2299598,0 25.8048,0 Z" id="Path" fill="#E777B7"></path>
                                <rect id="Rectangle" fill="#A25BE7" x="0" y="0" width="19.3536" height="29.67552" rx="1.032192"></rect>
                                <path d="M18.06336,0 L17.41824,0 C18.1299376,0.00212554209 18.7063545,0.578542412 18.70848,1.29024 L18.70848,28.38528 C18.7063545,29.0969776 18.1299376,29.6733945 17.41824,29.67552 L18.06336,29.67552 C18.7750576,29.6733945 19.3514745,29.0969776 19.3536,28.38528 L19.3536,1.29024 C19.3514745,0.578542412 18.7750576,0.00212554209 18.06336,0 L18.06336,0 Z" id="Path" fill="#7B38B7"></path>
                                <polygon id="Path" fill="#9AB1FF" points="17.41824 9.03168 17.41824 1.93536 1.93536 1.93536 1.93536 9.03168 9.6768 9.03168"></polygon>
                                <polygon id="Path" fill="#9BC9FF" points="9.6768 9.03168 17.41824 9.03168 17.41824 15.48288 9.6768 15.48288"></polygon>
                                <polygon id="Path" fill="#57A4FF" points="1.93536 9.03168 9.6768 9.03168 9.6768 15.48288 1.93536 15.48288"></polygon>
                                <polygon id="Path" fill="#9BC9FF" points="1.93536 15.48288 9.6768 15.48288 9.6768 21.93408 1.93536 21.93408"></polygon>
                                <polygon id="Path" fill="#9AB1FF" points="9.6768 21.93408 1.93536 21.93408 1.93536 27.74016 17.41824 27.74016 17.41824 21.93408"></polygon>
                                <polygon id="Path" fill="#57A4FF" points="9.6768 15.48288 17.41824 15.48288 17.41824 21.93408 9.6768 21.93408"></polygon>
                                <polygon id="Path" fill="#FFFFFF" points="5.16096 14.19264 6.4512 14.19264 6.4512 12.9024 7.74144 12.9024 7.74144 11.61216 6.4512 11.61216 6.4512 10.32192 5.16096 10.32192 5.16096 11.61216 3.87072 11.61216 3.87072 12.9024 5.16096 12.9024"></polygon>
                                <polygon id="Path" fill="#FFFFFF" points="6.71827968 16.8840806 5.80608 17.7962803 4.89388032 16.8840806 3.98168064 17.7962803 4.89388032 18.70848 3.98168064 19.6206797 4.89388032 20.5328794 5.80608 19.6206797 6.71827968 20.5328794 7.63047936 19.6206797 6.71827968 18.70848 7.63047936 17.7962803"></polygon>
                                <polygon id="Path" fill="#FFFFFF" points="11.61216 11.61216 15.48288 11.61216 15.48288 12.9024 11.61216 12.9024"></polygon>
                                <polygon id="Path" fill="#FFFFFF" points="11.61216 18.06336 11.61216 19.3536 15.48288 19.3536 15.48288 18.06336 13.54752 18.06336"></polygon>
                                <polygon id="Path" fill="#FFFFFF" points="7.74144 23.22432 11.61216 23.22432 11.61216 24.51456 7.74144 24.51456"></polygon>
                                <polygon id="Path" fill="#FFFFFF" points="7.74144 25.15968 11.61216 25.15968 11.61216 26.44992 7.74144 26.44992"></polygon>
                                <path d="M13.7926656,18.0117504 C13.8337289,17.9975192 13.8727643,17.9780016 13.9087872,17.9536896 L14.0055552,17.8762752 L14.0829696,17.7795072 C14.107134,17.7433983 14.1266419,17.7043825 14.1410304,17.6633856 C14.1597863,17.6269379 14.1726337,17.5877424 14.1790925,17.547264 C14.187111,17.5046962 14.1916419,17.461545 14.192651,17.41824 C14.1941642,17.1561503 14.0369701,16.919188 13.7949116,16.8186842 C13.5528531,16.7181804 13.2740475,16.7741135 13.0894848,16.9602048 C13.031168,17.0218828 12.9851838,17.0941438 12.9540096,17.1730944 C12.920953,17.2506522 12.9034193,17.3339375 12.9024,17.41824 C12.9035006,17.4615081 12.9078133,17.5046347 12.9153024,17.547264 C12.922326,17.5876889 12.9353736,17.6268315 12.9540096,17.6633856 C12.9681089,17.7045043 12.987635,17.7435565 13.0120704,17.7795072 C13.0358836,17.8133073 13.0617364,17.8456233 13.0894848,17.8762752 L13.1856077,17.9536896 C13.2218541,17.9780134 13.2611042,17.99753 13.3023744,18.0117504 C13.3389285,18.0303864 13.3780711,18.043434 13.418496,18.0504576 C13.4611638,18.0576635 13.5042702,18.0619741 13.54752,18.06336 C13.590786,18.0622265 13.6339102,18.0579141 13.676544,18.0504576 C13.7169453,18.0433409 13.7560745,18.0302978 13.7926656,18.0117504 L13.7926656,18.0117504 Z" id="Path" fill="#FFFFFF"></path>
                                <path d="M14.0055552,19.5406848 C13.9747735,19.5130893 13.9424666,19.4872438 13.9087872,19.4632704 C13.8727643,19.4389584 13.8337289,19.4194408 13.7926656,19.4052096 C13.7560745,19.3866622 13.7169453,19.3736191 13.676544,19.3665024 C13.591617,19.3471457 13.503423,19.3471457 13.418496,19.3665024 C13.3780711,19.373526 13.3389285,19.3865736 13.3023744,19.4052096 C13.2611042,19.41943 13.2218541,19.4389466 13.1856077,19.4632704 C13.152139,19.4872504 13.1200472,19.5130961 13.0894848,19.5406848 C13.0297912,19.6012784 12.9836183,19.6738359 12.9540096,19.7535744 C12.8852367,19.9097697 12.8852367,20.0876703 12.9540096,20.2438656 C12.986736,20.322015 13.0325512,20.3940104 13.0894848,20.4567552 C13.3438789,20.7062491 13.7511611,20.7062491 14.0055552,20.4567552 C14.1233316,20.333058 14.1901367,20.1695006 14.19264,19.99872 C14.1916207,19.9144175 14.174087,19.8311322 14.1410304,19.7535744 C14.1114217,19.6738359 14.0652488,19.6012784 14.0055552,19.5406848 L14.0055552,19.5406848 Z" id="Path" fill="#FFFFFF"></path>
                            </g>
                        </g>
                        <polygon id="Path" fill="#FFCD00" fill-rule="nonzero" points="35.2386207 9.03168 35.2386207 16.3279872 39.062069 12.4572672 39.062069 32.256 19.505131 32.256 22.0540966 29.67552 14.8468966 29.67552 7.2 37.41696 16.1213793 37.41696 19.9448276 37.41696 23.7682759 37.41696 27.5917241 37.41696 31.4151724 37.41696 35.2386207 37.41696 39.062069 37.41696 44.16 37.41696 44.16 32.256 44.16 28.38528 44.16 24.51456 44.16 20.64384 44.16 16.77312 44.16 12.9024 44.16 9.03168 44.16 0"></polygon>
                        <rect id="Rectangle-Copy-6" fill="#333E53" x="40.8" y="26.88" width="3.36" height="1.12"></rect>
                        <rect id="Rectangle-Copy-7" fill="#333E53" x="40.8" y="30.24" width="3.36" height="1.12"></rect>
                        <path d="" id="Rectangle-Copy-8" stroke="#333E53" stroke-width="0.896" fill="#333E53" transform="translate(20.080000, 35.873633) rotate(-90.000000) translate(-20.080000, -35.873633) "></path>
                        <path d="" id="Rectangle-Copy-9" stroke="#333E53" stroke-width="0.896" fill="#333E53" transform="translate(23.212500, 35.736367) rotate(-90.000000) translate(-23.212500, -35.736367) "></path>
                        <path d="" id="Rectangle-Copy-10" stroke="#333E53" stroke-width="0.896" fill="#333E53" transform="translate(26.572500, 35.736367) rotate(-90.000000) translate(-26.572500, -35.736367) "></path>
                        <path d="" id="Rectangle-Copy-11" stroke="#333E53" stroke-width="0.896" fill="#333E53" transform="translate(29.932500, 35.736367) rotate(-90.000000) translate(-29.932500, -35.736367) "></path>
                        <path d="" id="Rectangle-Copy-12" stroke="#333E53" stroke-width="0.896" fill="#333E53" transform="translate(33.292500, 35.736367) rotate(-90.000000) translate(-33.292500, -35.736367) "></path>
                        <path d="" id="Rectangle-Copy-13" stroke="#333E53" stroke-width="0.896" fill="#333E53" transform="translate(36.652500, 35.736367) rotate(-90.000000) translate(-36.652500, -35.736367) "></path>
                        <rect id="Rectangle-Copy-2" fill="#333E53" x="40.8" y="13.44" width="3.36" height="1.12"></rect>
                        <rect id="Rectangle-Copy-3" fill="#333E53" x="40.8" y="16.8" width="3.36" height="1.12"></rect>
                        <rect id="Rectangle-Copy-4" fill="#333E53" x="40.8" y="20.16" width="3.36" height="1.12"></rect>
                        <rect id="Rectangle-Copy-5" fill="#333E53" x="40.8" y="23.52" width="3.36" height="1.12"></rect>
                    </g>
                    <g id="Group-15" transform="translate(-8.800000, 32.800000)">
                        <g id="Group" transform="translate(44.976941, 75.940850) rotate(-174.000000) translate(-44.976941, -75.940850) translate(40.601941, 69.690850)" fill="#EAB27F" fill-rule="nonzero">
                            <path d="M5.81862972,6.02153808 C5.84019908,6.96438025 4.89550374,10.7171224 4.05402591,11.142953 C3.21254808,11.5687835 1.67142039,11.4319768 0.924492782,10.8562027 C0.177565171,10.2804287 0.780396825,6.48674126 0.978019179,5.56459051 C0.993584169,5.48838861 1.01320456,5.41307161 1.03679667,5.3389608 C1.15810581,4.93397679 1.38062589,4.56659026 1.68334904,4.27148578 C1.77531276,4.18282829 1.87422287,4.10167128 1.97913252,4.02879163 C2.33963698,3.77292907 2.76460766,3.62317124 3.20587558,3.59649269 L3.26086097,3.59649269 C3.45932512,3.58861827 3.65800458,3.60517489 3.85242795,3.64578994 C4.15281536,3.70793993 4.43896278,3.82561404 4.69616931,3.99276672 L4.71133769,4.00414301 C5.07161786,4.24036064 5.36328962,4.56734692 5.5569751,4.95216701 C5.68210303,5.19871473 5.76418224,5.46483091 5.79966924,5.73902693 C5.81171015,5.83272592 5.81804199,5.92707042 5.81862972,6.02153808 Z" id="Path"></path>
                            <path d="M6.9790111,1.67958816 C6.55050425,2.98027709 6.08028435,4.9161421 5.89826374,5.68783363 C5.85086254,5.87743843 5.82242182,6.00447365 5.81862972,6.02153808 L5.69159451,5.79211627 L5.42045964,5.30862403 L4.70564955,4.0117272 C4.70564955,4.0117272 4.70564955,4.0117272 4.70564955,4.0117272 C4.89082124,3.21481103 5.13676284,2.43324921 5.44131617,1.67390002 C5.70107475,0.940129441 6.224384,0.947713633 6.57894497,1.15248682 C6.85007984,1.28710622 7.02830835,1.53738456 6.9790111,1.67958816 Z" id="Path"></path>
                            <path d="M4.61463924,4.47057082 C4.61463924,4.47057082 4.97868046,2.27873933 5.35030587,0.576088225 C5.43183593,0.196878625 4.13683515,-0.572916863 3.83346747,0.716395777 C3.58595575,1.7297133 3.3897809,2.75488511 3.24569259,3.78799354 L4.61463924,4.47057082 Z" id="Path"></path>
                            <path d="M3.19639534,4.63742304 C3.19639534,4.63742304 3.19639534,2.53470581 3.2855096,0.887040097 C3.30447008,0.524894929 1.97723648,0.00158568056 1.88433012,1.25297736 C1.88433012,1.25297736 1.62836364,3.68750299 1.69472532,4.73601754 L3.19639534,4.63742304 Z" id="Path"></path>
                            <path d="M2.15144867,5.69406629 C2.15144867,5.69406629 1.49541606,4.05777686 1.04794873,2.74950374 C0.949354237,2.46320049 -0.248948099,2.47078469 0.0714840127,3.47379408 C0.0714840127,3.47379408 0.575832781,5.54807059 0.955042381,6.3425147 L2.15144867,5.69406629 Z" id="Path"></path>
                            <path d="M7.1648238,6.6699865 C6.48784056,7.11629018 5.77794143,7.51053773 5.04125004,7.84932835 L5.00901723,7.86449674 L3.92258172,7.52700019 L3.92258172,7.52700019 L2.81718574,7.1838155 C2.81718574,7.1838155 3.90362124,6.68705093 5.079171,6.1011721 C5.28204814,6.00068155 5.48871737,5.89829496 5.69159451,5.79211627 L5.7977732,5.73902693 L5.89826374,5.68783363 C6.23196819,5.51150117 6.55429635,5.3389608 6.84628774,5.17400462 C7.17430404,4.98250378 8.30055656,5.98551317 7.1648238,6.6699865 Z" id="Path"></path>
                        </g>
                        <g id="Group" transform="translate(21.679994, 79.239403) scale(-1, 1) rotate(-156.000000) translate(-21.679994, -79.239403) translate(17.304994, 72.989403)" fill="#EAB27F" fill-rule="nonzero">
                            <path d="M5.81862972,6.02153808 C5.84019908,6.96438025 4.89550374,10.7171224 4.05402591,11.142953 C3.21254808,11.5687835 1.67142039,11.4319768 0.924492782,10.8562027 C0.177565171,10.2804287 0.780396825,6.48674126 0.978019179,5.56459051 C0.993584169,5.48838861 1.01320456,5.41307161 1.03679667,5.3389608 C1.15810581,4.93397679 1.38062589,4.56659026 1.68334904,4.27148578 C1.77531276,4.18282829 1.87422287,4.10167128 1.97913252,4.02879163 C2.33963698,3.77292907 2.76460766,3.62317124 3.20587558,3.59649269 L3.26086097,3.59649269 C3.45932512,3.58861827 3.65800458,3.60517489 3.85242795,3.64578994 C4.15281536,3.70793993 4.43896278,3.82561404 4.69616931,3.99276672 L4.71133769,4.00414301 C5.07161786,4.24036064 5.36328962,4.56734692 5.5569751,4.95216701 C5.68210303,5.19871473 5.76418224,5.46483091 5.79966924,5.73902693 C5.81171015,5.83272592 5.81804199,5.92707042 5.81862972,6.02153808 Z" id="Path"></path>
                            <path d="M6.9790111,1.67958816 C6.55050425,2.98027709 6.08028435,4.9161421 5.89826374,5.68783363 C5.85086254,5.87743843 5.82242182,6.00447365 5.81862972,6.02153808 L5.69159451,5.79211627 L5.42045964,5.30862403 L4.70564955,4.0117272 C4.70564955,4.0117272 4.70564955,4.0117272 4.70564955,4.0117272 C4.89082124,3.21481103 5.13676284,2.43324921 5.44131617,1.67390002 C5.70107475,0.940129441 6.224384,0.947713633 6.57894497,1.15248682 C6.85007984,1.28710622 7.02830835,1.53738456 6.9790111,1.67958816 Z" id="Path"></path>
                            <path d="M4.61463924,4.47057082 C4.61463924,4.47057082 4.97868046,2.27873933 5.35030587,0.576088225 C5.43183593,0.196878625 4.13683515,-0.572916863 3.83346747,0.716395777 C3.58595575,1.7297133 3.3897809,2.75488511 3.24569259,3.78799354 L4.61463924,4.47057082 Z" id="Path"></path>
                            <path d="M3.19639534,4.63742304 C3.19639534,4.63742304 3.19639534,2.53470581 3.2855096,0.887040097 C3.30447008,0.524894929 1.97723648,0.00158568056 1.88433012,1.25297736 C1.88433012,1.25297736 1.62836364,3.68750299 1.69472532,4.73601754 L3.19639534,4.63742304 Z" id="Path"></path>
                            <path d="M2.15144867,5.69406629 C2.15144867,5.69406629 1.49541606,4.05777686 1.04794873,2.74950374 C0.949354237,2.46320049 -0.248948099,2.47078469 0.0714840127,3.47379408 C0.0714840127,3.47379408 0.575832781,5.54807059 0.955042381,6.3425147 L2.15144867,5.69406629 Z" id="Path"></path>
                            <path d="M7.1648238,6.6699865 C6.48784056,7.11629018 5.77794143,7.51053773 5.04125004,7.84932835 L5.00901723,7.86449674 L3.92258172,7.52700019 L3.92258172,7.52700019 L2.81718574,7.1838155 C2.81718574,7.1838155 3.90362124,6.68705093 5.079171,6.1011721 C5.28204814,6.00068155 5.48871737,5.89829496 5.69159451,5.79211627 L5.7977732,5.73902693 L5.89826374,5.68783363 C6.23196819,5.51150117 6.55429635,5.3389608 6.84628774,5.17400462 C7.17430404,4.98250378 8.30055656,5.98551317 7.1648238,6.6699865 Z" id="Path"></path>
                        </g>
                        <g id="kids" transform="translate(2.006400, 0.000000)">
                            <path d="M37.1430206,25.6417399 C38.6176467,25.3152938 39.5505735,23.7579361 39.2180302,22.1631419 C38.885487,20.5683477 37.4244033,19.5380956 35.9482725,19.8630443 C34.4721416,20.187993 33.5407196,21.7483456 33.8762723,23.3416424 C34.211825,24.9349391 35.6683944,25.9681861 37.1430206,25.6417399 Z" id="Path" fill="#EAB27F" fill-rule="nonzero"></path>
                            <path d="M35.4143264,23.595264 C40.3872995,12.0357397 30.5114829,9.269568 22.7333229,9.269568 C22.4917651,9.269568 22.2502073,9.269568 22.010208,9.28339886 C28.5759039,10.7586904 33.7421232,16.0958651 35.4127679,23.595264 L35.4143264,23.595264 Z" id="Path" fill="#3C2708"></path>
                            <path d="M29.2803565,38.1056163 C30.8532162,37.9889744 32.2198982,37.8404783 33.3804023,37.660128 C34.2184282,37.529893 35.5463333,37.2165127 36.7283656,37.710288 C38.0016636,38.2421881 39.1069661,39.6016162 39.285312,39.9658617 C39.5145845,40.4341172 39.5935288,41.1567938 39.5221449,42.1338916 L35.9509609,44.4551972 C38.9566021,52.8883309 40.4012661,64.4335126 40.453888,71.44 C37.6841139,70.2236042 32.9874453,72.5257423 29.5944,72.2 C25.7656663,71.8324304 23.1273055,69.0173048 17.9480675,70.946304 C18.0842654,59.9721014 17.5286397,55.8900072 17.3088657,48.0705014 L14.7491953,48.6870665 L12.058464,45.1993523 C13.2601989,42.7540551 14.5590977,41.3228108 15.9551606,40.9056194 C17.3512235,40.4884279 19.5039012,39.9822116 22.4131936,39.3869704 L29.2803565,38.1056163 Z" id="Path" fill="#FF514F"></path>
                            <path d="M37.5953144,50.5081925 C38.149705,52.5877603 38.6271406,54.7574924 39.02448,56.8370602 C36.5789811,56.2895257 34.079523,55.953279 31.5724023,55.9546054 C26.617667,55.9355582 22.2132984,57.0453304 17.7445898,59.1665121 C17.6566412,57.0153425 17.3636872,54.0011167 17.2616039,51.9246621 C21.6706041,49.8748796 26.176354,49.8609295 31.0462809,49.8793412 C33.2444962,49.8759512 35.4378332,50.0844745 37.5953144,50.5019663 L37.5953144,50.5081925 Z" id="Path" fill="#FF6600"></path>
                            <path d="M23.613035,38.3444728 L23.3586113,36.012434 L26.8417924,34.550208 L27.7337896,37.1204659 C28.9014125,37.1847223 29.7873521,37.6392191 29.9781698,38.3742502 C30.2704541,39.5120595 28.8256912,40.8974912 26.7524412,41.467963 C24.6791913,42.0384349 22.7619273,41.5792364 22.4696429,40.4414271 C22.2909406,39.7518457 22.7528407,38.9697978 23.6069773,38.3366367 L23.613035,38.3444728 Z" id="Path" fill="#EAB27F" fill-rule="nonzero"></path>
                            <path d="M27.909024,38.6940189 C26.5243807,38.8199142 25.129231,38.7749596 23.7558621,38.5601954 L23.695584,38.0442315 L27.1615754,36.656928 L27.9029962,38.6940189 L27.909024,38.6940189 Z" id="Path" fill="#E79F79"></path>
                            <path d="M14.4249503,8.2036736 C23.3642744,5.80612903 32.3824886,10.5793798 34.5682067,18.8686132 C35.38031,21.9431483 35.9944149,25.8335036 34.9116104,28.670936 C33.0754834,33.4831839 31.6956812,35.9259652 26.1470819,37.6933158 C14.5904647,41.3715267 5.81820181,35.0415099 3.63248369,26.7522764 C1.44676558,18.4630429 5.48871989,10.6012182 14.4249503,8.2036736 L14.4249503,8.2036736 Z" id="Path" fill="#EAB27F" fill-rule="nonzero"></path>
                            <path d="M23.204832,21.909888 L23.2320201,22.3543267 C23.3241579,23.8703735 23.4404629,25.7503335 24.7832572,25.9609386 L25.0355031,25.9965557 C26.0444869,26.1405724 27.2513403,26.3155604 27.4718667,27.7913445 C27.5194863,28.0871158 27.4586903,28.3904921 27.3011853,28.6430562 C27.0504498,29.0565235 26.5806984,29.3522998 26.1064156,29.5505163 C25.7231392,29.7116793 25.3233663,29.8280401 24.9146668,29.8973953 C24.807604,29.9238246 24.6956676,29.9211557 24.589919,29.8896525 L24.7711736,29.5799391 C24.7877886,29.5892305 24.7832572,29.5520649 24.8602904,29.5396764 C25.2416933,29.4741941 25.6149764,29.366186 25.9734956,29.2175745 C26.3888706,29.0394893 26.7966934,28.7870729 27.0036257,28.4432911 C27.1156943,28.2631974 27.1592409,28.0471358 27.1259726,27.8362529 C26.9507598,26.631468 25.8783369,26.4874513 24.9871686,26.352726 L24.7349226,26.3155604 C23.1066524,26.0646926 22.9827951,24.0236816 22.8815946,22.3775552 L22.852896,21.9331165 L23.204832,21.909888 L23.204832,21.909888 Z" id="Path" fill="#D08158"></path>
                            <path d="M20.3671656,11.1107639 C24.3098956,10.5819556 36.4665166,12.3343113 37.9981575,17.637901 C38.424651,10.6594935 32.9798545,4.59758354 19.2791403,4.44095706 C18.4375679,4.43165252 17.6276454,4.45388004 16.8493726,4.50763962 C17.0025655,4.37978361 17.1476057,4.24253366 17.2836488,4.09668896 C18.3047427,2.99410058 18.1817756,2.37844996 18.6985488,0.995174526 C18.7172273,0.945550295 19.0487715,-0.132225971 18.8931169,0.0135452071 C18.0479127,0.796677602 17.0112533,1.17661312 16.4851409,2.40171132 C16.1598229,3.1600316 16.2952424,3.41590654 15.7193205,4.19593742 C15.7115378,4.19593742 15.6290409,3.17864069 15.4080114,2.69945671 C15.0733541,2.01557278 14.9099168,1.55034561 14.3262122,1.05565406 C14.2297064,0.975014682 14.3495604,2.87159076 14.456962,3.27013536 C14.5373398,3.59490715 14.5976395,3.92428658 14.6375213,4.25641696 C14.7075659,3.95557005 13.0093746,2.9026059 12.7416488,2.75528397 C11.9913938,2.33968103 11.7999387,2.33502876 11.0294486,2.13498108 C10.8831334,2.09776291 12.4552444,3.77723297 12.7914582,4.15096546 C13.2023863,4.61619263 13.3611539,4.66116459 13.8359003,4.89532893 L13.7705254,4.90618423 C13.3860587,4.85500924 12.0707776,4.6317002 11.5913616,4.44871085 C10.9952046,4.22385105 10.6294164,4.20369121 10.0939647,3.89819204 C9.61610525,3.62370801 9.89628346,4.00519429 10.0939647,4.3417086 C10.3747914,4.8505598 10.7975723,5.26745938 11.3111834,5.54199469 C-6.24353773,11.2906517 0.700212133,37.5573775 10.4924404,36.6331261 C8.85339792,36.3617436 8.753779,27.8604926 11.4263678,25.8724218 C22.4295885,17.689076 20.22552,11.1309237 20.3718353,11.1092131 L20.3671656,11.1107639 Z" id="Path" fill="#3C2708"></path>
                            <polygon id="Path" fill="#3C2708" points="13.3294107 25.701984 12.74064 24.7743242 16.6319224 21.488544 16.95408 23.1100383 13.3294107 25.701984"></polygon>
                            <polygon id="Path" fill="#3C2708" points="25.6937415 18.539136 25.38096 17.1706282 29.1707785 16.432416 29.5944 17.7195953 25.6937415 18.539136"></polygon>
                            <path d="M18.5818653,28.1900102 C19.2498807,28.0024188 19.6296111,27.2112726 19.4281215,26.4168639 C19.2266319,25.6224552 18.5229683,25.1330864 17.8565028,25.3206778 C17.1900373,25.5082692 16.8072071,26.2994154 17.0071468,27.0938241 C17.2070864,27.8882328 17.9122999,28.3776016 18.5818653,28.1900102 Z" id="Path" fill="#000000"></path>
                            <path d="M28.6942127,23.555846 C29.3621603,23.3683139 29.7418521,22.5774176 29.540383,21.7832599 C29.3389139,20.9891021 28.6353218,20.4982572 27.9673742,20.6857893 C27.2994266,20.8733214 26.9197348,21.6642177 27.1196541,22.4583755 C27.3195735,23.2525332 28.0247154,23.7417474 28.6942127,23.555846 Z" id="Path" fill="#000000"></path>
                            <g id="Path" transform="translate(20.831552, 29.579456)">
                                <g id="Group-2" transform="translate(4.809759, 4.193039) rotate(-24.000000) translate(-4.809759, -4.193039) translate(1.059759, 1.693039)">
                                    <mask id="mask-9" fill="white">
                                        <use xlink:href="#path-8"></use>
                                    </mask>
                                    <use id="Mask" fill="#5D262C" xlink:href="#path-8"></use>
                                    <path d="M6.08,3.85920322 C4.1781109,5.32369926 1.64148375,5.01132753 -5.81934501e-13,3.48192308 C1.82283748,2.16549935 4.36876482,2.13913031 6.08,3.85920322 Z" id="Path" fill="#F27D73" mask="url(#mask-9)"></path>
                                    <path d="M1.023872,-0.019456 L6.501344,0.0633769608 C5.04716154,2.4172136 2.17272241,1.99614605 1.023872,-0.019456 Z" id="Path" fill="#FFF6F0" mask="url(#mask-9)"></path>
                                </g>
                            </g>
                            <path d="M10.0425422,38.6375518 C11.9562472,38.1385025 13.1172283,36.2811036 12.6292335,34.4876453 C12.1412387,32.6941871 10.1924491,31.6446241 8.27555453,32.148352 C6.35865999,32.6520798 5.2024632,34.5063597 5.68886323,36.2982584 C6.17526326,38.0901571 8.12724239,39.1412796 10.0425422,38.6375518 L10.0425422,38.6375518 Z" id="Path" fill="#EAB27F" fill-rule="nonzero"></path>
                        </g>
                        <path d="M34.4675858,40.2108791 C33.3897384,40.4999783 32.5532678,41.3598505 32.2852159,42.4543043 C32.0171639,43.5487582 32.3601095,44.7039442 33.1799684,45.4682097 C33.1799684,45.4682097 33.2618085,45.5564755 33.3654726,45.6612911 C33.5564328,45.8433393 33.8019531,46.075037 34.0474733,46.3288011 C34.7785782,47.0845769 35.575155,47.9837845 36.420836,48.9878078 C38.9648614,52.0557717 41.1507692,55.4099277 42.9353071,58.9839076 C45.1845279,63.449859 46.6327798,68.2836725 47.2128158,73.2608979 C47.2475234,73.4075919 47.2931193,73.5514314 47.349216,73.6911936 C47.4965282,73.6911936 49.5643544,74.2980209 50.6228196,74.2428548 C52.9361662,74.0773564 53.2778977,72.8561227 53.2526145,72.5547717 C52.5942398,66.8759603 50.9446036,61.3602971 48.3804011,56.2642182 C46.38902,52.2624533 43.9447228,48.5080732 41.0966331,45.0765303 C40.1472881,43.9290752 37.7810445,40.9122013 37.5464363,40.7191199 C37.2437234,40.4482719 35.7447402,39.4671402 35.3601322,39.3413905 C34.8008483,39.1283257 35.0511995,40.0806138 34.4675858,40.2108791 Z" id="Path" fill="#FF514F" transform="translate(42.724705, 56.778422) rotate(13.000000) translate(-42.724705, -56.778422) "></path>
                        <path d="M10.3058895,44.2117901 C9.22804209,44.5008893 8.39157147,45.3607615 8.1235195,46.4552154 C7.85546753,47.5496692 8.19841315,48.7048552 9.01827204,49.4691208 C9.01827204,49.4691208 9.10011213,49.5573865 9.20377624,49.6622022 C9.39473645,49.8442503 9.64025672,50.075948 9.88577699,50.3297121 C10.6168818,51.0854879 11.4134587,51.9846955 12.2591396,52.9887188 C14.8031651,56.0566827 16.9890728,59.4108387 18.7736108,62.9848187 C21.0228315,67.4507701 22.4710835,72.2845835 23.0511195,77.2618089 C23.085827,77.4085029 23.1314229,77.5523424 23.1875196,77.6921046 C23.3348318,77.6921046 25.4026581,78.2989319 26.4611232,78.2437658 C28.7744698,78.0782674 29.1162013,76.8570337 29.0909181,76.5556827 C28.4325435,70.8768713 26.7829072,65.3612081 24.2187048,60.2651292 C22.2273237,56.2633643 19.7830265,52.5089842 16.9349368,49.0774413 C15.9855917,47.9299862 15.1957152,46.3138362 14.3500343,45.4477282 C13.8371697,44.896067 13.3339728,45.1330642 13.0993645,44.9399828 C12.7966517,44.6691348 12.4418754,44.4644219 12.0572674,44.3386722 C11.4979834,44.1256074 10.8895031,44.0815248 10.3058895,44.2117901 Z" id="Path-Copy" fill="#FF514F" transform="translate(18.563009, 61.192911) scale(-1, 1) rotate(31.000000) translate(-18.563009, -61.192911) "></path>
                    </g>
                    <g id="niña" transform="translate(29.600000, 21.600000)">
                        <path d="M41.75168,53.096 L45.01904,47.336 L32.40032,32.97488 C33.36944,31.96688 33.17504,30.27632 32.8712,29.16032 C32.61488,28.21568 32.35712,27.60368 31.8704,28.94144 C31.54784,29.82704 31.61696,30.77168 31.48304,30.87968 C31.21232,31.09712 30.33104,28.99616 27.9968,26.94848 C27.97088,26.92544 25.9808,26.7368 28.3784,29.1704 C30.992,31.81856 25.376,26.49344 25.35872,29.06816 C25.35872,29.08112 27.95792,31.04096 28.23872,31.22816 C26.19104,30.80912 24.80864,29.4944 24.8,31.15184 C24.8,31.4888 28.31936,32.67392 27.15728,32.76464 C26.92832,32.78192 26.26016,32.4968 25.628,32.44064 C25.484,32.42768 24.07424,32.72864 26.1464,33.73664 C26.96288,34.13408 30.13232,35.32064 30.23456,35.4488 C32.61344,39.3728 34.38176,44.10032 36.82544,47.6456 C38.04512,49.41392 40.2224,51.3896 41.75168,53.10032 L41.75168,53.096 Z" id="Path" fill="#FBC9A6"></path>
                        <path d="M50.50544,59.57312 C54.67136,62.88512 78.512,62.02112 80.57984,54.97952 C83.95952,43.4696 80.096,31.424 74.9912,21.47648 C72.70736,17.024 49.79984,19.46048 49.78112,19.44896 C44.15072,29.80832 39.60752,39.86096 52.78496,42.92096 L50.50544,59.57312 Z" id="Path" fill="#3D1B1B"></path>
                        <path d="M62.06,65.19056 C66.22592,68.50256 78.512,62.02256 80.57984,54.97952 C83.96096,43.4696 80.096,31.424 74.9912,21.47648 C72.70736,17.024 56.07536,17.99744 56.05808,17.9888 C50.432,28.34816 48.46784,40.532 61.64672,43.592 L62.06,65.192 L62.06,65.19056 Z" id="Path" fill="#3D1B1B"></path>
                        <path d="M72.23504,63.89744 C72.4424,63.78416 72.64928,63.66608 72.85568,63.5432 C76.8632,58.09712 76.72784,53.56256 74.81408,49.39952 C73.41584,46.35536 71.06,43.51712 68.68832,40.66304 C63.26528,34.13696 57.7616,27.51152 63.68,18.16736 C63.51296,18.16736 63.33872,18.18752 63.17024,18.19328 C55.62176,28.0904 60.72224,35.35376 65.80832,42.57392 C67.60256,45.12272 69.39104,47.66864 70.60784,50.31392 C72.5,54.42944 72.99968,58.80992 69.93968,63.90608 C69.88064,64.20272 69.81584,64.48208 69.74528,64.7456 C73.36832,59.2232 72.89312,54.5072 70.86272,50.08784 C69.63584,47.41952 67.83872,44.86496 66.04016,42.31184 C61.19744,35.43584 56.336,28.52384 62.672,19.35248 C57.92,28.23728 63.2336,34.63664 68.4752,40.95248 C70.83392,43.79504 73.18112,46.616 74.56496,49.63136 C76.48016,53.79872 76.55072,58.3592 72.2408,63.90464 L72.23504,63.89744 Z M75.18416,61.97216 C75.66944,61.59776 76.13744,61.20752 76.5824,60.8 C77.00096,60.28832 77.3816,59.78672 77.72432,59.2952 C78.6552457,57.6636823 79.4545794,55.9605237 80.11472,54.20192 C80.6432,51.85328 80.28608,49.72784 79.37168,47.7392 C77.88416,44.50496 74.912,41.648 71.90816,38.768 C65.96384,33.05264 59.89568,27.21776 65.22656,18.176 L64.91408,18.176 C59.56736,27.392 65.696,33.28448 71.70656,39.056 C74.69456,41.936 77.648,44.76992 79.11824,47.96528 C80.89808,51.84032 80.4704,56.26544 75.18416,61.97216 L75.18416,61.97216 Z" id="Shape" fill="#301919"></path>
                        <path d="M73.66928,55.21136 L71.15072,49.07984 L85.47152,36.42368 C84.63632,35.30192 85.03952,33.6488 85.48304,32.57744 C85.85456,31.67456 86.1872,31.09856 86.50256,32.48528 C86.71136,33.40688 86.5256,34.33568 86.64656,34.45808 C86.88704,34.7072 88.01888,32.73008 90.59792,31.00208 C90.62672,30.98192 92.62832,31.04384 89.93984,33.16208 C87.01808,35.46608 93.25184,30.884 92.948,33.43856 C92.948,33.45152 90.12272,35.07008 89.8232,35.22128 C91.904,35.06144 93.43904,33.92528 93.24032,35.57552 C93.20144,35.91248 89.55968,36.644 90.70016,36.88016 C90.9248,36.9248 91.62464,36.72752 92.25824,36.74912 C92.40224,36.75632 93.76304,37.22576 91.58288,37.9688 C90.71888,38.2568 87.42848,39.04304 87.31184,39.15248 C84.45776,42.75248 82.11056,47.21648 79.24784,50.4248 C77.81648,52.02752 75.40736,53.71088 73.67648,55.22 L73.66928,55.21136 Z" id="Path" fill="#FBC9A6"></path>
                        <g id="paint" transform="translate(20.446221, 20.928312) rotate(40.000000) translate(-20.446221, -20.928312) translate(6.071221, 6.553312)" fill-rule="nonzero">
                            <path d="M17.2077543,1.71511212 C16.6855861,1.65777109 16.1585169,1.62488032 15.6219726,1.645192 C11.4389636,1.79597767 7.77441984,4.28151799 5.73954843,6.55811477 L5.73873161,17.8093723 L6.44866039,17.8899111 C8.5888476,18.133978 10.0701303,18.8144467 10.8526475,19.9136192 C11.7173371,21.1285085 11.4868295,22.5531581 11.3958898,22.9615699 C11.092957,24.3182053 11.8928453,25.699291 13.2632578,25.963234 C14.0378246,26.1116236 14.8163666,26.1849744 15.5892997,26.1849744 C16.133631,26.1849744 16.6726258,26.1356382 17.2078088,26.0642478 C23.258676,25.2567359 27.9307991,20.1092213 27.8809728,13.8424948 C27.8263001,7.17879194 22.4429958,2.28955706 17.2077543,1.71511212 Z" id="Path" fill="#FABE2C"></path>
                            <path d="M27.8809184,13.8425493 C27.8263001,7.17879194 22.4429958,2.28955706 17.2077543,1.71511212 L17.2077543,26.0643023 C23.2586215,25.2567359 27.9307446,20.1092758 27.8809184,13.8425493 Z" id="Path" fill="#FF9100"></path>
                            <path d="M18.4616877,11.0538584 C17.5068752,10.0974667 17.5068752,8.54277874 18.4608709,7.58714937 C19.4180795,6.63152 20.9719506,6.63152 21.9275799,7.58714937 C22.8832093,8.54277874 22.8832093,10.0974667 21.9275799,11.0530416 L21.9275799,11.0538584 C20.9721139,12.0077997 19.4173716,12.0079086 18.4616877,11.0538584 L18.4616877,11.0538584 Z" id="Path" fill="#622F95"></path>
                            <path d="M11.5162896,8.26195473 C11.1685949,6.97066524 11.9269341,5.61528231 13.2488273,5.26186989 C14.5506266,4.91330395 15.8995294,5.68863309 16.2496745,6.99440758 C16.6005275,8.30067217 15.8263964,9.64478293 14.5171368,9.99525479 C13.2049366,10.3469247 11.8655634,9.56838268 11.5162896,8.26195473 L11.5162896,8.26195473 Z" id="Path" fill="#0171FF"></path>
                            <path d="M8.62789178,14.6162992 C7.32211728,14.2660996 6.5451545,12.9196473 6.89529963,11.615452 C7.24326656,10.313925 8.58116946,9.52988305 9.89538447,9.88291429 C11.2043173,10.2328416 11.9803544,11.5747197 11.628739,12.8837615 C11.2772869,14.1968874 9.9306168,14.9653008 8.62789178,14.6162992 L8.62789178,14.6162992 Z" id="Path" fill="#00A3FF"></path>
                            <path d="M21.2520122,17.9984397 C19.94651,17.6490025 19.1671512,16.3090848 19.5194745,14.9975925 C19.8707088,13.6854468 21.2175967,12.9155632 22.5203217,13.2650548 C23.8260962,13.6152544 24.603059,14.9617067 24.2528594,16.265902 C23.9029321,17.5749438 22.5578412,18.349674 21.2520122,17.9984397 L21.2520122,17.9984397 Z" id="Path" fill="#FA4538"></path>
                            <path d="M4.95539761,0.00021781968 C2.93011027,0.00021781968 2.50492626,7.6063175 2.50492626,13.940677 C2.50492626,14.2253673 2.50852029,14.4865876 2.51069848,14.7575008 L4.24062234,15.5743246 L4.95539761,15.5743246 L6.11251017,15.5743246 L7.40047791,14.7575008 C7.40249274,14.4864787 7.40586895,14.2299415 7.40586895,13.940677 C7.40586895,7.60626305 6.98068494,0.00021781968 4.95539761,0.00021781968 Z" id="Path" fill="#B35324"></path>
                            <path d="M7.40047791,14.7575008 C7.40249274,14.4864787 7.40586895,14.2299415 7.40586895,13.940677 C7.40586895,7.6063175 6.98068494,0.000217819677 4.95539761,0.000217819677 L4.95539761,15.5743246 L6.11251017,15.5743246 L7.40047791,14.7575008 Z" id="Path" fill="#99341F"></path>
                            <path d="M4.95539761,14.7575008 L2.51069848,14.7575008 C2.53988632,18.3697134 2.74692392,20.7426954 2.75857727,20.9610596 L4.95539761,20.9610596 L7.15221794,20.9610596 C7.17367317,20.5622318 7.37346827,18.5261624 7.40047791,14.7575008 L4.95539761,14.7575008 Z" id="Path" fill="#FFF7E6"></path>
                            <path d="M7.40047791,14.7575008 L4.95539761,14.7575008 L4.95539761,20.9610596 L7.15221794,20.9610596 C7.17361872,20.5621773 7.37346827,18.5261079 7.40047791,14.7575008 L7.40047791,14.7575008 Z" id="Path" fill="#FFCCB3"></path>
                            <path d="M4.95539761,19.6584435 C3.15342989,19.6584435 1.68810248,21.1237709 1.68810248,22.9257386 L1.68810248,24.5593862 C1.68810248,25.4599616 0.900575446,26.2474887 -3.1683594e-12,26.2474887 L0.00882712884,26.2580084 C0.61979183,26.8634193 1.07086011,27.2374529 1.36203196,27.3801091 C1.8070652,27.598148 2.46030456,27.765157 3.32175004,27.8811362 C3.89739299,27.8811362 4.44188772,27.7631869 4.95539761,27.5801094 C6.85287925,26.9035615 8.22269273,25.0526388 8.22269273,22.9257386 C8.22269273,21.1237709 6.75736532,19.6584435 4.95539761,19.6584435 Z" id="Path" fill="#474F54"></path>
                            <path d="M8.22269273,22.9257386 C8.22269273,21.1237709 6.75736532,19.6584435 4.95539761,19.6584435 L4.95539761,27.5801094 C6.85287925,26.9035615 8.22269273,25.0526388 8.22269273,22.9257386 Z" id="Path" fill="#32393F"></path>
                            <circle id="Oval" fill="#FFF7E6" cx="17.2077543" cy="20.4752673" r="2.45047134"></circle>
                            <path d="M19.6582257,20.4752673 C19.6582257,19.1218992 18.5611224,18.0247959 17.2077543,18.0247959 L17.2077543,22.9257386 C18.5611224,22.9257386 19.6582257,21.8286354 19.6582257,20.4752673 Z" id="Path" fill="#FFE6CC"></path>
                        </g>
                        <path d="M60.12752,51.88496 L53.99168,52.47536 L45.104,46.53104 L39.85088,54.4784 L48.08624,60.21392 C46.0616,68.30528 43.8656,78.66464 43.49984,85.57952 C51.764,94.18064 60.48176,84.36848 67.11584,87.31904 C66.00272,77.15984 66.47936,67.90784 65.97968,60.64016 L74.41808,57.04016 L70.91312,48.40016 L60.13472,51.88208 L60.12752,51.88496 Z" id="Path" fill="#7A3EB4"></path>
                        <path d="M47.58944,62.22992 C47.17184,63.95792 46.75136,65.768 46.3496,67.60112 C48.6389157,67.2730426 50.9488992,67.1103812 53.2616,67.1144 C58.04096,67.1144 62.49632,67.78976 66.25328,68.9576 C66.22448,67.07552 66.1928,65.2712 66.128,63.55904 C62.85776,62.19248 58.97408,61.39904 54.80672,61.39904 C52.3787602,61.3933571 49.9584709,61.6717291 47.5952,62.22848 L47.58944,62.22992 Z" id="Path" fill="#571795"></path>
                        <polygon id="Path" fill="#C29825" points="60.12752 51.88496 53.99168 52.47536 52.55456 51.51344 54.1112 56.984 61.8152 52.37888 61.79504 51.3464 60.12752 51.88496"></polygon>
                        <path d="M55.41008,46.70528 L59.09936,47.05232 C58.97696,51.12176 60.00512,51.27728 60.2024,52.09232 L54.72176,55.184 L53.76848,52.3256 C55.11344,51.8936 56.43392,51.12176 55.41008,46.7096 L55.41008,46.70528 Z" id="Path" fill="#FBC9A6"></path>
                        <path d="M60.77696,43.96496 L55.48496,20.66 C55.2992,20.90336 52.48544,20.71616 50.63504,21.54848 C46.52816,23.40032 46.81616,29.34464 42.82736,33.94544 C38.264,39.21008 45.15728,50.92304 55.60592,50.2088 C56.2928,50.16128 61.592,49.06688 61.63808,49.07264 C61.56608,49.06256 60.84896,43.97648 60.77408,43.96496 L60.77696,43.96496 Z" id="Path" fill="#FBC9A6"></path>
                        <path d="M50.576,35.22704 L50.5328,35.6 C50.41904,36.86 50.27792,38.42096 49.12736,38.56496 L48.90992,38.58944 C48.04592,38.68592 47.01344,38.80112 46.79168,40.02944 C46.7441927,40.2745342 46.7893476,40.5285306 46.9184,40.74224 C47.12144,41.09216 47.516,41.34704 47.91632,41.5256 C48.2394944,41.668691 48.577569,41.775426 48.92432,41.84384 C49.0149098,41.8678991 49.1102102,41.8678991 49.2008,41.84384 L49.0568,41.5832 C49.0424,41.59184 49.04816,41.56016 48.98336,41.5472 C48.6589338,41.4877787 48.342443,41.3911403 48.04016,41.2592 C47.6888,41.10224 47.34752,40.88336 47.17616,40.59824 C47.0845315,40.4451569 47.0522519,40.2637762 47.08544,40.08848 C47.26976,39.08048 48.18128,38.98112 48.94304,38.8976 L49.16192,38.87168 C50.5544,38.70032 50.70848,36.99968 50.83232,35.63744 L50.86688,35.27168 L50.5688,35.24288 L50.576,35.22704 Z" id="Path" fill="#E79F79"></path>
                        <polygon id="Path" fill="#3D1B1B" points="58.6184 38.5664 59.11808 37.79744 56.03504 34.9376 55.73696 36.2984 58.6184 38.5664"></polygon>
                        <polygon id="Path" fill="#3D1B1B" points="48.54272 32.51552 48.83936 31.3952 45.63968 30.6968 45.25232 31.74656 48.54272 32.51552"></polygon>
                        <path d="M54.2768,40.59248 C53.72528,40.42976 53.4272,39.79184 53.61152,39.1712 C53.79584,38.55056 54.392,38.1776 54.94352,38.34032 C55.49504,38.50304 55.79312,39.14096 55.6088,39.7616 C55.42448,40.38224 54.82832,40.7552 54.2768,40.59248 Z" id="Path" fill="#3D1B1B"></path>
                        <path d="M46.112,36.67424 C45.56048,36.51152 45.26384,35.87504 45.44672,35.25296 C45.6296,34.63088 46.2272,34.25936 46.77872,34.42208 C47.33024,34.5848 47.62976,35.22272 47.44544,35.84336 C47.26112,36.464 46.66496,36.83696 46.112,36.67424 Z" id="Path" fill="#3D1B1B"></path>
                        <path d="M61.1196802,17.91536 C59.76176,18.068 56.10272,21.22736 52.81232,21.59888 C47.74064,22.17488 47.35184,24.29312 45.75632,27.91616 C45.428,24.26432 46.0112,19.184 50.19296,18.09104 C53.99312,17.10032 61.12112,17.91536 61.1196802,17.91536 Z" id="Path" fill="#3D1B1B"></path>
                        <path d="M62.41424,49.51472 C60.62144,49.24688 59.432,47.28416 59.756,45.1328 C60.08,42.98144 61.7936,41.45792 63.5864,41.72864 C65.3792,41.99936 66.56864,43.9592 66.24608,46.11056 C65.92352,48.26192 64.2056,49.78544 62.41424,49.51472 L62.41424,49.51472 Z" id="Path" fill="#FBC9A6"></path>
                        <path d="M55.71536,50.19728 C56.73776,50.29376 58.16336,49.97408 59.04032,49.64864 C58.00064,50.48384 56.87312,51.3464 55.68944,51.84464 C55.7168,51.32912 55.79456,50.99792 55.71536,50.19728 Z" id="Path" fill="#E79F79"></path>
                        <polygon id="Path" fill="#571795" points="48.08624 60.21392 47.66144 59.91728 49.29296 54.45968 48.08624 60.21392"></polygon>
                        <path d="M48.0488,44.57696 L54.11696,43.11968 C54.59216,48.78752 49.11152,48.76592 48.0488,44.57696 Z" id="Path" fill="#5D262C"></path>
                        <path d="M53.46896,46.4 C52.58624,47.696 51.01088,47.88032 49.7552,47.08112 C50.6192,45.896 52.13696,45.48128 53.46896,46.4 Z" id="Path" fill="#F27D73"></path>
                        <path d="M48.48512,44.47184 L53.456,43.27808 C52.75616,45.9968 50.04608,46.23872 48.48224,44.47184 L48.48512,44.47184 Z" id="Path" fill="#FFF6F0"></path>
                    </g>
                </g>
            </g>
        </g>
    </g>
</svg>