<?xml version="1.0" encoding="UTF-8" standalone="no"?>
<svg
   xmlns:dc="http://purl.org/dc/elements/1.1/"
   xmlns:cc="http://creativecommons.org/ns#"
   xmlns:rdf="http://www.w3.org/1999/02/22-rdf-syntax-ns#"
   xmlns:svg="http://www.w3.org/2000/svg"
   xmlns="http://www.w3.org/2000/svg"
   xmlns:xlink="http://www.w3.org/1999/xlink"
   xmlns:sodipodi="http://sodipodi.sourceforge.net/DTD/sodipodi-0.dtd"
   xmlns:inkscape="http://www.inkscape.org/namespaces/inkscape"
   inkscape:version="1.0 (4035a4fb49, 2020-05-01)"
   sodipodi:docname="reforzamiento@2x.svg"
   id="svg1826"
   version="1.1"
   viewBox="0 0 311 366"
   height="366px"
   width="311px">
  <metadata
     id="metadata1830">
    <rdf:RDF>
      <cc:Work
         rdf:about="">
        <dc:format>image/svg+xml</dc:format>
        <dc:type
           rdf:resource="http://purl.org/dc/dcmitype/StillImage" />
        <dc:title>button_reforzamiento@2x</dc:title>
      </cc:Work>
    </rdf:RDF>
  </metadata>
  <sodipodi:namedview
     inkscape:current-layer="layer3"
     inkscape:window-maximized="1"
     inkscape:window-y="24"
     inkscape:window-x="5"
     inkscape:cy="82.044957"
     inkscape:cx="-46.053637"
     inkscape:zoom="1.4139871"
     showgrid="false"
     id="namedview1828"
     inkscape:window-height="1049"
     inkscape:window-width="2548"
     inkscape:pageshadow="2"
     inkscape:pageopacity="0"
     guidetolerance="10"
     gridtolerance="10"
     objecttolerance="10"
     borderopacity="1"
     bordercolor="#666666"
     pagecolor="#ffffff" />
  <title
     id="title1473">button_reforzamiento@2x</title>
  <defs
     id="defs1486">
    <rect
       rx="8"
       height="310"
       width="255"
       y="0"
       x="0"
       id="path-1" />
    <filter
       id="filter-3"
       filterUnits="objectBoundingBox"
       height="127.7%"
       width="133.7%"
       y="-13.2%"
       x="-16.9%">
      <feOffset
         id="feOffset1476"
         result="shadowOffsetOuter1"
         in="SourceAlpha"
         dy="2"
         dx="0" />
      <feGaussianBlur
         id="feGaussianBlur1478"
         result="shadowBlurOuter1"
         in="shadowOffsetOuter1"
         stdDeviation="14" />
      <feColorMatrix
         id="feColorMatrix1480"
         in="shadowBlurOuter1"
         type="matrix"
         values="0 0 0 0 0   0 0 0 0 0   0 0 0 0 0  0 0 0 0.06 0" />
    </filter>
    <path
       id="path-4"
       d="M3.00025,7.99927241 C2.74425,7.99927241 2.48825,7.90127241 2.29325,7.70627241 C1.90225,7.31527241 1.90225,6.68327241 2.29325,6.29227241 L5.59825,2.98727241 L2.41825,-0.305727588 C2.03525,-0.703727588 2.04625,-1.33672759 2.44325,-1.71972759 C2.84125,-2.10272759 3.47425,-2.09172759 3.85725,-1.69572759 L7.71925,2.30427241 C8.09825,2.69727241 8.09325,3.32027241 7.70725,3.70627241 L3.70725,7.70627241 C3.51225,7.90127241 3.25625,7.99927241 3.00025,7.99927241" />
    <path
       id="path-6"
       d="M-1.25055521e-13,53.9396648 C-1.25055521e-13,24.1495642 24.1495844,1.47792889e-13 53.9396849,1.47792889e-13 C83.7297855,1.47792889e-13 107.87935,24.1495642 107.87935,53.9396648 C107.87935,83.7297654 83.7297855,107.87933 53.9396849,107.87933 C24.1495844,107.87933 -1.25055521e-13,83.7297654 -1.25055521e-13,53.9396648 Z" />
    <path
       id="path-8"
       d="M0.602528,-2.3128166e-13 L7.344032,0.1166888 C6.31382759,6.33955864 0.583899143,4.79543014 0.602528,-2.3128166e-13 Z" />
    <filter
       x="-0.169"
       y="-0.132"
       width="1.337"
       height="1.277"
       filterUnits="objectBoundingBox"
       id="filter-3-6">
      <feOffset
         dx="0"
         dy="2"
         in="SourceAlpha"
         result="shadowOffsetOuter1"
         id="feOffset1476-7" />
      <feGaussianBlur
         stdDeviation="14"
         in="shadowOffsetOuter1"
         result="shadowBlurOuter1"
         id="feGaussianBlur1478-5" />
      <feColorMatrix
         values="0 0 0 0 0   0 0 0 0 0   0 0 0 0 0  0 0 0 0.06 0"
         type="matrix"
         in="shadowBlurOuter1"
         id="feColorMatrix1480-3" />
    </filter>
    <mask
       id="mask-2"
       fill="#ffffff">
      <use
         height="100%"
         width="100%"
         y="0"
         x="0"
         xlink:href="#path-1"
         id="use1488" />
    </mask>
    <mask
       id="mask2072"
       fill="#ffffff">
      <use
         height="100%"
         width="100%"
         y="0"
         x="0"
         xlink:href="#path-1"
         id="use2070" />
    </mask>
    <mask
       id="mask-7"
       fill="#ffffff">
      <use
         height="100%"
         width="100%"
         y="0"
         x="0"
         xlink:href="#path-6"
         id="use1520" />
    </mask>
    <mask
       id="mask-9"
       fill="#ffffff">
      <use
         height="100%"
         width="100%"
         y="0"
         x="0"
         xlink:href="#path-8"
         id="use1729" />
    </mask>
    <mask
       id="mask2080"
       fill="#ffffff">
      <use
         height="100%"
         width="100%"
         y="0"
         x="0"
         xlink:href="#path-8"
         id="use2078" />
    </mask>
    <mask
       id="mask2084"
       fill="#ffffff">
      <use
         height="100%"
         width="100%"
         y="0"
         x="0"
         xlink:href="#path-1"
         id="use2082" />
    </mask>
  </defs>
  <g
     style="display:inline"
     inkscape:label="boton"
     id="layer3"
     inkscape:groupmode="layer">
    <g
       transform="translate(33.930121,36.031771)"
       id="Mask"
       style="fill:none;fill-rule:evenodd;stroke:none;stroke-width:1">
      <use
         height="100%"
         width="100%"
         y="0"
         x="0"
         fill="#000000"
         fill-opacity="1"
         filter="url(#filter-3)"
         xlink:href="#path-1"
         id="use1491"
         style="filter:url(#filter-3-6)" />
      <use
         height="100%"
         width="100%"
         y="0"
         x="0"
         fill="#ffffff"
         fill-rule="evenodd"
         xlink:href="#path-1"
         id="use1493" />
    </g>
    <rect
       transform="translate(33.930121,36.031771)"
       id="Rectangle"
       fill="#e4e9f2"
       fill-rule="nonzero"
       opacity="0.497466"
       mask="url(#mask-2)"
       x="0"
       y="0"
       width="255"
       height="88"
       style="stroke:none;stroke-width:1" />
    <g
       transform="translate(33.930121,36.031771)"
       id="atomo/-button/-primario/-228x48px/-active-copy-2"
       mask="url(#mask-2)"
       style="fill:none;fill-rule:evenodd;stroke:none;stroke-width:1">
      <g
         transform="translate(27,232)"
         id="Group">
        <g
           id="g1509">
          <rect
             id="rect1497"
             fill="#ff881d"
             x="0"
             y="0"
             width="200"
             height="48"
             rx="24" />
          <g
             id="Group-2"
             transform="translate(30.225131,16)">
            <g
               id="Group-3">
              <text
                 id="Ver-actividades"
                 font-family="Montserrat-Medium, Montserrat"
                 font-size="16px"
                 font-weight="400"
                 line-spacing="16"
                 fill="#ffffff"><tspan
                   x="0.29842931"
                   y="15"
                   id="tspan1499">Ver actividades</tspan></text>
              <g
                 id="Arrow_down"
                 transform="rotate(-90,75.798429,-61.798429)">
                <mask
                   id="mask-5"
                   fill="#ffffff">
                  <use
                     height="100%"
                     width="100%"
                     y="0"
                     x="0"
                     xlink:href="#path-4"
                     id="use1502" />
                </mask>
                <use
                   height="100%"
                   width="100%"
                   y="0"
                   x="0"
                   id="🎨-Icon-Сolor"
                   fill="#ffffff"
                   fill-rule="nonzero"
                   transform="rotate(90,5.00008,2.999636)"
                   xlink:href="#path-4" />
              </g>
            </g>
          </g>
        </g>
      </g>
    </g>
    <text
       y="36.031773"
       x="33.930122"
       id="Fichas-de-repaso"
       font-family="Montserrat-Medium, Montserrat"
       font-size="20px"
       font-weight="400"
       letter-spacing="0.416667"
       fill="#333e53"
       style="fill-rule:evenodd;stroke:none;stroke-width:1"><tspan
         x="83.641785"
         y="222.03177"
         id="tspan1513">Aplicaciones</tspan></text>
    <g
       id="reforzamiento-3-01"
       transform="translate(107.94156,60.031771)"
       style="fill:none;fill-rule:evenodd;stroke:none;stroke-width:1">
      <g
         id="g1531">
        <g
           id="Path-2">
          <g
             id="Path">
            <mask
               id="mask2108"
               fill="#ffffff">
              <use
                 height="100%"
                 width="100%"
                 y="0"
                 x="0"
                 xlink:href="#path-6"
                 id="use2106" />
            </mask>
            <use
               height="100%"
               width="100%"
               y="0"
               x="0"
               id="use1523"
               fill="#00a2aa"
               fill-rule="nonzero"
               xlink:href="#path-6" />
            <g
               id="g1527"
               mask="url(#mask-7)">
              <g
                 transform="translate(66.529593,90.487109)"
                 id="g1525" />
            </g>
          </g>
        </g>
      </g>
    </g>
    <g
       transform="translate(108.25012,63.975052)"
       id="Recurso-1"
       style="fill:none;fill-rule:evenodd;stroke:none;stroke-width:1">
      <line
         stroke-linejoin="round"
         stroke-linecap="round"
         stroke-width="0.5"
         stroke="#a1c2ff"
         id="line1534"
         y2="4.3790545"
         x2="101.37416"
         y1="4.3790545"
         x1="101.37416" />
      <line
         stroke-linejoin="round"
         stroke-linecap="round"
         stroke-width="0.5"
         stroke="#a1c2ff"
         id="line1536"
         y2="17.853697"
         x2="96.295654"
         y1="17.853697"
         x1="96.295654" />
      <rect
         rx="2.207762"
         height="50.371372"
         width="78.798485"
         y="0.19867679"
         x="14.315616"
         fill-rule="nonzero"
         fill="#ffffff"
         id="rect1538" />
      <rect
         rx="0.79906178"
         height="42.03511"
         width="72.220375"
         y="2.6971056"
         x="17.60331"
         opacity="0.569847"
         fill-rule="nonzero"
         fill="#001dff"
         id="rect1540" />
      <path
         fill-rule="nonzero"
         fill="#e5e5e5"
         id="path1542"
         d="m 14.321059,47.935541 c 0.06411,1.473123 1.27702,2.634446 2.751538,2.634509 H 90.35712 c 1.474518,-6.3e-5 2.687428,-1.161386 2.751538,-2.634509 z" />
      <path
         fill-rule="nonzero"
         fill="#ffffff"
         id="path1544"
         d="M -3.2916729e-6,71.978155 H 107.427 v 1.159402 c 0,0.751549 -0.60926,1.3608 -1.36081,1.3608 H 1.1267424 c -0.29930281,0 -0.58630737,-0.119083 -0.79769097,-0.330977 C 0.11766783,73.955486 -3.2916729e-6,73.668195 -3.2916729e-6,73.368893 Z" />
      <path
         fill-rule="nonzero"
         fill="#ffffff"
         id="path1546"
         d="M 91.508357,50.621756 H 15.918638 c -0.966293,2.59e-4 -1.87038,0.476737 -2.41678,1.273713 L 0.217728,71.259653 c -0.25195317,0.373691 -0.27776115,0.855729 -0.0671482,1.254186 0.2106129,0.398457 0.62345147,0.648639 1.0741402,0.650934 h 104.97756 c 0.45068,-0.0023 0.86352,-0.252477 1.07414,-0.650934 0.21061,-0.398457 0.1848,-0.880495 -0.0671,-1.254186 L 93.925138,51.887304 c -0.548229,-0.793876 -1.452006,-1.267138 -2.416781,-1.265548 z" />
      <path
         opacity="0.152134"
         fill-rule="nonzero"
         fill="#333e53"
         id="path1548"
         d="M 25.980394,63.230933 H 61.18429 c 0.382164,-0.0022 0.737508,0.196106 0.93623,0.522547 l 2.190888,3.551688 c 0.347429,0.568562 0.966654,0.914297 1.63296,0.911798 H 94.38781 c 0.229294,0.0032 0.442151,-0.11873 0.555436,-0.318111 0.113285,-0.199381 0.109025,-0.444628 -0.01112,-0.639954 l -8.3417,-13.531795 c -0.395912,-0.643946 -1.097492,-1.03646 -1.85341,-1.03693 H 22.230029 c -0.686808,3.7e-4 -1.322706,0.362263 -1.673784,0.95256 l -8.43696,14.233968 c -0.04084,0.0696 -0.04144,0.155708 -0.0016,0.225879 0.03986,0.07017 0.114121,0.113749 0.194819,0.114383 h 8.992167 c 0.677627,0.0025 1.305638,-0.354985 1.649289,-0.939014 l 2.08476,-3.508142 c 0.197636,-0.332369 0.554989,-0.536866 0.941674,-0.538877 z" />
      <path
         opacity="0.152134"
         fill-rule="nonzero"
         fill="#333e53"
         id="path1550"
         d="M 63.41328,67.20719 61.600694,64.265141 C 61.480542,64.069139 61.267222,63.949597 61.037323,63.949435 H 26.140968 c -0.234036,5.5e-4 -0.450352,0.124751 -0.568814,0.326592 l -1.744546,2.947493 c -0.121106,0.205239 -0.122955,0.459635 -0.0048,0.666612 0.118112,0.206977 0.338073,0.334797 0.576379,0.334937 h 38.439878 c 0.244775,0.0064 0.473075,-0.122895 0.59339,-0.336156 0.120316,-0.213261 0.112955,-0.475545 -0.01913,-0.681723 z" />
      <path
         style="mix-blend-mode:overlay"
         opacity="0.413299"
         fill-rule="nonzero"
         fill="#ffffff"
         id="path1552"
         d="m 88.824859,2.6971056 h -49.53312 c 1.946843,19.2276724 18.1314,33.8611554 37.457381,33.8676064 4.458482,0.0041 8.882076,-0.785731 13.06368,-2.332427 V 3.6959328 c 0,-0.5474134 -0.44056,-0.9928608 -0.987941,-0.9988272 z" />
      <path
         fill-rule="nonzero"
         fill="#f7f7f7"
         id="path1554"
         d="m 40.769568,0.1986768 1.009714,2.272536 c 0.602937,1.3527252 1.945481,2.2239391 3.426494,2.2235473 h 17.015443 c 1.481013,3.918e-4 2.823557,-0.8708221 3.426495,-2.2235473 l 1.009713,-2.272536 z" />
    </g>
    <path
       fill="#333e53"
       stroke-width="0.896"
       stroke="#333e53"
       id="Rectangle-Copy-8"
       d=""
       style="fill-rule:evenodd" />
    <path
       fill="#333e53"
       stroke-width="0.896"
       stroke="#333e53"
       id="Rectangle-Copy-9"
       d=""
       style="fill-rule:evenodd" />
    <path
       fill="#333e53"
       stroke-width="0.896"
       stroke="#333e53"
       id="Rectangle-Copy-10"
       d=""
       style="fill-rule:evenodd" />
    <path
       fill="#333e53"
       stroke-width="0.896"
       stroke="#333e53"
       id="Rectangle-Copy-11"
       d=""
       style="fill-rule:evenodd" />
    <path
       fill="#333e53"
       stroke-width="0.896"
       stroke="#333e53"
       id="Rectangle-Copy-12"
       d=""
       style="fill-rule:evenodd" />
    <path
       fill="#333e53"
       stroke-width="0.896"
       stroke="#333e53"
       id="Rectangle-Copy-13"
       d=""
       style="fill-rule:evenodd" />
    <text
       style="fill-rule:evenodd;stroke:none;stroke-width:1"
       fill="#333e53"
       letter-spacing="0.416667"
       font-weight="400"
       font-size="20px"
       font-family="Montserrat-Medium, Montserrat"
       id="text3535"
       x="161.66086"
       y="37.070198"><tspan
         id="tspan3533"
         y="223.07019"
         x="211.37251">de</tspan></text>
    <text
       y="62.494682"
       x="75.298355"
       id="text3539"
       font-family="Montserrat-Medium, Montserrat"
       font-size="20px"
       font-weight="400"
       letter-spacing="0.416667"
       fill="#333e53"
       style="fill-rule:evenodd;stroke:none;stroke-width:1"><tspan
         x="125.01001"
         y="248.49467"
         id="tspan3537">práctica</tspan></text>
  </g>
</svg>
