<?xml version="1.0" encoding="UTF-8"?>
<svg width="394px" height="84px" viewBox="0 0 394 84" version="1.1" xmlns="http://www.w3.org/2000/svg" xmlns:xlink="http://www.w3.org/1999/xlink">
    <!-- Generator: Sketch 63.1 (92452) - https://sketch.com -->
    <title>experiencias@2x</title>
    <desc>Created with Sketch.</desc>
    <defs>
        <path d="M3.6003,9.59912689 C3.2931,9.59912689 2.9859,9.48152689 2.7519,9.24752689 C2.2827,8.77832689 2.2827,8.01992689 2.7519,7.55072689 L6.7179,3.58472689 L2.9019,-0.366873106 C2.4423,-0.844473106 2.4555,-1.60407311 2.9319,-2.06367311 C3.4095,-2.52327311 4.1691,-2.51007311 4.6287,-2.03487311 L9.2631,2.76512689 C9.7179,3.23672689 9.7119,3.98432689 9.2487,4.44752689 L4.4487,9.24752689 C4.2147,9.48152689 3.9075,9.59912689 3.6003,9.59912689" id="path-1"></path>
        <path d="M6.51408,0.33552 C5.90016,3.78672 3.85488,6.22752 0.32736,6.87744 L0.32736,6.87744 C0.04704,6.92976 0.04704,7.33104 0.32736,7.3824 L0.32736,7.3824 C3.82224,8.02464 5.90352,10.46064 6.51552,13.884 L6.51552,13.884 C6.55392,14.1 6.78384,14.10096 6.7704,14.09616 L6.7704,14.09616 C6.89568,14.09616 7.0032,14.00592 7.0248,13.88352 L7.0248,13.88352 C7.33632,12.11808 8.21136,9.71952 10.61136,8.31888 L10.61136,8.31888 C11.37792,7.872 12.25872,7.55616 13.22832,7.37904 L13.22832,7.37904 C13.3512,7.356 13.44,7.24944 13.44,7.1256 L13.44,7.1256 C13.44,7.00176 13.35072,6.8952 13.22736,6.87312 L13.22736,6.87312 C12.80208,6.79632 12.38928,6.69168 12.00192,6.56208 L12.00192,6.56208 C9.15888,5.61264 7.55184,3.30528 7.02336,0.33552 L7.02336,0.33552 C6.99792,0.19488 6.88368,0.1248 6.76848,0.1248 L6.76848,0.1248 C6.65424,0.1248 6.53952,0.19488 6.51408,0.33552 L6.51408,0.33552 Z" id="path-3"></path>
        <path d="M0.32736,1.11744 C0.04704,1.16976 0.04704,1.57104 0.32736,1.6224 L0.32736,1.6224 C3.82224,2.26464 5.90352,4.70064 6.51552,8.124 L6.51552,8.124 C6.55392,8.33952 6.78384,8.34096 6.7704,8.33616 L6.7704,8.33616 C6.89568,8.33616 7.0032,8.24592 7.0248,8.12352 L7.0248,8.12352 C7.19712,7.14624 7.5432,5.97504 8.22384,4.8864 L8.22384,4.8864 C7.30032,2.33232 5.53488,0.74256 3.02832,0.1176 L3.02832,0.1176 C2.20032,0.62064 1.28208,0.94176 0.32736,1.11744 L0.32736,1.11744 Z" id="path-5"></path>
        <path d="M2.51376,0.2088 C2.40096,0.2088 2.30112,0.28176 2.26704,0.3888 L2.26704,0.3888 C1.95408,1.38288 1.29744,2.14368 0.2736,2.49216 L0.2736,2.49216 C0.0408,2.57136 0.0408,2.89872 0.2736,2.97792 L0.2736,2.97792 C1.29072,3.324 1.9512,4.07856 2.268,5.08272 L2.268,5.08272 C2.32608,5.26752 2.52192,5.26512 2.51472,5.26272 L2.51472,5.26272 C2.628,5.26224 2.72784,5.18928 2.76144,5.08176 L2.76144,5.08176 C2.9952,4.33056 3.40752,3.74928 3.98784,3.3552 L3.98784,3.3552 C4.62144,2.92368 4.93248,3.04896 4.93200055,2.73696 L4.93200055,2.73696 C4.93200055,2.62608 4.86096,2.52816 4.75488,2.49312 L4.75488,2.49312 C3.74928,2.16192 3.08448,1.41744 2.76096,0.3888 L2.76096,0.3888 C2.71008,0.22656 2.55216,0.20784 2.51952,0.20784 L2.51952,0.20784 C2.5152,0.20784 2.5128,0.20832 2.51376,0.2088 L2.51376,0.2088 Z" id="path-7"></path>
        <path d="M47.92368,0.48432 L5.74464,8.68368 C5.07792,8.81328 4.5816,9.37344 4.53312,10.04976 L4.53312,10.04976 L0.05856,38.17632 C-0.01296,39.1632 0.87264,39.94752 1.84272,39.75936 L1.84272,39.75936 L44.02176,31.56048 C44.68848,31.43136 45.1848,30.8712 45.2328,30.1944 L45.2328,30.1944 L49.70736,2.06784 C49.54416,1.22544 49.01088,0.45792 48.19344,0.45792 L48.19344,0.45792 C48.10656,0.45792 48.01632,0.46656 47.92368,0.48432 L47.92368,0.48432 Z" id="path-9"></path>
        <path d="M2.4912,0.3432 L0.35472,0.75936 L2.00304,9.24 L5.772,8.50752 L4.44096,1.6584 C4.2864,0.86352 3.58992,0.31248 2.80944,0.31248 L2.80944,0.31248 C2.7048,0.31248 2.59776,0.32256 2.4912,0.3432 L2.4912,0.3432 Z" id="path-11"></path>
        <path d="M1.5504,0.7176 C0.64944,0.8928 0.06048,1.76496 0.23568,2.66688 L0.23568,2.66688 L8.06256,42.93264 C8.12832,42.9216 8.19408,42.91248 8.25744,42.90336 L8.25744,42.90336 L9.9384,32.4576 L3.68832,0.30192 L1.5504,0.7176 Z" id="path-13"></path>
        <path d="M21.8016,2.86416 L0.1272,7.07712 L5.39568,34.18032 L5.49312,33.56976 C5.5416,32.89344 6.03792,32.33328 6.70464,32.20368 L6.70464,32.20368 L8.58864,31.83744 L40.88304,25.56 L38.68464,14.25168 L35.93712,0.11616 L21.8016,2.86416 Z" id="path-15"></path>
        <path d="M23.74464,0.19152 L1.12848,4.58784 C0.60768,4.68912 0.26784,5.19216 0.36912,5.71344 L0.36912,5.71344 C0.47088,6.23472 0.9744,6.5736 1.49472,6.4728 L1.49472,6.4728 L24.11136,2.07648 C24.6312,1.9752 24.97152,1.47216 24.87072,0.95088 L24.87072,0.95088 C24.78096,0.492 24.3792,0.17376 23.92944,0.17376 L23.92944,0.17376 C23.86848,0.17376 23.80656,0.17952 23.74464,0.19152 L23.74464,0.19152 Z" id="path-17"></path>
        <path d="M10.22928,0.47952 L0.80592,2.3112 C0.28608,2.41248 -0.05424,2.91552 0.04656,3.4368 L0.04656,3.4368 C0.14832,3.95808 0.65184,4.29696 1.17264,4.19616 L1.17264,4.19616 L10.596,2.364 C11.11632,2.2632 11.45664,1.75968 11.35536,1.23888 L11.35536,1.23888 C11.26608,0.78 10.86384,0.46176 10.4136,0.46176 L10.4136,0.46176 C10.35264,0.46176 10.2912,0.46752 10.22928,0.47952 L10.22928,0.47952 Z" id="path-19"></path>
        <path d="M23.58672,0.06816 L0.97104,4.46448 C0.45024,4.5648 0.10992,5.0688 0.21168,5.59008 L0.21168,5.59008 C0.31248,6.11088 0.81648,6.45024 1.3368,6.34896 L1.3368,6.34896 L23.95392,1.95264 C24.47376,1.85184 24.81408,1.34832 24.7128,0.82752 L24.7128,0.82752 C24.62352,0.36816 24.22176,0.0504 23.772,0.0504 L23.772,0.0504 C23.71104,0.0504 23.64912,0.05616 23.58672,0.06816 L23.58672,0.06816 Z" id="path-21"></path>
        <path d="M0.11136,3.1416 L11.5488,10.85616 C13.67904,7.69824 12.84528,3.4104 9.68736,1.28016 L9.68736,1.28016 C8.50464,0.4824 7.16352,0.10032 5.83728,0.10032 L5.83728,0.10032 C3.62064,0.10032 1.44384,1.1664 0.11136,3.1416 L0.11136,3.1416 Z" id="path-23"></path>
        <path d="M0.73872,1.53984 C0.70848,1.54992 0.67632,1.55712 0.64608,1.56336 L0.64608,1.56336 C0.57888,1.57632 0.51312,1.56768 0.44688,1.5648 L0.44688,1.5648 L0.00144,12.22368 L1.43712,10.09488 C1.704,9.69936 2.23872,9.5952 2.63424,9.86208 L2.63424,9.86208 C3.02928,10.12896 3.13344,10.66368 2.86704,11.05872 L2.86704,11.05872 L1.4304,13.188 L11.14128,8.78448 C11.10144,8.69664 11.06832,8.60352 11.06016,8.50272 L11.06016,8.50272 L10.69824,4.07376 L6.45696,5.39808 C6.4272,5.40768 6.396,5.41536 6.36576,5.42112 L6.36576,5.42112 L6.36432,5.42112 L6.36384,5.42112 C6.33312,5.42736 6.30192,5.43168 6.27072,5.43456 L6.27072,5.43456 C6.23712,5.43744 6.2064,5.424 6.17328,5.42256 L6.17328,5.42256 C6.10944,5.42016 6.048,5.4168 5.98752,5.4 L5.98752,5.4 C5.94096,5.38752 5.90016,5.36976 5.85648,5.352 L5.85648,5.352 C5.80176,5.32656 5.7504,5.2992 5.70192,5.26368 L5.70192,5.26368 C5.66304,5.23632 5.62992,5.20608 5.59632,5.17296 L5.59632,5.17296 C5.55456,5.1312 5.51856,5.08608 5.4864,5.0352 L5.4864,5.0352 C5.45856,4.99344 5.436,4.9512 5.41632,4.9032 L5.41632,4.9032 C5.40528,4.87776 5.38656,4.85808 5.37792,4.83072 L5.37792,4.83072 C5.36832,4.79952 5.37456,4.76736 5.36832,4.73568 L5.36832,4.73568 C5.3616,4.70352 5.34384,4.67712 5.34144,4.644 L5.34144,4.644 L4.98048,0.216 L0.73872,1.53984 Z" id="path-25"></path>
        <path d="M5.20656,26.65872 L1.25424,27.89232 L0.48144,29.0376 L0.44592,29.88528 C0.51216,29.88768 0.57744,29.89632 0.64464,29.88336 L0.64464,29.88336 C0.67536,29.8776 0.70752,29.86992 0.73824,29.85984 L0.73824,29.85984 L4.97952,28.536 L5.34096,32.964 C5.34384,32.9976 5.36112,33.024 5.36688,33.05616 L5.36688,33.05616 C5.37408,33.08832 5.36688,33.11952 5.37696,33.15072 L5.37696,33.15072 C5.38608,33.17808 5.40432,33.19824 5.41584,33.22416 L5.41584,33.22416 C5.43504,33.27024 5.45856,33.31392 5.48544,33.35568 L5.48544,33.35568 C5.5176,33.40464 5.5536,33.45168 5.59536,33.49296 L5.59536,33.49296 C5.62848,33.5256 5.66352,33.55728 5.70096,33.58416 L5.70096,33.58416 C5.74896,33.61872 5.80128,33.64656 5.85552,33.672 L5.85552,33.672 C5.89824,33.69072 5.94144,33.708 5.98656,33.72 L5.98656,33.72 C6.04656,33.73536 6.10896,33.74016 6.1728,33.74256 L6.1728,33.74256 C6.2064,33.744 6.23616,33.75648 6.26976,33.75456 L6.26976,33.75456 C6.30096,33.75216 6.33168,33.74784 6.36336,33.74112 L6.36336,33.74112 L6.36384,33.74112 L6.36432,33.74112 L6.36576,33.74112 L6.36672,33.74112 C6.396,33.73536 6.4272,33.72768 6.45792,33.71808 L6.45792,33.71808 L10.6992,32.39376 L11.06016,36.82272 C11.0688,36.92448 11.10144,37.01664 11.14128,37.10448 L11.14128,37.10448 L11.91888,36.75264 L12.69216,35.60736 L12.3552,31.4808 L30.02448,5.28336 L28.59504,4.31856 L10.92576,30.516 L6.97248,31.7496 L6.636,27.62256 L24.30672,1.42608 L22.87728,0.46176 L5.20656,26.65872 Z" id="path-27"></path>
        <path d="M13.95168,0.984 C12.816,2.08944 11.85504,3.3696 10.77696,4.5336 L10.77696,4.5336 C9.5832,5.81376 8.47632,7.09392 7.2528,8.34432 L7.2528,8.34432 C6.55392,9.0432 5.79648,9.79968 5.3304,10.67232 L5.3304,10.67232 C4.28208,9.65424 3.3792,8.5488 2.21424,7.64688 L2.21424,7.64688 C1.36896,7.00656 -0.02832,6.54096 0.00048,8.0832 L0.00048,8.0832 C0.05856,10.09056 1.83552,12.24384 3.1464,13.61088 L3.1464,13.61088 C3.69936,14.19312 4.42752,14.80416 5.2728,14.83248 L5.2728,14.83248 C6.29184,14.89104 7.34016,13.66944 7.95168,13.00032 L7.95168,13.00032 C9.02928,11.83632 9.90384,10.52688 10.8936,9.33408 L10.8936,9.33408 C12.1752,7.76304 13.4856,6.22128 14.7384,4.62096 L14.7384,4.62096 C15.52464,3.63168 18.00048,1.18752 16.0488,0.14016 L16.0488,0.14016 C15.90144,0.06096 15.75072,0.02688 15.6,0.02688 L15.6,0.02688 C14.976,0.02688 14.35104,0.60912 13.95168,0.984 L13.95168,0.984 Z M0.8448,7.87968 C0.93216,7.82112 1.07808,7.8504 1.2816,7.96656 L1.2816,7.96656 C1.2528,7.96656 1.224,7.96656 1.16496,7.99584 L1.16496,7.99584 C1.0488,7.96656 0.96144,7.93776 0.8448,7.87968 L0.8448,7.87968 Z" id="path-29"></path>
        <path d="M0.0770835539,0.200503007 L0.0770835539,3.00282121 L0,4.8 L1.67067897,4.05729907 L4.27064301,3.00282121 C4.56666527,2.57032258 3.45270085,0.712258065 3.01321753,0.420426463 L3.01321753,0.420426463 C2.71933648,0.225697102 1.64284324,0 0.870937098,0 L0.870937098,0 C0.485519329,0 0.176114509,0.0566867141 0.0770835539,0.200503007 L0.0770835539,0.200503007 Z" id="path-31"></path>
    </defs>
    <g id="experiencias" stroke="none" stroke-width="1" fill="none" fill-rule="evenodd">
        <g id="Group-5" transform="translate(21.600000, 13.200000)">
            <g id="atomo/-button/-primario/-228x48px" transform="translate(13.200000, 3.600000)">
                <g id="Group">
                    <rect id="Rectangle" fill="#A546A0" x="0" y="0" width="354" height="56.7887324" rx="28.3943662"></rect>
                    <g id="Group-2" transform="translate(67.000000, 16.800000)">
                        <g id="Group-3">
                            <g id="Group-4" transform="translate(0.113089, 0.000000)">
                                <text id="Carpeta-de-experienc" font-family="Montserrat-Medium, Montserrat" font-size="19.2" font-weight="400" line-spacing="24" fill="#FFFFFF">
                                    <tspan x="0.14" y="19">Carpeta de experiencias</tspan>
                                </text>
                                <g id="Arrow_down" transform="translate(253.200000, 13.200000) rotate(-90.000000) translate(-253.200000, -13.200000) translate(247.200000, 9.600000)">
                                    <mask id="mask-2" fill="white">
                                        <use xlink:href="#path-1"></use>
                                    </mask>
                                    <use id="🎨-Icon-Сolor" fill="#FFFFFF" fill-rule="nonzero" transform="translate(6.000096, 3.599563) rotate(-270.000000) translate(-6.000096, -3.599563) " xlink:href="#path-1"></use>
                                </g>
                            </g>
                        </g>
                    </g>
                </g>
            </g>
            <ellipse id="Oval" fill="#6A2988" cx="31.86" cy="31.4112676" rx="31.86" ry="31.4112676"></ellipse>
        </g>
        <g id="Group-20" transform="translate(10.800000, 2.400000)">
            <g id="Group-19">
                <g id="Group-55">
                    <g id="Group-6" transform="translate(65.280000, 0.000000)">
                        <mask id="mask-4" fill="white">
                            <use xlink:href="#path-3"></use>
                        </mask>
                        <g id="Clip-4"></g>
                        <polygon id="Fill-3" fill="#F4A32C" mask="url(#mask-4)" points="-2.28288 16.49712 15.84 16.49712 15.84 -2.2752 -2.28288 -2.2752"></polygon>
                        <polygon id="Fill-5" fill="#0173C4" mask="url(#mask-4)" points="-2.28288 16.49712 15.84 16.49712 15.84 -2.2752 -2.28288 -2.2752"></polygon>
                    </g>
                    <g id="Group-9" transform="translate(65.280000, 5.760000)">
                        <mask id="mask-6" fill="white">
                            <use xlink:href="#path-5"></use>
                        </mask>
                        <g id="Clip-8"></g>
                        <polygon id="Fill-7" fill="#0173C4" mask="url(#mask-6)" points="-2.28288 10.73712 10.62432 10.73712 10.62432 -2.2824 -2.28288 -2.2824"></polygon>
                    </g>
                    <g id="Group-12" transform="translate(62.400000, 11.040000)">
                        <mask id="mask-8" fill="white">
                            <use xlink:href="#path-7"></use>
                        </mask>
                        <g id="Clip-11"></g>
                        <polygon id="Fill-10" fill="#0173C4" mask="url(#mask-8)" points="-2.30112 7.6632 7.332 7.6632 7.332 -2.19168 -2.30112 -2.19168"></polygon>
                    </g>
                    <g id="Group-15" transform="translate(8.160000, 34.560000)">
                        <mask id="mask-10" fill="white">
                            <use xlink:href="#path-9"></use>
                        </mask>
                        <g id="Clip-14"></g>
                        <polygon id="Fill-13" fill="#EFCE4A" mask="url(#mask-10)" points="-8.124432 8.934864 51.244368 -2.605296 57.838608 31.319664 -1.530192 42.859824"></polygon>
                    </g>
                    <g id="Group-18" transform="translate(46.080000, 27.360000)">
                        <mask id="mask-12" fill="white">
                            <use xlink:href="#path-11"></use>
                        </mask>
                        <g id="Clip-17"></g>
                        <polygon id="Fill-16" fill="#EBBA16" mask="url(#mask-12)" points="-2.459568 -1.13904 6.021552 -2.78784 8.586192 10.40544 0.105072 12.05376"></polygon>
                    </g>
                    <g id="Group-21" transform="translate(0.000000, 29.280000)">
                        <mask id="mask-14" fill="white">
                            <use xlink:href="#path-13"></use>
                        </mask>
                        <g id="Clip-20"></g>
                        <polygon id="Fill-19" fill="#EBBA16" mask="url(#mask-14)" points="-2.895024 -0.862992 5.586096 -2.511792 14.648016 44.106768 6.166416 45.755568"></polygon>
                    </g>
                    <g id="Group-24" transform="translate(7.200000, 11.040000)">
                        <mask id="mask-16" fill="white">
                            <use xlink:href="#path-15"></use>
                        </mask>
                        <g id="Clip-23"></g>
                        <polygon id="Fill-22" fill="#F4EFDC" mask="url(#mask-16)" points="-2.686464 5.1792 37.835136 -2.6976 44.019456 29.11776 3.497856 36.99408"></polygon>
                    </g>
                    <g id="Group-27" transform="translate(15.360000, 25.440000)">
                        <mask id="mask-18" fill="white">
                            <use xlink:href="#path-17"></use>
                        </mask>
                        <g id="Clip-26"></g>
                        <polygon id="Fill-25" fill="#CEC9AE" mask="url(#mask-18)" points="-2.627856 2.873184 26.584944 -2.805696 27.867504 3.790944 -1.345776 9.469344"></polygon>
                    </g>
                    <g id="Group-30" transform="translate(14.400000, 21.120000)">
                        <mask id="mask-20" fill="white">
                            <use xlink:href="#path-19"></use>
                        </mask>
                        <g id="Clip-29"></g>
                        <polygon id="Fill-28" fill="#CEC9AE" mask="url(#mask-20)" points="-2.950368 0.596736 13.070112 -2.517504 14.352192 4.079136 -1.667808 7.193376"></polygon>
                    </g>
                    <g id="Group-33" transform="translate(16.800000, 32.160000)">
                        <mask id="mask-22" fill="white">
                            <use xlink:href="#path-21"></use>
                        </mask>
                        <g id="Clip-32"></g>
                        <polygon id="Fill-31" fill="#CEC9AE" mask="url(#mask-22)" points="-2.785824 2.74944 26.427456 -2.92896 27.709536 3.66768 -1.503264 9.34608"></polygon>
                    </g>
                    <polygon id="Fill-34" fill="#CEC9AE" points="4.866624 20.551344 11.275584 53.521104 12.595584 45.220464 7.693824 20.001264"></polygon>
                    <polygon id="Fill-35" fill="#D1BF86" points="2.40552 22.985664 9.95448 61.821024 11.27544 53.521344 5.23272 22.436064"></polygon>
                    <g id="Group-38" transform="translate(67.200000, 26.400000)">
                        <mask id="mask-24" fill="white">
                            <use xlink:href="#path-23"></use>
                        </mask>
                        <g id="Clip-37"></g>
                        <polygon id="Fill-36" fill="#D75A4A" mask="url(#mask-24)" points="-3.087696 -0.73968 13.182864 -3.9024 16.345584 12.36864 0.075024 15.53136"></polygon>
                    </g>
                    <polygon id="Fill-39" fill="#ED8A19" points="54.595008 68.43984 54.931488 72.56688 74.408928 43.68864 72.264288 42.2424"></polygon>
                    <polygon id="Fill-40" fill="#ED8A19" points="48.876192 64.582512 49.212672 68.709552 53.165472 67.475952 70.835232 41.278512 66.546912 38.386032"></polygon>
                    <polygon id="Fill-41" fill="#ED8A19" points="43.494336 64.852512 47.446656 63.618912 65.117376 37.421952 62.972256 35.975232"></polygon>
                    <polygon id="Fill-42" fill="#C7CAC7" points="65.864592 31.687008 65.865552 31.687008 77.301552 39.400128 78.748752 37.256448 67.311312 29.541888"></polygon>
                    <polygon id="Fill-43" fill="#C7CAC7" points="63.936576 34.5456 75.373536 42.2592 76.337376 40.82976 64.900416 33.11616"></polygon>
                    <g id="Group-46" transform="translate(42.240000, 65.280000)">
                        <mask id="mask-26" fill="white">
                            <use xlink:href="#path-25"></use>
                        </mask>
                        <g id="Clip-45"></g>
                        <polygon id="Fill-44" fill="#FBCE9D" mask="url(#mask-26)" points="-4.880208 -0.312672 11.665872 -3.528672 14.881872 13.017888 -1.664208 16.234368"></polygon>
                    </g>
                    <polygon id="Fill-47" fill="#F2ECBF" points="65.864592 31.687008 64.900272 33.115968 76.337712 40.830048 77.301552 39.400128 65.865552 31.687008"></polygon>
                    <g id="Group-50" transform="translate(42.240000, 36.960000)">
                        <mask id="mask-28" fill="white">
                            <use xlink:href="#path-27"></use>
                        </mask>
                        <g id="Clip-49"></g>
                        <polygon id="Fill-48" fill="#EBBA16" mask="url(#mask-28)" points="-7.06224 3.836736 30.75936 -3.514944 38.11104 34.306656 0.28944 41.658816"></polygon>
                    </g>
                    <polygon id="Fill-51" fill="#F2ECBF" points="62.972352 35.97504 65.117472 37.42176 66.546912 38.38608 70.835232 41.27856 72.264192 42.2424 74.409312 43.68864 75.373152 42.2592 63.936672 34.5456"></polygon>
                    <g id="Group-54" transform="translate(22.560000, 19.680000)">
                        <mask id="mask-30" fill="white">
                            <use xlink:href="#path-29"></use>
                        </mask>
                        <g id="Clip-53"></g>
                        <polygon id="Fill-52" fill="#00A2AA" mask="url(#mask-30)" points="-2.4 17.23488 19.18224 17.23488 19.18224 -2.3736 -2.4 -2.3736"></polygon>
                    </g>
                </g>
                <g id="Group-3" transform="translate(42.240000, 74.400000)">
                    <mask id="mask-32" fill="white">
                        <use xlink:href="#path-31"></use>
                    </mask>
                    <g id="Clip-2"></g>
                    <polygon id="Fill-1" fill="#38454F" mask="url(#mask-32)" points="-3.84 -1.97258599 5.79811088 -3.84 7.68 5.81258599 -1.95811088 7.68"></polygon>
                </g>
            </g>
        </g>
    </g>
</svg>