<svg xmlns="http://www.w3.org/2000/svg" xmlns:xlink="http://www.w3.org/1999/xlink" width="394" height="84" viewBox="0 0 394 84">
    <defs>
        <path id="prefix__a" d="M6.514.336C5.9 3.786 3.854 6.228.327 6.877c-.28.053-.28.454 0 .505 3.495.643 5.577 3.079 6.189 6.502.038.216.268.217.254.212.126 0 .233-.09.255-.212.311-1.766 1.186-4.164 3.586-5.565.767-.447 1.648-.763 2.617-.94.123-.023.212-.13.212-.253 0-.124-.09-.23-.213-.253-.425-.077-.838-.181-1.225-.31-2.843-.95-4.45-3.258-4.979-6.227-.025-.141-.14-.211-.255-.211-.114 0-.228.07-.254.21z"/>
        <path id="prefix__c" d="M.327 1.117c-.28.053-.28.454 0 .505 3.495.643 5.577 3.079 6.189 6.502.038.216.268.217.254.212.126 0 .233-.09.255-.212.172-.978.518-2.149 1.199-3.238C7.3 2.332 5.534.743 3.028.118c-.828.503-1.746.824-2.7 1z"/>
        <path id="prefix__e" d="M2.514.209c-.113 0-.213.073-.247.18-.313.994-.97 1.755-1.993 2.103-.233.08-.233.407 0 .486 1.017.346 1.677 1.1 1.994 2.105.058.185.254.182.247.18.113 0 .213-.074.246-.181.234-.751.647-1.333 1.227-1.727.633-.431.944-.306.944-.618 0-.11-.071-.209-.177-.244C3.749 2.162 3.085 1.417 2.76.39 2.711.227 2.552.208 2.52.208h-.006z"/>
        <path id="prefix__g" d="M47.924.484l-42.18 8.2c-.666.13-1.162.69-1.21 1.366L.058 38.176c-.072.987.814 1.772 1.784 1.583l42.179-8.199c.666-.129 1.163-.689 1.21-1.366l4.475-28.126c-.163-.843-.696-1.61-1.514-1.61-.086 0-.177.009-.27.026z"/>
        <path id="prefix__i" d="M2.491.343L.355.76 2.003 9.24l3.769-.732-1.331-6.85C4.286.864 3.59.312 2.809.312c-.104 0-.211.01-.318.031z"/>
        <path id="prefix__k" d="M1.55.718C.65.893.06 1.765.236 2.667l7.827 40.266.194-.03 1.681-10.445L3.688.302 1.55.718z"/>
        <path id="prefix__m" d="M21.802 2.864L.127 7.077 5.396 34.18l.097-.61c.049-.677.545-1.237 1.212-1.366l1.884-.367 32.294-6.277-2.198-11.308L35.937.116 21.802 2.864z"/>
        <path id="prefix__o" d="M23.745.192L1.128 4.588c-.52.101-.86.604-.759 1.125.102.522.605.86 1.126.76L24.11 2.076c.52-.1.86-.604.76-1.125-.09-.459-.492-.777-.942-.777-.06 0-.122.006-.184.018z"/>
        <path id="prefix__q" d="M10.23.48L.805 2.31c-.52.101-.86.605-.76 1.126.102.521.606.86 1.127.76l9.423-1.833c.52-.1.86-.604.76-1.125-.09-.459-.492-.777-.942-.777-.061 0-.123.006-.185.018z"/>
        <path id="prefix__s" d="M23.587.068L.97 4.464c-.52.1-.861.605-.76 1.126.101.52.605.86 1.126.759l22.617-4.396c.52-.101.86-.605.759-1.125-.09-.46-.491-.778-.941-.778-.061 0-.123.006-.185.018z"/>
        <path id="prefix__u" d="M.111 3.142l11.438 7.714c2.13-3.158 1.296-7.446-1.862-9.576C8.505.482 7.164.1 5.837.1 3.621.1 1.444 1.166.111 3.142z"/>
        <path id="prefix__w" d="M.739 1.54c-.03.01-.063.017-.093.023-.067.013-.133.005-.2.002L.002 12.224l1.436-2.13c.267-.395.802-.499 1.197-.232s.5.802.233 1.197L1.43 13.188l9.711-4.404c-.04-.087-.073-.18-.08-.281l-.363-4.43-4.241 1.325c-.03.01-.061.017-.091.023h-.002c-.03.006-.062.01-.093.014-.034.002-.065-.011-.098-.012-.064-.003-.125-.006-.185-.023-.047-.012-.088-.03-.132-.048-.054-.025-.106-.053-.154-.088-.039-.028-.072-.058-.106-.091-.041-.042-.077-.087-.11-.138-.027-.042-.05-.084-.07-.132-.01-.025-.03-.045-.038-.072-.01-.031-.003-.064-.01-.095-.006-.032-.024-.059-.027-.092L4.981.216.738 1.54z"/>
        <path id="prefix__y" d="M5.207 26.659l-3.953 1.233-.773 1.146-.035.847c.066.003.131.011.199-.002.03-.005.063-.013.093-.023l4.242-1.324.361 4.428c.003.034.02.06.026.092.007.032 0 .064.01.095.01.027.027.047.039.073.019.046.043.09.07.132.032.049.068.096.11.137.032.033.068.064.105.091.048.035.1.063.155.088.042.019.085.036.13.048.06.015.123.02.187.023.033.001.063.013.097.012.031-.003.062-.007.093-.014h.003c.03-.006.061-.013.092-.023l4.241-1.324.361 4.429c.009.101.041.194.081.281l.778-.351.773-1.146-.337-4.126 17.67-26.198-1.43-.964-17.67 26.197-3.953 1.234-.336-4.127 17.67-26.197-1.429-.964-17.67 26.197z"/>
        <path id="prefix__A" d="M13.952.984c-1.136 1.105-2.097 2.386-3.175 3.55-1.194 1.28-2.3 2.56-3.524 3.81-.7.7-1.457 1.456-1.923 2.328C4.282 9.654 3.38 8.55 2.214 7.647 1.37 7.007-.028 6.54 0 8.083c.059 2.008 1.836 4.16 3.146 5.528.553.582 1.282 1.193 2.127 1.221C6.292 14.891 7.34 13.67 7.952 13c1.077-1.164 1.952-2.473 2.942-3.666 1.281-1.571 2.592-3.113 3.844-4.713.787-.99 3.262-3.433 1.31-4.48-.147-.08-.297-.114-.448-.114-.624 0-1.249.582-1.648.957zM.845 7.88c.087-.059.233-.03.437.087-.03 0-.058 0-.117.029-.116-.03-.204-.058-.32-.116z"/>
        <path id="prefix__C" d="M.077.2v2.803L0 4.8l1.67-.743 2.6-1.054C4.568 2.57 3.454.713 3.014.42 2.72.226 1.643 0 .871 0 .486 0 .176.057.077.2z"/>
    </defs>
    <g fill="none" fill-rule="evenodd">
        <g transform="translate(21.6 13.2)">
            <g transform="translate(13.2 3.6)">
                <rect width="354" height="56.789" fill="#A546A0" rx="28.394"/>
                <g fill="#FFF">
                    <text font-family="Montserrat-Medium, Montserrat" font-size="19.2" font-weight="400" transform="translate(67.113 16.8)">
                        <tspan x=".327" y="19">Carpeta de experiencias</tspan>
                    </text>
                    <path fill-rule="nonzero" d="M250.8 19.2c-.307 0-.615-.118-.849-.352-.469-.47-.469-1.228 0-1.697l3.966-3.966-3.816-3.952c-.46-.477-.446-1.237.03-1.696.478-.46 1.238-.447 1.697.028l4.635 4.8c.454.472.448 1.22-.015 1.683l-4.8 4.8c-.234.234-.541.351-.848.351" transform="translate(67.113 16.8)"/>
                </g>
            </g>
            <ellipse cx="31.86" cy="31.411" fill="#6A2988" rx="31.86" ry="31.411"/>
        </g>
        <g>
            <g transform="translate(10.8 2.4) translate(65.28)">
                <mask id="prefix__b" fill="#fff">
                    <use xlink:href="#prefix__a"/>
                </mask>
                <path fill="#F4A32C" d="M-2.283 16.497L15.84 16.497 15.84 -2.275 -2.283 -2.275z" mask="url(#prefix__b)"/>
                <path fill="#0173C4" d="M-2.283 16.497L15.84 16.497 15.84 -2.275 -2.283 -2.275z" mask="url(#prefix__b)"/>
            </g>
            <g transform="translate(10.8 2.4) translate(65.28 5.76)">
                <mask id="prefix__d" fill="#fff">
                    <use xlink:href="#prefix__c"/>
                </mask>
                <path fill="#0173C4" d="M-2.283 10.737L10.624 10.737 10.624 -2.282 -2.283 -2.282z" mask="url(#prefix__d)"/>
            </g>
            <g transform="translate(10.8 2.4) translate(62.4 11.04)">
                <mask id="prefix__f" fill="#fff">
                    <use xlink:href="#prefix__e"/>
                </mask>
                <path fill="#0173C4" d="M-2.301 7.663L7.332 7.663 7.332 -2.192 -2.301 -2.192z" mask="url(#prefix__f)"/>
            </g>
            <g transform="translate(10.8 2.4) translate(8.16 34.56)">
                <mask id="prefix__h" fill="#fff">
                    <use xlink:href="#prefix__g"/>
                </mask>
                <path fill="#EFCE4A" d="M-8.124 8.935L51.244 -2.605 57.839 31.32 -1.53 42.86z" mask="url(#prefix__h)"/>
            </g>
            <g transform="translate(10.8 2.4) translate(46.08 27.36)">
                <mask id="prefix__j" fill="#fff">
                    <use xlink:href="#prefix__i"/>
                </mask>
                <path fill="#EBBA16" d="M-2.46 -1.139L6.022 -2.788 8.586 10.405 0.105 12.054z" mask="url(#prefix__j)"/>
            </g>
            <g transform="translate(10.8 2.4) translate(0 29.28)">
                <mask id="prefix__l" fill="#fff">
                    <use xlink:href="#prefix__k"/>
                </mask>
                <path fill="#EBBA16" d="M-2.895 -0.863L5.586 -2.512 14.648 44.107 6.166 45.756z" mask="url(#prefix__l)"/>
            </g>
            <g transform="translate(10.8 2.4) translate(7.2 11.04)">
                <mask id="prefix__n" fill="#fff">
                    <use xlink:href="#prefix__m"/>
                </mask>
                <path fill="#F4EFDC" d="M-2.686 5.179L37.835 -2.698 44.019 29.118 3.498 36.994z" mask="url(#prefix__n)"/>
            </g>
            <g transform="translate(10.8 2.4) translate(15.36 25.44)">
                <mask id="prefix__p" fill="#fff">
                    <use xlink:href="#prefix__o"/>
                </mask>
                <path fill="#CEC9AE" d="M-2.628 2.873L26.585 -2.806 27.868 3.791 -1.346 9.469z" mask="url(#prefix__p)"/>
            </g>
            <g transform="translate(10.8 2.4) translate(14.4 21.12)">
                <mask id="prefix__r" fill="#fff">
                    <use xlink:href="#prefix__q"/>
                </mask>
                <path fill="#CEC9AE" d="M-2.95 0.597L13.07 -2.518 14.352 4.079 -1.668 7.193z" mask="url(#prefix__r)"/>
            </g>
            <g transform="translate(10.8 2.4) translate(16.8 32.16)">
                <mask id="prefix__t" fill="#fff">
                    <use xlink:href="#prefix__s"/>
                </mask>
                <path fill="#CEC9AE" d="M-2.786 2.749L26.427 -2.929 27.71 3.668 -1.503 9.346z" mask="url(#prefix__t)"/>
            </g>
            <path fill="#CEC9AE" d="M4.867 20.551L11.276 53.521 12.596 45.22 7.694 20.001z" transform="translate(10.8 2.4)"/>
            <path fill="#D1BF86" d="M2.406 22.986L9.954 61.821 11.275 53.521 5.233 22.436z" transform="translate(10.8 2.4)"/>
            <g transform="translate(10.8 2.4) translate(67.2 26.4)">
                <mask id="prefix__v" fill="#fff">
                    <use xlink:href="#prefix__u"/>
                </mask>
                <path fill="#D75A4A" d="M-3.088 -0.74L13.183 -3.902 16.346 12.369 0.075 15.531z" mask="url(#prefix__v)"/>
            </g>
            <path fill="#ED8A19" d="M54.595 68.44L54.931 72.567 74.409 43.689 72.264 42.242zM48.876 64.583L49.213 68.71 53.165 67.476 70.835 41.279 66.547 38.386zM43.494 64.853L47.447 63.619 65.117 37.422 62.972 35.975z" transform="translate(10.8 2.4)"/>
            <path fill="#C7CAC7" d="M65.865 31.687L65.866 31.687 77.302 39.4 78.749 37.256 67.311 29.542zM63.937 34.546L75.374 42.259 76.337 40.83 64.9 33.116z" transform="translate(10.8 2.4)"/>
            <g transform="translate(10.8 2.4) translate(42.24 65.28)">
                <mask id="prefix__x" fill="#fff">
                    <use xlink:href="#prefix__w"/>
                </mask>
                <path fill="#FBCE9D" d="M-4.88 -0.313L11.666 -3.529 14.882 13.018 -1.664 16.234z" mask="url(#prefix__x)"/>
            </g>
            <path fill="#F2ECBF" d="M65.865 31.687L64.9 33.116 76.338 40.83 77.302 39.4 65.866 31.687z" transform="translate(10.8 2.4)"/>
            <g transform="translate(10.8 2.4) translate(42.24 36.96)">
                <mask id="prefix__z" fill="#fff">
                    <use xlink:href="#prefix__y"/>
                </mask>
                <path fill="#EBBA16" d="M-7.062 3.837L30.759 -3.515 38.111 34.307 0.289 41.659z" mask="url(#prefix__z)"/>
            </g>
            <path fill="#F2ECBF" d="M62.972 35.975L65.117 37.422 66.547 38.386 70.835 41.279 72.264 42.242 74.409 43.689 75.373 42.259 63.937 34.546z" transform="translate(10.8 2.4)"/>
            <g transform="translate(10.8 2.4) translate(22.56 19.68)">
                <mask id="prefix__B" fill="#fff">
                    <use xlink:href="#prefix__A"/>
                </mask>
                <path fill="#00A2AA" d="M-2.4 17.235L19.182 17.235 19.182 -2.374 -2.4 -2.374z" mask="url(#prefix__B)"/>
            </g>
            <g transform="translate(10.8 2.4) translate(42.24 74.4)">
                <mask id="prefix__D" fill="#fff">
                    <use xlink:href="#prefix__C"/>
                </mask>
                <path fill="#38454F" d="M-3.84 -1.973L5.798 -3.84 7.68 5.813 -1.958 7.68z" mask="url(#prefix__D)"/>
            </g>
        </g>
    </g>
</svg>
