<?xml version="1.0" encoding="UTF-8" standalone="no"?>
<svg
   xmlns:dc="http://purl.org/dc/elements/1.1/"
   xmlns:cc="http://creativecommons.org/ns#"
   xmlns:rdf="http://www.w3.org/1999/02/22-rdf-syntax-ns#"
   xmlns:svg="http://www.w3.org/2000/svg"
   xmlns="http://www.w3.org/2000/svg"
   xmlns:xlink="http://www.w3.org/1999/xlink"
   xmlns:sodipodi="http://sodipodi.sourceforge.net/DTD/sodipodi-0.dtd"
   xmlns:inkscape="http://www.inkscape.org/namespaces/inkscape"
   width="112"
   height="168"
   viewBox="0 0 112 168"
   fill="none"
   version="1.1"
   id="svg67"
   sodipodi:docname="whiteboard_hover.svg"
   inkscape:version="1.0.1 (3bc2e813f5, 2020-09-07)">
  <metadata
     id="metadata71">
    <rdf:RDF>
      <cc:Work
         rdf:about="">
        <dc:format>image/svg+xml</dc:format>
        <dc:type
           rdf:resource="http://purl.org/dc/dcmitype/StillImage" />
        <dc:title />
      </cc:Work>
    </rdf:RDF>
  </metadata>
  <sodipodi:namedview
     pagecolor="#ffffff"
     bordercolor="#666666"
     borderopacity="1"
     objecttolerance="10"
     gridtolerance="10"
     guidetolerance="10"
     inkscape:pageopacity="0"
     inkscape:pageshadow="2"
     inkscape:window-width="640"
     inkscape:window-height="480"
     id="namedview69"
     showgrid="false"
     inkscape:zoom="2.5267857"
     inkscape:cx="209.69767"
     inkscape:cy="122.36643"
     inkscape:current-layer="layer3"
     inkscape:document-rotation="0" />
  <defs
     id="defs65">
    <clipPath
       id="clip0">
      <rect
         width="112"
         height="168"
         fill="white"
         id="rect62" />
    </clipPath>
    <filter
       style="color-interpolation-filters:sRGB;"
       inkscape:label="Blur"
       id="filter1137">
      <feGaussianBlur
         stdDeviation="2 2"
         result="fbSourceGraphic"
         id="feGaussianBlur1135" />
      <feColorMatrix
         result="fbSourceGraphicAlpha"
         in="fbSourceGraphic"
         values="0 0 0 -1 0 0 0 0 -1 0 0 0 0 -1 0 0 0 0 1 0"
         id="feColorMatrix1139" />
      <feGaussianBlur
         id="feGaussianBlur1141"
         stdDeviation="2 2"
         result="blur"
         in="fbSourceGraphic" />
    </filter>
    <polygon
       id="path-1"
       points="0.578556 2.277396 25.532496 17.467164 26.864838 15.421428 1.640034 0.534006" />
    <polygon
       id="path-3"
       points="0.578556 2.277396 25.532496 17.467164 26.864838 15.421428 1.640034 0.534006" />
    <polyline
       id="path-5"
       points="0.578556 2.277396 25.532496 17.467164 26.864838 15.421428 1.640034 0.534006" />
    <polygon
       id="path-7"
       points="0.173448 15.45291 1.536678 17.467164 26.490618 2.277396 25.42914 0.534006" />
    <polygon
       id="path-9"
       points="0.173448 15.45291 1.536678 17.467164 26.490618 2.277396 25.42914 0.534006" />
    <polyline
       id="path-11"
       points="0.173448 15.45291 1.536678 17.467164 26.490618 2.277396 25.42914 0.534006" />
    <polygon
       id="path-13"
       points="0.188892 0.479358 5.97564 0.479358 5.97564 2.097414 0.188892 2.097414" />
    <polygon
       id="path-15"
       points="0.188892 0.07128 5.97564 0.07128 5.97564 1.689336 0.188892 1.689336" />
    <polygon
       id="path-17"
       points="0.188892 0.393822 5.97564 0.393822 5.97564 2.011878 0.188892 2.011878" />
    <polygon
       id="path-19"
       points="0.188892 0.579744 5.97564 0.579744 5.97564 2.1978 0.188892 2.1978" />
    <polygon
       id="path-21"
       points="0.303534 0.479358 6.090282 0.479358 6.090282 2.097414 0.303534 2.097414" />
    <polygon
       id="path-23"
       points="0.303534 0.07128 6.090282 0.07128 6.090282 1.689336 0.303534 1.689336" />
    <polygon
       id="path-25"
       points="0.303534 0.393822 6.090282 0.393822 6.090282 2.011878 0.303534 2.011878" />
    <polygon
       id="path-27"
       points="0.303534 0.579744 6.090282 0.579744 6.090282 2.1978 0.303534 2.1978" />
  </defs>
  <g
     inkscape:groupmode="layer"
     id="layer1"
     inkscape:label="back"
     sodipodi:insensitive="true">
    <path
       d="M 111.52535,102.1794 0.76767545,166.32043 V 64.818067 L 111.52535,0.6776624 Z"
       fill="#e6edef"
       id="path943"
       style="fill:#ff7100;fill-opacity:0.45098;stroke-width:1.05905;filter:url(#filter1137)"
       transform="matrix(0.99363501,0,0,0.99363501,0.35737182,0.53147036)" />
  </g>
  <g
     inkscape:groupmode="layer"
     id="layer2"
     inkscape:label="wb"
     sodipodi:insensitive="true">
    <g
       id="g990">
      <path
         d="M 107.92135,6.9521432 6.5998671,66.696654 4.0786498,65.208644 106.32291,6.1179748 Z"
         fill="#f5f4ec"
         id="path2"
         style="stroke-width:0.927167" />
      <path
         d="M 107.92135,102.67871 5.654676,161.79116 V 66.065161 L 107.92135,6.9518818 Z"
         fill="#e3e2dc"
         id="path4"
         style="stroke-width:0.927167" />
      <path
         d="M 5.6994767,161.88203 4.1687408,160.95764 V 65.231174 l 1.5307359,0.924385 z"
         fill="#bebdb7"
         id="path6"
         style="stroke-width:0.927167" />
      <path
         d="M 105.46807,99.927802 8.5135954,156.08816 V 67.215126 L 105.46807,11.055324 Z"
         fill="#e6edef"
         id="path8"
         style="stroke-width:0.927167" />
      <path
         d="m 89.327388,117.60331 -57.402762,33.16384 v -1.57804 L 53.80521,135.09803 89.327388,116.02527 Z"
         fill="#e3e2dc"
         id="path10"
         style="stroke-width:0.927167" />
      <path
         d="m 89.327666,116.0262 -16.995712,9.80665 -40.40705,23.35719 -3.669263,-2.11951 57.425199,-33.16383 z"
         fill="#f98fb7"
         id="path12"
         style="stroke-width:0.927167" />
      <path
         d="m 89.327666,116.0262 -16.995712,9.80665 -40.40705,23.35719 -3.669263,-2.11951 57.425199,-33.16383 z"
         fill="#f5f4ec"
         id="path14"
         style="stroke-width:0.927167" />
      <path
         d="m 30.101352,147.07053 55.579395,-32.10501 1.800837,1.05975 -55.556865,32.10409 z"
         fill="#bebdb7"
         id="path16"
         style="stroke-width:0.927167" />
      <path
         d="m 31.924904,149.18911 -3.669263,-2.1195 v 1.60121 l 3.669263,2.09633 z"
         fill="#bebdb7"
         id="path18"
         style="stroke-width:0.927167" />
      <path
         d="m 17.765396,71.498637 c -0.08187,0.786609 -0.343794,1.54364 -0.765469,2.212313 -0.421676,0.668673 -0.991698,1.230907 -1.665748,1.642847 -1.373135,0.789112 -2.498715,0.315608 -2.498715,-1.059566 0.08086,-0.804132 0.349078,-1.578038 0.783085,-2.259413 0.434007,-0.681282 1.021645,-1.251119 1.71563,-1.66343 1.328166,-0.789112 2.431217,-0.315701 2.431217,1.127249 z"
         fill="#88dd26"
         id="path20"
         style="stroke-width:0.927167" />
      <path
         d="m 24.743904,67.395089 c -0.07668,0.802556 -0.340734,1.57572 -0.77094,2.257188 -0.430113,0.681468 -1.01432,1.252046 -1.705338,1.665655 -1.373134,0.789019 -2.498622,0.315608 -2.498622,-1.059659 0.08085,-0.804132 0.348985,-1.577945 0.782992,-2.25932 0.434007,-0.681375 1.021646,-1.251119 1.71563,-1.663523 1.373227,-0.789019 2.476278,-0.315608 2.476278,1.059659 z"
         fill="#44b5f7"
         id="path22"
         style="stroke-width:0.927167" />
      <path
         d="m 31.722226,63.360429 c -0.07668,0.802556 -0.340734,1.575813 -0.77094,2.257281 -0.430112,0.681468 -1.01432,1.251953 -1.705338,1.665563 -1.373134,0.789111 -2.476185,0.315607 -2.476185,-1.059567 0.07668,-0.802556 0.340734,-1.575813 0.77094,-2.257281 0.430112,-0.681467 1.01432,-1.252046 1.705245,-1.665562 1.373227,-0.789112 2.476278,-0.315701 2.476278,1.059566 z"
         fill="#f74642"
         id="path24"
         style="stroke-width:0.927167" />
      <path
         d="m 38.700641,59.324564 c -0.07668,0.802556 -0.340734,1.575813 -0.77094,2.257281 -0.430112,0.681467 -1.01432,1.252046 -1.705245,1.665562 -1.373227,0.789112 -2.476278,0.315701 -2.476278,-1.059566 0.07668,-0.802556 0.340734,-1.575813 0.77094,-2.257281 0.430112,-0.681467 1.01432,-1.252046 1.705338,-1.665562 1.373134,-0.789112 2.476185,-0.293078 2.476185,1.059566 z"
         fill="#e8d33d"
         id="path26"
         style="stroke-width:0.927167" />
      <path
         d="m 50.496059,136.87911 c -0.03811,-0.30782 -0.144916,-0.60358 -0.312455,-0.86504 -0.16754,-0.26146 -0.391543,-0.48213 -0.6556,-0.64531 -0.120532,-0.0779 -0.261276,-0.12053 -0.405172,-0.12053 -0.143804,0 -0.28464,0.0426 -0.405172,0.12053 l -2.003515,1.17287 1.350697,2.11857 2.093543,-1.21737 c 0.11024,-0.0436 0.203049,-0.12238 0.264057,-0.22437 0.06101,-0.10199 0.08688,-0.22067 0.07362,-0.33935 z"
         fill="#f74642"
         id="path28"
         style="stroke-width:0.927167" />
      <path
         d="m 48.402423,137.9843 c 0,0.54146 -0.427702,0.72133 -0.945525,0.42835 -0.270176,-0.16133 -0.49863,-0.38478 -0.666818,-0.65087 -0.168188,-0.2661 -0.271289,-0.56836 -0.301144,-0.88267 0,-0.51828 0.427702,-0.69815 0.967962,-0.40517 0.262018,0.16318 0.483425,0.38385 0.647255,0.64531 0.163831,0.26239 0.265819,0.55815 0.29827,0.86505 z"
         fill="#c62424"
         id="path30"
         style="stroke-width:0.927167" />
      <path
         d="m 48.290236,138.05198 c -0.03403,-0.30411 -0.13685,-0.59617 -0.30068,-0.85392 -0.163923,-0.25775 -0.384404,-0.47471 -0.644752,-0.63418 -0.117194,-0.077 -0.254044,-0.11775 -0.393954,-0.11775 -0.139909,0 -0.276759,0.0408 -0.393953,0.11775 l -5.920332,3.44906 1.305637,2.05182 6.03289,-3.47131 c 0.102081,-0.0464 0.187288,-0.12332 0.243752,-0.22067 0.05647,-0.0974 0.08141,-0.20861 0.07139,-0.3208 z"
         fill="#666262"
         id="path32"
         style="stroke-width:0.927167" />
      <path
         d="m 42.347096,141.52422 c 0,0.51829 -0.427703,0.69908 -0.945525,0.4061 -0.257289,-0.16133 -0.474246,-0.37921 -0.634275,-0.63696 -0.160029,-0.25776 -0.258772,-0.54889 -0.288627,-0.85114 0,-0.51922 0.427702,-0.69909 0.922902,-0.38385 0.262203,0.15206 0.48463,0.36438 0.648924,0.61935 0.164387,0.25404 0.266004,0.54424 0.296601,0.8465 z"
         fill="#494646"
         id="path34"
         style="stroke-width:0.927167" />
      <path
         d="m 70.10323,125.60662 c -0.02902,-0.3106 -0.129433,-0.611 -0.293449,-0.8771 -0.164016,-0.2661 -0.387185,-0.49047 -0.651984,-0.65551 -0.120624,-0.0788 -0.261368,-0.12053 -0.405172,-0.12053 -0.143896,0 -0.28464,0.0417 -0.405264,0.12053 l -2.003423,1.17194 1.350605,2.1195 2.093543,-1.21737 c 0.102081,-0.0463 0.187287,-0.12331 0.243752,-0.22066 0.05646,-0.0964 0.08141,-0.20861 0.07139,-0.3208 z"
         fill="#88dd26"
         id="path36"
         style="stroke-width:0.927167" />
      <path
         d="m 68.032124,126.80174 c 0,0.51921 -0.427702,0.69908 -0.967962,0.4061 -0.264892,-0.16504 -0.487968,-0.38941 -0.651984,-0.65551 -0.164016,-0.2661 -0.264428,-0.5665 -0.293448,-0.87803 0,-0.51829 0.427702,-0.69816 0.945432,-0.40517 0.270176,0.16133 0.49863,0.38385 0.666818,0.65087 0.168188,0.2661 0.271382,0.56835 0.301144,0.88174 z"
         fill="#6fb515"
         id="path38"
         style="stroke-width:0.927167" />
      <path
         d="m 67.919473,126.84717 c -0.0305,-0.30226 -0.132121,-0.59246 -0.296508,-0.84743 -0.164386,-0.25405 -0.386814,-0.46637 -0.648924,-0.61842 -0.114783,-0.0825 -0.25256,-0.12703 -0.393953,-0.12703 -0.1413,0 -0.27917,0.0445 -0.393953,0.12703 l -5.830304,3.40455 1.328166,2.07408 6.03289,-3.4945 c 0.07751,-0.0603 0.137314,-0.14 0.17301,-0.23086 0.0357,-0.0918 0.04589,-0.191 0.02958,-0.28742 z"
         fill="#666262"
         id="path40"
         style="stroke-width:0.927167" />
      <path
         d="m 61.909021,130.31848 c 0,0.51829 -0.427702,0.69908 -0.945433,0.4061 -0.259699,-0.15855 -0.47851,-0.3755 -0.638818,-0.63418 -0.160399,-0.25868 -0.257659,-0.55074 -0.284176,-0.85392 0,-0.51922 0.405264,-0.67684 0.922994,-0.38385 0.262111,0.15206 0.484538,0.36438 0.648925,0.61935 0.164294,0.25404 0.266004,0.54424 0.296508,0.8465 z"
         fill="#494646"
         id="path42"
         style="stroke-width:0.927167" />
      <path
         d="m 60.873653,130.90538 c -0.03069,-0.30782 -0.132028,-0.60452 -0.295951,-0.86598 -0.164016,-0.26238 -0.386351,-0.48305 -0.649481,-0.64438 -0.119512,-0.0816 -0.260626,-0.12517 -0.405172,-0.12517 -0.144545,0 -0.285753,0.0436 -0.405172,0.12517 l -2.003515,1.17194 1.328167,2.11951 2.11598,-1.21738 c 0.108479,-0.0445 0.198692,-0.12424 0.255898,-0.22622 0.0573,-0.10292 0.07816,-0.2216 0.05925,-0.33749 z"
         fill="#44b5f7"
         id="path44"
         style="stroke-width:0.927167" />
      <path
         d="m 58.780296,132.12275 c 0,0.51828 -0.427702,0.69908 -0.945525,0.38292 -0.267302,-0.15855 -0.493995,-0.37829 -0.661997,-0.64067 -0.168003,-0.26239 -0.272773,-0.56001 -0.305965,-0.86969 0,-0.54054 0.450232,-0.72133 0.967962,-0.40517 0.271011,0.15762 0.499001,0.38014 0.663944,0.64809 0.16485,0.26702 0.261554,0.57114 0.281581,0.88452 z"
         fill="#2e8dbc"
         id="path46"
         style="stroke-width:0.927167" />
      <path
         d="m 58.667367,132.16725 c -0.02819,-0.30225 -0.12628,-0.59431 -0.286402,-0.85299 -0.160215,-0.25775 -0.378099,-0.47564 -0.636593,-0.63511 -0.117101,-0.076 -0.254044,-0.11682 -0.393953,-0.11682 -0.13991,0 -0.27676,0.0408 -0.393953,0.11682 l -5.9653,3.3823 1.305637,2.07408 6.05542,-3.42681 c 0.102081,-0.0464 0.187195,-0.12332 0.243659,-0.22067 0.05646,-0.0964 0.0814,-0.20861 0.07148,-0.3208 z"
         fill="#666262"
         id="path48"
         style="stroke-width:0.927167" />
      <path
         d="m 52.634848,135.59499 c 0,0.51828 -0.427703,0.69908 -0.945433,0.38292 -0.259143,-0.15298 -0.47814,-0.36531 -0.638632,-0.62028 -0.160493,-0.25497 -0.258031,-0.54517 -0.284362,-0.84465 0,-0.51921 0.427795,-0.69908 0.945525,-0.4061 0.258401,0.15948 0.476378,0.37643 0.6365,0.63511 0.160214,0.25776 0.258216,0.54981 0.286402,0.853 z"
         fill="#494646"
         id="path50"
         style="stroke-width:0.927167" />
      <path
         d="m 41.64931,141.97482 c -0.02967,-0.3106 -0.132956,-0.61007 -0.30133,-0.87246 -0.168373,-0.26332 -0.39692,-0.48213 -0.666633,-0.63789 -0.114783,-0.0825 -0.25256,-0.12702 -0.393953,-0.12702 -0.1413,0 -0.279077,0.0445 -0.393953,0.12702 l -2.048483,1.14969 1.328167,2.1195 2.11598,-1.24055 c 0.108757,-0.0343 0.202957,-0.10384 0.268044,-0.19749 0.06518,-0.0946 0.09754,-0.20675 0.09216,-0.3208 z"
         fill="#e8d33d"
         id="path52"
         style="stroke-width:0.927167" />
      <path
         d="m 39.578204,143.19219 c 0,0.54054 -0.427702,0.72134 -0.967962,0.40518 -0.26313,-0.16133 -0.485372,-0.382 -0.649388,-0.64439 -0.164016,-0.26146 -0.265355,-0.55815 -0.296044,-0.86597 0,-0.54054 0.427702,-0.72133 0.945432,-0.4061 0.267395,0.15947 0.493994,0.37921 0.661997,0.6416 0.168095,0.26146 0.272773,0.56001 0.305965,0.86968 z"
         fill="#c99e27"
         id="path54"
         style="stroke-width:0.927167" />
      <path
         d="m 39.443301,143.25988 c -0.02642,-0.30319 -0.123776,-0.59617 -0.284084,-0.85392 -0.160307,-0.25868 -0.379211,-0.47564 -0.638818,-0.63419 -0.117101,-0.076 -0.254043,-0.11682 -0.393953,-0.11682 -0.139909,0 -0.276759,0.0408 -0.393953,0.11682 l -5.942862,3.42681 1.305636,2.07408 6.05542,-3.4945 c 0.100691,-0.0399 0.184692,-0.11311 0.237912,-0.20675 0.05331,-0.0946 0.0726,-0.20491 0.0547,-0.31153 z"
         fill="#666262"
         id="path56"
         style="stroke-width:0.927167" />
      <path
         d="m 33.342728,146.73212 c 0,0.51828 -0.405172,0.69815 -0.922902,0.38292 -0.262203,-0.15206 -0.484537,-0.36438 -0.648924,-0.61842 -0.164387,-0.25497 -0.266004,-0.54518 -0.296601,-0.84743 0,-0.51829 0.427702,-0.69816 0.945525,-0.40518 0.258402,0.15948 0.476286,0.37643 0.6365,0.63511 0.160215,0.25776 0.258216,0.54981 0.286402,0.853 z"
         fill="#494646"
         id="path58"
         style="stroke-width:0.927167" />
    </g>
  </g>
  <g
     inkscape:groupmode="layer"
     id="layer3"
     inkscape:label="aprende en casa">
    <g
       id="logo_aprende"
       style="fill:#d98bff;fill-rule:evenodd;stroke:none;stroke-width:1;fill-opacity:1"
       transform="matrix(0.31658906,-0.19277827,0,0.31658906,8.1541648,109.36379)">
      <g
         id="Group-384"
         transform="translate(69.498,19.008)"
         fill="#fffffe"
         style="fill:#d98bff;fill-opacity:1">
        <path
           d="M 13.496868,12.723421 10.563696,5.6417526 7.630524,12.723421 Z m 1.347786,3.250368 H 6.256602 L 4.61835,19.937551 H 0.23166 L 8.475786,1.4397966 h 4.228686 l 8.270262,18.4977544 h -4.491828 z"
           id="Fill-358"
           style="fill:#d98bff;fill-opacity:1" />
        <path
           d="m 32.905402,15.696331 c 0.677754,-0.713394 1.017522,-1.66914 1.017522,-2.867238 0,-1.197504 -0.339768,-2.153844 -1.017522,-2.8666438 -0.678348,-0.713394 -1.546182,-1.070388 -2.602908,-1.070388 -1.056726,0 -1.92456,0.356994 -2.602908,1.070388 -0.678348,0.7127998 -1.017522,1.6691398 -1.017522,2.8666438 0,1.198098 0.339174,2.153844 1.017522,2.867238 0.678348,0.713394 1.546182,1.070388 2.602908,1.070388 1.056726,0 1.92456,-0.356994 2.602908,-1.070388 M 34.62325,6.4210212 c 1.082862,0.608256 1.932876,1.462428 2.550042,2.56311 0.615978,1.1012758 0.924264,2.3831278 0.924264,3.8449618 0,1.462428 -0.308286,2.74428 -0.924264,3.844962 -0.617166,1.101276 -1.46718,1.955448 -2.550042,2.56311 -1.083456,0.607662 -2.286306,0.91179 -3.607362,0.91179 -1.81467,0 -3.241458,-0.572616 -4.280364,-1.717848 v 6.632604 h -4.12236 V 5.7212892 h 3.937032 v 1.638252 c 1.02168,-1.233144 2.510244,-1.849716 4.465692,-1.849716 1.321056,0 2.523906,0.303534 3.607362,0.911196"
           id="Fill-360"
           style="fill:#d98bff;fill-opacity:1" />
        <path
           d="m 46.777975,6.03801 c 0.836352,-0.352242 1.801008,-0.52866 2.893374,-0.52866 v 3.805164 c -0.458568,-0.035046 -0.76626,-0.052866 -0.924858,-0.052866 -1.180278,0 -2.105136,0.330264 -2.774574,0.990792 -0.670032,0.661122 -1.00386,1.651914 -1.00386,2.97297 v 6.711606 h -4.12236 V 5.720814 h 3.937032 V 7.59726 c 0.49302,-0.687258 1.1583,-1.206414 1.995246,-1.55925"
           id="Fill-362"
           style="fill:#d98bff;fill-opacity:1" />
        <path
           d="m 56.198578,9.4204836 c -0.634392,0.52866 -1.022274,1.2509644 -1.163052,2.1663184 h 7.002666 c -0.140778,-0.898128 -0.528066,-1.6156804 -1.162458,-2.1532504 -0.634392,-0.536976 -1.410156,-0.805464 -2.32551,-0.805464 -0.934362,0 -1.717848,0.263736 -2.351646,0.792396 m 9.644778,4.5714244 h -10.75437 c 0.193644,0.880902 0.651024,1.57707 1.373922,2.087316 0.722304,0.511434 1.620432,0.76626 2.694978,0.76626 0.740124,0 1.3959,-0.10989 1.968516,-0.330264 0.572616,-0.21978 1.105434,-0.567864 1.599048,-1.043064 l 2.193048,2.377782 c -1.338876,1.53252 -3.294324,2.29878 -5.866344,2.29878 -1.603206,0 -3.021084,-0.312444 -4.254228,-0.937926 -1.233144,-0.625482 -2.184732,-1.492722 -2.853576,-2.602908 -0.670032,-1.109592 -1.004454,-2.368872 -1.004454,-3.778434 0,-1.391742 0.330264,-2.646864 0.991386,-3.7659604 0.660528,-1.118502 1.567566,-1.990494 2.721114,-2.615382 1.154142,-0.625482 2.44431,-0.93852 3.871692,-0.93852 1.391148,0 2.651022,0.299376 3.778434,0.898722 1.127412,0.598752 2.012472,1.457676 2.655774,2.576178 0.642708,1.1190964 0.964656,2.4175804 0.964656,3.8978284 0,0.05287 -0.02673,0.422334 -0.0796,1.109592"
           id="Fill-364"
           style="fill:#d98bff;fill-opacity:1" />
        <path
           d="m 81.579485,7.0949142 c 1.083456,1.05732 1.625184,2.62548 1.625184,4.7032918 v 8.138988 h -4.12236 v -7.504596 c 0,-1.126818 -0.247104,-1.968516 -0.740124,-2.5233118 -0.49302,-0.554796 -1.206414,-0.832194 -2.140182,-0.832194 -1.0395,0 -1.867536,0.321354 -2.483514,0.9640618 -0.617166,0.643302 -0.925452,1.599048 -0.925452,2.867238 v 7.028802 H 68.671271 V 5.7209922 h 3.937032 v 1.664982 c 0.545886,-0.599346 1.224234,-1.061478 2.035044,-1.387584 0.809622,-0.326106 1.699434,-0.488862 2.668248,-0.488862 1.761804,0 3.184434,0.52866 4.26789,1.585386"
           id="Fill-366"
           style="fill:#d98bff;fill-opacity:1" />
        <path
           d="m 96.495775,15.696331 c 0.686664,-0.713394 1.03059,-1.66914 1.03059,-2.867238 0,-1.197504 -0.343926,-2.153844 -1.03059,-2.8666438 -0.686664,-0.713394 -1.55034,-1.070388 -2.58984,-1.070388 -1.056726,0 -1.928718,0.356994 -2.615976,1.070388 -0.686664,0.7127998 -1.029996,1.6691398 -1.029996,2.8666438 0,1.198098 0.343332,2.153844 1.029996,2.867238 0.687258,0.713394 1.55925,1.070388 2.615976,1.070388 1.0395,0 1.903176,-0.356994 2.58984,-1.070388 z M 101.56913,0.3301452 V 19.937491 h -3.937033 v -1.638252 c -1.022274,1.233144 -2.501928,1.849716 -4.439556,1.849716 -1.338876,0 -2.550042,-0.299376 -3.632904,-0.898722 -1.083456,-0.598752 -1.934064,-1.453518 -2.550636,-2.56311 -0.616572,-1.109592 -0.924264,-2.395602 -0.924264,-3.85803 0,-1.461834 0.307692,-2.748438 0.924264,-3.8580298 0.616572,-1.109592 1.46718,-1.963764 2.550636,-2.56311 1.082862,-0.598752 2.294028,-0.898128 3.632904,-0.898128 1.814076,0 3.232548,0.572022 4.254228,1.717254 v -6.896934 z"
           id="Fill-368"
           style="fill:#d98bff;fill-opacity:1" />
        <path
           d="m 109.57577,9.4204836 c -0.63439,0.52866 -1.02227,1.2509644 -1.16305,2.1663184 h 7.00267 c -0.14078,-0.898128 -0.52807,-1.6156804 -1.16246,-2.1532504 -0.63439,-0.536976 -1.41016,-0.805464 -2.32551,-0.805464 -0.93436,0 -1.71785,0.263736 -2.35165,0.792396 m 9.64478,4.5714244 h -10.75437 c 0.19365,0.880902 0.65103,1.57707 1.37392,2.087316 0.72231,0.511434 1.62044,0.76626 2.69498,0.76626 0.74013,0 1.3959,-0.10989 1.96852,-0.330264 0.57261,-0.21978 1.10543,-0.567864 1.59905,-1.043064 l 2.19304,2.377782 c -1.33887,1.53252 -3.29432,2.29878 -5.86634,2.29878 -1.60321,0 -3.02108,-0.312444 -4.25423,-0.937926 -1.23314,-0.625482 -2.18473,-1.492722 -2.85357,-2.602908 -0.67004,-1.109592 -1.00446,-2.368872 -1.00446,-3.778434 0,-1.391742 0.33027,-2.646864 0.99139,-3.7659604 0.66053,-1.118502 1.56756,-1.990494 2.72111,-2.615382 1.15414,-0.625482 2.44431,-0.93852 3.87169,-0.93852 1.39115,0 2.65103,0.299376 3.77844,0.898722 1.12741,0.598752 2.01247,1.457676 2.65577,2.576178 0.64271,1.1190964 0.96466,2.4175804 0.96466,3.8978284 0,0.05287 -0.0267,0.422334 -0.0796,1.109592"
           id="Fill-370"
           style="fill:#d98bff;fill-opacity:1" />
        <path
           d="m 133.72752,9.4204836 c -0.6344,0.52866 -1.02168,1.2509644 -1.16246,2.1663184 h 7.00207 c -0.14078,-0.898128 -0.52807,-1.6156804 -1.16246,-2.1532504 -0.63439,-0.536976 -1.40956,-0.805464 -2.32491,-0.805464 -0.93437,0 -1.71785,0.263736 -2.35224,0.792396 m 9.64477,4.5714244 h -10.75436 c 0.19364,0.880902 0.65102,1.57707 1.37392,2.087316 0.7223,0.511434 1.62043,0.76626 2.69497,0.76626 0.74013,0 1.3959,-0.10989 1.96852,-0.330264 0.57262,-0.21978 1.10543,-0.567864 1.59905,-1.043064 l 2.19364,2.377782 c -1.33947,1.53252 -3.29492,2.29878 -5.86694,2.29878 -1.6032,0 -3.02108,-0.312444 -4.25423,-0.937926 -1.23314,-0.625482 -2.18413,-1.492722 -2.85357,-2.602908 -0.67003,-1.109592 -1.00445,-2.368872 -1.00445,-3.778434 0,-1.391742 0.33026,-2.646864 0.99138,-3.7659604 0.66053,-1.118502 1.56757,-1.990494 2.72111,-2.615382 1.15415,-0.625482 2.44431,-0.93852 3.8717,-0.93852 1.39114,0 2.65102,0.299376 3.77843,0.898722 1.12741,0.598752 2.01247,1.457676 2.65577,2.576178 0.64271,1.1190964 0.96466,2.4175804 0.96466,3.8978284 0,0.05287 -0.0267,0.422334 -0.0796,1.109592"
           id="Fill-372"
           style="fill:#d98bff;fill-opacity:1" />
        <path
           d="m 159.10795,7.0949142 c 1.08345,1.05732 1.62518,2.62548 1.62518,4.7032918 v 8.138988 h -4.12236 v -7.504596 c 0,-1.126818 -0.2471,-1.968516 -0.74012,-2.5233118 -0.49302,-0.554796 -1.20642,-0.832194 -2.14018,-0.832194 -1.0395,0 -1.86695,0.321354 -2.48352,0.9640618 -0.61657,0.643302 -0.92545,1.599048 -0.92545,2.867238 v 7.028802 h -4.12177 V 5.7209922 h 3.93704 v 1.664982 c 0.54588,-0.599346 1.22423,-1.061478 2.03504,-1.387584 0.80962,-0.326106 1.69943,-0.488862 2.66884,-0.488862 1.76121,0 3.18384,0.52866 4.2673,1.585386"
           id="Fill-374"
           style="fill:#d98bff;fill-opacity:1" />
        <path
           d="m 175.9668,19.025701 c -1.52421,-0.819126 -2.72171,-1.955448 -3.5943,-3.408966 -0.87139,-1.452924 -1.30739,-3.095334 -1.30739,-4.927824 0,-1.8318958 0.436,-3.4748998 1.30739,-4.9284178 0.87259,-1.452924 2.07009,-2.589246 3.5943,-3.408966 1.52361,-0.818532 3.2367,-1.228392 5.13988,-1.228392 1.60261,0 3.05197,0.281556 4.3463,0.845856 1.29492,0.563706 2.38253,1.373922 3.26343,2.430648 l -2.74784,2.536974 c -1.25156,-1.444608 -2.8013,-2.166912 -4.65102,-2.166912 -1.14523,0 -2.16632,0.250668 -3.06504,0.753192 -0.89813,0.50193 -1.59905,1.202256 -2.10098,2.100384 -0.50193,0.898722 -0.75319,1.920996 -0.75319,3.0656338 0,1.145232 0.25126,2.166912 0.75319,3.06504 0.50193,0.898722 1.20285,1.598454 2.10098,2.100978 0.89872,0.50193 1.91981,0.753192 3.06504,0.753192 1.84972,0 3.39946,-0.731214 4.65102,-2.193642 l 2.74784,2.536974 c -0.8809,1.074546 -1.97326,1.893672 -3.2765,2.457378 -1.30383,0.563706 -2.75735,0.845262 -4.35996,0.845262 -1.88536,0 -3.58954,-0.409266 -5.11315,-1.228392"
           id="Fill-376"
           style="fill:#d98bff;fill-opacity:1" />
        <path
           d="m 198.49353,16.885222 c 0.5453,-0.325512 0.93318,-0.805464 1.16246,-1.439856 v -1.453518 h -2.82744 c -1.69112,0 -2.53638,0.554796 -2.53638,1.664982 0,0.528066 0.20612,0.946836 0.62073,1.255122 0.41343,0.308286 0.98189,0.462132 1.70419,0.462132 0.70448,0 1.32996,-0.162756 1.87644,-0.488862 m 3.51411,-9.8033758 c 1.17968,1.04841 1.77071,2.629044 1.77071,4.7430898 v 8.112258 h -3.85803 v -1.77012 c -0.77576,1.321056 -2.21978,1.981584 -4.33382,1.981584 -1.09237,0 -2.0392,-0.184734 -2.84051,-0.554796 -0.8019,-0.369468 -1.41372,-0.880308 -1.83665,-1.53252 -0.42233,-0.651618 -0.63439,-1.391148 -0.63439,-2.219778 0,-1.321056 0.49777,-2.360556 1.49332,-3.117906 0.99495,-0.75735 2.53222,-1.136322 4.61122,-1.136322 h 3.2765 c 0,-0.898722 -0.27324,-1.5895438 -0.81912,-2.0748418 -0.54648,-0.48411 -1.36561,-0.726462 -2.45738,-0.726462 -0.75795,0 -1.50223,0.119394 -2.23285,0.356994 -0.73181,0.2376 -1.35254,0.559548 -1.86338,0.9640618 l -1.47965,-2.8797118 c 0.77517,-0.545886 1.70478,-0.968814 2.78764,-1.268784 1.08346,-0.298782 2.1978,-0.449064 3.34303,-0.449064 2.20196,0 3.89308,0.524502 5.07336,1.572318"
           id="Fill-378"
           style="fill:#d98bff;fill-opacity:1" />
        <path
           d="m 208.82486,19.712781 c -1.12741,-0.290466 -2.02614,-0.655776 -2.69498,-1.096524 l 1.37392,-2.959902 c 0.63439,0.405702 1.40065,0.735966 2.29878,0.990792 0.89813,0.256014 1.77963,0.38313 2.64271,0.38313 1.74398,0 2.61597,-0.431244 2.61597,-1.294326 0,-0.405108 -0.23819,-0.695574 -0.71339,-0.871992 -0.47579,-0.175824 -1.20701,-0.326106 -2.19305,-0.449064 -1.16305,-0.175824 -2.12355,-0.378972 -2.8809,-0.607662 -0.75735,-0.229284 -1.41372,-0.634392 -1.96851,-1.215918 -0.5548,-0.581526 -0.8322,-1.408968 -0.8322,-2.484108 0,-0.898128 0.25958,-1.694682 0.77933,-2.391444 0.51975,-0.695574 1.2771,-1.237302 2.27264,-1.62459 0.99495,-0.387288 2.17107,-0.581526 3.52777,-0.581526 1.00445,0 2.00356,0.10989 2.99911,0.330264 0.99495,0.220374 1.81882,0.523908 2.47104,0.91179 l -1.37452,2.933172 c -1.25096,-0.704484 -2.61598,-1.05732 -4.09563,-1.05732 -0.8809,0 -1.54143,0.123552 -1.98218,0.370062 -0.44015,0.24651 -0.66053,0.563706 -0.66053,0.951588 0,0.440154 0.2382,0.74844 0.7134,0.924858 0.47579,0.176418 1.23314,0.343332 2.27264,0.50193 1.16305,0.194238 2.11405,0.40095 2.85417,0.62073 0.74013,0.220374 1.38283,0.621324 1.92931,1.202256 0.5453,0.581526 0.81854,1.391742 0.81854,2.431242 0,0.880902 -0.26433,1.664982 -0.79299,2.351646 -0.52807,0.687258 -1.29908,1.220076 -2.31185,1.599048 -1.01337,0.378378 -2.21562,0.567864 -3.60677,0.567864 -1.18028,0 -2.33442,-0.14553 -3.46183,-0.435996"
           id="Fill-380"
           style="fill:#d98bff;fill-opacity:1" />
        <path
           d="m 228.82828,16.885222 c 0.54529,-0.325512 0.93377,-0.805464 1.16246,-1.439856 v -1.453518 h -2.82744 c -1.69112,0 -2.53638,0.554796 -2.53638,1.664982 0,0.528066 0.20612,0.946836 0.62073,1.255122 0.41342,0.308286 0.98188,0.462132 1.70478,0.462132 0.70389,0 1.32937,-0.162756 1.87585,-0.488862 m 3.51411,-9.8033758 c 1.18027,1.04841 1.77071,2.629044 1.77071,4.7430898 v 8.112258 h -3.85803 v -1.77012 c -0.77576,1.321056 -2.21978,1.981584 -4.33382,1.981584 -1.09237,0 -2.03921,-0.184734 -2.84051,-0.554796 -0.8019,-0.369468 -1.41372,-0.880308 -1.83665,-1.53252 -0.42233,-0.651618 -0.63439,-1.391148 -0.63439,-2.219778 0,-1.321056 0.49777,-2.360556 1.49331,-3.117906 0.99555,-0.75735 2.53223,-1.136322 4.61123,-1.136322 h 3.2765 c 0,-0.898722 -0.27324,-1.5895438 -0.81913,-2.0748418 -0.54588,-0.48411 -1.36501,-0.726462 -2.45737,-0.726462 -0.75735,0 -1.50223,0.119394 -2.23285,0.356994 -0.73121,0.2376 -1.35254,0.559548 -1.86338,0.9640618 l -1.47965,-2.8797118 c 0.77517,-0.545886 1.70478,-0.968814 2.78823,-1.268784 1.08287,-0.298782 2.19721,-0.449064 3.34244,-0.449064 2.20196,0 3.89308,0.524502 5.07336,1.572318"
           id="Fill-382"
           style="fill:#d98bff;fill-opacity:1" />
      </g>
      <g
         id="Group-394"
         transform="translate(29.7,2.376)"
         style="fill:#d98bff;fill-opacity:1">
        <g
           id="Group-387"
           style="fill:#d98bff;fill-opacity:1">
          <mask
             id="mask-2"
             fill="#ffffff">
            <use
               xlink:href="#path-1"
               id="use1086"
               x="0"
               y="0"
               width="100%"
               height="100%" />
          </mask>
          <g
             id="Clip-386"
             style="fill:#d98bff;fill-opacity:1" />
          <polygon
             id="Fill-385"
             fill="#fffffe"
             mask="url(#mask-2)"
             points="27.112595,16.547711 27.055571,16.641563 3.6270234,2.3808114 3.6846414,2.2863654 "
             style="fill:#d98bff;fill-opacity:1" />
        </g>
        <g
           id="Group-390"
           style="fill:#d98bff;fill-opacity:1">
          <mask
             id="mask-4"
             fill="#ffffff">
            <use
               xlink:href="#path-3"
               id="use1092"
               x="0"
               y="0"
               width="100%"
               height="100%" />
          </mask>
          <g
             id="Clip-389"
             style="fill:#d98bff;fill-opacity:1" />
          <polygon
             id="Fill-388"
             fill="#fffffe"
             mask="url(#mask-4)"
             points="26.97746,17.137672 26.920436,17.231524 3.4918884,2.9707722 3.5495064,2.8763262 "
             style="fill:#d98bff;fill-opacity:1" />
        </g>
        <g
           id="Group-393"
           style="fill:#d98bff;fill-opacity:1">
          <mask
             id="mask-6"
             fill="#ffffff">
            <use
               xlink:href="#path-5"
               id="use1098"
               x="0"
               y="0"
               width="100%"
               height="100%" />
          </mask>
          <g
             id="Clip-392"
             style="fill:#d98bff;fill-opacity:1" />
          <line
             x1="28.315683"
             y1="33.871899"
             x2="4.887135"
             y2="19.611147"
             id="Stroke-391"
             stroke="#fffffe"
             stroke-width="0.55"
             mask="url(#mask-6)"
             style="fill:#d98bff;fill-opacity:1" />
        </g>
      </g>
      <polygon
         id="Stroke-395"
         stroke="#fffffe"
         stroke-width="0.55"
         points="55.232555,19.842867 30.278615,4.653693 31.340093,2.909709 56.564303,17.797725 "
         style="fill:#d98bff;fill-opacity:1" />
      <g
         id="Group-406"
         transform="translate(4.158,2.376)"
         style="fill:#d98bff;fill-opacity:1">
        <g
           id="Group-399"
           style="fill:#d98bff;fill-opacity:1">
          <mask
             id="mask-8"
             fill="#ffffff">
            <use
               xlink:href="#path-7"
               id="use1106"
               x="0"
               y="0"
               width="100%"
               height="100%" />
          </mask>
          <g
             id="Clip-398"
             style="fill:#d98bff;fill-opacity:1" />
          <polygon
             id="Fill-397"
             fill="#fffffe"
             mask="url(#mask-8)"
             points="23.442269,2.3808114 0.0137214,16.641563 -0.0433026,16.547711 23.384651,2.2863654 "
             style="fill:#d98bff;fill-opacity:1" />
        </g>
        <g
           id="Group-402"
           style="fill:#d98bff;fill-opacity:1">
          <mask
             id="mask-10"
             fill="#ffffff">
            <use
               xlink:href="#path-9"
               id="use1112"
               x="0"
               y="0"
               width="100%"
               height="100%" />
          </mask>
          <g
             id="Clip-401"
             style="fill:#d98bff;fill-opacity:1" />
          <polygon
             id="Fill-400"
             fill="#fffffe"
             mask="url(#mask-10)"
             points="23.577286,2.9707722 0.1487376,17.231524 0.0917136,17.137672 23.519668,2.8763262 "
             style="fill:#d98bff;fill-opacity:1" />
        </g>
        <g
           id="Group-405"
           style="fill:#d98bff;fill-opacity:1">
          <mask
             id="mask-12"
             fill="#ffffff">
            <use
               xlink:href="#path-11"
               id="use1118"
               x="0"
               y="0"
               width="100%"
               height="100%" />
          </mask>
          <g
             id="Clip-404"
             style="fill:#d98bff;fill-opacity:1" />
          <line
             x1="-1.246509"
             y1="33.871899"
             x2="22.182039"
             y2="19.611147"
             id="Stroke-403"
             stroke="#fffffe"
             stroke-width="0.55"
             mask="url(#mask-12)"
             style="fill:#d98bff;fill-opacity:1" />
        </g>
      </g>
      <g
         id="Group-433"
         style="fill:#d98bff;fill-opacity:1">
        <polygon
           id="Stroke-407"
           stroke="#fffffe"
           stroke-width="0.55"
           points="5.694678,19.842867 30.648618,4.653693 29.58714,2.909709 4.331448,17.828613 "
           style="fill:#d98bff;fill-opacity:1" />
        <path
           d="m 27.982984,4.5492678 c 0.57915,0.563706 1.068012,1.343034 2.480544,1.265814 1.412532,-0.076626 1.901988,-0.702108 2.480544,-1.265814 L 59.012356,19.485398 60.472408,16.95377 32.159398,0.4857138 c -1.04841,-0.609444 -2.34333,-0.609444 -3.39174,0 L 0.4546476,16.95377 l 1.460052,2.531628 z"
           id="Fill-409"
           fill="#fffffe"
           style="fill:#d98bff;fill-opacity:1" />
        <path
           d="m 40.345371,38.963846 c -3.882384,0 -7.040682,-3.158298 -7.040682,-7.040682 0,-0.289278 0.01782,-0.581526 0.05287,-0.866052 l 0.437184,0.05346 c -0.03267,0.2673 -0.0499,0.54054 -0.0499,0.812592 0,3.639438 2.96109,6.599934 6.600528,6.599934 3.639438,0 6.599934,-2.960496 6.599934,-6.599934 0,-0.228096 -0.01129,-0.45441 -0.03386,-0.676566 l 0.438372,-0.04396 c 0.02376,0.237006 0.03623,0.476982 0.03623,0.720522 0,3.882384 -3.158298,7.040682 -7.040682,7.040682"
           id="Fill-411"
           fill="#fffffe"
           style="fill:#d98bff;fill-opacity:1" />
        <path
           d="m 47.712931,29.679982 0.584496,-2.215026 c 0.03029,-0.117018 -0.07306,-0.224532 -0.187704,-0.194832 l -0.605286,0.15741 c -0.09742,0.02554 -0.192456,-0.0499 -0.192456,-0.153252 v -3.040686 c 0,-0.108702 -0.10395,-0.184734 -0.203742,-0.150282 l -1.069794,0.368874 c -0.0689,0.02376 -0.144342,-0.0048 -0.181764,-0.06831 l -1.082268,-1.846746 c -0.03505,-0.06059 -0.105732,-0.08969 -0.17226,-0.07128 l -1.169586,0.321354 c -0.05643,0.01544 -0.11583,-0.003 -0.155034,-0.04693 l -1.30977,-1.484406 c -0.04871,-0.05524 -0.128304,-0.06831 -0.191268,-0.03148 l -1.6929,0.98307 c -0.05584,0.03208 -0.125334,0.02614 -0.174636,-0.01485 l -0.737154,-0.618948 c -0.06593,-0.05524 -0.162756,-0.04574 -0.21681,0.02138 l -0.782298,0.96228 c -0.06059,0.07425 -0.171666,0.07603 -0.23463,0.0036 l -0.907632,-1.04544 c -0.07366,-0.08494 -0.207306,-0.06534 -0.254826,0.03683 l -0.916542,1.969704 c -0.03089,0.06653 -0.102168,0.102168 -0.17226,0.08672 l -0.98604,-0.218592 c -0.08969,-0.0202 -0.177012,0.04455 -0.186516,0.138402 l -0.182952,1.79091 c -0.01069,0.102762 -0.11286,0.168102 -0.207306,0.131868 l -0.62667,-0.237006 c -0.11583,-0.04396 -0.233442,0.06296 -0.203742,0.185922 l 0.405108,1.688148 c 0.01663,0.06772 -0.01307,0.138996 -0.07247,0.174636 l -0.873774,0.519156 c -0.0695,0.04158 -0.09682,0.130086 -0.06237,0.204336 l 0.624294,1.348974 c 0.04039,0.08672 -0.0042,0.190674 -0.09385,0.219186 l -0.43956,0.138996 c -0.08316,0.02614 -0.128304,0.118206 -0.100386,0.202554 l 0.620136,1.86813 c 0.0048,0.01544 0.0083,0.03208 0.0089,0.04871 0.0012,0.06831 0.01782,0.271458 0.16038,0.265518 0.01544,-0.0012 0.192456,0.132462 0.307692,0.215028 0.05524,0.04039 0.129492,0.03802 0.183546,-0.0042 l 0.661122,-0.526284 c 0.04574,-0.03683 0.06772,-0.09623 0.05702,-0.15444 l -0.464508,-2.52747 c -0.02317,-0.122958 0.09682,-0.223344 0.210276,-0.175824 l 0.440748,0.183546 c 0.08791,0.03683 0.18711,-0.01544 0.208494,-0.110484 l 0.287496,-1.249776 c 0.02079,-0.09029 0.112266,-0.143154 0.19899,-0.114048 l 1.141074,0.3861 c 0.0986,0.03386 0.200772,-0.04039 0.203148,-0.146124 l 0.02198,-0.99198 c 0.003,-0.128304 0.14553,-0.200178 0.245916,-0.124146 l 0.556578,0.416988 c 0.06653,0.0499 0.159192,0.03742 0.211464,-0.02792 l 1.106028,-1.397088 c 0.06534,-0.08316 0.19008,-0.07722 0.248292,0.01129 l 0.697356,1.062072 c 0.06237,0.09504 0.19899,0.09326 0.258984,-0.003 l 0.621324,-0.999108 c 0.06475,-0.10395 0.216216,-0.09563 0.269082,0.01544 l 0.565488,1.181466 c 0.05227,0.10989 0.200178,0.119988 0.266706,0.01901 l 0.624888,-0.948618 c 0.06712,-0.101574 0.21681,-0.09029 0.267894,0.02079 l 0.801306,1.733292 c 0.03683,0.07841 0.128304,0.112266 0.205524,0.07544 l 1.499256,-0.683694 c 0.102762,-0.04871 0.220374,0.02732 0.220374,0.143748 l 0.116424,1.11969 c 0,0.11583 0.118206,0.192456 0.220968,0.14256 l 0.380754,-0.185328 c 0.10692,-0.05168 0.22869,0.03326 0.220968,0.153846 l -0.0499,0.741906 c -0.0059,0.09148 0.06475,0.16929 0.15444,0.16929 0.100386,0 0.174042,0.09623 0.149688,0.196614 l -0.514998,2.125926 c -0.01069,0.04277 -0.003,0.08732 0.0196,0.124146 l 0.321354,0.51084 c 0.0594,0.09445 0.19305,0.09742 0.256014,0.0059 l 1.583604,-2.277396 c 0.06831,-0.0986 0.0083,-0.235224 -0.108702,-0.24948 l -0.49896,-0.05881 c -0.09445,-0.01069 -0.156816,-0.105138 -0.131868,-0.198396"
           id="Fill-413"
           fill="#fffffe"
           style="fill:#d98bff;fill-opacity:1" />
        <path
           d="m 40.584872,36.813803 c -1.688742,0 -3.108402,-1.084644 -3.167802,-1.130976 -0.07247,-0.05584 -0.08554,-0.159192 -0.0297,-0.231066 0.05584,-0.07306 0.159192,-0.08554 0.23166,-0.03029 0.01366,0.01069 1.392336,1.062072 2.965842,1.062072 1.576476,0 2.934954,-1.050192 2.948616,-1.060884 0.07187,-0.05702 0.175824,-0.04336 0.232254,0.02792 0.05584,0.07187 0.04336,0.175824 -0.02851,0.23166 -0.05881,0.04633 -1.463022,1.13157 -3.152358,1.13157"
           id="Fill-415"
           fill="#fffffe"
           style="fill:#d98bff;fill-opacity:1" />
        <path
           d="m 38.783804,32.316748 c 0,0.437184 -0.256014,0.791802 -0.571428,0.791802 -0.315414,0 -0.570834,-0.354618 -0.570834,-0.791802 0,-0.437184 0.25542,-0.791802 0.570834,-0.791802 0.315414,0 0.571428,0.354618 0.571428,0.791802"
           id="Fill-417"
           fill="#fffffe"
           style="fill:#d98bff;fill-opacity:1" />
        <path
           d="m 43.511985,32.316748 c 0,0.437184 -0.256014,0.791802 -0.571428,0.791802 -0.315414,0 -0.570834,-0.354618 -0.570834,-0.791802 0,-0.437184 0.25542,-0.791802 0.570834,-0.791802 0.315414,0 0.571428,0.354618 0.571428,0.791802"
           id="Fill-419"
           fill="#fffffe"
           style="fill:#d98bff;fill-opacity:1" />
        <path
           d="m 29.131304,28.956312 c 0,-0.140778 -0.01663,-0.278586 -0.02732,-0.417582 l 0.0101,-0.0101 c 0,0 -0.0048,-0.0018 -0.01069,-0.0048 -0.288684,-3.64716 -4.150278,-6.499548 -7.947126,-6.499548 -4.077216,0 -7.46064,2.968218 -8.108694,6.861294 l 0.430056,0.367686 1.411938,-0.69795 c 0,0 2.844666,-1.404216 4.632606,-1.416096 0,0 3.868722,3.764772 8.305902,2.728242 l 0.95337,-0.99198 c 0.22275,0.05108 0.349866,0.08078 0.349866,0.08078"
           id="Fill-421"
           fill="#fffffe"
           style="fill:#d98bff;fill-opacity:1" />
        <path
           d="m 20.87809,38.451046 c -3.531924,0 -6.405696,-2.873178 -6.405696,-6.405696 0,-3.53133 2.873772,-6.405102 6.405696,-6.405102 3.531924,0 6.405102,2.873772 6.405102,6.405102 0,3.532518 -2.873178,6.405696 -6.405102,6.405696 m 8.816148,-1.852092 c 0.910008,-6.134238 -0.567864,-7.71309 -0.567864,-7.71309 l -2.897532,-1.077516 c -1.252746,-1.578258 -3.183246,-2.59578 -5.350752,-2.59578 -2.263734,0 -4.26789,1.11078 -5.51232,2.811402 l -2.317788,0.861894 c 0,0 -1.477872,1.578852 -0.567864,7.71309 0,0 0.586872,1.554498 -1.441638,1.879416 0,0 2.470446,3.587166 5.23017,-1.371546 0.0042,-0.0071 0.0077,-0.01426 0.01188,-0.02138 1.215324,1.109592 2.826252,1.793286 4.59756,1.793286 1.909116,0 3.635874,-0.789426 4.87674,-2.055834 0.0499,0.09445 0.09801,0.189486 0.150282,0.283932 2.760318,4.958712 5.230764,1.371546 5.230764,1.371546 -2.02851,-0.324918 -1.441638,-1.879416 -1.441638,-1.879416"
           id="Fill-423"
           fill="#fffffe"
           style="fill:#d98bff;fill-opacity:1" />
        <path
           d="m 19.362618,32.427826 c 0,0.424116 -0.248292,0.768042 -0.554202,0.768042 -0.306504,0 -0.554202,-0.343926 -0.554202,-0.768042 0,-0.424116 0.247698,-0.768042 0.554202,-0.768042 0.30591,0 0.554202,0.343926 0.554202,0.768042"
           id="Fill-425"
           fill="#fffffe"
           style="fill:#d98bff;fill-opacity:1" />
        <path
           d="m 23.951268,32.427826 c 0,0.424116 -0.248292,0.768042 -0.554202,0.768042 -0.306504,0 -0.554202,-0.343926 -0.554202,-0.768042 0,-0.424116 0.247698,-0.768042 0.554202,-0.768042 0.30591,0 0.554202,0.343926 0.554202,0.768042"
           id="Fill-427"
           fill="#fffffe"
           style="fill:#d98bff;fill-opacity:1" />
        <path
           d="m 21.110641,36.792063 c -1.638846,0 -3.016926,-1.052568 -3.074544,-1.097118 -0.07009,-0.05405 -0.08257,-0.155034 -0.02911,-0.225126 0.05465,-0.07009 0.155034,-0.08257 0.225126,-0.02851 0.01366,0.0101 1.35135,1.029996 2.878524,1.029996 1.530144,0 2.84823,-1.019304 2.861298,-1.029402 0.0695,-0.05465 0.170478,-0.04277 0.225126,0.02732 0.05465,0.0695 0.04277,0.170478 -0.02732,0.225126 -0.05702,0.04455 -1.41966,1.097712 -3.0591,1.097712"
           id="Fill-429"
           fill="#fffffe"
           style="fill:#d98bff;fill-opacity:1" />
        <polygon
           id="Fill-431"
           fill="#fffffe"
           points="4.346892,21.067992 4.346892,47.498022 10.13364,47.498022 10.13364,21.067992 "
           style="fill:#d98bff;fill-opacity:1" />
      </g>
      <g
         id="Group-446"
         transform="translate(4.158,21.978)"
         style="fill:#d98bff;fill-opacity:1">
        <g
           id="Group-436"
           transform="translate(0,19.602)"
           style="fill:#d98bff;fill-opacity:1">
          <mask
             id="mask-14"
             fill="#ffffff">
            <use
               xlink:href="#path-13"
               id="use1139"
               x="0"
               y="0"
               width="100%"
               height="100%" />
          </mask>
          <g
             id="Clip-435"
             style="fill:#d98bff;fill-opacity:1" />
          <polygon
             id="Fill-434"
             fill="#b3337f"
             mask="url(#mask-14)"
             points="-0.606474,0.479358 -0.606474,2.097414 6.98841,2.097414 6.98841,0.479358 "
             style="fill:#d98bff;fill-opacity:1" />
        </g>
        <g
           id="Group-439"
           transform="translate(0,22.572)"
           style="fill:#d98bff;fill-opacity:1">
          <mask
             id="mask-16"
             fill="#ffffff">
            <use
               xlink:href="#path-15"
               id="use1145"
               x="0"
               y="0"
               width="100%"
               height="100%" />
          </mask>
          <g
             id="Clip-438"
             style="fill:#d98bff;fill-opacity:1" />
          <polygon
             id="Fill-437"
             fill="#b3337f"
             mask="url(#mask-16)"
             points="-0.859518,0.07128 -0.859518,1.689336 6.735366,1.689336 6.735366,0.07128 "
             style="fill:#d98bff;fill-opacity:1" />
        </g>
        <g
           id="Group-442"
           style="fill:#d98bff;fill-opacity:1">
          <mask
             id="mask-18"
             fill="#ffffff">
            <use
               xlink:href="#path-17"
               id="use1151"
               x="0"
               y="0"
               width="100%"
               height="100%" />
          </mask>
          <g
             id="Clip-441"
             style="fill:#d98bff;fill-opacity:1" />
          <polygon
             id="Fill-440"
             fill="#b3337f"
             mask="url(#mask-18)"
             points="-0.606474,0.393822 -0.606474,2.011878 6.98841,2.011878 6.98841,0.393822 "
             style="fill:#d98bff;fill-opacity:1" />
        </g>
        <g
           id="Group-445"
           transform="translate(0,2.376)"
           style="fill:#d98bff;fill-opacity:1">
          <mask
             id="mask-20"
             fill="#ffffff">
            <use
               xlink:href="#path-19"
               id="use1157"
               x="0"
               y="0"
               width="100%"
               height="100%" />
          </mask>
          <g
             id="Clip-444"
             style="fill:#d98bff;fill-opacity:1" />
          <polygon
             id="Fill-443"
             fill="#b3337f"
             mask="url(#mask-20)"
             points="-0.859518,0.579744 -0.859518,2.1978 6.735366,2.1978 6.735366,0.579744 "
             style="fill:#d98bff;fill-opacity:1" />
        </g>
      </g>
      <polygon
         id="Fill-447"
         fill="#fffffe"
         points="50.793534,21.067992 50.793534,47.498022 56.580282,47.498022 56.580282,21.067992 "
         style="fill:#d98bff;fill-opacity:1" />
      <g
         id="Group-461"
         transform="translate(50.49,21.978)"
         style="fill:#d98bff;fill-opacity:1">
        <g
           id="Group-451"
           transform="translate(0,19.602)"
           style="fill:#d98bff;fill-opacity:1">
          <mask
             id="mask-22"
             fill="#ffffff">
            <use
               xlink:href="#path-21"
               id="use1165"
               x="0"
               y="0"
               width="100%"
               height="100%" />
          </mask>
          <g
             id="Clip-450"
             style="fill:#d98bff;fill-opacity:1" />
          <polygon
             id="Fill-449"
             fill="#b3337f"
             mask="url(#mask-22)"
             points="-0.492426,0.479358 -0.492426,2.097414 7.102458,2.097414 7.102458,0.479358 "
             style="fill:#d98bff;fill-opacity:1" />
        </g>
        <g
           id="Group-454"
           transform="translate(0,22.572)"
           style="fill:#d98bff;fill-opacity:1">
          <mask
             id="mask-24"
             fill="#ffffff">
            <use
               xlink:href="#path-23"
               id="use1171"
               x="0"
               y="0"
               width="100%"
               height="100%" />
          </mask>
          <g
             id="Clip-453"
             style="fill:#d98bff;fill-opacity:1" />
          <polygon
             id="Fill-452"
             fill="#b3337f"
             mask="url(#mask-24)"
             points="-0.74547,0.07128 -0.74547,1.689336 6.849414,1.689336 6.849414,0.07128 "
             style="fill:#d98bff;fill-opacity:1" />
        </g>
        <g
           id="Group-457"
           style="fill:#d98bff;fill-opacity:1">
          <mask
             id="mask-26"
             fill="#ffffff">
            <use
               xlink:href="#path-25"
               id="use1177"
               x="0"
               y="0"
               width="100%"
               height="100%" />
          </mask>
          <g
             id="Clip-456"
             style="fill:#d98bff;fill-opacity:1" />
          <polygon
             id="Fill-455"
             fill="#b3337f"
             mask="url(#mask-26)"
             points="-0.492426,0.393822 -0.492426,2.011878 7.102458,2.011878 7.102458,0.393822 "
             style="fill:#d98bff;fill-opacity:1" />
        </g>
        <g
           id="Group-460"
           transform="translate(0,2.376)"
           style="fill:#d98bff;fill-opacity:1">
          <mask
             id="mask-28"
             fill="#ffffff">
            <use
               xlink:href="#path-27"
               id="use1183"
               x="0"
               y="0"
               width="100%"
               height="100%" />
          </mask>
          <g
             id="Clip-459"
             style="fill:#d98bff;fill-opacity:1" />
          <polygon
             id="Fill-458"
             fill="#b3337f"
             mask="url(#mask-28)"
             points="-0.74547,0.579744 -0.74547,2.1978 6.849414,2.1978 6.849414,0.579744 "
             style="fill:#d98bff;fill-opacity:1" />
        </g>
      </g>
    </g>
  </g>
</svg>
