<?xml version="1.0" encoding="UTF-8" standalone="no"?>
<svg
   xmlns:dc="http://purl.org/dc/elements/1.1/"
   xmlns:cc="http://creativecommons.org/ns#"
   xmlns:rdf="http://www.w3.org/1999/02/22-rdf-syntax-ns#"
   xmlns:svg="http://www.w3.org/2000/svg"
   xmlns="http://www.w3.org/2000/svg"
   xmlns:xlink="http://www.w3.org/1999/xlink"
   xmlns:sodipodi="http://sodipodi.sourceforge.net/DTD/sodipodi-0.dtd"
   xmlns:inkscape="http://www.inkscape.org/namespaces/inkscape"
   width="112"
   height="168"
   viewBox="0 0 112 168"
   fill="none"
   version="1.1"
   id="svg67"
   sodipodi:docname="whiteboard.svg"
   inkscape:version="1.0.1 (3bc2e813f5, 2020-09-07)">
  <metadata
     id="metadata71">
    <rdf:RDF>
      <cc:Work
         rdf:about="">
        <dc:format>image/svg+xml</dc:format>
        <dc:type
           rdf:resource="http://purl.org/dc/dcmitype/StillImage" />
      </cc:Work>
    </rdf:RDF>
  </metadata>
  <sodipodi:namedview
     pagecolor="#ffffff"
     bordercolor="#666666"
     borderopacity="1"
     objecttolerance="10"
     gridtolerance="10"
     guidetolerance="10"
     inkscape:pageopacity="0"
     inkscape:pageshadow="2"
     inkscape:window-width="640"
     inkscape:window-height="480"
     id="namedview69"
     showgrid="false"
     inkscape:zoom="2.5267857"
     inkscape:cx="41.69488"
     inkscape:cy="113.14253"
     inkscape:current-layer="layer2"
     inkscape:document-rotation="0" />
  <defs
     id="defs65">
    <clipPath
       id="clip0">
      <rect
         width="112"
         height="168"
         fill="white"
         id="rect62" />
    </clipPath>
    <clipPath
       id="clip0-3">
      <rect
         width="112"
         height="168"
         fill="#ffffff"
         id="rect62-6"
         x="0"
         y="0" />
    </clipPath>
    <polygon
       id="path-1"
       points="0.578556 2.277396 25.532496 17.467164 26.864838 15.421428 1.640034 0.534006" />
    <polygon
       id="path-3"
       points="0.578556 2.277396 25.532496 17.467164 26.864838 15.421428 1.640034 0.534006" />
    <polyline
       id="path-5"
       points="0.578556 2.277396 25.532496 17.467164 26.864838 15.421428 1.640034 0.534006" />
    <polygon
       id="path-7"
       points="0.173448 15.45291 1.536678 17.467164 26.490618 2.277396 25.42914 0.534006" />
    <polygon
       id="path-9"
       points="0.173448 15.45291 1.536678 17.467164 26.490618 2.277396 25.42914 0.534006" />
    <polyline
       id="path-11"
       points="0.173448 15.45291 1.536678 17.467164 26.490618 2.277396 25.42914 0.534006" />
    <polygon
       id="path-13"
       points="0.188892 0.479358 5.97564 0.479358 5.97564 2.097414 0.188892 2.097414" />
    <polygon
       id="path-15"
       points="0.188892 0.07128 5.97564 0.07128 5.97564 1.689336 0.188892 1.689336" />
    <polygon
       id="path-17"
       points="0.188892 0.393822 5.97564 0.393822 5.97564 2.011878 0.188892 2.011878" />
    <polygon
       id="path-19"
       points="0.188892 0.579744 5.97564 0.579744 5.97564 2.1978 0.188892 2.1978" />
    <polygon
       id="path-21"
       points="0.303534 0.479358 6.090282 0.479358 6.090282 2.097414 0.303534 2.097414" />
    <polygon
       id="path-23"
       points="0.303534 0.07128 6.090282 0.07128 6.090282 1.689336 0.303534 1.689336" />
    <polygon
       id="path-25"
       points="0.303534 0.393822 6.090282 0.393822 6.090282 2.011878 0.303534 2.011878" />
    <polygon
       id="path-27"
       points="0.303534 0.579744 6.090282 0.579744 6.090282 2.1978 0.303534 2.1978" />
  </defs>
  <g
     inkscape:groupmode="layer"
     id="layer1"
     inkscape:label="logo"
     sodipodi:insensitive="true">
    <g
       clip-path="url(#clip0-3)"
       id="g60">
      <path
         d="M 112,0.899696 2.71927,65.3374 0,63.7325 110.276,0 Z"
         fill="#f5f4ec"
         id="path2" />
      <path
         d="M 112,104.146 1.69983,167.902 V 64.6563 L 112,0.899414 Z"
         fill="#e3e2dc"
         id="path4" />
      <path
         d="M 1.74815,168 0.097168,167.003 V 63.7568 l 1.650982,0.997 z"
         fill="#bebdb7"
         id="path6" />
      <path
         d="M 109.354,101.179 4.78333,161.751 V 65.8966 L 109.354,5.3252 Z"
         fill="#e6edef"
         id="path8" />
      <path
         d="m 91.9454,120.243 -61.912,35.769 v -1.702 l 23.5994,-15.198 38.3126,-20.571 z"
         fill="#e3e2dc"
         id="path10" />
      <path
         d="m 91.9457,118.542 -18.3308,10.577 -43.5812,25.192 -3.9575,-2.286 61.9362,-35.769 z"
         fill="#f98fb7"
         id="path12" />
      <path
         d="m 91.9457,118.542 -18.3308,10.577 -43.5812,25.192 -3.9575,-2.286 61.9362,-35.769 z"
         fill="#f5f4ec"
         id="path14" />
      <path
         d="m 28.0669,152.025 59.9454,-34.627 1.9423,1.143 -59.9211,34.626 z"
         fill="#bebdb7"
         id="path16" />
      <path
         d="m 30.0337,154.31 -3.9575,-2.286 v 1.727 l 3.9575,2.261 z"
         fill="#bebdb7"
         id="path18" />
      <path
         d="m 14.7619,70.5166 c -0.0883,0.8484 -0.3708,1.6649 -0.8256,2.3861 -0.4548,0.7212 -1.0696,1.3276 -1.7966,1.7719 -1.481,0.8511 -2.695,0.3404 -2.695,-1.1428 0.08721,-0.8673 0.3765,-1.702 0.8446,-2.4369 0.4681,-0.7348 1.1019,-1.3494 1.8504,-1.7941 1.4325,-0.8511 2.6222,-0.3405 2.6222,1.2158 z"
         fill="#88dd26"
         id="path20" />
      <path
         d="m 22.2886,66.0907 c -0.0827,0.8656 -0.3675,1.6995 -0.8315,2.4345 -0.4639,0.735 -1.094,1.3504 -1.8393,1.7965 -1.481,0.851 -2.6949,0.3404 -2.6949,-1.1429 0.0872,-0.8673 0.3764,-1.7019 0.8445,-2.4368 0.4681,-0.7349 1.1019,-1.3494 1.8504,-1.7942 1.4811,-0.851 2.6708,-0.3404 2.6708,1.1429 z"
         fill="#44b5f7"
         id="path22" />
      <path
         d="m 29.8151,61.7391 c -0.0827,0.8656 -0.3675,1.6996 -0.8315,2.4346 -0.4639,0.735 -1.094,1.3503 -1.8393,1.7964 -1.481,0.8511 -2.6707,0.3404 -2.6707,-1.1428 0.0827,-0.8656 0.3675,-1.6996 0.8315,-2.4346 0.4639,-0.735 1.094,-1.3504 1.8392,-1.7964 1.4811,-0.8511 2.6708,-0.3405 2.6708,1.1428 z"
         fill="#f74642"
         id="path24" />
      <path
         d="m 37.3417,57.3862 c -0.0827,0.8656 -0.3675,1.6996 -0.8315,2.4346 -0.4639,0.735 -1.094,1.3504 -1.8392,1.7964 -1.4811,0.8511 -2.6708,0.3405 -2.6708,-1.1428 0.0827,-0.8656 0.3675,-1.6996 0.8315,-2.4346 0.4639,-0.735 1.094,-1.3504 1.8393,-1.7964 1.481,-0.8511 2.6707,-0.3161 2.6707,1.1428 z"
         fill="#e8d33d"
         id="path26" />
      <path
         d="m 50.0637,141.033 c -0.0411,-0.332 -0.1563,-0.651 -0.337,-0.933 -0.1807,-0.282 -0.4223,-0.52 -0.7071,-0.696 -0.13,-0.084 -0.2818,-0.13 -0.437,-0.13 -0.1551,0 -0.307,0.046 -0.437,0.13 l -2.1609,1.265 1.4568,2.285 2.258,-1.313 c 0.1189,-0.047 0.219,-0.132 0.2848,-0.242 0.0658,-0.11 0.0937,-0.238 0.0794,-0.366 z"
         fill="#f74642"
         id="path28" />
      <path
         d="m 47.8056,142.225 c 0,0.584 -0.4613,0.778 -1.0198,0.462 -0.2914,-0.174 -0.5378,-0.415 -0.7192,-0.702 -0.1814,-0.287 -0.2926,-0.613 -0.3248,-0.952 0,-0.559 0.4613,-0.753 1.044,-0.437 0.2826,0.176 0.5214,0.414 0.6981,0.696 0.1767,0.283 0.2867,0.602 0.3217,0.933 z"
         fill="#c62424"
         id="path30" />
      <path
         d="m 47.6846,142.298 c -0.0367,-0.328 -0.1476,-0.643 -0.3243,-0.921 -0.1768,-0.278 -0.4146,-0.512 -0.6954,-0.684 -0.1264,-0.083 -0.274,-0.127 -0.4249,-0.127 -0.1509,0 -0.2985,0.044 -0.4249,0.127 l -6.3854,3.72 1.4082,2.213 6.5068,-3.744 c 0.1101,-0.05 0.202,-0.133 0.2629,-0.238 0.0609,-0.105 0.0878,-0.225 0.077,-0.346 z"
         fill="#666262"
         id="path32" />
      <path
         d="m 41.2746,146.043 c 0,0.559 -0.4613,0.754 -1.0198,0.438 -0.2775,-0.174 -0.5115,-0.409 -0.6841,-0.687 -0.1726,-0.278 -0.2791,-0.592 -0.3113,-0.918 0,-0.56 0.4613,-0.754 0.9954,-0.414 0.2828,0.164 0.5227,0.393 0.6999,0.668 0.1773,0.274 0.2869,0.587 0.3199,0.913 z"
         fill="#494646"
         id="path34" />
      <path
         d="m 71.2111,128.875 c -0.0313,-0.335 -0.1396,-0.659 -0.3165,-0.946 -0.1769,-0.287 -0.4176,-0.529 -0.7032,-0.707 -0.1301,-0.085 -0.2819,-0.13 -0.437,-0.13 -0.1552,0 -0.307,0.045 -0.4371,0.13 l -2.1608,1.264 1.4567,2.286 2.258,-1.313 c 0.1101,-0.05 0.202,-0.133 0.2629,-0.238 0.0609,-0.104 0.0878,-0.225 0.077,-0.346 z"
         fill="#88dd26"
         id="path36" />
      <path
         d="m 68.9773,130.164 c 0,0.56 -0.4613,0.754 -1.044,0.438 -0.2857,-0.178 -0.5263,-0.42 -0.7032,-0.707 -0.1769,-0.287 -0.2852,-0.611 -0.3165,-0.947 0,-0.559 0.4613,-0.753 1.0197,-0.437 0.2914,0.174 0.5378,0.414 0.7192,0.702 0.1814,0.287 0.2927,0.613 0.3248,0.951 z"
         fill="#6fb515"
         id="path38" />
      <path
         d="m 68.8558,130.213 c -0.0329,-0.326 -0.1425,-0.639 -0.3198,-0.914 -0.1773,-0.274 -0.4172,-0.503 -0.6999,-0.667 -0.1238,-0.089 -0.2724,-0.137 -0.4249,-0.137 -0.1524,0 -0.3011,0.048 -0.4249,0.137 l -6.2883,3.672 1.4325,2.237 6.5068,-3.769 c 0.0836,-0.065 0.1481,-0.151 0.1866,-0.249 0.0385,-0.099 0.0495,-0.206 0.0319,-0.31 z"
         fill="#666262"
         id="path40" />
      <path
         d="m 62.3732,133.957 c 0,0.559 -0.4613,0.754 -1.0197,0.438 -0.2801,-0.171 -0.5161,-0.405 -0.689,-0.684 -0.173,-0.279 -0.2779,-0.594 -0.3065,-0.921 0,-0.56 0.4371,-0.73 0.9955,-0.414 0.2827,0.164 0.5226,0.393 0.6999,0.668 0.1772,0.274 0.2869,0.587 0.3198,0.913 z"
         fill="#494646"
         id="path42" />
      <path
         d="m 61.2565,134.59 c -0.0331,-0.332 -0.1424,-0.652 -0.3192,-0.934 -0.1769,-0.283 -0.4167,-0.521 -0.7005,-0.695 -0.1289,-0.088 -0.2811,-0.135 -0.437,-0.135 -0.1559,0 -0.3082,0.047 -0.437,0.135 l -2.1609,1.264 1.4325,2.286 2.2822,-1.313 c 0.117,-0.048 0.2143,-0.134 0.276,-0.244 0.0618,-0.111 0.0843,-0.239 0.0639,-0.364 z"
         fill="#44b5f7"
         id="path44" />
      <path
         d="m 58.9987,135.903 c 0,0.559 -0.4613,0.754 -1.0198,0.413 -0.2883,-0.171 -0.5328,-0.408 -0.714,-0.691 -0.1812,-0.283 -0.2942,-0.604 -0.33,-0.938 0,-0.583 0.4856,-0.778 1.044,-0.437 0.2923,0.17 0.5382,0.41 0.7161,0.699 0.1778,0.288 0.2821,0.616 0.3037,0.954 z"
         fill="#2e8dbc"
         id="path46" />
      <path
         d="m 58.8769,135.951 c -0.0304,-0.326 -0.1362,-0.641 -0.3089,-0.92 -0.1728,-0.278 -0.4078,-0.513 -0.6866,-0.685 -0.1263,-0.082 -0.274,-0.126 -0.4249,-0.126 -0.1509,0 -0.2985,0.044 -0.4249,0.126 l -6.4339,3.648 1.4082,2.237 6.5311,-3.696 c 0.1101,-0.05 0.2019,-0.133 0.2628,-0.238 0.0609,-0.104 0.0878,-0.225 0.0771,-0.346 z"
         fill="#666262"
         id="path48" />
      <path
         d="m 52.3705,139.648 c 0,0.559 -0.4613,0.754 -1.0197,0.413 -0.2795,-0.165 -0.5157,-0.394 -0.6888,-0.669 -0.1731,-0.275 -0.2783,-0.588 -0.3067,-0.911 0,-0.56 0.4614,-0.754 1.0198,-0.438 0.2787,0.172 0.5138,0.406 0.6865,0.685 0.1728,0.278 0.2785,0.593 0.3089,0.92 z"
         fill="#494646"
         id="path50" />
      <path
         d="m 40.522,146.529 c -0.032,-0.335 -0.1434,-0.658 -0.325,-0.941 -0.1816,-0.284 -0.4281,-0.52 -0.719,-0.688 -0.1238,-0.089 -0.2724,-0.137 -0.4249,-0.137 -0.1524,0 -0.301,0.048 -0.4249,0.137 l -2.2094,1.24 1.4325,2.286 2.2822,-1.338 c 0.1173,-0.037 0.2189,-0.112 0.2891,-0.213 0.0703,-0.102 0.1052,-0.223 0.0994,-0.346 z"
         fill="#e8d33d"
         id="path52" />
      <path
         d="m 38.2882,147.842 c 0,0.583 -0.4613,0.778 -1.044,0.437 -0.2838,-0.174 -0.5235,-0.412 -0.7004,-0.695 -0.1769,-0.282 -0.2862,-0.602 -0.3193,-0.934 0,-0.583 0.4613,-0.778 1.0197,-0.438 0.2884,0.172 0.5328,0.409 0.714,0.692 0.1813,0.282 0.2942,0.604 0.33,0.938 z"
         fill="#c99e27"
         id="path54" />
      <path
         d="m 38.1427,147.915 c -0.0285,-0.327 -0.1335,-0.643 -0.3064,-0.921 -0.1729,-0.279 -0.409,-0.513 -0.689,-0.684 -0.1263,-0.082 -0.274,-0.126 -0.4249,-0.126 -0.1509,0 -0.2985,0.044 -0.4249,0.126 l -6.4097,3.696 1.4082,2.237 6.5311,-3.769 c 0.1086,-0.043 0.1992,-0.122 0.2566,-0.223 0.0575,-0.102 0.0783,-0.221 0.059,-0.336 z"
         fill="#666262"
         id="path56" />
      <path
         d="m 31.5629,151.66 c 0,0.559 -0.437,0.753 -0.9954,0.413 -0.2828,-0.164 -0.5226,-0.393 -0.6999,-0.667 -0.1773,-0.275 -0.2869,-0.588 -0.3199,-0.914 0,-0.559 0.4613,-0.753 1.0198,-0.437 0.2787,0.172 0.5137,0.406 0.6865,0.685 0.1728,0.278 0.2785,0.593 0.3089,0.92 z"
         fill="#494646"
         id="path58" />
    </g>
  </g>
  <g
     inkscape:groupmode="layer"
     id="layer2"
     inkscape:label="aprende">
    <g
       id="logo_aprende"
       style="fill:#ff00ff;fill-rule:evenodd;stroke:none;stroke-width:1"
       transform="matrix(0.33577672,-0.19566784,0,0.33577672,5.8114659,107.07236)">
      <g
         id="Group-384"
         transform="translate(69.498,19.008)"
         fill="#fffffe"
         style="fill:#ff00ff">
        <path
           d="M 13.496868,12.723421 10.563696,5.6417526 7.630524,12.723421 Z m 1.347786,3.250368 H 6.256602 L 4.61835,19.937551 H 0.23166 L 8.475786,1.4397966 h 4.228686 l 8.270262,18.4977544 h -4.491828 z"
           id="Fill-358"
           style="fill:#ff00ff" />
        <path
           d="m 32.905402,15.696331 c 0.677754,-0.713394 1.017522,-1.66914 1.017522,-2.867238 0,-1.197504 -0.339768,-2.153844 -1.017522,-2.8666438 -0.678348,-0.713394 -1.546182,-1.070388 -2.602908,-1.070388 -1.056726,0 -1.92456,0.356994 -2.602908,1.070388 -0.678348,0.7127998 -1.017522,1.6691398 -1.017522,2.8666438 0,1.198098 0.339174,2.153844 1.017522,2.867238 0.678348,0.713394 1.546182,1.070388 2.602908,1.070388 1.056726,0 1.92456,-0.356994 2.602908,-1.070388 M 34.62325,6.4210212 c 1.082862,0.608256 1.932876,1.462428 2.550042,2.56311 0.615978,1.1012758 0.924264,2.3831278 0.924264,3.8449618 0,1.462428 -0.308286,2.74428 -0.924264,3.844962 -0.617166,1.101276 -1.46718,1.955448 -2.550042,2.56311 -1.083456,0.607662 -2.286306,0.91179 -3.607362,0.91179 -1.81467,0 -3.241458,-0.572616 -4.280364,-1.717848 v 6.632604 h -4.12236 V 5.7212892 h 3.937032 v 1.638252 c 1.02168,-1.233144 2.510244,-1.849716 4.465692,-1.849716 1.321056,0 2.523906,0.303534 3.607362,0.911196"
           id="Fill-360"
           style="fill:#ff00ff" />
        <path
           d="m 46.777975,6.03801 c 0.836352,-0.352242 1.801008,-0.52866 2.893374,-0.52866 v 3.805164 c -0.458568,-0.035046 -0.76626,-0.052866 -0.924858,-0.052866 -1.180278,0 -2.105136,0.330264 -2.774574,0.990792 -0.670032,0.661122 -1.00386,1.651914 -1.00386,2.97297 v 6.711606 h -4.12236 V 5.720814 h 3.937032 V 7.59726 c 0.49302,-0.687258 1.1583,-1.206414 1.995246,-1.55925"
           id="Fill-362"
           style="fill:#ff00ff" />
        <path
           d="m 56.198578,9.4204836 c -0.634392,0.52866 -1.022274,1.2509644 -1.163052,2.1663184 h 7.002666 c -0.140778,-0.898128 -0.528066,-1.6156804 -1.162458,-2.1532504 -0.634392,-0.536976 -1.410156,-0.805464 -2.32551,-0.805464 -0.934362,0 -1.717848,0.263736 -2.351646,0.792396 m 9.644778,4.5714244 h -10.75437 c 0.193644,0.880902 0.651024,1.57707 1.373922,2.087316 0.722304,0.511434 1.620432,0.76626 2.694978,0.76626 0.740124,0 1.3959,-0.10989 1.968516,-0.330264 0.572616,-0.21978 1.105434,-0.567864 1.599048,-1.043064 l 2.193048,2.377782 c -1.338876,1.53252 -3.294324,2.29878 -5.866344,2.29878 -1.603206,0 -3.021084,-0.312444 -4.254228,-0.937926 -1.233144,-0.625482 -2.184732,-1.492722 -2.853576,-2.602908 -0.670032,-1.109592 -1.004454,-2.368872 -1.004454,-3.778434 0,-1.391742 0.330264,-2.646864 0.991386,-3.7659604 0.660528,-1.118502 1.567566,-1.990494 2.721114,-2.615382 1.154142,-0.625482 2.44431,-0.93852 3.871692,-0.93852 1.391148,0 2.651022,0.299376 3.778434,0.898722 1.127412,0.598752 2.012472,1.457676 2.655774,2.576178 0.642708,1.1190964 0.964656,2.4175804 0.964656,3.8978284 0,0.05287 -0.02673,0.422334 -0.0796,1.109592"
           id="Fill-364"
           style="fill:#ff00ff" />
        <path
           d="m 81.579485,7.0949142 c 1.083456,1.05732 1.625184,2.62548 1.625184,4.7032918 v 8.138988 h -4.12236 v -7.504596 c 0,-1.126818 -0.247104,-1.968516 -0.740124,-2.5233118 -0.49302,-0.554796 -1.206414,-0.832194 -2.140182,-0.832194 -1.0395,0 -1.867536,0.321354 -2.483514,0.9640618 -0.617166,0.643302 -0.925452,1.599048 -0.925452,2.867238 v 7.028802 H 68.671271 V 5.7209922 h 3.937032 v 1.664982 c 0.545886,-0.599346 1.224234,-1.061478 2.035044,-1.387584 0.809622,-0.326106 1.699434,-0.488862 2.668248,-0.488862 1.761804,0 3.184434,0.52866 4.26789,1.585386"
           id="Fill-366"
           style="fill:#ff00ff" />
        <path
           d="m 96.495775,15.696331 c 0.686664,-0.713394 1.03059,-1.66914 1.03059,-2.867238 0,-1.197504 -0.343926,-2.153844 -1.03059,-2.8666438 -0.686664,-0.713394 -1.55034,-1.070388 -2.58984,-1.070388 -1.056726,0 -1.928718,0.356994 -2.615976,1.070388 -0.686664,0.7127998 -1.029996,1.6691398 -1.029996,2.8666438 0,1.198098 0.343332,2.153844 1.029996,2.867238 0.687258,0.713394 1.55925,1.070388 2.615976,1.070388 1.0395,0 1.903176,-0.356994 2.58984,-1.070388 z M 101.56913,0.3301452 V 19.937491 h -3.937033 v -1.638252 c -1.022274,1.233144 -2.501928,1.849716 -4.439556,1.849716 -1.338876,0 -2.550042,-0.299376 -3.632904,-0.898722 -1.083456,-0.598752 -1.934064,-1.453518 -2.550636,-2.56311 -0.616572,-1.109592 -0.924264,-2.395602 -0.924264,-3.85803 0,-1.461834 0.307692,-2.748438 0.924264,-3.8580298 0.616572,-1.109592 1.46718,-1.963764 2.550636,-2.56311 1.082862,-0.598752 2.294028,-0.898128 3.632904,-0.898128 1.814076,0 3.232548,0.572022 4.254228,1.717254 v -6.896934 z"
           id="Fill-368"
           style="fill:#ff00ff" />
        <path
           d="m 109.57577,9.4204836 c -0.63439,0.52866 -1.02227,1.2509644 -1.16305,2.1663184 h 7.00267 c -0.14078,-0.898128 -0.52807,-1.6156804 -1.16246,-2.1532504 -0.63439,-0.536976 -1.41016,-0.805464 -2.32551,-0.805464 -0.93436,0 -1.71785,0.263736 -2.35165,0.792396 m 9.64478,4.5714244 h -10.75437 c 0.19365,0.880902 0.65103,1.57707 1.37392,2.087316 0.72231,0.511434 1.62044,0.76626 2.69498,0.76626 0.74013,0 1.3959,-0.10989 1.96852,-0.330264 0.57261,-0.21978 1.10543,-0.567864 1.59905,-1.043064 l 2.19304,2.377782 c -1.33887,1.53252 -3.29432,2.29878 -5.86634,2.29878 -1.60321,0 -3.02108,-0.312444 -4.25423,-0.937926 -1.23314,-0.625482 -2.18473,-1.492722 -2.85357,-2.602908 -0.67004,-1.109592 -1.00446,-2.368872 -1.00446,-3.778434 0,-1.391742 0.33027,-2.646864 0.99139,-3.7659604 0.66053,-1.118502 1.56756,-1.990494 2.72111,-2.615382 1.15414,-0.625482 2.44431,-0.93852 3.87169,-0.93852 1.39115,0 2.65103,0.299376 3.77844,0.898722 1.12741,0.598752 2.01247,1.457676 2.65577,2.576178 0.64271,1.1190964 0.96466,2.4175804 0.96466,3.8978284 0,0.05287 -0.0267,0.422334 -0.0796,1.109592"
           id="Fill-370"
           style="fill:#ff00ff" />
        <path
           d="m 133.72752,9.4204836 c -0.6344,0.52866 -1.02168,1.2509644 -1.16246,2.1663184 h 7.00207 c -0.14078,-0.898128 -0.52807,-1.6156804 -1.16246,-2.1532504 -0.63439,-0.536976 -1.40956,-0.805464 -2.32491,-0.805464 -0.93437,0 -1.71785,0.263736 -2.35224,0.792396 m 9.64477,4.5714244 h -10.75436 c 0.19364,0.880902 0.65102,1.57707 1.37392,2.087316 0.7223,0.511434 1.62043,0.76626 2.69497,0.76626 0.74013,0 1.3959,-0.10989 1.96852,-0.330264 0.57262,-0.21978 1.10543,-0.567864 1.59905,-1.043064 l 2.19364,2.377782 c -1.33947,1.53252 -3.29492,2.29878 -5.86694,2.29878 -1.6032,0 -3.02108,-0.312444 -4.25423,-0.937926 -1.23314,-0.625482 -2.18413,-1.492722 -2.85357,-2.602908 -0.67003,-1.109592 -1.00445,-2.368872 -1.00445,-3.778434 0,-1.391742 0.33026,-2.646864 0.99138,-3.7659604 0.66053,-1.118502 1.56757,-1.990494 2.72111,-2.615382 1.15415,-0.625482 2.44431,-0.93852 3.8717,-0.93852 1.39114,0 2.65102,0.299376 3.77843,0.898722 1.12741,0.598752 2.01247,1.457676 2.65577,2.576178 0.64271,1.1190964 0.96466,2.4175804 0.96466,3.8978284 0,0.05287 -0.0267,0.422334 -0.0796,1.109592"
           id="Fill-372"
           style="fill:#ff00ff" />
        <path
           d="m 159.10795,7.0949142 c 1.08345,1.05732 1.62518,2.62548 1.62518,4.7032918 v 8.138988 h -4.12236 v -7.504596 c 0,-1.126818 -0.2471,-1.968516 -0.74012,-2.5233118 -0.49302,-0.554796 -1.20642,-0.832194 -2.14018,-0.832194 -1.0395,0 -1.86695,0.321354 -2.48352,0.9640618 -0.61657,0.643302 -0.92545,1.599048 -0.92545,2.867238 v 7.028802 h -4.12177 V 5.7209922 h 3.93704 v 1.664982 c 0.54588,-0.599346 1.22423,-1.061478 2.03504,-1.387584 0.80962,-0.326106 1.69943,-0.488862 2.66884,-0.488862 1.76121,0 3.18384,0.52866 4.2673,1.585386"
           id="Fill-374"
           style="fill:#ff00ff" />
        <path
           d="m 175.9668,19.025701 c -1.52421,-0.819126 -2.72171,-1.955448 -3.5943,-3.408966 -0.87139,-1.452924 -1.30739,-3.095334 -1.30739,-4.927824 0,-1.8318958 0.436,-3.4748998 1.30739,-4.9284178 0.87259,-1.452924 2.07009,-2.589246 3.5943,-3.408966 1.52361,-0.818532 3.2367,-1.228392 5.13988,-1.228392 1.60261,0 3.05197,0.281556 4.3463,0.845856 1.29492,0.563706 2.38253,1.373922 3.26343,2.430648 l -2.74784,2.536974 c -1.25156,-1.444608 -2.8013,-2.166912 -4.65102,-2.166912 -1.14523,0 -2.16632,0.250668 -3.06504,0.753192 -0.89813,0.50193 -1.59905,1.202256 -2.10098,2.100384 -0.50193,0.898722 -0.75319,1.920996 -0.75319,3.0656338 0,1.145232 0.25126,2.166912 0.75319,3.06504 0.50193,0.898722 1.20285,1.598454 2.10098,2.100978 0.89872,0.50193 1.91981,0.753192 3.06504,0.753192 1.84972,0 3.39946,-0.731214 4.65102,-2.193642 l 2.74784,2.536974 c -0.8809,1.074546 -1.97326,1.893672 -3.2765,2.457378 -1.30383,0.563706 -2.75735,0.845262 -4.35996,0.845262 -1.88536,0 -3.58954,-0.409266 -5.11315,-1.228392"
           id="Fill-376"
           style="fill:#ff00ff" />
        <path
           d="m 198.49353,16.885222 c 0.5453,-0.325512 0.93318,-0.805464 1.16246,-1.439856 v -1.453518 h -2.82744 c -1.69112,0 -2.53638,0.554796 -2.53638,1.664982 0,0.528066 0.20612,0.946836 0.62073,1.255122 0.41343,0.308286 0.98189,0.462132 1.70419,0.462132 0.70448,0 1.32996,-0.162756 1.87644,-0.488862 m 3.51411,-9.8033758 c 1.17968,1.04841 1.77071,2.629044 1.77071,4.7430898 v 8.112258 h -3.85803 v -1.77012 c -0.77576,1.321056 -2.21978,1.981584 -4.33382,1.981584 -1.09237,0 -2.0392,-0.184734 -2.84051,-0.554796 -0.8019,-0.369468 -1.41372,-0.880308 -1.83665,-1.53252 -0.42233,-0.651618 -0.63439,-1.391148 -0.63439,-2.219778 0,-1.321056 0.49777,-2.360556 1.49332,-3.117906 0.99495,-0.75735 2.53222,-1.136322 4.61122,-1.136322 h 3.2765 c 0,-0.898722 -0.27324,-1.5895438 -0.81912,-2.0748418 -0.54648,-0.48411 -1.36561,-0.726462 -2.45738,-0.726462 -0.75795,0 -1.50223,0.119394 -2.23285,0.356994 -0.73181,0.2376 -1.35254,0.559548 -1.86338,0.9640618 l -1.47965,-2.8797118 c 0.77517,-0.545886 1.70478,-0.968814 2.78764,-1.268784 1.08346,-0.298782 2.1978,-0.449064 3.34303,-0.449064 2.20196,0 3.89308,0.524502 5.07336,1.572318"
           id="Fill-378"
           style="fill:#ff00ff" />
        <path
           d="m 208.82486,19.712781 c -1.12741,-0.290466 -2.02614,-0.655776 -2.69498,-1.096524 l 1.37392,-2.959902 c 0.63439,0.405702 1.40065,0.735966 2.29878,0.990792 0.89813,0.256014 1.77963,0.38313 2.64271,0.38313 1.74398,0 2.61597,-0.431244 2.61597,-1.294326 0,-0.405108 -0.23819,-0.695574 -0.71339,-0.871992 -0.47579,-0.175824 -1.20701,-0.326106 -2.19305,-0.449064 -1.16305,-0.175824 -2.12355,-0.378972 -2.8809,-0.607662 -0.75735,-0.229284 -1.41372,-0.634392 -1.96851,-1.215918 -0.5548,-0.581526 -0.8322,-1.408968 -0.8322,-2.484108 0,-0.898128 0.25958,-1.694682 0.77933,-2.391444 0.51975,-0.695574 1.2771,-1.237302 2.27264,-1.62459 0.99495,-0.387288 2.17107,-0.581526 3.52777,-0.581526 1.00445,0 2.00356,0.10989 2.99911,0.330264 0.99495,0.220374 1.81882,0.523908 2.47104,0.91179 l -1.37452,2.933172 c -1.25096,-0.704484 -2.61598,-1.05732 -4.09563,-1.05732 -0.8809,0 -1.54143,0.123552 -1.98218,0.370062 -0.44015,0.24651 -0.66053,0.563706 -0.66053,0.951588 0,0.440154 0.2382,0.74844 0.7134,0.924858 0.47579,0.176418 1.23314,0.343332 2.27264,0.50193 1.16305,0.194238 2.11405,0.40095 2.85417,0.62073 0.74013,0.220374 1.38283,0.621324 1.92931,1.202256 0.5453,0.581526 0.81854,1.391742 0.81854,2.431242 0,0.880902 -0.26433,1.664982 -0.79299,2.351646 -0.52807,0.687258 -1.29908,1.220076 -2.31185,1.599048 -1.01337,0.378378 -2.21562,0.567864 -3.60677,0.567864 -1.18028,0 -2.33442,-0.14553 -3.46183,-0.435996"
           id="Fill-380"
           style="fill:#ff00ff" />
        <path
           d="m 228.82828,16.885222 c 0.54529,-0.325512 0.93377,-0.805464 1.16246,-1.439856 v -1.453518 h -2.82744 c -1.69112,0 -2.53638,0.554796 -2.53638,1.664982 0,0.528066 0.20612,0.946836 0.62073,1.255122 0.41342,0.308286 0.98188,0.462132 1.70478,0.462132 0.70389,0 1.32937,-0.162756 1.87585,-0.488862 m 3.51411,-9.8033758 c 1.18027,1.04841 1.77071,2.629044 1.77071,4.7430898 v 8.112258 h -3.85803 v -1.77012 c -0.77576,1.321056 -2.21978,1.981584 -4.33382,1.981584 -1.09237,0 -2.03921,-0.184734 -2.84051,-0.554796 -0.8019,-0.369468 -1.41372,-0.880308 -1.83665,-1.53252 -0.42233,-0.651618 -0.63439,-1.391148 -0.63439,-2.219778 0,-1.321056 0.49777,-2.360556 1.49331,-3.117906 0.99555,-0.75735 2.53223,-1.136322 4.61123,-1.136322 h 3.2765 c 0,-0.898722 -0.27324,-1.5895438 -0.81913,-2.0748418 -0.54588,-0.48411 -1.36501,-0.726462 -2.45737,-0.726462 -0.75735,0 -1.50223,0.119394 -2.23285,0.356994 -0.73121,0.2376 -1.35254,0.559548 -1.86338,0.9640618 l -1.47965,-2.8797118 c 0.77517,-0.545886 1.70478,-0.968814 2.78823,-1.268784 1.08287,-0.298782 2.19721,-0.449064 3.34244,-0.449064 2.20196,0 3.89308,0.524502 5.07336,1.572318"
           id="Fill-382"
           style="fill:#ff00ff" />
      </g>
      <g
         id="Group-394"
         transform="translate(29.7,2.376)"
         style="fill:#ff00ff">
        <g
           id="Group-387"
           style="fill:#ff00ff">
          <mask
             id="mask-2"
             fill="#ffffff">
            <use
               xlink:href="#path-1"
               id="use1223"
               x="0"
               y="0"
               width="100%"
               height="100%" />
          </mask>
          <g
             id="Clip-386"
             style="fill:#ff00ff" />
          <polygon
             id="Fill-385"
             fill="#fffffe"
             mask="url(#mask-2)"
             points="3.6270234,2.3808114 3.6846414,2.2863654 27.112595,16.547711 27.055571,16.641563 "
             style="fill:#ff00ff" />
        </g>
        <g
           id="Group-390"
           style="fill:#ff00ff">
          <mask
             id="mask-4"
             fill="#ffffff">
            <use
               xlink:href="#path-3"
               id="use1229"
               x="0"
               y="0"
               width="100%"
               height="100%" />
          </mask>
          <g
             id="Clip-389"
             style="fill:#ff00ff" />
          <polygon
             id="Fill-388"
             fill="#fffffe"
             mask="url(#mask-4)"
             points="3.4918884,2.9707722 3.5495064,2.8763262 26.97746,17.137672 26.920436,17.231524 "
             style="fill:#ff00ff" />
        </g>
        <g
           id="Group-393"
           style="fill:#ff00ff">
          <mask
             id="mask-6"
             fill="#ffffff">
            <use
               xlink:href="#path-5"
               id="use1235"
               x="0"
               y="0"
               width="100%"
               height="100%" />
          </mask>
          <g
             id="Clip-392"
             style="fill:#ff00ff" />
          <line
             x1="28.315683"
             y1="33.871899"
             x2="4.887135"
             y2="19.611147"
             id="Stroke-391"
             stroke="#fffffe"
             stroke-width="0.55"
             mask="url(#mask-6)"
             style="fill:#ff00ff" />
        </g>
      </g>
      <polygon
         id="Stroke-395"
         stroke="#fffffe"
         stroke-width="0.55"
         points="31.340093,2.909709 56.564303,17.797725 55.232555,19.842867 30.278615,4.653693 "
         style="fill:#ff00ff" />
      <g
         id="Group-406"
         transform="translate(4.158,2.376)"
         style="fill:#ff00ff">
        <g
           id="Group-399"
           style="fill:#ff00ff">
          <mask
             id="mask-8"
             fill="#ffffff">
            <use
               xlink:href="#path-7"
               id="use1243"
               x="0"
               y="0"
               width="100%"
               height="100%" />
          </mask>
          <g
             id="Clip-398"
             style="fill:#ff00ff" />
          <polygon
             id="Fill-397"
             fill="#fffffe"
             mask="url(#mask-8)"
             points="-0.0433026,16.547711 23.384651,2.2863654 23.442269,2.3808114 0.0137214,16.641563 "
             style="fill:#ff00ff" />
        </g>
        <g
           id="Group-402"
           style="fill:#ff00ff">
          <mask
             id="mask-10"
             fill="#ffffff">
            <use
               xlink:href="#path-9"
               id="use1249"
               x="0"
               y="0"
               width="100%"
               height="100%" />
          </mask>
          <g
             id="Clip-401"
             style="fill:#ff00ff" />
          <polygon
             id="Fill-400"
             fill="#fffffe"
             mask="url(#mask-10)"
             points="0.0917136,17.137672 23.519668,2.8763262 23.577286,2.9707722 0.1487376,17.231524 "
             style="fill:#ff00ff" />
        </g>
        <g
           id="Group-405"
           style="fill:#ff00ff">
          <mask
             id="mask-12"
             fill="#ffffff">
            <use
               xlink:href="#path-11"
               id="use1255"
               x="0"
               y="0"
               width="100%"
               height="100%" />
          </mask>
          <g
             id="Clip-404"
             style="fill:#ff00ff" />
          <line
             x1="-1.246509"
             y1="33.871899"
             x2="22.182039"
             y2="19.611147"
             id="Stroke-403"
             stroke="#fffffe"
             stroke-width="0.55"
             mask="url(#mask-12)"
             style="fill:#ff00ff" />
        </g>
      </g>
      <g
         id="Group-433"
         style="fill:#ff00ff">
        <polygon
           id="Stroke-407"
           stroke="#fffffe"
           stroke-width="0.55"
           points="29.58714,2.909709 4.331448,17.828613 5.694678,19.842867 30.648618,4.653693 "
           style="fill:#ff00ff" />
        <path
           d="m 27.982984,4.5492678 c 0.57915,0.563706 1.068012,1.343034 2.480544,1.265814 1.412532,-0.076626 1.901988,-0.702108 2.480544,-1.265814 L 59.012356,19.485398 60.472408,16.95377 32.159398,0.4857138 c -1.04841,-0.609444 -2.34333,-0.609444 -3.39174,0 L 0.4546476,16.95377 l 1.460052,2.531628 z"
           id="Fill-409"
           fill="#fffffe"
           style="fill:#ff00ff" />
        <path
           d="m 40.345371,38.963846 c -3.882384,0 -7.040682,-3.158298 -7.040682,-7.040682 0,-0.289278 0.01782,-0.581526 0.05287,-0.866052 l 0.437184,0.05346 c -0.03267,0.2673 -0.0499,0.54054 -0.0499,0.812592 0,3.639438 2.96109,6.599934 6.600528,6.599934 3.639438,0 6.599934,-2.960496 6.599934,-6.599934 0,-0.228096 -0.01129,-0.45441 -0.03386,-0.676566 l 0.438372,-0.04396 c 0.02376,0.237006 0.03623,0.476982 0.03623,0.720522 0,3.882384 -3.158298,7.040682 -7.040682,7.040682"
           id="Fill-411"
           fill="#fffffe"
           style="fill:#ff00ff" />
        <path
           d="m 47.712931,29.679982 0.584496,-2.215026 c 0.03029,-0.117018 -0.07306,-0.224532 -0.187704,-0.194832 l -0.605286,0.15741 c -0.09742,0.02554 -0.192456,-0.0499 -0.192456,-0.153252 v -3.040686 c 0,-0.108702 -0.10395,-0.184734 -0.203742,-0.150282 l -1.069794,0.368874 c -0.0689,0.02376 -0.144342,-0.0048 -0.181764,-0.06831 l -1.082268,-1.846746 c -0.03505,-0.06059 -0.105732,-0.08969 -0.17226,-0.07128 l -1.169586,0.321354 c -0.05643,0.01544 -0.11583,-0.003 -0.155034,-0.04693 l -1.30977,-1.484406 c -0.04871,-0.05524 -0.128304,-0.06831 -0.191268,-0.03148 l -1.6929,0.98307 c -0.05584,0.03208 -0.125334,0.02614 -0.174636,-0.01485 l -0.737154,-0.618948 c -0.06593,-0.05524 -0.162756,-0.04574 -0.21681,0.02138 l -0.782298,0.96228 c -0.06059,0.07425 -0.171666,0.07603 -0.23463,0.0036 l -0.907632,-1.04544 c -0.07366,-0.08494 -0.207306,-0.06534 -0.254826,0.03683 l -0.916542,1.969704 c -0.03089,0.06653 -0.102168,0.102168 -0.17226,0.08672 l -0.98604,-0.218592 c -0.08969,-0.0202 -0.177012,0.04455 -0.186516,0.138402 l -0.182952,1.79091 c -0.01069,0.102762 -0.11286,0.168102 -0.207306,0.131868 l -0.62667,-0.237006 c -0.11583,-0.04396 -0.233442,0.06296 -0.203742,0.185922 l 0.405108,1.688148 c 0.01663,0.06772 -0.01307,0.138996 -0.07247,0.174636 l -0.873774,0.519156 c -0.0695,0.04158 -0.09682,0.130086 -0.06237,0.204336 l 0.624294,1.348974 c 0.04039,0.08672 -0.0042,0.190674 -0.09385,0.219186 l -0.43956,0.138996 c -0.08316,0.02614 -0.128304,0.118206 -0.100386,0.202554 l 0.620136,1.86813 c 0.0048,0.01544 0.0083,0.03208 0.0089,0.04871 0.0012,0.06831 0.01782,0.271458 0.16038,0.265518 0.01544,-0.0012 0.192456,0.132462 0.307692,0.215028 0.05524,0.04039 0.129492,0.03802 0.183546,-0.0042 l 0.661122,-0.526284 c 0.04574,-0.03683 0.06772,-0.09623 0.05702,-0.15444 l -0.464508,-2.52747 c -0.02317,-0.122958 0.09682,-0.223344 0.210276,-0.175824 l 0.440748,0.183546 c 0.08791,0.03683 0.18711,-0.01544 0.208494,-0.110484 l 0.287496,-1.249776 c 0.02079,-0.09029 0.112266,-0.143154 0.19899,-0.114048 l 1.141074,0.3861 c 0.0986,0.03386 0.200772,-0.04039 0.203148,-0.146124 l 0.02198,-0.99198 c 0.003,-0.128304 0.14553,-0.200178 0.245916,-0.124146 l 0.556578,0.416988 c 0.06653,0.0499 0.159192,0.03742 0.211464,-0.02792 l 1.106028,-1.397088 c 0.06534,-0.08316 0.19008,-0.07722 0.248292,0.01129 l 0.697356,1.062072 c 0.06237,0.09504 0.19899,0.09326 0.258984,-0.003 l 0.621324,-0.999108 c 0.06475,-0.10395 0.216216,-0.09563 0.269082,0.01544 l 0.565488,1.181466 c 0.05227,0.10989 0.200178,0.119988 0.266706,0.01901 l 0.624888,-0.948618 c 0.06712,-0.101574 0.21681,-0.09029 0.267894,0.02079 l 0.801306,1.733292 c 0.03683,0.07841 0.128304,0.112266 0.205524,0.07544 l 1.499256,-0.683694 c 0.102762,-0.04871 0.220374,0.02732 0.220374,0.143748 l 0.116424,1.11969 c 0,0.11583 0.118206,0.192456 0.220968,0.14256 l 0.380754,-0.185328 c 0.10692,-0.05168 0.22869,0.03326 0.220968,0.153846 l -0.0499,0.741906 c -0.0059,0.09148 0.06475,0.16929 0.15444,0.16929 0.100386,0 0.174042,0.09623 0.149688,0.196614 l -0.514998,2.125926 c -0.01069,0.04277 -0.003,0.08732 0.0196,0.124146 l 0.321354,0.51084 c 0.0594,0.09445 0.19305,0.09742 0.256014,0.0059 l 1.583604,-2.277396 c 0.06831,-0.0986 0.0083,-0.235224 -0.108702,-0.24948 l -0.49896,-0.05881 c -0.09445,-0.01069 -0.156816,-0.105138 -0.131868,-0.198396"
           id="Fill-413"
           fill="#fffffe"
           style="fill:#ff00ff" />
        <path
           d="m 40.584872,36.813803 c -1.688742,0 -3.108402,-1.084644 -3.167802,-1.130976 -0.07247,-0.05584 -0.08554,-0.159192 -0.0297,-0.231066 0.05584,-0.07306 0.159192,-0.08554 0.23166,-0.03029 0.01366,0.01069 1.392336,1.062072 2.965842,1.062072 1.576476,0 2.934954,-1.050192 2.948616,-1.060884 0.07187,-0.05702 0.175824,-0.04336 0.232254,0.02792 0.05584,0.07187 0.04336,0.175824 -0.02851,0.23166 -0.05881,0.04633 -1.463022,1.13157 -3.152358,1.13157"
           id="Fill-415"
           fill="#fffffe"
           style="fill:#ff00ff" />
        <path
           d="m 38.783804,32.316748 c 0,0.437184 -0.256014,0.791802 -0.571428,0.791802 -0.315414,0 -0.570834,-0.354618 -0.570834,-0.791802 0,-0.437184 0.25542,-0.791802 0.570834,-0.791802 0.315414,0 0.571428,0.354618 0.571428,0.791802"
           id="Fill-417"
           fill="#fffffe"
           style="fill:#ff00ff" />
        <path
           d="m 43.511985,32.316748 c 0,0.437184 -0.256014,0.791802 -0.571428,0.791802 -0.315414,0 -0.570834,-0.354618 -0.570834,-0.791802 0,-0.437184 0.25542,-0.791802 0.570834,-0.791802 0.315414,0 0.571428,0.354618 0.571428,0.791802"
           id="Fill-419"
           fill="#fffffe"
           style="fill:#ff00ff" />
        <path
           d="m 29.131304,28.956312 c 0,-0.140778 -0.01663,-0.278586 -0.02732,-0.417582 l 0.0101,-0.0101 c 0,0 -0.0048,-0.0018 -0.01069,-0.0048 -0.288684,-3.64716 -4.150278,-6.499548 -7.947126,-6.499548 -4.077216,0 -7.46064,2.968218 -8.108694,6.861294 l 0.430056,0.367686 1.411938,-0.69795 c 0,0 2.844666,-1.404216 4.632606,-1.416096 0,0 3.868722,3.764772 8.305902,2.728242 l 0.95337,-0.99198 c 0.22275,0.05108 0.349866,0.08078 0.349866,0.08078"
           id="Fill-421"
           fill="#fffffe"
           style="fill:#ff00ff" />
        <path
           d="m 20.87809,38.451046 c -3.531924,0 -6.405696,-2.873178 -6.405696,-6.405696 0,-3.53133 2.873772,-6.405102 6.405696,-6.405102 3.531924,0 6.405102,2.873772 6.405102,6.405102 0,3.532518 -2.873178,6.405696 -6.405102,6.405696 m 8.816148,-1.852092 c 0.910008,-6.134238 -0.567864,-7.71309 -0.567864,-7.71309 l -2.897532,-1.077516 c -1.252746,-1.578258 -3.183246,-2.59578 -5.350752,-2.59578 -2.263734,0 -4.26789,1.11078 -5.51232,2.811402 l -2.317788,0.861894 c 0,0 -1.477872,1.578852 -0.567864,7.71309 0,0 0.586872,1.554498 -1.441638,1.879416 0,0 2.470446,3.587166 5.23017,-1.371546 0.0042,-0.0071 0.0077,-0.01426 0.01188,-0.02138 1.215324,1.109592 2.826252,1.793286 4.59756,1.793286 1.909116,0 3.635874,-0.789426 4.87674,-2.055834 0.0499,0.09445 0.09801,0.189486 0.150282,0.283932 2.760318,4.958712 5.230764,1.371546 5.230764,1.371546 -2.02851,-0.324918 -1.441638,-1.879416 -1.441638,-1.879416"
           id="Fill-423"
           fill="#fffffe"
           style="fill:#ff00ff" />
        <path
           d="m 19.362618,32.427826 c 0,0.424116 -0.248292,0.768042 -0.554202,0.768042 -0.306504,0 -0.554202,-0.343926 -0.554202,-0.768042 0,-0.424116 0.247698,-0.768042 0.554202,-0.768042 0.30591,0 0.554202,0.343926 0.554202,0.768042"
           id="Fill-425"
           fill="#fffffe"
           style="fill:#ff00ff" />
        <path
           d="m 23.951268,32.427826 c 0,0.424116 -0.248292,0.768042 -0.554202,0.768042 -0.306504,0 -0.554202,-0.343926 -0.554202,-0.768042 0,-0.424116 0.247698,-0.768042 0.554202,-0.768042 0.30591,0 0.554202,0.343926 0.554202,0.768042"
           id="Fill-427"
           fill="#fffffe"
           style="fill:#ff00ff" />
        <path
           d="m 21.110641,36.792063 c -1.638846,0 -3.016926,-1.052568 -3.074544,-1.097118 -0.07009,-0.05405 -0.08257,-0.155034 -0.02911,-0.225126 0.05465,-0.07009 0.155034,-0.08257 0.225126,-0.02851 0.01366,0.0101 1.35135,1.029996 2.878524,1.029996 1.530144,0 2.84823,-1.019304 2.861298,-1.029402 0.0695,-0.05465 0.170478,-0.04277 0.225126,0.02732 0.05465,0.0695 0.04277,0.170478 -0.02732,0.225126 -0.05702,0.04455 -1.41966,1.097712 -3.0591,1.097712"
           id="Fill-429"
           fill="#fffffe"
           style="fill:#ff00ff" />
        <polygon
           id="Fill-431"
           fill="#fffffe"
           points="10.13364,47.498022 10.13364,21.067992 4.346892,21.067992 4.346892,47.498022 "
           style="fill:#ff00ff" />
      </g>
      <g
         id="Group-446"
         transform="translate(4.158,21.978)"
         style="fill:#ff00ff">
        <g
           id="Group-436"
           transform="translate(0,19.602)"
           style="fill:#ff00ff">
          <mask
             id="mask-14"
             fill="#ffffff">
            <use
               xlink:href="#path-13"
               id="use1276"
               x="0"
               y="0"
               width="100%"
               height="100%" />
          </mask>
          <g
             id="Clip-435"
             style="fill:#ff00ff" />
          <polygon
             id="Fill-434"
             fill="#b3337f"
             mask="url(#mask-14)"
             points="6.98841,2.097414 6.98841,0.479358 -0.606474,0.479358 -0.606474,2.097414 "
             style="fill:#ff00ff" />
        </g>
        <g
           id="Group-439"
           transform="translate(0,22.572)"
           style="fill:#ff00ff">
          <mask
             id="mask-16"
             fill="#ffffff">
            <use
               xlink:href="#path-15"
               id="use1282"
               x="0"
               y="0"
               width="100%"
               height="100%" />
          </mask>
          <g
             id="Clip-438"
             style="fill:#ff00ff" />
          <polygon
             id="Fill-437"
             fill="#b3337f"
             mask="url(#mask-16)"
             points="6.735366,1.689336 6.735366,0.07128 -0.859518,0.07128 -0.859518,1.689336 "
             style="fill:#ff00ff" />
        </g>
        <g
           id="Group-442"
           style="fill:#ff00ff">
          <mask
             id="mask-18"
             fill="#ffffff">
            <use
               xlink:href="#path-17"
               id="use1288"
               x="0"
               y="0"
               width="100%"
               height="100%" />
          </mask>
          <g
             id="Clip-441"
             style="fill:#ff00ff" />
          <polygon
             id="Fill-440"
             fill="#b3337f"
             mask="url(#mask-18)"
             points="6.98841,2.011878 6.98841,0.393822 -0.606474,0.393822 -0.606474,2.011878 "
             style="fill:#ff00ff" />
        </g>
        <g
           id="Group-445"
           transform="translate(0,2.376)"
           style="fill:#ff00ff">
          <mask
             id="mask-20"
             fill="#ffffff">
            <use
               xlink:href="#path-19"
               id="use1294"
               x="0"
               y="0"
               width="100%"
               height="100%" />
          </mask>
          <g
             id="Clip-444"
             style="fill:#ff00ff" />
          <polygon
             id="Fill-443"
             fill="#b3337f"
             mask="url(#mask-20)"
             points="6.735366,2.1978 6.735366,0.579744 -0.859518,0.579744 -0.859518,2.1978 "
             style="fill:#ff00ff" />
        </g>
      </g>
      <polygon
         id="Fill-447"
         fill="#fffffe"
         points="56.580282,47.498022 56.580282,21.067992 50.793534,21.067992 50.793534,47.498022 "
         style="fill:#ff00ff" />
      <g
         id="Group-461"
         transform="translate(50.49,21.978)"
         style="fill:#ff00ff">
        <g
           id="Group-451"
           transform="translate(0,19.602)"
           style="fill:#ff00ff">
          <mask
             id="mask-22"
             fill="#ffffff">
            <use
               xlink:href="#path-21"
               id="use1302"
               x="0"
               y="0"
               width="100%"
               height="100%" />
          </mask>
          <g
             id="Clip-450"
             style="fill:#ff00ff" />
          <polygon
             id="Fill-449"
             fill="#b3337f"
             mask="url(#mask-22)"
             points="7.102458,2.097414 7.102458,0.479358 -0.492426,0.479358 -0.492426,2.097414 "
             style="fill:#ff00ff" />
        </g>
        <g
           id="Group-454"
           transform="translate(0,22.572)"
           style="fill:#ff00ff">
          <mask
             id="mask-24"
             fill="#ffffff">
            <use
               xlink:href="#path-23"
               id="use1308"
               x="0"
               y="0"
               width="100%"
               height="100%" />
          </mask>
          <g
             id="Clip-453"
             style="fill:#ff00ff" />
          <polygon
             id="Fill-452"
             fill="#b3337f"
             mask="url(#mask-24)"
             points="6.849414,1.689336 6.849414,0.07128 -0.74547,0.07128 -0.74547,1.689336 "
             style="fill:#ff00ff" />
        </g>
        <g
           id="Group-457"
           style="fill:#ff00ff">
          <mask
             id="mask-26"
             fill="#ffffff">
            <use
               xlink:href="#path-25"
               id="use1314"
               x="0"
               y="0"
               width="100%"
               height="100%" />
          </mask>
          <g
             id="Clip-456"
             style="fill:#ff00ff" />
          <polygon
             id="Fill-455"
             fill="#b3337f"
             mask="url(#mask-26)"
             points="7.102458,2.011878 7.102458,0.393822 -0.492426,0.393822 -0.492426,2.011878 "
             style="fill:#ff00ff" />
        </g>
        <g
           id="Group-460"
           transform="translate(0,2.376)"
           style="fill:#ff00ff">
          <mask
             id="mask-28"
             fill="#ffffff">
            <use
               xlink:href="#path-27"
               id="use1320"
               x="0"
               y="0"
               width="100%"
               height="100%" />
          </mask>
          <g
             id="Clip-459"
             style="fill:#ff00ff" />
          <polygon
             id="Fill-458"
             fill="#b3337f"
             mask="url(#mask-28)"
             points="6.849414,2.1978 6.849414,0.579744 -0.74547,0.579744 -0.74547,2.1978 "
             style="fill:#ff00ff" />
        </g>
      </g>
    </g>
  </g>
</svg>
