<?xml version="1.0" encoding="utf-8"?>
<!-- Generator: Adobe Illustrator 24.0.2, SVG Export Plug-In . SVG Version: 6.00 Build 0)  -->
<svg version="1.1" id="Capa_1" xmlns="http://www.w3.org/2000/svg" xmlns:xlink="http://www.w3.org/1999/xlink" x="0px" y="0px"
	 viewBox="0 0 270 200" style="enable-background:new 0 0 270 200;" xml:space="preserve">
<style type="text/css">
	.st0{display:none;}
	.st1{display:inline;fill:#01A2AA;}
	.st2{fill:#DA3773;}
	.st3{fill-rule:evenodd;clip-rule:evenodd;fill:#DBDBDB;}
	.st4{fill-rule:evenodd;clip-rule:evenodd;fill:#F1F1F1;}
	.st5{fill-rule:evenodd;clip-rule:evenodd;fill:#0052C2;}
	.st6{opacity:0.3;fill-rule:evenodd;clip-rule:evenodd;fill:#0052C2;enable-background:new    ;}
</style>
<g class="st0">
	<path class="st1" d="M2,113.5c0-47.8,54.2-86.5,121-86.5s121,38.8,121,86.5S189.8,200,123,200S2,161.2,2,113.5z"/>
</g>
<rect class="st2" width="270" height="200"/>
<g>
	<path class="st3" d="M153,69.8l3.8,68.5l-53.7,3.3L99.2,73L153,69.8z"/>
	<path class="st4" d="M160.8,55l3.8,68.5l-22.3,1.3l-31.7,1.9l-3.8-68.5L160.8,55z"/>
	<path class="st3" d="M157,75.9l-40.1,2.3v1.3l40.1-2.5V75.9z"/>
	<path class="st3" d="M156.6,68.8l-40.1,2.3v1.5l40.1-2.7V68.8z"/>
	<path class="st3" d="M157.8,83l-40.1,2.5v1.2l40.5-2.3L157.8,83z"/>
	<path class="st3" d="M157.8,89.9l-40.5,2.5l0.4,1.2l40.1-2.3V89.9z"/>
	<path class="st3" d="M158.1,96.6l-40.5,2.5l0.4,1.2l40.1-2.3V96.6z"/>
	<path class="st3" d="M158.5,105.1l-40.1,2.5v1.2l40.5-2.3L158.5,105.1z"/>
	<path class="st3" d="M153.3,113.1L119,115v1.2l34.3-1.9V113.1z"/>
	<path class="st3" d="M156.2,61.9L116.1,64v1.5l40.1-2.5V61.9z"/>
	<path class="st5" d="M146.2,99.3c-8.4,0-15.3,6.9-15.3,15.3s6.9,15.3,15.3,15.3s15.3-6.9,15.3-15.3S154.7,99.3,146.2,99.3z
		 M146.2,103.9c5.9,0,10.7,4.8,10.7,10.7c0,5.9-4.8,10.7-10.7,10.7s-10.7-4.8-10.7-10.7C135.3,108.7,140.3,103.9,146.2,103.9z"/>
	<path class="st5" d="M154.1,123.9l17.1,17.3c0.4,0.4,0.8,0.2,1,0l3.8-5.4c0.2-0.4,0.2-0.8-0.2-1.2l-18.8-14L154.1,123.9z"/>
	<path class="st5" d="M146.2,99.3c-8.4,0-15.3,6.9-15.3,15.3c0,6.3,3.8,11.7,9,14c1.2,0.2,2.5,0.2,3.6,0.2c5.4,0,10.2-1.5,14.2-4.2
		c2.3-2.7,3.8-6.1,3.8-10C161.6,106.2,154.7,99.3,146.2,99.3z M146.2,103.9c5.9,0,10.7,4.8,10.7,10.7c0,5.9-4.8,10.7-10.7,10.7
		s-10.7-4.8-10.7-10.7C135.3,108.7,140.3,103.9,146.2,103.9z"/>
	<path class="st6" d="M146.2,103.9c5.9,0,10.7,4.8,10.7,10.7c0,5.9-4.8,10.7-10.7,10.7s-10.7-4.8-10.7-10.7
		C135.3,108.7,140.3,103.9,146.2,103.9z"/>
	<path class="st4" d="M146.2,110.8c0-2.1,1.7-3.8,3.8-3.8s3.8,1.7,3.8,3.8c0,2.1-1.7,3.8-3.8,3.8S146.2,112.9,146.2,110.8z"/>
</g>
</svg>
