<svg xmlns="http://www.w3.org/2000/svg" xmlns:xlink="http://www.w3.org/1999/xlink" width="255" height="234" viewBox="0 0 255 234">
    <defs>
        <rect id="prefix__a" width="255" height="234" x="0" y="0" rx="8"/>
    </defs>
    <g fill="none" fill-rule="evenodd">
        <mask id="prefix__b" fill="#fff">
            <use xlink:href="#prefix__a"/>
        </mask>
        <rect width="254" height="233" x=".5" y=".5" stroke="#CCC" rx="8"/>
        <text fill="#000" font-family="Montserrat-Medium, Montserrat" font-size="18" font-weight="400" mask="url(#prefix__b)">
            <tspan x="63.398" y="201">Divertiinventa</tspan>
        </text>
        <g fill-rule="nonzero">
            <path fill="#864C9B" d="M125 69.5c0 34.518-27.983 62.5-62.5 62.5C27.982 132 0 104.018 0 69.5 0 34.983 27.982 7 62.5 7c16.6-.078 32.542 6.481 44.28 18.22C118.52 36.957 125.079 52.9 125 69.5z" transform="translate(65 30)"/>
            <g transform="translate(65 30) translate(9)">
                <path fill="#BA186B" d="M10.205 36.721c-.115.094-.188.229-.202.376-.015.147.03.294.124.408l54.255 66.305c.09.112.224.18.368.19.144.008.285-.045.388-.146L106.82 63.67c.22-.221.24-.573.047-.818L55.4.203c-.195-.237-.545-.271-.783-.078L10.205 36.721z"/>
                <path fill="#F7A1F3" d="M36.302 68c-.127 0-.24-.089-.284-.222-.043-.134-.007-.283.091-.374l1.377-1.306c.08-.09.199-.12.307-.081.107.04.186.143.203.268.018.125-.03.25-.121.325l-1.377 1.31c-.055.051-.124.08-.196.08zM40.275 65c-.115 0-.218-.072-.258-.182-.04-.109-.008-.232.08-.307l2.364-2.03c.056-.047.128-.071.2-.065.073.005.14.04.188.096.047.056.07.13.064.203-.006.074-.041.142-.097.19l-2.362 2.028c-.05.043-.113.067-.179.067zm4.727-4.058c-.08-.001-.157-.038-.209-.1-.047-.057-.07-.13-.065-.203.006-.073.04-.142.095-.19l2.363-2.029c.116-.1.29-.085.389.032.099.118.084.294-.032.394l-2.362 2.029c-.052.038-.115.057-.179.053v.014zm4.727-4.062c-.115 0-.218-.072-.258-.181-.04-.11-.008-.232.08-.308l2.362-2.03c.116-.099.29-.085.39.033.098.117.084.293-.033.393l-2.365 2.03c-.05.036-.113.053-.176.05v.013zm4.725-4.058c-.115-.001-.217-.074-.256-.183-.039-.109-.007-.231.08-.306l2.362-2.03c.075-.064.178-.084.27-.05.093.033.161.113.18.21.017.098-.018.198-.092.263l-2.365 2.03c-.052.037-.115.056-.18.052v.014zm4.727-4.059c-.115 0-.218-.072-.258-.181-.04-.11-.008-.232.08-.308l2.364-2.03c.074-.073.182-.099.28-.066.098.032.17.118.186.221.016.104-.027.207-.11.268l-2.363 2.03c-.052.038-.115.056-.179.052v.014zm4.727-4.058c-.08 0-.157-.037-.209-.1-.047-.056-.07-.129-.065-.202.006-.074.04-.142.096-.19l2.365-2.03c.075-.063.178-.082.27-.048.093.033.16.115.178.212.017.098-.019.198-.094.262l-2.362 2.03c-.052.037-.115.056-.179.052v.014zm4.728-4.061c-.08 0-.157-.036-.21-.098-.047-.056-.07-.128-.065-.202.006-.073.04-.142.096-.19l2.362-2.029c.115-.1.29-.086.388.03.098.117.085.293-.03.393l-2.363 2.032c-.052.037-.115.055-.178.05v.014zm4.727-4.059c-.115 0-.218-.072-.258-.181-.04-.11-.009-.232.079-.308l2.362-2.03c.075-.064.178-.083.27-.05.093.033.161.114.18.211.017.098-.018.198-.092.262l-2.365 2.03c-.051.037-.113.056-.176.052v.014zM78.302 33c-.127-.001-.24-.09-.284-.224-.043-.133-.008-.282.089-.374l1.392-1.322c.128-.121.32-.103.43.04.108.144.091.359-.037.48L78.5 32.918c-.056.053-.126.082-.198.082zM35.647 19c-.11 0-.213-.043-.28-.117l-1.307-1.417c-.103-.13-.07-.306.076-.402.146-.097.355-.082.48.034l1.308 1.417c.084.09.1.212.04.315-.058.104-.181.17-.317.17zM82.721 80c-.086 0-.167-.04-.219-.109l-1.975-2.54c-.06-.078-.075-.183-.038-.276.038-.092.121-.157.22-.17.098-.014.196.026.257.104l1.974 2.54c.066.084.079.199.032.295-.047.096-.144.157-.25.156zm-3.952-5.083c-.086 0-.167-.04-.219-.109l-1.974-2.54c-.046-.058-.067-.132-.058-.206.008-.074.046-.14.105-.186.12-.094.294-.071.388.05l1.977 2.54c.046.058.067.132.058.206-.009.074-.046.14-.105.186-.048.037-.106.058-.166.059h-.006zm-3.952-5.083c-.086 0-.167-.04-.219-.109l-1.974-2.54c-.07-.077-.092-.187-.055-.285.036-.098.124-.167.227-.179.104-.012.205.035.263.122l1.977 2.54c.046.058.067.132.058.206-.009.073-.046.14-.105.186-.047.037-.106.058-.166.059h-.006zm-3.952-5.084c-.086 0-.166-.04-.219-.108l-1.974-2.54c-.07-.078-.092-.188-.055-.285.036-.098.124-.167.227-.18.104-.011.205.036.263.122l1.977 2.54c.046.059.067.133.058.207-.009.073-.046.14-.105.186-.047.037-.106.058-.166.058h-.006zm-3.952-5.083c-.086 0-.166-.04-.219-.108l-1.974-2.54c-.07-.078-.092-.188-.055-.286.036-.097.124-.166.227-.178.104-.013.205.034.263.121l1.977 2.54c.046.059.066.133.057.207-.01.074-.048.14-.107.186-.048.037-.107.058-.169.058zm-3.952-5.083c-.086 0-.166-.04-.219-.109l-1.977-2.54c-.046-.058-.066-.133-.057-.206.01-.074.048-.141.107-.186.12-.094.294-.071.388.05l1.977 2.54c.066.084.079.198.032.295-.047.096-.144.156-.25.156zM59.015 49.5c-.086 0-.167-.04-.22-.109l-1.977-2.54c-.045-.059-.066-.133-.056-.207.01-.073.048-.14.106-.185.121-.094.295-.071.389.05l1.977 2.54c.066.084.078.198.032.294-.047.096-.145.157-.251.157zm-3.952-5.092c-.086 0-.167-.04-.22-.108l-1.977-2.54c-.045-.06-.066-.134-.056-.207.01-.074.048-.14.106-.186.121-.093.295-.071.389.05l1.977 2.54c.066.084.078.199.032.295-.047.096-.145.157-.251.156zm-3.958-5.075c-.085 0-.166-.04-.219-.108l-1.977-2.54c-.046-.06-.066-.133-.057-.207.01-.074.048-.14.107-.186.12-.093.295-.07.388.05l1.977 2.54c.067.084.079.199.032.295-.047.096-.144.157-.25.156zm-3.952-5.083c-.085 0-.166-.04-.219-.109l-1.971-2.531c-.046-.059-.066-.133-.057-.207.01-.074.048-.14.106-.186.122-.093.295-.07.389.05l1.974 2.54c.066.084.079.198.033.294-.046.096-.143.157-.249.157l-.006-.008zm-3.952-5.083c-.085 0-.166-.04-.219-.109l-1.977-2.54c-.06-.079-.075-.184-.038-.276.037-.092.12-.157.219-.171.098-.014.196.026.257.105l1.975 2.54c.066.083.078.197.032.293-.046.096-.142.157-.249.158zm-3.946-5.07c-.086 0-.167-.04-.22-.108l-1.976-2.54c-.095-.122-.073-.297.048-.391.121-.095.296-.073.39.048l1.974 2.54c.066.084.079.198.033.294-.046.096-.143.157-.249.157zM85.65 84c-.109 0-.211-.041-.278-.113l-1.298-1.406c-.077-.084-.095-.197-.048-.295.047-.099.153-.169.278-.183.124-.015.248.028.326.112l1.297 1.406c.082.09.096.211.037.313-.059.101-.18.166-.315.166z"/>
                <path fill="#D32B80" d="M37 17.404L59.519 46 78 30.294 55.45 2zM61 49.327L86.291 81 106 63.069 80.286 33zM38 69.235L65.358 102 84 83.989 58.391 52zM13 36.961L35.781 66 56 49.101 33.456 20z"/>
                <g>
                    <path fill="#CFF2F8" d="M37.633 50.78L49.583.377C41.556-.926 40.129 4.7 40.129 4.7L28.961 48.598l8.672 2.182zm-2.817-14.508c.668-.546 1.599-.637 2.36-.23.76.407 1.2 1.232 1.114 2.09-.085.858-.68 1.58-1.505 1.83-.826.249-1.721-.024-2.268-.69-.359-.438-.529-1-.473-1.562.056-.563.334-1.08.772-1.438zM43.58 33.1l-2.326 8.858s21.393.477 28.322-1.007c2.65-.558 6.701-2.723 6.29-8.822l-32.286.97z" transform="translate(0 64)"/>
                    <path fill="#FDB23D" d="M22.395 51.09c5.44-4.453 13.464-3.654 17.92 1.783C44.77 58.31 43.97 66.327 38.53 70.78c-5.44 4.452-13.463 3.655-17.92-1.782-4.45-5.44-3.652-13.453 1.785-17.909zm13.384 16.332c2.627-2.15 3.699-5.668 2.717-8.915-.982-3.247-3.825-5.583-7.203-5.92-3.378-.335-6.626 1.395-8.229 4.385-1.603 2.99-1.246 6.65.905 9.275 2.94 3.577 8.222 4.102 11.81 1.175z" transform="translate(0 64)"/>
                    <path fill="#CFF2F8" d="M31.075 34.02L24.371 34.171 24.114 43.04 28.73 42.586z" transform="translate(0 64)"/>
                    <path fill="#FDB23D" d="M4.663 29.13c5.441-4.452 13.464-3.654 17.92 1.783 4.455 5.437 3.656 13.454-1.784 17.907-5.441 4.453-13.464 3.655-17.92-1.782-4.448-5.44-3.65-13.45 1.784-17.908zm13.382 16.349c2.626-2.15 3.698-5.668 2.716-8.915-.982-3.247-3.825-5.583-7.202-5.92-3.378-.335-6.626 1.395-8.23 4.385-1.603 2.99-1.245 6.65.906 9.275 2.938 3.58 8.223 4.106 11.81 1.175z" transform="translate(0 64)"/>
                </g>
                <path fill="#6F7BDD" d="M53 16L56 33 68 23.271z"/>
                <circle cx="34" cy="43" r="8" fill="#CFF2F8"/>
                <path fill="#FDB23D" d="M73.245 48.165L88.11 48.171 88.116 63.033 73.251 63.027z" transform="rotate(-38.93 80.68 55.6)"/>
                <path fill="#1BB2EB" d="M71 79.653L64.391 80.294 61.182 86 58.521 80.031 52 78.798 56.963 74.466 56.14 68 61.872 71.294 67.884 68.53 66.461 74.896z"/>
            </g>
        </g>
    </g>
</svg>
