<svg xmlns="http://www.w3.org/2000/svg" xmlns:xlink="http://www.w3.org/1999/xlink" width="255" height="234" viewBox="0 0 255 234">
    <defs>
        <circle id="prefix__c" cx="62.523" cy="62.43" r="62.43"/>
        <rect id="prefix__a" width="255" height="234" x="0" y="0" rx="8"/>
    </defs>
    <g fill="none" fill-rule="evenodd">
        <mask id="prefix__b" fill="#fff">
            <use xlink:href="#prefix__a"/>
        </mask>
        <rect width="254" height="233" x=".5" y=".5" stroke="#CCC" rx="8"/>
        <text fill="#000" font-family="Montserrat-Medium, Montserrat" font-size="18" font-weight="400" mask="url(#prefix__b)">
            <tspan x="23.663" y="201">Baile de las emociones</tspan>
        </text>
        <g>
            <g transform="translate(46 37) translate(20 1)">
                <use fill="#006DD0" xlink:href="#prefix__c"/>
            </g>
            <g fill-rule="nonzero" transform="translate(46 37) translate(0 3)">
                <path fill="#000" d="M131.192 114.784c7.667.068 15.327.087 22.98.058.82 0 1.672 0 2.432.393 2.1 1.097 1.418 3.388-.566 4.124-4.138 1.53-9.818 1.374-14.205 1.741-5.351.448-10.717.693-16.086.83-10.587.267-21.174.1-31.765.206-12.264.123-24.53.204-36.795.11-11.943-.09-24.636.688-36.431-1.341-2.955-.509-5.875-1.226-8.854-1.592-2.813-.345-5.653-.186-8.467-.557-1.536-.203-2.05-1.603-.717-2.562 1.504-1.08 4.137-.473 5.872-.492 2.972-.04 5.955-.258 8.926-.388 13.178-.58 26.269-1.938 39.441-1.708l40.993.71c11.078.192 22.165.371 33.242.468z" opacity=".12" style="mix-blend-mode:multiply"/>
                <path fill="#EAC5B0" d="M77.219 98.74l.106 6.496c-.044 1.806.119 3.6.229 5.395.101 1.668-.235 3.388.556 4.934.25.493.778.821 1.179.263.31-.432.164-1.179.244-1.68.575-3.765 1.641-7.436 2.178-11.21.56-3.95-.968-3.846-4.492-4.197z"/>
                <path fill="#292949" d="M77.588 114.456L77.169 115.539 79.224 117.348 81.107 117.425 81.716 116.432 79.185 114.231z"/>
                <path fill="#EAC5B0" d="M72.618 98.813l-1.185 6.387c-.41 2.858-1.345 5.64-1.755 8.497-.095.657-.048 1.376-.328 1.996-.28.62-.795.63-1.26.219-.62-.552-.327-1.537-.327-2.288.077-5.015-.319-9.959-.412-14.982-.011-.065.008-.132.052-.182.045-.03.1-.04.153-.03.499.024 5.036.513 5.062.383z"/>
                <path fill="#292949" d="M67.759 114.722L67.109 115.684 68.703 117.909 70.518 118.41 71.336 117.579 69.366 114.863zM83.912 102.874L83.026 93.589 82.599 87.555 81.163 82.627 73.404 81.422 63.812 83.067 63.35 84.93 65.197 102.18 74.448 102.874 74.323 92.138 75.751 98.792 75.691 102.874z"/>
                <path fill="#FFF" d="M65.849 64.483c-.014.313-.022.627-.028.94-.112 6.37.24 12.82.279 19.243 3.29-.515 6.613-.799 9.943-.849.772-.011 4.268.529 4.76.07.657-.625-.065-.508-.018-1.314.064-1.052-.443-1.914-.25-3.161.224-1.466.67-2.916.927-4.381.52-2.942.834-5.916.937-8.902.09-2.644 0-5.387-1.149-7.775-2.804-5.893-11.846-5.786-14.326.366-.739 1.822-.993 3.795-1.075 5.763z"/>
                <path fill="#292949" d="M76.039 45.795c.375.688.583 1.455.607 2.238.008.208.023.446.19.57.168.122.022.418.164.242.143-.175.601-.783.62-1.004.05-.518.05-1.04 0-1.558-.043-.451-.135-.92-.43-1.266-.185-.194-.4-.357-.638-.484-.32-.22-.679-.382-1.057-.476-.656-.123-1.063.113-.482.573.414.318.762.714 1.026 1.165z"/>
                <path fill="#EAC5B0" d="M71.92 54.64c0 .318-.062.656.22.897.143.11.314.176.493.194.462.073.934.04 1.382-.097.185-.049.357-.14.502-.266.134-.134.2-.322.18-.51 0-.242.058-.493.09-.73.065-.533.103-1.07.114-1.608.79-.134 1.719-.39 1.99-1.218.07-.267.101-.544.09-.82l.024-3.447c.027-.396-.018-.794-.131-1.174-.24-.645-.844-1.03-1.438-1.272-1.515-.619-3.283-.594-4.678.286-.39.225-.714.55-.937.942-.328.63-.29 1.408-.238 2.134.048.67.095 1.341.141 2.012.056.771.164 1.66.77 2.067.318.216.729.256 1.003.536.479.493.25 1.218.392 1.806.02.088.031.177.031.267z"/>
                <path fill="#292949" d="M77.261 50.024c-.013-.212-.105-.836-.425-.443-.076.112-.115.246-.11.382.006.136-.008.273-.04.405-.1.296-.426.429-.716.424-.115 0-.227-.026-.329-.079-.097-.063-.183-.143-.254-.235l-.56-.641c-.32-.368-.955-.209-1.387-.153-.508.048-.993.236-1.402.543l-.121.102c-.093.088-.197.163-.31.223-.384.187-.86 0-1.13-.358-.123-.164-.238-.366-.43-.392-.158-.007-.306.082-.372.227-.07.146-.107.307-.109.47-.05.592.053 1.187.3 1.728.557 1.139 1.632 1.278 2.714 1.252l1.282-.03c.781-.018 1.609-.05 2.267-.505.58-.4.926-1.082 1.067-1.796.07-.37.091-.748.065-1.124zm-2.859 1.615c-.393.255-.882.311-1.323.153-.195-.06-.113-.386.082-.329.36.136.761.091 1.082-.12.172-.113.331.18.159.296zM77.424 43.813c.074-.279.13-.562.164-.847-.263.092-.545.117-.82.072v-.493c0-.136-1.857-.233-2.008-.244-1.41-.117-2.7-.227-3.976.532-1.09.646-1.789 1.612-1.956 2.869-.164 1.201.234 2.769.929 3.765 0-.318-.189-1.073-.113-1.377.048-.305.149-.599.297-.87.299-.538.732-.99 1.257-1.313.839-.498 1.772-.816 2.741-.932.88-.123 1.952-.235 2.822 0 .417.111.492.216.74-.205.143-.306.264-.622.363-.944l-.44-.013z"/>
                <circle cx="72.618" cy="25.489" r="17.936" fill="#FFD33F" transform="rotate(-45 72.618 25.49)"/>
                <path fill="#000" d="M79.773 9.028c4.26 4.977 5.47 11.882 3.153 18.01-2.317 6.13-7.79 10.508-14.279 11.422-3.28.468-6.625.013-9.661-1.313 4.805 5.603 12.552 7.69 19.521 5.26 6.97-2.43 11.74-8.882 12.019-16.258.28-7.376-3.988-14.17-10.753-17.121z" opacity=".08"/>
                <path fill="#FFF" d="M57.533 29.52c-.992-7.06 2.621-13.97 8.987-17.183 6.365-3.213 14.07-2.017 19.162 2.976-3.81-4.924-10.05-7.311-16.174-6.188-6.125 1.123-11.11 5.568-12.927 11.524-1.815 5.956-.157 12.427 4.3 16.775-1.791-2.295-2.945-5.02-3.348-7.903z" opacity=".2"/>
                <path fill="#292949" d="M65.58 30.184c.969 3.786 4.63 6.238 8.5 5.694 3.87-.544 6.712-3.91 6.6-7.816l-15.1 2.122z"/>
                <path fill="#D67086" d="M68.568 34.519c3.239 2.301 7.7 1.747 10.276-1.277l-.094-.153c-5.417-1.76-10.116 1.38-10.182 1.43z"/>
                <path fill="#292949" d="M76.618 21.94c.322-1.305 1.4-2.288 2.73-2.489 1.33-.2 2.65.42 3.343 1.574.128.218.086.495-.1.666-.187.17-.468.187-.673.04-1.12-.821-2.79-1.366-4.361.666-.086.11-.21.182-.348.202-.106.016-.213-.002-.309-.05-.227-.109-.345-.364-.282-.608zM61.358 24.086c.323-1.305 1.4-2.287 2.73-2.487 1.33-.2 2.649.42 3.343 1.571.128.218.086.496-.1.666-.187.17-.468.187-.673.04-1.12-.82-2.79-1.366-4.363.665-.085.11-.21.184-.348.203-.106.016-.213-.002-.309-.049-.225-.11-.343-.365-.28-.609z"/>
                <circle cx="63.193" cy="29.701" r="3.132" fill="#D67086" transform="rotate(-17.56 63.193 29.701)"/>
                <circle cx="84.825" cy="26.501" r="3.132" fill="#D67086" transform="rotate(-6.58 84.825 26.501)"/>
                <path fill="#EAC5B0" d="M60.568 35.932c.029.043.05.09.066.138.118.447-.089.749-.099 1.208 0 .205.434.493.07.726-.135.083-.493.24-.782.415-.42.254-.798.83-1.014 1.344-.383.928-.673 1.89-.867 2.874-.176.874-.593 2.215-.437 3.096.143.8 1.207 1.806 1.683 2.48.6.857 1.189 1.722 1.764 2.594.406.615.811 1.25.985 1.97.1.434.097.928-.176 1.281-.192.215-.429.386-.694.501-.451.235-.939.476-1.444.414-.622-.076-1.09-.585-1.486-1.072-.907-1.086-1.702-2.262-2.37-3.51-.46-.888-1.323-2.462-1.12-3.473.49-2.306 1.103-4.584 1.839-6.823.197-.62.694-1.059.87-1.633.112-.366-.064-.736-.035-1.105.044-.405.155-.8.329-1.167.32-.657 1.054-.778 1.685-.957.131-.051.274-.066.412-.043.243.053.401.237.562.414.097.1.184.21.26.328zM85.816 35.126c-.028.042-.05.088-.065.137-.118.446.088.748.098 1.208 0 .205-.433.5-.069.725.135.084.493.241.782.415.42.255.797.83 1.014 1.345.38.927.667 1.89.858 2.874.176.873.593 2.214.435 3.097-.14.798-1.204 1.806-1.68 2.479-.601.857-1.19 1.722-1.765 2.595-.405.614-.81 1.249-.977 1.97-.1.434-.096.928.176 1.281.193.213.43.38.694.493.452.235.94.476 1.445.415.622-.077 1.09-.586 1.477-1.073.908-1.088 1.701-2.266 2.367-3.516.46-.89 1.323-2.462 1.12-3.475-.49-2.306-1.104-4.584-1.84-6.824-.196-.618-.693-1.057-.869-1.631-.111-.368.064-.735.035-1.105-.043-.405-.154-.8-.329-1.167-.328-.656-1.053-.78-1.685-.957-.131-.052-.274-.066-.412-.042-.227.073-.424.218-.562.412-.094.106-.177.221-.248.344z"/>
                <path fill="#5D66D3" d="M72.31 54.733l-.063-.806c-.93.218-2.083.328-3.083.578-1.282-.448-2.72-.476-3.896-1.15-.83-.478-1.451-1.238-2.056-1.982-.768-.945-1.117-1.937-2.242-1.563-.838.28-1.95 1.775-2.626 2.38l-.973.882c-.082.06-.14.148-.164.248-.004.074.012.149.047.215.885 2.109 2.203 4.23 3.966 5.712 1.101.924 1.943 1.97 2.746 3.089-.404 2.895 0 5.986 0 8.864 0 1.186-.801 13.909-.19 13.94 2.112.107 4.331-.253 6.439-.443.963-.087 2.094.125 2.308-.95.154-.769.049-1.686.07-2.463.081-2.814.161-5.63.24-8.448.021-.74.28-11.71.328-11.71L70.7 56.652l1.612-1.919zM89.17 52.506c-.025-.1-.083-.187-.164-.248l-.98-.882c-.67-.605-1.781-2.1-2.627-2.38-1.124-.374-1.477.617-2.242 1.563-.604.743-1.226 1.503-2.055 1.983-1.262.728-2.821.707-4.17 1.26-.08.032-.157.069-.232.11-.25-.05-.515-.108-.808-.179-.563-.138-1.776-.577-1.477.537.174.639 1.192 1.436 1.624 1.948l-2.463 4.477.384 13.56.178 6.251c.021.724.04 1.448.062 2.172.01.328-.08.87.105 1.136.402.574 1.873.395 2.513.446 1 .08 2.014.164 2.955.506.627.23 1.22.576 1.882.668.147.037.303.011.43-.07.115-.125.174-.291.165-.46.23-3.104.234-6.303.407-9.44.14-2.567.5-5.28.277-7.85-.003-.044-.008-.087-.016-.129-.425-2.313-.146-4.33-.288-6.3.727-1.016 1.575-1.94 2.527-2.75 1.762-1.478 3.08-3.612 3.972-5.713.032-.067.047-.142.04-.216z"/>
                <path fill="#EAC5B0" d="M120.316 48.422c.055 0 .11.008.164.023.46.164.602.52 1 .8.175.124.692-.085.674.368 0 .165-.08.573-.097.928-.026.518.255 1.19.576 1.682 1.264 1.935 3.019 3.472 4.803 4.938.095.091.211.158.338.195.23.05.452-.099.644-.235.89-.634 1.838-1.184 2.831-1.641.885-.41 1.829-.75 2.805-.739.977.012 1.99.433 2.502 1.264.384.636.44 1.417.15 2.101-.721 1.661-3.367 1.63-4.896 1.904-1.445.26-2.908.417-4.376.471-.18.02-.363.001-.536-.052-.176-.083-.333-.202-.46-.348-1.75-1.77-3.334-3.684-4.886-5.639-.427-.536-.517-1.23-.916-1.723-.255-.315-.681-.38-.985-.622-.33-.274-.611-.603-.83-.972-.38-.656-.061-1.382.155-2.039.033-.145.104-.279.207-.387.189-.182.443-.21.693-.248.145-.024.292-.034.44-.03z"/>
                <path fill="#3B3387" d="M132.526 61.143c-1.55.244-3.121.314-4.686.208-.376-.008-.745-.096-1.083-.26-.263-.165-.497-.372-.693-.613l-3.644-4.002c-.172-.19-.36-.435-.277-.68.067-.139.177-.254.313-.328l1.76-1.21c.098-.084.221-.134.35-.144.121.018.232.076.314.164.573.493.874 1.267 1.49 1.709.567.402 1.314.461 2 .315 2.845-.612 5.404-2.923 7.879-4.366 1.313-.763 2.669-1.546 4.177-1.694 3.22-.315 5.215 3.447 2.858 5.82-2 2.015-4.578 3.472-7.283 4.308-1.138.343-2.3.601-3.475.773z"/>
                <path fill="#EDCEAF" d="M139.811 109.614L140.316 113.254 138.158 113.553 137.596 109.515z"/>
                <path fill="#292949" d="M138.28 112.957l1.958.388.635.533.083 1.441-5.032 1.028c-.24-.267-.341-.63-.272-.983.069-.352.3-.65.623-.806l.227-.112 1.777-1.489z"/>
                <path fill="#EDCEAF" d="M155.442 95.235c.91-.3 1.797-.898 2.715-1.111.046.714.115 1.426.174 2.133-1.099.534-2.263.92-3.462 1.15.189-.713.435-1.435.573-2.172z"/>
                <path fill="#292949" d="M158.396 96.223c-.067-.089-.11-.194-.124-.305-.135-.524-.493-1.978 0-2.423.08-.072.118 0 .19.033 1.142.54 2.173 1.287 3.04 2.206.412.415.81.937.837 1.541-.006.241-.075.476-.198.683-.146.299-.32.584-.518.85-.07.097-.13.207-.269.197-.28-.018-.415-.34-.47-.602-.053-.263-.076-.585-.252-.808-.082-.089-.18-.162-.289-.215-.702-.405-1.454-.445-1.947-1.157zM139.745 93.318c1.761 3.128 4.351 4.49 7.469 5.459 3.566 1.106 6.637.502 9.815-1.275.056-1.06-.046-2.114.033-3.119-3.534.561-5.241.437-7.626-2.72-3.447-4.563-.025-11.28-.968-16.792-.093-.637-.297-1.254-.604-1.82-3.748-6.456-10.478-2.142-11.313 3.782-.745 5.297.57 11.82 3.194 16.485z"/>
                <path fill="#292949" d="M146.273 74.376c-.209-1.79-.634-3.547-1.266-5.235-3.054.215-6.44.985-9.365 1.962-2.852.955-4.61 1.827-4.235 5.01.69 5.858-.975 11.128-1.263 16.876-.164 3.34 1.19 6.14 2.666 9.028 1.69 3.309 3.2 6.706 4.524 10.177l3.048-.399c.44-4.639-.558-9.274-1.049-13.908-.341-3.22-.422-6.549.384-9.709.885-3.474 2.917-2.39 4.823-4.577 1.853-2.123 2.145-5.826 1.733-9.225z"/>
                <path fill="#3B3387" d="M142.196 51.716c.344.256.668.538.968.845l.82.803c.956.926 1.478 2.34 1.921 3.56 2.357 6.421 3.516 15.33 2.505 22.204-5.03.674-10.935-.329-16.005-.775-.493-.044-1.054-.128-1.328-.54-.143-.266-.212-.565-.2-.867-.204-4.323.492-9.013 1.149-13.315.268-1.817.645-3.617 1.127-5.39.517-1.875 1.105-3.9 2.462-5.364 1.443-1.566 4.309-2.441 6.259-1.363.111.061.218.129.322.202z"/>
                <path fill="#FEE0D4" d="M141.687 52.65c.064-.593.128-1.185.19-1.776.117-.063.23-.133.338-.21 2.044-1.443 5.237-8.83-.454-10.177-5.167-1.226-4.572 5.773-3.439 8.65.182.495.453.952.8 1.35.244.269.293.213.275.54-.018.326-.313.687-.37 1.022-.073.36.002.733.208 1.036.14.173.32.31.525.399.317.16.68.21 1.029.141.409-.103.852-.55.898-.975z"/>
                <path fill="#1A3151" d="M137 46.539c.357.92.835 1.787 1.42 2.58-.11-1.727.016-3.461.378-5.154.046-.125.039-.264-.02-.384-.084-.093-.202-.149-.328-.154-2.165-.363-2.07 1.512-1.45 3.112zM142.764 48.873c.366.47 1.114.304 1.641.012 2.134-1.2 3.283-3.902 2.694-6.272-.493-1.985-3.094-3.367-3.488-.862-.14.888.453 2.083.377 3.065-.118 1.403-.706 2.767-1.224 4.057z"/>
                <path fill="#1A3151" d="M136.662 38.879c-.24.108-.492.221-.741.328-.532.238-.923.328-1.497.036-.165-.084-1.284-1.047-1.036-1.269-1.642 1.477-.141 3.447.568 4.857.477.95.632 2.318 1.633 2.907 1.101.657 1.792-.27 2.744-.71.84-.39 1.757-.623 2.612-.974 1.421-.584 3.529-1.59 2.954-3.488-.664-2.216-2.962-2.667-4.994-2.4-.78.119-1.537.36-2.243.713z"/>
                <path fill="#EAC5B0" d="M135.955 54.66c.054-.015.109-.02.164-.017.493.042.713.356 1.166.53.201.077.656-.251.745.19.034.164.062.576.133.924.102.51.54 1.092.971 1.49.821.754 3.858 1.862 3.623 3.275-.55 3.321-4.949-1.94-5.44-2.307-.328-.243-.753-.2-1.11-.363-.387-.184-.74-.434-1.043-.737-.53-.548-.397-1.326-.348-2.016-.004-.148.032-.295.105-.425.14-.223.377-.312.61-.41.137-.059.279-.104.424-.135z"/>
                <path fill="#3B3387" d="M149.118 65.121c-.429 1.371-3.106.476-4.043.064-1.972-.842-3.83-1.928-5.533-3.23-.128-.055-.217-.173-.237-.31-.02-.138.033-.275.14-.364l1.436-2.026c.09-.154.22-.282.374-.37.61-.283 1.443.516 2.063.579.165-1.52-.74-2.809-1.188-4.191-.614-1.893 1.548-2.398 2.718-1.426 1.43 1.19 2.393 2.962 3.009 4.69.666 1.87.985 3.845 1.288 5.806.05.259.04.525-.027.778z"/>
                <path fill="#EAC5B0" d="M94.933 48.258c-.271-.276-.534-.562-.791-.801l-.13-1.113c-.012-.055-.007-.113.015-.164.03-.042.07-.075.116-.096l.593-.328c.038-.024.081-.04.126-.044.097 0 .174.077.235.154.208.264.957 1.149.977.432.013-.113.097-.204.208-.227.109-.022.22-.019.328.008.078.014.164.037.196.112.009.035.009.072 0 .107-.056.379-.132.699-.054 1.085l.224 1.27c0 .021-.556.307-.607.338-.295.182-.164.263-.505.058-.34-.226-.653-.492-.931-.791z"/>
                <path fill="#D67086" d="M108.944 55.77L101.615 56.686 97.91 48.525 95.978 49.672 97.961 61.686 100.523 64.375 105.566 63.958z"/>
                <path fill="#EAC5B0" d="M114.397 81.042L111.706 98.355 112.662 110.864 110.704 111.475 108.951 99.918 105.21 78.796z"/>
                <path fill="#292949" d="M110.708 111.828L110.492 113.123 110.983 115.587 112.599 115.451 112.905 111.802 112.667 111.217z"/>
                <path fill="#EAC5B0" d="M98.552 80.526L99.416 95.212 103.073 115.741 105.054 115.718 104.174 96.683 106.744 79.134z"/>
                <path fill="#292949" d="M103.105 115.391L100.573 117.053 100.888 118.295 105.527 117.305 105.149 115.511zM98.116 82.727L98.198 99.773 100.528 111.267 105.837 110.498 105.682 97.214 106.784 82.622 106.239 80.413 98.56 81.193z"/>
                <path fill="#292949" d="M107.536 97.466L109.179 109.555 113.796 108.911 112.737 97.403 114.449 82.686 113.443 78.701 105.687 79.87z"/>
                <path fill="#D67086" d="M116.675 61.297c-.509-1.709-1.408-4.624-2.915-5.446l-.095-.051c-.309-.161-.628-.301-.956-.419-.602-.379-1.465-.541-2.32-.484-.763-.06-1.53.013-2.266.217-.33.11-.649.25-.952.42-.903.471-1.597.675-2.158 1.599-.493.804-.78 1.741-1.15 2.608-3.09 7.245-5.601 16.913-7.607 24.575.947-.09 1.897-.244 2.843-.395 4.351.492 9.32 1.805 13.157 3.107 1.15.684 2.282 1.405 3.406 2.134-.289-.188 1.082-6.25 1.19-6.932.39-2.472.732-4.952.965-7.444.434-4.624.174-9.075-1.142-13.489z"/>
                <path fill="#EAC5B0" d="M114.837 49.425c-.8-3.039-5.017-4.33-6.21-.926-.36 1.022-.602 2.117-.46 3.192.143 1.076.723 2.134 1.675 2.627h.016c.164.085-.755 1.83-.82 1.97-.11.215-.194.442-.253.676-.112.525.046 1.067.233 1.569.17.46.366.91.584 1.35.017.038.043.073.076.1.083.06.198 0 .282-.053.68-.465 1.279-1.042 1.768-1.706.118-.149.212-.315.279-.492.061-.206.088-.42.08-.635 0-.598-.507-2.072-.207-2.54.115-.177.677-.307.87-.426.32-.202.612-.445.869-.723.963-1.01 1.589-2.578 1.218-3.983z"/>
                <path fill="#292949" d="M108.675 49.434c-.478.772-.45 1.716-.329 2.584.122.868.025 1.68.222 2.521-.09.132-.292.045-.419-.052-.737-.567-1.467-1.143-2.19-1.729-.077-.054-.141-.124-.19-.205-.045-.112-.059-.234-.04-.353.164-2.36 1.094-4.085 2.417-5.947.642-.904 2.357-1.904 3.33-.82.204.265.328.583.36.916.046.194.053.395.02.592-.177.775-.901.73-1.477.985-.704.324-1.297.849-1.704 1.508z"/>
                <path fill="#292949" d="M114.057 50.99c-.018.713-.14 1.42-.364 2.097-.071.223-.493.74-.51.89-.039.438.86 1.465 1.094 1.846l4.215-2.34c.113-.05.21-.13.282-.23.05-.103.074-.215.07-.329.078-2.224-.493-4.223-1.342-6.237-.848-2.014-2.747-3.644-4.985-3.505-1.805.112-3.074 1.446-2.413 3.31.493 1.406 2.25 1.705 3.201 2.665.51.47.784 1.141.752 1.834z"/>
                <path fill="#EAC5B0" d="M28.365 41.301c-.03.038-.053.08-.069.125-.133.414.045.71.03 1.149 0 .194-.433.448-.102.68.122.085.45.25.712.43.383.262.708.82.885 1.313.695 1.94.84 4.016.923 6.073.013.117-.002.235-.043.345-.09.19-.314.267-.515.328-.931.29-1.833.668-2.694 1.126-.768.409-1.52.896-2.037 1.595-.517.7-.763 1.65-.45 2.463.245.616.77 1.076 1.414 1.239 1.569.382 2.972-1.515 3.99-2.454.964-.89 1.865-1.845 2.695-2.86.25-.236.348-.593.251-.924-.34-2.194-.8-4.368-1.375-6.513-.153-.592-.596-1.03-.732-1.579-.087-.351.098-.69.09-1.037-.018-.383-.1-.76-.243-1.115-.266-.627-.95-.788-1.535-.984-.12-.056-.254-.077-.386-.061-.216.058-.409.183-.55.358-.095.092-.182.194-.259.303z"/>
                <path fill="#D67086" d="M29.785 55.767l-1.65-3.555c.037.075-5.528 2.166-5.856 2.298-1.248.518-2.536 1.065-3.447 2.056-1.958 2.12-.361 5.566 2.597 5.17 3.212-.432 6.53-2.125 8.82-4.405.054-.043.096-.1.12-.164.015-.096-.005-.194-.055-.277l-.529-1.123z"/>
                <path fill="#292949" d="M1.666 89.776c-.074.446-.121.896-.164 1.313-.064.707.05 1.515-.13 2.206-.084.27-.154.543-.208.82-.056.28-.014.57.12.821.174.28.492.38.776.445.263.077.541.091.81.041.54-.133.936-.712 1.1-1.336.198-.747.097-1.477.071-2.239 0-1.192-.318-2.208-.269-3.408.029-.202-.007-.408-.102-.589-.13-.171-.336-.267-.551-.258-.427.012-.837.132-1.01.539-.21.53-.358 1.081-.443 1.645z"/>
                <path fill="#EAC5B0" d="M2.78 88.832c-.222.193-.41.422-.556.678-.108.164-.218.384-.11.55.047.059.107.108.174.142l.811.493c.051.04.114.06.179.059.052-.011.1-.038.138-.076.26-.221.509-.458.743-.707 1.056-1.126-.431-1.878-1.378-1.14z"/>
                <path fill="#353A85" d="M21.429 78.81c-.097-.258-.284-.474-.527-.606-2.387-1.62-5.061-2.767-7.879-3.382-.24-.052-1.765 4.69-1.91 5.15-.57 1.785-1.056 3.597-1.478 5.424-.456 2.003-.926 4.002-1.41 5.998-.927-.91-1.92-1.75-2.972-2.511-.17-.147-.379-.244-.601-.28-.271-.016-.519.147-.734.312-.376.288-.727.607-1.05.954-.12.11-.203.252-.242.409-.01.158.023.316.097.456 1.047 2.495 2.704 6.508 4.033 8.864.642 1.149 1.875 1.531 3.119 1.434.282-.032.558-.103.82-.213.329-.117.688-.115 1.02-.23.213-.09.4-.233.543-.415 1.34-1.49 2.252-3.58 3.06-5.395.864-1.978 1.614-4.004 2.245-6.069l.146-.453c1.013-3.074 2.384-5.722 3.611-8.74.116-.216.155-.465.109-.706z"/>
                <path fill="#EAC5B0" d="M17.639 113.914c.436.164.893.138 1.34.225.452-1.518.747-3.079.882-4.657-.904.537-1.336-.072-1.75 1.336-.13.457-.17 2.44-.472 3.096z"/>
                <path fill="#292949" d="M19.436 113.68c0 .866.684 1.805 1.062 2.578.148.222.11.519-.087.698-.108.182-.265.33-.453.426-.2.06-.411.06-.61 0-.337-.073-.672-.164-1-.267-.084-.022-.163-.058-.233-.108-.072-.071-.128-.156-.164-.25-.234-.47-.432-.8-.42-1.323.014-.522.081-1.098-.017-1.641-.048-.26-.113-.591.11-.732.164-.112.492.04.673.07.328.054.633.035.937.207.065.032.121.08.164.138.031.063.044.133.038.203z"/>
                <path fill="#353A85" d="M17.189 86.186c.194 3.849.604 7.682.313 11.557-.36 4.788-.054 9.661-.595 14.403.546.19 1.106.338 1.674.445.656.122 1.7.263 2.134-.353.225-.315.279-.922.376-1.293.305-1.184.586-2.375.861-3.565.785-3.372 1.656-6.758 2.064-10.195.426-3.611.884-7.236 1.387-10.833.26-1.857.45-3.723.551-5.594.026-.483.282-5.458.04-5.493-2.853-.426-5.761-.302-8.567.365-.276.064-.552.164-.708.379-.128.21-.179.458-.144.7.053 2.346.386 4.635.492 6.988l.122 2.489z"/>
                <path fill="#D67086" d="M15.57 55.3l-.14.05c-.772.292-1.43.82-2.075 1.341-.967.781-1.443 1.125-1.816 2.28-.327 1.093-.588 2.206-.78 3.33C9.665 68.01 9.453 73.7 8.667 79.445c-.214 1.566-.38 3.406.778 4.482 2.055-1.603 4.635-1.691 7.133-1.691 1.75 0 3.46-.57 5.213-.374 1.676.187 3.14-.232 4.84-.122.411.028.933.023 1.096-.354-.59-1.765-.58-3.662-.713-5.517-.344-4.798-1.933-9.404-2.575-14.169-.218-1.62-.328-4.309-1.589-5.535-1.364-1.333-4.473-1.36-6.226-1.1-.357.047-.71.126-1.054.235z"/>
                <path fill="#EAC5B0" d="M16.872 55.219c.03.06.07.116.118.164.212.196.48.32.767.354.371.036.746.01 1.11-.078.492-.094.477-.384.55-.832.037-.247.062-.493.081-.74.01-.137-.042-.623.043-.718.06-.066.299-.043.404-.099.165-.098.304-.235.404-.4.146-.258.256-.534.328-.82l.453-1.486c.17-.5.29-1.017.358-1.542.075-.794-.054-1.913-.657-2.494-.546-.529-1.344-.714-2.075-.808-.969-.132-1.954.068-2.795.568-.355.2-.652.489-.86.839-.307.57-.284 1.282-.251 1.948l.092 1.843c.036.708.123 1.522.656 1.904.281.204.657.248.89.51.3.327.28.82.294 1.23-.02.223.012.447.09.657z"/>
                <path fill="#292949" d="M19.935 47.273c.034.056.062.116.084.179.113.328.036.694.146 1.02.175.518.78.821.87 1.368.075.441-.227.86-.251 1.313-.028.492.284.949.236 1.43-.08.484-.272.943-.558 1.34.077-.103.778-.067.958-.177.28-.164.31-.277.394-.567.084-.291.018-.572.146-.865.165-.363.48-.628.593-1.013.154-.527-.125-1.082-.103-1.63.032-.83.75-1.612.492-2.4-.153-.463-.6-.758-.853-1.175-.193-.315-.263-.688-.396-1.034-.133-.347-.363-.69-.717-.795-.197-.057-.41-.034-.611-.072-.35-.064-.638-.305-.975-.418-.48-.165-1.331.328-1.612.73-.28.402-.138.75.148 1.108.471.592 1.618.983 2.009 1.658z"/>
                <path fill="#292949" d="M13.46 44.825c-.29.212-.645.365-.908.613-.514.48-.61 1.252-.63 1.956-.017.627-.29 1.184-.222 1.837.025.449.239.866.588 1.149.444.328 1.149.376 1.342.888.215.556-.36 1.257-.011 1.74.192.267.571.307.847.492.308.2.466.557.656.872.19.315.471.615.833.627.014-.558.03-1.001-.209-1.512-.138-.299-.548-.847-.233-1.169.199-.269.666-.356.678-.689-.02-.155-.085-.3-.189-.417-.325-.524-.377-1.172-.141-1.741.241-.563.681-1.016 1.236-1.274.638-.31.537-.466.722-1.077.164-.563.493-.696.997-.901.454-.184.6-.299.77-.724.12-.312.273-.686.095-1.032-.164-.264-.384-.488-.644-.657-.515-.392-1.095-.806-1.743-.76-.358.026-.696.195-1.057.215-.24.013-.478-.04-.717-.047-.42-.014-.832.11-1.174.354-.328.246-.328.504-.51.852-.094.162-.222.3-.376.405z"/>
                <path fill="#292949" d="M14.904 42.529c.062-.389.021-.896-.35-1.027-.203-.073-.431 0-.643-.037-.451-.092-.606-.638-.842-1.034-.03-.062-.079-.113-.14-.146-.095-.026-.196-.026-.292 0-.448.056-.79-.387-1.211-.548-.553-.184-1.151.113-1.34.665-.065.221-.054.458-.114.68-.247.899-1.563 1.281-1.596 2.212-.023.63.593 1.233.355 1.815-.155.371-.634.626-.578 1.025.06.26.3.441.568.428.26-.021.505-.133.69-.317.311-.27.544-.617.84-.903.295-.285.687-.518 1.096-.467.409.05.752.356 1.15.29.313-.052.546-.328.854-.412.309-.084.59.04.887.058.297.018.656-.137.671-.435-.01-.072-.01-.144 0-.215.062-.192.39-.18.453-.375-.156-.238-.374-.152-.492-.466-.078-.235-.005-.546.034-.791z"/>
                <path fill="#EAC5B0" d="M15.047 77.765c.012-.046.017-.094.016-.143-.034-.433-.312-.638-.461-1.043-.067-.183.23-.58-.164-.669-.145-.03-.512-.06-.82-.128-.454-.095-.97-.492-1.314-.881-1.379-1.531-2.298-3.396-3.16-5.269-.057-.103-.089-.218-.092-.336.01-.21.19-.366.35-.501.75-.623 1.442-1.314 2.065-2.065.555-.67 1.065-1.407 1.277-2.25.212-.844.08-1.816-.519-2.448-.46-.476-1.121-.703-1.777-.609-1.597.243-2.174 2.531-2.76 3.787-.553 1.188-1.023 2.412-1.406 3.665-.058.152-.083.314-.076.476.03.17.096.332.194.475 1.148 1.9 2.398 3.737 3.746 5.502.366.492.943.727 1.278 1.185.214.29.164.673.312.993.16.348.379.665.647.939.492.477 1.178.367 1.794.328.133.006.265-.025.38-.09.179-.136.31-.325.373-.54.051-.122.09-.248.117-.378z"/>
                <path fill="#D67086" d="M8.237 64.923l2.877 2.66c-.062-.055 4.29-4.103 4.542-4.354.957-.954 1.942-1.948 2.414-3.216 1.007-2.703-1.78-5.283-4.366-3.793-2.807 1.619-5.233 4.445-6.487 7.424-.033.063-.05.133-.046.204.026.095.084.178.164.234l.902.84z"/>
                <circle cx="21.343" cy="31.697" r="14.983" fill="#FFD33F" transform="rotate(-45 21.343 31.697)"/>
                <path fill="#000" d="M32.36 21.519c2.022 6.684-.841 13.879-6.903 17.346-6.062 3.467-13.716 2.286-18.451-2.846 1.785 5.904 7.006 10.11 13.154 10.6 6.149.488 11.969-2.84 14.665-8.387 2.696-5.548 1.718-12.18-2.465-16.713z" opacity=".08"/>
                <path fill="#FFF" d="M8.453 29.71c1.618-5.733 6.707-9.8 12.655-10.113 5.948-.314 11.436 3.194 13.649 8.724-1.265-5.038-5.23-8.951-10.284-10.149-5.054-1.198-10.355.52-13.746 4.454-3.39 3.934-4.307 9.43-2.377 14.252-.595-2.357-.56-4.83.103-7.168z" opacity=".2"/>
                <path fill="#292949" d="M18.08 27c-.279.984-.985 1.656-1.567 1.49-.583-.166-.837-1.101-.558-2.09.279-.988.984-1.657 1.569-1.492.584.166.835 1.102.556 2.092zM28.705 29.997c-.279.985-.985 1.658-1.567 1.492-.583-.166-.838-1.102-.559-2.091.28-.99.985-1.656 1.57-1.49.584.165.835 1.1.556 2.089zM11.268 30.327c-.827 5.085 2.292 9.98 7.25 11.38 4.959 1.4 10.177-1.144 12.13-5.911l-19.38-5.47z"/>
                <path fill="#D67086" d="M12.577 37.157c2.689 4.505 8.375 6.208 13.098 3.924l-.031-.234c-5.619-5.01-12.967-3.708-13.067-3.69z"/>
                <circle cx="92.571" cy="84.944" r="26.703" fill="#FFD33F" transform="rotate(-45 92.57 84.944)"/>
                <path fill="#000" d="M106.54 62.154c6.699 10.487 5.267 24.21-3.451 33.088-8.719 8.878-22.413 10.56-33.02 4.054 5.92 9.26 16.91 13.945 27.69 11.808 10.781-2.137 19.151-10.661 21.092-21.479 1.94-10.818-2.945-21.72-12.31-27.471z" opacity=".08"/>
                <path fill="#FFF" d="M69.497 87.761c-.007-10.62 6.752-20.065 16.807-23.484 10.055-3.419 21.17-.052 27.638 8.372-4.62-8.009-13.312-12.782-22.55-12.382-9.237.4-17.484 5.908-21.394 14.286-3.91 8.379-2.833 18.237 2.794 25.573-2.166-3.76-3.303-8.025-3.295-12.365z" opacity=".2"/>
                <path fill="#292949" d="M81.626 87.696c-.299-.292-.761-.335-1.108-.102-.346.233-.482.677-.325 1.064 2.015 5.036 6.87 8.358 12.294 8.412 5.424.053 10.345-3.172 12.458-8.168.371-.875-.74-1.633-1.423-.971-3.908 3.79-12.204 9.18-21.896-.235z"/>
                <ellipse cx="82.734" cy="78.269" fill="#292949" rx="1.968" ry="3.316"/>
                <ellipse cx="102.408" cy="78.269" fill="#292949" rx="1.968" ry="3.316"/>
                <circle cx="136.478" cy="40.416" r="15.741" fill="#FFD33F" transform="rotate(-88.72 136.478 40.416)"/>
                <path fill="#000" d="M144.077 26.609c4.237 5.989 3.776 14.111-1.112 19.582-4.888 5.47-12.907 6.84-19.334 3.3 3.743 5.29 10.345 7.747 16.635 6.19 6.29-1.558 10.984-6.811 11.826-13.236.842-6.425-2.339-12.71-8.015-15.836z" opacity=".08"/>
                <path fill="#FFF" d="M122.975 42.716c-.302-6.254 3.415-12.005 9.242-14.298 5.827-2.293 12.467-.617 16.508 4.166-2.956-4.552-8.191-7.09-13.596-6.59-5.404.5-10.086 3.954-12.158 8.97-2.071 5.016-1.191 10.768 2.285 14.935-1.378-2.152-2.165-4.63-2.281-7.183z" opacity=".2"/>
                <path fill="#292949" d="M132.268 37.318c-.49-1.074-1.58-1.745-2.76-1.701-1.18.044-2.216.794-2.627 1.9-.074.21.007.442.196.558.188.117.432.086.586-.075.833-.886 2.18-1.63 3.872-.136.165.148.411.159.589.026.179-.131.24-.372.144-.572zM145.777 36.682c-.49-1.075-1.58-1.749-2.761-1.705-1.181.044-2.219.796-2.627 1.906-.08.208 0 .443.192.558.189.12.436.088.589-.076.832-.888 2.18-1.631 3.87-.138.09.081.208.124.329.12.093-.005.182-.038.257-.093.18-.13.244-.37.151-.572z"/>
                <path fill="#D67086" d="M129.593 43.713v-.025c-.074-1.57-1.275-2.955-2.983-2.873-1.355.064-2.096 1.076-2.32 2.001-.312-.9-1.15-1.836-2.5-1.774-1.706.08-2.773 1.57-2.699 3.14v.025c0 .343.18 3.816 5.563 6.401 5.12-3.08 4.964-6.554 4.939-6.895z"/>
                <path fill="#292949" d="M136.894 49.162c-1.01.047-1.954-.496-2.422-1.392-.467-.895-.372-1.981.244-2.782-.671-.703-.893-1.722-.575-2.64.317-.919 1.121-1.582 2.083-1.72.962-.139 1.92.272 2.484 1.064.134.198.087.467-.106.608-.193.142-.463.105-.612-.083-.393-.551-1.076-.818-1.739-.679-.663.14-1.18.658-1.319 1.321-.138.663.13 1.346.682 1.738.108.08.175.205.182.34.006.135-.05.265-.151.353-.504.444-.7 1.141-.502 1.783.198.64.754 1.106 1.42 1.189.666.082 1.318-.234 1.667-.807.128-.21.402-.276.611-.149.21.128.277.402.149.612-.448.737-1.234 1.204-2.096 1.244z"/>
                <path fill="#EAC5B0" d="M112.013 81.135c-.083.24-.193.47-.328.686-.063.115-.147.216-.25.297-.075.052-.156.096-.24.13l-.595.263c-.064.036-.137.052-.21.046-.052-.014-.1-.04-.141-.076-.223-.164-.442-.346-.657-.53-.036-.028-.066-.064-.087-.105-.019-.093.012-.19.08-.255.295-.364.19-.5.283-.894.064-.266.253-.397.453-.576l1.01-.892c.037-.032.82.517.91.577-.123.295-.067.664-.139.984-.023.117-.053.232-.089.345z"/>
                <path fill="#D67086" d="M112.46 58.09c-.152.144-.281.31-.384.492-.471.804-.542 1.806-.381 2.718.254 1.456.97 2.842 1.387 4.26.478 1.621.955 3.243 1.431 4.865l-3.854 9.098 1.865 1.05 6.748-10.094c-.739-2.122-1.468-4.192-2.068-6.344-.537-1.93-.721-4.12-2.082-5.683-.77-.89-1.889-1.085-2.662-.362z"/>
                <path fill="#292949" d="M39.15 104.607c-.344 1.865-.626 3.99.585 5.474 1.167 1.43 3.257 1.688 5.126 1.837 3.12.248 6.494.442 9.146-1.182 1.844-1.132 3.08-3.034 3.369-5.178.024-.133.02-.268-.01-.4-.071-.178-.188-.336-.338-.455l-3.38-3.203c-.263-.274-.564-.51-.893-.7-.292-.138-.6-.24-.916-.304-2.97-.714-6.843-1.66-9.916-1.192-2.662.407-2.365 3.104-2.774 5.303z"/>
                <path fill="#B97262" d="M40.998 90.737c.419-.818.272-1.813-.366-2.475l-3.5-3.652c-.656-.683-1.651-1.403-2.03-2.249-.672-1.493-.879-3.427-1.207-5.026-.164-.81-.566-1.886-.463-2.711.02-.155.626-1.478.59-1.502l-.283-.233-.228.282-.256.025.414-.993-1.16-.406-1.115.888c.192.875.615 1.719.596 2.626 0 .383-.08.762-.12 1.15-.07.656-.053 1.312-.063 1.97-.01.656-.14 1.271-.14 1.898 0 1.397.009 2.79.014 4.19l5.686 6.647c.478.556 1.201.837 1.93.751.727-.086 1.365-.528 1.7-1.18z"/>
                <path fill="#474EBB" d="M35.981 83.58c.038-.181.078-.362.119-.544.765-.033 1.536.067 2.307.011.95-.07 1.882-.285 2.829-.377.425-.041.853-.058 1.28-.074 1.89-.074.6 2.767.35 3.759-.369 1.482-.837 2.938-1.402 4.358-.297.746-.636 1.474-1.016 2.181-.194.358-.58 1.509-.985 1.615-.328.086-.594-.25-.777-.536-.9-1.42-2.093-2.632-3.497-3.557-.197-.072-.303-.285-.24-.485.309-2.115.593-4.267 1.032-6.35z"/>
                <path fill="#B97262" d="M51.682 90.114c-.42-.819-.272-1.813.366-2.476l3.497-3.652c.657-.683 1.652-1.403 2.033-2.249.67-1.493.876-3.428 1.206-5.026.164-.81.566-1.885.461-2.711-.02-.154-.624-1.477-.59-1.504l.283-.231.23.282.256.025-.415-.993 1.162-.407 1.114.89c-.193.874-.615 1.716-.595 2.626.008.382.078.761.12 1.149.07.656.052 1.313.062 1.97.01.656.141 1.271.141 1.898 0 1.397-.01 2.79-.015 4.19l-5.682 6.639c-.477.558-1.2.842-1.93.757-.728-.084-1.368-.525-1.704-1.177z"/>
                <path fill="#474EBB" d="M56.698 82.955l-.12-.545c-.765-.032-1.535.068-2.306.012-.949-.07-1.881-.286-2.828-.378-.426-.04-.854-.057-1.282-.073-1.888-.074-.6 2.765-.348 3.758.367 1.482.834 2.938 1.398 4.357.296.746.635 1.475 1.015 2.183.195.358.579 1.508.984 1.615.329.085.595-.251.775-.537.903-1.421 2.097-2.635 3.503-3.562.103-.052.186-.136.236-.24.02-.08.02-.164 0-.244-.305-2.119-.589-4.263-1.027-6.346z"/>
                <path fill="#474EBB" d="M44.714 81.782c-1.535.29-2.86.888-3.743 2.408-.633 1.09-.898 2.365-1.163 3.585-.7 3.184-1.01 6.429-1.36 9.664-.328 3.098-1.22 6.364-.234 9.419.133.408.509.9.883.687l.583-2.025c.064-.296.188-.575.366-.82.18-.192.397-.346.638-.452 1.302-.661 2.723-1.058 4.18-1.167 1.613-.122 3.228.116 4.79.512 1.563.396 3.026 1.085 4.575 1.374 1.016.189 2.024.427 3.017.714.033.011.068.014.102.008.06-.02.08-.095.088-.164.083-.686.027-1.381-.164-2.045-.19-.668-.179-1.399-.244-2.096-.134-1.5-.35-2.99-.647-4.467-.67-3.202-1.834-6.281-2.4-9.508-.244-1.394-.395-3.703-1.712-4.772-1.43-1.159-4.657-1.218-6.47-1.013-.366.04-.732.09-1.085.158z"/>
                <path fill="#736052" d="M47.07 82.187c-.301.199-1.05.353-1.879.145-.167-.042-.292-.182-.313-.353-.055-.48-.077-.964-.067-1.448 0-.125-1.704-.666-1.896-.804-1.069-.775-1.254-2.16-1.313-3.385-.028-.561-.041-1.159.244-1.641.328-.553.965-.836 1.58-1.015 1.018-.294 2.08-.406 3.136-.328.962.07 2.006.361 2.531 1.17.753 1.163.561 3.447-.079 4.608-.37.673-.965.886-1.438 1.41-.436.48-.303 1.054-.507 1.641z"/>
                <path fill="#1A1A1A" d="M49.943 73.15c.15-.268.296-.527.2-.801-.065-.19-.233-.329-.328-.493-.228-.432.048-.985-.111-1.444-.209-.608-1.085-.857-1.15-1.497-.23-.205-.503.19-.763.36-.587.387-1.288-.515-1.984-.41-.529.08-.877.724-1.412.7-.399-.018-.79-.419-1.149-.23-.164.082-.24.26-.376.37-.438.357-1.3 0-1.544.51-.143.299-.082.563-.39.763-.268.176-.802-.112-.968.273-.03.087-.038.18-.024.27.064.93.128 1.86.19 2.79-.005.256.06.508.189.73.105.146.27.249.34.415.087.203.01.443.062.656.085.348 1.22 2.134 1.56 1.547.12-.214.078-.48.037-.721-.06-.356-.103-.744.077-1.055.29-.493.962-.54 1.529-.577.532-.008 1.056-.128 1.538-.354.328-.164.758-.41 1.006-.14.052.08.11.155.175.225.135.105.329.048.478-.04.134-.107.292-.18.46-.213.164 0 .35.183.257.329.058.164.304-.054.485-.043.149.01.216.189.247.337.096.441.19.881.284 1.323.376.024.725-.196.865-.545.384-.869-.21-1.7-.011-2.531.054-.178.132-.348.231-.504z"/>
                <circle cx="45.584" cy="68.315" r="14.651" fill="#FFD33F" transform="rotate(-45 45.584 68.315)"/>
                <path fill="#000" d="M52.622 55.445c3.948 5.565 3.534 13.118-.999 18.217-4.533 5.1-11.985 6.396-17.974 3.127 3.494 4.916 9.644 7.188 15.495 5.726 5.851-1.463 10.208-6.362 10.978-12.343.77-5.982-2.204-11.825-7.493-14.722l-.007-.005z" opacity=".08"/>
                <path fill="#FFF" d="M33.017 70.482c-.284-5.814 3.163-11.165 8.576-13.31 5.412-2.144 11.589-.607 15.364 3.825-2.746-4.27-7.64-6.654-12.694-6.186-5.054.468-9.427 3.71-11.342 8.41-1.916 4.7-1.056 10.076 2.232 13.944-1.287-2.001-2.024-4.306-2.136-6.683z" opacity=".2"/>
                <path fill="#292949" d="M39.661 70.118c-.174-.134-.417-.136-.594-.004-.176.131-.244.364-.165.57 1.24 2.705 3.991 4.394 6.965 4.277 2.974-.118 5.583-2.019 6.606-4.814.076-.215-.009-.454-.203-.573-.195-.119-.447-.085-.603.081-2.039 2.18-6.44 5.358-12.006.463zM49.17 64.266c.358-1.04 1.308-1.761 2.406-1.826 1.098-.066 2.127.537 2.605 1.528.092.186.04.412-.126.538-.166.126-.398.117-.553-.021-.852-.747-2.167-1.314-3.6.221-.14.152-.367.184-.543.077-.178-.105-.257-.321-.189-.517zM36.604 64.888c.357-1.04 1.307-1.76 2.405-1.826 1.098-.066 2.127.538 2.606 1.528.089.187.035.41-.13.536-.165.125-.395.117-.551-.02-.85-.746-2.165-1.312-3.597.222-.077.084-.185.134-.298.14-.087.003-.172-.018-.247-.063-.178-.105-.256-.321-.188-.517z"/>
                <circle cx="34.921" cy="70.689" r="2.554" fill="#D67086" transform="rotate(-32.735 34.92 70.689)"/>
                <path fill="#D67086" d="M58.997 69.691c.052 1.033-.525 1.995-1.46 2.438-.934.443-2.044.279-2.81-.416-.767-.694-1.04-1.782-.692-2.756.348-.974 1.249-1.642 2.282-1.693 1.41-.07 2.61 1.017 2.68 2.427z"/>
                <path fill="#B97262" d="M44.346 114.242c-.422.092-.835 0-1.256.017-.198-1.45-.248-2.917-.149-4.378.75.619 1.23.123 1.408 1.468.058.431-.185 2.245-.003 2.893z"/>
                <path fill="#292949" d="M42.889 113.545c-.511-.1-.449 1.075-.41 1.347.034.162.05.327.047.493-.032.18-.102.35-.204.502l-.573.985c-.093.144-.163.302-.205.468-.057.436.206.85.624.985 1.4.464 2.352-1.314 2.478-2.4.019-.164.027-.328.033-.504.015-.35.164-1.126-.023-1.438-.215-.363-.648-.011-.985-.112-.336-.1-.576-.285-.782-.326zM46.362 93.328c.124.138.239.283.344.436.838 1.215 1.135 2.738 1.102 4.212-.033 1.474-.373 2.923-.71 4.36-.408 1.733-.932 3.461-1.019 5.226-.046.937-.201 1.88-.305 2.812-.093.83-.195 1.664-.256 2.498-.021.295-.07.312-.382.36-1.143.175-2.312.06-3.398-.339-.509-.189-.356-1.169-.4-1.61-.129-1.284-.227-2.572-.329-3.859-.192-2.572-.428-5.144-.504-7.723-.065-2.232-.422-4.432 1.15-6.255.588-.686 1.4-1.241 2.297-1.279.896-.038 1.786.465 2.41 1.16z"/>
                <path fill="#B97262" d="M50.365 113.54c.437.074.855-.041 1.285-.046.133-1.493.112-2.996-.062-4.484-.737.668-1.25.185-1.367 1.569-.038.448.298 2.29.144 2.96z"/>
                <path fill="#292949" d="M51.823 112.755c.517-.128.51 1.077.492 1.358-.029.167-.038.336-.026.505.042.183.122.355.235.506.21.328.42.656.633.985.104.142.182.3.233.47.079.442-.168.88-.589 1.04-1.41.541-2.47-1.221-2.653-2.334-.027-.164-.042-.343-.059-.516-.032-.356-.22-1.149-.047-1.477.202-.382.656-.044 1-.164.305-.102.57-.32.78-.373zM47.698 93.352c-.114.14-.22.288-.314.442-.756 1.218-.973 2.71-.873 4.14.1 1.429.493 2.82.891 4.198.476 1.663 1.066 3.317 1.231 5.026.045.447.907 5.456.813 5.461.606-.03 1.208.136 1.819.069.656-.072 1.321-.115 1.98-.212-.017-.358.104-.597.145-.934.041-.336 0-.656.02-.985.066-1.252.102-2.508.135-3.762.065-2.504.175-5.013.13-7.519-.042-2.17.201-4.32-1.403-6.02-.604-.638-1.42-1.138-2.298-1.133-.878.005-1.703.525-2.276 1.23z"/>
            </g>
        </g>
    </g>
</svg>
