<svg xmlns="http://www.w3.org/2000/svg" xmlns:xlink="http://www.w3.org/1999/xlink" width="255" height="234" viewBox="0 0 255 234">
    <defs>
        <circle id="prefix__e" cx="38.171" cy="37.622" r="37.622"/>
        <rect id="prefix__a" width="255" height="234" x="0" y="0" rx="8"/>
        <path id="prefix__c" d="M125 62.492c.015 10.026-2.395 19.906-7.024 28.799-.962 1.855-2.018 3.659-3.164 5.406-.319.489-.644.97-.984 1.449-1.75 2.523-3.688 4.913-5.794 7.149-.866.924-1.761 1.818-2.685 2.682-.326.309-.652.61-.984.908-1.544 1.386-3.151 2.701-4.824 3.944l-.426.308c-1.626 1.194-3.311 2.304-5.05 3.327-.346.215-.723.423-1.09.628l-.16.086c-.947.53-1.91 1.032-2.887 1.508-.464.229-.928.45-1.386.665-.457.215-1.04.471-1.573.693-.672.284-1.351.562-2.037.822-2.582.995-5.229 1.813-7.922 2.45-1.344.319-2.705.593-4.082.825-.502.083-1.005.162-1.51.232-1.435.203-2.885.358-4.35.464-1.464.106-2.973.16-4.525.163-6.564.005-13.088-1.023-19.333-3.046-.776-.254-1.545-.521-2.307-.8-29.724-10.95-46.555-42.41-39.172-73.216C9.113 17.132 38.374-3.279 69.83.435 101.29 4.15 124.994 30.813 125 62.492z"/>
    </defs>
    <g fill="none" fill-rule="evenodd">
        <g transform="translate(-52 -46) translate(52 46)">
            <mask id="prefix__b" fill="#fff">
                <use xlink:href="#prefix__a"/>
            </mask>
            <rect width="254" height="233" x=".5" y=".5" stroke="#CCC" rx="8"/>
            <text fill="#000" font-family="Montserrat-Medium, Montserrat" font-size="18" font-weight="400" mask="url(#prefix__b)">
                <tspan x="70.238" y="201">English time</tspan>
            </text>
        </g>
        <g transform="translate(-52 -46) translate(117.242 83.037)">
            <mask id="prefix__d" fill="#fff">
                <use xlink:href="#prefix__c"/>
            </mask>
            <use fill="#1171C8" fill-rule="nonzero" xlink:href="#prefix__c"/>
            <path fill="#A01260" d="M93.879 118.037c-.511.252-1.022.496-1.525.732-.503.236-1.143.518-1.73.762-.74.313-1.486.618-2.24.903-2.84 1.095-5.751 1.995-8.713 2.695l8.766-13.144v-.03l.27-.409.381-.59.065.126 4.726 8.955z" mask="url(#prefix__d)"/>
            <path fill="#B71A6B" d="M109.782 107.279c-1.697 1.524-3.466 2.97-5.305 4.337l-.469.339c-1.789 1.313-3.643 2.534-5.556 3.659-.381.236-.797.464-1.2.69l-.176.095c-1.042.581-2.1 1.134-3.175 1.657-.51.252-1.02.496-1.524.732-.503.236-1.143.518-1.73.762-.74.313-1.486.618-2.24.903l-.405.042c-1.905-.952-.85-8.113.457-10.491v-.03c.043-.08.09-.158.141-.233.04-.061.084-.12.13-.175.139-.168.292-.324.457-.465 1.929-1.658 6.247-2.619 6.247-2.619s5.792-1.371 7.74-1.177c1.497.118 4.07.99 6.608 1.974z" mask="url(#prefix__d)"/>
            <path fill="#A01260" d="M52.632 124.085c-3.439-.559-6.83-1.38-10.144-2.454-.854-.28-1.7-.573-2.538-.88l-.103-5.385 1.722-5.644 11.063 14.363z" mask="url(#prefix__d)"/>
            <path fill="#B71A6B" d="M42.488 121.631c-4.278-1.391-8.407-3.201-12.329-5.404-4.148-2.33-8.044-5.082-11.627-8.213 3.049-1.253 6.585-2.553 8.453-2.743 1.947-.195 7.74 1.177 7.74 1.177s5.465 1.216 6.86 3.274c1.394 2.058 2.69 10.606.903 11.91z" mask="url(#prefix__d)"/>
        </g>
        <path fill="#FFF" d="M225.286 98.914c1.741 17.03-8.56 32.99-24.794 38.418l2.138 7.764-12.851-5.782.332-.118c-19.868.653-36.622-14.677-37.73-34.525-1.11-19.847 13.832-36.948 33.648-38.513 19.817-1.564 37.257 12.98 39.276 32.756h-.02z" opacity=".58" transform="translate(-52 -46)"/>
        <g transform="translate(-52 -46) translate(143.052 62.5)">
            <mask id="prefix__f" fill="#fff">
                <use xlink:href="#prefix__e"/>
            </mask>
            <circle cx="38.171" cy="37.622" r="39.622" stroke="#FFF" stroke-width="4"/>
            <g fill-rule="nonzero" mask="url(#prefix__f)">
                <g>
                    <path fill="#1171C8" d="M1.546 1.476L99.484 1.478 99.486 80.824 1.548 80.822z" transform="translate(-12.052 -3.42) rotate(-.44 50.516 41.15)"/>
                    <path fill="#FFF" d="M7.357 1.689L42.163 27.912 42.341 1.419 57.466 1.832 57.665 27.44 94.241 0.674 98.732 1.166 98.3 12.046 76.004 28.88 98.178 29.061 98.605 51.516 76.313 52.211 98.741 68.88 98.948 79.402 93.508 78.867 57.729 51.297 58.059 78.838 42.43 79.482 43.56 54.59 9.736 80.649 1.3 80.674 2.777 71.398 28.977 51.398 1.338 52.43 1.029 29.099 23.715 29.103 1.151 11.558 0.948 1.735z" transform="translate(-12.052 -3.42)"/>
                    <path fill="#DB3945" d="M45.776 2.708L55.905 2.708 55.906 79.942 45.778 79.942z" transform="translate(-12.052 -3.42) rotate(-.44 50.841 41.325)"/>
                    <path fill="#DB3945" d="M2.45 34.372L98.978 34.374 98.978 49.327 2.45 49.325z" transform="translate(-12.052 -3.42) rotate(-.44 50.714 41.85)"/>
                    <path fill="#DB3945" d="M58.948 30.204L67.467 30.674 98.853 7.3 98.948 2.674 95.673 2.695zM29.93 30.674L36.948 30.446 3.027 4.674 2.948 10.538zM35.166 52.674L42.948 52.791 7.431 80.099 2.969 80.674 2.948 77.43zM64.948 52.674L72.098 52.798 98.768 72.422 98.948 78.674z" transform="translate(-12.052 -3.42)"/>
                </g>
            </g>
        </g>
        <path fill="#FFF" d="M152 146.079L158.052 134.079 170 136.9z" transform="translate(-52 -46)"/>
        <path fill="#161F36" d="M159.916 154.539c-1.802-3.914 2.062-8.19 4.996-9.89 1.03-.564 4.07-1.494 4.955-.103.72 1.144-.515 2.988-1.235 3.709-.103.102-1.338 1.238-1.338 1.185-.053-.309 1.079-.362 1.235-.412 2.111-.762 6.284.465 7.26 2.626 2.473 5.461-6.643 6.181-6.86 4.07 0-.156 1.143.873 1.235.976.621.827-.153 1.905-.823 2.32-2.214 1.441-4.996-.876-6.8-1.547l-2.625-2.934z" transform="translate(-52 -46)"/>
        <path fill="#D83291" d="M158.834 152.992s.724-.359 1.7.312c.975.67 3.246 4.272-.103 5.922l-1.597-6.234z" transform="translate(-52 -46)"/>
        <path fill="#161F36" d="M157.386 151.81s8.087 9.371 4.79 17.15l-3.194.564-3.35-13.697 1.754-4.017z" transform="translate(-52 -46)"/>
        <path fill="#F6BD9A" d="M142.87 152.271c7.88-1.749 15.552 2.523 17.15 9.581l1.287 5.614c.823 3.757 2.473 4.066 1.803 9.474-.465 3.81-3.811 6.749-9.375 8.552-.72.205-3.293.564-3.293.564-11.951.67-15.968-5.046-17.565-12.154l-1.284-5.613c-1.7-7.054 3.396-14.265 11.277-16.018z" transform="translate(-52 -46)"/>
        <path fill="#F6BD9A" d="M126.646 175.964c-.46-2.938.381-4.07 1.548-5.05 1.543-1.234 3.086-1.082 4.272-1.143 3.555-.259 4.325 2.474 4.954 5.408.564 2.576 2.934 4.428.206 5.457-.362.157-1.906.98-2.474 1.033-4.489.732-8.04-2.976-8.506-5.705z" transform="translate(-52 -46)"/>
        <path fill="#161F36" d="M133.498 179.928c-.054-.246-.002-.504.143-.71.145-.206.37-.341.62-.373.499-.117 1.002.178 1.143.671.054.24.007.492-.13.696-.137.205-.352.344-.594.386-.246.083-.515.057-.74-.07-.226-.129-.387-.347-.442-.6z" transform="translate(-52 -46)"/>
        <path fill="#161F36" fill-rule="nonzero" d="M155.48 173.8c-.056-.002-.1-.047-.103-.103-.058-.48-.34-.905-.762-1.144-1.338-.67-3.758.461-3.758.461-.025.02-.06.027-.09.017-.032-.01-.056-.035-.066-.066-.02-.026-.026-.061-.015-.092.01-.032.036-.056.069-.064.102-.05 2.572-1.186 4.016-.461.496.257.84.735.926 1.288-.053.05-.102.152-.205.152l-.012.012z" transform="translate(-52 -46)"/>
        <path fill="#DB3945" d="M157.767 178.022c-.671-1.646-4.192.206-6.338.362-3.43.206-8.96-2.626-9.219.515-.255 2.885 5.667 5.716 9.478 5.148 3.811-.568 7.2-3.346 6.079-6.025z" transform="translate(-52 -46)"/>
        <path fill="#FF514F" d="M147.504 181.063c-2.42-.156-3.964-.415-4.634-.38 1.596 2.11 5.819 3.707 8.807 3.296.868-.13 1.716-.373 2.523-.72-.926-1.784-4.017-1.99-6.696-2.196z" transform="translate(-52 -46)"/>
        <path fill="#F5FAFE" d="M143.285 177.458c-.452.108-.82.436-.98.873 1.243 1.015 2.709 1.721 4.277 2.062.67-.515 2.061-1.391 3.193.255l.103.206c2.473.156 4.573-.103 5.82-1.647v-1.802c-1.338.206-2.988.823-4.223.876-2.58.206-6.338-1.353-8.19-.823z" transform="translate(-52 -46)"/>
        <path fill="#161F36" d="M156.982 167.824c-.054-.667.255-1.284.72-1.284.465 0 .877.46.98 1.143.102.682-.26 1.288-.72 1.288-.52.091-.93-.427-.98-1.147z" transform="translate(-52 -46)"/>
        <path fill="#161F36" fill-rule="nonzero" d="M154.611 165.252c-.077-.015-.148-.05-.206-.103-.054-.05-.08-.123-.069-.196.01-.072.057-.135.123-.166.152-.103 3.243-2.668 5.408-.824.1.1.1.262 0 .362-.1.1-.262.1-.362 0-1.803-1.596-4.688.824-4.688.824-.099.05-.152.103-.206.103z" transform="translate(-52 -46)"/>
        <path fill="#161F36" d="M128.296 162.107c.153-.666 2.523-6.897 6.54-10.968 7.622-7.778 23.125-7.572 26.212 6.54 1.185 5.408-3.049 5.202-6.128 2.988-.103-.05-2.729-2.668-2.317-2.832.617-.205 1.494 3.091 1.494 3.503 0 2.728-1.494 4.272-4.276 4.737-2.414.462-4.879-.505-6.334-2.485-.103-.103-1.7-2.881-1.391-2.832 2.008.31 1.753 8.499-1.181 10.042-2.424 1.239-3.659 1.144-5.256-.205-.308-.256-.308 2.37-.05 3.708.26 1.337 1.03 2.061 1.03 3.399 0 1.856-2.729-.762-2.832-1.955-.465-4.33-.053-6.646-4.79-5.408-1.856.423-1.239-6.223-.72-8.232z" transform="translate(-52 -46)"/>
        <path fill="#161F36" d="M130.82 159.585c-1.495-1.144-4.688.053-6.86 4.173-2.173 4.12.827 10.762 2.835 12.824 0 0-.617-1.144.309-3.865.926-2.72 2.728-2.317 4.573-3.296 1.357-.667-.858-9.836-.858-9.836z" transform="translate(-52 -46)"/>
        <path fill="#D83291" d="M124.588 165.301c-2.061-4.066-3.708.412-3.399 2.733.152 1.143 1.906 2.008 2.111.514l1.288-3.247z" transform="translate(-52 -46)"/>
        <path fill="#161F36" d="M123.041 164.428c0-4.481-5.766-6.798-9.474-7.107-1.288-.103-4.74.358-4.954 2.008-.206 1.391 1.856 2.626 2.885 2.935.156.05 1.856.568 1.856.514-.103-.308-1.239.156-1.391.156-2.42.206-6.025 3.14-6.025 5.614 0 6.231 9.37 2.934 8.65.873-.053-.153-.72 1.288-.762 1.494-.255 1.082 1.033 1.7 1.906 1.856 2.835.411 4.531-2.988 6.025-4.429l1.284-3.914zM146.334 169.989c-.05-.671.259-1.289.724-1.289.465 0 .873.465.976 1.144.102.678-.256 1.288-.72 1.288-.466 0-.942-.473-.98-1.143z" transform="translate(-52 -46)"/>
        <path fill="#161F36" fill-rule="nonzero" d="M143.54 168.754c-.057.007-.115-.012-.156-.054-.092-.096-.112-.24-.05-.358.103-.156 2.668-3.144 5.15-1.7.116.08.16.23.102.359-.081.127-.246.172-.381.103-2.111-1.235-4.478 1.547-4.531 1.596-.042.024-.087.042-.134.054z" transform="translate(-52 -46)"/>
        <path fill="#F6B79A" d="M142.096 174.47c-.103-.823.98-1.856 2.668-2.008 1.688-.153 3.346.617 3.4 1.44.052.824-1.392.98-3.092 1.144-1.7.164-2.873.247-2.976-.576zM156.517 172.153c-.103-.827.876-1.856 2.42-1.959 1.543-.103 3.09.671 3.193 1.494.103.823-1.288.98-2.831 1.083-1.544.102-2.676.152-2.782-.618z" transform="translate(-52 -46)"/>
        <path fill="#EFB892" d="M145.065 186.174c0 .29-.87 1.837-.839 2.134 1.113 1.208 1.64 1.33 3.091 2.165.685.431 1.323.932 1.906 1.493.727-.438 2.309-1.41 2.602-1.989.077-.667-1.234-.762-1.73-1.048-.202-.118.16-1.212.225-2.008.088-1.174.328-2.53.328-2.53s-4.592-1.373-5.335-.16c-.24.4-.283 1.135-.248 1.943z" transform="translate(-52 -46)"/>
        <g>
            <path fill="#543532" d="M4.992 9.733s-2.522 5.945.824 14.1l3.307.694L12.95 10.39l-7.958-.656z" transform="translate(-52 -46) translate(193.216 144.817)"/>
            <path fill="#EFB892" d="M26.338 6.959c-6.86-1.746-14.307.85-17.367 6.246-.534 1.18-.907 2.428-1.109 3.708L6.814 22.28c-1.002 3.93-2.668 4.26-2.138 9.813.438 3.975 3.811 7.142 9.558 9.147.732.255 3.468.762 3.468.762 12.382 1.029 16.768-4.813 18.613-12.195l1.49-5.85c1.822-7.363-3.369-14.905-11.467-16.997z" transform="translate(-52 -46) translate(193.216 144.817)"/>
            <path fill="#EFB892" d="M42.618 32.111c.583-2.984-.244-4.272-1.425-5.335-1.525-1.35-3.22-1.208-4.47-1.28-3.72-.29-4.574 2.416-5.26 5.45-.659 2.667-3.212 4.523-.316 5.62.827.47 1.694.863 2.592 1.178 4.5.926 8.273-2.858 8.88-5.633z" transform="translate(-52 -46) translate(193.216 144.817)"/>
            <path fill="#161F36" fill-rule="nonzero" d="M12.637 28.948h-.03c-.025-.005-.047-.02-.06-.042-.014-.021-.018-.047-.013-.072.092-.557.446-1.036.953-1.284 1.483-.717 4.028.525 4.139.579.036.01.063.042.068.08.004.038-.014.075-.047.094-.033.019-.075.016-.105-.007-.027 0-2.572-1.25-3.975-.579-.45.223-.764.649-.846 1.144-.003.045-.038.082-.084.087z" transform="translate(-52 -46) translate(193.216 144.817)"/>
            <g>
                <path fill="#DB3945" d="M.625.968c.762-1.646 4.345.328 6.54.549 3.612.343 9.44-2.542 9.638.8.125 3.049-5.999 5.74-10.039 5.065C2.724 6.707-.61 3.723.625.968z" transform="translate(-52 -46) translate(193.216 144.817) translate(9.527 32.393)"/>
                <path fill="#FF514F" d="M11.178 4.367c2.503-.133 4.108-.3 4.813-.236-1.738 2.123-6.216 3.75-9.227 3.25-.91-.148-1.793-.426-2.625-.822 1.002-1.837 4.238-1.986 7.039-2.192z" transform="translate(-52 -46) translate(193.216 144.817) translate(9.527 32.393)"/>
                <path fill="#F5FAFE" d="M15.682.838c.467.121.828.491.938.96-.973 1.001-2.253 1.646-3.636 1.83-.728-.526-2.443-2.397-4.055.412-.057.16-.057.16-.168.213-2.583.103-4.752-.198-6.01-1.818L2.859.564c1.384.206 3.049.88 4.36 1.06 2.683.198 6.597-1.437 8.464-.786z" transform="translate(-52 -46) translate(193.216 144.817) translate(9.527 32.393)"/>
            </g>
            <path fill="#161F36" d="M11.185 22.801c.061-.705-.282-1.28-.716-1.338-.435-.057-.987.477-1.048 1.182-.061.705.282 1.28.716 1.341.526.088.983-.476 1.048-1.185z" transform="translate(-52 -46) translate(193.216 144.817)"/>
            <path fill="#543532" d="M39.665 12.325C35.507-4.497 7.519-.671 1.936 5.67.309 7.47 6.044 7.46 6.044 7.46S.55 9.92.191 14.616c-.462 1.845 1.768-.11 6.398-.869.762-.099 2.153 3.754 2.961 4.036 1.734.51 5.717-3.65 7.241-3.578 7.961.403 13.038 2.804 13.072 4.546-.518 2.287.8 3.19 1.414 4.04 1.375.762-.572 4.26-.153 5.407.317.926 3.278 1.048 3.339.614.06-.434.14-.678.971-1.753 1.075-1.265 2.874-1.46 4.932-.835 1.246.343 2.93-8.17 2.153-13.262-.438-2.344-2.557-.442-2.854-.636z" transform="translate(-52 -46) translate(193.216 144.817)"/>
            <path fill="#161F36" d="M22.61 23.956c.065-.705-.281-1.28-.716-1.342-.434-.06-.983.477-1.048 1.182-.065.705.282 1.28.716 1.341.591-.085 1.034-.584 1.049-1.181z" transform="translate(-52 -46) translate(193.216 144.817)"/>
            <path fill="#161F36" fill-rule="nonzero" d="M25.236 22.138c-.063.007-.124-.019-.164-.069-.026-.03-2.522-3.125-4.76-1.787-.09.053-.204.024-.259-.065-.026-.043-.034-.094-.022-.143.012-.049.044-.09.087-.116 2.523-1.505 5.137 1.738 5.248 1.875.044.054.055.128.028.192-.028.064-.088.108-.158.113zM8.072 21.265c-.046.004-.092-.008-.13-.034-.083-.063-.102-.181-.042-.267.103-.14 2.561-3.449 5.236-2.138.094.045.133.158.088.252-.045.093-.158.133-.251.087-2.398-1.173-4.741 1.994-4.768 2.024-.03.045-.08.073-.133.076z" transform="translate(-52 -46) translate(193.216 144.817)"/>
        </g>
        <path fill="#EFB892" d="M219.573 186.174c0 .29.87 1.837.839 2.134-1.113 1.208-1.64 1.33-3.091 2.165-.685.431-1.323.932-1.906 1.493-.727-.438-2.31-1.41-2.602-1.989-.077-.667 1.234-.762 1.73-1.048.202-.118-.16-1.212-.225-2.008-.088-1.174-.328-2.53-.328-2.53s4.573-1.373 5.335-.16c.24.4.282 1.135.248 1.943z" transform="translate(-52 -46)"/>
        <text fill="#FFD33F" font-family="Montserrat-SemiBold, Montserrat" font-size="18" font-weight="500" transform="translate(-52 -46)">
            <tspan x="211" y="141">¡Hello!</tspan>
        </text>
        <text fill="#95C120" font-family="Montserrat-SemiBold, Montserrat" font-size="18" font-weight="500" transform="translate(-52 -46)">
            <tspan x="117" y="143">¡Hi!</tspan>
        </text>
    </g>
</svg>
