<svg xmlns="http://www.w3.org/2000/svg" xmlns:xlink="http://www.w3.org/1999/xlink" width="255" height="234" viewBox="0 0 255 234">
    <defs>
        <rect id="prefix__a" width="255" height="234" x="0" y="0" rx="8"/>
    </defs>
    <g fill="none" fill-rule="evenodd">
        <mask id="prefix__b" fill="#fff">
            <use xlink:href="#prefix__a"/>
        </mask>
        <rect width="254" height="233" x=".5" y=".5" stroke="#CCC" rx="8"/>
        <text fill="#000" font-family="Montserrat-Medium, Montserrat" font-size="18" font-weight="400" mask="url(#prefix__b)">
            <tspan x="41.114" y="201">Lecturas divertidas</tspan>
        </text>
        <g>
            <g transform="translate(65 36) translate(0 .977)">
                <path fill="#A34A9E" fill-rule="nonzero" d="M125 62.497c.019 30.514-22.016 56.575-52.11 61.63-25.866 4.361-51.703-7.894-64.691-30.683-12.988-22.79-10.362-51.264 6.574-71.295C31.709 2.12 59.352-5.205 83.984 3.812 108.617 12.828 125 36.267 125 62.497z"/>
                <path fill="#E9F1F9" d="M114.902 102.25l-.026-6.546-35.003-23.018s-24.629 5.293-29.16 18.825c0 0-19.766-1.953-28.03 5.371l1.07 5.466s30.57 13.16 31.413 13.831c.843.67 29.499-1.042 29.499-1.042l13.405-12.714 16.832-.173z"/>
                <path fill="#6F7BDD" d="M81.445 79.09s-12.158 2.64-17.252 5.403c-6.12 3.307-8.138 7.617-10.658 10.742-.94 1.165.27 1.5.27 1.5l36.716 24.278s-.723-7.559 7.22-11.032 19.228-5.79 19.228-5.79l-.244-2.214-35.28-22.888zM88.545 121.39L51.62 97.775s0-1.175-.615-1.475c-1.937-.947-11.904-1.139-16.719-.143-4.814.996-11.605 6.758-11.605 6.758s.733 1.244.228 1.882l39.49 20.107s1.708-4.036 7.812-5.137c4.29-.774 9.303-1.087 18.333 1.625z"/>
                <path fill="#6473CC" d="M53.714 96.55L51.289 97.605 88.154 121.439 90.638 121.046z"/>
                <path fill="#6473CC" d="M90.326 120.808L90.348 119.151 53.62 94.851 53.574 96.628z"/>
                <path fill="#6473CC" d="M51.348 97.556L51.006 96.299 53.62 94.851 53.799 96.745z"/>
                <circle cx="20.192" cy="71.977" r="14.108" fill="#19A2AA" fill-rule="nonzero"/>
                <path fill="#B8196B" d="M20.69 74.574c-.395.803-.842 1.58-1.338 2.324-1.51 2.26-3.71 4.366-6.318 3.383-2.25-.844-3.464-2.53-4.089-4.36-1.139-3.32-.348-7.092-.348-7.092l.977.403-.114.147-.241 2.366s7.083 5.098 11.471 2.83z"/>
                <path fill="#177984" fill-rule="nonzero" d="M21.676 64.118c-.466-.16-.982.009-1.263.414 0 0-1.787 2.79-1.455 4.798l.775.267c.199.08.423.06.604-.054.182-.113.298-.306.314-.519 0 0 .205-1.592 1.953-4.557l-.928-.349zM14.792 62.38c-.417-.096-.85.069-1.097.417 0 0-1.465 2.279-1.179 4l.651.228c.169.069.36.052.513-.045.154-.097.251-.262.262-.443 0 0 .163-1.41 1.657-3.926l-.807-.23z"/>
                <path fill="#E9F1F9" d="M20.69 74.574c-4.404 2.279-11.478-2.829-11.478-2.829l.241-2.366.114-.147c1.497.625 4.284 1.771 5.192 2.067 1.761.583 6.836 1.24 6.836 1.24-.266.694-.568 1.373-.905 2.035z"/>
                <path fill="#D22C80" d="M19.352 76.898c-1.51 2.26-3.71 4.366-6.318 3.383-2.25-.844-3.464-2.53-4.089-4.36 0 0 7.077-.97 10.407.977z"/>
                <circle cx="104.131" cy="45.548" r="20.729" fill="#FE882E" fill-rule="nonzero"/>
                <path fill="#B8196B" d="M101.973 48.777c.074 1.311.235 2.616.481 3.906.756 3.922 2.533 8.027 6.622 8.19 3.531.14 6.136-1.452 8.024-3.58 3.44-3.845 4.524-9.408 4.524-9.408h-1.546l.072.26-1.026 3.347s-12.487 2.874-17.151-2.715z"/>
                <path fill="#DE5739" fill-rule="nonzero" d="M106.605 34.063c.722.052 1.323.575 1.474 1.283 0 0 .83 4.795-.771 7.327l-1.198-.084c-.317-.001-.613-.156-.795-.414-.183-.259-.228-.59-.123-.889 0 0 .635-2.278-.052-7.268l1.465.045zM116.917 35.642c.62.104 1.115.576 1.247 1.191 0 0 .677 3.936-.687 6.084l-1.019-.071c-.266-.004-.515-.136-.668-.355-.153-.218-.191-.497-.103-.749 0 0 .586-1.999 0-6.26l1.23.16z"/>
                <path fill="#E9F1F9" d="M101.973 48.777c4.664 5.586 17.151 2.728 17.151 2.728l1.02-3.344-.072-.26c-2.38 0-6.807-.049-8.207-.17-2.711-.214-9.95-2.21-9.95-2.21-.037 1.086-.018 2.172.058 3.256z"/>
                <path fill="#D22C80" d="M102.454 52.683c.756 3.922 2.533 8.027 6.622 8.19 3.531.14 6.136-1.452 8.024-3.58 0 .019-9.024-5.336-14.646-4.61z"/>
                <g>
                    <path fill="#D9E6FE" d="M.026.251L7.34 18.438 12.5 11.497zM13.835 10.482L0 .225 19.948 7.435z" transform="translate(15.625 24.438)"/>
                    <path fill="#6E79E0" d="M12.49 11.569L0.026 0.251 14.059 10.443 14.176 16.862z" transform="translate(15.625 24.438)"/>
                    <path fill="#5263CC" d="M14.134 16.735L11.003 13.48 12.451 11.546z" transform="translate(15.625 24.438)"/>
                    <path fill="#FFF" fill-rule="nonzero" d="M73.623 50.133c-.31-1.07-.689-2.118-1.136-3.138-.071-.167-.047-.36.062-.505.11-.145.289-.22.47-.198.18.022.335.139.405.306.48 1.054.879 2.142 1.195 3.256.044.132.031.276-.034.398-.065.123-.177.214-.31.253h-.07c-.257.031-.501-.124-.582-.372zm-2.653-6.038c-.61-.935-1.278-1.832-1.999-2.685-.13-.14-.173-.34-.113-.52.06-.182.215-.315.403-.349.188-.033.379.039.498.188.74.896 1.426 1.835 2.054 2.813.075.115.101.256.072.39-.03.135-.112.252-.228.326-.235.141-.54.07-.687-.163zm-4.34-5.137c-.777-.739-1.66-1.461-2.57-2.174-.149-.11-.225-.293-.2-.476.024-.183.146-.338.319-.405.172-.067.367-.035.508.083.925.695 1.81 1.44 2.653 2.23.102.093.161.222.164.36.003.137-.05.27-.147.366-.08.078-.18.13-.29.15-.158.03-.322-.02-.436-.134zm-5.347-4.108c-.899-.615-1.856-1.185-2.888-1.777-.243-.142-.324-.454-.182-.697.142-.242.454-.324.697-.182 1.07.618 2.028 1.188 2.958 1.797.117.07.198.186.227.32.028.132 0 .271-.077.383-.08.118-.202.2-.342.231-.136.028-.277.001-.393-.075zm-18.9-1.051c-.273.012-.508-.192-.534-.463-.027-.272.163-.518.433-.56 1.102-.071 2.194-.262 3.255-.569.252-.036.493.116.569.359.075.243-.038.505-.266.618-.627.172-1.263.311-1.904.416-.498.095-1.01.147-1.553.199zm13.02-2.311c-.904-.44-1.852-.941-3.053-1.504-.137-.057-.235-.18-.26-.326-.018.064-.058.12-.114.156-.878.798-1.844 1.491-2.88 2.068-.118.067-.258.085-.388.047-.13-.037-.24-.126-.303-.246-.07-.117-.088-.257-.05-.388.037-.131.127-.24.249-.302.959-.536 1.851-1.183 2.659-1.927.098-.097.232-.15.37-.147.139.004.27.064.362.166.075.05.126.13.14.218.055-.126.159-.225.288-.272.13-.047.273-.04.396.022 1.172.605 2.148 1.067 3.057 1.54.123.06.216.168.258.3.04.13.026.273-.04.393-.071.146-.21.246-.371.267-.11.016-.223-.002-.323-.052l.004-.013zM38.9 33.646c-1.164-.127-2.314-.356-3.438-.684-.188-.04-.339-.181-.389-.367-.05-.186.009-.385.152-.513.144-.13.347-.166.527-.096 1.064.317 2.153.543 3.255.674.277.05.47.305.443.585-.002.234-.181.428-.414.45-.061.006-.097.013-.14-.05h.004zM32.227 31.8c-1.055-.49-2.082-1.04-3.077-1.644-.157-.092-.253-.26-.252-.442.001-.182.1-.35.258-.44.158-.09.352-.089.509.003.96.57 1.979 1.094 2.955 1.556.127.056.224.161.272.29.047.13.04.273-.02.397-.047.168-.192.289-.365.303-.094.03-.196.022-.284-.023h.004zm17.044-3.284c-.977-.463-2.07-1.013-3.09-1.537-.25-.13-.348-.44-.217-.69.13-.25.439-.348.69-.218 1.022.524 2.109 1.038 3.053 1.507.126.056.224.16.271.29.048.13.04.273-.02.397-.071.146-.21.246-.371.267-.107.01-.215.005-.32-.016h.004zm4.209-1.351c-.235-.148-.314-.453-.182-.697.543-.927.904-1.949 1.064-3.011.026-.183.147-.339.318-.408.172-.07.367-.042.513.071.146.114.22.297.194.48-.152 1.195-.552 2.345-1.175 3.376-.076.141-.213.24-.37.27-.128.021-.259-.008-.365-.081h.003zm-27.175 1.08c-.875-.686-1.793-1.435-2.65-2.23-.111-.082-.181-.21-.19-.348-.01-.138.042-.274.142-.37.087-.106.213-.17.349-.18.136-.008.27.038.37.13.81.778 1.67 1.505 2.572 2.175.21.18.245.49.081.713-.074.11-.194.179-.325.189-.122.015-.245-.012-.349-.079zm16.879-3.05c-1.25-.866-2.11-1.66-2.624-2.477-.137-.241-.06-.548.175-.696.234-.149.544-.087.704.14.619.878 1.412 1.62 2.33 2.177.116.072.197.187.225.32.029.133.001.271-.075.383-.163.243-.49.31-.735.153zm10.67-4.798c-.49-.952-1.171-1.794-1.999-2.474-.152-.115-.227-.306-.194-.494.032-.188.167-.343.35-.4.181-.058.38-.01.515.126.922.788 1.688 1.742 2.26 2.812.127.257.023.568-.232.697-.026.04-.094.049-.127.055-.243.026-.474-.109-.573-.332v.01zM21.14 23.555c-.755-.81-1.552-1.647-2.278-2.565-.096-.103-.144-.24-.134-.38.01-.139.077-.268.186-.356.219-.184.544-.16.735.052.736.882 1.501 1.761 2.253 2.54.097.097.15.23.146.368-.004.138-.063.268-.165.36-.064.08-.154.131-.254.147-.183.037-.372-.03-.489-.176v.01zm19.44-3.884c-.256-.12-.38-.413-.286-.68.134-.315.293-.619.475-.908.468-.756 1.06-1.427 1.752-1.986.22-.17.538-.128.708.093.17.22.128.538-.093.708-.605.482-1.118 1.07-1.514 1.735-.146.245-.278.498-.394.758-.077.164-.224.283-.4.326-.087.02-.178 0-.248-.056v.01zm8.6-3.36c-.99-.401-2.059-.57-3.124-.49-.138.022-.278-.016-.385-.105-.108-.088-.171-.219-.175-.358-.018-.136.022-.274.11-.38.087-.106.215-.171.352-.18 1.21-.072 2.42.12 3.548.56.256.12.38.414.287.68-.08.158-.228.27-.4.306-.073.017-.148.005-.212-.032zm-32.424 1.954l-.04-.026c-.11-.143-.136-.334-.067-.501.069-.168.221-.286.4-.31.18-.024.358.05.468.192l.04.03c.165.221.125.534-.092.706-.067.05-.143.087-.224.108-.188.039-.382-.033-.498-.186l.013-.013z" opacity=".66" transform="translate(15.625 24.438)"/>
                </g>
                <g opacity=".3">
                    <path fill="#C5D7ED" d="M12.552 6.436c-.592.524 4.948-3.402 5.534-3.132.703.326-3.395 5.225-4.066 5.534M14.316 9.554c7.204 10.898 3.467 6.751-2.18 1.693M9.056 9.814c-.479.212-5.12 4.997-4.997 5.332.02.056 6.927-2.78 7.451-3.42M8.535 9.15S4.258 3.896 4.557 3.76c.59-.264 5.928 3.047 6.423 3.49" transform="translate(53.71 9.79)"/>
                    <path fill="#E9F1F9" d="M9.277 7.288c.795-.416 1.068-3.095 1.276-4.026.059-.264.954-3.151 1.11-3.083.616.277.674 6.423 1.501 7.161.889.795 8.164 1.814 8.216 2.188.124.915-7.067-.466-7.94 1.49-1.008 2.257-.325 7.634-1.38 7.755-1.054.12-1.116-6.51-2.278-7.556-1.162-1.044-4.915-1.12-6.494-1.591C2.275 9.323.179 8.929.179 8.929s2.279-.13 3.385-.296c1.807-.27 4.17-.534 5.713-1.345z" transform="translate(53.71 9.79)"/>
                </g>
            </g>
        </g>
    </g>
</svg>
