<svg xmlns="http://www.w3.org/2000/svg" xmlns:xlink="http://www.w3.org/1999/xlink" width="255" height="234" viewBox="0 0 255 234">
    <defs>
        <path id="prefix__c" d="M125 62.501c.017 30.516-22.021 56.575-52.117 61.628-25.866 4.357-51.702-7.9-64.687-30.69-12.985-22.792-10.357-51.265 6.58-71.294C31.716 2.116 59.358-5.205 83.99 3.813 108.621 12.832 125 36.271 125 62.501z"/>
        <path id="prefix__e" d="M8.803.005L53.476 14.52c-.162.52-.25 1.073-.25 1.646 0 3.046 2.468 5.515 5.512 5.515h.014L53.22 38.707c-.975-.87-2.26-1.4-3.67-1.4-2.577 0-4.741 1.771-5.344 4.163L-.003 27.106l.866-2.668c.132.075.273.138.424.187 1.206.392 2.502-.269 2.894-1.476.392-1.207-.268-2.503-1.474-2.895-.15-.049-.302-.082-.453-.099l.313-.962c.132.075.274.138.424.187 1.206.392 2.502-.27 2.894-1.476.392-1.207-.268-2.504-1.474-2.896-.15-.048-.302-.08-.453-.098l.597-1.836c.132.074.274.137.424.186 1.207.392 2.502-.269 2.895-1.476.392-1.207-.268-2.503-1.475-2.895-.15-.049-.301-.081-.452-.099l.597-1.836c.132.075.273.138.424.186 1.206.392 2.502-.268 2.894-1.475.392-1.207-.268-2.504-1.474-2.896-.15-.048-.302-.08-.453-.098L8.803.005z"/>
        <path id="prefix__f" d="M19.101 0c.636 0 1.152.516 1.152 1.152 0 .158-.032.314-.095.459l-1.5 3.458c3.603-1.846 6.21-.958 7.823 2.664 1.612 3.623 1.268 6.21-1.033 7.763 2.895 1.823 3.153 5.853.776 12.089-2.377 6.236-4.9 10.75-7.567 13.54l2.899 2.614H6.276l2.899-2.614c-2.667-2.79-5.19-7.304-7.567-13.54-2.377-6.236-2.119-10.266.776-12.09-2.3-1.552-2.645-4.14-1.033-7.762 1.577-3.541 4.105-4.47 7.585-2.783l.239.12-1.501-3.46c-.063-.144-.095-.3-.095-.458 0-.594.45-1.083 1.026-1.145L8.731 0H19.1zM3.634 8.551c-2.177 4.032-.59 5.719 1.193 5.136 1.783-.582 6.904-1.003 4.075-6.007 0 0-3.092-3.16-5.268.871zm20.373-.709c-2.176-4.031-5.027-.584-5.027-.584-3.024 4.667 2.05 5.138 3.834 5.72 1.783.582 3.369-1.105 1.193-5.136z"/>
        <filter id="prefix__d" width="111.9%" height="116.9%" x="-6%" y="-6%" filterUnits="objectBoundingBox">
            <feOffset dy="1" in="SourceAlpha" result="shadowOffsetOuter1"/>
            <feGaussianBlur in="shadowOffsetOuter1" result="shadowBlurOuter1" stdDeviation="1"/>
            <feColorMatrix in="shadowBlurOuter1" values="0 0 0 0 0 0 0 0 0 0 0 0 0 0 0 0 0 0 0.277780813 0"/>
        </filter>
        <rect id="prefix__a" width="255" height="234" x="0" y="0" rx="8"/>
    </defs>
    <g fill="none" fill-rule="evenodd">
        <mask id="prefix__b" fill="#fff">
            <use xlink:href="#prefix__a"/>
        </mask>
        <rect width="254" height="233" x=".5" y=".5" stroke="#CCC" rx="8"/>
        <text fill="#000" font-family="Montserrat-Medium, Montserrat" font-size="18" font-weight="400" mask="url(#prefix__b)">
            <tspan x="93.071" y="201">Museos</tspan>
        </text>
        <g transform="translate(50 33)">
            <g transform="translate(15 4)">
                <use fill="#033974" fill-rule="nonzero" xlink:href="#prefix__c"/>
            </g>
            <g transform="translate(69.744)">
                <use fill="#000" filter="url(#prefix__d)" xlink:href="#prefix__e"/>
                <use fill="#FFECD1" xlink:href="#prefix__e"/>
            </g>
            <path fill="#008EB5" d="M137.712 107.712H142.32V121.536H137.712z"/>
            <path fill="#008EB5" d="M137.712 121.278L133.054 123.513 133.054 125.39 146.702 125.39 146.702 123.2 142.32 121.278z"/>
            <path fill="#FAB321" d="M137.712 86.976H142.32V92.16H137.712z"/>
            <circle cx="140.016" cy="84.096" r="2.304" fill="#FAB321"/>
            <path fill="#E66026" d="M124.464 89.28H155.56799999999998V109.44H124.464z"/>
            <path fill="#FFF" d="M127.344 92.736H136.56V103.104H127.344z"/>
            <path fill="#D8D8D8" stroke="#979797" stroke-width=".6" d="M138.012 93.036H151.812V95.316H138.012z"/>
            <path fill="#FFF" d="M137.712 92.736H152.688V95.616H137.712zM137.712 96.192H152.688V98.496H137.712zM137.712 99.072H145.2V101.376H137.712z"/>
            <path fill="#D8D8D8" d="M137.712 101.952H145.2V104.256H137.712z"/>
            <path fill="#FFF" d="M137.712 104.832H145.2V107.136H137.712z"/>
            <path fill="#D8D8D8" d="M137.712 101.952H145.2V104.256H137.712z"/>
            <path fill="#FFF" d="M137.712 101.952H145.2V104.256H137.712zM145.776 99.072H152.68800000000002V101.376H145.776zM145.776 104.832H152.68800000000002V107.136H145.776zM145.776 101.952H152.68800000000002V104.256H145.776z"/>
            <path fill="#9F3F00" d="M36.336 95.616v29.032h79.292V95.616"/>
            <path fill="#0AAAD7" d="M69.744 78.336H77.232V94.464H69.744z"/>
            <path fill="#008EB5" d="M74.352 78.336H81.84V94.464H74.352z"/>
            <path fill="#833502" d="M31.152 95.616H119.856V105.408H31.152z"/>
            <path fill="#0AAAD7" d="M54.714 91.152L54.714 95.616 65.727 95.616 65.727 91.008z"/>
            <path fill="#008EB5" d="M65.727 91.152L97.484 91.152 97.484 95.616 65.727 95.616M65.727 91.152L74.118 87.295 81.606 87.295 97.484 91.152"/>
            <path fill="#0AAAD7" d="M54.714 91.152L70.556 87.295 74.118 87.295 65.727 91.152z"/>
            <path fill="#FFF" d="M49.403 42.744c0 1.68.694 2.546 2.081 2.597-2.728-.332-4.669.053-5.822 1.157-1.153 1.104-2.039 1.985-2.657 2.643h9.575l2.134.89c5.241 2.582 8.912 3.382 11.013 2.4 2.1-.984 3.56-.984 4.377 0 .17 5.403 2.129 8.601 5.878 9.593 3.75.991 4.41 1.506 1.98 1.544-1.001 2.61-1.661 4.515-1.98 5.712-.319 1.198-2.278 3.866-5.878 8.004l-1.346 2.173h31.137c5.806 1.031 9.224.45 10.251-1.742-11.48-2.272-18.595-4.433-21.34-6.485-4.12-3.078-3.84-.496-5.868-5.209-1.352-3.142-.73-5.28 1.865-6.416h32.455c-9.727-7.298-17.568-11.307-23.523-12.027-5.955-.72-9.553-1.909-10.797-3.567-.434-1.125-2.467-1.987-6.098-2.586-3.63-.598-11.389-1.167-23.275-1.705-2.775.335-4.162 1.343-4.162 3.024z"/>
            <path fill="#DEDEDE" d="M86.901 59.605v4.983c2.147-2.154 3.072-3.816 2.776-4.983M91.168 59.605v4.983c1.954-2.254 2.931-3.915 2.931-4.983M95.524 59.605v4.983c1.809-1.526 2.713-3.187 2.713-4.983M99.708 59.605c.3.584.465 1.274.492 2.07.026.795-.074 1.969-.303 3.522 2.25-1.462 3.238-3.326 2.966-5.592M103.912 59.605c.242 1.109.364 2.04.364 2.796 0 .755-.122 1.823-.364 3.203 1.942-1.036 2.913-3.035 2.913-6M108.203 59.605c.4.189.601.916.601 2.182v.614c0 .753-.2 1.82-.601 3.203 2.605-1.052 3.714-3.052 3.326-6M112.443 59.605c.437 1.001.656 1.933.656 2.796 0 .863-.219 2.097-.656 3.703 2.68-2.04 3.882-4.207 3.61-6.5M86.901 69.974c1.444-1.208 2.166-2.306 2.166-3.295 0-1.482 2.166 4.704 0 4.704M90.484 72.18l2.15-5.277c1.634 3.46 1.769 5.606.404 6.437M94.099 73.507c1.574-2.569 2.36-4.415 2.36-5.539 1.066 2.812 1.242 4.924.529 6.337M97.392 74.615c1.845-2.294 2.767-3.933 2.767-4.919 1.262 3.794 1.492 5.676.691 5.647-.8-.028-1.953-.271-3.458-.728zM102 75.564c1.425-2.72 2.138-4.603 2.138-5.647 0-1.567 1.456 5.693 1.456 6.347M106.608 76.682c1.491-2.535 2.237-4.398 2.237-5.587 0-1.785 2.758 6.695.69 6.695"/>
            <path fill="#032850" d="M75.504 52.803c-.058 3.292 3.797 4.606 11.564 3.94 3.036-1.347 3.768-2.901 2.194-4.661-1.364-1.526-3.51-3.62-6.437-6.284-.903-.822-2.044-1.335-3.258-1.466l-1.159-.126c-2.745-.287-3.713 2.578-2.904 8.597z"/>
            <path fill="#FFF" d="M35.601 62.854c.506-3.033 1.866-4.55 4.081-4.55 3.323 0 3.789-3.011 6.26-3.011 2.47 0 6.907-.544 12.69 1.618 5.784 2.162 6.5-5.028 8.901-3.934 2.402 1.094 1.799 3.627 2.1 8.127.201 3 2.617 4.161 7.248 3.484-1.842 1.523-2.763 3.225-2.763 5.108 0 1.883-2.195 5.147-6.585 9.794-15.847-7.452-25.13-11.799-27.85-13.04-2.721-1.241-4.082-2.44-4.082-3.596z"/>
            <g transform="translate(0 80.607)">
                <mask id="prefix__g" fill="#fff">
                    <use xlink:href="#prefix__f"/>
                </mask>
                <use fill="#F84900" xlink:href="#prefix__f"/>
                <path stroke="#FFF" stroke-width="1.152" d="M-2.832 17.313L29.424 17.313M-.528 25.953L28.272 25.953" mask="url(#prefix__g)"/>
                <path stroke="#FFF" stroke-width=".6" d="M0 18.722L6.416 18.722 6.416 22.362 4.468 22.362" mask="url(#prefix__g)"/>
                <path stroke="#FFF" stroke-width=".6" d="M4.694 20.542L2.578 20.542 2.578 24.216 7.76 24.216 7.76 18.722 13.283 18.722 13.283 22.362 11.284 22.362" mask="url(#prefix__g)"/>
                <path stroke="#FFF" stroke-width=".6" d="M12.087 20.542L9.269 20.542 9.269 24.216 14.662 24.216 14.662 18.722 19.998 18.722 19.998 22.362 18.304 22.362" mask="url(#prefix__g)"/>
                <path stroke="#FFF" stroke-width=".6" d="M18.707 20.824L16.262 20.824 16.262 24.216 21.55 24.216 21.55 18.722 26.842 18.722 26.842 22.362 25.062 22.362" mask="url(#prefix__g)"/>
                <path stroke="#FFF" stroke-width=".6" d="M25.646 20.542h-2.3v3.429h2.946" mask="url(#prefix__g)"/>
            </g>
            <path fill="#D8D8D8" d="M50.773 46.087c-3.738-.445-6.327.573-7.768 3.054 6.53.32 10.084.579 10.66.776.865.295 6.516 6 10.994 3.447 4.478-2.552 4.523-1.516 5.328-.758.387.365.087 2.65.787 4.87.753 2.391 2.573 4.728 4.973 5.121 2.02.331 1.972 1.025 1.485 2.6-.172.554-.507 1.645-1.007 3.272 19.787 7.681 31.094 10.763 33.921 9.246-2.102-.972-3.695-1.623-4.778-1.952-14.452-4.396-22.495-6.89-23.431-8.308-1.042-1.577-1.071-4.027-.088-7.35-4.38.358-7.452-1.89-9.216-6.74-1.764-4.852-5.042-6.154-9.834-3.906l-12.026-3.372z"/>
            <path stroke="#FFF" stroke-linecap="round" stroke-width=".6" d="M140.853 82.707c.325.371.53.659.612.863.161.402.159.857.115 1.271"/>
            <path fill="#EC1818" fill-rule="nonzero" d="M85.43 20.913l.398-1.094-3.97-1.444.706-1.937 3.396 1.236.39-1.074-3.395-1.236.665-1.827 3.828 1.393.398-1.094-5.134-1.868-2.558 7.025 5.275 1.92zm2.592.944l.986-2.71c.19-.522.47-.873.838-1.053.37-.18.785-.186 1.247-.018.409.149.68.382.815.7.135.318.117.711-.054 1.18l-1.06 2.91 1.257.457 1.118-3.07c.282-.777.291-1.437.026-1.98-.265-.544-.736-.939-1.412-1.185-.395-.144-.774-.21-1.135-.197-.36.013-.69.105-.988.277l.252-.693-1.195-.435-1.951 5.36 1.256.457zm7.62 2.853c.235.085.469.136.701.153.233.017.445-.009.637-.075l-.027-1.022c-.241.08-.502.068-.784-.035-.24-.088-.4-.223-.477-.407-.078-.183-.069-.405.026-.666l.928-2.55 1.437.523.365-1.003-1.437-.523.446-1.225-1.256-.457-.446 1.224-.884-.321-.365 1.003.884.322-.939 2.58c-.214.588-.217 1.095-.007 1.52.21.425.609.745 1.198.96zm3.523 1.203l.946-2.6c.195-.535.481-.895.86-1.08.377-.184.81-.187 1.3-.01.087.032.18.078.28.137l.435-1.194c-.911-.332-1.65-.283-2.216.148l.285-.783-1.196-.435-1.95 5.36 1.256.457zm4.556 1.737c.402.147.767.21 1.097.19.33-.02.614-.12.854-.298l-.238.653 1.186.431 1.143-3.141c.278-.763.276-1.41-.005-1.94-.28-.53-.817-.94-1.607-1.227-.442-.161-.881-.257-1.318-.287-.437-.03-.835.01-1.194.122l.16 1.093c.262-.094.555-.135.881-.123.325.013.639.074.94.183.442.161.74.383.89.665.152.283.16.611.023.986l-.03.08-1.386-.504c-.77-.28-1.388-.34-1.852-.18-.464.16-.784.482-.96.964-.111.308-.13.613-.055.917.076.304.24.58.49.827.252.247.579.443.98.59zm.593-.818c-.321-.117-.548-.275-.68-.475-.132-.2-.157-.413-.074-.64.173-.476.62-.582 1.344-.318l1.296.471-.226.623c-.198.23-.445.374-.742.429-.297.055-.603.025-.918-.09zm6.159 3.276c.368.134.728.193 1.079.177.35-.016.677-.114.977-.293l-.252.693 1.205.439 2.711-7.447-1.256-.458-1 2.75c-.12-.316-.306-.588-.557-.816-.251-.228-.554-.406-.91-.535-.515-.188-1.02-.243-1.515-.165-.495.077-.935.28-1.32.61-.386.33-.677.765-.874 1.307-.197.542-.255 1.065-.173 1.569.082.503.288.944.617 1.321.33.378.752.66 1.268.848zm.541-1.02c-.301-.109-.547-.276-.739-.501-.19-.225-.31-.49-.359-.796-.048-.305-.011-.625.11-.96.123-.334.3-.603.533-.806.233-.203.496-.33.787-.379.29-.05.587-.02.888.09.302.11.548.278.74.503.19.224.31.49.358.795.049.306.012.626-.11.96-.122.335-.3.604-.533.807-.233.203-.495.329-.786.378-.291.05-.587.02-.889-.09zm5.708 3.295c.402.146.768.209 1.098.189.33-.02.614-.12.853-.298l-.237.653 1.186.431 1.143-3.141c.278-.763.276-1.41-.005-1.94s-.817-.94-1.607-1.227c-.442-.161-.882-.257-1.318-.287-.437-.03-.835.01-1.194.123l.16 1.092c.261-.094.555-.135.88-.122.326.012.64.073.941.183.442.16.739.382.89.665.151.282.159.61.023.985l-.03.08-1.386-.504c-.77-.28-1.388-.34-1.852-.18-.464.161-.784.482-.96.964-.112.308-.13.614-.055.918.075.304.239.579.49.826.252.247.578.443.98.59zm.594-.819c-.322-.117-.548-.275-.68-.475-.133-.2-.157-.413-.075-.64.173-.475.622-.581 1.345-.318l1.296.472-.226.622c-.198.231-.446.374-.743.429-.296.055-.602.025-.917-.09z"/>
        </g>
    </g>
</svg>
