<svg xmlns="http://www.w3.org/2000/svg" xmlns:xlink="http://www.w3.org/1999/xlink" width="255" height="234" viewBox="0 0 255 234">
    <defs>
        <rect id="prefix__a" width="255" height="234" x="0" y="0" rx="8"/>
    </defs>
    <g fill="none" fill-rule="evenodd">
        <mask id="prefix__b" fill="#fff">
            <use xlink:href="#prefix__a"/>
        </mask>
        <rect width="254" height="233" x=".5" y=".5" stroke="#CCC" rx="8"/>
        <text fill="#000" font-family="Montserrat-Medium, Montserrat" font-size="18" font-weight="400" mask="url(#prefix__b)">
            <tspan x="12.998" y="201">Tecnología y videojuegos</tspan>
        </text>
        <g>
            <g transform="translate(65 17) translate(0 20)">
                <path fill="#00A2AA" fill-rule="nonzero" d="M123.206 62.548c-.003 17.702-7.627 34.546-20.925 46.23-.773.678-1.556 1.346-2.367 1.985-.324.268-.677.535-1.02.792-3.818 2.909-7.962 5.361-12.348 7.31-5.665 2.523-11.682 4.164-17.844 4.866-1.65.2-3.33.324-5.019.372h-2.891c-7.59-.09-15.097-1.59-22.137-4.427-2.845-1.136-5.598-2.489-8.235-4.046l-.334-.191c-1.155-.697-2.28-1.412-3.378-2.176l-1.403-.954c-.448-.305-.906-.668-1.355-1.02C1.108 93.65-6.425 62.518 5.825 36.388c12.25-26.129 41-40.25 69.168-33.971 28.167 6.278 48.2 31.271 48.194 60.13h.02z"/>
                <rect width="84.38" height="37.242" x="8.75" y="38.931" fill="#F7F0F2" fill-rule="nonzero" rx="2.32"/>
                <rect width="5.277" height="5.277" x="10.344" y="41.04" fill="#E5D6D9" fill-rule="nonzero" rx="1.16"/>
                <rect width="5.277" height="5.277" x="17.185" y="41.04" fill="#E5D6D9" fill-rule="nonzero" rx="1.16"/>
                <rect width="5.277" height="5.277" x="24.027" y="41.04" fill="#E5D6D9" fill-rule="nonzero" rx="1.16"/>
                <rect width="5.277" height="5.277" x="30.868" y="41.04" fill="#E5D6D9" fill-rule="nonzero" rx="1.16"/>
                <rect width="5.277" height="5.277" x="37.71" y="41.04" fill="#E5D6D9" fill-rule="nonzero" rx="1.16"/>
                <rect width="5.277" height="5.277" x="44.542" y="41.04" fill="#E5D6D9" fill-rule="nonzero" rx="1.16"/>
                <rect width="5.277" height="5.277" x="51.384" y="41.04" fill="#E5D6D9" fill-rule="nonzero" rx="1.16"/>
                <rect width="5.277" height="5.277" x="58.225" y="41.04" fill="#E5D6D9" fill-rule="nonzero" rx="1.16"/>
                <rect width="5.277" height="5.277" x="65.067" y="41.04" fill="#E5D6D9" fill-rule="nonzero" rx="1.16"/>
                <rect width="5.277" height="5.277" x="71.908" y="41.04" fill="#E5D6D9" fill-rule="nonzero" rx="1.16"/>
                <rect width="5.277" height="5.277" x="78.75" y="41.04" fill="#E5D6D9" fill-rule="nonzero" rx="1.16"/>
                <rect width="5.277" height="5.277" x="85.582" y="41.04" fill="#E5D6D9" fill-rule="nonzero" rx="1.16"/>
                <rect width="5.277" height="5.277" x="10.344" y="51.107" fill="#E5D6D9" fill-rule="nonzero" rx="1.16"/>
                <rect width="5.277" height="5.277" x="17.185" y="51.107" fill="#E5D6D9" fill-rule="nonzero" rx="1.16"/>
                <rect width="5.277" height="5.277" x="24.027" y="51.107" fill="#E5D6D9" fill-rule="nonzero" rx="1.16"/>
                <rect width="5.277" height="5.277" x="30.868" y="51.107" fill="#E5D6D9" fill-rule="nonzero" rx="1.16"/>
                <rect width="5.277" height="5.277" x="37.71" y="51.107" fill="#E5D6D9" fill-rule="nonzero" rx="1.16"/>
                <rect width="5.277" height="5.277" x="44.542" y="51.107" fill="#E5D6D9" fill-rule="nonzero" rx="1.16"/>
                <rect width="5.277" height="5.277" x="51.384" y="51.107" fill="#E5D6D9" fill-rule="nonzero" rx="1.16"/>
                <rect width="5.277" height="5.277" x="58.225" y="51.107" fill="#E5D6D9" fill-rule="nonzero" rx="1.16"/>
                <rect width="5.277" height="5.277" x="10.344" y="58.578" fill="#E5D6D9" fill-rule="nonzero" rx="1.16"/>
                <rect width="5.277" height="5.277" x="17.185" y="58.578" fill="#E5D6D9" fill-rule="nonzero" rx="1.16"/>
                <rect width="5.277" height="5.277" x="24.027" y="58.578" fill="#E5D6D9" fill-rule="nonzero" rx="1.16"/>
                <rect width="5.277" height="5.277" x="30.868" y="58.578" fill="#E5D6D9" fill-rule="nonzero" rx="1.16"/>
                <rect width="5.277" height="5.277" x="37.71" y="58.578" fill="#E5D6D9" fill-rule="nonzero" rx="1.16"/>
                <rect width="5.277" height="5.277" x="44.542" y="58.578" fill="#E5D6D9" fill-rule="nonzero" rx="1.16"/>
                <rect width="5.277" height="5.277" x="51.384" y="58.578" fill="#E5D6D9" fill-rule="nonzero" rx="1.16"/>
                <rect width="5.277" height="5.277" x="58.225" y="58.578" fill="#E5D6D9" fill-rule="nonzero" rx="1.16"/>
                <rect width="5.277" height="5.277" x="10.344" y="66.059" fill="#E5D6D9" fill-rule="nonzero" rx="1.16"/>
                <rect width="5.277" height="5.277" x="17.185" y="66.059" fill="#E5D6D9" fill-rule="nonzero" rx="1.16"/>
                <rect width="5.277" height="5.277" x="24.027" y="66.059" fill="#E5D6D9" fill-rule="nonzero" rx="1.16"/>
                <rect width="5.277" height="5.277" x="30.868" y="66.059" fill="#E5D6D9" fill-rule="nonzero" rx="1.16"/>
                <rect width="5.277" height="5.277" x="37.71" y="66.059" fill="#E5D6D9" fill-rule="nonzero" rx="1.16"/>
                <rect width="5.277" height="5.277" x="44.542" y="66.059" fill="#E5D6D9" fill-rule="nonzero" rx="1.16"/>
                <rect width="5.277" height="5.277" x="51.384" y="66.059" fill="#E5D6D9" fill-rule="nonzero" rx="1.16"/>
                <rect width="5.277" height="5.277" x="58.225" y="66.059" fill="#E5D6D9" fill-rule="nonzero" rx="1.16"/>
                <rect width="5.277" height="5.277" x="71.908" y="51.107" fill="#E5D6D9" fill-rule="nonzero" rx="1.16"/>
                <rect width="5.277" height="5.277" x="78.75" y="51.107" fill="#E5D6D9" fill-rule="nonzero" rx="1.16"/>
                <rect width="5.277" height="5.277" x="85.582" y="51.107" fill="#E5D6D9" fill-rule="nonzero" rx="1.16"/>
                <rect width="5.277" height="5.277" x="71.908" y="58.578" fill="#E5D6D9" fill-rule="nonzero" rx="1.16"/>
                <rect width="5.277" height="5.277" x="78.75" y="58.578" fill="#E5D6D9" fill-rule="nonzero" rx="1.16"/>
                <rect width="5.277" height="5.277" x="85.582" y="58.578" fill="#E5D6D9" fill-rule="nonzero" rx="1.16"/>
                <rect width="5.277" height="5.277" x="71.908" y="66.059" fill="#E5D6D9" fill-rule="nonzero" rx="1.16"/>
                <rect width="5.277" height="5.277" x="78.75" y="66.059" fill="#E5D6D9" fill-rule="nonzero" rx="1.16"/>
                <rect width="5.277" height="5.277" x="85.582" y="66.059" fill="#E5D6D9" fill-rule="nonzero" rx="1.16"/>
                <ellipse cx="105.63" cy="59.618" fill="#EDE2E5" fill-rule="nonzero" rx="10.334" ry="14.781"/>
                <path stroke="#CAB9BC" d="M95.296 58.559L115.954 58.559M105.63 58.56s.43-10.316 0-13.722"/>
                <path stroke="#AA9D9F" d="M105.63 44.847c-.725-5.725-6.756-26.097-13.56-18.463-6.803 7.633 10.43 14.942 19.342-.058"/>
                <path fill="#EAB27F" fill-rule="nonzero" d="M43.034 88.406c.109 4.745-2.518 9.13-6.753 11.274-4.235 2.143-9.324 1.662-13.083-1.235-3.759-2.898-5.519-7.697-4.524-12.338.078-.384.177-.763.295-1.136.611-2.038 1.73-3.887 3.254-5.372.463-.446.96-.854 1.489-1.221 1.814-1.288 3.953-2.041 6.173-2.176h.277c.999-.04 1.999.044 2.977.248 1.512.313 2.952.905 4.246 1.747l.077.057c1.813 1.189 3.28 2.834 4.256 4.77.63 1.242 1.042 2.58 1.22 3.96.062.472.093.947.096 1.422z"/>
                <path fill="#EAB27F" fill-rule="nonzero" d="M48.874 66.555c-2.156 6.546-4.523 16.289-5.439 20.172-.238.954-.382 1.594-.4 1.68l-.64-1.155-1.364-2.433-3.598-6.527c.932-4.01 2.17-7.944 3.702-11.765 1.308-3.693 3.941-3.655 5.726-2.624 1.364.677 2.261 1.937 2.013 2.652zM36.975 80.601s1.832-11.03 3.702-19.6c.41-1.907-6.106-5.782-7.633.707-1.246 5.1-2.233 10.259-2.958 15.458l6.89 3.435zM29.838 81.44s0-10.581.448-18.873c.096-1.823-6.584-4.456-7.051 1.841 0 0-1.288 12.252-.954 17.529l7.557-.496z"/>
                <path fill="#EAB27F" fill-rule="nonzero" d="M25.334 82.5s-3.302-8.235-5.553-14.819c-.497-1.44-6.527-1.402-4.915 3.645 0 0 2.539 10.44 4.447 14.437l6.021-3.263zM49.81 91.67c-3.408 2.246-6.98 4.23-10.688 5.935l-.162.076-5.468-1.698-5.563-1.727s5.468-2.5 11.384-5.449c1.021-.505 2.061-1.02 3.082-1.555l.534-.267.506-.258c1.68-.887 3.302-1.756 4.771-2.586 1.65-.964 7.319 4.084 1.603 7.529z"/>
                <path fill="#FF6F0F" fill-rule="nonzero" d="M40.582 100.334l-1.908 19.37c-2.845-1.136-5.598-2.488-8.235-4.046l-.334-.19c-1.155-.697-2.28-1.413-3.378-2.176l-1.403-.954c-.448-.306-.906-.668-1.355-1.021-4.043-3.127-7.684-6.742-10.84-10.764l2.033-5.458c1.487-.404 3.002-.694 4.533-.868 2.771-.36 5.577-.36 8.349 0 2.766.348 5.444 1.202 7.9 2.52 1.734.947 3.306 2.165 4.657 3.606l-.019-.019z"/>
                <path fill="#EAB27F" fill-rule="nonzero" d="M78.74 94.15c1.164 3.078 3.503 5.567 6.502 6.92 3 1.353 6.414 1.459 9.49.295 6.409-2.425 9.639-9.585 7.215-15.993-2.425-6.408-9.585-9.638-15.993-7.214-3.077 1.164-5.566 3.503-6.92 6.502-1.352 3-1.458 6.413-.294 9.49z"/>
                <path fill="#EAB27F" fill-rule="nonzero" d="M78.073 91.536s-5.182-12.862-9.199-20.668c-.878-1.717 4.418-7.156 7.634-1.288 2.124 3.545 3.971 7.249 5.524 11.078l-3.96 10.878zM82.824 82.863s-3.53-10.602-6.679-18.779c-.706-1.794 5.124-6.68 7.69-.496 0 0 3.913 9.399 5.344 14.8l-6.355 4.475zM90.01 82.576s-1.68-10.496-3.407-18.568c-.382-1.785 5.802-5.44 7.252.706 0 0 3.197 11.899 3.702 17.175l-7.547.687z"/>
                <path fill="#EAB27F" fill-rule="nonzero" d="M94.628 82.92s1.966-8.655 3.158-15.506c.258-1.508 6.222-2.414 5.42 2.815 0 0-.868 10.716-2.128 14.962l-6.45-2.271zM93.893 94.924S80.534 91.23 72.32 88.12c-1.804-.677-6.613 5.2-.42 7.7 3.762 1.71 7.651 3.126 11.632 4.237l10.362-5.133z"/>
                <path fill="#FF6F0F" fill-rule="nonzero" d="M110.324 100.19c-2.4 3.114-5.094 5.99-8.043 8.589l-.487.42c-.61.534-1.24 1.059-1.909 1.564-.324.268-.677.535-1.02.792-3.818 2.909-7.962 5.361-12.348 7.31l-4.189-15.955c1.123-1.637 2.495-3.089 4.065-4.303 2.19-1.662 4.663-2.914 7.3-3.693h.086c2.705-.798 5.501-1.244 8.32-1.326 1.538-.072 3.079-.024 4.609.143l3.616 6.46z"/>
                <path fill="#FF871E" fill-rule="nonzero" d="M28.025 94.208l-2.72 18.13c-.458-.334-.906-.668-1.355-1.021-4.043-3.127-7.684-6.742-10.84-10.764l2.033-5.458c1.487-.404 3.002-.694 4.533-.868 2.77-.366 5.577-.372 8.349-.019zM110.324 100.19c-2.4 3.114-5.094 5.99-8.043 8.589l-.487.42-8.073-14.314h.086c2.697-.786 5.484-1.222 8.292-1.297 1.538-.072 3.079-.024 4.609.143l3.616 6.46z"/>
            </g>
            <g fill-rule="nonzero" transform="translate(65 17) rotate(-27 73.86 12.673)">
                <path fill="#FFD33F" d="M32.807 3.639L27.97 1.465C20.034-2.102 10.707 1.44 7.14 9.377c-.253.565-.474 1.144-.659 1.735L5.35 14.73.136 43.858c-.731 3.56 1.56 7.039 5.12 7.77.382.08.77.123 1.16.134 2.575.135 5.073-.897 6.8-2.813l8.874-7.626c1.658-1.424 3.715-2.304 5.89-2.521l.775-.078c5.815-.58 11.675-.58 17.49 0l.776.078c2.175.217 4.231 1.097 5.89 2.521l8.874 7.626c1.727 1.916 4.225 2.948 6.8 2.813 3.633-.091 6.503-3.11 6.413-6.743-.01-.39-.055-.778-.133-1.16l-5.209-29.123-1.136-3.624C65.912 2.81 57.067-1.804 48.767.804c-.592.187-1.172.407-1.738.66L42.19 3.64c-2.985 1.339-6.4 1.339-9.384 0z"/>
                <g fill="#FFAC3E">
                    <path d="M12.943 38.038c-4.158 0-8.301-.477-12.35-1.421l-.457 2.56c-.731 3.56 1.56 7.039 5.12 7.77.382.08.771.123 1.161.134 2.575.135 5.074-.897 6.8-2.813l7.966-6.85c-2.727.413-5.482.622-8.24.62zM74.865 39.17l-5.209-29.122-1.136-3.624c-.747-2.38-2.053-4.545-3.808-6.316C59.93 15.19 48.82 27.446 34.274 33.68c3.993-.153 7.992-.035 11.969.355l.775.078c2.176.217 4.232 1.097 5.89 2.521l8.874 7.626c1.727 1.916 4.225 2.948 6.8 2.813 3.633-.09 6.505-3.107 6.416-6.74-.01-.391-.055-.78-.133-1.162z" transform="translate(0 4.688)"/>
                </g>
                <path fill="#383856" d="M18.76 9.121h3.877c.357 0 .646.29.646.647v2.585c0 .356.29.646.646.646h2.585c.357 0 .647.29.647.646v3.878c0 .356-.29.646-.647.646H23.93c-.356 0-.646.29-.646.646V21.4c0 .357-.29.646-.646.646h-3.878c-.356 0-.646-.289-.646-.646v-2.585c0-.357-.29-.646-.646-.646h-2.585c-.357 0-.647-.29-.647-.646v-3.878c0-.357.29-.646.647-.646h2.585c.356 0 .646-.29.646-.646V9.768c0-.357.29-.647.646-.647z"/>
                <path fill="#202033" d="M26.514 12.999H25.41c-1.122 2.983-4.16 4.602-7.407 5.476.07.1.109.218.111.34V21.4c0 .357.29.646.647.646h3.877c.357 0 .646-.29.646-.646v-2.585c0-.357.29-.646.647-.646h2.585c.356 0 .646-.29.646-.647v-3.877c0-.357-.289-.646-.647-.646z"/>
                <circle cx="49.127" cy="15.582" r="2.585" fill="#EA3836"/>
                <path fill="#D62327" d="M50.192 13.231c.592 1.293.022 2.82-1.27 3.413-.68.311-1.462.311-2.142 0 .58 1.304 2.108 1.892 3.413 1.311 1.304-.58 1.892-2.108 1.311-3.412-.26-.584-.726-1.052-1.312-1.312z"/>
                <circle cx="59.467" cy="15.582" r="2.585" fill="#EA3836"/>
                <path fill="#D62327" d="M60.532 13.231c.592 1.293.022 2.82-1.27 3.413-.68.311-1.462.311-2.142 0 .58 1.304 2.108 1.892 3.412 1.311 1.305-.58 1.893-2.108 1.312-3.412-.26-.584-.726-1.052-1.312-1.312z"/>
                <circle cx="54.297" cy="10.413" r="2.585" fill="#00A2AA"/>
                <path fill="#13868B" d="M55.362 8.061c.592 1.293.022 2.82-1.27 3.413-.68.311-1.462.311-2.142 0 .58 1.304 2.108 1.892 3.413 1.312 1.304-.58 1.892-2.108 1.312-3.413-.26-.584-.727-1.052-1.313-1.312z"/>
                <circle cx="54.297" cy="20.752" r="2.585" fill="#00A2AA"/>
                <path fill="#13868B" d="M55.362 18.401c.592 1.293.022 2.82-1.27 3.413-.68.311-1.462.311-2.142 0 .58 1.304 2.108 1.892 3.413 1.311 1.304-.58 1.892-2.108 1.312-3.412-.26-.584-.727-1.052-1.313-1.312z"/>
            </g>
        </g>
    </g>
</svg>
