<svg xmlns="http://www.w3.org/2000/svg" width="260" height="71" viewBox="0 0 260 71">
    <g fill="none" fill-rule="evenodd">
        <g>
            <g transform="translate(-18 -1044) translate(30 1050)">
                <rect width="229" height="55" x="9" y="2" fill="#FFB233" rx="22"/>
                <text fill="#FFF" font-family="Montserrat-SemiBold, Montserrat" font-size="18" font-weight="500">
                    <tspan x="71" y="25">LECTURAS </tspan> <tspan x="71" y="47">DIVERTIDAS</tspan>
                </text>
                <g transform="translate(0 .99)">
                    <path fill="#A34A9E" fill-rule="nonzero" d="M56 27.999c.008 13.67-9.863 25.345-23.345 27.61-11.588 1.954-23.163-3.537-28.982-13.746-5.818-10.21-4.642-22.966 2.945-31.94C14.206.949 26.59-2.332 37.625 1.708 48.661 5.747 55.999 16.248 56 27.998z"/>
                    <path fill="#E9F1F9" d="M51.476 45.808l-.011-2.933-15.682-10.312S24.75 34.935 22.72 40.997c0 0-8.855-.875-12.557 2.406l.48 2.449s13.695 5.896 14.072 6.196c.378.3 13.216-.466 13.216-.466l6.005-5.697 7.541-.077z"/>
                    <path fill="#6F7BDD" d="M36.487 35.432s-5.446 1.183-7.729 2.42c-2.741 1.482-3.645 3.413-4.774 4.813-.422.522.12.673.12.673l16.45 10.876s-.324-3.386 3.234-4.942 8.614-2.595 8.614-2.595l-.11-.992-15.805-10.253zM39.668 54.383l-16.542-10.58s0-.527-.275-.66c-.868-.425-5.334-.511-7.49-.065-2.157.446-5.2 3.027-5.2 3.027s.329.558.103.843l17.69 9.009s.766-1.809 3.5-2.302c1.923-.347 4.169-.487 8.214.728z"/>
                    <path fill="#6473CC" d="M24.064 43.254L22.977 43.727 39.493 54.405 40.606 54.228z"/>
                    <path fill="#6473CC" d="M40.466 54.122L40.476 53.38 24.022 42.493 24.001 43.289z"/>
                    <path fill="#6473CC" d="M23.004 43.705L22.851 43.142 24.022 42.493 24.102 43.342z"/>
                    <circle cx="9.046" cy="32.245" r="6.32" fill="#19A2AA" fill-rule="nonzero"/>
                    <path fill="#B8196B" d="M9.27 33.41c-.178.36-.378.707-.6 1.04-.677 1.013-1.663 1.956-2.83 1.516-1.009-.378-1.553-1.133-1.832-1.953-.51-1.487-.157-3.178-.157-3.178l.438.181-.051.066-.108 1.06s3.173 2.284 5.14 1.267z"/>
                    <path fill="#177984" fill-rule="nonzero" d="M9.711 28.725c-.209-.072-.44.004-.566.185 0 0-.8 1.25-.652 2.15l.347.12c.09.035.19.026.271-.025.081-.05.134-.137.14-.232 0 0 .093-.713.876-2.042l-.416-.156zM6.627 27.946c-.187-.043-.38.031-.492.187 0 0-.656 1.02-.528 1.792l.292.102c.075.031.16.024.23-.02.069-.043.112-.117.117-.198 0 0 .073-.632.742-1.76l-.361-.103z"/>
                    <path fill="#E9F1F9" d="M9.27 33.41c-1.974 1.02-5.143-1.268-5.143-1.268l.108-1.06.051-.066c.67.28 1.92.793 2.326.926.789.261 3.063.556 3.063.556-.12.31-.255.615-.406.911z"/>
                    <path fill="#D22C80" d="M8.67 34.45c-.677 1.013-1.663 1.956-2.83 1.516-1.009-.378-1.553-1.133-1.832-1.953 0 0 3.17-.435 4.662.438z"/>
                    <circle cx="46.651" cy="20.405" r="9.287" fill="#FE882E" fill-rule="nonzero"/>
                    <path fill="#B8196B" d="M45.684 21.852c.033.587.105 1.172.216 1.75.338 1.757 1.134 3.596 2.966 3.67 1.582.062 2.749-.651 3.595-1.605 1.541-1.722 2.027-4.215 2.027-4.215h-.693l.032.117-.46 1.5s-5.593 1.287-7.683-1.217z"/>
                    <path fill="#DE5739" fill-rule="nonzero" d="M47.759 15.26c.323.024.593.258.66.575 0 0 .372 2.148-.345 3.283l-.537-.038c-.142 0-.274-.07-.356-.186-.082-.116-.102-.264-.055-.398 0 0 .284-1.02-.023-3.256l.656.02zM52.379 15.968c.278.046.5.258.559.533 0 0 .303 1.763-.308 2.726l-.457-.032c-.12-.002-.23-.061-.299-.159-.068-.098-.086-.223-.046-.335 0 0 .262-.896 0-2.805l.551.072z"/>
                    <path fill="#E9F1F9" d="M45.684 21.852c2.09 2.502 7.684 1.222 7.684 1.222l.456-1.498-.032-.116c-1.066 0-3.05-.022-3.676-.076-1.215-.096-4.459-.99-4.459-.99-.016.486-.007.973.027 1.458z"/>
                    <path fill="#D22C80" d="M45.9 23.602c.338 1.757 1.134 3.596 2.966 3.67 1.582.062 2.749-.651 3.595-1.605 0 .009-4.043-2.39-6.561-2.065z"/>
                    <g>
                        <path fill="#D9E6FE" d="M.012.112L3.289 8.26 5.6 5.151zM6.198 4.696L0 .101 8.937 3.331z" transform="translate(7 10.948)"/>
                        <path fill="#6E79E0" d="M5.596 5.183L0.012 0.112 6.299 4.678 6.351 7.554z" transform="translate(7 10.948)"/>
                        <path fill="#5263CC" d="M6.332 7.497L4.929 6.039 5.578 5.173z" transform="translate(7 10.948)"/>
                        <path fill="#FFF" fill-rule="nonzero" d="M32.983 22.46c-.139-.48-.309-.95-.509-1.406-.032-.075-.021-.161.028-.226.05-.065.13-.1.21-.09.081.01.15.063.182.138.215.472.394.96.535 1.458.02.06.014.124-.015.18-.029.054-.08.095-.14.112h-.03c-.115.014-.225-.056-.26-.166zm-1.188-2.705c-.274-.42-.573-.821-.896-1.204-.058-.062-.078-.151-.05-.233.026-.08.096-.14.18-.156.084-.015.17.018.223.085.332.4.64.822.92 1.26.034.051.046.114.032.175-.013.06-.05.113-.102.146-.105.063-.242.03-.307-.073zm-1.944-2.302c-.349-.33-.744-.654-1.152-.974-.067-.05-.101-.13-.09-.213.011-.082.066-.151.143-.181.077-.03.164-.016.228.037.414.311.81.644 1.189.999.045.041.072.1.073.16.001.062-.023.122-.066.165-.036.035-.08.058-.13.067-.071.014-.144-.008-.195-.06zm-2.396-1.84c-.403-.276-.832-.53-1.294-.796-.109-.064-.145-.204-.082-.312.064-.11.204-.146.312-.082.48.277.909.532 1.326.805.052.032.089.083.101.143.013.06 0 .122-.034.172-.036.053-.09.09-.153.103-.06.013-.124.001-.176-.033zm-8.467-.471c-.123.005-.228-.086-.24-.208-.012-.121.073-.231.194-.25.494-.032.983-.118 1.459-.255.113-.017.22.052.254.16.034.11-.016.227-.119.277-.28.078-.565.14-.853.187-.223.042-.452.066-.695.089zm5.833-1.036c-.406-.196-.83-.421-1.368-.673-.062-.026-.106-.08-.117-.146-.008.029-.026.054-.05.07-.394.357-.827.668-1.291.926-.053.03-.116.038-.174.021-.058-.017-.107-.056-.136-.11-.03-.052-.04-.115-.022-.174.017-.059.057-.108.111-.135.43-.24.83-.53 1.192-.864.044-.043.104-.067.166-.065.062.002.12.028.162.074.033.023.056.058.063.098.024-.057.07-.1.129-.122.058-.021.122-.018.177.01.525.27.962.478 1.37.69.055.026.096.075.115.134.018.058.012.122-.018.176-.032.065-.094.11-.166.12-.05.007-.1-.001-.145-.024l.002-.006zm-7.394.967c-.521-.057-1.036-.16-1.54-.306-.084-.018-.152-.081-.174-.165-.023-.083.004-.172.068-.23.064-.057.155-.074.236-.042.476.142.964.243 1.458.301.124.023.21.137.199.263-.002.105-.081.191-.186.201-.027.003-.043.006-.062-.022h.001zm-2.99-.827c-.472-.22-.932-.465-1.378-.736-.07-.041-.113-.117-.113-.198.001-.082.045-.157.116-.197.07-.04.157-.04.228.001.43.255.886.49 1.324.697.056.025.1.072.121.13.022.058.018.123-.009.178-.02.075-.086.13-.163.136-.042.013-.088.01-.127-.01h.002zm7.636-1.471c-.437-.207-.927-.454-1.384-.688-.112-.059-.156-.197-.097-.31.058-.112.196-.156.309-.097.458.235.945.465 1.368.675.056.025.1.072.121.13.021.058.018.122-.009.178-.032.065-.094.11-.166.12-.048.004-.096.002-.143-.008h.001zm1.886-.605c-.105-.067-.14-.203-.082-.312.244-.415.406-.873.477-1.35.012-.081.066-.151.143-.182.077-.031.164-.019.23.032.065.05.098.133.087.215-.069.535-.248 1.05-.527 1.512-.034.064-.095.108-.166.121-.057.01-.116-.003-.163-.036h.001zm-12.174.484c-.393-.308-.804-.643-1.187-.999-.05-.037-.082-.094-.086-.156-.004-.062.02-.123.064-.166.039-.047.095-.076.156-.08.061-.004.121.017.166.058.363.348.748.674 1.152.974.094.08.11.22.037.32-.033.048-.087.08-.146.084-.055.007-.11-.005-.156-.035zm7.561-1.367c-.56-.387-.945-.743-1.175-1.11-.061-.108-.027-.245.078-.311.105-.067.244-.04.316.062.277.394.632.726 1.044.976.051.032.088.084.1.143.013.06.001.122-.033.172-.073.109-.22.14-.33.069zm4.78-2.15c-.22-.426-.524-.803-.895-1.107-.068-.052-.102-.138-.087-.222.015-.084.075-.153.157-.18.081-.025.17-.003.23.057.414.354.757.78 1.013 1.26.057.115.01.255-.104.313-.011.017-.042.021-.057.024-.108.012-.212-.048-.256-.148v.004zM9.47 10.553c-.338-.363-.695-.737-1.02-1.149-.043-.046-.065-.107-.06-.17.004-.062.034-.12.083-.16.098-.082.244-.071.33.024.33.395.672.789 1.009 1.138.043.043.067.103.065.165-.002.061-.028.12-.074.161-.028.036-.069.059-.114.066-.082.017-.166-.014-.219-.079v.005zm8.71-1.74c-.115-.053-.17-.185-.129-.304.06-.141.131-.277.213-.407.21-.339.475-.64.785-.89.099-.076.24-.057.317.042.076.1.057.241-.042.317-.27.216-.5.48-.678.777-.065.11-.124.224-.176.34-.035.073-.1.127-.18.146-.038.01-.08 0-.11-.025v.005zm3.852-1.504c-.443-.18-.922-.256-1.4-.22-.061.01-.124-.007-.172-.047-.048-.04-.077-.098-.078-.16-.008-.062.01-.123.049-.17.04-.048.096-.077.158-.081.542-.033 1.084.053 1.59.25.114.054.17.186.128.305-.036.07-.102.121-.18.137-.032.008-.066.002-.095-.014zm-14.526.875l-.017-.012c-.05-.064-.062-.15-.03-.225.03-.074.098-.127.179-.138.08-.01.16.022.21.086l.017.013c.074.1.056.24-.041.317-.03.022-.064.039-.1.048-.085.017-.172-.015-.224-.083l.006-.006z" opacity=".66" transform="translate(7 10.948)"/>
                    </g>
                    <g opacity=".3">
                        <path fill="#C5D7ED" d="M5.623 2.883c-.265.235 2.217-1.524 2.48-1.403.315.146-1.522 2.34-1.822 2.48M6.414 4.28c3.227 4.883 1.553 3.025-.977.759M4.057 4.397c-.214.095-2.294 2.238-2.238 2.389.008.024 3.103-1.246 3.338-1.533M3.824 4.1S1.908 1.745 2.042 1.683c.264-.118 2.655 1.365 2.877 1.564" transform="translate(24.063 4.386)"/>
                        <path fill="#E9F1F9" d="M4.156 3.265c.356-.186.479-1.387.572-1.804.026-.118.427-1.411.497-1.38.276.123.302 2.876.673 3.208.398.355 3.657.812 3.68.98.056.41-3.166-.209-3.557.667-.452 1.011-.145 3.42-.618 3.474-.472.054-.5-2.916-1.02-3.385-.521-.468-2.203-.501-2.91-.713C1.019 4.177.08 4 .08 4s1.021-.058 1.517-.132c.81-.122 1.868-.24 2.56-.603z" transform="translate(24.063 4.386)"/>
                    </g>
                </g>
            </g>
        </g>
        <path fill="#F57F00" fill-rule="nonzero" d="M1106.766-284.805l20.72 4.686-16.18 13.763-1.846-7.507c-51 22.24-161.16 121.925-331.274 296.196-72.66 74.434-155.907 162.07-256.022 269.203-75.847 81.165-138.653 148.968-281.562 303.682C93.628 754.332 29.076 824.009-48.722 907.202c-102.697 109.818-187.773 199.216-261.58 274.52-173.404 176.926-282.39 273.598-328.107 286.648l-.09.024c.01 4.663-3.419 8.739-8.167 9.412-5.195.737-10.003-2.877-10.74-8.072-.737-5.195 2.877-10.003 8.072-10.74 4.623-.655 8.939 2.134 10.353 6.416 45.035-13.063 154.003-109.75 326.537-285.787 73.787-75.285 158.848-164.667 261.531-274.47 77.793-83.187 142.341-152.86 289.311-311.97C381.311 438.463 444.12 370.657 519.972 289.487 620.101 182.34 703.362 94.69 776.04 20.237c170.995-175.173 281.34-274.967 332.697-297.056l-1.97-7.986zm-1755.679 1746.77c-3.554.503-6.027 3.793-5.523 7.348.504 3.554 3.794 6.027 7.349 5.523 3.554-.504 6.027-3.794 5.523-7.349-.504-3.554-3.794-6.027-7.349-5.523z"/>
    </g>
</svg>
