<svg xmlns="http://www.w3.org/2000/svg" xmlns:xlink="http://www.w3.org/1999/xlink" width="260" height="71" viewBox="0 0 260 71">
    <defs>
        <circle id="prefix__a" cx="27.969" cy="27.969" r="27.969"/>
    </defs>
    <g fill="none" fill-rule="evenodd">
        <g transform="translate(-18 -195) translate(30 199)">
            <rect width="229" height="55" x="9" y="4" fill="#FFB233" rx="22"/>
            <text fill="#FFF" font-family="Montserrat-SemiBold, Montserrat" font-size="18" font-weight="500">
                <tspan x="71" y="27">DIVERTIMÚSICA </tspan> <tspan x="71" y="49">Y DANZA</tspan>
            </text>
            <g transform="translate(.49 3.448)">
                <mask id="prefix__b" fill="#fff">
                    <use xlink:href="#prefix__a"/>
                </mask>
                <use fill="#D50080" xlink:href="#prefix__a"/>
                <g fill-rule="nonzero" mask="url(#prefix__b)">
                    <g>
                        <path fill="#555582" d="M11.653 33.6c-.252 0-.504-.096-.696-.288-.384-.385-.384-1.008 0-1.392 1.532-1.532 2.376-3.569 2.376-5.735 0-2.167-.844-4.203-2.376-5.735L.947 10.44C.337 9.828 0 9.016 0 8.153c0-1.782 1.45-3.232 3.232-3.232h7.58c.544 0 .984.44.984.984s-.44.985-.984.985h-7.58c-.697 0-1.263.566-1.263 1.263 0 .337.131.655.37.893l10.01 10.01c1.904 1.904 2.952 4.436 2.952 7.128s-1.048 5.223-2.952 7.127c-.192.192-.444.288-.696.288z" transform="rotate(-39 51.539 19.56)"/>
                        <path fill="#BEDCFA" d="M0 25.106v-3.713c0-.26.104-.511.288-.696L12.512 8.474l5.997.5L1.68 25.801c-.62.62-1.68.18-1.68-.696z" transform="rotate(-39 51.539 19.56)"/>
                        <path fill="#FFC700" d="M32.788 23.378l-7.022-1.247c-.287-.051-.581.028-.805.215-.223.187-.352.463-.352.754v3.516c-.308-.11-.639-.17-.984-.17-1.628 0-2.953 1.326-2.953 2.954 0 1.628 1.325 2.953 2.953 2.953s2.953-1.325 2.953-2.953v-5.126l5.053.898v2.691c-.308-.11-.639-.17-.984-.17-1.628 0-2.953 1.325-2.953 2.954 0 1.628 1.325 2.953 2.953 2.953s2.953-1.325 2.953-2.953v-6.3c0-.477-.342-.886-.812-.97z" transform="rotate(-39 51.539 19.56)"/>
                        <path fill="#3B3B54" d="M0 8.154c0 .863.336 1.675.947 2.285l10.01 10.01c1.532 1.533 2.376 3.57 2.376 5.736s-.844 4.203-2.376 5.735c-.384.384-.384 1.007 0 1.392.192.192.444.288.696.288.252 0 .504-.096.696-.288 1.904-1.904 2.952-4.435 2.952-7.127s-1.048-5.224-2.952-7.127L2.34 9.048c-.239-.24-.37-.557-.37-.894 0-.697.566-1.263 1.263-1.263h7.58c.544 0 .984-.441.984-.985H.913C.348 6.488 0 7.281 0 8.154z" transform="rotate(-39 51.539 19.56)"/>
                        <path fill="#FF5A91" d="M23.756 9.844l-.069-.003-10.905-.766c-1.657-.116-2.954-1.508-2.954-3.169 0-1.66 1.297-3.053 2.954-3.169l10.905-.766c.272-.018.54.076.74.262.2.186.314.447.314.72V8.86c0 .273-.114.534-.313.72-.183.17-.423.265-.672.265z" transform="rotate(-39 51.539 19.56)"/>
                        <path fill="#F32464" d="M9.828 5.906c0 1.661 1.297 3.053 2.954 3.17l10.905.765c.023.002.046.003.07.003.248 0 .488-.094.67-.265.2-.186.314-.447.314-.72V5.906H9.828z" transform="rotate(-39 51.539 19.56)"/>
                        <path fill="#FFE951" d="M23.756 6.89h-1.968c-.544 0-.985-.44-.985-.984 0-.543.44-.984.985-.984h1.968c.544 0 .985.44.985.984s-.441.985-.985.985z" transform="rotate(-39 51.539 19.56)"/>
                        <path fill="#FFC700" d="M21.788 6.89h1.968c.544 0 .985-.44.985-.984h-3.938c0 .544.44.985.985.985z" transform="rotate(-39 51.539 19.56)"/>
                        <path fill="#555582" d="M23.27 9.812c1.123 1.277 2.71 2 4.424 2 3.291 0 5.963-2.706 5.905-6.01C33.543 2.555 30.834-.056 27.587 0c-1.673.03-3.217.749-4.316 2v7.811z" transform="rotate(-39 51.539 19.56)"/>
                        <path fill="#3B3B54" d="M23.27 5.906v3.906c1.123 1.277 2.71 2 4.424 2 3.256 0 5.906-2.65 5.906-5.906H23.27z" transform="rotate(-39 51.539 19.56)"/>
                    </g>
                </g>
            </g>
            <g fill-rule="nonzero">
                <g>
                    <path fill="#E3E3E3" d="M10.218 3.683c-.217 0-.393-.176-.393-.393V.393C9.825.176 10 0 10.218 0c.217 0 .393.176.393.393V3.29c0 .217-.176.393-.393.393z" transform="translate(31.808 .76) translate(3.196)"/>
                    <path fill="#77839E" d="M8.4 5.504v-1.43c0-.666.54-1.206 1.206-1.206h1.223c.666 0 1.206.54 1.206 1.206v1.43H8.4z" transform="translate(31.808 .76) translate(3.196)"/>
                    <g>
                        <path fill="#8EDEF7" d="M19.723 6.56h-4.055c.251 1.136.389 2.369.389 3.658 0 1.289-.138 2.521-.389 3.657h4.055c.437-1.136.677-2.368.677-3.657 0-1.29-.24-2.522-.677-3.657z" transform="translate(31.808 .76) translate(3.196) translate(0 4.244)"/>
                        <path fill="#00CCF4" d="M4.379 10.218c0-1.29.137-2.522.388-3.657H.712C.275 7.696.035 8.929.035 10.218c0 1.289.24 2.521.677 3.656h4.055c-.25-1.135-.388-2.367-.388-3.656z" transform="translate(31.808 .76) translate(3.196) translate(0 4.244)"/>
                        <path fill="#8EDEF7" d="M10.218.035C5.883.035 2.182 2.744.712 6.561h4.055C5.609 2.744 7.732.035 10.217.035zM4.767 13.874H.712c1.47 3.817 5.171 6.526 9.506 6.526-2.486 0-4.609-2.709-5.451-6.526z" transform="translate(31.808 .76) translate(3.196) translate(0 4.244)"/>
                        <path fill="#00CCF4" d="M15.668 6.56h4.055c-1.47-3.816-5.17-6.525-9.505-6.525 2.485 0 4.608 2.709 5.45 6.526zM10.218 20.4c4.334 0 8.036-2.709 9.505-6.526h-4.055c-.842 3.817-2.965 6.526-5.45 6.526z" transform="translate(31.808 .76) translate(3.196) translate(0 4.244)"/>
                        <path fill="#6EDEFF" d="M4.767 6.56c-.25 1.136-.388 2.369-.388 3.658 0 1.289.137 2.521.388 3.657h5.45V6.56h-5.45z" transform="translate(31.808 .76) translate(3.196) translate(0 4.244)"/>
                        <path fill="#CEF1FC" d="M10.218 13.874h5.45c.251-1.135.389-2.367.389-3.656 0-1.29-.138-2.522-.389-3.657h-5.45v7.313zM4.767 13.874c.842 3.817 2.965 6.526 5.45 6.526v-6.526h-5.45z" transform="translate(31.808 .76) translate(3.196) translate(0 4.244)"/>
                        <path fill="#8EDEF7" d="M15.668 13.874h-5.45V20.4c2.485 0 4.608-2.709 5.45-6.526z" transform="translate(31.808 .76) translate(3.196) translate(0 4.244)"/>
                        <path fill="#6EDEFF" d="M15.668 6.56c-.842-3.816-2.965-6.525-5.45-6.525v6.526h5.45z" transform="translate(31.808 .76) translate(3.196) translate(0 4.244)"/>
                        <path fill="#CEF1FC" d="M4.767 6.56h5.45V.036c-2.485 0-4.608 2.709-5.45 6.526z" transform="translate(31.808 .76) translate(3.196) translate(0 4.244)"/>
                    </g>
                    <path fill="#AEE9FC" d="M8.017 22.343c-.105 0-.21-.042-.288-.126-.741-.798-1.207-1.874-1.226-1.92-.2-.467.522-.776.722-.31.005.01.434 1 1.08 1.696.22.237.033.66-.288.66z" transform="translate(31.808 .76) translate(3.196)"/>
                    <path fill="#57D7FF" d="M18.955 14.855c-.203 0-.4-.208-.393-.408.039-1.04-.325-2.099-.328-2.11-.167-.479.575-.737.742-.257.017.049.416 1.21.371 2.397-.008.212-.182.378-.392.378z" transform="translate(31.808 .76) translate(3.196)"/>
                    <path fill="#FFED59" d="M4.483 12.292L5.174 13.856 6.436 14.546 5.174 15.237 4.483 16.8 3.793 15.237 2.531 14.546 3.793 13.856z" transform="translate(31.808 .76) translate(3.196)"/>
                </g>
                <g fill="#FCF29C">
                    <path d="M5.506 8.994c-.141 0-.277-.076-.348-.21-.101-.191-.028-.429.164-.53l2.747-1.45c.192-.1.43-.027.531.165.102.192.028.43-.164.53L5.69 8.95c-.058.03-.121.045-.183.045zM.396 4.384c-.058 0-.117-.013-.172-.04-.195-.095-.276-.33-.18-.525L1.804.22c.096-.195.331-.275.526-.18.195.096.276.33.18.526L.75 4.164c-.069.14-.208.22-.354.22z" transform="translate(31.808 .76) translate(18.182)"/>
                </g>
                <g fill="#FCF29C">
                    <path d="M.393 1.94c-.155 0-.302-.093-.364-.246-.082-.2.015-.43.216-.512L3.083.03c.201-.082.43.015.512.216.082.201-.015.43-.216.512L.541 1.91c-.048.02-.099.03-.148.03zM6.488 7.283c-.064 0-.129-.015-.189-.048-.19-.105-.26-.344-.155-.534l.987-1.79c.104-.19.343-.26.533-.155.19.105.26.344.155.534l-.986 1.79c-.072.13-.206.203-.345.203z" transform="translate(31.808 .76) translate(0 19.544)"/>
                </g>
                <g fill="#FCF29C">
                    <path d="M3.231 9.043c-.062 0-.124-.015-.183-.046L.21 7.5c-.192-.102-.266-.34-.164-.531.1-.192.339-.266.53-.165l2.839 1.498c.192.101.265.34.164.531-.07.133-.207.21-.348.21zM8.25 4.384c-.146 0-.286-.08-.354-.22L6.136.566C6.04.37 6.12.136 6.316.04c.195-.095.43-.015.526.18l1.76 3.599c.096.195.015.43-.18.525-.056.027-.115.04-.173.04z" transform="translate(31.808 .76)"/>
                    <g>
                        <path d="M7.52 1.94c-.05 0-.1-.01-.149-.03L4.533.757c-.201-.081-.298-.31-.216-.512.082-.2.31-.297.512-.216l2.838 1.153c.201.082.298.311.216.512-.062.153-.209.245-.364.245zM1.424 7.283c-.139 0-.273-.073-.345-.203L.093 5.29c-.104-.19-.035-.43.155-.534.19-.105.429-.036.534.154l.986 1.79c.105.19.035.43-.155.535-.06.033-.125.048-.189.048z" transform="translate(31.808 .76) translate(18.916 19.544)"/>
                    </g>
                </g>
                <path fill="#FFED59" d="M20.659 5.529L21.156 6.655 22.065 7.152 21.156 7.649 20.659 8.775 20.162 7.649 19.253 7.152 20.162 6.655z" transform="translate(31.808 .76)"/>
            </g>
        </g>
    </g>
</svg>
