<svg xmlns="http://www.w3.org/2000/svg" width="260" height="71" viewBox="0 0 260 71">
    <g fill="none" fill-rule="evenodd">
        <g>
            <g transform="translate(-18 -744) translate(30 747)">
                <rect width="229" height="55" x="9" y="5" fill="#F1315B" rx="22"/>
                <text fill="#FFF" font-family="Montserrat-SemiBold, Montserrat" font-size="18" font-weight="500">
                    <tspan x="71" y="39">DIVERTIINVENTA</tspan>
                </text>
                <g fill-rule="nonzero">
                    <path fill="#864C9B" d="M56 32c0 15.464-12.536 28-28 28S0 47.464 0 32 12.536 4 28 4c7.437-.035 14.579 2.904 19.838 8.162C53.096 17.421 56.035 24.563 56 32z"/>
                    <g transform="translate(4.032 .864)">
                        <path fill="#BA186B" d="M4.572 16.451c-.052.042-.084.103-.09.169-.007.065.013.131.055.182l24.306 29.705c.04.05.1.08.165.085.064.003.128-.02.174-.065l18.673-18.003c.1-.1.108-.256.022-.366L24.819.09c-.088-.106-.244-.122-.351-.035L4.572 16.451z"/>
                        <path fill="#F7A1F3" d="M16.263 30.464c-.057 0-.108-.04-.127-.1-.02-.06-.003-.126.04-.167l.618-.585c.036-.04.089-.054.137-.036.048.017.084.064.091.12.008.056-.013.112-.054.145l-.617.587c-.024.023-.056.036-.088.036zM18.043 29.12c-.051 0-.097-.032-.115-.081-.018-.05-.004-.104.035-.138l1.06-.91c.024-.02.057-.031.09-.029.032.003.062.018.083.043.021.026.032.058.029.091-.003.033-.018.064-.043.085l-1.059.91c-.022.018-.05.029-.08.029zm2.118-1.818c-.036 0-.07-.017-.094-.045-.02-.025-.031-.058-.029-.09.003-.034.018-.064.043-.086l1.058-.909c.052-.044.13-.038.175.015.044.052.037.131-.015.176l-1.058.909c-.023.017-.051.025-.08.024v.006zm2.118-1.82c-.052 0-.098-.032-.116-.081-.018-.049-.003-.104.036-.138l1.058-.909c.052-.045.13-.038.174.014.045.053.038.132-.014.177l-1.06.909c-.022.016-.05.024-.078.022v.006zm2.116-1.818c-.051 0-.097-.033-.114-.082-.018-.049-.004-.103.036-.137l1.058-.91c.033-.028.08-.037.12-.022.042.015.073.051.081.095.008.044-.008.088-.041.117l-1.06.91c-.023.016-.051.025-.08.023v.006zm2.118-1.818c-.051 0-.098-.032-.115-.081-.018-.05-.004-.104.035-.138l1.06-.91c.032-.032.08-.044.125-.03.044.015.076.054.083.1.007.046-.012.093-.05.12l-1.058.91c-.023.016-.051.025-.08.023v.006zm2.118-1.818c-.036 0-.07-.017-.094-.045-.02-.025-.031-.058-.029-.09.003-.034.018-.064.043-.086l1.06-.909c.033-.028.08-.037.12-.022.042.015.072.052.08.096.008.043-.008.088-.042.117l-1.058.909c-.023.017-.051.025-.08.024v.006zm2.118-1.82c-.036 0-.07-.016-.094-.043-.021-.025-.032-.058-.03-.09.003-.034.019-.064.044-.086l1.058-.909c.052-.045.13-.038.174.014.044.052.038.13-.014.175l-1.058.91c-.024.017-.052.025-.08.023v.006zm2.118-1.818c-.052 0-.098-.032-.116-.081-.018-.05-.004-.104.035-.138l1.059-.91c.033-.028.08-.037.12-.022.042.015.073.051.08.095.009.044-.007.088-.04.117l-1.06.91c-.022.016-.05.024-.078.023v.006zM35.08 14.784c-.058 0-.108-.04-.128-.1-.02-.06-.003-.127.04-.168l.623-.592c.058-.054.144-.046.193.018.048.064.041.16-.017.215l-.623.59c-.025.024-.056.037-.089.037zM15.97 8.512c-.05 0-.095-.02-.125-.052l-.586-.635c-.046-.058-.032-.137.034-.18.065-.044.16-.037.215.015l.586.635c.037.04.045.095.018.141-.026.046-.081.076-.142.076zM37.06 35.84c-.04 0-.076-.018-.1-.049l-.884-1.138c-.027-.035-.034-.082-.017-.123.017-.042.054-.07.098-.077.044-.006.088.012.116.047l.884 1.138c.03.038.035.089.014.132-.02.043-.064.07-.112.07zm-1.771-2.277c-.039 0-.075-.018-.099-.049l-.884-1.138c-.02-.026-.03-.06-.026-.092.004-.033.02-.063.047-.084.054-.042.132-.031.174.023l.886 1.138c.02.026.03.06.026.092-.004.033-.021.063-.047.084-.022.016-.048.025-.075.026h-.002zm-1.77-2.278c-.04 0-.076-.018-.099-.048l-.885-1.138c-.031-.035-.04-.084-.024-.128s.055-.075.102-.08c.046-.005.091.016.117.054l.886 1.138c.02.027.03.06.026.093s-.02.063-.047.083c-.021.017-.047.026-.074.026h-.003zm-1.771-2.277c-.039 0-.075-.018-.099-.048l-.884-1.138c-.032-.035-.041-.084-.025-.128.017-.044.056-.075.102-.08.047-.006.092.015.118.054l.886 1.138c.02.026.03.06.026.093s-.021.063-.047.083c-.022.017-.048.026-.075.026h-.002zm-1.77-2.277c-.04 0-.076-.018-.099-.049l-.885-1.138c-.031-.034-.04-.084-.024-.127.016-.044.056-.075.102-.08.046-.006.092.015.117.054l.886 1.138c.02.026.03.06.026.092-.005.033-.022.063-.048.084-.022.017-.048.026-.076.026zm-1.771-2.277c-.039 0-.075-.018-.098-.049l-.886-1.138c-.02-.026-.03-.06-.026-.093s.022-.063.048-.083c.054-.042.132-.032.174.023l.886 1.138c.03.037.035.089.014.132-.02.043-.065.07-.112.07zm-1.768-2.278c-.039 0-.075-.018-.098-.048l-.886-1.138c-.02-.027-.03-.06-.026-.093s.022-.063.048-.083c.054-.042.132-.032.174.022l.886 1.138c.03.038.035.09.014.132-.02.043-.065.07-.112.07zm-1.77-2.28c-.04 0-.076-.019-.099-.05l-.886-1.137c-.02-.027-.03-.06-.025-.093.004-.033.021-.063.048-.083.054-.042.132-.032.173.022l.886 1.138c.03.038.035.09.015.132-.021.043-.065.07-.113.07zm-1.774-2.274c-.038 0-.074-.018-.098-.049l-.886-1.138c-.02-.026-.03-.06-.025-.092.004-.033.021-.063.048-.084.054-.042.132-.031.174.023l.885 1.138c.03.037.035.089.015.132-.021.043-.065.07-.113.07zm-1.77-2.278c-.039 0-.075-.018-.098-.048l-.884-1.134c-.02-.027-.03-.06-.025-.093.004-.033.021-.063.048-.083.054-.042.132-.032.174.022l.884 1.138c.03.038.035.089.015.132-.021.043-.064.07-.112.07l-.002-.004zm-1.77-2.277c-.04 0-.075-.018-.099-.048l-.886-1.138c-.027-.036-.034-.083-.017-.124.017-.041.054-.07.098-.077.044-.006.088.012.116.047l.884 1.138c.03.038.035.089.015.132-.021.043-.064.07-.112.07zm-1.769-2.27c-.038-.001-.074-.019-.098-.05l-.886-1.138c-.042-.054-.032-.132.022-.175.054-.042.132-.032.175.022l.884 1.138c.03.038.035.089.015.132-.021.042-.064.07-.112.07zM38.37 37.632c-.048 0-.093-.018-.124-.05l-.58-.63c-.035-.038-.044-.089-.022-.133.02-.044.068-.075.124-.082.056-.006.112.013.146.05l.581.63c.037.04.043.095.017.14-.027.046-.081.075-.141.075z"/>
                        <path fill="#D32B80" d="M16.576 7.797L26.665 20.608 34.944 13.572 24.842.896zM27.328 22.099L38.658 36.288 47.488 28.255 35.968 14.784zM17.024 31.017L29.281 45.696 37.632 37.627 26.159 23.296zM5.824 16.558L16.03 29.568 25.088 21.997 14.988 8.96z"/>
                        <g>
                            <path fill="#CFF2F8" d="M16.86 22.75L22.213.168c-3.596-.584-4.235 1.937-4.235 1.937l-5.003 19.666 3.885.977zm-1.262-6.5c.299-.245.716-.286 1.056-.103.341.182.538.552.5.936-.038.384-.304.708-.674.82-.37.111-.771-.01-1.016-.31-.161-.195-.237-.447-.212-.7.025-.251.15-.483.346-.643zM19.524 14.829l-1.042 3.968s9.584.214 12.688-.451c1.187-.25 3.002-1.22 2.818-3.952l-14.464.435z" transform="translate(0 28.672)"/>
                            <path fill="#FDB23D" d="M10.033 22.888c2.437-1.995 6.032-1.637 8.028.799 1.996 2.436 1.638 6.027-.8 8.022-2.437 1.995-6.031 1.638-8.028-.798-1.993-2.437-1.636-6.027.8-8.023zm5.996 7.317c1.177-.963 1.657-2.54 1.217-3.994-.44-1.455-1.713-2.501-3.227-2.652-1.513-.15-2.968.625-3.686 1.965-.718 1.339-.558 2.979.405 4.155 1.317 1.602 3.684 1.838 5.291.526z" transform="translate(0 28.672)"/>
                            <path fill="#CFF2F8" d="M13.922 15.241L10.918 15.309 10.803 19.282 12.871 19.078z" transform="translate(0 28.672)"/>
                            <path fill="#FDB23D" d="M2.089 13.05c2.438-1.994 6.032-1.637 8.028.8 1.996 2.435 1.638 6.027-.8 8.021-2.437 1.995-6.031 1.638-8.027-.798-1.993-2.437-1.635-6.026.799-8.023zm5.995 7.324c1.177-.962 1.657-2.539 1.217-3.993-.44-1.455-1.713-2.502-3.227-2.652-1.513-.15-2.968.625-3.686 1.964-.719 1.34-.559 2.98.405 4.155 1.316 1.604 3.684 1.84 5.291.526z" transform="translate(0 28.672)"/>
                        </g>
                        <path fill="#6F7BDD" d="M23.744 7.168L25.088 14.784 30.464 10.425z"/>
                        <circle cx="15.232" cy="19.264" r="3.584" fill="#CFF2F8"/>
                        <path fill="#FDB23D" d="M32.814 21.578L39.473 21.581 39.476 28.239 32.817 28.236z" transform="rotate(-38.93 36.145 24.908)"/>
                        <path fill="#1BB2EB" d="M31.808 35.685L28.847 35.972 27.409 38.528 26.217 35.854 23.296 35.302 25.519 33.361 25.151 30.464 27.719 31.94 30.412 30.701 29.775 33.554z"/>
                    </g>
                </g>
            </g>
        </g>
        <path fill="#F57F00" fill-rule="nonzero" d="M1106.766 15.195l20.72 4.686-16.18 13.763-1.846-7.507c-51 22.24-161.16 121.925-331.274 296.196-72.66 74.434-155.907 162.07-256.022 269.203-75.847 81.165-138.653 148.968-281.562 303.682-146.974 159.114-211.526 228.791-289.324 311.984-102.697 109.818-187.773 199.216-261.58 274.52-173.404 176.926-282.39 273.598-328.107 286.648l-.09.024c.01 4.663-3.419 8.739-8.167 9.412-5.195.737-10.003-2.877-10.74-8.072-.737-5.195 2.877-10.003 8.072-10.74 4.623-.655 8.939 2.134 10.353 6.416 45.035-13.063 154.003-109.75 326.537-285.787 73.787-75.285 158.848-164.667 261.531-274.47 77.793-83.187 142.341-152.86 289.311-311.97C381.311 738.463 444.12 670.657 519.972 589.487 620.101 482.34 703.362 394.69 776.04 320.237c170.995-175.173 281.34-274.967 332.697-297.056l-1.97-7.986zm-1755.679 1746.77c-3.554.503-6.027 3.793-5.523 7.348.504 3.554 3.794 6.027 7.349 5.523 3.554-.504 6.027-3.794 5.523-7.349-.504-3.554-3.794-6.027-7.349-5.523z"/>
    </g>
</svg>
