<svg xmlns="http://www.w3.org/2000/svg" xmlns:xlink="http://www.w3.org/1999/xlink" width="260" height="71" viewBox="0 0 260 71">
    <defs>
        <path id="prefix__a" d="M56 28c.007 13.671-9.866 25.346-23.348 27.61-11.589 1.952-23.163-3.54-28.98-13.75C-2.146 31.65-.968 18.894 6.62 9.92 14.208.949 26.592-2.331 37.627 1.709 48.662 5.748 56 16.25 56 28.001z"/>
    </defs>
    <g fill="none" fill-rule="evenodd">
        <g>
            <g transform="translate(-18 -944) translate(27 951)">
                <rect width="229" height="55" x="12" y="1" fill="#A546A0" rx="22"/>
                <text fill="#FFF" font-family="Montserrat-SemiBold, Montserrat" font-size="15" font-weight="500">
                    <tspan x="74" y="34">SOCIOEMOCIONAL</tspan>
                </text>
                <g>
                    <g transform="translate(.312) translate(2.688)">
                        <mask id="prefix__b" fill="#fff">
                            <use xlink:href="#prefix__a"/>
                        </mask>
                        <use fill="#6F7BDD" fill-rule="nonzero" xlink:href="#prefix__a"/>
                        <path fill="#F7CFA9" fill-rule="nonzero" d="M38.255 47.04L34.048 56s9.115-2.562 10.752-4.925l-6.545-4.035zM32.812 32.666l-.674 28.199c-3.017.622-6.097.63-9.117.025l-.25-27.942 10.041-.282z" mask="url(#prefix__b)"/>
                    </g>
                    <g fill-rule="nonzero">
                        <path fill="#F7CFA9" d="M45.002 22.808c-.463 2.231-6.332 6.469-9.04 8.32-.826.564-1.358.909-1.358.909v-.1c-2.376 1.596-5.421 1.792-7.981.515-2.56-1.277-4.246-3.832-4.417-6.699h-.054l-2.043-14.289s-.17-1.829 1.298-2.25c1.388-.4 1.886 1.093 1.886 1.093l1.387 7.04.787-.727-1.101-11.14s.015-1.868 1.706-2.043c1.861-.194 2.076 1.093 2.076 1.093l.794 10.575.892-.094.44-13.447S30.212.048 32.41.112c1.791.05 1.98 1.485 1.98 1.485L33.927 15.4l.902.146c.502-2.014.942-10.732.942-10.732s.283-1.482 1.947-1.326c1.472.14 1.51 1.768 1.51 1.768-.29 3.652-.772 13.569-.972 17.92 1.724-1.085 4.725-3.637 5.496-3.315.737.308 1.42 2.162 1.249 2.946z" transform="translate(.312) translate(0 1.792)"/>
                        <path fill="#FDB143" d="M45.002 22.808c-.463 2.231-6.332 6.469-9.04 8.32-1.358.81-2.951 1.888-5.274 1.702-5.4-.43-3.91 0-5.747-1.308-1.198-.853-2.604-3.644-2.73-5.769h-.055l-2.042-14.289s-.17-1.829 1.298-2.25c1.387-.4 1.885 1.093 1.885 1.093l1.388 7.04.786-.727-1.1-11.14s.015-1.868 1.706-2.043c1.861-.194 2.075 1.093 2.075 1.093l.794 10.575.893-.094.44-13.447S30.216.048 32.414.112c1.792.05 1.98 1.485 1.98 1.485L33.932 15.4l.902.146c.503-2.014.942-10.732.942-10.732s.284-1.482 1.947-1.326c1.473.14 1.51 1.768 1.51 1.768-.29 3.652-.771 13.569-.971 17.92 1.723-1.085 4.725-3.637 5.496-3.315.732.308 1.415 2.162 1.244 2.946z" transform="translate(.312) translate(0 1.792)"/>
                        <path fill="#D22C80" d="M35.235 19.698c-2.556-1.91-4.14.645-4.408 1.13-.27-.485-1.85-3.04-4.408-1.13-.854.644-2.23 3.432.84 5.99.74.62 2.278 1.687 3.084 2.492.17.162.326.34.463.53l.027.042.027-.042c.137-.19.292-.368.462-.53.803-.805 2.339-1.877 3.084-2.492 3.066-2.558 1.682-5.346.83-5.99z" transform="translate(.312) translate(0 1.792)"/>
                        <path fill="#F7CFA9" d="M20.505 46.229l3.867 7.265s-6.321-1.138-9.667-4.152l5.8-3.113z" transform="translate(.312) translate(0 1.792)"/>
                        <path fill="#96C02E" d="M24.133 33.18c1.12 2.351-2.348 11.997-2.348 11.997l-.053-.068c-.43 1.273-1.785 1.798-2.929 2.676-2.957 2.274-6.585 2.449-8.99-.34l-.037.032-9.004-8.862S-.316 37.43.484 36.353c.756-1.022 1.893-.247 1.893-.247l4.698 4.155.162-.93L.56 32.16s-.98-1.308.104-2.337c1.194-1.129 2.026-.348 2.026-.348l6.167 6.941.57-.543-6.826-9.603s-.848-1.024.718-2.156c1.274-.929 2.159-.026 2.159-.026l7.002 9.864.707-.38c-.716-1.673-5.033-7.979-5.033-7.979s-.589-1.184.654-1.965c1.1-.69 1.989.423 1.989.423 1.734 2.7 6.663 9.864 8.83 13.01.616-1.68 1.362-5.063 2.07-5.252.675-.186 2.134.738 2.436 1.372z" transform="translate(.312) translate(0 1.792)"/>
                        <path fill="#96C02E" d="M14.98 36.154c-2.794.038-2.541 2.667-2.467 3.148-.444-.193-2.903-1.126-3.671 1.572-.256.902.262 3.587 3.765 3.718.842.032 2.48-.044 3.467.088.204.021.405.062.602.122l.041.014v-.043c-.006-.208.007-.415.04-.62.131-.99.634-2.558.822-3.382.779-3.425-1.668-4.631-2.6-4.617z" transform="translate(.312) translate(0 1.792)"/>
                        <path fill="#FFF" d="M10.179 37.964l2.206 3.231c.179.262.563-.046.384-.31l-2.207-3.227c-.178-.262-.562.046-.383.31v-.004zM12.59 36.246l2.207 3.23c.178.263.562-.046.383-.309l-2.206-3.228c-.179-.261-.562.047-.384.31v-.003zM12.625 46.732c.793-3.228 3.817-5.387 7.112-5.077.309.03.372-.465.056-.49-2.718-.246-5.342 1.067-6.784 3.394-.397.655-.69 1.367-.87 2.113-.016.135.08.258.215.274.134.01.253-.085.271-.219v.005z" transform="translate(.312) translate(0 1.792)"/>
                        <path fill="#1CB1EB" d="M37.705 32.523c-1.12 2.351 2.35 11.997 2.35 11.997l.05-.068c.43 1.273 1.66 2.003 2.802 2.88 2.958 2.282 6.72 2.245 9.118-.55l.037.03 9.003-8.862s1.089-1.183.29-2.261c-.757-1.022-1.894-.248-1.894-.248l-4.697 4.163-.163-.929 6.679-7.172s.979-1.31-.107-2.336c-1.193-1.13-2.025-.35-2.025-.35l-6.167 6.942-.57-.544 6.826-9.602s.848-1.023-.719-2.156c-1.273-.93-2.158-.025-2.158-.025l-7.003 9.863-.706-.38c.722-1.677 5.037-7.982 5.037-7.982s.59-1.185-.653-1.966c-1.098-.69-1.99.423-1.99.423-1.734 2.7-6.663 9.864-8.829 13.01-.617-1.679-.79-4.67-2.07-5.252-.64-.293-2.139.742-2.441 1.375z" transform="translate(.312) translate(0 1.792)"/>
                        <path fill="#1CB1EB" d="M46.86 35.498c2.792.038 2.54 2.666 2.467 3.148.444-.194 2.903-1.126 3.67 1.572.256.901-.262 3.588-3.764 3.717-.842.032-2.481-.044-3.466.088-.205.022-.406.063-.603.122l-.04.014v-.043c.007-.207-.006-.415-.04-.62-.131-.99-.634-2.56-.822-3.384-.782-3.422 1.665-4.627 2.598-4.614z" transform="translate(.312) translate(0 1.792)"/>
                        <path fill="#FFF" d="M47.931 36.883l-2.312 2.704c-.204.239.142.589.347.347l2.305-2.702c.205-.239-.14-.589-.346-.349h.006zM50.31 38.609l-2.312 2.704c-.204.238.142.588.347.347l2.305-2.703c.205-.238-.14-.588-.346-.348h.007z" transform="translate(.312) translate(0 1.792)"/>
                        <path fill="#FFF" d="M43.725 37.069c-1.166 1.447-1.384 3.445-.558 5.111.889 1.718 2.735 2.713 4.652 2.508 1.02-.118 1.975-.563 2.724-1.269.228-.22-.119-.567-.347-.348-1.18 1.129-3.023 1.503-4.526.833-1.196-.521-2.08-1.573-2.393-2.844-.313-1.271-.017-2.616.8-3.636.197-.245-.154-.595-.347-.349l-.005-.006z" transform="translate(.312) translate(0 1.792)"/>
                        <path fill="#FE8830" d="M24.477 16.315c-1.17.683-2.287 1.454-3.34 2.308l-.154-1.069c1.046-.815 2.15-1.551 3.303-2.204l.19.965zM28.885 14.35c-.728.224-1.441.49-2.137.799-.472.207-.925.429-1.362.66l-.098-.996c.344-.175.699-.343 1.064-.505.8-.356 1.625-.657 2.466-.902l.067.944zM34.014 12.836l-.03.911c-1.383-.111-2.773.002-4.119.336l.031-.95c1.35-.305 2.738-.405 4.118-.297zM38.696 14.22c-.017.343-.035.687-.054 1.03-1.096-.652-2.295-1.108-3.546-1.35.033-.283.067-.588.099-.907 1.223.224 2.405.638 3.501 1.227zM23.83 13.016c-1.109.692-2.166 1.464-3.163 2.31l-.154-1.083c.989-.808 2.034-1.544 3.127-2.203l.19.976zM28.615 10.752c-.635.204-1.258.442-1.867.712-.598.264-1.169.55-1.707.844l-.1-1.002c.45-.237.925-.464 1.41-.683.714-.316 1.446-.587 2.193-.813l.07.942zM34.137 9.164l-.03.91c-1.381-.126-2.773-.026-4.122.297l.031-.948c1.353-.294 2.742-.38 4.121-.259zM38.887 10.642l-.055 1.039c-1.051-.65-2.202-1.121-3.406-1.394l.068-.918c1.189.25 2.333.679 3.393 1.273zM23.055 9.836c-.998.662-1.945 1.398-2.832 2.203l-.03-.033-.078-.54c-.012-.198-.005-.396.022-.592.69-.588 1.411-1.14 2.158-1.654.312.12.578.335.76.616zM28.351 7.155c-.525.18-1.057.387-1.597.62-.701.31-1.386.656-2.052 1.036l-.1-1.008c.552-.302 1.139-.596 1.756-.869.627-.279 1.269-.524 1.922-.734l.071.955zM34.26 5.492l-.03.912c-1.379-.143-2.772-.057-4.123.256l.031-.945c1.355-.283 2.744-.358 4.121-.223zM39.1 7.076l-.066 1.049C38 7.455 36.864 6.96 35.67 6.66l.052-.93c1.188.275 2.327.729 3.378 1.346zM27.61 3.74c-.286.11-.573.229-.862.357-.814.36-1.605.768-2.371 1.222.032-.302.154-.96.635-1.416.287-.155.584-.297.888-.44.055-.01.112-.018.172-.025.747-.077 1.23.084 1.538.302zM34.382 1.821l-.03.913c-1.377-.157-2.77-.084-4.123.216l.03-.943c1.358-.272 2.748-.334 4.123-.186zM39.03 4.439c-.57-.368-1.17-.684-1.797-.945.162-.018.324-.018.486 0 .581.037 1.09.404 1.312.945z" transform="translate(.312) translate(0 1.792)"/>
                    </g>
                </g>
            </g>
        </g>
        <path fill="#F57F00" fill-rule="nonzero" d="M1106.766-184.805l20.72 4.686-16.18 13.763-1.846-7.507c-51 22.24-161.16 121.925-331.274 296.196-72.66 74.434-155.907 162.07-256.022 269.203-75.847 81.165-138.653 148.968-281.562 303.682C93.628 854.332 29.076 924.009-48.722 1007.202c-102.697 109.818-187.773 199.216-261.58 274.52-173.404 176.926-282.39 273.598-328.107 286.648l-.09.024c.01 4.663-3.419 8.739-8.167 9.412-5.195.737-10.003-2.877-10.74-8.072-.737-5.195 2.877-10.003 8.072-10.74 4.623-.655 8.939 2.134 10.353 6.416 45.035-13.063 154.003-109.75 326.537-285.787 73.787-75.285 158.848-164.667 261.531-274.47 77.793-83.187 142.341-152.86 289.311-311.97C381.311 538.463 444.12 470.657 519.972 389.487 620.101 282.34 703.362 194.69 776.04 120.237c170.995-175.173 281.34-274.967 332.697-297.056l-1.97-7.986zm-1755.679 1746.77c-3.554.503-6.027 3.793-5.523 7.348.504 3.554 3.794 6.027 7.349 5.523 3.554-.504 6.027-3.794 5.523-7.349-.504-3.554-3.794-6.027-7.349-5.523z"/>
    </g>
</svg>
