<svg xmlns="http://www.w3.org/2000/svg" xmlns:xlink="http://www.w3.org/1999/xlink" width="260" height="71" viewBox="0 0 260 71">
    <defs>
        <circle id="prefix__a" cx="27.969" cy="27.969" r="27.969"/>
    </defs>
    <g fill="none" fill-rule="evenodd">
        <g transform="translate(-18 -295) translate(29 302)">
            <rect width="229" height="55" x="10" y="1" fill="#00A2AA" rx="22"/>
            <text fill="#FFF" font-family="Montserrat-SemiBold, Montserrat" font-size="18" font-weight="500">
                <tspan x="72" y="24">COCINA </tspan> <tspan x="72" y="46">SALUDABLE</tspan>
            </text>
            <g transform="translate(1.49 .448)">
                <use fill="#95C120" xlink:href="#prefix__a"/>
            </g>
            <g fill-rule="nonzero">
                <path fill="#195C85" d="M23.358 2.336H4.672C4.672 1.046 5.91 0 7.44 0h13.15c1.529 0 2.768 1.046 2.768 2.336zM22.19 8.175v2.336h6.423c.323 0 .584.261.584.584v11.679h2.336V10.51c0-1.29-1.046-2.336-2.336-2.336H22.19z" transform="matrix(-1 0 0 1 32.36 17.024)"/>
                <path fill="#87CEE9" d="M23.358 6.58V2.336H0L4.672 6.58 2.92 10.825v10.916c0 7.703 3.678 12.128 11.095 12.128 7.416 0 11.095-4.425 11.095-12.128V10.825L23.358 6.58z" transform="matrix(-1 0 0 1 32.36 17.024)"/>
                <path fill="#195C85" d="M9.343 7.007H4.672c-.323 0-.584-.261-.584-.584 0-.322.261-.584.584-.584h4.671c.323 0 .584.262.584.584 0 .323-.261.584-.584.584zM14.015 7.007h-2.336c-.323 0-.584-.261-.584-.584 0-.322.261-.584.584-.584h2.336c.322 0 .584.262.584.584 0 .323-.262.584-.584.584z" transform="matrix(-1 0 0 1 32.36 17.024)"/>
                <path fill="#C3E9F4" d="M22.774 12.805c-4.38 0-4.38 1.21-8.76 1.21-4.379 0-4.379-1.21-8.758-1.21v8.935c0 6.59 2.865 9.793 8.759 9.793 5.893 0 8.759-3.203 8.759-9.793v-8.935z" transform="matrix(-1 0 0 1 32.36 17.024)"/>
                <g fill="#195C85">
                    <path d="M5.839 0L7.007 0 7.007 1.168 5.839 1.168zM7.591 2.336L8.759 2.336 8.759 3.504 7.591 3.504zM0 5.256L1.168 5.256 1.168 6.423 0 6.423zM1.752 7.591L2.92 7.591 2.92 8.759 1.752 8.759z" transform="matrix(-1 0 0 1 32.36 17.024) translate(9.927 16.35)"/>
                </g>
            </g>
            <g fill-rule="nonzero">
                <path fill="#E6E6E6" d="M16.396 28.566h6.183c.56 0 .906-.612.617-1.091l-.006-.01c-.4-.664-.478-1.5-.121-2.188.311-.602.818-1.099 1.455-1.403 4.358-2.081 7.448-4.406 7.769-9.148.03-.45-.323-.836-.774-.836H.776c-.45 0-.804.386-.773.836.321 4.742 3.41 7.067 7.768 9.148.637.304 1.144.801 1.456 1.403.357.689.279 1.524-.121 2.188l-.006.01c-.289.48.056 1.09.616 1.09h6.68z" transform="translate(21.608 24.64)"/>
                <path fill="#FFF" d="M20.321 25.179h-4.915c-.311 0-.564-.253-.564-.565 0-.312.253-.564.564-.564h4.915c.312 0 .565.252.565.564 0 .312-.253.565-.565.565zM13.765 25.179h-1.91c-.313 0-.565-.253-.565-.565 0-.312.252-.564.564-.564h1.911c.312 0 .565.252.565.564 0 .312-.253.565-.565.565zM20.321 26.872h-8.467c-.312 0-.564-.252-.564-.564 0-.313.252-.565.564-.565h8.467c.312 0 .565.252.565.565 0 .312-.253.564-.565.564z" transform="translate(21.608 24.64)"/>
                <path fill="#D13834" d="M23.144.342c-2.806 0-5.08 2.274-5.08 5.08 0 .397.05.781.135 1.152.287.294.723.395 1.106.218l.221-.102c.616-.285 1.328.126 1.39.801l.021.243c.043.472.417.846.89.888l.242.022c.676.061 1.087.774.801 1.39l-.102.22c-.034.073-.044.15-.059.226.144.013.288.022.435.022 2.806 0 5.08-2.275 5.08-5.08 0-2.806-2.274-5.08-5.08-5.08z" transform="translate(21.608 24.64)"/>
                <path fill="#436B1C" d="M28.21 5.712c-.152 2.67-2.359 4.79-5.066 4.79-.147 0-.293-.007-.437-.019-.071.371.065.76.385.985l.2.141c.554.39.554 1.213 0 1.603l-.2.14c-.18.128-.301.31-.364.51l.023.027h7.558c.806-.9 1.3-2.084 1.3-3.387.002-2.217-1.42-4.096-3.4-4.79z" transform="translate(21.608 24.64)"/>
                <path fill="#ED3F32" d="M22.346 5.188c-.145 0-.29-.055-.4-.165L20.35 3.426c-.221-.22-.221-.577 0-.798.22-.22.577-.22.798 0l1.597 1.597c.22.22.22.577 0 .798-.11.11-.255.165-.4.165zM25.539 8.38c-.145 0-.29-.054-.4-.165L23.544 6.62c-.22-.22-.22-.577 0-.798.22-.22.577-.22.798 0l1.597 1.596c.22.221.22.578 0 .798-.11.111-.255.166-.4.166zM23.942 5.188c-.145 0-.29-.055-.4-.165-.22-.221-.22-.578 0-.798l1.598-1.597c.22-.22.577-.22.798 0 .22.22.22.578 0 .798L24.34 5.023c-.11.11-.255.165-.4.165zM21.03 8.099c-.144 0-.288-.056-.398-.166-.221-.22-.221-.577 0-.798l1.314-1.314c.221-.22.578-.22.799 0 .22.22.22.577 0 .798L21.43 7.933c-.11.11-.255.166-.4.166z" transform="translate(21.608 24.64)"/>
                <path fill="#659C35" d="M29.917 10.502H27.66c-.313 0-.565-.252-.565-.564 0-.312.252-.565.565-.565h2.257c.313 0 .565.253.565.565 0 .312-.252.564-.565.564zM26.53 13.889c-.312 0-.564-.252-.564-.564v-2.258c0-.313.252-.565.565-.565.312 0 .564.252.564.565v2.258c0 .312-.252.564-.564.564z" transform="translate(21.608 24.64)"/>
                <path fill="#88C057" d="M13.243 8.686c.549.17.85.798.595 1.348l-.102.22c-.2.431-.062.942.325 1.215l.2.14c.554.391.554 1.214 0 1.604l-.2.14c-.19.134-.318.326-.377.537h9.031c.06-.211.188-.402.378-.537l.2-.14c.553-.39.554-1.213 0-1.603l-.2-.141c-.387-.273-.524-.784-.325-1.214l.102-.221c.285-.616-.126-1.328-.802-1.389l-.242-.022c-.472-.043-.847-.417-.89-.888l-.021-.243c-.061-.676-.774-1.087-1.39-.802l-.22.102c-.43.2-.94.062-1.213-.325l-.141-.2c-.39-.554-1.213-.554-1.604 0l-.14.2c-.273.387-.784.524-1.214.325l-.221-.103c-.616-.285-1.328.127-1.389.802l-.022.242c-.022.25-.135.53-.222.712-.045.096.003.209.104.24z" transform="translate(21.608 24.64)"/>
                <path fill="#A46F3E" d="M7.081 6.142l3.252-4.615c.536-.762 1.598-.946 2.36-.409.76.536.945 1.599.408 2.36L9.85 8.092c-.537.762-1.599.946-2.36.41-.761-.537-.945-1.599-.409-2.36z" transform="translate(21.608 24.64)"/>
                <path fill="#FBD490" d="M14.26 11.609l-.199-.141c-.387-.273-.524-.784-.325-1.214l.102-.22c.285-.617-.126-1.329-.801-1.39l-.243-.022c-.472-.042-.846-.416-.889-.888l-.022-.243c-.048-.53-.496-.891-.984-.888L9.85 8.092c-.536.761-1.598.945-2.36.409-.568-.401-.814-1.094-.679-1.737-.26.131-.569.157-.849.027l-.221-.102c-.616-.286-1.328.126-1.389.801l-.022.243c-.043.472-.416.846-.888.888l-.243.022c-.676.061-1.087.774-.802 1.389l.103.221c.199.43.062.941-.326 1.214l-.199.14c-.554.391-.554 1.213 0 1.604l.2.14c.19.134.317.326.376.537h11.133c.06-.211.188-.403.377-.536l.2-.14c.554-.39.554-1.213 0-1.603z" transform="translate(21.608 24.64)"/>
                <path fill="#436B1C" d="M16.652 10.22c-.144 0-.289-.055-.399-.165-.22-.221-.22-.578 0-.799l.847-.846c.22-.221.577-.221.798 0 .22.22.22.577 0 .798l-.847.847c-.11.11-.254.165-.399.165zM19.757 11.631c-.145 0-.29-.055-.4-.165l-.564-.565c-.22-.22-.22-.577 0-.798.22-.22.578-.22.798 0l.565.565c.22.22.22.577 0 .798-.11.11-.255.165-.4.165zM16.934 12.76c-.144 0-.289-.055-.399-.165-.22-.221-.22-.578 0-.798l.565-.565c.22-.22.577-.22.798 0 .22.22.22.577 0 .798l-.565.565c-.11.11-.254.165-.399.165z" transform="translate(21.608 24.64)"/>
            </g>
        </g>
    </g>
</svg>
