<svg xmlns="http://www.w3.org/2000/svg" xmlns:xlink="http://www.w3.org/1999/xlink" width="255" height="234" viewBox="0 0 255 234">
    <defs>
        <rect id="prefix__a" width="255" height="234" x="0" y="0" rx="8"/>
    </defs>
    <g fill="none" fill-rule="evenodd">
        <mask id="prefix__b" fill="#fff">
            <use xlink:href="#prefix__a"/>
        </mask>
        <rect width="254" height="233" x=".5" y=".5" stroke="#CCC" rx="8"/>
        <text fill="#000" font-family="Montserrat-Medium, Montserrat" font-size="18" font-weight="400" mask="url(#prefix__b)">
            <tspan x="94.439" y="201">A viajar</tspan>
        </text>
        <g fill-rule="nonzero">
            <path fill="#00B0ED" d="M62.208 124.416c34.263 0 62.208-27.946 62.208-62.208C124.416 27.945 96.471 0 62.208 0S0 27.946 0 62.208s27.946 62.208 62.208 62.208z" transform="translate(65 37)"/>
            <path fill="#0E7886" d="M61.408 31.017c30.408 0 55.056 24.65 55.056 55.057 0 1.909-.097 3.794-.286 5.653-10.513 19.464-31.096 32.689-54.77 32.689-23.674 0-44.256-13.224-54.769-32.688-.19-1.858-.287-3.745-.287-5.654 0-30.408 24.65-55.057 55.056-55.057z" transform="translate(65 37)"/>
            <path fill="#15BDB1" d="M95.806 43.088c10.238 8.203 17.483 19.984 19.834 33.451-.166-.254-.335-.589-.506-1.085-1.075.353-1.11.382-2.38.593l-.055.077c-.505.72.025.416-.862 1.165-1.056.89-1.744 2.103-2.925 2.822-.143 1.257.104 1.54-.212 3.035-.124.551-.741 2.033-1.464 1.92-.229-.042-1.199-2.442-1.428-3.105-.388-1.13-.828-1.962-1.11-3.26-.158-.693-.264-2.02-.423-2.486-.757.113-.724.594-1.446.086-.511-.369-.281-.593-.565-1.144-.598-.565-1.215-1.13-1.832-1.694-.477-.155-2.31.112-3.086.028-1.392-.128-1.514-.043-2.343-1.157-1.464.072-1.34.62-2.769-.607-.933-.79-.757-2.061-2.114-1.342-.052 1.158.512 1.413 1.022 1.949.37.41.829.691 1.022 1.241.018.016.106.537.124.607 1.323.086 1.639-.549 2.362-1.085.706.662.018.777 1.04 1.297.81.411.653.171 1.18.833.265.89-1.814 3.303-2.503 3.741-.528.339-.81.141-1.286.534-.705.595.089.51-1.145.961-1.322.48-2.627 1.496-4.02 1.582-.299-.82-.598-1.651-.898-2.484-.882-2.837-.847-1.736-1.747-3.205-.423-.636-.247-1.044-.528-1.609-.196-.423-.493-.607-.759-1.128-.405-.805-.88-2.06-1.815-1.934-.194.634.863 2.78 1.127 3.302.265.523.688.749.811 1.497.177 1.03-.034.902.529 1.593 1.182 1.424-.053 1.172 1.781 2.568 1.374 1.046 1.023 1.356 1.604 2.754.899.253 3.578-.945 4.035-.593.546.973-.633 2.526-.933 3.373-.988 2.837-2.715 2.796-4.037 4.969-.722 1.173-1.057 1.327-1.727 2.74-.76 1.594 1.533 6.012.159 7.862-.3.423-1.27.677-2.485 1.962-1.287 1.397.035 1.158-.459 3.485-.387.537-.863.565-1.339.947-.176.55-.035.986-.335 1.665-.318.818-.37.38-.83 1.045-.334.52-.298.733-.687 1.213-.334.44-.512.564-.827.848-1.534 1.411-4.83 1.453-5.112 1.255-.777-.662-.247-.831-.44-1.763-.189-.82-.623-1.505-.986-2.137l-.037-.065c-.175-.31-.334-.607-.423-.89-.635-2.004-.405-3.526-1.515-5.56-1.393-2.626.775-3.995.686-5.477-.035-.395-.175-.635-.212-.947-.264-1.637-.421-3.104-1.514-4.39-1.2-1.395-1.04-.903-.653-3.202.492-2.64-.635-1.963-2.222-2.033-.776-2.398-2.293-1.23-3.808-.522-.953.437-1.304-.127-2.38.028-2.398.324-.511 1.356-3.72-1.185-1.34-1.06-.44-.523-1.233-1.85-.264-.48-1.076-1.114-1.447-1.596-1.216-1.524.23-3.063.018-4.812-.37-3.247-.9-.425.917-4.348.953-2.09 2.397-2.103 2.769-3.035.318-.832.105-1.426.705-2.188.528-.62 1.287-.494 1.587-1.468.423-1.2-.388-1.353-1.27-1.384-.369-1.255-.369-.946-.088-2.103.16-.65.018-.96.16-1.61.352-1.622 3.12-.013 3.913-.677.37-.692.423-1.369 0-2.033-.442-.664-1.023-.58-1.322-1.213.67-.452.176-.057.757-.184.687-.155.599-.354 1.41-.508.724-.142 1.183-.805 1.887-1.256 1.004-.65.528-1.23 1.745-1.425 1.956-.34.687-.283.9-2.104.299-.113.58-.242.862-.367.617.804-.158.48.581 1.015.195-.112.424-.224.636-.336-.107-.877-.511-.708-.776-1.793-.97.155-1.322.973-2.098.677-.757-.282-.793-1.37-.757-2.273.281-.677 1.691-1.043 2.237-1.214.883-.296.758-.889 1.569-1.695 1.058-1.058.281.015.793-1.353 1.164-.044.617-.086 1.304-.438l.035-.013.07-.03c.407-.183.936-.225 1.464-.408 1.939-.649 2.732-.324 4.142.253 1.093.452 4.39.465 4.636 1.85-.792.83-1.55.225-2.697.296.211 1.072.299 1.072 1.27 1.369.159-.509-.071-.31.194-.636.317.071.635.127.952.186.318-1.088.687-.932 1.764-1.06-.177-.749-.372-.536.034-1.129 1.112.115.212.016.758.905.776-.1 1.535-.961 2.609-1.073.67-.071.635.184 1.586.084.775-.084.74-.367 1.517-.042.28-.523 0-.51.687-.635 1.056-.184 1.974.465 2.996.607-.757-.93-1.48-.748-.546-2.3 1.181-.24 1.286-.071 1.798.819.29-.163.413-.327.557-.41l.001-.001zm-59.29 76.143c-1.835-.802-3.622-1.69-5.358-2.657-.021-.072-.04-.15-.057-.241-.264-1.568.406-1.738-.336-4.35-.486-1.727-.29-5.819-.805-7.917-.081-.334-.183-.618-.305-.835-.476-.789-1.64-1.156-2.572-1.792-.054-.013-.089-.028-.106-.056-1.287-.904-2.504-4.447-3.526-5.772-.475-.637-.775-.355-.987-1.356-.229-.917.124-.761.425-1.525-1.57-2.88 2.026-2.838 1.287-6.296-.16-.635-.616-1.524-1.005-1.805-.74.325-.39.507-.776 1.128-.598-.339-1.198-.679-1.78-1.015-1.815-1.751-.847-.482-1.356-1.624-1.093-2.4-2.135-1.058-3.439-2.244-.582-.495-.688-1.272-1.657-1.129-1.463.198-.653.423-2.168-.284-1.287-.607-2.626-1.312-3.526-2.131-.035-1.27.424-1.328-.37-2.512-.14-.22-.298-.425-.459-.62 2.48-11.285 8.42-21.272 16.654-28.792.64.224 1.486.077 2.121.05.228-.422.37-.79.776-.945.158-.057.352-.07.616-.057.035.21.089.423.141.635 0 .015.036.156.018.128.018-.03.035.084.052.125 1.112-.648.177-.663.776-1.835-.934-.184-.81-.072-1.393-.664.565-.62 1.656-.833 2.468-.776-.054.566-.318.551-.105 1.03.635-.395 1.076-1.452 2.097-1.255.194.14.424.268.635.395-.53.494-1.322.523-2.009.805-.3 3.064.97.495.546 2.598.757-.056 1.498-.607 1.78-1.172-.282-.367-.688-.367-.916-.805.177-.564.556-.992 1.093-1.247.362-.171.796-.263 1.287-.263 5.605.042 2.943.296 4.671 1.087.388.169 1.075.255 1.305.593.352.537.018 1.044.581 1.468.494.367.565-.015 1.217.806-.14.464-.476.945-1.163.96-.952.013-.388-.637-1.41-.537.018.958.97 1.326.087 1.848-.776.467-.283-.168-.863.156-.018.015-.071.043-.088.058-.035.028-.07.07-.089.098-.104.114-.194.213-.28.312-1.41-.382-1.145-.212-1.992-1.143-.317-.353-.37-.438-.934-.396-.353.014-.81.169-1.146-.14.688-.862 1.023-.029 2.028-.538.176-.086 1.286-.945 1.463-1.144-.3-.678-.035-.115-.474-.551-.988-1.002-1.272-.75-2.609-.75-.627.723-1.096 1.615-1.78 2.007-.413.237-.903.29-1.552.013.3 1.215 1.075.283 1.145 1.75-.511-.099-.776-.354-1.304-.17-1.13.424-.124.381-.036.608 0 .014.528.07 0 .268-.583.211-.089-.113-1.216-.777.158-.281.318-.578.476-.874-.916.283-2.063.734-3.137 1.256-1.218.607-2.363 1.3-3.05 1.934-.019 1.06.176.352.282 1.61 1.639.098 1.11.59 2.75 1.058.316.086.723.17 1.217.254 0 .791-.706 1.384-.214 2.204 1.146.802 1.181-.764 1.464-1.765 3.88-.81 2.01-1.95 3.013-4.085.15-.319.363-.659.67-1.026.3.014 1.516.143 1.78.197.883.155.407.367 1.359.79-.018.764-.405 1.751.722 1.568.865-.153.672-.832 1.728-1.002.475 1.116.352 1.596.563 2.936 2.54.99 1.41 1.793.916 3.644.319.154.652.296.988.436l-.053 1.583c-.053 0-2.716-.58-2.891-.636.405-1.158 1.146-1.171 1.622-2.356-.952.168-.882.464-1.57.676-.616.184-1.091.056-1.744.142-.228.76-.018-.665.054.308.035.369.212.016-.036.41-.882-.41-.581-1.37-2.22-.48.37.17.739.324 1.127.48-.051 1.085-.14.267-.37.988-.564 1.848 1.534.705 2.08.607-.14.974-.74.974-1.586 1.241-.933.283-1.216.665-1.957.834 0-1.158-.175-.184.335-.987-.741.07-1.288.408-1.993.705l-.07.027c-.905.37-1.042.425-1.146 1.582-.776.239-1.675.51-2.221 1.074-.546.522-1.094 1.043-1.623 1.551-.052.043-.089.085-.122.114.195 1.453 0 1.481-.883 2.048-.74.478-.986.464-1.673 1.072-2.204 1.976-1.145 1.057-1.024 4.46-.458-.14-.898-.296-1.32-.451-.336-2.26.121-1.51-1.693-2.033-1.958-.565-1.694.395-2.504.564-.9.197-1.34-.819-2.645.028-.721.493-1.41.819-1.585 1.693-.211 1.06-.687 1.834-.618 3.007.125 3.177 3.015 3.359 3.756 1.877.493-.987.37-1.524 1.974-1.27.158.847-.089 1.468-.301 2.118-.14.38-.528 1.072-.334 1.596 1.146.466 1.18-.41 2.697.493.106 1.51-.687 3.203.476 4.079.897.663.951.07 1.744-.07.882-.155.724.395 1.535.523.458-.566.264-.21.565-.905.528-1.197.669-.634 1.92-1.367.123-.07.229-.142.353-.226.14.296.3.579.44.86.916-1.086 1.022-.027 2.08.269.456.124.779.17 1.03.173.768.01.846-.363 1.896.008.125.059.283.1.424.143.017 0 .07.028.07.057l.088.072c.177.197.196.396.336.606.723.692 1.446 1.384 2.15 2.061 1.392.551 1.392-.48 2.98 1.057.67.636.369.623.739 1.44.054.128.16.254.229.41.141.382.3.748.459 1.115.722.946 1.71.353 2.714 1.327.581.565.141.395 1.427.62 1.992.325 1.218.142 2.733 1.286.582.423.722.183 1.269.55.758 1.058.564 2.202-.07 3.133-1.957 2.851-1.287 2.386-1.376 4.645-.07 1.297-.441 3.98-1.658 4.304-4.423 1.244-1.85 2.104-3.013 4.292-.335.622-.583.776-.794 1.271-.88 2.06-.263 2.752-2.873 2.287.248.436.089.14.336.535.775 1.2.899 2.104-.688 2.398-1.322.255-.758 0-.881 1.468-.512.212-.741 0-1.076.34l.125.232-.002-.001zM24.896 44.866c.342-.045.34-.193 1.234-.41-.07-.296-.125-.296-.194-.408l-.028-.056c-.34.287-.678.58-1.012.876v-.002zm47.118 16.369l-.034-.025c-.124-.084-.246-.168-.352-.267-.775-.692-.936-1.312-1.798-1.157-.019.65.071.677.387 1.101 1.2 1.496.829.989 1.762 1.539l.035.02c.221.127.477.304.829.559-1.2 1.056-.088 1.17-.829 1.523l-.035.017c-.071.027-.14.056-.192.084-.249-.622.298-.325-.336-1.228-.352-.466-.687-.607-1.234-.863-1.376-.65-1.198-1.156-2.044-2.004-.953.03-.74.326-1.41.665-.81.393-.687-.07-1.64.013-.775 1.37.335.227-1.075 1.356-1.693 1.312-.3 2.68-3.014 3.092-.194.028-.264 0-.457.07-.513.182-.214.027-.513.324.23.537-.088.451.83.579 1.674.224 1.886-.805 3.102-1.06.599-.127 4.354-.283 4.618-.212.81.905.141 1.54.141 2.301.884.466 2.134.58 2.646 1.06.581.55.3.464.581.563l.035.011c.107.03.26.086.53.188.705.239.669.38 1.426.436.688-2.3-.018-2.06 3.296-1.003 3.455 1.131 1.904.1 3.367.255.724.072.53.296 1.535.169.193-.395 1.62-3.981-.23-3.529-.547.14-.176.338-.952.14-.81-.21-.035-.365-.933-.24-.883.129-1.94.905-2.628-1.763-.263-.96-.74-1.792-1.832-.34.281.494.476.537.792 1.017-.087.14-.387.494-.493.607-.598.593.248.311-.722.437-.529-.395-.422-.903-.934-1.608-.9-1.315-.318-.706-.776-1.963-.36-.317-.958-.554-1.447-.864h-.002zm18.827 38.002c-.775.395-.881 1.3-1.463 1.807-.634.579-1.481.312-1.727 1.384-.317 1.34.529.931-.405 2.68-.334.65-.352 2.272.16 2.754 1.532 1.48 2.361-2.258 2.713-3.43.265-.833.512-1.778.794-2.555.281-.833.687-1.566-.072-2.64zm-2.538-39.383c.124 1.724 1.145 2.387 1.869 3.177-.088.819-.283.607-.265 1.75.864.622 1.497 1.002 2.628.693.158-1.384-.283-1.314-.705-2.26.07-.113.263-.253.298-.281.32-.423.16.168.32-.551-.83-.267-2.17-1.116-2.274-2.23.405-.324.282-.127.58-.324.653-.424.16.225.547-.495-.334-.648-.705-.762-1.515-.437-.352.141-1.287.804-1.482.96v-.002zm-7.21.453c-.545-.761-.512-1.144-1.569-1.172-.422.452-.916 1.129-1.145 1.82-.352 1.045-.105.325-.07 1.455-.018.042 0 .1 0 .142-.018.676-.178-.128-.071.493.83-.17.195-.156.813-.353.581-.198 2.361-.734 2.873-.606 1.215.281 2.238 1.242 3.614.281-.072-1.227-1.553-1.693-2.575-2.23.054-1.129.352-.24.282-1.327-.353-.015-.565-.071-.9.07-.793.353-.352.453-.352.58.035.605.794-.127-.017.621-.228.197-.6.197-.882.226zm-20.59-8.554c-.033 1.977.654 1.312 1.305 2.288-.299.832-.353.183-.686 1.043-.3.72.07.072-.125 1.327.512.029 1.27-.154 1.94-.211.952-.085.934-.17 1.27-1.144-.53-.649-1.058-1.299-1.605-1.947-.689-1.046 0-.326-.21-1.201-.159-.311-.301-.62-.442-.932-.917.313-.828.227-1.446.777z" transform="translate(65 37)"/>
            <path fill="#FBB429" d="M95.345 48.256l-.533-.533-2.198-2.198-.533-.533c-1.734.658-3.905 3.5-4.761 5.294l.266.267 2.198 2.198.267.267c1.793-.858 4.636-3.027 5.294-4.761v-.001z" transform="translate(65 37)"/>
            <path fill="#FFF" d="M95.345 48.256l-.533-.533-2.198-2.198-.533-.533c-.4.153-.823.42-1.25.765l3.748 3.748c.345-.426.613-.849.766-1.248v-.001z" transform="translate(65 37)"/>
            <path fill="#FBB429" d="M99.025 58.706l-.533-.533-2.198-2.198-.533-.533c-1.734.658-3.905 3.5-4.76 5.294l.266.267 2.198 2.198.267.267c1.793-.857 4.636-3.027 5.294-4.762z" transform="translate(65 37)"/>
            <path fill="#FFF" d="M99.025 58.706l-.533-.532-2.198-2.198-.533-.532c-.4.151-.823.42-1.25.765l3.748 3.748c.345-.426.614-.849.766-1.25z" transform="translate(65 37)"/>
            <path fill="#FBB429" d="M69.022 21.933l.533.533 2.198 2.198.533.533c-.658 1.734-3.5 3.905-5.294 4.762l-.267-.267-2.198-2.198-.267-.267c.858-1.792 3.027-4.636 4.761-5.294h.001z" transform="translate(65 37)"/>
            <path fill="#FFF" d="M69.022 21.933l.533.533 2.198 2.198.533.533c-.151.4-.42.824-.765 1.25l-3.748-3.748c.425-.346.848-.614 1.25-.766z" transform="translate(65 37)"/>
            <path fill="#FBB429" d="M58.572 18.254l.533.533 2.198 2.198.533.533c-.658 1.734-3.501 3.905-5.295 4.761l-.267-.267-2.197-2.198-.267-.267c.857-1.792 3.027-4.636 4.76-5.294l.002.001z" transform="translate(65 37)"/>
            <g fill="#FFF">
                <path d="M20.006 1.73l.533.533 2.199 2.198.531.533c-.151.4-.42.824-.764 1.25l-3.748-3.748c.425-.346.848-.614 1.249-.766z" transform="translate(65 37) translate(38.566 16.524)"/>
                <path d="M12.2 51.273l6.448 9.168 2.056-2.486-3.649-9.64c.458-.396-.403.388 1.48-1.307 1.884-1.695 10.16-9.302 17.654-15.395l21.587 30.514 1.968-1.968-11.932-38.034c4.877-4.02 8.65-7.226 9.667-8.388 3.108-3.551 5.92-8.288 3.7-12.727-4.44-2.22-9.175.593-12.726 3.7-1.163 1.017-4.368 4.79-8.388 9.666L2.03 2.446.063 4.413 30.576 26c-6.092 7.496-13.7 15.77-15.394 17.654-1.696 1.883-.911 1.022-1.306 1.48l-9.64-3.649-2.486 2.056 9.167 6.448c-.996 1.713-.429 2.28 1.284 1.284H12.2z" transform="translate(65 37) translate(38.566 16.524)"/>
            </g>
            <g fill="#C8CACC">
                <path d="M12.2 47.628L18.648 56.796 19.144 56.196 12.893 47.15 12.201 47.628 12.2 47.628zM2.348 39.4L1.748 39.896 10.916 46.344 11.394 45.652 2.347 39.4zM36.19 27.967L57.777 58.482 58.535 57.722 37.465 26.926zM.82.009L.061.769 30.575 22.355 31.616 21.08.819.01z" transform="translate(65 37) translate(38.566 20.169)"/>
            </g>
            <path fill="#15BDB1" d="M97.89 19.388c-.436-.437-.965-.744-1.552-.927l-.356.993c.37.221.719.49 1.036.807.317.318.586.666.807 1.035l.994-.356c-.183-.586-.49-1.114-.927-1.552h-.002zm-2.345-1.096c-.906-.109-1.9.034-2.884.412.887-.074 1.778.055 2.596.389l.288-.8zm2.642 3.73c.334.818.462 1.708.388 2.596.38-.985.52-1.978.412-2.884l-.8.288z" transform="translate(65 37)"/>
            <path fill="#FFF" d="M44.118 73.773l.008-.008.13-.126.13-.124.13-.127.132-.127.13-.127.133-.128.133-.128.133-.128.135-.129.134-.129.134-.13.135-.131.136-.132.135-.132.137-.133.138-.132.138-.134.138-.133.14-.135.139-.136.14-.136.14-.135.14-.137.142-.138.141-.139.143-.139.143-.139.143-.14.144-.142.143-.141-.802-.817-.144.14-.142.14-.143.14-.142.14-.142.138-.14.138-.14.137-.14.137-.14.136-.139.134-.14.135-.137.134-.138.134-.138.134-.137.132-.137.133-.136.13-.136.131-.134.131-.135.13-.134.13-.134.129-.134.128-.132.128-.133.127-.132.126-.131.127-.13.126-.13.127-.131.124-.008.008.795.825v.003zm64.17-.473l-.136.355-.136.35-.136.345-.136.339-.136.334-.137.329-.137.324-.137.32-.137.313-.138.309-.137.305-.138.3-.138.294-.138.29-.007.013 1.03.504.01-.02.141-.298.141-.302.14-.306.142-.31.14-.316.14-.321.14-.326.14-.33.14-.335.14-.341.137-.346.14-.35.138-.356.138-.361-1.071-.407-.002.001zm-3.521 7.509l-.07.117-.14.23-.141.227-.14.224-.142.217-.141.214-.142.21-.141.205-.141.202-.142.198-.141.194-.143.19-.141.186-.143.182-.143.178-.143.175-.143.17-.143.168-.142.163-.144.16-.142.156-.144.153-.144.149-.143.146-.025.025.802.818.035-.035.154-.156.152-.16.153-.162.153-.166.151-.17.152-.173.15-.177.15-.18.151-.186.15-.187.15-.192.149-.196.15-.198.147-.204.149-.207.148-.211.147-.216.148-.218.146-.224.147-.227.146-.23.147-.236.146-.24.07-.118-.983-.59.004.002zm-5.942 6.498l-.003.003-.147.088-.147.087-.147.083-.147.08-.148.08-.147.074-.149.075-.148.07-.148.069-.148.066-.15.064-.149.062-.149.06-.15.058-.15.055-.15.054-.15.051-.15.05-.152.048-.152.045-.153.043-.151.043-.153.04-.152.038-.154.036-.154.034-.154.033-.155.031-.154.03-.155.027-.156.027-.156.025-.156.024-.157.022-.01.001.146 1.137.02-.003.168-.024.167-.024.166-.027.167-.028.168-.03.167-.032.166-.034.166-.036.165-.037.166-.04.167-.04.166-.044.166-.045.164-.048.165-.049.164-.051.163-.054.165-.056.164-.059.163-.06.164-.063.163-.065.162-.068.163-.07.163-.073.162-.075.161-.078.162-.08.161-.083.162-.085.16-.089.16-.09.161-.094.16-.096.003-.002-.598-.977.003-.004zm-8.503 1.968h-.019l-.165-.001-.166-.003-.166-.002-.167-.003-.168-.004-.167-.004-.168-.004-.169-.006-.169-.006-.17-.005-.169-.006-.17-.007-.17-.006-.172-.006-.171-.007-.172-.007-.172-.007-.172-.007-.172-.007-.173-.007-.174-.006-.174-.007-.174-.007-.175-.007-.176-.007-.176-.007-.176-.005-.176-.006-.178-.005-.177-.006-.177-.004-.179-.005-.178-.003-.018-.001-.02 1.146h.016l.175.003.175.005.175.004.174.005.175.006.176.006.174.005.174.007.174.007.174.007.172.006.173.007.173.007.173.007.172.007.173.006.173.007.173.007.173.007.171.007.172.007.173.006.17.006.172.005.172.006.172.004.172.005.171.004.171.004.17.003.171.002.17.002.171.002h.02l.004-1.146-.004.002zm-9.208-.102l-.148.01-.186.017-.189.016-.186.018-.189.02-.188.021-.189.022-.189.024-.19.025-.19.028-.19.029-.19.031-.191.032-.191.034-.192.036-.192.037-.193.04-.193.041-.193.044-.194.046-.194.048-.196.05-.194.05-.195.054-.195.056-.196.058-.196.06-.197.064-.197.065-.198.069-.025.009.388 1.078.016-.005.186-.064.185-.06.185-.06.186-.058.185-.054.185-.054.184-.05.184-.05.184-.047.184-.045.183-.043.183-.04.183-.04.181-.037.182-.036.183-.034.182-.031.182-.031.181-.03.181-.027.182-.025.18-.025.182-.022.18-.022.18-.02.18-.02.18-.017.179-.016.18-.015.148-.01-.09-1.143-.008-.001zm-8.967 2.607l-.153.085-.203.117-.203.12-.203.122-.205.127-.203.129-.204.132-.203.135-.205.14-.204.14-.205.146-.206.15-.204.152-.206.155-.205.16-.205.162-.207.167-.206.169-.207.173-.207.176-.208.182-.206.184-.208.187-.051.048.78.839.045-.04.2-.182.199-.177.199-.173.199-.17.197-.165.199-.163.196-.16.198-.154.196-.152.196-.15.197-.145.195-.141.196-.138.195-.136.194-.131.194-.13.194-.125.195-.122.193-.12.192-.116.192-.113.192-.111.153-.086-.567-.996-.002-.001zm-7.159 5.953l-.02.021-.21.24-.206.236-.205.232-.206.23-.204.227-.204.225-.205.22-.203.219-.203.215-.202.214-.202.21-.202.207-.2.204-.202.202-.2.2-.2.195-.2.195-.2.19-.198.189-.038.035.78.838.043-.04.204-.192.205-.196.204-.197.204-.201.206-.205.205-.206.205-.21.207-.211.206-.214.208-.217.206-.22.208-.223.207-.226.21-.228.208-.23.209-.235.21-.237.21-.24.204-.233.02-.021-.857-.76-.002-.002zm-6.475 6.322l-.138.11-.19.148-.192.147-.191.145-.19.143-.19.14-.19.137-.188.134-.188.133-.188.13-.187.128-.187.126-.187.123-.185.122-.185.117-.185.116-.184.115-.184.11-.184.11-.182.106-.182.105-.181.102-.181.1-.181.098-.18.096-.086.045.525 1.019.096-.05.188-.1.189-.102.188-.105.19-.108.19-.108.19-.112.19-.114.191-.116.192-.117.192-.122.193-.122.193-.126.193-.128.194-.13.194-.132.196-.135.195-.137.196-.14.196-.143.196-.145.197-.147.197-.149.199-.153.197-.154.137-.11-.708-.9zm-7.757 4.401l-.15.05-.17.053-.168.052-.167.05-.166.049-.166.046-.165.043-.165.043-.164.04-.163.039-.163.036-.162.034-.162.033-.16.031-.16.03-.161.027-.158.026-.159.024-.158.022-.157.02-.156.02-.156.016-.155.016-.155.013-.154.012-.153.01-.153.007-.152.007-.152.006-.15.003-.15.002h-.298l-.147-.003-.057-.002-.042 1.145.071.002.16.003.16.001h.162l.163-.002.163-.004.163-.006.164-.007.166-.01.165-.01.166-.013.166-.015.167-.016.169-.019.168-.02.17-.022.168-.024.17-.025.171-.028.172-.03.172-.03.172-.034.173-.035.173-.037.174-.04.175-.04.175-.044.176-.045.176-.047.177-.049.178-.052.177-.052.178-.055.179-.058.15-.049-.353-1.09-.002.002zm-8.683.356l-.056-.016-.131-.038-.13-.04-.132-.042-.13-.043-.13-.045-.13-.045-.126-.046-.128-.048-.127-.05-.126-.05-.125-.051-.125-.053-.123-.054-.124-.055-.122-.057-.121-.058-.122-.058-.12-.06-.12-.06-.118-.062-.119-.064-.118-.064-.116-.066-.116-.066-.116-.067-.115-.07-.114-.07-.113-.07-.112-.072-.113-.073-.11-.074-.112-.074-.109-.076-.109-.077-.108-.078-.108-.079-.107-.08-.105-.08-.106-.081-.104-.082-.047-.038-.722.89.054.044.112.088.113.088.114.086.116.087.115.085.117.083.118.083.119.082.119.08.12.08.121.078.121.078.123.077.123.075.124.074.125.073.126.072.127.07.128.07.128.069.129.067.13.066.13.064.132.064.132.063.132.06.134.06.135.058.136.058.134.056.137.055.138.054.138.051.14.052.14.05.14.047.141.046.143.045.142.044.144.043.056.016.319-1.101v.002zm-7.192-4.867l-.047-.058-.083-.103-.083-.104-.081-.104-.081-.106-.08-.105-.078-.106-.079-.106-.077-.108-.077-.108-.076-.107-.074-.109-.074-.109-.073-.11-.072-.11-.072-.111-.07-.111-.07-.112-.068-.113-.067-.112-.067-.113-.067-.113-.065-.115-.064-.113-.063-.115-.062-.115-.062-.115-.06-.115-.061-.116-.059-.117-.058-.115-.057-.117-.056-.118-.055-.118-.054-.118-.053-.117-.053-.118-.051-.118-.05-.12-.05-.117-.048-.12-.049-.118-.04-.1-1.066.414.042.109.05.127.052.127.053.126.054.126.054.126.056.127.058.125.058.126.058.124.06.125.06.125.062.124.063.124.063.123.064.123.066.122.066.121.068.122.068.122.07.12.07.12.071.12.073.12.073.12.073.118.075.119.075.118.076.118.078.116.078.116.08.116.081.115.08.115.084.114.083.114.084.113.085.112.086.112.086.111.088.112.088.11.049.059.889-.723h.002zm-3.692-7.97c-.332-1.819-.385-3.652.014-5.464l-1.119-.247c-.438 1.934-.377 3.976-.022 5.917l1.127-.208v.001zm1.1-8.574c.778-1.651 1.936-3.24 3.087-4.648l-.883-.73c-1.203 1.454-2.428 3.168-3.234 4.877l1.03.5zm5.34-7.194l.008-.008.098-.103.098-.103.099-.103.1-.105.1-.104.1-.105.1-.104.102-.106.102-.105.102-.106.104-.105.104-.107.105-.107.105-.106.106-.107.106-.108.108-.108.108-.11.107-.107.11-.109.108-.109.111-.11.111-.11.111-.11.112-.11.113-.112.113-.111.113-.112.115-.113.114-.112.116-.113.116-.113.116-.114.117-.114.118-.114.118-.115.119-.116.007-.006-.799-.822-.008.008-.119.116-.119.115-.118.115-.117.115-.117.114-.117.114-.115.113-.116.113-.114.114-.115.112-.114.112-.114.113-.112.11-.112.113-.111.11-.112.11-.11.112-.11.11-.108.109-.11.11-.107.109-.107.109-.107.109-.107.107-.105.108-.106.108-.105.107-.105.107-.103.107-.103.106-.102.107-.102.107-.101.105-.1.105-.101.105-.1.105-.099.105-.008.009.835.785v-.006z" transform="translate(65 37)"/>
        </g>
    </g>
</svg>
