<svg xmlns="http://www.w3.org/2000/svg" width="350" height="84" fill="none" viewBox="0 0 350 84">
    <path fill="#A546A0" d="M0 8c0-4.418 3.582-8 8-8h334c4.418 0 8 3.582 8 8v68c0 4.418-3.582 8-8 8H8c-4.418 0-8-3.582-8-8V8z"/>
    <path fill="#fff" d="M148.536 51.192c-.88 0-1.704-.072-2.472-.216-.768-.16-1.48-.4-2.136-.72-.656-.336-1.248-.744-1.776-1.224l.744-1.512c.864.72 1.728 1.232 2.592 1.536.88.304 1.904.456 3.072.456 1.36 0 2.416-.264 3.168-.792.752-.544 1.128-1.304 1.128-2.28 0-.592-.192-1.064-.576-1.416-.368-.368-.88-.656-1.536-.864-.64-.224-1.368-.432-2.184-.624-.816-.176-1.592-.376-2.328-.6-.736-.24-1.392-.536-1.968-.888-.56-.352-1-.8-1.32-1.344-.32-.544-.48-1.224-.48-2.04 0-.976.256-1.832.768-2.568.512-.752 1.232-1.336 2.16-1.752.928-.416 2.024-.624 3.288-.624.784 0 1.536.088 2.256.264.72.16 1.384.4 1.992.72.624.32 1.176.712 1.656 1.176l-.768 1.512c-.784-.688-1.592-1.192-2.424-1.512-.832-.32-1.736-.48-2.712-.48-1.328 0-2.368.28-3.12.84-.752.56-1.128 1.344-1.128 2.352 0 .624.168 1.128.504 1.512.336.384.808.696 1.416.936.608.224 1.304.432 2.088.624.832.192 1.632.4 2.4.624.768.224 1.448.504 2.04.84.608.32 1.088.744 1.44 1.272.352.512.528 1.168.528 1.968 0 .976-.256 1.824-.768 2.544s-1.24 1.28-2.184 1.68c-.944.4-2.064.6-3.36.6zm19.177-1.632c-.528.496-1.208.888-2.04 1.176-.816.288-1.656.432-2.52.432-1.248 0-2.328-.248-3.24-.744-.896-.496-1.592-1.208-2.088-2.136-.48-.944-.72-2.064-.72-3.36 0-1.248.24-2.344.72-3.288s1.144-1.68 1.992-2.208c.864-.528 1.856-.792 2.976-.792 1.072 0 1.992.24 2.76.72.768.464 1.352 1.136 1.752 2.016.416.88.624 1.936.624 3.168v.36h-9.12v-1.272h8.016l-.624.888c.032-1.408-.248-2.488-.84-3.24-.576-.752-1.424-1.128-2.544-1.128-1.168 0-2.088.416-2.76 1.248-.656.816-.984 1.952-.984 3.408 0 1.568.344 2.752 1.032 3.552.704.8 1.728 1.2 3.072 1.2.704 0 1.376-.112 2.016-.336.656-.24 1.28-.6 1.872-1.08l.648 1.416zm8.231 1.608c-1.184 0-2.208-.256-3.072-.768-.864-.512-1.536-1.232-2.016-2.16-.464-.928-.696-2.024-.696-3.288 0-1.248.24-2.344.72-3.288.48-.96 1.16-1.704 2.04-2.232.88-.528 1.92-.792 3.12-.792.816 0 1.6.144 2.352.432.768.272 1.4.656 1.896 1.152l-.648 1.44c-.592-.464-1.176-.808-1.752-1.032-.56-.24-1.144-.36-1.752-.36-1.216 0-2.184.408-2.904 1.224-.704.816-1.056 1.968-1.056 3.456 0 1.472.352 2.608 1.056 3.408.704.8 1.672 1.2 2.904 1.2.592 0 1.176-.112 1.752-.336.576-.24 1.16-.592 1.752-1.056l.648 1.44c-.512.48-1.16.864-1.944 1.152-.768.272-1.568.408-2.4.408zm11.091 0c-1.44 0-2.528-.4-3.264-1.2-.72-.8-1.08-1.984-1.08-3.552v-7.488h1.944v7.44c0 1.088.224 1.888.672 2.4.448.512 1.128.768 2.04.768 1.072 0 1.936-.344 2.592-1.032.656-.688.984-1.608.984-2.76v-6.816h1.944V51h-1.896v-2.616l.288-.144c-.32.96-.864 1.688-1.632 2.184-.752.496-1.616.744-2.592.744zm9.579-.168v-8.688c0-.56-.016-1.12-.048-1.68-.016-.576-.064-1.144-.144-1.704h1.848l.216 2.496-.24.192c.336-.976.896-1.712 1.68-2.208.784-.512 1.688-.768 2.712-.768 2.896 0 4.344 1.592 4.344 4.776V51h-1.944v-7.488c0-1.12-.224-1.936-.672-2.448-.448-.528-1.152-.792-2.112-.792-1.12 0-2.016.344-2.688 1.032-.672.688-1.008 1.616-1.008 2.784V51h-1.944zm24.671 0h-1.92v-3.24l.288.264c-.272 1.008-.792 1.784-1.56 2.328-.768.544-1.704.816-2.808.816-1.056 0-1.992-.256-2.808-.768-.8-.528-1.424-1.264-1.872-2.208-.448-.96-.672-2.072-.672-3.336 0-1.264.216-2.36.648-3.288.448-.928 1.072-1.648 1.872-2.16.816-.512 1.76-.768 2.832-.768 1.104 0 2.04.28 2.808.84.768.544 1.288 1.312 1.56 2.304l-.312.24v-8.688h1.944V51zm-5.616-1.44c1.168 0 2.072-.4 2.712-1.2.656-.816.984-1.968.984-3.456 0-1.472-.32-2.608-.96-3.408-.64-.816-1.552-1.224-2.736-1.224-1.184 0-2.112.4-2.784 1.2-.656.8-.984 1.928-.984 3.384 0 1.488.328 2.648.984 3.48.672.816 1.6 1.224 2.784 1.224zm14.007 1.608c-1.072 0-2.016-.248-2.832-.744-.8-.512-1.424-1.232-1.872-2.16-.432-.944-.648-2.048-.648-3.312 0-1.264.224-2.368.672-3.312.448-.944 1.072-1.68 1.872-2.208.816-.528 1.752-.792 2.808-.792 1.104 0 2.04.272 2.808.816.768.544 1.288 1.32 1.56 2.328l-.288.192v-3.048h1.92V51h-1.92v-3.12l.288.144c-.272 1.008-.792 1.784-1.56 2.328-.768.544-1.704.816-2.808.816zm.384-1.608c1.184 0 2.096-.4 2.736-1.2.64-.816.96-1.968.96-3.456s-.328-2.632-.984-3.432c-.64-.8-1.544-1.2-2.712-1.2-1.184 0-2.112.416-2.784 1.248-.656.816-.984 1.96-.984 3.432s.328 2.608.984 3.408c.672.8 1.6 1.2 2.784 1.2zm9.375 1.44v-8.688c0-.56-.016-1.12-.048-1.68-.016-.576-.064-1.144-.144-1.704h1.847l.265 2.976-.265-.072c.225-1.056.705-1.848 1.441-2.376.752-.544 1.592-.816 2.52-.816.208 0 .4.016.576.048.192.016.368.048.528.096l-.048 1.776c-.368-.128-.792-.192-1.272-.192-.832 0-1.504.184-2.016.552-.496.368-.864.84-1.104 1.416-.224.56-.336 1.152-.336 1.776V51h-1.944zm8.695 0V38.928h1.944V51h-1.944zm-.192-17.184h2.376v2.208h-2.376v-2.208zm10.543 17.352c-1.072 0-2.016-.248-2.832-.744-.8-.512-1.424-1.232-1.872-2.16-.432-.944-.648-2.048-.648-3.312 0-1.264.224-2.368.672-3.312.448-.944 1.072-1.68 1.872-2.208.816-.528 1.752-.792 2.808-.792 1.104 0 2.04.272 2.808.816.768.544 1.288 1.32 1.56 2.328l-.288.192v-3.048h1.92V51h-1.92v-3.12l.288.144c-.272 1.008-.792 1.784-1.56 2.328-.768.544-1.704.816-2.808.816zm.384-1.608c1.184 0 2.096-.4 2.736-1.2.64-.816.96-1.968.96-3.456s-.328-2.632-.984-3.432c-.64-.8-1.544-1.2-2.712-1.2-1.184 0-2.112.416-2.784 1.248-.656.816-.984 1.96-.984 3.432s.328 2.608.984 3.408c.672.8 1.6 1.2 2.784 1.2zm20.6.552V35.064l1.128.576-4.632 2.952v-1.896l4.368-2.784h1.128v16.2h-1.992zm-3.768.888v-1.656h9.528V51h-9.528zm15.447-9.864c-.752 0-1.4-.152-1.944-.456-.528-.32-.936-.76-1.224-1.32-.288-.56-.432-1.2-.432-1.92s.144-1.352.432-1.896c.288-.544.696-.968 1.224-1.272.544-.32 1.192-.48 1.944-.48.768 0 1.416.16 1.944.48.544.304.96.728 1.248 1.272.288.544.432 1.176.432 1.896s-.144 1.36-.432 1.92c-.288.56-.704 1-1.248 1.32-.528.304-1.176.456-1.944.456zm0-1.392c.624 0 1.096-.2 1.416-.6.32-.4.48-.968.48-1.704 0-.72-.16-1.28-.48-1.68-.32-.4-.792-.6-1.416-.6-.608 0-1.072.2-1.392.6-.304.4-.456.96-.456 1.68 0 .736.152 1.304.456 1.704.32.4.784.6 1.392.6z"/>
    <path fill="#E9B7DB" fill-rule="evenodd" d="M89.46 40.942c0 16.343-13.249 29.592-29.592 29.592-16.343 0-29.592-13.249-29.592-29.592 0-16.343 13.249-29.592 29.592-29.592 16.343 0 29.592 13.249 29.592 29.592z" clip-rule="evenodd"/>
    <path fill="#FFBE88" fill-rule="evenodd" d="M63.443 38.31c-.658-1.021.06-3.511 3.277-2.045 1.074.488 2.576 4.584 2.999 6.722.148.75-.997 2.48-2.234 4.087-1.22 1.583-2.53 3.048-2.777 3.334 0 0-2.01 1.134-2.783.368-.819-.811-.784-1.184 0-2.105 1.225-1.438 4.605-5.108 4.557-5.315-.343-1.445-2.242-3.809-3.04-5.046z" clip-rule="evenodd"/>
    <path fill="#FFBD8A" fill-rule="evenodd" d="M66.151 48.73c-.71.85-1.288 1.498-1.444 1.678 0 0-2.01 1.134-2.783.368-.818-.811-.784-1.184 0-2.105 1.226-1.438 4.606-5.108 4.558-5.315-.343-1.445-2.242-3.809-3.04-5.047-.657-1.02.06-3.51 3.277-2.044.523.237 1.148 1.33 1.699 2.635-.209.195-.43.38-.663.566-.35.278-.956.505-1.19.925-.084.153.288.7.35.838.301.655.701 1.374.683 2.137-.029 1.228-1.22 1.905-1.705 2.897-.24.494.096 1.844.216 2.316l.042.15z" clip-rule="evenodd"/>
    <path fill="#FFBE88" fill-rule="evenodd" d="M53.14 36.066c1.308-1.492 3.019 3.05 2.192 4.57-.291.536-1.958 2.468-1.644 2.963 1.435 2.266 3.329 2.754 3.418 3.345.177 1.177 1.115 3.779 0 3.945-.76.114-3.53-2.385-5.42-4.712-1.038-1.279-1.81-2.506-1.837-3.22-.096-2.542 1.55-4.903 3.291-6.891z" clip-rule="evenodd"/>
    <path fill="#FFBD8A" fill-rule="evenodd" d="M50.547 39.822c.625-1.35 1.594-2.614 2.594-3.756 1.307-1.492 3.017 3.05 2.191 4.57-.29.536-1.958 2.467-1.644 2.964 1.435 2.265 3.328 2.753 3.418 3.344.177 1.177 1.115 3.779 0 3.945-.28.042-.834-.272-1.517-.801 1.488-2.172-2.49-2.58-3.075-4.723-.2-.735-.078-1.594.161-2.302.068-.2.52-.866.387-1.07-.514-.788-1.621-1.334-2.298-1.961-.074-.068-.146-.138-.217-.21z" clip-rule="evenodd"/>
    <path fill="#FFBE88" fill-rule="evenodd" d="M57.05 32.76c.465-.558.944-.904 1.434-1.095v-1.381h2.14v1.35c.344.094.69.223 1.036.37.875 2.011 1.49 4.134 1.889 6.349.386 2.146-6.788 1.714-6.644.175.174-1.856.235-3.744.145-5.769z" clip-rule="evenodd"/>
    <path fill="#391F1A" fill-rule="evenodd" d="M69.307 75.437c0 .92-4.654.497-5.537.038-.884-.46-.884-3.034 0-3.493.883-.46 5.537 2.536 5.537 3.455zM50.316 75.437c0 .92 4.654.497 5.538.038.884-.46.884-3.034 0-3.493-.883-.46-5.538 2.536-5.538 3.455z" clip-rule="evenodd"/>
    <path fill="#00458E" fill-rule="evenodd" d="M54.741 49.358c.024-.218 10.762-.7 10.778.876.172 2.39.263 4.784.403 7.191.268 4.6 1.55 15.336 1.545 15.465-.036 1.104-4.349 1.46-4.518.27-.315-2.211-.468-4.457-.632-6.701-.312-4.262-.53-8.504-.782-12.798-1.01.313-2.03.405-3.062.28-.125 1.444-.239 2.89-.372 4.33-.462 4.95-.797 9.934-1.69 14.804-.123.666-4.69.529-4.582-.072.696-3.926 2.834-22.948 2.912-23.645z" clip-rule="evenodd"/>
    <path fill="#003C77" fill-rule="evenodd" d="M67.442 72.638c.016.153.025.24.025.251-.037 1.105-4.349 1.46-4.518.27-.315-2.21-.468-4.456-.632-6.7-.312-4.262-.53-8.504-.782-12.798-1.01.313-2.03.405-3.062.28-.126 1.444-.24 2.89-.373 4.33-.462 4.95-.796 9.934-1.69 14.804-.122.666-4.689.53-4.581-.072.026-.145.054-.312.083-.498.69.06 1.374-.114 1.89-.596.255-.237 2.718-16.953 2.476-18.465-.026-.158-1.239-.385-1.926-.654.222-1.94.37-3.258.389-3.432.024-.218 10.762-.7 10.778.876.039.55.074 1.099.107 1.65-.907.578-2.364 1.462-2.43 2.029-.206 1.731.237 17.86 1.396 18.566.348.212.843.221 1.23.281.586.092 1.126.04 1.62-.122z" clip-rule="evenodd"/>
    <path fill="#F29A00" fill-rule="evenodd" d="M56.32 33.129c-1.224-.104-5.691 4.378-5.358 5.254.129.34 1.276 1.586 1.518 1.806.931.844 2.076 1.072 3.186 1.6.296.14 1.044-8.627.653-8.66z" clip-rule="evenodd"/>
    <path fill="#E28E00" fill-rule="evenodd" d="M51.274 37.49c.142.37.425.676.706.965 1.345 1.385 2.184 1.41 3.823.362.13-.084.25-.181.36-.29-.165 1.79-.371 3.32-.496 3.261-1.11-.527-2.255-.755-3.187-1.6-.242-.22-1.388-1.466-1.517-1.805-.067-.175.058-.495.311-.892z" clip-rule="evenodd"/>
    <path fill="#F29A00" fill-rule="evenodd" d="M62.297 32.31c1.223-.105 5.69 4.378 5.357 5.253-.13.34-1.276 1.586-1.518 1.805-.932.845-2.076 1.073-3.186 1.6-.296.141-1.044-8.626-.653-8.659z" clip-rule="evenodd"/>
    <path fill="#E28E00" fill-rule="evenodd" d="M67.65 37.303c.026.105.03.193.004.26-.13.34-1.276 1.586-1.518 1.805-.932.845-2.077 1.073-3.187 1.6-.296.141-1.044-8.626-.653-8.659.333-.028.904.282 1.554.767-.151 1.21.35 2.896.974 3.876.577.904 1.875.441 2.826.35z" clip-rule="evenodd"/>
    <path fill="#FFD03B" fill-rule="evenodd" d="M64.96 51.077c-2.252 1.346-10.52.744-10.455.146.024-.218 1.988-13.175 1.774-17.998.606-.725 1.23-1.176 1.868-1.426 0 0 1.458 2.533 1.923 2.526.465-.006.866-2.566.866-2.566.447.123.897.29 1.349.481 2.186 5.032 3.127 11.564 3.227 17.535.136.022.274.038.323.166.065.172-.072.397-.155.531-.188.303-.437.473-.72.605z" clip-rule="evenodd"/>
    <path fill="#F3BB22" fill-rule="evenodd" d="M54.286 50.787c.019-.012 2.184-13.251 1.993-17.562.466-.558.943-.954 1.429-1.22.105.404.178.82.239 1.232.221 1.514.316 3.063.34 4.595.05 3.065-.613 5.975-1.026 8.987-.114.838-.54 2.602.08 3.32.325.377.998.26 1.412.183 1.288-.238 2.595-.504 3.852-.89.294-.091 1.074-.544 1.39-.374.247.133-.313.687-.39.743-.183.134-2.435 1.114-2.15 1.186 1.285.328 2.728-.178 4.056-.586-.349 2.142-10.862 1.531-11.232.865l-.015-.009c-.086-.054-.227-.135-.236-.258-.014-.178.155-.143.258-.212z" clip-rule="evenodd"/>
    <path fill="#F29A00" fill-rule="evenodd" d="M61.173 31.828c.12.037.24.077.361.12.136.965-.147 2.017-.325 2.849-.119.556-.212 1.144-.469 1.628-.085.16-.273.258-.455.191-.582-.214-.886-1.033-1.312-1.697l-.264-.415c-.444-.717-.905-1.403-1.272-2.174v-.001s-.04-.04-.088-.102c.1-.07.201-.133.303-.19.703.826 1.3 1.72 1.984 2.616.223.292.444.587.666.882 0 0 .143-.417.222-.664.318-.997.675-2.02.649-3.043z" clip-rule="evenodd"/>
    <path fill="#28130C" fill-rule="evenodd" d="M49.39 20.058s.179 5.158.702 6.997c.524 1.838 1.354 2.348 1.192 2.02-.162-.33-.326-1.106-.326-1.106.537.501 1.78 1.764 2.337 3.56.094.302.307-1.894.307-1.894s.055.694 1.413 1.073c1.357.38 1.828.258 1.596.27-.233.012-1.302-1.966-1.396-2.226-.094-.26-.697-7.742-.924-7.656-.226.086-4.9-1.038-4.9-1.038z" clip-rule="evenodd"/>
    <path fill="#FAC4A1" fill-rule="evenodd" d="M52.197 27.122c.11.387.572 2.504 4.77 3.422 4.198.918 7.908.354 10.109-2.012 2.2-2.365 2.843-3.543 2.38-5.258-.465-1.715-.951-2.337-.987-3.02-.036-.684 1.313-1.729-.088-4.004-1.4-2.276-2.535-3.44-2.535-3.44s.438-1.838-4.877-1.686c-5.314.152-8.376-.004-10.27 3.353-1.893 3.357-.96 7.244-.96 7.244s-1.83-.773-2.166.983c-.011.056-.02.116-.028.178-.245 1.984 1.383 3.827 2.763 4.27 1.38.442 1.89-.03 1.89-.03z" clip-rule="evenodd"/>
    <path fill="#6D5652" fill-rule="evenodd" d="M57.387 19.643c.02-.206.32-.192.523-.223 1.283-.198 5.3-.748 5.389-.563.28.58.638 4.627.431 4.81-.032.029-5.285 1.064-5.653.756-.19-.16-.766-3.968-.69-4.78zm9.185-1.083c.098-.013 3.44-.331 3.71-.067.269.265.018 3.95-.015 4.127-.033.177-.14.367-.248.389-.109.022-2.919.47-3.163.474-.243.005-.298-.087-.336-.154-.038-.067-.197-4.49-.156-4.61.04-.121.208-.159.208-.159zm-16.606 3.36l.423.473 6.341-2.401s.51 4.778 1.075 4.93c.566.152 5.875-.458 6.333-1.094.458-.637-.211-4.59-.211-4.59s.182-.245.9-.35c.717-.105.982.165.982.165s.172 3.777.39 4.221c.219.443.51.475.666.569.156.093 3.345-.084 3.695-.878.35-.794.273-4.512.098-4.746-.393-.524-12.8.43-13.663.776-.217.087-6.747 2.886-7.029 2.925z" clip-rule="evenodd"/>
    <path fill="#E7A177" fill-rule="evenodd" d="M64.986 21.401c.067.177.183.606.989 1.256.805.65 1.168.577 1.207.877.034.254-1.061.971-1.267 1.042-.205.071-.786.025-.807-.18-.012-.117.536-.296.926-.476.294-.135.498-.27.305-.38-.45-.254-.891-.854-1.183-1.416-.292-.563-.17-.723-.17-.723z" clip-rule="evenodd"/>
    <path fill="#594142" fill-rule="evenodd" d="M60.968 20.777c-.311.043-.546.37-.525.732.02.361.29.62.6.578.311-.043.547-.37.526-.732-.021-.362-.29-.62-.6-.578zM67.674 20.177c-.311.043-.544.37-.52.73.023.362.294.62.605.578.311-.043.544-.37.52-.73-.023-.362-.294-.62-.605-.578z" clip-rule="evenodd"/>
    <path fill="#D15741" fill-rule="evenodd" d="M65.654 26.608c-1.92.46-3.738.752-5.824.064.984 2.1 5.96 1.614 5.824-.064z" clip-rule="evenodd"/>
    <path fill="#28130C" fill-rule="evenodd" d="M63.91 12.522s.668 1.039-.376 2.954c-1.044 1.916-1.959 2.353-1.917 2.23.042-.122-.193-2.701-.193-2.701s-.446 1.444-2.797 3.207c-2.35 1.763-3.298 2.107-3.113 1.887.184-.22.508-2.7.508-2.7s-2.017 2.497-2.218 3.596c-.2 1.1.085 3.048-.126 2.784-.211-.263-.995-1.579-.995-1.579s.286 2.241.791 3.224c.504.984.857 1.423.533 1.194-.323-.228-.802-.455-1.838-1.19-1.036-.736-2.373-3.698-2.547-3.749-.174-.05-.907-.12-.907-.12s-.375-.48-.58-1.407c-.204-.927-.132-1.112-.231-.982-.1.13-.422 1.051-.493.671-.071-.38-.36-2.776.405-4.596.765-1.819 1.944-3.032 2.371-3.324.428-.292.447-.295.294-.274-.153.02-1.287.136-1.128.018.16-.12.799-1.006 3.165-2.09 2.365-1.082 4.969-.853 4.969-.853l-.914-.557s2.396-.289 3.574.057c1.177.346 2.72 1.762 3.174 2.412.453.65.59 1.888.59 1.888z" clip-rule="evenodd"/>
    <path fill="#28130C" fill-rule="evenodd" d="M48.094 14.643c.748-1.483 1.715-2.463 2.093-2.722.428-.292.447-.295.294-.274-.153.02-1.287.136-1.127.018.159-.12.797-1.006 3.164-2.09 2.365-1.082 4.969-.853 4.969-.853l-.914-.557s2.396-.289 3.574.057c1.177.346 2.72 1.762 3.174 2.411.05.072.095.15.138.233-.72-.369-1.647-.752-2.61-.997-2.14-.546-3.423-.526-3.05-.363.373.163 1.352 1.458 1.157 1.258-.194-.2-2.199-.609-3.972-.396-1.773.213-2.257.591-2.145.556.111-.035.723.447 1.249 2.012.525 1.565-.628 3.535-.578 3.333.05-.202-.249-2.892-1.12-3.736-.87-.844-.99-.867-.99-.867s-1.192 1.04-2.176 2.538c-.984 1.499-1.282 3.176-1.3 3.042-.01-.08.08-1.414.17-2.603z" clip-rule="evenodd"/>
    <path fill="#28130C" fill-rule="evenodd" d="M63.006 13.463c.336.598.816 1.838 2.578 2.61 1.762.773 2.859.811 2.859.811l-1.26-1.088c1.47.683 2.447.564 3.604-.151l-2.227-.543c1.378.145 2.295-.25 2.569-1.024-.907.212-2.05-1.386-2.712-2.523-2.266-3.892-8.276-3.447-9.297-1.576-.436.8.106 2.48.388 2.831.281.352 3.498.653 3.498.653z" clip-rule="evenodd"/>
    <path fill="#FF836A" fill-rule="evenodd" d="M67.697 15.219c.018.007.028.013.03.016.011.016 0 .01-.03-.016z" clip-rule="evenodd"/>
</svg>
