<?xml version="1.0" encoding="UTF-8" standalone="no"?>
<svg
   xmlns:dc="http://purl.org/dc/elements/1.1/"
   xmlns:cc="http://creativecommons.org/ns#"
   xmlns:rdf="http://www.w3.org/1999/02/22-rdf-syntax-ns#"
   xmlns:svg="http://www.w3.org/2000/svg"
   xmlns="http://www.w3.org/2000/svg"
   xmlns:sodipodi="http://sodipodi.sourceforge.net/DTD/sodipodi-0.dtd"
   xmlns:inkscape="http://www.inkscape.org/namespaces/inkscape"
   inkscape:version="1.0 (4035a4fb49, 2020-05-01)"
   sodipodi:docname="boton-youtube.svg"
   id="svg81"
   version="1.1"
   viewBox="0 0 230 119"
   height="119"
   width="230">
  <metadata
     id="metadata85">
    <rdf:RDF>
      <cc:Work
         rdf:about="">
        <dc:format>image/svg+xml</dc:format>
        <dc:type
           rdf:resource="http://purl.org/dc/dcmitype/StillImage" />
      </cc:Work>
    </rdf:RDF>
  </metadata>
  <sodipodi:namedview
     inkscape:current-layer="svg81"
     inkscape:window-maximized="1"
     inkscape:window-y="-8"
     inkscape:window-x="-8"
     inkscape:cy="59.5"
     inkscape:cx="115"
     inkscape:zoom="4.9434783"
     showgrid="false"
     id="namedview83"
     inkscape:window-height="1057"
     inkscape:window-width="1858"
     inkscape:pageshadow="2"
     inkscape:pageopacity="0"
     guidetolerance="10"
     gridtolerance="10"
     objecttolerance="10"
     borderopacity="1"
     bordercolor="#666666"
     pagecolor="#ffffff" />
  <defs
     id="defs47">
    <linearGradient
       gradientUnits="userSpaceOnUse"
       y2="83.752976"
       y1="-1.5368768"
       x2="58.247802"
       x1="13.97685"
       id="prefix__a">
      <stop
         id="stop2"
         stop-color="#FFFCF8"
         offset="0%" />
      <stop
         id="stop4"
         stop-color="#FAF8F6"
         offset="18.75%" />
      <stop
         id="stop6"
         stop-color="#ECEEF2"
         offset="40.41%" />
      <stop
         id="stop8"
         stop-color="#D5DCEA"
         offset="63.53%" />
      <stop
         id="stop10"
         stop-color="#B5C4DF"
         offset="87.5%" />
      <stop
         id="stop12"
         stop-color="#A1B5D8"
         offset="100%" />
    </linearGradient>
    <linearGradient
       gradientUnits="userSpaceOnUse"
       y2="-31.853535"
       y1="26.695227"
       x2="-80.522218"
       x1="23.564702"
       id="prefix__b">
      <stop
         id="stop15"
         stop-opacity="0"
         stop-color="#A1B5D8"
         offset="0%" />
      <stop
         id="stop17"
         stop-opacity=".31"
         stop-color="#90A2BD"
         offset="30.94%" />
      <stop
         id="stop19"
         stop-opacity=".757"
         stop-color="#7C8B9C"
         offset="75.54%" />
      <stop
         id="stop21"
         stop-color="#748290"
         offset="100%" />
    </linearGradient>
    <linearGradient
       gradientUnits="userSpaceOnUse"
       gradientTransform="scale(2.204552,0.45360691)"
       y2="140.67922"
       y1="119.5668"
       x2="13.934804"
       x1="13.934804"
       id="prefix__c">
      <stop
         id="stop24"
         stop-opacity="0"
         stop-color="#A1B5D8"
         offset="0%" />
      <stop
         id="stop26"
         stop-opacity=".31"
         stop-color="#90A2BD"
         offset="30.94%" />
      <stop
         id="stop28"
         stop-opacity=".757"
         stop-color="#7C8B9C"
         offset="75.54%" />
      <stop
         id="stop30"
         stop-color="#748290"
         offset="100%" />
    </linearGradient>
    <linearGradient
       gradientUnits="userSpaceOnUse"
       gradientTransform="scale(1.0661945,0.93791514)"
       y2="16.666241"
       y1="51.444293"
       x2="8.1324279"
       x1="47.665974"
       id="prefix__d">
      <stop
         id="stop33"
         stop-opacity="0"
         stop-color="#A1B5D8"
         offset="0%" />
      <stop
         id="stop35"
         stop-opacity=".31"
         stop-color="#90A2BD"
         offset="30.94%" />
      <stop
         id="stop37"
         stop-opacity=".757"
         stop-color="#7C8B9C"
         offset="75.54%" />
      <stop
         id="stop39"
         stop-color="#748290"
         offset="100%" />
    </linearGradient>
    <linearGradient
       gradientUnits="userSpaceOnUse"
       gradientTransform="scale(1.199984,0.83334443)"
       y2="42.47493"
       y1="32.966759"
       x2="28.365806"
       x1="23.663928"
       id="prefix__e">
      <stop
         id="stop42"
         stop-color="#E52D27"
         offset="0%" />
      <stop
         id="stop44"
         stop-color="#B31217"
         offset="100%" />
    </linearGradient>
  </defs>
  <rect
     y="44"
     x="0"
     id="rect49"
     rx="37.5"
     fill-rule="nonzero"
     fill="#bc0f6a"
     height="75"
     width="230" />
  <path
     fill="#fafdfe"
     fill-rule="nonzero"
     d="m 52.45,79 6.22,-14.1 h -2.1 L 51.61,76.4 46.65,64.9 h -2.14 l 6.2,14.1 z m 9.72,-12.02 v -2.1 h -2.32 v 2.1 z M 62.01,79 V 69.24 H 59.99 V 79 Z m 6.26,0.14 c 1.213,0 2.177,-0.257 2.89,-0.77 0.713,-0.513 1.07,-1.21 1.07,-2.09 0,-0.72 -0.22,-1.303 -0.66,-1.75 -0.44,-0.447 -1.133,-0.777 -2.08,-0.99 L 67.83,73.16 C 67.35,73.053 67,72.897 66.78,72.69 c -0.22,-0.207 -0.33,-0.477 -0.33,-0.81 0,-0.413 0.177,-0.74 0.53,-0.98 0.353,-0.24 0.837,-0.36 1.45,-0.36 1.027,0 2.02,0.38 2.98,1.14 l 0.62,-1.42 C 71.577,69.86 71.037,69.55 70.41,69.33 69.783,69.11 69.123,69 68.43,69 c -1.16,0 -2.097,0.273 -2.81,0.82 -0.713,0.547 -1.07,1.26 -1.07,2.14 0,0.693 0.22,1.267 0.66,1.72 0.44,0.453 1.093,0.78 1.96,0.98 l 1.62,0.36 c 0.573,0.133 0.977,0.3 1.21,0.5 0.233,0.2 0.35,0.473 0.35,0.82 0,0.4 -0.173,0.71 -0.52,0.93 -0.347,0.22 -0.847,0.33 -1.5,0.33 -1.333,0 -2.5,-0.387 -3.5,-1.16 l -0.62,1.46 c 1.013,0.827 2.367,1.24 4.06,1.24 z m 8.38,-12.16 v -2.1 h -2.32 v 2.1 z M 76.49,79 V 69.24 H 74.47 V 79 Z m 7.2,0.14 c 0.36,0 0.707,-0.027 1.04,-0.08 l 0.1,-1.54 c -0.293,0.04 -0.593,0.06 -0.9,0.06 -1.32,0 -1.98,-0.713 -1.98,-2.14 V 70.8 h 2.68 V 69.24 H 81.95 V 66.3 h -2.02 v 2.94 h -1.9 v 1.56 h 1.9 v 4.72 c 0,1.173 0.31,2.07 0.93,2.69 0.62,0.62 1.563,0.93 2.83,0.93 z m 5.8,0 c 0.667,0 1.25,-0.15 1.75,-0.45 0.5,-0.3 0.877,-0.737 1.13,-1.31 V 79 h 1.94 v -6.04 c 0,-1.333 -0.317,-2.327 -0.95,-2.98 C 92.727,69.327 91.757,69 90.45,69 c -0.68,0 -1.39,0.11 -2.13,0.33 -0.74,0.22 -1.37,0.51 -1.89,0.87 l 0.6,1.42 c 1.107,-0.68 2.213,-1.02 3.32,-1.02 0.707,0 1.217,0.167 1.53,0.5 0.313,0.333 0.47,0.873 0.47,1.62 v 0.58 h -0.46 c -1.48,0 -2.643,0.087 -3.49,0.26 -0.847,0.173 -1.453,0.463 -1.82,0.87 -0.367,0.407 -0.55,0.963 -0.55,1.67 0,0.573 0.15,1.093 0.45,1.56 0.3,0.467 0.717,0.83 1.25,1.09 0.533,0.26 1.12,0.39 1.76,0.39 z m 0.36,-1.5 c -0.533,0 -0.97,-0.157 -1.31,-0.47 -0.34,-0.313 -0.51,-0.703 -0.51,-1.17 0,-0.413 0.12,-0.73 0.36,-0.95 0.24,-0.22 0.64,-0.377 1.2,-0.47 0.56,-0.093 1.36,-0.14 2.4,-0.14 h 0.36 v 0.52 c 0,0.787 -0.233,1.43 -0.7,1.93 -0.467,0.5 -1.067,0.75 -1.8,0.75 z M 104.37,79 v -5.56 c 0,-0.853 0.247,-1.533 0.74,-2.04 0.493,-0.507 1.147,-0.76 1.96,-0.76 0.693,0 1.203,0.193 1.53,0.58 0.327,0.387 0.49,0.993 0.49,1.82 V 79 h 2.02 v -6.06 c 0,-2.627 -1.167,-3.94 -3.5,-3.94 -0.72,0 -1.367,0.153 -1.94,0.46 -0.573,0.307 -1.02,0.753 -1.34,1.34 v -1.56 h -1.98 V 79 Z m 13.02,0.14 c 0.667,0 1.27,-0.147 1.81,-0.44 0.54,-0.293 0.963,-0.72 1.27,-1.28 V 79 h 1.96 v -9.76 h -2.02 v 5.48 c 0,0.84 -0.237,1.513 -0.71,2.02 -0.473,0.507 -1.103,0.76 -1.89,0.76 -0.667,0 -1.16,-0.187 -1.48,-0.56 -0.32,-0.373 -0.48,-0.953 -0.48,-1.74 v -5.96 h -2.02 v 5.98 c 0,2.613 1.187,3.92 3.56,3.92 z m 12.34,0 c 0.693,0 1.373,-0.113 2.04,-0.34 0.667,-0.227 1.227,-0.533 1.68,-0.92 l -0.62,-1.42 c -0.907,0.733 -1.92,1.1 -3.04,1.1 -1.907,0 -2.933,-1.033 -3.08,-3.1 h 6.9 v -0.64 c 0,-1.507 -0.377,-2.687 -1.13,-3.54 -0.753,-0.853 -1.79,-1.28 -3.11,-1.28 -0.907,0 -1.717,0.213 -2.43,0.64 -0.713,0.427 -1.267,1.027 -1.66,1.8 -0.393,0.773 -0.59,1.66 -0.59,2.66 0,1.573 0.45,2.807 1.35,3.7 0.9,0.893 2.13,1.34 3.69,1.34 z m 2.14,-5.84 h -5.14 c 0.093,-0.907 0.37,-1.603 0.83,-2.09 0.46,-0.487 1.077,-0.73 1.85,-0.73 0.76,0 1.35,0.243 1.77,0.73 0.42,0.487 0.65,1.183 0.69,2.09 z m 7.4,5.84 c 1.213,0 2.177,-0.257 2.89,-0.77 0.713,-0.513 1.07,-1.21 1.07,-2.09 0,-0.72 -0.22,-1.303 -0.66,-1.75 -0.44,-0.447 -1.133,-0.777 -2.08,-0.99 l -1.66,-0.38 c -0.48,-0.107 -0.83,-0.263 -1.05,-0.47 -0.22,-0.207 -0.33,-0.477 -0.33,-0.81 0,-0.413 0.177,-0.74 0.53,-0.98 0.353,-0.24 0.837,-0.36 1.45,-0.36 1.027,0 2.02,0.38 2.98,1.14 l 0.62,-1.42 c -0.453,-0.4 -0.993,-0.71 -1.62,-0.93 -0.627,-0.22 -1.287,-0.33 -1.98,-0.33 -1.16,0 -2.097,0.273 -2.81,0.82 -0.713,0.547 -1.07,1.26 -1.07,2.14 0,0.693 0.22,1.267 0.66,1.72 0.44,0.453 1.093,0.78 1.96,0.98 l 1.62,0.36 c 0.573,0.133 0.977,0.3 1.21,0.5 0.233,0.2 0.35,0.473 0.35,0.82 0,0.4 -0.173,0.71 -0.52,0.93 -0.347,0.22 -0.847,0.33 -1.5,0.33 -1.333,0 -2.5,-0.387 -3.5,-1.16 l -0.62,1.46 c 1.013,0.827 2.367,1.24 4.06,1.24 z m 10.48,0 c 0.36,0 0.707,-0.027 1.04,-0.08 l 0.1,-1.54 c -0.293,0.04 -0.593,0.06 -0.9,0.06 -1.32,0 -1.98,-0.713 -1.98,-2.14 V 70.8 h 2.68 v -1.56 h -2.68 V 66.3 h -2.02 v 2.94 h -1.9 v 1.56 h 1.9 v 4.72 c 0,1.173 0.31,2.07 0.93,2.69 0.62,0.62 1.563,0.93 2.83,0.93 z m 4.7,-0.14 v -5.42 c 0,-0.76 0.21,-1.387 0.63,-1.88 0.42,-0.493 1.11,-0.787 2.07,-0.88 l 1.22,-0.12 -0.14,-1.7 -0.66,0.04 c -1.6,0.12 -2.66,0.753 -3.18,1.9 v -1.7 h -1.96 V 79 Z m 9.34,0.14 c 0.96,0 1.803,-0.207 2.53,-0.62 0.727,-0.413 1.287,-1.003 1.68,-1.77 0.393,-0.767 0.59,-1.657 0.59,-2.67 0,-1.027 -0.197,-1.923 -0.59,-2.69 -0.393,-0.767 -0.953,-1.357 -1.68,-1.77 -0.727,-0.413 -1.57,-0.62 -2.53,-0.62 -0.96,0 -1.803,0.207 -2.53,0.62 -0.727,0.413 -1.287,1.003 -1.68,1.77 -0.393,0.767 -0.59,1.663 -0.59,2.69 0,1.013 0.197,1.903 0.59,2.67 0.393,0.767 0.953,1.357 1.68,1.77 0.727,0.413 1.57,0.62 2.53,0.62 z m 0,-1.6 c -0.893,0 -1.577,-0.293 -2.05,-0.88 -0.473,-0.587 -0.71,-1.447 -0.71,-2.58 0,-1.12 0.24,-1.977 0.72,-2.57 0.48,-0.593 1.16,-0.89 2.04,-0.89 0.88,0 1.56,0.297 2.04,0.89 0.48,0.593 0.72,1.45 0.72,2.57 0,1.133 -0.237,1.993 -0.71,2.58 -0.473,0.587 -1.157,0.88 -2.05,0.88 z M 33.95,103.16 c 0.96,0 1.853,-0.15 2.68,-0.45 0.827,-0.3 1.527,-0.73 2.1,-1.29 L 38.01,99.9 c -0.653,0.547 -1.303,0.94 -1.95,1.18 -0.647,0.24 -1.343,0.36 -2.09,0.36 -1.467,0 -2.597,-0.477 -3.39,-1.43 -0.793,-0.953 -1.19,-2.31 -1.19,-4.07 0,-1.76 0.397,-3.113 1.19,-4.06 0.793,-0.947 1.923,-1.42 3.39,-1.42 0.747,0 1.443,0.12 2.09,0.36 0.647,0.24 1.297,0.633 1.95,1.18 l 0.72,-1.52 c -0.573,-0.56 -1.273,-0.99 -2.1,-1.29 -0.827,-0.3 -1.72,-0.45 -2.68,-0.45 -1.36,0 -2.543,0.29 -3.55,0.87 -1.007,0.58 -1.78,1.413 -2.32,2.5 -0.54,1.087 -0.81,2.363 -0.81,3.83 0,1.467 0.27,2.743 0.81,3.83 0.54,1.087 1.313,1.923 2.32,2.51 1.007,0.587 2.19,0.88 3.55,0.88 z m 10.02,-0.02 c 0.667,0 1.25,-0.15 1.75,-0.45 0.5,-0.3 0.877,-0.737 1.13,-1.31 V 103 h 1.94 v -6.04 c 0,-1.333 -0.317,-2.327 -0.95,-2.98 C 47.207,93.327 46.237,93 44.93,93 c -0.68,0 -1.39,0.11 -2.13,0.33 -0.74,0.22 -1.37,0.51 -1.89,0.87 l 0.6,1.42 c 1.107,-0.68 2.213,-1.02 3.32,-1.02 0.707,0 1.217,0.167 1.53,0.5 0.313,0.333 0.47,0.873 0.47,1.62 v 0.58 h -0.46 c -1.48,0 -2.643,0.087 -3.49,0.26 -0.847,0.173 -1.453,0.463 -1.82,0.87 -0.367,0.407 -0.55,0.963 -0.55,1.67 0,0.573 0.15,1.093 0.45,1.56 0.3,0.467 0.717,0.83 1.25,1.09 0.533,0.26 1.12,0.39 1.76,0.39 z m 0.36,-1.5 c -0.533,0 -0.97,-0.157 -1.31,-0.47 -0.34,-0.313 -0.51,-0.703 -0.51,-1.17 0,-0.413 0.12,-0.73 0.36,-0.95 0.24,-0.22 0.64,-0.377 1.2,-0.47 0.56,-0.093 1.36,-0.14 2.4,-0.14 h 0.36 v 0.52 c 0,0.787 -0.233,1.43 -0.7,1.93 -0.467,0.5 -1.067,0.75 -1.8,0.75 z m 9.24,1.36 v -5.56 c 0,-0.853 0.247,-1.533 0.74,-2.04 0.493,-0.507 1.147,-0.76 1.96,-0.76 0.693,0 1.203,0.193 1.53,0.58 0.327,0.387 0.49,0.993 0.49,1.82 V 103 h 2.02 v -6.06 c 0,-2.627 -1.167,-3.94 -3.5,-3.94 -0.72,0 -1.367,0.153 -1.94,0.46 -0.573,0.307 -1.02,0.753 -1.34,1.34 V 93.24 H 51.55 V 103 Z m 12.62,0.14 c 0.667,0 1.25,-0.15 1.75,-0.45 0.5,-0.3 0.877,-0.737 1.13,-1.31 V 103 h 1.94 v -6.04 c 0,-1.333 -0.317,-2.327 -0.95,-2.98 C 69.427,93.327 68.457,93 67.15,93 c -0.68,0 -1.39,0.11 -2.13,0.33 -0.74,0.22 -1.37,0.51 -1.89,0.87 l 0.6,1.42 c 1.107,-0.68 2.213,-1.02 3.32,-1.02 0.707,0 1.217,0.167 1.53,0.5 0.313,0.333 0.47,0.873 0.47,1.62 v 0.58 h -0.46 c -1.48,0 -2.643,0.087 -3.49,0.26 -0.847,0.173 -1.453,0.463 -1.82,0.87 -0.367,0.407 -0.55,0.963 -0.55,1.67 0,0.573 0.15,1.093 0.45,1.56 0.3,0.467 0.717,0.83 1.25,1.09 0.533,0.26 1.12,0.39 1.76,0.39 z m 0.36,-1.5 c -0.533,0 -0.97,-0.157 -1.31,-0.47 -0.34,-0.313 -0.51,-0.703 -0.51,-1.17 0,-0.413 0.12,-0.73 0.36,-0.95 0.24,-0.22 0.64,-0.377 1.2,-0.47 0.56,-0.093 1.36,-0.14 2.4,-0.14 h 0.36 v 0.52 c 0,0.787 -0.233,1.43 -0.7,1.93 -0.467,0.5 -1.067,0.75 -1.8,0.75 z M 75.79,103 V 88.9 H 73.77 V 103 Z m 11.88,0.14 c 0.733,0 1.38,-0.157 1.94,-0.47 0.56,-0.313 0.987,-0.763 1.28,-1.35 V 103 h 2 V 88.9 h -2.02 v 5.9 C 90.577,94.227 90.153,93.783 89.6,93.47 89.047,93.157 88.403,93 87.67,93 c -0.853,0 -1.607,0.207 -2.26,0.62 -0.653,0.413 -1.163,1 -1.53,1.76 -0.367,0.76 -0.55,1.647 -0.55,2.66 0,1 0.183,1.887 0.55,2.66 0.367,0.773 0.88,1.373 1.54,1.8 0.66,0.427 1.41,0.64 2.25,0.64 z m 0.48,-1.6 c -0.867,0 -1.547,-0.31 -2.04,-0.93 -0.493,-0.62 -0.74,-1.477 -0.74,-2.57 0,-1.093 0.243,-1.937 0.73,-2.53 0.487,-0.593 1.17,-0.89 2.05,-0.89 0.88,0 1.557,0.3 2.03,0.9 0.473,0.6 0.71,1.453 0.71,2.56 0,1.107 -0.237,1.96 -0.71,2.56 -0.473,0.6 -1.15,0.9 -2.03,0.9 z m 12.04,1.6 c 0.693,0 1.373,-0.113 2.04,-0.34 0.667,-0.227 1.227,-0.533 1.68,-0.92 l -0.62,-1.42 c -0.907,0.733 -1.92,1.1 -3.04,1.1 -1.907,0 -2.933,-1.033 -3.08,-3.1 h 6.9 v -0.64 c 0,-1.507 -0.377,-2.687 -1.13,-3.54 -0.753,-0.853 -1.79,-1.28 -3.11,-1.28 -0.907,0 -1.717,0.213 -2.43,0.64 -0.713,0.427 -1.267,1.027 -1.66,1.8 -0.393,0.773 -0.59,1.66 -0.59,2.66 0,1.573 0.45,2.807 1.35,3.7 0.9,0.893 2.13,1.34 3.69,1.34 z m 2.14,-5.84 h -5.14 c 0.093,-0.907 0.37,-1.603 0.83,-2.09 0.46,-0.487 1.077,-0.73 1.85,-0.73 0.76,0 1.35,0.243 1.77,0.73 0.42,0.487 0.65,1.183 0.69,2.09 z m 14.98,5.7 v -6.58 l 5.62,-7.52 h -2.34 l -4.3,5.82 -4.3,-5.82 h -2.36 l 5.62,7.52 V 103 Z m 9.18,0.14 c 0.96,0 1.803,-0.207 2.53,-0.62 0.727,-0.413 1.287,-1.003 1.68,-1.77 0.393,-0.767 0.59,-1.657 0.59,-2.67 0,-1.027 -0.197,-1.923 -0.59,-2.69 -0.393,-0.767 -0.953,-1.357 -1.68,-1.77 -0.727,-0.413 -1.57,-0.62 -2.53,-0.62 -0.96,0 -1.803,0.207 -2.53,0.62 -0.727,0.413 -1.287,1.003 -1.68,1.77 -0.393,0.767 -0.59,1.663 -0.59,2.69 0,1.013 0.197,1.903 0.59,2.67 0.393,0.767 0.953,1.357 1.68,1.77 0.727,0.413 1.57,0.62 2.53,0.62 z m 0,-1.6 c -0.893,0 -1.577,-0.293 -2.05,-0.88 -0.473,-0.587 -0.71,-1.447 -0.71,-2.58 0,-1.12 0.24,-1.977 0.72,-2.57 0.48,-0.593 1.16,-0.89 2.04,-0.89 0.88,0 1.56,0.297 2.04,0.89 0.48,0.593 0.72,1.45 0.72,2.57 0,1.133 -0.237,1.993 -0.71,2.58 -0.473,0.587 -1.157,0.88 -2.05,0.88 z m 10.56,1.6 c 0.667,0 1.27,-0.147 1.81,-0.44 0.54,-0.293 0.963,-0.72 1.27,-1.28 V 103 h 1.96 v -9.76 h -2.02 v 5.48 c 0,0.84 -0.237,1.513 -0.71,2.02 -0.473,0.507 -1.103,0.76 -1.89,0.76 -0.667,0 -1.16,-0.187 -1.48,-0.56 -0.32,-0.373 -0.48,-0.953 -0.48,-1.74 v -5.96 h -2.02 v 5.98 c 0,2.613 1.187,3.92 3.56,3.92 z M 150.59,103 V 90.62 h 4.78 V 88.9 h -11.62 v 1.72 h 4.76 V 103 Z m 8.44,0.14 c 0.667,0 1.27,-0.147 1.81,-0.44 0.54,-0.293 0.963,-0.72 1.27,-1.28 V 103 h 1.96 v -9.76 h -2.02 v 5.48 c 0,0.84 -0.237,1.513 -0.71,2.02 -0.473,0.507 -1.103,0.76 -1.89,0.76 -0.667,0 -1.16,-0.187 -1.48,-0.56 -0.32,-0.373 -0.48,-0.953 -0.48,-1.74 v -5.96 h -2.02 v 5.98 c 0,2.613 1.187,3.92 3.56,3.92 z m 13.1,0 c 0.84,0 1.59,-0.213 2.25,-0.64 0.66,-0.427 1.173,-1.027 1.54,-1.8 0.367,-0.773 0.55,-1.66 0.55,-2.66 0,-1.013 -0.183,-1.9 -0.55,-2.66 -0.367,-0.76 -0.877,-1.347 -1.53,-1.76 -0.653,-0.413 -1.407,-0.62 -2.26,-0.62 -0.733,0 -1.38,0.16 -1.94,0.48 -0.56,0.32 -0.987,0.773 -1.28,1.36 V 88.9 h -2.02 V 103 h 2.02 v -1.68 c 0.293,0.587 0.72,1.037 1.28,1.35 0.56,0.313 1.207,0.47 1.94,0.47 z m -0.48,-1.6 c -0.88,0 -1.557,-0.3 -2.03,-0.9 -0.473,-0.6 -0.71,-1.453 -0.71,-2.56 0,-1.107 0.237,-1.96 0.71,-2.56 0.473,-0.6 1.15,-0.9 2.03,-0.9 0.88,0 1.56,0.297 2.04,0.89 0.48,0.593 0.72,1.437 0.72,2.53 0,1.107 -0.243,1.967 -0.73,2.58 -0.487,0.613 -1.163,0.92 -2.03,0.92 z m 11.54,1.6 c 0.693,0 1.373,-0.113 2.04,-0.34 0.667,-0.227 1.227,-0.533 1.68,-0.92 l -0.62,-1.42 c -0.907,0.733 -1.92,1.1 -3.04,1.1 -1.907,0 -2.933,-1.033 -3.08,-3.1 h 6.9 v -0.64 c 0,-1.507 -0.377,-2.687 -1.13,-3.54 -0.753,-0.853 -1.79,-1.28 -3.11,-1.28 -0.907,0 -1.717,0.213 -2.43,0.64 -0.713,0.427 -1.267,1.027 -1.66,1.8 -0.393,0.773 -0.59,1.66 -0.59,2.66 0,1.573 0.45,2.807 1.35,3.7 0.9,0.893 2.13,1.34 3.69,1.34 z m 2.14,-5.84 h -5.14 c 0.093,-0.907 0.37,-1.603 0.83,-2.09 0.46,-0.487 1.077,-0.73 1.85,-0.73 0.76,0 1.35,0.243 1.77,0.73 0.42,0.487 0.65,1.183 0.69,2.09 z"
     id="path57" />
  <path
     fill="#ffffff"
     fill-rule="nonzero"
     d="m 199,89 c -0.256,0 -0.512,-0.098 -0.707,-0.293 -0.391,-0.391 -0.391,-1.023 0,-1.414 l 3.305,-3.305 -3.18,-3.293 c -0.383,-0.398 -0.372,-1.031 0.025,-1.414 0.398,-0.383 1.03,-0.372 1.414,0.024 l 3.862,4 c 0.379,0.393 0.374,1.016 -0.012,1.402 l -4,4 C 199.512,88.902 199.256,89 199,89"
     id="path59" />
  <g
     fill-rule="nonzero"
     id="g77"
     style="fill:none">
    <path
       fill="url(#prefix__a)"
       d="m 50.45,60.388 c -13.14,1.403 -26.32,1.403 -39.46,0 C 5.75,59.828 1.611,55.69 1.052,50.45 -0.351,37.31 -0.351,24.13 1.052,10.99 1.612,5.75 5.75,1.611 10.989,1.052 c 13.14,-1.403 26.32,-1.403 39.461,0 5.24,0.56 9.379,4.698 9.938,9.937 1.403,13.14 1.403,26.32 0,39.461 -0.56,5.24 -4.697,9.379 -9.937,9.938 z"
       transform="translate(84)"
       id="path65"
       style="fill:url(#prefix__a)" />
    <path
       fill="url(#prefix__b)"
       d="M 57.046,13.212 C 56.55,8.562 52.878,4.89 48.228,4.393 36.568,3.149 24.872,3.149 13.212,4.393 8.562,4.89 4.89,8.563 4.393,13.212 c -1.244,11.66 -1.244,23.356 0,35.016 0.497,4.65 4.17,8.322 8.819,8.818 11.66,1.245 23.356,1.245 35.016,0 4.65,-0.496 8.322,-4.168 8.818,-8.818 1.245,-11.66 1.245,-23.356 0,-35.016 z"
       transform="translate(84)"
       id="path67"
       style="fill:url(#prefix__b)" />
    <path
       fill="url(#prefix__c)"
       d="m 0.92,49.177 c 0.043,0.424 0.086,0.849 0.132,1.274 0.56,5.24 4.698,9.378 9.938,9.937 13.14,1.403 26.32,1.403 39.46,0 5.24,-0.56 9.379,-4.698 9.938,-9.937 0.046,-0.425 0.09,-0.85 0.132,-1.274 z"
       transform="translate(84)"
       id="path69"
       style="fill:url(#prefix__c)" />
    <path
       fill="url(#prefix__d)"
       d="m 50.45,60.388 c 5.24,-0.56 9.379,-4.698 9.938,-9.938 0.614,-5.746 0.959,-11.5 1.036,-17.254 L 48.077,19.85 C 47.392,19 46.772,18.922 45.488,18.671 c -1.04,-0.203 -2.105,-0.342 -3.164,-0.384 -3.386,-0.133 -6.774,-0.26 -10.162,-0.293 -4.975,-0.047 -9.95,-0.03 -14.906,0.545 -2.136,0.248 -4.395,1.924 -4.637,4.208 -0.124,1.174 -0.34,2.341 -0.407,3.518 -0.245,4.284 -0.296,8.567 0.303,12.835 0.2,1.43 0.421,2.083 1.384,2.88 l 19.442,19.44 c 5.706,-0.08 11.411,-0.425 17.11,-1.033 z"
       transform="translate(84)"
       id="path71"
       style="fill:url(#prefix__d)" />
    <path
       fill="url(#prefix__e)"
       d="m 31.773,43.944 c -4.96,-0.166 -8.798,-0.26 -12.632,-0.444 -1.17,-0.056 -2.374,-0.215 -3.482,-0.575 -2.04,-0.662 -3.203,-2.153 -3.506,-4.307 -0.599,-4.268 -0.548,-8.55 -0.303,-12.835 0.068,-1.177 0.284,-2.344 0.408,-3.518 0.241,-2.284 2.5,-3.96 4.637,-4.208 4.955,-0.575 9.93,-0.592 14.906,-0.544 3.388,0.032 6.776,0.159 10.162,0.292 1.058,0.042 2.123,0.181 3.164,0.384 2.293,0.448 3.62,1.882 4.023,4.186 0.547,3.117 0.69,6.265 0.575,9.413 -0.087,2.383 -0.332,4.763 -0.58,7.137 -0.272,2.62 -2.54,4.17 -4.583,4.305 -4.63,0.306 -9.265,0.522 -12.79,0.714 z"
       transform="translate(84)"
       id="path73"
       style="fill:url(#prefix__e)" />
    <path
       fill="#ffffff"
       d="m 27.096,36.516 c 3.202,-1.965 6.325,-3.884 9.542,-5.86 l -9.542,-5.863 z"
       transform="translate(84)"
       id="path75" />
  </g>
</svg>
