<svg xmlns="http://www.w3.org/2000/svg" width="180" height="180" viewBox="0 0 180 180">
    <g fill="none">
        <path fill="#FE7114" d="M135.83 67.41c.004 27.27-16.42 51.857-41.613 62.295-25.192 10.439-54.193 4.673-73.477-14.608C1.456 95.815-4.314 66.817 6.121 41.622 16.556 16.427 41.141 0 68.41 0c37.231 0 67.414 30.179 67.42 67.41" transform="translate(15 18)"/>
        <path fill="#070606" d="M125 137.37c.18 2.06-9.87 4.61-22.44 5.7-12.57 1.09-22.9.3-23.08-1.76-.18-2.06 9.87-4.61 22.44-5.7 12.57-1.09 22.91-.3 23.08 1.76" opacity=".2" transform="translate(15 18)"/>
        <path fill="#B9B5AF" d="M123.18 38.88c-1.14-.78-2.3-1.5-3.49-2.16-1.118-.627-2.533-.228-3.16.89-.627 1.118-.228 2.533.89 3.16 1.07.6 2.12 1.25 3.16 2 19.26 13.16 25.11 40.58 12 59.93s-40.22 23.23-59.48 10.07c-1-.71-2-1.45-3-2.23-1-.747-2.411-.569-3.194.403-.784.971-.658 2.388.284 3.207 1.04.86 2.13 1.68 3.27 2.46 21.38 14.61 51.37 10.13 65.92-11.34 14.55-21.47 8.15-51.78-13.23-66.39" transform="translate(15 18)"/>
        <path fill="#B9B5AF" d="M118.19 47l-1.56-1 4.59-6.77c.175-.315.514-.504.874-.487.36.017.68.236.826.566.145.33.09.714-.14.991l-4.59 6.7zM73.52 113.06L72 112l4.59-6.77c.138-.21.355-.354.6-.403.247-.049.502.003.71.143.41.31.519.881.25 1.32l-4.63 6.77z" transform="translate(15 18)"/>
        <path fill="#90C1B9" d="M59.47 82c-1.82-21.136 13.818-39.755 34.95-41.613 21.134-1.857 39.78 13.748 41.674 34.878 1.895 21.13-13.678 39.803-34.804 41.735-21.21 1.873-39.927-13.792-41.82-35" transform="translate(15 18)"/>
        <path fill="#7CA39B" d="M114.79 43.83c11.1 14.159 10.923 34.114-.425 48.075-11.349 13.96-30.848 18.209-46.975 10.235 9.776 12.441 26.165 17.639 41.324 13.106 15.159-4.533 26.004-17.875 27.346-33.64 1.34-15.765-7.095-30.747-21.27-37.776" transform="translate(15 18)"/>
        <path fill="#94A0CC" d="M103.48 40.3c.69.11 1.39.23 2.07.37" transform="translate(15 18)"/>
        <path fill="#FFF" d="M107.92 41.24c-1.091-.04-2.183.078-3.24.35.332-.265.624-.574.87-.92-.68-.14-1.38-.26-2.07-.37l-.15.07c-.89.41-1 .45-.82 1-.367-.113-.724-.253-1.07-.42l-4.44.44c3.1 2.86-2.37 3.16-4.36 3.35-.36 0-.51-.69-.32-.9.614-.108 1.236-.165 1.86-.17 1.87-.18 1.63-.28 1.45-2.15-1.67 1.5-1.73.16-3.77.35-1.572.036-3.108.477-4.46 1.28l1.77 1.25c-.7-.09-3-.77-3.62-.45-.27.15-.27.92-.63.95-1.42.13-5.23 1.28-5.38-.37h-.08c-3.357 1.83-6.424 4.15-9.1 6.88 1.362-.325 2.751-.52 4.15-.58.66.997 1.216 2.06 1.66 3.17.19 1.33-.67 1.93-1.22 3.25-.977 2.547-1.283 5.301-.89 8 0 .09 1.66 1.33 1.71 1.88.21 2.29.45 2.3 2.17 3.84l-.25-2.8c1.16 2.37 2.37 3.21 3.43 5.54 1.21 2.63 4.8.19 6.25 1.87.64.74 1.66.28 2.23 1l1.56 2c.94 1.19 1.91.66 3.38.52s6.64 5.77 6.68 6.18c.15 1.71-4.65 4.63-4.61 5.31.14 2 2.68 2.07 4.16 3.19 1.19.91.67 3.82.75 5.08.19 3 2.25 4.89 3 7.62.27 1 0 2.17.3 3.14.3.97 1.26 1.55 1.35 2.67.14 1.74 5 1.62 6 1.53 0 0-3.73-1.52-3.7-1.3-.16-1.65.7-1.61.61-2.62-.11-1.19-1.28-2.07-.76-3.83.52-1.76.48-1.83 2.46-2-.122-.835-.326-1.656-.61-2.45 1.51-2.93 5.36-6 6.38-6.8 1.39-1.15.31-3.81.81-5.32.45-1.33 2-2.67 2-4.25 0-1.21-1.14-1.41-2-1.3-.86.11-1.09-1.34-1.74-1.28-1.88.27-3.797-.082-5.46-1-.28-.17-.79-2.5-1.3-3-.72-.77-2.64.88-3.54-.18-.34-.4-1.21-2-1.7-2-.66.06-4.39-.31-5.09.46.11-.12-1.3-.41-1.49-.39.08 0-4.48 2.92-4.6 1.63-.15-1.68.47-3.92-1.51-3.74-3.18.3-.55-.78-.69-2.25-.17-1.87-3 .81-4.65 1 0 0-2.12-2.91-1.22-3 .65-.06.63-1.38 1-2 1.12-1.59 3.26-1.94 4.79-1.8 1.285.712 2.364 1.746 3.13 3 0-.13.84-.79 1-1 .37-.71.1-1 .15-1.66.15-2.3.21-2.76 1.88-4.3 1.434-1.137 2.735-2.432 3.88-3.86.625-.97 1.48-1.77 2.49-2.33-.11.07 1.16.64 1.41.61 1-.09 1.21-1 1.71-1.84l-1.81.16c1.9-1.75-1.86-2.22 2.22-2.6 2-.18 2.19-.17 3.29-1.71-2 .18-1.48.12-1.66-1.87 0-.34-.7-1.5-1.18-.94-1.3 1.56-1.41-.13-2.12-1-.93-1.15-1.69.19-2 1-.34 1-3.67 2.71-3.55 3.91.06.7-1.08.78-1.13 0-.08-1.17-4.23-1.92-4.33-2.38-.1-.46 1.79-2.42 3.61-2.59.84-.07.34-1 .6-1 1.73-.16 3.72-.89 4.54-2.38-.24 0-2.46.24-2.46.21-.08-.79-.46-1.25.45-1.33 2.14-.2 2.92 1.42 5.27 1.2l-2.35 2.07c1.18-.11 3.12 1.69 4 1 1.57-1.27.35-2.2 1.72-2.56.204.18.453.305.72.36.45.12 2 .25 2.34.63.34.38 1.44 3.22.86 3.52-.93.49-3.49 3.85-1.25 4.42 1.74.44 2.1-.35 3.51-1.43 1.41-1.08 1.72-.72 3.33-.31.748-.084 1.502-.084 2.25 0 1.36.35 1.19-.48 1.33-.45.769.197 1.581.134 2.31-.18-4.6-4.393-10.218-7.578-16.35-9.27" transform="translate(15 18)"/>
        <path fill="#FFF" d="M94.48 69.48l-.7.86c2.41-.23 4 .42 6.09.22-1.64-2.13-2.7-1.33-5.39-1.08M102.62 70.7c-1.94.12-2 .43-3.07 1.87l3.07-.28c.88-.08.62-1.62 0-1.59M105.56 72.48c-.25-2.73-2.77.25 0 0" transform="translate(15 18)"/>
        <path fill="#AADED3" d="M65.05 85.61C63.583 70.36 72.015 55.877 86 49.623c13.985-6.254 30.402-2.883 40.79 8.377-7.712-10.882-20.839-16.567-34.051-14.749C79.526 45.07 68.423 54.09 63.938 66.65 59.452 79.21 62.328 93.223 71.4 103c-3.6-5.13-5.79-11.117-6.35-17.36" transform="translate(15 18)"/>
        <path fill="#96D499" d="M104.89 43.5l.5.11.14-.12c-.213.015-.427.015-.64 0" transform="translate(15 18)"/>
        <path fill="#E4E7E1" d="M103.18 45.56c1.18-.11 3.12 1.69 4 1 1.17-.95.79-1.7 1.09-2.18-.94-.29-1.89-.55-2.85-.76l-2.21 2" transform="translate(15 18)"/>
        <path fill="#96D499" d="M104.89 43.5c-.39-.08-.77-.16-1.16-.22.375.124.765.198 1.16.22" transform="translate(15 18)"/>
        <path fill="#E4E7E1" d="M120.52 51.12c-2.456-2.068-5.18-3.793-8.1-5.13.39 1 .76 2.3.37 2.51l-.12.07c1.92.695 3.778 1.555 5.55 2.57h.16c.71-.088 1.426-.108 2.14-.06M97.55 46.61c.2-.3 0-.81.18-.82 1.73-.16 3.72-.89 4.54-2.38-.24 0-2.46.24-2.46.21 0-.33-.12-.6-.14-.81-.58 0-1.16-.06-1.74-.06.24 1.61-3.66 1.83-5.28 2-.36 0-.51-.69-.32-.9.614-.108 1.236-.165 1.86-.17 1.29-.13 1.57-.21 1.57-.87-.48 0-1 .06-1.44.1-1.961.168-3.905.503-5.81 1 .23.15.45.31.67.47-.27 0-.8-.16-1.37-.28-4.81 1.379-9.272 3.765-13.09 7 .546.934 1.03 1.903 1.45 2.9.19 1.33-.67 1.93-1.22 3.25 0 .09-.07.19-.1.28 5.926-6.238 13.913-10.114 22.48-10.91h.22M104.81 109.58c.33 1 1.26 1.55 1.35 2.67.14 1.74 5 1.62 6 1.53 0 0-3.73-1.52-3.7-1.3-.16-1.65.7-1.61.61-2.62-.11-1.19-1.28-2.07-.76-3.83.52-1.76.48-1.83 2.46-2-.122-.835-.326-1.656-.61-2.45 1.51-2.93 5.36-6 6.38-6.8 1.39-1.15.31-3.81.81-5.32.45-1.34 2-2.67 2-4.26-.003-.293-.101-.578-.28-.81-3.589 7.408-9.446 13.478-16.72 17.33.867 1.51 1.603 3.093 2.2 4.73.27 1 0 2.17.3 3.14" transform="translate(15 18)"/>
        <path fill="#B9B5AF" d="M99.925 124.269H105.35499999999999V139.06900000000002H99.925z" transform="translate(15 18) rotate(-5.28 102.64 131.669)"/>
        <path fill="#B9B5AF" d="M102.5 132.32s-6 .2-17.11 6.26l.23 2.49 17.53-1.62 17.53-1.62-.23-2.49c-12-3.93-18-3-18-3" transform="translate(15 18)"/>
        <path fill="#181314" d="M70.73 114.13c20.38 13.93 49.78 10 63.65-10.48C148.25 83.17 141.34 54 121 40c-1.087-.747-2.197-1.437-3.33-2.07-.316-.174-.587-.421-.79-.72-.062.069-.119.142-.17.22-.365.531-.492 1.19-.35 1.82.143.628.542 1.168 1.1 1.49 1.07.6 2.12 1.25 3.16 2 19.26 13.16 25.11 40.58 12 59.93s-40.26 23.26-59.52 10.1c-1-.71-2-1.45-3-2.23-.502-.404-1.15-.578-1.787-.481-.637.097-1.204.456-1.563.991 0 .08-.09.17-.14.26.367.07.711.232 1 .47 1 .82 2 1.61 3.14 2.35M110.68 132.85c0 .06-3.7 5.84-25.06 8.22l17.53-1.62 17.53-1.62-.23-2.49c-3.19-1.07-6.456-1.903-9.77-2.49" opacity=".1" transform="translate(15 18)"/>
        <path fill="#FFF" d="M35.2 67.22v.23c-6.92 1.028-12.244 6.645-12.9 13.61h-.21c-.651-6.96-5.982-12.572-12.9-13.58v-.28c6.915-1.015 12.242-6.622 12.9-13.58h.21c.66 6.96 5.984 12.573 12.9 13.6zM45.5 101.87v.13c-4.89.542-8.778 4.352-9.42 9.23h-.15c-.628-4.885-4.524-8.701-9.42-9.23v-.19c4.892-.531 8.784-4.341 9.42-9.22h.15c.624 4.896 4.516 8.73 9.42 9.28z" transform="translate(15 18)"/>
    </g>
</svg>
