<?xml version="1.0" encoding="utf-8"?>
<!-- Generator: Adobe Illustrator 24.0.2, SVG Export Plug-In . SVG Version: 6.00 Build 0)  -->
<svg version="1.1" id="Capa_1" xmlns="http://www.w3.org/2000/svg" xmlns:xlink="http://www.w3.org/1999/xlink" x="0px" y="0px"
	 viewBox="0 0 60.5 48" style="enable-background:new 0 0 60.5 48;" xml:space="preserve">
<style type="text/css">
	.st0{filter:url(#Adobe_OpacityMaskFilter);}
	.st1{fill-rule:evenodd;clip-rule:evenodd;fill:#FFFFFF;}
	.st2{mask:url(#mask-2_1_);fill-rule:evenodd;clip-rule:evenodd;fill:#B3337F;}
	.st3{filter:url(#Adobe_OpacityMaskFilter_1_);}
	.st4{mask:url(#mask-4_1_);fill-rule:evenodd;clip-rule:evenodd;fill:#B3337F;}
	.st5{filter:url(#Adobe_OpacityMaskFilter_2_);}
	.st6{mask:url(#mask-6_1_);fill:#B3337F;}
	.st7{fill:#B3337F;}
	.st8{filter:url(#Adobe_OpacityMaskFilter_3_);}
	.st9{mask:url(#mask-8_1_);fill-rule:evenodd;clip-rule:evenodd;fill:#B3337F;}
	.st10{filter:url(#Adobe_OpacityMaskFilter_4_);}
	.st11{mask:url(#mask-10_1_);fill-rule:evenodd;clip-rule:evenodd;fill:#B3337F;}
	.st12{filter:url(#Adobe_OpacityMaskFilter_5_);}
	.st13{mask:url(#mask-12_1_);fill:#B3337F;}
	.st14{fill-rule:evenodd;clip-rule:evenodd;fill:#B3337F;}
	.st15{filter:url(#Adobe_OpacityMaskFilter_6_);}
	.st16{mask:url(#mask-14_1_);fill-rule:evenodd;clip-rule:evenodd;fill:#B3337F;}
	.st17{filter:url(#Adobe_OpacityMaskFilter_7_);}
	.st18{mask:url(#mask-16_1_);fill-rule:evenodd;clip-rule:evenodd;fill:#B3337F;}
	.st19{filter:url(#Adobe_OpacityMaskFilter_8_);}
	.st20{mask:url(#mask-18_1_);fill-rule:evenodd;clip-rule:evenodd;fill:#B3337F;}
	.st21{filter:url(#Adobe_OpacityMaskFilter_9_);}
	.st22{mask:url(#mask-20_1_);fill-rule:evenodd;clip-rule:evenodd;fill:#B3337F;}
	.st23{filter:url(#Adobe_OpacityMaskFilter_10_);}
	.st24{mask:url(#mask-22_1_);fill-rule:evenodd;clip-rule:evenodd;fill:#B3337F;}
	.st25{filter:url(#Adobe_OpacityMaskFilter_11_);}
	.st26{mask:url(#mask-24_1_);fill-rule:evenodd;clip-rule:evenodd;fill:#B3337F;}
	.st27{filter:url(#Adobe_OpacityMaskFilter_12_);}
	.st28{mask:url(#mask-26_1_);fill-rule:evenodd;clip-rule:evenodd;fill:#B3337F;}
	.st29{filter:url(#Adobe_OpacityMaskFilter_13_);}
	.st30{mask:url(#mask-28_1_);fill-rule:evenodd;clip-rule:evenodd;fill:#B3337F;}
</style>
<title>logo_aprende@2x</title>
<desc>Created with Sketch.</desc>
<g id="Screens">
	<g id="Nivel-educativo-_Select-Copy-3" transform="translate(-970.000000, -21.000000)">
		<g id="logo_aprende" transform="translate(970.000000, 21.000000)">
			<g id="Group-394" transform="translate(29.700000, 2.376000)">
				<g id="Group-387">
					<g id="Clip-386">
					</g>
					<defs>
						<filter id="Adobe_OpacityMaskFilter" filterUnits="userSpaceOnUse" x="3.6" y="2.3" width="23.5" height="14.4">
							<feColorMatrix  type="matrix" values="1 0 0 0 0  0 1 0 0 0  0 0 1 0 0  0 0 0 1 0"/>
						</filter>
					</defs>
					<mask maskUnits="userSpaceOnUse" x="3.6" y="2.3" width="23.5" height="14.4" id="mask-2_1_">
						<g class="st0">
							<polygon id="path-1_1_" class="st1" points="0.6,2.3 25.5,17.5 26.9,15.4 1.6,0.5 							"/>
						</g>
					</mask>
					<polygon id="Fill-385" class="st2" points="27.1,16.6 3.6,2.4 3.7,2.3 27.1,16.5 					"/>
				</g>
				<g id="Group-390">
					<g id="Clip-389">
					</g>
					<defs>
						<filter id="Adobe_OpacityMaskFilter_1_" filterUnits="userSpaceOnUse" x="3.5" y="2.9" width="23.5" height="14.4">
							<feColorMatrix  type="matrix" values="1 0 0 0 0  0 1 0 0 0  0 0 1 0 0  0 0 0 1 0"/>
						</filter>
					</defs>
					<mask maskUnits="userSpaceOnUse" x="3.5" y="2.9" width="23.5" height="14.4" id="mask-4_1_">
						<g class="st3">
							<polygon id="path-3_1_" class="st1" points="0.6,2.3 25.5,17.5 26.9,15.4 1.6,0.5 							"/>
						</g>
					</mask>
					<polygon id="Fill-388" class="st4" points="26.9,17.2 3.5,3 3.5,2.9 27,17.1 					"/>
				</g>
				<g id="Group-393">
					<g id="Clip-392">
					</g>
					<defs>
						<filter id="Adobe_OpacityMaskFilter_2_" filterUnits="userSpaceOnUse" x="4.9" y="19.6" width="23.4" height="14.3">
							<feColorMatrix  type="matrix" values="1 0 0 0 0  0 1 0 0 0  0 0 1 0 0  0 0 0 1 0"/>
						</filter>
					</defs>
					<mask maskUnits="userSpaceOnUse" x="4.9" y="19.6" width="23.4" height="14.3" id="mask-6_1_">
						<g class="st5">
							<polyline id="path-5_1_" class="st1" points="0.6,2.3 25.5,17.5 26.9,15.4 1.6,0.5 							"/>
						</g>
					</mask>
					<line id="Stroke-391" class="st6" x1="28.3" y1="33.9" x2="4.9" y2="19.6"/>
				</g>
			</g>
			<polygon id="Stroke-395" class="st7" points="30.3,4.7 31.3,2.9 56.6,17.8 55.2,19.8 			"/>
			<g id="Group-406" transform="translate(4.158000, 2.376000)">
				<g id="Group-399">
					<g id="Clip-398">
					</g>
					<defs>
						<filter id="Adobe_OpacityMaskFilter_3_" filterUnits="userSpaceOnUse" x="0" y="2.3" width="23.5" height="14.4">
							<feColorMatrix  type="matrix" values="1 0 0 0 0  0 1 0 0 0  0 0 1 0 0  0 0 0 1 0"/>
						</filter>
					</defs>
					<mask maskUnits="userSpaceOnUse" x="0" y="2.3" width="23.5" height="14.4" id="mask-8_1_">
						<g class="st8">
							<polygon id="path-7_1_" class="st1" points="0.2,15.5 1.5,17.5 26.5,2.3 25.4,0.5 							"/>
						</g>
					</mask>
					<polygon id="Fill-397" class="st9" points="0,16.6 0,16.5 23.4,2.3 23.4,2.4 					"/>
				</g>
				<g id="Group-402">
					<g id="Clip-401">
					</g>
					<defs>
						<filter id="Adobe_OpacityMaskFilter_4_" filterUnits="userSpaceOnUse" x="0.1" y="2.9" width="23.5" height="14.4">
							<feColorMatrix  type="matrix" values="1 0 0 0 0  0 1 0 0 0  0 0 1 0 0  0 0 0 1 0"/>
						</filter>
					</defs>
					<mask maskUnits="userSpaceOnUse" x="0.1" y="2.9" width="23.5" height="14.4" id="mask-10_1_">
						<g class="st10">
							<polygon id="path-9_1_" class="st1" points="0.2,15.5 1.5,17.5 26.5,2.3 25.4,0.5 							"/>
						</g>
					</mask>
					<polygon id="Fill-400" class="st11" points="0.1,17.2 0.1,17.1 23.5,2.9 23.6,3 					"/>
				</g>
				<g id="Group-405">
					<g id="Clip-404">
					</g>
					<defs>
						<filter id="Adobe_OpacityMaskFilter_5_" filterUnits="userSpaceOnUse" x="-1.2" y="19.6" width="23.4" height="14.3">
							<feColorMatrix  type="matrix" values="1 0 0 0 0  0 1 0 0 0  0 0 1 0 0  0 0 0 1 0"/>
						</filter>
					</defs>
					<mask maskUnits="userSpaceOnUse" x="-1.2" y="19.6" width="23.4" height="14.3" id="mask-12_1_">
						<g class="st12">
							<polyline id="path-11_1_" class="st1" points="0.2,15.5 1.5,17.5 26.5,2.3 25.4,0.5 							"/>
						</g>
					</mask>
					<line id="Stroke-403" class="st13" x1="-1.2" y1="33.9" x2="22.2" y2="19.6"/>
				</g>
			</g>
			<g id="Group-433">
				<polygon id="Stroke-407" class="st7" points="30.6,4.7 29.6,2.9 4.3,17.8 5.7,19.8 				"/>
				<path id="Fill-409" class="st14" d="M28,4.5c0.6,0.6,1.1,1.3,2.5,1.3c1.4-0.1,1.9-0.7,2.5-1.3L59,19.5l1.5-2.5L32.2,0.5
					c-1-0.6-2.3-0.6-3.4,0L0.5,17l1.5,2.5L28,4.5z"/>
				<path id="Fill-411" class="st14" d="M40.3,39c-3.9,0-7-3.2-7-7c0-0.3,0-0.6,0.1-0.9l0.4,0.1c0,0.3,0,0.5,0,0.8
					c0,3.6,3,6.6,6.6,6.6s6.6-3,6.6-6.6c0-0.2,0-0.5,0-0.7l0.4,0c0,0.2,0,0.5,0,0.7C47.4,35.8,44.2,39,40.3,39"/>
				<path id="Fill-413" class="st14" d="M47.7,29.7l0.6-2.2c0-0.1-0.1-0.2-0.2-0.2l-0.6,0.2c-0.1,0-0.2,0-0.2-0.2v-3
					c0-0.1-0.1-0.2-0.2-0.2L46,24.5c-0.1,0-0.1,0-0.2-0.1l-1.1-1.8c0-0.1-0.1-0.1-0.2-0.1l-1.2,0.3c-0.1,0-0.1,0-0.2,0L42,21.3
					c0-0.1-0.1-0.1-0.2,0l-1.7,1c-0.1,0-0.1,0-0.2,0l-0.7-0.6c-0.1-0.1-0.2,0-0.2,0l-0.8,1c-0.1,0.1-0.2,0.1-0.2,0l-0.9-1
					c-0.1-0.1-0.2-0.1-0.3,0l-0.9,2c0,0.1-0.1,0.1-0.2,0.1l-1-0.2c-0.1,0-0.2,0-0.2,0.1l-0.2,1.8c0,0.1-0.1,0.2-0.2,0.1l-0.6-0.2
					c-0.1,0-0.2,0.1-0.2,0.2l0.4,1.7c0,0.1,0,0.1-0.1,0.2l-0.9,0.5c-0.1,0-0.1,0.1-0.1,0.2l0.6,1.3c0,0.1,0,0.2-0.1,0.2l-0.4,0.1
					c-0.1,0-0.1,0.1-0.1,0.2l0.6,1.9c0,0,0,0,0,0c0,0.1,0,0.3,0.2,0.3c0,0,0.2,0.1,0.3,0.2c0.1,0,0.1,0,0.2,0l0.7-0.5
					c0,0,0.1-0.1,0.1-0.2l-0.5-2.5c0-0.1,0.1-0.2,0.2-0.2l0.4,0.2c0.1,0,0.2,0,0.2-0.1l0.3-1.2c0-0.1,0.1-0.1,0.2-0.1l1.1,0.4
					c0.1,0,0.2,0,0.2-0.1l0-1c0-0.1,0.1-0.2,0.2-0.1l0.6,0.4c0.1,0,0.2,0,0.2,0l1.1-1.4c0.1-0.1,0.2-0.1,0.2,0l0.7,1.1
					c0.1,0.1,0.2,0.1,0.3,0l0.6-1c0.1-0.1,0.2-0.1,0.3,0l0.6,1.2c0.1,0.1,0.2,0.1,0.3,0l0.6-0.9c0.1-0.1,0.2-0.1,0.3,0l0.8,1.7
					c0,0.1,0.1,0.1,0.2,0.1l1.5-0.7c0.1,0,0.2,0,0.2,0.1l0.1,1.1c0,0.1,0.1,0.2,0.2,0.1l0.4-0.2c0.1-0.1,0.2,0,0.2,0.2l0,0.7
					c0,0.1,0.1,0.2,0.2,0.2c0.1,0,0.2,0.1,0.1,0.2l-0.5,2.1c0,0,0,0.1,0,0.1l0.3,0.5c0.1,0.1,0.2,0.1,0.3,0l1.6-2.3
					c0.1-0.1,0-0.2-0.1-0.2l-0.5-0.1C47.8,29.9,47.7,29.8,47.7,29.7"/>
				<path id="Fill-415" class="st14" d="M40.6,36.8c-1.7,0-3.1-1.1-3.2-1.1c-0.1-0.1-0.1-0.2,0-0.2c0.1-0.1,0.2-0.1,0.2,0
					c0,0,1.4,1.1,3,1.1c1.6,0,2.9-1.1,2.9-1.1c0.1-0.1,0.2,0,0.2,0c0.1,0.1,0,0.2,0,0.2C43.7,35.7,42.3,36.8,40.6,36.8"/>
				<path id="Fill-417" class="st14" d="M38.8,32.3c0,0.4-0.3,0.8-0.6,0.8s-0.6-0.4-0.6-0.8c0-0.4,0.3-0.8,0.6-0.8
					S38.8,31.9,38.8,32.3"/>
				<path id="Fill-419" class="st14" d="M43.5,32.3c0,0.4-0.3,0.8-0.6,0.8s-0.6-0.4-0.6-0.8c0-0.4,0.3-0.8,0.6-0.8
					S43.5,31.9,43.5,32.3"/>
				<path id="Fill-421" class="st14" d="M29.1,29c0-0.1,0-0.3,0-0.4l0,0c0,0,0,0,0,0C28.8,24.9,25,22,21.2,22c-4.1,0-7.5,3-8.1,6.9
					l0.4,0.4l1.4-0.7c0,0,2.8-1.4,4.6-1.4c0,0,3.9,3.8,8.3,2.7l1-1C29,28.9,29.1,29,29.1,29"/>
				<path id="Fill-423" class="st14" d="M20.9,38.5c-3.5,0-6.4-2.9-6.4-6.4c0-3.5,2.9-6.4,6.4-6.4s6.4,2.9,6.4,6.4
					C27.3,35.6,24.4,38.5,20.9,38.5 M29.7,36.6c0.9-6.1-0.6-7.7-0.6-7.7l-2.9-1.1c-1.3-1.6-3.2-2.6-5.4-2.6c-2.3,0-4.3,1.1-5.5,2.8
					L13,28.9c0,0-1.5,1.6-0.6,7.7c0,0,0.6,1.6-1.4,1.9c0,0,2.5,3.6,5.2-1.4c0,0,0,0,0,0c1.2,1.1,2.8,1.8,4.6,1.8
					c1.9,0,3.6-0.8,4.9-2.1c0,0.1,0.1,0.2,0.2,0.3c2.8,5,5.2,1.4,5.2,1.4C29.1,38.2,29.7,36.6,29.7,36.6"/>
				<path id="Fill-425" class="st14" d="M19.4,32.4c0,0.4-0.2,0.8-0.6,0.8c-0.3,0-0.6-0.3-0.6-0.8c0-0.4,0.2-0.8,0.6-0.8
					C19.1,31.7,19.4,32,19.4,32.4"/>
				<path id="Fill-427" class="st14" d="M24,32.4c0,0.4-0.2,0.8-0.6,0.8c-0.3,0-0.6-0.3-0.6-0.8c0-0.4,0.2-0.8,0.6-0.8
					C23.7,31.7,24,32,24,32.4"/>
				<path id="Fill-429" class="st14" d="M21.1,36.8c-1.6,0-3-1.1-3.1-1.1c-0.1-0.1-0.1-0.2,0-0.2c0.1-0.1,0.2-0.1,0.2,0
					c0,0,1.4,1,2.9,1c1.5,0,2.8-1,2.9-1c0.1-0.1,0.2,0,0.2,0c0.1,0.1,0,0.2,0,0.2C24.1,35.7,22.8,36.8,21.1,36.8"/>
				<polygon id="Fill-431" class="st14" points="4.3,47.5 10.1,47.5 10.1,21.1 4.3,21.1 				"/>
			</g>
			<g id="Group-446" transform="translate(4.158000, 21.978000)">
				<g id="Group-436" transform="translate(0.000000, 19.602000)">
					<g id="Clip-435">
					</g>
					<defs>
						<filter id="Adobe_OpacityMaskFilter_6_" filterUnits="userSpaceOnUse" x="-0.6" y="0.5" width="7.6" height="1.6">
							<feColorMatrix  type="matrix" values="1 0 0 0 0  0 1 0 0 0  0 0 1 0 0  0 0 0 1 0"/>
						</filter>
					</defs>
					<mask maskUnits="userSpaceOnUse" x="-0.6" y="0.5" width="7.6" height="1.6" id="mask-14_1_">
						<g class="st15">
							<polygon id="path-13_1_" class="st1" points="0.2,0.5 6,0.5 6,2.1 0.2,2.1 							"/>
						</g>
					</mask>
					<polygon id="Fill-434" class="st16" points="-0.6,2.1 7,2.1 7,0.5 -0.6,0.5 					"/>
				</g>
				<g id="Group-439" transform="translate(0.000000, 22.572000)">
					<g id="Clip-438">
					</g>
					<defs>
						<filter id="Adobe_OpacityMaskFilter_7_" filterUnits="userSpaceOnUse" x="-0.9" y="0.1" width="7.6" height="1.6">
							<feColorMatrix  type="matrix" values="1 0 0 0 0  0 1 0 0 0  0 0 1 0 0  0 0 0 1 0"/>
						</filter>
					</defs>
					<mask maskUnits="userSpaceOnUse" x="-0.9" y="0.1" width="7.6" height="1.6" id="mask-16_1_">
						<g class="st17">
							<polygon id="path-15_1_" class="st1" points="0.2,0.1 6,0.1 6,1.7 0.2,1.7 							"/>
						</g>
					</mask>
					<polygon id="Fill-437" class="st18" points="-0.9,1.7 6.7,1.7 6.7,0.1 -0.9,0.1 					"/>
				</g>
				<g id="Group-442">
					<g id="Clip-441">
					</g>
					<defs>
						<filter id="Adobe_OpacityMaskFilter_8_" filterUnits="userSpaceOnUse" x="-0.6" y="0.4" width="7.6" height="1.6">
							<feColorMatrix  type="matrix" values="1 0 0 0 0  0 1 0 0 0  0 0 1 0 0  0 0 0 1 0"/>
						</filter>
					</defs>
					<mask maskUnits="userSpaceOnUse" x="-0.6" y="0.4" width="7.6" height="1.6" id="mask-18_1_">
						<g class="st19">
							<polygon id="path-17_1_" class="st1" points="0.2,0.4 6,0.4 6,2 0.2,2 							"/>
						</g>
					</mask>
					<polygon id="Fill-440" class="st20" points="-0.6,2 7,2 7,0.4 -0.6,0.4 					"/>
				</g>
				<g id="Group-445" transform="translate(0.000000, 2.376000)">
					<g id="Clip-444">
					</g>
					<defs>
						<filter id="Adobe_OpacityMaskFilter_9_" filterUnits="userSpaceOnUse" x="-0.9" y="0.6" width="7.6" height="1.6">
							<feColorMatrix  type="matrix" values="1 0 0 0 0  0 1 0 0 0  0 0 1 0 0  0 0 0 1 0"/>
						</filter>
					</defs>
					<mask maskUnits="userSpaceOnUse" x="-0.9" y="0.6" width="7.6" height="1.6" id="mask-20_1_">
						<g class="st21">
							<polygon id="path-19_1_" class="st1" points="0.2,0.6 6,0.6 6,2.2 0.2,2.2 							"/>
						</g>
					</mask>
					<polygon id="Fill-443" class="st22" points="-0.9,2.2 6.7,2.2 6.7,0.6 -0.9,0.6 					"/>
				</g>
			</g>
			<polygon id="Fill-447" class="st14" points="50.8,47.5 56.6,47.5 56.6,21.1 50.8,21.1 			"/>
			<g id="Group-461" transform="translate(50.490000, 21.978000)">
				<g id="Group-451" transform="translate(0.000000, 19.602000)">
					<g id="Clip-450">
					</g>
					<defs>
						<filter id="Adobe_OpacityMaskFilter_10_" filterUnits="userSpaceOnUse" x="-0.5" y="0.5" width="7.6" height="1.6">
							<feColorMatrix  type="matrix" values="1 0 0 0 0  0 1 0 0 0  0 0 1 0 0  0 0 0 1 0"/>
						</filter>
					</defs>
					<mask maskUnits="userSpaceOnUse" x="-0.5" y="0.5" width="7.6" height="1.6" id="mask-22_1_">
						<g class="st23">
							<polygon id="path-21_1_" class="st1" points="0.3,0.5 6.1,0.5 6.1,2.1 0.3,2.1 							"/>
						</g>
					</mask>
					<polygon id="Fill-449" class="st24" points="-0.5,2.1 7.1,2.1 7.1,0.5 -0.5,0.5 					"/>
				</g>
				<g id="Group-454" transform="translate(0.000000, 22.572000)">
					<g id="Clip-453">
					</g>
					<defs>
						<filter id="Adobe_OpacityMaskFilter_11_" filterUnits="userSpaceOnUse" x="-0.7" y="0.1" width="7.6" height="1.6">
							<feColorMatrix  type="matrix" values="1 0 0 0 0  0 1 0 0 0  0 0 1 0 0  0 0 0 1 0"/>
						</filter>
					</defs>
					<mask maskUnits="userSpaceOnUse" x="-0.7" y="0.1" width="7.6" height="1.6" id="mask-24_1_">
						<g class="st25">
							<polygon id="path-23_1_" class="st1" points="0.3,0.1 6.1,0.1 6.1,1.7 0.3,1.7 							"/>
						</g>
					</mask>
					<polygon id="Fill-452" class="st26" points="-0.7,1.7 6.8,1.7 6.8,0.1 -0.7,0.1 					"/>
				</g>
				<g id="Group-457">
					<g id="Clip-456">
					</g>
					<defs>
						<filter id="Adobe_OpacityMaskFilter_12_" filterUnits="userSpaceOnUse" x="-0.5" y="0.4" width="7.6" height="1.6">
							<feColorMatrix  type="matrix" values="1 0 0 0 0  0 1 0 0 0  0 0 1 0 0  0 0 0 1 0"/>
						</filter>
					</defs>
					<mask maskUnits="userSpaceOnUse" x="-0.5" y="0.4" width="7.6" height="1.6" id="mask-26_1_">
						<g class="st27">
							<polygon id="path-25_1_" class="st1" points="0.3,0.4 6.1,0.4 6.1,2 0.3,2 							"/>
						</g>
					</mask>
					<polygon id="Fill-455" class="st28" points="-0.5,2 7.1,2 7.1,0.4 -0.5,0.4 					"/>
				</g>
				<g id="Group-460" transform="translate(0.000000, 2.376000)">
					<g id="Clip-459">
					</g>
					<defs>
						<filter id="Adobe_OpacityMaskFilter_13_" filterUnits="userSpaceOnUse" x="-0.7" y="0.6" width="7.6" height="1.6">
							<feColorMatrix  type="matrix" values="1 0 0 0 0  0 1 0 0 0  0 0 1 0 0  0 0 0 1 0"/>
						</filter>
					</defs>
					<mask maskUnits="userSpaceOnUse" x="-0.7" y="0.6" width="7.6" height="1.6" id="mask-28_1_">
						<g class="st29">
							<polygon id="path-27_1_" class="st1" points="0.3,0.6 6.1,0.6 6.1,2.2 0.3,2.2 							"/>
						</g>
					</mask>
					<polygon id="Fill-458" class="st30" points="-0.7,2.2 6.8,2.2 6.8,0.6 -0.7,0.6 					"/>
				</g>
			</g>
		</g>
	</g>
</g>
</svg>
