<svg width="305" height="68" viewBox="0 0 305 68" fill="none" xmlns="http://www.w3.org/2000/svg">
<path d="M275 2H35C18.4315 2 5 15.4315 5 32C5 48.5685 18.4315 62 35 62H275C291.569 62 305 48.5685 305 32C305 15.4315 291.569 2 275 2Z" fill="#B3337F"/>
<path d="M265.002 39.0292C264.768 39.0297 264.542 38.9483 264.362 38.7992C264.157 38.6297 264.029 38.3857 264.004 38.1212C263.98 37.8567 264.062 37.5933 264.232 37.3892L268.712 32.0292L264.392 26.6592C264.224 26.4526 264.145 26.1877 264.174 25.9231C264.202 25.6584 264.334 25.4159 264.542 25.2492C264.751 25.0652 265.027 24.9768 265.305 25.0052C265.582 25.0337 265.834 25.1765 266.002 25.3992L270.832 31.3992C271.135 31.7682 271.135 32.3002 270.832 32.6692L265.832 38.6692C265.628 38.9147 265.32 39.0484 265.002 39.0292Z" fill="white"/>
<path d="M88.261 38L93.913 25.31H95.461L101.131 38H99.223L97.891 34.904H91.465L90.151 38H88.261ZM94.669 27.38L92.131 33.392H97.261L94.705 27.38H94.669ZM105.457 38.162C104.497 38.162 103.777 37.892 103.297 37.352C102.829 36.812 102.595 36.02 102.595 34.976V25.31H104.413V34.868C104.413 36.056 104.899 36.65 105.871 36.65C106.015 36.65 106.147 36.644 106.267 36.632C106.399 36.62 106.531 36.596 106.663 36.56L106.627 38.018C106.219 38.114 105.829 38.162 105.457 38.162ZM111.647 38.162C110.543 38.162 109.721 37.88 109.181 37.316C108.641 36.752 108.371 35.936 108.371 34.868V30.62H106.661V29.216H108.371V26.57H110.189V29.216H112.907V30.62H110.189V34.724C110.189 35.36 110.321 35.84 110.585 36.164C110.861 36.488 111.305 36.65 111.917 36.65C112.109 36.65 112.295 36.632 112.475 36.596C112.655 36.548 112.835 36.494 113.015 36.434L113.303 37.802C113.123 37.91 112.871 37.994 112.547 38.054C112.235 38.126 111.935 38.162 111.647 38.162ZM117.286 38.162C116.674 38.162 116.128 38.042 115.648 37.802C115.168 37.562 114.784 37.238 114.496 36.83C114.22 36.422 114.082 35.96 114.082 35.444C114.082 34.796 114.244 34.286 114.568 33.914C114.904 33.542 115.45 33.272 116.206 33.104C116.974 32.936 118.006 32.852 119.302 32.852H119.914V32.384C119.914 31.7 119.77 31.208 119.482 30.908C119.194 30.608 118.72 30.458 118.06 30.458C117.556 30.458 117.052 30.536 116.548 30.692C116.044 30.836 115.528 31.07 115 31.394L114.442 30.116C114.898 29.792 115.468 29.534 116.152 29.342C116.836 29.15 117.49 29.054 118.114 29.054C119.314 29.054 120.202 29.342 120.778 29.918C121.354 30.482 121.642 31.37 121.642 32.582V38H119.932V36.542C119.716 37.046 119.38 37.442 118.924 37.73C118.468 38.018 117.922 38.162 117.286 38.162ZM117.646 36.866C118.294 36.866 118.834 36.638 119.266 36.182C119.698 35.726 119.914 35.15 119.914 34.454V33.968H119.32C118.444 33.968 117.754 34.01 117.25 34.094C116.758 34.178 116.404 34.322 116.188 34.526C115.984 34.718 115.882 34.988 115.882 35.336C115.882 35.792 116.038 36.164 116.35 36.452C116.662 36.728 117.094 36.866 117.646 36.866ZM132.222 38.162C131.454 38.162 130.776 37.982 130.188 37.622C129.612 37.25 129.162 36.722 128.838 36.038C128.514 35.354 128.352 34.544 128.352 33.608C128.352 32.672 128.514 31.868 128.838 31.196C129.162 30.512 129.612 29.984 130.188 29.612C130.764 29.24 131.442 29.054 132.222 29.054C132.882 29.054 133.47 29.198 133.986 29.486C134.502 29.774 134.886 30.164 135.138 30.656V25.31H136.956V38H135.174V36.47C134.922 36.998 134.532 37.412 134.004 37.712C133.488 38.012 132.894 38.162 132.222 38.162ZM132.69 36.758C133.434 36.758 134.034 36.488 134.49 35.948C134.946 35.408 135.174 34.628 135.174 33.608C135.174 32.588 134.946 31.814 134.49 31.286C134.034 30.746 133.434 30.476 132.69 30.476C131.934 30.476 131.328 30.746 130.872 31.286C130.416 31.814 130.188 32.588 130.188 33.608C130.188 34.628 130.416 35.408 130.872 35.948C131.328 36.488 131.934 36.758 132.69 36.758ZM143.631 38.162C142.191 38.162 141.057 37.76 140.229 36.956C139.401 36.14 138.987 35.03 138.987 33.626C138.987 32.726 139.167 31.934 139.527 31.25C139.899 30.554 140.409 30.014 141.057 29.63C141.705 29.246 142.449 29.054 143.289 29.054C144.501 29.054 145.455 29.444 146.151 30.224C146.847 30.992 147.195 32.054 147.195 33.41V34.022H140.751C140.883 35.846 141.849 36.758 143.649 36.758C144.153 36.758 144.645 36.68 145.125 36.524C145.617 36.368 146.079 36.11 146.511 35.75L147.051 37.01C146.655 37.37 146.145 37.652 145.521 37.856C144.897 38.06 144.267 38.162 143.631 38.162ZM143.361 30.332C142.605 30.332 142.005 30.566 141.561 31.034C141.117 31.502 140.847 32.126 140.751 32.906H145.665C145.629 32.09 145.413 31.46 145.017 31.016C144.621 30.56 144.069 30.332 143.361 30.332ZM157.775 38.162C156.875 38.162 156.095 37.976 155.435 37.604C154.787 37.22 154.283 36.686 153.923 36.002C153.563 35.306 153.383 34.49 153.383 33.554C153.383 32.162 153.779 31.064 154.571 30.26C155.363 29.456 156.431 29.054 157.775 29.054C158.327 29.054 158.873 29.15 159.413 29.342C159.953 29.534 160.397 29.798 160.745 30.134L160.169 31.412C159.833 31.1 159.461 30.872 159.053 30.728C158.657 30.572 158.279 30.494 157.919 30.494C157.067 30.494 156.407 30.764 155.939 31.304C155.483 31.832 155.255 32.588 155.255 33.572C155.255 34.556 155.483 35.33 155.939 35.894C156.407 36.446 157.067 36.722 157.919 36.722C158.279 36.722 158.657 36.65 159.053 36.506C159.461 36.35 159.833 36.116 160.169 35.804L160.745 37.1C160.397 37.424 159.947 37.682 159.395 37.874C158.855 38.066 158.315 38.162 157.775 38.162ZM165.948 38.162C165.06 38.162 164.292 37.976 163.644 37.604C162.996 37.232 162.492 36.71 162.132 36.038C161.784 35.354 161.61 34.544 161.61 33.608C161.61 32.672 161.784 31.868 162.132 31.196C162.492 30.512 162.996 29.984 163.644 29.612C164.292 29.24 165.06 29.054 165.948 29.054C166.812 29.054 167.568 29.24 168.216 29.612C168.864 29.984 169.368 30.512 169.728 31.196C170.088 31.868 170.268 32.672 170.268 33.608C170.268 34.544 170.088 35.354 169.728 36.038C169.368 36.71 168.864 37.232 168.216 37.604C167.568 37.976 166.812 38.162 165.948 38.162ZM165.948 36.758C166.692 36.758 167.292 36.488 167.748 35.948C168.204 35.408 168.432 34.628 168.432 33.608C168.432 32.588 168.204 31.814 167.748 31.286C167.292 30.746 166.692 30.476 165.948 30.476C165.192 30.476 164.586 30.746 164.13 31.286C163.674 31.814 163.446 32.588 163.446 33.608C163.446 34.628 163.674 35.408 164.13 35.948C164.586 36.488 165.192 36.758 165.948 36.758ZM172.31 38V29.216H174.074V30.782C174.53 29.738 175.478 29.156 176.918 29.036L177.512 29L177.638 30.548L176.54 30.656C174.944 30.812 174.146 31.634 174.146 33.122V38H172.31ZM179.025 38V29.216H180.789V30.782C181.245 29.738 182.193 29.156 183.633 29.036L184.227 29L184.353 30.548L183.255 30.656C181.659 30.812 180.861 31.634 180.861 33.122V38H179.025ZM189.738 38.162C188.298 38.162 187.164 37.76 186.336 36.956C185.508 36.14 185.094 35.03 185.094 33.626C185.094 32.726 185.274 31.934 185.634 31.25C186.006 30.554 186.516 30.014 187.164 29.63C187.812 29.246 188.556 29.054 189.396 29.054C190.608 29.054 191.562 29.444 192.258 30.224C192.954 30.992 193.302 32.054 193.302 33.41V34.022H186.858C186.99 35.846 187.956 36.758 189.756 36.758C190.26 36.758 190.752 36.68 191.232 36.524C191.724 36.368 192.186 36.11 192.618 35.75L193.158 37.01C192.762 37.37 192.252 37.652 191.628 37.856C191.004 38.06 190.374 38.162 189.738 38.162ZM189.468 30.332C188.712 30.332 188.112 30.566 187.668 31.034C187.224 31.502 186.954 32.126 186.858 32.906H191.772C191.736 32.09 191.52 31.46 191.124 31.016C190.728 30.56 190.176 30.332 189.468 30.332ZM199.1 38.162C198.212 38.162 197.444 37.976 196.796 37.604C196.148 37.232 195.644 36.71 195.284 36.038C194.936 35.354 194.762 34.544 194.762 33.608C194.762 32.672 194.936 31.868 195.284 31.196C195.644 30.512 196.148 29.984 196.796 29.612C197.444 29.24 198.212 29.054 199.1 29.054C199.964 29.054 200.72 29.24 201.368 29.612C202.016 29.984 202.52 30.512 202.88 31.196C203.24 31.868 203.42 32.672 203.42 33.608C203.42 34.544 203.24 35.354 202.88 36.038C202.52 36.71 202.016 37.232 201.368 37.604C200.72 37.976 199.964 38.162 199.1 38.162ZM199.1 36.758C199.844 36.758 200.444 36.488 200.9 35.948C201.356 35.408 201.584 34.628 201.584 33.608C201.584 32.588 201.356 31.814 200.9 31.286C200.444 30.746 199.844 30.476 199.1 30.476C198.344 30.476 197.738 30.746 197.282 31.286C196.826 31.814 196.598 32.588 196.598 33.608C196.598 34.628 196.826 35.408 197.282 35.948C197.738 36.488 198.344 36.758 199.1 36.758Z" fill="white"/>
<g filter="url(#filter0_d)">
<path d="M34 62C50.5685 62 64 48.5685 64 32C64 15.4315 50.5685 2 34 2C17.4315 2 4 15.4315 4 32C4 48.5685 17.4315 62 34 62Z" fill="black"/>
</g>
<path d="M34 62C50.5685 62 64 48.5685 64 32C64 15.4315 50.5685 2 34 2C17.4315 2 4 15.4315 4 32C4 48.5685 17.4315 62 34 62Z" fill="white"/>
<path d="M26.1484 31.25C26.1484 29.7389 26.5648 28.3233 27.2881 27.1112V21.9698H22.1467C20.1061 24.62 19 27.8499 19 31.25C19 34.6502 20.1061 37.88 22.1467 40.5302H27.2881V35.3888C26.5648 34.1767 26.1484 32.7611 26.1484 31.25Z" fill="#FBBD00"/>
<path d="M34.25 39.3516L30.6758 42.9258L34.25 46.5C37.6502 46.5 40.88 45.3939 43.5302 43.3533V38.2174H38.3942C37.1716 38.9433 35.75 39.3516 34.25 39.3516Z" fill="#0F9D58"/>
<path d="M27.2881 35.3888L22.1467 40.5302C22.5507 41.0549 22.9906 41.5573 23.4666 42.0334C26.347 44.9137 30.1766 46.5 34.25 46.5V39.3516C31.2939 39.3516 28.703 37.7598 27.2881 35.3888Z" fill="#31AA52"/>
<path d="M49.5 31.25C49.5 30.3222 49.416 29.3926 49.2503 28.4873L49.1162 27.7546H34.25V34.9031H41.4849C40.7824 36.3007 39.7021 37.4409 38.3942 38.2174L43.5301 43.3534C44.0548 42.9494 44.5573 42.5094 45.0334 42.0334C47.9137 39.153 49.5 35.3234 49.5 31.25Z" fill="#3C79E6"/>
<path d="M39.9787 25.5213L40.6105 26.1531L45.6652 21.0984L45.0334 20.4666C42.1531 17.5863 38.3235 16 34.25 16L30.6758 19.5742L34.25 23.1484C36.414 23.1484 38.4485 23.9911 39.9787 25.5213Z" fill="#CF2D48"/>
<path d="M34.25 23.1484V16C30.1766 16 26.347 17.5863 23.4666 20.4666C22.9906 20.9426 22.5506 21.4451 22.1466 21.9698L27.288 27.1112C28.703 24.7402 31.2939 23.1484 34.25 23.1484Z" fill="#EB4132"/>
<defs>
<filter id="filter0_d" x="0" y="0" width="68" height="68" filterUnits="userSpaceOnUse" color-interpolation-filters="sRGB">
<feFlood flood-opacity="0" result="BackgroundImageFix"/>
<feColorMatrix in="SourceAlpha" type="matrix" values="0 0 0 0 0 0 0 0 0 0 0 0 0 0 0 0 0 0 127 0"/>
<feOffset dy="2"/>
<feGaussianBlur stdDeviation="2"/>
<feColorMatrix type="matrix" values="0 0 0 0 0.682462 0 0 0 0 0.682462 0 0 0 0 0.682462 0 0 0 0.224104 0"/>
<feBlend mode="normal" in2="BackgroundImageFix" result="effect1_dropShadow"/>
<feBlend mode="normal" in="SourceGraphic" in2="effect1_dropShadow" result="shape"/>
</filter>
</defs>
</svg>
