<svg width="305" height="68" viewBox="0 0 305 68" fill="none" xmlns="http://www.w3.org/2000/svg">
<path d="M275 2H35C18.4315 2 5 15.4315 5 32C5 48.5685 18.4315 62 35 62H275C291.569 62 305 48.5685 305 32C305 15.4315 291.569 2 275 2Z" fill="#B3337F"/>
<path d="M265.002 39.0292C264.768 39.0297 264.542 38.9483 264.362 38.7992C264.157 38.6297 264.029 38.3857 264.004 38.1212C263.98 37.8567 264.062 37.5933 264.232 37.3892L268.712 32.0292L264.392 26.6592C264.224 26.4526 264.145 26.1877 264.174 25.9231C264.202 25.6584 264.334 25.4159 264.542 25.2492C264.751 25.0652 265.027 24.9768 265.305 25.0052C265.582 25.0337 265.834 25.1765 266.002 25.3992L270.832 31.3992C271.135 31.7682 271.135 32.3002 270.832 32.6692L265.832 38.6692C265.628 38.9147 265.32 39.0484 265.002 39.0292Z" fill="white"/>
<path d="M89.457 37V25.015H94.421C95.713 25.015 96.7103 25.3267 97.413 25.95C98.1157 26.562 98.467 27.4233 98.467 28.534C98.467 29.4293 98.229 30.166 97.753 30.744C97.277 31.3107 96.6027 31.6903 95.73 31.883C96.274 32.0643 96.733 32.5007 97.107 33.192L99.181 37H97.243L95.169 33.175C94.931 32.733 94.6533 32.4383 94.336 32.291C94.03 32.1323 93.6333 32.053 93.146 32.053H91.225V37H89.457ZM91.225 30.727H94.132C95.8773 30.727 96.75 30.0073 96.75 28.568C96.75 27.14 95.8773 26.426 94.132 26.426H91.225V30.727ZM104.129 37.153C102.769 37.153 101.698 36.7733 100.916 36.014C100.134 35.2433 99.7427 34.195 99.7427 32.869C99.7427 32.019 99.9127 31.271 100.253 30.625C100.604 29.9677 101.086 29.4577 101.698 29.095C102.31 28.7323 103.012 28.551 103.806 28.551C104.95 28.551 105.851 28.9193 106.509 29.656C107.166 30.3813 107.495 31.3843 107.495 32.665V33.243H101.409C101.533 34.9657 102.446 35.827 104.146 35.827C104.622 35.827 105.086 35.7533 105.54 35.606C106.004 35.4587 106.441 35.215 106.849 34.875L107.359 36.065C106.985 36.405 106.503 36.6713 105.914 36.864C105.324 37.0567 104.729 37.153 104.129 37.153ZM103.874 29.758C103.16 29.758 102.593 29.979 102.174 30.421C101.754 30.863 101.499 31.4523 101.409 32.189H106.05C106.016 31.4183 105.812 30.8233 105.438 30.404C105.064 29.9733 104.542 29.758 103.874 29.758ZM111.934 37.153C111.254 37.153 110.619 37.068 110.03 36.898C109.44 36.7167 108.947 36.4673 108.551 36.15L109.044 34.994C109.463 35.2887 109.922 35.5153 110.421 35.674C110.931 35.8327 111.441 35.912 111.951 35.912C112.551 35.912 113.005 35.8043 113.311 35.589C113.617 35.3737 113.77 35.0847 113.77 34.722C113.77 34.4273 113.668 34.2007 113.464 34.042C113.26 33.872 112.954 33.7417 112.546 33.651L110.931 33.328C109.503 33.0333 108.789 32.2967 108.789 31.118C108.789 30.336 109.1 29.7127 109.724 29.248C110.347 28.7833 111.163 28.551 112.172 28.551C112.75 28.551 113.299 28.636 113.821 28.806C114.353 28.976 114.795 29.231 115.147 29.571L114.654 30.727C114.314 30.4323 113.923 30.2057 113.481 30.047C113.039 29.8883 112.602 29.809 112.172 29.809C111.582 29.809 111.135 29.9223 110.829 30.149C110.523 30.3643 110.37 30.659 110.37 31.033C110.37 31.5997 110.744 31.9623 111.492 32.121L113.107 32.444C113.843 32.5913 114.399 32.8407 114.773 33.192C115.158 33.5433 115.351 34.0193 115.351 34.62C115.351 35.4133 115.039 36.0367 114.416 36.49C113.792 36.932 112.965 37.153 111.934 37.153ZM120.814 37.153C119.454 37.153 118.383 36.7733 117.601 36.014C116.819 35.2433 116.428 34.195 116.428 32.869C116.428 32.019 116.598 31.271 116.938 30.625C117.289 29.9677 117.771 29.4577 118.383 29.095C118.995 28.7323 119.698 28.551 120.491 28.551C121.636 28.551 122.537 28.9193 123.194 29.656C123.851 30.3813 124.18 31.3843 124.18 32.665V33.243H118.094C118.219 34.9657 119.131 35.827 120.831 35.827C121.307 35.827 121.772 35.7533 122.225 35.606C122.69 35.4587 123.126 35.215 123.534 34.875L124.044 36.065C123.67 36.405 123.188 36.6713 122.599 36.864C122.01 37.0567 121.415 37.153 120.814 37.153ZM120.559 29.758C119.845 29.758 119.278 29.979 118.859 30.421C118.44 30.863 118.185 31.4523 118.094 32.189H122.735C122.701 31.4183 122.497 30.8233 122.123 30.404C121.749 29.9733 121.228 29.758 120.559 29.758ZM129.231 37.153C128.188 37.153 127.412 36.8867 126.902 36.354C126.392 35.8213 126.137 35.0507 126.137 34.042V30.03H124.522V28.704H126.137V26.205H127.854V28.704H130.421V30.03H127.854V33.906C127.854 34.5067 127.979 34.96 128.228 35.266C128.489 35.572 128.908 35.725 129.486 35.725C129.667 35.725 129.843 35.708 130.013 35.674C130.183 35.6287 130.353 35.5777 130.523 35.521L130.795 36.813C130.625 36.915 130.387 36.9943 130.081 37.051C129.786 37.119 129.503 37.153 129.231 37.153ZM135.374 37.153C134.014 37.153 132.943 36.7733 132.161 36.014C131.379 35.2433 130.988 34.195 130.988 32.869C130.988 32.019 131.158 31.271 131.498 30.625C131.849 29.9677 132.331 29.4577 132.943 29.095C133.555 28.7323 134.258 28.551 135.051 28.551C136.196 28.551 137.097 28.9193 137.754 29.656C138.411 30.3813 138.74 31.3843 138.74 32.665V33.243H132.654C132.779 34.9657 133.691 35.827 135.391 35.827C135.867 35.827 136.332 35.7533 136.785 35.606C137.25 35.4587 137.686 35.215 138.094 34.875L138.604 36.065C138.23 36.405 137.748 36.6713 137.159 36.864C136.57 37.0567 135.975 37.153 135.374 37.153ZM135.119 29.758C134.405 29.758 133.838 29.979 133.419 30.421C133 30.863 132.745 31.4523 132.654 32.189H137.295C137.261 31.4183 137.057 30.8233 136.683 30.404C136.309 29.9733 135.788 29.758 135.119 29.758ZM142.924 37.153C142.346 37.153 141.83 37.0397 141.377 36.813C140.924 36.5863 140.561 36.2803 140.289 35.895C140.028 35.5097 139.898 35.0733 139.898 34.586C139.898 33.974 140.051 33.4923 140.357 33.141C140.674 32.7897 141.19 32.5347 141.904 32.376C142.629 32.2173 143.604 32.138 144.828 32.138H145.406V31.696C145.406 31.05 145.27 30.5853 144.998 30.302C144.726 30.0187 144.278 29.877 143.655 29.877C143.179 29.877 142.703 29.9507 142.227 30.098C141.751 30.234 141.264 30.455 140.765 30.761L140.238 29.554C140.669 29.248 141.207 29.0043 141.853 28.823C142.499 28.6417 143.117 28.551 143.706 28.551C144.839 28.551 145.678 28.823 146.222 29.367C146.766 29.8997 147.038 30.7383 147.038 31.883V37H145.423V35.623C145.219 36.099 144.902 36.473 144.471 36.745C144.04 37.017 143.525 37.153 142.924 37.153ZM143.264 35.929C143.876 35.929 144.386 35.7137 144.794 35.283C145.202 34.8523 145.406 34.3083 145.406 33.651V33.192H144.845C144.018 33.192 143.366 33.2317 142.89 33.311C142.425 33.3903 142.091 33.5263 141.887 33.719C141.694 33.9003 141.598 34.1553 141.598 34.484C141.598 34.9147 141.745 35.266 142.04 35.538C142.335 35.7987 142.743 35.929 143.264 35.929ZM149.063 37V28.704H150.729V30.183C151.16 29.197 152.055 28.6473 153.415 28.534L153.976 28.5L154.095 29.962L153.058 30.064C151.551 30.2113 150.797 30.9877 150.797 32.393V37H149.063ZM162.845 37.153C161.995 37.153 161.259 36.9773 160.635 36.626C160.023 36.2633 159.547 35.759 159.207 35.113C158.867 34.4557 158.697 33.685 158.697 32.801C158.697 31.4863 159.071 30.4493 159.819 29.69C160.567 28.9307 161.576 28.551 162.845 28.551C163.367 28.551 163.882 28.6417 164.392 28.823C164.902 29.0043 165.322 29.2537 165.65 29.571L165.106 30.778C164.789 30.4833 164.438 30.268 164.052 30.132C163.678 29.9847 163.321 29.911 162.981 29.911C162.177 29.911 161.553 30.166 161.111 30.676C160.681 31.1747 160.465 31.8887 160.465 32.818C160.465 33.7473 160.681 34.4783 161.111 35.011C161.553 35.5323 162.177 35.793 162.981 35.793C163.321 35.793 163.678 35.725 164.052 35.589C164.438 35.4417 164.789 35.2207 165.106 34.926L165.65 36.15C165.322 36.456 164.897 36.6997 164.375 36.881C163.865 37.0623 163.355 37.153 162.845 37.153ZM170.224 37.153C169.385 37.153 168.66 36.9773 168.048 36.626C167.436 36.2747 166.96 35.7817 166.62 35.147C166.291 34.501 166.127 33.736 166.127 32.852C166.127 31.968 166.291 31.2087 166.62 30.574C166.96 29.928 167.436 29.4293 168.048 29.078C168.66 28.7267 169.385 28.551 170.224 28.551C171.04 28.551 171.754 28.7267 172.366 29.078C172.978 29.4293 173.454 29.928 173.794 30.574C174.134 31.2087 174.304 31.968 174.304 32.852C174.304 33.736 174.134 34.501 173.794 35.147C173.454 35.7817 172.978 36.2747 172.366 36.626C171.754 36.9773 171.04 37.153 170.224 37.153ZM170.224 35.827C170.927 35.827 171.493 35.572 171.924 35.062C172.355 34.552 172.57 33.8153 172.57 32.852C172.57 31.8887 172.355 31.1577 171.924 30.659C171.493 30.149 170.927 29.894 170.224 29.894C169.51 29.894 168.938 30.149 168.507 30.659C168.076 31.1577 167.861 31.8887 167.861 32.852C167.861 33.8153 168.076 34.552 168.507 35.062C168.938 35.572 169.51 35.827 170.224 35.827ZM175.892 37V28.704H177.558V30.081C177.842 29.5823 178.227 29.2027 178.714 28.942C179.213 28.6813 179.768 28.551 180.38 28.551C182.341 28.551 183.321 29.6617 183.321 31.883V37H181.604V31.985C181.604 31.271 181.463 30.7497 181.179 30.421C180.907 30.0923 180.477 29.928 179.887 29.928C179.196 29.928 178.641 30.149 178.221 30.591C177.813 31.0217 177.609 31.594 177.609 32.308V37H175.892ZM188.883 37.153C187.841 37.153 187.064 36.8867 186.554 36.354C186.044 35.8213 185.789 35.0507 185.789 34.042V30.03H184.174V28.704H185.789V26.205H187.506V28.704H190.073V30.03H187.506V33.906C187.506 34.5067 187.631 34.96 187.88 35.266C188.141 35.572 188.56 35.725 189.138 35.725C189.32 35.725 189.495 35.708 189.665 35.674C189.835 35.6287 190.005 35.5777 190.175 35.521L190.447 36.813C190.277 36.915 190.039 36.9943 189.733 37.051C189.439 37.119 189.155 37.153 188.883 37.153ZM191.216 37V28.704H192.882V30.183C193.313 29.197 194.208 28.6473 195.568 28.534L196.129 28.5L196.248 29.962L195.211 30.064C193.704 30.2113 192.95 30.9877 192.95 32.393V37H191.216ZM199.787 37.153C199.209 37.153 198.693 37.0397 198.24 36.813C197.787 36.5863 197.424 36.2803 197.152 35.895C196.891 35.5097 196.761 35.0733 196.761 34.586C196.761 33.974 196.914 33.4923 197.22 33.141C197.537 32.7897 198.053 32.5347 198.767 32.376C199.492 32.2173 200.467 32.138 201.691 32.138H202.269V31.696C202.269 31.05 202.133 30.5853 201.861 30.302C201.589 30.0187 201.141 29.877 200.518 29.877C200.042 29.877 199.566 29.9507 199.09 30.098C198.614 30.234 198.127 30.455 197.628 30.761L197.101 29.554C197.532 29.248 198.07 29.0043 198.716 28.823C199.362 28.6417 199.98 28.551 200.569 28.551C201.702 28.551 202.541 28.823 203.085 29.367C203.629 29.8997 203.901 30.7383 203.901 31.883V37H202.286V35.623C202.082 36.099 201.765 36.473 201.334 36.745C200.903 37.017 200.388 37.153 199.787 37.153ZM200.127 35.929C200.739 35.929 201.249 35.7137 201.657 35.283C202.065 34.8523 202.269 34.3083 202.269 33.651V33.192H201.708C200.881 33.192 200.229 33.2317 199.753 33.311C199.288 33.3903 198.954 33.5263 198.75 33.719C198.557 33.9003 198.461 34.1553 198.461 34.484C198.461 34.9147 198.608 35.266 198.903 35.538C199.198 35.7987 199.606 35.929 200.127 35.929ZM208.833 37.153C208.153 37.153 207.518 37.068 206.929 36.898C206.34 36.7167 205.847 36.4673 205.45 36.15L205.943 34.994C206.362 35.2887 206.821 35.5153 207.32 35.674C207.83 35.8327 208.34 35.912 208.85 35.912C209.451 35.912 209.904 35.8043 210.21 35.589C210.516 35.3737 210.669 35.0847 210.669 34.722C210.669 34.4273 210.567 34.2007 210.363 34.042C210.159 33.872 209.853 33.7417 209.445 33.651L207.83 33.328C206.402 33.0333 205.688 32.2967 205.688 31.118C205.688 30.336 206 29.7127 206.623 29.248C207.246 28.7833 208.062 28.551 209.071 28.551C209.649 28.551 210.199 28.636 210.72 28.806C211.253 28.976 211.695 29.231 212.046 29.571L211.553 30.727C211.213 30.4323 210.822 30.2057 210.38 30.047C209.938 29.8883 209.502 29.809 209.071 29.809C208.482 29.809 208.034 29.9223 207.728 30.149C207.422 30.3643 207.269 30.659 207.269 31.033C207.269 31.5997 207.643 31.9623 208.391 32.121L210.006 32.444C210.743 32.5913 211.298 32.8407 211.672 33.192C212.057 33.5433 212.25 34.0193 212.25 34.62C212.25 35.4133 211.938 36.0367 211.315 36.49C210.692 36.932 209.864 37.153 208.833 37.153ZM217.713 37.153C216.353 37.153 215.282 36.7733 214.5 36.014C213.718 35.2433 213.327 34.195 213.327 32.869C213.327 32.019 213.497 31.271 213.837 30.625C214.189 29.9677 214.67 29.4577 215.282 29.095C215.894 28.7323 216.597 28.551 217.39 28.551C218.535 28.551 219.436 28.9193 220.093 29.656C220.751 30.3813 221.079 31.3843 221.079 32.665V33.243H214.993C215.118 34.9657 216.03 35.827 217.73 35.827C218.206 35.827 218.671 35.7533 219.124 35.606C219.589 35.4587 220.025 35.215 220.433 34.875L220.943 36.065C220.569 36.405 220.088 36.6713 219.498 36.864C218.909 37.0567 218.314 37.153 217.713 37.153ZM217.458 29.758C216.744 29.758 216.178 29.979 215.758 30.421C215.339 30.863 215.084 31.4523 214.993 32.189H219.634C219.6 31.4183 219.396 30.8233 219.022 30.404C218.648 29.9733 218.127 29.758 217.458 29.758ZM222.611 37V28.704H224.277V30.081C224.56 29.5823 224.946 29.2027 225.433 28.942C225.932 28.6813 226.487 28.551 227.099 28.551C229.06 28.551 230.04 29.6617 230.04 31.883V37H228.323V31.985C228.323 31.271 228.181 30.7497 227.898 30.421C227.626 30.0923 227.195 29.928 226.606 29.928C225.915 29.928 225.359 30.149 224.94 30.591C224.532 31.0217 224.328 31.594 224.328 32.308V37H222.611ZM224.056 27.021L223.155 26.953C223.212 26.2163 223.41 25.6383 223.75 25.219C224.09 24.7883 224.532 24.573 225.076 24.573C225.325 24.573 225.552 24.6297 225.756 24.743C225.971 24.8563 226.215 25.0263 226.487 25.253C226.736 25.457 226.935 25.5987 227.082 25.678C227.241 25.7573 227.388 25.797 227.524 25.797C228.102 25.797 228.453 25.372 228.578 24.522L229.479 24.573C229.434 25.321 229.241 25.9047 228.901 26.324C228.561 26.7433 228.119 26.953 227.575 26.953C227.348 26.953 227.127 26.902 226.912 26.8C226.708 26.698 226.453 26.528 226.147 26.29C225.909 26.086 225.716 25.9443 225.569 25.865C225.422 25.7857 225.269 25.746 225.11 25.746C224.543 25.746 224.192 26.171 224.056 27.021ZM234.718 37.153C234.14 37.153 233.624 37.0397 233.171 36.813C232.718 36.5863 232.355 36.2803 232.083 35.895C231.822 35.5097 231.692 35.0733 231.692 34.586C231.692 33.974 231.845 33.4923 232.151 33.141C232.468 32.7897 232.984 32.5347 233.698 32.376C234.423 32.2173 235.398 32.138 236.622 32.138H237.2V31.696C237.2 31.05 237.064 30.5853 236.792 30.302C236.52 30.0187 236.072 29.877 235.449 29.877C234.973 29.877 234.497 29.9507 234.021 30.098C233.545 30.234 233.058 30.455 232.559 30.761L232.032 29.554C232.463 29.248 233.001 29.0043 233.647 28.823C234.293 28.6417 234.911 28.551 235.5 28.551C236.633 28.551 237.472 28.823 238.016 29.367C238.56 29.8997 238.832 30.7383 238.832 31.883V37H237.217V35.623C237.013 36.099 236.696 36.473 236.265 36.745C235.834 37.017 235.319 37.153 234.718 37.153ZM235.058 35.929C235.67 35.929 236.18 35.7137 236.588 35.283C236.996 34.8523 237.2 34.3083 237.2 33.651V33.192H236.639C235.812 33.192 235.16 33.2317 234.684 33.311C234.219 33.3903 233.885 33.5263 233.681 33.719C233.488 33.9003 233.392 34.1553 233.392 34.484C233.392 34.9147 233.539 35.266 233.834 35.538C234.129 35.7987 234.537 35.929 235.058 35.929Z" fill="white"/>
<g filter="url(#filter0_d)">
<path d="M34 62C50.5685 62 64 48.5685 64 32C64 15.4315 50.5685 2 34 2C17.4315 2 4 15.4315 4 32C4 48.5685 17.4315 62 34 62Z" fill="black"/>
</g>
<path d="M34 62C50.5685 62 64 48.5685 64 32C64 15.4315 50.5685 2 34 2C17.4315 2 4 15.4315 4 32C4 48.5685 17.4315 62 34 62Z" fill="white"/>
<path d="M26.1484 31.25C26.1484 29.7389 26.5648 28.3233 27.2881 27.1112V21.9698H22.1467C20.1061 24.62 19 27.8499 19 31.25C19 34.6502 20.1061 37.88 22.1467 40.5302H27.2881V35.3888C26.5648 34.1767 26.1484 32.7611 26.1484 31.25Z" fill="#FBBD00"/>
<path d="M34.25 39.3516L30.6758 42.9258L34.25 46.5C37.6502 46.5 40.88 45.3939 43.5302 43.3533V38.2174H38.3942C37.1716 38.9433 35.75 39.3516 34.25 39.3516Z" fill="#0F9D58"/>
<path d="M27.2881 35.3888L22.1467 40.5302C22.5507 41.0549 22.9906 41.5573 23.4666 42.0334C26.347 44.9137 30.1766 46.5 34.25 46.5V39.3516C31.2939 39.3516 28.703 37.7598 27.2881 35.3888Z" fill="#31AA52"/>
<path d="M49.5 31.25C49.5 30.3222 49.416 29.3926 49.2503 28.4873L49.1162 27.7546H34.25V34.9031H41.4849C40.7824 36.3007 39.7021 37.4409 38.3942 38.2174L43.5301 43.3534C44.0548 42.9494 44.5573 42.5094 45.0334 42.0334C47.9137 39.153 49.5 35.3234 49.5 31.25Z" fill="#3C79E6"/>
<path d="M39.9787 25.5213L40.6105 26.1531L45.6652 21.0984L45.0334 20.4666C42.1531 17.5863 38.3235 16 34.25 16L30.6758 19.5742L34.25 23.1484C36.414 23.1484 38.4485 23.9911 39.9787 25.5213Z" fill="#CF2D48"/>
<path d="M34.25 23.1484V16C30.1766 16 26.347 17.5863 23.4666 20.4666C22.9906 20.9426 22.5506 21.4451 22.1466 21.9698L27.288 27.1112C28.703 24.7402 31.2939 23.1484 34.25 23.1484Z" fill="#EB4132"/>
<defs>
<filter id="filter0_d" x="0" y="0" width="68" height="68" filterUnits="userSpaceOnUse" color-interpolation-filters="sRGB">
<feFlood flood-opacity="0" result="BackgroundImageFix"/>
<feColorMatrix in="SourceAlpha" type="matrix" values="0 0 0 0 0 0 0 0 0 0 0 0 0 0 0 0 0 0 127 0"/>
<feOffset dy="2"/>
<feGaussianBlur stdDeviation="2"/>
<feColorMatrix type="matrix" values="0 0 0 0 0.682462 0 0 0 0 0.682462 0 0 0 0 0.682462 0 0 0 0.224104 0"/>
<feBlend mode="normal" in2="BackgroundImageFix" result="effect1_dropShadow"/>
<feBlend mode="normal" in="SourceGraphic" in2="effect1_dropShadow" result="shape"/>
</filter>
</defs>
</svg>
