<?xml version="1.0" encoding="UTF-8"?>
<svg width="221px" height="520px" viewBox="0 0 221 520" version="1.1" xmlns="http://www.w3.org/2000/svg" xmlns:xlink="http://www.w3.org/1999/xlink">
    <title>Group@2x</title>
    <g id="Screens" stroke="none" stroke-width="1" fill="none" fill-rule="evenodd">
        <g id="Tablet" transform="translate(-355.000000, -115.000000)">
            <g id="Group" transform="translate(356.000000, 115.000000)">
                <g transform="translate(143.000000, 350.000000)" fill-rule="nonzero" id="Path">
                    <path d="M0.9,3.5 L5.2,70.9 C12.4,73 18.2,70.8 21.5,68.7 L15.7,0.8 C11.7,2.5 6.6,3.8 0.9,3.5" fill="#F3D19F"></path>
                    <path d="M21.5,74 C18.2,76 12.6,78.2 5.6,76.3 L5.3,71 C5.3,71 13,73.5 21.6,68.8 L21.6,74 L21.5,74 Z" fill="#FFCE00"></path>
                    <path d="M5.5,76.2 L7.5,107.6 L7.7,111 C9.5,111.2 11.7,110.8 11.7,110.8 L17.8,121.1 L17.8,110.1 C18.3,108 21,106.8 24.1,106.3 L21.3,73.9 C18.2,76 12.6,78.2 5.5,76.2" fill="#FF74BE"></path>
                    <path d="M3.1,135.3 C2.9,138.5 4.6,141.5 7.4,142.9 L18.5,148.6 C19.6,149.2 20.6,150 21.3,151 L31.1,164.4 C31.9,165.5 33,166.4 34.3,167 C45.9,171.9 61.9,167.5 70.1,164.6 C73.3,163.5 75.3,160.5 75.3,157.1 L75.3,150 C75.3,153.3 73.2,156.4 70.1,157.5 C61.9,160.4 45.9,164.8 34.3,159.9 C33,159.4 31.9,158.4 31.1,157.3 L21.3,143.9 C20.6,142.9 19.6,142.1 18.5,141.5 L7.4,135.8 C5.4,134.8 4,133.1 3.4,131 L3.1,135.3 Z" fill="#A58FEA"></path>
                    <path d="M3.8,125.2 L3.4,131 C4,133 5.4,134.8 7.4,135.8 L18.5,141.5 C19.6,142.1 20.6,142.9 21.3,143.9 L31.1,157.3 C31.9,158.4 33,159.3 34.3,159.9 C45.9,164.8 61.9,160.4 70.1,157.5 C73.3,156.4 75.3,153.4 75.3,150 L75.3,148.5 C75.3,145.6 73.8,143 71.3,141.6 C66.8,139 59.1,134.7 51.9,130.6 C51.9,130.6 51.9,130.6 51.9,130.6 C51.8,130.5 51.7,130.5 51.6,130.4 L38.5,123.1 C35.9,121.7 34.3,120.7 34.1,120.7 C34.1,120.7 34.4,117.4 34.7,113.8 C35,109.9 35.3,105.8 35.1,105.8 L28.9,105.8 C27.6,105.9 26.1,106 24.8,106.2 C24.7,106.2 24.5,106.3 24.4,106.3 C21.2,106.9 18.5,108 18.1,110.1 L18.1,121.1 L12,110.8 C12,110.8 9.9,111.2 8,111 C7.9,111 7.8,111 7.7,111 C6.7,110.8 5.8,110.5 5.5,109.8 L3,112.1 L1.9,113.1 L3.6,123 L3.8,125.2 Z" fill="#CAC7E0"></path>
                    <path d="M51.8,130.6 C51.8,130.6 36.1,126.2 29.9,136.2 L22.4998839,131 C22.4998839,131 22.3,125.2 38.5,123.1 L51.8,130.6 Z" fill="#FFCE00"></path>
                </g>
                <path d="M182,325.3 C178.4,323.3 171.1,317.8 170.9,314.5 C170.7,310.5 187.6,299 187.6,299" id="Path" fill="#F3D19F" fill-rule="nonzero"></path>
                <path d="M183.9,302.8 C183.9,302.8 183.7,280.2 179.2,254.4 C175.4,232.7 169.2,207.9 167.4,195.7 C167.2,194.5 170.8,184.1 175.1,192.1 C177.7,197 186,225.6 191.5,251.6 C197.1,277.7 197.7,299.8 197.7,299.8 C197.7,299.8 202.6,302.6 203.3,304.7 C206.1,312.9 212.5,333.4 208.8,340.3 C207.5,342.8 200.3,344 194.6,344.3 C194.5,344.3 194.3,344.3 194.2,344.3 C191.6,344.4 189.3,344.3 188,344 C187.4,343.9 186.7,343.7 185.9,343.4 L185.9,343.4 C183.6,342.7 180.7,341.5 178.5,340.7 C176.8,340 175.7,338.3 175.7,336.5 L175.7,333.9 C175.7,333.3 175.8,332.7 176.1,332.1 C176.6,331 177.5,330.1 178.6,329.7 L181,328.8 L181.9,327.9 L182,325.7 C182,325.7 182.9,317.3 181,315.3" id="Path" fill="#F3D19F" fill-rule="nonzero"></path>
                <path d="M190,329.6 C191.1,335.7 190.3,339.1 189.2,341.1 C187.9,343.3 186,343.6 185.9,343.6" id="Path" stroke="#CEA676" stroke-width="0.8965" stroke-linecap="round" stroke-linejoin="round"></path>
                <path d="M194,344.5 C194,344.5 200.6,343.9 198.2,330.5" id="Path" stroke="#CEA676" stroke-width="0.8965" stroke-linecap="round" stroke-linejoin="round"></path>
                <path d="M200.9,344.5 C200.9,344.5 207.5,343.9 205.1,330.5" id="Path" stroke="#CEA676" stroke-width="0.8965" stroke-linecap="round" stroke-linejoin="round"></path>
                <path d="M167.3,195.7 C169.2,207.9 175.3,232.7 179.1,254.4 C183.7,280.2 183.8,302.8 183.8,302.8 L180.9,315.3 C182.8,317.3 181.9,325.7 181.9,325.7 L181.8,327.9 L180.9,328.8 L178.5,329.7 C177.3,330.1 176.4,331 176,332.1 C175.7,332.7 175.6,333.3 175.6,333.9 L175.6,336.5 C175.6,338.3 176.7,340 178.4,340.7 C180.5,341.6 183.4,342.7 185.8,343.4 L185.8,343.4 C186.6,343.7 187.3,343.8 187.9,344 C189.2,344.3 191.5,344.4 194.1,344.3 C194.2,344.3 194.4,344.3 194.5,344.3 C200.3,344 207.4,342.8 208.7,340.3 C212.4,333.3 206,312.9 203.2,304.7 C202.5,302.7 200.5,301.4 198.4,301.6 L197.8,301.7 C197.8,301.7 197,277.7 191.5,251.6 C186,225.6 177.7,197 175.1,192.1 C173.9,189.9 172.8,189.1 171.8,189.1 C169,189.1 167.2,194.8 167.3,195.7" id="Path"></path>
                <path d="M181.4,333 C181.4,333 183.5,319 180.4,314.4" id="Path" stroke="#CEA676" stroke-width="0.8538" stroke-linecap="round" stroke-linejoin="round"></path>
                <path d="M164.1,209.3 L159.4,187.4 L165.8,258.1 C130.5,271.1 103,262.6 91.8,257.8 L101.5,185.6 L88.4,201.1 L73.4,184.4 L106,156.3 L106.6,155.8 C107.2,155.4 107.8,155.2 108.5,155.2 L115.9,155.8 C119.3,173.8 140.8,177.4 148.4,158.3 L164.9,160.8 C166.3,161 169.3,162 169.9,163.2 L184.2,206 L164.1,209.3 Z" id="Path" fill="#A546A0" fill-rule="nonzero"></path>
                <path d="M14.3,132.5 C14.3,132.5 6.9,129.4 4.6,130.4 C1.8,131.6 -0.7,139.5 0.8,142.2 C1.9,144.2 7.6,145.7 9.5,144.5 C10.8,143.7 10.8,138.6 10.8,138.6" id="Path" fill="#F3D19F" fill-rule="nonzero"></path>
                <path d="M14.3,132.5 C14.3,132.5 6.9,129.4 4.6,130.4 C1.8,131.6 -0.7,139.5 0.8,142.2 C1.9,144.2 7.6,145.7 9.5,144.5 C10.8,143.7 10.8,138.6 10.8,138.6" id="Path" stroke="#CEA676" stroke-width="0.8538"></path>
                <path d="M77.8,202.4 C78.3,202.9 78.4,203.8 77.9,204.4 C70.4,213.8 52.6,234.7 45.5,233.4 C37.4,231.9 22.4,189.9 17.1,168.8 C16.9,168.2 16.4,167.8 15.8,167.7 L12.4,167.3 C10.3,167 8.6,165.4 8.4,163.3 C7.9,159 10.1,150.4 12.2,145 C12.2,144.9 12.3,144.8 12.4,144.7 L25.1,126.6 L27.8,129.2 L27.7,130.1 C27.4,131.7 26,133.5 26,135.1 L27.7,130.1 C29.8,119.9 40,112.5 45.7,110 C47.4,109.3 51.2,112.3 53.3,114.2 C54.1,114.9 53.9,116.1 53.1,116.6 C43.2,123 35,135.8 34.2,137.1 C38,131.1 37,133.6 38.5,131.6 C45.1,123.3 54.7,119.3 56.5,118.5 C56.7,118.4 56.9,118.4 57.1,118.4 C61.1,118.6 63.3,125 64.1,127.7 C64.3,128.4 63.9,129.1 63.3,129.4 C55.2,133.3 48.3,137.2 42.1,146.7 C38.9,151.5 32.9,162.6 31.5,165.2 C31.3,165.5 31.3,165.9 31.4,166.3 C34.5,176.9 45,211.4 47.9,213.8 C49.7,215.2 61.9,201.8 68.4,194.5 C69,193.8 70,193.8 70.6,194.5 L77.8,202.4 Z" id="Path" fill="#F3D19F" fill-rule="nonzero"></path>
                <path d="M27.8,129.8 C27.8,129.8 23.6,121.5 16.3,128.2 C16.3,128.2 6.3,137.6 7.4,141.4 C7.7,142.5 9.3,143.7 11,144.4 C13,145.3 15.4,145.8 16.7,145.4 C19.4,144.5 22.5,135.7 22.5,135.7" id="Path" fill="#F3D19F" fill-rule="nonzero"></path>
                <path d="M27.8,129.8 C27.8,129.8 23.6,121.5 16.3,128.2 C16.3,128.2 6.3,137.6 7.4,141.4 C7.7,142.5 9.3,143.7 11,144.4 C13,145.3 15.4,145.8 16.7,145.4 C19.4,144.5 22.5,135.7 22.5,135.7" id="Path" stroke="#CEA676" stroke-width="0.8538"></path>
                <path d="M180.4,93.5 C178.8,103.6 176.4,111.7 173.4,118 C168.4,128.6 161.9,134.6 155.2,137.9 C149.1,140.9 142.9,141.7 137.4,141.9 C136.2,141.9 135,142 133.8,141.9 C131.2,141.9 128.8,141.7 126.5,141.5 C123.1,141.2 120,140.6 117.2,139.8 C109.9,137.9 104.4,134.8 100.2,131.1 C99.9,130.8 99.5,130.5 99.2,130.2 C99.2,130.2 99.1,130.2 99.1,130.1 C98.5,129.5 98,129 97.4,128.4 C97.3,128.3 97.3,128.2 97.2,128.2 C96.9,127.9 96.6,127.5 96.4,127.2 C96.1,126.9 95.9,126.6 95.7,126.2 C95.5,126 95.4,125.8 95.2,125.5 C95,125.3 94.9,125.1 94.7,124.8 C94.5,124.5 94.3,124.1 94.1,123.8 C93.1,122.2 92.3,120.5 91.6,118.8 C91.5,118.4 91.3,118.1 91.2,117.8 C91,117.4 90.9,116.9 90.8,116.5 C90.7,116.1 90.5,115.6 90.4,115.2 C90.3,114.8 90.2,114.3 90.1,113.9 C90,113.5 89.9,113.1 89.8,112.7 C89.8,112.7 89.8,112.6 89.8,112.6 C89.7,112.3 89.7,112.1 89.6,111.8 C89.6,111.6 89.5,111.4 89.5,111.2 C89.5,111 89.4,110.8 89.4,110.6 C89.3,110.3 89.3,109.9 89.3,109.6 C89.2,109.2 89.2,108.9 89.2,108.6 C89.2,108.3 89.1,108 89.1,107.7 C89,106.4 89,105.1 89,103.8 C89.1,98.5 91.7,89.4 91.9,85.4 C92,83.9 91.9,81.3 91.8,78.4 C91.8,77.9 91.8,77.5 91.7,77 C91.7,76.7 91.7,76.4 91.7,76.1 C91.7,75.6 91.6,75.1 91.6,74.6 C91.6,74.3 91.6,74.1 91.6,73.8 C91.6,73.3 91.6,72.7 91.5,72.2 C91.5,72 91.5,71.9 91.5,71.7 L91.5,71.7 C91.5,71.5 91.5,71.2 91.5,71 C91.5,70.8 91.5,70.5 91.5,70.3 C91.5,69.8 91.5,69.4 91.4,68.9 C91.4,68.2 91.3,67.5 91.3,66.9 C91.3,65.7 91.2,64.6 91.2,63.6 C91.2,63.3 91.2,63 91.2,62.7 C91.2,62.1 91.2,61.5 91.2,61 L91.3,60 C91.5,60 91.7,60 91.8,60 C92.9,60 94.1,59.8 95.5,59.4 C96.4,59.1 97.3,58.8 98.3,58.3 C101,57.1 104.2,55.1 108.2,52.3 C108.2,52.3 106.7,57.9 110.1,60.1 C111.1,60.7 112.5,61.1 114.5,61 C114.5,61 115.5,61.1 117.1,60.7 C120.2,60.1 125.6,58 131.4,51.4 C131.4,51.4 131.8,61.7 139.9,62.8 C139.9,62.8 143.7,62.9 148.5,61.1 C149.9,60.5 151.5,59.8 153,58.9 C157.6,56 162.3,51.1 164.9,42.7 C164.9,42.7 172.7,79.2 178.4,91.4 C178.7,92.1 179,92.7 179.4,93.3 C179.6,93.7 180,93.8 180.3,93.8 C180.4,93.8 180.5,93.8 180.5,93.8 C180.3,93.6 180.4,93.5 180.4,93.5" id="Path" fill="#F3D19F" fill-rule="nonzero"></path>
                <path d="M100.1,131.2 C104.3,134.9 109.8,138 117.1,139.9 C110.6,140.6 103.6,140.7 97.4,138.8 C93.9,137.7 90.7,136 87.8,133.4 C85,130.9 83.3,127.6 82.3,124 C81.2,119.9 81.1,115.4 81.5,111.3 C84.7,112.5 87.8,112.7 89.6,112.6 C89.6,112.6 89.6,112.7 89.6,112.7 C89.7,113.1 89.8,113.5 89.9,113.9 C90,114.3 90.1,114.8 90.2,115.2 C90.3,115.6 90.5,116.1 90.6,116.5 C90.7,116.9 90.9,117.4 91,117.8 C91.1,118.1 91.3,118.5 91.4,118.8 C92.1,120.5 92.9,122.2 93.9,123.9 C94.1,124.2 94.3,124.6 94.5,124.9 C94.6,125.1 94.8,125.3 95,125.6 C95.1,125.8 95.3,126 95.5,126.3 C95.7,126.6 96,126.9 96.2,127.3 C96.5,127.7 96.7,128 97,128.3 C97.1,128.4 97.1,128.5 97.2,128.5 C97.7,129.1 98.3,129.7 98.9,130.2 C98.9,130.2 98.9,130.2 99,130.3 C99.5,130.6 99.8,130.9 100.1,131.2" id="Path" fill="#3F4E66" fill-rule="nonzero"></path>
                <path d="M204.9,97.2 C203.6,108.6 198.3,121.1 192.5,129.8 C188.7,135.4 184.7,139.4 181.4,140.4 C179.8,140.9 177.8,141.2 175.5,141.4 C169.4,141.8 161.5,140.9 155.2,138 C166,132.7 176.2,120.7 180.4,93.6 C180.3,93.6 180.3,93.7 180.2,93.7 C180.1,93.7 180,93.7 180,93.7 C179.6,93.7 179.3,93.5 179.1,93.2 C173.4,83.5 164.7,42.7 164.7,42.7 C162.1,51.1 157.4,56 152.8,58.9 C151.3,59.9 149.7,60.6 148.3,61.1 C143.5,62.9 139.7,62.8 139.7,62.8 C131.5,61.7 131.2,51.4 131.2,51.4 C125.5,58 120,60.1 116.9,60.7 C115.3,61 114.3,61 114.3,61 C112.3,61.2 110.9,60.8 109.9,60.1 C106.5,57.9 108,52.3 108,52.3 C104.1,55.2 100.8,57.1 98.1,58.3 C97.1,58.8 96.2,59.1 95.3,59.4 C93.9,59.8 92.6,60 91.6,60 C91.4,60 91.2,60 91.1,60 L91,61 C91,61.5 91,62.1 91,62.7 C91,63 91,63.3 91,63.6 C91,64.6 91.1,65.7 91.1,66.9 C91.1,67.6 91.2,68.2 91.2,68.9 C91.2,69.4 91.2,69.8 91.3,70.3 C91.3,70.5 91.3,70.8 91.3,71 C91.3,71.2 91.3,71.5 91.3,71.7 C91,71.5 83.3,67.9 77.2,71.9 C75.3,68.2 67.3,51.2 73.7,36 C84.5,10.3 118.4,-1.3 135.8,0.7 C154.1,2.8 185.7,19.2 196.1,33.4 C205.9,46.9 208.4,67.1 204.9,97.2" id="Path" fill="#3F4E66" fill-rule="nonzero"></path>
                <path d="M103,22.5 C103,22.5 81.7,33.4 84.7,51.7 C85.3,55.1 86.3,59.6 91,60" id="Path" stroke="#000000" stroke-width="1.0929" stroke-linecap="round" stroke-linejoin="round"></path>
                <path d="M97.4,138.8 C96.1,140.2 94.3,141.4 92.3,141.9 C91.8,142 91.3,142 90.7,142 C85.9,141.7 80.3,136.2 79.6,132.6 C79.5,132.1 79.4,131.7 79.4,131.2 C79.2,128.2 80.7,125.8 82.3,124 C83.2,127.5 84.9,130.8 87.8,133.4 C90.7,136 94,137.7 97.4,138.8" id="Path" fill="#FF74BE" fill-rule="nonzero"></path>
                <path d="M90.8,141.9 C90.6,148.5 89.2,174.3 78.4,173.2 C76.1,173 75.1,170.3 74.1,168.6 C73.7,168 73.6,167.1 73.1,166.9 C72.5,166.7 71.5,167.2 70.6,167.5 C68.4,168.2 65.3,169.5 61.8,167.2 C59.4,165.6 59.9,162.7 60.2,160.8 C60.3,160 60.8,158.8 60.6,158.6 C60.1,158.1 59.2,158.6 58.6,158.6 C56.8,158.6 54.7,159.8 52.5,155.4 C47.6,145.2 72.8,133.8 79.3,131.1 C79.3,131.5 79.4,132 79.5,132.5 C80.4,136.1 86,141.7 90.8,141.9" id="Path" fill="#3F4E66" fill-rule="nonzero"></path>
                <path d="M58,158.7 C60.2,158.4 62.3,157.7 64.3,157 C65.3,156.6 66.3,156.2 67.1,155.6 C67.9,155 68.6,154.2 68.1,153.6 C68,152.9 66.8,153.3 65.9,153.7 C65,154.1 64.1,154.8 63.3,155.5 C61.7,156.9 60.6,158.8 60.3,161 C60.2,158.8 61.2,156.6 62.7,154.9 C63.5,154.1 64.4,153.4 65.4,152.8 C65.9,152.5 66.5,152.3 67.1,152.2 C67.4,152.2 67.8,152.1 68.2,152.3 C68.4,152.3 68.6,152.5 68.8,152.7 C68.9,152.8 69,153 69.1,153.1 C69.5,153.7 69.4,154.6 69,155.2 C68.6,155.8 68.2,156.2 67.7,156.5 C66.7,157.1 65.7,157.6 64.6,157.9 C62.4,158.4 60.2,158.8 58,158.7" id="Path" fill="#000000" fill-rule="nonzero"></path>
                <path d="M70.9,167.3 C71.9,167 72.8,166.3 73.6,165.7 C74.4,165 75.2,164.3 75.9,163.5 C76.6,162.7 77.2,161.9 77.7,160.9 C78.1,160 78.2,159 77.6,158.5 C77.6,158.5 77.1,158.5 76.7,158.8 C76.3,159 75.9,159.4 75.5,159.7 C74.8,160.4 74.2,161.3 73.7,162.2 C72.7,164 72.6,166.3 73.7,168.2 C73,167.4 72.5,166.3 72.4,165.2 C72.3,164.1 72.5,162.9 72.9,161.9 C73.3,160.8 74,159.9 74.7,159 C75.1,158.6 75.5,158.2 76,157.9 C76.5,157.6 77.1,157.1 78.1,157.7 C78.6,158.2 79,158.9 78.9,159.6 C78.9,160.3 78.6,160.8 78.4,161.4 C77.9,162.4 77.2,163.3 76.4,164.1 C75,165.5 73.2,167 70.9,167.3" id="Path" fill="#000000" fill-rule="nonzero"></path>
                <path d="M194.1,136.4 C194,136.8 193.9,137.3 193.8,137.7 C192.7,141.2 186.6,146.2 181.8,146 C181.3,146 180.7,145.9 180.2,145.7 C178.3,145.1 176.6,143.7 175.4,142.2 C175.4,141.9 175.4,141.6 175.4,141.3 C177.7,141.1 179.7,140.8 181.3,140.3 C184.6,139.3 188.6,135.3 192.4,129.7 C193.6,131.5 194.5,133.8 194.1,136.4" id="Path" fill="#FF74BE" fill-rule="nonzero"></path>
                <path d="M181.8,146 C181.4,152.6 180.3,178.4 191.2,178.30029 C193.4,178.30029 195.1,175.8 196.2,174.2 C196.7,173.5 196.6,172.5 197.1,172.4 C197.8,172.2 198.9,173.1 200,173.6 C202.1,174.5 204.8,175.7 208.2,174 C210.8,172.6 210.5,169.4 210.4,167.5 C210.4,166.8 210.2,165.6 210.4,165.4 C211,164.9 211.8,165.6 212.5,165.7 C214.2,166 216.1,166.9 218.4,163.1 C224.3,153.4 200.3,139.7 194,136.3 C193.9,136.7 193.8,137.2 193.7,137.6 C192.7,141.2 186.6,146.2 181.8,146" id="Path" fill="#3F4E66" fill-rule="nonzero"></path>
                <path d="M212.9,165.8 C210.7,165.7 208.5,165.1 206.5,164.2 C205.5,163.8 204.5,163.2 203.5,162.5 C203,162.1 202.6,161.7 202.3,161.1 C202,160.5 202,159.6 202.4,159 C202.5,158.9 202.6,158.7 202.7,158.6 C202.9,158.5 203.1,158.3 203.3,158.3 C203.7,158.2 204,158.3 204.4,158.3 C205,158.5 205.6,158.7 206,159.1 C207,159.7 207.8,160.5 208.5,161.4 C209.9,163.2 210.7,165.5 210.4,167.7 C210.3,165.5 209.3,163.5 207.9,161.9 C207.2,161.1 206.4,160.4 205.5,159.9 C204.7,159.4 203.5,158.9 203.3,159.6 C202.7,160.2 203.3,161 204.1,161.7 C204.9,162.4 205.8,162.9 206.8,163.4 C208.7,164.4 210.7,165.3 212.9,165.8" id="Path" fill="#000000" fill-rule="nonzero"></path>
                <path d="M199.1,173.1 C196.9,172.6 195.2,170.9 193.8,169.3 C193.1,168.5 192.5,167.5 192,166.4 C191.8,165.9 191.6,165.3 191.7,164.6 C191.7,163.9 192.1,163.2 192.6,162.8 C193.7,162.3 194.3,162.9 194.7,163.2 C195.2,163.6 195.6,164 195.9,164.5 C196.6,165.4 197.1,166.4 197.4,167.5 C197.7,168.6 197.9,169.8 197.6,170.9 C197.4,172 196.8,173 196,173.8 C197.3,172 197.4,169.7 196.6,167.8 C196.2,166.8 195.7,165.9 195.1,165.1 C194.8,164.7 194.4,164.3 194,164.1 C193.6,163.8 193.1,163.7 193.2,163.7 C192.6,164.1 192.5,165.1 192.9,166.1 C193.2,167.1 193.8,167.9 194.4,168.8 C195,169.7 195.7,170.5 196.5,171.2 C197.3,172 198.1,172.7 199.1,173.1" id="Path" fill="#000000" fill-rule="nonzero"></path>
                <path d="M155.6,115 C155.8,118.2 154.1,121.2 151.3,123.7 C138.8,118.6 124.1,125.1 118.1,128.2 C109.2,124 105.3,116.1 109,110.4 C110.2,108.5 111.9,107.8 114,107.7 C113.9,109.3 113.7,111.6 113.6,113.2 C113.5,114.5 114.3,115.7 115.5,116.2 C121.3,118.5 138.6,123.9 155.6,115" id="Path" fill="#FF74BE" fill-rule="nonzero"></path>
                <path d="M155.6,115 C155.8,118.2 154.1,121.2 151.3,123.7 C138.8,118.6 124.1,125.1 118.1,128.2 C109.2,124 105.3,116.1 109,110.4 C110.2,108.5 111.9,107.8 114,107.7 C113.9,109.3 113.7,111.6 113.6,113.2 C113.5,114.5 114.3,115.7 115.5,116.2 C121.3,118.5 138.6,123.9 155.6,115 Z" id="Path" stroke="#000000" stroke-width="0.5692" stroke-linecap="round" stroke-linejoin="round"></path>
                <path d="M155.6,115 C138.7,123.8 121.3,118.4 115.6,116.2 C114.4,115.7 113.6,114.5 113.7,113.2 C113.8,111.6 114,109.3 114.1,107.7 C118.2,107.5 123.7,109.6 130.4,109.9 C137.1,110.1 151.1,104.8 154.5,111.3 C155.2,112.5 155.5,113.8 155.6,115 Z" id="Path" stroke="#000000" stroke-width="0.5692" stroke-linecap="round" stroke-linejoin="round"></path>
                <path d="M155.6,115 C138.7,123.8 121.3,118.4 115.6,116.2 C114.4,115.7 113.6,114.5 113.7,113.2 C113.8,111.6 114,109.3 114.1,107.7 C118.2,107.5 123.7,109.6 130.4,109.9 C137.1,110.1 151.1,104.8 154.5,111.3 C155.2,112.5 155.5,113.8 155.6,115" id="Path" fill="#FFFFFF" fill-rule="nonzero"></path>
                <path d="M155.6,115 C138.7,123.8 121.3,118.4 115.6,116.2 C114.4,115.7 113.6,114.5 113.7,113.2 C113.8,111.6 114,109.3 114.1,107.7 C118.2,107.5 123.7,109.6 130.4,109.9 C137.1,110.1 151.1,104.8 154.5,111.3 C155.2,112.5 155.5,113.8 155.6,115 Z" id="Path" stroke="#000000" stroke-width="0.5692" stroke-linecap="round" stroke-linejoin="round"></path>
                <path d="M151.3,123.7 C146.1,128.5 137.1,131.7 129.8,131.2 C125.3,130.9 121.4,129.8 118.2,128.2 C124.1,125.1 138.8,118.6 151.3,123.7" id="Path" fill="#F9487B" fill-rule="nonzero"></path>
                <path d="M151.3,123.7 C146.1,128.5 137.1,131.7 129.8,131.2 C125.3,130.9 121.4,129.8 118.2,128.2 C124.1,125.1 138.8,118.6 151.3,123.7 Z" id="Path" stroke="#000000" stroke-width="0.5692" stroke-linecap="round" stroke-linejoin="round"></path>
                <path d="M106.2,85.2 C103.5,84.9 97,86.5 98.2,90.1 C99.1,92.6 102.6,90.9 105.2,91.2 C108.8,91.7 112.9,93.4 113.4,90.8 C114.1,87.5 110.8,85.8 106.2,85.2" id="Path" fill="#F0B094" fill-rule="nonzero"></path>
                <path d="M155.5,88.8 C152.8,88.5 146.3,90.1 147.5,93.7 C148.4,96.2 151.9,94.5 154.5,94.8 C158.1,95.3 162.2,97 162.7,94.4 C163.4,91 160.1,89.3 155.5,88.8" id="Path" fill="#F0B094" fill-rule="nonzero"></path>
                <path d="M117,76.8 C117,79.6 115.5,81.9 113.6,81.9 C111.7,81.9 110.2,79.6 110.2,76.8 C110.2,74 111.7,71.7 113.6,71.7 C115.4,71.7 117,74 117,76.8" id="Path" fill="#000000" fill-rule="nonzero"></path>
                <path d="M154.7,76.8 C154.7,79.6 153.2,81.9 151.3,81.9 C149.4,81.9 147.9,79.6 147.9,76.8 C147.9,74 149.4,71.7 151.3,71.7 C153.2,71.7 154.7,74 154.7,76.8" id="Path" fill="#000000" fill-rule="nonzero"></path>
                <path d="M107.9,52.2 C107.9,52.2 123.6,37.4 117.7,34.3 C115.3,33.1 104.9,38.2 107.9,52.2 Z" id="Path" stroke="#000000" stroke-width="1.0929" stroke-linecap="round" stroke-linejoin="round"></path>
                <path d="M131.3,51.6 C131.3,51.6 147,36.8 141.1,33.7 C138.7,32.4 130,37.6 131.3,51.6 Z" id="Path" stroke="#000000" stroke-width="1.0929" stroke-linecap="round" stroke-linejoin="round"></path>
                <path d="M106.8,63.9 C106.8,63.9 113,52.4 119.1,63.9" id="Path" stroke="#000000" stroke-width="1.0929" stroke-linecap="round" stroke-linejoin="round"></path>
                <path d="M146.1,63.9 C146.1,63.9 152.3,52.4 158.4,63.9" id="Path" stroke="#000000" stroke-width="1.0929" stroke-linecap="round" stroke-linejoin="round"></path>
                <path d="M91.6,78.4 C91.6,77.9 91.6,77.5 91.5,77 C91.5,76.7 91.5,76.4 91.5,76.1 C91.5,75.6 91.4,75.1 91.4,74.6 C91.4,74.3 91.4,74.1 91.4,73.8 C91.4,73.3 91.3,72.7 91.3,72.2 C91.3,72 91.3,71.9 91.3,71.7 L91.3,71.7 C91,71.5 83.3,67.9 77.2,71.9 C73.7,74.2 70.7,79.1 70,88.7 C69,103.3 75.5,109.1 81.6,111.3 C84.8,112.5 87.9,112.7 89.7,112.6 C89.6,112.3 89.6,112.1 89.5,111.8 C89.5,111.6 89.4,111.4 89.4,111.2 C89.4,111 89.3,110.8 89.3,110.6 C89.2,110.3 89.2,109.9 89.2,109.6 C89.1,109.2 89.1,108.9 89.1,108.6 C89.1,108.3 89,108 89,107.7 C88.9,106.4 88.9,105.1 88.9,103.8 C89,98.5 91.6,89.4 91.8,85.4 C91.8,83.9 91.7,81.3 91.6,78.4" id="Path" fill="#E2B486" fill-rule="nonzero"></path>
                <path d="M81,76 C81,76 87.6,79 86.1,89.5 C86.1,89.5 86.3,95 87.2,97.5" id="Path" stroke="#000000" stroke-width="0.8538" stroke-linecap="round" stroke-linejoin="round"></path>
                <path d="M86.4,104.4 C86.4,105.5 85.5,106.4 84.4,106.4 C83.3,106.4 82.4,105.5 82.4,104.4 C82.4,103.3 83.3,102.4 84.4,102.4 C85.5,102.4 86.4,103.3 86.4,104.4" id="Path" fill="#000000" fill-rule="nonzero"></path>
                <path d="M196.8,80.1 C193.4,76.4 188.5,75.9 185.4,76 C184.5,83.6 182.2,90 181,92.9 C180.9,93.2 180.7,93.4 180.4,93.5 C178.8,103.6 176.4,111.7 173.4,118 C173.5,118.2 173.6,118.3 173.6,118.3 C175.4,118.8 178.6,119.4 182.2,119 C189,118.3 197.1,114.1 199.7,99 C201.5,89.1 199.7,83.4 196.8,80.1" id="Path" fill="#E2B486" fill-rule="nonzero"></path>
                <path d="M191.8,83.3 C191.8,83.3 184.4,84.7 183.1,95.7 C183.1,95.7 181.5,101.2 180,103.5" id="Path" stroke="#000000" stroke-width="0.8538" stroke-linecap="round" stroke-linejoin="round"></path>
                <path d="M183.2,111.8 C182.9,112.9 181.7,113.6 180.6,113.4 C179.5,113.1 178.8,112 179,110.8 C179.3,109.7 180.5,109 181.6,109.2 C182.8,109.5 183.5,110.7 183.2,111.8" id="Path" fill="#000000" fill-rule="nonzero"></path>
                <path d="M144.2,158.1 C136.1,172.7 123.5,167.2 120.1,156.3 L126.2,156.8 L126.5,141.6 C128.8,141.8 131.2,142 133.8,142 C134.9,142 136.1,142 137.4,142 L137.4,157.7 L144.2,158.1 Z" id="Path" fill="#EABF8F" fill-rule="nonzero"></path>
                <path d="M138.8,199.5 L150,197.6 C151.6,197.3 152.7,199.2 151.7,200.5 L142.3,211.8 C141.9,212.2 141.8,212.8 141.9,213.3 L144.8,226.5 C145.2,228.1 143.3,229.3 141.9,228.3 L132,220.4 C131.4,220 130.7,219.9 130,220.2 L118,226.7 C116.6,227.5 114.9,226.1 115.5,224.5 L119.8,212.4 C120,211.9 119.9,211.2 119.6,210.8 L111.6,199.6 C110.7,198.3 111.7,196.6 113.3,196.8 L123.7,198.1 C124.5,198.2 125.3,197.7 125.6,197 L129.9,186.3 C130.5,184.7 132.8,184.8 133.3,186.4 L136.9,198.2 C137.1,199.1 138,199.7 138.8,199.5" id="Path" fill="#95C11F" fill-rule="nonzero"></path>
                <path d="M31.2,166.1 C31.2,166.1 42.4,164.1 42.5,157.9 C42.6,151.8 32.2,143.5 27.3,144.7 C25,145.2 21,149.6 21.4,151.9 C21.9,154.6 30.7,157.4 30.7,157.4" id="Path" fill="#F3D19F" fill-rule="nonzero"></path>
                <path d="M31.2,166.1 C31.2,166.1 42.4,164.1 42.5,157.9 C42.6,151.8 32.2,143.5 27.3,144.7 C25,145.2 21,149.6 21.4,151.9 C21.9,154.6 30.7,157.4 30.7,157.4" id="Path" stroke="#CEA676" stroke-width="0.8538"></path>
                <path d="M166.4,264.8 C166.5,266.3 165.6,267.7 164.1,268.1 C163.5,268.3 162.8,268.5 161.9,268.7 C155.6,270.4 143.7,273 130.1,272.9 L130,272.9 C128.9,272.9 127.7,272.9 126.6,272.8 C113.4,272.2 101.4,269 95.2,267.1 C94.5,266.9 93.8,266.7 93.3,266.5 C91.9,266 91,264.6 91.2,263.1 L91.9,258 C103.1,262.8 130.6,271.3 165.9,258.3 L166.4,264.8 Z" id="Path" fill="#95C11F" fill-rule="nonzero"></path>
                <path d="M175.7,346 C175.7,346 156.7,364 133.2,348.1 L132.6,338.6 L131.5,296.6 C129.3,296.6 127.2,296.5 125.1,296.4 L122.7,337.8 L122.1,347.3 C115.6,351.7 109.5,353.4 104.1,353.8 C98.4,354.1 93.3,352.8 89.3,351.2 C83.3,348.7 79.7,345.3 79.7,345.3 L81.1,338.1 L95.1,267.2 C101.3,269.1 113.3,272.4 126.5,272.9 C127.6,273 128.8,273 129.9,273 L130,273 C143.6,273.1 155.5,270.5 161.8,268.8 L163.9,279.6 L167,295.1 L168.1,300.9 L168.1,301 L174,338.8 L175.7,346 Z" id="Path" fill="#455A64" fill-rule="nonzero"></path>
                <line x1="159.3" y1="187.5" x2="158.5" y2="179.5" id="Path" stroke="#822E82" stroke-width="1.0275" stroke-linecap="round" stroke-linejoin="round"></line>
                <line x1="101.5" y1="185.7" x2="102.8" y2="176.1" id="Path" stroke="#822E82" stroke-width="1.0275" stroke-linecap="round" stroke-linejoin="round"></line>
                <path d="M134,86.2 C134,86.2 120.5,83.2 123.2,98.6" id="Path" stroke="#000000" stroke-width="0.9478" stroke-linecap="round" stroke-linejoin="round"></path>
                <path d="M82.4,67.5 C82.6,75.8 91.8,85.4 91.8,85.4 L91.3,70.3" id="Path" fill="#3F4E66" fill-rule="nonzero"></path>
                <path d="M148.5,158.4 C140.8,177.5 119.4,174 116,155.9 L120.2,156.2 C123.6,167.2 136.2,172.6 144.3,158 L148.5,158.4 Z" id="Path" fill="#95C11F" fill-rule="nonzero"></path>
                <path d="M89.4,205.1 L86.1,208.3 C85.3,209 84.1,209 83.4,208.2 L78.7,203.3 L69.4,193.5 L65.8,189.7 C65.1,188.9 65.1,187.7 65.9,187 L69.8,183.3 C70.6,182.6 71.8,182.6 72.6,183.4 L73.5,184.4 L88.5,201.1 L89.6,202.3 C90.2,203.2 90.2,204.4 89.4,205.1" id="Path" fill="#95C11F" fill-rule="nonzero"></path>
                <path d="M188.5,204.6 L189.3,208.8 C189.5,209.8 188.9,210.7 187.9,210.9 L181.7,212 L169.4,214.3 L164.6,215.2 C163.6,215.4 162.7,214.7 162.5,213.8 L161.6,208.9 C161.4,207.9 162.1,207 163.1,206.8 L164.3,206.6 L184.9,203.4 L186.4,203.2 C187.4,203.1 188.3,203.7 188.5,204.6" id="Path" fill="#95C11F" fill-rule="nonzero"></path>
                <path d="M26.1,135.3 C26.1,135.3 27,132.6 27.8,129.6" id="Path" stroke="#CEA676" stroke-width="0.8538" stroke-linecap="round" stroke-linejoin="round"></path>
                <path d="M34,137.8 C34,137.8 35.4,135.3 37.5,132.8" id="Path" stroke="#CEA676" stroke-width="0.8538" stroke-linecap="round" stroke-linejoin="round"></path>
                <g transform="translate(30.000000, 350.000000)" fill-rule="nonzero" id="Path">
                    <path d="M75.1,3.5 L70.8,70.9 C63.6,73 57.8,70.8 54.5,68.7 L60.3,0.8 C64.3,2.5 69.3,3.8 75.1,3.5" fill="#F3D19F"></path>
                    <path d="M54.5,74 C57.8,76 63.4,78.2 70.4,76.3 L70.7,71 C70.7,71 63,73.5 54.4,68.8 L54.4,74 L54.5,74 Z" fill="#FFCE00"></path>
                    <path d="M70.4,76.2 L68.4,107.6 L68.2,111 C66.4,111.2 64.2,110.8 64.2,110.8 L58.1,121.1 L58.1,110.1 C57.6,108 54.9,106.8 51.8,106.3 L54.6,73.9 C57.7,76 63.3,78.2 70.4,76.2" fill="#FF74BE"></path>
                    <path d="M72.9,135.3 C73.1,138.5 71.4,141.5 68.6,142.9 L57.5,148.6 C56.4,149.2 55.4,150 54.7,151 L44.9,164.4 C44.1,165.5 43,166.4 41.7,167 C30.1,171.9 14.1,167.5 5.9,164.6 C2.7,163.5 0.7,160.5 0.7,157.1 L0.7,150 C0.7,153.3 2.8,156.4 5.9,157.5 C14.1,160.4 30.1,164.8 41.7,159.9 C43,159.4 44.1,158.4 44.9,157.3 L54.7,143.9 C55.4,142.9 56.4,142.1 57.5,141.5 L68.6,135.8 C70.6,134.8 72,133.1 72.6,131 L72.9,135.3 Z" fill="#A58FEA"></path>
                    <path d="M72.1,125.2 L72.5,131 C71.9,133 70.5,134.8 68.5,135.8 L57.4,141.5 C56.3,142.1 55.3,142.9 54.6,143.9 L44.8,157.3 C44,158.4 42.9,159.3 41.6,159.9 C30,164.8 14,160.4 5.8,157.5 C2.6,156.4 0.6,153.4 0.6,150 L0.6,148.5 C0.6,145.6 2.1,143 4.6,141.6 C9.1,139 16.8,134.7 24,130.6 C24,130.6 24,130.6 24,130.6 C24.1,130.5 24.2,130.5 24.3,130.4 L37.4,123.1 C40,121.7 41.6,120.7 41.8,120.7 C41.8,120.7 41.5,117.4 41.2,113.8 C40.9,109.9 40.6,105.8 40.9,105.8 L47.1,105.8 C48.4,105.9 49.9,106 51.2,106.2 C51.3,106.2 51.5,106.3 51.6,106.3 C54.8,106.9 57.5,108 57.9,110.1 L57.9,121.1 L64,110.8 C64,110.8 66.1,111.2 68,111 C68.1,111 68.2,111 68.3,111 C69.3,110.8 70.2,110.5 70.5,109.8 L73,112.1 L74.1,113.1 L72.4,123 L72.1,125.2 Z" fill="#CAC7E0"></path>
                    <path d="M24.1,130.6 C24.1,130.6 39.8,126.2 46,136.2 L53.4001161,131 C53.4001161,131 53.6,125.2 37.4,123.1 L24.1,130.6 Z" fill="#FFCE00"></path>
                </g>
                <path d="M131.6,296.6 C137.6,296.6 143.7,296.3 148.2,295.2" id="Path" stroke="#25383F" stroke-width="0.8965" stroke-linecap="round" stroke-linejoin="round"></path>
                <path d="M131.6,296.6 C123.9,296.3 111.3,295.3 111.3,295.2" id="Path" stroke="#25383F" stroke-width="0.8965" stroke-linecap="round" stroke-linejoin="round"></path>
            </g>
        </g>
    </g>
</svg>