<?xml version="1.0" encoding="UTF-8"?>
<svg width="220px" height="552px" viewBox="0 0 220 552" version="1.1" xmlns="http://www.w3.org/2000/svg" xmlns:xlink="http://www.w3.org/1999/xlink">
    <title>Group 2@2x</title>
    <g id="Screens" stroke="none" stroke-width="1" fill="none" fill-rule="evenodd">
        <g id="Tablet" transform="translate(-707.000000, -94.000000)">
            <g id="Group-2" transform="translate(707.000000, 94.777829)">
                <path d="M212.635229,180.722171 C207.635229,201.322171 192.135229,245.222171 183.935229,246.722171 C178.335229,247.722171 166.235229,235.022171 157.635229,224.922171 C160.135229,223.322171 162.935229,221.422171 164.135229,220.222171 C165.035229,219.322171 166.335229,217.122171 167.535229,215.222171 C173.635229,221.722171 180.335229,228.422171 181.635229,227.422171 C185.135229,224.522171 198.035229,179.722171 198.035229,179.722171 L212.635229,180.722171 Z" id="Path" fill="#F3D19F" fill-rule="nonzero"></path>
                <path d="M216.935229,178.522171 C215.235229,180.822171 205.835229,181.522171 205.835229,181.522171 L196.635229,181.522171 C196.635229,181.522171 192.935229,181.522171 189.735229,178.222171 C186.235229,174.622171 182.435229,159.622171 182.435229,159.622171 C182.435229,159.622171 169.535229,141.822171 168.035229,140.322171 C167.635229,139.922171 166.735229,137.022171 167.235229,135.922171 C168.135229,133.822171 172.435229,129.022171 174.435229,130.122171 C178.935229,132.522171 185.735229,143.622171 188.635229,150.622171 C188.735229,150.522171 188.935229,150.522171 189.035229,150.422171 C187.435229,146.422171 180.335229,129.022171 179.435229,127.322171 C179.135229,126.822171 179.135229,123.722171 179.835229,122.922171 C181.235229,121.122171 186.735229,117.722171 188.335229,119.322171 C192.035229,122.922171 196.835229,139.022171 197.735229,146.822171 C197.935229,146.722171 198.135229,146.722171 198.235229,146.622171 C197.535229,142.122171 195.135229,126.022171 194.735229,124.222171 C194.635229,123.722171 195.335229,120.822171 196.135229,120.222171 C197.935229,118.822171 203.735229,117.022171 204.935229,118.922171 C207.335229,122.922171 208.135229,136.822171 207.435229,144.522171 C207.935229,144.422171 208.435229,144.422171 208.935229,144.422171 C209.035229,139.922171 209.135229,129.522171 208.935229,128.122171 C208.935229,127.622171 209.835229,125.222171 210.635229,124.822171 C212.335229,123.822171 217.635229,123.022171 218.435229,124.822171 C220.135229,128.822171 218.635229,139.722171 216.735229,145.822171 C216.735229,145.822171 216.735229,145.822171 216.735229,145.822171 C216.635229,145.922171 221.835229,172.022171 216.935229,178.522171" id="Path" fill="#F3D19F" fill-rule="nonzero"></path>
                <path d="M189.635229,178.522171 C189.635229,178.522171 183.835229,176.122171 171.835229,175.722171 C170.735229,175.722171 169.335229,173.222171 169.035229,172.222171 C168.635229,170.722171 169.135229,167.522171 169.635229,165.022171 C169.935229,163.322171 171.535229,162.222171 173.235229,162.522171 C177.435229,163.322171 186.835229,164.622171 192.935229,169.722171" id="Path" fill="#F3D19F" fill-rule="nonzero"></path>
                <path d="M186.735229,152.422171 C186.735229,152.422171 194.235229,146.122171 210.535229,144.522171" id="Path" stroke="#CEA676" stroke-width="0.962" stroke-linecap="round" stroke-linejoin="round"></path>
                <path d="M41.4352286,275.522171 L39.5352286,277.122171 L17.3352286,247.822171 C15.7352286,245.722171 16.1352286,242.722171 18.2352286,241.022171 L34.3352286,228.422171 C32.2352286,227.322171 29.7352286,225.722171 27.8352286,223.522171 C27.0352286,222.522171 25.9352286,220.822171 24.9352286,219.022171 L1.73522858,238.922171 C-0.164771425,240.522171 -0.564771425,243.322171 0.835228575,245.322171 L28.4352286,286.122171 L27.9352286,286.522171 C26.2352286,287.922171 25.7352286,290.222171 26.7352286,292.122171 C30.5352286,299.922171 40.3352286,319.022171 47.8352286,321.322171 C50.5352286,322.122171 56.4352286,318.022171 60.7352286,314.122171 C60.8352286,314.022171 60.9352286,313.922171 61.0352286,313.822171 C62.9352286,312.022171 64.5352286,310.422171 65.2352286,309.322171 C65.5352286,308.822171 65.9352286,308.222171 66.3352286,307.422171 L66.3352286,307.422171 C67.4352286,305.222171 68.7352286,302.422171 69.6352286,300.322171 C70.3352286,298.622171 69.9352286,296.622171 68.6352286,295.322171 L66.7352286,293.422171 C66.3352286,293.022171 65.7352286,292.622171 65.2352286,292.422171 C64.1352286,292.022171 62.8352286,292.022171 61.7352286,292.522171 L59.4352286,293.522171 L49.9352286,283.922171" id="Path" fill="#F3D19F" fill-rule="nonzero"></path>
                <path d="M50.0352286,284.222171 C52.8352286,289.022171 63.0352286,297.022171 63.0352286,297.022171" id="Path" stroke="#CEA676" stroke-width="0.8965" stroke-linecap="round" stroke-linejoin="round"></path>
                <path d="M66.8352286,307.922171 C66.7352286,308.022171 65.2352286,309.122171 62.7352286,308.522171 C60.5352286,307.922171 57.5352286,306.022171 54.1352286,300.922171" id="Path" stroke="#CEA676" stroke-width="0.8965" stroke-linecap="round" stroke-linejoin="round"></path>
                <path d="M61.6352286,314.322171 C61.6352286,314.322171 56.5352286,318.522171 48.8352286,307.322171" id="Path" stroke="#CEA676" stroke-width="0.8965" stroke-linecap="round" stroke-linejoin="round"></path>
                <path d="M55.8352286,318.222171 C55.8352286,318.222171 50.7352286,322.422171 43.0352286,311.222171" id="Path" stroke="#CEA676" stroke-width="0.8965" stroke-linecap="round" stroke-linejoin="round"></path>
                <path d="M1.73522858,239.022171 C-0.164771425,240.622171 -0.564771425,243.422171 0.835228575,245.422171 L28.4352286,286.222171 L27.9352286,286.622171 C26.2352286,288.022171 25.7352286,290.322171 26.7352286,292.222171 C30.5352286,300.022171 40.3352286,319.122171 47.8352286,321.422171 C50.5352286,322.222171 56.4352286,318.122171 60.7352286,314.222171 C60.8352286,314.122171 60.9352286,314.022171 61.0352286,313.922171 C62.9352286,312.122171 64.5352286,310.522171 65.2352286,309.422171 C65.5352286,308.922171 65.9352286,308.322171 66.3352286,307.522171 L66.3352286,307.522171 C67.4352286,305.322171 68.7352286,302.522171 69.6352286,300.422171 C70.3352286,298.722171 69.9352286,296.722171 68.6352286,295.422171 L66.7352286,293.522171 C66.3352286,293.122171 65.7352286,292.722171 65.2352286,292.522171 C64.1352286,292.122171 62.8352286,292.122171 61.7352286,292.622171 L59.4352286,293.622171 L49.9352286,284.022171 L41.4352286,275.422171 L39.5352286,277.022171 L17.3352286,247.722171 C15.7352286,245.622171 16.1352286,242.622171 18.2352286,240.922171 L34.3352286,228.322171 C32.2352286,227.222171 29.7352286,225.622171 27.8352286,223.422171 C27.0352286,222.422171 25.9352286,220.722171 24.9352286,218.922171 L1.73522858,239.022171 Z" id="Path"></path>
                <path d="M153.235229,466.322171 C146.135229,467.922171 130.535229,470.522171 120.535229,466.622171 C120.535229,466.622171 120.435229,466.622171 120.435229,466.622171 L108.735229,323.722171 C104.535229,324.022171 100.435229,324.122171 96.5352286,324.022171 L96.5352286,324.422171 L84.8352286,467.622171 C84.8352286,467.622171 84.7352286,467.622171 84.7352286,467.622171 C74.7352286,471.522171 59.2352286,468.822171 52.0352286,467.322171 L67.4352286,304.522171 L134.435229,300.522171 L137.735229,299.722171 L153.235229,466.322171 Z" id="Path" fill="#455A64" fill-rule="nonzero"></path>
                <path d="M84.9352286,467.622171 L84.8352286,469.022171 C74.8352286,472.922171 59.1352286,470.222171 52.0352286,468.622171 L52.1352286,467.322171 C59.2352286,468.922171 74.8352286,471.522171 84.8352286,467.622171 C84.8352286,467.622171 84.8352286,467.622171 84.9352286,467.622171" id="Path" fill="#455A64" fill-rule="nonzero"></path>
                <path d="M87.3352286,466.422171 L86.3352286,480.122171 C86.3352286,480.122171 81.7352286,481.622171 75.4352286,482.422171 C69.7352286,483.122171 62.6352286,483.322171 56.2352286,481.322171 C53.0352286,480.322171 49.9352286,478.822171 47.3352286,476.622171 L48.2352286,466.322171 C48.2352286,466.322171 49.6352286,466.722171 51.9352286,467.222171 C51.9352286,467.222171 52.0352286,467.222171 52.0352286,467.222171 C59.1352286,468.822171 74.7352286,471.422171 84.7352286,467.522171 C84.7352286,467.522171 84.8352286,467.522171 84.8352286,467.522171 C85.7352286,467.222171 86.6352286,466.822171 87.3352286,466.422171" id="Path" fill="#677F89" fill-rule="nonzero"></path>
                <path d="M76.3352286,482.422171 C75.9352286,485.522171 75.4352286,489.422171 74.9352286,493.322171 C73.1352286,493.422171 71.2352286,493.122171 71.2352286,493.122171 L65.1352286,503.422171 L65.1352286,492.422171 C64.6352286,490.322171 61.9352286,489.122171 58.8352286,488.522171 C58.7352286,488.522171 58.5352286,488.422171 58.4352286,488.422171 C57.8352286,488.322171 57.2352286,488.222171 56.5352286,488.122171 L57.1352286,481.222171 C63.5352286,483.322171 70.6352286,483.222171 76.3352286,482.422171" id="Path" fill="#F3D19F" fill-rule="nonzero"></path>
                <path d="M153.335229,467.622171 C146.235229,469.222171 130.535229,471.922171 120.535229,468.022171 L120.435229,466.622171 C120.435229,466.622171 120.535229,466.622171 120.535229,466.622171 C130.535229,470.522171 146.035229,467.822171 153.235229,466.322171 L153.335229,467.622171 Z" id="Path" fill="#455A64" fill-rule="nonzero"></path>
                <path d="M157.935229,475.722171 C155.235229,477.922171 152.235229,479.422171 149.035229,480.422171 C142.535229,482.422171 135.535229,482.222171 129.835229,481.522171 C123.535229,480.722171 118.935229,479.222171 118.935229,479.222171 L117.935229,465.522171 C118.735229,465.922171 119.535229,466.422171 120.435229,466.722171 C120.435229,466.722171 120.535229,466.722171 120.535229,466.722171 C130.535229,470.622171 146.035229,467.922171 153.135229,466.422171 C153.135229,466.422171 153.235229,466.422171 153.235229,466.422171 C155.535229,465.922171 156.935229,465.522171 156.935229,465.522171 L157.935229,475.722171 Z" id="Path" fill="#677F89" fill-rule="nonzero"></path>
                <path d="M128.935229,481.422171 C129.335229,484.522171 129.835229,488.422171 130.335229,492.322171 C132.135229,492.422171 134.035229,492.122171 134.035229,492.122171 L140.135229,502.422171 L140.135229,491.422171 C140.635229,489.322171 143.335229,488.122171 146.435229,487.522171 C146.535229,487.522171 146.735229,487.422171 146.835229,487.422171 C147.435229,487.322171 148.035229,487.222171 148.735229,487.122171 L148.135229,480.222171 C141.635229,482.322171 134.535229,482.122171 128.935229,481.422171" id="Path" fill="#F3D19F" fill-rule="nonzero"></path>
                <path d="M108.835229,323.622171 C108.835229,323.622171 114.835229,323.622171 120.235229,322.422171" id="Path" fill="#455A64" fill-rule="nonzero"></path>
                <path d="M56.4352286,290.722171 C57.5352286,286.722171 59.7352286,278.022171 57.5352286,275.622171 C54.8352286,272.622171 46.3352286,271.822171 41.4352286,275.622171" id="Path" fill="#F3D19F" fill-rule="nonzero"></path>
                <path d="M123.335229,169.622171 L122.735229,169.122171 L123.335229,169.622171 C123.335229,169.622171 123.335229,169.622171 123.335229,169.622171 Z" id="Path" stroke="#000000" stroke-width="0.8538" stroke-linecap="round" stroke-linejoin="round"></path>
                <path d="M162.735229,204.522171 L123.435229,169.722171 L123.435229,169.722171 L122.835229,169.222171 C122.235229,168.822171 121.635229,168.622171 120.935229,168.622171 L113.535229,169.222171 C110.135229,187.222171 88.6352286,190.822171 81.0352286,171.722171 L75.4352286,172.122171 C75.0352286,172.122171 74.5352286,172.222171 74.1352286,172.422171 L30.0352286,207.322171 L28.2352286,208.822171 C30.0352286,213.822171 34.3352286,221.422171 43.6352286,225.622171 L69.6352286,200.822171 L70.0352286,200.422171 L70.0352286,200.722171 L63.3352286,298.122171 C97.8352286,310.622171 127.435229,298.722171 139.035229,293.722171 L127.935229,198.922171 L127.935229,198.822171 L128.735229,199.722171 L149.635229,223.322171 C154.135229,220.222171 161.435229,214.222171 164.835229,206.422171 L162.735229,204.522171 Z" id="Path" fill="#0275D8" fill-rule="nonzero"></path>
                <path d="M139.635229,298.922171 C128.435229,303.722171 98.1352286,316.422171 62.9352286,303.422171 L63.3352286,298.022171 C97.8352286,310.522171 127.435229,298.622171 139.035229,293.622171 L139.635229,298.922171 Z" id="Path" fill="#95C11F" fill-rule="nonzero"></path>
                <path d="M110.035229,169.422171 C106.535229,180.722171 93.5352286,186.322171 85.2352286,171.322171 L92.2352286,170.822171 L92.2352286,156.522171 C96.0352286,156.722171 99.7352286,156.622171 103.435229,156.322171 L103.635229,170.022171 L110.035229,169.422171 Z" id="Path" fill="#EABF8F" fill-rule="nonzero"></path>
                <path d="M113.435229,169.122171 C110.035229,187.122171 88.5352286,190.722171 80.9352286,171.622171 L85.1352286,171.322171 C93.2352286,185.922171 105.835229,180.422171 109.235229,169.522171 L113.435229,169.122171 Z" id="Path" fill="#95C11F" fill-rule="nonzero"></path>
                <path d="M169.835229,210.822171 C169.835229,210.822171 168.135229,215.122171 164.035229,220.122171 C160.535229,224.422171 153.235229,227.422171 153.235229,227.422171 L149.435229,223.122171 C153.935229,220.022171 161.235229,214.022171 164.635229,206.222171 L169.835229,210.822171 Z" id="Path" fill="#95C11F" fill-rule="nonzero"></path>
                <path d="M43.5352286,225.622171 L38.5352286,230.322171 C38.5352286,230.322171 36.6352286,229.722171 34.3352286,228.522171 C32.2352286,227.422171 29.7352286,225.822171 27.8352286,223.622171 C27.0352286,222.622171 25.9352286,220.922171 24.9352286,219.122171 C23.3352286,216.422171 21.9352286,213.722171 21.9352286,213.722171 L28.1352286,208.822171 C30.0352286,213.722171 34.2352286,221.322171 43.5352286,225.622171" id="Path" fill="#95C11F" fill-rule="nonzero"></path>
                <line x1="69.7352286" y1="200.322171" x2="69.7352286" y2="185.322171" id="Path" stroke="#034F87" stroke-width="0.8538" stroke-linecap="round" stroke-linejoin="round"></line>
                <line x1="127.935229" y1="202.222171" x2="127.935229" y2="187.222171" id="Path" stroke="#034F87" stroke-width="0.8538" stroke-linecap="round" stroke-linejoin="round"></line>
                <path d="M119.435229,222.822171 C119.435229,232.622171 111.435229,240.622171 101.635229,240.622171 C91.8352286,240.622171 83.8352286,232.622171 83.8352286,222.822171 C83.8352286,213.022171 91.8352286,205.022171 101.635229,205.022171 C111.535229,205.022171 119.435229,213.022171 119.435229,222.822171" id="Path" fill="#95C11F" fill-rule="nonzero"></path>
                <path d="M95.1352286,217.222171 C95.1352286,218.822171 94.3352286,220.022171 93.2352286,220.022171 C92.2352286,220.022171 91.3352286,218.722171 91.3352286,217.222171 C91.3352286,215.622171 92.1352286,214.422171 93.2352286,214.422171 C94.2352286,214.422171 95.1352286,215.622171 95.1352286,217.222171" id="Path" fill="#0275D8" fill-rule="nonzero"></path>
                <path d="M111.935229,217.222171 C111.935229,218.822171 111.135229,220.022171 110.035229,220.022171 C108.935229,220.022171 108.135229,218.722171 108.135229,217.222171 C108.135229,215.622171 108.935229,214.422171 110.035229,214.422171 C111.135229,214.422171 111.935229,215.622171 111.935229,217.222171" id="Path" fill="#0275D8" fill-rule="nonzero"></path>
                <path d="M95.9352286,227.922171 C95.9352286,227.922171 103.835229,236.122171 109.335229,226.422171" id="Path" fill="#95C11F" fill-rule="nonzero"></path>
                <path d="M95.9352286,227.922171 C95.9352286,227.922171 103.835229,236.122171 109.335229,226.422171" id="Path" stroke="#0275D8" stroke-width="0.8538"></path>
                <path d="M162.335229,61.3221706 L163.035229,89.4221706 C159.435229,88.8221706 155.435229,89.4221706 153.235229,89.8221706 C153.235229,89.8221706 153.235229,89.8221706 153.135229,89.8221706 C152.935229,89.8221706 152.735229,89.9221706 152.635229,89.9221706 C152.635229,89.9221706 152.535229,89.9221706 152.535229,89.9221706 C152.435229,89.9221706 152.335229,89.9221706 152.335229,90.0221706 L152.335229,90.0221706 C151.435229,78.6221706 150.035229,69.8221706 150.035229,69.8221706 C147.235229,52.1221706 126.435229,61.5221706 126.435229,61.5221706 C119.535229,71.2221706 95.1352286,59.6221706 76.9352286,55.9221706 C58.7352286,52.2221706 49.9352286,59.6221706 46.2352286,67.0221706 C42.4352286,74.6221706 40.6352286,91.4221706 40.4352286,103.922171 L27.2352286,97.7221706 C25.9352286,97.2221706 -0.764771425,58.0221706 27.2352286,51.9221706 C27.2352286,51.9221706 83.5352286,-15.2778294 139.635229,3.22217058 C139.635229,3.22217058 161.935229,9.42217058 127.535229,30.6221706 C129.535229,29.9221706 176.135229,13.0221706 180.535229,28.7221706 C180.535229,28.7221706 186.035229,44.1221706 162.335229,61.3221706" id="Path" fill="#684642" fill-rule="nonzero"></path>
                <path d="M41.4352286,99.3221706 C41.4352286,99.3221706 42.2352286,94.2221706 39.5352286,94.5221706 C39.1352286,94.4221706 28.0352286,92.6221706 22.5352286,97.7221706 C19.3352286,100.622171 17.0352286,106.122171 17.9352286,116.022171 C19.2352286,131.122171 26.8352286,135.922171 33.3352286,137.222171 C36.8352286,137.922171 44.2352286,137.122171 46.0352286,136.822171" id="Path" fill="#E2B486" fill-rule="nonzero"></path>
                <path d="M27.0352286,100.522171 C27.0352286,100.522171 34.2352286,102.522171 34.4352286,113.422171 C34.4352286,113.422171 35.5352286,119.022171 36.8352286,121.422171" id="Path" stroke="#000000" stroke-width="0.8538" stroke-linecap="round" stroke-linejoin="round"></path>
                <path d="M151.035229,129.822171 C150.335229,132.622171 149.335229,134.922171 148.135229,136.722171 C140.835229,147.422171 122.835229,155.222171 103.135229,156.722171 C99.5352286,157.022171 95.9352286,157.122171 92.2352286,156.922171 C77.1352286,156.222171 61.9352286,151.722171 50.3352286,141.822171 C44.2352286,136.722171 41.6352286,122.422171 41.1352286,114.922171 C40.9352286,112.322171 40.4352286,107.522171 40.4352286,103.922171 C40.7352286,91.3221706 42.4352286,74.6221706 46.2352286,67.0221706 C49.9352286,59.6221706 58.7352286,52.2221706 76.9352286,55.9221706 C95.1352286,59.6221706 122.135229,70.9221706 126.335229,61.1221706 C126.335229,61.1221706 147.235229,52.0221706 150.035229,69.8221706 C150.035229,69.8221706 151.435229,78.6221706 152.335229,90.0221706 L152.335229,90.0221706 C152.635229,93.6221706 152.835229,97.5221706 153.035229,101.422171 C153.335229,111.722171 153.035229,122.322171 151.035229,129.822171" id="Path" fill="#F3D19F" fill-rule="nonzero"></path>
                <path d="M76.3352286,93.3221706 C76.3352286,95.9221706 74.6352286,98.0221706 72.5352286,98.0221706 C70.4352286,98.0221706 68.7352286,95.9221706 68.7352286,93.3221706 C68.7352286,90.7221706 70.4352286,88.6221706 72.5352286,88.6221706 C74.6352286,88.6221706 76.3352286,90.7221706 76.3352286,93.3221706" id="Path" fill="#000000" fill-rule="nonzero"></path>
                <path d="M127.035229,93.3221706 C127.035229,95.9221706 125.335229,98.0221706 123.235229,98.0221706 C121.135229,98.0221706 119.435229,95.9221706 119.435229,93.3221706 C119.435229,90.7221706 121.135229,88.6221706 123.235229,88.6221706 C125.335229,88.6221706 127.035229,90.7221706 127.035229,93.3221706" id="Path" fill="#000000" fill-rule="nonzero"></path>
                <path d="M101.335229,101.022171 C101.335229,101.022171 114.835229,98.0221706 112.135229,113.422171" id="Path" stroke="#000000" stroke-width="0.8538" stroke-linecap="round" stroke-linejoin="round"></path>
                <path d="M75.9352286,128.622171 C75.7352286,131.822171 77.4352286,134.822171 80.2352286,137.322171 C92.7352286,132.222171 107.435229,138.722171 113.435229,141.822171 C122.335229,137.622171 126.235229,129.722171 122.535229,124.022171 C121.335229,122.122171 119.635229,121.422171 117.535229,121.322171 C117.635229,122.922171 117.835229,125.222171 117.935229,126.822171 C118.035229,128.122171 117.235229,129.322171 116.035229,129.822171 C110.235229,132.022171 92.9352286,137.422171 75.9352286,128.622171" id="Path" fill="#FF74BE" fill-rule="nonzero"></path>
                <path d="M75.9352286,128.622171 C75.7352286,131.822171 77.4352286,134.822171 80.2352286,137.322171 C92.7352286,132.222171 107.435229,138.722171 113.435229,141.822171 C122.335229,137.622171 126.235229,129.722171 122.535229,124.022171 C121.335229,122.122171 119.635229,121.422171 117.535229,121.322171 C117.635229,122.922171 117.835229,125.222171 117.935229,126.822171 C118.035229,128.122171 117.235229,129.322171 116.035229,129.822171 C110.235229,132.022171 92.9352286,137.422171 75.9352286,128.622171 Z" id="Path" stroke="#000000" stroke-width="0.8538" stroke-linecap="round" stroke-linejoin="round"></path>
                <path d="M75.9352286,128.622171 C92.8352286,137.422171 110.235229,132.022171 115.935229,129.822171 C117.135229,129.322171 117.935229,128.122171 117.835229,126.822171 C117.735229,125.222171 117.535229,122.922171 117.435229,121.322171 C113.335229,121.122171 107.835229,123.222171 101.135229,123.522171 C94.4352286,123.722171 80.4352286,118.422171 77.0352286,124.922171 C76.3352286,126.122171 76.0352286,127.422171 75.9352286,128.622171 Z" id="Path" stroke="#000000" stroke-width="0.8538" stroke-linecap="round" stroke-linejoin="round"></path>
                <path d="M75.9352286,128.622171 C92.8352286,137.422171 110.235229,132.022171 115.935229,129.822171 C117.135229,129.322171 117.935229,128.122171 117.835229,126.822171 C117.735229,125.222171 117.535229,122.922171 117.435229,121.322171 C113.335229,121.122171 107.835229,123.222171 101.135229,123.522171 C94.4352286,123.722171 80.4352286,118.422171 77.0352286,124.922171 C76.3352286,126.122171 76.0352286,127.422171 75.9352286,128.622171" id="Path" fill="#FFFFFF" fill-rule="nonzero"></path>
                <path d="M75.9352286,128.622171 C92.8352286,137.422171 110.235229,132.022171 115.935229,129.822171 C117.135229,129.322171 117.935229,128.122171 117.835229,126.822171 C117.735229,125.222171 117.535229,122.922171 117.435229,121.322171 C113.335229,121.122171 107.835229,123.222171 101.135229,123.522171 C94.4352286,123.722171 80.4352286,118.422171 77.0352286,124.922171 C76.3352286,126.122171 76.0352286,127.422171 75.9352286,128.622171 Z" id="Path" stroke="#000000" stroke-width="0.8538" stroke-linecap="round" stroke-linejoin="round"></path>
                <path d="M80.2352286,137.322171 C85.4352286,142.122171 94.4352286,145.322171 101.735229,144.822171 C106.235229,144.522171 110.135229,143.422171 113.335229,141.822171 C107.435229,138.622171 92.6352286,132.222171 80.2352286,137.322171" id="Path" fill="#F9487B" fill-rule="nonzero"></path>
                <path d="M80.2352286,137.322171 C85.4352286,142.122171 94.4352286,145.322171 101.735229,144.822171 C106.235229,144.522171 110.135229,143.422171 113.335229,141.822171 C107.435229,138.622171 92.6352286,132.222171 80.2352286,137.322171 Z" id="Path" stroke="#000000" stroke-width="0.8538" stroke-linecap="round" stroke-linejoin="round"></path>
                <path d="M172.835229,109.422171 C171.635229,123.822171 164.335229,128.522171 158.035229,129.722171 C156.235229,130.122171 153.435229,130.022171 150.835229,129.822171 C152.835229,122.222171 153.135229,111.722171 152.735229,101.522171 C152.635229,97.6221706 152.335229,93.7221706 152.035229,90.1221706 C152.135229,90.1221706 152.135229,90.1221706 152.235229,90.0221706 C152.235229,90.0221706 152.335229,90.0221706 152.335229,90.0221706 C152.535229,90.0221706 152.735229,89.9221706 152.835229,89.9221706 C152.835229,89.9221706 152.835229,89.9221706 152.935229,89.9221706 C155.135229,89.4221706 159.135229,88.9221706 162.735229,89.5221706 C164.835229,89.8221706 166.835229,90.6221706 168.335229,91.9221706 C171.435229,94.7221706 173.635229,99.9221706 172.835229,109.422171" id="Path" fill="#E2B486" fill-rule="nonzero"></path>
                <path d="M164.035229,95.3221706 C164.035229,95.3221706 157.135229,97.2221706 156.935229,107.722171 C156.935229,107.722171 155.935229,113.022171 154.635229,115.322171" id="Path" stroke="#000000" stroke-width="0.8538" stroke-linecap="round" stroke-linejoin="round"></path>
                <path d="M71.3352286,67.4221706 C66.5352286,67.4221706 54.6352286,70.6221706 56.3352286,75.7221706 C57.5352286,79.2221706 64.0352286,76.1221706 68.7352286,76.2221706 C75.0352286,76.3221706 82.1352286,78.2221706 83.5352286,74.4221706 C85.2352286,69.4221706 79.5352286,67.5221706 71.3352286,67.4221706" id="Path" fill="#684642" fill-rule="nonzero"></path>
                <path d="M71.3352286,67.4221706 C66.5352286,67.4221706 54.6352286,70.6221706 56.3352286,75.7221706 C57.5352286,79.2221706 64.0352286,76.1221706 68.7352286,76.2221706 C75.0352286,76.3221706 82.1352286,78.2221706 83.5352286,74.4221706 C85.2352286,69.4221706 79.5352286,67.5221706 71.3352286,67.4221706 Z" id="Path" stroke="#000000" stroke-width="0.8538"></path>
                <path d="M127.135229,67.4221706 C122.335229,67.4221706 110.435229,70.6221706 112.135229,75.7221706 C113.335229,79.2221706 119.835229,76.1221706 124.535229,76.2221706 C130.835229,76.3221706 137.935229,78.2221706 139.335229,74.4221706 C141.035229,69.4221706 135.335229,67.5221706 127.135229,67.4221706" id="Path" fill="#684642" fill-rule="nonzero"></path>
                <path d="M127.135229,67.4221706 C122.335229,67.4221706 110.435229,70.6221706 112.135229,75.7221706 C113.335229,79.2221706 119.835229,76.1221706 124.535229,76.2221706 C130.835229,76.3221706 137.935229,78.2221706 139.335229,74.4221706 C141.035229,69.4221706 135.335229,67.5221706 127.135229,67.4221706 Z" id="Path" stroke="#000000" stroke-width="0.8538"></path>
                <path d="M31.8352286,85.4221706 C31.8352286,85.4221706 31.3352286,105.122171 40.1352286,111.922171 C40.1352286,111.922171 42.0352286,112.722171 42.0352286,106.622171 C42.0352286,106.622171 41.8352286,89.1221706 42.9352286,76.5221706" id="Path" fill="#684642" fill-rule="nonzero"></path>
                <path d="M155.735229,73.3221706 C156.435229,98.8221706 152.835229,102.622171 152.735229,101.522171 L151.535229,84.0221706" id="Path" fill="#684642" fill-rule="nonzero"></path>
                <path d="M96.6352286,323.922171 C96.6352286,323.922171 110.635229,324.422171 118.035229,322.622171" id="Path" stroke="#25383F" stroke-width="0.8965" stroke-linecap="round" stroke-linejoin="round"></path>
                <path d="M126.335229,61.2221706 C126.335229,61.2221706 141.135229,35.9221706 98.4352286,38.4221706" id="Path" stroke="#000000" stroke-width="1.0758" stroke-linecap="round" stroke-linejoin="round"></path>
                <path d="M118.735229,32.6221706 C118.735229,32.6221706 127.935229,30.0221706 134.635229,28.4221706" id="Path" stroke="#000000" stroke-width="1.0758" stroke-linecap="round" stroke-linejoin="round"></path>
                <g id="Group" transform="translate(124.135229, 486.222171)" fill-rule="nonzero">
                    <path d="M1.3,30.1 C1.1,33.3 2.8,36.3 5.6,37.7 L16.7,43.4 C17.8,44 18.8,44.8 19.5,45.8 L29.3,59.2 C30.1,60.3 31.2,61.2 32.5,61.8 C44.1,66.7 60.1,62.3 68.3,59.4 C71.5,58.3 73.5,55.3 73.5,51.9 L73.5,44.7 C73.5,48 71.4,51.1 68.3,52.2 C60.1,55.1 44.1,59.5 32.5,54.6 C31.2,54.1 30.1,53.1 29.3,52 L19.5,38.6 C18.8,37.6 17.8,36.8 16.7,36.2 L5.6,30.5 C3.6,29.5 2.2,27.8 1.6,25.7 L1.3,30.1 Z" id="Path" fill="#A3BAC1"></path>
                    <path d="M2,20 L1.6,25.8 C2.2,27.8 3.6,29.6 5.6,30.6 L16.7,36.3 C17.8,36.9 18.8,37.7 19.5,38.7 L29.3,52.1 C30.1,53.2 31.2,54.1 32.5,54.7 C44.1,59.6 60.1,55.2 68.3,52.3 C71.5,51.2 73.5,48.2 73.5,44.8 L73.5,43.3 C73.5,40.4 72,37.8 69.5,36.4 C65,33.8 57.3,29.5 50.1,25.4 C50.1,25.4 50.1,25.4 50.1,25.4 C50,25.3 49.9,25.3 49.8,25.2 L36.7,17.9 C34.1,16.5 32.5,15.5 32.3,15.5 C32.3,15.5 32.6,12.2 32.9,8.6 C33.2,4.7 33.5,0.6 33.3,0.6 L27.1,0.6 C25.8,0.7 24.3,0.8 23,1 C22.9,1 22.7,1.1 22.6,1.1 C19.4,1.7 16.7,2.8 16.3,4.9 L16.3,15.9 L10.2,5.6 C10.2,5.6 8.1,6 6.2,5.8 C6.1,5.8 6,5.8 5.9,5.8 C4.9,5.6 4,5.3 3.7,4.6 L1.2,6.9 L0.1,7.9 L1.8,17.8 L2,20 Z" id="Path" fill="#0275D8"></path>
                    <path d="M50.1,25.4 C50.1,25.4 34.4,21 28.2,31 L20.7998839,25.8 C20.7998839,25.8 20.6,20 36.8,17.9 L50.1,25.4 Z" id="Path" fill="#95C11F"></path>
                </g>
                <g id="Group" transform="translate(7.135229, 486.222171)" fill-rule="nonzero">
                    <path d="M73.2,30.1 C73.4,33.3 71.7,36.3 68.9,37.7 L57.8,43.4 C56.7,44 55.7,44.8 55,45.8 L45.2,59.2 C44.4,60.3 43.3,61.2 42,61.8 C30.4,66.7 14.4,62.3 6.2,59.4 C3,58.3 1,55.3 1,51.9 L1,44.7 C1,48 3.1,51.1 6.2,52.2 C14.4,55.1 30.4,59.5 42,54.6 C43.3,54.1 44.4,53.1 45.2,52 L55,38.6 C55.7,37.6 56.7,36.8 57.8,36.2 L68.9,30.5 C70.9,29.5 72.3,27.8 72.9,25.7 L73.2,30.1 Z" id="Path" fill="#A3BAC1"></path>
                    <path d="M72.4,20 L72.8,25.8 C72.2,27.8 70.8,29.6 68.8,30.6 L57.7,36.3 C56.6,36.9 55.6,37.7 54.9,38.7 L45.1,52.1 C44.3,53.2 43.2,54.1 41.9,54.7 C30.3,59.6 14.3,55.2 6.1,52.3 C2.9,51.2 0.9,48.2 0.9,44.8 L0.9,43.3 C0.9,40.4 2.4,37.8 4.9,36.4 C9.4,33.8 17.1,29.5 24.3,25.4 C24.3,25.4 24.3,25.4 24.3,25.4 C24.4,25.3 24.5,25.3 24.6,25.2 L37.7,17.9 C40.3,16.5 41.9,15.5 42.1,15.5 C42.1,15.5 41.8,12.2 41.5,8.6 C41.2,4.7 40.9,0.6 41.1,0.6 L47.3,0.6 C48.6,0.7 50.1,0.8 51.4,1 C51.5,1 51.7,1.1 51.8,1.1 C55,1.7 57.7,2.8 58.1,4.9 L58.1,15.9 L64.2,5.6 C64.2,5.6 66.3,6 68.2,5.8 C68.3,5.8 68.4,5.8 68.5,5.8 C69.5,5.6 70.4,5.3 70.7,4.6 L73.2,6.9 L74.3,7.9 L72.6,17.8 L72.4,20 Z" id="Path" fill="#0275D8"></path>
                    <path d="M24.4,25.4 C24.4,25.4 40.1,21 46.3,31 L53.7001161,25.8 C53.7001161,25.8 53.9,20 37.7,17.9 L24.4,25.4 Z" id="Path" fill="#95C11F"></path>
                </g>
            </g>
        </g>
    </g>
</svg>