<svg xmlns="http://www.w3.org/2000/svg" width="180" height="180" viewBox="0 0 180 180">
    <g fill="none" fill-rule="evenodd">
        <path fill="#B6065F" fill-rule="nonzero" d="M134 85.98c.008 27.1-16.31 51.536-41.346 61.912-25.035 10.377-53.856 4.65-73.021-14.51C.467 114.222-5.27 85.402 5.1 60.364 15.47 35.326 39.9 19 67.001 19c36.995 0 66.988 29.984 66.999 66.98" transform="translate(22 5)"/>
        <path stroke="#FFF" stroke-linecap="round" stroke-linejoin="round" stroke-width="1.06" d="M99 154L103 157 99 160" transform="translate(22 5)"/>
        <path fill="#190D00" fill-rule="nonzero" d="M76.292 103L63 103.895c0 .112 4.72 6.36.708 13.105L77 116.105c-4.73-6.186-.728-12.973-.708-13.105" transform="translate(22 5)"/>
        <path fill="#190D00" fill-rule="nonzero" d="M63 103.86s.33.45.738 1.184c2.578.074 4.96 1.364 6.397 3.463 1.736 2.739.998 6.163.638 7.493l6.227-.401c-4.73-5.947-.728-12.472-.708-12.599L63 103.86M93.176 74.3c3.205-3.992 7.138-7.347 11.593-9.89 1.23-.755 1.946-2.121 1.863-3.558l-1.182-21.503c-.08-1.386-2.004-.608-3.166-.688-1.483.1-.501 2.333-.531 6.121.201 2.73-1.847 5.11-4.59 5.333l-5.24.35-.24-4.497 5.23-.339c.942-.06.27-1.335.21-5.752-.202-2.919 1.98-5.463 4.91-5.722l2.265-.15c1.393-.064 2.756.424 3.788 1.36 1.031.934 1.647 2.238 1.712 3.625l1.183 21.513c.53 9.73-9.9 9.44-17.875 22.679-.953 1.336-1.99 2.612-3.106 3.818 2.035-3.92 3.122-8.259 3.176-12.67M42.487 77.81c-3.635-3.559-7.924-6.387-12.635-8.33-1.312-.594-2.18-1.868-2.251-3.3l-1.186-21.572c-.08-1.39 1.92-.87 3.076-1.1 1.487-.1.753 2.26 1.206 6 .044 1.31.615 2.548 1.584 3.435.97.888 2.256 1.35 3.572 1.286l5.257-.34-.251-4.5-5.247.34c-.945.06-.422-1.29-.844-5.7-.06-1.404-.683-2.726-1.73-3.67-1.046-.943-2.429-1.43-3.839-1.35l-2.261.15c-2.935.26-5.123 2.805-4.926 5.73l1.186 21.58c.543 9.76 10.906 8.1 20.294 20.24 1.1 1.169 2.272 2.267 3.508 3.291-2.46-3.65-4.02-7.827-4.553-12.19" transform="translate(22 5)"/>
        <path fill="#F8F70C" fill-rule="nonzero" d="M79.57 30L51.726 31.806 45 39 87 36.282z" transform="translate(22 5)"/>
        <path fill="#FFAE00" fill-rule="nonzero" d="M89.574 36.005l-48.612 3.284c-2.36.213-4.117 2.308-3.951 4.711L94 40.173c-.033-1.153-.52-2.244-1.353-3.028-.832-.784-1.94-1.195-3.073-1.14" transform="translate(22 5)"/>
        <path fill="#190D00" fill-rule="nonzero" d="M37 43.652l.06 1.08c.02.628.3 1.222.777 1.648.478.426 1.112.648 1.76.617l52.125-3.345c1.356-.112 2.368-1.258 2.272-2.572l-.06-1.08L37 43.652M93.18 74.131C93.133 78.611 92.043 83.02 90 87c1.114-1.19 2.152-2.448 3.11-3.768.282-.464.552-.909.833-1.343.86-3.197 1.198-6.512 1.004-9.818V72c-.622.687-1.214 1.404-1.786 2.162M92.232 50L94 49.87 93.758 45 92 45.14z" transform="translate(22 5)"/>
        <path fill="#FF3A00" fill-rule="nonzero" d="M42.134 76.88c-.677-.66-1.389-1.288-2.134-1.88v.07c.18 3.242.926 6.436 2.209 9.456.341.387.693.785 1.067 1.203C44.444 86.889 45.687 87.982 47 89c-2.612-3.63-4.268-7.782-4.834-12.12M40.76 49L39 49.13 39.24 54 41 53.87z" transform="translate(22 5)"/>
        <path fill="#FFAE00" fill-rule="nonzero" d="M40 46.45l1.525 28.404c.483 11.948 8.587 22.163 19.947 25.146l14.35-1.003C86.775 94.52 93.678 83.39 92.948 71.385L91.413 43 40 46.45" transform="translate(22 5)"/>
        <path fill="#FFAE00" fill-rule="nonzero" d="M57.272 99c7.067-7.067 11.328-18.24 10.66-30.516-.364-8.097-3.06-15.911-7.756-22.484L40 47.352l1.525 28.16c.45 10.2 6.537 19.279 15.747 23.488" transform="translate(22 5)"/>
        <path fill="#190D00" fill-rule="nonzero" d="M62 100.096L62.193 104 77 102.904 76.797 99 62 100.096" transform="translate(22 5)"/>
        <path fill="#190D00" fill-rule="nonzero" d="M62.051 101L77 100.061 76.928 99 62 99.939zM77.482 116l-14.23.976c-1.343.119-2.341 1.29-2.246 2.634v.39L80 118.751v-.4c-.023-.642-.302-1.248-.775-1.682-.474-.435-1.101-.662-1.743-.63" transform="translate(22 5)"/>
        <path fill="#FFA705" fill-rule="nonzero" d="M58 119.663L59.453 147 84 145.337 82.547 118 58 119.663" transform="translate(22 5)"/>
        <path fill="#FFA705" fill-rule="nonzero" d="M59.394 144.915c.744.088 1.495.108 2.243.059 8.506-.55 14.92-9.536 14.325-20.082-.102-2-.465-3.98-1.081-5.892L58 120.09l1.394 24.825z" transform="translate(22 5)"/>
        <path fill="#FBE407" fill-rule="nonzero" d="M87.104 145.01l-30.403 1.774c-1.013.084-1.766.87-1.697 1.773V149L89 147.005v-.443c-.016-.431-.225-.839-.581-1.132-.356-.293-.83-.448-1.315-.428" transform="translate(22 5)"/>
        <path fill="#7C1502" fill-rule="nonzero" d="M51 149.764L51.873 166 93 163.236 92.127 147 51.05 149.764" transform="translate(22 5)"/>
        <path fill="#7C1502" fill-rule="nonzero" d="M51 149.81l.842 15.19c.74 0 1.492 0 2.244-.078C66.848 164.1 77.126 156.847 79 148l-28 1.81" transform="translate(22 5)"/>
        <path fill="#FFAE00" fill-rule="nonzero" d="M94.218 163L50.473 166.076 48 169.152 48 170 97 166.564 97 165.715 94.228 163" transform="translate(22 5)"/>
        <path fill="#190D00" fill-rule="nonzero" d="M67.564 25.005l-5.573.402c-1.78.173-3.105 1.88-2.983 3.838L59.104 31 71 30.133l-.087-1.755c-.027-.937-.396-1.823-1.025-2.457-.628-.635-1.462-.965-2.314-.916" transform="translate(22 5)"/>
        <path fill="#190D00" fill-rule="nonzero" d="M66 27.512c0-.88-2.24-1.458-5.248-1.512-1.144.701-1.822 2.05-1.746 3.475V30c3.946-.343 7.024-1.426 6.964-2.488M62 23.349L62.16 26 68 25.651 67.84 23 62 23.349" transform="translate(22 5)"/>
        <path fill="#190D00" fill-rule="nonzero" d="M62.07 23.791c1.979.38 4.015.24 5.93-.405L67.93 22l-5.93.405.07 1.386z" transform="translate(22 5)"/>
        <path fill="#190D00" fill-rule="nonzero" d="M74.972 10.78c.434 6.241-4.18 11.678-10.36 12.207-2.954.144-5.842-.911-8.018-2.93-2.177-2.02-3.46-4.835-3.564-7.816C52.584 5.999 57.19.553 63.37.014c2.96-.15 5.856.906 8.038 2.93 2.181 2.025 3.465 4.848 3.564 7.836" transform="translate(22 5)"/>
        <path fill="#190D00" fill-rule="nonzero" d="M74.997 11.278c.06 1.165-.888 2.22-1.161 3.296-.273 1.075 0 2.509-.576 3.465-.575.955-2.02 1.254-2.827 1.99-.808.738-1.394 2.042-2.434 2.47-1.04.428-2.282-.179-3.423-.1-1.142.08-2.333.817-3.383.538-1.05-.278-1.768-1.533-2.687-2.13-.919-.598-2.332-.727-3.03-1.604-.696-.876-.544-2.29-.948-3.355-.404-1.065-1.465-1.991-1.525-3.126-.06-1.136.888-2.23 1.161-3.296.273-1.066 0-2.51.566-3.465.565-.956 2.02-1.255 2.837-1.992.818-.736 1.394-1.99 2.444-2.469 1.05-.478 2.272.17 3.413.1 1.142-.07 2.333-.817 3.383-.538 1.05.279 1.768 1.533 2.697 2.13.929.598 2.322.728 3.03 1.604.706.876.534 2.29.948 3.355.414 1.066 1.455 1.992 1.515 3.127" transform="translate(22 5)"/>
        <path fill="#FFAE00" fill-rule="nonzero" d="M67.208 21.628c-.388.004-.776-.032-1.157-.107-.506-.107-1.024-.15-1.542-.127-.518.05-1.029.159-1.522.322-.37.125-.75.213-1.137.263-.134.028-.272.028-.406 0-.506-.21-.949-.546-1.285-.975-.342-.364-.723-.691-1.137-.975-.433-.26-.894-.473-1.374-.634-.526-.135-1.01-.4-1.404-.77-.275-.474-.434-1.005-.464-1.55-.063-.515-.179-1.021-.346-1.512-.19-.466-.436-.907-.732-1.316-.355-.44-.596-.96-.702-1.512.045-.561.229-1.103.534-1.58.246-.441.442-.909.583-1.394.135-.536.211-1.085.228-1.638-.041-.552.047-1.105.257-1.618.35-.427.802-.762 1.314-.976.459-.225.893-.496 1.296-.809.368-.345.7-.728.988-1.14.301-.453.708-.828 1.187-1.093.129-.052.266-.081.405-.088.388-.003.776.032 1.157.108.508.09 1.026.124 1.542.097.518-.05 1.029-.158 1.522-.322.372-.126.757-.214 1.147-.263.134-.025.272-.025.405 0 .505.213.948.548 1.286.975.336.367.715.694 1.127.975.433.26.894.473 1.374.634.545.183 1.032.502 1.414.926.266.477.422 1.007.454 1.55.064.515.18 1.021.346 1.512.195.464.44.906.732 1.317.348.43.589.934.702 1.472-.045.565-.229 1.11-.534 1.59-.239.425-.434.872-.583 1.335-.11.513-.166 1.036-.168 1.56.028.548-.07 1.095-.287 1.6-.347.426-.795.76-1.305.975-.463.223-.9.494-1.305.809-.371.343-.703.726-.989 1.14-.288.472-.688.867-1.166 1.151-.13.052-.266.082-.405.088" transform="translate(22 5)"/>
        <path fill="#190D00" fill-rule="nonzero" d="M71.98 11.496c.313 4.335-3.035 8.114-7.527 8.495-2.152.1-4.256-.636-5.84-2.043-1.586-1.407-2.519-3.368-2.592-5.444-.32-4.337 3.032-8.12 7.527-8.495 2.152-.1 4.256.636 5.84 2.043 1.585 1.407 2.519 3.368 2.592 5.444" transform="translate(22 5)"/>
        <path fill="#190D00" fill-rule="nonzero" d="M64.94 19.99c-2.016.105-3.99-.627-5.479-2.033-1.489-1.405-2.369-3.367-2.443-5.447-.286-4.335 2.842-8.11 7.041-8.5 2.017-.105 3.99.627 5.48 2.033 1.489 1.405 2.369 3.367 2.443 5.447.286 4.335-2.842 8.11-7.041 8.5" transform="translate(22 5)"/>
        <path fill="#FBE407" fill-rule="nonzero" d="M70.981 11.557c.283 3.795-2.648 7.106-6.582 7.435-1.884.088-3.726-.555-5.113-1.786-1.387-1.231-2.204-2.947-2.267-4.763-.283-3.794 2.648-7.105 6.582-7.435 1.885-.09 3.728.552 5.116 1.784 1.387 1.231 2.203 2.948 2.264 4.765" transform="translate(22 5)"/>
        <path fill="#FFA705" fill-rule="nonzero" d="M67 18.5L58.627 8c-.246.41-.456.845-.627 1.298L65.774 19c.421-.13.831-.297 1.226-.5M64 19l-6-7v.473c0 .157 0 .403.059.61l4.902 5.73c.322.085.65.148.98.187M70 15.464L61.522 5c-.18.115-.354.24-.522.374L69.601 16c.143-.172.276-.354.399-.536M71 12.954L64.09 5c-.369.03-.734.092-1.09.188L70.704 14c.125-.34.224-.69.296-1.046" transform="translate(22 5)"/>
        <path fill="#FFAE00" fill-rule="nonzero" d="M44.015 52c.618 26.018 2.948 30.23 2.938 30.19.115.281.012.61-.236.756-.124.066-.267.072-.395.017-.128-.055-.229-.165-.278-.305C43.95 76.985 43.96 58.159 44.014 52" transform="translate(22 5)"/>
        <path fill="#006885" fill-rule="nonzero" d="M88.652 119L85.627 112.628 80 116.722 88.348 83 97 85.278z" transform="translate(22 5)"/>
        <path fill="#006885" fill-rule="nonzero" d="M106 123.228L100.904 118.145 96.615 124 94 88.772 103.385 88z" transform="translate(22 5)"/>
        <path fill="#006885" fill-rule="nonzero" d="M97.26 85.06l-8.81-2.31-4.83 19.44c1 1.22 2 3.29 4 4.18 1.361.483 2.831.57 4.24.25l5.4-21.56z" opacity=".57" transform="translate(22 5)"/>
        <path fill="#006885" fill-rule="nonzero" d="M103.16 87.17l-9.08.77 1.36 18.86c1.41.43 3.06 1.09 4.81.67 1.454-.462 2.752-1.317 3.75-2.47l.42-.41-1.26-17.42z" opacity=".57" transform="translate(22 5)"/>
        <path fill="#F7F80E" fill-rule="nonzero" d="M113.97 88.623c-.17 2.004-1.99 3.567-2.726 5.32-.736 1.754-.557 4.28-1.78 5.742-1.224 1.463-3.591 1.633-5.192 2.645-1.602 1.012-2.815 3.126-4.655 3.577-1.84.451-3.75-.882-5.67-1.002s-4.077.782-5.748 0c-1.671-.781-2.586-3.066-3.979-4.338-1.392-1.273-3.69-1.834-4.655-3.507-.965-1.673-.348-4.008-.766-5.962-.417-1.954-1.989-3.707-1.78-5.721.209-2.014 1.99-3.557 2.735-5.32.746-1.764.557-4.27 1.78-5.742 1.224-1.473 3.581-1.623 5.193-2.645 1.61-1.022 2.804-3.126 4.654-3.577 1.85-.451 3.75.882 5.66 1.002 1.91.12 4.078-.782 5.759 0 1.68.781 2.576 3.066 3.978 4.338 1.403 1.273 3.7 1.834 4.665 3.507.965 1.673.348 4.008.766 6.012.418 2.004 1.989 3.707 1.77 5.711" transform="translate(22 5)"/>
        <path fill="#FBE407" fill-rule="nonzero" d="M97.164 104.54c-1.654-.682-3.472-.842-5.218-.46-.875.216-1.788.216-2.663 0-1.262-.55-2.11-2.74-3.58-4.09-1.47-1.35-3.67-2-4.36-3.17-.69-1.17-.168-3.51-.602-5.54-.22-.853-.527-1.68-.917-2.47-1.184-2.609-1.145-2.999.463-5.409.522-.708.966-1.473 1.322-2.28.78-1.92.67-4.29 1.549-5.35.877-1.06 3.136-1.28 4.823-2.36 1.687-1.08 2.9-3.07 4.232-3.4.897-.057 1.795.097 2.624.45 1.654.679 3.47.842 5.218.47.874-.22 1.788-.22 2.663 0 1.253.56 2.11 2.75 3.58 4.09 1.47 1.34 3.66 2 4.35 3.17.69 1.17.178 3.51.612 5.55.212.853.52 1.678.917 2.46 1.184 2.62 1.145 3-.473 5.42-1.1 1.42-1.783 3.125-1.973 4.92-.503 2.8-.72 3.07-3.304 4-.837.258-1.641.614-2.397 1.06-1.677 1.07-2.89 3.069-4.222 3.399-.89-.041-1.77-.192-2.624-.45" transform="translate(22 5)"/>
        <path fill="#F7F80E" fill-rule="nonzero" d="M109.964 88.25c-.715 8.261-7.774 14.397-15.755 13.695-7.982-.701-13.899-7.904-13.144-16.204.754-8.3 7.793-14.336 15.735-13.694 7.942.642 13.898 7.904 13.134 16.204" transform="translate(22 5)"/>
        <path fill="#F7F80E" fill-rule="nonzero" d="M96.9 71.64c-8-.63-15 5.56-15.75 13.87-.46 4.992 1.54 9.894 5.36 13.14 8.2-1.43 14.57-7.23 15.22-14.68.32-4.626-1.452-9.152-4.83-12.33" opacity=".48" transform="translate(22 5)"/>
    </g>
</svg>
