<svg xmlns="http://www.w3.org/2000/svg" width="180" height="180" viewBox="0 0 180 180">
    <g fill="none">
        <path fill="#3D9A8F" d="M135.83 67.41c.004 27.27-16.42 51.857-41.613 62.295-25.192 10.439-54.193 4.673-73.477-14.608C1.456 95.815-4.314 66.817 6.121 41.622 16.556 16.427 41.141 0 68.41 0c37.229.006 67.409 30.181 67.42 67.41" transform="translate(17 18)"/>
        <path fill="#63C4D1" d="M28.79 23c.054 1.87-.644 3.684-1.936 5.037-1.293 1.353-3.073 2.132-4.944 2.163-1.876-.023-3.664-.799-4.963-2.152-1.3-1.354-2-3.173-1.947-5.048-.054-1.87.644-3.684 1.936-5.037 1.293-1.353 3.073-2.132 4.944-2.163 1.876.023 3.664.799 4.963 2.152 1.3 1.354 2 3.173 1.947 5.048zM19.93 68.38c.074 1.38-.405 2.734-1.33 3.762-.924 1.027-2.22 1.646-3.6 1.718-2.909-.175-5.178-2.586-5.178-5.5s2.27-5.325 5.178-5.5c1.387.075 2.687.7 3.612 1.735.926 1.036 1.4 2.398 1.318 3.785zM58.67 38.41c0 .903-.544 1.717-1.379 2.061-.834.345-1.794.152-2.431-.488s-.826-1.6-.477-2.433c.348-.833 1.164-1.374 2.067-1.37 1.228.006 2.22 1.002 2.22 2.23zM83.84 38.22c.822 3.042 3.198 5.418 6.24 6.24-3.045.822-5.422 3.204-6.24 6.25-.82-3.049-3.201-5.43-6.25-6.25 3.046-.818 5.428-3.195 6.25-6.24zM38.22 103c.822 3.042 3.198 5.418 6.24 6.24-3.045.822-5.422 3.204-6.24 6.25-.817-3.038-3.185-5.413-6.22-6.24 3.037-.829 5.406-3.209 6.22-6.25z" transform="translate(17 18)"/>
        <path fill="#FFAB11" d="M121.31 124.4c-2.524 1.82-5.304 3.256-8.25 4.26-3.68 1.257-7.566 1.8-11.45 1.6-.874-.042-1.745-.129-2.61-.26-7.52-1.084-14.39-4.857-19.34-10.62-.57-.67-1.12-1.37-1.65-2.08-4.648-6.442-6.875-14.318-6.29-22.24.07-.91.17-1.81.31-2.71 1.206-7.751 5.1-14.83 11-20 .66-.57 1.34-1.11 2.06-1.63 2.518-1.83 5.3-3.266 8.25-4.26 3.81-1.306 7.842-1.84 11.86-1.57.48 0 1 .07 1.45.13.86.1 1.72.23 2.58.41 7.621 1.578 14.389 5.92 19 12.19.52.71 1 1.45 1.49 2.2 1.468 2.357 2.63 4.89 3.46 7.54 1.52 4.722 1.973 9.722 1.33 14.64-.12.9-.28 1.8-.46 2.69-.09.4-.18.8-.28 1.19-.1.39-.19.7-.29 1-.1.3-.17.58-.26.86-.023.103-.056.204-.1.3-.08.25-.16.5-.26.74s-.22.65-.34 1c-.12.35-.31.78-.48 1.17-.18.41-.36.81-.55 1.2.007.02.007.04 0 .06-.15.33-.31.65-.48 1-.595 1.148-1.263 2.257-2 3.32-.19.28-.38.56-.58.82l-.06.1-.55.72-.18.24c-.18.23-.36.45-.55.66-.19.21-.56.67-.85 1-.29.33-.38.42-.57.62l-.11.11c-.15.16-.32.32-.48.47-.11.13-.23.25-.36.36l-.5.47c-.14.13-.27.26-.42.38-.15.12-.25.23-.38.34-.71.52-1.42 1.06-2.11 1.58z" transform="translate(17 18)"/>
        <path fill="#811118" d="M121.31 124.4c-2.524 1.82-5.304 3.256-8.25 4.26-3.68 1.257-7.566 1.8-11.45 1.6-.874-.042-1.745-.129-2.61-.26-7.52-1.084-14.39-4.857-19.34-10.62-.57-.67-1.12-1.37-1.65-2.08-4.648-6.442-6.875-14.318-6.29-22.24.07-.91.17-1.81.31-2.71.357-2.3.957-4.556 1.79-6.73.837 2.368 1.812 4.686 2.92 6.94.49 1 1 2 1.53 2.9 2.733 5.053 6.584 9.414 11.26 12.75.774.534 1.575 1.028 2.4 1.48 2.569 1.44 5.34 2.486 8.22 3.1.9.21 1.79.36 2.68.48 2.96.378 5.954.401 8.92.07.45 0 .89-.09 1.33-.16.993-.133 1.963-.293 2.91-.48 6.264-1.296 12.274-3.61 17.79-6.85-.09.35-.19.7-.29 1-.1.3-.17.58-.26.86-.023.103-.056.204-.1.3-.08.25-.16.5-.26.74s-.22.65-.34 1c-.12.35-.31.78-.48 1.17-.18.41-.36.81-.55 1.2.007.02.007.04 0 .06-.15.33-.31.65-.48 1-.595 1.148-1.263 2.257-2 3.32-.19.28-.38.56-.58.82l-.06.1-.55.72-.18.24c-.18.23-.36.45-.55.66-.19.21-.56.67-.85 1-.29.33-.37.41-.57.61-.031.044-.068.085-.11.12-.15.16-.32.32-.48.47-.11.13-.23.25-.36.36l-.5.47c-.14.13-.27.26-.42.38-.15.12-.25.23-.38.34-.72.55-1.43 1.09-2.12 1.61z" opacity=".2" transform="translate(17 18)"/>
        <path fill="#811118" d="M121.31 124.4c-2.524 1.82-5.304 3.256-8.25 4.26-3.68 1.257-7.566 1.8-11.45 1.6-.874-.042-1.745-.129-2.61-.26-7.52-1.084-14.39-4.857-19.34-10.62-.57-.67-1.12-1.37-1.65-2.08-4.648-6.442-6.875-14.318-6.29-22.24.07-.91.17-1.81.31-2.71 1.206-7.751 5.1-14.83 11-20 .66-.57 1.34-1.11 2.06-1.63 2.518-1.83 5.3-3.266 8.25-4.26-.943 4.687-1.25 9.48-.91 14.25.14 1.837.393 3.664.76 5.47 1.06 5.14 3.097 10.028 6 14.4.48.75 1 1.47 1.53 2.17 3.098 4.076 6.809 7.649 11 10.59 1 .69 1.91 1.32 2.84 1.89 1.772 1.097 3.601 2.098 5.48 3 1.754.87 3.565 1.622 5.42 2.25l.14.12-.11.11c-.15.16-.32.32-.48.47-.11.13-.23.25-.36.36l-.5.47c-.14.13-.27.26-.42.38-.15.12-.25.23-.38.34-.64.61-1.35 1.15-2.04 1.67z" opacity=".2" transform="translate(17 18)"/>
        <path fill="#FFF" d="M114.76 91.66c-.77-.49-1.53-1-2.27-1.59-1.603-1.19-3.09-2.53-4.44-4-1.244-1.392-2.334-2.914-3.25-4.54-3.041-5.16-2.874-11.604.43-16.6.48 0 1 .07 1.45.13.86.1 1.72.23 2.58.41 7.621 1.578 14.389 5.92 19 12.19.52.71 1 1.45 1.49 2.2 1.468 2.357 2.63 4.89 3.46 7.54 3.43 11.15-8.5 10.6-18.45 4.26z" opacity=".1" transform="translate(17 18)"/>
        <path fill="#FFF" d="M134.05 104.66c.19-.89.34-1.79.46-2.69-7-.22-17-1.72-22.59-8.06l17.84-14.09c-.47-.75-1-1.49-1.49-2.2l-17.92 14.15c-1.07-1.777-1.847-3.715-2.3-5.74-1.64-7-.2-15.19 1.21-20.6-.86-.18-1.72-.31-2.58-.41-.562 2.135-1.013 4.298-1.35 6.48-.532 3.305-.71 6.657-.53 10 .15 4.198 1.347 8.292 3.48 11.91l-4.11 3.24-19-25.92c-.72.52-1.4 1.06-2.06 1.63l19 25.92-4.11 3.24c-5.31-6.25-14.13-8.36-21.26-9-1.69-.14-3.28-.2-4.71-.21-.14.9-.24 1.8-.31 2.71 2.189.012 4.376.146 6.55.4 6.23.73 13.34 2.73 17.67 7.69L78 117.3c.53.71 1.08 1.41 1.65 2.08l17.85-14.09c1.362 2.304 2.258 4.852 2.64 7.5 1 5.91 0 12.37-1.15 17.21.868.132 1.743.218 2.62.26.34-1.45.65-3 .9-4.7.683-4.061.788-8.2.31-12.29-.378-3.402-1.49-6.68-3.26-9.61l4.12-3.25 17.63 24c.71-.52 1.4-1.06 2.06-1.63l-17.63-24 4.11-3.25c6.07 7.14 16.71 8.88 24.2 9.13z" transform="translate(17 18)"/>
        <path fill="#EBBD8B" d="M26.74 14.73C25 16.66 97.4 63.75 97.35 65c-.05 1.25 1.07 4.69 1.73 6.5.66 1.81 1.54 5.46 2.73 7.75.61 1.19 2.33 2.74 2.91 4.57.58 1.83 3 6 3.78 7.62.78 1.62.54 3.3 2.1 2.66 1.56-.64 1.82-3.6 1.72-5.23-.17-2.77-1.78-5.64-2.56-7.76s-1.24-3.08 1.31-2.48c2.55.6 7.48 7.06 9.1 8.91 1.62 1.85 5.68 6.81 6.77 8.13 1.09 1.32 2.83 3.64 4.71 1.48s-1.84-5.86-2.56-7c-.72-1.14-2.72-3.57-3.59-4.8-.87-1.23-5.25-6.45-4.53-7.69.72-1.24 4.53 2.4 6 3.5 1.47 1.1 4.7 3.29 5.9 4 1.2.71 3.13 2 4.31 2.88 1.18.88 2.91 1.24 3.81-.65.65-1.225.25-2.744-.92-3.49-.62-.5-3-2.21-4.06-3-1.06-.79-3.72-3-5.22-4.29-1.5-1.29-5.08-4-6.24-4.77-1.16-.77-1.05-2.23 0-2.2 3.155.537 6.28 1.24 9.36 2.11 1.31.45 4.19 1.6 6.49 2.16s3.25-.31 3.44-1.68c.238-1.14-.261-2.306-1.25-2.92-.85-.43-5.21-1.68-6.95-2.47-2.35-.964-4.754-1.789-7.2-2.47-1.64-.44-3.64-1.52-3.62-2.38.02-.86 2.08-.91 3.65-1.16 2.74-.35 5.498-.55 8.26-.6 2.38 0 3.1-1.38 3.17-2.36.07-.98-.7-2.15-2.45-2.5-2.571-.24-5.159-.24-7.73 0-1.64.12-6.31.08-6.31.08-1.135-.701-2.35-1.262-3.62-1.67-2.03-.656-4.006-1.468-5.91-2.43-2.24-.813-4.54-1.451-6.88-1.91-1.498-.446-2.909-1.146-4.17-2.07C102 46.8 41.48 5.54 41.48 5.54c-5.629 1.73-10.71 4.897-14.74 9.19z" transform="translate(17 18)"/>
        <path fill="#3D9A8F" d="M98.81 137.11s18.48 9.46 37.16-12.71c18.68-22.17-9.69 15.01-37.16 12.71zM112.54 144.25s23.11 1.24 33.23-18.85c0 0-14.26 17.89-33.23 18.85z" transform="translate(17 18)"/>
    </g>
</svg>
