<svg xmlns="http://www.w3.org/2000/svg" width="180" height="180" viewBox="0 0 180 180">
    <g fill="none">
        <path fill="#81C41D" d="M152 67.489c.004 27.303-16.44 51.919-41.664 62.37-25.223 10.45-54.258 4.675-73.564-14.631-19.306-19.306-25.08-48.34-14.63-73.564C32.592 16.44 57.208-.004 84.51 0c37.27.006 67.483 30.218 67.489 67.489" transform="translate(8 23)"/>
        <path fill="#47AB3D" d="M161.798 64.414c-.13-.202-.289-.383-.419-.574.27-.396.416-.866.42-1.347-.017-.707-.31-1.378-.817-1.867-.506-.488-1.185-.754-1.886-.738-.407.002-.809.095-1.176.272-3.724-2.652-8.11-4.202-12.66-4.475-3.72-4.917-8.475-8.175-13.709-8.98C131.117 45.673 130.112 45 129 45s-2.118.672-2.552 1.706c-5.234.804-9.97 4.022-13.708 8.98-7.387.663-13.428 3.59-16.549 8.687-3.12 5.099-2.79 11.504.29 17.88-3.08 6.374-3.42 12.77-.29 17.868 3.13 5.098 9.162 8.045 16.55 8.698 4.316 5.702 9.969 9.181 16.26 9.181 6.29 0 11.962-3.48 16.26-9.18 1.705-.155 3.395-.447 5.054-.876.525.744 1.377 1.183 2.283 1.177.78.054 1.543-.26 2.064-.85.52-.59.741-1.39.597-2.167 2.68-1.344 4.948-3.398 6.56-5.943 3.12-5.098 2.781-11.493-.299-17.869 3.06-6.375 3.4-12.77.28-17.878zm-5.313-2.625c-.076.227-.116.464-.12.704.023.706.325 1.373.837 1.855.513.48 1.195.736 1.894.71.15.01.3.01.45 0 .109.15.228.29.328.452 2.522 4.122 2.472 9.21.349 14.42-2.277-3.768-5.115-7.16-8.414-10.056-1.029-4.203-2.711-8.215-4.985-11.886 3.485.43 6.807 1.737 9.66 3.801zm-3.908 11.795c2.582 2.567 4.779 5.5 6.52 8.708-1.735 3.207-3.925 6.14-6.5 8.709.984-5.763.984-11.654 0-17.417h-.02zm-1.456 8.708c.007 3.813-.428 7.613-1.296 11.323-3 2.59-6.27 4.845-9.75 6.727-3.512 1.921-7.214 3.465-11.046 4.606-3.832-1.141-7.534-2.685-11.046-4.606-3.48-1.882-6.749-4.138-9.75-6.727-1.728-7.451-1.728-15.204 0-22.655 3.002-2.586 6.27-4.838 9.75-6.717 3.514-1.92 7.216-3.467 11.046-4.616 3.83 1.149 7.532 2.696 11.046 4.616 3.462 1.879 6.714 4.127 9.7 6.707.886 3.715 1.338 7.522 1.346 11.342zm-2.303-14.932c-4.846-3.702-10.225-6.636-15.95-8.698 3.686-.845 7.468-1.183 11.245-1.006 2.018 2.985 3.587 6.255 4.655 9.704h.05zm-22.181-18.533c.514.801 1.396 1.285 2.342 1.285.947 0 1.829-.484 2.343-1.285 4.36.844 8.28 3.221 11.066 6.707-4.534-.015-9.047.61-13.409 1.86-4.36-1.25-8.874-1.875-13.408-1.86 2.787-3.484 6.707-5.86 11.066-6.707zm-12.711 8.83c.688 0 1.385-.071 2.103-.071 3.074.01 6.138.348 9.142 1.005-5.725 2.063-11.104 4.996-15.95 8.698 1.09-3.414 2.676-6.646 4.705-9.593v-.04zm-15.821 7.812c2.512-4.112 7.217-6.616 13.06-7.481-2.276 3.667-3.959 7.676-4.985 11.876-3.3 2.896-6.138 6.288-8.414 10.055-2.134-5.239-2.184-10.327.339-14.45zm7.277 25.532c-2.576-2.568-4.766-5.502-6.5-8.709 1.734-3.206 3.924-6.14 6.5-8.708-.984 5.763-.984 11.654 0 17.417zm-7.277 8.104c-2.523-4.112-2.473-9.2-.35-14.41 2.28 3.766 5.118 7.157 8.415 10.056 1.026 4.2 2.709 8.21 4.984 11.876-5.832-.895-10.527-3.399-13.05-7.522zm11.085-1.89c2.408 1.854 4.958 3.511 7.627 4.957 2.687 1.462 5.48 2.716 8.354 3.751-3.687.84-7.47 1.178-11.245 1.006-2.05-2.982-3.647-6.256-4.736-9.714zm19.79 18.714c-4.985 0-9.68-2.585-13.41-6.929h.539c4.353-.03 8.682-.653 12.87-1.85 4.188 1.204 8.517 1.833 12.87 1.87h.539c-3.729 4.324-8.374 6.909-13.409 6.909zm15.053-9.05c-3.776.172-7.558-.166-11.245-1.006 2.874-1.035 5.667-2.29 8.354-3.75 2.668-1.447 5.218-3.105 7.626-4.958-1.092 3.46-2.688 6.737-4.735 9.724v-.01zm15.821-7.774c-1.448 2.282-3.499 4.11-5.922 5.28-.416-.227-.882-.348-1.355-.352-1.184-.022-2.242.743-2.602 1.88-1.045.295-2.107.523-3.18.684 2.275-3.667 3.957-7.676 4.984-11.876 3.297-2.9 6.134-6.29 8.414-10.055 2.133 5.239 2.183 10.327-.339 14.44zm-21.763-16.813c0 4.747-4.077 8.598-9.112 8.598-5.034 0-9.112-3.851-9.112-8.598 0-4.746 4.078-8.607 9.112-8.607 5.035 0 9.112 3.851 9.112 8.607z" opacity=".8" style="mix-blend-mode:multiply" transform="translate(8 23)"/>
        <path fill="#1C4189" d="M8.84 42.397C6.469 41.762 4.054 41.295 1.616 41-.139 41-.258 42.377.29 43.764c.548 1.387 26.16 58.35 28.463 60.236 0 0 14.431-10.458 21.696-11.127 7.266-.669 15.607 2.684 17.152 4.88 1.545 2.195 10.116 1.058 12.428-1.996 2.312-3.054 4.684-14.34 12.039-18.352 7.355-4.012 19.364-4.231 20.35-4.68.987-.45.888-3.344-1.634-4.152-2.521-.808-101.943-26.176-101.943-26.176z" transform="translate(8 23)"/>
        <path fill="#0B2753" d="M67.654 97.9c1.523 2.19 10.103 1.055 12.413-1.99 2.31-3.046 4.679-14.3 12.025-18.301 7.347-4 19.342-4.22 20.327-4.668.986-.448.886-3.333-1.632-4.14-.578-.189-6.212-1.651-14.544-3.801-22.159 4.797-59.33 15.485-62.714 21.744C30.195 92.824 29.28 100.258 29 104c1.672-1.194 14.713-10.34 21.492-10.947 7.277-.696 15.619 2.657 17.162 4.847z" transform="translate(8 23)"/>
        <path fill="#DFDFD7" d="M8.996 36v4.052s-2.391-1.4-2.611 0c.122.766.302 1.522.54 2.26 0 0-2.001-2.08-2.541-1.85-.54.23.55 2.661.55 2.661l-1.881-.93s-.33.11.66 2.421S28.656 100.34 29.977 101c0 0 13.387-10.715 24.013-10.115 10.625.6 14.337 5.003 15.328 5.933.99.93 8.614-1.14 9.395-2.18.78-1.041 3.661-16.308 15.928-20.65 12.266-4.342 16.238-2.622 17.009-3.002.77-.38 0-1.62 0-1.62.221-.551.34-1.138.35-1.731-.13-.46-2.441-.12-2.441-.12s1.32-.81 1.21-1.391c-.11-.58-1.87-.46-1.87-.46s1.54-.81.77-1l-.77-.23-46.695-2.652L8.996 36z" transform="translate(8 23)"/>
        <path fill="#FFF" d="M50.829 41.482S30.8 29.03 9 36.102c0 0 22.932 51.064 25.506 55.898 0 0 21.43-16.491 38.303-2.437 0 0 11.657-25.483 36.191-25.194 0 0-18.726-28.079-22.672-40.035 0 0-25.816-4.197-35.5 17.148z" transform="translate(8 23)"/>
        <path fill="#B4B2A8" d="M51 41s1.8 2.8 4.168 7.17c.59 1.082 1.25 2.263 1.89 3.524.639 1.261 1.359 2.582 1.998 3.972.64 1.39 1.38 2.83 2.1 4.29l2.188 4.458 2 4.488c.68 1.48 1.279 2.98 1.879 4.39.6 1.41 1.17 2.81 1.679 4.13.51 1.32 1 2.572 1.43 3.734.879 2.323 1.529 4.28 1.998 5.66C72.8 88.195 73 89 73 89l-1.22-1.986c-.75-1.241-1.809-2.979-2.998-5.213-.61-1.082-1.25-2.264-1.9-3.525-.649-1.261-1.349-2.592-1.998-3.972-.65-1.38-1.4-2.81-2.08-4.28l-2.078-4.468-2-4.488c-.63-1.5-1.259-2.979-1.859-4.39-.6-1.41-1.14-2.82-1.669-4.13-.53-1.31-1-2.582-1.43-3.733C51.94 44.197 51 41 51 41z" transform="translate(8 23)"/>
        <path fill="#B4B2A8" d="M9 35.632s2.007-.337 5.64-.654c4.982-.455 9.992-.53 14.986-.228 3.348.173 6.678.61 9.956 1.308 3.72.71 7.299 2.009 10.599 3.846l.421.228h.05v-.07l.131-.247.17-.298c.222-.396.462-.783.713-1.16.472-.773 1.004-1.486 1.566-2.21 1.118-1.414 2.347-2.74 3.673-3.965 3.078-2.827 6.662-5.062 10.57-6.591 1.95-.766 3.965-1.363 6.021-1.784l3.092-.486c.51-.086 1.027-.132 1.545-.139l1.606-.129c2.038-.1 4.08-.06 6.113.12H86.825c.06 0 .12 0 .14.079l.502.99.693 1.29 1.355 2.557c1.827 3.36 3.583 6.62 5.26 9.704 1.675 3.082 3.341 5.947 4.837 8.623 2.92 5.392 5.65 9.694 7.497 12.767L110 64l-3.142-4.659c-2.007-2.973-4.918-7.196-8.029-12.499-1.576-2.636-3.312-5.471-5.018-8.514l-5.4-9.595-1.395-2.547-.703-1.289-.17-.317h-.332c-1.976-.156-3.961-.182-5.941-.08l-1.496.08c-.502.005-1.002.054-1.495.148l-3.011.466c-1.973.42-3.906 1-5.782 1.735-3.757 1.437-7.211 3.551-10.187 6.235-1.296 1.166-2.503 2.425-3.613 3.766-.512.694-1.004 1.368-1.516 2.102-.25.356-.471.723-.692 1.09l-.16.277-.181.337c-.191.377-.382.754-.562 1.15l-1.667-.991c-3.177-1.8-6.616-3.104-10.197-3.866-3.222-.75-6.497-1.264-9.796-1.536-4.952-.43-9.928-.53-14.894-.297-3.563.218-5.621.436-5.621.436zM9 40s.804 1.058 1.86 2.738c.262.425.553.87.845 1.364.292.495.603.99.905 1.543l.925 1.67.925 1.75c.252.603.513 1.216.775 1.81.261.592.482 1.195.704 1.769.22.573.442 1.136.623 1.67s.372 1.048.523 1.513c.322.939.543 1.74.694 2.293L18 59l-.493-.771c-.311-.494-.744-1.206-1.216-2.076-.242-.435-.493-.9-.755-1.404-.261-.504-.533-.988-.794-1.591-.262-.603-.553-1.117-.805-1.71-.251-.594-.533-1.187-.804-1.78-.272-.593-.573-1.176-.865-1.75l-.804-1.72c-.262-.553-.483-1.107-.714-1.621-.232-.514-.433-.989-.614-1.463C9.392 41.275 9 40 9 40zM7 42c.389.277.75.593 1.081.945.144.153.316.315.47.509.164.196.318.403.459.62l.45.69c.143.245.286.489.42.733l.345.793c.113.254.212.516.297.782.096.24.173.489.23.742.057.244.095.478.133.702.058.353.096.71.115 1.067V50l-.268-.315c-.22-.268-.425-.55-.612-.844-.115-.176-.23-.37-.345-.58-.115-.203-.258-.406-.383-.64-.135-.223-.26-.454-.373-.69l-.363-.743c-.115-.244-.24-.488-.364-.722l-.325-.732c-.115-.233-.173-.487-.278-.701-.11-.204-.208-.415-.297-.63-.165-.456-.296-.925-.392-1.403zM5 44s1.155 1.705 2.714 4.339l1.256 2.14c.426.766.902 1.563 1.357 2.4.456.838.932 1.706 1.418 2.594l1.429 2.694 1.357 2.704c.455.898.88 1.786 1.306 2.644.426.858.82 1.705 1.185 2.502.365.798.71 1.544 1.013 2.25.628 1.403 1.114 2.584 1.448 3.411L20 73l-.78-1.18c-.486-.757-1.175-1.837-1.955-3.159-.405-.656-.82-1.372-1.256-2.129-.435-.757-.901-1.574-1.357-2.412-.456-.837-.942-1.695-1.408-2.593l-1.418-2.694-1.347-2.714-1.286-2.654c-.425-.858-.81-1.705-1.185-2.492l-1.013-2.25C5.73 45.916 5 44 5 44zM18 64s1.118 1.808 2.615 4.574c.369.691.778 1.442 1.197 2.242.42.8.869 1.63 1.308 2.509l1.347 2.707 1.367 2.815c.48.928.998 1.857 1.437 2.766.44.909.929 1.827 1.358 2.706.429.88.858 1.73 1.237 2.549.38.82.749 1.58 1.068 2.302.659 1.422 1.178 2.637 1.527 3.487.35.85.539 1.343.539 1.343l-.798-1.205c-.5-.77-1.208-1.877-1.996-3.23-.42-.672-.849-1.413-1.298-2.193-.449-.78-.938-1.6-1.407-2.47-.47-.87-.998-1.748-1.467-2.657-.47-.909-.998-1.837-1.477-2.766-.48-.928-.888-1.906-1.327-2.845-.44-.938-.829-1.867-1.238-2.766-.41-.899-.768-1.778-1.118-2.608-.349-.83-.678-1.62-.998-2.35C18.68 65.994 18 64 18 64zM30 96s-.779-.994-1.785-2.635c-.25-.408-.53-.846-.8-1.313-.27-.467-.57-.995-.851-1.472-.28-.477-.581-1.054-.882-1.601l-.862-1.67c-.27-.568-.55-1.124-.82-1.681-.27-.557-.519-1.114-.758-1.651-.239-.537-.467-1.064-.675-1.562-.207-.497-.394-.994-.56-1.422-.343-.875-.592-1.63-.758-2.158C21.083 78.308 21 78 21 78l.53.706c.321.458.778 1.114 1.276 1.92.26.397.53.845.8 1.312.27.468.57.995.85 1.472.281.477.592 1.054.873 1.601.28.547.57 1.114.85 1.68L27 88.373c.25.567.509 1.124.747 1.661.24.537.457 1.064.665 1.561.207.498.394.995.57 1.413C29.658 94.737 30 96 30 96zM33 93l.443-.482c.393-.426.82-.826 1.276-1.194.288-.221.587-.472.927-.712.34-.241.71-.482 1.101-.723.391-.24.793-.49 1.225-.703l1.318-.606 1.42-.559c.43-.161.87-.297 1.318-.404.425-.13.858-.236 1.297-.318.422-.077.824-.135 1.194-.183.593-.082 1.192-.12 1.791-.116H47l-.628.27c-.391.173-.968.347-1.626.626-.34.135-.7.28-1.081.405s-.772.327-1.194.471l-1.267.501-1.297.54-1.256.568c-.432.163-.833.375-1.235.568-.401.192-.813.337-1.163.53-.35.192-.71.346-1.03.5-.658.29-1.173.578-1.574.751L33 93zM32 98l.593-.738c.512-.655 1.073-1.271 1.678-1.844.372-.36.783-.748 1.226-1.137.466-.416.955-.806 1.467-1.166.532-.37 1.004-.798 1.647-1.137l1.779-1.057 1.869-.897c.609-.272 1.237-.502 1.878-.688.585-.224 1.182-.414 1.789-.568.583-.15 1.135-.27 1.648-.38.817-.171 1.647-.281 2.482-.328L51 88l-.884.349c-.553.24-1.377.449-2.311.857-.462.2-1.005.4-1.517.599-.513.199-1.085.498-1.658.727-.573.23-1.176.509-1.759.818l-1.788.877-1.738.997c-.57.305-1.123.637-1.658.997-.523.35-1.085.609-1.547.997-.463.39-.925.628-1.347.908-.864.548-1.507 1.106-2.01 1.435L32 98zM72 94l-.398-.38c-.261-.227-.562-.607-.97-1.029-.203-.205-.426-.421-.64-.658-.213-.236-.494-.452-.727-.71-.245-.262-.504-.509-.776-.74l-.824-.72c-.281-.236-.563-.483-.844-.709-.281-.226-.553-.463-.815-.679-.261-.216-.523-.452-.785-.637l-.708-.525c-.436-.37-.834-.627-1.096-.853L63 86l.533.072c.463.069.918.186 1.358.35.281.102.572.216.883.36.315.122.623.266.921.431.34.177.665.387.97.628l.97.74.843.853c.272.278.495.597.738.895.224.284.432.583.62.895.184.288.33.586.475.843.23.433.421.887.573 1.357.058.38.116.576.116.576zM69.934 94c-.252-.108-.49-.24-.712-.391l-.255-.196c-.067-.078-.2-.127-.278-.205l-.278-.215-.233-.254-.256-.235c-.083-.076-.154-.161-.21-.254-.079-.088-.123-.196-.19-.274-.073-.079-.136-.164-.189-.254-.1-.156-.181-.32-.244-.49L67 91.018h.244c.207-.023.416-.023.623 0l.4.089c.14.035.27.091.389.166.133.072.26.154.378.244l.355.284.256.41c.066.128.133.255.21.372.062.115.107.237.134.362v.352c.025.236.007.474-.055.704zM58 88.008c.175-.01.351-.01.527 0 .46-.014.919.02 1.372.103.278 0 .576.102.894.184.337.081.67.184.994.307.338.133.686.256.994.42l.994.533.994.645c.309.204.598.437.865.697.267.22.517.464.746.727.228.246.427.491.606.717.293.365.55.76.765 1.178L68 94l-.457-.266c-.298-.174-.666-.451-1.133-.748-.239-.143-.478-.307-.736-.492-.258-.184-.537-.327-.815-.532-.278-.205-.557-.38-.865-.564l-.895-.563-.924-.533c-.288-.194-.596-.348-.895-.512-.298-.164-.566-.348-.845-.47-.278-.124-.536-.277-.775-.41-.487-.277-.905-.451-1.193-.625L58 88.008zM73 92c.296-.827.633-1.638 1.01-2.43.162-.364.323-.747.525-1.15.202-.404.394-.838.637-1.261l.707-1.342.767-1.352.91-1.27c.292-.414.606-.817.909-1.2.303-.384.586-.767.878-1.11.293-.343.566-.666.829-1.009.515-.595 1.01-1.009 1.303-1.382L82 78l-.283.676c-.192.423-.475 1.008-.838 1.704-.182.343-.394.717-.616 1.1-.223.383-.455.787-.718 1.2-.262.414-.515.837-.798 1.25l-.868 1.282-.798 1.301-.818 1.25c-.263.404-.546.787-.798 1.15-.253.364-.505.697-.748 1.01-.53.725-1.104 1.419-1.717 2.077zM76 93c.013-.664.069-1.326.167-1.982 0-.287.084-.604.158-.991.065-.338.159-.67.28-.991l.352-1.07.418-1.09.549-.991c.176-.337.372-.654.557-.991.173-.302.365-.59.577-.862.213-.258.418-.496.613-.704.381-.426.725-.763.93-.991L81 82l-.177.515c-.12.327-.297.783-.53 1.289-.12.267-.25.535-.399.822-.149.288-.25.615-.409.922-.158.307-.279.654-.446.99l-.493.992c-.148.337-.288.674-.427.99l-.465.992c-.13.327-.334.604-.437.911-.102.308-.25.575-.362.833-.25.6-.536 1.182-.855 1.744zM109 65.318l-.778.14c-.489.093-1.187.13-1.995.299-.42.075-.858.168-1.327.234-.47.065-.998.215-1.457.299-.522.093-1.038.211-1.546.355l-1.587.402-1.556.467c-.519.15-.998.336-1.496.505-.5.168-.998.299-1.397.486-.4.187-.858.336-1.247.476-.788.28-1.407.59-1.876.748L92 70l.579-.505c.507-.444 1.05-.85 1.626-1.215.349-.224.748-.467 1.167-.7.44-.26.9-.487 1.377-.683.493-.24 1.003-.45 1.526-.626l1.626-.523 1.676-.374c.56-.131 1.118-.178 1.647-.253.516-.066 1.035-.107 1.556-.121h1.387c.696.015 1.39.081 2.075.196l.758.122zM110 67.34c-.677.195-1.365.354-2.06.477-.314.046-.638.12-.982.156-.343.037-.706.174-1.089.238l-1.157.239-1.197.21-1.187.285c-.383.101-.776.174-1.148.248-.373.073-.756.12-1.1.21-.343.093-.657.175-.98.24-.609.137-1.129.229-1.502.284L97 70l.48-.33c.305-.193.756-.468 1.315-.761.285-.156.59-.312.913-.46.345-.167.706-.302 1.08-.403.372-.119.764-.247 1.177-.357l1.226-.33 1.266-.175 1.226-.12c.38-.047.764-.068 1.148-.063.373 0 .716.046 1.04.064.716.045 1.427.137 2.129.275z" transform="translate(8 23)"/>
        <path fill="#EFE76C" d="M15 39.542s20.07-2.252 32.176 2.424L50 48s-17.645-4.375-32.006-2.142L15 39.542z" transform="translate(8 23)"/>
        <path fill="#C7C4B5" d="M20 49.953c.4-.162.807-.306 1.222-.43.475-.156.959-.287 1.449-.392.562-.121 1.202-.308 1.902-.402.7-.093 1.468-.233 2.277-.345.808-.112 1.675-.168 2.562-.234.887-.065 1.813-.159 2.75-.15H35c.986 0 1.902 0 2.829.113.926.112 1.852.159 2.73.243.877.084 1.744.15 2.552.27.808.122 1.557.272 2.257.402 1.4.253 2.552.496 3.36.673L50 50h-1.31c-.829 0-1.972-.065-3.42-.159-.71 0-1.47-.093-2.267-.159l-2.494-.102c-.877 0-1.784-.066-2.7-.131-.917-.066-1.863-.075-2.8-.075l-2.788-.065c-.917-.056-1.823 0-2.7 0h-2.533l-2.257.112c-.71 0-1.34.112-1.912.15-.572.037-1.075.083-1.479.14-.867.158-1.34.242-1.34.242z" transform="translate(8 23)"/>
        <path fill="#72C9CC" d="M51.75 78.531s-9.91-23.443-9.748-24.142c.161-.7 7.558-.36 10.605.27L64 80s-4.34-1.579-12.25-1.469z" transform="translate(8 23)"/>
        <path fill="#C7C4B5" d="M23 54l1.168-.296c.755-.17 1.822-.44 3.121-.664.655-.107 1.36-.242 2.104-.358.745-.117 1.54-.198 2.366-.305.826-.108 1.682-.17 2.548-.234.866-.062 1.752-.134 2.638-.143h2.648c.876 0 1.731.063 2.557.099.826.036 1.631.09 2.386.179l2.135.242c1.309.17 2.386.404 3.14.547l1.189.251h-1.218l-3.192-.053h-6.997l-2.618.035c-.876 0-1.742.063-2.598.1-.856.035-1.701 0-2.517.107-.815.107-1.61.08-2.366.125-.755.045-1.46.099-2.114.135l-3.182.188L23 54zM25 58c.71-.376 1.44-.711 2.188-1.004.332-.141.695-.302 1.088-.442.393-.14.787-.322 1.23-.432l1.35-.352 1.412-.311c.47-.108.944-.192 1.422-.251.473 0 .947-.08 1.4-.11.454-.03.898-.06 1.311-.07.393-.037.787-.037 1.18 0 .736.05 1.33.14 1.754.2l.665.13-.655.171c-.424.1-1.008.241-1.714.352-.343.07-.726.1-1.129.2-.403.101-.817.181-1.25.262-.433.08-.877.16-1.34.22-.462.067-.92.157-1.372.272l-1.38.261-1.352.211-1.23.261c-.403.08-.786.13-1.138.18-.808.13-1.623.214-2.44.252zM27 60.996c.676-.385 1.37-.726 2.077-1.021.325-.127.66-.276 1.034-.414.374-.137.748-.287 1.152-.413l1.25-.402c.431-.129.869-.229 1.31-.298l1.329-.207c.433-.069.866-.103 1.29-.15.423-.045.827-.08 1.21-.091h2.718l.63.069-.59.275c-.375.161-.916.38-1.556.586-.325.115-.68.218-1.044.321-.364.104-.768.218-1.171.31-.404.092-.827.195-1.26.276l-1.3.24c-.437.048-.87.125-1.3.23l-1.26.253c-.414.08-.817.126-1.191.195-.374.07-.739.092-1.073.126-.75.093-1.502.132-2.255.115zM29 66c.678-.379 1.373-.715 2.083-1.008l.982-.407c.374-.125.757-.283 1.16-.408l1.247-.396c.463-.132.932-.23 1.405-.294l1.287-.25c.442-.067.875-.101 1.287-.146.413-.046.825-.08 1.209-.091h2.721l.619.068-.59.272c-.373.158-.903.373-1.552.577-.324.113-.668.215-1.041.317-.373.102-.757.215-1.17.306-.412.09-.815.192-1.247.271l-1.297.238c-.439.046-.875.122-1.307.226l-1.257.25c-.403.079-.806.124-1.189.192s-.737.09-1.07.124c-.757.109-1.518.162-2.28.159zM31 68.996c.675-.389 1.37-.729 2.081-1.018.315-.137.658-.286 1.031-.412.373-.125.746-.297 1.149-.423l1.247-.4c.43-.129.866-.228 1.305-.297l1.365-.206c.432-.068.864-.103 1.286-.149.422-.045.815-.068 1.208-.091h2.71l.618.069-.58.274c-.372.16-.912.377-1.55.583-.324.114-.678.217-1.041.32-.363.103-.766.217-1.168.309-.403.091-.825.206-1.257.274l-1.296.24c-.435.048-.868.124-1.296.23l-1.257.25c-.412.092-.814.126-1.188.195-.373.069-.775.149-1.08.149-.76.086-1.523.12-2.287.103zM32 72.996c.672-.399 1.366-.747 2.076-1.043.325-.126.669-.286.984-.412.315-.126.747-.298 1.15-.413l1.25-.412c.423-.126.866-.207 1.309-.287l1.387-.183c.433-.069.866-.115 1.289-.15.423-.034.826-.08 1.21-.09.384-.012.748 0 1.082 0h1.633l.63.068-.59.263c-.374.16-.915.379-1.555.585-.324.114-.669.23-1.043.32-.373.092-.767.218-1.17.31-.404.092-.827.206-1.25.275l-1.308.24c-.433.07-.876.127-1.299.241l-1.26.253c-.413.08-.816.126-1.19.183-.374.057-.738.103-1.072.137-.752.094-1.507.132-2.263.115zM33 75.997c.678-.382 1.374-.72 2.085-1.013.326-.126.662-.274.988-.41.326-.137.75-.285 1.156-.41l1.254-.399c.433-.128.872-.227 1.314-.296l1.334-.205c.435-.068.87-.103 1.295-.148.424-.046.82-.08 1.215-.091h1.087c.546-.033 1.093-.033 1.64 0l.632.068-.593.273c-.375.16-.919.376-1.56.581l-1.048.32c-.376.102-.77.215-1.176.295-.405.08-.83.205-1.264.285l-1.305.24c-.438.046-.873.122-1.304.227l-1.264.25c-.415.08-.82.126-1.196.194-.375.068-.741.091-1.077.125-.735.09-1.474.128-2.213.114zM35 79.999c.68-.389 1.378-.729 2.093-1.019.316-.137.662-.286.987-.412.326-.126.76-.297 1.165-.423l1.254-.401c.425-.137.87-.206 1.313-.298l1.323-.194c.445-.08.88-.115 1.294-.149.414-.034.83-.08 1.214-.103H48.378l.622.069-.592.274c-.376.16-.909.378-1.56.584-.316.115-.672.218-1.047.32-.375.104-.76.218-1.175.31-.414.091-.82.206-1.254.274l-1.303.24c-.442.047-.88.127-1.313.241l-1.264.24c-.405.092-.81.138-1.194.195-.385.057-.74.092-1.077.138-.738.084-1.48.122-2.221.114zM37 83c.595-.354 1.216-.671 1.857-.95.28-.123.581-.275.924-.408.342-.133.684-.284 1.037-.417l1.152-.409 1.234-.303 1.245-.266c.396-.102.803-.162 1.214-.18.394 0 .778-.058 1.152-.067h1.037c.644 0 1.183 0 1.557.057l.591.057-.55.218c-.478.182-.966.34-1.463.475l-.975.256c-.342.086-.706.171-1.038.238-.332.066-.757.199-1.151.284l-1.183.285-1.193.247-1.162.285c-.374.095-.747.152-1.1.228-.353.076-.685.133-1.037.18-.71.11-1.428.173-2.148.19zM54 41c.231-.414.49-.813.777-1.193.746-.999 1.565-1.943 2.452-2.825.58-.61 1.192-1.192 1.834-1.74.667-.615 1.435-1.182 2.212-1.788.777-.607 1.634-1.164 2.531-1.692.897-.527 1.804-1.065 2.77-1.505.479-.225.997-.46 1.436-.674l1.475-.567c.95-.388 1.926-.714 2.92-.978.914-.262 1.847-.462 2.79-.596.448-.078.887-.176 1.305-.225l1.236-.098c.797 0 1.515-.137 2.163-.117l1.654.059 1.445.088-1.425.205-1.634.205c-.618.078-1.316.254-2.073.391l-1.186.235c-.409.088-.817.215-1.246.322-.847.235-1.764.43-2.66.763-.898.332-1.854.596-2.771.977l-1.415.557c-.459.206-.907.45-1.376.665-.926.41-1.813.919-2.69 1.408-.877.489-1.704.977-2.522 1.525-.817.547-1.574 1.046-2.262 1.603-.687.557-1.365.977-1.993 1.525-1.186.977-2.143 1.838-2.79 2.463C54.309 40.62 54 41 54 41z" transform="translate(8 23)"/>
        <path fill="#FC6032" d="M55 43.977S64.047 30.677 84.321 29L88 36.575C76.913 38.34 66.714 43.763 58.99 52L55 43.977z" transform="translate(8 23)"/>
        <path fill="#C7C4B5" d="M60 54l1.002-1.092 1.112-1.232c.478-.543.99-1.055 1.534-1.533l1.914-1.703c.704-.625 1.44-1.213 2.204-1.764.812-.58 1.613-1.232 2.515-1.763l2.716-1.643 2.836-1.423c.912-.459 1.853-.86 2.816-1.202.932-.34 1.813-.741 2.695-1.002.882-.26 1.704-.49 2.475-.691l1.103-.29 1.002-.181 1.643-.27L89 38l-1.363.5-1.563.542-1.002.31-1.002.421c-.722.29-1.513.601-2.345.912-.832.31-1.674.761-2.565 1.132-.892.37-1.814.792-2.716 1.283l-2.746 1.412-2.675 1.563c-.902.481-1.714 1.072-2.525 1.603-.812.531-1.644 1.002-2.335 1.573l-2.004 1.493c-.587.404-1.152.84-1.694 1.302l-1.293 1.002L60 54zM61 57l1.015-1.08 1.086-1.222c.486-.534 1.004-1.038 1.553-1.507l1.919-1.69c.67-.612 1.461-1.152 2.263-1.752.802-.601 1.614-1.161 2.507-1.742l2.71-1.64 2.822-1.415c.91-.466 1.85-.87 2.812-1.212.924-.357 1.797-.754 2.68-1.019.883-.265 1.695-.499 2.456-.703l1.096-.305 1.016-.194 1.634-.295L90 41l-1.35.52-1.553.56-.954.336-1.015.427c-.72.306-1.503.622-2.335.937-.832.316-1.665.774-2.548 1.151s-1.806.805-2.7 1.294l-2.74 1.415-2.67 1.559c-.903.478-1.715 1.069-2.538 1.599-.822.53-1.634 1.018-2.334 1.548l-2.03 1.466L61 57zM63 61l.925-1.107 1.097-1.256c.458-.55.952-1.069 1.479-1.555l1.91-1.734c.715-.635 1.464-1.231 2.244-1.785.803-.634 1.639-1.227 2.505-1.774l2.705-1.655 2.837-1.416c.935-.46 1.9-.86 2.887-1.196.935-.339 1.82-.728 2.716-.997.895-.269 1.71-.468 2.484-.658l1.107-.279 1.006-.16 1.66-.249L92 45l-1.418.479-1.58.508-1.005.299-1.006.409c-.735.289-1.53.578-2.364.887-.835.309-1.68.738-2.585 1.106-.906.37-1.821.778-2.716 1.267l-2.767 1.435-2.655 1.575c-.867.498-1.706 1.04-2.515 1.625-.794.568-1.64.997-2.313 1.585L67.064 57.7c-.582.41-1.14.852-1.67 1.326-.493.409-.915.768-1.277 1.057L63 61z" transform="translate(8 23)"/>
        <path fill="#C7C4B5" d="M64 62.481s4.212-5.456 8.525-7.481L81 71.38S73.849 77.85 72.465 82L64 62.481z" transform="translate(8 23)"/>
        <path fill="#EBF65A" d="M75 54.023L82.722 70s4.13-3.72 8.278-5.1L82.722 50c-2.716 1.046-5.306 2.395-7.722 4.023z" transform="translate(8 23)"/>
        <path fill="#C7C4B5" d="M84 50c.318-.331.67-.63 1.051-.89.168-.113.347-.256.547-.368.203-.137.414-.263.63-.379l.684-.358.736-.338.767-.235c.247-.083.5-.148.757-.194.24-.058.481-.102.726-.134.218-.04.44-.068.662-.081.35-.03.701-.03 1.051 0H92s-.105.102-.305.266c-.258.21-.532.402-.82.573-.168.112-.357.214-.557.327-.2.113-.42.215-.641.317-.221.103-.463.205-.705.287l-.735.266-.736.276-.81.225c-.231.082-.473.123-.694.184l-.64.123c-.447.089-.902.133-1.357.133zM87 52.997c.234-.314.496-.6.781-.852.131-.124.268-.24.41-.347.149-.116.297-.242.465-.347l.52-.336.55-.305.567-.263c.186-.084.381-.147.567-.21.177-.068.357-.12.54-.158.165-.049.333-.084.502-.105.259-.046.52-.07.782-.074H93l-.205.273c-.178.217-.37.418-.576.6-.124.13-.258.246-.4.347-.151.128-.31.244-.475.347-.167.121-.341.23-.52.326l-.559.294-.567.253-.568.21c-.177.063-.372.105-.54.147-.164.049-.332.084-.502.105-.358.077-.723.109-1.088.095zM88 55c.216-.36.467-.684.748-.966.125-.14.258-.27.397-.388.148-.146.303-.28.464-.4l.51-.39.56-.352.586-.212c.193-.07.389-.126.587-.165l.558-.106h.511c.258-.028.518-.028.776 0H94l-.237.283c-.193.214-.398.411-.615.588-.123.106-.265.212-.416.318-.153.12-.315.223-.483.306-.169.107-.343.2-.52.283l-.559.235-.54.283-.539.224c-.17.07-.344.129-.52.176-.16.05-.32.09-.483.118-.357.097-.722.153-1.088.165zM90 58c.203-.321.44-.618.708-.884.116-.11.242-.25.387-.371.146-.12.291-.261.456-.372l.514-.372.542-.351.601-.231c.194-.08.398-.13.592-.19.194-.061.387-.101.572-.131.184-.03.358-.06.523-.08.264-.024.53-.024.795 0H96l-.213.25c-.186.2-.387.385-.601.553-.133.111-.273.215-.417.311-.151.112-.31.213-.475.301-.17.104-.344.198-.523.282l-.553.25-.543.282-.543.24c-.174.081-.358.131-.523.192-.165.06-.34.1-.494.14-.364.102-.738.163-1.115.181zM91 61c.207-.298.449-.573.72-.818.127-.122.26-.237.398-.346.144-.124.296-.24.455-.345l.503-.346.569-.327.578-.245c.186-.086.38-.156.578-.21.181-.07.368-.124.56-.163.169-.053.343-.09.52-.11.263-.05.53-.08.797-.09H97l-.2.245c-.178.196-.37.378-.577.546-.128.115-.264.222-.408.318-.147.113-.302.217-.464.31-.17.1-.342.208-.522.3l-.55.272-.559.273-.55.227c-.18.082-.37.127-.54.19-.16.056-.325.102-.493.137-.371.098-.752.159-1.137.182zM93 64c.241-.316.518-.61.827-.875.141-.13.29-.253.445-.368.168-.138.348-.265.537-.378l.6-.36c.207-.1.424-.23.652-.322l.682-.257c.226-.086.457-.16.693-.222.213-.069.435-.112.661-.128.202-.038.405-.063.61-.074.31-.021.621-.021.931 0H100l-.269.23c-.225.186-.467.355-.724.507-.16.102-.325.198-.496.285l-.569.295c-.186.101-.382.203-.589.295l-.641.267c-.217.073-.424.184-.63.267l-.642.24c-.207.082-.424.128-.61.202l-.569.166c-.41.114-.833.19-1.261.23z" transform="translate(8 23)"/>
    </g>
</svg>
