<svg xmlns="http://www.w3.org/2000/svg" width="180" height="180" viewBox="0 0 180 180">
    <defs>
        <linearGradient id="prefix__a" x1="151.144%" x2="65.134%" y1=".586%" y2="104.61%">
            <stop offset="0%" stop-color="#FFF"/>
            <stop offset="100%" stop-color="#D31718"/>
        </linearGradient>
        <linearGradient id="prefix__b" x1="13008.429%" x2="13009.219%" y1="1862.887%" y2="1973.606%">
            <stop offset="0%" stop-color="#FFF"/>
            <stop offset="100%" stop-color="#D31718"/>
        </linearGradient>
    </defs>
    <g fill="none" fill-rule="evenodd">
        <path fill="#FEA424" fill-rule="nonzero" d="M135.83 67.41c.004 27.27-16.42 51.857-41.613 62.295-25.192 10.439-54.193 4.673-73.477-14.608C1.456 95.815-4.314 66.817 6.121 41.622 16.556 16.427 41.141 0 68.41 0c37.229.006 67.409 30.181 67.42 67.41" transform="translate(18 13)"/>
        <path stroke="#FFF" stroke-linecap="round" stroke-linejoin="round" stroke-width="1.06" d="M101.38 148.14L105.05 151.05 101.38 153.96" transform="translate(18 13)"/>
        <path fill="#FF9212" fill-rule="nonzero" d="M28.79 23c.054 1.87-.644 3.684-1.936 5.037-1.293 1.353-3.073 2.132-4.944 2.163-1.876-.023-3.664-.799-4.963-2.152-1.3-1.354-2-3.173-1.947-5.048-.054-1.87.644-3.684 1.936-5.037 1.293-1.353 3.073-2.132 4.944-2.163 1.876.023 3.664.799 4.963 2.152 1.3 1.354 2 3.173 1.947 5.048z" transform="translate(18 13)"/>
        <path fill="#FFF" fill-rule="nonzero" d="M17.28 67.41c.148 2.866-2.045 5.313-4.91 5.48-2.909-.175-5.178-2.586-5.178-5.5s2.27-5.325 5.178-5.5c1.383.08 2.678.707 3.6 1.742.92 1.035 1.392 2.395 1.31 3.778z" transform="translate(18 13)"/>
        <path fill="#63C4D1" fill-rule="nonzero" d="M58.67 38.41c0 .903-.544 1.717-1.379 2.061-.834.345-1.794.152-2.431-.488s-.826-1.6-.477-2.433c.348-.833 1.164-1.374 2.067-1.37 1.228.006 2.22 1.002 2.22 2.23zM83.84 38.22c.822 3.042 3.198 5.418 6.24 6.24-3.045.822-5.422 3.204-6.24 6.25-.82-3.049-3.201-5.43-6.25-6.25 3.046-.818 5.428-3.195 6.25-6.24z" transform="translate(18 13)"/>
        <path fill="#B7B1AA" fill-rule="nonzero" d="M95.3 82.67s.69-4 .73-4.09c.17-.336.439-.612.77-.79.443-.21.93-.313 1.42-.3l40.49-2.55-.71 1.63-37.09 3c-.84.14-3.31 3.52-5.61 3.1z" transform="translate(18 13)"/>
        <path fill="#DDDBD4" fill-rule="nonzero" d="M97.89 81.81s.27-1.69.31-1.8c.17-.341.443-.621.78-.8.442-.202.924-.301 1.41-.29l40.49-2.55-.67 1.63-37.09 3c-.87.14-2.93 1.23-5.23.81z" transform="translate(18 13)"/>
        <path fill="#FDFEFF" fill-rule="nonzero" d="M99.6 81.8s0-.13.06-.24c.174-.337.446-.612.78-.79.44-.21.923-.313 1.41-.3l40.49-2.54-.67 1.62-37.51 1.83c-1.498.323-3.029.464-4.56.42z" transform="translate(18 13)"/>
        <path fill="#B7B1AA" fill-rule="nonzero" d="M92.47 82.83s2.38-3.47 2.43-3.57c.116-.323.116-.677 0-1-.196-.408-.5-.754-.88-1L64.35 53.48l-.67 1.62 26.71 22.24c.54.66-.02 4.58 2.08 5.49z" transform="translate(18 13)"/>
        <path fill="#DDDBD4" fill-rule="nonzero" d="M91.09 80.77s1-1.47 1.08-1.57c.107-.325.107-.675 0-1-.206-.404-.512-.749-.89-1L61.62 53.42 61 55l26.7 22.24c.49.66 1.3 2.62 3.39 3.53z" transform="translate(18 13)"/>
        <path fill="#FDFEFF" fill-rule="nonzero" d="M89.76 79.84l.13-.21c.116-.323.116-.677 0-1-.194-.412-.503-.76-.89-1L59.34 53.85l-.67 1.62 27.85 21.59c.943 1.076 2.033 2.012 3.24 2.78z" transform="translate(18 13)"/>
        <path fill="#E92928" fill-rule="nonzero" d="M56.77 54c.818-.157 1.663.08 2.28.64L87.76 77l-23 55.77-31.49-24.34L54.93 55.9c.14-.964.881-1.73 1.84-1.9z" transform="translate(18 13)"/>
        <path fill="#D31718" fill-rule="nonzero" d="M103.34 81.23l38.37-1.87c.877.155 1.698.538 2.38 1.11.374.692.54 1.476.48 2.26-7.09 18-15 35.51-22.06 53.49l-41.05 1.7c-.534.297-1.089.554-1.66.77 3.89-8.49 20.2-49.15 23.54-57.46z" transform="translate(18 13)"/>
        <path fill="#363595" fill-rule="nonzero" d="M103.7 81.46h-.02" transform="translate(18 13)"/>
        <path fill="#AC0704" fill-rule="nonzero" d="M56.78 54c.817-.166 1.664.068 2.28.63L87.77 77 87 78.78 55.91 54.35c.262-.176.559-.295.87-.35zM103.35 81.23l38.36-1.87c.88.153 1.705.536 2.39 1.11.065.1.119.208.16.32L102.62 83l.73-1.77z" transform="translate(18 13)"/>
        <path fill="#C00F07" fill-rule="nonzero" d="M87.46 77l1.18.91c1.743 1.502 3.79 2.61 6 3.25 2.93.842 6.024.938 9 .28L80 139c-3.216 1.221-6.785 1.124-9.93-.27-2.474-1.12-4.396-3.184-5.34-5.73l-.11-.08C69.23 122.46 84.26 85 87.46 77z" transform="translate(18 13)"/>
        <path fill="#F6F407" fill-rule="nonzero" d="M90.39 96.1c-3.179-.892-6.15-2.404-8.74-4.45 1-2.49 1.92-4.75 2.69-6.67 2.33 1.63 4.92 2.851 7.66 3.61 2.747.773 5.598 1.11 8.45 1l-3.09 7.51c-2.357-.032-4.7-.368-6.97-1zM75.17 132.71c2.254.628 4.58.964 6.92 1l-1 2.51c-2.343-.035-4.672-.372-6.93-1-3.134-.88-6.066-2.364-8.63-4.37l1.06-2.5c2.547 2.001 5.462 3.483 8.58 4.36zM85 126.79l-1.52 3.69c-2.366.01-4.722-.31-7-.95-3.132-.873-6.046-2.396-8.55-4.47.49-1.18 1-2.41 1.52-3.68 2.504 2.074 5.418 3.597 8.55 4.47 2.277.643 4.634.96 7 .94z" transform="translate(18 13)"/>
        <path fill="#C00F07" fill-rule="nonzero" d="M78.64 80.11L74.67 89.74 53.31 73.57 57.32 63.83z" transform="translate(18 13)"/>
        <path stroke="#AC0704" stroke-linecap="round" stroke-linejoin="round" stroke-width="2.89" d="M103.35 82.25c-2.88.673-5.879.636-8.74-.11-2.844-.72-5.431-2.22-7.47-4.33" transform="translate(18 13)"/>
        <path fill="url(#prefix__a)" fill-rule="nonzero" d="M120.75 135.37c.347.118.728-.04.89-.37L143 83.1c.06-.156.048-.33-.03-.478-.079-.147-.217-.254-.38-.292-.347-.109-.722.047-.89.37l-21.4 51.91c-.059.16-.043.34.045.487.087.147.236.247.405.273z" opacity=".64" transform="translate(18 13)"/>
        <path fill="url(#prefix__b)" fill-rule="nonzero" d="M34.54 109.31c.347.113.725-.044.89-.37L56.84 57c.056-.156.041-.33-.039-.475-.08-.145-.219-.249-.381-.285-.347-.113-.725.044-.89.37l-21.4 51.91c-.066.159-.059.338.02.49.08.153.222.263.39.3z" opacity=".64" transform="translate(18 13)"/>
        <path fill="#C00F07" fill-rule="nonzero" d="M84.14 126.55l.33.1c.26.087.543-.033.66-.28l11.76-28.51c.04-.117.028-.245-.034-.352-.06-.107-.165-.183-.286-.208l-.33-.1c-.256-.084-.536.03-.66.27L83.83 126c-.037.114-.024.238.035.343.059.104.158.18.275.207zM64.8 134.12c.347.109.722-.047.89-.37L87.1 81.84c.056-.156.041-.33-.039-.475-.08-.145-.219-.249-.381-.285-.347-.118-.728.04-.89.37l-21.4 51.9c-.056.156-.043.329.035.476.078.146.214.253.375.294z" opacity=".64" transform="translate(18 13)"/>
        <path fill="#899698" fill-rule="nonzero" d="M26.86 35.71H101.37V103.77000000000001H26.86z" transform="translate(18 13)"/>
        <path fill="#FAF9F8" fill-rule="nonzero" d="M20.78 20.59H92.91V97.89H20.78z" transform="translate(18 13)"/>
        <path fill="#CFDFD6" fill-rule="nonzero" d="M92.92 97.89L92.92 35.71 101.38 35.71z" transform="translate(18 13)"/>
        <path fill="#D2D0C8" fill-rule="nonzero" style="mix-blend-mode:multiply" d="M92.92 35.71L97.14 35.71 92.92 97.89z" transform="translate(18 13)"/>
        <path fill="#95D5C0" fill-rule="nonzero" d="M26.18 30.17H87.52000000000001V31.930000000000003H26.18z" transform="translate(18 13)"/>
        <path fill="#A1A2A4" fill-rule="nonzero" d="M26.18 48.94H62.44V51.339999999999996H26.18zM26.18 53.36H62.44V55.76H26.18zM26.18 57.77H62.44V60.160000000000004H26.18zM26.18 62.18H87.94V64.57H26.18zM26.18 66.59H87.94V68.99000000000001H26.18zM26.18 75.41H47.95V77.8H26.18zM26.18 79.83H87.94V82.22H26.18zM40.97 84.23H87.94999999999999V86.63000000000001H40.97zM40.97 88.65H87.94999999999999V91.04H40.97z" transform="translate(18 13)"/>
        <path fill="#FF9212" fill-rule="nonzero" d="M65.57 48.94H87.94V60.059999999999995H65.57zM26.18 84.23H37.8V91.04H26.18z" transform="translate(18 13)"/>
        <path fill="#D9DCD7" fill-rule="nonzero" style="mix-blend-mode:multiply" d="M20.67 21.92H56.74V99.22H20.67z" transform="translate(18 13)"/>
    </g>
</svg>
