<svg xmlns="http://www.w3.org/2000/svg" width="180" height="180" viewBox="0 0 180 180">
    <g fill="none" transform="translate(16 23)">
        <path fill="#F81E4C" d="M135.8 67c0 37-29.44 67-65.77 67S4.26 104 4.26 67 33.71 0 70 0c36.29 0 65.8 30 65.8 67"/>
        <path fill="#FD1C16" d="M31.77 66.37c-.329-1.696.397-3.423 1.838-4.375 1.441-.953 3.314-.943 4.745.025 1.431.967 2.139 2.702 1.792 4.394-.347 1.692-1.679 3.01-3.375 3.336-2.313.44-4.546-1.07-5-3.38"/>
        <rect width="64.36" height="48.16" x="79.86" y="30.34" fill="#46293A" rx="3.32"/>
        <path fill="#46293A" d="M76.58 78.5H147.5V85.14H76.58z"/>
        <path fill="#79C6B3" d="M86.1 36.3H137.85V73.24H86.1z"/>
        <path fill="#F8BAD5" opacity=".5" style="mix-blend-mode:multiply" d="M137.85 36.31L137.85 73.24 86.1 73.24z"/>
        <path fill="#46293A" d="M113.71 33.4c0 .878-.712 1.59-1.59 1.59-.878 0-1.59-.712-1.59-1.59 0-.878.712-1.59 1.59-1.59.878 0 1.59.712 1.59 1.59z"/>
        <g opacity=".6">
            <path fill="#BD7A4B" d="M21.12.81C9.94.81.87 8.92.87 18.91.87 28.9 9.94 37 21.12 37s20.24-8.1 20.24-18.1C41.36 8.9 32.3.81 21.12.81zm14.4 13.5c.09.07.09.22.25.15 0-.74.17-1 .93-.6-.09.15-.09.37-.17.52.42.22.67.56.5.93-.58-.3-1.93.08-2.26-.3-.33-.38.08-1.68.75-.7zm-22 19.37C7.24 31.1 2.88 25.43 2.88 18.84c0-.41 0-.81.05-1.21.75.22 1 .22 1.12.84.17.9-.67 1 .67 1.64-.287-.356-.38-.831-.25-1.27.84.37.76 1.72 1.34 2.32.58.6 1.19.68 2.19 1.05.504.254.983.555 1.43.9.401.207.792.434 1.17.68.84.89-.33 1.57.17 2.62.17.52.75.6 1 .9.25.3.08.82.25 1 .17.18.84.6.84.68.33.59 0 .75.08 1.34.08.9.58 1.66.58 2.55.018.267.008.535-.03.8h.03zM34 18.16c-.5 0-1.09-.07-1.34-.07s-1.1.38-1.68-.23c-.58-.61.42-.82-.42-1.35-.25-.15-1 .08-1.34.08-1.046.116-2.063.421-3 .9-.192.355-.333.736-.42 1.13-.338.504-.646 1.028-.92 1.57-.59 1.27-1.26 1.57-.17 2.77.774.861 1.846 1.397 3 1.5.92.08.67-.23 1.51.22 1.09.53.33.23.67 1 1.12 2.43-.36 4.8.53 7.16-4.75 2.464-10.281 2.953-15.39 1.36.18-.52.42-1 .52-1.4.669-.361 1.265-.843 1.76-1.42.227-.322.48-.623.76-.9.25-.23 1-.75 1.17-.9.25-.37.17-.9.34-1.27s.75-.75.75-1.13c-.08-.82-1.51-1-2.1-1.35-1.51-.89-2.76-2-4.69-2.32-.5-.15-.5-.45-1.09-.37-.42 0-.92.45-1 .45-.392.02-.775-.127-1.052-.406-.276-.278-.421-.662-.398-1.054-.25 0-.58-.07-.83-.07.17-.82-.42-1.5-1.09-.6-1.43-.52-.84-2.32.16-2.62 1.26-.45 1.93.6 2.77.82 0-1.19.84-2 1.76-2.92 1.18-1.2 1.93-1.12 1.59-2.77.414-.089.836-.139 1.26-.15-.5-1.2.92-.38 1.17-.83.25-.45-.41-.75-.75-1.2-.34-.45-.25-.67-.83-1-.58-.33-1.26.3-1.18-.68-.408.064-.788.249-1.09.53.443.118.792.46.92.9-1 0-.41 1-1.26 1.19-.16-1.49-1-.22-1.67-.52-.316-.5-.518-1.063-.59-1.65.09-.37.59-.23.67-.45.08-.22 0-.75.09-.9.33-.45 1.42-.82.25-1.27C10.9 9.54 9 7.06 9.8 6c.33-.24.69-.47 1-.68.4.57.7 1 .22 1.59 1.42.45.75-1.8 1.92-1.2-.071-.466-.3-.893-.65-1.21.15-.07.3-.15.46-.21.075.429.344.798.73 1 .259-.04.511-.113.75-.22-.206-.38-.437-.748-.69-1.1.59-.24 1.19-.44 1.81-.63-.037.264.033.532.195.744.161.212.4.351.665.386 1.09.15 2 .15 1.43 1.35.248.04.502.04.75 0-.33 1.27-1 3.52 1 3.82.08-.82.92-1.5 1.51-2 .83-.68 2.26-.75 2.68-1.43.34-.52-.25-.82-.08-1.27.17-.45 1.25-1 1.09-1.42-.16-.42-.84-.23-1.09-.45-.172-.114-.322-.26-.44-.43 3.436.32 6.726 1.548 9.53 3.56-1.42.65-3.93 3.33-2.64 4.21 1-.9 1.51 1.58 2.35 0-.25-.15-.42-.52-.67-.67.75-.53.42-1.13 1.59-1.58 0 .6-.92 1.5.08 1.65-.2.686-.541 1.322-1 1.87-.555.112-1.116.188-1.68.23.09-.3-.08-.67 0-.82-.08-.08-.16-.08-.33-.08.25.82-.92 1.27-1.51 1.87-.92.9-.67 1-.76 2.18-.75-.15-1.42-.75-1.84 0-.25.45.33 1.49.92 1.42.42 0 1.26-.82 1.68-1 .42-.18 1.51-.3 1.68-.67.5.52 1.67 1.12.83 1.64 1.6.15-.08-1.64-.33-2.09 1.107.398 1.97 1.283 2.34 2.4.239-.274.335-.644.26-1 .268-.102.559-.126.84-.07-.34 1 .84 1.05 1.59 1.12.31 1.28-.78 1.43-1.99 1.35zm2 10.17c-.13-1.17.28-3.12 2-3.13-.539 1.12-1.21 2.17-2 3.13zm.72-6.2c-.5-.82-1.17-2.54-.67-3.29 1.54 1.37.9 3.65 2.93 3.47-.083.369-.187.733-.31 1.09-.855.037-1.639-.473-1.95-1.27z" opacity=".49" style="mix-blend-mode:multiply" transform="translate(87 37)"/>
            <g opacity=".49" style="mix-blend-mode:multiply" fill="#D08753">
                <path d="M16.25 6.09c-.25.23-.33.31-.67.23.1-.75-1.17-1.65-.5-2.17.5.07 1.09 1.35 1.17 1.94zM14.83 6.4c-.76.07-.76-.31-.34-.83.51-.07.42.43.34.83zM11.81 2.12c.32-.238.695-.393 1.09-.45 1.1-.3.16 1.43-1.09.45zM.1 15.2c.3-.26.713-.343 1.09-.22 1.25.37-.5.67-1.09.22zM4.13 2.06c-.42.61-1.68 0-2.43.31.33-.15.58-.6.84-.83-.425-.146-.802-.406-1.09-.75.16-.14.08-.3.33-.37.92-1.2 1.68 1.12 2.35 1.64zM3.43 3.54c-.55-.045-1.075-.25-1.51-.59.58-.192 1.214.056 1.51.59zM.24 3.62C-.18 3.4.66 2.05.66 1.3c.67.37.08 1.87-.42 2.32z" transform="translate(87 37) translate(12 6)"/>
            </g>
        </g>
        <path fill="#A39C97" d="M62.12 106.78l20.67 6c1.675.573 2.57 2.394 2 4.07-.451 1.722-2.2 2.764-3.93 2.34l-20.67-6c-1.67-.578-2.564-2.394-2-4.07.451-1.723 2.199-2.768 3.93-2.35M14.82 93.09l20.67 6c1.67.578 2.564 2.394 2 4.07-.451 1.723-2.199 2.768-3.93 2.35l-20.66-6c-.806-.273-1.47-.856-1.845-1.62-.376-.763-.431-1.645-.155-2.45.447-1.72 2.193-2.764 3.92-2.34"/>
        <path fill="#D3D1CB" d="M16.29 98.31l.36.09.35.11 63 18.24c4.616 1.303 9.562.69 13.72-1.7 6.788-3.164 11.872-9.113 13.94-16.31 3.91-13.24-2.89-26.86-15.18-30.42-6.22-1.756-12.896-.746-18.32 2.77l-29.77-8.62c-2.669-5.86-7.746-10.278-13.92-12.11C18.17 46.8 5 54.65 1.11 67.89-2.78 81.13 4 94.75 16.29 98.31"/>
        <path fill="#A39C97" d="M4.55 68.74C7.83 57.64 18.86 51.05 29.18 54c10.32 2.95 16 14.42 12.73 25.52-3.27 11.1-14.31 17.73-24.63 14.74C6.96 91.27 1.27 79.85 4.55 68.74"/>
        <path fill="#D3D1CB" d="M13.51 76.77l18.32-4.3c1.146-.241 2.34.01 3.291.693.951.683 1.571 1.734 1.709 2.897l.32 2c.402 2.496-1.121 4.9-3.55 5.6L15.3 88c-1.146.241-2.34-.01-3.291-.693-.951-.683-1.571-1.734-1.709-2.897l-.32-2c-.398-2.49 1.12-4.885 3.54-5.59"/>
        <path fill="#50AD26" d="M27.34 79.91c-.464-2.73 1.232-5.364 3.91-6.07 1.257-.28 2.575-.018 3.629.722 1.054.74 1.748 1.89 1.911 3.168.458 2.732-1.24 5.364-3.92 6.07-1.256.28-2.572.018-3.625-.722s-1.744-1.891-1.905-3.168"/>
        <path fill="#57BEC7" d="M11.3 83.59c-.453-2.729 1.245-5.354 3.92-6.06 1.257-.28 2.575-.018 3.629.722 1.054.74 1.748 1.89 1.911 3.168.454 2.731-1.244 5.36-3.92 6.07-1.259.277-2.576.012-3.63-.73-1.053-.741-1.746-1.892-1.91-3.17"/>
        <path fill="#D3D1CB" d="M11.49 63.35L30.26 59c1.166-.257 2.387-.012 3.364.674.977.687 1.622 1.752 1.776 2.936l.33 2c.41 2.533-1.162 4.965-3.64 5.63L13.32 74.6c-1.163.254-2.38.009-3.354-.675C8.99 73.24 8.347 72.18 8.19 71l-.33-2c-.406-2.526 1.16-4.951 3.63-5.62"/>
        <path fill="#FCD911" d="M25.08 66.06c-.453-2.729 1.245-5.354 3.92-6.06 1.257-.28 2.575-.018 3.629.722 1.054.74 1.748 1.89 1.911 3.168.481 2.746-1.223 5.403-3.92 6.11-1.257.277-2.573.014-3.626-.726s-1.748-1.888-1.914-3.164"/>
        <path fill="#FD1C16" d="M9.05 69.74c-.455-2.739 1.26-5.371 3.95-6.06 1.256-.28 2.572-.018 3.625.722s1.744 1.891 1.905 3.168c.464 2.728-1.233 5.358-3.91 6.06-1.257.28-2.575.018-3.629-.722-1.054-.74-1.748-1.89-1.911-3.168"/>
        <path fill="#BAB7B0" d="M68.54 87.27c3-10.16 13.09-16.18 22.53-13.45 9.44 2.73 14.65 13.18 11.65 23.35-3 10.17-13.1 16.18-22.53 13.45-9.43-2.73-14.66-13.19-11.65-23.35"/>
        <path fill="#372F30" d="M74.15 93.08l6.76 2-2.15 7.27c-.185.563.119 1.17.68 1.36l5.16 1.49c.579.14 1.164-.206 1.32-.78l2.15-7.27 6.75 2c.577.145 1.163-.204 1.31-.78l1.65-5.56c.18-.563-.122-1.166-.68-1.36l-6.76-2 2.15-7.28c.092-.268.073-.561-.053-.815-.126-.253-.348-.446-.617-.535l-5.17-1.5c-.577-.145-1.163.204-1.31.78l-2.15 7.28-6.76-2c-.576-.14-1.158.207-1.31.78l-1.64 5.56c-.092.27-.073.564.053.82.125.254.347.449.617.54"/>
        <path fill="#BAB7B0" d="M42.39 91.78l20.67 6c1.026.342 1.874 1.078 2.356 2.047.482.968.56 2.088.214 3.113-.264 1.061-.94 1.974-1.878 2.537-.938.562-2.061.73-3.122.463L40 99.91c-1.026-.342-1.874-1.078-2.356-2.047-.482-.968-.56-2.088-.214-3.113.264-1.061.94-1.974 1.878-2.537.938-.562 2.061-.73 3.122-.463"/>
        <path fill="#A39C97" d="M59.9 76.65l6.1-2.84c.377-.166.805-.169 1.184-.008.379.161.674.472.816.858l.26.67c.306.858-.081 1.81-.9 2.21l-6.06 2.84c-.377.166-.805.169-1.184.008-.379-.161-.674-.472-.816-.858l-.3-.67c-.313-.856.071-1.81.89-2.21M48.53 73.35l6.1-2.83c.377-.163.804-.164 1.182-.004.378.16.674.47.818.854l.25.67c.314.853-.065 1.806-.88 2.21l-6.11 2.84c-.378.166-.808.167-1.187.004s-.673-.476-.813-.864l-.26-.66c-.307-.861.08-1.816.9-2.22"/>
    </g>
</svg>
