<svg xmlns="http://www.w3.org/2000/svg" xmlns:xlink="http://www.w3.org/1999/xlink" width="180" height="180" viewBox="0 0 180 180">
    <defs>
        <filter id="prefix__c" width="700%" height="700%" x="-300%" y="-300%" filterUnits="objectBoundingBox">
            <feGaussianBlur in="SourceGraphic" stdDeviation="2.5"/>
        </filter>
        <filter id="prefix__d" width="700%" height="700%" x="-300%" y="-300%" filterUnits="objectBoundingBox">
            <feGaussianBlur in="SourceGraphic" stdDeviation="2.5"/>
        </filter>
        <circle id="prefix__a" cx="67.525" cy="67.425" r="67.425"/>
    </defs>
    <g fill="none" fill-rule="evenodd" transform="translate(23 23)">
        <mask id="prefix__b" fill="#fff">
            <use xlink:href="#prefix__a"/>
        </mask>
        <use fill="#99A2C6" xlink:href="#prefix__a"/>
        <g mask="url(#prefix__b)">
            <g>
                <g transform="translate(-9.804 26.397)">
                    <path fill="#6F2E81" fill-rule="nonzero" d="M86.33 110.464L78.939 112.626 78.385 105.059 76.198 105.059 75.645 112.374 66.57 109.408 67.953 96.26 85.073 96.059z"/>
                    <path fill="#1C117A" fill-rule="nonzero" d="M47.011 83.765L48.696 103.626 20.841 96.059 26.623 81.553z"/>
                    <path fill="#5C5CB4" fill-rule="nonzero" d="M105.36 83.765L104.531 106.894 132.486 102.067 128.489 82.508z"/>
                    <path fill="#3F4E66" fill-rule="nonzero" d="M126.578 34.994s7.266 3.52 4.475 10.408l-8.824.805-2.388-1.006s-.176-6.536 3.368-9.402l3.37-.805z"/>
                    <path fill="#EDE579" fill-rule="nonzero" d="M121.726 34.642l.201 1.886s4.098-.603 5.028-1.735l-.754-2.84-4.475 2.69z"/>
                    <path fill="#3F4E66" fill-rule="nonzero" d="M118.986 35.648s20.112.88 9.478-25.718l-7.09 8.573-2.388 17.145z"/>
                    <path fill="#F9DDB7" fill-rule="nonzero" d="M118.106 33.385L118.735 43.316 114.084 42.737 112.098 33.763z"/>
                    <path fill="#F2E26B" fill-rule="nonzero" d="M129.872 84.394s-6.663 2.665-13.048 3.394c-5.154.578-12.293-2.766-12.293-2.766l.427-39.092c-.075-2.665 2.036-4.877 4.726-4.952h.352l11.841-.176 1.433-.025c2.615-.05 4.802 2.01 4.902 4.625l1.66 38.992z"/>
                    <path fill="#F9DDB7" fill-rule="nonzero" d="M110.036 40.978c.604 2.036 2.816 3.62 5.556 3.82 3.168.227 5.908-1.533 6.285-3.996l-11.84.176z"/>
                    <path fill="#684642" fill-rule="nonzero" d="M115.919 26.824l-5.606.201c-.578.025-1.056-.427-1.081-1.005-.025-.579.427-1.056 1.005-1.081l5.607-.202c.578-.025 1.055.428 1.08 1.006.026.603-.427 1.081-1.005 1.081z"/>
                    <path fill="#F9DDB7" fill-rule="nonzero" d="M115.869 37.257c5.732-1.282 9.477-6.813 8.522-12.595l-1.458-9.15c-.98-6.06-6.662-10.182-12.72-9.202l-1.207.201c-6.06.98-10.182 6.662-9.202 12.72l1.484 9.152c.98 6.058 6.662 10.181 12.72 9.2l1.207-.2c.226-.025.427-.076.654-.126"/>
                    <circle cx="117.304" cy="26.103" r="1.25" fill="#E966E2" filter="url(#prefix__c)"/>
                    <circle cx="104.804" cy="29.853" r="1.25" fill="#E966E2" filter="url(#prefix__d)"/>
                    <ellipse cx="104.074" cy="22.774" fill="#684642" fill-rule="nonzero" rx="1" ry="1.408" transform="rotate(-11.21 104.074 22.774)"/>
                    <ellipse cx="113.41" cy="21.114" fill="#684642" fill-rule="nonzero" rx="1" ry="1.408" transform="rotate(-12.022 113.41 21.114)"/>
                    <path fill="#684642" fill-rule="nonzero" d="M110.722 31.252c.825-.227 1.461-1.029 2.01-1.71.122-.155.08-.352-.074-.473-.155-.122-.351-.08-.473.074-.433.554-.948 1.322-1.596 1.486-.65.165-1.435-.275-2.09-.573-.17-.067-.36-.001-.428.167-.067.169 0 .36.168.427.75.38 1.676.799 2.483.602z"/>
                    <circle cx="124.089" cy="22.098" r="4.198" fill="#F9DDB7" fill-rule="nonzero"/>
                    <path fill="#E2C39F" fill-rule="nonzero" d="M122.908 22.047c.578-3.092 3.444-1.91 3.444-1.91s-.377-.025-1.735.83c-.427.276-1.71 1.08-1.71 1.08z"/>
                    <path fill="#684642" fill-rule="nonzero" d="M122.883 22.249c.1 0 .176-.076.2-.151.177-.855.529-1.433 1.082-1.735.93-.503 2.086-.025 2.112-.025.1.05.226 0 .25-.1.026-.101 0-.227-.1-.252-.05-.025-1.357-.553-2.438.05-.654.352-1.081 1.031-1.282 2.011-.025.101.05.202.15.227l.026-.025z"/>
                    <path fill="#3F4E66" fill-rule="nonzero" d="M127.408 19.458s-5.129-3.645-6.511 1.735l-.1 1.785-1.71-8.045c-.202-3.369-3.093-5.682-11.188-4.224-3.092.554-6.31 2.942-6.863 7.618-.226 1.986-.05 8.195-.05 8.195s-2.288-10.71-1.383-14.33c1.056-4.172 5.958-9.552 14.958-8.37.327.05 10.534 1.105 13.5 5.153 2.137 2.89-.653 10.483-.653 10.483z"/>
                    <path fill="#3F4E66" fill-rule="nonzero" d="M114.612 10.207s1.382 4.324 5.204 5.757l1.206-1.282-1.206-3.319-2.841-1.609-2.363.453z"/>
                    <path fill="#684642" fill-rule="nonzero" d="M103.45 19.332c.553-.176 1.056-.528 1.433-.98.075-.1.05-.226-.05-.277h-.026c-.1-.05-.251-.025-.327.076-.603.78-1.634 1.08-2.564.78-.125-.026-.251.024-.301.125-.05.1 0 .226.1.276h.025c.578.151 1.157.151 1.71 0zM113.103 18.025c.579-.075 1.157-.302 1.61-.679.075-.075.1-.2.024-.276l-.025-.025c-.1-.076-.226-.076-.327 0-.729.628-1.81.729-2.664.251-.1-.05-.252-.025-.327.076-.076.1-.05.226.05.276 0 0 .025 0 .025.025.503.277 1.056.402 1.634.352z"/>
                    <path fill="#F2E26B" fill-rule="nonzero" d="M151.014 78.41c1.986 0 3.595-1.608 3.595-3.594 0-.855-.302-1.685-.855-2.338l-25.869-30.394c-1.282-1.534-3.544-1.735-5.078-.453-1.533 1.282-1.734 3.545-.452 5.078.025.026.025.05.05.05l25.869 30.395c.679.804 1.684 1.257 2.74 1.257zM87.21 74.388c.854-.125 1.659-.553 2.237-1.206l20.489-25.643c1.282-1.533 1.08-3.796-.453-5.078-1.483-1.257-3.695-1.106-4.977.352l-20.49 25.642c-1.307 1.509-1.156 3.771.353 5.079.779.678 1.81 1.005 2.84.854z"/>
                    <path stroke="#684642" stroke-linecap="round" stroke-linejoin="round" stroke-width=".625" d="M111.394 24.034s-3.997-.604-3.57 2.488"/>
                    <path fill="#F9DDB7" fill-rule="nonzero" d="M36.679 33.209L36.075 43.14 40.726 42.561 42.687 33.587z"/>
                    <path fill="#5C5CB4" fill-rule="nonzero" d="M49.852 45.754l-1.056 39.042s-4.726 2.941-10.81 2.816c-3.369-.076-13.047-3.394-13.047-3.394l1.659-38.992c.1-2.614 2.287-4.676 4.902-4.625l1.433.025c.377 2.463 3.117 4.223 6.285 3.997 2.74-.201 4.952-1.785 5.556-3.821h.301c2.665.025 4.802 2.237 4.777 4.902v.05z"/>
                    <path fill="#F9DDB7" fill-rule="nonzero" d="M44.774 40.802c-.604 2.036-2.816 3.62-5.556 3.82-3.168.227-5.908-1.533-6.285-3.996l11.84.176z"/>
                    <path fill="#684642" fill-rule="nonzero" d="M39.193 23.128l6.159.327c.628.025 1.106.579 1.081 1.207-.025.629-.578 1.106-1.207 1.081l-6.159-.327c-.628-.025-1.106-.578-1.081-1.207.05-.628.578-1.106 1.207-1.08z"/>
                    <path fill="#F9DDB7" fill-rule="nonzero" d="M45.754 3.042l1.307.226c6.612 1.182 11.012 7.517 9.83 14.154l-1.81 10.005c-1.182 6.612-7.517 11.012-14.154 9.83l-1.307-.226c-6.612-1.182-11.011-7.517-9.83-14.154l1.81-10.005c1.182-6.637 7.517-11.037 14.154-9.83z"/>
                    <ellipse cx="52.162" cy="21.18" fill="#684642" fill-rule="nonzero" rx="1.559" ry="1" transform="rotate(-77.708 52.162 21.18)"/>
                    <ellipse cx="41.947" cy="19.202" fill="#684642" fill-rule="nonzero" rx="1.559" ry="1" transform="rotate(-76.909 41.947 19.202)"/>
                    <path fill="#684642" fill-rule="nonzero" d="M44.908 30.54c-.93-.076-1.819-.95-2.548-1.554-.15-.15-.15-.377-.025-.528.126-.15.377-.15.528-.025.591.527 1.293 1.32 2.045 1.348.72.026 1.489-.692 2.103-1.122.176-.1.402-.075.503.1.1.177.075.403-.1.504-.705.528-1.6 1.302-2.506 1.276z"/>
                    <path fill="#684642" fill-rule="nonzero" d="M44.397 25.592c-1.76-.704-5.757-.452-7.165 2.464 0 0 5.505.176 7.114-.578 0 0 .201 1.056 1.66.352 0 0 1.282.352 2.614.854.98.377 1.961.98 2.59.73 1.432-.579-2.037-3.872-5.104-3.646l-.78.478c-.25-.252-.577-.478-.93-.654z"/>
                    <circle cx="30.218" cy="20.036" r="4.626" fill="#F9DDB7" fill-rule="nonzero"/>
                    <path fill="#E2C39F" fill-rule="nonzero" d="M31.5 20.011c-.578-3.394-3.746-2.162-3.746-2.162s.402-.025 1.886.955c.477.302 1.86 1.207 1.86 1.207z"/>
                    <path fill="#684642" fill-rule="nonzero" d="M31.525 20.237c-.1 0-.176-.075-.201-.176-.176-.955-.553-1.608-1.131-1.935-1.006-.579-2.288-.076-2.313-.076-.1.05-.226 0-.277-.125-.05-.101 0-.227.126-.277.05-.025 1.483-.578 2.665.1.704.403 1.181 1.157 1.357 2.238.026.126-.05.226-.176.251h-.05zM28.835 15.662s4.45.327 4.877 3.47l.076 1.96 2.413-9.327c.176-.704.78-1.206 1.483-1.282 1.986-.2 6.134-.477 9.93.1 3.495.529 6.663 2.464 7.718 3.219l.176 11.765 4.023-16.114c.176-.68.025-1.433-.428-1.961-2.01-2.364-8.17-8.372-18.075-7.266-.603.076-1.006.629-.93 1.207v.05l.176.956-9.98 2.69c-.73.2-1.233.854-1.258 1.608l-.2 8.925z"/>
                    <path fill="#684642" fill-rule="nonzero" d="M52.894 17.447c-.603-.201-1.157-.603-1.559-1.106-.075-.1-.05-.226.05-.302 0 0 .026 0 .026-.025.125-.075.276-.025.352.075.628.855 1.76 1.232 2.79.905.126-.05.277.026.327.151.05.126 0 .252-.126.277h-.025c-.603.2-1.257.2-1.835.025zM42.335 15.813c-.653-.076-1.257-.352-1.734-.78-.101-.075-.101-.226-.026-.301l.026-.025c.1-.076.251-.076.352 0 .804.729 1.96.854 2.916.327.125-.076.276-.026.352.1.075.1.025.251-.076.302 0 0-.025 0-.025.025-.528.276-1.156.402-1.785.352z"/>
                    <path fill="#5C5CB4" fill-rule="nonzero" d="M3.796 78.235c-1.986 0-3.595-1.61-3.595-3.595 0-.855.302-1.685.855-2.338l25.843-30.394c1.283-1.534 3.545-1.735 5.079-.453 1.533 1.282 1.734 3.545.452 5.079-.025.025-.025.05-.05.05L6.536 76.978c-.678.804-1.684 1.257-2.74 1.257zM64.131 76.978c-.83-.252-1.558-.78-2.036-1.534L44.296 47.313c-1.056-1.685-.578-3.897 1.106-4.978 1.685-1.056 3.897-.578 4.978 1.106l17.799 28.132c1.056 1.684.578 3.896-1.106 4.977-.88.578-1.961.73-2.942.428z"/>
                    <path stroke="#684642" stroke-linecap="round" stroke-linejoin="round" stroke-width=".625" d="M44.723 21.645s3.998-.603 3.57 2.49"/>
                    <path fill="#FF881D" fill-rule="nonzero" d="M83.112 61.09H70.29c-1.81 0-3.269 1.457-3.269 3.268v33.159s6.21 2.463 10.358 2.061c3.243-.327 8.975-2.061 8.975-2.061v-33.16c0-1.784-1.458-3.242-3.243-3.268z"/>
                    <path fill="#E2C39F" fill-rule="nonzero" d="M75.193 56.514H78.562V62.145H75.193z"/>
                    <path fill="#F9DDB7" fill-rule="nonzero" d="M76.978 59.782c-7.215 0-13.073-5.832-13.073-13.022v-6.084c0-7.215 5.858-13.073 13.073-13.073 7.215 0 13.072 5.858 13.072 13.073v6.033c0 7.216-5.857 13.073-13.072 13.073z"/>
                    <circle cx="89.849" cy="45.226" r="4.223" fill="#F9DDB7" fill-rule="nonzero"/>
                    <path fill="#684642" fill-rule="nonzero" d="M63.176 43.064c-.025.1-.025.227-.025.327-.05-.126-.1-.302-.176-.528.05.076.126.151.201.201zM63.201 43.542l.05 1.76c-.125-.629-.15-1.282-.1-1.91.025.1.05.15.05.15z"/>
                    <path fill="#543734" fill-rule="nonzero" d="M91.056 41.656c-.076.302-.302.553-.578.68l-.83.326s-.729-.277-.729-.553c-.126-2.866-1.307-5.606-3.318-7.668-1.785.478-3.595.805-5.405 1.031l-13.123.855-.1.075c-.931 1.634-1.962 4.073-2.012 6.813 0 .226-.503.453-.503.453l-1.131-.528c-.05-.025-.1-.05-.151-.1-.075-.051-.15-.127-.201-.202-.1-.302-.252-.73-.377-1.207-.73-2.313-1.76-6.234-1.634-8.824.125 2.54 1.03 5.808 1.634 7.869.15.478.276.905.377 1.207.05.075.126.15.201.2.05.051.1.076.15.101l1.132.528s.503-.2.503-.452c.05-2.74 1.08-5.179 2.011-6.813l.1-.075 13.124-.855c1.835-.201 3.645-.553 5.405-1.031 2.01 2.061 3.192 4.802 3.318 7.668 0 .276.729.553.729.553l.83-.327c.301-.1.528-.377.578-.679.352-1.508.578-3.067.628-4.626.025 1.86-.176 3.746-.628 5.581z"/>
                    <path fill="#684642" fill-rule="nonzero" d="M91.156 31.953l-.301.226c.528 1.206.804 2.539.83 3.846v.025c.024 1.886-.177 3.771-.63 5.606-.075.302-.3.553-.577.68l-.83.326s-.729-.277-.729-.553c-.126-2.866-1.307-5.606-3.318-7.668-1.785.478-3.595.805-5.405 1.031l-13.123.855-.1.075c-.931 1.634-1.962 4.073-2.012 6.813 0 .226-.503.453-.503.453l-1.131-.528c-.05-.025-.1-.05-.151-.1-.075-.051-.15-.127-.201-.202-.1-.302-.252-.73-.377-1.207-.73-2.313-1.76-6.234-1.634-8.824v-.025c.05-1.03.301-1.86.83-2.288.2-.15.578-.1 1.005.05.905.277.729-.226.98-1.13.503-1.635 1.282-3.847 2.087-4.475 5.405-4.148 25.919-3.52 27.654 3.167.05.176.1.352.1.528 0 0-.1 1.634-2.464 3.319zM62.975 42.863c-.126-.126-.201-.302-.252-.478-.05-.2-.1-.452-.15-.729.15.478.276.905.402 1.207zM83.514 44.85c-.855-.026-1.684-.303-2.363-.83-.126-.151-.1-.352.025-.478.1-.1.277-.1.402-.025 1.106.88 2.69.88 3.821 0 .151-.126.352-.1.478.025.126.126.1.352-.025.478l-.025.025c-.679.502-1.483.804-2.313.804z"/>
                    <path fill="#684642" fill-rule="nonzero" d="M70.869 44.85c-.855-.026-1.685-.303-2.363-.83-.126-.151-.101-.352.025-.478.1-.1.276-.1.402-.025 1.106.88 2.69.88 3.821 0 .151-.126.352-.1.478.025.126.126.1.352-.025.478l-.025.025c-.68.502-1.484.804-2.313.804zM79.366 49.374c-.126 0-.201-.1-.201-.226 0 0 .126-1.182-.73-1.584-1.005-.503-2.79.453-2.815.453-.1.05-.226.025-.276-.076-.05-.1-.026-.226.075-.276.075-.05 1.986-1.056 3.193-.478 1.106.553.955 1.936.955 2.011-.025.1-.1.176-.201.176zM70.793 38.966c.855.026 1.685.302 2.363.83.126.15.101.352-.05.478-.1.1-.276.1-.377.025-1.106-.88-2.69-.88-3.821 0-.151.126-.352.1-.478-.025-.126-.126-.1-.352.025-.478l.025-.025c.68-.503 1.484-.78 2.313-.805zM83.439 38.966c.854.026 1.684.302 2.363.83.125.15.1.352-.05.478-.101.1-.277.1-.378.025-1.106-.88-2.69-.88-3.796.025-.15.126-.352.1-.477-.025-.126-.126-.101-.352.025-.478l.025-.025c.653-.528 1.458-.804 2.288-.83z"/>
                    <path fill="#E2C39F" fill-rule="nonzero" d="M80.749 61.04c0 .15-.026.3-.05.426 0 .101-.026.176-.051.277-.126.553-.402 1.056-.754 1.483-.076.076-.151.176-.226.252l-.202.2c-.175.152-.377.302-.603.403l-.302.15c-.075.051-.15.076-.226.101-.126.05-.276.101-.427.126-.1.025-.226.05-.352.076-.126.025-.226.025-.352.025h-.1c-1.962 0-3.57-1.534-3.646-3.52h7.29zM89.246 45.98c.704-3.092 3.52-1.81 3.52-1.81s-.378-.05-1.786.78c-.427.251-1.734 1.03-1.734 1.03z"/>
                    <path stroke="#684642" stroke-linecap="round" stroke-width=".625" d="M89.246 45.98c.704-3.092 3.52-1.81 3.52-1.81"/>
                    <circle cx="63.05" cy="46.081" r="4.223" fill="#F9DDB7" fill-rule="nonzero"/>
                    <path fill="#E2C39F" fill-rule="nonzero" d="M64.207 45.98c-.704-3.092-3.52-1.81-3.52-1.81s.377-.05 1.785.78c.427.251 1.735 1.03 1.735 1.03z"/>
                    <path stroke="#684642" stroke-linecap="round" stroke-width=".625" d="M60.737 44.196s2.816-1.283 3.52 1.81"/>
                    <path fill="#684642" fill-rule="nonzero" d="M77.506 54.503c-.855-.1-1.66-.453-2.288-1.03-.126-.127-.126-.353.025-.479.126-.125.327-.125.453 0 1.03.98 2.614 1.107 3.796.327.15-.1.352-.05.452.1.1.152.05.353-.1.453-.704.478-1.509.68-2.338.629z"/>
                </g>
                <path fill="#FF881D" fill-rule="nonzero" d="M71.422 80.472c-.252.352-.604.654-1.006.83-.226.1-.452.15-.679.176l-2.69.301h-.1l-9.453 1.081c-.1 0-.176.025-.276.025-.855 0-1.634-.452-2.087-1.181-.176-.302-.276-.629-.327-.98-.05-.579.101-1.182.453-1.635l11.765-16.215c.503-.704 1.333-1.08 2.187-.955.428.025.83.176 1.157.427 1.08.78 1.307 2.263.528 3.344l-3.972 5.48-4.576 6.31 3.696-.427.88-.1 2.237-.252c.076 0 .176-.025.252-.025 1.332 0 2.413 1.056 2.438 2.388 0 .503-.15 1.006-.427 1.408zM98.27 80.547c-.024 1.308-1.08 2.338-2.387 2.338-.1 0-.176 0-.277-.025l-12.193-1.407h-.025c-1.307-.151-2.262-1.333-2.111-2.665.15-1.232 1.181-2.137 2.413-2.137.075 0 .176 0 .251.025l1.559.176 1.559.176 3.695.427-5.28-7.24-3.292-4.55c-.78-1.081-.528-2.564.527-3.344.202-.15.403-.251.629-.327 1.006-.352 2.112 0 2.715.855l11.765 16.215c.302.428.478.956.453 1.483z" transform="translate(-9.804 26.397)"/>
                <path fill="#FF881D" fill-rule="nonzero" d="M82.131 61.994c-.226.076-.452.176-.628.327-1.056.78-1.307 2.288-.528 3.344l3.293 4.55v-4.073c0-1.634-.78-3.167-2.137-4.148zm1.157 13.148s-6.914-1.96-7.517 1.006c-.427 2.087 4.073 5.53 4.073 5.53l.025-.05c1.181 1.107 2.941 1.333 4.374.579V75.52c-.277-.202-.603-.327-.955-.378z" transform="translate(-9.804 26.397)"/>
                <path fill="#ED7818" fill-rule="nonzero" d="M70.416 81.302c-.226.1-.452.15-.679.176l-2.69.301h-.1l-9.453 1.081c-.1 0-.176.025-.276.025-.855 0-1.634-.452-2.087-1.181-.176-.302-.276-.629-.327-.98L65.64 79.44l4.374-.502.402 2.363z" transform="translate(-9.804 26.397)"/>
                <path fill="#F9DDB7" fill-rule="nonzero" d="M72.025 81.654L72 81.578c-1.383 1.307-3.494 1.383-4.978.201-.025-.025-.075-.05-.1-.075-.679-.578-1.131-1.383-1.282-2.263-.327-1.986.98-3.871 2.941-4.299 0 0 6.913-1.96 7.517 1.006.452 2.087-4.073 5.506-4.073 5.506z" transform="translate(-9.804 26.397)"/>
                <path fill="#ED7818" fill-rule="nonzero" d="M98.27 80.547c-.024 1.308-1.08 2.338-2.387 2.338-.1 0-.176 0-.277-.025l-12.193-1.407 2.49-2.615 12.368 1.71z" transform="translate(-9.804 26.397)"/>
                <path fill="#F9DDB7" fill-rule="nonzero" d="M87.46 78.838v.251c-.075 1.056-.577 2.037-1.382 2.69-.176.151-.377.277-.603.403-1.433.779-3.218.527-4.4-.579l-.025.05s-4.5-3.418-4.072-5.53c.603-2.967 7.516-1.006 7.516-1.006.352.076.68.201.98.352 1.208.654 1.987 1.936 1.987 3.369z" transform="translate(-9.804 26.397)"/>
            </g>
        </g>
        <path fill="#FFF" fill-rule="nonzero" d="M77.958 16.492c-5.883-4.375-9.528 1.483-10.131 2.589-.629-1.106-4.249-6.964-10.131-2.59-1.961 1.459-5.154 7.844 1.935 13.727 1.71 1.408 5.23 3.871 7.09 5.707.377.352.729.754 1.056 1.206.025.025.05.05.05.1.025-.024.05-.05.075-.1.327-.452.679-.854 1.056-1.206 1.835-1.836 5.38-4.3 7.09-5.707 7.064-5.883 3.871-12.268 1.91-13.726z"/>
    </g>
</svg>
