<svg xmlns="http://www.w3.org/2000/svg" width="180" height="180" viewBox="0 0 180 180">
    <g fill="none" fill-rule="evenodd">
        <path fill="#95C120" d="M132 67.489c.004 27.303-16.44 51.919-41.664 62.37-25.223 10.45-54.258 4.675-73.564-14.631-19.306-19.306-25.08-48.34-14.63-73.564C12.592 16.44 37.208-.004 64.51 0c37.27.006 67.483 30.218 67.489 67.489" transform="translate(23 23)"/>
        <g>
            <g transform="translate(23 23) translate(11 14) translate(0 32.675)">
                <rect width="88.414" height="61.505" fill="#006DD0" rx="2.1"/>
                <path fill="#84D2F4" fill-rule="nonzero" d="M49.973 0c0 6.37 5.163 11.532 11.532 11.532h9.61c3.185 0 5.766 2.582 5.766 5.766v11.533c0 6.369 5.163 11.532 11.533 11.532V5.766C88.414 2.582 85.832 0 82.647 0H49.973z"/>
                <path fill="#E9F1F2" fill-rule="nonzero" d="M11.532 73.037h65.35c2.122 0 3.843 1.721 3.843 3.844v3.844H7.688v-3.844c0-2.123 1.721-3.844 3.844-3.844z"/>
                <path fill="#D0D8DA" fill-rule="nonzero" d="M65.349 73.037L23.064 73.037 28.831 61.505 59.583 61.505z"/>
                <path fill="#93999A" fill-rule="nonzero" d="M23.064 73.037L28.831 61.505 59.583 61.505z"/>
                <path fill="#D0D8DA" fill-rule="nonzero" d="M15.376 73.037h-3.844c-2.123 0-3.844 1.721-3.844 3.844v3.844h73.037v-3.844H19.22c-2.123 0-3.844-1.72-3.844-3.844z"/>
                <g fill="#95C11F">
                    <path d="M8.205 13.839c-.688.001-1.324-.366-1.668-.961L2.693 6.22c-.344-.595-.343-1.328 0-1.923.344-.595.979-.961 1.666-.961.687 0 1.321.367 1.665.962l3.844 6.658c.343.594.343 1.326 0 1.92-.343.595-.977.962-1.663.963z" transform="translate(61.505 26.908)"/>
                    <path d="M1.993 10.763h-.125c-.509-.032-.983-.266-1.32-.648C.21 9.732.04 9.23.073 8.722l.446-6.92c.041-.64.4-1.218.957-1.54.556-.321 1.237-.343 1.813-.058L9.5 3.279c.944.474 1.329 1.622.86 2.57-.468.947-1.613 1.338-2.563.876l-3.63-1.793-.259 4.036c-.066 1.01-.904 1.795-1.916 1.795z" transform="translate(61.505 26.908)"/>
                </g>
                <g fill="#E9F1F2" fill-rule="nonzero">
                    <path d="M5.766 11.532C2.582 11.532 0 8.951 0 5.766 0 2.582 2.582 0 5.766 0c3.185 0 5.766 2.582 5.766 5.766 0 3.185-2.581 5.766-5.766 5.766zm0-7.688c-1.061 0-1.922.86-1.922 1.922 0 1.062.86 1.922 1.922 1.922 1.062 0 1.922-.86 1.922-1.922 0-1.061-.86-1.922-1.922-1.922zM21.142 26.908c-3.184 0-5.766-2.581-5.766-5.766 0-3.184 2.582-5.766 5.766-5.766 3.185 0 5.766 2.582 5.766 5.766 0 3.185-2.581 5.766-5.766 5.766zm0-7.688c-1.061 0-1.922.86-1.922 1.922 0 1.062.86 1.922 1.922 1.922 1.062 0 1.922-.86 1.922-1.922 0-1.061-.86-1.922-1.922-1.922zM24.986 42.285c-3.184 0-5.766-2.582-5.766-5.766 0-3.185 2.582-5.766 5.766-5.766 3.185 0 5.767 2.581 5.767 5.766 0 3.184-2.582 5.766-5.767 5.766zm0-7.688c-1.061 0-1.922.86-1.922 1.922 0 1.061.86 1.922 1.922 1.922 1.062 0 1.922-.86 1.922-1.922 0-1.062-.86-1.922-1.922-1.922zM48.05 42.285c-3.184 0-5.765-2.582-5.765-5.766 0-3.185 2.581-5.766 5.766-5.766 3.184 0 5.766 2.581 5.766 5.766 0 3.184-2.582 5.766-5.766 5.766zm0-7.688c-1.06 0-1.921.86-1.921 1.922 0 1.061.86 1.922 1.922 1.922 1.061 0 1.922-.86 1.922-1.922 0-1.062-.86-1.922-1.922-1.922zM71.115 42.285c-3.184 0-5.766-2.582-5.766-5.766 0-3.185 2.582-5.766 5.766-5.766 3.185 0 5.766 2.581 5.766 5.766 0 3.184-2.581 5.766-5.766 5.766zm0-7.688c-1.061 0-1.922.86-1.922 1.922 0 1.061.86 1.922 1.922 1.922 1.062 0 1.922-.86 1.922-1.922 0-1.062-.86-1.922-1.922-1.922zM5.766 26.908C2.582 26.908 0 24.327 0 21.142c0-3.184 2.582-5.766 5.766-5.766 3.185 0 5.766 2.582 5.766 5.766 0 3.185-2.581 5.766-5.766 5.766zm0-7.688c-1.061 0-1.922.86-1.922 1.922 0 1.062.86 1.922 1.922 1.922 1.062 0 1.922-.86 1.922-1.922 0-1.061-.86-1.922-1.922-1.922zM17.298 11.532c-1.061 0-1.922-.86-1.922-1.922V1.922c0-1.061.86-1.922 1.922-1.922 1.062 0 1.922.86 1.922 1.922V9.61c0 1.062-.86 1.922-1.922 1.922zM32.675 26.908c-1.062 0-1.922-.86-1.922-1.922v-7.688c0-1.061.86-1.922 1.922-1.922 1.061 0 1.922.86 1.922 1.922v7.688c0 1.062-.86 1.922-1.922 1.922zM36.519 42.285c-1.062 0-1.922-.86-1.922-1.922v-7.688c0-1.062.86-1.922 1.922-1.922 1.061 0 1.922.86 1.922 1.922v7.688c0 1.061-.86 1.922-1.922 1.922zM59.583 42.285c-1.061 0-1.922-.86-1.922-1.922v-7.688c0-1.062.86-1.922 1.922-1.922 1.062 0 1.922.86 1.922 1.922v7.688c0 1.061-.86 1.922-1.922 1.922zM5.766 42.285c-1.061 0-1.922-.86-1.922-1.922v-7.688c0-1.062.86-1.922 1.922-1.922 1.062 0 1.922.86 1.922 1.922v7.688c0 1.061-.86 1.922-1.922 1.922zM13.454 42.285c-1.061 0-1.922-.86-1.922-1.922v-7.688c0-1.062.86-1.922 1.922-1.922 1.062 0 1.922.86 1.922 1.922v7.688c0 1.061-.86 1.922-1.922 1.922zM26.908 11.532c-1.061 0-1.922-.86-1.922-1.922V1.922C24.986.861 25.847 0 26.908 0c1.062 0 1.923.86 1.923 1.922V9.61c0 1.062-.861 1.922-1.923 1.922z" transform="translate(5.766 11.532)"/>
                </g>
                <g fill="#D0D8DA" fill-rule="nonzero">
                    <path d="M8.015 11.07c-.712.301-1.476.458-2.249.462C2.582 11.532 0 8.951 0 5.766 0 2.582 2.582 0 5.766 0h.058c.058 1.306.187 2.609.384 3.902-.144-.04-.293-.059-.442-.058-.831.003-1.567.54-1.822 1.331-.256.792.027 1.657.7 2.146.672.489 1.583.49 2.256.002.302 1.269.674 2.52 1.115 3.748zM7.688 32.675v7.688c0 1.061-.86 1.922-1.922 1.922-1.061 0-1.922-.86-1.922-1.922v-7.688c0-1.062.86-1.922 1.922-1.922 1.062 0 1.922.86 1.922 1.922zM5.766 15.376C2.582 15.376 0 17.958 0 21.142c0 3.185 2.582 5.766 5.766 5.766 3.185 0 5.766-2.581 5.766-5.766-.01-3.18-2.585-5.756-5.766-5.766zm0 7.688c-1.061 0-1.922-.86-1.922-1.922 0-1.061.86-1.922 1.922-1.922 1.062 0 1.922.86 1.922 1.922 0 1.062-.86 1.922-1.922 1.922zM15.376 32.675v7.688c0 1.061-.86 1.922-1.922 1.922-1.061 0-1.922-.86-1.922-1.922v-7.688c0-1.062.86-1.922 1.922-1.922 1.062 0 1.922.86 1.922 1.922zM30.08 33.828c-2.08-.817-4.08-1.82-5.978-2.999-2.479.384-4.425 2.327-4.814 4.805-.388 2.478.87 4.923 3.112 6.048 2.242 1.124 4.954.67 6.707-1.123 1.754-1.793 2.147-4.515.973-6.731zm-5.094 4.613c-1.061 0-1.922-.86-1.922-1.922 0-1.062.86-1.922 1.922-1.922 1.062 0 1.922.86 1.922 1.922 0 1.061-.86 1.922-1.922 1.922zM34.597 35.308c1.268.327 2.537.576 3.844.788v4.267c0 1.061-.86 1.922-1.922 1.922-1.062 0-1.922-.86-1.922-1.922v-5.055zM53.817 36.519c0 3.184-2.582 5.766-5.766 5.766-3.185 0-5.766-2.582-5.766-5.766v-.058c.634.038 1.288.058 1.922.058h1.922c0 1.061.86 1.922 1.922 1.922 1.061 0 1.922-.86 1.922-1.922h3.844zM57.661 36.519h3.844v3.844c0 1.061-.86 1.922-1.922 1.922-1.061 0-1.922-.86-1.922-1.922v-3.844zM76.881 36.519c0 3.184-2.581 5.766-5.766 5.766-3.184 0-5.766-2.582-5.766-5.766h3.844c0 1.061.86 1.922 1.922 1.922 1.062 0 1.922-.86 1.922-1.922h3.844z" transform="translate(5.766 11.532)"/>
                    <path d="M6.9 7.323c-.673.488-1.584.487-2.257-.002-.672-.489-.955-1.354-.7-2.146.256-.79.992-1.328 1.823-1.33.15-.002.298.017.442.057C6.011 2.609 5.882 1.306 5.824 0h-.058C2.582 0 0 2.582 0 5.766c0 3.185 2.582 5.766 5.766 5.766.773-.004 1.537-.161 2.249-.461-.441-1.228-.813-2.479-1.115-3.748zM30.08 33.828c-2.08-.817-4.08-1.82-5.978-2.999-2.479.384-4.425 2.327-4.814 4.805-.388 2.478.87 4.923 3.112 6.048 2.242 1.124 4.954.67 6.707-1.123 1.754-1.793 2.147-4.515.973-6.731zm-5.094 4.613c-1.061 0-1.922-.86-1.922-1.922 0-1.062.86-1.922 1.922-1.922 1.062 0 1.922.86 1.922 1.922 0 1.061-.86 1.922-1.922 1.922zM49.973 36.519c0 1.061-.86 1.922-1.922 1.922-1.062 0-1.922-.86-1.922-1.922h-1.922c-.634 0-1.288-.02-1.922-.058v.058c0 3.184 2.581 5.766 5.766 5.766 3.184 0 5.766-2.582 5.766-5.766h-3.844zM73.037 36.519c0 1.061-.86 1.922-1.922 1.922-1.061 0-1.922-.86-1.922-1.922H65.35c0 3.184 2.582 5.766 5.766 5.766 3.185 0 5.766-2.582 5.766-5.766h-3.844zM5.766 15.376C2.582 15.376 0 17.958 0 21.142c0 3.185 2.582 5.766 5.766 5.766 3.185 0 5.766-2.581 5.766-5.766-.01-3.18-2.585-5.756-5.766-5.766zm0 7.688c-1.061 0-1.922-.86-1.922-1.922 0-1.061.86-1.922 1.922-1.922 1.062 0 1.922.86 1.922 1.922 0 1.062-.86 1.922-1.922 1.922zM38.44 36.096v4.267c0 1.061-.86 1.922-1.921 1.922-1.062 0-1.922-.86-1.922-1.922v-5.055c1.268.327 2.537.576 3.844.788zM61.505 36.519v3.844c0 1.061-.86 1.922-1.922 1.922-1.061 0-1.922-.86-1.922-1.922v-3.844h3.844zM7.688 32.675v7.688c0 1.061-.86 1.922-1.922 1.922-1.061 0-1.922-.86-1.922-1.922v-7.688c0-1.062.86-1.922 1.922-1.922 1.062 0 1.922.86 1.922 1.922zM15.376 32.675v7.688c0 1.061-.86 1.922-1.922 1.922-1.061 0-1.922-.86-1.922-1.922v-7.688c0-1.062.86-1.922 1.922-1.922 1.062 0 1.922.86 1.922 1.922z" transform="translate(5.766 11.532)"/>
                </g>
            </g>
            <g transform="translate(23 23) translate(11 14) translate(15.136)">
                <rect width="15.376" height="53.817" x="80.966" fill="#333E53" fill-rule="nonzero" rx="7.688"/>
                <rect width="7.688" height="42.285" x="84.81" y="5.766" fill="#FFF" fill-rule="nonzero" rx="3.844"/>
                <path fill="#FFB233" d="M54.073 14.438c-7.32.614-14.673-.689-21.335-3.78L23.305 6.28c-.943-.544-2.072-.663-3.108-.328-1.035.336-1.88 1.095-2.324 2.089-.763 1.88.002 4.032 1.78 5.009l15.991 9.61L9.12 15.549c-1.855-.542-3.832.325-4.69 2.057-.472 1.029-.467 2.214.015 3.238.482 1.025 1.39 1.785 2.484 2.078l25.346 7.83H4.29C2.359 30.71.674 32.058.292 33.952c-.19 1.117.122 2.26.853 3.126.73.866 1.806 1.364 2.94 1.364h29.927l-2.994 6.988c-1.244 2.902-1.244 6.186 0 9.088l2.573 6.006c.678 1.683 2.273 2.817 4.085 2.905 1.495.02 2.9-.715 3.733-1.956.834-1.24.984-2.82.4-4.195l-2.478-5.784c-.415-.967-.415-2.062 0-3.029l1.237-2.883c1.85-4.33 6.104-7.139 10.812-7.14 3.511 0 6.421 2.723 6.654 6.227.04.604-.206 1.191-.665 1.586l-2.574 2.212c-1.464 1.16-2.187 3.022-1.888 4.867.298 1.845 1.57 3.384 3.326 4.023 1.756.64 3.72.28 5.136-.94l5.181-4.446c1.377-1.183 2.116-2.946 1.995-4.757-.15-2.271.647-4.503 2.202-6.166 1.555-1.662 3.73-2.605 6.006-2.606h11.9V11.532l-34.58 2.906z"/>
                <path fill="#FFB233" d="M75.2 12.662v1.774c0 4.877-3.738 8.94-8.598 9.345-9.48.79-19.001-.91-27.621-4.934-4.963-2.318-9.107-6.086-11.886-10.807l-3.79-1.759c-.943-.544-2.072-.663-3.108-.328-1.035.336-1.88 1.095-2.324 2.089-.759 1.875.005 4.022 1.778 4.997l15.991 9.61-26.524-7.111c-1.855-.542-3.832.325-4.69 2.056-.472 1.03-.466 2.214.015 3.239.482 1.024 1.39 1.785 2.484 2.078l25.348 7.842H4.29C2.359 30.71.674 32.057.292 33.95c-.19 1.117.122 2.26.853 3.126.73.866 1.806 1.364 2.94 1.364h29.927l-2.994 6.988c-1.244 2.902-1.244 6.186 0 9.088l2.573 6.006c.678 1.683 2.273 2.817 4.085 2.905 1.495.02 2.9-.715 3.733-1.956.834-1.24.984-2.82.4-4.195l-2.478-5.784c-.415-.967-.415-2.062 0-3.029l1.237-2.883c1.85-4.33 6.104-7.139 10.812-7.14 3.512-.001 6.423 2.722 6.656 6.227.04.604-.206 1.191-.665 1.586l-2.574 2.212c-1.464 1.16-2.187 3.022-1.889 4.867.299 1.845 1.571 3.384 3.327 4.023 1.756.64 3.72.28 5.136-.94l5.18-4.446c1.376-1.183 2.115-2.946 1.994-4.757-.15-2.271.647-4.503 2.202-6.166 1.555-1.662 3.73-2.605 6.006-2.606h11.9V11.532L75.2 12.662z"/>
                <circle cx="63.667" cy="24.986" r="3.844" fill="#57B7EB" fill-rule="nonzero"/>
                <path fill="#4891D3" fill-rule="nonzero" d="M59.992 23.916c-.487 1.607.126 3.345 1.514 4.29 1.387.947 3.229.883 4.547-.158 1.318-1.04 1.808-2.816 1.21-4.386-.222.035-.434.1-.66.12-2.2.178-4.407.223-6.61.134z"/>
                <path fill="#E9F1F2" fill-rule="nonzero" d="M82.351 28.83l-1.485-4.45c-.262-.785-.995-1.315-1.822-1.316H69.08c-.802-2.302-2.974-3.845-5.413-3.845-2.438 0-4.61 1.543-5.412 3.845h-9.168l-3.281-3.28c-.754-.729-1.953-.718-2.694.023-.742.741-.752 1.94-.024 2.694l3.844 3.844c.36.36.85.563 1.36.563h9.963c.802 2.303 2.974 3.846 5.412 3.846 2.439 0 4.61-1.543 5.413-3.846h8.578l1.486 4.452c.26.784.995 1.314 1.822 1.315h7.688V28.83H82.35zm-18.684-1.922c-1.061 0-1.922-.86-1.922-1.922 0-1.061.86-1.922 1.922-1.922 1.062 0 1.922.86 1.922 1.922 0 1.062-.86 1.922-1.922 1.922z"/>
                <path fill="#D0D8DA" fill-rule="nonzero" d="M82.35 28.83l-1.48-4.459c-.272-.777-1.003-1.3-1.826-1.307h-9.572c-.911.388-1.878.628-2.864.712-.461.038-.922.076-1.384.096.24.322.368.713.365 1.114 0 1.062-.86 1.922-1.922 1.922-1.061 0-1.922-.86-1.922-1.922.005-.359.104-.71.289-1.018-3.314-.002-6.62-.304-9.88-.904H49.08l-.884-.884c-1.878-.482-3.726-1.072-5.535-1.768-.292.72-.125 1.544.422 2.095l3.844 3.844c.367.354.856.554 1.365.557h9.956c.807 2.303 2.98 3.845 5.42 3.845s4.614-1.542 5.42-3.845h8.573l1.48 4.46c.271.777 1.002 1.3 1.826 1.307h7.688V28.83H82.35z"/>
            </g>
        </g>
    </g>
</svg>
