<svg xmlns="http://www.w3.org/2000/svg" width="180" height="180" viewBox="0 0 180 180">
    <g fill="none" fill-rule="evenodd" transform="translate(25 23)">
        <path fill="#006DD0" fill-rule="nonzero" d="M130.05 64.541c.004 26.11-15.721 49.65-39.842 59.645-24.12 9.994-51.887 4.474-70.35-13.987C1.394 91.739-4.13 63.973 5.86 39.85 15.85 15.728 39.39 0 65.499 0c35.645.005 64.54 28.897 64.551 64.541"/>
        <path fill="#FFF" fill-rule="nonzero" d="M74.24 125.847c-.008-2.511.278-5.014.853-7.459H20.7c-4.096.027-7.398 3.363-7.382 7.459-.01 1.968.762 3.86 2.146 5.258 1.385 1.399 3.268 2.19 5.236 2.2h54.393c-.576-2.444-.862-4.947-.853-7.458z"/>
        <path fill="#010103" fill-rule="nonzero" d="M20.7 125.847h53.54c-.008-2.511.278-5.014.853-7.459H20.7c-4.096.027-7.398 3.363-7.382 7.459-.013 1.307.318 2.594.958 3.734 1.308-2.315 3.765-3.743 6.424-3.734z" opacity=".1"/>
        <path fill="#FF8810" fill-rule="nonzero" d="M75.791 134.923H20.7c-5.023 0-9.096-4.072-9.096-9.095 0-5.024 4.073-9.096 9.096-9.096h55.091c.894 0 1.619.724 1.619 1.618 0 .894-.725 1.618-1.619 1.618H20.7c-3.226 0-5.84 2.615-5.84 5.84 0 3.226 2.614 5.84 5.84 5.84h55.091c.894 0 1.619.725 1.619 1.619s-.725 1.618-1.619 1.618v.038z"/>
        <path fill="#FFF" fill-rule="nonzero" d="M83.556 89.521c-.01-2.511.28-5.015.862-7.458H30.026c-1.968.01-3.852.801-5.236 2.2-1.385 1.399-2.157 3.29-2.146 5.258-.013 1.97.758 3.864 2.142 5.265 1.385 1.4 3.27 2.193 5.24 2.203h54.392c-.583-2.446-.873-4.953-.862-7.468z"/>
        <path fill="#010103" fill-rule="nonzero" d="M30.026 89.521h53.53c-.01-2.511.28-5.015.862-7.458H30.026c-1.968.01-3.852.801-5.236 2.2-1.385 1.399-2.157 3.29-2.146 5.258-.009 1.307.321 2.593.957 3.734 1.31-2.313 3.766-3.74 6.425-3.734z" opacity=".1"/>
        <path fill="#FF8810" fill-rule="nonzero" d="M85.107 98.617H30.026c-5.024 0-9.096-4.072-9.096-9.096 0-5.023 4.072-9.095 9.096-9.095h55.081c.894 0 1.619.724 1.619 1.618 0 .893-.725 1.618-1.619 1.618H30.026c-3.137.127-5.614 2.706-5.614 5.845s2.477 5.718 5.614 5.845h55.081c.894 0 1.619.725 1.619 1.618 0 .894-.725 1.618-1.619 1.618v.029z"/>
        <path fill="#FFF" fill-rule="nonzero" d="M8.062 107.684c.008-2.51-.278-5.014-.852-7.458h54.392c4.096.026 7.398 3.362 7.382 7.458.021 4.1-3.282 7.442-7.382 7.468H7.21c.575-2.447.861-4.954.852-7.468z"/>
        <path fill="#010103" fill-rule="nonzero" d="M61.602 107.684H8.062c.008-2.51-.278-5.014-.852-7.458h54.392c4.096.026 7.398 3.362 7.382 7.458.013 1.307-.317 2.594-.957 3.734-1.31-2.315-3.766-3.742-6.425-3.734z" opacity=".1"/>
        <path fill="#7A268F" fill-rule="nonzero" d="M6.51 116.809h55.092c5.024 0 9.096-4.073 9.096-9.096 0-5.024-4.072-9.096-9.096-9.096H6.511c-.894 0-1.618.724-1.618 1.618 0 .894.724 1.618 1.618 1.618h55.091c3.136.127 5.614 2.707 5.614 5.845 0 3.14-2.478 5.719-5.614 5.846H6.511c-.894 0-1.618.724-1.618 1.618 0 .893.724 1.618 1.618 1.618v.029z"/>
        <path fill="#FC4E34" fill-rule="nonzero" d="M19.149 20.518c-2.186-.822-4.425-1.494-6.702-2.01-1.685-.163-1.915 1.148-1.532 2.518.383 1.369 19.522 58.193 21.562 60.175 0 0 14.773-8.617 21.782-8.617 7.008 0 14.677 4.012 15.941 6.271 1.264 2.26 9.574 1.915 12.073-.794 2.5-2.71 5.745-13.204 13.213-16.354 7.468-3.15 18.91-2.22 19.905-2.566.996-.344 1.159-3.111-1.187-4.117C111.86 54.02 19.15 20.518 19.15 20.518z"/>
        <path fill="#FC4E34" fill-rule="nonzero" d="M70.2 78.855c1.254 2.24 9.574 1.915 12.073-.794 2.5-2.71 5.745-13.204 13.213-16.354 7.468-3.15 18.91-2.22 19.905-2.566.996-.344 1.159-3.111-1.187-4.117-.536-.239-5.744-2.163-13.567-4.997-21.657 2.527-58.232 9.335-62.08 14.964-3.744 5.506-5.305 12.505-5.898 16.105 1.713-.958 15.05-8.531 21.6-8.502 7.018.038 14.677 4.002 15.941 6.261z"/>
        <path fill="#DFDFD7" fill-rule="nonzero" d="M19.78 14.362l-.382 3.83s-2.145-1.552-2.49-.25c.05.764.158 1.523.326 2.27 0 0-1.714-2.164-2.26-2.02-.545.143.278 2.585.278 2.585l-1.704-1.063s-.326.086.402 2.374c.728 2.289 18.603 55.34 19.78 56.126 0 0 13.74-8.962 23.784-7.401 10.043 1.56 13.193 6.099 14.055 7.066.862.967 8.31-.278 9.144-1.197.833-.92 5.017-15.166 17.11-18.192 12.092-3.025 15.711-.957 16.477-1.244.766-.287.153-1.542.153-1.542.261-.505.43-1.053.498-1.618-.077-.45-2.317-.345-2.317-.345s1.34-.641 1.293-1.206c-.048-.565-1.743-.613-1.743-.613s1.542-.632.833-.957l-.718-.297-44.234-6.817-48.284-29.49z"/>
        <path fill="#FFF" fill-rule="nonzero" d="M59.084 23.4S41.17 9.574 19.781 14.362c0 0 17.052 51.05 19.053 55.915 0 0 21.935-13.816 36.67 1.216 0 0 13.472-23.324 36.795-20.777 0 0-15.195-28.637-17.837-40.462 0 0-24.166-6.424-35.378 13.146z"/>
        <path fill="#B4B2A8" fill-rule="nonzero" d="M59.084 23.4s1.455 2.872 3.303 7.257c.46 1.102.958 2.289 1.475 3.562.517 1.274 1.053 2.604 1.56 4.002.508 1.398 1.063 2.873 1.609 4.309s1.053 2.977 1.58 4.471c.526 1.494.957 3.016 1.503 4.5.546 1.484.957 2.959 1.379 4.385.42 1.427.852 2.805 1.216 4.117.363 1.312.718 2.566 1.014 3.725.613 2.298 1.054 4.25 1.35 5.61.297 1.36.431 2.155.431 2.155l-.957-1.973c-.603-1.273-1.436-3.083-2.365-5.285-.479-1.091-.958-2.288-1.475-3.562-.517-1.273-1.043-2.604-1.56-4.002-.517-1.398-1.082-2.872-1.59-4.308-.507-1.436-1.053-2.978-1.58-4.49l-1.483-4.5c-.46-1.494-.958-2.969-1.36-4.386-.402-1.417-.823-2.815-1.206-4.126-.383-1.312-.709-2.566-1.015-3.715-1.235-4.596-1.829-7.746-1.829-7.746z"/>
        <path fill="#B4B2A8" fill-rule="nonzero" d="M19.78 14.362s1.973-.144 5.42-.115c4.772.029 9.534.42 14.247 1.168 3.18.478 6.318 1.208 9.383 2.183 3.463 1.019 6.741 2.587 9.708 4.643l.374.259h.048v-.067l.153-.23.191-.268c.25-.354.508-.708.776-1.044.526-.698 1.12-1.33 1.694-1.981 1.187-1.257 2.467-2.422 3.83-3.486 3.186-2.431 6.796-4.25 10.647-5.361 1.93-.552 3.903-.94 5.898-1.159l2.978-.172c.493-.043.99-.043 1.484 0l1.474.096c1.928.097 3.847.324 5.745.68l.43.066.326.048h.249c.004.026.004.052 0 .077l.393.957.526 1.303c.355.87.7 1.732 1.053 2.585 1.408 3.399 2.777 6.702 4.08 9.813l3.743 8.761c2.49 5.458 4.519 9.967 6.003 13.03.728 1.562 1.33 2.778 1.752 3.6l.632 1.265-.699-1.226c-.47-.794-1.13-1.972-1.915-3.494-1.627-3.036-3.83-7.43-6.367-12.782-1.264-2.672-2.595-5.582-3.973-8.675-1.379-3.092-2.844-6.367-4.318-9.766-.364-.852-.728-1.704-1.092-2.575l-.546-1.302-.134-.326h-.277c-1.854-.35-3.728-.58-5.61-.69l-1.437-.057c-.475-.038-.952-.038-1.427 0l-2.872.173c-1.914.218-3.807.596-5.659 1.13-5.317 1.525-10.14 4.42-13.988 8.396-.555.622-1.14 1.216-1.647 1.915-.268.326-.517.651-.756.957l-.182.259-.21.297c-.22.325-.431.69-.642 1.034l-1.484-1.044c-2.846-2.031-5.993-3.604-9.326-4.663-2.984-1.02-6.04-1.816-9.143-2.384-4.666-.866-9.383-1.423-14.123-1.666-3.437-.162-5.41-.162-5.41-.162zM19.36 18.507c.572.9 1.096 1.83 1.57 2.787.21.43.45.89.68 1.388.23.498.478 1.024.699 1.58l.67 1.704c.22.584.44 1.187.66 1.78.22.594.412 1.207.604 1.81.191.604.373 1.188.536 1.762.162.575.316 1.13.44 1.666.125.536.25 1.044.345 1.513.2.957.316 1.723.402 2.288l.105.871s-.143-.287-.383-.794c-.24-.508-.555-1.245-.91-2.126l-.574-1.426c-.2-.508-.411-1.044-.613-1.609-.2-.565-.42-1.12-.631-1.714-.211-.593-.412-1.177-.632-1.78l-.613-1.781c-.192-.594-.383-1.178-.575-1.733-.191-.556-.354-1.12-.526-1.638-.173-.517-.307-1.015-.45-1.465-.517-1.828-.804-3.083-.804-3.083zM16.985 20.518c.353.283.674.604.958.958.148.166.286.342.411.526.134.192.287.393.412.613l.383.699.345.737.287.766c.086.248.16.5.22.756.064.24.112.483.144.728.04.222.07.445.086.67.023.338.023.677 0 1.015l-.048.393-.23-.326c-.19-.272-.364-.557-.517-.852-.112-.183-.214-.371-.306-.565-.106-.21-.22-.421-.316-.641-.096-.22-.22-.46-.316-.7-.096-.239-.192-.478-.297-.717l-.287-.728-.259-.709c-.086-.23-.143-.469-.22-.68-.076-.21-.134-.43-.191-.622-.117-.434-.203-.875-.259-1.32zM15.865 22.127s.957 1.713 2.154 4.356c.307.651.642 1.37.958 2.126.316.756.708 1.56 1.062 2.393.355.833.718 1.704 1.092 2.576.373.87.728 1.78 1.091 2.68l1.054 2.681c.354.89.68 1.772.957 2.624.278.852.613 1.675.89 2.46.278.786.527 1.532.757 2.222.46 1.378.804 2.546 1.043 3.36l.364 1.293-.622-1.187c-.393-.757-.958-1.839-1.551-3.16-.316-.66-.642-1.37-.958-2.135-.316-.766-.708-1.56-1.053-2.394-.344-.833-.708-1.694-1.082-2.575l-1.082-2.681c-.354-.9-.708-1.8-1.053-2.69-.345-.89-.66-1.772-.957-2.624-.297-.852-.594-1.675-.881-2.46-.287-.786-.527-1.532-.757-2.222-.919-2.757-1.426-4.643-1.426-4.643zM25.765 41.812s.852 1.857 2.001 4.672c.278.709.594 1.475.957 2.279.364.804.661 1.666 1.006 2.547.344.88.708 1.8 1.072 2.728l1.082 2.815c.354.958.718 1.915 1.063 2.825.344.91.69 1.857 1.024 2.748.335.89.632 1.752.958 2.575.325.823.565 1.599.823 2.317.498 1.436.89 2.643 1.168 3.495.278.852.412 1.33.412 1.33l-.67-1.225c-.422-.785-1.015-1.915-1.666-3.294-.345-.68-.69-1.426-1.044-2.22-.354-.795-.737-1.638-1.11-2.519-.374-.88-.767-1.78-1.13-2.71-.364-.928-.728-1.914-1.101-2.872-.374-.957-.7-1.915-1.034-2.872-.336-.958-.642-1.915-.958-2.777-.316-.861-.565-1.78-.833-2.614-.268-.833-.488-1.627-.699-2.364-.9-2.863-1.321-4.864-1.321-4.864zM34.353 74.059s-.622-1.054-1.388-2.69c-.192-.413-.412-.853-.613-1.332-.2-.478-.44-.957-.641-1.484l-.661-1.608-.632-1.685-.603-1.686c-.201-.555-.374-1.11-.536-1.646-.163-.537-.335-1.063-.479-1.561-.144-.498-.268-.957-.383-1.407-.23-.872-.383-1.619-.488-2.136-.106-.517-.153-.823-.153-.823l.42.728c.25.46.614 1.13.958 1.915.201.402.402.852.613 1.32.21.47.43.958.642 1.495.21.536.44 1.062.641 1.618.201.555.421 1.11.632 1.675l.594 1.695c.181.555.354 1.11.526 1.647.172.536.326 1.062.47 1.56.143.498.267.958.382 1.408.508 1.79.7 2.997.7 2.997zM37.867 71.809c.534-.557 1.121-1.06 1.752-1.504.287-.2.594-.421.958-.622.363-.201.699-.43 1.082-.622.382-.192.794-.402 1.206-.584.412-.182.852-.336 1.283-.508.43-.172.88-.278 1.321-.402.44-.124.881-.21 1.312-.297.43-.086.833-.143 1.235-.182.402-.038.766-.076 1.11-.076.558-.039 1.118-.039 1.676 0l.642.086-.613.2-1.57.48-1.034.306-1.15.345-1.225.392c-.412.125-.833.268-1.245.412-.411.144-.842.287-1.244.44-.402.154-.814.297-1.207.44-.392.144-.766.278-1.12.432l-.957.392c-1.331.565-2.212.872-2.212.872z"/>
        <path fill="#B4B2A8" fill-rule="nonzero" d="M35.722 75.552l.613-.66c.557-.572 1.149-1.11 1.771-1.609.383-.316.805-.651 1.274-.957.469-.307.957-.661 1.493-.958.537-.297 1.092-.641 1.676-.957.584-.316 1.187-.556 1.79-.833.604-.278 1.235-.489 1.858-.69.622-.2 1.244-.373 1.838-.536.594-.163 1.197-.297 1.752-.373.556-.077 1.092-.173 1.59-.21.791-.083 1.588-.115 2.384-.097h.957l-.91.307-2.278.612-1.494.44-1.647.528-1.742.622c-.594.2-1.178.45-1.771.69-.594.239-1.178.488-1.743.765-.565.278-1.14.527-1.676.785-.536.259-1.062.517-1.541.785-.479.268-.957.508-1.37.747l-2.824 1.6zM74.997 75.447s-.517-.575-1.226-1.417l-.565-.66c-.191-.25-.44-.47-.641-.738s-.46-.508-.709-.756c-.249-.25-.478-.517-.727-.766-.25-.25-.498-.517-.757-.747l-.737-.718-.699-.651-.65-.594-.958-.89-.374-.364.517.105c.447.116.882.27 1.302.46.286.125.564.265.833.42.301.165.592.348.872.547.307.204.598.431.87.68.298.248.566.516.843.785.278.268.518.564.747.861.23.297.44.603.651.89.192.291.367.592.527.9.153.278.278.566.393.834.235.584.398 1.195.488 1.819zM72.871 75.456c-.196-.132-.381-.28-.555-.44-.075-.065-.145-.136-.21-.21-.068-.077-.163-.144-.22-.22-.066-.085-.136-.165-.212-.24-.058-.09-.122-.177-.191-.259-.055-.09-.116-.176-.182-.258-.063-.087-.118-.18-.163-.278-.059-.083-.107-.173-.143-.268-.048-.086-.086-.182-.125-.268-.066-.153-.124-.31-.172-.47l-.058-.21h.22c.182-.011.364.012.537.067.114.026.223.068.325.125.238.112.452.268.632.46l.259.315.21.364c.058.124.096.249.144.373.032.123.054.248.067.374.014.114.014.23 0 .344-.002.243-.058.481-.163.7zM62.023 69.109c.613.01 1.221.1 1.81.268.286.066.568.153.843.258.326.104.646.229.957.374.306.153.632.306.957.488.326.182.623.392.958.593.335.201.574.44.852.68.271.226.527.469.766.728.23.234.444.484.641.747.19.23.362.473.517.727.213.372.39.763.527 1.168l.182.47-.402-.297-1.015-.795-.68-.527c-.23-.181-.488-.363-.737-.574l-.776-.594c-.268-.22-.545-.411-.813-.612-.269-.201-.546-.402-.833-.584-.288-.182-.546-.383-.814-.565-.268-.182-.517-.364-.776-.517l-.699-.45c-.852-.565-1.465-.986-1.465-.986zM76.04 73.551c.316-.77.678-1.522 1.082-2.25.182-.325.374-.68.604-1.034.23-.354.45-.756.718-1.14l.804-1.148.89-1.188.958-1.139c.306-.383.632-.728.957-1.072.326-.345.623-.67.958-.958.335-.287.593-.574.88-.823.42-.421.861-.82 1.322-1.197l.555-.412-.345.604c-.23.373-.564.9-.957 1.503-.201.316-.43.641-.68.957-.249.316-.507.709-.785 1.073-.278.363-.555.756-.852 1.13l-.9 1.148-.958 1.14-.957 1.091c-.287.354-.594.68-.862 1.005-.268.326-.545.623-.785.9-.91 1.12-1.647 1.81-1.647 1.81zM78.09 75.504c.04-.648.15-1.29.325-1.915.076-.277.153-.574.268-.88.115-.307.22-.632.364-.958.143-.325.297-.66.469-.957.172-.297.364-.661.555-.958.192-.297.412-.641.623-.957.21-.316.45-.594.67-.862.218-.268.451-.524.699-.766.209-.225.433-.437.67-.632.341-.309.706-.59 1.091-.842l.46-.278-.249.47c-.163.296-.392.708-.68 1.177l-.46.766c-.162.268-.334.555-.516.833l-.556.89c-.2.297-.383.613-.574.958-.192.344-.393.612-.565.957-.172.345-.383.603-.555.89-.173.288-.364.565-.527.843l-.469.756c-.622.843-1.044 1.465-1.044 1.465zM112.806 52.066l-2.71.182-1.282.115c-.46 0-.958.115-1.427.163-.469.047-.957.124-1.513.22-.555.095-1.034.172-1.55.268-.518.096-1.035.2-1.533.335l-1.484.354-1.388.383-1.235.374-1.867.584-.728.22.594-.479c.53-.402 1.09-.764 1.676-1.082.354-.21.756-.412 1.187-.613.43-.2.9-.383 1.388-.574.488-.192.957-.354 1.522-.479.565-.124 1.063-.268 1.609-.383.546-.115 1.091-.182 1.637-.24.546-.057 1.082-.076 1.6-.104.516-.03 1.014 0 1.493 0 .478 0 .957.067 1.33.124.913.122 1.81.333 2.681.632zM113.429 54.268s-.833.134-2.05.259l-.957.114-1.082.115c-.373 0-.756.077-1.149.134-.392.058-.785.087-1.177.134l-1.187.154-1.15.153-1.072.143-.957.125c-.603.077-1.12.124-1.484.163h-.575l.489-.307c.434-.265.889-.495 1.36-.689.311-.14.63-.261.957-.364.335-.124.699-.23 1.082-.335.383-.105.766-.201 1.177-.268l1.226-.192c.421 0 .833-.076 1.244-.095h1.207c.392 0 .775 0 1.13.076.32.03.64.074.957.134.687.115 1.36.297 2.01.546z"/>
        <path fill="#EFE76C" fill-rule="nonzero" d="M25.18 19.091s19.38-.268 30.505 5.295l2.126 5.994S41.4 24.578 27.469 25.344l-2.288-6.253z"/>
        <path fill="#C7C4B5" fill-rule="nonzero" d="M29.202 29.298c.406-.131.818-.24 1.235-.326 1.092-.238 2.199-.405 3.313-.498.69-.067 1.446-.114 2.24-.134.795-.019 1.628 0 2.5 0 .87 0 1.761.048 2.67.125.91.076 1.83.153 2.739.268.91.115 1.838.24 2.729.393.89.153 1.78.296 2.623.488.843.191 1.666.354 2.432.555.766.201 1.484.393 2.154.584 1.331.354 2.413.766 3.179 1.025l1.187.44-1.254-.163-3.332-.517-2.183-.354-2.441-.364c-.843-.143-1.724-.24-2.605-.373-.88-.134-1.79-.25-2.69-.354-.9-.106-1.81-.211-2.7-.307-.89-.096-1.762-.172-2.614-.258-.852-.087-1.666-.134-2.451-.173-.785-.038-1.513-.086-2.193-.095-1.512-.067-3.027-.054-4.538.038zM31.682 32.83c1.373-.278 2.76-.486 4.155-.621.632-.077 1.312-.135 2.03-.182.718-.048 1.484-.115 2.27-.115h2.44c.834 0 1.667 0 2.51.095.842.096 1.684.134 2.508.22.823.087 1.637.192 2.412.326.776.134 1.532.25 2.24.412.71.163 1.38.297 1.992.46 1.226.306 2.231.612 2.92.861l1.092.393-1.149-.115-3.016-.335-2-.24-2.232-.22-2.384-.258c-.814-.067-1.647-.134-2.47-.173-.823-.038-1.656-.105-2.47-.143-.814-.039-1.618-.086-2.394-.106l-2.25-.086-2.02-.057c-2.499-.02-4.184-.115-4.184-.115zM33.51 37.254c.701-.323 1.425-.595 2.164-.814.326-.105.69-.21 1.073-.306s.785-.21 1.206-.278l1.302-.239 1.34-.191 1.37-.087h1.34c.383 0 .852 0 1.245.077.393.077.766.086 1.11.144.68.114 1.245.258 1.638.363l.613.201-.632.087c-.402 0-.958.115-1.647.172l-1.092.096-1.206.105-1.283.115-1.33.115-1.332.115-1.292.105-1.216.086c-.393 0-.757.048-1.101.067-1.312.096-2.27.067-2.27.067zM34.66 40.213c.685-.264 1.385-.488 2.096-.67.316-.087.661-.182 1.025-.259.364-.077.747-.172 1.149-.23l1.283-.21 1.292-.144 1.302-.077h2.442c.373 0 .728.048 1.053.087.651.067 1.197.162 1.58.23l.594.133-.604.182c-.373.086-.91.201-1.56.307-.316.057-.67.105-1.034.153s-.757.105-1.159.134c-.402.029-.814.096-1.235.124l-1.273.115-1.293.125-1.245.067h-2.221c-.731.022-1.464 0-2.192-.067zM36.22 44.579c.683-.264 1.38-.487 2.087-.67.326-.087.661-.182 1.034-.259.374-.077.747-.172 1.15-.23l1.244-.2 1.35-.135 1.302-.076h2.442c.383 0 .727.047 1.053.086.651.067 1.197.162 1.57.23l.603.134-.593.153c-.374.086-.958.2-1.56.306-.317.058-.671.105-1.035.153-.364.048-.756.106-1.158.134-.403.029-.814.096-1.236.125l-1.273.105-1.283.096-1.235.067H38.46c-.747.04-1.495.034-2.24-.02zM37.446 48.207c.684-.268 1.385-.495 2.097-.68.316-.076.66-.172 1.024-.248.364-.077.747-.173 1.159-.24l1.244-.2 1.293-.144 1.302-.067h2.441c.374 0 .728.048 1.054.095.53.048 1.057.125 1.58.23l.593.134-.594.153c-.373.087-.957.201-1.55.297-.326.058-.67.115-1.044.153-.374.039-.757.106-1.159.144-.402.038-.814.096-1.235.125l-1.273.105-1.274.096-1.244.067H39.648c-.734.035-1.47.028-2.202-.02zM38.078 51.951c.696-.271 1.41-.498 2.135-.68.316-.076.66-.172 1.034-.249.373-.076.747-.182 1.149-.239l1.244-.201 1.303-.144 1.302-.076h2.441c.383 0 .728 0 1.053.086.651.067 1.197.163 1.58.23l.594.134-.594.153c-.373.086-.91.21-1.56.306-.316.058-.67.106-1.035.153-.363.048-.756.106-1.158.144-.402.038-.814.086-1.235.115L45 51.827l-1.283.086-1.235.076H40.26c-.728.029-1.457.016-2.183-.038zM39.255 55.187c.686-.262 1.386-.486 2.097-.67.316-.086.66-.182 1.025-.258.363-.077.756-.173 1.158-.24l1.245-.2 1.292-.135 1.274-.067h1.264c.411 0 .804 0 1.177.048.374.048.728 0 1.053.086.53.048 1.058.124 1.58.23l.594.134-.594.153c-.373.086-.957.201-1.55.297-.326.057-.671.115-1.044.153-.374.038-.757.105-1.159.144-.402.038-.814.095-1.235.124l-1.273.105-1.274.096-1.245.067H41.43c-.725.022-1.451 0-2.174-.067zM40.088 59.074c.683-.263 1.38-.487 2.088-.67.325-.086.66-.182 1.034-.258.373-.077.746-.173 1.149-.24l1.254-.191 1.302-.144 1.302-.076h2.442c.373 0 .727.048 1.053.086.65.067 1.197.153 1.58.23l.593.134-.594.153c-.373.086-.91.2-1.56.306l-1.034.153c-.374.048-.757.106-1.159.134-.402.03-.814.096-1.235.125l-1.273.105-1.283.096-1.235.067H42.29c-.733.042-1.469.039-2.202-.01zM42.07 62.234s.718-.354 1.8-.785l.881-.345c.316-.105.642-.24.958-.325l1.1-.307 1.207-.153 1.168-.153c.383 0 .766-.057 1.14-.057.353-.02.708-.02 1.062 0 .335 0 .651 0 .958.067.477.039.95.112 1.417.22l.536.124-.527.153c-.335.096-.814.211-1.388.316l-.958.173-.995.115c-.355.057-.709.124-1.082.172-.374.048-.747.105-1.12.172-.374.067-.747.106-1.12.173l-1.083.162L45 62.13c-.326 0-.651.076-.957.105-.657.06-1.317.06-1.973 0zM62.32 23.716c.262-.383.55-.748.862-1.092.806-.904 1.68-1.746 2.614-2.518.612-.542 1.251-1.053 1.915-1.532.689-.526 1.474-1.014 2.278-1.531.805-.517 1.676-.958 2.585-1.417.91-.46 1.83-.862 2.796-1.207.479-.172.958-.364 1.436-.517l1.465-.498c.943-.275 1.902-.489 2.873-.641.907-.168 1.825-.274 2.747-.316.431 0 .853-.086 1.264-.096h1.188c.766 0 1.464 0 2.077.086l1.58.22 1.37.22-1.37.106h-1.57c-.603 0-1.283.124-2.03.182l-1.149.105-1.225.201c-.833.153-1.724.259-2.614.498-.89.24-1.829.412-2.748.718l-1.398.422c-.46.153-.957.344-1.379.517-.921.327-1.825.701-2.71 1.12-.89.373-1.732.842-2.556 1.254-.823.412-1.608.852-2.317 1.33-.708.48-1.398.872-2.01 1.293-1.235.843-2.231 1.6-2.873 2.145-.384.296-.751.612-1.1.948z"/>
        <path fill="#FC6032" fill-rule="nonzero" d="M63.191 26.809s9.747-11.586 29.116-11.289l2.806 7.401c-10.678.643-20.843 4.796-28.915 11.815L63.19 26.81z"/>
        <path fill="#C7C4B5" fill-rule="nonzero" d="M67.021 36.766l.958-.957c.886-.84 1.816-1.633 2.786-2.375.594-.47 1.254-.957 1.982-1.446.727-.488 1.493-.957 2.298-1.484.804-.526 1.675-.957 2.566-1.426.89-.47 1.857-.881 2.815-1.312.957-.43 1.914-.776 2.814-1.101.9-.326 1.915-.622 2.796-.9.881-.278 1.81-.488 2.662-.651.852-.163 1.656-.345 2.413-.44.756-.096 1.436-.202 2.058-.25.622-.047 1.14-.105 1.59-.114h1.388l-1.36.287c-.43.086-.957.22-1.541.373s-1.255.307-1.973.508c-.718.2-1.503.42-2.317.66-.813.24-1.675.536-2.556.824-.88.287-1.79.622-2.7.957-.91.335-1.82.728-2.738 1.101-.92.374-1.82.795-2.69 1.235-.872.44-1.772.872-2.634 1.34-.861.47-1.618.853-2.345 1.293-.728.44-1.446.824-2.078 1.226-1.283.775-2.336 1.455-3.064 1.915l-1.13.737zM68.103 39.82l.958-.957c.88-.818 1.804-1.589 2.767-2.308.593-.45 1.244-.957 1.915-1.398.67-.44 1.474-.957 2.269-1.445.794-.489 1.656-.958 2.537-1.389.88-.43 1.78-.861 2.69-1.273.91-.412 1.848-.766 2.777-1.091.929-.326 1.848-.613 2.738-.89.89-.279 1.781-.49 2.614-.662.833-.172 1.637-.344 2.375-.45 1.185-.198 2.38-.329 3.58-.392l1.37-.058-1.322.336c-.842.21-2.04.517-3.456.957-.709.191-1.465.43-2.27.67-.804.24-1.646.546-2.508.824-.861.277-1.752.632-2.652.957-.9.326-1.8.718-2.7 1.092-.9.373-1.79.775-2.652 1.206-.862.43-1.714.833-2.528 1.235-.814.402-1.608.823-2.326 1.254-.718.431-1.436.805-2.059 1.188-1.273.746-2.317 1.397-3.044 1.867l-1.073.727zM69.54 43.143l.957-.958c.306-.316.699-.69 1.158-1.091.46-.403.958-.881 1.57-1.34.613-.46 1.236-.958 1.915-1.485.68-.526 1.475-.957 2.28-1.522.803-.565 1.656-.958 2.546-1.446.89-.488 1.8-.89 2.72-1.321.918-.431 1.914-.785 2.871-1.11.958-.326 1.915-.623 2.796-.891.881-.268 1.8-.479 2.662-.642.862-.163 1.656-.325 2.413-.411.756-.087 1.445-.182 2.058-.23.613-.048 1.15-.077 1.59-.086h1.388l-1.35.296c-.431.077-.958.201-1.542.345-.584.144-1.263.297-1.982.488-.718.192-1.503.402-2.317.642-.813.24-1.675.526-2.556.795-.88.268-1.78.622-2.69.957-.91.335-1.772.699-2.73 1.082-.957.383-1.809.795-2.68 1.245-.871.45-1.723.87-2.547 1.302-.823.43-1.608.861-2.326 1.321-.718.46-1.427.852-2.05 1.264-.622.412-1.206.775-1.713 1.12-.508.345-.958.632-1.302.89l-1.14.786zM90.44 35.234c.31-.29.65-.548 1.015-.766.163-.096.335-.21.527-.306.191-.096.392-.201.603-.288l.67-.268.7-.22.708-.182c.24-.057.478-.086.708-.124.22-.033.44-.052.66-.058.205-.014.41-.014.614 0 .32.003.64.029.957.077l.354.077-.296.21c-.192.115-.47.278-.805.44-.162.087-.344.163-.536.25-.191.086-.402.162-.613.239-.216.085-.436.158-.66.22l-.68.201-.699.173-.68.143c-.22 0-.44.067-.65.105-.211.039-.403 0-.594.067-.433.043-.87.046-1.303.01zM92.221 37.56c.263-.268.555-.506.872-.708.143-.086.287-.182.45-.268.162-.086.335-.191.517-.268l.555-.249.594-.22.603-.182c.194-.058.393-.103.593-.134.19-.046.381-.078.575-.096.172-.009.345-.009.517 0 .27-.025.543-.025.814 0l.306-.01-.23.23c-.2.18-.414.344-.641.489-.144.102-.294.195-.45.277-.163.098-.333.184-.508.259-.184.092-.372.176-.565.249l-.593.21-.603.173-.604.124c-.191 0-.392.058-.574.086-.171.025-.344.041-.517.048-.37.034-.742.03-1.11-.01zM93.36 40.366c.235-.283.505-.534.805-.747.138-.103.282-.2.43-.287.164-.086.326-.201.508-.278l.556-.24.593-.2.603-.153c.2-.043.4-.072.604-.087.187-.018.377-.018.564 0 .172-.014.345-.014.517 0 .266.02.529.065.786.135l.296.095-.249.182c-.216.147-.444.278-.68.393-.145.08-.295.15-.45.21l-.507.211c-.178.072-.36.133-.546.182l-.564.172-.575.144-.565.115c-.182 0-.373.057-.546.086-.164.028-.33.047-.497.057-.36.038-.722.04-1.082.01zM94.586 43.401c.215-.3.47-.571.757-.804.131-.116.269-.224.411-.326.153-.095.307-.22.489-.316l.536-.287.584-.24.603-.2c.195-.059.393-.103.594-.134.19-.039.381-.064.574-.077.175-.014.351-.014.527 0 .266 0 .532.026.794.077l.307.076-.24.201c-.209.158-.426.305-.65.44-.144.087-.288.173-.441.25-.161.089-.328.169-.498.239-.172.092-.351.169-.536.23l-.556.22-.574.191-.565.144c-.182.058-.373.086-.546.134l-.488.086c-.357.065-.719.097-1.082.096zM95.879 46.216c.234-.3.504-.57.804-.804.124-.106.268-.22.421-.326.16-.118.326-.227.498-.325l.546-.297.584-.268.613-.22c.193-.071.392-.129.593-.173.191-.056.387-.094.584-.115.174-.035.35-.057.527-.067.274-.02.55-.02.823 0h.326l-.23.23c-.203.179-.418.345-.641.498l-.44.287c-.164.096-.326.192-.508.278-.182.086-.355.191-.546.277l-.574.24-.594.22-.584.182c-.192.057-.383.086-.565.134-.182.048-.354.077-.507.105-.372.085-.75.133-1.13.144zM97.468 48.935c.252-.309.537-.588.852-.833.14-.125.286-.24.44-.345.173-.105.336-.239.527-.344l.594-.316.632-.278.66-.21c.216-.07.437-.12.661-.154.205-.046.413-.075.622-.086h.565c.289.002.577.025.862.067l.335.077-.268.2c-.23.17-.473.32-.728.45-.156.099-.32.185-.488.26-.172.086-.354.172-.546.248-.19.095-.384.178-.584.25l-.603.229-.613.22-.612.182c-.192.077-.403.105-.585.163l-.574.115c-.378.073-.763.109-1.149.105z"/>
        <text fill="#FFF" font-family="Helvetica" font-size="32.11">
            <tspan x="98.809" y="93.023">1</tspan>
        </text>
        <text fill="#FFF" font-family="Helvetica" font-size="14.87">
            <tspan x="7.21" y="72.414">2</tspan>
        </text>
        <text fill="#FFF" font-family="Helvetica" font-size="13">
            <tspan x="84.418" y="113.455">3</tspan>
        </text>
        <path fill="#63C4D1" fill-rule="nonzero" d="M100.216 107.062c0 .845-.51 1.606-1.29 1.929-.782.322-1.68.142-2.277-.457-.596-.599-.772-1.498-.446-2.278s1.09-1.285 1.935-1.282c1.15.006 2.078.939 2.078 2.088z"/>
        <circle cx="120.399" cy="70.497" r="4.318" fill="#63C4D1" fill-rule="nonzero"/>
        <path fill="#63C4D1" fill-rule="nonzero" d="M21.15 65.48c.004.846-.503 1.61-1.284 1.936-.78.325-1.68.147-2.28-.45-.597-.599-.775-1.499-.45-2.28.326-.78 1.09-1.288 1.936-1.284 1.148 0 2.078.93 2.078 2.078z"/>
    </g>
</svg>
