<svg xmlns="http://www.w3.org/2000/svg" xmlns:xlink="http://www.w3.org/1999/xlink" width="180" height="180" viewBox="0 0 180 180">
    <defs>
        <path id="prefix__a" d="M0.869 0.805L29.186 0.805 29.186 39.604 0.869 39.604z"/>
        <path id="prefix__c" d="M0.978 0.203L28.184 0.203 28.184 25.605 0.978 25.605z"/>
        <path id="prefix__e" d="M14.818.348l.079.005.079.015.09.031c.203.087.347.271.389.482l.011.091v.067l-.005.054-.01.055L2.045 58.084l-.028.09c-.103.255-.362.413-.637.388l-.103-.018-.091-.032c-.205-.088-.35-.276-.39-.49l-.009-.092v-.039l.006-.063.012-.064L14.209.829c.068-.289.325-.481.609-.481z"/>
        <path id="prefix__h" d="M15.017.536l.079.005.08.015.09.03c.256.109.419.371.4.646l-.015.104L2.244 58.272l-.028.09c-.101.254-.36.412-.635.389l-.103-.018-.09-.03c-.255-.11-.418-.374-.4-.649l.016-.103L14.411 1.016c.066-.289.322-.48.606-.48z"/>
        <path id="prefix__k" d="M0.303 0.942L14.983 0.942 14.983 59.158 0.303 59.158z"/>
        <linearGradient id="prefix__f" x1="41.592%" x2="58.435%" y1="47.311%" y2="52.697%">
            <stop offset="0%" stop-color="#FFFFFE"/>
            <stop offset="100%" stop-color="#CD6B29"/>
        </linearGradient>
        <linearGradient id="prefix__i" x1="70.32%" x2="34.615%" y1="-2.099%" y2="89.449%">
            <stop offset="0%" stop-color="#FFFFFE"/>
            <stop offset="100%" stop-color="#CD6B29"/>
        </linearGradient>
    </defs>
    <g fill="none" fill-rule="evenodd">
        <g>
            <path fill="#25A6D3" d="M153.664 67.644c0 37.231-30.183 67.413-67.412 67.413-37.233 0-67.414-30.182-67.414-67.413C18.838 30.414 49.02.231 86.252.231c37.23 0 67.412 30.182 67.412 67.413" transform="translate(3 11) translate(0 9)"/>
            <path fill="#EBE8DA" d="M151.367 101.523c-4.574-3.347-7.303-4.984-9.058-3.65-1.368 1.04-7.145-3.252-13.092-8.487-.889 1.255-2.04 2.386-3.213 3.456-.545.51-1.157 1.146-1.832 1.756 6.792 5.026 15.076 8.354 15.062 8.632-.02.314-1.324.286-1.732 3.595-.406 3.313-5.348 10.734-8.248 13.47-2.89 2.731-2.912 4.827-1.35 6.456 1.568 1.63 3.16 2.51 9.56-.946 6.4-3.447 12.242-8.468 15.538-14.22 3.308-5.75 2.933-6.704-1.635-10.062" transform="translate(3 11) translate(0 9)"/>
            <g transform="translate(3 11) translate(0 9) translate(126 88.581)">
                <mask id="prefix__b" fill="#fff">
                    <use xlink:href="#prefix__a"/>
                </mask>
                <path fill="#EBE8DA" d="M25.367 12.942c-4.574-3.347-7.303-4.984-9.058-3.65C14.941 10.331 9.164 6.04 3.217.804c-.37.518-.782 1.001-1.215 1.478 1.627.643 3.131 2.292 4.254 3.134C7.893 6.643 9.53 7.864 11.242 8.98c1.373.9 2.847 1.772 3.967 2.928 2.678 2.763-.595 5.18-3.653 5.958-.009.122-.034.245-.054.378-.406 3.313-5.348 10.734-8.248 13.47-2.89 2.731-2.912 4.827-1.35 6.456 1.568 1.63 3.16 2.51 9.56-.946 6.4-3.447 12.242-8.468 15.538-14.22 3.308-5.75 2.933-6.704-1.635-10.062" mask="url(#prefix__b)"/>
            </g>
            <path fill="#DC4348" d="M151.367 101.523c-4.574-3.347-7.303-4.984-9.058-3.65-.104.075-.24.116-.4.14.11.066.222.126.351.183.358.183.916.422 1.145.765.375.564-.085 1.183-.329 1.702-.3.626-.33 1.964-1.008 2.347-.394.224-1.413-.09-1.842.002-.375.086-.713.192-1.057.32-.25.241-1.314.557-1.667 3.493-.406 3.313-5.348 10.734-8.248 13.47-2.89 2.731-2.912 4.827-1.35 6.456 1.568 1.63 3.16 2.51 9.56-.946 6.4-3.447 12.242-8.468 15.538-14.22 3.308-5.75 2.933-6.704-1.635-10.062" transform="translate(3 11) translate(0 9)"/>
            <g transform="translate(3 11) translate(0 9) translate(127 102.581)">
                <mask id="prefix__d" fill="#fff">
                    <use xlink:href="#prefix__c"/>
                </mask>
                <path fill="#DC4348" d="M25.993.203c.261 3.066-1.462 6.48-3.143 8.945-2.832 4.126-6.836 7.461-11.155 10.311-2.969 1.955-6.369 4.178-10.072 4.731-.213.03-.426.048-.646.046 1.546 1.592 3.178 2.395 9.486-1.012 6.4-3.447 12.243-8.467 15.541-14.22 2.86-4.967 2.956-6.353-.01-8.8" mask="url(#prefix__d)"/>
            </g>
            <path fill="#B2B2AF" d="M52.615 77.54c.014-.04 1.766-3.871 1.807-3.985.042-.4.025-.812-.147-1.105-.264-.447-.432-.637-.93-.986L23.305 48.42l-.419 1.78 27.161 21.652c.57.62.537 4.882 2.568 5.687" transform="translate(3 11) translate(0 9)"/>
            <path fill="#D8D7D1" d="M51.1 75.453c.014-.04.765-1.638.805-1.75.04-.399.025-.813-.147-1.104-.264-.448-.431-.638-.93-.988l-30.04-23.042-.42 1.78L47.53 72.001c.57.621 1.537 2.645 3.57 3.452" transform="translate(3 11) translate(0 9)"/>
            <path fill="#FEFEFE" d="M49.772 74.563c.011-.039.055-.12.096-.235.04-.4.024-.814-.146-1.105-.264-.447-.433-.637-.93-.986L18.75 49.194l-.419 1.78 28.137 20.874c.571.622 1.674 1.718 3.303 2.715" transform="translate(3 11) translate(0 9)"/>
            <path fill="#B2B2AF" d="M54.73 79.136c.007-.041.156-4.287.172-4.408.14-.373.337-.732.617-.905.434-.271.666-.355 1.264-.423l36.832-5.807-.42 1.78-33.664 5.974c-.78.273-2.642 4.063-4.8 3.789" transform="translate(3 11) translate(0 9)"/>
            <path fill="#D8D7D1" d="M57.002 78.024c.006-.042.047-1.822.062-1.94.142-.376.338-.734.62-.908.433-.269.668-.355 1.261-.423l36.834-5.804-.42 1.78L61.695 76.7c-.781.274-2.535 1.595-4.693 1.324" transform="translate(3 11) translate(0 9)"/>
            <path fill="#FEFEFE" d="M58.572 77.882c.005-.041.004-.135.02-.254.138-.375.337-.733.618-.908.433-.268.667-.354 1.262-.422l36.832-5.807-.419 1.782-34.184 4.81c-.779.274-2.245.708-4.129.799" transform="translate(3 11) translate(0 9)"/>
            <path fill="#281A04" d="M99.227 71.934c-.543-.569-1.366-.797-2.146-.606l-35.295 5.04-14.403 61.174c12.867-1.785 25.735-3.569 38.602-5.352l13.563-57.614c.475-.876.335-1.954-.321-2.641M47.195 72.136l-28.779-21.35c-.188-.133-1.924-.54-2.504-.237-.875.456-1.64 1.602-1.677 1.756-4.9 19.554-8.912 39.12-13.813 58.673l30.96 22.574c.25.536.537 1.043.852 1.527 1.887-9.504 12.738-53.88 14.961-62.943" transform="translate(3 11) translate(0 9)"/>
            <path fill="#405493" d="M46.783 72.165l.014.01M61.992 76.563c.005 0 .01 0 .016-.002" transform="translate(3 11) translate(0 9)"/>
            <path fill="#BC372B" d="M99.219 71.933c-.543-.569-1.366-.798-2.146-.61L61.78 76.368l-.467 1.976 38.372-5.64c-.101-.284-.253-.548-.466-.771M47.188 72.136L18.41 50.784c-.188-.134-1.925-.54-2.505-.236-.114.059-.213.124-.307.196l31.108 23.365.481-1.973" transform="translate(3 11) translate(0 9)"/>
            <path fill="#D54D2B" d="M61.992 76.563c-.48.068-.962.137-1.44.207-1.314.26-3.717.551-6.57-.209-3.846-1.025-6.242-3.357-7.184-4.387l-14.86 63.108c1.851 2.738 4.73 4.56 7.886 4.855 3.97.37 6.787-1.818 7.441-2.357l.137-.02c2.457-11.615 12.453-52.487 14.59-61.197" transform="translate(3 11) translate(0 9)"/>
            <path fill="#FAE71B" d="M48.662 91.95c3.752 1.041 7.052.906 9.377.545.66-2.715 1.264-5.183 1.775-7.28-2.179.204-4.95.14-8.023-.712-3.037-.844-5.43-2.195-7.174-3.445l-1.94 8.245c1.592 1 3.59 1.983 5.985 2.647M39.306 132.169c-2.397-.664-4.392-1.648-5.985-2.648l-.648 2.752c1.595 1 3.587 1.984 5.986 2.648 3.683 1.02 6.929.91 9.246.564.193-.854.4-1.772.625-2.75-2.316.344-5.551.453-9.224-.566M35.113 121.911l-.95 4.04c1.58 1.045 3.567 2.065 5.964 2.733 3.66 1.022 6.908.844 9.24.432.301-1.295.618-2.646.947-4.041-2.332.413-5.576.59-9.237-.432-2.398-.669-4.382-1.688-5.964-2.732" transform="translate(3 11) translate(0 9)"/>
            <path fill="#D54D2B" d="M67.067 83.831L64.582 94.388 90.576 91.042 93.088 80.37z" transform="translate(3 11) translate(0 9)"/>
            <path fill="#BC372B" d="M60.639 79.406c-1.777.378-4.487.585-7.558-.469-3.5-1.2-5.874-3.444-7.247-5.114-.385-.469-.37-1.169.039-1.564.41-.393 1.053-.332 1.44.138 1.189 1.446 3.242 3.387 6.272 4.426 3.3 1.134 6.12.582 7.51.154.53-.175 1.11.18 1.292.772.184.59-.1 1.201-.631 1.366-.31.097-.687.2-1.117.291" transform="translate(3 11) translate(0 9)"/>
            <g transform="translate(3 11) translate(0 9) translate(1 52.581)">
                <mask id="prefix__g" fill="#fff">
                    <use xlink:href="#prefix__e"/>
                </mask>
                <path fill="url(#prefix__f)" d="M2.826 -5.058L35.252 8.568 13.427 63.972 -19 50.346z" mask="url(#prefix__g)"/>
            </g>
            <g transform="translate(3 11) translate(0 9) translate(83 73.581)">
                <mask id="prefix__j" fill="#fff">
                    <use xlink:href="#prefix__h"/>
                </mask>
                <path fill="url(#prefix__i)" d="M28.695 3.723L14.904 62.33 -12.041 55.565 1.75 -3.041z" mask="url(#prefix__j)"/>
            </g>
            <path fill="#BC372B" d="M35.709 121.972l-.316-.087c-.254-.068-.409-.332-.346-.585l7.762-31.165c.062-.253.32-.404.574-.335l.316.086c.254.068.408.332.348.585l-7.762 31.165c-.062.253-.322.404-.576.336" transform="translate(3 11) translate(0 9)"/>
            <g transform="translate(3 11) translate(0 9) translate(46 78.581)">
                <mask id="prefix__l" fill="#fff">
                    <use xlink:href="#prefix__k"/>
                </mask>
                <path fill="#BC372B" d="M.795 59.139c-.343-.088-.557-.44-.475-.78L13.726 1.424c.08-.342.424-.55.766-.461.342.088.555.44.475.78L1.563 58.678c-.082.342-.427.549-.768.46" mask="url(#prefix__l)"/>
            </g>
            <path fill="#5D4883" d="M173.973 80.455l-46.94-13.619c-.507-.135-1.964-.446-3.591.243-1.165.497-1.88 1.279-2.221 1.708-13.411 18.284-26.541 36.794-40.235 54.853-1.294 1.707-4.04 4.83-4.04 4.83l54 21.111 43.027-69.126z" transform="translate(3 11) translate(0 9)"/>
            <path fill="#F9DFA3" d="M171.647 76.656L171.647 78.029 171.647 80.977 127.993 146.053 79.63 126.746 79.933 123.01z" transform="translate(3 11) translate(0 9)"/>
            <path fill="#745C98" d="M171.79 75.666l-46.94-13.62c-.507-.134-1.965-.447-3.59.244-1.166.496-1.88 1.279-2.22 1.708-13.413 18.283-26.544 36.794-40.238 54.852-1.294 1.706 1.132 4.16 1.132 4.16l48.058 19.58 43.797-66.924z" transform="translate(3 11) translate(0 9)"/>
            <path fill="#0F0F2A" d="M128.948 139.09c1.43.123 2.771.647 3.866 1.616 1.223 1.078 2.883 3.683.76 4.809-.318.169-.039.663.278.494 1.895-1.005 1.341-3.315.243-4.75-1.26-1.65-3.139-2.57-5.147-2.74-.355-.032-.353.54 0 .57M131.905 133.593c1.43.123 2.771.646 3.867 1.615 1.222 1.08 2.883 3.682.757 4.81-.316.169-.037.663.28.495 1.896-1.006 1.34-3.316.242-4.751-1.262-1.65-3.139-2.57-5.146-2.74-.354-.033-.354.54 0 .57" transform="translate(3 11) translate(0 9)"/>
            <path fill="#0F0F2A" d="M132.867 132.754c1.427.122 2.768.646 3.865 1.615 1.223 1.079 2.883 3.683.758 4.81-.317.169-.038.663.278.494 1.897-1.005 1.342-3.316.244-4.75-1.262-1.651-3.139-2.568-5.145-2.742-.356-.031-.354.543 0 .573M135.343 127.871c1.429.122 2.77.646 3.866 1.615 1.223 1.079 2.883 3.683.758 4.811-.318.169-.037.662.279.493 1.897-1.004 1.342-3.316.243-4.75-1.262-1.65-3.138-2.568-5.146-2.741-.356-.032-.354.542 0 .572" transform="translate(3 11) translate(0 9)"/>
            <path fill="#0F0F2A" d="M136.303 127.032c1.429.122 2.77.646 3.865 1.615 1.226 1.078 2.884 3.682.759 4.811-.317.168-.038.662.279.494 1.896-1.006 1.34-3.318.243-4.75-1.261-1.652-3.14-2.57-5.146-2.742-.354-.032-.352.541 0 .572M139.603 121.651c1.428.123 2.77.646 3.866 1.615 1.223 1.08 2.883 3.683.758 4.811-.318.168-.037.662.279.494 1.896-1.005 1.34-3.316.244-4.75-1.263-1.65-3.14-2.57-5.147-2.742-.355-.032-.353.542 0 .572" transform="translate(3 11) translate(0 9)"/>
            <path fill="#0F0F2A" d="M140.565 120.813c1.425.123 2.768.646 3.864 1.615 1.222 1.08 2.883 3.682.758 4.81-.319.17-.037.662.28.493 1.896-1.004 1.34-3.316.242-4.75-1.262-1.65-3.138-2.568-5.144-2.74-.357-.032-.355.541 0 .572M143.52 115.549c1.428.122 2.77.646 3.866 1.615 1.224 1.078 2.883 3.683.758 4.81-.317.17-.038.663.279.494 1.896-1.005 1.34-3.316.245-4.75-1.265-1.65-3.141-2.568-5.148-2.742-.355-.031-.354.543 0 .573" transform="translate(3 11) translate(0 9)"/>
            <path fill="#0F0F2A" d="M144.48 114.71c1.429.12 2.77.646 3.865 1.615 1.224 1.078 2.883 3.682.758 4.81-.316.169-.037.663.281.495 1.896-1.006 1.34-3.318.243-4.751-1.264-1.651-3.139-2.57-5.147-2.741-.355-.032-.353.54 0 .572M146.956 109.46c1.43.123 2.771.646 3.867 1.615 1.222 1.08 2.882 3.684.758 4.81-.317.17-.038.664.28.495 1.895-1.005 1.34-3.316.242-4.75-1.26-1.651-3.14-2.57-5.147-2.742-.354-.032-.353.542 0 .572" transform="translate(3 11) translate(0 9)"/>
            <path fill="#0F0F2A" d="M147.918 108.622c1.428.121 2.77.646 3.865 1.615 1.223 1.078 2.885 3.682.757 4.811-.317.168-.036.662.28.492 1.897-1.004 1.34-3.316.243-4.75-1.262-1.65-3.14-2.568-5.145-2.74-.355-.032-.354.541 0 .572M150.394 103.821c1.429.123 2.77.646 3.866 1.614 1.223 1.08 2.883 3.683.758 4.811-.318.17-.037.662.279.494 1.897-1.005 1.342-3.316.243-4.75-1.263-1.65-3.14-2.569-5.146-2.74-.354-.033-.354.541 0 .571" transform="translate(3 11) translate(0 9)"/>
            <path fill="#0F0F2A" d="M151.354 102.981c1.428.123 2.77.646 3.867 1.615 1.223 1.08 2.882 3.682.757 4.811-.317.168-.036.662.28.494 1.895-1.006 1.34-3.316.242-4.75-1.261-1.652-3.138-2.57-5.146-2.742-.355-.032-.354.541 0 .572M153.83 98.207c1.428.123 2.771.646 3.867 1.615 1.222 1.08 2.883 3.683.756 4.81-.317.17-.037.664.281.495 1.895-1.005 1.34-3.316.242-4.751-1.262-1.65-3.138-2.568-5.146-2.741-.354-.031-.354.542 0 .572" transform="translate(3 11) translate(0 9)"/>
            <path fill="#0F0F2A" d="M154.791 97.368c1.427.121 2.77.646 3.867 1.615 1.223 1.078 2.882 3.683.757 4.811-.319.168-.036.662.28.494 1.895-1.006 1.34-3.317.242-4.75-1.263-1.652-3.139-2.57-5.146-2.742-.356-.032-.354.542 0 .572M157.747 93.044c1.43.123 2.771.647 3.867 1.616 1.222 1.078 2.882 3.683.757 4.81-.316.168-.037.663.28.494 1.896-1.005 1.341-3.316.242-4.751-1.262-1.65-3.139-2.57-5.146-2.741-.354-.031-.354.543 0 .572" transform="translate(3 11) translate(0 9)"/>
            <path fill="#0F0F2A" d="M158.709 92.204c1.426.123 2.769.648 3.864 1.617 1.224 1.078 2.883 3.683.759 4.809-.318.169-.038.662.278.495 1.898-1.006 1.341-3.317.244-4.751-1.262-1.65-3.139-2.569-5.145-2.74-.356-.032-.355.541 0 .57M161.185 87.322c1.427.123 2.77.647 3.866 1.616 1.222 1.078 2.884 3.683.759 4.81-.32.17-.038.661.278.493 1.897-1.005 1.34-3.316.243-4.75-1.262-1.65-3.14-2.569-5.146-2.74-.354-.032-.354.541 0 .571" transform="translate(3 11) translate(0 9)"/>
            <path fill="#0F0F2A" d="M162.147 86.483c1.425.123 2.768.646 3.864 1.615 1.224 1.08 2.882 3.682.757 4.81-.316.17-.036.663.28.494 1.895-1.005 1.34-3.315.243-4.75-1.263-1.649-3.14-2.569-5.144-2.74-.357-.03-.355.542 0 .571M164.143 81.73c1.426.12 2.77.645 3.865 1.613 1.223 1.08 2.884 3.683.758 4.811-.318.17-.038.663.278.494 1.896-1.005 1.34-3.317.245-4.75-1.263-1.65-3.14-2.569-5.146-2.742-.357-.03-.354.542 0 .573" transform="translate(3 11) translate(0 9)"/>
            <path fill="#0F0F2A" d="M165.102 80.89c1.428.121 2.77.645 3.865 1.614 1.225 1.078 2.884 3.683.759 4.811-.317.169-.036.663.278.495 1.897-1.007 1.342-3.317.244-4.75-1.262-1.653-3.138-2.57-5.146-2.743-.355-.031-.354.543 0 .573M167.1 76.112c1.426.123 2.768.646 3.864 1.614 1.224 1.08 2.884 3.683.759 4.811-.318.17-.038.662.279.493 1.895-1.004 1.34-3.315.243-4.75-1.264-1.649-3.141-2.568-5.145-2.74-.356-.03-.355.542 0 .572" transform="translate(3 11) translate(0 9)"/>
            <path fill="#0F0F2A" d="M168.059 75.272c1.427.123 2.77.646 3.867 1.615 1.22 1.08 2.88 3.683.758 4.811-.32.168-.04.662.277.494 1.896-1.006 1.34-3.316.244-4.75-1.263-1.65-3.14-2.57-5.146-2.742-.356-.032-.354.541 0 .572" transform="translate(3 11) translate(0 9)"/>
            <path fill="#5D4883" d="M160.232 78.517L151.353 92.263 114.156 78.466 123.442 67.079z" transform="translate(3 11) translate(0 9)"/>
            <path fill="#FFFFFE" d="M155.967 79.386c0 .508.398.92.89.92.493 0 .89-.412.89-.92s-.397-.92-.89-.92c-.492 0-.89.412-.89.92M123.678 69.532c0 .508.399.921.89.921.492 0 .89-.413.89-.92 0-.508-.398-.922-.89-.922-.491 0-.89.414-.89.921M149.984 89.676c0 .509.398.92.89.92.493 0 .891-.411.891-.92 0-.507-.398-.92-.892-.92-.49 0-.889.413-.889.92M116.5 77.575c0 .51.398.921.892.921.491 0 .888-.412.888-.92s-.397-.92-.888-.92c-.494 0-.892.412-.892.92" transform="translate(3 11) translate(0 9)"/>
        </g>
        <g fill-rule="nonzero">
            <path fill="#F8678D" d="M17.15 11.385l-7.13 13.37c-.42.81-1.14 1.08-1.58.6l-8.11-8.8c-.44-.718-.44-1.622 0-2.34L7.44.835c.43-.83 1.14-1.07 1.59-.59l8.11 8.76c.444.717.444 1.623 0 2.34" transform="translate(3 11) translate(48)"/>
            <path fill="#F73362" d="M13.96 5.595L5.26 21.915 3.51 20.015 12.21 3.695z" transform="translate(3 11) translate(48)"/>
            <path fill="#F0F504" d="M17.94 9.915c-1.6-1.73-3.47-2.1-4.16-.81l-6.2 11.62c-.68 1.29.06 3.77 1.66 5.5l37.68 40.9c.33.376.702.711 1.11 1 .306.218.643.39 1 .51l13.75 4.56s1.2.56 1.52 0c.32-.56-.29-2.26-.29-2.26l-6.79-17.34c-.35-1.015-.905-1.948-1.63-2.74L17.94 9.915z" transform="translate(3 11) translate(48)"/>
            <path fill="#F9EBAA" d="M51.23 51.495c-2-.43-1.14 2.14-1.14 2.14l1.52 4s.87 2.61-1.13 2.12c-2-.49-1.51-.41-3.21-.88-1.7-.47-1 1.84-1 1.84l1.51 7.29.18.12c.308.216.644.388 1 .51l11.68 3.87c-.1-.904.105-1.815.58-2.59.73-1.37 1.41-1.55 1.75-1.54l-5.79-14.85c-.17-.505-.391-.99-.66-1.45-1.8-.085-3.594-.282-5.37-.59" transform="translate(3 11) translate(48)"/>
            <path fill="#483E3F" d="M8.93 18.195l37.68 40.89 17.58 14.22c.068-.045.123-.107.16-.18l-14-21.06-37.67-40.89-3.75 7.02z" opacity=".42" transform="translate(3 11) translate(48)"/>
            <path fill="#483E3F" d="M8.93 18.215l-1.35 2.51c-.68 1.29.06 3.77 1.66 5.5l37.68 40.9c.33.376.702.711 1.11 1 .306.218.643.39 1 .51l13.75 4.56s.93.43 1.37.13L46.6 59.105 8.93 18.215z" opacity=".52" transform="translate(3 11) translate(48)"/>
            <path fill="#110E0F" d="M60.71 72.535l2.08.7s1.2.55 1.53 0c.33-.55-.3-2.25-.3-2.25l-1-2.51c-.34 0-1 .16-1.75 1.52-.47.777-.67 1.688-.57 2.59" transform="translate(3 11) translate(48)"/>
            <path fill="#037E61" d="M20 12.155L11.31 28.465 4.86 21.465 13.55 5.155z" transform="translate(3 11) translate(48)"/>
            <path fill="#88BD1B" d="M17.99 9.975L9.29 26.285 7.28 24.095 15.98 7.785z" transform="translate(3 11) translate(48)"/>
            <path fill="#483E3F" d="M12.87 7.57L6.53 19.46 0.08 12.46 6.42 0.56z" opacity=".42" transform="translate(3 11) translate(48) translate(4.78 9.005)"/>
        </g>
    </g>
</svg>
