<svg xmlns="http://www.w3.org/2000/svg" width="180" height="180" viewBox="0 0 180 180">
    <defs>
        <linearGradient id="prefix__a" x1="4.555%" x2="95.712%" y1="56.021%" y2="44.017%">
            <stop offset="0%" stop-color="#F1315B"/>
            <stop offset="100%" stop-color="#980035"/>
        </linearGradient>
        <linearGradient id="prefix__b" x1="-.062%" x2="100%" y1="50%" y2="50%">
            <stop offset="0%" stop-color="#F1315B"/>
            <stop offset="100%" stop-color="#980035"/>
        </linearGradient>
    </defs>
    <g fill="none" fill-rule="evenodd">
        <path fill="#FFB233" d="M158 67.489c.004 27.303-16.44 51.919-41.664 62.37-25.223 10.45-54.258 4.675-73.564-14.631-19.306-19.306-25.08-48.34-14.63-73.564C38.592 16.44 63.208-.004 90.51 0c37.27.006 67.483 30.218 67.489 67.489" transform="translate(0 23)"/>
        <g fill-rule="nonzero">
            <g fill="#FFF">
                <g>
                    <g>
                        <path d="M.699 1.781l21.438 7.3L1.18.482C.72.279.196.398.105.768c-.059.207-.028.428.085.61s.298.308.509.347v.056zM11.47 7.642l10.883 1.663-10.869-2.32c-.251-.076-.44.042-.454.266.025.218.175.4.384.468l.056-.077z" transform="translate(0 23) translate(0 9) translate(.699 28.64) translate(12.574 9.081)"/>
                    </g>
                    <path d="M1.04 2.494l32.602 13.573L2.906.46C2.13.106 1.22.234.573.789c-.266.237-.382.6-.304.946.079.347.34.625.681.724 0 0 .077.035.09.035z" transform="translate(0 23) translate(0 9) translate(.699 28.64)"/>
                </g>
                <path d="M55.981 22.298l1.397 19.37-6.782-18.162c-.503-.96-.405-2.124.25-2.986.655-.863 1.75-1.27 2.81-1.042 1.059.226 1.892 1.045 2.137 2.1.11.225.175.47.188.72zM119.381 119.451l-22.535-11.68 18.309 17.534c1.476 1.338 3.738 1.295 5.162-.098 1.36-1.466 1.307-3.747-.119-5.148-.26-.22-.532-.423-.817-.608zM49.597 128.385l3.045-20.607-8.676 18.973c-.476.968-.39 2.119.227 3.005.616.886 1.664 1.368 2.738 1.259 1.073-.11 2.003-.793 2.428-1.784.106-.274.186-.557.238-.846z" transform="translate(0 23) translate(0 9)"/>
                <g>
                    <g>
                        <path d="M3.227 1.125L1.963 23.75 4.568 1.243C4.652.706 4.38.28 4.01.258c-.37-.02-.699.329-.79.867h.007zM.496 13.049L1.837 23.98l-.698-11.12c0-.21-.161-.385-.385-.315-.197.083-.32.282-.307.496l.049.007z" transform="translate(0 23) translate(0 9) translate(81.031) translate(0 13.97)"/>
                    </g>
                    <path d="M7.956 1.027l-4.19 35.08 6.712-33.809c.117-.842-.264-1.676-.978-2.137-.294-.191-.67-.207-.979-.041-.31.165-.504.486-.509.837-.016.025-.035.048-.056.07z" transform="translate(0 23) translate(0 9) translate(81.031)"/>
                </g>
                <g>
                    <g>
                        <path d="M19.56.643L.698 13.105 20.335 1.809c.404-.192.593-.664.433-1.083-.189-.3-.699-.3-1.139-.07l-.07-.013zM8.313 5.588L.356 13.14l8.509-7.167c.167-.126.216-.315.07-.434-.171-.154-.431-.154-.601 0l-.021.05z" transform="translate(0 23) translate(0 9) translate(139.709 23.75) translate(0 4.191)"/>
                    </g>
                    <path d="M33.649.3L3.032 17.827 34.11 3.032c.771-.355 1.232-1.16 1.146-2.005-.012-.35-.213-.667-.525-.827-.312-.16-.686-.137-.977.058-.033.019-.069.033-.105.042z" transform="translate(0 23) translate(0 9) translate(139.709 23.75)"/>
                </g>
                <g>
                    <g>
                        <path d="M5.525 22.472L.147.517l4.086 22.276c.026.435.389.773.824.769.199-.063.363-.205.453-.393.09-.188.098-.405.022-.599.025-.03.022-.073-.007-.098zM4.722 10.213L.244.203 4.156 10.68c-.004.091.043.178.123.223.08.046.178.043.255-.007.2-.134.279-.39.188-.614v-.07z" transform="translate(0 23) translate(0 9) translate(74.744 107.576) translate(1.397)"/>
                    </g>
                    <path d="M6.503 37.31L.293 2.598l3.444 34.228c.133.857.735 1.567 1.558 1.837.34.066.692-.043.936-.29.244-.247.348-.599.28-.939 0 0-.029-.09-.008-.126z" transform="translate(0 23) translate(0 9) translate(74.744 107.576)"/>
                </g>
                <path d="M3.206 7.537L3.255 7.621 3.598 11.177 6.287 8.69 9.898 9.458 8.383 6.126 10.241 2.941 6.545 3.381 4.086 0.629 3.388 4.261 0 5.735z" transform="translate(0 23) translate(0 9) translate(0 33.53)"/>
                <g>
                    <path d="M4.191 8.941L4.191 9.039 4.603 13.44 7.921 10.338 12.329 11.288 10.401 7.223 12.693 3.318 8.194 3.87 5.211 0.489 4.345 4.925 0.203 6.727z" transform="translate(0 23) translate(0 9) translate(44.008 6.287)"/>
                </g>
                <g>
                    <path d="M4.247 8.802L4.303 8.899 4.694 13.293 8.012 10.213 12.448 11.149 10.513 7.069 12.776 3.171 8.285 3.73 5.302 0.363 4.436 4.785 0.321 6.58z" transform="translate(0 23) translate(0 9) translate(83.127 127.834)"/>
                </g>
            </g>
            <g>
                <path fill="#1D1D1B" d="M115.958 18.483l-3.157-15.437c-.122-.56-.462-1.048-.944-1.357-.482-.31-1.067-.414-1.627-.292L1.88 23.534c-1.165.245-1.914 1.383-1.677 2.55l3.157 15.43c.212 1.022 1.122 1.748 2.165 1.726 4.539-.076 8.487 3.092 9.397 7.538.91 4.447-1.477 8.911-5.68 10.624-.966.392-1.518 1.415-1.314 2.438l3.158 15.438c.114.56.447 1.05.924 1.365.477.315 1.059.427 1.619.311l108.344-22.172c1.166-.238 1.92-1.375 1.683-2.542L120.5 40.802c-.218-1.02-1.13-1.741-2.173-1.718-4.526.054-8.454-3.113-9.36-7.549-.906-4.435 1.466-8.889 5.651-10.614.98-.38 1.545-1.407 1.341-2.438z" opacity=".1" transform="translate(0 23) translate(0 9) translate(22.353 32.133)"/>
                <g>
                    <path fill="url(#prefix__a)" d="M114.24 17.051l-3.116-15.214c-.105-.554-.43-1.043-.901-1.354-.471-.312-1.048-.42-1.6-.301L1.845 22.032c-.556.106-1.046.432-1.357.904-.312.473-.42 1.051-.298 1.604l3.115 15.214c.211 1.004 1.105 1.716 2.13 1.698 4.49-.09 8.4 3.042 9.296 7.442.895 4.4-1.482 8.81-5.649 10.482-.961.372-1.51 1.388-1.292 2.396l3.108 15.215c.242 1.145 1.36 1.883 2.508 1.655l106.78-21.85c1.145-.242 1.883-1.36 1.655-2.508l-3.088-15.25c-.206-.992-1.082-1.701-2.095-1.697-4.459.056-8.33-3.061-9.225-7.43-.895-4.368 1.437-8.757 5.557-10.46.945-.387 1.474-1.399 1.25-2.396z" transform="translate(0 23) translate(0 9) translate(22.353 32.133) translate(1.397)"/>
                    <g fill="#FFF">
                        <g>
                            <g>
                                <path d="M6.462 2.536c-.217-.112-.456-.172-.699-.175-.22-.012-.44 0-.657.035-.484.172-.906.483-1.215.894-.336.462-.573.987-.699 1.544-.162.686-.237 1.39-.223 2.096.008.844.095 1.686.258 2.514.108.609.281 1.204.517 1.775.219.543.505 1.057.852 1.53.3.405.666.757 1.083 1.04.36.245.796.354 1.23.308.273-.031.536-.124.768-.273.288-.181.551-.4.782-.65l1.397 1.586c-.322.45-.748.814-1.243 1.062-.416.192-.852.34-1.3.44-.706.15-1.442.064-2.095-.244-.694-.338-1.312-.813-1.816-1.397-.567-.654-1.037-1.386-1.397-2.173-.4-.838-.7-1.719-.894-2.626C.88 8.78.775 7.716.796 6.65c.01-1.004.172-2 .482-2.955.251-.852.69-1.638 1.286-2.298C3.192.767 4.008.357 4.89.231c.319-.05.641-.07.964-.063.345.007.688.061 1.02.16l-.412 2.208z" transform="translate(0 23) translate(0 9) translate(22.353 32.133) translate(1.397) translate(21.655 10.478) translate(2.096 6.287) translate(0 12.574)"/>
                                <path d="M7.32 16.45c-.75.162-1.533.071-2.228-.258-.717-.345-1.356-.832-1.879-1.432-.584-.655-1.071-1.392-1.446-2.186-.405-.852-.712-1.747-.915-2.669C.622 8.85.516 7.772.538 6.692c.011-1.022.176-2.037.489-3.01.285-.88.763-1.683 1.397-2.355C3.074.658 3.926.22 4.848.077c.332-.055.67-.078 1.006-.07.362.01.721.066 1.069.168l.16.049-.482 2.64-.244-.133c-.18-.098-.382-.15-.587-.153-.202-.024-.406-.024-.608 0-.44.158-.824.442-1.103.817-.33.44-.567.94-.699 1.474-.157.673-.23 1.363-.217 2.054.006.835.09 1.667.252 2.486.109.596.28 1.18.51 1.74.213.529.492 1.029.831 1.488.283.39.633.725 1.034.992.535.373 1.246.373 1.781 0 .276-.168.525-.375.74-.615l.154-.16 1.6 1.864-.09.12c-.341.473-.792.856-1.314 1.117-.42.213-.863.379-1.32.496zM4.772.448C3.973.584 3.24.971 2.675 1.551c-.585.634-1.022 1.39-1.278 2.214-.302.937-.46 1.915-.468 2.9-.02 1.05.083 2.101.307 3.129.188.893.476 1.763.86 2.591.364.761.835 1.467 1.397 2.096.491.56 1.09 1.016 1.76 1.341 1.051.432 2.243.36 3.234-.196.419-.21.784-.514 1.07-.887L8.43 13.433c-.21.203-.445.379-.698.524-.652.42-1.488.426-2.145.014-.434-.294-.815-.66-1.124-1.083-.361-.483-.657-1.012-.88-1.572-.242-.582-.42-1.188-.531-1.809-.166-.847-.252-1.707-.259-2.57-.013-.722.065-1.443.23-2.145.14-.581.391-1.13.741-1.614.337-.438.793-.77 1.313-.957.242-.042.488-.059.734-.049.178.008.354.038.524.091L6.664.461c-.263-.065-.532-.1-.803-.105-.325-.01-.65.012-.971.063L4.77.447z" transform="translate(0 23) translate(0 9) translate(22.353 32.133) translate(1.397) translate(21.655 10.478) translate(2.096 6.287) translate(0 12.574)"/>
                            </g>
                            <g>
                                <path d="M3.807 17.54L3.395 15.501 5.56 15.061 3.157 3.325 0.992 3.765 0.566 1.67 7.09 0.335 7.509 2.431 5.344 2.878 7.747 14.607 9.912 14.166 10.331 16.206z" transform="translate(0 23) translate(0 9) translate(22.353 32.133) translate(1.397) translate(21.655 10.478) translate(2.096 6.287) translate(7.684 10.478)"/>
                                <path d="M10.562 16.353L3.653 17.75l-.489-2.41 2.166-.44L3.004 3.549l-2.166.44-.496-2.431L7.244.16l.496 2.43-2.166.448 2.327 11.365 2.165-.447.496 2.396zm-6.601.97l6.14-1.256-.321-1.677-2.166.44L5.12 2.731l2.166-.44-.35-1.697L.797 1.85l.35 1.69 2.165-.44 2.48 12.1-2.173.446.343 1.677z" transform="translate(0 23) translate(0 9) translate(22.353 32.133) translate(1.397) translate(21.655 10.478) translate(2.096 6.287) translate(7.684 10.478)"/>
                            </g>
                            <g>
                                <path d="M3.06 6.462L5.484 18.281 3.465 18.693 0.224 2.836 2.473 2.375 10.227 12.469 7.935 1.292 9.989 0.866 13.272 16.695 11.177 17.114z" transform="translate(0 23) translate(0 9) translate(22.353 32.133) translate(1.397) translate(21.655 10.478) translate(2.096 6.287) translate(16.067 7.684)"/>
                                <path d="M13.468 16.835l-2.375.489L3.409 7.258l2.284 11.177-2.396.489L0 2.689l2.564-.524 7.313 9.515L7.684 1.11l2.438-.502 3.346 16.227zm-2.2.07l1.739-.356L9.842 1.055l-1.676.342 2.424 11.875L2.389 2.578l-1.942.398L3.618 18.47l1.635-.336-2.55-12.462 8.565 11.233z" transform="translate(0 23) translate(0 9) translate(22.353 32.133) translate(1.397) translate(21.655 10.478) translate(2.096 6.287) translate(16.067 7.684)"/>
                            </g>
                            <g>
                                <path d="M6.797 0.622L7.209 2.661 3.018 3.528 4.142 9.046 7.677 8.348 8.103 10.443 4.568 11.142 5.414 15.27 9.64 14.383 10.066 16.479 3.625 17.799 0.384 1.956z" transform="translate(0 23) translate(0 9) translate(22.353 32.133) translate(1.397) translate(21.655 10.478) translate(2.096 6.287) translate(27.243 6.287)"/>
                                <path d="M10.262 16.604l-6.818 1.397L.133 1.788 6.95.391l.488 2.41-4.226.866 1.055 5.156 3.535-.699.503 2.452-3.535.699.768 3.75 4.192-.88.53 2.46zm-6.51.95l6.056-1.243-.35-1.711-4.226.887-.915-4.499 3.493-.698-.35-1.719-3.534.699L2.794 3.38l4.191-.866-.342-1.67-6.056 1.25 3.164 15.46z" transform="translate(0 23) translate(0 9) translate(22.353 32.133) translate(1.397) translate(21.655 10.478) translate(2.096 6.287) translate(27.243 6.287)"/>
                            </g>
                            <path d="M43.715 21.767c-.793.17-1.621.075-2.354-.273-.742-.352-1.403-.854-1.942-1.474-.596-.68-1.092-1.443-1.474-2.263-.41-.863-.718-1.77-.922-2.703-.237-1.069-.344-2.162-.321-3.256.01-1.04.177-2.075.495-3.066.294-.911.785-1.746 1.44-2.445.694-.702 1.6-1.156 2.577-1.292.344-.055.693-.079 1.04-.07.38.007.756.066 1.119.174l.328.098-.566 3.074-.482-.273c-.155-.082-.327-.125-.503-.125-.179-.016-.359-.016-.538 0-.399.15-.747.408-1.006.747-.305.418-.524.893-.642 1.397-.154.657-.227 1.33-.217 2.005.013.825.097 1.648.252 2.459.106.582.275 1.151.503 1.697.204.518.477 1.007.81 1.453.27.372.604.693.985.95.474.323 1.097.323 1.572 0 .258-.157.494-.35.698-.573l.3-.335 1.845 2.152-.182.237c-.361.501-.841.904-1.397 1.174-.45.231-.926.41-1.418.53zM41.158 5.763c-.744.139-1.428.505-1.956 1.048-.573.613-1.002 1.345-1.257 2.144-.3.918-.456 1.878-.461 2.843-.023 1.038.078 2.074.3 3.088.193.89.486 1.754.873 2.578.35.759.807 1.464 1.356 2.095.471.542 1.049.982 1.697 1.293.998.412 2.13.34 3.067-.196.344-.17.65-.407.9-.699l-.893-1.096c-.168.155-.354.291-.552.405-.739.48-1.696.464-2.417-.042-.454-.304-.851-.684-1.174-1.125-.367-.497-.67-1.04-.9-1.613-.249-.593-.432-1.212-.546-1.845-.164-.851-.25-1.717-.258-2.584-.014-.736.066-1.47.237-2.187.14-.608.405-1.18.776-1.683.354-.47.84-.826 1.397-1.02h.049c.249-.043.502-.06.754-.049.12.006.239.02.356.042l.266-1.397c-.193-.04-.39-.063-.587-.07-.3 0-.598.021-.894.063l-.133.007zM54.787 19.56l-7.202 1.473-3.388-16.555 2.976-.608 2.794 13.754 4.226-.866.594 2.801zm-6.587.579l5.672-1.16-.273-1.327-4.191.866-2.794-13.754-1.446.293L48.2 20.14zM59.027 18.68c-.77.18-1.58.107-2.305-.21-.611-.308-1.138-.758-1.537-1.314-.425-.596-.761-1.25-.999-1.942-.251-.698-.482-1.439-.698-2.172-.364-1.397-.699-2.969-1.027-4.625-.329-1.655-.636-3.353-.964-5.113l-.07-.363 2.829-.58.063.384c.284 1.588.573 3.179.866 4.771.293 1.572.65 3.179 1.069 4.792.112.447.244.908.405 1.397.146.428.33.842.552 1.237.181.312.418.59.698.817.177.148.409.212.636.175.238-.036.443-.184.552-.398.168-.334.272-.697.307-1.07.053-.475.053-.955 0-1.431-.049-.531-.105-1.041-.174-1.509-.231-1.55-.524-3.102-.88-4.596-.357-1.495-.7-3.109-1.083-4.771l-.077-.37 2.794-.574.643 2.892c.186.857.368 1.696.544 2.515.175.824.343 1.614.49 2.375.146.762.272 1.474.377 2.096.118.747.21 1.523.265 2.305.064.752.02 1.51-.133 2.25-.153.703-.485 1.355-.964 1.892-.588.6-1.35.999-2.179 1.14zM52.335 3.492c.307 1.625.608 3.208.901 4.75.314 1.641.657 3.178 1.013 4.575.196.699.412 1.397.657 2.096.218.624.524 1.214.908 1.753.328.458.761.83 1.264 1.083.57.24 1.201.291 1.802.147.651-.115 1.251-.427 1.719-.894.393-.44.665-.974.789-1.551.147-.672.194-1.362.14-2.047-.047-.75-.133-1.495-.259-2.235-.098-.636-.223-1.335-.37-2.096-.147-.761-.307-1.544-.482-2.354s-.356-1.656-.545-2.515l-.496-2.11-1.292.266c.328 1.523.698 2.997.992 4.38.363 1.516.663 3.088.901 4.66.063.488.126 1.005.175 1.55.056.527.056 1.059 0 1.586-.044.465-.177.918-.392 1.334-.226.43-.644.725-1.124.796-.448.08-.908-.043-1.258-.335-.342-.286-.627-.634-.838-1.027-.25-.444-.457-.912-.615-1.397-.167-.489-.307-.978-.419-1.439-.419-1.614-.789-3.248-1.082-4.834-.273-1.467-.538-2.927-.797-4.394l-1.292.252zM65.845 17.275c-.315.07-.636.119-.971.16l-.356.05L61.15 1.034l.363-.091c.698-.168 1.397-.307 2.18-.42.757-.11 1.526-.11 2.283 0 .736.117 1.43.418 2.02.874.645.537 1.093 1.275 1.27 2.096.13.454.165.929.105 1.397-.057.407-.177.803-.356 1.173-.163.337-.373.65-.622.93l-.125.14c.725.234 1.375.655 1.886 1.222.658.762 1.101 1.685 1.285 2.675.16.743.114 1.516-.133 2.235-.264.732-.692 1.394-1.25 1.935-.636.61-1.377 1.1-2.186 1.446-.65.285-1.33.496-2.026.629zm-.699-.636c.832-.12 1.643-.355 2.41-.698.717-.307 1.374-.737 1.942-1.272.473-.459.834-1.02 1.055-1.641.205-.595.244-1.236.112-1.851-.157-.864-.543-1.67-1.118-2.333-.564-.617-1.32-1.026-2.144-1.16l-.853-.168.699-.503c.203-.15.388-.324.552-.517.205-.224.375-.478.503-.754.15-.298.248-.62.293-.95.044-.375.013-.755-.09-1.118-.136-.668-.49-1.273-1.007-1.718-.484-.373-1.057-.613-1.662-.699-.679-.1-1.368-.1-2.047 0-.6.091-1.18.196-1.74.322l3.095 15.06zm1.481-1.767l-.23.042-.357.042-1.222-5.966.398-.07c.53-.104 1.076-.104 1.607 0 .433.085.845.259 1.208.51.334.24.61.55.81.908.199.358.34.745.42 1.146.084.405.055.826-.084 1.216-.14.383-.35.736-.622 1.04-.278.313-.606.577-.97.783-.302.166-.627.284-.965.349h.007zm-.887-5.267l.922 4.492c.184-.06.362-.137.53-.23.29-.167.551-.377.776-.623.204-.231.363-.499.468-.789.098-.266.12-.554.063-.831-.068-.328-.185-.644-.349-.936-.144-.274-.347-.513-.594-.699-.276-.187-.587-.316-.915-.377-.3-.05-.607-.052-.908-.007h.007zm-1.285-2.382l-.81-3.96-.14-.092.042-.244v-.203l.16-.035c.057-.033.118-.059.182-.076.334-.116.681-.186 1.034-.21.341-.025.685.013 1.013.112.319.098.607.276.838.517.243.271.399.61.447.97.049.332.027.67-.063.993-.094.323-.242.628-.44.9-.213.29-.473.543-.768.748-.332.227-.7.393-1.09.49l-.405.09zm0-3.989l.628 3.039c.15-.061.293-.139.426-.23.225-.157.421-.35.58-.573.155-.21.266-.447.329-.699.063-.227.08-.465.048-.698-.026-.215-.116-.417-.258-.58-.14-.148-.315-.256-.51-.315-.227-.063-.463-.09-.698-.076-.195.029-.386.073-.573.132h.028z" transform="translate(0 23) translate(0 9) translate(22.353 32.133) translate(1.397) translate(21.655 10.478) translate(2.096 6.287)"/>
                        </g>
                        <path d="M0.021 7.768H70.853V9.2H0.021z" transform="translate(0 23) translate(0 9) translate(22.353 32.133) translate(1.397) translate(21.655 10.478) rotate(-11.56 162.1 -3.096)"/>
                        <path d="M-0.35 7.173H70.482V8.605H-0.35z" transform="translate(0 23) translate(0 9) translate(22.353 32.133) translate(1.397) translate(21.655 10.478) rotate(-11.56 35.066 7.889)"/>
                    </g>
                    <g fill="#FFF">
                        <path d="M5.938 11.924L6.273 13.566 2.501 14.334 3.409 18.77 6.566 18.162 6.909 19.839 3.751 20.481 4.771 25.455 2.794 25.846.189 13.119zM17.233 22.87l-1.872.385-1.781-3.696-2.669.545-.195 4.073-1.872.384.656-13.384 1.858-.378 5.875 12.071zm-6.287-4.456l1.837-.378-1.606-3.415-.23 3.793zM18.742 12.287L20.761 22.151 18.965 22.514 16.36 9.78 18.372 9.367 21.403 12.273 23.052 8.383 25.064 7.97 27.676 20.712 25.874 21.082 23.855 11.219 22.591 14.285 21.103 14.586zM29.262 20.411L28.927 18.77 30.862 18.372 28.934 8.948 26.999 9.34 26.656 7.684 32.482 6.489 32.818 8.152 30.883 8.543 32.818 17.974 34.746 17.575 35.088 19.217zM36.045 5.763L38.308 16.814 42.08 16.039 42.423 17.701 36.674 18.861 34.075 6.154zM44.008 17.394L43.673 15.752 45.608 15.354 43.68 5.924 41.745 6.322 41.403 4.666 47.229 3.472 47.564 5.127 45.629 5.525 47.564 14.956 49.499 14.558 49.834 16.199zM59.823 14.153l-1.872.384-1.781-3.66-2.669.544-.195 4.066-1.872.384.656-13.412 1.859-.377 5.874 12.07zm-6.252-4.457l1.838-.377-1.621-3.416-.217 3.793zM61.472 13.817L58.873 1.125 60.04.866l1.166-.21c.36-.057.72-.097 1.083-.118.3-.018.601-.018.901 0 .45.042.888.168 1.293.37.335.175.633.412.88.699.233.25.422.538.559.852.136.304.246.62.328.943.093.412.124.836.09 1.257-.028.434-.132.86-.307 1.258-.18.419-.44.8-.761 1.124-.376.374-.82.672-1.306.88l4.19 4.548-2.095.426-3.856-4.268.992 4.89-1.725.3zM64.336 3.78c-.083-.284-.21-.552-.377-.796-.166-.24-.393-.43-.657-.552-.314-.134-.65-.206-.992-.21-.472-.007-.943.057-1.397.189l.894 4.352c.47-.044.927-.167 1.355-.363.335-.164.627-.403.853-.699.197-.266.322-.579.363-.908.056-.337.044-.681-.035-1.013h-.007z" transform="translate(0 23) translate(0 9) translate(22.353 32.133) translate(1.397) translate(30.037 41.214)"/>
                    </g>
                </g>
            </g>
            <g>
                <path fill="#1D1D1B" d="M115.008 19.308V3.548c0-1.188-.963-2.15-2.151-2.15H2.263c-1.188 0-2.151.962-2.151 2.15v15.76c.013 1.033.757 1.912 1.774 2.095 4.44.858 7.648 4.744 7.648 9.267 0 4.522-3.208 8.408-7.648 9.266C.87 40.12.126 40.998.112 42.03v15.76c-.002.571.224 1.12.627 1.525.404.405.952.633 1.524.633h110.594c.572 0 1.12-.228 1.524-.633.403-.405.63-.954.627-1.525V42.073c-.013-1.033-.757-1.912-1.774-2.095-4.44-.858-7.648-4.744-7.648-9.267 0-4.522 3.208-8.408 7.648-9.266 1.032-.186 1.78-1.088 1.774-2.137z" opacity=".1" transform="translate(0 23) translate(0 9) translate(37.023 41.913)"/>
                <g>
                    <path fill="url(#prefix__b)" d="M113.611 17.848V2.319c0-1.157-.938-2.095-2.095-2.095H2.543C1.385.224.447 1.162.447 2.319v15.529c.003 1.03.74 1.91 1.753 2.095 4.377.843 7.54 4.673 7.54 9.13 0 4.458-3.163 8.288-7.54 9.13C1.188 38.388.45 39.27.447 40.3v15.515c0 1.157.938 2.095 2.096 2.095h108.973c1.157 0 2.095-.938 2.095-2.095V40.285c-.003-1.027-.736-1.908-1.746-2.096-4.377-.842-7.54-4.672-7.54-9.13 0-4.457 3.163-8.287 7.54-9.13 1.005-.187 1.737-1.059 1.746-2.081z" transform="translate(0 23) translate(0 9) translate(37.023 41.913) translate(1.397)"/>
                    <g fill="#FFF">
                        <g>
                            <g>
                                <path d="M7.363 2.955c-.185-.153-.403-.26-.636-.315-.212-.055-.43-.086-.65-.09-.519.061-1.007.28-1.397.628-.429.39-.772.867-1.006 1.397-.3.64-.517 1.317-.642 2.012-.154.823-.233 1.657-.238 2.494-.012.616.042 1.232.16 1.837.11.573.29 1.129.539 1.656.212.457.5.875.852 1.236.305.31.707.505 1.139.552.272.025.546-.01.803-.105.319-.115.62-.275.894-.475l1.02 1.823c-.396.371-.875.642-1.397.79-.458.112-.926.17-1.397.174-.73-.001-1.438-.247-2.012-.698-.614-.466-1.126-1.053-1.502-1.725-.435-.753-.758-1.565-.957-2.41-.218-.904-.335-1.83-.35-2.76-.015-1.064.095-2.126.33-3.164.211-.98.57-1.921 1.06-2.794.444-.777 1.052-1.447 1.782-1.963C4.495.554 5.376.308 6.266.356c.324.014.647.056.964.126.335.082.658.204.964.363l-.831 2.11z" transform="translate(0 23) translate(0 9) translate(37.023 41.913) translate(1.397) translate(20.956 6.287) translate(0 5.588) translate(0 .699)"/>
                                <path d="M5.414 16.765c-.756.003-1.493-.242-2.096-.698-.634-.48-1.164-1.084-1.558-1.775-.439-.772-.766-1.602-.97-2.466-.224-.915-.344-1.852-.357-2.794C.42 7.952.532 6.873.768 5.82c.214-1 .58-1.96 1.083-2.85.452-.805 1.08-1.498 1.837-2.026.765-.52 1.675-.785 2.599-.754.336.015.67.06.999.132.353.082.694.211 1.013.385l.153.076-1.006 2.494-.21-.188c-.16-.131-.349-.222-.55-.266-.197-.05-.399-.078-.602-.084-.46.069-.892.268-1.243.573-.403.37-.728.816-.957 1.313-.29.629-.5 1.29-.629 1.97-.161.82-.248 1.652-.258 2.487-.015.605.037 1.209.153 1.802.1.563.275 1.11.517 1.628.198.438.473.838.81 1.18.27.282.632.458 1.02.496.238.02.478-.016.7-.104.303-.107.588-.26.844-.454l.182-.133 1.201 2.151-.111.098c-.43.397-.95.683-1.516.831-.452.117-.916.18-1.383.19zM6.112.58c-.804-.005-1.59.24-2.25.698-.703.504-1.29 1.155-1.717 1.907-.487.856-.839 1.782-1.041 2.746C.87 6.957.76 8.008.775 9.06c.012.915.129 1.827.35 2.716.208.815.536 1.594.97 2.313.35.644.825 1.212 1.398 1.67.942.636 2.124.803 3.206.453.453-.122.873-.344 1.23-.65l-.839-1.508c-.239.153-.494.28-.761.377-.286.112-.595.155-.901.126-.469-.045-.906-.253-1.237-.587-.369-.373-.67-.808-.887-1.285-.245-.553-.416-1.136-.51-1.733-.128-.616-.19-1.243-.188-1.872.013-.856.1-1.709.258-2.55.123-.71.334-1.402.629-2.06.251-.544.61-1.031 1.055-1.432.41-.375.924-.618 1.473-.699.236.007.47.04.699.098.173.043.34.108.496.196L7.915.936c-.232-.103-.473-.182-.72-.237C6.896.63 6.593.587 6.287.566L6.112.58z" transform="translate(0 23) translate(0 9) translate(37.023 41.913) translate(1.397) translate(20.956 6.287) translate(0 5.588) translate(0 .699)"/>
                            </g>
                            <g>
                                <path d="M0.622 16.611L0.622 14.516 2.836 14.516 2.836 2.55 0.622 2.55 0.622 0.454 7.279 0.454 7.279 2.55 5.071 2.55 5.071 14.523 7.279 14.523 7.279 16.618z" transform="translate(0 23) translate(0 9) translate(37.023 41.913) translate(1.397) translate(20.956 6.287) translate(0 5.588) translate(9.081 .699)"/>
                                <path d="M7.474 16.765H.426v-2.43H2.64V2.737H.426V.251h7.048v2.487H5.26v11.596h2.214v2.431zm-6.657-.37h6.287V14.71H4.89V2.361h2.207V.63H.81V2.36h2.215v12.35H.817v1.684z" transform="translate(0 23) translate(0 9) translate(37.023 41.913) translate(1.397) translate(20.956 6.287) translate(0 5.588) translate(9.081 .699)"/>
                            </g>
                            <g>
                                <path d="M2.501 4.548L2.501 16.611 0.447 16.611 0.447 0.419 2.745 0.419 8.334 11.868 8.334 0.419 10.429 0.419 10.429 16.611 8.334 16.611z" transform="translate(0 23) translate(0 9) translate(37.023 41.913) translate(1.397) translate(20.956 6.287) translate(0 5.588) translate(17.464 .699)"/>
                                <path d="M10.618 16.765H8.194L2.696 5.372v11.393H.251V.231h2.62l5.253 10.792V.231h2.494v16.534zm-2.173-.37h1.782V.608H8.515v12.099L2.62.607H.643v15.816h1.662V3.695l6.14 12.7z" transform="translate(0 23) translate(0 9) translate(37.023 41.913) translate(1.397) translate(20.956 6.287) translate(0 5.588) translate(17.464 .699)"/>
                            </g>
                            <g>
                                <path d="M7.384 0.44L7.384 2.536 3.067 2.536 3.067 8.173 6.671 8.173 6.671 10.269 3.067 10.269 3.067 14.46 7.384 14.46 7.384 16.555 0.81 16.555 0.81 0.44z" transform="translate(0 23) translate(0 9) translate(37.023 41.913) translate(1.397) translate(20.956 6.287) translate(0 5.588) translate(28.64 .699)"/>
                                <path d="M7.58 16.765H.593V.251h6.985v2.46H3.262v5.266h3.605v2.501H3.262v3.835H7.58v2.452zm-6.574-.37h6.182v-1.726H2.871v-4.568h3.611V8.383H2.871V2.375h4.317V.629H1.006v15.766z" transform="translate(0 23) translate(0 9) translate(37.023 41.913) translate(1.397) translate(20.956 6.287) translate(0 5.588) translate(28.64 .699)"/>
                            </g>
                            <path d="M42.527 17.638c-.808.02-1.6-.225-2.256-.698-.653-.5-1.2-1.124-1.607-1.837-.446-.787-.778-1.634-.985-2.515-.229-.929-.35-1.88-.363-2.836-.017-1.095.096-2.187.336-3.256.22-1.016.592-1.993 1.103-2.898.466-.832 1.113-1.548 1.893-2.096.806-.56 1.772-.843 2.753-.803.347.018.693.064 1.033.14.371.081.729.215 1.062.397l.3.161-1.166 2.899-.42-.37c-.136-.109-.296-.185-.467-.224-.174-.043-.352-.07-.531-.084-.42.065-.814.249-1.132.531-.384.353-.695.778-.915 1.25-.281.616-.487 1.264-.615 1.929-.153.808-.235 1.629-.244 2.452-.014.592.035 1.185.147 1.767.099.548.268 1.08.503 1.586.19.417.452.798.775 1.124.235.239.547.385.88.412.216.02.434-.011.636-.09.28-.107.546-.25.79-.426l.362-.266 1.398 2.473-.224.195c-.44.427-.977.739-1.565.909-.484.118-.982.177-1.48.174zm.699-16.192c-.748-.01-1.48.212-2.096.636-.683.484-1.251 1.114-1.662 1.844-.483.84-.836 1.75-1.048 2.696-.225 1.014-.333 2.05-.321 3.088.015.9.13 1.794.342 2.668.195.802.5 1.574.908 2.291.351.628.827 1.177 1.397 1.614.894.6 2.015.756 3.039.42.374-.098.723-.272 1.027-.51l-.664-1.202c-.199.114-.407.213-.622.293-.822.313-1.751.104-2.36-.53-.386-.39-.7-.844-.93-1.342-.258-.56-.445-1.148-.559-1.753-.119-.633-.173-1.277-.16-1.921.009-.866.098-1.729.265-2.578.145-.725.38-1.429.699-2.096.259-.566.632-1.072 1.096-1.487.446-.383.996-.626 1.579-.699h.056c.252.006.503.041.747.105l.343.112.538-1.335c-.18-.078-.368-.139-.56-.181-.29-.067-.588-.107-.886-.119l-.168-.014zM53.788 17.66h-7.32V.76h3.038v14.041h4.282v2.857zm-6.566-.748h5.79v-1.355h-4.316V1.516h-1.474v15.396zM58.147 17.68c-.797.016-1.577-.23-2.222-.698-.541-.423-.97-.972-1.25-1.6-.299-.666-.499-1.372-.594-2.096-.105-.74-.181-1.502-.223-2.263-.07-1.432-.07-3.025-.07-4.736 0-1.712.049-3.416.077-5.204v-.37h2.885v.39c-.042 1.617-.08 3.23-.112 4.842 0 1.6 0 3.255.09 4.89 0 .46.057.935.12 1.397.056.45.155.894.293 1.327.105.337.27.651.489.929.138.182.351.292.58.3.241.021.477-.084.621-.28.236-.29.411-.625.517-.984.147-.454.245-.923.294-1.397.063-.531.104-1.034.132-1.516.091-1.565.105-3.137.056-4.673-.049-1.537-.084-3.2-.098-4.89V.664h2.878l.056 2.968V8.627c0 .775 0 1.502-.056 2.152 0 .76-.097 1.536-.195 2.312-.097.75-.302 1.481-.608 2.172-.295.656-.751 1.226-1.327 1.656-.676.496-1.494.763-2.333.761zM54.654 1.495c-.028 1.658-.053 3.267-.077 4.827 0 1.67 0 3.248.077 4.694.049.699.119 1.474.224 2.2.084.656.263 1.296.53 1.9.23.516.582.967 1.027 1.314.51.348 1.116.525 1.733.503.662.024 1.315-.162 1.865-.531.477-.364.852-.846 1.09-1.397.274-.628.457-1.291.544-1.97.098-.755.168-1.509.196-2.242.028-.734.049-1.356.056-2.096.007-.74 0-1.572 0-2.403s0-1.698-.035-2.57l-.042-2.23h-1.32c0 1.559.049 3.067.098 4.493.049 1.557 0 3.157-.056 4.743 0 .489-.077 1.013-.133 1.55-.056.53-.166 1.052-.328 1.558-.14.448-.363.865-.657 1.23-.306.375-.774.58-1.257.551-.455-.013-.881-.225-1.167-.58-.275-.35-.483-.747-.615-1.173-.154-.475-.264-.964-.328-1.46-.063-.51-.105-1.013-.126-1.488-.083-1.67-.118-3.339-.083-4.952 0-1.495.055-2.983.097-4.471h-1.313zM65.104 17.68c-.321 0-.65 0-.978-.042h-.363V.873h.377c.738-.038 1.477-.038 2.215 0 .765.037 1.52.188 2.242.447.697.254 1.32.679 1.81 1.237.529.648.826 1.454.844 2.29.04.474-.02.95-.174 1.398-.138.39-.336.755-.587 1.083-.23.295-.497.558-.796.782l-.154.112c.666.374 1.22.919 1.607 1.579.485.88.726 1.873.698 2.878.007.762-.196 1.51-.587 2.165-.401.666-.954 1.229-1.613 1.642-.745.47-1.568.801-2.431.978-.693.15-1.4.222-2.11.216zm-.559-.768c.841.067 1.688.017 2.515-.147.77-.159 1.507-.455 2.173-.873.568-.35 1.047-.829 1.397-1.397.322-.54.489-1.16.482-1.788.018-.877-.196-1.742-.622-2.508-.43-.724-1.096-1.279-1.886-1.572l-.845-.37.796-.35c.226-.113.441-.246.643-.398.515-.383.904-.91 1.117-1.515.122-.357.168-.736.133-1.111.008-.683-.216-1.348-.636-1.886-.4-.462-.912-.813-1.487-1.02-.646-.229-1.321-.363-2.005-.398-.608-.035-1.202-.05-1.768-.035l-.007 15.368zm1.803-1.397h-.594V9.347h.398c.541 0 1.077.103 1.579.307.407.17.776.423 1.083.74.28.302.49.663.614 1.055.121.392.182.799.182 1.209.001.414-.112.82-.328 1.173-.212.354-.492.663-.825.908-.337.25-.712.443-1.11.573-.318.107-.65.164-.985.168l-.014.035zm.188-5.344v4.582c.193-.016.383-.056.566-.119.316-.1.613-.251.88-.447.253-.188.465-.425.622-.698.15-.238.227-.515.224-.796.001-.334-.048-.667-.147-.985-.089-.29-.241-.554-.447-.776-.233-.241-.514-.432-.825-.559-.277-.122-.571-.202-.873-.237v.035zm-.782-2.585V3.493l-.119-.119.091-.23c-.002-.02-.002-.038 0-.056V2.94h.168c.063-.023.128-.038.195-.042.35-.046.705-.046 1.055 0 .34.044.668.148.971.307.289.17.53.41.699.699.188.313.274.677.244 1.04-.016.335-.104.661-.258.958-.16.297-.367.567-.615.796-.267.241-.571.437-.901.58-.37.155-.766.243-1.167.258l-.363.05zm.782-3.919v3.109c.16-.034.317-.083.468-.147.256-.107.492-.256.699-.44.182-.17.336-.368.454-.587.106-.203.165-.427.175-.656.023-.216-.024-.434-.133-.622-.104-.174-.254-.317-.433-.412-.219-.113-.455-.186-.699-.217-.175-.035-.352-.056-.53-.063v.035z" transform="translate(0 23) translate(0 9) translate(37.023 41.913) translate(1.397) translate(20.956 6.287) translate(0 5.588)"/>
                        </g>
                        <path d="M0.629 0.328H71.461V1.76H0.629z" transform="translate(0 23) translate(0 9) translate(37.023 41.913) translate(1.397) translate(20.956 6.287) translate(0 26.545)"/>
                        <path d="M0.629 0.601H71.461V2.033H0.629z" transform="translate(0 23) translate(0 9) translate(37.023 41.913) translate(1.397) translate(20.956 6.287)"/>
                    </g>
                    <g fill="#FFF">
                        <path d="M5.952.489L5.952 2.165 2.096 2.165 2.096 6.692 5.316 6.692 5.316 8.383 2.096 8.383 2.096 13.454.091 13.454.091.489zM14.823 13.475H12.91l-1.034-3.947H9.151l-1.006 3.947H6.287L9.619.468h1.9l3.304 13.007zM9.591 7.887h1.88l-.93-3.696-.95 3.696zM18.428 3.409L18.428 13.475 16.59 13.475 16.59.468 18.644.468 21.033 3.961 23.443.468 25.497.468 25.497 13.475 23.66 13.475 23.66 3.409 21.802 6.161 20.258 6.161zM27.104 13.475L27.104 11.805 29.073 11.805 29.073 2.179 27.104 2.179 27.104.489 33.041.489 33.041 2.179 31.071 2.179 31.071 11.805 33.041 11.805 33.041 13.475zM36.688.489L36.688 11.77 40.516 11.77 40.516 13.461 34.648 13.461 34.648.489zM42.157 13.475L42.157 11.805 44.134 11.805 44.134 2.179 42.157 2.179 42.157.489 48.102.489 48.102 2.179 46.104 2.179 46.104 11.805 48.074 11.805 48.074 13.475zM58.3 13.475h-1.914l-1.012-3.947h-2.725l-1.006 3.947H49.73L53.09.468h1.893L58.3 13.475zm-5.232-5.588h1.872l-.929-3.696-.943 3.696zM59.984 13.475V.524H62.366c.363.012.724.047 1.083.105.298.04.593.105.88.195.431.133.836.341 1.194.615.28.231.517.51.699.824.177.294.304.615.377.95.073.326.115.658.126.992.014.422-.038.844-.154 1.25-.119.417-.305.811-.552 1.167-.264.374-.596.696-.978.95-.442.29-.935.494-1.453.601l3.2 5.295h-2.103l-2.927-4.953v4.953l-1.774.007zm4.82-9.263c-.025-.293-.095-.58-.21-.852-.11-.277-.294-.518-.53-.699-.28-.195-.596-.332-.93-.405-.459-.097-.929-.127-1.397-.09v4.45c.468.047.94.016 1.397-.092.358-.08.69-.246.971-.482.246-.222.43-.504.538-.817.122-.33.176-.682.16-1.034v.021z" transform="translate(0 23) translate(0 9) translate(37.023 41.913) translate(1.397) translate(23.75 37.023)"/>
                    </g>
                </g>
            </g>
        </g>
    </g>
</svg>
