<svg xmlns="http://www.w3.org/2000/svg" width="180" height="180" viewBox="0 0 180 180">
    <g fill="none" fill-rule="evenodd" transform="translate(22 23)">
        <path fill="#FEA424" fill-rule="nonzero" d="M134.82 67.41c0 37.23-30.18 67.41-67.41 67.41S0 104.64 0 67.41 30.18 0 67.41 0c37.227.006 67.404 30.183 67.41 67.41"/>
        <path fill="#FFF" fill-rule="nonzero" d="M95 80.84V81c-5.48.64-9.81 4.952-10.47 10.43h-.17c-.645-5.467-4.954-9.78-10.42-10.43v-.21c5.457-.648 9.762-4.945 10.42-10.4h.17c.652 5.486 4.983 9.808 10.47 10.45zM98.16 56v.11c-3.531.426-6.314 3.209-6.74 6.74h-.11c-.419-3.529-3.201-6.311-6.73-6.73V56c3.529-.411 6.314-3.192 6.73-6.72h.11c.434 3.523 3.216 6.296 6.74 6.72z"/>
        <path fill="#000" fill-rule="nonzero" stroke="#FFF" d="M18.66 114c-3.14 0-5.7-2.27-5.7-5.06V38.79c0-2.79 2.56-5.06 5.7-5.06h97.5c3.15 0 5.71 2.27 5.71 5.06v70.14c0 2.79-2.56 5.06-5.71 5.06l-97.5.01z"/>
        <path fill="#716772" fill-rule="nonzero" d="M25.54 44.45H109.28999999999999V103.28H25.54z"/>
        <path fill="#C4C9BF" fill-rule="nonzero" d="M45.53 113.99H89.28999999999999V119.38H45.53z"/>
        <path fill="#000" fill-rule="nonzero" stroke="#FFF" d="M34.95 119.35H99.87V123.35H34.95z"/>
        <path fill="#A8B1B0" fill-rule="nonzero" d="M96.74 108.41c.064 1.045.954 1.846 2 1.8h8.49c1.044.04 1.93-.758 2-1.8-.07-1.04-.958-1.836-2-1.79h-8.46c-1.044-.051-1.936.747-2 1.79h-.03z"/>
        <path fill="#FFF" fill-rule="nonzero" d="M81.84 83.12H74.47c2.291-2.189 3.57-5.232 3.53-8.4v-2.84c1.342-.397 2.263-1.63 2.263-3.03s-.92-2.633-2.263-3.03v-3.69h.58c.01-.136.01-.274 0-.41-.105-3.415-2.864-6.152-6.28-6.23H54.89c-.005 1.754.669 3.442 1.88 4.71v5.62c-1.342.397-2.263 1.63-2.263 3.03s.92 2.633 2.263 3.03v2.84c-.016 2.944 1.097 5.782 3.11 7.93l.47.44H53v.19-.18c-2.41.013-4.706 1.019-6.35 2.78-1.718 1.814-2.668 4.222-2.65 6.72v11h46.82v-11c.018-2.485-.924-4.882-2.63-6.69-1.641-1.766-3.94-2.776-6.35-2.79z" opacity=".6"/>
        <path fill="#FE7114" fill-rule="nonzero" d="M27.6 21.09c0 4.534-3.676 8.21-8.21 8.21-4.534 0-8.21-3.676-8.21-8.21 0-4.534 3.676-8.21 8.21-8.21 4.534 0 8.21 3.676 8.21 8.21z"/>
        <circle cx="36.84" cy="19.16" r="4.55" fill="#FE7114" fill-rule="nonzero"/>
        <text fill="#FFF" font-family="Montserrat-Regular, Montserrat" font-size="11">
            <tspan x="85.96" y="70.65">5x3</tspan>
        </text>
    </g>
</svg>
