<svg xmlns="http://www.w3.org/2000/svg" width="180" height="180" viewBox="0 0 180 180">
    <g fill="none" fill-rule="evenodd" transform="translate(13 12)">
        <path fill="#3D9A8F" fill-rule="nonzero" d="M154.41 67.41c0 37.23-30.18 67.41-67.41 67.41s-67.41-30.18-67.41-67.41S49.77 0 87 0c37.227.006 67.404 30.183 67.41 67.41"/>
        <path fill="#FFF" fill-rule="nonzero" d="M98.62 110.5h-3v-6.1c.067-1.246-.398-2.462-1.279-3.347-.88-.884-2.094-1.354-3.341-1.293H30c-2.63 0-7.58-1.58-7.58-7.58S27.33 84.6 30 84.6h85.5c1.236.055 2.438-.413 3.313-1.287.874-.875 1.341-2.077 1.287-3.313v-6l3-.08V80c0 6-5 7.59-7.59 7.59H30c-1.707-.08-3.32.786-4.197 2.253-.878 1.467-.878 3.297 0 4.764.877 1.467 2.49 2.332 4.197 2.253h61c6 0 7.59 5 7.59 7.58l.03 6.06z"/>
        <rect width="34.61" height="41.69" x="49.66" y="38.97" fill="#FFF" fill-rule="nonzero" rx="2.24"/>
        <path fill="#FF8810" fill-rule="nonzero" d="M53.44 43.44H80.47999999999999V76.18H53.44z"/>
        <path fill="#79C6B3" fill-rule="nonzero" d="M65.19 45.19H71.2V47.01H65.19zM72.21 45.19H76.47999999999999V47.01H72.21z"/>
        <path fill="#79C6B3" fill-rule="nonzero" d="M65.19 48.26H75.21V49.26H65.19zM65.19 49.94H72.92999999999999V50.94H65.19zM65.19 51.62H73.74V52.62H65.19z" opacity=".63"/>
        <path fill="#FFF" fill-rule="nonzero" d="M63 52.76c-.284-.283-.67-.441-1.07-.44h-1.24c.38-.335.601-.814.61-1.32v-.45c.223-.059.379-.26.38-.49.005-.23-.154-.432-.38-.48V49h.09v-.06c-.032-.562-.497-1-1.06-1h-2.94c0 .286.116.56.32.76v.9c-.227.047-.39.248-.39.48.006.232.165.432.39.49V51c-.002.476.185.933.52 1.27l.08.07h-1.25c-.4.003-.783.16-1.07.44-.285.287-.444.676-.44 1.08v1.74h7.91v-1.77c-.003-.404-.169-.79-.46-1.07z"/>
        <path fill="#79C6B3" fill-rule="nonzero" d="M65.19 53.67H69.06V56.440000000000005H65.19zM69.86 53.67H73.74V56.440000000000005H69.86zM74.53 53.67H78.41V56.440000000000005H74.53zM55.55 57.33H63.459999999999994V59.199999999999996H55.55z"/>
        <path fill="#79C6B3" fill-rule="nonzero" d="M55.55 60.41H60.059999999999995V61.41H55.55zM55.55 62.18H61.51V63.18H55.55zM55.55 63.95H60.059999999999995V64.95H55.55zM55.55 65.73H61.79V66.73H55.55z" opacity=".63"/>
        <path fill="#79C6B3" fill-rule="nonzero" d="M55.55 67.86v4.86h7.91v-4.86h-7.91zm3.16 3.56v-2.26l1.95 1.13-1.95 1.13zM55.55 73.37H63.459999999999994V74.37H55.55zM65.19 57.33H78.41V58.33H65.19zM65.19 59.65H74.1V60.65H65.19z"/>
        <path fill="#79C6B3" fill-rule="nonzero" d="M65.19 61.34H78.41V64.88000000000001H65.19zM65.19 65.73H78.41V67.18H65.19z" opacity=".63"/>
        <path fill="#79C6B3" fill-rule="nonzero" d="M65.19 68.33H72.14V69.33H65.19z"/>
        <path fill="#79C6B3" fill-rule="nonzero" d="M65.19 70.01H78.41V71.46000000000001H65.19zM65.19 72.53H78.41V74.21000000000001H65.19z" opacity=".63"/>
        <path fill="#6F4158" fill-rule="nonzero" d="M68.27 78.41c0 .533-.324 1.013-.818 1.214-.495.2-1.061.08-1.433-.303-.37-.383-.473-.953-.257-1.44.215-.489.705-.797 1.238-.781.71.016 1.276.6 1.27 1.31z"/>
        <path fill="#7F7580" fill-rule="nonzero" d="M26.87 105.18H125.65V137.22H26.87z"/>
        <path fill="#FFF" fill-rule="nonzero" d="M29.8 107.71H34.51V112.64999999999999H29.8zM36.68 107.71H41.39V112.64999999999999H36.68zM43.57 107.71H48.28V112.64999999999999H43.57zM50.45 107.71H55.160000000000004V112.64999999999999H50.45zM57.34 107.71H62.050000000000004V112.64999999999999H57.34zM64.22 107.71H68.92999999999999V112.64999999999999H64.22zM71.11 107.71H75.82V112.64999999999999H71.11zM77.99 107.71H82.69999999999999V112.64999999999999H77.99zM84.88 107.71H89.58999999999999V112.64999999999999H84.88zM91.77 107.71H96.47999999999999V112.64999999999999H91.77zM98.65 107.71H103.36V112.64999999999999H98.65zM105.54 107.71H110.25V112.64999999999999H105.54zM112.42 107.71H117.13V112.64999999999999H112.42zM119.3 107.71H124.00999999999999V112.64999999999999H119.3zM29.8 116.26H34.51V121.2H29.8zM36.68 116.26H41.39V121.2H36.68zM43.57 116.26H48.28V121.2H43.57zM50.45 116.26H55.160000000000004V121.2H50.45zM57.34 116.26H62.050000000000004V121.2H57.34zM64.22 116.26H68.92999999999999V121.2H64.22zM71.11 116.26H75.82V121.2H71.11zM77.99 116.26H82.69999999999999V121.2H77.99zM84.88 116.26H89.58999999999999V121.2H84.88z"/>
        <path fill="#FFF" fill-rule="nonzero" d="M84.88 116.26H89.58999999999999V123.04H84.88zM105.54 116.26H110.25V121.2H105.54zM91.77 116.26H96.47999999999999V121.2H91.77zM98.65 116.26H103.36V121.2H98.65zM112.42 116.26H117.13V121.2H112.42zM119.3 116.26H124.00999999999999V121.2H119.3zM29.8 123.04H34.51V127.98H29.8zM36.68 123.04H41.39V127.98H36.68zM43.57 123.04H48.28V127.98H43.57zM50.45 123.04H55.160000000000004V127.98H50.45zM57.34 123.04H62.050000000000004V127.98H57.34zM64.22 123.04H68.92999999999999V127.98H64.22zM71.11 123.04H75.82V127.98H71.11zM77.99 123.04H82.69999999999999V127.98H77.99z"/>
        <path fill="#FFF" fill-rule="nonzero" d="M77.99 123.04H89.58999999999999V127.98H77.99zM98.65 123.04H103.36V127.98H98.65zM112.42 123.04H117.13V127.98H112.42zM119.3 123.04H124.00999999999999V127.98H119.3zM29.8 129.82H40.03V134.76H29.8zM43.57 129.82H75.82V134.76H43.57zM77.99 129.82H82.69999999999999V134.76H77.99zM84.88 129.82H89.58999999999999V134.76H84.88zM91.77 129.82H96.47999999999999V134.76H91.77zM98.65 129.82H103.36V134.76H98.65zM105.54 129.82H110.25V134.76H105.54zM112.42 129.82H117.13V134.76H112.42zM119.3 129.82H124.00999999999999V134.76H119.3z"/>
        <rect width="64.36" height="48.16" x="89.02" y="23.32" fill="#46293A" fill-rule="nonzero" rx="3.32"/>
        <path fill="#FFF" fill-rule="nonzero" d="M85.74 71.48H156.66V78.12H85.74z"/>
        <path fill="#DDD691" fill-rule="nonzero" d="M95.26 29.28H147.01V66.22H95.26z"/>
        <path fill="#EFE76C" fill-rule="nonzero" d="M147.01 29.28L147.01 66.22 95.26 66.22z"/>
        <path fill="#46293A" fill-rule="nonzero" d="M122.87 26.38c0 .878-.712 1.59-1.59 1.59-.878 0-1.59-.712-1.59-1.59 0-.878.712-1.59 1.59-1.59.878 0 1.59.712 1.59 1.59z"/>
        <path fill="#98A6A1" fill-rule="nonzero" d="M87.7 60.31v4H89v3h-6.59V33.23c.006-1.835 1.495-3.32 3.33-3.32H89v30.4h-1.3z" style="mix-blend-mode:multiply"/>
        <path fill="#98A6A1" fill-rule="nonzero" d="M123.05 78.19V80c.02 1.142-.198 2.276-.64 3.33h-3.52c.845-.896 1.283-2.1 1.21-3.33v-1.81h2.95z" opacity=".63" style="mix-blend-mode:multiply"/>
        <path fill="#8A76B7" fill-rule="nonzero" d="M24.07 97.59v.06s-4.4 1.23-4.8 5.16l19.86 24.66c1.927-1.425 3.71-3.036 5.32-4.81l.73-1.06.63-.9c.21-.3.4-.59.58-.87.376-.561.71-1.15 1-1.76C43.46 112.71 28.05 93 28.05 93c-1.13-.43-5.61-1.53-9.26-2.4-2.48-.6-4.81-1.13-4.87-1.15-.06-.02.23 2.41.38 5.38.28 3.82.65 8.45.89 9.83v.23c.61.84 15.67 19.46 20 24.65 1.378-.502 2.688-1.174 3.9-2l-19.87-24.73c.104-1.114.564-2.166 1.31-3 .959-.996 2.152-1.735 3.47-2.15l.07-.07zm-6.64 5.43h-.12.12zm.31-.1h-.12.12zm.29-.07h-.11.11zm-1.06.42l.14-.06-.14.06zm-.34.18l.14-.08-.14.08zm-.36.23l.14-.1-.14.1zm-.09-9.74c-.487.342-1.023.608-1.59.79.564-.215 1.098-.5 1.59-.85v.06z"/>
        <path fill="#FCBA96" fill-rule="nonzero" d="M24 97.66s-4.4 1.22-4.8 5.16c0 0-2-.48-4.08 1.78-.24-1.38-.61-6-.89-9.83 2.07-.639 3.729-2.201 4.49-4.23 3.65.87 8.13 2 9.26 2.4-1.88 1.009-3.303 2.697-3.98 4.72z"/>
        <path fill="#F28F63" fill-rule="nonzero" d="M17.54 92.11L24.22 97.71 28.02 92.94 18.76 90.54z"/>
        <path fill="#35228C" fill-rule="nonzero" d="M47.35 118.07C42.88 112 28.05 93 28.05 93s15.41 19.71 19.3 25.07zM24.74 96.14c-.003.023-.003.047 0 .07l20.44 25.4-.73 1.06L24.08 97.6c.167-.509.389-.998.66-1.46zM46.34 119.83c-.18.28-.37.57-.58.87.163-.31.357-.6.58-.87z"/>
        <path fill="#210F80" fill-rule="nonzero" d="M24.73 96.13c.706-1.397 1.856-2.52 3.27-3.19-1.36.745-2.492 1.848-3.27 3.19z"/>
        <path fill="#210F80" fill-rule="nonzero" d="M24.73 96.13c.778-1.342 1.91-2.445 3.27-3.19 0 0 14.83 19 19.3 25.11-.29.61-.624 1.199-1 1.76-.223.27-.417.56-.58.87l-.63.9-20.4-25.37.04-.08z"/>
        <path fill="#442F92" fill-rule="nonzero" d="M19.25 102.82c.4-3.93 4.8-5.16 4.8-5.16v-.06l20.33 25.07c-1.617 1.768-3.399 3.378-5.32 4.81l-19.83-24.66h.02z"/>
        <path fill="#483D99" fill-rule="nonzero" d="M15.2 104.83v-.23c.953-1.258 2.488-1.934 4.06-1.79l19.86 24.66c-1.226.802-2.533 1.473-3.9 2-4.35-5.18-19.41-23.8-20.02-24.64z"/>
        <path fill="#5D53A4" fill-rule="nonzero" d="M18.61 103.74s18.62 22.92 18.6 23.08c-.02.16-2 2-2.17 1.8-.17-.2-19.04-23.62-19.16-23.85-.12-.23 1.46-1.4 2.73-1.03z"/>
        <path fill="#E36F41" fill-rule="nonzero" d="M28 92.94c-.747.565-1.404 1.24-1.95 2-.256.359-.49.733-.7 1.12-.222.432-.412.88-.57 1.34l-.26.75c-.18.06-.36.11-.53.18-.093.032-.183.073-.27.12-.168.07-.332.15-.49.24-.47.23-.913.512-1.32.84-.41.301-.778.658-1.09 1.06-.302.381-.551.802-.74 1.25l-.13.35c0 .15-.09.41-.13.59l-.39.31-.42.21H18.18l-.6.07c-.645.13-1.257.388-1.8.76-.164.103-.32.217-.47.34l-.17.13.11-.18c.097-.175.207-.342.33-.5.448-.607 1.053-1.08 1.75-1.37.23-.095.468-.171.71-.23l.39-.07h.29v-.09c-.008-.066-.008-.134 0-.2l.12-.46c.174-.604.459-1.17.84-1.67.371-.53.816-1.005 1.32-1.41.498-.386 1.034-.721 1.6-1 .2-.09.39-.17.59-.24l.28-.09s0 .06.09-.17c.231-.507.513-.99.84-1.44.297-.398.632-.767 1-1.1.53-.494 1.134-.902 1.79-1.21.263-.098.534-.175.81-.23z"/>
        <path fill="#5E459D" fill-rule="nonzero" d="M14.27 94.77c-.15-3-.31-5.42-.38-5.38-.07.04 2.39.55 4.87 1.15 1.09.26-1.91 3.54-4.49 4.23z"/>
        <path fill="#8A76B7" fill-rule="nonzero" d="M14.3 90l.46 4.09s1.81-.7 1.9-1.34c.11-.91-2.2-2.75-2.36-2.75z"/>
        <path fill="#FC4735" fill-rule="nonzero" d="M13.46 119.41v.06c0 .06-4.39 2.58-3.65 6l28.86 13.29c1.624-1.82 3.073-3.79 4.33-5.88.17-.42.32-.79.47-1.14.14-.35.28-.67.4-1 .12-.33.26-.64.38-.93.232-.588.42-1.193.56-1.81-5.81-3-28.38-13.87-28.38-13.87h-.05c-1.35 0-6.51.74-10.73 1.32-2.86.39-5.53.78-5.6.79.742 1.4 1.41 2.84 2 4.31 1.45 3.06 3.23 6.75 3.9 7.81.044.054.084.11.12.17C7 129 28.8 139 35 141.79c1.312-.865 2.526-1.871 3.62-3L9.78 125.46c-.205-1-.019-2.042.52-2.91.799-1.24 1.865-2.286 3.12-3.06.005-.03.019-.058.04-.08zm-5.55 6.85l-.13.09.13-.09zm.3-.19l-.12.07.12-.07zm.29-.16l-.11.06.11-.06zm-1.03.71l.13-.09-.13.09zm-.32.28l.13-.11-.13.11zm-.32.32c.04-.046.084-.09.13-.13-.045.028-.088.058-.13.09v.04zm-3-8c-.438.47-.935.88-1.48 1.22.533-.375 1.026-.804 1.47-1.28l.01.06z"/>
        <path fill="#FCBA96" fill-rule="nonzero" d="M13.45 119.48s-4.39 2.58-3.64 6c-1.654.385-3.068 1.454-3.89 2.94-.67-1.06-2.45-4.75-3.9-7.81 1.92-1.052 3.243-2.936 3.58-5.1 4.22-.58 9.38-1.27 10.73-1.32-1.612 1.32-2.646 3.219-2.88 5.29z"/>
        <path fill="#F28F63" fill-rule="nonzero" d="M4.76 117.21L13.66 119.46 16.34 114.16 5.6 115.48z"/>
        <path fill="#950A01" fill-rule="nonzero" d="M44.76 128c-6.66-3.43-28.38-13.87-28.38-13.87S39 125 44.76 128zM13.74 118c.003.023.003.047 0 .07l29.71 13.69c-.15.35-.3.72-.47 1.14l-29.51-13.48c.032-.482.123-.96.27-1.42zM44.2 129.84c-.12.29-.24.6-.38.93.09-.323.218-.636.38-.93z"/>
        <path fill="#790001" fill-rule="nonzero" d="M13.73 118c.429-1.52 1.342-2.857 2.6-3.81-1.19 1.017-2.087 2.332-2.6 3.81z"/>
        <path fill="#790001" fill-rule="nonzero" d="M13.73 118c.513-1.478 1.41-2.793 2.6-3.81h.05S38.1 124.6 44.76 128c-.14.617-.328 1.222-.56 1.81-.162.294-.29.607-.38.93-.12.3-.26.62-.4 1l-29.71-13.69s.01-.05.02-.05z"/>
        <path fill="#B31301" fill-rule="nonzero" d="M9.81 125.45c-.74-3.39 3.65-6 3.65-6v-.06L43 132.88c-1.256 2.083-2.698 4.048-4.31 5.87l-28.9-13.29.02-.01z"/>
        <path fill="#FE1E10" fill-rule="nonzero" d="M6 128.56c-.036-.06-.076-.116-.12-.17.806-1.486 2.212-2.554 3.86-2.93l28.85 13.28c-1.107 1.115-2.32 2.12-3.62 3C28.8 139 7 129 6 128.56z"/>
        <path fill="#FC271E" fill-rule="nonzero" d="M9.4 126.44s27 12.29 27 12.43c0 .14-1.57 2.33-1.82 2.27-.25-.06-27.64-12.76-27.83-12.87-.19-.11 1.17-1.68 2.65-1.83z"/>
        <path fill="#E36F41" fill-rule="nonzero" d="M16.34 114.16c-.62.734-1.138 1.548-1.54 2.42-.179.406-.33.823-.45 1.25-.132.477-.213.966-.24 1.46l-.06.57-.53.35-.25.2c-.17.13-.34.27-.5.42-.416.354-.797.745-1.14 1.17-.345.38-.634.808-.86 1.27-.22.42-.355.878-.4 1.35v.2c-.008.127-.008.253 0 .38 0 .27 0 .54.06.77l-.65.11c-.162.026-.323.062-.48.11-.418.116-.826.267-1.22.45-.604.302-1.155.7-1.63 1.18-.18.17-.31.33-.4.43l-.14.17.07-.2c.064-.195.14-.385.23-.57.334-.676.816-1.267 1.41-1.73.396-.323.838-.586 1.31-.78.05-.014.098-.038.14-.07v-.11c-.005-.026-.005-.054 0-.08v-.28c-.005-.657.138-1.307.42-1.9.258-.58.595-1.122 1-1.61.412-.468.864-.9 1.35-1.29l.6-.42.31-.2h.05c.093-.552.258-1.09.49-1.6.207-.457.458-.892.75-1.3.437-.59.956-1.115 1.54-1.56.236-.21.49-.397.76-.56z"/>
        <path fill="#D32A10" fill-rule="nonzero" d="M2 120.58c-.59-1.47-1.258-2.91-2-4.31.07 0 2.74-.4 5.6-.79 1.26-.18-1 3.61-3.6 5.1z"/>
        <path fill="#FC4735" fill-rule="nonzero" d="M.62 116.62l1.72 3.22s1.76-1.23 1.66-1.79c-.16-.79-3.21-1.5-3.38-1.43z"/>
        <path fill="#0D110B" fill-rule="nonzero" d="M43.67 123.84c-2.628-4.95-2.265-10.953.94-15.55 0 0-1.77-2.54-3.42-1.82 0 0-5.3 11 1.18 18.25l1.3-.88z"/>
        <path fill="#AD0700" fill-rule="nonzero" d="M42.25 123.84s2.36-8.51 13.31-9.6c10.95-1.09 16.24 10.67 12.71 21.47-3.53 10.8-8.57 18-12.47 18.18-2.263.103-4.499-.532-6.37-1.81-.831 2.34-2.774 4.114-5.18 4.73-4.12 1.09-13.54-3.7-18.83-12.71-5.29-9.01-4.71-30.67 16.83-20.26z"/>
        <path fill="#F00700" fill-rule="nonzero" d="M43.73 125.36c1.9-3 8.5-9.45 16-7.2 7.5 2.25 8.4 11.34 4.72 20.05-3.68 8.71-11.2 13.49-15.42 10.5 0 0-6.27 6-11.05 2-4.78-4-14.19-17.46-8.7-24.91 3.64-4.86 14.45-.44 14.45-.44z"/>
        <path fill="#FD1A18" fill-rule="nonzero" d="M54.92 119.61c2.716-.423 5.47.473 7.417 2.413 1.948 1.939 2.855 4.69 2.443 7.407-1.15 6.53-14.2 5.12-16.47.64-2.27-4.48.21-9.46 6.61-10.46zM36.72 128.18c.6-1.622 2.317-2.54 4-2.14 1.468.433 2.505 1.742 2.59 3.27.115 1.35-.596 2.638-1.8 3.26-1.233.681-2.765.496-3.8-.46-.477-.456-.8-1.05-.92-1.7 0-.07-.05-.12-.07-.19-.225-.661-.225-1.379 0-2.04z"/>
        <text fill="#FFF" font-family="Montserrat-Regular, Montserrat" font-size="23.9">
            <tspan x="110.24" y="54.03">@</tspan>
        </text>
    </g>
</svg>
