<svg xmlns="http://www.w3.org/2000/svg" width="180" height="180" viewBox="0 0 180 180">
    <g fill="none" transform="translate(23 23)">
        <path fill="#8D2A91" d="M134.831 66.91c.004 27.068-16.299 51.473-41.306 61.834-25.008 10.361-53.795 4.638-72.937-14.5C1.446 95.106-4.282 66.321 6.076 41.314 16.434 16.305 40.838 0 67.907 0c36.955.005 66.913 29.958 66.924 66.91"/>
        <path fill="#FFF" d="M89.02 33.143L4.825 51.615c-.972.184-1.825.759-2.362 1.59-.536.83-.709 1.845-.477 2.807l13.897 53.68c.589 2.026 2.66 3.238 4.715 2.759l84.236-18.452c.977-.185 1.835-.762 2.374-1.597.538-.835.71-1.855.475-2.82l-13.897-53.68c-.589-2.05-2.693-3.269-4.764-2.76zm10.225 58.563l-75.421 16.487L9.797 54.057 85.18 37.54l14.066 54.166z"/>
        <path fill="#CECDC4" d="M14.75 89.462l-.317.07c-.5.105-.999-.187-1.151-.675L9.857 75.695c-.056-.236-.013-.484.118-.688.13-.204.339-.346.577-.394l.367-.07c.497-.099.99.192 1.142.676l3.424 13.171c.056.241.008.494-.132.697-.14.204-.358.34-.602.375zM98.977 62.97c.152.63.039 1.296-.314 1.84-.353.545-.914.92-1.552 1.039-1.34.308-2.688-.48-3.078-1.797-.155-.632-.043-1.3.31-1.847.353-.547.916-.924 1.557-1.041 1.343-.313 2.695.481 3.077 1.806z"/>
        <path fill="#201C1E" d="M99.483 92.252L24.022 108.788 9.778 53.957 85.239 37.421z"/>
        <path fill="#65615E" d="M63.946 70.285c.58 2.36.163 4.852-1.151 6.895-1.314 2.042-3.41 3.454-5.797 3.905-5.019 1.156-10.066-1.812-11.495-6.76-.58-2.358-.163-4.851 1.151-6.894 1.314-2.042 3.41-3.455 5.797-3.905 5.02-1.156 10.066 1.812 11.495 6.76z"/>
        <path fill="#FFF" d="M51.191 68.052L53.663 77.561 59.34 71.298zM29.114 103.379L29.879 106.297 27.189 105.344zM27.347 107.051L26.732 107.18 25.878 103.895 26.494 103.756zM37.83 101.463L38.594 104.391 40.51 102.426zM32.38 102.664L33.135 105.582 35.06 103.617zM41.215 104.014L41.83 103.875 40.967 100.579 40.361 100.718zM98.004 86.544L22.732 103.031 22.543 102.307 97.815 85.81z"/>
        <path fill="#FB3C36" d="M46.545 97.82L22.732 103.031 22.543 102.307 46.357 97.085z"/>
        <path fill="#FFF" d="M91.989 92.311l-4.22.923-.664-2.56 4.219-.934.665 2.571zm-3.971.477l3.454-.755-.476-1.836-3.454.764.476 1.827zM94.679 91.706L94.431 90.763 94.043 90.842 94.391 92.162 95.85 91.845 95.761 91.477zM97.369 91.12L96.356 91.348 96.456 91.706 97.845 91.408 97.508 90.088 97.121 90.167zM94.014 89.155L95.096 88.916 94.996 88.549 93.537 88.867 93.894 90.276 94.282 90.187zM96.704 88.559L96.972 89.601 97.359 89.522 96.992 88.112 95.602 88.42 95.691 88.787zM85.824 92.55c.005-.067.005-.133 0-.2-.032-.136-.086-.266-.159-.386-.043.025-.09.045-.139.06-.216.04-.43-.088-.496-.299-.03-.115 0-.238.08-.327-.101-.06-.208-.11-.318-.149-.056.096-.15.165-.258.189-.21.046-.42-.074-.487-.278-.139.009-.276.04-.407.089.01.04.01.08 0 .12-.03.215-.23.366-.446.337-.068-.009-.132-.032-.189-.07-.107.12-.197.253-.268.397.045.053.079.113.1.179.045.19-.062.385-.249.447-.014.131-.014.265 0 .397 0 .06 0 .119.07.188.21-.045.418.081.476.288.03.105.012.218-.05.308.127.107.267.197.417.268.05-.046.113-.076.18-.09.197-.046.401.053.486.239.138.018.278.018.416 0h.19c-.021-.102 0-.207.058-.293.057-.086.147-.145.249-.164.11-.026.225-.004.317.06.148-.145.26-.322.328-.517-.098-.046-.17-.133-.199-.238-.055-.112-.053-.244.006-.354.06-.11.168-.186.292-.202zm-1.449.754c-.324.07-.649-.12-.744-.437-.039-.153-.013-.315.072-.448.084-.133.22-.226.374-.257.324-.071.649.12.745.437.038.153.012.315-.072.448-.085.133-.22.226-.375.257z"/>
        <path fill="#311C29" d="M102.173 95.557c-.05 2.564.92 5.043 2.698 6.892 1.778 1.848 4.218 2.915 6.782 2.964h10.333c5.337-.108 9.575-4.52 9.47-9.856.05-2.562-.919-5.038-2.695-6.885-1.776-1.847-4.213-2.912-6.775-2.962h-10.333c-5.336.104-9.58 4.51-9.48 9.847z"/>
        <path fill="#5EB7AB" d="M91.72 95.557c0 9.926 7.763 18.045 17.342 18.045 9.58 0 17.352-8.07 17.352-18.045 0-9.976-7.773-18.036-17.352-18.036s-17.341 8.07-17.341 18.036z"/>
        <ellipse cx="109.062" cy="95.557" fill="#FFF" rx="15.356" ry="15.971"/>
        <path fill="#BBD3CA" d="M93.706 95.567c0 8.824 6.869 15.98 15.356 15.98 4.104-.007 8.026-1.697 10.85-4.675l-21.71-22.591c-2.903 3.038-4.515 7.084-4.496 11.286z" style="mix-blend-mode:multiply"/>
        <path fill="#FF9212" d="M103.076 95.557c.147 3.25 2.875 5.781 6.127 5.685 3.252-.097 5.825-2.785 5.779-6.038-.047-3.254-2.696-5.867-5.95-5.87-3.357.086-6.017 2.865-5.956 6.223z"/>
        <path fill="#FFF" d="M108.248 93.9c.049 1.143 1.007 2.036 2.152 2.003 1.144-.032 2.05-.977 2.035-2.122-.016-1.144-.947-2.064-2.092-2.065-.568.01-1.108.246-1.502.656-.393.41-.606.96-.593 1.527z"/>
        <path fill="#A3DBC2" d="M96.793 82.812l1.41 1.469c2.824-2.985 6.75-4.679 10.86-4.685 8.476 0 15.355 7.157 15.355 15.97.018 4.208-1.598 8.257-4.506 11.297l1.42 1.459c3.272-3.442 5.09-8.015 5.072-12.765 0-9.926-7.763-18.045-17.342-18.045-4.643.013-9.077 1.929-12.269 5.3z" style="mix-blend-mode:multiply"/>
        <path fill="#FFF" d="M97.726 95.567c-.017 3.053 1.154 5.993 3.266 8.199l2.313-2.402c-3.072-3.258-3.072-8.346 0-11.604l-2.313-2.412c-2.114 2.212-3.285 5.16-3.266 8.219zm0 0c-.017 3.053 1.154 5.993 3.266 8.199l2.313-2.402c-3.072-3.258-3.072-8.346 0-11.604l-2.313-2.412c-2.114 2.212-3.285 5.16-3.266 8.219zm0 0c-.017 3.053 1.154 5.993 3.266 8.199l2.313-2.402c-3.072-3.258-3.072-8.346 0-11.604l-2.313-2.412c-2.114 2.212-3.285 5.16-3.266 8.219zm0 0c-.017 3.053 1.154 5.993 3.266 8.199l2.313-2.402c-3.072-3.258-3.072-8.346 0-11.604l-2.313-2.412c-2.114 2.212-3.285 5.16-3.266 8.219zm0 0c-.017 3.053 1.154 5.993 3.266 8.199l2.313-2.402c-3.072-3.258-3.072-8.346 0-11.604l-2.313-2.412c-2.114 2.212-3.285 5.16-3.266 8.219zm0 0c-.017 3.053 1.154 5.993 3.266 8.199l2.313-2.402c-3.072-3.258-3.072-8.346 0-11.604l-2.313-2.412c-2.114 2.212-3.285 5.16-3.266 8.219zm0 0c-.017 3.053 1.154 5.993 3.266 8.199l2.313-2.402c-3.072-3.258-3.072-8.346 0-11.604l-2.313-2.412c-2.114 2.212-3.285 5.16-3.266 8.219zm0 0c-.017 3.053 1.154 5.993 3.266 8.199l2.313-2.402c-3.072-3.258-3.072-8.346 0-11.604l-2.313-2.412c-2.114 2.212-3.285 5.16-3.266 8.219zm0 0c-.017 3.053 1.154 5.993 3.266 8.199l2.313-2.402c-3.072-3.258-3.072-8.346 0-11.604l-2.313-2.412c-2.114 2.212-3.285 5.16-3.266 8.219zm0 0c-.017 3.053 1.154 5.993 3.266 8.199l2.313-2.402c-3.072-3.258-3.072-8.346 0-11.604l-2.313-2.412c-2.114 2.212-3.285 5.16-3.266 8.219zm0 0c-.017 3.053 1.154 5.993 3.266 8.199l2.313-2.402c-3.072-3.258-3.072-8.346 0-11.604l-2.313-2.412c-2.114 2.212-3.285 5.16-3.266 8.219zm0 0c-.017 3.053 1.154 5.993 3.266 8.199l2.313-2.402c-3.072-3.258-3.072-8.346 0-11.604l-2.313-2.412c-2.114 2.212-3.285 5.16-3.266 8.219zm0 0c-.017 3.053 1.154 5.993 3.266 8.199l2.313-2.402c-3.072-3.258-3.072-8.346 0-11.604l-2.313-2.412c-2.114 2.212-3.285 5.16-3.266 8.219zm0 0c-.017 3.053 1.154 5.993 3.266 8.199l2.313-2.402c-3.072-3.258-3.072-8.346 0-11.604l-2.313-2.412c-2.114 2.212-3.285 5.16-3.266 8.219zm0 0c-.017 3.053 1.154 5.993 3.266 8.199l2.313-2.402c-3.072-3.258-3.072-8.346 0-11.604l-2.313-2.412c-2.114 2.212-3.285 5.16-3.266 8.219zm0 0c-.017 3.053 1.154 5.993 3.266 8.199l2.313-2.402c-3.072-3.258-3.072-8.346 0-11.604l-2.313-2.412c-2.114 2.212-3.285 5.16-3.266 8.219zm0 0c-.017 3.053 1.154 5.993 3.266 8.199l2.313-2.402c-3.072-3.258-3.072-8.346 0-11.604l-2.313-2.412c-2.114 2.212-3.285 5.16-3.266 8.219zm0 0c-.017 3.053 1.154 5.993 3.266 8.199l2.313-2.402c-3.072-3.258-3.072-8.346 0-11.604l-2.313-2.412c-2.114 2.212-3.285 5.16-3.266 8.219zm0 0c-.017 3.053 1.154 5.993 3.266 8.199l2.313-2.402c-3.072-3.258-3.072-8.346 0-11.604l-2.313-2.412c-2.114 2.212-3.285 5.16-3.266 8.219zm0 0c-.017 3.053 1.154 5.993 3.266 8.199l2.313-2.402c-3.072-3.258-3.072-8.346 0-11.604l-2.313-2.412c-2.114 2.212-3.285 5.16-3.266 8.219zm0 0c-.017 3.053 1.154 5.993 3.266 8.199l2.313-2.402c-3.072-3.258-3.072-8.346 0-11.604l-2.313-2.412c-2.114 2.212-3.285 5.16-3.266 8.219zm0 0c-.017 3.053 1.154 5.993 3.266 8.199l2.313-2.402c-3.072-3.258-3.072-8.346 0-11.604l-2.313-2.412c-2.114 2.212-3.285 5.16-3.266 8.219zm0 0c-.017 3.053 1.154 5.993 3.266 8.199l2.313-2.402c-3.072-3.258-3.072-8.346 0-11.604l-2.313-2.412c-2.114 2.212-3.285 5.16-3.266 8.219zM85.566 95.567c-.024 6.384 2.427 12.528 6.84 17.142l2.144-2.233c-7.896-8.356-7.896-21.422 0-29.778l-2.144-2.283c-4.414 4.617-6.866 10.765-6.84 17.152z"/>
        <path fill="#FFF" d="M91.641 95.567c-.008 4.703 1.802 9.227 5.053 12.626l2.154-2.224c-5.531-5.847-5.531-14.997 0-20.844l-2.154-2.244c-3.258 3.419-5.068 7.964-5.053 12.686z" opacity=".67"/>
        <path fill="#FFF" d="M91.641 95.567c-.008 4.703 1.802 9.227 5.053 12.626l2.154-2.224c-5.531-5.847-5.531-14.997 0-20.844l-2.154-2.244c-3.258 3.419-5.068 7.964-5.053 12.686z"/>
    </g>
</svg>
