<svg xmlns="http://www.w3.org/2000/svg" width="180" height="180" viewBox="0 0 180 180">
    <defs>
        <linearGradient id="prefix__a" x1="-4.102%" x2="85.213%" y1="-7.135%" y2="96.297%">
            <stop offset="0%" stop-color="#FFF"/>
            <stop offset="100%" stop-color="#D31718"/>
        </linearGradient>
        <linearGradient id="prefix__b" x1="1040.411%" x2="1041.272%" y1="-285.535%" y2="-175.349%">
            <stop offset="0%" stop-color="#FFF"/>
            <stop offset="100%" stop-color="#D31718"/>
        </linearGradient>
        <linearGradient id="prefix__c" x1="95.786%" x2="14.72%" y1="-9.314%" y2="94.856%">
            <stop offset="0%" stop-color="#FFF"/>
            <stop offset="100%" stop-color="#53AE25"/>
        </linearGradient>
        <linearGradient id="prefix__d" x1="95.973%" x2="14.897%" y1="-9.34%" y2="94.842%">
            <stop offset="0%" stop-color="#FFF"/>
            <stop offset="100%" stop-color="#088838"/>
        </linearGradient>
    </defs>
    <g fill="none" fill-rule="evenodd">
        <path fill="#5A59A7" fill-rule="nonzero" d="M135.83 67.41c.004 27.27-16.42 51.857-41.613 62.295-25.192 10.439-54.193 4.673-73.477-14.608C1.456 95.815-4.314 66.817 6.121 41.622 16.556 16.427 41.141 0 68.41 0c37.231 0 67.414 30.179 67.42 67.41" transform="translate(23 13)"/>
        <path stroke="#FFF" stroke-linecap="round" stroke-linejoin="round" stroke-width="1.06" d="M101.38 148.14L105.05 151.05 101.38 153.96" transform="translate(23 13)"/>
        <path fill="#B7B1AA" fill-rule="nonzero" d="M82.25 89.29s-.53-3.18-.56-3.27c-.125-.267-.331-.488-.59-.63-.343-.164-.72-.246-1.1-.24l-31-2 .51 1.29 28.38 2.36c.71.12 2.6 2.82 4.36 2.49z" transform="translate(23 13)"/>
        <path fill="#DDDBD4" fill-rule="nonzero" d="M80.26 88.6s-.21-1.35-.23-1.44c-.129-.268-.339-.488-.6-.63-.336-.163-.706-.246-1.08-.24l-31-2 .51 1.29 28.38 2.36c.69.12 2.27 1 4.02.66z" transform="translate(23 13)"/>
        <path fill="#FDFEFF" fill-rule="nonzero" d="M79 88.59c.004-.063.004-.127 0-.19-.128-.265-.334-.485-.59-.63-.34-.162-.713-.244-1.09-.24l-31-2 .51 1.29 28.71 1.46c1.135.253 2.298.358 3.46.31z" transform="translate(23 13)"/>
        <path fill="#B7B1AA" fill-rule="nonzero" d="M84.41 89.41s-1.82-2.76-1.86-2.85c-.096-.265-.096-.555 0-.82.151-.322.386-.599.68-.8l22.68-19 .51 1.3L86 85c-.41.53 0 3.69-1.59 4.41z" transform="translate(23 13)"/>
        <path fill="#DDDBD4" fill-rule="nonzero" d="M85.47 87.77s-.78-1.17-.82-1.25c-.095-.268-.095-.562 0-.83.15-.32.385-.594.68-.79l22.68-19 .51 1.29L88.1 85c-.41.48-1.02 2-2.63 2.77z" transform="translate(23 13)"/>
        <path fill="#FDFEFF" fill-rule="nonzero" d="M86.49 87c-.037-.054-.07-.111-.1-.17-.09-.27-.09-.56 0-.83.15-.32.385-.594.68-.79l22.68-19 .52 1.3L89 84.81c-.732.842-1.576 1.58-2.51 2.19z" transform="translate(23 13)"/>
        <path fill="#E92928" fill-rule="nonzero" d="M111.73 66.38c-.628-.118-1.275.072-1.74.51L88 84.74l17.6 44.52 24.11-19.41-16.57-41.94c-.086-.763-.657-1.382-1.41-1.53z" transform="translate(23 13)"/>
        <path fill="#D31718" fill-rule="nonzero" d="M76.09 88.13l-29.35-1.49c-.68.126-1.312.433-1.83.89-.293.552-.418 1.178-.36 1.8C50 103.69 56 117.69 61.43 132l31.4 1.36c.412.225.836.43 1.27.61-2.97-6.73-15.46-39.2-18.01-45.84z" transform="translate(23 13)"/>
        <path fill="#363595" fill-rule="nonzero" d="M75.82 88.32h.02" transform="translate(23 13)"/>
        <path fill="#AC0704" fill-rule="nonzero" d="M111.73 66.39c-.63-.136-1.287.051-1.75.5L88 84.74l.57 1.44 23.81-19.5c-.194-.141-.415-.24-.65-.29zM76.09 88.13l-29.36-1.49c-.677.134-1.307.44-1.83.89-.046.08-.086.164-.12.25l31.86 1.8c-.21-.58-.4-1.05-.55-1.45z" transform="translate(23 13)"/>
        <path fill="#C00F07" fill-rule="nonzero" d="M88.24 84.77l-.89.73c-1.33 1.19-2.903 2.078-4.61 2.6-2.242.673-4.62.75-6.9.22L94 134.26c2.453.972 5.197.892 7.59-.22 1.884-.94 3.321-2.586 4-4.58l.09-.07c-3.49-8.34-14.99-38.24-17.44-44.62z" transform="translate(23 13)"/>
        <path fill="#F6F407" fill-rule="nonzero" d="M86 100c2.449-.72 4.725-1.932 6.69-3.56-.77-2-1.46-3.79-2-5.32-1.78 1.292-3.768 2.267-5.88 2.88-2.101.624-4.29.9-6.48.82l2.37 6c1.795-.042 3.576-.318 5.3-.82zM97.65 129.24c-1.723.505-3.505.777-5.3.81l.8 2c1.795-.038 3.577-.314 5.3-.82 2.41-.714 4.653-1.9 6.6-3.49l-.81-2c-1.94 1.596-4.181 2.786-6.59 3.5zM90.16 124.51l1.17 2.95c1.8 0 3.592-.256 5.32-.76 2.411-.706 4.642-1.924 6.54-3.57l-1.19-2.94c-1.9 1.644-4.13 2.861-6.54 3.57-1.721.504-3.506.757-5.3.75z" transform="translate(23 13)"/>
        <path fill="#C00F07" fill-rule="nonzero" d="M95 87.24L98.03 94.93 114.38 82.02 111.31 74.25z" transform="translate(23 13)"/>
        <path stroke="#AC0704" stroke-linecap="round" stroke-linejoin="round" stroke-width="2.89" d="M76.09 89c2.2.54 4.503.513 6.69-.08 2.193-.593 4.174-1.796 5.71-3.47" transform="translate(23 13)"/>
        <path fill="url(#prefix__a)" fill-rule="nonzero" d="M62.77 131.36c-.268.093-.562-.033-.68-.29L45.71 89.63c-.051-.122-.049-.26.006-.379.055-.12.158-.21.284-.251.268-.093.562.033.68.29l16.38 41.44c.051.122.049.26-.006.379-.055.12-.158.21-.284.251z" opacity=".64" transform="translate(23 13)"/>
        <path fill="url(#prefix__b)" fill-rule="nonzero" d="M128.74 110.55c-.268.093-.562-.033-.68-.29l-16.38-41.44c-.044-.123-.034-.259.027-.375.06-.116.167-.2.293-.235.268-.093.562.033.68.29l16.38 41.5c.058.24-.083.482-.32.55z" opacity=".64" transform="translate(23 13)"/>
        <path fill="#C00F07" fill-rule="nonzero" d="M90.79 124.32l-.25.08c-.201.066-.42-.029-.51-.22l-9-22.76c-.031-.093-.023-.194.022-.281.045-.087.124-.151.218-.179l.26-.08c.198-.06.41.033.5.22l9 22.76c.034.093.028.196-.018.283-.046.088-.126.152-.222.177zM105.58 130.36c-.265.092-.556-.034-.67-.29L88.53 88.62c-.047-.123-.039-.26.023-.377.06-.117.17-.201.297-.233.267-.085.556.044.67.3l16.38 41.44c.047.123.039.26-.023.377-.06.117-.17.201-.297.233z" opacity=".64" transform="translate(23 13)"/>
        <path fill="#B7B1AA" fill-rule="nonzero" d="M52.65 52.68s1.79-3 1.83-3.09c.077-.287.049-.592-.08-.86-.184-.33-.458-.6-.79-.78L27.5 29.76l-.5 1.38 23.6 17.09c.48.49.24 3.77 2.05 4.45z" transform="translate(23 13)"/>
        <path fill="#DDDBD4" fill-rule="nonzero" d="M51.38 51.05s.77-1.28.81-1.36c.078-.287.05-.592-.08-.86-.184-.33-.458-.6-.79-.78l-26.11-18.2-.46 1.39 23.56 17.09c.49.49 1.26 2.07 3.07 2.72z" transform="translate(23 13)"/>
        <path fill="#FDFEFF" fill-rule="nonzero" d="M50.22 50.34s.05-.09.09-.18c.08-.286.056-.591-.07-.86-.193-.326-.469-.595-.8-.78l-26.1-18.19-.47 1.38L47.35 48.2c.852.844 1.818 1.564 2.87 2.14z" transform="translate(23 13)"/>
        <path fill="#B7B1AA" fill-rule="nonzero" d="M54.49 53.94s.35-3.34.37-3.43c.121-.29.331-.536.6-.7.36-.198.76-.307 1.17-.32l33.68-4.25-.47 1.38L59 51c-.7.23-2.57 3.17-4.51 2.94z" transform="translate(23 13)"/>
        <path fill="#DDDBD4" fill-rule="nonzero" d="M56.6 53.09s.13-1.42.15-1.51c.128-.29.34-.534.61-.7.359-.199.76-.309 1.17-.32l33.67-4.25-.46 1.39-30.82 4.4c-.72.21-2.38 1.22-4.32.99z" transform="translate(23 13)"/>
        <path fill="#FDFEFF" fill-rule="nonzero" d="M58 53v-.2c.127-.293.34-.54.61-.71.356-.194.754-.3 1.16-.31l33.68-4.25-.45 1.38-31.18 3.49c-1.244.357-2.527.558-3.82.6z" transform="translate(23 13)"/>
        <path fill="#2C5818" fill-rule="nonzero" d="M95.18 48.67c-.518-.466-1.232-.649-1.91-.49L61 51.84 45 99.43l35.26-3.88 15.09-44.82c.467-.632.394-1.513-.17-2.06z" transform="translate(23 13)"/>
        <path fill="#3C6919" fill-rule="nonzero" d="M48 48.43L23 31.57c-.72-.258-1.494-.33-2.25-.21-.642.312-1.195.78-1.61 1.36-5.41 15.21-10 30.43-15.41 45.64l27 17.84c.198.417.43.819.69 1.2C33.52 90 45.54 55.48 48 48.43z" transform="translate(23 13)"/>
        <path fill="#363595" fill-rule="nonzero" d="M47.62 48.45l.02.01" transform="translate(23 13)"/>
        <path fill="#123F25" fill-rule="nonzero" d="M95.18 48.66c-.527-.457-1.239-.639-1.92-.49L61 51.84l-.52 1.54 35.07-4.11c-.077-.228-.203-.436-.37-.61zM48 48.43L23 31.56c-.726-.249-1.502-.317-2.26-.2-.1.042-.198.092-.29.15L47.46 50c.21-.64.39-1.15.54-1.57z" transform="translate(23 13)"/>
        <path fill="#3C6919" fill-rule="nonzero" d="M61.2 52l-1.32.15c-1.974.327-3.994.256-5.94-.21-2.38-.55-4.562-1.752-6.3-3.47L31.07 97.55c1.642 2.228 4.17 3.633 6.93 3.85 2.42.185 4.835-.441 6.86-1.78h.12C47.76 90.56 58.83 58.77 61.2 52z" transform="translate(23 13)"/>
        <path fill="#F6F407" fill-rule="nonzero" d="M48.36 63.89c2.769.684 5.64.854 8.47.5.73-2.12 1.4-4 2-5.67-2.43.182-4.874-.024-7.24-.61-2.247-.558-4.385-1.484-6.33-2.74l-2.17 6.41c1.654.938 3.426 1.647 5.27 2.11zM37.9 95.18c-1.853-.464-3.635-1.173-5.3-2.11l-.72 2.14c1.658.943 3.438 1.653 5.29 2.11 2.732.677 5.566.85 8.36.51.22-.66.45-1.38.7-2.14-2.785.335-5.607.162-8.33-.51zM34.6 87.15l-1.06 3.14c1.64.982 3.416 1.717 5.27 2.18 2.734.672 5.573.812 8.36.41l1.06-3.15c-2.786.41-5.626.275-8.36-.4-1.854-.463-3.63-1.198-5.27-2.18z" transform="translate(23 13)"/>
        <path fill="#123F25" fill-rule="nonzero" d="M65.44 57.7L62.67 65.91 86.4 63.5 89.2 55.2zM60.15 53.68c-2.327.409-4.715.31-7-.29-2.45-.63-4.682-1.92-6.45-3.73-.158-.16-.235-.385-.207-.609.027-.224.155-.423.347-.541.402-.313.974-.274 1.33.09 1.532 1.562 3.461 2.675 5.58 3.22 2.292.605 4.698.625 7 .06.471-.12.961.116 1.16.56.05.224.005.458-.124.647-.129.19-.33.317-.556.353-.32.09-.68.17-1.08.24z" transform="translate(23 13)"/>
        <path fill="url(#prefix__c)" fill-rule="nonzero" d="M5.36 78.49c-.132-.028-.246-.11-.314-.226-.069-.116-.085-.255-.046-.384l15-44.29c.116-.284.424-.438.72-.36.136.023.255.103.33.219.074.116.096.258.06.391L6.08 78.14c-.122.277-.427.425-.72.35z" opacity=".64" transform="translate(23 13)"/>
        <path fill="url(#prefix__d)" fill-rule="nonzero" d="M78.85 95.63c-.138-.02-.26-.1-.336-.216-.076-.116-.1-.26-.064-.394l15-44.29c.12-.28.426-.43.72-.35.137.02.26.1.334.216.075.117.095.26.056.394l-15 44.29c-.112.282-.419.433-.71.35z" opacity=".64" transform="translate(23 13)"/>
        <path fill="#123F25" fill-rule="nonzero" d="M35.14 87.2l-.29-.07c-.101-.018-.19-.08-.243-.167-.054-.088-.067-.195-.037-.293l8.57-24.24c.087-.207.313-.318.53-.26l.29.07c.101.018.19.08.243.167.054.088.067.195.037.293l-8.57 24.24c-.084.21-.313.322-.53.26zM44.41 99.57c-.13-.02-.248-.091-.325-.198-.077-.108-.108-.242-.085-.372l15-44.34c.12-.28.426-.43.72-.35.137.02.26.1.334.216.075.117.095.26.056.394L45.13 99.21c-.116.284-.424.438-.72.36z" opacity=".73" transform="translate(23 13)"/>
    </g>
</svg>
