<?xml version="1.0" encoding="utf-8"?>
<!-- Generator: Adobe Illustrator 24.0.2, SVG Export Plug-In . SVG Version: 6.00 Build 0)  -->
<svg version="1.1" id="Capa_1" xmlns="http://www.w3.org/2000/svg" xmlns:xlink="http://www.w3.org/1999/xlink" x="0px" y="0px"
	 viewBox="0 0 210 100" style="enable-background:new 0 0 210 100;" xml:space="preserve">
<style type="text/css">
	.st0{display:none;}
	.st1{display:inline;}
	.st2{fill:#01A2AA;}
	.st3{fill:#E9E9E0;}
	.st4{fill:#D9D7CA;}
	.st5{fill:#CC4B4C;}
	.st6{fill:#FFFFFF;}
	.st7{fill:#2C474B;}
	.st8{font-family:'Nunito-SemiBold';}
	.st9{font-size:18px;}
	.st10{fill:#A546A0;}
	.st11{fill:#567981;}
	.st12{fill:#465961;}
	.st13{fill:#394949;}
	.st14{fill:#D5B0EC;}
	.st15{fill:#EAEAEA;}
	.st16{fill:#BB80E0;}
	.st17{fill:#C6D0DA;}
	.st18{fill:#804A9D;}
</style>
<g id="Lecturas-_x28_Preescolar_x29_-" class="st0">
	<g id="PDF" transform="translate(-185.000000, -903.000000)" class="st1">
		<g id="Group-6" transform="translate(165.000000, 880.000000)">
			<g id="Group-4-Copy-4">
				<g id="atom_x2F_icon_x2F_secciones_x2F_unicef-copy-4" transform="translate(20.000000, 23.000000)">
					<path id="Path" class="st2" d="M13,49.7c0-14.9,12.1-27,27-27s27,12.1,27,27s-12.1,27-27,27S13,64.6,13,49.7z"/>
					<g id="pdf" transform="translate(10.000000, 3.600000)">
						<path id="Path_1_" class="st3" d="M37.1,22.7H14.6c-0.6,0-1.1,0.5-1.1,1.5v41.2c0,0.3,0.5,0.8,1.1,0.8h31.1
							c0.6,0,1.1-0.5,1.1-0.8V32.8c0-0.5-0.1-0.7-0.2-0.8l-9-9C37.4,22.8,37.3,22.7,37.1,22.7z"/>
						<polygon id="Path_2_" class="st4" points="37.5,22.8 37.5,32 46.7,32 						"/>
						<path id="Shape" class="st5" d="M23.5,48.6L23.5,48.6c-0.3,0-0.5-0.1-0.8-0.3c-0.8-0.6-0.9-1.3-0.9-1.7
							c0.1-1.3,1.7-2.6,4.6-3.9c1.2-2.6,2.3-5.7,2.9-8.3c-0.8-1.7-1.5-3.9-1-5.2c0.2-0.4,0.4-0.8,0.9-0.9c0.2-0.1,0.6-0.1,0.8-0.1
							c0.4,0,0.7,0.5,1,0.8c0.2,0.3,0.7,0.9-0.3,5.3c1,2.2,2.5,4.4,4,5.9c1-0.2,1.9-0.3,2.6-0.3c1.2,0,2,0.3,2.3,0.9
							c0.2,0.5,0.1,1-0.3,1.7c-0.4,0.6-1,0.9-1.7,0.9c-0.9,0-2-0.6-3.3-1.8c-2.2,0.5-4.8,1.3-6.9,2.2c-0.6,1.4-1.3,2.5-1.9,3.3
							C24.9,48.1,24.2,48.6,23.5,48.6z M25.6,44.6c-1.7,0.9-2.3,1.7-2.4,2.1c0,0.1,0,0.3,0.3,0.5C23.7,47.2,24.3,46.9,25.6,44.6z
							 M36.2,41.1c0.6,0.5,0.8,0.7,1.2,0.7c0.2,0,0.7,0,0.9-0.3c0.1-0.2,0.2-0.3,0.2-0.3c-0.1-0.1-0.2-0.2-0.9-0.2
							C37.2,41.1,36.7,41.1,36.2,41.1z M30.4,36c-0.6,1.9-1.3,4-2.1,5.9c1.6-0.6,3.4-1.2,5-1.6C32.3,39.1,31.2,37.6,30.4,36z
							 M29.9,29.5c-0.1,0-1,1.4,0.1,2.5C30.7,30.3,29.9,29.5,29.9,29.5z"/>
						<path id="Path_3_" class="st5" d="M45.7,66.2H14.6c-0.6,0-1.1-0.5-1.1-1.1V53h33.4V65C46.8,65.7,46.3,66.2,45.7,66.2z"/>
						<g id="Group" transform="translate(7.504773, 33.124516)">
							<path id="Shape_1_" class="st6" d="M14.4,30.7h-1.3v-7.8h2.2c0.3,0,0.7,0.1,1,0.2c0.3,0.1,0.6,0.3,0.9,0.5
								c0.3,0.2,0.5,0.5,0.6,0.8s0.2,0.6,0.2,1c0,0.4-0.1,0.8-0.2,1.1s-0.3,0.6-0.6,0.8c-0.2,0.2-0.5,0.4-0.9,0.5s-0.7,0.2-1.1,0.2
								h-0.9L14.4,30.7L14.4,30.7z M14.4,23.9V27h1.2c0.2,0,0.3,0,0.5-0.1c0.2-0.1,0.3-0.1,0.4-0.3c0.1-0.1,0.2-0.3,0.3-0.5
								c0.1-0.2,0.1-0.5,0.1-0.8c0-0.1,0-0.3-0.1-0.4c0-0.2-0.1-0.3-0.2-0.5c-0.1-0.2-0.3-0.3-0.5-0.4c-0.2-0.1-0.5-0.2-0.8-0.2
								L14.4,23.9L14.4,23.9z"/>
							<path id="Shape_2_" class="st6" d="M25.9,26.6c0,0.6-0.1,1.2-0.2,1.7s-0.3,0.8-0.5,1.1c-0.2,0.3-0.5,0.6-0.7,0.7
								c-0.3,0.2-0.5,0.3-0.8,0.4c-0.2,0.1-0.5,0.1-0.7,0.2c-0.2,0-0.4,0-0.5,0h-3v-7.8h2.4c0.7,0,1.2,0.1,1.7,0.3
								c0.5,0.2,0.9,0.5,1.2,0.8s0.6,0.7,0.7,1.2C25.8,25.7,25.9,26.1,25.9,26.6z M22.1,29.8c0.9,0,1.5-0.3,1.9-0.8
								c0.4-0.6,0.6-1.4,0.6-2.4c0-0.3,0-0.6-0.1-1c-0.1-0.3-0.2-0.6-0.5-0.9c-0.2-0.3-0.5-0.5-0.9-0.6c-0.4-0.2-0.9-0.2-1.5-0.2
								h-0.7v5.9H22.1L22.1,29.8z"/>
							<polygon id="Path_4_" class="st6" points="29,23.9 29,26.3 32.3,26.3 32.3,27.2 29,27.2 29,30.7 27.7,30.7 27.7,22.9 
								32.6,22.9 32.6,23.9 							"/>
						</g>
					</g>
				</g>
			</g>
		</g>
	</g>
</g>
<text transform="matrix(1 0 0 1 79 55.0259)" class="st7 st8 st9">Audiolibros</text>
<g id="Lecturas-_x28_Preescolar_x29_-_1_">
	<g id="PDF_1_" transform="translate(-614.000000, -903.000000)">
		<g id="Group-6_1_" transform="translate(165.000000, 880.000000)">
			<g id="Group-4-Copy" transform="translate(429.000000, 0.000000)">
				<g id="Group-3" transform="translate(20.000000, 23.000000)">
					<g id="atom_x2F_icon_x2F_secciones_x2F_audiolibros">
						<path id="Path_20_" class="st10" d="M12.9,49.9c0-15.2,12.3-27.6,27.6-27.6S68,34.6,68,49.8S55.7,77.4,40.4,77.4
							S12.9,65.1,12.9,49.9z"/>
						<g id="audiobook" transform="translate(8.800000, 6.400000)">
							<path id="Path_19_" class="st11" d="M47,39.8c-0.3,0-0.6-0.3-0.6-0.6c0-8.1-6.6-14.7-14.7-14.7S17,31.1,17,39.2
								c0,0.3-0.3,0.6-0.6,0.6s-0.6-0.3-0.6-0.6c0-8.8,7.1-15.9,15.9-15.9s15.9,7.1,15.9,15.9C47.6,39.6,47.3,39.8,47,39.8z"/>
							<path id="Path_18_" class="st12" d="M16.1,50.2h3.8V37.2h-3.8c-1.6,0-3,1.3-3,3v6.9C13.1,48.8,14.5,50.2,16.1,50.2z"/>
							<path id="Path_17_" class="st12" d="M47.2,50.2h-3.8V37.2h3.8c1.6,0,3,1.3,3,3v6.9C50.2,48.8,48.9,50.2,47.2,50.2z"/>
							<path id="Path_16_" class="st13" d="M17.6,37.2v8c0,1.6-1.3,2.9-2.9,2.9h-0.5c-0.3,0-0.6,0-0.9-0.1c0.4,1.2,1.5,2.1,2.8,2.1
								h3.8V37.2H17.6z"/>
							<path id="Path_5_" class="st13" d="M48.2,37.4c0.1,0.3,0.1,0.6,0.1,0.9v7c0,1.6-1.3,2.9-2.9,2.9h-1.9v1.9h3.8
								c1.6,0,3-1.3,3-3v-7C50.2,38.9,49.4,37.8,48.2,37.4L48.2,37.4z"/>
							<path id="Path_6_" class="st12" d="M41.1,28.2c-0.2,0.3-0.7,0.3-1,0.1c-2.4-1.9-5.4-2.9-8.5-2.9s-6.1,1-8.5,2.9
								c-0.3,0.2-0.7,0.2-1-0.1L21.2,27c-0.3-0.3-0.2-0.8,0.1-1c3-2.3,6.6-3.6,10.4-3.6s7.4,1.3,10.4,3.6c0.3,0.2,0.4,0.7,0.1,1
								L41.1,28.2z"/>
							<path id="Path_7_" class="st13" d="M42.1,26c-3-2.3-6.6-3.6-10.4-3.6c-0.5,0-1.1,0-1.6,0.1c3.2,0.3,6.2,1.5,8.8,3.5
								c0.3,0.2,0.4,0.7,0.1,1l-0.3,0.3c0.5,0.3,1,0.6,1.5,1c0.3,0.2,0.7,0.2,1-0.1l1.1-1.2C42.4,26.7,42.4,26.3,42.1,26L42.1,26z"
								/>
							<g id="Group_1_" transform="translate(6.320000, 10.400000)">
								<path id="Path_8_" class="st14" d="M36.6,22.7h-21c-1.3,0-2.4,1.1-2.4,2.4v19.2V51c0-1.6,1.3-2.9,2.9-2.9h1.7h18.8
									c0.5,0,0.9-0.4,0.9-0.9V23.6C37.5,23.1,37.1,22.7,36.6,22.7z"/>
								<path id="Path_9_" class="st15" d="M34.9,51c0-1.2,0.6-2.3,1.6-2.9H16.1c-1.6,0-2.9,1.3-2.9,2.9c0,1.6,1.3,2.9,2.9,2.9h19.6
									c0.2,0,0.3-0.3,0.2-0.4C35.3,52.8,34.9,51.9,34.9,51L34.9,51z"/>
								<path id="Path_10_" class="st16" d="M36.6,22.7H34v15.2c0,3.6-3,6.6-6.6,6.6H14.3h-1.1V51c0-1.6,1.3-2.9,2.9-2.9h1.7h18.8
									c0.5,0,0.9-0.4,0.9-0.9V23.6C37.5,23.1,37.1,22.7,36.6,22.7L36.6,22.7z"/>
								<path id="Path_11_" class="st17" d="M34.9,51c0-1.2,0.6-2.3,1.6-2.9h-2.4c-0.9,0.6-1.6,1.7-1.6,2.9v0c0,0.6-0.4,1-1,1H13.4
									c0.4,1.1,1.5,1.8,2.7,1.8h18h1.6c0.2,0,0.3-0.3,0.2-0.4C35.3,52.8,34.9,51.9,34.9,51L34.9,51z"/>
							</g>
							<path id="Path_12_" class="st18" d="M34.9,43.1h-6.5c-0.3,0-0.6-0.3-0.6-0.6c0-0.3,0.3-0.6,0.6-0.6h6.5
								c0.3,0,0.6,0.3,0.6,0.6C35.5,42.8,35.3,43.1,34.9,43.1z"/>
							<path id="Path_13_" class="st18" d="M34.9,46.3h-6.5c-0.3,0-0.6-0.3-0.6-0.6c0-0.3,0.3-0.6,0.6-0.6h6.5
								c0.3,0,0.6,0.3,0.6,0.6C35.5,46,35.3,46.3,34.9,46.3z"/>
							<path id="Path_14_" class="st17" d="M29.3,61.7H23c-0.3,0-0.6-0.3-0.6-0.6c0-0.3,0.3-0.6,0.6-0.6h6.3c0.3,0,0.6,0.3,0.6,0.6
								C30,61.5,29.7,61.7,29.3,61.7z"/>
							<path id="Path_15_" class="st17" d="M33.9,61.7H32c-0.3,0-0.6-0.3-0.6-0.6c0-0.3,0.3-0.6,0.6-0.6h1.9c0.3,0,0.6,0.3,0.6,0.6
								C34.5,61.5,34.2,61.7,33.9,61.7z"/>
						</g>
					</g>
				</g>
			</g>
		</g>
	</g>
</g>
</svg>
