<svg enable-background="new 0 0 210 100" viewBox="0 0 210 100" xml:space="preserve" xmlns="http://www.w3.org/2000/svg"><text transform="translate(79 45.0259)"><tspan fill="#2c474b" font-family="'Nunito-SemiBold'" font-size="18" x="0" y="0">Audiolibros </tspan><tspan fill="#2c474b" font-family="'Nunito-SemiBold'" font-size="18" x="0" y="21.6">Amazon</tspan></text><g><path d="m12.9 50c0-15.2 12.3-27.6 27.6-27.6s27.5 12.4 27.5 27.6-12.3 27.5-27.6 27.5-27.5-12.3-27.5-27.5z" fill="#ffb233"/><g transform="translate(0 5.6)"><path d="m44.4 65.8 14.9-10.6v-32c0-.5-.6-.9-1.1-.5l-13.8 9.9z" fill="#eaeaea"/><path d="m58.2 22.7-1.3.9v31.6l-12.5 8.9v1.7l14.9-10.6v-32c0-.5-.6-.9-1.1-.5z" fill="#c6d0da"/><path d="m36.4 65.8-14.8-10.6v-32c0-.5.6-.9 1.1-.5l13.8 9.9v33.2z" fill="#eaeaea"/><path d="m22.6 22.7c-.4-.3-1.1 0-1.1.5v1.3l11.2 8v30.7l3.6 2.6v-33.3z" fill="#c6d0da"/><path d="m36.4 65.8-19.6-8.5v-32.3c0-.5.5-.8.9-.6l18.7 8.1z" fill="#eaeaea"/><path d="m17.8 24.4c-.4-.2-.9.1-.9.6v1.2l14.4 6.2v31l5.2 2.3v-33.2z" fill="#c6d0da"/><path d="m64 57.4-19.6 8.4v-33.3l18.7-8c.4-.2.9.1.9.6z" fill="#eaeaea"/><path d="m63.1 24.6-1.4.6v32.3l-17.2 7.4v1l19.5-8.5v-32.2c0-.5-.5-.8-.9-.6z" fill="#c6d0da"/><path d="m67.2 27.7-22.8 4.9c-1.3.4-2.6.6-4 .6s-2.7-.2-4-.6l-22.8-4.9c-.4-.1-.8.2-.8.7v31.9c0 .3.2.6.5.7l23 4.9c1.3.4 6.7.4 8 0l23-4.9c.3-.1.5-.3.5-.7v-32c.2-.4-.2-.7-.6-.6z" fill="#7fd061"/><path d="m12.9 54.2v6c0 .3.2.6.5.7l23 4.9v-6.6z" fill="#49a61f"/><path d="m67.2 27.7-4.6 1v26.2c0 .3-.2.6-.5.7l-17.6 3.8v6.6l23-4.9c.3-.1.5-.3.5-.7v-32.1c0-.4-.4-.7-.8-.6z" fill="#49a61f"/><path d="m53.7 28.6v10.2c0 .3.4.5.6.2l1.4-1.6c.1-.1.2-.1.3 0l1.4 1.6c.2.2.6.1.6-.2v-12z" fill="#f6e738"/><path d="m55.8 27.7v9.7c.1 0 .1 0 .2.1l1.4 1.6c.2.2.6.1.6-.2v-12.1z" fill="#ecc32e"/><path d="m60.4 48.5-7.8 1.7c-.9.2-1.8-.5-1.8-1.4v-3.4c0-.7.5-1.3 1.1-1.4l7.8-1.7c.9-.2 1.8.5 1.8 1.4v3.4c.1.7-.4 1.3-1.1 1.4z" fill="#eaeaea"/><path d="m40.4 33.2c-1.4 0-2.7-.2-4-.6v33.3c1.3.4 2.6.6 4 .6s2.7-.2 4-.6v-33.4c-1.2.5-2.6.7-4 .7z" fill="#acdf91"/><path d="m36.4 59.3v6.6c1.3.4 2.6.6 4 .6s2.7-.2 4-.6v-6.6c-1.3.4-2.6.6-4 .6s-2.7-.2-4-.6z" fill="#7fd061"/></g></g></svg>