<svg enable-background="new 0 0 210 100" viewBox="0 0 210 100" xmlns="http://www.w3.org/2000/svg"><text fill="#2c474b" font-family="'Nunito-SemiBold'" font-size="18" transform="translate(79 55.0259)">Audiolibros</text><g><path d="m12.9 49.9c0-15.2 12.3-27.6 27.6-27.6s27.5 12.3 27.5 27.5-12.3 27.6-27.6 27.6-27.5-12.3-27.5-27.5z" fill="#a546a0"/><g transform="translate(8.8 6.4)"><path d="m47 39.8c-.3 0-.6-.3-.6-.6 0-8.1-6.6-14.7-14.7-14.7s-14.7 6.6-14.7 14.7c0 .3-.3.6-.6.6s-.6-.3-.6-.6c0-8.8 7.1-15.9 15.9-15.9s15.9 7.1 15.9 15.9c0 .4-.3.6-.6.6z" fill="#567981"/><path d="m16.1 50.2h3.8v-13h-3.8c-1.6 0-3 1.3-3 3v6.9c0 1.7 1.4 3.1 3 3.1z" fill="#465961"/><path d="m47.2 50.2h-3.8v-13h3.8c1.6 0 3 1.3 3 3v6.9c0 1.7-1.3 3.1-3 3.1z" fill="#465961"/><path d="m17.6 37.2v8c0 1.6-1.3 2.9-2.9 2.9h-.5c-.3 0-.6 0-.9-.1.4 1.2 1.5 2.1 2.8 2.1h3.8v-12.9z" fill="#394949"/><path d="m48.2 37.4c.1.3.1.6.1.9v7c0 1.6-1.3 2.9-2.9 2.9h-1.9v1.9h3.8c1.6 0 3-1.3 3-3v-7c-.1-1.2-.9-2.3-2.1-2.7z" fill="#394949"/><path d="m41.1 28.2c-.2.3-.7.3-1 .1-2.4-1.9-5.4-2.9-8.5-2.9s-6.1 1-8.5 2.9c-.3.2-.7.2-1-.1l-.9-1.2c-.3-.3-.2-.8.1-1 3-2.3 6.6-3.6 10.4-3.6s7.4 1.3 10.4 3.6c.3.2.4.7.1 1z" fill="#465961"/><path d="m42.1 26c-3-2.3-6.6-3.6-10.4-3.6-.5 0-1.1 0-1.6.1 3.2.3 6.2 1.5 8.8 3.5.3.2.4.7.1 1l-.3.3c.5.3 1 .6 1.5 1 .3.2.7.2 1-.1l1.1-1.2c.1-.3.1-.7-.2-1z" fill="#394949"/><g transform="translate(6.32 10.4)"><path d="m36.6 22.7h-21c-1.3 0-2.4 1.1-2.4 2.4v19.2 6.7c0-1.6 1.3-2.9 2.9-2.9h1.7 18.8c.5 0 .9-.4.9-.9v-23.6c0-.5-.4-.9-.9-.9z" fill="#d5b0ec"/><path d="m34.9 51c0-1.2.6-2.3 1.6-2.9h-20.4c-1.6 0-2.9 1.3-2.9 2.9s1.3 2.9 2.9 2.9h19.6c.2 0 .3-.3.2-.4-.6-.7-1-1.6-1-2.5z" fill="#eaeaea"/><path d="m36.6 22.7h-2.6v15.2c0 3.6-3 6.6-6.6 6.6h-13.1-1.1v6.5c0-1.6 1.3-2.9 2.9-2.9h1.7 18.8c.5 0 .9-.4.9-.9v-23.6c0-.5-.4-.9-.9-.9z" fill="#bb80e0"/><path d="m34.9 51c0-1.2.6-2.3 1.6-2.9h-2.4c-.9.6-1.6 1.7-1.6 2.9 0 .6-.4 1-1 1h-18.1c.4 1.1 1.5 1.8 2.7 1.8h18 1.6c.2 0 .3-.3.2-.4-.6-.6-1-1.5-1-2.4z" fill="#c6d0da"/></g><path d="m34.9 43.1h-6.5c-.3 0-.6-.3-.6-.6s.3-.6.6-.6h6.5c.3 0 .6.3.6.6s-.2.6-.6.6z" fill="#804a9d"/><path d="m34.9 46.3h-6.5c-.3 0-.6-.3-.6-.6s.3-.6.6-.6h6.5c.3 0 .6.3.6.6s-.2.6-.6.6z" fill="#804a9d"/><g fill="#c6d0da"><path d="m29.3 61.7h-6.3c-.3 0-.6-.3-.6-.6s.3-.6.6-.6h6.3c.3 0 .6.3.6.6.1.4-.2.6-.6.6z"/><path d="m33.9 61.7h-1.9c-.3 0-.6-.3-.6-.6s.3-.6.6-.6h1.9c.3 0 .6.3.6.6 0 .4-.3.6-.6.6z"/></g></g></g></svg>