<svg xmlns="http://www.w3.org/2000/svg" xmlns:xlink="http://www.w3.org/1999/xlink" viewBox="0 0 1440 400"><defs><style>.cls-1,.cls-18,.cls-2,.cls-23,.cls-24,.cls-26,.cls-30,.cls-33{fill:none;}.cls-2{stroke:#1d1d1b;stroke-width:0.3px;}.cls-14,.cls-3{fill:#4472fc;}.cls-4{opacity:0.45;fill:url(#Sombreado);}.cls-5{fill:#e1ebf6;}.cls-6{fill:#e9f1f9;}.cls-10,.cls-11,.cls-12,.cls-13,.cls-14,.cls-15,.cls-16,.cls-17,.cls-19,.cls-20,.cls-21,.cls-22,.cls-25,.cls-27,.cls-28,.cls-29,.cls-31,.cls-32,.cls-34,.cls-35,.cls-6,.cls-7,.cls-8{fill-rule:evenodd;}.cls-7{fill:#fa0;}.cls-8,.cls-9{fill:#ffd666;}.cls-10{fill:#ff514f;}.cls-11{fill:#db3945;}.cls-12{fill:#c5d7ed;}.cls-13{fill:#b76d00;}.cls-15{fill:#d9e6fe;}.cls-16{fill:#49b728;}.cls-17{fill:#1d8314;}.cls-18{stroke:#d9e6fe;}.cls-18,.cls-23,.cls-24,.cls-26,.cls-30,.cls-33{stroke-linecap:round;stroke-linejoin:round;}.cls-18,.cls-33{stroke-width:2px;}.cls-19{fill:#eff6fc;}.cls-20{fill:#161f36;}.cls-21{fill:#b4ccfe;}.cls-22{fill:#ffcbb8;}.cls-23,.cls-24,.cls-26{stroke:#161f36;}.cls-23{stroke-width:0.5px;}.cls-25{fill:#319d1d;}.cls-26{stroke-width:12px;}.cls-27{fill:#8274f0;}.cls-28{fill:#f5fafe;}.cls-29{fill:#5848e6;}.cls-30,.cls-33{stroke:#c5d7ed;stroke-dasharray:10 10 10 10;}.cls-30{stroke-width:3px;}.cls-31{fill:#7298fd;}.cls-32{fill:#7dd357;}.cls-34{fill:#3157d8;}.cls-35{fill:#da8900;}.cls-36{fill:#009ee2;}</style><pattern id="Sombreado" data-name="Sombreado" width="72" height="72" patternUnits="userSpaceOnUse" viewBox="0 0 72 72"><rect class="cls-1" width="72" height="72"/><line class="cls-2" x1="67.96" y1="72.85" x2="69.08" y2="69.89"/><line class="cls-2" x1="63.13" y1="72.98" x2="62.5" y2="69.71"/><line class="cls-2" x1="47.91" y1="73.84" x2="48.03" y2="70.84"/><line class="cls-2" x1="32.21" y1="72.24" x2="30.79" y2="70.19"/><line class="cls-2" x1="15.95" y1="72.38" x2="17.27" y2="70.42"/><line class="cls-2" x1="4.89" y1="73.71" x2="3.22" y2="71.39"/><line class="cls-2" x1="55.47" y1="74.02" x2="57.47" y2="71.02"/><line class="cls-2" x1="74.75" y1="24" x2="71.75" y2="24"/><line class="cls-2" x1="73.75" y1="39.75" x2="71.75" y2="41.25"/><line class="cls-2" x1="5.75" y1="10.75" x2="3" y2="12.75"/><line class="cls-2" x1="4.25" y1="67" x2="2" y2="68.75"/><line class="cls-2" x1="73.25" y1="7" x2="70" y2="7.75"/><line class="cls-2" x1="72" y1="18.75" x2="69.5" y2="20.5"/><line class="cls-2" x1="74.75" y1="24" x2="71.75" y2="24"/><line class="cls-2" x1="71.5" y1="31.5" x2="68.75" y2="29.75"/><line class="cls-2" x1="73.75" y1="39.75" x2="71.75" y2="41.25"/><line class="cls-2" x1="71.25" y1="51.75" x2="68.5" y2="49.5"/><line class="cls-2" x1="73.25" y1="62.75" x2="69" y2="62"/><line class="cls-2" x1="63.5" y1="61" x2="61.25" y2="62.75"/><line class="cls-2" x1="71.75" y1="45" x2="68.75" y2="45"/><line class="cls-2" x1="58" y1="17.5" x2="56.11" y2="14.68"/><line class="cls-2" x1="28" y1="16" x2="26.35" y2="13.44"/><line class="cls-2" x1="43.04" y1="11.56" x2="44.89" y2="8.88"/><line class="cls-2" x1="67.96" y1="72.85" x2="69.08" y2="69.89"/><line class="cls-2" x1="63.13" y1="72.98" x2="62.5" y2="69.71"/><line class="cls-2" x1="57" y1="48" x2="55.11" y2="45.18"/><line class="cls-2" x1="48.65" y1="19.56" x2="47" y2="17"/><line class="cls-2" x1="47.91" y1="73.84" x2="48.03" y2="70.84"/><line class="cls-2" x1="40.54" y1="70.31" x2="42.39" y2="67.63"/><line class="cls-2" x1="32.21" y1="72.24" x2="30.79" y2="70.19"/><line class="cls-2" x1="50.32" y1="40.79" x2="52.67" y2="38.13"/><line class="cls-2" x1="15.95" y1="72.38" x2="17.27" y2="70.42"/><line class="cls-2" x1="9.25" y1="70.87" x2="10.16" y2="66.65"/><line class="cls-2" x1="4.89" y1="73.71" x2="3.22" y2="71.39"/><line class="cls-2" x1="27.04" y1="70.04" x2="27.16" y2="67.05"/><line class="cls-2" x1="7.25" y1="5.25" x2="10.75" y2="6.75"/><line class="cls-2" x1="4.5" y1="20.75" x2="4.75" y2="17.5"/><line class="cls-2" x1="8" y1="43.75" x2="9.5" y2="47.5"/><line class="cls-2" x1="5.25" y1="38.25" x2="7.5" y2="34.5"/><line class="cls-2" x1="29.25" y1="4.5" x2="27" y2="7"/><line class="cls-2" x1="33.5" y1="4.5" x2="36.75" y2="7.25"/><line class="cls-2" x1="50.25" y1="4.5" x2="53.5" y2="6.5"/><line class="cls-2" x1="52.5" y1="10.5" x2="50.5" y2="13.75"/><line class="cls-2" x1="59.5" y1="9.25" x2="64.5" y2="7"/><line class="cls-2" x1="67" y1="12.75" x2="64.5" y2="14.5"/><line class="cls-2" x1="18.75" y1="4.75" x2="18.75" y2="7.75"/><line class="cls-2" x1="15.75" y1="9.75" x2="12.5" y2="10.25"/><line class="cls-2" x1="20" y1="14.25" x2="20.5" y2="17.5"/><line class="cls-2" x1="21" y1="9.75" x2="24.5" y2="9"/><line class="cls-2" x1="9.25" y1="21.5" x2="12" y2="19.5"/><line class="cls-2" x1="7.5" y1="64" x2="7.75" y2="60"/><line class="cls-2" x1="7.25" y1="55.75" x2="9.5" y2="53.25"/><line class="cls-2" x1="21.25" y1="65.75" x2="18.75" y2="62.25"/><line class="cls-2" x1="29.75" y1="28.5" x2="27.25" y2="30.25"/><line class="cls-2" x1="57.75" y1="33.75" x2="55" y2="32.25"/><line class="cls-2" x1="26.75" y1="40" x2="23" y2="39.25"/><line class="cls-2" x1="31.5" y1="49.5" x2="29.5" y2="51"/><line class="cls-2" x1="29" y1="61.5" x2="26.25" y2="59.25"/><line class="cls-2" x1="32.25" y1="65.75" x2="30.25" y2="64.5"/><line class="cls-2" x1="29.5" y1="54.75" x2="26.5" y2="54.75"/><line class="cls-2" x1="39.75" y1="19" x2="37.25" y2="20.75"/><line class="cls-2" x1="42.5" y1="24.25" x2="39.5" y2="24.25"/><line class="cls-2" x1="39.25" y1="31.75" x2="36.5" y2="30"/><line class="cls-2" x1="38.5" y1="42.5" x2="37.75" y2="45"/><line class="cls-2" x1="39" y1="52" x2="36.25" y2="49.75"/><line class="cls-2" x1="39.5" y1="60" x2="37.5" y2="58.75"/><line class="cls-2" x1="62.97" y1="44.52" x2="59.97" y2="44.52"/><line class="cls-2" x1="22.25" y1="43" x2="24.75" y2="44.75"/><line class="cls-2" x1="27" y1="20.5" x2="30" y2="20.5"/><line class="cls-2" x1="14.75" y1="34.75" x2="17.25" y2="36.5"/><line class="cls-2" x1="12" y1="40" x2="15" y2="40"/><line class="cls-2" x1="15.25" y1="47.5" x2="18" y2="45.75"/><line class="cls-2" x1="47.25" y1="33" x2="49.63" y2="31.44"/><line class="cls-2" x1="47.59" y1="25.47" x2="49.97" y2="27.29"/><line class="cls-2" x1="54.72" y1="21.48" x2="54.5" y2="24.5"/><line class="cls-2" x1="45.34" y1="65.56" x2="48.38" y2="65.69"/><line class="cls-2" x1="46.34" y1="59.72" x2="48.72" y2="61.54"/><line class="cls-2" x1="53.47" y1="55.73" x2="54.6" y2="58.79"/><line class="cls-2" x1="48.25" y1="43.5" x2="45.75" y2="45.25"/><line class="cls-2" x1="48" y1="51" x2="44.75" y2="50"/><line class="cls-2" x1="57" y1="66.5" x2="54.25" y2="64.75"/><line class="cls-2" x1="64.5" y1="41" x2="61.75" y2="39.25"/><line class="cls-2" x1="62.25" y1="52" x2="60.25" y2="53.5"/><line class="cls-2" x1="19.59" y1="29.56" x2="22.63" y2="29.69"/><line class="cls-2" x1="20.59" y1="23.72" x2="22.97" y2="25.54"/><line class="cls-2" x1="57.75" y1="28.5" x2="60.47" y2="29.04"/><line class="cls-2" x1="15" y1="55.75" x2="15.5" y2="59"/><line class="cls-2" x1="17" y1="53.75" x2="20.5" y2="53"/><line class="cls-2" x1="32.75" y1="12.75" x2="36.75" y2="13.5"/><line class="cls-2" x1="33.47" y1="33.52" x2="33.97" y2="37.02"/><line class="cls-2" x1="64.5" y1="23" x2="62" y2="21.75"/><line class="cls-2" x1="10" y1="13.5" x2="13.25" y2="16.25"/><line class="cls-2" x1="4.75" y1="29.5" x2="2.25" y2="31.25"/><line class="cls-2" x1="15.75" y1="24" x2="13.75" y2="25.5"/><line class="cls-2" x1="41.29" y1="4.81" x2="43.14" y2="2.13"/><line class="cls-2" x1="64.54" y1="35.06" x2="66.39" y2="32.38"/><line class="cls-2" x1="33.79" y1="26.31" x2="34.5" y2="23.5"/><line class="cls-2" x1="20.29" y1="58.81" x2="21" y2="56"/><line class="cls-2" x1="31.75" y1="42.75" x2="29.75" y2="44.25"/><line class="cls-2" x1="2.75" y1="24" x2="-0.25" y2="24"/><line class="cls-2" x1="1.75" y1="39.75" x2="-0.25" y2="41.25"/><line class="cls-2" x1="67.96" y1="0.85" x2="69.08" y2="-2.11"/><line class="cls-2" x1="63.13" y1="0.98" x2="62.5" y2="-2.29"/><line class="cls-2" x1="47.91" y1="1.84" x2="48.03" y2="-1.16"/><line class="cls-2" x1="32.21" y1="0.24" x2="30.79" y2="-1.81"/><line class="cls-2" x1="15.95" y1="0.38" x2="17.27" y2="-1.58"/><line class="cls-2" x1="4.89" y1="1.71" x2="3.22" y2="-0.61"/><line class="cls-2" x1="5.25" y1="52" x2="1.5" y2="51.25"/><line class="cls-2" x1="68.37" y1="57.34" x2="66.47" y2="54.52"/><line class="cls-2" x1="23.97" y1="36.02" x2="24.66" y2="33.23"/><line class="cls-2" x1="44.75" y1="37" x2="42.75" y2="38.5"/><line class="cls-2" x1="55.47" y1="2.02" x2="57.47" y2="-0.98"/><line class="cls-2" x1="55.47" y1="74.02" x2="57.47" y2="71.02"/><line class="cls-2" x1="1.25" y1="7" x2="-2" y2="7.75"/><line class="cls-2" y1="18.75" x2="-2.5" y2="20.5"/><line class="cls-2" x1="2.75" y1="24" x2="-0.25" y2="24"/><line class="cls-2" x1="1.75" y1="39.75" x2="-0.25" y2="41.25"/><line class="cls-2" x1="1.25" y1="62.75" x2="-3" y2="62"/><line class="cls-2" x1="67.96" y1="0.85" x2="69.08" y2="-2.11"/><line class="cls-2" x1="63.13" y1="0.98" x2="62.5" y2="-2.29"/><line class="cls-2" x1="47.91" y1="1.84" x2="48.03" y2="-1.16"/><line class="cls-2" x1="32.21" y1="0.24" x2="30.79" y2="-1.81"/><line class="cls-2" x1="15.95" y1="0.38" x2="17.27" y2="-1.58"/><line class="cls-2" x1="4.89" y1="1.71" x2="3.22" y2="-0.61"/><line class="cls-2" x1="55.47" y1="2.02" x2="57.47" y2="-0.98"/></pattern></defs><title>preescolar 2</title><g id="Capa_2" data-name="Capa 2"><rect class="cls-3" x="-7.49" width="1447.49" height="327.27"/><rect class="cls-4" x="-7.49" width="1447.49" height="327.27"/></g><g id="Capa_1" data-name="Capa 1"><rect class="cls-5" x="2.93" y="327.27" width="1437.07" height="74.69"/><path class="cls-6" d="M1262.52,149.46l0-9.55-54-33.58s-38,7.73-45,27.46c0,0-30.52-2.83-43.28,7.84l1.65,8s47.2,19.2,48.51,20.18,45.55-1.52,45.55-1.52l20.69-18.55Z"/><path class="cls-7" d="M1210.86,115.67s-18.78,3.85-26.66,7.89c-9.44,4.82-12.56,11.11-16.45,15.68-1.45,1.7.41,2.19.41,2.19l56.73,35.41s-1.11-11,11.15-16.1,29.69-8.45,29.69-8.45l-.38-3.23Z"/><path class="cls-7" d="M1221.82,177.38l-57-34.45s0-1.71-.94-2.15c-3-1.38-18.39-1.66-25.82-.21s-17.92,9.86-17.92,9.86,1.13,1.81.35,2.75l61,29.33s2.64-5.89,12.07-7.5C1200.14,173.89,1207.87,173.43,1221.82,177.38Z"/><polygon class="cls-8" points="1167.96 141.18 1167.96 141.3 1167.92 141.31 1167.82 141.25 1167.82 141.24 1167.96 141.18"/><polygon class="cls-8" points="1167.96 141.18 1167.96 141.3 1167.92 141.31 1167.82 141.25 1167.82 141.24 1167.96 141.18"/><path class="cls-8" d="M1214.86,170.5l9.71,6,0-2.42-56.72-35.45,0,.57-3.85,1.5.28,1.95h0l56.92,34.77,3.83-.58Zm-47-29.25h0l.14-.06v.12h0Z"/><polygon class="cls-8" points="1167.96 141.18 1167.96 141.3 1167.92 141.31 1167.82 141.25 1167.82 141.24 1167.96 141.18"/><path class="cls-9" d="M1304.08,278.46a.94.94,0,0,1-.53-.16,1,1,0,0,1-.31-1.38,59.59,59.59,0,0,0,4.64-8.66,1,1,0,1,1,1.83.78,62.57,62.57,0,0,1-4.78,9A1,1,0,0,1,1304.08,278.46Zm7.64-18.35a.55.55,0,0,1-.18,0,1,1,0,0,1-.81-1.16,37,37,0,0,0,.62-6.67c0-1,0-2-.13-3a1,1,0,0,1,.91-1.08,1,1,0,0,1,1.08.91c.09,1.05.14,2.13.14,3.19a39.13,39.13,0,0,1-.65,7A1,1,0,0,1,1311.72,260.11ZM1310,240.45a1,1,0,0,1-.93-.66,46,46,0,0,0-4.36-8.74,1,1,0,0,1,.31-1.38,1,1,0,0,1,1.38.31,47,47,0,0,1,4.54,9.12,1,1,0,0,1-.59,1.28A.87.87,0,0,1,1310,240.45Zm-10.5-16.88a1,1,0,0,1-.75-.33,83.93,83.93,0,0,0-7-7,1,1,0,0,1-.09-1.41,1,1,0,0,1,1.42-.09,88,88,0,0,1,7.18,7.13,1,1,0,0,1-.09,1.41A1,1,0,0,1,1299.54,223.57Zm-14.87-13.34a1,1,0,0,1-.6-.19c-2.52-1.88-5.27-3.79-8.18-5.67a1,1,0,0,1,1.09-1.68c2.94,1.91,5.73,3.84,8.28,5.74a1,1,0,0,1,.21,1.4A1,1,0,0,1,1284.67,210.23Zm-16.76-10.92a1,1,0,0,1-.5-.14c-2.74-1.59-5.6-3.18-8.72-4.84a1,1,0,0,1,.94-1.77c3.15,1.68,6,3.28,8.78,4.88a1,1,0,0,1-.5,1.87Zm-17.64-9.47a.91.91,0,0,1-.45-.11l-5.88-2.94-3.08-1.54a1,1,0,1,1,.9-1.78l3.07,1.53c1.86.93,3.84,1.91,5.89,2.95a1,1,0,0,1-.45,1.89Z"/><path class="cls-6" d="M1214.8,318.43v.15l.13-.15Zm5.32.24c-2,.95-3.49,2.91-3.62,6-.19,5.08.49,6.86,3.55,8.25h63.66l0-1.72-3.55-.5,3.4-.07,0-4.43-4.89-.17,4.78-.93.19-6.45ZM1214.8,333v.4h.32C1215,333.28,1214.91,333.15,1214.8,333Z"/><path class="cls-10" d="M1120.56,314.89s-6.11,2.58-6.38,11,6.37,10.14,6.37,10.14l93.67.48H1283a.42.42,0,0,0,.45-.37v-2.89a.41.41,0,0,0-.45-.35h-63.4c-2.77-1.39-3.39-3.17-3.21-8.25.11-3.11,1.41-5.07,3.28-6H1283a.42.42,0,0,0,.45-.37v-2.88a.4.4,0,0,0-.45-.35H1215V315Z"/><path class="cls-11" d="M1120.57,314.89a11.36,11.36,0,0,0-5.42,6.19h98.35a9.65,9.65,0,0,1,1.37-2.62,8.69,8.69,0,0,1,6-3.39L1215,315Zm99.06,3.78a5.4,5.4,0,0,0-1.35,1A5,5,0,0,1,1219.63,318.67Zm-1.35,1a5.76,5.76,0,0,0-1,1.41A5.76,5.76,0,0,1,1218.28,319.66Z"/><path class="cls-11" d="M1221.31,315.07a9.33,9.33,0,0,0-6.35,3.36c-1.47,1.87-2.49,4.74-2.29,9.14,0,0,.85,9.11,9.89,8.86a7.81,7.81,0,0,1,1.64.12h62.41a.44.44,0,0,0,.48-.37v-2.89c0-.19-.22-.35-.48-.35h-66.69c-2.92-1.39-3.57-3.17-3.38-8.25.12-3.11,1.49-5.07,3.45-6h66.7a.44.44,0,0,0,.48-.37v-2.88c0-.2-.21-.35-.48-.35Z"/><path class="cls-12" d="M1219.63,318.67c-1.87.95-3.17,2.91-3.28,6-.14,3.89.2,5.83,1.61,7.16a23.08,23.08,0,0,1-.13-3.62c.12-3.11,1.42-5.06,3.29-6h62.59v-3.55Z"/><path class="cls-6" d="M1176,298.2v.41h.22C1176.16,298.47,1176.1,298.33,1176,298.2Z"/><path class="cls-6" d="M1183.11,300.59v.12l-.1-.12Zm-4.16.19a5.18,5.18,0,0,1,2.83,4.84c.15,4.09-.38,5.52-2.77,6.64h-49.76l0-1.39,2.77-.39-2.66-.06,0-3.56,3.83-.14-3.75-.75-.14-5.19Zm4.16,11.54v.32h-.25Z"/><path class="cls-7" d="M1256.77,297.74s4.78,2.08,5,8.88-5,8.15-5,8.15l-73.21.39h-53.73a.34.34,0,0,1-.36-.3v-2.32a.32.32,0,0,1,.36-.28h49.55c2.17-1.12,2.65-2.55,2.51-6.64-.08-2.5-1.11-4.07-2.57-4.84h-49.56a.33.33,0,0,1-.35-.29v-2.32a.33.33,0,0,1,.35-.29H1183v0Z"/><path class="cls-13" d="M1256.77,297.74a9.07,9.07,0,0,1,4.23,5h-76.87a8.42,8.42,0,0,0-1.07-2.1,6.78,6.78,0,0,0-4.7-2.74l4.62,0Zm-77.44,3a4.29,4.29,0,0,1,1.06.8A4.11,4.11,0,0,0,1179.33,300.78Zm1.06.8a4.8,4.8,0,0,1,.81,1.13A4.8,4.8,0,0,0,1180.39,301.58Z"/><path class="cls-13" d="M1178,297.88a7.3,7.3,0,0,1,5,2.71c1.15,1.5,1.94,3.81,1.78,7.35,0,0-.66,7.33-7.72,7.12a6.46,6.46,0,0,0-1.28.1H1127a.34.34,0,0,1-.37-.3v-2.32c0-.16.16-.28.37-.28h52.13c2.28-1.12,2.79-2.55,2.64-6.64-.09-2.5-1.16-4.07-2.7-4.84h-52.13a.34.34,0,0,1-.38-.29v-2.32a.34.34,0,0,1,.38-.29Z"/><path class="cls-12" d="M1179.33,300.78c1.46.77,2.49,2.34,2.57,4.84.11,3.13-.16,4.7-1.26,5.76a19.5,19.5,0,0,0,.1-2.91c-.09-2.5-1.11-4.07-2.57-4.84h-49.49v-2.85Z"/><path class="cls-14" d="M1168.67,302.15s-5,2.8-2.75,11.31l-3.82-2.92-3.23,3s-3.46-8.62,1.2-11.89Z"/><path class="cls-6" d="M1201.11,276.48v.16l.09-.16Zm0,15v.41h.22C1201.25,291.77,1201.18,291.63,1201.11,291.49Z"/><path class="cls-15" d="M1117.59,264.91s-3.64,2.42-5.42,9.45h98.35a19.17,19.17,0,0,1,1.37-4c1.79-3.68,4.3-4.85,6-5.18l-5.92-.09Zm99.06,5.77a6.18,6.18,0,0,0-1.35,1.5A6,6,0,0,1,1216.65,270.68Zm-1.35,1.5a9.77,9.77,0,0,0-1,2.15A10.48,10.48,0,0,1,1215.3,272.18Z"/><path class="cls-6" d="M1162.39,264.17v.27c0-.09.09-.18.14-.27Zm0,26.63v.73h.34C1162.6,291.29,1162.51,291.05,1162.39,290.8Z"/><path class="cls-6" d="M1211.82,270.32v.22c0-.08.09-.15.13-.22Zm5.32.36c-2.05,1.44-3.49,4.43-3.62,9.17-.19,7.75.49,10.47,3.55,12.59h63.66l0-2.63-3.55-.75,3.4-.12,0-6.74-4.89-.26,4.78-1.43.19-9.83Zm-5.32,21.87v.61h.32C1212,293,1211.93,292.76,1211.82,292.55Z"/><path class="cls-16" d="M1117.59,264.91s-6.12,3.93-6.39,16.84,6.38,15.46,6.38,15.46l93.66.73H1280a.52.52,0,0,0,.45-.56V293a.49.49,0,0,0-.45-.54h-63.4c-2.77-2.12-3.39-4.84-3.21-12.59.11-4.74,1.41-7.73,3.28-9.17h63.41a.52.52,0,0,0,.45-.57v-4.39a.49.49,0,0,0-.45-.54H1212v-.09Z"/><path class="cls-17" d="M1218.33,265.18c-1.8.33-4.46,1.46-6.35,5.14-1.47,2.84-2.49,7.22-2.28,13.93,0,0,.84,13.9,9.88,13.51a5.14,5.14,0,0,1,1.64.18h62.41a.53.53,0,0,0,.48-.56V293a.5.5,0,0,0-.48-.54h-66.69c-2.92-2.12-3.57-4.84-3.38-12.59.12-4.74,1.49-7.73,3.45-9.17h66.7a.53.53,0,0,0,.48-.57v-4.39a.5.5,0,0,0-.48-.54Z"/><path class="cls-12" d="M1216.65,270.68c-1.87,1.44-3.17,4.43-3.28,9.17-.14,5.93.2,8.91,1.61,10.93a51.28,51.28,0,0,1-.12-5.52c.11-4.75,1.41-7.73,3.28-9.18h62.62v-5.4Z"/><path class="cls-10" d="M1260.38,284.68s6.35,5.95,3.48,24.06l4.83-6.2,4.08,6.45s4.38-18.36-1.51-25.3Z"/><path class="cls-18" d="M1277.64,281.16l-49.37-.51"/><path class="cls-17" d="M1200.28,277.73h-8a3.56,3.56,0,0,0-3.55,3.56h0a3.55,3.55,0,0,0,3.55,3.55h8a3.55,3.55,0,0,0,3.55-3.55h0A3.56,3.56,0,0,0,1200.28,277.73Z"/><path class="cls-7" d="M1313.91,287.47l11,47.81,71.23-1.26-10.54-43.9a4.83,4.83,0,0,0-4.54-3.38Z"/><path class="cls-13" d="M1312.37,287.23a4.31,4.31,0,0,1,3.89,1.84,4.73,4.73,0,0,1,.55,1.22,3.43,3.43,0,0,1,.12.62l0-.14,9.36,43.13a1.2,1.2,0,0,1-1,1.42,1.24,1.24,0,0,1-1.48-.93l-9.37-43.13c0-.05,0-.1,0-.15l0-.19a2,2,0,0,0-.24-.57,1.61,1.61,0,0,0-1.13-.7,1.13,1.13,0,0,0-1.2.38,1.47,1.47,0,0,0-.26.43c0,.15-1,4.69-1.38,6.36-1.07,4.83-2.16,9.67-3.2,14.18-.18.79-.36,1.55-.53,2.3-.45,1.93-.88,3.73-1.28,5.38-1.63,6.8-3.84,14.9-3.84,14.9s-1,.9-1.64.64a1.19,1.19,0,0,1-.65-1.58c.71-1.63,2.73-10.26,5-19.87.18-.75.36-1.51.54-2.29,1-4.5,2.12-9.34,3.19-14.17.37-1.69,1.4-6.42,1.4-6.44l0-.09a3.41,3.41,0,0,1,.17-.44,4.52,4.52,0,0,1,.54-.83A3.48,3.48,0,0,1,1312.37,287.23Z"/><path class="cls-19" d="M1313,289.65a1.61,1.61,0,0,1,1.13.7,2,2,0,0,1,.24.57l0,.19c0,.05,0,.1,0,.15l1.81,8.31,7.51,34.57-3.17.19-7.27-42.56-8.41,42-4.42.46c.14-.6.69-2.51,1.39-4.94,1.64-5.69,4.15-14.27,4.55-16,.17-.75.35-1.51.53-2.3,1-4.51,2.13-9.35,3.2-14.18.36-1.67,1.35-6.21,1.38-6.36a1.47,1.47,0,0,1,.26-.43A1.13,1.13,0,0,1,1313,289.65Z"/><path class="cls-12" d="M1313.35,291.77l.47,2.7,6.75,36.93.48,2.65-16.44.18,2-14,5.27-28.51s.13-1,.82-.89S1313.35,291.77,1313.35,291.77Z"/><path class="cls-12" d="M1287,43.81c-.93.91,7.75-6,8.69-5.48,1.1.55-5.32,9.14-6.36,9.66"/><path class="cls-12" d="M1289.73,49.24c11.28,19.05,5.43,11.8-3.41,3"/><path class="cls-12" d="M1281.49,49.7c-.74.37-8,8.73-7.82,9.32,0,.1,10.84-4.86,11.66-6"/><path class="cls-12" d="M1280.68,48.53s-6.71-9.18-6.23-9.42c.92-.46,9.28,5.33,10.06,6.1"/><path class="cls-6" d="M1281.84,45.28c1.25-.73,1.68-5.41,2-7,.09-.46,1.49-5.51,1.74-5.38,1,.48,1.05,11.22,2.34,12.51s12.79,3.17,12.87,3.83c.19,1.59-11.06-.81-12.43,2.6-1.58,4-.51,13.34-2.16,13.56s-1.75-11.38-3.58-13.21-7.69-2-10.16-2.78c-1.59-.53-4.87-1.22-4.87-1.22s3.55-.23,5.3-.52C1275.73,47.16,1279.43,46.7,1281.84,45.28Z"/><path class="cls-12" d="M466.65,66.59c-.93.92,7.74-6,8.69-5.48S470,70.25,469,70.77"/><path class="cls-12" d="M469.41,72c11.28,19,5.42,11.8-3.42,3"/><path class="cls-12" d="M461.17,72.48c-.74.37-8,8.73-7.82,9.32,0,.1,10.84-4.86,11.66-6"/><path class="cls-12" d="M460.36,71.32s-6.71-9.18-6.23-9.42c.92-.46,9.28,5.32,10.05,6.1"/><path class="cls-6" d="M461.52,68.07c1.24-.73,1.67-5.42,2-7,.09-.47,1.48-5.51,1.73-5.39,1,.48,1.06,11.22,2.35,12.51s12.78,3.18,12.86,3.83c.2,1.6-11.06-.81-12.43,2.6-1.57,4-.51,13.35-2.15,13.56s-1.75-11.38-3.58-13.21-7.7-2-10.17-2.78c-1.58-.53-4.86-1.22-4.86-1.22s3.54-.23,5.3-.52C455.4,69.94,459.11,69.48,461.52,68.07Z"/><path class="cls-10" d="M698.82,147.46,654.61,345.88l-279.73-5.13a5.07,5.07,0,0,1-4.85-6.22l40.9-176.07c2-7.84,10.15-14.12,18.23-14Z"/><path class="cls-11" d="M705,146.46a17.71,17.71,0,0,0-4.37.22,16.16,16.16,0,0,0-11.22,7.41,18.33,18.33,0,0,0-2.22,5.09,16.05,16.05,0,0,0-.5,2.57l.09-.6-37.59,179a5,5,0,0,0,9.78,2.06l37.59-179a3.83,3.83,0,0,0,.1-.59,5.32,5.32,0,0,1,.19-.81,8.37,8.37,0,0,1,1-2.35,6.25,6.25,0,0,1,4.53-2.9c2.35-.42,3.7.19,4.81,1.56a6.08,6.08,0,0,1,1,1.78c.13.62,4.08,19.45,5.56,26.38,4.29,20.07,8.67,40.13,12.85,58.87.72,3.25,1.42,6.42,2.12,9.53,9.22,40.89,15.83,67.35,19.06,75a5,5,0,1,0,9.19-3.91c-2.87-6.77-9.48-33.37-18.47-73.25-.7-3.1-1.43-6.26-2.15-9.5-4.18-18.7-8.54-38.76-12.82-58.81-1.49-7-5.6-26.63-5.62-26.72s-.09-.24-.13-.37a12.5,12.5,0,0,0-.68-1.81,16.72,16.72,0,0,0-2.16-3.47A13.94,13.94,0,0,0,705,146.46Z"/><g id="Layer_10" data-name="Layer 10"><path class="cls-20" d="M668.39,65.46c-5.72.89-11.48,5-14.64,9.28-1.12,1.51-2.61,3.82-1.44,5.66,1.47,2.32,4.48,1.65,6.42.42a22.81,22.81,0,0,0,2.75-2.42A28.12,28.12,0,0,0,660,81.19c-.72,1.84-1.62,4.64.31,6.15,2.2,1.72,4.86-1.32,5.67-3a6.51,6.51,0,0,0,.52-1.75c.06-.29.16-1.16,0-.89-1.19,2.43.11,8.08,4,7,2.26-.63,3.65-4.18,3.8-6.06.39-5.13-.74-10.23-1-15.23"/><path class="cls-21" d="M671,61.34c-.8.65-2.88,1.84-3.08,3s4.06,3.91,4.94,3.36c.63-.39,1.44-2.42,1.75-3.1"/><path class="cls-21" d="M730.74,85.12c.44,1.93-.42,4.54-1.35,4.93-1.15.49-6.75-1.27-6.85-2.46s1.18-2.35,1.58-3.34Z"/><path class="cls-20" d="M732.14,46.42l-4,8.55s-5.59,11.82-6,12.86-2,10.42-2,10.42L721,81l-.32.25c1.7,4.93,7.38,7.15,11.69,3.67,4.83-3.9,8-10.32,10-16a67.26,67.26,0,0,1,2.92-7.74l-.72.59.55-.77-5.66-10.94Z"/><path class="cls-20" d="M695.26,25.86c-.07-1.48-3.39-4-6.84-4.46s-7.24-.55-11,3.23c-8.66,8.67-13.29,18.81-11.19,30.89C667.29,61.71,670.86,69.38,678,66,687.9,61.2,695.26,25.86,695.26,25.86Z"/><path class="cls-22" d="M720.39,28.68h0c13.82,6.07,20.4,21.24,14.69,33.89l-4.53,10c-5.71,12.65-21.54,18-35.37,11.92h0c-13.83-6.06-20.4-21.24-14.69-33.88l4.52-10C690.72,28,706.56,22.62,720.39,28.68Z"/><path class="cls-22" d="M671.3,41.82c2.7-3.81,4.43-5,8.16-5.08a12.07,12.07,0,0,1,7.67,2.06c5.63,3.63,3.63,8.61,1.26,13.86-2.07,4.6-.7,10-6,8.61a36.82,36.82,0,0,1-4.91-1.17C670,56.14,666.84,48.11,671.3,41.82Z"/><path class="cls-20" d="M694.68,23.6c10.13-3.83,13.83-4.53,19.75-5.21s16.4.24,23.64,2.39c20.58,6.1,27.28,19.07,15.5,35.9a12.7,12.7,0,0,1-16,4A9.85,9.85,0,0,1,733,55.24a6.15,6.15,0,0,1,0-2.49c.08-.46.46-1.79.27-1.36-3.2,7.09-11.48,9.75-16.85,3.3-4.46-5.33-5.44-12.7-4.78-19.38"/><path class="cls-20" d="M681.25,36.44c4.92,1.18,6.07,2.11,7.59,4.43s.25,4.32,1.1,4.69c.24.11,7.45-5.66,8.81-6.18,5.61-2.12,11.26-3,17.13-1.7L712,25.59,700,22,692.38,24l-8.22,10.41"/><path class="cls-20" d="M728.43,90.1c.65-.22,1.13,4.51,1.15,5,.13,3.5-1.74,10.31-5.92,11.08-5.4,1-1.08-4.38-1.71-6.18-.15-.45-.4.84-.57,1.27a6.6,6.6,0,0,1-1.48,2.08c-1.19,1.27-5.16,4.12-6.66,1.57-.8-1.37,1.8-3.8,2.56-4.61.33-.36.63-.74,1-1.08.16-.16.74-.5.53-.43-2.09.7-6.28,6.38-9,3.42-1.4-1.53,1-4.4,2-5.43,3.79-3.78,9.37-5.26,12.59-9.39"/><path class="cls-20" d="M705.16,54.2c.53-1.19,1.62-1.87,2.43-1.51s1,1.6.48,2.79-1.62,1.87-2.43,1.51S704.62,55.39,705.16,54.2Z"/><path class="cls-20" d="M726.17,63.46c.54-1.19,1.63-1.87,2.43-1.51s1,1.6.49,2.79-1.63,1.87-2.43,1.51S725.64,64.65,726.17,63.46Z"/><path class="cls-23" d="M711.15,62.79s8.53,1.7,6.2,6.49"/><path class="cls-11" d="M719.82,77.25c.11-2.72-6.24-2.36-9.45-3.5-5.18-1.85-11.33-9.32-13.81-5.12-2.3,3.9,4.43,11.53,10.38,13.16S719.64,81.76,719.82,77.25Z"/><path class="cls-10" d="M703.67,74.7a47.73,47.73,0,0,0-7.37-3c.93,4,6,8.85,10.65,10.13a17.16,17.16,0,0,0,4.17.57C710.94,79.31,707.42,76.63,703.67,74.7Z"/><path class="cls-24" d="M704.06,46.75s7.55-.28,8.33,4.72"/><path class="cls-24" d="M728,59s5.78-1.05,5.84,3.63"/></g><path class="cls-19" d="M702.36,156.53a6.25,6.25,0,0,0-4.53,2.9,8.37,8.37,0,0,0-1,2.35,5.32,5.32,0,0,0-.19.81,3.83,3.83,0,0,1-.1.59l-7.24,34.51L659.86,337.93l13.56-8.06L701,165.31l23.5,120.15,10.07-5.9c-2-8.33-3.58-14.72-5.88-24.91-.7-3.11-1.4-6.28-2.12-9.53-4.18-18.74-8.56-38.8-12.85-58.87-1.48-6.93-5.43-25.76-5.56-26.38a6.08,6.08,0,0,0-1-1.78C706.06,156.72,704.71,156.11,702.36,156.53Z"/><path class="cls-12" d="M701,165.31l-1.87,11.19L672,330.54l61.81-.88-5.71-46.29-3.57,2.09L707,165.07s-.52-4-3.29-3.71S701,165.31,701,165.31Z"/><path class="cls-17" d="M700.69,92.94c1.48,5.9,6,18.48-5.85,33.91l-6.77-3.64.21-7.31S699.21,87.05,700.69,92.94Z"/><path class="cls-25" d="M698.36,91.14C692.71,88.8,690.09,85,685,83.8s-9,3.63-9,3.63-22.7,18.33-22.21,49.22c.22,14.28,33.16,11.23,33.16,11.23,1.79.17,8.8-2.38,8.24-5.88-2.44-15.11,5.18-46.45,5.18-46.45A3.28,3.28,0,0,0,698.36,91.14Z"/><path class="cls-22" d="M694.79,88.67l3-6L694.58,81l-3,5.9s-2.79-1.88-2.83-1.61c-.22,1.44,2.2,9.75,2.2,9.75s6.5-4.6,6-4.82A24,24,0,0,1,694.79,88.67Z"/><path class="cls-26" d="M663.37,139.77S644.31,153.86,633,187.28"/><path class="cls-20" d="M669.49,126.06c-5.9-.17-11-.07-14.82.07a53.56,53.56,0,0,0-.91,10.52c.23,14.28,33.16,11.24,33.16,11.24,1.79.18,8.79-2.39,8.22-5.89a57.9,57.9,0,0,1-.47-12.59C687.57,127.21,678,126.32,669.49,126.06Z"/><path class="cls-20" d="M687.68,148.56l3.58-.09,6.82-1.08L694.16,142Z"/><path class="cls-6" d="M888.26,265.42v.36l.24-.36Zm10.06.57c-3.89,2.26-6.61,6.94-6.84,14.37-.38,12.15.91,16.4,6.69,19.73h120.34V266Zm-10.06,34.27v.95h.6C888.64,300.9,888.46,300.58,888.26,300.26Z"/><path class="cls-16" d="M692,257s-12.75,6.16-13.29,26.38S692,307.56,692,307.56l195,1.14h143.15a.92.92,0,0,0,1-.88v-6.89a.89.89,0,0,0-1-.84h-132c-5.78-3.33-7.07-7.58-6.69-19.73.23-7.43,2.95-12.11,6.84-14.37h132a.93.93,0,0,0,1-.88v-6.89a.9.9,0,0,0-1-.85H888.59v-.14Z"/><path class="cls-25" d="M692,257s-7.57,3.79-11.28,14.8h204.8a25,25,0,0,1,2.86-6.25,17.67,17.67,0,0,1,12.52-8.13l-12.33-.14Zm206.3,9a11.34,11.34,0,0,0-2.81,2.35A11,11,0,0,1,898.32,266Zm-2.81,2.35a13.58,13.58,0,0,0-2.15,3.38A14.06,14.06,0,0,1,895.51,268.34Z"/><path class="cls-17" d="M900.92,257.37a17.72,17.72,0,0,0-12.57,8.05c-2.92,4.46-4.92,11.32-4.52,21.84,0,0,1.68,21.77,19.57,21.16a13.49,13.49,0,0,1,3.24.28h123.55a.92.92,0,0,0,1-.88v-6.89a.89.89,0,0,0-1-.84h-132c-5.78-3.33-7.07-7.58-6.69-19.73.23-7.43,2.95-12.11,6.84-14.37h132a.93.93,0,0,0,1-.88v-6.89a.9.9,0,0,0-1-.85Z"/><path class="cls-12" d="M898.32,266c-3.89,2.26-6.61,6.94-6.84,14.37-.29,9.3.43,13.95,3.36,17.12a62.49,62.49,0,0,1-.26-8.64c.23-7.44,2.95-12.11,6.84-14.38h117.09V266Z"/><path class="cls-6" d="M881.93,330.12v.95h.6C882.3,330.75,882.13,330.44,881.93,330.12Z"/><path class="cls-20" d="M610.47,189.62c-1.34,3.44-1.46,5.36,4.41,6.56,0,0,16.35,5,18.75,3.38s7.53-15.69,7.53-15.69l-12.39-4-3.47,6.85a3.26,3.26,0,0,1-3,1.53S612,185.58,610.47,189.62Z"/><path class="cls-20" d="M969.91,266.4l-.35.23"/><path class="cls-22" d="M1022.65,251.58s-1.37,4.35,1.69,6,9,.8,9,.8-2.3,1.43-1.74,3,2.83,1.78,5-1.11,2.26-2.61,3.25-4.78-1.32-3.42-4.25-4.23C1032.21,250.35,1022.65,251.58,1022.65,251.58Z"/><path class="cls-10" d="M999.36,190.87A5.6,5.6,0,0,0,997,200.4s.15.16.34.35c.35.33.8.75,1.25,1.21,1.34,1.37,2.8,3,4.35,4.82a94.47,94.47,0,0,1,11.94,18.12,76.85,76.85,0,0,1,7.84,25.88,5.44,5.44,0,0,0,.25.78c.27,0,4.06,1.1,6,1,4.24-.3,3.25-1.55,4.7-1.43a5.19,5.19,0,0,0,.12-1.63,87.62,87.62,0,0,0-8.93-29.53,104.88,104.88,0,0,0-13.35-20.28c-1.74-2.08-3.39-3.93-4.94-5.5-.94-1-1.66-1.65-2.09-2a5.38,5.38,0,0,0-1.91-1.09A5.65,5.65,0,0,0,999.36,190.87Z"/><path class="cls-22" d="M638.11,129.45s4.81,1.4,4.43,5.12-4.88,8.46-4.88,8.46,3.89-.73,3.82.27-.16,3.58-4.1,3.72-3.79.44-6.38,0-2.29-3.22-1.21-6.31C631,137.19,638.11,129.45,638.11,129.45Z"/><path class="cls-25" d="M686.11,84.75a5.59,5.59,0,0,1,2.09,2.5,5.52,5.52,0,0,1-2.89,7.3l-.43.22c-.44.2-1,.45-1.58.75q-2.56,1.28-5.66,3.15A93.51,93.51,0,0,0,660.49,112c-6.1,6-15.92,22.86-15.92,22.86s-.55,1.12-.82,1.69a5.37,5.37,0,0,1-.49.66c-.24-.12-3.48.81-6-.17a9.14,9.14,0,0,1-4-3.73,7.73,7.73,0,0,1,.4-1.58c4.44-9.42,11.52-20.33,19-27.66A105.11,105.11,0,0,1,671.8,89.15c2.32-1.4,4.49-2.62,6.45-3.61,1.21-.61,2.11-1,2.64-1.25a5.79,5.79,0,0,1,2.15-.42A5.69,5.69,0,0,1,686.11,84.75Z"/><path class="cls-11" d="M979.91,192.75s-9.81,4.19-2,24.69l4.52,6.17,1.21-13.34Z"/><path class="cls-6" d="M853.93,314.06v.27l-.28-.27Zm-12.07.43c4.67,1.72,7.94,5.27,8.21,10.91.45,9.21-1.09,12.43-8,15H697.57V314.49Zm12.07,26v.72h-.71C853.48,341,853.69,340.73,853.93,340.49Z"/><path class="cls-7" d="M1065.67,307.64s13.75,4.67,14.34,20S1065.69,346,1065.69,346l-179.78.74-30.66.12H700.81c-.58,0-1-.3-1-.66V341c0-.36.45-.64,1-.64H843.24c6.24-2.53,7.63-5.75,7.22-15-.24-5.64-3.18-9.19-7.38-10.91H700.63c-.58,0-1-.31-1-.67V308.6c0-.36.45-.64,1-.64l153-.11Z"/><path class="cls-13" d="M840.41,308c6.81.7,19.42,4.41,18.43,22.67,0,0-1.81,16.52-21.11,16.06a19.55,19.55,0,0,0-3.5.21H700.93c-.57,0-8.1.67-7.84-3.34s7.27-3.19,7.84-3.19H843.36c6.24-2.53,7.63-5.75,7.23-15-.25-5.64-3.18-9.18-7.38-10.9,0,0-104.14.9-142.46,0-6.54-.16-7.49-1.41-7.55-3.58-.09-3,4.07-3.78,6.73-3.51S840.41,308,840.41,308Z"/><path class="cls-12" d="M843.08,314.49c4.2,1.72,7.14,5.27,7.38,10.91.31,7.05-.46,10.58-3.62,13a34.19,34.19,0,0,0,.28-6.56c-.25-5.65-3.18-9.19-7.38-10.91l-141.52.2V314.7Z"/><path class="cls-27" d="M776,328.4s-12,7.14-6.6,28.84l-9.17-7.44-7.74,7.74s-8.31-22,2.87-30.33Z"/><path class="cls-28" d="M858.29,137.46l18.17,17.64,12.48-56Z"/><path class="cls-28" d="M834.89,129.3,889,99l-35.09,36.25Z"/><path class="cls-27" d="M856,153.76l-2.71-18.59L889,99.06,858.37,137.7Z"/><path class="cls-29" d="M858.45,137.55l5.12,4.91-7.52,10.85Z"/><path class="cls-30" d="M695.31,235.1c43.85,11,105.24-39.19,83.41-64.14-15.24-17.42-39.06,3-37.93,17.14C743,215.7,805,241.47,848,158.27"/><path class="cls-22" d="M1001.91,121.72h0c-15.34-6.71-32.53-.45-38.4,14l-4.66,11.45c-5.88,14.45,1.8,31.59,17.14,38.3h0c15.34,6.71,32.53.45,38.4-14l4.66-11.46C1024.92,145.57,1017.25,128.43,1001.91,121.72Z"/><path class="cls-22" d="M1028.44,172.24c1-5.16.66-7.48-2.07-10.63a13.37,13.37,0,0,0-7.47-4.73c-7.18-1.83-9.68,3.65-12.11,9.64-2.14,5.25-7.56,8.31-2.4,11.56.72.46,3.54,2.76,4.64,3.14C1017.92,184.36,1026.75,180.76,1028.44,172.24Z"/><path class="cls-20" d="M990.55,154.76c.69-1.29.56-2.73-.28-3.22s-2.1.17-2.79,1.47-.56,2.72.29,3.21S989.86,156.05,990.55,154.76Z"/><path class="cls-20" d="M969.62,145.66c.68-1.29.56-2.73-.29-3.22s-2.09.17-2.78,1.46-.56,2.73.28,3.22S968.93,147,969.62,145.66Z"/><path class="cls-24" d="M999.71,146.86s-4.79-7-9.71-4.29"/><path class="cls-24" d="M976,137.85s-2.93-5.92-7.09-2.79"/><path class="cls-10" d="M981.57,191.22c7-1.68,11-2.8,16.68-2.27,3.92.37,11.69,6.67,16.26,18.18s4.39,22.47,2.93,36.36c-1.69,16-20,16.91-38,14.13-10.13-1.57-6.72-11.57-3.29-26.69s2.13-33.33,2.13-33.33S977.74,192.12,981.57,191.22Z"/><path class="cls-22" d="M986.32,189.91s-3-4.66-2.12-6.65,6.55-1.73,5.09.62,1.09,5.47,1.09,5.47,3.63-.82,3.57-.53c-.36,1.6-6.21,9.35-6.21,9.35s-4.83-7.48-4.26-7.53A27.92,27.92,0,0,0,986.32,189.91Z"/><path class="cls-20" d="M1024.29,159.64s3.76-5.21,5-9.56a13.91,13.91,0,0,0,0-7.86l-6.24-9.07-6.7-5.25-19.8.09-5.22,6.75,15.22,7.43c7.23,3.14,4.5,6.74,1.64,14.29-3.07,8.1-.49,11.7,1.81,8.26C1017.41,153.69,1024.29,159.64,1024.29,159.64Z"/><path class="cls-20" d="M1026.48,141.58c1.12-3.51,5.34-8.49,4-12.51-4.54-13.62-34.67-21.51-42.56-21.13s-19.77-10.61-21.34-3,3.67,14.42,7.11,16.2c5.16,2.68,6.71,7.4,12,9.8"/><path class="cls-20" d="M973.15,116.9c-2.57-.86-18.92,1.94-11.87,7.59,15.39,12.33,28.56,12.1,46.3,18"/><path class="cls-23" d="M966.48,164.64s.43,6.46,3.57,7.2c1.47.35,4.73-2.17,6.63-4.25"/><path class="cls-23" d="M969,155.83s3.87-3.52,7.15,2.64"/><path class="cls-20" d="M1018,238.52c-17.65,2.67-37.84-1.26-43-2.39-2.81,12-4.37,20.1,4.48,21.48,17.95,2.77,35.52,4.35,38-11.56A69.21,69.21,0,0,0,1018,238.52Z"/><path class="cls-26" d="M980.75,250.62C975,246.72,969,230,957.38,233.08S936,257.15,941,253"/><path class="cls-20" d="M916.47,257c-1.32,3.6-1.41,5.61,4.65,6.78,0,0,16.92,5,19.38,3.27S948,250.6,948,250.6l-12.82-4-3.47,7.18a3.34,3.34,0,0,1-3.05,1.64S918,252.77,916.47,257Z"/><path class="cls-26" d="M1000.19,251.7c5.76,2.32-17.48-6.12-25.6,2.73a26.86,26.86,0,0,0-7.13,19.17"/><path class="cls-10" d="M952.09,288.61s11.16,6.94,6.11,28.06l8.51-7.23,7.17,7.51s7.7-21.4-2.66-29.5Z"/><path class="cls-20" d="M948.07,288.33c.34,3.82,1.12,5.67,7.1,4.15,0,0,17.46-2.67,18.92-5.31s-.24-18.08-.24-18.08l-13.31,1.83-.07,8a3.35,3.35,0,0,1-2.07,2.79S947.68,283.84,948.07,288.33Z"/><path class="cls-6" d="M78.64,328.25v.5H78.4C78.49,328.58,78.56,328.42,78.64,328.25Z"/><path class="cls-6" d="M213.24,326.73v.72h.34C213.46,327.22,213.36,327,213.24,326.73Z"/><path class="cls-15" d="M171.84,135.62l.06-14.12,79.86-49.61s56.18,11.41,66.53,40.57c0,0,45.09-4.19,63.93,11.58l-2.43,11.78s-69.74,28.37-71.67,29.81-67.3-2.24-67.3-2.24L210.25,136Z"/><path class="cls-16" d="M248.16,85.69s27.75,5.69,39.4,11.65c13.94,7.13,18.56,16.42,24.3,23.17,2.14,2.52-.61,3.24-.61,3.24l-83.81,52.31s1.64-16.3-16.47-23.78S167.1,139.8,167.1,139.8l.56-4.78Z"/><path class="cls-16" d="M232,176.86,316.21,126s0-2.53,1.4-3.17c4.43-2,27.16-2.46,38.14-.31S382.24,137,382.24,137s-1.69,2.69-.52,4.06l-90.1,43.34s-3.91-8.7-17.83-11.08C264,171.7,252.59,171,232,176.86Z"/><polygon class="cls-31" points="316.97 125.61 316.95 125.62 316.95 125.63 316.94 125.63 311.6 123.57 311.55 123.55 311.55 123.38 311.75 123.46 316.95 125.6 316.97 125.61"/><polygon class="cls-32" points="311.55 123.38 311.55 123.55 311.6 123.57 316.94 125.63 232.86 176.99 227.2 176.14 244.49 165.3 227.91 175.61 227.86 172.04 311.65 119.67 311.67 120.52 317.36 122.72 316.95 125.6 311.75 123.46 311.55 123.38"/><polygon class="cls-31" points="316.95 125.6 316.95 125.63 316.94 125.63 311.6 123.57 311.55 123.55 311.55 123.38 311.75 123.46 316.95 125.6"/><polygon class="cls-31" points="311.75 123.46 311.75 123.48 311.6 123.57 311.55 123.55 311.55 123.38 311.75 123.46"/><path class="cls-33" d="M215.61,184.77c-30.81,15.42-100,47.48-57.67,100.14"/><path class="cls-6" d="M242.13,318.84V319l-.13-.15Zm-5.33.24c2.06.95,3.5,2.9,3.62,6,.2,5.09-.48,6.86-3.54,8.26H173.22l0-1.73,3.54-.49-3.39-.08,0-4.42,4.89-.17-4.79-.94-.18-6.44Zm5.33,14.34v.4h-.32C241.93,333.69,242,333.55,242.13,333.42Z"/><path class="cls-14" d="M336.36,315.3s6.12,2.58,6.38,11-6.37,10.13-6.37,10.13l-93.66.48H174a.43.43,0,0,1-.46-.37V333.7c0-.2.21-.35.46-.35h63.4c2.77-1.4,3.39-3.17,3.21-8.26-.11-3.11-1.42-5.06-3.28-6H173.89a.43.43,0,0,1-.46-.37v-2.88a.42.42,0,0,1,.46-.36H242v-.06Z"/><path class="cls-34" d="M336.36,315.3a11.4,11.4,0,0,1,5.42,6.19H243.43a10.07,10.07,0,0,0-1.37-2.62,8.76,8.76,0,0,0-6-3.4l5.92-.06Zm-99.06,3.78a5.54,5.54,0,0,1,1.35,1A5.36,5.36,0,0,0,237.3,319.08Zm1.35,1a5.82,5.82,0,0,1,1,1.42A6.1,6.1,0,0,0,238.65,320.06Z"/><path class="cls-34" d="M235.62,315.47a9.37,9.37,0,0,1,6.35,3.37c1.47,1.87,2.49,4.74,2.28,9.14,0,0-.85,9.11-9.88,8.85a8.55,8.55,0,0,0-1.64.12H170.32a.44.44,0,0,1-.48-.37V333.7c0-.2.21-.35.48-.35H237c2.92-1.4,3.57-3.17,3.38-8.26-.12-3.11-1.49-5.06-3.46-6H170.24a.44.44,0,0,1-.48-.37v-2.88c0-.2.21-.36.48-.36Z"/><path class="cls-12" d="M237.3,319.08c1.86.95,3.17,2.9,3.28,6,.14,3.89-.2,5.84-1.61,7.17a22.11,22.11,0,0,0,.12-3.62c-.11-3.11-1.41-5.07-3.28-6H173.43v-3.54Z"/><path class="cls-6" d="M280.91,298.6V299h-.23C280.77,298.88,280.83,298.74,280.91,298.6Z"/><path class="cls-6" d="M273.82,301v.12l.1-.12Zm4.16.19a5.14,5.14,0,0,0-2.83,4.84c-.16,4.08.38,5.52,2.77,6.64h49.76l0-1.39-2.77-.4,2.65-.06,0-3.56-3.82-.13,3.74-.76.15-5.18Zm-4.16,11.53V313h.25A2.51,2.51,0,0,1,273.82,312.72Z"/><path class="cls-25" d="M200.16,298.15s-4.79,2.07-5,8.88,5,8.15,5,8.15l73.21.38h53.73a.33.33,0,0,0,.36-.29V313a.32.32,0,0,0-.36-.28H277.54c-2.17-1.12-2.65-2.56-2.51-6.64.08-2.51,1.1-4.08,2.56-4.84h49.56a.34.34,0,0,0,.36-.3v-2.32a.32.32,0,0,0-.36-.28H273.94v-.05Z"/><path class="cls-17" d="M200.16,298.15a9,9,0,0,0-4.23,5H272.8a8.17,8.17,0,0,1,1.07-2.11,6.74,6.74,0,0,1,4.7-2.73l-4.63-.05Zm77.43,3a4.2,4.2,0,0,0-1,.79A4,4,0,0,1,277.59,301.19Zm-1,.79a4.86,4.86,0,0,0-.81,1.14A4.86,4.86,0,0,1,276.54,302Z"/><path class="cls-17" d="M278.9,298.29a7.22,7.22,0,0,0-5,2.71c-1.15,1.5-1.94,3.81-1.78,7.35,0,0,.66,7.33,7.72,7.12a6.54,6.54,0,0,1,1.28.09h48.78a.34.34,0,0,0,.38-.29V313c0-.16-.17-.28-.38-.28H277.82c-2.28-1.12-2.79-2.56-2.64-6.64.09-2.51,1.16-4.08,2.7-4.84H330a.35.35,0,0,0,.38-.3v-2.32c0-.16-.17-.28-.38-.28Z"/><path class="cls-12" d="M277.59,301.19c-1.46.76-2.48,2.33-2.56,4.84-.11,3.12.16,4.69,1.26,5.76a19.55,19.55,0,0,1-.1-2.91c.08-2.5,1.11-4.08,2.57-4.84h48.75v-2.85Z"/><path class="cls-10" d="M289,306.15s5,2.8,2.75,11.31l3.82-2.92,3.23,3s3.46-8.62-1.2-11.89Z"/><path class="cls-6" d="M255.82,276.89V277l-.09-.15Zm0,15v.41h-.22Z"/><path class="cls-15" d="M339.34,265.32s3.63,2.41,5.42,9.44H246.41a19.07,19.07,0,0,0-1.37-4c-1.8-3.68-4.3-4.85-6-5.19l5.92-.08Zm-99.06,5.76a6.66,6.66,0,0,1,1.35,1.51A6.24,6.24,0,0,0,240.28,271.08Zm1.35,1.51a9.55,9.55,0,0,1,1,2.15A10,10,0,0,0,241.63,272.59Z"/><path class="cls-6" d="M294.54,264.58v.27l-.14-.27Zm0,26.63v.72h-.34C294.32,291.7,294.42,291.45,294.54,291.21Z"/><path class="cls-6" d="M245.1,270.72V271a2.53,2.53,0,0,0-.12-.23Zm-5.32.36c2.06,1.45,3.5,4.43,3.62,9.18.2,7.75-.48,10.46-3.54,12.59H176.2l0-2.63,3.54-.76-3.39-.11,0-6.75,4.89-.25-4.79-1.44-.18-9.83ZM245.1,293v.6h-.31C244.91,293.36,245,293.16,245.1,293Z"/><path class="cls-7" d="M339.34,265.32s6.12,3.93,6.38,16.83-6.37,15.46-6.37,15.46l-93.66.73H177a.52.52,0,0,1-.46-.56v-4.39a.5.5,0,0,1,.46-.54h63.39c2.78-2.13,3.4-4.84,3.22-12.59-.11-4.75-1.42-7.73-3.28-9.18H176.87a.52.52,0,0,1-.46-.56v-4.4a.51.51,0,0,1,.46-.54H245v-.08Z"/><path class="cls-35" d="M238.6,265.58c1.8.34,4.45,1.47,6.35,5.14,1.47,2.85,2.48,7.23,2.28,13.94,0,0-.85,13.89-9.88,13.5a5.77,5.77,0,0,0-1.64.18H173.3a.52.52,0,0,1-.48-.56v-4.39a.5.5,0,0,1,.48-.54H240c2.92-2.13,3.57-4.84,3.38-12.59-.12-4.75-1.49-7.73-3.46-9.18H173.22a.52.52,0,0,1-.48-.56v-4.4a.51.51,0,0,1,.48-.54Z"/><path class="cls-12" d="M240.28,271.08c1.86,1.45,3.17,4.43,3.28,9.18.14,5.93-.21,8.9-1.61,10.93a54.11,54.11,0,0,0,.12-5.52c-.11-4.75-1.41-7.73-3.28-9.18H175.32v-5.41Z"/><path class="cls-10" d="M196.54,285.09s-6.34,6-3.47,24.06l-4.83-6.2-4.08,6.44s-4.38-18.35,1.51-25.3Z"/><path class="cls-18" d="M179.29,281.57l49.36-.51"/><path class="cls-35" d="M256.65,278.14h8a3.55,3.55,0,0,1,3.55,3.56h0a3.55,3.55,0,0,1-3.55,3.55h-8a3.55,3.55,0,0,1-3.55-3.55h0A3.55,3.55,0,0,1,256.65,278.14Z"/><path class="cls-16" d="M143,287.88l-11,47.81-71.23-1.26,10.54-43.91a4.85,4.85,0,0,1,4.54-3.38Z"/><path class="cls-17" d="M144.55,287.63a4.46,4.46,0,0,0-1.08.06,4,4,0,0,0-2.8,1.78,4.2,4.2,0,0,0-.55,1.23,5,5,0,0,0-.13.62l0-.15-9.37,43.13a1.21,1.21,0,0,0,1,1.43,1.25,1.25,0,0,0,1.48-.93l9.36-43.14,0-.14a1.21,1.21,0,0,1,0-.2,2.34,2.34,0,0,1,.25-.56,1.56,1.56,0,0,1,1.13-.7,1.13,1.13,0,0,1,1.2.38,1.34,1.34,0,0,1,.26.42c0,.16,1,4.69,1.38,6.36,1.07,4.84,2.16,9.67,3.2,14.19.18.78.36,1.55.53,2.3.45,1.93.88,3.72,1.27,5.38,1.64,6.79,3.85,14.9,3.85,14.9s1,.9,1.64.64a1.19,1.19,0,0,0,.65-1.58c-.72-1.64-2.73-10.26-5-19.87-.18-.75-.36-1.51-.54-2.29-1-4.51-2.13-9.34-3.19-14.17-.37-1.69-1.4-6.42-1.4-6.44l0-.09a3.75,3.75,0,0,0-.18-.44,4,4,0,0,0-.53-.84A3.56,3.56,0,0,0,144.55,287.63Z"/><path class="cls-19" d="M143.9,290.06a1.56,1.56,0,0,0-1.13.7,2.34,2.34,0,0,0-.25.56,1.21,1.21,0,0,0,0,.2l0,.14-1.8,8.32-7.52,34.57,3.18.18,7.26-42.56,8.42,42,4.42.47c-.15-.6-.69-2.51-1.39-4.95-1.64-5.68-4.15-14.27-4.55-16-.17-.75-.35-1.52-.53-2.3-1-4.52-2.13-9.35-3.2-14.19-.37-1.67-1.35-6.2-1.38-6.36a1.34,1.34,0,0,0-.26-.42A1.13,1.13,0,0,0,143.9,290.06Z"/><path class="cls-12" d="M143.57,292.17l-.46,2.7-6.75,36.93-.48,2.65,16.44.19-2-14L145,292.12s-.12-1-.81-.9S143.57,292.17,143.57,292.17Z"/><path class="cls-36" d="M182.92,380.93a4.38,4.38,0,0,0,1.16-.81c.71-.62.82-1.44,1.45-2.23a28,28,0,0,1,2.19-2.26,18.81,18.81,0,0,1-.88,2.79,4,4,0,0,1-1.33,1.69.87.87,0,0,0,.82,0,3.09,3.09,0,0,1,1.66-.39,3.83,3.83,0,0,0,2.46-.41c.88-.53,1.67-1,1.67-1a4.89,4.89,0,0,1-2.76,2.63,5.32,5.32,0,0,1-3.6.31,2.24,2.24,0,0,0-1.59-.29,3.48,3.48,0,0,1-1.25,0"/><path class="cls-36" d="M190,371.91a20,20,0,0,0,.12,2.21,3.38,3.38,0,0,1-.26,1.82c-.23.54-.63,1.32-.34,1.48s.39-.47,1-.92,1.76-1,2.38-1.39a6.53,6.53,0,0,0,1.75-1.72,6.68,6.68,0,0,1-2.58,4,11,11,0,0,1-4.22,1.23,2,2,0,0,0,.45-.94c.15-.68.23-2.1.51-3a29.38,29.38,0,0,1,1.18-2.78"/><path class="cls-36" d="M191.19,368.2s.81,2,.92,2.61a14.58,14.58,0,0,1-.06,2.28,9.28,9.28,0,0,0,1.32-1.63c.51-.82,1.24-1.1,1.66-1.75l.58-.91a20.37,20.37,0,0,1-.87,2.86c-.75,1.76-3.76,3.62-3.76,3.62a7.53,7.53,0,0,0,.23-1.53,17.1,17.1,0,0,0-.25-2.95,16.37,16.37,0,0,1,.23-2.6"/><path class="cls-36" d="M191.14,364a11.51,11.51,0,0,1,.73,1.07,7.08,7.08,0,0,1,1.17,2.07c0,.47.26,1.05.42,1s.15-.56.39-1.37.92-1.6,1-2.19.28-1.17.28-1.17a10.05,10.05,0,0,1-.07,3.71,5.9,5.9,0,0,1-1.59,2.68c-.16.21-.44.5-.44.5s.15.15-.31-.89-.8-1.68-1.21-2.45a13,13,0,0,1-.41-3"/><path class="cls-36" d="M190.1,360.59a9.17,9.17,0,0,1,1.66,1.22c.58.63,1.23,1.81,1.44,1.76s0-1.05,0-1.44a15.79,15.79,0,0,0,.13-2.61c-.08-.46-.22-1.13-.22-1.13a7.34,7.34,0,0,1,1.26,3.24,4.12,4.12,0,0,1-.57,2.71,6.23,6.23,0,0,0-.52,1.32,5.66,5.66,0,0,0-.63-.94,11.25,11.25,0,0,1-1.74-2.31c-.34-.84-.85-1.82-.85-1.82"/><path class="cls-36" d="M188.39,357.29a8,8,0,0,0,.84.66,12.92,12.92,0,0,1,1.54,1c.36.36.82.79,1,.68s-.05-.43-.34-1.21a18.18,18.18,0,0,0-.52-1.89,5,5,0,0,1-.44-1,5.73,5.73,0,0,1,1.69,2,22.55,22.55,0,0,1,.23,3.77,3.69,3.69,0,0,0-.75-.72c-.5-.36-1.74-1.27-2.16-1.6a3.71,3.71,0,0,1-1.09-1.68"/><path class="cls-36" d="M187.23,354.24a5.58,5.58,0,0,1,1.87.93,7,7,0,0,1,1.33,2.34,9.29,9.29,0,0,1-1.69-1.07,16,16,0,0,1-1.51-2.2"/><path class="cls-36" d="M165.12,381.87a5.41,5.41,0,0,0,2.33.6,22.78,22.78,0,0,0,3.64-.85,9.79,9.79,0,0,1,3.71-.39c.75.13,2.07.3,2.07.3s1.72-.27,3-.34a8,8,0,0,1,2.58.47,16.52,16.52,0,0,0,3.71.88,5.92,5.92,0,0,0,2.54-.54s-.14,1.06-3.61,1.39c-2.07.19-2.92,0-3.82-.54a6.76,6.76,0,0,0-2.36-1.09,9.27,9.27,0,0,0-1.13,0,8.5,8.5,0,0,1,1.86.94c.62.49,2.23,1.81,2.23,1.81l-.4.45a7.64,7.64,0,0,0-1.64-1.64,8.22,8.22,0,0,0-3-1.47,7.52,7.52,0,0,0-3.37,1.83,7.37,7.37,0,0,0-1.19,1.24l-.41-.41a13.15,13.15,0,0,1,1.9-1.52,23.89,23.89,0,0,1,2.24-1.29s0-.11-.7-.05a4.35,4.35,0,0,0-2.31.83,5.13,5.13,0,0,1-2.54,1,9.59,9.59,0,0,1-4-.56c-1.15-.49-1.39-1.05-1.39-1.05"/><path class="cls-36" d="M161.64,378.14s1.05.83,1.54,1.11a5.59,5.59,0,0,0,2.75.43,7.31,7.31,0,0,1,1.52.36c.21.1.83.15.89,0s-.56-.39-1-1.22a13.61,13.61,0,0,1-1.1-3.22,9.93,9.93,0,0,1,2,2c.94,1.24.81,1.85,1.47,2.41a7.45,7.45,0,0,0,1.34.9,10.05,10.05,0,0,0-1.49,0,17,17,0,0,1-2.61.47,5.36,5.36,0,0,1-4.15-1.73,5.63,5.63,0,0,1-1.11-1.49"/><path class="cls-36" d="M159,373.47a9.71,9.71,0,0,0,1.53,1.56c.9.73,2.28,1.17,2.75,1.7s.67,1,.94.83-.17-.59-.34-1.28a11.28,11.28,0,0,1-.17-3.28,4.21,4.21,0,0,0,0-.94,19.49,19.49,0,0,1,.91,1.81,21.75,21.75,0,0,1,.61,3.54,4,4,0,0,0,.64,1.35,9.08,9.08,0,0,1-2.09-.34c-.69-.26-2.65-1-3.39-2.18a30.65,30.65,0,0,1-1.43-2.77"/><path class="cls-36" d="M158.15,368.82a3.71,3.71,0,0,0,.73,1.15,13.53,13.53,0,0,1,1.26,1.26c.37.44,1.24,2.12,1.53,2.07s-.12-.9,0-1.75a10.81,10.81,0,0,1,1.06-3.16,21.5,21.5,0,0,1,.15,2.84,20,20,0,0,0-.28,2.85,13.55,13.55,0,0,1,.2,1.35,25.32,25.32,0,0,1-2.35-1.8,9.75,9.75,0,0,1-2-3.43,9,9,0,0,1-.24-1.38"/><path class="cls-36" d="M158.51,363.55a16.42,16.42,0,0,0,.16,3.81,6.89,6.89,0,0,0,2,3.14,6.49,6.49,0,0,1,.45-1.34c.32-.68.83-1.35,1-1.9a12.79,12.79,0,0,0,.49-3s-.36.54-.68,1a8,8,0,0,0-1,1.67c-.3.72-.34,1.38-.67,1.42-.48,0-.08-.64-.48-1.57a18.08,18.08,0,0,1-1-2.31,3.74,3.74,0,0,0-.27-.91"/><path class="cls-36" d="M160.58,358.5a6.91,6.91,0,0,0-1.19,2.71,5,5,0,0,0,.45,3.2,4.54,4.54,0,0,1,.45,1.45,3.39,3.39,0,0,1,.61-.92,11.85,11.85,0,0,0,1.71-2.05,18.32,18.32,0,0,0,1-2.1,9,9,0,0,0-1.32.91,9.49,9.49,0,0,0-1.77,2.11.79.79,0,0,1-.23-.74,5.45,5.45,0,0,0,.14-1.58,4.53,4.53,0,0,1-.11-1.37c.11-.61.26-1.62.26-1.62"/><path class="cls-36" d="M163.4,355.58a4.7,4.7,0,0,0-1.77,1.9,13.67,13.67,0,0,0-.3,2.5,3.61,3.61,0,0,0,0,1.43,4.2,4.2,0,0,1,.6-.73,10.45,10.45,0,0,1,1.8-1.23,5.3,5.3,0,0,0,1.7-2.13,8.38,8.38,0,0,1-1,.82A11.81,11.81,0,0,0,163,359a2.43,2.43,0,0,0-.62.95.93.93,0,0,1-.29-.86,10.46,10.46,0,0,0,.47-1.24,5.76,5.76,0,0,1,.42-1.45c.18-.32.41-.79.41-.79"/><path class="cls-36" d="M164.41,355.51a8.42,8.42,0,0,1,2.14-1.13,11.43,11.43,0,0,1-1.41,1.89,7.83,7.83,0,0,1-1.92,1.39,4.32,4.32,0,0,1,1.19-2.15"/><path class="cls-36" d="M171.79,357.37c1.46,0,4.39,1.58,4.39,3.68a3.21,3.21,0,0,1-1,2.2,3.15,3.15,0,0,1-.07.95c-.19.43-.38.3-.63.68s-.36,1-1.42,1-1-.34-1.55-.34a1.18,1.18,0,0,0-.85.48v3.8s.11.49,1.06,1a6.44,6.44,0,0,0,2,.82c.29,0,.29-.34.65-.34s1.82,0,1.82.68-.72,1.15-3.35,1.15a28,28,0,0,1-3.73-.21c-.29,0-.34.06-.34.46s0,1,0,1a3.21,3.21,0,0,0,1,1,2.61,2.61,0,0,0,1.42.42,5.85,5.85,0,0,0,2.2-.51,5.52,5.52,0,0,1,2.25-.5c.83,0,2.29-.19,2.29-1s-.32-1.15-.32-1.8.11-1.24-.21-1.55-1.72-1.33-1.72-1.91.52-.82.58-1.14,0-.51.23-.57a3.88,3.88,0,0,0,.38-.15l.11-.53a2,2,0,0,0,.42-.26l.28-.21a.75.75,0,0,1,.1-.66,1,1,0,0,1,.79-.19c.23,0,1-.08,1-.08A2.38,2.38,0,0,1,180,364c.43-.32,1.59-.48,1.89-.72s.61-.8,1.4-.8c3.22,0,5.38,2.9,5.38,4.47,0,2.71-1.76,6-4.22,6-1.93,0-1.8.57-1.8,1.21a1.8,1.8,0,0,0,1.44,1.76,12.35,12.35,0,0,1-6.55,2.28,12.07,12.07,0,0,1-9.06-3.87,10.75,10.75,0,0,1-2.91-7.52v-1.51a12.06,12.06,0,0,1,1.41-1c.53-.27,1.72-1,1.72-1.52a18.25,18.25,0,0,1-.22-2,4.06,4.06,0,0,1,.64-2.24,3.37,3.37,0,0,1,2.72-1.23"/><path class="cls-36" d="M177,353.89a12.81,12.81,0,1,0,12.8,12.8,12.8,12.8,0,0,0-12.8-12.8Zm9.56,4.86a8.13,8.13,0,0,1,1,1.35,3.75,3.75,0,0,1-1,.7c-.52.24-1.48.6-1.48.6a17.21,17.21,0,0,0-.63-1.67c-.28-.58-.58-1.27-.58-1.27l.7-.48c.42-.3.7-.55.7-.55a17.2,17.2,0,0,1,1.28,1.32Zm-4.23-3.29a8.92,8.92,0,0,1,1.45.81c.59.43,1.26,1,1.26,1a1.77,1.77,0,0,1-.43.42,4.44,4.44,0,0,1-.8.46s-.43-.6-.79-1.06-1-1.24-1-1.24.15-.15.23-.25.12-.1.12-.1Zm-1.67,2.67a4.59,4.59,0,0,0-.47-1.15,9.54,9.54,0,0,0,.89-.49,6,6,0,0,0,.63-.46,15.67,15.67,0,0,1,1,1.17,11.29,11.29,0,0,1,.76,1.08l-1.22.55a6.68,6.68,0,0,1-1.45.42s-.06-.53-.19-1.12Zm.32,4.37a7.27,7.27,0,0,1-1.29.12c-1,0-1.88,0-1.88,0v-2.83s.77.05,1.34.05a11.61,11.61,0,0,0,1.52-.17s.06.44.18,1.16a13.23,13.23,0,0,1,.13,1.69Zm.32-7.49a3.78,3.78,0,0,1,.76.35l-.36.29-.5-.48a2.4,2.4,0,0,0-.81-.42s.56.17.91.26Zm-1-.09a4.73,4.73,0,0,1,1.15.92l-.58.41a2.46,2.46,0,0,1-.81.34s-.3-.7-.51-1.11a8.16,8.16,0,0,0-.86-1.08,6,6,0,0,1,1.61.52Zm-2.54-.59s.7-.19,1.34,1c.33.63.64,1.34.64,1.34a6.84,6.84,0,0,1-1,.21,4.26,4.26,0,0,1-1,0v-2.54Zm0,2.91a7.43,7.43,0,0,0,1,0,8.29,8.29,0,0,0,1.09-.16,2.23,2.23,0,0,1,.37,1c.17.73.25,1.25.25,1.25a8.27,8.27,0,0,1-1.42.22,5.53,5.53,0,0,1-1.32-.05v-2.27Zm-.38-2.91,0,2.58a3.66,3.66,0,0,1-1.17-.12,3.38,3.38,0,0,1-.88-.34,9.24,9.24,0,0,1,.74-1.22c.92-1.26,1.26-.9,1.26-.9Zm-.78-.07a4.9,4.9,0,0,0-.86,1.07,9.31,9.31,0,0,1-.63,1,4.3,4.3,0,0,1-.77-.42,4.71,4.71,0,0,1-.48-.4,3.64,3.64,0,0,1,1.42-.9,5.13,5.13,0,0,1,1.32-.35Zm-2.41.3a5.84,5.84,0,0,1,.86-.15,5.74,5.74,0,0,0-.82.49c-.3.23-.56.4-.56.4a.83.83,0,0,1-.22-.22,1.4,1.4,0,0,1-.1-.26,5.78,5.78,0,0,1,.84-.26ZM177,379.11a12.46,12.46,0,0,1-12.46-12.39c0-9.25,8.4-11.78,8.4-11.78l.51.47a5.63,5.63,0,0,0-.8.68,6.46,6.46,0,0,0-.58.7l.22.2a5.47,5.47,0,0,1,.55-.67c.3-.3.73-.64.73-.64a4.61,4.61,0,0,0,.71.6,6.69,6.69,0,0,0,.67.35,2,2,0,0,1-.15.48c-.11.26-.23.61-.23.61l.26.14s.19-.51.28-.7.18-.4.18-.4a7.22,7.22,0,0,0,1.17.38,3.93,3.93,0,0,0,.94.1v2.2h-.81v.38h.84v2.77h-.7v.31h.68v1h.34v-1s.44,0,1.59,0a18,18,0,0,0,1.9-.17s0-1.05-.14-1.82a11.3,11.3,0,0,0-.26-1.37,5.84,5.84,0,0,0,1.38-.38c.73-.29,1.35-.57,1.35-.57a7.22,7.22,0,0,1,.68,1.35c.29.79.57,1.59.57,1.59l-.49.22.08.24.57-.17.17.35.21-.1-.16-.35a8,8,0,0,0,1.35-.56c.68-.37,1.17-.71,1.17-.71A12.39,12.39,0,0,1,177,379.11"/><path class="cls-36" d="M53.58,383.93v-3.24l-.08-.08a7.35,7.35,0,0,1-7.06,3.95c-3.28,0-7.24-1.57-7.24-6.89v-16H43v14.77c0,3.66,1.87,4.89,4.3,4.89,4.72,0,6.12-4.17,6.12-7.4V361.67h3.75v22.26H53.58"/><path class="cls-36" d="M80.86,383.93H77.11v-13.7c0-3.88-1.1-5.83-4.76-5.83-2.13,0-5.87,1.36-5.87,7.4v12.13H62.73V361.67h3.53v3.15h.09A8.07,8.07,0,0,1,73.07,361c3.45,0,7.79,1.4,7.79,7.74v15.15"/><path class="cls-36" d="M86.47,357.63v-4.25h3.75v4.25Zm3.75,26.3H86.47V361.67h3.75v22.26"/><path class="cls-36" d="M109.75,369.16c-.47-3-2.13-4.76-5.28-4.76-4.64,0-6.13,4.42-6.13,8.38s.94,8.55,6.09,8.55c2.51,0,4.68-1.87,5.32-5.27h3.61c-.38,3.53-2.55,8.5-9.06,8.5-6.25,0-10-4.72-10-11.14,0-6.89,3.31-12.38,10.67-12.38,5.83,0,8,4.25,8.34,8.12h-3.61"/><path class="cls-36" d="M136,377a9.63,9.63,0,0,1-4,6.08c-1,.68-2.47,1.53-6,1.53-6.25,0-10-4.72-10-11.14,0-6.89,3.32-12.38,10.68-12.38,6.43,0,9.58,5.1,9.58,13H120c0,4.64,2.17,7.32,6.47,7.32,3.53,0,5.62-2.72,5.74-4.38ZM132.42,371c-.21-3.44-1.66-6.63-6.21-6.63-3.44,0-6.17,3.19-6.17,6.63h12.38"/><path class="cls-36" d="M145.4,364.78v19.15h-3.74V364.78h-3.07v-3.11h3.07v-3.83c0-3.36,2.12-4.89,5.78-4.89.56,0,1.11,0,1.71.09v3.36c-.47,0-1.07-.09-1.54-.09-1.61,0-2.21.81-2.21,2.6v2.76h3.75v3.11H145.4"/><path class="cls-7" d="M211.35,328.55s-5.36,2.9-2.93,11.74l-4.08-3-3.45,3.15s-3.7-9,1.28-12.35Z"/></g></svg>