<?xml version="1.0" encoding="utf-8"?>
<!-- Generator: Adobe Illustrator 24.0.2, SVG Export Plug-In . SVG Version: 6.00 Build 0)  -->
<svg version="1.1" id="Capa_1" xmlns="http://www.w3.org/2000/svg" xmlns:xlink="http://www.w3.org/1999/xlink" x="0px" y="0px"
	 viewBox="0 0 1440 400" style="enable-background:new 0 0 1440 400;" xml:space="preserve">
<style type="text/css">
	.st0{fill:none;}
	.st1{fill:none;stroke:#1D1D1B;stroke-width:0.3;}
	.st2{fill:#4472FC;}
	.st3{opacity:0.45;fill:url(#SVGID_1_);enable-background:new    ;}
	.st4{fill:#E1EBF6;}
	.st5{fill-rule:evenodd;clip-rule:evenodd;fill:#E9F1F9;}
	.st6{fill-rule:evenodd;clip-rule:evenodd;fill:#FFAA00;}
	.st7{fill-rule:evenodd;clip-rule:evenodd;fill:#FFD666;}
	.st8{fill:#FFD666;}
	.st9{fill-rule:evenodd;clip-rule:evenodd;fill:#FF514F;}
	.st10{fill-rule:evenodd;clip-rule:evenodd;fill:#DB3945;}
	.st11{fill-rule:evenodd;clip-rule:evenodd;fill:#C5D7ED;}
	.st12{fill-rule:evenodd;clip-rule:evenodd;fill:#B76D00;}
	.st13{fill-rule:evenodd;clip-rule:evenodd;fill:#4472FC;}
	.st14{fill-rule:evenodd;clip-rule:evenodd;fill:#D9E6FE;}
	.st15{fill-rule:evenodd;clip-rule:evenodd;fill:#49B728;}
	.st16{fill-rule:evenodd;clip-rule:evenodd;fill:#1D8314;}
	.st17{fill:none;stroke:#D9E6FE;stroke-width:2;stroke-linecap:round;stroke-linejoin:round;}
	.st18{fill-rule:evenodd;clip-rule:evenodd;fill:#EFF6FC;}
	.st19{fill-rule:evenodd;clip-rule:evenodd;fill:#161F36;}
	.st20{fill-rule:evenodd;clip-rule:evenodd;fill:#B4CCFE;}
	.st21{fill-rule:evenodd;clip-rule:evenodd;fill:#FFCBB8;}
	.st22{fill:none;stroke:#161F36;stroke-width:0.5;stroke-linecap:round;stroke-linejoin:round;}
	.st23{fill:none;stroke:#161F36;stroke-linecap:round;stroke-linejoin:round;}
	.st24{fill-rule:evenodd;clip-rule:evenodd;fill:#319D1D;}
	.st25{fill:none;stroke:#161F36;stroke-width:12;stroke-linecap:round;stroke-linejoin:round;}
	.st26{fill-rule:evenodd;clip-rule:evenodd;fill:#8274F0;}
	.st27{fill-rule:evenodd;clip-rule:evenodd;fill:#F5FAFE;}
	.st28{fill-rule:evenodd;clip-rule:evenodd;fill:#5848E6;}
	.st29{fill:none;stroke:#C5D7ED;stroke-width:3;stroke-linecap:round;stroke-linejoin:round;stroke-dasharray:10,10,10,10;}
	.st30{fill-rule:evenodd;clip-rule:evenodd;fill:#7298FD;}
	.st31{fill-rule:evenodd;clip-rule:evenodd;fill:#7DD357;}
	.st32{fill:none;stroke:#C5D7ED;stroke-width:2;stroke-linecap:round;stroke-linejoin:round;stroke-dasharray:10,10,10,10;}
	.st33{fill-rule:evenodd;clip-rule:evenodd;fill:#3157D8;}
	.st34{fill-rule:evenodd;clip-rule:evenodd;fill:#DA8900;}
</style>
<pattern  y="400" width="72" height="72" patternUnits="userSpaceOnUse" id="Sombreado" viewBox="3 -74.3 72 72" style="overflow:visible;">
	<g>
		<rect x="3" y="-74.3" class="st0" width="72" height="72"/>
		<rect x="3" y="-74.3" class="st0" width="72" height="72"/>
		<line class="st1" x1="71" y1="-75.2" x2="72.1" y2="-72.2"/>
		<line class="st1" x1="66.2" y1="-75.3" x2="65.5" y2="-72"/>
		<line class="st1" x1="50.9" y1="-76.2" x2="51.1" y2="-73.2"/>
		<line class="st1" x1="35.2" y1="-74.6" x2="33.8" y2="-72.5"/>
		<line class="st1" x1="19" y1="-74.7" x2="20.3" y2="-72.7"/>
		<line class="st1" x1="7.9" y1="-76" x2="6.2" y2="-73.7"/>
		<line class="st1" x1="58.5" y1="-76.3" x2="60.5" y2="-73.3"/>
		<line class="st1" x1="77.8" y1="-26.3" x2="74.8" y2="-26.3"/>
		<line class="st1" x1="76.8" y1="-42.1" x2="74.8" y2="-43.6"/>
		<line class="st1" x1="8.8" y1="-13.1" x2="6" y2="-15.1"/>
		<line class="st1" x1="7.3" y1="-69.3" x2="5" y2="-71.1"/>
		<line class="st1" x1="76.3" y1="-9.3" x2="73" y2="-10.1"/>
		<line class="st1" x1="75" y1="-21.1" x2="72.5" y2="-22.8"/>
		<line class="st1" x1="77.8" y1="-26.3" x2="74.8" y2="-26.3"/>
		<line class="st1" x1="74.5" y1="-33.8" x2="71.8" y2="-32.1"/>
		<line class="st1" x1="76.8" y1="-42.1" x2="74.8" y2="-43.6"/>
		<line class="st1" x1="74.3" y1="-54.1" x2="71.5" y2="-51.8"/>
		<line class="st1" x1="76.3" y1="-65.1" x2="72" y2="-64.3"/>
		<line class="st1" x1="66.5" y1="-63.3" x2="64.3" y2="-65.1"/>
		<line class="st1" x1="74.8" y1="-47.3" x2="71.8" y2="-47.3"/>
		<line class="st1" x1="61" y1="-19.8" x2="59.1" y2="-17"/>
		<line class="st1" x1="31" y1="-18.3" x2="29.4" y2="-15.8"/>
		<line class="st1" x1="46.1" y1="-13.9" x2="47.9" y2="-11.2"/>
		<line class="st1" x1="71" y1="-75.2" x2="72.1" y2="-72.2"/>
		<line class="st1" x1="66.2" y1="-75.3" x2="65.5" y2="-72"/>
		<line class="st1" x1="60" y1="-50.3" x2="58.1" y2="-47.5"/>
		<line class="st1" x1="51.7" y1="-21.9" x2="50" y2="-19.3"/>
		<line class="st1" x1="50.9" y1="-76.2" x2="51.1" y2="-73.2"/>
		<line class="st1" x1="43.6" y1="-72.6" x2="45.4" y2="-69.9"/>
		<line class="st1" x1="35.2" y1="-74.6" x2="33.8" y2="-72.5"/>
		<line class="st1" x1="53.3" y1="-43.1" x2="55.7" y2="-40.4"/>
		<line class="st1" x1="19" y1="-74.7" x2="20.3" y2="-72.7"/>
		<line class="st1" x1="12.3" y1="-73.2" x2="13.2" y2="-69"/>
		<line class="st1" x1="7.9" y1="-76" x2="6.2" y2="-73.7"/>
		<line class="st1" x1="30.1" y1="-72.4" x2="30.2" y2="-69.4"/>
		<line class="st1" x1="10.3" y1="-7.6" x2="13.8" y2="-9.1"/>
		<line class="st1" x1="7.5" y1="-23.1" x2="7.8" y2="-19.8"/>
		<line class="st1" x1="11" y1="-46.1" x2="12.5" y2="-49.8"/>
		<line class="st1" x1="8.3" y1="-40.6" x2="10.5" y2="-36.8"/>
		<line class="st1" x1="32.3" y1="-6.8" x2="30" y2="-9.3"/>
		<line class="st1" x1="36.5" y1="-6.8" x2="39.8" y2="-9.6"/>
		<line class="st1" x1="53.3" y1="-6.8" x2="56.5" y2="-8.8"/>
		<line class="st1" x1="55.5" y1="-12.8" x2="53.5" y2="-16.1"/>
		<line class="st1" x1="62.5" y1="-11.6" x2="67.5" y2="-9.3"/>
		<line class="st1" x1="70" y1="-15.1" x2="67.5" y2="-16.8"/>
		<line class="st1" x1="21.8" y1="-7.1" x2="21.8" y2="-10.1"/>
		<line class="st1" x1="18.8" y1="-12.1" x2="15.5" y2="-12.6"/>
		<line class="st1" x1="23" y1="-16.6" x2="23.5" y2="-19.8"/>
		<line class="st1" x1="24" y1="-12.1" x2="27.5" y2="-11.3"/>
		<line class="st1" x1="12.3" y1="-23.8" x2="15" y2="-21.8"/>
		<line class="st1" x1="10.5" y1="-66.3" x2="10.8" y2="-62.3"/>
		<line class="st1" x1="10.3" y1="-58.1" x2="12.5" y2="-55.6"/>
		<line class="st1" x1="24.3" y1="-68.1" x2="21.8" y2="-64.6"/>
		<line class="st1" x1="32.8" y1="-30.8" x2="30.3" y2="-32.6"/>
		<line class="st1" x1="60.8" y1="-36.1" x2="58" y2="-34.6"/>
		<line class="st1" x1="29.8" y1="-42.3" x2="26" y2="-41.6"/>
		<line class="st1" x1="34.5" y1="-51.8" x2="32.5" y2="-53.3"/>
		<line class="st1" x1="32" y1="-63.8" x2="29.3" y2="-61.6"/>
		<line class="st1" x1="35.3" y1="-68.1" x2="33.3" y2="-66.8"/>
		<line class="st1" x1="32.5" y1="-57.1" x2="29.5" y2="-57.1"/>
		<line class="st1" x1="42.8" y1="-21.3" x2="40.3" y2="-23.1"/>
		<line class="st1" x1="45.5" y1="-26.6" x2="42.5" y2="-26.6"/>
		<line class="st1" x1="42.3" y1="-34.1" x2="39.5" y2="-32.3"/>
		<line class="st1" x1="41.5" y1="-44.8" x2="40.8" y2="-47.3"/>
		<line class="st1" x1="42" y1="-54.3" x2="39.3" y2="-52.1"/>
		<line class="st1" x1="42.5" y1="-62.3" x2="40.5" y2="-61.1"/>
		<line class="st1" x1="66" y1="-46.8" x2="63" y2="-46.8"/>
		<line class="st1" x1="25.3" y1="-45.3" x2="27.8" y2="-47.1"/>
		<line class="st1" x1="30" y1="-22.8" x2="33" y2="-22.8"/>
		<line class="st1" x1="17.8" y1="-37.1" x2="20.3" y2="-38.8"/>
		<line class="st1" x1="15" y1="-42.3" x2="18" y2="-42.3"/>
		<line class="st1" x1="18.3" y1="-49.8" x2="21" y2="-48.1"/>
		<line class="st1" x1="50.3" y1="-35.3" x2="52.7" y2="-33.8"/>
		<line class="st1" x1="50.6" y1="-27.8" x2="53" y2="-29.6"/>
		<line class="st1" x1="57.7" y1="-23.8" x2="57.5" y2="-26.8"/>
		<line class="st1" x1="48.4" y1="-67.9" x2="51.4" y2="-68"/>
		<line class="st1" x1="49.4" y1="-62" x2="51.7" y2="-63.9"/>
		<line class="st1" x1="56.5" y1="-58" x2="57.6" y2="-61.1"/>
		<line class="st1" x1="51.3" y1="-45.8" x2="48.8" y2="-47.6"/>
		<line class="st1" x1="51" y1="-53.3" x2="47.8" y2="-52.3"/>
		<line class="st1" x1="60" y1="-68.8" x2="57.3" y2="-67.1"/>
		<line class="st1" x1="67.5" y1="-43.3" x2="64.8" y2="-41.6"/>
		<line class="st1" x1="65.3" y1="-54.3" x2="63.3" y2="-55.8"/>
		<line class="st1" x1="22.6" y1="-31.9" x2="25.7" y2="-32"/>
		<line class="st1" x1="23.6" y1="-26" x2="26" y2="-27.9"/>
		<line class="st1" x1="60.8" y1="-30.8" x2="63.5" y2="-31.4"/>
		<line class="st1" x1="18" y1="-58.1" x2="18.5" y2="-61.3"/>
		<line class="st1" x1="20" y1="-56.1" x2="23.5" y2="-55.3"/>
		<line class="st1" x1="35.8" y1="-15.1" x2="39.8" y2="-15.8"/>
		<line class="st1" x1="36.5" y1="-35.8" x2="37" y2="-39.3"/>
		<line class="st1" x1="67.5" y1="-25.3" x2="65" y2="-24.1"/>
		<line class="st1" x1="13" y1="-15.8" x2="16.3" y2="-18.6"/>
		<line class="st1" x1="7.8" y1="-31.8" x2="5.3" y2="-33.6"/>
		<line class="st1" x1="18.8" y1="-26.3" x2="16.8" y2="-27.8"/>
		<line class="st1" x1="44.3" y1="-7.1" x2="46.2" y2="-4.4"/>
		<line class="st1" x1="67.6" y1="-37.4" x2="69.4" y2="-34.7"/>
		<line class="st1" x1="36.8" y1="-28.6" x2="37.5" y2="-25.8"/>
		<line class="st1" x1="23.3" y1="-61.1" x2="24" y2="-58.3"/>
		<line class="st1" x1="34.8" y1="-45.1" x2="32.8" y2="-46.6"/>
		<line class="st1" x1="5.8" y1="-26.3" x2="2.8" y2="-26.3"/>
		<line class="st1" x1="4.8" y1="-42.1" x2="2.8" y2="-43.6"/>
		<line class="st1" x1="71" y1="-3.2" x2="72.1" y2="-0.2"/>
		<line class="st1" x1="66.2" y1="-3.3" x2="65.5" y2="0"/>
		<line class="st1" x1="50.9" y1="-4.2" x2="51.1" y2="-1.2"/>
		<line class="st1" x1="35.2" y1="-2.6" x2="33.8" y2="-0.5"/>
		<line class="st1" x1="19" y1="-2.7" x2="20.3" y2="-0.7"/>
		<line class="st1" x1="7.9" y1="-4" x2="6.2" y2="-1.7"/>
		<line class="st1" x1="8.3" y1="-54.3" x2="4.5" y2="-53.6"/>
		<line class="st1" x1="71.4" y1="-59.7" x2="69.5" y2="-56.8"/>
		<line class="st1" x1="27" y1="-38.3" x2="27.7" y2="-35.5"/>
		<line class="st1" x1="47.8" y1="-39.3" x2="45.8" y2="-40.8"/>
		<line class="st1" x1="58.5" y1="-4.3" x2="60.5" y2="-1.3"/>
		<line class="st1" x1="58.5" y1="-76.3" x2="60.5" y2="-73.3"/>
		<line class="st1" x1="4.3" y1="-9.3" x2="1" y2="-10.1"/>
		<line class="st1" x1="3" y1="-21.1" x2="0.5" y2="-22.8"/>
		<line class="st1" x1="5.8" y1="-26.3" x2="2.8" y2="-26.3"/>
		<line class="st1" x1="4.8" y1="-42.1" x2="2.8" y2="-43.6"/>
		<line class="st1" x1="4.3" y1="-65.1" x2="0" y2="-64.3"/>
		<line class="st1" x1="71" y1="-3.2" x2="72.1" y2="-0.2"/>
		<line class="st1" x1="66.2" y1="-3.3" x2="65.5" y2="0"/>
		<line class="st1" x1="50.9" y1="-4.2" x2="51.1" y2="-1.2"/>
		<line class="st1" x1="35.2" y1="-2.6" x2="33.8" y2="-0.5"/>
		<line class="st1" x1="19" y1="-2.7" x2="20.3" y2="-0.7"/>
		<line class="st1" x1="7.9" y1="-4" x2="6.2" y2="-1.7"/>
		<line class="st1" x1="58.5" y1="-4.3" x2="60.5" y2="-1.3"/>
	</g>
</pattern>
<title>preescolar 2</title>
<g id="Capa_2_1_">
	<rect x="-7.5" class="st2" width="1447.5" height="327.3"/>
	<pattern  id="SVGID_1_" xlink:href="#Sombreado" patternTransform="matrix(1 0 0 -1 -41 -16838.6367)">
	</pattern>
	<rect x="-7.5" class="st3" width="1447.5" height="327.3"/>
</g>
<g id="Capa_1_1_">
	<rect x="2.9" y="327.3" class="st4" width="1437.1" height="74.7"/>
	<path class="st5" d="M1262.5,149.5v-9.6l-54-33.6c0,0-38,7.7-45,27.5c0,0-30.5-2.8-43.3,7.8l1.7,8c0,0,47.2,19.2,48.5,20.2
		s45.6-1.5,45.6-1.5l20.7-18.6L1262.5,149.5z"/>
	<path class="st6" d="M1210.9,115.7c0,0-18.8,3.8-26.7,7.9c-9.4,4.8-12.6,11.1-16.4,15.7c-1.4,1.7,0.4,2.2,0.4,2.2l56.7,35.4
		c0,0-1.1-11,11.2-16.1s29.7-8.4,29.7-8.4l-0.4-3.2L1210.9,115.7z"/>
	<path class="st6" d="M1221.8,177.4l-57-34.4c0,0,0-1.7-0.9-2.1c-3-1.4-18.4-1.7-25.8-0.2s-17.9,9.9-17.9,9.9s1.1,1.8,0.3,2.8
		l61,29.3c0,0,2.6-5.9,12.1-7.5C1200.1,173.9,1207.9,173.4,1221.8,177.4z"/>
	<polygon class="st7" points="1168,141.2 1168,141.3 1167.9,141.3 1167.8,141.3 1167.8,141.2 	"/>
	<polygon class="st7" points="1168,141.2 1168,141.3 1167.9,141.3 1167.8,141.3 1167.8,141.2 	"/>
	<path class="st7" d="M1214.9,170.5l9.7,6v-2.4l-56.7-35.4v0.6l-3.8,1.5l0.3,1.9l0,0l56.9,34.8l3.8-0.6L1214.9,170.5z M1167.9,141.3
		L1167.9,141.3l0.1-0.1v0.1l0,0L1167.9,141.3z"/>
	<polygon class="st7" points="1168,141.2 1168,141.3 1167.9,141.3 1167.8,141.3 1167.8,141.2 	"/>
	<path class="st8" d="M1304.1,278.5c-0.2,0-0.4-0.1-0.5-0.2c-0.5-0.3-0.6-0.9-0.3-1.4c0,0,0,0,0,0c1.8-2.8,3.3-5.7,4.6-8.7
		c0.2-0.5,0.7-0.8,1.3-0.7c0.5,0.2,0.8,0.7,0.7,1.3c0,0.1,0,0.1-0.1,0.2c-1.3,3.1-2.9,6.1-4.8,9
		C1304.7,278.3,1304.4,278.5,1304.1,278.5z M1311.7,260.1c-0.1,0-0.1,0-0.2,0c-0.5-0.1-0.9-0.6-0.8-1.2c0,0,0,0,0,0
		c0.4-2.2,0.6-4.4,0.6-6.7c0-1,0-2-0.1-3c0-0.5,0.4-1,0.9-1.1c0.5,0,1,0.4,1.1,0.9c0.1,1.1,0.1,2.1,0.1,3.2c0,2.3-0.2,4.7-0.7,7
		C1312.6,259.8,1312.2,260.1,1311.7,260.1z M1310,240.4c-0.4,0-0.8-0.3-0.9-0.7c-1.1-3.1-2.6-6-4.4-8.7c-0.3-0.5-0.2-1.1,0.3-1.4
		c0,0,0,0,0,0c0.5-0.3,1.1-0.2,1.4,0.3c0,0,0,0,0,0c1.8,2.9,3.4,5.9,4.5,9.1c0.2,0.5-0.1,1.1-0.6,1.3
		C1310.2,240.4,1310.1,240.5,1310,240.4z M1299.5,223.6c-0.3,0-0.6-0.1-0.8-0.3c-2.2-2.5-4.5-4.8-7-7c-0.4-0.4-0.5-1-0.1-1.4
		c0.4-0.4,1-0.5,1.4-0.1c0,0,0,0,0,0c2.5,2.2,4.9,4.6,7.2,7.1c0.4,0.4,0.3,1-0.1,1.4C1300,223.4,1299.8,223.6,1299.5,223.6
		L1299.5,223.6z M1284.6,210.2c-0.2,0-0.4-0.1-0.6-0.2c-2.5-1.9-5.3-3.8-8.2-5.7c-0.5-0.3-0.6-0.9-0.3-1.4c0.3-0.5,0.9-0.6,1.4-0.3
		c2.9,1.9,5.7,3.8,8.3,5.7c0.4,0.3,0.5,1,0.2,1.4c0,0,0,0,0,0C1285.2,210.1,1285,210.2,1284.6,210.2L1284.6,210.2z M1267.9,199.3
		c-0.2,0-0.3-0.1-0.5-0.1c-2.7-1.6-5.6-3.2-8.7-4.8c-0.5-0.3-0.7-0.9-0.4-1.4c0.3-0.5,0.9-0.7,1.4-0.4c3.2,1.7,6,3.3,8.8,4.9
		c0.5,0.3,0.6,0.9,0.4,1.4C1268.6,199.1,1268.2,199.3,1267.9,199.3z M1250.2,189.8c-0.2,0-0.3,0-0.4-0.1l-5.9-2.9l-3.1-1.5
		c-0.5-0.2-0.8-0.8-0.5-1.3c0.2-0.5,0.8-0.8,1.3-0.5c0,0,0.1,0,0.1,0.1l3.1,1.5c1.9,0.9,3.8,1.9,5.9,2.9c0.5,0.3,0.7,0.9,0.4,1.3
		C1250.9,189.6,1250.6,189.8,1250.2,189.8L1250.2,189.8z"/>
	<path class="st5" d="M1214.8,318.4v0.1l0.1-0.1H1214.8z M1220.1,318.7c-2,1-3.5,2.9-3.6,6c-0.2,5.1,0.5,6.9,3.6,8.3h63.7v-1.7
		l-3.6-0.5l3.4-0.1v-4.4l-4.9-0.2l4.8-0.9l0.2-6.5L1220.1,318.7z M1214.8,333v0.4h0.3C1215,333.3,1214.9,333.1,1214.8,333z"/>
	<path class="st9" d="M1120.6,314.9c0,0-6.1,2.6-6.4,11s6.4,10.1,6.4,10.1l93.7,0.5h68.8c0.2,0,0.4-0.1,0.4-0.4v-2.9
		c0-0.2-0.2-0.4-0.4-0.4h-63.4c-2.8-1.4-3.4-3.2-3.2-8.3c0.1-3.1,1.4-5.1,3.3-6h63.3c0.2,0,0.4-0.1,0.4-0.4v-2.9
		c0-0.2-0.2-0.4-0.4-0.4c0,0,0,0,0,0h-68V315L1120.6,314.9z"/>
	<path class="st10" d="M1120.6,314.9c-2.5,1.3-4.5,3.5-5.4,6.2h98.3c0.3-0.9,0.8-1.8,1.4-2.6c1.4-1.9,3.6-3.1,6-3.4l-5.9-0.1
		L1120.6,314.9z M1219.6,318.7c-0.5,0.3-1,0.6-1.3,1C1218.7,319.3,1219.1,318.9,1219.6,318.7L1219.6,318.7z M1218.3,319.7
		c-0.4,0.4-0.7,0.9-1,1.4C1217.5,320.6,1217.9,320.1,1218.3,319.7L1218.3,319.7z"/>
	<path class="st10" d="M1221.3,315.1c-2.5,0.2-4.8,1.4-6.3,3.4c-1.5,1.9-2.5,4.7-2.3,9.1c0,0,0.8,9.1,9.9,8.9c0.5,0,1.1,0,1.6,0.1
		h62.4c0.2,0,0.4-0.1,0.5-0.4v-2.9c0-0.2-0.2-0.4-0.5-0.4h-66.7c-2.9-1.4-3.6-3.2-3.4-8.3c0.1-3.1,1.5-5.1,3.4-6h66.7
		c0.2,0,0.4-0.1,0.5-0.4v-2.9c0-0.2-0.2-0.4-0.5-0.4L1221.3,315.1z"/>
	<path class="st11" d="M1219.6,318.7c-1.9,1-3.2,2.9-3.3,6c-0.1,3.9,0.2,5.8,1.6,7.2c-0.1-1.2-0.2-2.4-0.1-3.6
		c0.1-3.1,1.4-5.1,3.3-6h62.6v-3.5L1219.6,318.7z"/>
	<path class="st5" d="M1176,298.2v0.4h0.2C1176.2,298.5,1176.1,298.3,1176,298.2z"/>
	<path class="st5" d="M1183.1,300.6v0.1V300.6L1183.1,300.6z M1178.9,300.8c1.8,0.9,2.9,2.8,2.8,4.8c0.2,4.1-0.4,5.5-2.8,6.6h-49.8
		v-1.4l2.8-0.4l-2.7-0.1v-3.6l3.8-0.1l-3.8-0.8l-0.1-5.2L1178.9,300.8z M1183.1,312.3v0.3h-0.3L1183.1,312.3z"/>
	<path class="st6" d="M1256.8,297.7c0,0,4.8,2.1,5,8.9s-5,8.1-5,8.1l-73.2,0.4h-53.7c-0.2,0-0.3-0.1-0.4-0.3v-2.3
		c0-0.2,0.2-0.3,0.4-0.3c0,0,0,0,0,0h49.6c2.2-1.1,2.7-2.5,2.5-6.6c-0.1-2.5-1.1-4.1-2.6-4.8h-49.6c-0.2,0-0.3-0.1-0.3-0.3v-2.3
		c0-0.2,0.2-0.3,0.3-0.3h53.2l0,0L1256.8,297.7z"/>
	<path class="st12" d="M1256.8,297.7c2,1.1,3.5,2.9,4.2,5h-76.9c-0.3-0.7-0.6-1.5-1.1-2.1c-1.1-1.5-2.8-2.5-4.7-2.7h4.6
		L1256.8,297.7z M1179.3,300.7c0.4,0.2,0.8,0.5,1.1,0.8C1180.1,301.2,1179.7,301,1179.3,300.7L1179.3,300.7z M1180.4,301.5
		c0.3,0.3,0.6,0.7,0.8,1.1C1181,302.3,1180.7,301.9,1180.4,301.5L1180.4,301.5z"/>
	<path class="st12" d="M1178,297.9c2,0.2,3.8,1.2,5,2.7c1.2,1.5,1.9,3.8,1.8,7.4c0,0-0.7,7.3-7.7,7.1c-0.4,0-0.9,0-1.3,0.1H1127
		c-0.2,0-0.3-0.1-0.4-0.3v-2.3c0-0.2,0.2-0.3,0.4-0.3h52.1c2.3-1.1,2.8-2.5,2.6-6.6c-0.1-2.5-1.2-4.1-2.7-4.8h-52.1
		c-0.2,0-0.4-0.1-0.4-0.3v-2.3c0-0.2,0.2-0.3,0.4-0.3L1178,297.9z"/>
	<path class="st11" d="M1179.3,300.8c1.5,0.8,2.5,2.3,2.6,4.8c0.1,3.1-0.2,4.7-1.3,5.8c0.1-1,0.1-1.9,0.1-2.9
		c-0.1-2.5-1.1-4.1-2.6-4.8h-49.5v-2.9H1179.3z"/>
	<path class="st13" d="M1168.7,302.1c0,0-5,2.8-2.8,11.3l-3.8-2.9l-3.2,3c0,0-3.5-8.6,1.2-11.9L1168.7,302.1z"/>
	<path class="st5" d="M1201.1,276.5v0.2V276.5L1201.1,276.5z M1201.1,291.5v0.4h0.2C1201.3,291.8,1201.2,291.6,1201.1,291.5
		L1201.1,291.5z"/>
	<path class="st14" d="M1117.6,264.9c0,0-3.6,2.4-5.4,9.5h98.3c0.3-1.4,0.8-2.7,1.4-4c1.8-3.7,4.3-4.9,6-5.2l-5.9-0.1L1117.6,264.9z
		 M1216.6,270.7c-0.5,0.4-1,0.9-1.3,1.5C1215.7,271.6,1216.1,271.1,1216.6,270.7L1216.6,270.7z M1215.3,272.2
		c-0.4,0.7-0.8,1.4-1,2.1C1214.6,273.6,1214.9,272.9,1215.3,272.2L1215.3,272.2z"/>
	<path class="st5" d="M1162.4,264.2v0.3c0-0.1,0.1-0.2,0.1-0.3H1162.4z M1162.4,290.8v0.7h0.3C1162.6,291.3,1162.5,291,1162.4,290.8
		L1162.4,290.8z"/>
	<path class="st5" d="M1211.8,270.3v0.2c0-0.1,0.1-0.1,0.1-0.2H1211.8z M1217.1,270.7c-2.1,1.4-3.5,4.4-3.6,9.2
		c-0.2,7.8,0.5,10.5,3.6,12.6h63.7v-2.6l-3.6-0.8l3.4-0.1v-6.7l-4.9-0.3l4.8-1.4l0.2-9.8L1217.1,270.7z M1211.8,292.5v0.6h0.3
		C1212,293,1211.9,292.8,1211.8,292.5z"/>
	<path class="st15" d="M1117.6,264.9c0,0-6.1,3.9-6.4,16.8s6.4,15.5,6.4,15.5l93.7,0.7h68.8c0.3,0,0.5-0.3,0.4-0.6V293
		c0-0.3-0.2-0.5-0.4-0.5c0,0,0,0,0,0h-63.4c-2.8-2.1-3.4-4.8-3.2-12.6c0.1-4.7,1.4-7.7,3.3-9.2h63.4c0.3,0,0.5-0.3,0.4-0.6v-4.4
		c0-0.3-0.2-0.5-0.4-0.5c0,0,0,0,0,0H1212v-0.1L1117.6,264.9z"/>
	<path class="st16" d="M1218.3,265.2c-1.8,0.3-4.5,1.5-6.3,5.1c-1.5,2.8-2.5,7.2-2.3,13.9c0,0,0.8,13.9,9.9,13.5
		c0.6,0,1.1,0,1.6,0.2h62.4c0.3,0,0.5-0.3,0.5-0.6V293c0-0.3-0.2-0.5-0.5-0.5c0,0,0,0,0,0h-66.7c-2.9-2.1-3.6-4.8-3.4-12.6
		c0.1-4.7,1.5-7.7,3.4-9.2h66.7c0.3,0,0.5-0.3,0.5-0.6v-4.4c0-0.3-0.2-0.5-0.5-0.5c0,0,0,0,0,0L1218.3,265.2z"/>
	<path class="st11" d="M1216.7,270.7c-1.9,1.4-3.2,4.4-3.3,9.2c-0.1,5.9,0.2,8.9,1.6,10.9c-0.1-1.8-0.2-3.7-0.1-5.5
		c0.1-4.8,1.4-7.7,3.3-9.2h62.6v-5.4L1216.7,270.7z"/>
	<path class="st9" d="M1260.4,284.7c0,0,6.3,6,3.5,24.1l4.8-6.2l4.1,6.5c0,0,4.4-18.4-1.5-25.3L1260.4,284.7z"/>
	<path class="st17" d="M1277.6,281.2l-49.4-0.5"/>
	<path class="st16" d="M1200.3,277.7h-8c-2,0-3.6,1.6-3.6,3.6l0,0c0,2,1.6,3.5,3.6,3.5l0,0h8c2,0,3.6-1.6,3.6-3.5v0l0,0
		C1203.8,279.3,1202.2,277.7,1200.3,277.7z"/>
	<path class="st6" d="M1313.9,287.5l11,47.8l71.2-1.3l-10.5-43.9c-0.6-2-2.5-3.4-4.5-3.4L1313.9,287.5z"/>
	<path class="st12" d="M1312.4,287.2c1.5-0.1,3,0.6,3.9,1.8c0.2,0.4,0.4,0.8,0.6,1.2c0.1,0.2,0.1,0.4,0.1,0.6v-0.1l9.4,43.1
		c0.1,0.7-0.3,1.3-0.9,1.4c0,0,0,0-0.1,0c-0.7,0.1-1.3-0.3-1.5-0.9l-9.4-43.1c0,0,0-0.1,0-0.1v-0.2c0-0.2-0.1-0.4-0.2-0.6
		c-0.3-0.4-0.7-0.6-1.1-0.7c-0.4-0.1-0.9,0-1.2,0.4c-0.1,0.1-0.2,0.3-0.3,0.4c0,0.1-1,4.7-1.4,6.4c-1.1,4.8-2.2,9.7-3.2,14.2
		c-0.2,0.8-0.4,1.5-0.5,2.3c-0.4,1.9-0.9,3.7-1.3,5.4c-1.6,6.8-3.8,14.9-3.8,14.9s-1,0.9-1.6,0.6c-0.6-0.2-0.9-0.9-0.7-1.5
		c0,0,0,0,0,0c0.7-1.6,2.7-10.3,5-19.9c0.2-0.8,0.4-1.5,0.5-2.3c1-4.5,2.1-9.3,3.2-14.2c0.4-1.7,1.4-6.4,1.4-6.4v-0.1
		c0-0.2,0.1-0.3,0.2-0.4c0.1-0.3,0.3-0.6,0.5-0.8C1310.5,287.8,1311.4,287.3,1312.4,287.2z"/>
	<path class="st18" d="M1313,289.6c0.5,0.1,0.9,0.3,1.1,0.7c0.1,0.2,0.2,0.4,0.2,0.6v0.2c0,0,0,0.1,0,0.1l1.8,8.3l7.5,34.6l-3.2,0.2
		l-7.3-42.6l-8.4,42l-4.4,0.5c0.1-0.6,0.7-2.5,1.4-4.9c1.6-5.7,4.2-14.3,4.6-16c0.2-0.8,0.3-1.5,0.5-2.3c1-4.5,2.1-9.4,3.2-14.2
		c0.4-1.7,1.3-6.2,1.4-6.4c0.1-0.2,0.1-0.3,0.3-0.4C1312,289.6,1312.5,289.5,1313,289.6z"/>
	<path class="st11" d="M1313.3,291.8l0.5,2.7l6.8,36.9l0.5,2.6l-16.4,0.2l2-14l5.3-28.5c0,0,0.1-1,0.8-0.9
		S1313.3,291.8,1313.3,291.8z"/>
	<path class="st11" d="M1287,43.8c-0.9,0.9,7.8-6,8.7-5.5c1.1,0.5-5.3,9.1-6.4,9.7"/>
	<path class="st11" d="M1289.7,49.2c11.3,19,5.4,11.8-3.4,3"/>
	<path class="st11" d="M1281.5,49.7c-0.7,0.4-8,8.7-7.8,9.3c0,0.1,10.8-4.9,11.7-6"/>
	<path class="st11" d="M1280.7,48.5c0,0-6.7-9.2-6.2-9.4c0.9-0.5,9.3,5.3,10.1,6.1"/>
	<path class="st5" d="M1281.8,45.3c1.3-0.7,1.7-5.4,2-7c0.1-0.5,1.5-5.5,1.7-5.4c1,0.5,1.1,11.2,2.3,12.5s12.8,3.2,12.9,3.8
		c0.2,1.6-11.1-0.8-12.4,2.6c-1.6,4-0.5,13.3-2.2,13.6s-1.8-11.4-3.6-13.2s-7.7-2-10.2-2.8c-1.6-0.5-4.9-1.2-4.9-1.2
		s3.6-0.2,5.3-0.5C1275.7,47.2,1279.4,46.7,1281.8,45.3z"/>
	<path class="st11" d="M466.6,66.6c-0.9,0.9,7.7-6,8.7-5.5s-5.3,9.1-6.3,9.7"/>
	<path class="st11" d="M469.4,72c11.3,19,5.4,11.8-3.4,3"/>
	<path class="st11" d="M461.2,72.5c-0.7,0.4-8,8.7-7.8,9.3c0,0.1,10.8-4.9,11.7-6"/>
	<path class="st11" d="M460.4,71.3c0,0-6.7-9.2-6.2-9.4c0.9-0.5,9.3,5.3,10,6.1"/>
	<path class="st5" d="M461.5,68.1c1.2-0.7,1.7-5.4,2-7c0.1-0.5,1.5-5.5,1.7-5.4c1,0.5,1.1,11.2,2.4,12.5s12.8,3.2,12.9,3.8
		c0.2,1.6-11.1-0.8-12.4,2.6c-1.6,4-0.5,13.3-2.1,13.6s-1.8-11.4-3.6-13.2s-7.7-2-10.2-2.8c-1.6-0.5-4.9-1.2-4.9-1.2
		s3.5-0.2,5.3-0.5C455.4,69.9,459.1,69.5,461.5,68.1z"/>
	<path class="st9" d="M698.8,147.5l-44.2,198.4l-279.7-5.1c-2.8,0-5-2.4-5-5.2c0-0.4,0.1-0.7,0.1-1.1l40.9-176.1
		c2-7.8,10.1-14.1,18.2-14L698.8,147.5z"/>
	<path class="st10" d="M705,146.5c-1.5-0.1-2.9,0-4.4,0.2c-4.6,0.7-8.7,3.4-11.2,7.4c-1,1.6-1.7,3.3-2.2,5.1
		c-0.2,0.8-0.4,1.7-0.5,2.6l0.1-0.6l-37.6,179c-0.5,2.7,1.3,5.3,4.1,5.8c2.6,0.5,5.1-1.2,5.7-3.7l37.6-179c0-0.2,0.1-0.4,0.1-0.6
		c0-0.3,0.1-0.5,0.2-0.8c0.2-0.8,0.5-1.6,1-2.4c1-1.6,2.7-2.7,4.5-2.9c2.3-0.4,3.7,0.2,4.8,1.6c0.4,0.5,0.8,1.1,1,1.8
		c0.1,0.6,4.1,19.4,5.6,26.4c4.3,20.1,8.7,40.1,12.8,58.9c0.7,3.3,1.4,6.4,2.1,9.5c9.2,40.9,15.8,67.4,19.1,75c1,2.6,3.8,3.9,6.4,3
		c2.6-1,3.9-3.8,3-6.4c-0.1-0.2-0.1-0.3-0.2-0.5c-2.9-6.8-9.5-33.4-18.5-73.3c-0.7-3.1-1.4-6.3-2.2-9.5
		c-4.2-18.7-8.5-38.8-12.8-58.8c-1.5-7-5.6-26.6-5.6-26.7s-0.1-0.2-0.1-0.4c-0.2-0.6-0.4-1.2-0.7-1.8c-0.6-1.2-1.3-2.4-2.2-3.5
		C712.5,148.7,708.9,146.8,705,146.5z"/>
	<g id="Layer_10">
		<path class="st19" d="M668.4,65.5c-5.7,0.9-11.5,5-14.6,9.3c-1.1,1.5-2.6,3.8-1.4,5.7c1.5,2.3,4.5,1.7,6.4,0.4
			c1-0.7,1.9-1.5,2.8-2.4c-0.5,0.9-1,1.8-1.5,2.8c-0.7,1.8-1.6,4.6,0.3,6.2c2.2,1.7,4.9-1.3,5.7-3c0.3-0.6,0.4-1.1,0.5-1.8
			c0.1-0.3,0.2-1.2,0-0.9c-1.2,2.4,0.1,8.1,4,7c2.3-0.6,3.7-4.2,3.8-6.1c0.4-5.1-0.7-10.2-1-15.2"/>
		<path class="st20" d="M671,61.3c-0.8,0.7-2.9,1.8-3.1,3s4.1,3.9,4.9,3.4c0.6-0.4,1.4-2.4,1.8-3.1"/>
		<path class="st20" d="M730.7,85.1c0.4,1.9-0.4,4.5-1.3,4.9c-1.2,0.5-6.8-1.3-6.8-2.5s1.2-2.3,1.6-3.3L730.7,85.1z"/>
		<path class="st19" d="M732.1,46.4l-4,8.5c0,0-5.6,11.8-6,12.9s-2,10.4-2,10.4L721,81l-0.3,0.3c1.7,4.9,7.4,7.2,11.7,3.7
			c4.8-3.9,8-10.3,10-16c0.8-2.6,1.8-5.2,2.9-7.7l-0.7,0.6l0.5-0.8l-5.7-10.9L732.1,46.4z"/>
		<path class="st19" d="M695.3,25.9c-0.1-1.5-3.4-4-6.8-4.5s-7.2-0.5-11,3.2c-8.7,8.7-13.3,18.8-11.2,30.9
			c1.1,6.2,4.6,13.9,11.8,10.5C687.9,61.2,695.3,25.9,695.3,25.9z"/>
		<path class="st21" d="M720.4,28.7L720.4,28.7c13.8,6.1,20.4,21.2,14.7,33.9l-4.5,10c-5.7,12.7-21.5,18-35.4,11.9l0,0
			c-13.8-6.1-20.4-21.2-14.7-33.9l4.5-10C690.7,28,706.6,22.6,720.4,28.7z"/>
		<path class="st21" d="M671.3,41.8c2.7-3.8,4.4-5,8.2-5.1c2.7-0.2,5.4,0.5,7.7,2.1c5.6,3.6,3.6,8.6,1.3,13.9c-2.1,4.6-0.7,10-6,8.6
			c-1.7-0.3-3.3-0.7-4.9-1.2C670,56.1,666.8,48.1,671.3,41.8z"/>
		<path class="st19" d="M694.7,23.6c10.1-3.8,13.8-4.5,19.8-5.2s16.4,0.2,23.6,2.4c20.6,6.1,27.3,19.1,15.5,35.9
			c-3.6,5.1-10.4,6.8-16,4c-2.1-1.2-3.8-3.1-4.6-5.4c-0.2-0.8-0.2-1.7,0-2.5c0.1-0.5,0.5-1.8,0.3-1.4c-3.2,7.1-11.5,9.8-16.8,3.3
			c-4.5-5.3-5.4-12.7-4.8-19.4"/>
		<path class="st19" d="M681.3,36.4c4.9,1.2,6.1,2.1,7.6,4.4s0.3,4.3,1.1,4.7c0.2,0.1,7.5-5.7,8.8-6.2c5.6-2.1,11.3-3,17.1-1.7
			L712,25.6L700,22l-7.6,2l-8.2,10.4"/>
		<path class="st19" d="M728.4,90.1c0.7-0.2,1.1,4.5,1.2,5c0.1,3.5-1.7,10.3-5.9,11.1c-5.4,1-1.1-4.4-1.7-6.2
			c-0.2-0.4-0.4,0.8-0.6,1.3c-0.4,0.8-0.9,1.5-1.5,2.1c-1.2,1.3-5.2,4.1-6.7,1.6c-0.8-1.4,1.8-3.8,2.6-4.6c0.3-0.4,0.6-0.7,1-1.1
			c0.2-0.2,0.7-0.5,0.5-0.4c-2.1,0.7-6.3,6.4-9,3.4c-1.4-1.5,1-4.4,2-5.4c3.8-3.8,9.4-5.3,12.6-9.4"/>
		<path class="st19" d="M705.2,54.2c0.5-1.2,1.6-1.9,2.4-1.5s1,1.6,0.5,2.8s-1.6,1.9-2.4,1.5S704.6,55.4,705.2,54.2z"/>
		<path class="st19" d="M726.2,63.5c0.5-1.2,1.6-1.9,2.4-1.5s1,1.6,0.5,2.8c-0.5,1.2-1.6,1.9-2.4,1.5S725.6,64.7,726.2,63.5z"/>
		<path class="st22" d="M711.2,62.8c0,0,8.5,1.7,6.2,6.5"/>
		<path class="st10" d="M719.8,77.3c0.1-2.7-6.2-2.4-9.5-3.5c-5.2-1.8-11.3-9.3-13.8-5.1c-2.3,3.9,4.4,11.5,10.4,13.2
			S719.6,81.8,719.8,77.3z"/>
		<path class="st9" d="M703.7,74.7c-2.4-1.2-4.8-2.2-7.4-3c0.9,4,6,8.8,10.7,10.1c1.4,0.4,2.8,0.6,4.2,0.6
			C710.9,79.3,707.4,76.6,703.7,74.7z"/>
		<path class="st23" d="M704.1,46.8c0,0,7.5-0.3,8.3,4.7"/>
		<path class="st23" d="M728,59c0,0,5.8-1,5.8,3.6"/>
	</g>
	<path class="st18" d="M702.4,156.5c-1.9,0.2-3.5,1.3-4.5,2.9c-0.5,0.7-0.8,1.5-1,2.4c-0.1,0.3-0.1,0.5-0.2,0.8
		c0,0.2-0.1,0.4-0.1,0.6l-7.2,34.5l-29.4,140.2l13.6-8.1L701,165.3l23.5,120.1l10.1-5.9c-2-8.3-3.6-14.7-5.9-24.9
		c-0.7-3.1-1.4-6.3-2.1-9.5c-4.2-18.7-8.6-38.8-12.8-58.9c-1.5-6.9-5.4-25.8-5.6-26.4c-0.2-0.6-0.6-1.2-1-1.8
		C706.1,156.7,704.7,156.1,702.4,156.5z"/>
	<path class="st11" d="M701,165.3l-1.9,11.2l-27.1,154l61.8-0.9l-5.7-46.3l-3.6,2.1L707,165.1c0,0-0.5-4-3.3-3.7
		S701,165.3,701,165.3z"/>
	<path class="st16" d="M700.7,92.9c1.5,5.9,6,18.5-5.8,33.9l-6.8-3.6l0.2-7.3C688.3,115.9,699.2,87.1,700.7,92.9z"/>
	<path class="st24" d="M698.4,91.1c-5.6-2.3-8.3-6.1-13.4-7.3s-9,3.6-9,3.6s-22.7,18.3-22.2,49.2c0.2,14.3,33.2,11.2,33.2,11.2
		c1.8,0.2,8.8-2.4,8.2-5.9c-2.4-15.1,5.2-46.4,5.2-46.4c0.7-1.7-0.1-3.6-1.7-4.3C698.5,91.2,698.5,91.2,698.4,91.1z"/>
	<path class="st21" d="M694.8,88.7l3-6l-3.2-1.7l-3,5.9c0,0-2.8-1.9-2.8-1.6c-0.2,1.4,2.2,9.8,2.2,9.8s6.5-4.6,6-4.8
		C696.2,89.7,695.5,89.2,694.8,88.7z"/>
	<path class="st25" d="M663.4,139.8c0,0-19.1,14.1-30.4,47.5"/>
	<path class="st19" d="M669.5,126.1c-5.9-0.2-11-0.1-14.8,0.1c-0.6,3.5-1,7-0.9,10.5c0.2,14.3,33.2,11.2,33.2,11.2
		c1.8,0.2,8.8-2.4,8.2-5.9c-0.6-4.2-0.8-8.4-0.5-12.6C687.6,127.2,678,126.3,669.5,126.1z"/>
	<path class="st19" d="M687.7,148.6l3.6-0.1l6.8-1.1l-3.9-5.4L687.7,148.6z"/>
	<path class="st5" d="M888.3,265.4v0.4l0.2-0.4H888.3z M898.3,266c-3.9,2.3-6.6,6.9-6.8,14.4c-0.4,12.1,0.9,16.4,6.7,19.7h120.3V266
		L898.3,266z M888.3,300.3v1h0.6C888.6,300.9,888.5,300.6,888.3,300.3z"/>
	<path class="st15" d="M692,257c0,0-12.8,6.2-13.3,26.4s13.3,24.2,13.3,24.2l195,1.1h143.2c0.5,0,1-0.3,1-0.8c0,0,0,0,0,0v-6.9
		c0-0.5-0.4-0.9-0.9-0.8c0,0,0,0-0.1,0h-132c-5.8-3.3-7.1-7.6-6.7-19.7c0.2-7.4,3-12.1,6.8-14.4h132c0.5,0,1-0.3,1-0.9c0,0,0,0,0,0
		v-6.9c0-0.5-0.4-0.9-0.9-0.9c0,0,0,0-0.1,0H888.6v-0.1L692,257z"/>
	<path class="st24" d="M692,257c0,0-7.6,3.8-11.3,14.8h204.8c0.7-2.2,1.6-4.3,2.9-6.3c2.8-4.4,7.4-7.4,12.5-8.1l-12.3-0.1L692,257z
		 M898.3,266c-1.1,0.6-2,1.4-2.8,2.4C896.3,267.4,897.3,266.6,898.3,266L898.3,266z M895.5,268.4c-0.9,1-1.6,2.2-2.2,3.4
		C893.9,270.5,894.6,269.4,895.5,268.4L895.5,268.4z"/>
	<path class="st16" d="M900.9,257.4c-5.2,0.7-9.8,3.6-12.6,8c-2.9,4.5-4.9,11.3-4.5,21.8c0,0,1.7,21.8,19.6,21.2
		c1.1,0,2.2,0.1,3.2,0.3h123.5c0.5,0,1-0.3,1-0.8c0,0,0,0,0,0v-6.9c0-0.5-0.4-0.9-0.9-0.8c0,0,0,0-0.1,0h-132
		c-5.8-3.3-7.1-7.6-6.7-19.7c0.2-7.4,3-12.1,6.8-14.4h132c0.5,0,1-0.3,1-0.9c0,0,0,0,0,0v-6.9c0-0.5-0.4-0.9-0.9-0.9c0,0,0,0-0.1,0
		L900.9,257.4z"/>
	<path class="st11" d="M898.3,266c-3.9,2.3-6.6,6.9-6.8,14.4c-0.3,9.3,0.4,14,3.4,17.1c-0.3-2.9-0.4-5.8-0.3-8.6
		c0.2-7.4,3-12.1,6.8-14.4h117.1V266H898.3z"/>
	<path class="st5" d="M881.9,330.1v1h0.6C882.3,330.8,882.1,330.4,881.9,330.1z"/>
	<path class="st19" d="M610.5,189.6c-1.3,3.4-1.5,5.4,4.4,6.6c0,0,16.3,5,18.8,3.4s7.5-15.7,7.5-15.7l-12.4-4l-3.5,6.9
		c-0.6,1-1.8,1.6-3,1.5C622.3,188.3,612,185.6,610.5,189.6z"/>
	<path class="st19" d="M969.9,266.4l-0.3,0.2"/>
	<path class="st21" d="M1022.7,251.6c0,0-1.4,4.4,1.7,6c3.1,1.7,9,0.8,9,0.8s-2.3,1.4-1.7,3s2.8,1.8,5-1.1s2.3-2.6,3.3-4.8
		s-1.3-3.4-4.3-4.2C1032.2,250.4,1022.7,251.6,1022.7,251.6z"/>
	<path class="st9" d="M999.4,190.9c-3,0.8-4.8,3.9-4,6.8c0.3,1,0.8,2,1.6,2.7c0,0,0.2,0.2,0.3,0.4c0.3,0.3,0.8,0.8,1.3,1.2
		c1.3,1.4,2.8,3,4.3,4.8c4.7,5.6,8.7,11.6,11.9,18.1c4.1,8.1,6.8,16.9,7.8,25.9c0.1,0.3,0.1,0.5,0.3,0.8c0.3,0,4.1,1.1,6,1
		c4.2-0.3,3.3-1.6,4.7-1.4c0.1-0.5,0.2-1.1,0.1-1.6c-1.2-10.3-4.2-20.3-8.9-29.5c-3.6-7.3-8.1-14.1-13.3-20.3
		c-1.7-2.1-3.4-3.9-4.9-5.5c-0.9-1-1.7-1.6-2.1-2c-0.6-0.5-1.2-0.9-1.9-1.1C1001.5,190.7,1000.4,190.6,999.4,190.9z"/>
	<path class="st21" d="M638.1,129.4c0,0,4.8,1.4,4.4,5.1s-4.9,8.5-4.9,8.5s3.9-0.7,3.8,0.3s-0.2,3.6-4.1,3.7s-3.8,0.4-6.4,0
		s-2.3-3.2-1.2-6.3C631,137.2,638.1,129.4,638.1,129.4z"/>
	<path class="st24" d="M686.1,84.8c0.9,0.6,1.7,1.5,2.1,2.5c1.2,2.8,0,6-2.8,7.3c0,0,0,0-0.1,0l-0.4,0.2c-0.4,0.2-1,0.4-1.6,0.8
		c-1.7,0.9-3.6,1.9-5.7,3.2c-6.2,3.8-12,8.2-17.2,13.3c-6.1,6-15.9,22.9-15.9,22.9s-0.5,1.1-0.8,1.7c-0.1,0.2-0.3,0.5-0.5,0.7
		c-0.2-0.1-3.5,0.8-6-0.2c-1.7-0.8-3.1-2.1-4-3.7c0.1-0.5,0.2-1.1,0.4-1.6c4.4-9.4,11.5-20.3,19-27.7c5.8-5.7,12.2-10.7,19.1-14.9
		c2.3-1.4,4.5-2.6,6.5-3.6c1.2-0.6,2.1-1,2.6-1.3c0.7-0.3,1.4-0.4,2.2-0.4C684.1,83.9,685.2,84.2,686.1,84.8z"/>
	<path class="st10" d="M979.9,192.8c0,0-9.8,4.2-2,24.7l4.5,6.2l1.2-13.3L979.9,192.8z"/>
	<path class="st5" d="M853.9,314.1v0.3l-0.3-0.3H853.9z M841.9,314.5c4.7,1.7,7.9,5.3,8.2,10.9c0.5,9.2-1.1,12.4-8,15H697.6v-25.9
		H841.9z M853.9,340.5v0.7h-0.7C853.5,341,853.7,340.7,853.9,340.5z"/>
	<path class="st6" d="M1065.7,307.6c0,0,13.8,4.7,14.3,20s-14.3,18.4-14.3,18.4l-179.8,0.7l-30.7,0.1H700.8c-0.6,0-1-0.3-1-0.7V341
		c0-0.4,0.5-0.6,1-0.6h142.4c6.2-2.5,7.6-5.8,7.2-15c-0.2-5.6-3.2-9.2-7.4-10.9H700.6c-0.6,0-1-0.3-1-0.7v-5.2c0-0.4,0.5-0.6,1-0.6
		l153-0.1L1065.7,307.6z"/>
	<path class="st12" d="M840.4,308c6.8,0.7,19.4,4.4,18.4,22.7c0,0-1.8,16.5-21.1,16.1c-1.2,0-2.3,0-3.5,0.2H700.9
		c-0.6,0-8.1,0.7-7.8-3.3s7.3-3.2,7.8-3.2h142.4c6.2-2.5,7.6-5.8,7.2-15c-0.3-5.6-3.2-9.2-7.4-10.9c0,0-104.1,0.9-142.5,0
		c-6.5-0.2-7.5-1.4-7.5-3.6c-0.1-3,4.1-3.8,6.7-3.5S840.4,308,840.4,308z"/>
	<path class="st11" d="M843.1,314.5c4.2,1.7,7.1,5.3,7.4,10.9c0.3,7-0.5,10.6-3.6,13c0.3-2.2,0.4-4.4,0.3-6.6
		c-0.3-5.6-3.2-9.2-7.4-10.9l-141.5,0.2v-6.4L843.1,314.5z"/>
	<path class="st26" d="M776,328.4c0,0-12,7.1-6.6,28.8l-9.2-7.4l-7.7,7.7c0,0-8.3-22,2.9-30.3L776,328.4z"/>
	<path class="st27" d="M858.3,137.5l18.2,17.6l12.5-56L858.3,137.5z"/>
	<path class="st27" d="M834.9,129.3L889,99l-35.1,36.3L834.9,129.3z"/>
	<path class="st26" d="M856,153.8l-2.7-18.6L889,99.1l-30.6,38.6L856,153.8z"/>
	<path class="st28" d="M858.5,137.6l5.1,4.9l-7.5,10.9L858.5,137.6z"/>
	<path class="st29" d="M695.3,235.1c43.8,11,105.2-39.2,83.4-64.1c-15.2-17.4-39.1,3-37.9,17.1c2.2,27.6,64.2,53.4,107.2-29.8"/>
	<path class="st21" d="M1001.9,121.7L1001.9,121.7c-15.3-6.7-32.5-0.4-38.4,14l-4.7,11.4c-5.9,14.4,1.8,31.6,17.1,38.3l0,0
		c15.3,6.7,32.5,0.4,38.4-14l4.7-11.5C1024.9,145.6,1017.3,128.4,1001.9,121.7z"/>
	<path class="st21" d="M1028.4,172.2c1-5.2,0.7-7.5-2.1-10.6c-1.9-2.4-4.5-4-7.5-4.7c-7.2-1.8-9.7,3.6-12.1,9.6
		c-2.1,5.3-7.6,8.3-2.4,11.6c0.7,0.5,3.5,2.8,4.6,3.1C1017.9,184.4,1026.8,180.8,1028.4,172.2z"/>
	<path class="st19" d="M990.5,154.8c0.7-1.3,0.6-2.7-0.3-3.2s-2.1,0.2-2.8,1.5s-0.6,2.7,0.3,3.2S989.9,156.1,990.5,154.8z"/>
	<path class="st19" d="M969.6,145.7c0.7-1.3,0.6-2.7-0.3-3.2s-2.1,0.2-2.8,1.5s-0.6,2.7,0.3,3.2S968.9,147,969.6,145.7z"/>
	<path class="st23" d="M999.7,146.9c0,0-4.8-7-9.7-4.3"/>
	<path class="st23" d="M976,137.9c0,0-2.9-5.9-7.1-2.8"/>
	<path class="st9" d="M981.6,191.2c7-1.7,11-2.8,16.7-2.3c3.9,0.4,11.7,6.7,16.3,18.2s4.4,22.5,2.9,36.4c-1.7,16-20,16.9-38,14.1
		c-10.1-1.6-6.7-11.6-3.3-26.7s2.1-33.3,2.1-33.3S977.7,192.1,981.6,191.2z"/>
	<path class="st21" d="M986.3,189.9c0,0-3-4.7-2.1-6.6s6.5-1.7,5.1,0.6s1.1,5.5,1.1,5.5s3.6-0.8,3.6-0.5c-0.4,1.6-6.2,9.4-6.2,9.4
		s-4.8-7.5-4.3-7.5C984.4,190.4,985.4,190.2,986.3,189.9z"/>
	<path class="st19" d="M1024.3,159.6c0,0,3.8-5.2,5-9.6c0.8-2.6,0.8-5.3,0-7.9l-6.2-9.1l-6.7-5.3l-19.8,0.1l-5.2,6.8l15.2,7.4
		c7.2,3.1,4.5,6.7,1.6,14.3c-3.1,8.1-0.5,11.7,1.8,8.3C1017.4,153.7,1024.3,159.6,1024.3,159.6z"/>
	<path class="st19" d="M1026.5,141.6c1.1-3.5,5.3-8.5,4-12.5c-4.5-13.6-34.7-21.5-42.6-21.1s-19.8-10.6-21.3-3s3.7,14.4,7.1,16.2
		c5.2,2.7,6.7,7.4,12,9.8"/>
	<path class="st19" d="M973.2,116.9c-2.6-0.9-18.9,1.9-11.9,7.6c15.4,12.3,28.6,12.1,46.3,18"/>
	<path class="st22" d="M966.5,164.6c0,0,0.4,6.5,3.6,7.2c1.5,0.4,4.7-2.2,6.6-4.3"/>
	<path class="st22" d="M969,155.8c0,0,3.9-3.5,7.2,2.6"/>
	<path class="st19" d="M1018,238.5c-17.7,2.7-37.8-1.3-43-2.4c-2.8,12-4.4,20.1,4.5,21.5c18,2.8,35.5,4.4,38-11.6
		C1017.8,243.6,1018,241,1018,238.5z"/>
	<path class="st25" d="M980.8,250.6c-5.8-3.9-11.8-20.6-23.4-17.5S936,257.1,941,253"/>
	<path class="st19" d="M916.5,257c-1.3,3.6-1.4,5.6,4.7,6.8c0,0,16.9,5,19.4,3.3s7.5-16.4,7.5-16.4l-12.8-4l-3.5,7.2
		c-0.6,1.1-1.8,1.7-3,1.6C928.7,255.4,918,252.8,916.5,257z"/>
	<path class="st25" d="M1000.2,251.7c5.8,2.3-17.5-6.1-25.6,2.7c-4.8,5.2-7.4,12.1-7.1,19.2"/>
	<path class="st9" d="M952.1,288.6c0,0,11.2,6.9,6.1,28.1l8.5-7.2l7.2,7.5c0,0,7.7-21.4-2.7-29.5L952.1,288.6z"/>
	<path class="st19" d="M948.1,288.3c0.3,3.8,1.1,5.7,7.1,4.1c0,0,17.5-2.7,18.9-5.3s-0.2-18.1-0.2-18.1l-13.3,1.8l-0.1,8
		c-0.1,1.2-0.9,2.3-2.1,2.8C958.4,281.7,947.7,283.8,948.1,288.3z"/>
	<path class="st5" d="M78.6,328.3v0.5h-0.2C78.5,328.6,78.6,328.4,78.6,328.3z"/>
	<path class="st5" d="M213.2,326.7v0.7h0.3C213.5,327.2,213.4,327,213.2,326.7z"/>
	<path class="st14" d="M171.8,135.6l0.1-14.1l79.9-49.6c0,0,56.2,11.4,66.5,40.6c0,0,45.1-4.2,63.9,11.6l-2.4,11.8
		c0,0-69.7,28.4-71.7,29.8s-67.3-2.2-67.3-2.2L210.3,136L171.8,135.6z"/>
	<path class="st15" d="M248.2,85.7c0,0,27.8,5.7,39.4,11.7c13.9,7.1,18.6,16.4,24.3,23.2c2.1,2.5-0.6,3.2-0.6,3.2l-83.8,52.3
		c0,0,1.6-16.3-16.5-23.8s-43.9-12.5-43.9-12.5l0.6-4.8L248.2,85.7z"/>
	<path class="st15" d="M232,176.9l84.2-50.9c0,0,0-2.5,1.4-3.2c4.4-2,27.2-2.5,38.1-0.3s26.5,14.5,26.5,14.5s-1.7,2.7-0.5,4.1
		l-90.1,43.3c0,0-3.9-8.7-17.8-11.1C264,171.7,252.6,171,232,176.9z"/>
	<polygon class="st30" points="317,125.6 317,125.6 317,125.6 316.9,125.6 311.6,123.6 311.5,123.6 311.5,123.4 311.8,123.5 
		317,125.6 	"/>
	<polygon class="st31" points="311.5,123.4 311.5,123.6 311.6,123.6 316.9,125.6 232.9,177 227.2,176.1 244.5,165.3 227.9,175.6 
		227.9,172 311.6,119.7 311.7,120.5 317.4,122.7 317,125.6 311.8,123.5 	"/>
	<polygon class="st30" points="317,125.6 317,125.6 316.9,125.6 311.6,123.6 311.5,123.6 311.5,123.4 311.8,123.5 	"/>
	<polygon class="st30" points="311.8,123.5 311.8,123.5 311.6,123.6 311.5,123.6 311.5,123.4 	"/>
	<path class="st32" d="M215.6,184.8c-30.8,15.4-100,47.5-57.7,100.1"/>
	<path class="st5" d="M242.1,318.8v0.2l-0.1-0.1L242.1,318.8z M236.8,319.1c2.1,1,3.5,2.9,3.6,6c0.2,5.1-0.5,6.9-3.5,8.3h-63.7v-1.7
		l3.5-0.5l-3.4-0.1v-4.4l4.9-0.2l-4.8-0.9l-0.2-6.4L236.8,319.1z M242.1,333.4v0.4h-0.3C241.9,333.7,242,333.5,242.1,333.4
		L242.1,333.4z"/>
	<path class="st13" d="M336.4,315.3c0,0,6.1,2.6,6.4,11s-6.4,10.1-6.4,10.1l-93.7,0.5H174c-0.2,0-0.4-0.1-0.5-0.4v-2.8
		c0-0.2,0.2-0.4,0.5-0.4h63.4c2.8-1.4,3.4-3.2,3.2-8.3c-0.1-3.1-1.4-5.1-3.3-6h-63.4c-0.2,0-0.4-0.1-0.5-0.4v-2.9
		c0-0.2,0.2-0.4,0.5-0.4H242v-0.1L336.4,315.3z"/>
	<path class="st33" d="M336.4,315.3c2.5,1.3,4.4,3.5,5.4,6.2h-98.4c-0.3-0.9-0.8-1.8-1.4-2.6c-1.5-1.9-3.6-3.1-6-3.4l5.9-0.1
		L336.4,315.3z M237.3,319.1c0.5,0.3,1,0.6,1.4,1C238.3,319.7,237.8,319.3,237.3,319.1L237.3,319.1z M238.6,320.1
		c0.4,0.4,0.7,0.9,1,1.4C239.4,321,239.1,320.5,238.6,320.1L238.6,320.1z"/>
	<path class="st33" d="M235.6,315.5c2.5,0.2,4.8,1.4,6.4,3.4c1.5,1.9,2.5,4.7,2.3,9.1c0,0-0.9,9.1-9.9,8.9c-0.5,0-1.1,0-1.6,0.1
		h-62.4c-0.2,0-0.4-0.1-0.5-0.4v-2.9c0-0.2,0.2-0.4,0.5-0.4H237c2.9-1.4,3.6-3.2,3.4-8.3c-0.1-3.1-1.5-5.1-3.5-6h-66.7
		c-0.2,0-0.4-0.1-0.5-0.4v-2.9c0-0.2,0.2-0.4,0.5-0.4L235.6,315.5z"/>
	<path class="st11" d="M237.3,319.1c1.9,1,3.2,2.9,3.3,6c0.1,3.9-0.2,5.8-1.6,7.2c0.1-1.2,0.2-2.4,0.1-3.6c-0.1-3.1-1.4-5.1-3.3-6
		h-62.4v-3.5L237.3,319.1z"/>
	<path class="st5" d="M280.9,298.6v0.4h-0.2C280.8,298.9,280.8,298.7,280.9,298.6z"/>
	<path class="st5" d="M273.8,301v0.1l0.1-0.1H273.8z M278,301.2c-1.8,0.9-2.9,2.8-2.8,4.8c-0.2,4.1,0.4,5.5,2.8,6.6h49.8v-1.4
		l-2.8-0.4l2.6-0.1v-3.6l-3.8-0.1l3.7-0.8l0.1-5.2H278z M273.8,312.7v0.3h0.3C274,312.9,273.9,312.8,273.8,312.7z"/>
	<path class="st24" d="M200.2,298.1c0,0-4.8,2.1-5,8.9s5,8.1,5,8.1l73.2,0.4h53.7c0.2,0,0.3-0.1,0.4-0.3V313c0-0.2-0.2-0.3-0.4-0.3
		c0,0,0,0,0,0h-49.6c-2.2-1.1-2.6-2.6-2.5-6.6c0.1-2.5,1.1-4.1,2.6-4.8h49.6c0.2,0,0.3-0.1,0.4-0.3v-2.3c0-0.2-0.2-0.3-0.4-0.3
		c0,0,0,0,0,0h-53.2v0L200.2,298.1z"/>
	<path class="st16" d="M200.2,298.1c-2,1.1-3.5,2.9-4.2,5h76.9c0.3-0.8,0.6-1.5,1.1-2.1c1.1-1.5,2.8-2.5,4.7-2.7l-4.6,0L200.2,298.1
		z M277.6,301.1c-0.4,0.2-0.7,0.5-1,0.8C276.9,301.6,277.2,301.4,277.6,301.1L277.6,301.1z M276.6,301.9c-0.3,0.3-0.6,0.7-0.8,1.1
		C276,302.7,276.2,302.3,276.6,301.9L276.6,301.9z"/>
	<path class="st16" d="M278.9,298.3c-2,0.2-3.8,1.2-5,2.7c-1.1,1.5-1.9,3.8-1.8,7.4c0,0,0.7,7.3,7.7,7.1c0.4,0,0.9,0,1.3,0.1h48.8
		c0.2,0,0.4-0.1,0.4-0.3V313c0-0.2-0.2-0.3-0.4-0.3h-52.1c-2.3-1.1-2.8-2.6-2.6-6.6c0.1-2.5,1.2-4.1,2.7-4.8H330
		c0.2,0,0.4-0.1,0.4-0.3v-2.3c0-0.2-0.2-0.3-0.4-0.3L278.9,298.3z"/>
	<path class="st11" d="M277.6,301.2c-1.5,0.8-2.5,2.3-2.6,4.8c-0.1,3.1,0.2,4.7,1.3,5.8c-0.1-1-0.1-1.9-0.1-2.9
		c0.1-2.5,1.1-4.1,2.6-4.8h48.8v-2.9H277.6z"/>
	<path class="st9" d="M289,306.1c0,0,5,2.8,2.8,11.3l3.8-2.9l3.2,3c0,0,3.5-8.6-1.2-11.9L289,306.1z"/>
	<path class="st5" d="M255.8,276.9v0.1V276.9L255.8,276.9z M255.8,291.9v0.4h-0.2L255.8,291.9z"/>
	<path class="st14" d="M339.3,265.3c0,0,3.6,2.4,5.4,9.4h-98.4c-0.3-1.4-0.8-2.7-1.4-4c-1.8-3.7-4.3-4.9-6-5.2l5.9-0.1L339.3,265.3z
		 M240.3,271.1c0.5,0.4,1,0.9,1.4,1.5C241.3,272,240.8,271.5,240.3,271.1L240.3,271.1z M241.6,272.6c0.4,0.7,0.8,1.4,1,2.1
		C242.4,274,242,273.3,241.6,272.6L241.6,272.6z"/>
	<path class="st5" d="M294.5,264.6v0.3l-0.1-0.3H294.5z M294.5,291.2v0.7h-0.3C294.3,291.7,294.4,291.5,294.5,291.2z"/>
	<path class="st5" d="M245.1,270.7v0.3c0-0.1-0.1-0.2-0.1-0.2L245.1,270.7z M239.8,271.1c2.1,1.5,3.5,4.4,3.6,9.2
		c0.2,7.8-0.5,10.5-3.5,12.6h-63.7v-2.6l3.5-0.8l-3.4-0.1v-6.8l4.9-0.3l-4.8-1.4l-0.2-9.8H239.8z M245.1,293v0.6h-0.3
		C244.9,293.4,245,293.2,245.1,293z"/>
	<path class="st6" d="M339.3,265.3c0,0,6.1,3.9,6.4,16.8s-6.4,15.5-6.4,15.5l-93.7,0.7H177c-0.3,0-0.5-0.3-0.5-0.6v-4.4
		c0-0.3,0.2-0.5,0.5-0.5c0,0,0,0,0,0h63.4c2.8-2.1,3.4-4.8,3.2-12.6c-0.1-4.8-1.4-7.7-3.3-9.2h-63.5c-0.3,0-0.5-0.3-0.5-0.6v-4.4
		c0-0.3,0.2-0.5,0.5-0.5H245v-0.1L339.3,265.3z"/>
	<path class="st34" d="M238.6,265.6c1.8,0.3,4.4,1.5,6.4,5.1c1.5,2.9,2.5,7.2,2.3,13.9c0,0-0.9,13.9-9.9,13.5c-0.6,0-1.1,0-1.6,0.2
		h-62.4c-0.3,0-0.5-0.3-0.5-0.6c0,0,0,0,0,0v-4.4c0-0.3,0.2-0.5,0.5-0.5c0,0,0,0,0,0H240c2.9-2.1,3.6-4.8,3.4-12.6
		c-0.1-4.8-1.5-7.7-3.5-9.2h-66.7c-0.3,0-0.5-0.3-0.5-0.6c0,0,0,0,0,0v-4.4c0-0.3,0.2-0.5,0.5-0.5c0,0,0,0,0,0H238.6z"/>
	<path class="st11" d="M240.3,271.1c1.9,1.5,3.2,4.4,3.3,9.2c0.1,5.9-0.2,8.9-1.6,10.9c0.1-1.8,0.2-3.7,0.1-5.5
		c-0.1-4.8-1.4-7.7-3.3-9.2h-63.5v-5.4H240.3z"/>
	<path class="st9" d="M196.5,285.1c0,0-6.3,6-3.5,24.1l-4.8-6.2l-4.1,6.4c0,0-4.4-18.4,1.5-25.3L196.5,285.1z"/>
	<path class="st17" d="M179.3,281.6l49.4-0.5"/>
	<path class="st34" d="M256.6,278.1h8c2,0,3.5,1.6,3.5,3.5c0,0,0,0,0,0l0,0c0,2-1.6,3.5-3.5,3.5h-8c-2,0-3.6-1.6-3.6-3.5l0,0
		C253.1,279.7,254.7,278.1,256.6,278.1C256.6,278.1,256.6,278.1,256.6,278.1z"/>
	<path class="st15" d="M143,287.9l-11,47.8l-71.2-1.3l10.5-43.9c0.6-2,2.5-3.3,4.5-3.4L143,287.9z"/>
	<path class="st16" d="M144.6,287.6c-0.4,0-0.7,0-1.1,0.1c-1.1,0.2-2.2,0.8-2.8,1.8c-0.2,0.4-0.4,0.8-0.6,1.2
		c-0.1,0.2-0.1,0.4-0.1,0.6v-0.1l-9.4,43.1c-0.1,0.7,0.3,1.3,1,1.4c0,0,0,0,0,0c0.7,0.1,1.3-0.3,1.5-0.9l9.4-43.1v-0.1
		c0-0.1,0-0.1,0-0.2c0.1-0.2,0.1-0.4,0.3-0.6c0.3-0.4,0.7-0.6,1.1-0.7c0.4-0.1,0.9,0,1.2,0.4c0.1,0.1,0.2,0.3,0.3,0.4
		c0,0.2,1,4.7,1.4,6.4c1.1,4.8,2.2,9.7,3.2,14.2c0.2,0.8,0.4,1.5,0.5,2.3c0.4,1.9,0.9,3.7,1.3,5.4c1.6,6.8,3.9,14.9,3.9,14.9
		s1,0.9,1.6,0.6c0.6-0.2,0.9-0.9,0.7-1.5c0,0,0,0,0,0c-0.7-1.6-2.7-10.3-5-19.9c-0.2-0.8-0.4-1.5-0.5-2.3c-1-4.5-2.1-9.3-3.2-14.2
		c-0.4-1.7-1.4-6.4-1.4-6.4v-0.1c-0.1-0.2-0.1-0.3-0.2-0.4c-0.1-0.3-0.3-0.6-0.5-0.8C146.4,288.2,145.5,287.7,144.6,287.6z"/>
	<path class="st18" d="M143.9,290.1c-0.5,0.1-0.9,0.3-1.1,0.7c-0.1,0.2-0.2,0.4-0.3,0.6c0,0.1,0,0.1,0,0.2v0.1l-1.8,8.3l-7.5,34.6
		l3.2,0.2l7.3-42.6l8.4,42l4.4,0.5c-0.1-0.6-0.7-2.5-1.4-5c-1.6-5.7-4.1-14.3-4.6-16c-0.2-0.8-0.4-1.5-0.5-2.3
		c-1-4.5-2.1-9.4-3.2-14.2c-0.4-1.7-1.4-6.2-1.4-6.4c-0.1-0.2-0.1-0.3-0.3-0.4C144.9,290,144.4,289.9,143.9,290.1z"/>
	<path class="st11" d="M143.6,292.2l-0.5,2.7l-6.8,36.9l-0.5,2.6l16.4,0.2l-2-14l-5.3-28.5c0,0-0.1-1-0.8-0.9
		S143.6,292.2,143.6,292.2z"/>
	<path class="st6" d="M211.4,328.5c0,0-5.4,2.9-2.9,11.7l-4.1-3l-3.4,3.1c0,0-3.7-9,1.3-12.4L211.4,328.5z"/>
</g>
</svg>
