<?xml version="1.0" encoding="utf-8"?>
<!-- Generator: Adobe Illustrator 24.0.1, SVG Export Plug-In . SVG Version: 6.00 Build 0)  -->
<svg version="1.1" xmlns="http://www.w3.org/2000/svg" xmlns:xlink="http://www.w3.org/1999/xlink" x="0px" y="0px"
	 viewBox="0 0 1440 400" style="enable-background:new 0 0 1440 400;" xml:space="preserve">
<style type="text/css">
	.st0{fill-rule:evenodd;clip-rule:evenodd;fill:url(#SVGID_1_);}
	.st1{display:none;}
	.st2{display:none;fill-rule:evenodd;clip-rule:evenodd;fill:#EFF6FC;}
	.st3{display:none;fill-rule:evenodd;clip-rule:evenodd;fill:#FF514F;}
	.st4{display:none;fill-rule:evenodd;clip-rule:evenodd;fill:#DB3945;}
	.st5{display:none;fill-rule:evenodd;clip-rule:evenodd;fill:#161F36;}
	.st6{display:none;fill-rule:evenodd;clip-rule:evenodd;fill:#B4CCFE;}
	.st7{display:none;fill-rule:evenodd;clip-rule:evenodd;fill:#FFCBB8;}
	.st8{display:none;fill:none;stroke:#161F36;stroke-width:0.5;stroke-linecap:round;stroke-linejoin:round;}
	.st9{display:none;fill:none;stroke:#161F36;stroke-linecap:round;stroke-linejoin:round;}
	.st10{display:none;fill-rule:evenodd;clip-rule:evenodd;fill:#1D8314;}
	.st11{display:none;fill-rule:evenodd;clip-rule:evenodd;fill:#319D1D;}
	.st12{display:none;fill:none;stroke:#161F36;stroke-width:12;stroke-linecap:round;stroke-linejoin:round;}
	.st13{display:none;fill-rule:evenodd;clip-rule:evenodd;fill:#E9F1F9;}
	.st14{display:none;fill-rule:evenodd;clip-rule:evenodd;fill:#49B728;}
	.st15{display:none;fill-rule:evenodd;clip-rule:evenodd;fill:#C5D7ED;}
	.st16{display:none;fill-rule:evenodd;clip-rule:evenodd;fill:#FFAA00;}
	.st17{display:none;fill-rule:evenodd;clip-rule:evenodd;fill:#B76D00;}
	.st18{display:none;fill-rule:evenodd;clip-rule:evenodd;fill:#C7D9ED;}
	.st19{display:none;fill-rule:evenodd;clip-rule:evenodd;fill:#D9E6FE;}
	
		.st20{display:none;fill:none;stroke:#C5D7ED;stroke-width:2;stroke-linecap:round;stroke-linejoin:round;stroke-dasharray:10,10,10,10;}
	.st21{display:none;fill:none;stroke:#D9E6FE;stroke-width:2;stroke-linecap:round;stroke-linejoin:round;}
	.st22{display:none;fill-rule:evenodd;clip-rule:evenodd;fill:#E1EBF6;}
	.st23{fill-rule:evenodd;clip-rule:evenodd;fill:#E1EBF6;}
	.st24{fill-rule:evenodd;clip-rule:evenodd;fill:#E9F1F9;}
	.st25{fill-rule:evenodd;clip-rule:evenodd;fill:#929FEF;}
	.st26{fill-rule:evenodd;clip-rule:evenodd;fill:#6E79E0;}
	.st27{fill-rule:evenodd;clip-rule:evenodd;fill:#FFB233;}
	.st28{fill:none;stroke:#D9E6FE;stroke-width:1.6271;stroke-linecap:round;stroke-linejoin:round;}
	.st29{fill-rule:evenodd;clip-rule:evenodd;fill:#A546A0;}
	.st30{fill-rule:evenodd;clip-rule:evenodd;fill:#FFD16C;}
	.st31{fill-rule:evenodd;clip-rule:evenodd;fill:#039393;}
	.st32{fill-rule:evenodd;clip-rule:evenodd;fill:#00A2AA;}
	.st33{fill-rule:evenodd;clip-rule:evenodd;fill:#F5FAFE;}
	.st34{fill:#D9E6FE;}
	.st35{fill-rule:evenodd;clip-rule:evenodd;fill:#D9E6FE;}
	.st36{fill-rule:evenodd;clip-rule:evenodd;fill:#ACFCF8;}
	.st37{fill-rule:evenodd;clip-rule:evenodd;fill:#F25AB8;}
	.st38{fill-rule:evenodd;clip-rule:evenodd;fill:#E03D9A;}
	.st39{fill-rule:evenodd;clip-rule:evenodd;fill:#E07C22;}
	.st40{fill-rule:evenodd;clip-rule:evenodd;fill:#88F2EF;}
	.st41{opacity:0.47;fill:#D9E6FE;enable-background:new    ;}
	.st42{fill-rule:evenodd;clip-rule:evenodd;fill:#5263CC;}
	.st43{fill-rule:evenodd;clip-rule:evenodd;fill:#EFF6FC;}
	.st44{fill:none;stroke:#D9E6FE;stroke-width:1.6911;stroke-linecap:round;stroke-linejoin:round;}
	.st45{fill-rule:evenodd;clip-rule:evenodd;fill:#F6BD9A;}
	.st46{fill:none;stroke:#161F36;stroke-width:20;stroke-linecap:round;stroke-linejoin:round;}
	.st47{fill-rule:evenodd;clip-rule:evenodd;fill:#FFFFFF;}
	.st48{fill-rule:evenodd;clip-rule:evenodd;fill:#161F36;}
	.st49{fill-rule:evenodd;clip-rule:evenodd;fill:#FFF5F5;}
	.st50{fill:none;stroke:#161F36;stroke-width:0.5;stroke-linecap:round;stroke-linejoin:round;}
	.st51{fill-rule:evenodd;clip-rule:evenodd;fill:#DB3945;}
	.st52{fill-rule:evenodd;clip-rule:evenodd;fill:#FF514F;}
	.st53{fill:none;stroke:#161F36;stroke-width:2;stroke-linecap:round;stroke-linejoin:round;}
	.st54{opacity:0.8;fill-rule:evenodd;clip-rule:evenodd;fill:url(#SVGID_2_);enable-background:new    ;}
	.st55{opacity:0.8;fill-rule:evenodd;clip-rule:evenodd;fill:url(#SVGID_3_);enable-background:new    ;}
	.st56{fill:none;stroke:#FFFFFF;stroke-width:2;stroke-linecap:round;stroke-linejoin:round;}
	.st57{fill-rule:evenodd;clip-rule:evenodd;fill:#C5D7ED;}
	.st58{fill-rule:evenodd;clip-rule:evenodd;fill:#ECB38A;}
	.st59{fill-rule:evenodd;clip-rule:evenodd;fill:#7399C4;}
	.st60{fill-rule:evenodd;clip-rule:evenodd;fill:#C7D9ED;}
	.st61{fill-rule:evenodd;clip-rule:evenodd;fill:#B4CCFE;}
	.st62{opacity:0.66;fill:#FFFFFF;enable-background:new    ;}
</style>
<g id="Capa_2">
	<g id="Layer_1">
		
			<linearGradient id="SVGID_1_" gradientUnits="userSpaceOnUse" x1="618.0004" y1="212.5761" x2="49.7842" y2="138.6302" gradientTransform="matrix(1 0 0 -1 0 402)">
			<stop  offset="0" style="stop-color:#A546A0"/>
			<stop  offset="0.5426" style="stop-color:#90378B"/>
			<stop  offset="1" style="stop-color:#7B2875"/>
		</linearGradient>
		<path class="st0" d="M0,0h1440v352.3H0V0z"/>
	</g>
</g>
<g id="Capa_1">
	<g id="Capa_2_1_" class="st1">
	</g>
	<g id="Capa_3" class="st1">
	</g>
	<g id="Layer_9">
		<path class="st2" d="M67.6,349.3l1294.5-1c5.3,0,13.5,1.7,18.3,3.8l40.4,17.6c4.8,2.1,4.4,3.8-0.9,3.8H13.3
			c-5.3,0-5.5-1.3-0.5-2.8l36.1-18.6C53.9,350.6,62.3,349.3,67.6,349.3z"/>
		<path class="st3" d="M698.8,164.5l-44.2,198.4l-286-5.2l42.3-182.2c2-7.8,10.2-14.1,18.2-14L698.8,164.5z"/>
		<path class="st4" d="M705,163.5c-1.4-0.1-2.8-0.1-4.4,0.2c-5.1,0.9-8.8,3.6-11.2,7.4c-1,1.6-1.8,3.4-2.2,5.1
			c-0.3,1.1-0.4,1.9-0.5,2.6l0.1-0.6l-37.6,179c-0.6,2.7,1.1,5.3,3.8,5.9s5.4-1.1,5.9-3.8l37.6-179c0-0.2,0.1-0.4,0.1-0.6
			c0-0.1,0.1-0.4,0.2-0.8c0.2-0.8,0.5-1.6,1-2.3c1-1.5,2.4-2.5,4.5-2.9c2.4-0.4,3.7,0.2,4.8,1.6c0.6,0.7,0.9,1.5,1,1.8
			c0.1,0.6,4.1,19.4,5.6,26.4c4.3,20.1,8.7,40.1,12.8,58.9c0.7,3.2,1.4,6.4,2.1,9.5c9.2,40.9,15.8,67.3,19.1,75
			c1.1,2.5,4,3.7,6.6,2.7c2.5-1.1,3.7-4,2.6-6.6c-2.9-6.8-9.5-33.4-18.5-73.3c-0.7-3.1-1.4-6.3-2.2-9.5
			c-4.2-18.7-8.5-38.8-12.8-58.8c-1.5-7-5.6-26.6-5.6-26.7c0-0.1-0.1-0.2-0.1-0.4c-0.1-0.4-0.3-1.1-0.7-1.8
			c-0.5-1.2-1.3-2.4-2.2-3.5C712.5,165.7,709.1,163.8,705,163.5z"/>
		<g>
			<path class="st5" d="M114.3,118.9c-4.8,3.2-8.4,9.4-9.5,14.5c-0.4,1.8-0.8,4.6,1,5.8c2.3,1.5,4.8-0.4,6-2.3
				c0.7-1,1.5-3.3,1.5-3.3s-0.2,2.1-0.2,3.1c0.1,2,0.4,4.9,2.8,5.5c2.7,0.7,3.9-3.2,3.9-5.1c0-0.6-0.1-1.2-0.2-1.8
				c-0.1-0.3-0.3-1.1-0.3-0.8c-0.1,2.7,3.5,7.3,6.6,4.7c1.8-1.5,1.6-5.3,0.9-7.1c-1.8-4.8-4.9-9-7.2-13.4"/>
			<path class="st6" d="M115,114c-0.5,0.9-1.9,2.9-1.6,4c0.3,1,5.3,1.9,5.9,1c0.4-0.6,0.3-2.8,0.3-3.5"/>
			<path class="st6" d="M179.2,110.9c1.2,1.6,1.5,4.3,0.8,5.1c-0.8,0.9-6.7,1.6-7.2,0.6s0.1-2.6,0-3.7L179.2,110.9z"/>
			<path class="st5" d="M164.4,75.1l-0.1,9.4c0,0-0.2,13.1-0.2,14.2s2.6,10.3,2.6,10.3l1.9,2.1l-0.2,0.4c3.6,3.8,9.7,3.4,12.2-1.5
				c2.8-5.6,3-12.7,2.4-18.7c-0.2-2.7-0.6-5.6-0.6-8.2l-0.4,0.8l0.2-0.9l-9.7-7.6L164.4,75.1z"/>
			<path class="st5" d="M122.3,71.7c-0.7-1.3-4.7-2.2-8.1-1.2c-3.3,1-6.8,2.5-8.7,7.5c-4.3,11.5-4.3,22.6,2.6,32.7
				c3.5,5.2,10,10.7,15,4.6C130.3,106.9,122.3,71.7,122.3,71.7z"/>
			<path class="st7" d="M146.4,63.8L146.4,63.8c15.1-0.2,27.4,10.9,27.4,24.7v11c0.1,13.9-12.1,25.3-27.2,25.5l0,0
				c-15.1,0.2-27.4-10.8-27.4-24.7v-11C119.1,75.5,131.3,64,146.4,63.8z"/>
			<path class="st7" d="M107.2,96.1c0.9-4.6,2-6.4,5.3-8s5.6-1.6,7.8-1.3c6.6,1,6.9,6.3,6.9,12.1c0,5,3.5,9.4-1.9,10.3
				c-0.8,0.1-3.9,1-4.9,1C111.9,109.7,105.7,103.7,107.2,96.1z"/>
			<path class="st5" d="M120.9,69.9c7.6-7.7,10.7-9.9,15.8-12.9c5.1-3.1,15-6.6,22.5-7.6c21.3-3,32.7,6,29,26.2
				c-1.1,6-6.7,10.7-12.9,10.3c-2.1-0.1-5.1-1.4-6.4-3.1c-0.5-0.7-0.9-1.4-1.1-2.2c-0.1-0.4-0.3-1.8-0.3-1.4c0,7.8-6.4,13.6-14,10
				c-6.3-3-10.2-9.3-12.4-15.7"/>
			<path class="st5" d="M114,87.1c5-1,6.4-0.6,8.7,0.9c2.3,1.5,2,3.8,3,3.8c0.3,0,4.4-8.2,5.4-9.3c4.2-4.3,9-7.4,14.9-8.7l-8.5-9.4
				l-12.4,1.7l-6.1,5.1l-3.2,12.9"/>
			<path class="st5" d="M179.2,116.4c0.5-0.5,2.9,3.6,3.1,4.1c1.6,3.1,2.7,10.1-0.8,12.5c-4.5,3.2-2.8-3.5-4.1-4.9
				c-0.3-0.3,0,0.9,0,1.4c0,0.9-0.2,1.7-0.5,2.5c-0.6,1.6-3,5.9-5.4,4.2c-1.3-0.9,0.1-4.2,0.4-5.3c0.2-0.5,0.3-0.9,0.4-1.4
				c0.1-0.2,0.5-0.8,0.3-0.6c-1.6,1.5-3.1,8.4-6.7,6.8c-1.9-0.8-0.9-4.4-0.4-5.8c1.9-5,6.3-8.7,7.6-13.8"/>
		</g>
		<path class="st5" d="M143.1,93.4c0-1.3,0.7-2.4,1.6-2.4c0.9,0,1.6,1,1.6,2.3s-0.7,2.4-1.6,2.4C143.8,95.7,143.1,94.7,143.1,93.4z"
			/>
		<path class="st5" d="M166.1,93.1c0-1.3,0.7-2.4,1.6-2.4c0.9,0,1.6,1,1.6,2.3s-0.7,2.4-1.6,2.4S166.1,94.4,166.1,93.1z"/>
		<path class="st8" d="M152.1,98.7c0,0,8.5-2,8.3,3.3"/>
		<path class="st4" d="M166,108.2c-1-2.5-6.7,0.4-10.1,0.7c-5.5,0.5-14.2-3.8-14.7,1.1c-0.5,4.5,8.8,8.6,14.9,7.7
			C162.3,116.7,167.7,112.4,166,108.2z"/>
		<path class="st3" d="M150.3,112.6c-3.8-0.2-6.9,0.2-8,0.3c2.5,3.2,9.1,5.6,13.9,4.8c1.4-0.2,2.8-0.7,4-1.2
			C158.8,113.8,154.5,112.8,150.3,112.6z"/>
		<path class="st9" d="M139,87c0,0,6.8-3.4,9.5,0.8"/>
		<path class="st9" d="M165.9,88.3c0,0,4.8-3.4,6.8,0.9"/>
	</g>
	<g id="Layer_11">
		<path class="st10" d="M153.5,131.3c3.5,5,12.2,15.1,6.8,33.7l-7.6-0.9l-2.5-6.9C150.2,157.2,150,126.4,153.5,131.3z"/>
		<path class="st11" d="M150.7,130.5c-6.1-0.1-9.9-2.8-15.1-2c-5.2,0.7-7.1,6.7-7.1,6.7s-14.5,25.3-2.9,53.9c5.4,13.2,35-1.5,35-1.5
			c1.7-0.5,7.4-5.4,5.6-8.5c-7.7-13.2-12-45.2-12-45.2S154.2,130.6,150.7,130.5z"/>
		<path class="st7" d="M146.4,129.5l0.7-6.6l-3.6-0.4l-0.7,6.6c0,0-3.3-0.7-3.2-0.5c0.3,1.4,5.6,8.3,5.6,8.3s4.4-6.6,3.9-6.7
			C148.5,130.1,146.4,129.5,146.4,129.5z"/>
		<path class="st12" d="M135.6,188.5c0,0-12.7,20-11.1,55.3"/>
		<path class="st5" d="M136.4,173.5c-5.6,2-10.3,3.9-13.8,5.4c0.7,3.4,1.6,6.8,3,10.1c5.4,13.2,35-1.5,35-1.5
			c1.7-0.5,7.3-5.4,5.5-8.5c-2.1-3.6-3.7-7.5-5-11.6C153.6,168,144.4,170.6,136.4,173.5z"/>
		<path class="st5" d="M161.5,187.9l3.3-1.4l6-3.5l-5.6-3.6L161.5,187.9z"/>
		<path class="st13" d="M1258.3,297.5v0.4c0.1-0.1,0.2-0.2,0.2-0.4H1258.3z M1268.4,298.1c-3.9,2.3-6.6,6.9-6.8,14.4
			c-0.4,12.1,0.9,16.4,6.7,19.7h120.3v-34.1H1268.4z M1258.3,332.3v0.9h0.6C1258.7,333,1258.5,332.7,1258.3,332.3z"/>
		<path class="st14" d="M1062.1,289c0,0-12.8,6.2-13.3,26.4c-0.6,20.2,13.3,24.2,13.3,24.2l195.1,1.1h1.6h141.6
			c0.5,0,0.9-0.4,0.9-0.9V333c0-0.5-0.4-0.8-0.9-0.8h-132c-5.8-3.3-7.1-7.6-6.7-19.7c0.2-7.4,2.9-12.1,6.8-14.4h132
			c0.5,0,1-0.4,1-0.9v-6.9c0-0.5-0.4-0.8-1-0.8h-141.8v-0.1L1062.1,289z"/>
		<path class="st11" d="M1062.1,289c0,0-7.6,3.8-11.3,14.8h204.8c0.8-2.5,1.8-4.5,2.9-6.3c3.7-5.8,9-7.6,12.5-8.1l-12.3-0.1
			L1062.1,289z M1268.4,298.1c-1,0.6-2,1.4-2.8,2.4C1266.4,299.5,1267.3,298.7,1268.4,298.1z M1265.6,300.4
			c-0.8,0.9-1.5,2.1-2.1,3.4C1264,302.5,1264.8,301.4,1265.6,300.4z"/>
		<path class="st10" d="M1271,289.5c-3.6,0.5-8.8,2.3-12.6,8c-2.9,4.5-4.9,11.3-4.5,21.8c0,0,1.7,21.8,19.6,21.2
			c1.2,0,2.2,0.1,3.2,0.3h123.6c0.5,0,0.9-0.4,0.9-0.9V333c0-0.5-0.4-0.8-0.9-0.8h-132c-5.8-3.3-7.1-7.6-6.7-19.7
			c0.2-7.4,2.9-12.1,6.8-14.4h132c0.5,0,1-0.4,1-0.9v-6.9c0-0.5-0.4-0.8-1-0.8L1271,289.5L1271,289.5z"/>
		<path class="st15" d="M1268.4,298.1c-3.9,2.3-6.6,6.9-6.8,14.4c-0.3,9.3,0.4,13.9,3.4,17.1c-0.2-2.4-0.4-5.1-0.3-8.6
			c0.2-7.4,2.9-12.1,6.8-14.4h117.1v-8.5H1268.4z"/>
		<path class="st13" d="M1252,362.2v0.9h0.6C1252.4,362.8,1252.2,362.5,1252,362.2z"/>
		<path class="st5" d="M1340,298.5c-0.1,0.1-0.2,0.1-0.3,0.2"/>
		<path class="st7" d="M1392.7,283.7c0,0-1.4,4.4,1.7,6c3.1,1.7,9,0.8,9,0.8s-2.3,1.4-1.7,3c0.6,1.6,2.8,1.8,4.9-1.1
			s2.3-2.6,3.3-4.8c1-2.2-1.3-3.4-4.3-4.2C1402.3,282.4,1392.7,283.7,1392.7,283.7z"/>
		<path class="st3" d="M1369.4,223c-1,0.3-2,0.8-2.8,1.7c-2.1,2.3-1.9,5.8,0.4,7.8c0,0,0.2,0.2,0.3,0.3c0.3,0.3,0.8,0.8,1.3,1.2
			c1.3,1.4,2.8,3,4.3,4.8c4.4,5.3,8.6,11.4,11.9,18.1c4.1,8.2,6.8,16.9,7.8,25.9c0,0.3,0.2,0.5,0.3,0.8c0.3,0,4.1,1.1,6,1
			c4.2-0.3,3.3-1.6,4.7-1.4c0.1-0.5,0.2-1.1,0.1-1.6c-1.2-10.3-4.3-20.2-8.9-29.5c-3.8-7.6-8.4-14.4-13.3-20.3
			c-1.7-2.1-3.4-3.9-4.9-5.5c-0.9-1-1.7-1.6-2.1-2c-0.6-0.5-1.2-0.9-1.9-1.1C1371.6,222.8,1370.5,222.7,1369.4,223z"/>
		<path class="st7" d="M108.3,188c0,0,5-0.4,6,3.2c1,3.6-1.5,9.7-1.5,9.7s3.4-2.1,3.7-1.1c0.3,1,1.1,3.4-2.5,4.9
			c-3.6,1.6-3.4,1.8-5.9,2.3s-3.3-2.2-3.4-5.4C104.5,197.8,108.3,188,108.3,188z"/>
		<path class="st11" d="M136.9,129c1.1,0.2,2,0.7,2.8,1.6c2.2,2.2,2.1,5.7-0.1,7.9c0,0-0.1,0.2-0.3,0.4c-0.3,0.3-0.8,0.8-1.2,1.3
			c-1.3,1.4-2.7,3.1-4.1,5c-4.2,5.5-8.1,11.7-11.2,18.6c-3.5,7.8-6.6,27.1-6.6,27.1s-0.1,1.2-0.2,1.9c0,0.3-0.2,0.5-0.2,0.8
			c-0.3,0-3,2-5.6,2c-2.7,0-5.1-2-5.1-2s-0.2-1.1-0.2-1.6c0.7-10.4,3.4-23.1,7.7-32.6c3.5-7.7,7.8-14.7,12.5-20.8
			c1.7-2.2,3.2-4.1,4.7-5.7c0.9-1,1.6-1.7,2-2.1c0.6-0.5,1.2-0.9,1.9-1.2C134.8,128.9,135.9,128.8,136.9,129z"/>
		<path class="st4" d="M979.9,209.7c0,0-9.8,4.2-2,24.7l4.5,6.2l1.2-13.3L979.9,209.7z"/>
		<path class="st13" d="M1224,346.1v0.3c-0.1-0.1-0.2-0.2-0.3-0.3H1224z M1211.9,346.6c4.7,1.7,7.9,5.3,8.2,10.9
			c0.4,9.2-1.1,12.4-8,15h-144.5v-25.9H1211.9z M1224,372.6v0.7h-0.7C1223.6,373.1,1223.8,372.8,1224,372.6z"/>
		<path class="st16" d="M1435.7,339.7c0,0,13.8,4.7,14.3,20c0.6,15.3-14.3,18.4-14.3,18.4l-179.8,0.7l-30.7,0.1h-1.7h-152.8
			c-0.6,0-1-0.3-1-0.7V373c0-0.4,0.5-0.6,1-0.6h142.4c6.2-2.5,7.6-5.7,7.2-15c-0.2-5.6-3.2-9.2-7.4-10.9h-142.5c-0.6,0-1-0.3-1-0.7
			v-5.2c0-0.4,0.4-0.6,1-0.6l153-0.1L1435.7,339.7z"/>
		<path class="st17" d="M1210.5,340.1c6.8,0.7,19.4,4.4,18.4,22.7c0,0-1.8,16.5-21.1,16.1c-1.3,0-2.4,0.1-3.5,0.2H1071
			c-0.6,0-8.1,0.7-7.8-3.3s7.3-3.2,7.8-3.2h142.4c6.2-2.5,7.6-5.7,7.2-15c-0.3-5.6-3.2-9.2-7.4-10.9c0,0-104.1,0.9-142.5,0
			c-6.5-0.2-7.5-1.4-7.5-3.6c-0.1-3,4.1-3.8,6.7-3.5C1072.7,339.9,1210.5,340.1,1210.5,340.1z"/>
		<path class="st15" d="M1213.2,346.6c4.2,1.7,7.1,5.3,7.4,10.9c0.3,7.1-0.5,10.6-3.6,13c0.3-1.8,0.4-3.9,0.3-6.6
			c-0.3-5.6-3.2-9.2-7.4-10.9l-141.5,0.2v-6.4L1213.2,346.6z"/>
		<path class="st3" d="M776,345.4c0,0-12,7.1-6.6,28.8l-9.2-7.4l-7.7,7.7c0,0-8.3-22,2.9-30.3L776,345.4z"/>
		<path class="st18" d="M142.5,304.7c-4.9,3.6-10.9,10.9-14.6,15.3c1.3,2.6,3.5,9.1,7.2,12.8c3.8,3.7,9.1,4.7,13.6,7
			c4-4.7,9.3-9.2,13.9-15.1c-2.7-2.1-8.6-3.7-13.7-8.3C143.8,311.8,143.4,309.7,142.5,304.7z"/>
	</g>
	<g id="Layer_12">
		<g>
			<path class="st7" d="M1001.9,138.7L1001.9,138.7c-15.3-6.7-32.5-0.4-38.4,14l-4.7,11.5c-5.9,14.4,1.8,31.6,17.1,38.3l0,0
				c15.3,6.7,32.5,0.4,38.4-14l4.7-11.5C1024.9,162.6,1017.3,145.4,1001.9,138.7z"/>
			<path class="st7" d="M1028.4,189.2c1-5.2,0.7-7.5-2.1-10.6c-2.7-3.1-5-4.1-7.5-4.7c-7.2-1.8-9.7,3.6-12.1,9.6
				c-2.1,5.3-7.6,8.3-2.4,11.6c0.7,0.5,3.5,2.8,4.6,3.1C1017.9,201.4,1026.8,197.8,1028.4,189.2z"/>
		</g>
		<path class="st5" d="M990.6,171.8c0.7-1.3,0.6-2.7-0.3-3.2c-0.8-0.5-2.1,0.2-2.8,1.5s-0.6,2.7,0.3,3.2
			C988.6,173.7,989.9,173,990.6,171.8z"/>
		<path class="st5" d="M969.6,162.7c0.7-1.3,0.6-2.7-0.3-3.2c-0.8-0.5-2.1,0.2-2.8,1.5s-0.6,2.7,0.3,3.2
			C967.7,164.6,968.9,163.9,969.6,162.7z"/>
		<path class="st9" d="M999.7,163.9c0,0-4.8-7-9.7-4.3"/>
		<path class="st9" d="M976,154.9c0,0-2.9-5.9-7.1-2.8"/>
		<path class="st3" d="M981.6,208.2c7.1-1.7,11-2.8,16.7-2.3c3.9,0.4,11.7,6.7,16.3,18.2s4.4,22.5,2.9,36.4c-1.7,16-20,16.9-38,14.1
			c-10.1-1.6-6.7-11.6-3.3-26.7c3.4-15.1,2.1-33.3,2.1-33.3S977.7,209.1,981.6,208.2z"/>
		<path class="st7" d="M1069.5,298.6c0,0-2.9-4.7-2.1-6.7s6.6-1.7,5.1,0.6c-1.5,2.3,1.1,5.5,1.1,5.5s3.6-0.8,3.6-0.5
			c-0.3,1.6-6.2,9.3-6.2,9.3s-4.8-7.5-4.3-7.5S1069.5,298.6,1069.5,298.6z"/>
		<path class="st5" d="M1024.3,176.6c0,0,3.8-5.2,5-9.6c1.3-4.4,0-7.9,0-7.9l-6.2-9.1l-6.7-5.2l-19.8,0.1l-5.2,6.7l15.2,7.4
			c7.2,3.1,4.5,6.7,1.6,14.3c-3.1,8.1-0.5,11.7,1.8,8.3C1017.4,170.7,1024.3,176.6,1024.3,176.6z"/>
		<path class="st5" d="M1026.5,158.6c1.1-3.5,5.3-8.5,4-12.5c-4.5-13.6-34.7-21.5-42.6-21.1c-7.9,0.4-19.8-10.6-21.3-3
			c-1.6,7.6,3.7,14.4,7.1,16.2c5.2,2.7,6.7,7.4,12,9.8"/>
		<path class="st5" d="M1089.3,297.8c-2.6-0.9-18.9,1.9-11.9,7.6c15.4,12.3,28.6,12.1,46.3,18"/>
		<path class="st8" d="M966.5,181.6c0,0,0.4,6.5,3.6,7.2c1.5,0.3,4.7-2.2,6.6-4.3"/>
		<path class="st8" d="M969,172.8c0,0,3.9-3.5,7.1,2.6"/>
		<path class="st5" d="M1018,255.5c-17.6,2.7-37.8-1.3-43-2.4c-2.8,12-4.4,20.1,4.5,21.5c17.9,2.8,35.5,4.4,38-11.6
			C1017.8,260.5,1017.9,258,1018,255.5z"/>
		<path class="st12" d="M980.7,267.6c-5.8-3.9-11.8-20.6-23.4-17.5c-11.6,3.1-21.4,24.1-16.4,20"/>
		<path class="st5" d="M916.5,274c-1.3,3.6-1.4,5.6,4.7,6.8c0,0,16.9,5,19.4,3.3c2.3-1.7,7.5-16.5,7.5-16.5l-12.8-4l-3.5,7.2
			c-0.5,1-1.8,1.7-3.1,1.6C928.6,272.4,918,269.8,916.5,274z"/>
		<path class="st12" d="M1000.2,268.7c5.8,2.3-17.5-6.1-25.6,2.7c-8.1,8.8-7.1,19.2-7.1,19.2"/>
		<path class="st3" d="M952.1,305.6c0,0,11.2,6.9,6.1,28.1l8.5-7.2l7.2,7.5c0,0,7.7-21.4-2.7-29.5L952.1,305.6z"/>
		<path class="st5" d="M948.1,305.3c0.3,3.8,1.1,5.7,7.1,4.2c0,0,17.5-2.7,18.9-5.3c1.4-2.5-0.2-18.1-0.2-18.1l-13.3,1.8l-0.1,8
			c0,1.1-0.9,2.3-2.1,2.8C958.4,298.7,947.7,300.8,948.1,305.3z"/>
		<path class="st13" d="M78.6,345.3v0.5h-0.2C78.5,345.6,78.6,345.4,78.6,345.3z"/>
		<path class="st13" d="M213.2,343.7v0.7h0.3C213.5,344.2,213.4,344,213.2,343.7z"/>
		<path class="st6" d="M211.4,345.5c0,0-5.4,2.9-2.9,11.7l-4.1-3l-3.4,3.1c0,0-3.7-9,1.3-12.3L211.4,345.5z"/>
		<g>
			<path class="st13" d="M171.8,152.6l0.1-14.1l79.9-49.6c0,0,56.2,11.4,66.5,40.6c0,0,45.1-4.2,63.9,11.6l-2.4,11.8
				c0,0-69.7,28.4-71.7,29.8c-1.9,1.4-67.3-2.2-67.3-2.2L210.3,153L171.8,152.6z"/>
			<path class="st15" d="M248.2,102.7c0,0,27.7,5.7,39.4,11.6c13.9,7.1,18.6,16.4,24.3,23.2c2.1,2.5-0.6,3.2-0.6,3.2L227.5,193
				c0,0,1.6-16.3-16.5-23.8s-43.9-12.5-43.9-12.5l0.6-4.8L248.2,102.7z"/>
			<path class="st19" d="M232,193.9l84.2-50.9c0,0,0-2.5,1.4-3.2c4.4-2,27.2-2.5,38.1-0.3c11,2.1,26.5,14.6,26.5,14.6
				s-1.7,2.7-0.5,4.1l-90.1,43.3c0,0-3.9-8.7-17.8-11.1C264,188.7,252.6,188,232,193.9z"/>
			<path class="st6" d="M311.4,140.3l5.5,2.3l-84,51.4l-5.7-0.8L311.4,140.3z"/>
			<path class="st6" d="M311.6,140.6v-3.1l5.8,2.3l-0.4,2.9L311.6,140.6z"/>
			<path class="st6" d="M227.9,192.6l-0.1-3.6l83.8-52.4l0.1,3.8L227.9,192.6z"/>
		</g>
		<path class="st20" d="M215.6,201.8c-30.8,15.4-100,47.5-57.7,100.1"/>
		<g>
			<path class="st13" d="M242.1,335.8v0.1c0-0.1-0.1-0.1-0.1-0.1H242.1z M236.8,336.1c2.1,0.9,3.5,2.9,3.6,6
				c0.2,5.1-0.5,6.9-3.5,8.3h-63.7v-1.7l3.5-0.5l-3.4-0.1v-4.4l4.9-0.2l-4.8-0.9l-0.2-6.4L236.8,336.1L236.8,336.1z M242.1,350.4
				v0.4h-0.3C241.9,350.7,242,350.6,242.1,350.4z"/>
			<path class="st19" d="M336.4,332.3c0,0,6.1,2.6,6.4,11s-6.4,10.1-6.4,10.1l-93.7,0.5H242h-68c-0.3,0-0.5-0.2-0.5-0.4v-2.9
				c0-0.2,0.2-0.4,0.5-0.4h63.4c2.8-1.4,3.4-3.2,3.2-8.3c-0.1-3.1-1.4-5.1-3.3-6h-63.4c-0.3,0-0.5-0.2-0.5-0.4v-2.9
				c0-0.2,0.2-0.4,0.5-0.4H242v-0.1L336.4,332.3z"/>
			<path class="st19" d="M336.4,332.3c0,0,3.6,1.6,5.4,6.2h-98.3c-0.4-1-0.8-1.9-1.4-2.6c-1.8-2.4-4.3-3.2-6-3.4l5.9-0.1
				L336.4,332.3z M237.3,336.1c0.5,0.3,0.9,0.6,1.4,1C238.2,336.7,237.8,336.3,237.3,336.1z M238.6,337.1c0.4,0.4,0.7,0.9,1,1.4
				C239.4,337.9,239,337.5,238.6,337.1z"/>
			<path class="st15" d="M235.6,332.5c1.8,0.2,4.5,1,6.3,3.4c1.5,1.9,2.5,4.7,2.3,9.1c0,0-0.8,9.1-9.9,8.9c-0.6,0-1.1,0-1.6,0.1
				h-62.4c-0.3,0-0.5-0.2-0.5-0.4v-2.9c0-0.2,0.2-0.4,0.5-0.4H237c2.9-1.4,3.6-3.2,3.4-8.3c-0.1-3.1-1.5-5.1-3.5-6h-66.7
				c-0.3,0-0.5-0.2-0.5-0.4v-2.9c0-0.2,0.2-0.4,0.5-0.4h65.4V332.5z"/>
			<path class="st13" d="M237.3,336.1c1.9,0.9,3.2,2.9,3.3,6c0.1,3.9-0.2,5.8-1.6,7.2c0.1-1,0.2-2.1,0.1-3.6c-0.1-3.1-1.4-5.1-3.3-6
				h-56.2v-3.5h57.7V336.1z"/>
			<path class="st13" d="M280.9,315.6v0.4h-0.2C280.8,315.9,280.8,315.7,280.9,315.6z"/>
			<path class="st13" d="M273.8,318v0.1C273.9,318.1,273.9,318,273.8,318L273.8,318z M278,318.2c-1.6,0.8-2.7,2.3-2.8,4.8
				c-0.2,4.1,0.4,5.5,2.8,6.6h49.8v-1.4l-2.8-0.4l2.7-0.1v-3.6l-3.8-0.1l3.7-0.8l0.1-5.2H278V318.2z M273.8,329.7v0.3h0.2
				C274,329.9,273.9,329.8,273.8,329.7z"/>
			<path class="st19" d="M200.2,315.1c0,0-4.8,2.1-5,8.9s5,8.2,5,8.2l73.2,0.4h0.6h53.1c0.2,0,0.4-0.1,0.4-0.3V330
				c0-0.2-0.2-0.3-0.4-0.3h-49.6c-2.2-1.1-2.7-2.6-2.5-6.6c0.1-2.5,1.1-4.1,2.6-4.8h49.6c0.2,0,0.4-0.1,0.4-0.3v-2.3
				c0-0.2-0.2-0.3-0.4-0.3H274l0,0L200.2,315.1z"/>
			<path class="st19" d="M200.2,315.1c0,0-2.8,1.3-4.2,5h76.9c0.3-0.8,0.7-1.5,1.1-2.1c1.4-1.9,3.4-2.6,4.7-2.7h-4.6L200.2,315.1z
				 M277.6,318.2c-0.4,0.2-0.7,0.5-1.1,0.8C276.9,318.7,277.2,318.4,277.6,318.2z M276.5,319c-0.3,0.3-0.6,0.7-0.8,1.1
				C276,319.7,276.2,319.3,276.5,319z"/>
			<path class="st15" d="M278.9,315.3c-1.4,0.2-3.5,0.8-5,2.7c-1.1,1.5-1.9,3.8-1.8,7.3c0,0,0.7,7.3,7.7,7.1c0.5,0,0.9,0,1.3,0.1
				h48.8c0.2,0,0.4-0.1,0.4-0.3v-2.3c0-0.2-0.2-0.3-0.4-0.3h-52.1c-2.3-1.1-2.8-2.6-2.6-6.6c0.1-2.5,1.2-4.1,2.7-4.8H330
				c0.2,0,0.4-0.1,0.4-0.3v-2.3c0-0.2-0.2-0.3-0.4-0.3L278.9,315.3L278.9,315.3z"/>
			<path class="st13" d="M277.6,318.2c-1.5,0.8-2.5,2.3-2.6,4.8c-0.1,3.1,0.2,4.7,1.3,5.8c-0.1-0.8-0.1-1.7-0.1-2.9
				c0.1-2.5,1.1-4.1,2.6-4.8h44v-2.9H277.6z"/>
			<path class="st6" d="M288.3,319.6c0,0,5,2.8,2.7,11.3l3.8-2.9l3.2,3c0,0,3.5-8.6-1.2-11.9L288.3,319.6z"/>
			<path class="st13" d="M255.8,293.9v0.2C255.8,294,255.8,293.9,255.8,293.9L255.8,293.9z M255.8,308.9v0.4h-0.2
				C255.7,309.2,255.7,309,255.8,308.9z"/>
			<path class="st19" d="M339.3,282.3c0,0,3.6,2.4,5.4,9.4h-98.3c-0.4-1.6-0.8-2.9-1.4-4c-1.8-3.7-4.3-4.9-6-5.2l5.9-0.1
				L339.3,282.3z M240.3,288.1c0.5,0.4,0.9,0.9,1.4,1.5C241.2,289,240.8,288.5,240.3,288.1z M241.6,289.6c0.4,0.6,0.7,1.3,1,2.2
				C242.4,290.9,242,290.2,241.6,289.6z"/>
			<path class="st13" d="M294.5,281.6v0.3c0-0.1-0.1-0.2-0.1-0.3H294.5z M294.5,308.2v0.7h-0.3C294.3,308.7,294.4,308.5,294.5,308.2
				z"/>
			<path class="st13" d="M245.1,287.7v0.2c0-0.1-0.1-0.1-0.1-0.2H245.1z M239.8,288.1c2.1,1.4,3.5,4.4,3.6,9.2
				c0.2,7.8-0.5,10.5-3.5,12.6h-63.7v-2.6l3.5-0.8l-3.4-0.1v-6.7l4.9-0.3l-4.8-1.4l-0.2-9.8h63.6V288.1z M245.1,310v0.6h-0.3
				C244.9,310.4,245,310.2,245.1,310z"/>
			<path class="st19" d="M339.3,282.3c0,0,6.1,3.9,6.4,16.8s-6.4,15.5-6.4,15.5l-93.7,0.7h-0.7h-68c-0.3,0-0.5-0.3-0.5-0.6v-4.4
				c0-0.3,0.2-0.5,0.5-0.5h63.4c2.8-2.1,3.4-4.8,3.2-12.6c-0.1-4.7-1.4-7.7-3.3-9.2h-63.4c-0.3,0-0.5-0.3-0.5-0.6V283
				c0-0.3,0.2-0.5,0.5-0.5h68.1v-0.1L339.3,282.3z"/>
			<path class="st15" d="M238.6,282.6c1.8,0.3,4.5,1.5,6.3,5.1c1.5,2.8,2.5,7.2,2.3,13.9c0,0-0.8,13.9-9.9,13.5
				c-0.6,0-1.1,0-1.6,0.2h-62.4c-0.3,0-0.5-0.3-0.5-0.6v-4.4c0-0.3,0.2-0.5,0.5-0.5H240c2.9-2.1,3.6-4.8,3.4-12.6
				c-0.1-4.7-1.5-7.7-3.5-9.2h-66.7c-0.3,0-0.5-0.3-0.5-0.6V283c0-0.3,0.2-0.5,0.5-0.5h65.4V282.6z"/>
			<path class="st13" d="M240.3,288.1c1.9,1.4,3.2,4.4,3.3,9.2c0.1,5.9-0.2,8.9-1.6,10.9c0.1-1.5,0.2-3.3,0.1-5.5
				c-0.1-4.7-1.4-7.7-3.3-9.2h-56.2v-5.4H240.3z"/>
			<path class="st6" d="M196.5,302.1c0,0-6.3,6-3.5,24.1l-4.8-6.2l-4.1,6.4c0,0-4.4-18.4,1.5-25.3L196.5,302.1z"/>
			<path class="st21" d="M179.3,298.6l49.4-0.5"/>
			<path class="st21" d="M176.6,291.8l33.2-0.7"/>
			<path class="st15" d="M256.6,295.1h8c2,0,3.6,1.6,3.6,3.6l0,0c0,2-1.6,3.6-3.6,3.6h-8c-2,0-3.6-1.6-3.6-3.6l0,0
				C253.1,296.7,254.7,295.1,256.6,295.1z"/>
			<path class="st15" d="M197,315.6h81.5v1.7H197V315.6z"/>
			<path class="st15" d="M237.7,332.7h92.6v1h-92.6L237.7,332.7L237.7,332.7z"/>
			<path class="st19" d="M143,304.9l-11,47.8l-71.2-1.3l10.5-43.9c0.5-1.9,2.5-3.4,4.5-3.4L143,304.9z"/>
			<path class="st15" d="M144.6,304.6c-0.3,0-0.7,0-1.1,0.1c-1.3,0.2-2.2,0.9-2.8,1.8c-0.3,0.4-0.4,0.8-0.6,1.2
				c-0.1,0.3-0.1,0.5-0.1,0.6v-0.1l-9.4,43.1c-0.1,0.7,0.3,1.3,1,1.4s1.3-0.3,1.5-0.9l9.4-43.1v-0.1c0,0,0-0.1,0-0.2
				c0.1-0.2,0.1-0.4,0.2-0.6c0.2-0.4,0.6-0.6,1.1-0.7c0.6-0.1,0.9,0,1.2,0.4c0.1,0.2,0.2,0.4,0.3,0.4c0,0.2,1,4.7,1.4,6.4
				c1.1,4.8,2.2,9.7,3.2,14.2c0.2,0.8,0.4,1.5,0.5,2.3c0.5,1.9,0.9,3.7,1.3,5.4c1.6,6.8,3.8,14.9,3.8,14.9s1,0.9,1.6,0.6
				s0.9-1,0.7-1.6c-0.7-1.6-2.7-10.3-5-19.9c-0.2-0.7-0.4-1.5-0.5-2.3c-1-4.5-2.1-9.3-3.2-14.2c-0.4-1.7-1.4-6.4-1.4-6.4v-0.1
				c0-0.1-0.1-0.3-0.2-0.4c-0.1-0.3-0.3-0.6-0.5-0.8C146.4,305.2,145.6,304.7,144.6,304.6z"/>
			<path class="st2" d="M143.9,307.1c-0.5,0.1-0.9,0.3-1.1,0.7c-0.1,0.2-0.2,0.4-0.2,0.6c0,0.1,0,0.2,0,0.2v0.1l-1.8,8.3l-7.5,34.6
				l3.2,0.2l7.3-42.6l8.4,42l4.4,0.5c-0.1-0.6-0.7-2.5-1.4-4.9c-1.6-5.7-4.1-14.3-4.5-16c-0.2-0.8-0.3-1.5-0.5-2.3
				c-1-4.5-2.1-9.4-3.2-14.2c-0.4-1.7-1.4-6.2-1.4-6.4c0-0.1-0.1-0.3-0.3-0.4C144.8,307.1,144.5,307,143.9,307.1z"/>
			<path class="st22" d="M143.6,309.2l-0.5,2.7l-6.7,36.9l-0.5,2.6l16.4,0.2l-2-14l-5.3-28.5c0,0-0.1-1-0.8-0.9
				C143.5,308.3,143.6,309.2,143.6,309.2z"/>
		</g>
	</g>
	<rect y="347.6" class="st23" width="1440" height="52.4"/>
	<g>
		<g>
			<path class="st24" d="M291.1,273.9c0,0.1,0.1,0.1,0.1,0.2v-0.2H291.1z M290.9,292.3h0.3v-0.5C291.1,292,291,292.2,290.9,292.3z"
				/>
			<path class="st24" d="M283.1,269.2c0.1,0.1,0.1,0.2,0.2,0.3v-0.3H283.1z M200.8,269.6l0.2,11.1l5.7,1.6l-5.8,0.3v7.6l4.1,0.1
				l-4.2,0.9v3H277c3.7-2.4,4.5-5.4,4.3-14.2c-0.2-5.3-1.9-8.7-4.3-10.3h-76.2V269.6z M282.9,294.9h0.4v-0.7
				C283.1,294.5,283,294.7,282.9,294.9z"/>
			<path class="st25" d="M283.1,263.3v0.1h-81.5c-0.3,0-0.5,0.3-0.5,0.6v4.9c0,0.3,0.2,0.6,0.5,0.6h75.9c2.2,1.6,3.8,5,3.9,10.3
				c0.2,8.7-0.5,11.8-3.8,14.2h-75.9c-0.3,0-0.5,0.3-0.5,0.6v5c0,0.3,0.2,0.6,0.5,0.6h81.4h0.9l112.1-0.8c0,0,7.9-2.9,7.6-17.4
				s-7.7-19-7.7-19L283.1,263.3z"/>
			<path class="st26" d="M197.2,263.4c-0.3,0-0.6,0.3-0.6,0.6v4.9c0,0.3,0.3,0.6,0.6,0.6h79.9c2.3,1.6,4,5,4.1,10.3
				c0.2,8.7-0.5,11.8-4,14.2h-79.8c-0.3,0-0.6,0.3-0.6,0.6v5c0,0.3,0.3,0.6,0.6,0.6H272c0.6-0.2,1.3-0.2,2-0.2
				c10.8,0.4,11.8-15.2,11.8-15.2c0.3-7.6-1-12.5-2.7-15.7c-2.3-4.1-5.5-5.4-7.6-5.8h-78.3V263.4z"/>
			<path class="st24" d="M208.4,269.6v6.1h67.3c2.2,1.6,3.8,5,3.9,10.3c0.1,2.5,0,4.5-0.1,6.2c1.7-2.3,2.1-5.6,1.9-12.3
				c-0.1-5.3-1.7-8.7-3.9-10.3L208.4,269.6L208.4,269.6z"/>
			<path class="st27" d="M207.8,284.3c-7,7.8-1.8,28.5-1.8,28.5l4.9-7.3l5.8,7c-3.4-20.4,4.2-27.1,4.2-27.1L207.8,284.3z"/>
			<path class="st28" d="M263.6,280.8l-59.1,0.6"/>
			<path class="st28" d="M241,273l-39.7,0.8"/>
			<path class="st29" d="M292.8,281.6L292.8,281.6c0,2.2,1.9,4,4.2,4h9.5c2.3,0,4.3-1.8,4.3-4l0,0c0-2.2-1.9-4-4.3-4H297
				C294.7,277.6,292.8,279.3,292.8,281.6z"/>
			<path class="st26" d="M283.1,263.3l-7.1,0.1c2,0.4,5.1,1.7,7.2,5.8c0.6,1.2,1.2,2.7,1.6,4.5h117.8c-2.1-7.9-6.5-10.6-6.5-10.6
				L283.1,263.3z M279.1,271.3c-0.5-0.7-1-1.3-1.6-1.7C278.1,270,278.6,270.6,279.1,271.3z M280.3,273.7c-0.3-0.9-0.8-1.7-1.2-2.4
				C279.6,272,280,272.8,280.3,273.7z"/>
		</g>
		<path class="st30" d="M386.2,257.5c0,0-6,4.9-11.9,5.6c-6.8,0.8-14.7,0-14.7,0l-25.4-131.2c0,0,5.7-4,12.3-4.7
			c7.7-0.8,14.3,0.1,14.3,0.1L386.2,257.5z"/>
		<path class="st27" d="M312.4,263.1h47.2l-25.4-131.2l-35.6,22L312.4,263.1z"/>
		<path class="st31" d="M325.1,263.1l-27.6-0.3l0.8-174.1l6.8,0.1l-0.3,5l14.3-5.1l6.1,0.8L325.1,263.1z"/>
		<path class="st32" d="M249.3,262.9l48.2-0.1l0.8-174.1l-45.8,25.9L249.3,262.9z"/>
		<path class="st33" d="M304,261.6h14.9L317.1,94l-11.9-0.9L304,261.6z"/>
		<g>
			<path class="st34" d="M220.3,240.3c0.4,0,0.8-0.3,0.8-0.7s-0.3-0.8-0.7-0.8c-25.2-1.5-39.8-17.8-40.2-44.6
				c-0.4-30.6,25.8-39.3,41.3-39.6c0.4,0,0.8-0.4,0.8-0.8c0-0.4-0.4-0.8-0.8-0.8c-16.1,0.4-43.2,9.4-42.9,41.2
				c0.2,12.6,3.6,23.4,9.9,31.2C195.7,234.4,206.4,239.4,220.3,240.3L220.3,240.3z"/>
			<path class="st35" d="M226.7,165.7h-7.6v-12.8h7.6V165.7z"/>
			<path class="st35" d="M224.5,248.2h-5.9v-18.9h5.9V248.2z"/>
			<path class="st36" d="M223.3,235.1c-20.3,0-36.7-16.5-36.7-36.8s16.4-36.8,36.7-36.8S260,178,260,198.3S243.6,235.1,223.3,235.1z
				"/>
			<path class="st25" d="M236.9,264h-27.4l7-22l9.5-0.5L236.9,264z"/>
		</g>
		<g>
			<path class="st24" d="M267.9,330.1c0,0.1,0.1,0.1,0.1,0.2v-0.2H267.9z M207.2,330.5l0.2,9.7l4.2,1.4l-4.3,0.3v6.7l3,0.1l-3.1,0.7
				v2.6h56.2c2.7-2.1,3.3-4.8,3.1-12.4c-0.1-4.7-1.4-7.6-3.2-9h-56.1V330.5z M267.7,352.6h0.3V352
				C267.9,352.2,267.8,352.4,267.7,352.6z"/>
			<path class="st37" d="M267.8,325L267.8,325l-60.1,0.1c-0.2,0-0.4,0.2-0.4,0.5v4.3c0,0.3,0.2,0.6,0.4,0.6h56
				c1.7,1.4,2.8,4.4,2.9,9c0.2,7.6-0.4,10.3-2.8,12.4h-55.9c-0.2,0-0.4,0.2-0.4,0.5v4.3c0,0.3,0.2,0.6,0.4,0.6h60h0.7l82.7-0.7
				c0,0,5.9-2.5,5.6-15.2c-0.2-12.7-5.6-16.6-5.6-16.6L267.8,325z"/>
			<path class="st38" d="M267.8,325l-5.2,0.1c1.5,0.3,3.7,1.5,5.3,5.1c0.5,1.1,0.9,2.4,1.2,3.9h86.8c-1.6-6.9-4.8-9.3-4.8-9.3
				L267.8,325z M264.9,332c-0.4-0.6-0.8-1.1-1.2-1.5C264.2,330.8,264.6,331.3,264.9,332z M265.8,334.1c-0.3-0.8-0.6-1.5-0.9-2.1
				C265.3,332.6,265.6,333.3,265.8,334.1z"/>
			<path class="st38" d="M204.5,325.1c-0.2,0-0.4,0.2-0.4,0.5v4.3c0,0.3,0.2,0.6,0.4,0.6h58.9c1.7,1.4,2.9,4.4,3,9
				c0.2,7.6-0.4,10.3-3,12.4h-58.9c-0.2,0-0.4,0.2-0.4,0.5v4.3c0,0.3,0.2,0.6,0.4,0.6h55.1c0.5-0.1,0.9-0.2,1.4-0.2
				c8,0.4,8.7-13.3,8.7-13.3c0.2-6.6-0.7-10.9-2-13.7c-1.7-3.6-4-4.7-5.6-5.1h-57.6V325.1z"/>
			<path class="st24" d="M212.8,330.5v5.3h49.6c1.7,1.4,2.8,4.4,2.9,9c0,2.2,0,3.9-0.1,5.4c1.2-2,1.5-4.9,1.4-10.8
				c-0.1-4.7-1.2-7.6-2.9-9h-50.9V330.5z"/>
		</g>
		<path class="st24" d="M320.7,300.3h0.3v-0.5C320.9,300,320.8,300.2,320.7,300.3z"/>
		<path class="st24" d="M312.6,303.4c0,0.1-0.1,0.1-0.1,0.2v-0.2H312.6z M376.8,303.7l-0.2,7.5l-4.5,1.1l4.6,0.2v5.1l-3.2,0.1
			l3.3,0.6v2h-59.4c-2.9-1.6-3.5-3.7-3.3-9.6c0.1-3.6,1.5-5.9,3.4-7L376.8,303.7L376.8,303.7z M312.8,320.7h-0.3v-0.5
			C312.6,320.4,312.7,320.6,312.8,320.7z"/>
		<path class="st27" d="M312.6,299.4L312.6,299.4l63.6,0.1c0.2,0,0.4,0.2,0.4,0.4v3.3c0,0.2-0.2,0.4-0.4,0.4H317
			c-1.7,1.1-3,3.4-3.1,7c-0.2,5.9,0.4,7.9,3,9.6h59.2c0.2,0,0.4,0.2,0.4,0.4v3.3c0,0.2-0.2,0.4-0.4,0.4h-63.5h-0.7l-87.5-0.6
			c0,0-6.2-1.9-6-11.7c0.3-9.8,6-12.8,6-12.8L312.6,299.4z"/>
		<path class="st39" d="M312.6,299.4l5.5,0.1c-1.6,0.2-3.9,0.9-5.6,3.3c-0.5,0.7-0.9,1.5-1.3,2.5h-91.8c1.7-4.4,5-6,5-6L312.6,299.4
			z M315.7,303.9c0.4-0.4,0.8-0.7,1.3-0.9C316.5,303.2,316.1,303.5,315.7,303.9z M314.8,305.2c0.3-0.5,0.6-1,1-1.4
			C315.4,304.3,315,304.7,314.8,305.2z"/>
		<path class="st39" d="M379.6,299.5c0.3,0,0.5,0.2,0.5,0.4v3.3c0,0.2-0.2,0.4-0.5,0.4h-62.3c-1.8,1.1-3.1,3.4-3.2,7
			c-0.2,5.9,0.4,7.9,3.1,9.6h62.3c0.3,0,0.4,0.2,0.4,0.4v3.3c0,0.2-0.2,0.4-0.4,0.4h-58.3c-0.5-0.1-1-0.2-1.5-0.1
			c-8.4,0.3-9.2-10.3-9.2-10.3c-0.2-5.1,0.7-8.4,2.1-10.6c1.8-2.8,4.3-3.6,5.9-3.9h61.1V299.5z"/>
		<path class="st24" d="M370.9,303.7v4.1h-52.5c-1.7,1.1-3,3.4-3.1,7c-0.1,1.7,0,3,0.1,4.2c-1.3-1.5-1.6-3.8-1.5-8.3
			c0.1-3.6,1.3-5.9,3.1-7L370.9,303.7L370.9,303.7z"/>
		<path class="st40" d="M342.5,312c5.6,4.7,1.4,17.1,1.4,17.1l-3.9-4.4l-4.6,4.2c2.7-12.3-3.3-16.3-3.3-16.3L342.5,312z"/>
	</g>
	<g>
		<path class="st24" d="M90.2,132.4l15.4,13.8c0,0,32.8,1.9,33.8,1.1c1-0.7,36-15,36-15l1.2-5.9c-9.5-7.9-32.1-5.8-32.1-5.8
			c-5.2-14.7-33.4-20.4-33.4-20.4L71,125.1v7.1L90.2,132.4z"/>
		<path class="st30" d="M68.8,132l-0.3,2.4c0,0,12.9,2.5,22,6.3s8.3,11.9,8.3,11.9l42.1-26.3c0,0,1.4-0.4,0.3-1.6
			c-2.9-3.4-5.2-8.1-12.2-11.6c-5.8-3-19.8-5.9-19.8-5.9L68.8,132z"/>
		<path class="st30" d="M122.1,151.2c7,1.2,9,5.6,9,5.6l45.3-21.8c-0.6-0.7,0.3-2,0.3-2s-7.8-6.2-13.3-7.3
			c-5.5-1.1-16.9-0.9-19.2,0.2c-0.7,0.3-0.7,1.6-0.7,1.6L101.1,153C111.5,150,117.2,150.4,122.1,151.2z"/>
		<path class="st27" d="M98.7,152.6l2.8,0.4l42.3-25.8l-2.8-1.1L98.7,152.6z"/>
		<path class="st27" d="M141.5,126.2l-0.1-1.9l-42.1,26.3v1.8L141.5,126.2z"/>
	</g>
	<path class="st41" d="M118.4,263.6c-2.5-1.7-4.9-3.5-7.1-5.2c-0.4-0.3-0.5-1-0.2-1.4s1-0.5,1.4-0.2c2.2,1.7,4.6,3.5,7.1,5.2
		c0.5,0.3,0.6,0.9,0.2,1.4c-0.2,0.3-0.5,0.4-0.8,0.4C118.8,263.8,118.6,263.7,118.4,263.6z M103.4,252.1c-2.6-2.2-5.1-4.5-7.4-6.8
		c-0.4-0.4-0.4-1,0-1.4s1-0.4,1.4,0c2.3,2.2,4.7,4.5,7.3,6.7c0.4,0.4,0.5,1,0.1,1.4c-0.2,0.2-0.5,0.3-0.8,0.3
		C103.9,252.3,103.6,252.2,103.4,252.1z M89.2,237.9c-2.3-2.7-4.3-5.4-6.1-8c-0.3-0.5-0.2-1.1,0.3-1.4c0.5-0.3,1.1-0.2,1.4,0.3
		c1.8,2.6,3.8,5.3,6,7.9c0.4,0.4,0.3,1.1-0.1,1.4c-0.2,0.2-0.4,0.2-0.6,0.2C89.6,238.2,89.4,238.1,89.2,237.9z M78,221
		c-1.5-3.2-2.7-6.4-3.5-9.5c-0.1-0.5,0.2-1.1,0.7-1.2c0.5-0.1,1.1,0.2,1.2,0.7c0.8,3,1.9,6.1,3.4,9.2c0.2,0.5,0,1.1-0.5,1.3
		c-0.1,0.1-0.3,0.1-0.4,0.1C78.5,221.6,78.2,221.4,78,221z M73.1,201.4v-0.3c0-3.4,0.4-6.7,1.3-9.9c0.1-0.5,0.7-0.8,1.2-0.7
		s0.8,0.7,0.7,1.2c-0.8,3-1.3,6.2-1.3,9.4v0.2c0,0.6-0.4,1-1,1l0,0C73.6,202.4,73.1,201.9,73.1,201.4z M78.8,183.2
		c-0.5-0.3-0.6-0.9-0.4-1.4c1.7-2.8,3.7-5.6,6.1-8.1c0.4-0.4,1-0.4,1.4,0s0.4,1,0,1.4c-2.3,2.5-4.3,5.1-5.9,7.8
		c-0.2,0.3-0.5,0.5-0.9,0.5C79.2,183.3,79,183.3,78.8,183.2z M92,168.3c-0.3-0.4-0.2-1.1,0.2-1.4c2.6-1.9,5.5-3.8,8.5-5.5
		c0.5-0.3,1.1-0.1,1.4,0.4s0.1,1.1-0.4,1.4c-3,1.6-5.8,3.4-8.3,5.3c-0.2,0.1-0.4,0.2-0.6,0.2C92.5,168.7,92.2,168.6,92,168.3z"/>
	<g>
		<path class="st26" d="M49.7,291.5c-2.6,0-5.2,1.9-5.9,4.4l-13.7,56.9l92.3,1.6l14.3-62L49.7,291.5z"/>
		<path class="st42" d="M142,293.8c0.3,0.3,0.5,0.7,0.7,1.1c0.1,0.2,0.2,0.4,0.2,0.6v0.1c0,0,1.3,6.2,1.8,8.3
			c1.4,6.3,2.8,12.5,4.1,18.4c0.2,1,0.5,2,0.7,3c2.9,12.5,5.5,23.6,6.4,25.8c0.3,0.8,0,1.7-0.8,2.1c-0.8,0.3-2.1-0.8-2.1-0.8
			s-2.9-10.5-5-19.3c-0.5-2.1-1.1-4.5-1.7-7c-0.2-1-0.4-2-0.7-3c-1.3-5.9-2.8-12.1-4.1-18.4c-0.5-2.2-1.7-8-1.8-8.2
			c0-0.1-0.1-0.3-0.3-0.6c-0.3-0.4-0.8-0.6-1.6-0.5c-0.7,0.1-1.1,0.4-1.5,0.9c-0.1,0.2-0.2,0.5-0.3,0.7c0,0.1-0.1,0.2-0.1,0.3
			c0,0.1,0,0.1,0,0.2l-12.2,55.9c-0.2,0.8-1,1.4-1.9,1.2c-0.9-0.2-1.4-1-1.2-1.8l12.1-55.9v0.2c0-0.2,0.1-0.5,0.2-0.8
			c0.2-0.5,0.4-1.1,0.7-1.6c0.8-1.2,2-2,3.6-2.3c0.5-0.1,0.9-0.1,1.4-0.1C140.1,292.2,141.2,292.8,142,293.8z"/>
		<path class="st43" d="M139.5,295.8c0.2,0.2,0.3,0.5,0.3,0.6c0,0.2,1.3,6.1,1.8,8.2c1.4,6.3,2.8,12.5,4.1,18.4c0.2,1,0.5,2,0.7,3
			c0.5,2.2,3.8,13.4,5.9,20.7c0.9,3.2,1.6,5.6,1.8,6.4l-5.7-0.6L137.5,298l-9.4,55.2L124,353l9.7-44.8l2.3-10.8c0-0.1,0-0.1,0-0.2
			c0,0,0-0.1,0.1-0.3c0.1-0.3,0.2-0.5,0.3-0.7c0.3-0.5,0.8-0.8,1.5-0.9C138.7,295.1,139.1,295.3,139.5,295.8z"/>
		<path class="st23" d="M138.3,296.8c0.9-0.1,1.1,1.2,1.1,1.2l6.8,37l2.6,18.2l-21.3-0.2l0.6-3.4l8.7-47.9l0.6-3.5
			C137.5,298,137.4,296.9,138.3,296.8z"/>
	</g>
	<g>
		<g>
			<path class="st24" d="M1120.8,281.2v0.2C1120.8,281.3,1120.9,281.3,1120.8,281.2L1120.8,281.2z M1120.8,299.8v0.5h0.3
				C1121,300.2,1120.9,300,1120.8,299.8z"/>
			<path class="st24" d="M1129,276.3v0.3c0.1-0.1,0.1-0.2,0.2-0.3H1129z M1135.6,276.7c-2.6,1.7-4.3,5.2-4.5,10.7
				c-0.2,9.1,0.6,12.2,4.4,14.7h79.2V299l-4.4-0.9l4.2-0.1v-7.9l-6.1-0.3l5.9-1.7l0.2-11.5L1135.6,276.7L1135.6,276.7z M1129,302.3
				v0.7h0.4C1129.3,302.8,1129.2,302.6,1129,302.3z"/>
			<path class="st25" d="M1011.8,270c0,0-7.6,4.6-8,19.7c-0.3,15.1,7.9,18.1,7.9,18.1l116.6,0.9h0.9h84.6c0.3,0,0.6-0.3,0.6-0.7
				v-5.1c0-0.4-0.2-0.6-0.6-0.6h-78.9c-3.5-2.5-4.2-5.7-4-14.7c0.1-5.6,1.8-9,4.1-10.7h78.9c0.3,0,0.6-0.3,0.6-0.7v-5.1
				c0-0.4-0.3-0.6-0.6-0.6h-84.7v-0.1L1011.8,270z"/>
			<path class="st26" d="M1137.1,270.3c-2.2,0.4-5.5,1.7-7.9,6c-1.8,3.3-3.1,8.5-2.8,16.3c0,0,1,16.3,12.3,15.8c0.7,0,1.4,0.1,2,0.2
				h77.7c0.3,0,0.6-0.3,0.6-0.7v-5.1c0-0.4-0.3-0.6-0.6-0.6h-83c-3.6-2.5-4.4-5.7-4.2-14.7c0.1-5.6,1.8-9,4.3-10.7h83
				c0.3,0,0.6-0.3,0.6-0.7V271c0-0.4-0.3-0.6-0.6-0.6L1137.1,270.3L1137.1,270.3z"/>
			<path class="st24" d="M1135,276.7c-2.3,1.7-4,5.2-4.1,10.7c-0.2,6.9,0.2,10.4,2,12.8c-0.1-1.8-0.2-3.8-0.1-6.5
				c0.1-5.6,1.8-9,4.1-10.7h70v-6.3H1135z"/>
			<path class="st27" d="M1193.9,293.1c0,0,7.9,7,4.3,28.2l6-7.3l5.1,7.5c0,0,5.4-21.5-1.9-29.6L1193.9,293.1z"/>
			<path class="st44" d="M1210.9,289l-61.4-0.6"/>
			<path class="st44" d="M1214.3,281.1l-41.3-0.8"/>
			<path class="st29" d="M1114.7,285h-9.9c-2.4,0-4.4,1.9-4.4,4.2l0,0c0,2.3,2,4.2,4.4,4.2h9.9c2.4,0,4.4-1.9,4.4-4.2l0,0
				C1119.1,286.8,1117.1,285,1114.7,285z"/>
			<path class="st26" d="M1011.8,270c0,0-4.5,2.8-6.7,11.1h122.4c0.5-1.9,1-3.4,1.7-4.7c2.2-4.3,5.4-5.7,7.5-6.1l-7.4-0.1
				L1011.8,270z M1135,276.7c-0.6,0.5-1.2,1-1.7,1.8C1133.8,277.8,1134.4,277.2,1135,276.7z M1133.3,278.5c-0.5,0.7-0.9,1.6-1.3,2.5
				C1132.4,280,1132.9,279.2,1133.3,278.5z"/>
		</g>
		<path class="st30" d="M1048.5,128.8c0,0,6.8-1,14.8-0.1c6.9,0.8,12.8,4.9,12.8,4.9L1049.7,270c0,0-8.2,0.9-15.3,0
			c-6.2-0.8-12.4-5.9-12.4-5.9L1048.5,128.8z"/>
		<path class="st27" d="M1113.1,156.5l-37-22.9L1049.7,270h49.1L1113.1,156.5z"/>
		<path class="st31" d="M1085.6,89.6l6.3-0.8l14.9,5.3l-0.3-5.2l7-0.1l0.8,180.9l-28.7,0.3L1085.6,89.6z"/>
		<path class="st32" d="M1161,115.7l-47.6-26.9l0.8,180.9l50.1,0.1L1161,115.7z"/>
		<path class="st33" d="M1106.3,93.3l-12.4,0.9l-1.8,174.2h15.4L1106.3,93.3z"/>
		<g>
			<path class="st34" d="M1194.5,246.2c-0.4,0-0.8-0.3-0.8-0.8s0.3-0.9,0.8-0.9c26.2-1.6,41.4-18.5,41.8-46.3
				c0.4-31.8-26.8-40.8-42.9-41.2c-0.5,0-0.8-0.4-0.8-0.8c0-0.5,0.4-0.8,0.8-0.8c16.7,0.4,44.9,9.8,44.5,42.9
				c-0.2,13.1-3.7,24.3-10.3,32.5C1220.1,240.2,1208.9,245.4,1194.5,246.2L1194.5,246.2z"/>
			<path class="st35" d="M1187.8,155.4h7.9v13.3h-7.9V155.4z"/>
			<path class="st35" d="M1190.1,234.7h6.2v19.7h-6.2V234.7z"/>
			<path class="st36" d="M1153.2,202.7c0-21.1,17.1-38.2,38.1-38.2s38.1,17.1,38.1,38.2s-17.1,38.2-38.1,38.2
				S1153.2,223.8,1153.2,202.7z"/>
			<path class="st25" d="M1188.6,247.6l9.8,0.5l7.3,22.8h-28.5L1188.6,247.6z"/>
		</g>
		<g>
			<path class="st24" d="M1144.9,339.6v0.2C1144.9,339.7,1145,339.6,1144.9,339.6L1144.9,339.6z M1149.8,340
				c-1.9,1.5-3.2,4.5-3.3,9.4c-0.2,7.9,0.4,10.7,3.3,12.9h58.4v-2.7l-3.3-0.8l3.1-0.1v-6.9l-4.5-0.3l4.4-1.5l0.2-10.1h-58.3V340z
				 M1144.9,362.4v0.6h0.3C1145.1,362.8,1145,362.6,1144.9,362.4z"/>
			<path class="st37" d="M1058.5,334.1c0,0-5.6,4-5.9,17.2c-0.2,13.2,5.8,15.8,5.8,15.8l85.9,0.7h0.7h62.4c0.2,0,0.4-0.3,0.4-0.6
				v-4.5c0-0.3-0.2-0.6-0.4-0.6h-58.1c-2.5-2.2-3.1-5-2.9-12.9c0.1-4.9,1.3-7.9,3-9.4h58.2c0.2,0,0.4-0.3,0.4-0.6v-4.5
				c0-0.3-0.2-0.6-0.4-0.6h-62.4V334L1058.5,334.1z"/>
			<path class="st38" d="M1058.5,334.1c0,0-3.3,2.5-5,9.7h90.2c0.3-1.6,0.8-3,1.3-4.1c1.6-3.8,3.9-5,5.5-5.3l-5.4-0.1L1058.5,334.1z
				 M1149.3,340c-0.5,0.4-0.9,0.9-1.2,1.5C1148.5,340.9,1148.9,340.4,1149.3,340z M1148.1,341.5c-0.4,0.6-0.7,1.4-0.9,2.2
				C1147.4,342.9,1147.7,342.1,1148.1,341.5z"/>
			<path class="st38" d="M1150.9,334.3c-1.7,0.3-4.1,1.5-5.8,5.3c-1.3,2.9-2.3,7.4-2.1,14.3c0,0,0.8,14.2,9.1,13.8
				c0.5,0,1,0,1.5,0.2h57.2c0.2,0,0.4-0.3,0.4-0.6v-4.5c0-0.3-0.2-0.6-0.4-0.6h-61.2c-2.7-2.2-3.3-5-3.1-12.9
				c0.1-4.9,1.4-7.9,3.2-9.4h61.2c0.3,0,0.4-0.3,0.4-0.6v-4.5c0-0.3-0.2-0.6-0.4-0.6h-60V334.3z"/>
			<path class="st24" d="M1149.3,340c-1.7,1.5-2.9,4.5-3,9.4c-0.1,6.1,0.2,9.1,1.5,11.2c-0.1-1.6-0.2-3.3-0.1-5.7
				c0.1-4.9,1.3-7.9,3-9.4h51.6V340H1149.3z"/>
		</g>
		<path class="st24" d="M1089.9,308.2v0.5h0.3C1090,308.5,1090,308.3,1089.9,308.2z"/>
		<path class="st24" d="M1098.7,311.9v0.2C1098.7,312,1098.6,312,1098.7,311.9L1098.7,311.9z M1093.5,312.1c2,1.1,3.4,3.5,3.5,7.2
			c0.2,6.1-0.5,8.3-3.4,9.9h-61.8v-2.1l3.4-0.6l-3.3-0.1v-5.3l4.8-0.2l-4.7-1.1l-0.2-7.8h61.7V312.1z M1098.7,329.4v0.5h-0.3
			C1098.5,329.7,1098.6,329.6,1098.7,329.4z"/>
		<path class="st27" d="M1190.1,307.6c0,0,5.9,3.1,6.2,13.3c0.2,10.2-6.2,12.2-6.2,12.2l-90.9,0.6h-0.7h-66c-0.3,0-0.4-0.2-0.4-0.4
			v-3.5c0-0.2,0.2-0.4,0.4-0.4h61.5c2.7-1.7,3.3-3.8,3.1-9.9c-0.1-3.7-1.4-6.1-3.2-7.2h-61.5c-0.2,0-0.4-0.2-0.4-0.4v-3.5
			c0-0.2,0.2-0.4,0.4-0.4h66.1v-0.1L1190.1,307.6z"/>
		<path class="st39" d="M1190.1,307.6c0,0,3.5,1.6,5.2,6.2h-95.5c-0.4-1-0.8-1.9-1.3-2.6c-1.7-2.4-4.2-3.2-5.8-3.4l5.7-0.1
			L1190.1,307.6z M1094,311.4c0.5,0.3,0.9,0.6,1.3,1C1094.9,311.9,1094.5,311.6,1094,311.4z M1095.3,312.3c0.4,0.4,0.7,0.9,1,1.4
			C1096,313.2,1095.7,312.7,1095.3,312.3z"/>
		<path class="st39" d="M1092.4,307.8c1.7,0.3,4.3,1.2,6.2,4.1c1.4,2.2,2.4,5.7,2.2,11c0,0-0.8,11-9.6,10.7c-0.6,0-1.1,0-1.6,0.1
			H1029c-0.3,0-0.5-0.2-0.5-0.4v-3.5c0-0.2,0.2-0.4,0.5-0.4h64.7c2.8-1.7,3.5-3.8,3.3-9.9c-0.1-3.7-1.4-6.1-3.4-7.2h-64.7
			c-0.3,0-0.5-0.2-0.5-0.4v-3.5c0-0.2,0.2-0.4,0.5-0.4h63.5V307.8z"/>
		<path class="st24" d="M1094,312.1c1.8,1.1,3.1,3.5,3.2,7.2c0.1,4.7-0.2,7-1.6,8.6c0.1-1.2,0.2-2.6,0.1-4.4
			c-0.1-3.7-1.4-6.1-3.2-7.2H1038V312L1094,312.1L1094,312.1z"/>
		<path class="st40" d="M1078.1,321.4c0,0-6.2,4.2-3.4,16.9l-4.8-4.4l-4,4.5c0,0-4.3-12.9,1.5-17.8L1078.1,321.4z"/>
	</g>
	<path class="st32" d="M1005.8,150.8c0,0,12,1.5,12-3.5c0.1-5-9.3-6.9-9.3-6.9s-14-1.3-16-1.1s-9.3,1.5-11.9,3.9
		c-2.6,2.4-0.9,8.2-0.9,8.2s-2.5,11-0.4,12.9C983,167.4,1005.8,150.8,1005.8,150.8z"/>
	<path class="st45" d="M901.8,148.7c-1.9,0.1-3.8,0.9-5.2,2.5c-2.8,3.1-2.5,7.8,0.5,10.6c8.3,7.5,14.2,13.6,19.4,19.8
		c0.9,1,4.5,5.5,3.9,4.7c0.5,0.6,0.8,1,1.1,1.3c1.8,2.2,3.1,3.6,4.5,4.8c3.5,3.1,7.3,4.5,12.6,4.8c0.6,0,1.3,0,1.9,0
		c10.7-0.2,21.1-6.6,31.3-16.8c3.4-3.4,6.5-7.1,9.4-10.7c1-1.3,1.9-2.5,2.7-3.5c0.5-0.7,0.8-1.1,1-1.4c2.3-3.4,1.4-8.1-2.1-10.4
		c-3.4-2.3-8.1-1.4-10.4,2.1c-0.1,0.2-0.3,0.5-0.7,1c-0.7,0.9-1.4,2-2.3,3.1c-2.5,3.2-5.2,6.4-8.2,9.3c-7.7,7.7-15.1,12.2-21,12.3
		c-0.3,0-0.6,0-0.8,0c-2.1-0.1-2.7-0.3-3.5-1c-0.6-0.6-1.4-1.5-2.8-3.1c-0.5-0.5-4.2-5.1-5.1-6.2c-5.6-6.6-12-13.3-20.8-21.2
		C905.7,149.2,903.7,148.6,901.8,148.7z"/>
	<path class="st46" d="M970.5,249.3l-52,10.6l37.1,52.9"/>
	<g>
		<path class="st47" d="M941.1,306.4c0,0,5.6,3.5,8.7,2.4c2.2-0.7,4.5-1.5,5.4-4.3c0.5-1.4,0.4-5.5,1-6.9c0,0,4,0.3,8.5,1.5
			s7.8,6.1,7.8,6.1s-4.2,12.6-10.3,23.9c-2.7,4.9-4,8-7.9,14s-7.2,9-7.8,10.2c-2,3.8-9.3-5.6-10.5-11.8c-0.7-3.7,8.7-21.9,8-21.7
			c-0.7,0.2-6.8-7.7-6.8-7.7L941.1,306.4z"/>
		<path class="st47" d="M946.2,354.4c0,0,3.8-4,8.2-10.5c2.7-3.9,5.6-8.8,7.5-12c1.2-2,1.9-3.3,1.9-3.3l9.6-23.2l3.5,1.6l-9.4,22.9
			c0,0-4.8,9.6-9.2,16.1s-8.5,9.9-8.5,9.9L946.2,354.4z"/>
		<path class="st32" d="M958.5,330.7l-9.4-10.7l4.4-4l8.4,7.7l1.5-2.5l-7.4-8.7l3.2-4l7.9,7.4L958.5,330.7z"/>
	</g>
	<path class="st46" d="M995.4,259c0,0-7.7,50.5-50.6,100.9"/>
	<path class="st48" d="M955.8,237c0,0-3.5,20.6,16.6,25.3c0,0,10.7,5.7,21,5.4c8.4-0.3,15-1.9,16.5-17.1c0,0-4.6-1.5-9.6-1.2
		c-4.9,0.3-13.4-1.3-20.9-2.8c-3.2-0.7-6.1-1.5-8.8-2.5c-3.8-1.3-8.2-0.1-10.7-1.4C956.5,241,955.8,237,955.8,237z"/>
	<path class="st49" d="M958.1,238.8c-1.7-2.4-2.6-1.6-1-9.6s5.5-9.5,8.7-24.7c3-13.9,3.9-28.6,5.6-39.9c3.6-23.5,43.4-29.4,52.1,0.7
		c10.4,36-7.3,69.1-12.8,79.4c-5.5,10.3-18.6,7.3-33.5,3.6C967.8,246.1,961,243.1,958.1,238.8z"/>
	<path class="st48" d="M1022.2,74.7l-1,9l4.4,4.9l-1.5,9.1l3.2,2.4c0,0,0.7-4.4,4.3-5.8l5.4-0.5c0,0,4.6-14.4,3.8-17.2
		c-1.9-6.4-7.9-9.8-7.9-9.8L1022.2,74.7z"/>
	<path class="st48" d="M984,65.7l-1.5,10.5c0,0-2.1,14.6-2.3,15.8c-0.2,1.3-4.6,11-4.6,11l-2.5,2l0.1,0.4c-4.7,3.6-3.2-6.9-3.6-13.1
		c-0.2-3.2-0.4-2.8-1.5-9.4c-0.9-5.9-5.9-8.6-5.5-11.5l0.3,1v-1.1l12.1-6.8L984,65.7z"/>
	<path class="st45" d="M999.9,55.9c-14.2,0.2-26.4,9.7-28.6,23.2l-0.6,3.7l-1.4,8.5c-2.4,14.6-9.7,37.7,17.4,44.9
		c1.6,0.4,3.2,0.8,5,1c25.8,4.1,35.7-20.1,38.2-35.5l1.3-8.4c-3.5,1.5-3.9,6.7-3.9,6.7l-3.2-2.4l1.5-9.1l-4.4-4.9l1-9l5.6-4.1
		c-4.6-7.2-12.3-12.6-21.7-14.2C1004,56,1001.9,55.8,999.9,55.9z"/>
	<path class="st45" d="M1043,105.5c0.6-6.3-1.2-8.7-3.8-10.7c-3.4-2.5-5.2-3-8.5-1.3c-2.6,1.3-2.6,3.4-4,5.5
		c-2.3,3.4-5.6,1.3-6.4,6.1c-0.9,5.6-5.6,9.9,0.3,11.8c0.8,0.3,4.2,1.8,5.3,2C1035.4,119.7,1042.4,111.4,1043,105.5z"/>
	<path class="st48" d="M1035.7,69.1c-3-2.7-0.6-1.8,0-6.6s-5.5-10.8-10.3-14.2c-4.8-3.4-14.6-5-22.9-6.4c-3.2-0.5-7.8-1.4-12.2-3.2
		c-5-2-9.8-4.5-13.3-0.5c-6.8,7.7-2.4,12.6-3.3,14.3c-0.9,1.7-8.5-1.1-11.5,2s-3.2,4.8-3.4,10.5s4.7,20.6,13.1,10.1
		c12.4-15.4,39.8-11.3,52.2,2"/>
	<path class="st48" d="M1003.2,98c0.2-1.4-0.4-2.8-1.3-2.9c-1-0.2-1.9,0.9-2.2,2.3c-0.2,1.4,0.4,2.8,1.3,2.9
		C1002,100.5,1003,99.5,1003.2,98z"/>
	<path class="st50" d="M992.2,106.3c0,0-9.1-3.7-9.8,2.2"/>
	<g>
		<path class="st51" d="M977.4,119.7c1.1-3.3,8.5,0.1,12.8,0.2c7,0.2,17.7-5.8,18.7,0.3c0.9,5.7-10.6,11.6-18.4,10.8
			C982.7,130.1,975.5,125.1,977.4,119.7z"/>
		<path class="st52" d="M997.7,124.1c4.9-0.5,8.8-0.3,10.1-0.2c-2.9,4.2-11.2,7.7-17.3,7.1c-1.8-0.2-3.6-0.6-5.2-1.2
			C986.9,126.2,992.3,124.6,997.7,124.1z"/>
	</g>
	<path class="st48" d="M978.6,95.8c0.2-1.4-0.4-2.8-1.3-2.9c-1-0.2-2,0.9-2.2,2.3s0.4,2.8,1.3,2.9C977.3,98.3,978.3,97.3,978.6,95.8
		z"/>
	<path class="st53" d="M998.6,82c2.8-2.3,6.7-2.6,9.6-0.5c0.4,0.3,0.8,0.7,1.2,1.1"/>
	<path class="st48" d="M1021.9,74.7c0,0.1-0.1,0.1-0.1,0.2"/>
	<path class="st48" d="M1021.1,86.8L1021.1,86.8"/>
	
		<linearGradient id="SVGID_2_" gradientUnits="userSpaceOnUse" x1="986.9484" y1="135.5171" x2="981.6284" y2="154.2991" gradientTransform="matrix(0.9997 -2.304120e-02 2.304120e-02 0.9997 40.176 -29.2132)">
		<stop  offset="0" style="stop-color:#000000"/>
		<stop  offset="1" style="stop-color:#FFCBB8"/>
	</linearGradient>
	<path class="st54" d="M1022.2,74.7l-1,9l4.4,4.9l-1.5,9.1l3.2,2.4c0,0-0.6-3.8,4-6.8c3.2-2.1,5.8,0.4,5.8,0.4s4.6-14.4,3.8-17.2
		c-1.9-6.4-7.9-9.8-7.9-9.8L1022.2,74.7z"/>
	
		<linearGradient id="SVGID_3_" gradientUnits="userSpaceOnUse" x1="986.9484" y1="135.5171" x2="981.6284" y2="154.2991" gradientTransform="matrix(0.9997 -2.304120e-02 2.304120e-02 0.9997 40.176 -29.2132)">
		<stop  offset="0" style="stop-color:#000000"/>
		<stop  offset="1" style="stop-color:#FFCBB8"/>
	</linearGradient>
	<path class="st55" d="M1022.2,74.7l-1,9l4.4,4.9l-1.5,9.1l3.2,2.4c0,0-0.6-3.8,4-6.8c3.2-2.1,5.8,0.4,5.8,0.4s4.6-14.4,3.8-17.2
		c-1.9-6.4-7.9-9.8-7.9-9.8L1022.2,74.7z"/>
	<path class="st53" d="M982.2,84.2c-2.4-1.5-5.4-3.7-9.8,2.4"/>
	<path class="st45" d="M984,148.1c0,0,5.4,5.7,12.2,5.8c6.8,0.2,14.9-5.2,14.9-5.2s-5.8-3-9-3.3c-0.8-0.1-1.1-2.6-1.1-4
		s0.8-4.9,0.8-4.9s-6.2-2.5-7.4-0.4c-0.7,1.3-1,2.5-1.3,4.4s0.3,4.2,0,4.4C991.5,145.8,989,145.6,984,148.1z"/>
	<g>
		<path class="st47" d="M956.1,378.1c0,0-4.4,0.4-10.7,0.5l3.7-10.2l-5.6-1.5l-5.7,11.6l-3.3-0.4l4.2-12.2l-6.2-2.7l-6.8,14.6
			l2.2,0.2c-4.4-0.3-7.7-0.4-13.8-1.5c-7.1-1.2-11.2-3-12.4-3.1c-4.3-0.3,1.4-10.8,6.7-14.3c3.1-2.1,23.6-0.8,23.1-1.4
			s4.3-9.3,4.3-9.3l6.8,1.3c0,0-1,6.5,1.3,9c1.6,1.8,3.2,3.5,6.1,3.2c1.5-0.1,5.2-1.9,6.7-1.9c0,0,1.3,3.8,2,8.4
			C959.3,373,956.1,378.1,956.1,378.1z"/>
		<path class="st47" d="M900.5,373.7c0,0,5.2,1.9,12.9,3.3c4.7,0.9,10.3,1.6,14,2c2.3,0.3,3.8,0.4,3.8,0.4l25.1-0.5l-0.1,3.8
			l-24.7,0.6c0,0-10.7-0.5-18.5-2c-7.7-1.5-12.5-3.8-12.5-3.8V373.7z"/>
		<path class="st32" d="M949.1,368.4l-3.7,10.2c-4.5,0.1-10,0-15.4-0.4c-0.8-0.1-1.5-0.1-2.2-0.2l-2.2-0.2l6.8-14.6l6.2,2.7
			l-4.2,12.2l3.3,0.4l5.7-11.6L949.1,368.4z"/>
	</g>
	<path class="st52" d="M973.9,154.3c-0.4,0.6-0.8,1.2-1.2,1.9"/>
	<path class="st32" d="M987.4,145.6c-8.8,2.6-18.3,11.4-19.8,20.8c-1.7,11.3-0.7,14.9-3.7,28.9c-2.3,10.5-4.6,30.7-7.6,34.8
		s-8.8,8.9-8.8,10.3c-0.1,2.3,15,13.2,18.7,11.9s5.2-14.5,7-22.6c2.2-10.2,3.3-22.1,4.4-27.3c1.9-9.5,1.2-20.1,3.5-32.6
		c1-5.6,2.8-17.5,11.2-24.9C992.3,144.9,987.3,145.7,987.4,145.6z"/>
	<path class="st32" d="M1011,143.2c-1.7-0.6-6.9-3.7-6.8,0c0,1.3,3.5,2.4,2.1,6.3c-1.3,3.9-6.3,12.4-8.9,22.6
		c-6.9,26.6-2.6,20.8-13.2,55.4c-5.5,18-7.3,27-8.1,29.2c10.4,2.3,28.2,5.7,31.8,4.4c3.6-1.3,4.7-9.8,5.4-12.6
		c2.9-12.3,15.8-35.3,13.8-79C1026.8,160.2,1022.1,146.8,1011,143.2z"/>
	<path class="st32" d="M912.3,180.5c-0.5-2.4,6.6-3.4,8.7-6.3c2.1-3,3.1-8.3,5.6-8.2c4.5,0.3,9.1,8.7,11.8,11.1
		c2.7,2.4-0.4,7.7-4.3,11.7c-4,4.1-11.1,4.3-11.1,4.3S913.3,185.4,912.3,180.5z"/>
	<path class="st32" d="M923.7,191.6c0,0,4,7.7,11.9,8.8c11.1,1.6,23.8-0.3,32.7-14.3l4.5-30.3c0,0-9.8,13.5-15.3,17.3
		c-2.7,1.9-2.9,0.7-4.9,2c-1.9,1.3-0.7,2.4-2.1,3.4c-1.3,0.9-1.1-0.9-2.8,0.2c-1.7,1.1-1.8,2.3-2.9,2.7c-1.1,0.4-0.7-1.9-2.4-1.8
		c-1.7,0.1-4.3,2.1-4.3,2.1"/>
	<path class="st56" d="M1008.1,152.9c-3.5,0-0.3,10.7-0.2,12.2c0.4,4.9-3.9,9.8-7.8,12.2"/>
	<path class="st56" d="M980.1,153.9c1-1.6-2.9,6.9-3.3,8.3c-1.8,5.9-2.4,13.4-1.1,19.4"/>
	<path class="st45" d="M1042,207.7c-0.4,0.5-0.8,0.9-1.3,1.4c-5.7,5.4-18.9,11.2-22.8,13c-3.8,1.8-4.9,1.7-6.1,2
		c-2.2,0.6-2.8-2.5-5.2-3.1s-8,8.4-7.2,12.5s8,9.5,10.3,9s1.8-3.6,3.8-4.1c1.1-0.3,3.2-0.8,4.2-1.1c12.8-3.5,22.9-8.7,30.6-15.2
		C1047.6,214.3,1044.9,209.9,1042,207.7z"/>
	<path class="st32" d="M1014.5,149.2c-1.9,0.3-3.7,1.4-4.8,3.1c-2.4,3.4-1.5,8.1,1.9,10.4c0,0,1.1,0.8,1.6,1.1
		c1.3,1,2.7,2.1,4.3,3.3c4.5,3.5,9,7.4,13.2,11.5c7,6.8,12.2,11.1,15.1,16.9c0.4,0.8,1.9,2.6,1.8,4.4c-0.1,0.7-0.1,2.6-0.8,3.1
		c-1.1,0.8-2-0.7-3.3,0.3s-0.5,2.7-1.8,3.8c-0.7,0.6-2.8,0-3.6,0.5c-1.5,0.9-1.1,2.2-2,3.2c-0.6,0.7-6.9,2.9-4.8,4.9
		c1.6,1.6,5.2,3,7.1,6.1c1.1,1.8,3.1,4.4,1.6,6.6c-2.3,3.5,11.5-5.6,15-9.1c2.8-2.8,10.8-10.9,11.5-18.3c0.2-1.8-3.9-10.5-5-12.1
		c-5.3-7.7-10.6-14.4-18.7-22.3c-4.6-4.4-9.1-8.5-14-12.3c-1.7-1.3-8.6-5.3-9-5.6C1018,147.6,1016.4,148.9,1014.5,149.2z"/>
	<path class="st32" d="M1025.2,217.8c-0.3-1.4,5.4-5.3,8.6-5.5c3.3-0.2,11.9,12.4,8.9,17c-3,4.5-5.5,4.6-8.5,3.4
		c-3-1.2-1.1-3.9-3.4-8.2C1029.4,221.6,1025.6,219.9,1025.2,217.8z"/>
	<path class="st32" d="M1006.4,220c-4,11.7-2.9,13.7,4.2,23.6l-6.9,1l-9.2-4.8l-0.7-12.2c0,0-1.3-7.8,2.3-10
		C1003.5,213.3,1008.9,213,1006.4,220z"/>
	<path class="st53" d="M1011.5,85.6c0.4,0.9,0.7,2,0.9,3.2"/>
	<path class="st45" d="M897.5,160.7c4.2-2.2,7.7-6,9.9-10.3s0.2-4.3-1.1-6.9c-3.9-7.8-12.6-23-20-22.6c-4.5,0.3-5.3,3.7-2.9,5.3
		c3.3,2.3,6.7,2.4,7.6,5.7c0.9,3.3-1.7,3-4.5,5.6s-2.8,2.3-6.8,6.2c-4.1,3.9,0.4,9.9,4.3,12c4,2.1,4.7-5.6,5.3-2.2
		C889.9,157,893.2,162.9,897.5,160.7z"/>
	<path class="st35" d="M615.2,366.7l30-79.3c0,0,74.7-31,108.6,5l-1.6,80.2l-77.2-5.4l-47.9,5.4L615.2,366.7z"/>
	<path class="st35" d="M891.6,365.4l-33.7-78c0,0-72.6-30.5-106.5,5.5l-0.5,79.7l77.2-5.4l47.9,5.4L891.6,365.4z"/>
	<path class="st26" d="M697.5,357.3c5.5,0.2,10.7,0.7,15.8,1.4C708.2,358.1,703,357.6,697.5,357.3z M723.8,360.4
		c0.7,0.2,1.5,0.3,2.2,0.5C725.3,360.7,724.6,360.6,723.8,360.4z M734.1,363c1.2,0.4,2.4,0.7,3.5,1.1
		C736.5,363.8,735.3,363.4,734.1,363z M823.9,367c-4.3,0-8.6,0-12.7,0.2c-17.9,0.7-32.9,3.6-43.9,8.8l-8.3,3.9l-0.1-0.2
		c-5.8,5.2-10.9,1.3-12.2,0.1l-0.3,0.5l-8.2-3.9c-11-5.2-26-8-43.9-8.8c-16.7-0.7-34.7,0.4-52.5,2.8c-5,0.7-9.6,1.4-13.6,2.1
		c-1.4,0.2-4.8,0.9-5,0.9l-5.6-7.3l-5.5,9.5l3,8.8l12.9-3.7c0.2,0,3.4-0.7,4.8-0.9c3.9-0.7,8.4-1.4,13.2-2.1
		c17.2-2.4,34.6-3.5,50.7-2.8c17.3,0.7,31.8,3.6,42.4,8.8l8,3.9l0.3-0.5c1.2,1.1,6.2,5,11.8-0.1l0.1,0.2l8-3.9
		c10.6-5.2,25.1-8.1,42.4-8.8c16.1-0.7,33.5,0.4,50.7,2.8c4.8,0.7,9.2,1.4,13.2,2.1c1.4,0.2,4.6,0.9,4.8,0.9l11.5,2.4l2.3-8
		l-3.5-7.1l-6.4,5.3c-0.2,0-3.6-0.7-5-0.9c-4.1-0.7-8.7-1.4-13.6-2.1C850.3,368.3,836.9,367.2,823.9,367z"/>
	<path class="st57" d="M822.1,356.7c-4.5,0-8.9,0-13.2,0.2c-19.5,0.8-36.3,4.2-49.4,10.6l-6.7,3.3l-5.9-2.8
		c-4.9-2.4-10.4-4.4-16.3-5.9c-9.8-2.6-20.9-4.1-33.2-4.6c-4.3-0.2-8.7-0.2-13.2-0.2c-13.3,0.1-27.1,1.3-40.7,3.2
		c-5.1,0.7-9.7,1.4-13.9,2.2c-1.5,0.3-2.8,0.5-3.9,0.7c-0.7,0.1-10.1,2.1-10.1,2.1l2,9.3l5.6-1.1c0.2,0,3.6-0.7,5-0.9
		c4.1-0.7,8.7-1.4,13.6-2.1c17.8-2.4,35.8-3.5,52.5-2.8c17.9,0.7,32.9,3.6,43.9,8.8l8.2,3.9l0.3-0.5c1.3,1.1,6.4,5,12.2-0.1l0.1,0.2
		l8.3-3.9c11-5.2,26-8.1,43.9-8.8c16.7-0.7,34.7,0.4,52.5,2.8c5,0.7,9.6,1.4,13.6,2.1c1.4,0.2,4.8,0.9,5,0.9l6.5,1.3l2.6-9.5
		c0,0-10.1-2-10.8-2.1c-1.1-0.2-2.4-0.5-3.9-0.7c-4.2-0.7-8.8-1.5-13.9-2.2C849.3,358,835.5,356.8,822.1,356.7z"/>
	<path class="st29" d="M669.3,362.1c0,0-8.2,12-6.1,22.6c0,0,5.1-8.1,6.5-7.6s5.2,6.9,5.2,6.9s1.3-4.9,10.9-20.3
		C686.9,362,669.3,362.1,669.3,362.1z"/>
	<g>
		<path class="st48" d="M533,60.5c15.3-13.3,6.7-45.6-19.4-44.2c-10,0.5-19.3,11.2-13.8,20.2c2.1,3.4,6.7,4.8,8.5,7.6
			c0.7,1-2.6-0.5-3.9-0.4c-2.6,0.1-5.4,0.7-7.8,1.9c-6.2,3-11.9,9.7-7.4,16.3c4.2,6.2,12.9,5.5,20.3,6.6
			C517,69.6,529.6,63.4,533,60.5z"/>
		<path class="st39" d="M487.6,151.8c0,0-3.3,6.1-2.2,11.7c1.1,5.5,6.5,10.5,6.5,10.5l7.3-8.4l-4-10L487.6,151.8z"/>
		<path class="st58" d="M551.6,350.2l12.2-21.1l10.5,4.1l-5.2,21.6l-12.1,6.9L551.6,350.2z"/>
		<path class="st45" d="M395.2,355.8l17.4-23l12.6,6.6l-18.5,23l-11.6-1.3L395.2,355.8z"/>
		<path class="st58" d="M626.6,146.1c-17.1-0.3-34.4,2.1-51.3,6.3c-5.5,1.4-10.5,2.9-14.9,4.3c-1.6,0.5-2.9,1-4.1,1.4
			c-0.7,0.3-1.3,0.5-1.6,0.6c-3.8,1.5-5.7,5.9-4.2,9.8c1.5,3.8,5.9,5.7,9.8,4.1c0.2-0.1,0.6-0.2,1.2-0.4c1-0.4,2.3-0.8,3.7-1.3
			c4.1-1.4,8.7-2.7,13.8-4c25-6.3,50.8-8,74.8-2.7c0.7,0.2,1.4,0.3,2.1,0.5c4,1,8.1-1.5,9.1-5.5s-1.5-8.1-5.5-9.1
			c-0.8-0.2-1.5-0.4-2.3-0.5C647,147.3,636.8,146.2,626.6,146.1z"/>
		<path class="st27" d="M533.2,163.8c0,0-12-11.4-9.9-14.7s11.3-1.7,15.6-0.9c4.3,0.9,16.1,1.8,14.8,7s-13.1,10.4-15.8,10.6
			C535.2,166,533.2,163.8,533.2,163.8z"/>
		<path class="st27" d="M524.4,150.2c-3.1,0-5.6,0.8-9.2,3c-7.1,4.3-9.2,12.8-12.7,21.6c-3.4,8.8-6.5,24.9-8.5,45.6
			c0.1-1.1,0.3-2,0.4-3l3.5,13.7c0,0,32.7,2.5,51.2-5.9c0.1-1.3,0.2-2.5,0.4-3.8c2.7-14.2,4.9-28.5,8.1-42.6
			c1.2-5.1,3.1-13.3-0.7-17.8c-4.9-5.8-7.3-6.8-19.5-8.9C531.2,151,527.5,150.2,524.4,150.2z M547.6,238.1c-0.1,0.4-0.1,0.8-0.3,1.2
			C547.4,238.9,547.5,238.5,547.6,238.1z"/>
		<path class="st45" d="M538.4,141.3c0,0-3.2,6-3.5,9.1c0,0-9-1.6-7.6,1.1c1.4,2.8,5.7,7.8,11.2,8.5s11.2-5.3,11.2-5.3l-5.6-2.7
			c0,0,1.7-5.7,4-8.5L538.4,141.3z"/>
		<path class="st59" d="M495.2,223.9c-3,1.9-12.4,12.8-8.6,18s23.2,9.8,30.8,10c7.6,0.2,18.6,0.1,23-7.4c3.7-6.3,3.3-13.2,3.9-19.7
			C525.8,233.3,498.2,222,495.2,223.9z"/>
		<path class="st59" d="M523.4,231.9c-5.5,0.1-9.9,4.7-9.8,10.2c0.1,5.5,4.9,9.2,10.5,9.1c0,0,11.7-0.2,14.4,0
			c7.3,0.6,11.4,2.8,18,4.5c11.2,2.9,16.8,9.9,21.2,15.4c5.2,6.4,3.4,17.5-15.5,49.4c-2.8,4.8-0.6,9.7,4.2,12.5
			c4.7,2.8,15,3.5,17.8-1.2c11-18.5,13-33.1,16.1-43.4c3.9-13,2.7-23.8-4.4-32.6c-7.6-9.5-19.6-15.6-34.5-19.5
			c-7.9-2-16.1-3.3-24.5-3.9c-5.4-0.4-9.9-0.6-13.2-0.5C523.6,231.9,523.5,231.9,523.4,231.9z"/>
		<path class="st59" d="M487,235.4c-5.6,4.9-18.1,17.8-19.9,19.9c-3.6,4-30.9,36.1-35.4,42c-2.2,2.9-13.2,16.6-14,17.6
			c2.3,2.6,2.8,9.1,5.9,11.8c3.3,2.8,7.8,4.5,10,6.1c1.1-1.3,34.2-42.8,34.8-43.6c6.7-8.9,37.1-35.9,46.2-38.6
			c5.3-1.6-15.7-5.4-19.8-9.1C492.8,239.6,490,232.7,487,235.4z"/>
		<path class="st27" d="M497.5,192.4c0,0-9.2,24.2-11.7,36.9c0,0,14.1,9.9,24.5,10.4c25.6,1.4,45.5-4.8,44.2-14.8
			c-1.4-10.1-1.3-23.1,0-30.3c1.3-7.3-53.8-14.1-53.8-14.1L497.5,192.4z"/>
		<path class="st39" d="M522.8,151.6l10.7,10.3l-13.5-8.3L522.8,151.6z"/>
		<path class="st27" d="M551.4,154.3c13.3-3.6,23.3-5.8,27.2-4.9c0,0,3.5,6,3.4,12.6s-4,15.3-4,15.3s-5.8-1.8-12.2,0.7
			s-9.5,6.8-9.5,6.8s-10.8-14.9-11-16.8C544.7,162.3,547.8,155.3,551.4,154.3z"/>
		<path class="st56" d="M533.8,164.2c11.2,1-9.1,24.4-5.2,29.2"/>
		<path class="st56" d="M542.9,164.1c6.5,0,1.5,13.6,2.6,17c1.6,5.3,7.1,1.4,8.2-1.9"/>
		<path class="st58" d="M658.3,168.5c4.6,1.9,27.6,10.7,32.8,4.6c4.6-5.5-1.9-11.3-9.3-15.3c-6.2-3.4-8.8-3.5-9.1-4.8
			c-0.4-1.6,5,0.3,7.1-2.8s-7.4-4.6-11.1-4.1c-3.7,0.5-7.2,1.6-10.4,3.3c-8.7,4.7-12.5,14.3,7.5,22.4"/>
		<path class="st45" d="M516.8,153c-16.3,0.8-23.1,1.4-30.5,2.6c-10.2,1.7-17.6,4.6-22.9,9.6c-13.1,12.2-18.1,24.6-17.3,52
			c0.1,4.1,3.6,7.4,7.7,7.3c4.1-0.1,7.4-3.5,7.3-7.7c-0.4-12.9,0.8-21.8,3.3-28.2c1.9-4.8,4.4-7.9,9.2-12.4c5.5-5.1,15.2-6.7,44-8.2
			c4.1-0.2-4-2-4.2-6.1C513.1,157.7,520.9,152.8,516.8,153z"/>
		<path class="st47" d="M410.3,374.5c0,0-5.1,0.9-11.9,1.6l3.5-10l-6-0.9l-5.6,11.6c-1.2,0.1-2.4,0.1-3.7,0.1l4.1-12.3l-6.6-2.1
			l-6.7,14.5c-2.3,0-4.9,0-8.3-0.2c-7-0.5-11-1.8-12.2-1.7c-4.2,0.1,1.1-9.8,6.1-13.5c3-2.2,23-2.7,22.5-3.2s3.4-9.1,7.8-9.5
			c4.5-0.4,2.3,3.1,2.3,3.1s-0.3,4.2,2,6.2c1.6,1.4,3.2,2.9,6.1,2.4c1.4-0.3,5-2.1,6.5-2.3c0,0,1.4,3.3,2.2,7.4
			C413.3,369.7,410.3,374.5,410.3,374.5z"/>
		<path class="st27" d="M401.9,366l-3.5,10c-2.5,0.3-5.2,0.5-8,0.6L396,365L401.9,366z"/>
		<path class="st27" d="M390.7,364.5l-4.1,12.3c-0.6,0-1.2,0-1.8,0c-2.8,0-5,0.1-7.4,0.1l6.7-14.5L390.7,364.5z"/>
		<path class="st60" d="M563.3,316.5c0,0,3.3,3.8,10.7,7.4c7.4,3.5,14.9,4.2,14.9,4.2s-2.9,10.1-7.2,14.8c-1.4,1.6-7,1.1-15.7-2.2
			c-8.7-3.3-12.9-9.5-12.9-9.5L563.3,316.5z"/>
		<path class="st47" d="M599.1,379.5c-1.2-0.3-5.4-0.1-12.3-1.3c-5.2-1-8.3-1.8-11.7-2.8c-1.1-0.3-2.2-0.6-3.5-0.9
			c-1.5-0.4-3-0.8-4.4-1.3c-1.1-0.3-2.2-0.7-3.2-1c-2.5-0.8-4.8-1.6-6.9-2.4c-5.7-2.1-9.6-3.9-9.6-3.9s-1.2-5.9,0-9.6s2.5-6,4.6-6.3
			s3.9,3.4,5.3,4c2.6,1.2,4.6,0.2,6.5-0.8c2.7-1.4-0.5-5.1,2-6.7c1.2-0.8,2.9,0.9,4.5,0.8c1.7-0.1,3.3-1.9,4.4-0.6
			c2.1,2.6,1.5,9.3,0.9,9.6c-0.6,0.3,18.7,5.9,21,8.7C600.5,369.8,603.2,380.7,599.1,379.5z"/>
		<path class="st47" d="M600.1,380.1c0,0-5.3,0-12.7-1.3c-4.6-0.7-9.9-1.9-13.4-2.7c-2.2-0.5-3.6-0.9-3.6-0.9l-23.1-8.6l-0.9,3.4
			l22.8,8.5c0,0,10.1,3,17.6,4.3c7.5,1.2,12.5,0.7,12.5,0.7L600.1,380.1z"/>
		<path class="st27" d="M562.9,360.3l1.1,11.9c-2.5-0.8-4.8-1.6-6.9-2.4l0.2-10.6L562.9,360.3z"/>
		<path class="st27" d="M575.1,375.4c-1.1-0.3-2.2-0.6-3.5-0.9c-1.5-0.4-3-0.8-4.4-1.3l0.4-11.7l6.5,0.3L575.1,375.4z"/>
		<path class="st61" d="M517.8,74.9l-1.9-8c0,0,11.2-6.8,16.9-6.5l3.1,8.1l-6.5,6L517.8,74.9z"/>
		<path class="st48" d="M574.4,80.7l-1.3,10.5c0,0-1.8,14.6-1.9,15.9c-0.1,1.3,1.6,11.8,1.6,11.8l1.9,2.6l-0.2,0.4
			c3.6,4.7,4.6-0.4,8-5.6c3.8-5.9,8.1-6.6,13.5-17.4c1.3-2.7-2.7-4.1-2.3-7.1l-0.6,0.9l0.3-1l-9.9-9.7L574.4,80.7z"/>
		<path class="st48" d="M527.8,71.8c-0.6-1.5-3.8-1.6-7.7-0.8c-3.8,0.7-7.5,3.2-9.8,8.1s-9.6,22.5-3.1,34.7c3.3,6.2,9.8,13.2,16.2,7
			C532.4,112.1,527.8,71.8,527.8,71.8z"/>
		<path class="st45" d="M555.6,65.9L555.6,65.9c16.9,1.6,29.3,15.5,27.6,31l-1.3,12.3c-1.5,14.7-0.5,38.9-28.6,38.8
			c-1.6,0-3.3-0.1-5.1-0.3l0,0c-25.9-2.8-29.2-28.7-27.6-44.3l1.3-12.3C523.7,75.6,538.7,64.3,555.6,65.9z"/>
		<path class="st45" d="M507.1,103.7c1.1-6.3,3.5-8.1,6.5-9.3c3.9-1.5,6.9-0.1,9.3,0.5c7.3,1.9,6.9,7.9,6.2,14.4
			c-0.6,5.6,2.8,11-3.4,11.3c-0.9,0-4.5,0.7-5.6,0.5C510.7,119.4,506.1,109.5,507.1,103.7z"/>
		<path class="st48" d="M526.3,69.6c9.5-7.7,10.9-7.7,17-10.5s14.5-4.5,23-3.7c20,2,37.2,17.8,36.6,33.9
			c-0.2,6.8-9.7,18.8-16.6,17.6c-2.4-0.4-0.6-11.8-0.7-12.8c-0.1-0.5-1.9-10.9-0.1-3.4c1.3,5.3,4.7,17.1-4.7,15.7
			c-7.2-1.1-30.8-22.9-32.4-30.3"/>
		<path class="st48" d="M513.7,94.2c2.7-1,7.1-0.8,10.6,2c2.5,1.9,2.7,4.9,3.1,3.9c2-4.5,7.6-14,8.9-15c5.2-4.2,11-7.2,17.7-7.9
			l-8.4-11.5c0,0-8.3-3.4-14.1,0.4c-4.6,3-7.4,4.9-7.4,4.9L519,85"/>
		<path class="st48" d="M514.9,115.7c0.1-1.3,1.3-2.2,2.6-2c1.3,0.1,2.3,1.3,2.1,2.6c-0.1,1.3-1.3,2.2-2.6,2S514.8,117,514.9,115.7z
			"/>
		<path class="st48" d="M550.4,105.7c0.2-1.5,1.1-2.6,2.1-2.5s1.7,1.4,1.5,2.8c-0.2,1.5-1.1,2.6-2.1,2.5S550.3,107.2,550.4,105.7z"
			/>
		<path class="st50" d="M555.9,117.8c0,0,9.7-1.2,8.9,4.7"/>
		<g>
			<path class="st51" d="M566.7,134.5c-0.2-3.4-8.2-2.1-12.4-3.2c-6.8-1.6-15.6-10.2-18.2-4.6c-2.4,5.2,7.2,13.9,14.9,15.2
				C558.8,143.3,567.1,140.3,566.7,134.5z"/>
			<path class="st52" d="M546,133.5c-4.6-1.8-8.4-2.6-9.7-2.8c1.7,4.9,8.8,10.4,14.8,11.3c1.8,0.3,3.6,0.3,5.4,0.2
				C555.8,138.3,551,135.4,546,133.5z"/>
		</g>
		<path class="st48" d="M549.4,94.4c-1.9,0.1-4,1-5.8,2.1c-1.6,1-3.1,2.2-2.9,2.3c0.3,0.1,1.2-0.7,3-1.7c2.4-1.3,5.3-2.2,7.4-1.8
			c1,0.2,1.9,0.5,2.7,1.1c0.2,0.2,0.6,0.2,0.8,0c0.2-0.1,0.2-0.4,0-0.6c-1-0.7-2.1-1.1-3.3-1.3C550.7,94.4,550,94.4,549.4,94.4z"/>
		<path class="st48" d="M574,97.4c1.9,0.5,3.7,1.8,5.2,3.3c1.3,1.3,2.6,2.8,2.3,2.9s-1-1-2.5-2.3c-2-1.8-4.7-3.3-6.9-3.4
			c-1-0.1-1.9,0.1-2.9,0.5c-0.3,0.1-0.6,0-0.8-0.1c-0.2-0.2-0.1-0.4,0.2-0.5c1.1-0.5,2.3-0.6,3.5-0.5
			C572.7,97.2,573.4,97.3,574,97.4z"/>
		<path class="st48" d="M575.1,109.7c0.2-1.5,1.1-2.6,2.1-2.5s1.7,1.4,1.5,2.8c-0.2,1.5-1.1,2.6-2.1,2.5
			C575.6,112.5,574.9,111.2,575.1,109.7z"/>
		<path class="st27" d="M487.4,151.8c0,0,10.2,7.9,4.6,21.8l29-2.6l-2.4-18.1C518.6,152.9,502.6,148.6,487.4,151.8z"/>
		<path class="st45" d="M441.4,217.2c-3.1,4.7-0.8,18.2,4.5,20.8c3.5,1.8,8.8-0.4,12.2-1.1c2.8-0.6,7.4-0.8,9.1-3.6
			c4.5-7.4-2.5-6.6-3.2-10.3c-0.3-1.7,2.6-0.5,3.4-1.2c3.4-3.4-1.2-9.1-4.2-10.6c-4.7-2.3-19.5,0.1-21.2,4.8L441.4,217.2z"/>
		<path class="st60" d="M405.1,327.1c4.5,10,13,15.9,25.1,15.5c0,0,7.3-9,8.5-13.2c1-3.5-6-3.9-10.4-6.3c-4.4-2.3-8.2-7.3-8.6-9.7
			C418.8,308.5,405.1,327.1,405.1,327.1z"/>
		<path class="st47" d="M355.4,378.8c0,0,4.8,1.8,12.4,2.4c7.7,0.7,18.3,0.2,18.3,0.2l24.4-2.7v-3.5l-24.7,2.7c0,0-1.5,0-3.8-0.1
			c-3.6-0.1-9.2-0.2-13.8-0.7c-7.6-0.7-12.8-1.9-12.8-1.9V378.8z"/>
	</g>
	<g>
		<path class="st24" d="M1380.8,132.3v-7.1l-40.1-24.9c0,0-28.2,5.7-33.4,20.4c0,0-22.7-2.1-32.1,5.8l1.2,5.9c0,0,35.1,14.3,36,15
			c1,0.7,33.8-1.1,33.8-1.1l15.4-13.8L1380.8,132.3z"/>
		<path class="st30" d="M1342.4,107.2c0,0-13.9,2.9-19.8,5.9c-7,3.6-9.3,8.3-12.2,11.6c-1.1,1.3,0.3,1.6,0.3,1.6l42.1,26.3
			c0,0-0.8-8.2,8.3-11.9s22-6.3,22-6.3l-0.3-2.4L1342.4,107.2z"/>
		<path class="st30" d="M1350.6,153l-42.3-25.6c0,0,0-1.3-0.7-1.6c-2.2-1-13.6-1.2-19.2-0.2c-5.5,1.1-13.3,7.3-13.3,7.3
			s0.8,1.3,0.3,2l45.3,21.8c0,0,2-4.4,9-5.6C1334.5,150.4,1340.2,150,1350.6,153z"/>
		<path class="st27" d="M1310.6,126.1l-2.8,1.1l42.3,25.8l2.8-0.4L1310.6,126.1z"/>
		<path class="st27" d="M1352.3,152.4v-1.8l-42.1-26.3l-0.1,1.9L1352.3,152.4z"/>
	</g>
	<path class="st41" d="M1332.7,263.8c-0.3,0-0.6-0.1-0.8-0.4c-0.3-0.5-0.2-1.1,0.2-1.4c2.4-1.7,4.8-3.4,7.1-5.2
		c0.4-0.3,1.1-0.2,1.4,0.2c0.3,0.4,0.3,1.1-0.2,1.4c-2.3,1.7-4.7,3.5-7.1,5.2C1333.1,263.7,1332.9,263.8,1332.7,263.8z
		 M1347.6,252.3c-0.3,0-0.6-0.1-0.8-0.3c-0.4-0.4-0.3-1.1,0.1-1.4c2.6-2.2,5-4.5,7.3-6.7c0.4-0.4,1-0.4,1.4,0s0.4,1,0,1.4
		c-2.3,2.3-4.8,4.6-7.4,6.8C1348.1,252.2,1347.8,252.3,1347.6,252.3z M1361.8,238.2c-0.2,0-0.5-0.1-0.6-0.2c-0.4-0.4-0.5-1-0.1-1.4
		c2.2-2.6,4.2-5.3,6-7.9c0.3-0.5,0.9-0.6,1.4-0.3s0.6,0.9,0.3,1.4c-1.8,2.7-3.8,5.4-6.1,8C1362.3,238.1,1362.1,238.2,1361.8,238.2z
		 M1372.8,221.6c-0.1,0-0.3,0-0.4-0.1c-0.5-0.2-0.7-0.8-0.5-1.3c1.5-3.1,2.6-6.2,3.4-9.2c0.1-0.5,0.7-0.9,1.2-0.7
		c0.5,0.1,0.9,0.7,0.7,1.2c-0.8,3.1-2,6.4-3.5,9.5C1373.5,221.4,1373.2,221.6,1372.8,221.6z M1377.6,202.4
		C1377.6,202.4,1377.5,202.4,1377.6,202.4c-0.6,0-1-0.5-1-1v-0.2c0-3.2-0.4-6.3-1.3-9.4c-0.1-0.5,0.2-1.1,0.7-1.2
		c0.5-0.2,1.1,0.2,1.2,0.7c0.9,3.2,1.3,6.5,1.3,9.9v0.3C1378.5,201.9,1378.1,202.4,1377.6,202.4z M1372.4,183.3
		c-0.3,0-0.7-0.2-0.9-0.5c-1.6-2.7-3.6-5.3-5.9-7.8c-0.4-0.4-0.4-1,0-1.4s1-0.4,1.4,0c2.4,2.6,4.5,5.3,6.1,8.1
		c0.3,0.5,0.1,1.1-0.4,1.4C1372.7,183.3,1372.5,183.3,1372.4,183.3z M1358.9,168.7c-0.2,0-0.4-0.1-0.6-0.2c-2.5-1.9-5.3-3.7-8.3-5.3
		c-0.5-0.3-0.7-0.9-0.4-1.4c0.3-0.5,0.9-0.7,1.4-0.4c3.1,1.7,5.9,3.5,8.5,5.5c0.4,0.3,0.5,1,0.2,1.4
		C1359.5,168.6,1359.2,168.7,1358.9,168.7z"/>
	<path class="st24" d="M1078.3,288.4v0.4c0.1-0.1,0.1-0.3,0.2-0.4H1078.3z M1078.3,326.5v1h0.5
		C1078.6,327.1,1078.4,326.8,1078.3,326.5z"/>
	<g>
		<path class="st26" d="M1314.9,292.4l14.3,62l92.3-1.6l-13.7-56.9c-0.6-2.4-3.3-4.4-5.9-4.4L1314.9,292.4z"/>
		<path class="st42" d="M1312.9,292.1c0.5,0,0.9,0,1.4,0.1c1.6,0.3,2.9,1.1,3.6,2.3c0.3,0.5,0.6,1.1,0.7,1.6
			c0.1,0.3,0.1,0.6,0.2,0.8v-0.2l12.1,55.9c0.2,0.8-0.4,1.7-1.2,1.8c-0.9,0.2-1.7-0.4-1.9-1.2l-12.2-55.9c0-0.1,0-0.1,0-0.2
			c0,0,0-0.1-0.1-0.3c-0.1-0.3-0.2-0.5-0.3-0.7c-0.3-0.5-0.8-0.8-1.5-0.9c-0.8-0.1-1.2,0.1-1.6,0.5c-0.2,0.2-0.3,0.5-0.3,0.6
			c0,0.2-1.3,6.1-1.8,8.2c-1.4,6.3-2.8,12.5-4.1,18.4c-0.2,1-0.5,2-0.7,3c-0.6,2.5-1.1,4.8-1.7,7c-2.1,8.8-5,19.3-5,19.3
			s-1.3,1.2-2.1,0.8c-0.8-0.3-1.2-1.3-0.8-2.1c0.9-2.1,3.5-13.3,6.4-25.8c0.2-1,0.5-2,0.7-3c1.3-5.8,2.7-12.1,4.1-18.4
			c0.5-2.2,1.8-8.3,1.8-8.3v-0.1c0-0.1,0.1-0.3,0.2-0.6c0.2-0.4,0.4-0.7,0.7-1.1C1310.5,292.8,1311.6,292.2,1312.9,292.1z"/>
		<path class="st43" d="M1313.8,295.3c0.7,0.1,1.1,0.4,1.5,0.9c0.1,0.2,0.2,0.5,0.3,0.7c0,0.1,0.1,0.2,0.1,0.3c0,0.1,0,0.1,0,0.2
			l2.3,10.8l9.7,44.8l-4.1,0.2l-9.4-55.2l-10.9,54.4l-5.7,0.6c0.2-0.8,0.9-3.3,1.8-6.4c2.1-7.4,5.4-18.5,5.9-20.7c0.2-1,0.4-2,0.7-3
			c1.3-5.9,2.8-12.1,4.1-18.4c0.5-2.2,1.7-8,1.8-8.2c0-0.1,0.1-0.3,0.3-0.6C1312.6,295.3,1313,295.1,1313.8,295.3z"/>
		<path class="st23" d="M1314.2,298l0.6,3.5l8.7,47.9l0.6,3.4l-21.3,0.2l2.6-18.2l6.8-37c0,0,0.2-1.2,1.1-1.2
			C1314.2,296.9,1314.2,298,1314.2,298z"/>
	</g>
	<g id="Layer_2">
		<path class="st35" d="M846.2,120l18.2,17.6l12.5-56L846.2,120z"/>
		<path class="st35" d="M822.8,111.8L877,81.5l-35.1,36.2L822.8,111.8z"/>
		<path class="st26" d="M843.9,136.3l-2.7-18.6l35.7-36.1l-30.6,38.6L843.9,136.3z"/>
		<path class="st42" d="M846.4,120.1l5.1,4.9l-7.5,10.9L846.4,120.1z"/>
		<path class="st62" d="M686.5,262c-0.1,0-0.1,0-0.2,0c-0.8-0.1-1.4-0.8-1.3-1.7c0.4-3.4,1-6.7,1.9-10c0.2-0.8,1-1.3,1.8-1.1
			s1.3,1,1.1,1.8c-0.8,3.1-1.4,6.3-1.8,9.6C687.9,261.4,687.2,262,686.5,262z M691.5,242.8c-0.2,0-0.4,0-0.6-0.1
			c-0.8-0.3-1.1-1.2-0.8-2c1.3-3.1,2.9-6.1,4.6-9.1c0.4-0.7,1.3-0.9,2.1-0.5c0.7,0.4,0.9,1.3,0.5,2.1c-1.7,2.8-3.2,5.8-4.5,8.7
			C692.7,242.4,692.1,242.8,691.5,242.8z M701.7,225.6c-0.3,0-0.6-0.1-0.9-0.3c-0.7-0.5-0.8-1.4-0.3-2.1c2-2.6,4.2-5.2,6.6-7.7
			c0.6-0.6,1.5-0.6,2.1-0.1c0.6,0.6,0.6,1.5,0.1,2.1c-2.3,2.5-4.5,5-6.4,7.5C702.6,225.4,702.2,225.6,701.7,225.6z M715.3,211
			c-0.4,0-0.8-0.2-1.1-0.5c-0.6-0.6-0.5-1.6,0.1-2.1c2.4-2.2,4.9-4.3,7.7-6.6c0.6-0.5,1.6-0.4,2.1,0.2c0.5,0.6,0.4,1.6-0.2,2.1
			c-2.7,2.2-5.2,4.3-7.5,6.5C716.1,210.9,715.7,211,715.3,211z M765.9,198.8c-1.9,0-3.9-0.1-5.7-0.3c-0.8-0.1-1.4-0.8-1.3-1.7
			c0.1-0.8,0.8-1.4,1.7-1.3c3.1,0.4,6.4,0.4,9.7,0.1c0.8-0.1,1.6,0.5,1.6,1.4c0.1,0.8-0.5,1.6-1.4,1.6
			C768.9,198.7,767.4,198.8,765.9,198.8z M730.9,198.4c-0.5,0-0.9-0.2-1.2-0.6c-0.5-0.7-0.4-1.6,0.3-2.1c2.4-1.8,5-3.6,8.1-5.9
			c0.7-0.5,1.6-0.3,2.1,0.4l0,0c0-0.3,0.1-0.5,0.3-0.7c0.5-0.7,1.4-0.9,2.1-0.4c2.6,1.7,5.5,3.2,8.6,4.3c0.8,0.3,1.2,1.1,0.9,1.9
			c-0.3,0.8-1.1,1.2-1.9,0.9c-3.3-1.2-6.4-2.7-9.3-4.6c-0.2-0.1-0.3-0.2-0.4-0.4c0,0.4-0.2,0.9-0.6,1.1c-3.2,2.2-5.7,4.1-8.1,5.8
			C731.5,198.3,731.2,198.4,730.9,198.4z M780.1,196.7c-0.7,0-1.3-0.4-1.4-1.1c-0.2-0.8,0.2-1.6,1-1.9c3-0.9,6.1-2,9.1-3.5
			c0.7-0.4,1.6,0,2,0.7s0,1.6-0.7,2c-3.1,1.5-6.4,2.7-9.6,3.6C780.4,196.7,780.3,196.7,780.1,196.7z M798.1,188.2
			c-0.5,0-1-0.2-1.2-0.7c-0.5-0.7-0.3-1.6,0.4-2.1c2.6-1.8,5.3-3.8,7.8-5.9c0.6-0.5,1.6-0.5,2.1,0.2c0.5,0.6,0.5,1.6-0.2,2.1
			c-2.6,2.3-5.4,4.3-8.1,6.2C798.7,188.2,798.4,188.2,798.1,188.2z M747.2,186.8c-0.5,0-0.9-0.2-1.2-0.6c-0.5-0.7-0.3-1.6,0.4-2.1
			c2.5-1.8,5.4-3.8,8.1-5.8c0.7-0.5,1.6-0.4,2.1,0.3s0.4,1.6-0.3,2.1c-2.7,2-5.6,4.1-8.2,5.9C747.8,186.7,747.5,186.8,747.2,186.8z
			 M734.3,185.1c-0.4,0-0.9-0.2-1.2-0.6c-2.4-2.9-4.1-6-5-9.2c-0.2-0.8,0.2-1.6,1-1.9c0.8-0.2,1.6,0.2,1.9,1
			c0.9,2.9,2.4,5.6,4.5,8.2c0.5,0.6,0.4,1.6-0.2,2.1C735,185,734.6,185.1,734.3,185.1z M813.3,175.3c-0.4,0-0.7-0.1-1-0.4
			c-0.6-0.6-0.6-1.5-0.1-2.1c2.2-2.3,4.4-4.8,6.4-7.5c0.5-0.6,1.5-0.8,2.1-0.2c0.7,0.5,0.8,1.5,0.2,2.1c-2.1,2.7-4.4,5.3-6.6,7.7
			C814.1,175.1,813.7,175.3,813.3,175.3z M763,174.5c-0.4,0-0.8-0.2-1.1-0.5c-0.6-0.6-0.5-1.5,0.1-2.1c2.9-2.7,4.7-5.1,5.7-7.4
			c0.3-0.8,1.2-1.1,2-0.8s1.1,1.2,0.8,2c-1.1,2.6-3.2,5.3-6.4,8.4C763.7,174.4,763.4,174.5,763,174.5z M729.5,166.5
			c-0.1,0-0.3,0-0.4-0.1c-0.8-0.2-1.2-1.1-1-1.9c1-3.1,2.8-6.3,5.2-9.2c0.5-0.6,1.5-0.7,2.1-0.2s0.7,1.5,0.2,2.1
			c-2.2,2.6-3.8,5.4-4.6,8.1C730.7,166.1,730.1,166.5,729.5,166.5z M825.7,159.6c-0.3,0-0.6-0.1-0.8-0.3c-0.7-0.5-0.9-1.4-0.4-2.1
			c1.8-2.6,3.6-5.5,5.3-8.4c0.4-0.7,1.3-0.9,2.1-0.5c0.7,0.4,1,1.3,0.5,2.1c-1.7,3-3.6,5.8-5.4,8.5
			C826.7,159.4,826.2,159.6,825.7,159.6z M768.3,157.1c-0.5,0-1-0.3-1.3-0.7c-0.4-0.6-0.9-1.3-1.5-2c-1.6-1.8-3.3-3.3-5.2-4.3
			c-0.7-0.4-1-1.3-0.6-2s1.3-1,2-0.6c2.2,1.2,4.2,2.9,6,4.9c0.7,0.8,1.3,1.6,1.8,2.4c0.4,0.7,0.2,1.6-0.5,2.1
			C768.8,157.1,768.6,157.1,768.3,157.1z M742,151.5c-0.5,0-1-0.3-1.3-0.7c-0.4-0.7-0.2-1.6,0.5-2.1c3.3-1.9,6.7-3,10-3.3
			c0.8-0.1,1.5,0.5,1.6,1.4c0.1,0.8-0.5,1.6-1.4,1.6c-2.9,0.2-5.9,1.2-8.8,2.9C742.5,151.4,742.3,151.5,742,151.5z M835.9,142.4
			c-0.2,0-0.5-0.1-0.7-0.2c-0.7-0.4-1-1.3-0.6-2l0.1-0.1c0.4-0.7,1.3-1,2-0.6s1,1.3,0.6,2l-0.1,0.1
			C837,142.1,836.4,142.4,835.9,142.4z"/>
	</g>
	<path class="st24" d="M373.2,288.4c0.1,0.1,0.1,0.3,0.2,0.4v-0.4H373.2z M373,327.5h0.5v-1C373.3,326.8,373.1,327.1,373,327.5z"/>
</g>
</svg>
