<svg enable-background="new 0 0 210 100" viewBox="0 0 210 100" xmlns="http://www.w3.org/2000/svg"><text transform="translate(79 45.0259)"><tspan fill="#2c474b" font-family="'Nunito-SemiBold'" font-size="18" x="0" y="0">Cuentacuentos</tspan><tspan fill="#2c474b" font-family="'Nunito-SemiBold'" font-size="18" x="0" y="21.6">INE</tspan></text><g><path d="m12.7 50.2c0-15.3 12.4-27.8 27.8-27.8s27.8 12.4 27.8 27.8-12.4 27.8-27.8 27.8-27.8-12.4-27.8-27.8z" fill="#6e79e0"/><g transform="translate(2.4 7.6)"><path d="m20.7 41.4s7.7 10.1 17.9 16.1c0 0 16.9-15.4 19.5-15.8 0 0-13.8-9-18.3-19-.2.1-11.9 7.9-19.1 18.7z" fill="#d3308f"/><g fill="#373435"><path d="m57.2 48.2h-8.1c-.3.3-.6.5-.9.8h9l1.7.9h-11.6c-.4.4-.8.7-1.2 1.1h18z"/><path d="m28.4 49.9h-10.4l1.7-.9h7.9c-.3-.3-.5-.5-.8-.8h-7.1l-6.9 2.8h16.8c-.4-.4-.8-.8-1.2-1.1z"/></g></g></g></svg>