<svg enable-background="new 0 0 290 140" viewBox="0 0 290 140" xmlns="http://www.w3.org/2000/svg"><g clip-rule="evenodd" fill-rule="evenodd"><path d="m0-2.3h290v142.3h-290z" fill="#e9f1f9"/><path d="m-11.3-39.5c-2.4-2.4-3.5-3.1-6.8-4.7" fill="#e1ebf6"/><path d="m50.1 120.2c0 6.8 42.1 12.3 94.1 12.3s94.1-5.5 94.1-12.3-42.1-12.3-94.1-12.3-94.1 5.5-94.1 12.3z" fill="#c5d7ed"/><path d="m64 118.4c0 4.5 36.3 8.2 81 8.2s81-3.7 81-8.2-36.3-8.2-81-8.2c-44.8 0-81 3.6-81 8.2z" fill="#e1ebf6"/><path d="m79.8 118.5c0 2.9 30.2 5.1 65.6 5.1s64-2.4 64-5.3-31.6-6.7-66.9-6.7c-35.4 0-62.7 4-62.7 6.9z" fill="#eff6fc"/><path d="m107.8 117.5c0-1.7 15.1-3 33.7-3s33.7 1.4 33.7 3c0 1.7-15.1 3-33.7 3s-33.7-1.4-33.7-3z" fill="#e1ebf6"/><path d="m166 26.2 20.3-5.5 9.7 29.6-20.3 4.1-10.8-26.9z" fill="#c5d7ed"/><path d="m165.7 26.5 20-4.9 9.8 29.4-.8 2.3z" fill="#e9f1f9"/><path d="m194.3 56 .7-1.9-10.7-30.3-19 3.1-1.5.8" fill="#97acc9"/><path d="m124.4 57.8c-1.6 16.7-10 36 6.8 40.7 3.6 1 8.9 3 17.8-1.9 8.9-4.8 5.5-16.7 4-23-1.4-6.3-4.3-11.4-7.3-15.6s-10.4-.4-14.9-.3c-1.6.1-6.3-.3-6.4.1z" fill="#c5d7ed"/><path d="m124.7 52.7v4.9s13.1 4.5 20.9.2v-4.1z" fill="#97acc9"/><path d="m135.5 23.4c1.8-.9 2-5 1.5-6.6-.1-.2 2.5-.3 3.2-.4 3.1-.3 6.6-3.8 9.8-2.8 5.4 1.7.8 9.5-3.3 9.8-2.7.2-4.2-2.5-6.4-2.7-.2 0-.3.6-.4.7-.4 1.8-1.5 4.1-3.6 4.1" fill="#97acc9"/><path d="m120.7 38.8c.1 5.1 1.3 13.6 6.1 16.7 8.8 5.7 27.7 1.9 30.6-9.4 1.4-5.6.6-13.4-6.2-15.2-1.2-.3-3.6.6-4.6.1-3.7-1.7-4.9-6.5-9.8-7.8-11.4-2.9-15.6 5.2-16 14.4 0 0-.1-.2-.1 1.2z" fill="#c5d7ed"/><path d="m125.1 29.1c-2.3 0-4.6-4-5-5.9 0-.2-2.7.9-3.4 1.3-3.3 1.3-8.7-.4-11.4 2.3-4.6 4.6 4.2 10.1 8.4 8.2 2.9-1.2 2.9-4.7 5.1-6.2.2-.2.6.4.7.5 1.4 1.6 3.6 3.4 5.8 2.3" fill="#c5d7ed"/><path d="m137.9 38.5c-.2-1 2.6-3.3 6.4-5.1s7.1-2.5 7.3-1.5-2.6 3.3-6.4 5.1-7.1 2.5-7.3 1.5z" fill="#97acc9"/><path d="m128.4 47.4s.8 4 3.5 6.8c2.6 2.6 6.9 4.1 11.1 3 0 0-19.5 4.2-14.6-9.8z" fill="#97acc9"/><path d="m129 33.8c-.4-.8-.3-1.6.3-1.9.5-.3 1.2.1 1.6.9s.3 1.6-.3 1.9c-.5.3-1.3-.1-1.6-.9z" fill="#97acc9"/><path d="m138.2 29.6c-.4-.8-.3-1.6.3-1.9.5-.3 1.2.1 1.6.9s.3 1.6-.3 1.9c-.5.3-1.2-.1-1.6-.9z" fill="#97acc9"/><path d="m128.8 111.3c.2-.5 0-.3.4-.5" fill="#c5d7ed"/><path d="m126.7 83.4c-1.1-.1-3 2.6-3.7 3.3-5.5 5.3-5.1 11.2-4.1 18.1 1.1 8.2 3.5 9.2 3.1 9.9-.1.2-.9-.2-1-.2-1.8-.8-4.4-3.1-6.5-2.8-1.9.4-4.3 5.1-2 6.2.8.4 16 .3 16.5-.1.1-.1-.8-6.6 2.7-12.6 3.3-5.8 7.1-4.6 8.2-6.8s.7-4.2-.3-6.8c-1.3-3.3-10.1-19.1-10.6-10.2z" fill="#c5d7ed"/><path d="m151.2 83c1.1-.1 3 2.6 3.7 3.3 5.5 5.3 5.1 11.2 4.1 18.1-1.1 8.2-3.5 9.2-3.1 9.9.1.2.9-.2 1-.2 1.8-.8 4.4-3.1 6.5-2.8 1.9.4 4.3 5.1 2 6.2-.8.4-16 .3-16.5-.1-.1-.1.8-6.6-2.7-12.6-3.3-5.8-7.1-4.6-8.2-6.8s-.7-4.2.3-6.8c1.3-3.3 10.1-19.1 10.6-10.2z" fill="#c5d7ed"/><path d="m125.4 58.6c-.6-1.2-6 .9-6.9 1.4-4.5 2.5-6.6 4.4-9.4 9.5s-1.3 10.4-1.9 10.9c-1.1 1.1-4.5-5.2-5.7-2.2-.6 1.4-1 3 1.7 3.7 2.6.7 2.9.2 2.9.2s-1.6.5-2 .6c-.9.2-3.4.4-3 2.1.6 2 3.6 1.4 4.9.6.7-.4 1.8-1.6 1.8-1.6s.3.9-.4 2.4c-.7 1.4-1.6 3.7 1 3.3 3.6-.5 2.8-4.6 2.5-5.6-.3-1.1 2.5-5.7 3.9-7.5 2.2-2.7 4.9-4.8 7.8-6.6 1.5-.9 4-1.2 5.2-2.4" fill="#c5d7ed"/><path d="m146.1 66.9c.3 1.3 6.1.3 7 0 4.9-1.5 7.4-3 11.2-7.4s3.4-9.9 4.1-10.3c1.3-.8 4.8 4.9 5.9 1.8.8-2.3-2.2-.9-1-2.5 1.2-1.7 3.2-2.4 3.1-4.1-.1-2.1-4.3-.4-5.7.2-.7.3.3.9.3.9s4.2-4.7-1.1-5c-7-.5-5.9 8.2-9.7 11.1-2.7 2.1-5.8 3.7-9 4.9-1.6.6-4.2.4-5.6 1.3" fill="#c5d7ed"/><path d="m174.4 57.9-10.5-30.1 6.4-1 13.3-2 9.3 27.1 1.4 4.2z" fill="#97acc9"/><path d="m165.8 26.4c.5-.2 20.6-5.7 20.6-5.7l.5-.8-21.7 6.2s.5.4.6.3z" fill="#97acc9"/><path d="m185.3 8.8h.3v.2h-.3z" fill="#c5d7ed"/><path d="m164 27.7 1.2-1.6 1-.2-.8 1z" fill="#97acc9"/><path d="m186.9 20 9.7 28.6-.6 1.7-9.6-29.4" fill="#97acc9"/><path d="m167.6 41c.5-.7 1.9-.7 2.6-.7 2.2-.1 6.2 1.3 5 4.2-1.3 3.1-6.8-.9-8.2 1" fill="#c5d7ed"/><g fill="#97acc9"><path d="m119.3 59.7c-.2.1-.7.3-.8.3-3.2 1.8-5.2 3.3-7.1 5.8.1.1.1.2.1.2 1.4 1.3 4.1.6 6-1.6 1.5-1.4 2.1-3.3 1.8-4.7z"/><path d="m122.2 73.5c-.1 0-.1.1-.2.1-.7 4.1-1.1 8-.9 11.5.1 0 .1.1.2.1 1.1.1 1.1-2.4 1.2-3.1.1-.9.2-1.9.5-2.8.6-1.8 2.3-5.1-.8-5.8z"/><path d="m160 51.9c-2.6 2-5.5 3.6-8.7 4.7.6.2 1.3.5 1.8.6 2.3.5 8.5-1.5 7.3-4.8-.2-.3-.3-.4-.4-.5z"/><path d="m120.8 38.3v.5c.1 2.7.5 6.4 1.5 9.7.5-.5.6-2.1.5-2.5-.2-1.6-.4-6.4-2-7.7z"/><path d="m109.8 25.2c-1.7.1-3.4.4-4.5 1.5-1.7 1.7-1.5 3.5-.4 5.1h.5c1.9-.7 4.4-4 4.4-6.6z"/><path d="m120.8 92.8c-.5-.1-1 0-1.5.1-1.2 3.7-1 7.5-.3 11.9v.1h.1c2.1-.5 2.2-3.1 2.2-4.8 0-.8-.2-1.7 0-2.6.2-1.2 1.5-2.9.7-4.1-.4-.3-.8-.5-1.2-.6z"/><path d="m156.9 89c-.9.3-1.9.7-2.3 1.5-.9 1.6 1.4 1.7 2.2 2.3.5.4.7 1.1 1 1.7.5 1-.1 5.1 1.5 5.3.1 0 .2-.1.3-.1.2-3.9-.5-7.4-2.7-10.7z"/><path d="m129.2 110.8-.4.5c.2-.5 0-.3.4-.5z"/></g><path d="m128.8 111.3c.2-.5 0-.3.4-.5" fill="#c5d7ed"/><path d="m130.5 107.4c-2.5.6-4.7 5.9-1.8 7.2.1.1.2 0 .3.1.1-2 .5-4.3 1.7-7.3 0 0-.1 0-.2 0z" fill="#97acc9"/><path d="m138.9 60c0-.3.1-.6.2-.6s.2.3.2.6-.1.6-.2.6-.2-.3-.2-.6z" fill="#97acc9"/><path d="m137.8 61.9c0-.9.7-1.6 1.5-1.6s1.5.7 1.5 1.6-.7 1.6-1.5 1.6-1.5-.7-1.5-1.6z" fill="#97acc9"/><path d="m128.3 81c0-8.1 5.6-14.7 12.5-14.7s12.5 6.6 12.5 14.7-5.6 14.7-12.5 14.7-12.5-6.5-12.5-14.7z" fill="#e9f1f9"/></g></svg>