<?xml version="1.0" encoding="utf-8"?>
<!-- Generator: Adobe Illustrator 24.0.2, SVG Export Plug-In . SVG Version: 6.00 Build 0)  -->
<svg version="1.1" id="Capa_1" xmlns="http://www.w3.org/2000/svg" xmlns:xlink="http://www.w3.org/1999/xlink" x="0px" y="0px"
	 viewBox="0 0 210 100" style="enable-background:new 0 0 210 100;" xml:space="preserve">
<style type="text/css">
	.st0{fill:#01A2AA;}
	.st1{fill:#E9E9E0;}
	.st2{fill:#D9D7CA;}
	.st3{fill:#CC4B4C;}
	.st4{fill:#FFFFFF;}
	.st5{fill:#2C474B;}
	.st6{font-family:'Nunito-SemiBold';}
	.st7{font-size:18px;}
</style>
<g id="Lecturas-_x28_Preescolar_x29_-">
	<g id="PDF" transform="translate(-185.000000, -903.000000)">
		<g id="Group-6" transform="translate(165.000000, 880.000000)">
			<g id="Group-4-Copy-4">
				<g id="atom_x2F_icon_x2F_secciones_x2F_unicef-copy-4" transform="translate(20.000000, 23.000000)">
					<path id="Path" class="st0" d="M13,49.7c0-14.9,12.1-27,27-27s27,12.1,27,27s-12.1,27-27,27S13,64.6,13,49.7z"/>
					<g id="pdf" transform="translate(10.000000, 3.600000)">
						<path id="Path_1_" class="st1" d="M37.1,22.7H14.6c-0.6,0-1.1,0.5-1.1,1.5v41.2c0,0.3,0.5,0.8,1.1,0.8h31.1
							c0.6,0,1.1-0.5,1.1-0.8V32.8c0-0.5-0.1-0.7-0.2-0.8l-9-9C37.4,22.8,37.3,22.7,37.1,22.7z"/>
						<polygon id="Path_2_" class="st2" points="37.5,22.8 37.5,32 46.7,32 						"/>
						<path id="Shape" class="st3" d="M23.5,48.6L23.5,48.6c-0.3,0-0.5-0.1-0.8-0.3c-0.8-0.6-0.9-1.3-0.9-1.7
							c0.1-1.3,1.7-2.6,4.6-3.9c1.2-2.6,2.3-5.7,2.9-8.3c-0.8-1.7-1.5-3.9-1-5.2c0.2-0.4,0.4-0.8,0.9-0.9c0.2-0.1,0.6-0.1,0.8-0.1
							c0.4,0,0.7,0.5,1,0.8c0.2,0.3,0.7,0.9-0.3,5.3c1,2.2,2.5,4.4,4,5.9c1-0.2,1.9-0.3,2.6-0.3c1.2,0,2,0.3,2.3,0.9
							c0.2,0.5,0.1,1-0.3,1.7c-0.4,0.6-1,0.9-1.7,0.9c-0.9,0-2-0.6-3.3-1.8c-2.2,0.5-4.8,1.3-6.9,2.2c-0.6,1.4-1.3,2.5-1.9,3.3
							C24.9,48.1,24.2,48.6,23.5,48.6z M25.6,44.6c-1.7,0.9-2.3,1.7-2.4,2.1c0,0.1,0,0.3,0.3,0.5C23.7,47.2,24.3,46.9,25.6,44.6z
							 M36.2,41.1c0.6,0.5,0.8,0.7,1.2,0.7c0.2,0,0.7,0,0.9-0.3c0.1-0.2,0.2-0.3,0.2-0.3c-0.1-0.1-0.2-0.2-0.9-0.2
							C37.2,41.1,36.7,41.1,36.2,41.1z M30.4,36c-0.6,1.9-1.3,4-2.1,5.9c1.6-0.6,3.4-1.2,5-1.6C32.3,39.1,31.2,37.6,30.4,36z
							 M29.9,29.5c-0.1,0-1,1.4,0.1,2.5C30.7,30.3,29.9,29.5,29.9,29.5z"/>
						<path id="Path_3_" class="st3" d="M45.7,66.2H14.6c-0.6,0-1.1-0.5-1.1-1.1V53h33.4V65C46.8,65.7,46.3,66.2,45.7,66.2z"/>
						<g id="Group" transform="translate(7.504773, 33.124516)">
							<path id="Shape_1_" class="st4" d="M14.4,30.7h-1.3v-7.8h2.2c0.3,0,0.7,0.1,1,0.2c0.3,0.1,0.6,0.3,0.9,0.5
								c0.3,0.2,0.5,0.5,0.6,0.8s0.2,0.6,0.2,1c0,0.4-0.1,0.8-0.2,1.1s-0.3,0.6-0.6,0.8c-0.2,0.2-0.5,0.4-0.9,0.5s-0.7,0.2-1.1,0.2
								h-0.9L14.4,30.7L14.4,30.7z M14.4,23.9V27h1.2c0.2,0,0.3,0,0.5-0.1c0.2-0.1,0.3-0.1,0.4-0.3c0.1-0.1,0.2-0.3,0.3-0.5
								c0.1-0.2,0.1-0.5,0.1-0.8c0-0.1,0-0.3-0.1-0.4c0-0.2-0.1-0.3-0.2-0.5c-0.1-0.2-0.3-0.3-0.5-0.4c-0.2-0.1-0.5-0.2-0.8-0.2
								L14.4,23.9L14.4,23.9z"/>
							<path id="Shape_2_" class="st4" d="M25.9,26.6c0,0.6-0.1,1.2-0.2,1.7s-0.3,0.8-0.5,1.1c-0.2,0.3-0.5,0.6-0.7,0.7
								c-0.3,0.2-0.5,0.3-0.8,0.4c-0.2,0.1-0.5,0.1-0.7,0.2c-0.2,0-0.4,0-0.5,0h-3v-7.8h2.4c0.7,0,1.2,0.1,1.7,0.3
								c0.5,0.2,0.9,0.5,1.2,0.8s0.6,0.7,0.7,1.2C25.8,25.7,25.9,26.1,25.9,26.6z M22.1,29.8c0.9,0,1.5-0.3,1.9-0.8
								c0.4-0.6,0.6-1.4,0.6-2.4c0-0.3,0-0.6-0.1-1c-0.1-0.3-0.2-0.6-0.5-0.9c-0.2-0.3-0.5-0.5-0.9-0.6c-0.4-0.2-0.9-0.2-1.5-0.2
								h-0.7v5.9H22.1L22.1,29.8z"/>
							<polygon id="Path_4_" class="st4" points="29,23.9 29,26.3 32.3,26.3 32.3,27.2 29,27.2 29,30.7 27.7,30.7 27.7,22.9 
								32.6,22.9 32.6,23.9 							"/>
						</g>
					</g>
				</g>
			</g>
		</g>
	</g>
</g>
<text transform="matrix(1 0 0 1 79 45.0259)"><tspan x="0" y="0" class="st5 st6 st7">Lecturas</tspan><tspan x="0" y="21.6" class="st5 st6 st7">Unicef</tspan></text>
<image style="overflow:visible;" width="165" height="165" xlink:href="../Downloads/unicef @3x.png"  transform="matrix(0.3394 0 0 0.3394 12 22)">
</image>
</svg>
