<svg enable-background="new 0 0 210 100" viewBox="0 0 210 100" xmlns="http://www.w3.org/2000/svg"><text fill="#2c474b" font-family="'Nunito-SemiBold'" font-size="18" transform="translate(79 45.0259)">Lecturas</text><text fill="#2c474b" font-family="'Nunito-SemiBold'" font-size="18" transform="translate(79 66.6259)">Unicef</text><g><path d="m12.7 50.2c0-15.3 12.4-27.8 27.8-27.8s27.8 12.4 27.8 27.8-12.4 27.8-27.8 27.8-27.8-12.4-27.8-27.8z" fill="#009fe3"/><g fill="#fff"><path d="m41.2 32.7c-8.4 0-15.2 6.8-15.2 15.2s6.8 15.2 15.2 15.2 15.2-6.8 15.2-15.2-6.8-15.2-15.2-15.2m11.9 6.7c-.8.5-1.6 1-2.4 1.4-.5-1-1.1-2-1.8-2.9.6-.4 1.2-.8 1.8-1.3.8.9 1.6 1.8 2.4 2.8m-6.4-5c1.2.5 2.4 1.1 3.4 2-.5.4-1.1.8-1.7 1.2-.7-.8-1.6-1.6-2.5-2.3.3-.3.5-.6.8-.9m1.1 3.4c-.8.4-1.7.8-2.6 1.1-.4-.8-.8-1.7-1.3-2.5.5-.2 1-.5 1.4-.8 1 .7 1.8 1.4 2.5 2.2m-1.8-3.6c-.2.2-.4.5-.7.7-.8-.5-1.7-1-2.6-1.4 1.2.1 2.3.3 3.3.7m-1.1 1.1c-.4.3-.8.5-1.2.7-.4-.7-1-1.4-1.5-2 1 .2 1.8.7 2.7 1.3m-3.4-1.3c.6.7 1.1 1.4 1.6 2.1-.5.2-1 .2-1.6.3zm0 3c.7 0 1.3-.1 1.9-.4.5.8.9 1.6 1.3 2.4-1 .3-2.1.4-3.2.4zm-.6-3v2.4c-.5 0-1-.1-1.5-.3.4-.7.9-1.4 1.5-2.1m-2.2 1.9c-.4-.2-.8-.4-1.2-.7.8-.5 1.7-1 2.6-1.4-.4.7-.9 1.4-1.4 2.1m.9-2.5c-.9.4-1.8.9-2.6 1.4-.2-.2-.5-.5-.7-.7 1.1-.3 2.2-.6 3.3-.7m10.4 26.1c-2-1.1-2.1-2.6-2-3.2s.5-.3.8-.3c1.3 0 2.7-.4 4.5-2.1 1.9-2 2.6-6.4-.4-9.3-3.2-3.1-6.6-2.6-8.8.2-.5.6-1.5 1-2.5 1-1.5-.1-.6 1-.6 1.2s-.2.4-.4.4c-.5-.1-.3.6-.3.8s-.2.3-.3.3c-.6 0-.4.5-.4.7 0 .1 0 .4-.2.5s-.4.6-.4.9c0 .7.6 1.1 1.6 1.8s1.1 1.4 1.1 1.9.1 1.3.3 1.8c.3.7.2 1.8-1.1 1.9-1.7.1-4.6 1.4-4.9 1.5-1 .3-2.2.5-3.2.2-.5-.4-1-.8-1.5-1.2-.2-.7.1-1.4.5-1.9.6.6 1.4.5 1.8.5.5 0 2.7-.3 3.1-.4.3-.1.5-.1.7 0 .9.3 2.1.4 2.6-1.3s-.7-1.2-.8-1.1-.4.1-.3-.1c.2-.4-.1-.4-.3-.4-.5-.1-1.1.5-1.3.6-.2.2-.4.2-.5.1-.6-.3-2.5.1-3-.9.1-.3-.5-4.3-.7-5-.1-.2-.1-.4.1-.7.5-.7 1.8.1 2.5 0 .8 0 1-.4 1.2-.7s.4-.1.5-.2c.2-.1 0-.3.1-.4l.2-.2s0-.4.1-.5c.2-.3.8-.1.4-.9-.2-.4.1-.9.3-1.3.4-.5 2-2.7-.8-5-2.6-2.2-5.3-2-7-.1s-.9 4.6-.7 5.3-.3 1.4-.9 1.7c-.5.2-1.5 1-2.4 1.7.1-5.8 3.7-11 9.1-13.2.2.3.5.6.8.8-.6.4-1.9 1.6-1.9 1.6s.2 0 .4.1c.1 0 .4.1.4.1s1.2-1 1.7-1.4c.4.3.9.6 1.4.8-.3.4-.9 1.7-.9 1.7s.2.1.3.2.2.2.2.2.7-1.4 1-1.8c.6.2 1.3.3 1.9.4v2.5c-.4 0-1.3-.1-1.7-.1h-.2l.1.2c.1.1.2.3.2.4v.1h.1c.3 0 1.1.1 1.4.1v4.6h.6v-1c.9-.1 1.7-.1 2.6-.2l.8-.7h-.4c-1 .1-1.8.2-2.6.2 0 0-.3 0-.4 0v-2.9c1.1 0 2.3-.2 3.4-.5.3.8.9 2.6.9 2.6l.6-.2s-.6-1.8-.9-2.6c1-.3 1.9-.7 2.7-1.2.7.9 1.3 1.8 1.8 2.8-.4.2-1.3.5-1.3.5.7.1 1.1.2 1.1.2s.2-.1.4-.2c.1.1.2.4.2.4l.8.4-.1-.2s-.3-.7-.3-.8c.9-.4 1.7-.9 2.5-1.5 1.5 2.4 2.4 5.1 2.4 8 0 4.9-2.3 9.2-5.8 11.8"/><path d="m24.6 36.7-.2.3c-.9.8-2.9 2.9-2.6 5.2v.2l.1.5.3-.3c1.3-1.1 2.2-3.1 2.6-5.3l.1-.6z"/><path d="m20.5 40.7-.1.3c-.1.4-.4 1.2-.5 2.3-.2 1.5-.1 3.6 1.2 5.2l.1.2.2.2.2-1c.2-1.7-.1-5.3-.7-6.9l-.2-.5z"/><path d="m19 46.9v.3c-.1 1.5 0 5.3 3 7.3l.4.2v-.4c-.1-1.4-1.7-5.7-3-7.3l-.4-.4z"/><path d="m19.5 53.7.1.3c.5 2.2 2.5 5.7 5.7 6.7l.4.1-.2-.4c-.6-1.6-3.7-5.4-5.7-6.7l-.4-.3z"/><path d="m25.9 40-.2.2c-2.4 1.4-3.5 3.2-3.4 5.4v.5l.4-.3c1.3-1.1 2.9-3.8 3.4-5.3l.2-.6z"/><path d="m24.5 44.8-.2.2c-.6.6-2.6 2.7-2.4 5.3 0 .4.1.8.3 1.3l.1.4.2-.4c1-1.3 2.2-4.8 2.1-6.4v-.5z"/><path d="m24.6 49.3-.1.2c-1 1.5-1.5 3-1.5 4.4 0 1 .4 2 1 2.9l.2.3.2-.3c.4-.8.8-3.4.7-5.5 0-.7-.1-1.3-.2-1.7l-.1-.5z"/><path d="m25.8 54.1-.1.2c-.3 1-.4 1.9-.4 2.8.1 2 1 3.6 2.6 4.7l.3.2.1-.4v-.3c-.1-1.6-1.3-5.7-2.2-7l-.3-.4z"/><path d="m22.4 60.5.1.2c1.3 2.1 3.5 4.9 7.5 4.2l.3-.1-.2-.3c-.8-1.1-5.7-3.9-7.4-4.2l-.5-.1z"/><path d="m28.4 65.9-.6.2.6.2c2.6 1.1 5.8 1.4 7.7.7.7-.2 1.1-.6 1.7-1.1 3.3.4 6.4 3.1 8.2 5.3l.1.1.1-.1c.2-.1.5-.3.7-.5l.1-.1-.1-.2c-1.9-2.4-4.8-4-4.9-4-2.8-1.1-7.4-2.1-13.6-.5"/><path d="m28.6 59.1v.2c.4 2.4 1.4 5.6 5.5 5.3h.3l-.1-.2c-.3-1.1-4-4.3-5.4-5.2l-.4-.2v.1z"/><path d="m57.6 36.6.1.6c.4 2.2 1.3 4.2 2.6 5.3l.3.3.1-.5v-.2c.3-2.3-1.7-4.4-2.6-5.2l-.2-.2z"/><path d="m61.9 40.4-.2.6c-.6 1.6-.9 5.2-.7 6.9l.2 1 .2-.2.1-.2c1.3-1.6 1.4-3.7 1.2-5.2-.1-1.1-.4-1.9-.5-2.3l-.2-.3z"/><path d="m63.5 46.6-.4.4c-1.3 1.5-2.9 5.8-3 7.3v.4l.4-.2c3.1-2 3.2-5.8 3-7.3v-.3z"/><path d="m63 53.4-.4.3c-2 1.3-5.1 5.1-5.7 6.7l-.2.4.4-.1c3.2-1 5.2-4.6 5.7-6.7l.1-.3z"/><path d="m56.4 39.8.2.6c.4 1.5 2 4.3 3.3 5.4l.4.3v-.5c.1-2.2-1-3.9-3.3-5.4l-.3-.2z"/><path d="m57.8 44.6v.5c-.1 1.6 1.2 5.1 2.1 6.4l.2.4.1-.4c.2-.4.2-.9.3-1.3.2-2.6-1.8-4.7-2.4-5.3l-.2-.2z"/><path d="m57.7 49.1-.1.5c-.1.4-.2 1-.2 1.7-.1 2.1.3 4.7.7 5.5l.2.3.2-.3c.6-.9 1-1.9 1-2.9 0-1.4-.5-2.9-1.5-4.4l-.1-.2z"/><path d="m56.6 53.9-.3.4c-1 1.3-2.2 5.4-2.2 7v.3l.1.4.3-.2c1.7-1.1 2.6-2.7 2.6-4.7 0-.9-.1-1.8-.4-2.8l-.1-.2z"/><path d="m60.2 60.3-.5.1c-1.7.3-6.7 3.1-7.4 4.2l-.2.3.3.1c4.1.7 6.2-2.1 7.5-4.2l.1-.2z"/><path d="m40.6 66.6c-.1.1-3.1 1.6-4.9 4l-.1.2.1.1c.1.1.4.4.7.5l.1.1.1-.1c1.8-2.3 4.9-5 8.2-5.3.5.5 1 .9 1.7 1.1 1.9.6 5.1.3 7.7-.7l.6-.2-.7-.3c-6.2-1.7-10.9-.7-13.5.6"/><path d="m54 58.8-.4.2c-1.3.9-5.1 4.1-5.4 5.2l-.1.2h.3c4.1.4 5.1-2.8 5.5-5.3v-.2z"/></g></g></svg>