<svg enable-background="new 0 0 210 100" viewBox="0 0 210 100" xmlns="http://www.w3.org/2000/svg"><g><path d="m13 49.7c0-14.9 12.1-27 27-27s27 12.1 27 27-12.1 27-27 27-27-12.1-27-27z" fill="#01a2aa"/><g clip-rule="evenodd" fill-rule="evenodd"><path d="m48.2 32.9 2 35.7-28 1.7-2-35.7z" fill="#dbdbdb"/><path d="m52.3 25.2 2 35.7-11.6.7-16.5 1-2-35.7z" fill="#f1f1f1"/><path d="m50.3 36.1-20.9 1.2v.7l20.9-1.3z" fill="#dbdbdb"/><path d="m50.1 32.4-20.9 1.2v.8l20.9-1.4z" fill="#dbdbdb"/><path d="m50.7 39.8-20.9 1.3v.6l21.1-1.2z" fill="#dbdbdb"/><path d="m50.7 43.4-21.1 1.3.2.6 20.9-1.2z" fill="#dbdbdb"/><path d="m50.9 46.9-21.1 1.3.2.6 20.9-1.2z" fill="#dbdbdb"/><path d="m51.1 51.3-20.9 1.3v.6l21.1-1.2z" fill="#dbdbdb"/><path d="m48.4 55.5-17.9 1v.6l17.9-1z" fill="#dbdbdb"/><path d="m49.9 28.8-20.9 1.1v.8l20.9-1.3z" fill="#dbdbdb"/><path d="m44.7 48.3c-4.4 0-8 3.6-8 8s3.6 8 8 8 8-3.6 8-8-3.6-8-8-8zm0 2.4c3.1 0 5.6 2.5 5.6 5.6s-2.5 5.6-5.6 5.6-5.6-2.5-5.6-5.6c-.1-3.1 2.5-5.6 5.6-5.6z" fill="#0052c2"/><path d="m48.8 61.1 8.9 9c.2.2.4.1.5 0l2-2.8c.1-.2.1-.4-.1-.6l-9.8-7.3z" fill="#0052c2"/><path d="m44.7 48.3c-4.4 0-8 3.6-8 8 0 3.3 2 6.1 4.7 7.3.6.1 1.3.1 1.9.1 2.8 0 5.3-.8 7.4-2.2 1.2-1.4 2-3.2 2-5.2 0-4.4-3.6-8-8-8zm0 2.4c3.1 0 5.6 2.5 5.6 5.6s-2.5 5.6-5.6 5.6-5.6-2.5-5.6-5.6c-.1-3.1 2.5-5.6 5.6-5.6z" fill="#0052c2"/><path d="m44.7 50.7c3.1 0 5.6 2.5 5.6 5.6s-2.5 5.6-5.6 5.6-5.6-2.5-5.6-5.6c-.1-3.1 2.5-5.6 5.6-5.6z" fill="#0052c2" opacity=".3"/><path d="m44.7 54.3c0-1.1.9-2 2-2s2 .9 2 2-.9 2-2 2-2-.9-2-2z" fill="#f1f1f1"/></g></g><text fill="#2c474b" font-family="'Nunito-SemiBold'" font-size="18" transform="translate(79 55.0259)">PDF</text></svg>