<?xml version="1.0" encoding="UTF-8"?>
<svg width="406px" height="356px" viewBox="0 0 406 356" version="1.1" xmlns="http://www.w3.org/2000/svg" xmlns:xlink="http://www.w3.org/1999/xlink">
    <!-- Generator: Sketch 63.1 (92452) - https://sketch.com -->
    <title>Padres@2x</title>
    <desc>Created with Sketch.</desc>
    <defs>
        <rect id="path-1" x="0" y="0" width="350" height="300" rx="8"></rect>
        <filter x="-12.3%" y="-13.7%" width="124.6%" height="128.7%" filterUnits="objectBoundingBox" id="filter-3">
            <feOffset dx="0" dy="2" in="SourceAlpha" result="shadowOffsetOuter1"></feOffset>
            <feGaussianBlur stdDeviation="14" in="shadowOffsetOuter1" result="shadowBlurOuter1"></feGaussianBlur>
            <feColorMatrix values="0 0 0 0 0   0 0 0 0 0   0 0 0 0 0  0 0 0 0.06 0" type="matrix" in="shadowBlurOuter1"></feColorMatrix>
        </filter>
        <path d="M214.958039,107.477453 C214.958039,150.950427 188.769138,190.142275 148.604325,206.776193 C108.439513,223.410112 62.2094737,214.209956 31.4732168,183.466144 C0.736959863,152.722333 -8.45183439,106.490034 8.19195453,66.3293103 C24.8357434,26.1685865 64.0340265,-0.0106793646 107.506999,0 C136.008289,0.00350530039 163.340849,11.3289573 183.491827,31.484889 C203.642806,51.6408208 214.961541,78.9761633 214.958039,107.477453" id="path-4"></path>
    </defs>
    <g id="Screens" stroke="none" stroke-width="1" fill="none" fill-rule="evenodd">
        <g id="Inicio-" transform="translate(-517.000000, -336.000000)">
            <g id="Padres" transform="translate(545.000000, 362.000000)">
                <g id="Rectangle-Copy">
                    <g id="Card-Copy" fill="#E4E9F2" fill-rule="nonzero">
                        <g id="Card" fill="none" fill-rule="evenodd">
                            <g id="Group-2">
                                <mask id="mask-2" fill="white">
                                    <use xlink:href="#path-1"></use>
                                </mask>
                                <g id="Mask">
                                    <use fill="black" fill-opacity="1" filter="url(#filter-3)" xlink:href="#path-1"></use>
                                    <use fill="#FFFFFF" fill-rule="evenodd" xlink:href="#path-1"></use>
                                </g>
                            </g>
                        </g>
                    </g>
                    <g id="madre_Mesa-de-trabajo-1" transform="translate(67.000000, 42.000000)">
                        <g id="Group" transform="translate(0.775970, 0.805516)">
                            <mask id="mask-5" fill="white">
                                <use xlink:href="#path-4"></use>
                            </mask>
                            <use id="Mask" fill="#E4E9F2" fill-rule="nonzero" xlink:href="#path-4"></use>
                            <g id="los-padres" mask="url(#mask-5)">
                                <g transform="translate(10.000000, 34.194484)">
                                    <path d="M92.677725,146.91978 C92.6738169,146.877754 92.6738169,146.835456 92.677725,146.79343 C92.4830718,146.068845 92.1387388,145.393092 91.666925,144.809735 L91.666925,144.809735 C90.7245868,143.676909 89.3481569,142.994081 87.8760574,142.929135 C86.4039579,142.864189 84.972743,143.423152 83.934305,144.46859 C83.6096836,144.784656 83.333001,145.146472 83.11303,145.542565 L83.11303,145.542565 C82.9664906,145.797806 82.839768,146.063923 82.73398,146.33857 C82.6590894,146.566856 82.595833,146.798796 82.544455,147.033495 C82.2493213,148.40811 82.5227583,149.843654 83.302555,151.01352 L83.479445,151.26622 C84.639813,152.7788 86.5311903,153.540328 88.4159334,153.253805 C90.3006766,152.967282 91.880298,151.678085 92.53874,149.889005 C92.8601804,148.931426 92.9083103,147.903198 92.677725,146.91978 L92.677725,146.91978 Z" id="Path" stroke="none" fill="#F3D19F" fill-rule="nonzero"></path>
                                    <path d="M80.99035,149.093 C80.63657,150.20488 82.544455,152.213845 82.3802,153.679505 C82.2458671,154.570431 82.0258399,155.446309 81.72318,156.29495 C81.72318,156.29495 88.04068,160.780375 93.34738,156.509745 C93.34738,156.509745 93.34738,152.52972 93.34738,151.582095 C93.2804616,149.973608 93.0647458,148.374773 92.702995,146.806065 L83.529985,145.011895 C82.5178061,146.261918 81.6647366,147.632771 80.99035,149.093 L80.99035,149.093 Z" id="Path" stroke="none" fill="#F2C6A5" fill-rule="nonzero"></path>
                                    <path d="M79.208815,164.924655 C77.945315,164.267635 79.12037,161.841715 80.345965,159.25154 C81.26832,157.28048 81.72318,156.282315 81.72318,156.282315 L85.05882,156.9267 C85.05882,156.9267 84.30072,159.011475 83.41627,160.79301 C82.1275,163.32001 80.53549,165.5185 79.208815,164.924655 Z" id="Path" stroke="none" fill="#F2C6A5" fill-rule="nonzero"></path>
                                    <path d="M76.26486,153.71741 C75.40568,152.517085 77.65471,150.950345 79.95428,149.257255 C81.0478661,148.453204 82.066977,147.552496 82.999315,146.566 L84.73031,149.75002 C83.8665891,150.618521 82.9279637,151.409165 81.92534,152.112765 C79.6005,153.69214 77.0735,154.917735 76.26486,153.71741 Z" id="Path" stroke="none" fill="#F2C6A5" fill-rule="nonzero"></path>
                                    <path d="M84.42707,167.66645 C82.98668,167.375845 83.732145,164.040205 84.262815,161.2226 C84.5096197,159.872236 84.6280745,158.501545 84.616595,157.12886 L88.06595,158.278645 C88.0180938,159.505818 87.8701948,160.727041 87.623725,161.93016 C87.05515,164.697225 85.918,167.96969 84.42707,167.66645 Z" id="Path" stroke="none" fill="#F2C6A5" fill-rule="nonzero"></path>
                                    <path d="M89.7085,165.82174 C88.356555,165.82174 88.445,163.4969 88.26811,160.89409 C88.2231821,159.804525 87.9879955,158.73122 87.573185,157.722705 L91.035175,157.65953 C91.240935,158.679764 91.3634764,159.715027 91.40159,160.755105 C91.490035,163.332645 91.035175,165.758565 89.7085,165.82174 Z" id="Path" stroke="none" fill="#F2C6A5" fill-rule="nonzero"></path>
                                    <path d="M93.2463,162.78934 C92.2355,162.953595 92.071245,161.159425 91.70483,159.213635 C91.5744209,158.399252 91.2960778,157.615609 90.883555,156.90143 L93.06941,156.181235 C93.5318189,157.005529 93.8642416,157.896252 94.05494,158.82195 C94.370815,160.74247 94.2571,162.61245 93.2463,162.78934 Z" id="Path" stroke="none" fill="#F2C6A5" fill-rule="nonzero"></path>
                                    <path d="M118.769,120.954855 L118.276235,125.06123 C118.248006,125.828577 117.872407,126.541461 117.25547,126.998633 C116.638533,127.455806 115.847194,127.607665 115.10485,127.41134 C107.59966,124.543195 98.37611,118.250965 94.61088,114.207765 C93.8192498,113.471399 93.486027,112.365485 93.739065,111.31435 C93.739065,111.31435 97.099975,94.067575 102.330865,81.761085 C104.706245,85.172535 109.229575,90.34025 113.980335,88.710335 C110.846855,95.406885 106.53832,107.814455 106.53832,107.814455 C106.129492,108.737087 106.260538,109.80972 106.879465,110.60679 C109.532815,113.91716 114.67526,116.84848 117.32861,118.18779 C118.336451,118.708982 118.911695,119.803963 118.769,120.929585" id="Path" stroke="none" fill="#F2C6A5" fill-rule="nonzero"></path>
                                    <path d="M160.173895,133.14763 L160.173895,134.25951 L160.173895,134.25951 C160.173895,147.993755 159.37789,210.865515 150.546025,234.669855 C147.457173,236.17652 143.822228,236.053462 140.842345,234.341345 L135.90206,153.780585 C134.05735,153.780585 132.26318,153.780585 130.532185,153.66687 L125.56663,234.341345 C122.591286,236.053426 118.960039,236.176519 115.875585,234.669855 C106.76575,210.132685 106.26035,144.127445 106.247715,133.134995 L106.247715,131.58089 L114.991135,134.46167 L151.961145,134.28478 L160.173895,131.58089 L160.173895,133.134995" id="Path" stroke="none" fill="#0275D8" fill-rule="nonzero"></path>
                                    <path d="M79.1502095,133.14763 L79.1502095,134.25951 L79.1502095,134.25951 C79.1502095,147.993755 78.485964,210.865515 71.1160014,234.669855 C68.5384344,236.17652 65.5051669,236.053462 63.0185319,234.341345 L58.8959921,153.780585 C57.3566294,153.780585 55.859441,153.780585 54.4149705,153.66687 L50.2713435,234.341345 C47.7884957,236.053426 44.7583149,236.176519 42.1844176,234.669855 C34.5824963,210.132685 34.1607531,144.127445 34.1502095,133.134995 L34.1502095,131.58089 L41.446367,134.46167 L72.2968824,134.28478 L79.1502095,131.58089 L79.1502095,133.134995" id="Path-Copy" stroke="none" fill="#0275D8" fill-rule="nonzero"></path>
                                    <path d="M63.0951895,140.9828 C63.0951895,140.9828 67.5599095,148.50824 72.4598695,146.96384" id="Path" stroke="#205280" stroke-width="0.65988" fill="none" stroke-linecap="round"></path>
                                    <path d="M43.3409095,140 C43.3409095,140 42.3721495,143.90312 40.2240295,144.71744" id="Path" stroke="#205280" stroke-width="0.65988" fill="none" stroke-linecap="round"></path>
                                    <path d="M50.90206,153.79322 C52.8582293,153.967695 54.8294354,153.852743 56.752065,153.452075" id="Path" stroke="#034F87" stroke-width="0.5" fill="none" stroke-linecap="round" stroke-linejoin="round"></path>
                                    <path d="M185.86085,73.68732 L185.68396,74.432785 C185.50707,75.15298 185.27964,76.151145 185.27964,76.151145 L184.609985,79.057195 L183.81398,82.53182 L178.519915,105.565425 C176.81419,113.904525 172.202415,114.334115 169.91548,112.1988 C164.86148,107.37223 157.28048,96.60721 151.49365,83.1383 C155.63793,83.54262 162.33448,82.98668 164.12865,78.31173 C165.916495,83.7900442 168.414199,89.0105858 171.55803,93.840145 C171.55803,93.840145 174.451445,86.72664 176.35933,80.40914 C176.725745,79.22145 177.054255,78.05903 177.332225,76.985055 C177.577173,76.0230622 177.771179,75.0488123 177.913435,74.06637 C177.949726,73.8530153 177.975029,73.6379367 177.989245,73.421985 C177.989245,73.169285 177.989245,72.92922 177.989245,72.714425 L181.16063,73.118745 L181.16063,73.118745 L185.86085,73.68732 Z" id="Path" stroke="none" fill="#F2C6A5" fill-rule="nonzero"></path>
                                    <path d="M115.78714,87.73744 C115.228425,88.1586237 114.605555,88.4871239 113.94243,88.710335 C109.19167,90.34025 104.66834,85.172535 102.29296,81.761085 C102.052895,81.41994 101.825465,81.078795 101.63594,80.775555 C100.990307,79.765352 101.143373,78.4405331 102.002355,77.60417 L109.49491,70.440125 L113.853985,82.40547 L115.2312,86.19597 L115.78714,87.73744 Z" id="Path" stroke="none" fill="#8E388E" fill-rule="nonzero"></path>
                                    <path d="M156.14333,70.440125 L164.7604,76.18905 C165.75459,76.8601829 166.139977,78.1377644 165.682755,79.24672 C164.0023,83.26465 159.50424,91.793275 152.95931,88.57135 L156.14333,70.440125 Z" id="Path" stroke="none" fill="#8E388E" fill-rule="nonzero"></path>
                                    <path d="M126.35,101.673845 C126.35,101.673845 136.217935,103.265855 141.145585,101.673845" id="Path" stroke="#822E82" stroke-width="0.5" fill="none" stroke-linecap="round" stroke-linejoin="round"></path>
                                    <path d="M151.39257,100.04393 C157.343655,89.93593 156.686635,70.718095 156.686635,70.718095 C155.423135,70.086345 154.159635,69.454595 152.896135,68.999735 C152.011685,68.63332 151.13987,68.317445 150.268055,68.02684 C149.004555,67.584615 147.741055,67.19293 146.477555,66.86442 C143.48306,71.03397 136.091585,75.10244 136.091585,75.10244 C133.40033,75.73419 126.969115,69.050275 124.25259,65.9547 C122.900645,66.169495 121.59924,66.422195 120.46209,66.700165 L119.868245,66.83915 C116.32686,67.6544753 112.88619,68.8578623 109.608625,70.42749 C106.66467,74.21799 113.15906,100.09447 113.15906,100.09447 C108.38303,108.93897 106.31089,127.979915 105.666505,135.358755 C112.85582,139.705195 136.420095,151.24095 161.083615,134.53748 C159.946465,121.59924 151.39257,100.04393 151.39257,100.04393 Z" id="Path" stroke="none" fill="#A546A0" fill-rule="nonzero"></path>
                                    <rect id="Rectangle" stroke="none" fill="#A546A0" fill-rule="nonzero" x="145.12561" y="81.04089" width="1" height="10.84083"></rect>
                                    <path d="M135.90206,153.79322 C137.858229,153.967695 139.829435,153.852743 141.752065,153.452075" id="Path" stroke="#034F87" stroke-width="0.5" fill="none" stroke-linecap="round" stroke-linejoin="round"></path>
                                    <path d="M124.20205,17.689 C122.819773,19.9308074 120.586651,21.5154438 118.01416,22.0799627 C115.441669,22.6444815 112.750215,22.1405161 110.55625,20.683495 C108.252576,19.3499701 106.580648,17.1474894 105.915522,14.5701245 C105.250395,11.9927596 105.64775,9.25627042 107.01845,6.97452 C109.987675,2.236395 115.749235,1.453025 120.48736,4.44752 C125.225485,7.442015 127.15864,12.976145 124.20205,17.689 Z" id="Path" stroke="none" fill="#563634" fill-rule="nonzero"></path>
                                    <path d="M161.033075,38.86526 L154.715575,36.94474 C154.45024,34.74625 153.71741,29.46482 153.71741,29.46482 C152.815014,30.4142148 151.732637,31.1744559 150.53339,31.701215 C149.225078,32.3110228 147.725736,32.36571 146.376475,31.852835 C144.84764,31.23372 145.340405,28.188685 145.340405,28.188685 C145.340405,28.188685 138.53014,33.242685 134.99234,31.600135 C132.46534,30.462985 134.00681,26.546135 134.05735,26.343975 C133.88046,26.520865 128.1189,32.19398 123.709285,32.231885 C122.732359,35.5130796 121.955978,38.8506743 121.384445,42.22617 C121.345816,42.3969731 121.221523,42.5356078 121.055935,42.592585 C121.055935,42.794745 121.055935,43.022175 121.055935,43.249605 C121.055935,43.249605 110.37936,40.621525 112.438865,36.856295 C114.359385,33.30586 110.25301,24.575075 111.529145,20.74667 C116.229365,6.72182 138.062645,5.041365 143.192455,4.85184 C143.896583,4.81931893 144.579735,5.09627216 145.062435,5.60994 C147.723254,8.43962594 149.717698,11.8284553 150.899805,15.528415 C152.294421,14.267269 154.076919,13.5186199 155.953805,13.405735 C157.017208,13.345942 158.040543,13.8197082 158.682965,14.669235 C162.018605,19.02831 162.043875,34.809425 161.033075,38.86526 Z" id="Path" stroke="none" fill="#684642" fill-rule="nonzero"></path>
                                    <line x1="121.14438" y1="42.264075" x2="121.14438" y2="42.592585" id="Path" stroke="none" fill="#F3D19F" fill-rule="nonzero"></line>
                                    <line x1="121.14438" y1="42.264075" x2="121.14438" y2="42.592585" id="Path" stroke="#000000" stroke-width="0.5" fill="none" stroke-linecap="round" stroke-linejoin="round"></line>
                                    <path d="M121.296,50.021965 L119.716625,49.93352 C117.27807,49.57974 114.435195,48.151985 113.84135,43.54021 C113.449665,40.495175 114.233035,38.802085 115.395455,37.87973 C116.35003,37.199955 117.496131,36.841522 118.66792,36.856295 L122.572135,36.451975" id="Path" stroke="none" fill="#F2C6A5" fill-rule="nonzero"></path>
                                    <path d="M116.97483,39.24431 C116.97483,39.24431 119.50183,39.90133 119.666085,43.7171 C119.862783,44.6736263 120.163603,45.6057452 120.56317,46.4968" id="Path" stroke="#000000" stroke-width="0.5" fill="none" stroke-linecap="round" stroke-linejoin="round"></path>
                                    <path d="M120.20939,48.34151 C120.20939,48.6904159 119.926546,48.97326 119.57764,48.97326 C119.228734,48.97326 118.94589,48.6904159 118.94589,48.34151 C118.94589,47.9926041 119.228734,47.70976 119.57764,47.70976 C119.926546,47.70976 120.20939,47.9926041 120.20939,48.34151" id="Path" stroke="none" fill="#F3D19F" fill-rule="nonzero"></path>
                                    <path d="M154.821901,42.8210102 L154.821901,42.8210102 C154.821901,42.6032211 154.821901,42.398243 154.821901,42.2188873 C154.821901,41.5398975 154.821901,40.6431186 154.821901,39.6566618 C154.821901,37.0047584 153.804013,29.1643485 153.804013,29.1643485 C152.900426,30.1255275 151.820124,30.8960239 150.624686,31.431918 C149.323465,32.0502263 147.83225,32.1056759 146.490303,31.5856515 C144.969755,30.9707174 145.459849,27.8576135 145.459849,27.8576135 C145.459849,27.8576135 138.686498,32.9820644 135.155308,31.3422401 C132.642005,30.1636164 134.187686,26.1409224 134.237952,26 C134.062021,26.1793558 128.331691,31.931552 123.945978,31.9699854 C122.973646,35.2976032 122.197327,38.6815071 121.621173,42.1035871 C121.587392,42.2749178 121.468258,42.4158032 121.30701,42.4751098 C121.146991,44.9873764 121.218515,47.5094075 121.520641,50.0080527 C121.635874,51.0128762 121.846298,52.0039597 122.148966,52.9674231 C123.405618,56.3239385 126.233083,58.181552 129.047982,59.3729868 C131.277476,60.2233736 133.620501,60.7244251 135.997264,60.8590776 L137.354448,60.9615666 C138.334636,61.0128111 139.264558,61.0128111 140.144213,60.9615666 C141.353171,60.9283235 142.55834,60.8084574 143.750803,60.6028551 C146.148283,60.227298 148.437571,59.3269735 150.461321,57.9637628 L150.850883,57.6562958 C150.850883,57.6562958 150.850883,57.6562958 150.850883,57.6562958 C151.089647,57.47694 151.315844,57.2847731 151.529475,57.0926061 L151.61744,57.0157394 L151.969303,56.6826501 L152.258332,56.3623719 C152.331673,56.2961199 152.39897,56.2232251 152.459397,56.1445827 C152.522229,56.067716 152.597628,55.9908492 152.647894,55.9139824 L152.836392,55.6321376 C153.242911,55.0961133 153.604429,54.5261392 153.917112,53.9282577 L154.10561,53.5695461 C154.168442,53.4286237 154.243841,53.2748902 154.306674,53.1211567 C154.369507,52.9674231 154.432339,52.8265007 154.482605,52.6855783 C154.532871,52.5446559 154.595704,52.3909224 154.64597,52.25 C154.696236,52.1090776 154.746502,51.9809663 154.784202,51.8400439 L154.784202,51.8400439 L154.859601,51.5710102 C154.86529,51.5070859 154.86529,51.4427677 154.859601,51.3788433 C154.886308,51.3081057 154.907322,51.2352687 154.922433,51.1610542 C154.953545,51.0471936 154.978714,50.9317314 154.997832,50.8151537 C155.030249,50.6972958 155.055431,50.5774932 155.073231,50.4564422 L155.073231,50.2898975 C155.073231,50.2898975 155.073231,50.2002196 155.073231,50.1489751 C155.153636,49.6960158 155.204016,49.2380486 155.22403,48.7781845 C155.162667,46.7995854 154.977985,44.8269642 154.671103,42.8722548 M130.22403,37 C130.22403,35.9 130.670838,35 131.22403,35 C131.777221,35 132.22403,35.9 132.22403,37 C132.22403,38.1 131.777221,39 131.22403,39 C130.670838,39 130.22403,38.1 130.22403,37 M143.957455,57.2100323 C142.616005,57.7342618 141.192918,58.0019665 139.758136,58 C137.028743,57.8357171 134.454469,56.6388976 132.529586,54.6393251 C131.643597,53.7997626 131.167002,52.5972472 131.229487,51.3589958 C131.291686,50.8835983 131.451217,50.4272265 131.697523,50.0200858 C132.997621,47.7171607 137.885993,50.0200858 140.278175,50.1138095 C142.670357,50.2075332 144.68551,49.5514673 146.12862,49.7255256 C146.847853,49.7691423 147.493147,50.1952709 147.83175,50.85021 C149.01484,53.0326332 147.44172,55.7907877 144.191473,57.1163086" id="Shape" stroke="none" fill="#F2C6A5" fill-rule="nonzero"></path>
                                    <line x1="155.170435" y1="42.820015" x2="155.170435" y2="42.491505" id="Path" stroke="none" fill="#F3D19F" fill-rule="nonzero"></line>
                                    <line x1="155.170435" y1="42.820015" x2="155.170435" y2="42.491505" id="Path" stroke="#000000" stroke-width="0.5" fill="none" stroke-linecap="round" stroke-linejoin="round"></line>
                                    <path d="M160.830915,38.10716 C160.307268,37.706602 159.704225,37.4223106 159.062015,37.27325 C158.602237,37.162251 158.132279,37.0987431 157.65953,37.083725 C156.988256,38.9614148 156.142212,40.7719495 155.13253,42.491505 L154.87983,42.921095 C155.188385,44.8489311 155.374073,46.7944327 155.43577,48.74583 C155.415648,49.1993719 155.364993,49.6510429 155.28415,50.097775 C155.28415,50.097775 155.28415,50.18622 155.28415,50.23676 L156.54765,50.16095 C158.572148,49.9501173 160.374578,48.7860479 161.39949,47.02747 C161.949271,46.0177086 162.296901,44.9104415 162.422925,43.76764 C162.81461,40.722605 162.018605,39.029515 160.856185,38.10716" id="Path" stroke="none" fill="#F2C6A5" fill-rule="nonzero"></path>
                                    <line x1="157.65953" y1="37.083725" x2="157.571085" y2="37.083725" id="Path" stroke="none" fill="#F3D19F" fill-rule="nonzero"></line>
                                    <line x1="157.65953" y1="37.083725" x2="157.571085" y2="37.083725" id="Path" stroke="#000000" stroke-width="0.5" fill="none" stroke-linecap="round" stroke-linejoin="round"></line>
                                    <path d="M159.30208,39.47174 C159.30208,39.47174 156.77508,40.12876 156.59819,43.94453 C156.407857,44.9011547 156.111199,45.833509 155.71374,46.72423" id="Path" stroke="#000000" stroke-width="0.5" fill="none" stroke-linecap="round" stroke-linejoin="round"></path>
                                    <path d="M138.985,41.556515 C138.985,41.556515 143.63468,40.520445 142.712325,45.852415" id="Path" stroke="#000000" stroke-width="0.5" fill="none" stroke-linecap="round" stroke-linejoin="round"></path>
                                    <path d="M118.87008,36.94474 C120.7906,38.99161 120.74006,50.097775 120.879045,50.956955 C121.146589,52.8717993 121.740625,54.7265593 122.63531,56.440545 C122.758056,56.6725437 123.031964,56.7799586 123.279695,56.693245 C123.279695,56.693245 123.507125,56.693245 123.84827,54.91171 L125.11177,32.24452 L124.98542,30.98102 L120.525265,32.24452" id="Path" stroke="none" fill="#684642" fill-rule="nonzero"></path>
                                    <path d="M157.545815,32.24452 C158.506075,39.585455 156.282315,54.91171 156.282315,54.91171 C155.94117,56.65534 155.71374,56.693245 155.71374,56.693245 C155.466009,56.7799586 155.192101,56.6725437 155.069355,56.440545 C154.399374,54.591864 153.97459,52.6633425 153.805855,50.704255 C153.679505,49.845075 154.50078,39.47174 154.387065,33.015255" id="Path" stroke="none" fill="#684642" fill-rule="nonzero"></path>
                                    <line x1="134.120525" y1="26.343975" x2="134.10789" y2="26.343975" id="Path" stroke="#000000" stroke-width="0.5" fill="none" stroke-linecap="round" stroke-linejoin="round"></line>
                                    <path d="M131.214475,39.06742 C130.557455,39.06742 130.026785,38.271415 130.026785,37.29852 C130.026785,36.325625 130.557455,35.52962 131.214475,35.52962 C131.871495,35.52962 132.402165,36.325625 132.402165,37.29852 C132.402165,38.271415 131.871495,39.06742 131.214475,39.06742 Z" id="Path" stroke="#000000" stroke-width="0.5" fill="none" stroke-linecap="round" stroke-linejoin="round"></path>
                                    <path d="M132.402165,37.29852 C132.402165,38.271415 131.871495,39.06742 131.214475,39.06742 C130.557455,39.06742 130.026785,38.271415 130.026785,37.29852 C130.026785,36.325625 130.557455,35.52962 131.214475,35.52962 C131.871495,35.52962 132.402165,36.325625 132.402165,37.29852" id="Path" stroke="none" fill="#000000" fill-rule="nonzero"></path>
                                    <path d="M131.214475,35.52962 C130.561471,35.7187664 129.86436,35.687685 129.23078,35.441175" id="Path" stroke="#000000" stroke-width="0.5" fill="none" stroke-linecap="round" stroke-linejoin="round"></path>
                                    <path d="M146.300665,37.184805 C146.300665,38.1577 146.831335,38.953705 147.488355,38.953705 C148.145375,38.953705 148.676045,38.1577 148.676045,37.184805 C148.676045,36.21191 148.13274,35.415905 147.488355,35.415905 C146.84397,35.415905 146.300665,36.199275 146.300665,37.184805" id="Path" stroke="#000000" stroke-width="0.5" fill="#000000" fill-rule="nonzero"></path>
                                    <path d="M147.488355,35.378 C148.131051,35.599418 148.829354,35.599418 149.47205,35.378" id="Path" stroke="#000000" stroke-width="0.5" fill="none" stroke-linecap="round" stroke-linejoin="round"></path>
                                    <path d="M108.30722,16.261245 C107.484125,17.3153351 106.324708,18.0555785 105.02212,18.358655 C103.96078,18.67453 106.28562,22.66719 109.24221,19.53371" id="Path" stroke="none" fill="#563634" fill-rule="nonzero"></path>
                                    <path d="M108.30722,18.661895 C108.478691,20.028438 108.012852,21.3980022 107.04372,22.376585 C106.36143,23.235765 110.745775,24.903585 111.06165,20.607685" id="Path" stroke="none" fill="#563634" fill-rule="nonzero"></path>
                                    <path d="M120.424185,47.93719 C120.424185,48.4047239 120.045174,48.783735 119.57764,48.783735 C119.110106,48.783735 118.731095,48.4047239 118.731095,47.93719 C118.731095,47.4696561 119.110106,47.090645 119.57764,47.090645 C120.045174,47.090645 120.424185,47.4696561 120.424185,47.93719" id="Path" stroke="none" fill="#8C6FD5" fill-rule="nonzero"></path>
                                    <path d="M128.877,32.585665 C128.877,32.585665 131.820955,29.5659 133.37506,32.838365" id="Path" stroke="#000000" stroke-width="0.5" fill="none" stroke-linecap="round" stroke-linejoin="round"></path>
                                    <path d="M145.63101,34.1145 C145.63101,34.1145 148.574965,31.0821 150.12907,34.354565" id="Path" stroke="#000000" stroke-width="0.5" fill="none" stroke-linecap="round" stroke-linejoin="round"></path>
                                    <path d="M143.93792,56.996485 C141.94159,55.732985 137.026575,53.205985 132.56642,54.65901 C131.705373,53.8667332 131.242194,52.7319458 131.30292,51.563435 C135.498378,53.9335248 140.498819,54.4243939 145.07507,52.91538 C145.501283,52.7748161 145.79081,52.3786217 145.795265,51.92985 C145.795265,51.361275 145.795265,50.577905 145.795265,50.021965 C146.494251,50.0631251 147.121379,50.4652534 147.45045,51.083305 C148.600235,53.14281 147.0714,55.74562 143.91265,56.996485" id="Path" stroke="none" fill="#FF74BE" fill-rule="nonzero"></path>
                                    <path d="M143.93792,56.996485 C141.94159,55.732985 137.026575,53.205985 132.56642,54.65901 C131.705373,53.8667332 131.242194,52.7319458 131.30292,51.563435 C135.498378,53.9335248 140.498819,54.4243939 145.07507,52.91538 C145.501283,52.7748161 145.79081,52.3786217 145.795265,51.92985 C145.795265,51.361275 145.795265,50.577905 145.795265,50.021965 C146.494251,50.0631251 147.121379,50.4652534 147.45045,51.083305 C148.625505,53.14281 147.09667,55.74562 143.93792,56.996485 Z" id="Path" stroke="#000000" stroke-width="0.5" fill="none" stroke-linecap="round" stroke-linejoin="round"></path>
                                    <path d="M145.83317,51.92985 C145.824926,52.377355 145.53683,52.7715906 145.112975,52.91538 C143.066105,53.559765 136.976035,55.01279 131.340825,51.563435 C131.401273,51.1148128 131.556314,50.6841447 131.795685,50.299935 C133.059185,48.126715 137.809945,50.299935 140.134785,50.38838 C142.459625,50.476825 144.41805,49.85771 145.820535,50.021965 C145.820535,50.54 145.820535,51.361275 145.83317,51.92985 Z" id="Path" stroke="#000000" stroke-width="0.5" fill="none" stroke-linecap="round" stroke-linejoin="round"></path>
                                    <path d="M145.83317,51.92985 C145.824926,52.377355 145.53683,52.7715906 145.112975,52.91538 C143.066105,53.559765 136.976035,55.01279 131.340825,51.563435 C131.401273,51.1148128 131.556314,50.6841447 131.795685,50.299935 C133.059185,48.126715 137.809945,50.299935 140.134785,50.38838 C142.459625,50.476825 144.41805,49.85771 145.820535,50.021965 C145.820535,50.577905 145.820535,51.361275 145.820535,51.92985" id="Path" stroke="none" fill="#FFFFFF" fill-rule="nonzero"></path>
                                    <path d="M145.83317,51.92985 C145.824926,52.377355 145.53683,52.7715906 145.112975,52.91538 C143.066105,53.559765 136.976035,55.01279 131.340825,51.563435 C131.401273,51.1148128 131.556314,50.6841447 131.795685,50.299935 C133.059185,48.126715 137.809945,50.299935 140.134785,50.38838 C142.459625,50.476825 144.41805,49.85771 145.820535,50.021965 C145.820535,50.54 145.820535,51.361275 145.83317,51.92985 Z" id="Path" stroke="#000000" stroke-width="0.5" fill="none" stroke-linecap="round" stroke-linejoin="round"></path>
                                    <path d="M143.93792,56.996485 C142.635879,57.4970753 141.251748,57.7499043 139.856815,57.74195 C137.158303,57.6533835 134.591874,56.552841 132.6675,54.65901 C137.08975,53.205985 142.004765,55.77089 144.039,56.996485" id="Path" stroke="none" fill="#F9487B" fill-rule="nonzero"></path>
                                    <path d="M143.93792,56.996485 C142.635879,57.4970753 141.251748,57.7499043 139.856815,57.74195 C137.158303,57.6533835 134.591874,56.552841 132.6675,54.65901 C137.026575,53.205985 141.94159,55.77089 143.93792,56.996485 Z" id="Path" stroke="#000000" stroke-width="0.5" fill="none" stroke-linecap="round" stroke-linejoin="round"></path>
                                    <path d="M144.51913,66.396925 C141.922308,69.0572558 139.045928,71.4295278 135.939965,73.472525 C132.03575,72.209025 128.67484,67.963665 127.095465,65.55038 C127.954645,65.436665 128.82646,65.360855 129.723545,65.310315 C129.78675,65.0738166 129.833193,64.8331543 129.86253,64.59012 C130.05951,62.9596375 130.135527,61.3168107 130.08996,59.675105 C131.98665,60.2351588 133.940693,60.5784939 135.914695,60.69854 C136.38219,60.69854 136.83705,60.786985 137.26664,60.79962 C138.209394,60.8494955 139.154126,60.8494955 140.09688,60.79962 L141.246665,60.79962 C141.246665,62.06312 141.246665,63.541415 141.33511,64.59012 C141.33511,65.082885 141.398285,65.512475 141.423555,65.85362 C142.409085,65.967335 143.45779,66.169495 144.51913,66.396925 Z" id="Path" stroke="none" fill="#F2C6A5" fill-rule="nonzero"></path>
                                    <circle id="Oval" stroke="none" fill="#F2C6A5" fill-rule="nonzero" cx="182.007175" cy="70.743365" r="5.20562"></circle>
                                    <path d="M175.52542,69.13872 C175.27272,67.988935 177.382765,66.18213 177.357495,64.71647 C177.30665,63.8129313 177.171285,62.9161411 176.953175,62.03785 C176.953175,62.03785 183.68763,58.24735 188.552105,62.97284 C188.552105,62.97284 188.122515,66.927595 187.996165,67.87522 C187.772568,69.4678328 187.404638,71.036819 186.89692,72.562805 L177.584925,73.43462 C176.723927,72.0930447 176.032174,70.6501238 175.52542,69.13872 L175.52542,69.13872 Z" id="Path" stroke="none" fill="#F2C6A5" fill-rule="nonzero"></path>
                                    <path d="M175.310625,53.19335 C173.93341,53.711385 174.91894,56.25102 175.8792,58.95491 C176.61203,61.00178 176.953175,62.03785 176.953175,62.03785 L180.339355,61.73461 C179.985878,60.3749463 179.564178,59.0339392 179.075855,57.71668 C178.07769,55.075965 176.700475,52.675315 175.310625,53.19335 Z" id="Path" stroke="none" fill="#F2C6A5" fill-rule="nonzero"></path>
                                    <path d="M171.28006,64.046815 C170.307165,65.158695 172.379305,66.94023 174.501985,68.86075 C175.516534,69.7834009 176.442894,70.79859 177.26905,71.89315 L179.303285,68.88602 C178.539658,67.9375773 177.694064,67.05816 176.776285,66.25794 C174.6157,64.4385 172.252955,62.934935 171.28006,64.046815 Z" id="Path" stroke="none" fill="#F2C6A5" fill-rule="nonzero"></path>
                                    <path d="M180.78158,50.96959 C179.303285,51.12121 179.732875,54.520025 179.97294,57.375535 C180.096764,58.7415263 180.096764,60.1159187 179.97294,61.48191 L183.4602,60.648 C183.56055,59.4244591 183.56055,58.1947559 183.4602,56.971215 C183.093785,54.191515 182.24724,50.830605 180.78158,50.96959 Z" id="Path" stroke="none" fill="#F2C6A5" fill-rule="nonzero"></path>
                                    <path d="M185.822945,53.332335 C184.483635,53.130175 184.31938,55.51819 183.902425,58.09573 C183.753468,59.1740515 183.415575,60.2176696 182.90426,61.17867 L186.34098,61.58299 C186.647449,60.5880925 186.871425,59.5696356 187.010635,58.537955 C187.37705,55.985685 187.14962,53.534495 185.822945,53.332335 Z" id="Path" stroke="none" fill="#F2C6A5" fill-rule="nonzero"></path>
                                    <path d="M189.07014,56.70588 C188.08461,56.42791 187.80664,58.209445 187.17489,60.11733 C186.965566,60.9107721 186.614569,61.6598521 186.13882,62.328455 L188.248865,63.25081 C188.802717,62.4816213 189.229325,61.6284046 189.512365,60.72381 C189.992495,58.841195 190.05567,56.98385 189.07014,56.70588 Z" id="Path" stroke="none" fill="#F2C6A5" fill-rule="nonzero"></path>
                                    <path d="M176.73838,66.30848 C178.43147,67.988935 180.920565,66.94023 181.501775,70.55384" id="Path" stroke="#E2B486" stroke-width="0.5" fill="none" stroke-linecap="round" stroke-linejoin="round"></path>
                                    <path d="M161.033075,138.37852 C153.248265,143.284023 144.372843,146.191863 135.1945,146.84397 C120.86641,147.8295 105.312725,138.37852 105.312725,138.37852 C105.312725,138.37852 105.3759,137.254005 105.55279,135.358755 C112.742105,139.705195 136.30638,151.24095 160.9699,134.53748 C161.09654,135.813911 161.11767,137.098614 161.033075,138.37852 L161.033075,138.37852 Z" id="Path" stroke="none" fill="#8E388E" fill-rule="nonzero"></path>
                                    <path d="M146.427015,66.86442 C143.43252,71.03397 136.041045,75.10244 136.041045,75.10244 C133.34979,75.73419 126.918575,69.050275 124.20205,65.9547 C124.538983,65.8873133 124.880128,65.8367733 125.225485,65.80308 L125.225485,65.80308 C125.81933,65.714635 126.488985,65.638825 127.044925,65.57565 C128.67484,67.988935 132.098925,72.284835 135.889425,73.497795 C138.995388,71.4547978 141.871768,69.0825258 144.46859,66.422195 L145.289865,66.599085 L145.289865,66.775975 C145.295952,66.7256183 145.295952,66.6747117 145.289865,66.624355 L146.427015,66.86442 Z" id="Path" stroke="none" fill="#8E388E" fill-rule="nonzero"></path>
                                    <path d="M184.609985,79.057195 L183.81398,82.53182 L183.28331,82.53182 C180.828452,82.4856533 178.438443,81.7357604 176.397235,80.371235 C176.76365,79.183545 177.09216,78.021125 177.37013,76.94715 C179.374069,78.6470777 182.006526,79.4143034 184.609985,79.057195 L184.609985,79.057195 Z" id="Path" stroke="none" fill="#8E388E" fill-rule="nonzero"></path>
                                    <path d="M5.20562,55.69508 C5.117175,56.440545 5.00346,57.43871 5.00346,57.43871 L0.644385,92.2355 C-0.619115,100.65041 3.651515,102.634105 6.49439,101.395875 C12.950875,98.57827 22.61665,90.453965 32.610935,79.714215 C28.58037,78.678145 25.788035,77.55363 25.64905,72.55017 C20.84775,78.337 14.568155,82.48128 10.108,85.918 C10.108,85.918 12.470745,58.72748 12.635,57.880935 C11.3729241,58.6453971 9.84619823,58.8398074 8.43281466,58.4160331 C7.01943108,57.9922588 5.85152652,56.9899184 5.218255,55.657175 L5.20562,55.69508 Z" id="Path" stroke="none" fill="#F2C6A5" fill-rule="nonzero"></path>
                                    <path d="M5.294065,55.480285 C5.294065,55.480285 5.294065,55.82143 5.218255,56.25102 L5.218255,56.25102 C5.87839465,57.5586067 7.05538281,58.5304607 8.46425152,58.9312802 C9.87312024,59.3320998 11.3854206,59.1253415 12.635,58.361065 C12.635,58.133635 12.723445,57.91884 12.773985,57.729315 C12.81642,57.4937772 12.8755321,57.2615512 12.950875,57.03439 L9.83003,56.415275 L9.83003,56.415275 L5.294065,55.480285 Z" id="Path" stroke="none" fill="#F3D19F" fill-rule="nonzero"></path>
                                    <path d="M4.687585,53.95145 C4.68118446,53.9975573 4.68118446,54.0443277 4.687585,54.090435 C4.70469868,54.8407247 4.88582706,55.5781759 5.218255,56.25102 L5.218255,56.25102 C5.97468581,57.7884045 7.43763914,58.8564944 9.13237727,59.1086875 C10.8271154,59.3608807 12.5376774,58.7650402 13.708975,57.51452 L13.708975,57.51452 C13.9076833,57.2971992 14.0893243,57.0648678 14.25228,56.819595 C15.1343669,55.4185272 15.3208495,53.6889006 14.75768,52.13201 C14.7391075,52.0184137 14.7050996,51.907888 14.6566,51.8035 C13.8809964,50.0591115 12.2127865,48.8792043 10.3096633,48.7289578 C8.40654001,48.5787112 6.57384901,49.4822314 5.53413,51.083305 C4.96908471,51.9320688 4.67398166,52.9318956 4.687585,53.95145 L4.687585,53.95145 Z" id="Path" stroke="none" fill="#F2C6A5" fill-rule="nonzero"></path>
                                    <path d="M16.55185,54.520025 C17.15833,53.509225 15.74321,51.108575 16.235975,49.73136 C16.5798518,48.892789 17.0029345,48.0889317 17.499475,47.33071 C17.499475,47.33071 12.369665,41.531245 6.229055,44.4752 C6.229055,44.4752 5.369875,48.36678 5.18035,49.30177 C4.87577113,50.8799558 4.71925976,52.4831398 4.712855,54.090435 L13.24148,57.880935 C14.4748546,56.8964733 15.5861877,55.7681732 16.55185,54.520025 L16.55185,54.520025 Z" id="Path" stroke="none" fill="#F2C6A5" fill-rule="nonzero"></path>
                                    <path d="M21.88382,39.484375 C23.033605,40.419365 21.27734,42.516775 19.495805,44.75317 C18.14386,46.458895 17.474205,47.28017 17.474205,47.28017 L14.37863,45.902955 C14.37863,45.902955 15.64213,44.032975 16.90563,42.50414 C18.64926,40.432 20.734035,38.549385 21.88382,39.484375 Z" id="Path" stroke="none" fill="#F2C6A5" fill-rule="nonzero"></path>
                                    <path d="M22.199695,51.07067 C22.743,52.43525 20.216,53.44605 17.600555,54.570565 C16.3456807,55.1194267 15.1444218,55.783503 14.012215,56.55426 L13.03932,53.067 C14.0808952,52.4157328 15.1756061,51.853584 16.311785,51.386545 C18.9525,50.325205 21.643755,49.70609 22.199695,51.07067 Z" id="Path" stroke="none" fill="#F2C6A5" fill-rule="nonzero"></path>
                                    <path d="M17.423665,35.6307 C18.77561,36.23718 17.272045,39.32012 16.160165,41.9482 C15.6216319,43.2043088 15.1987156,44.5068911 14.896665,45.83978 L11.80109,43.94453 C12.1217882,42.7603935 12.5445375,41.6062879 13.06459,40.495175 C14.20174,37.905 16.084355,35.011585 17.423665,35.6307 Z" id="Path" stroke="none" fill="#F2C6A5" fill-rule="nonzero"></path>
                                    <path d="M11.889535,36.23718 C13.228845,36.477245 12.60973,38.76418 12.167505,41.36699 C11.9751031,42.4365932 11.9751031,43.5319468 12.167505,44.60155 L8.781325,43.86872 C8.81436035,42.8295598 8.92842146,41.7945609 9.12247,40.773145 C9.564695,38.23351 10.56286,35.997115 11.889535,36.23718 Z" id="Path" stroke="none" fill="#F2C6A5" fill-rule="nonzero"></path>
                                    <path d="M7.73262,38.38513 C8.756055,38.38513 8.503355,40.22984 8.427545,42.17563 C8.37411773,42.9977136 8.46389724,43.82283 8.69288,44.614185 L6.405945,44.80371 C6.14105717,43.9018297 6.02163202,42.9634893 6.052165,42.02401 C6.16588,40.10349 6.709185,38.321955 7.73262,38.38513 Z" id="Path" stroke="none" fill="#F2C6A5" fill-rule="nonzero"></path>
                                    <path d="M16.311785,51.437085 C14.163835,52.498425 12.142235,50.69162 10.43651,53.964085" id="Path" stroke="#E2B486" stroke-width="0.5" fill="none" stroke-linecap="round" stroke-linejoin="round"></path>
                                    <path d="M46.7495,65.285045 C46.7495,71.602545 26.98836,88.14176 26.98836,88.14176 C24.6147563,87.6235625 22.4030738,86.5350679 20.54451,84.970375 C18.1829086,82.7278187 16.6470465,79.7540335 16.185435,76.530195 C16.185435,76.530195 33.00262,59.10653 39.054785,59.3845 C41.4428,59.472945 46.7495,62.89703 46.7495,65.285045 Z" id="Path" stroke="none" fill="#7D9E18" fill-rule="nonzero"></path>
                                    <path d="M70.566475,22.9957 L70.40222,24.58771 C73.56097,25.85121 79.24672,24.89095 81.77372,24.36028 C81.69791,24.81514 81.6221,25.27 81.533655,25.712225 L81.533655,25.712225 C81.3694,26.60931 81.19251,27.481125 81.002985,28.315035 C80.1059,32.42141 79.057195,35.618065 79.057195,35.618065 L39.762345,35.516985 C39.762345,35.516985 39.155865,32.332965 38.574655,28.25186 C40.4335811,28.3223039 42.2951414,28.267428 44.14669,28.087605 C44.42466,27.278965 44.67736,26.419785 44.93006,25.560605 L44.93006,25.560605 C44.93006,25.459525 44.93006,25.37108 44.93006,25.282635 C42.6767957,25.5962415 40.3930909,25.6259551 38.13243,25.37108 L38.018715,24.36028 C40.4260561,24.5480678 42.8456936,24.5099965 45.245935,24.246565 C45.422825,23.60218 45.574445,22.983065 45.71343,22.300775 C43.0926215,22.6484937 40.4373635,22.6484937 37.816555,22.300775 C37.47541,18.510275 37.3996,14.795585 38.00608,12.76135 C40.090855,5.900545 44.32358,1.86998 57.678775,0.98553 C74.104275,-0.10108 78.779225,7.30303 81.44521,13.481545 C82.392835,15.680035 82.392835,19.00304 81.97588,22.41449 C77.37674,23.665355 70.566475,22.9957 70.566475,22.9957 Z" id="Path" stroke="none" fill="#3F4E66" fill-rule="nonzero"></path>
                                    <path d="M82.013785,22.38922 C81.937975,23.04624 81.84953,23.70326 81.74845,24.36028 C79.22145,24.89095 73.573605,25.838575 70.37695,24.58771 L70.541205,22.9957 C70.541205,22.9957 77.389375,23.665355 82.013785,22.38922 Z" id="Path" stroke="none" fill="#5C6E87" fill-rule="nonzero"></path>
                                    <path d="M81.533655,25.434255 C81.533655,25.5227 81.533655,25.611145 81.533655,25.712225 L81.533655,25.712225 C81.3694,26.60931 81.19251,27.481125 81.002985,28.315035 C78.337,28.845705 73.05557,29.654345 70.035805,28.466655 L70.12425,25.939655 C70.12425,25.939655 76.909245,26.71039 81.533655,25.434255 Z" id="Path" stroke="none" fill="#5C6E87" fill-rule="nonzero"></path>
                                    <path d="M45.7387,22.28814 C45.599715,22.94516 45.448095,23.55164 45.271205,24.23393 C42.8709636,24.4973615 40.4513261,24.5354328 38.043985,24.347645 C37.968175,23.665355 37.905,22.97043 37.841825,22.275505 C40.4620771,22.6274174 43.1173352,22.6316659 45.7387,22.28814 L45.7387,22.28814 Z" id="Path" stroke="none" fill="#5C6E87" fill-rule="nonzero"></path>
                                    <path d="M44.95533,25.27 C44.95533,25.358445 44.95533,25.44689 44.95533,25.54797 L44.95533,25.54797 C44.70263,26.419785 44.44993,27.278965 44.17196,28.07497 C42.3204114,28.254793 40.4588511,28.3096689 38.599925,28.239225 C38.473575,27.304235 38.347225,26.318705 38.220875,25.307905 C40.458598,25.5742611 42.7207471,25.5615286 44.95533,25.27 L44.95533,25.27 Z" id="Path" stroke="none" fill="#5C6E87" fill-rule="nonzero"></path>
                                    <path d="M79.158275,136.93813 C79.158275,137.69623 64.072085,141.99213 51.98039,141.170855 C43.86872,140.614915 33.823895,135.54828 33.748085,135.01761 C33.55856,133.75411 33.621735,131.98521 33.748085,132.84439 C33.823895,133.362425 43.856085,138.42906 51.98039,138.985 C64.072085,139.806275 79.107735,135.510375 79.158275,134.752275 L79.158275,136.93813 Z" id="Path" stroke="none" fill="#7D9E18" fill-rule="nonzero"></path>
                                    <path d="M85.399965,64.173165 C83.94694,71.31194 79.62577,86.80245 78.703415,95.128915 C77.818965,103.063695 79.638405,127.373435 79.158275,134.752275 C79.158275,135.510375 64.072085,139.806275 51.98039,138.985 C43.86872,138.42906 33.823895,133.362425 33.748085,132.84439 C33.6118612,131.771469 33.540134,130.691342 33.53329,129.60983 C33.5269663,129.508849 33.5269663,129.407571 33.53329,129.30659 C33.596465,123.077535 34.24085,114.2204 34.152405,107.04372 C34.152405,104.97158 34.051325,103.038425 33.88707,101.35797 C33.76072,100.182915 32.0929,87.71217 31.827565,81.64737 C31.827565,80.48495 31.827565,79.335165 31.827565,78.21065 L31.827565,77.894775 C32.0095216,72.8066106 32.5669775,67.7388298 33.495385,62.732775 C33.5348776,61.6076412 34.2403524,60.6140147 35.289555,60.205775 C37.1628406,59.4575231 39.1321902,58.9768827 41.13956,58.77802 C42.011375,58.664305 42.996905,58.512685 43.982435,58.411605 C45.03114,61.671435 48.076175,66.38429 57.148105,65.992605 C57.148105,65.992605 65.47457,65.12079 69.783105,58.942275 C70.313775,58.942275 70.844445,59.068625 71.36248,59.1318 C75.0804422,59.4604168 78.7551878,60.1674243 82.32966,61.241845 C83.6953264,61.782539 84.7966326,62.8339919 85.399965,64.173165 Z" id="Path" stroke="none" fill="#95C11F" fill-rule="nonzero"></path>
                                    <path d="M68.229,58.65167 C56.02359,69.03764 48.985895,62.303185 46.19356,58.209445 C47.267535,58.121 48.39205,58.04519 49.592375,57.99465 C49.592375,57.350265 49.592375,56.516355 49.592375,55.631905 L49.592375,55.49292 C49.65555,53.130175 49.920885,50.43892 50.855875,49.37758 C52.91538,47.0022 63.971005,45.751335 63.75621,48.97326 C63.6426476,51.4039263 63.8551195,53.8388538 64.38796,56.213115 L64.38796,56.213115 C64.56485,57.05966 64.74174,57.76722 64.89336,58.29789 L68.229,58.65167 Z" id="Path" stroke="none" fill="#E2B486" fill-rule="nonzero"></path>
                                    <path d="M42.213535,41.859755 L40.242475,41.6955 C37.80392,41.34172 34.961045,39.913965 34.3672,35.30219 C33.975515,32.257155 34.758885,30.5767 35.921305,29.654345 C37.083725,28.73199 38.953705,27.329505 41.480705,30.09657 L42.213535,41.859755 Z" id="Path" stroke="none" fill="#F2C6A5" fill-rule="nonzero"></path>
                                    <path d="M36.81839,30.968385 C36.81839,30.968385 39.04215,31.63804 39.52228,35.441175 C39.6571748,36.407211 39.9563042,37.3430586 40.40673,38.20824" id="Path" stroke="#000000" stroke-width="0.5" fill="none" stroke-linecap="round" stroke-linejoin="round"></path>
                                    <line x1="73.725225" y1="33.621735" x2="73.725225" y2="33.950245" id="Path" stroke="none" fill="none"></line>
                                    <line x1="73.725225" y1="33.621735" x2="73.725225" y2="33.950245" id="Path" stroke="#000000" stroke-width="0.5" fill="none" stroke-linecap="round" stroke-linejoin="round"></line>
                                    <path d="M73.346175,41.49334 L75.317235,41.34172 C77.75579,40.98794 80.598665,39.54755 81.19251,34.935775 C81.584195,31.903375 80.800825,30.210285 79.638405,29.28793 C78.475985,28.365575 76.61864,26.96309 74.079005,29.730155 L73.346175,41.49334 Z" id="Path" stroke="none" fill="#F2C6A5" fill-rule="nonzero"></path>
                                    <path d="M78.74132,30.60197 C78.74132,30.60197 76.530195,31.28426 76.03743,35.07476 C75.9069364,36.0458069 75.6076099,36.9865474 75.15298,37.85446" id="Path" stroke="#000000" stroke-width="0.5" fill="none" stroke-linecap="round" stroke-linejoin="round"></path>
                                    <path d="M64.84282,28.65618 C64.84282,29.629075 64.31215,30.42508 63.65513,30.42508 C62.99811,30.42508 62.46744,29.629075 62.46744,28.65618 C62.46744,27.683285 62.99811,26.88728 63.65513,26.88728 C64.31215,26.88728 64.84282,27.683285 64.84282,28.65618 Z" id="Path" stroke="none" fill="#F3D19F" fill-rule="nonzero"></path>
                                    <path d="M74.24326,34.354565 C74.2740899,37.5530644 74.1222227,40.7507142 73.7884,43.931895 C73.6801925,44.9200333 73.4684465,45.8940652 73.15665,46.837945 C71.89315,50.16095 69.06291,51.993025 66.220035,53.155445 C63.9783908,53.9941407 61.6225961,54.4883037 59.23288,54.621105 L57.880935,54.722185 C56.895405,54.722185 55.960415,54.78536 55.06333,54.722185 C53.8519103,54.6998237 52.6439218,54.5857829 51.44972,54.38104 C49.0400395,54.0226237 46.7375121,53.1430065 44.70263,51.8035 L44.29831,51.512895 L44.29831,51.512895 C42.895825,50.56527 41.56915,49.32704 40.50781,45.018505 C39.838155,42.30198 40.50781,30.740955 40.570985,29.71752 C40.9166253,27.0744961 41.0728552,24.4101419 41.03848,21.744835 C41.03848,21.466865 40.86159,20.481335 40.823685,20.24127 C40.394095,17.48684 40.950035,11.32096 44.816345,10.25962 C51.967755,8.28856 56.390005,15.162 56.390005,15.162 C56.390005,15.162 65.436665,8.41491 71.23613,11.90217 C74.887645,14.088025 73.674685,22.71773 73.573605,23.463195 C74.1292588,27.0655514 74.3534156,30.7112714 74.24326,34.354565 L74.24326,34.354565 Z" id="Path" stroke="none" fill="#F2C6A5" fill-rule="nonzero"></path>
                                    <path d="M73.7884,43.957165 C73.6801925,44.9453033 73.4684465,45.9193352 73.15665,46.863215 C71.89315,50.18622 69.06291,52.018295 66.220035,53.180715 C63.9783908,54.0194107 61.6225961,54.5135737 59.23288,54.646375 L57.880935,54.747455 C56.895405,54.747455 55.960415,54.747455 55.06333,54.747455 C53.8519103,54.7250937 52.6439218,54.6110529 51.44972,54.40631 C49.0380279,54.040227 46.7353631,53.151933 44.70263,51.8035 L44.29831,51.512895 L44.29831,51.512895 C42.895825,50.56527 41.77131,49.2765 40.50781,45.018505 C39.534915,41.64496 40.07822,34.910505 40.318285,32.04236 C40.38724,30.6294949 39.7416182,29.2765373 38.599925,28.441385 L41.505975,30.412445 C41.505975,30.412445 42.47887,35.769685 42.769475,37.19744 C43.072715,38.46094 43.16116,40.78578 44.2225,41.46807 C46.04194,42.643125 46.85058,39.82552 50.16095,39.661265 C52.523695,39.534915 54.88644,41.01321 56.47845,40.924765 C58.462145,40.83632 60.26895,38.701005 64.274245,38.83999 C66.9655,38.928435 67.26874,41.36699 68.747035,40.70997 C70.22533,40.05295 69.79574,37.968175 70.440125,35.794955 C70.93289,34.127135 71.172955,32.888905 71.48883,31.625405 C71.48883,31.625405 74.458055,31.069465 74.36961,31.777025 C74.225106,33.6189051 74.225106,35.4692749 74.36961,37.311155 C74.16745,40.646795 74.11691,41.46807 73.7884,43.957165 Z" id="Path" stroke="none" fill="#3F4E66" fill-rule="nonzero"></path>
                                    <line x1="39.69917" y1="34.177675" x2="39.69917" y2="33.849165" id="Path" stroke="none" fill="none"></line>
                                    <path d="M65.790445,30.14711 C66.447465,30.14711 67.053945,29.38901 67.053945,28.416115 C67.053945,27.44322 66.573815,26.63458 65.92943,26.60931 C65.285045,26.58404 64.66593,27.36741 64.66593,28.340305 C64.66593,29.3132 65.133425,30.12184 65.790445,30.14711 Z" id="Path" stroke="#000000" stroke-width="0.5" fill="#000000" fill-rule="nonzero"></path>
                                    <path d="M50.148315,28.517195 C50.148315,29.49009 49.50393,30.235555 48.884815,30.19765 C48.2657,30.159745 47.7603,29.325835 47.823475,28.35294 C47.88665,27.380045 48.480495,26.621945 49.086975,26.672485 C49.693455,26.723025 50.224125,27.531665 50.148315,28.517195" id="Path" stroke="#000000" stroke-width="0.5" fill="#000000" fill-rule="nonzero"></path>
                                    <path d="M67.710965,23.791705 C67.710965,23.791705 64.76701,20.77194 63.175,24.0065" id="Path" stroke="#000000" stroke-width="0.5" fill="none" stroke-linecap="round" stroke-linejoin="round"></path>
                                    <path d="M50.830605,25.34581 C50.830605,25.34581 47.874015,22.326045 46.332545,25.59851" id="Path" stroke="#000000" stroke-width="0.5" fill="none" stroke-linecap="round" stroke-linejoin="round"></path>
                                    <path d="M41.253275,25.5227 C40.25511,25.5227 39.26958,25.5227 38.347225,25.37108 C38.347225,25.0173 38.347225,24.676155 38.347225,24.372915 C39.3344807,24.4588152 40.3258318,24.4883448 41.31645,24.46136 C41.26591,24.802505 41.253275,25.156285 41.253275,25.5227 Z" id="Path" stroke="none" fill="#3F4E66" fill-rule="nonzero"></path>
                                    <path d="M41.505975,30.5767 L40.45727,30.85467 C40.0571953,29.9558684 39.4355132,29.1733315 38.650465,28.58037 C38.650465,28.491925 38.650465,28.40348 38.58729,28.289765 C39.52228,28.289765 40.444635,28.289765 41.31645,28.289765 C41.354355,29.13631 41.41753,29.91968 41.505975,30.5767 Z" id="Path" stroke="none" fill="#3F4E66" fill-rule="nonzero"></path>
                                    <path d="M77.920045,23.058875 C76.0938609,23.169679 74.2626391,23.169679 72.436455,23.058875 C72.9531877,21.9436098 73.343102,20.7738667 73.598875,19.571615 C73.699955,17.120425 71.84261,13.254115 66.10632,13.254115 C64.5239603,13.1326504 62.9359843,13.4016518 61.48191,14.037485 C59.3845,15.300985 57.223915,17.827985 53.39551,17.398395 C51.108575,17.15833 49.819805,15.94537 49.95879,14.50498 C50.0346,13.835325 48.69529,13.24148 46.559975,13.24148 C38.701005,13.16567 41.809215,19.849585 41.430165,22.275505 C41.4239531,22.3258541 41.4239531,22.3767759 41.430165,22.427125 C40.368825,22.427125 39.332755,22.326045 38.397765,22.224965 L40.00241,12.33176 L45.486,8.579165 L55.252855,6.936615 L70.237965,7.581 L75.291965,14.75768 C76.3776846,17.453934 77.2562574,20.2290413 77.920045,23.058875 L77.920045,23.058875 Z" id="Path" stroke="none" fill="#3F4E66" fill-rule="nonzero"></path>
                                    <path d="M79.688945,29.16158 C79.4560011,28.9894163 79.2062419,28.8412541 78.94348,28.719355 L78.94348,28.719355 C78.3685325,28.4211251 77.7118387,28.3190714 77.0735,28.42875 C76.6100421,28.5412498 76.1780746,28.7572336 75.81,29.0605 C75.2042325,29.5945705 74.7655048,30.2921476 74.5465,31.069465 L71.71626,30.70305 C71.71626,30.14711 71.79207,29.578535 71.84261,28.972055 C71.84261,28.07497 71.981595,27.13998 72.07004,26.17972 C72.07004,26.10391 72.07004,26.015465 72.07004,25.939655 L72.14585,25.04257 C74.1668697,25.2778643 76.2099682,25.2481311 78.223285,24.954125 C78.2525248,25.1746283 78.3076569,25.3909158 78.38754,25.59851 L78.526525,25.97756 C78.8424,26.83674 79.3478,27.92335 79.6005,28.593005 L79.6005,28.593005 C79.80266,29.0605 79.8532,29.275295 79.688945,29.16158 Z" id="Path" stroke="none" fill="#3F4E66" fill-rule="nonzero"></path>
                                    <path d="M78.26119,24.954125 C76.2478732,25.2481311 74.2047747,25.2778643 72.183755,25.04257 L72.335375,23.47583 C72.3621265,23.3546049 72.4001985,23.2361587 72.44909,23.12205 C74.2752741,23.232854 76.1064959,23.232854 77.93268,23.12205 C78.0773181,23.7259173 78.1870037,24.3376249 78.26119,24.954125 Z" id="Path" stroke="none" fill="#5C6E87" fill-rule="nonzero"></path>
                                    <path d="M79.6005,28.593005 L78.905575,28.719355 L78.905575,28.719355 C78.3415895,28.4293169 77.6995555,28.327477 77.0735,28.42875 C76.6100421,28.5412498 76.1780746,28.7572336 75.81,29.0605 C74.4921592,29.1651786 73.1670884,29.1355445 71.855245,28.972055 C71.855245,28.07497 71.99423,27.13998 72.082675,26.17972 C74.2452438,26.2791357 76.4122598,26.2115485 78.56443,25.97756 C78.880305,26.83674 79.385705,27.92335 79.6005,28.593005 Z" id="Path" stroke="none" fill="#5C6E87" fill-rule="nonzero"></path>
                                    <path d="M41.41753,22.528205 C41.3362576,23.1696006 41.2898611,23.8149349 41.278545,24.46136 C40.2879268,24.4883448 39.2965757,24.4588152 38.30932,24.372915 C38.30932,23.60218 38.30932,23.109415 38.30932,23.109415 L38.423035,22.376585 C39.32012,22.427125 40.35619,22.502935 41.41753,22.528205 Z" id="Path" stroke="none" fill="#5C6E87" fill-rule="nonzero"></path>
                                    <path d="M41.31645,28.315035 C40.444635,28.315035 39.52228,28.315035 38.58729,28.315035 C38.4523425,27.34744 38.372193,26.3729909 38.347225,25.39635 C39.26958,25.484795 40.25511,25.535335 41.253275,25.54797 C41.253275,26.43242 41.26591,27.39268 41.31645,28.315035 Z" id="Path" stroke="none" fill="#5C6E87" fill-rule="nonzero"></path>
                                    <path d="M71.74153,30.324 C71.74153,30.324 75.393045,28.972055 75.0519,29.730155 C74.6116092,30.7222342 74.3424705,31.7817007 74.255895,32.863635 L71.46356,31.81493 L71.74153,30.324 Z" id="Path" stroke="none" fill="#3F4E66" fill-rule="nonzero"></path>
                                    <path d="M44.2225,4.182185 C44.2225,4.182185 40.040315,4.32117 39.534915,5.445685 C39.32012,5.91318 40.45727,7.315665 40.45727,7.315665 C40.45727,7.315665 37.184805,8.0864 37.07109,9.034025 C37.07109,9.488885 38.473575,10.20908 38.473575,10.20908 C38.473575,10.20908 36.48988,11.90217 36.6415,12.635 C36.729945,13.026685 37.905,13.29202 38.094525,13.329925 C38.28405,13.36783 44.2225,4.182185 44.2225,4.182185 Z" id="Path" stroke="none" fill="#3F4E66" fill-rule="nonzero"></path>
                                    <path d="M58.866465,34.21558 C55.8467,33.38167 51.50026,33.267955 53.067,38.58729" id="Path" stroke="#000000" stroke-width="0.5" fill="none" stroke-linecap="round" stroke-linejoin="round"></path>
                                    <path d="M52.751125,50.26203 C54.73482,48.99853 59.66247,46.47153 64.122625,47.924555 C64.9841999,47.1273396 65.4471086,45.9885842 65.386125,44.816345 C61.1926144,47.1925906 56.1895126,47.6837208 51.613975,46.16829 C51.1878409,46.0300506 50.9011456,45.630725 50.906415,45.18276 C50.906415,44.62682 50.906415,43.84345 50.906415,43.28751 C50.206232,43.3242039 49.5750597,43.7210774 49.238595,44.336215 C48.08881,46.408355 49.617645,49.011165 52.78903,50.26203 L52.751125,50.26203 Z" id="Path" stroke="none" fill="#FF74BE" fill-rule="nonzero"></path>
                                    <path d="M52.751125,50.26203 C54.73482,48.99853 59.66247,46.47153 64.122625,47.924555 C64.9841999,47.1273396 65.4471086,45.9885842 65.386125,44.816345 C61.1926144,47.1925906 56.1895126,47.6837208 51.613975,46.16829 C51.1878409,46.0300506 50.9011456,45.630725 50.906415,45.18276 C50.906415,44.62682 50.906415,43.84345 50.906415,43.28751 C50.206232,43.3242039 49.5750597,43.7210774 49.238595,44.336215 C48.013,46.408355 49.57974,49.011165 52.751125,50.26203 Z" id="Path" stroke="#000000" stroke-width="0.5" fill="none" stroke-linecap="round" stroke-linejoin="round"></path>
                                    <path d="M50.8558036,45.18276 C50.8506056,45.630725 51.1373009,46.0300506 51.563435,46.16829 C56.1389726,47.6837208 61.1420744,47.1925906 65.335585,44.816345 C65.2816976,44.3680576 65.1307899,43.9368925 64.89336,43.552845 C63.62986,41.379625 58.8791,43.552845 56.541625,43.628655 C54.20415,43.704465 52.25836,43.11062 50.86851,43.274875 C50.86851,43.84345 50.8558036,44.62682 50.8558036,45.18276 Z" id="Path" stroke="#000000" stroke-width="0.5" fill="none" stroke-linecap="round" stroke-linejoin="round"></path>
                                    <path d="M50.8558036,45.18276 C50.8506056,45.630725 51.1373009,46.0300506 51.563435,46.16829 C56.1389726,47.6837208 61.1420744,47.1925906 65.335585,44.816345 C65.2816976,44.3680576 65.1307899,43.9368925 64.89336,43.552845 C63.62986,41.379625 58.8791,43.552845 56.541625,43.628655 C54.20415,43.704465 52.25836,43.11062 50.86851,43.274875 C50.86851,43.830815 50.86851,44.614185 50.86851,45.170125 L50.8558036,45.18276 Z" id="Path" stroke="none" fill="#FFFFFF" fill-rule="nonzero"></path>
                                    <path d="M50.8558036,45.18276 C50.8506056,45.630725 51.1373009,46.0300506 51.563435,46.16829 C56.1389726,47.6837208 61.1420744,47.1925906 65.335585,44.816345 C65.2816976,44.3680576 65.1307899,43.9368925 64.89336,43.552845 C63.62986,41.379625 58.8791,43.552845 56.541625,43.628655 C54.20415,43.704465 52.25836,43.11062 50.86851,43.274875 C50.86851,43.84345 50.8558036,44.62682 50.8558036,45.18276 Z" id="Path" stroke="#000000" stroke-width="0.5" fill="none" stroke-linecap="round" stroke-linejoin="round"></path>
                                    <path d="M52.751125,50.26203 C54.053428,50.7603325 55.43792,51.008941 56.83223,50.99486 C59.5468953,50.9235492 62.1337624,49.8265008 64.072085,47.924555 C59.66247,46.47153 54.73482,49.036435 52.700585,50.26203 L52.751125,50.26203 Z" id="Path" stroke="none" fill="#F9487B" fill-rule="nonzero"></path>
                                    <path d="M52.751125,50.26203 C54.053428,50.7603325 55.43792,51.008941 56.83223,50.99486 C59.5468953,50.9235492 62.1337624,49.8265008 64.072085,47.924555 C59.66247,46.47153 54.73482,49.036435 52.751125,50.26203 Z" id="Path" stroke="#000000" stroke-width="0.5" fill="none" stroke-linecap="round" stroke-linejoin="round"></path>
                                    <path d="M69.783105,58.85383 C65.49984,65.032345 57.148105,65.90416 57.148105,65.90416 C48.076175,66.346385 44.967965,61.671435 43.91926,58.411605 L46.11775,58.209445 C48.910085,62.303185 55.94778,69.03764 68.15319,58.65167 L69.783105,58.85383 Z" id="Path" stroke="none" fill="#7D9E18" fill-rule="nonzero"></path>
                                    <path d="M75.53203,69.87155 C75.53203,69.87155 83.21411,111.56705 83.428905,117.60658 L94.08021,115.76187 C94.08021,115.76187 87.926965,75.32987 84.45234,67.306645 L75.53203,69.87155 Z" id="Path" stroke="none" fill="#F2C6A5" fill-rule="nonzero"></path>
                                    <path d="M83.391,61.70934 C88.760875,65.07025 92.51347,90.504505 92.51347,90.504505 C90.8322582,92.2449469 88.7498229,93.546469 86.44867,94.295005 C83.3024365,95.1438946 79.9611572,94.8988674 76.97242,93.60008 C76.97242,93.60008 70.95816,70.09898 74.356975,65.082885 C75.65838,63.175 81.331495,60.433205 83.391,61.70934 Z" id="Path" stroke="none" fill="#7D9E18" fill-rule="nonzero"></path>
                                    <path d="M92.475565,143.12928 L92.13442,148.954015 L84.136465,145.47939 L84.136465,141.68889 C86.587655,143.849475 90.504505,143.495695 92.475565,143.12928 Z" id="Path" stroke="none" fill="#F2C6A5" fill-rule="nonzero"></path>
                                    <path d="M94.08021,115.76187 L92.601915,141.03187 C89.6452416,141.676908 86.5533768,141.093193 84.035385,139.41459 L83.656335,116.810575 L94.08021,115.76187 Z" id="Path" stroke="none" fill="#F2C6A5" fill-rule="nonzero"></path>
                                    <path d="M92.601915,141.08241 L92.475565,143.12928 C90.504505,143.495695 86.587655,143.849475 84.07329,141.676255 L84.07329,139.46513 C86.581276,141.133434 89.6572822,141.716736 92.601915,141.08241 Z" id="Path" stroke="none" fill="#3F4E66" fill-rule="nonzero"></path>
                                    <circle id="Oval" stroke="none" fill="#3F4E66" fill-rule="nonzero" cx="88.988305" cy="142.09321" r="2.04687"></circle>
                                    <circle id="Oval" stroke="none" fill="#E4E9F2" fill-rule="nonzero" cx="88.988305" cy="142.131115" r="1.705725"></circle>
                                    <circle id="Oval" stroke="none" fill="#3F4E66" fill-rule="nonzero" cx="89.064115" cy="142.19429" r="1"></circle>
                                    <polygon id="Path" stroke="none" fill="#3F4E66" fill-rule="nonzero" points="89.367355 140.72863 88.988305 142.09321 89.07675 142.14375 89.43053 140.72863"></polygon>
                                    <polyline id="Path" stroke="none" fill="#3F4E66" fill-rule="nonzero" points="88.9504 142.24483 89.367355 143.60941 89.544245 143.65995 89.15256 142.232195"></polyline>
                                </g>
                            </g>
                        </g>
                    </g>
                </g>
            </g>
        </g>
    </g>
</svg>