<svg id="Capa_10" data-name="Capa 10" xmlns="http://www.w3.org/2000/svg" xmlns:xlink="http://www.w3.org/1999/xlink" viewBox="0 0 197.97 196"><defs><style>.cls-1,.cls-11,.cls-13,.cls-14,.cls-15,.cls-16,.cls-22,.cls-28,.cls-6,.cls-8{fill:none;}.cls-2{clip-path:url(#clip-path);}.cls-3{fill:#f3d19f;}.cls-4{fill:#0275d8;}.cls-5{fill:#8e388e;}.cls-6{stroke:#822e82;}.cls-11,.cls-13,.cls-14,.cls-15,.cls-16,.cls-22,.cls-28,.cls-6,.cls-8{stroke-linecap:round;stroke-linejoin:round;}.cls-14,.cls-6,.cls-8{stroke-width:0.3px;}.cls-7{fill:#a546a0;}.cls-8{stroke:#034f87;}.cls-9{fill:#563634;}.cls-10{fill:#684642;}.cls-11,.cls-13,.cls-14,.cls-15,.cls-16,.cls-17,.cls-27,.cls-28{stroke:#000;}.cls-11{stroke-width:0.3px;}.cls-12{fill:#e2b486;}.cls-13,.cls-17{stroke-width:0.26px;}.cls-15{stroke-width:0.26px;}.cls-16{stroke-width:0.3px;}.cls-17,.cls-27{stroke-miterlimit:10;}.cls-18{fill:#8c6fd5;}.cls-19{fill:#ff74be;}.cls-20{fill:#fff;}.cls-21{fill:#f9487b;}.cls-22{stroke:#e2b486;stroke-width:0.19px;}.cls-23{fill:#7d9e18;}.cls-24{fill:#3f4e66;}.cls-25{fill:#5c6e87;}.cls-26{fill:#95c11f;}.cls-27{stroke-width:0.3px;}.cls-28{stroke-width:0.34px;}.cls-29{fill:#e4e9f2;}</style><clipPath id="clip-path"><path class="cls-1" d="M180.37,98A81.39,81.39,0,1,1,99,16.61,81.38,81.38,0,0,1,180.37,98"/></clipPath></defs><title>los padres</title><g class="cls-2"><path class="cls-3" d="M100.35,167.28a.54.54,0,0,1,0-.1,4.25,4.25,0,0,0-.8-1.57h0a4.14,4.14,0,0,0-6.12-.27,3.68,3.68,0,0,0-.65.85h0a4.55,4.55,0,0,0-.3.63,5.62,5.62,0,0,0-.15.55,4.12,4.12,0,0,0,.6,3.15l.14.2a4.14,4.14,0,0,0,7.17-1.09A4.3,4.3,0,0,0,100.35,167.28Z"/><path class="cls-3" d="M91.1,169c-.28.88,1.23,2.47,1.1,3.63a11.08,11.08,0,0,1-.52,2.07s5,3.55,9.2.17c0,0,0-3.15,0-3.9a20.64,20.64,0,0,0-.51-3.78l-7.26-1.42A15.38,15.38,0,0,0,91.1,169Z"/><path class="cls-3" d="M89.69,181.53c-1-.52-.07-2.44.9-4.49.73-1.56,1.09-2.35,1.09-2.35l2.64.51s-.6,1.65-1.3,3.06C92,180.26,90.74,182,89.69,181.53Z"/><path class="cls-3" d="M87.36,172.66c-.68-.95,1.1-2.19,2.92-3.53A17.93,17.93,0,0,0,92.69,167l1.37,2.52a16.49,16.49,0,0,1-2.22,1.87C90,172.64,88,173.61,87.36,172.66Z"/><path class="cls-3" d="M93.82,183.7c-1.14-.23-.55-2.87-.13-5.1a17.22,17.22,0,0,0,.28-3.24l2.73.91a17.87,17.87,0,0,1-.35,2.89C95.9,181.35,95,183.94,93.82,183.7Z"/><path class="cls-3" d="M98,182.24c-1.07,0-1-1.84-1.14-3.9a7.4,7.4,0,0,0-.55-2.51l2.74-.05a15.21,15.21,0,0,1,.29,2.45C99.41,180.27,99.05,182.19,98,182.24Z"/><path class="cls-3" d="M100.8,179.84c-.8.13-.93-1.29-1.22-2.83a5.35,5.35,0,0,0-.65-1.83l1.73-.57a7.27,7.27,0,0,1,.78,2.09C101.69,178.22,101.6,179.7,100.8,179.84Z"/><path class="cls-3" d="M121,146.73l-.39,3.25a2,2,0,0,1-2.51,1.86c-5.94-2.27-13.24-7.25-16.22-10.45a2.37,2.37,0,0,1-.69-2.29s2.66-13.65,6.8-23.39c1.88,2.7,5.46,6.79,9.22,5.5-2.48,5.3-5.89,15.12-5.89,15.12a2.17,2.17,0,0,0,.27,2.21c2.1,2.62,6.17,4.94,8.27,6a2.14,2.14,0,0,1,1.14,2.17"/><path class="cls-4" d="M153.77,156.38v.88h0c0,10.87-.63,60.63-7.62,79.47a8.2,8.2,0,0,1-7.68-.26l-3.91-63.76c-1.46,0-2.88,0-4.25-.09l-3.93,63.85a8.18,8.18,0,0,1-7.67.26c-7.21-19.42-7.61-71.66-7.62-80.36v-1.23l6.92,2.28,29.26-.14,6.5-2.14v1.23"/><path class="cls-3" d="M174.1,109.32l-.14.59c-.14.57-.32,1.36-.32,1.36l-.53,2.3-.63,2.75-4.19,18.23c-1.35,6.6-5,6.94-6.81,5.25-4-3.82-10-12.34-14.58-23,3.28.32,8.58-.12,10-3.82a52.23,52.23,0,0,0,5.88,12.29s2.29-5.63,3.8-10.63c.29-.94.55-1.86.77-2.71a22.33,22.33,0,0,0,.46-2.31,5,5,0,0,0,.06-.51c0-.2,0-.39,0-.56l2.51.32h0Z"/><path class="cls-5" d="M118.64,120.44a5.16,5.16,0,0,1-1.46.77c-3.76,1.29-7.34-2.8-9.22-5.5-.19-.27-.37-.54-.52-.78a2,2,0,0,1,.29-2.51l5.93-5.67,3.45,9.47,1.09,3Z"/><path class="cls-5" d="M150.58,106.75l6.82,4.55a2,2,0,0,1,.73,2.42c-1.33,3.18-4.89,9.93-10.07,7.38Z"/><path class="cls-6" d="M127,131.47s7.81,1.26,11.71,0"/><path class="cls-7" d="M146.82,130.18c4.71-8,4.19-23.21,4.19-23.21-1-.5-2-1-3-1.36-.7-.29-1.39-.54-2.08-.77-1-.35-2-.66-3-.92-2.37,3.3-8.22,6.52-8.22,6.52-2.13.5-7.22-4.79-9.37-7.24-1.07.17-2.1.37-3,.59l-.47.11a39.12,39.12,0,0,0-8.12,2.84c-2.33,3,2.81,23.48,2.81,23.48-3.78,7-5.42,22.07-5.93,27.91,5.69,3.44,24.34,12.57,43.86-.65C153.59,147.24,146.82,130.18,146.82,130.18Z"/><rect class="cls-7" x="141.86" y="115.14" width="0.1" height="8.58"/><path class="cls-8" d="M134.56,172.72a15.81,15.81,0,0,0,4.63-.27"/><path class="cls-9" d="M125.3,65a7.69,7.69,0,0,1-10.8,2.37,7.86,7.86,0,0,1-2.8-10.85c2.35-3.75,6.91-4.37,10.66-2S127.64,61.27,125.3,65Z"/><path class="cls-10" d="M154.45,81.76l-5-1.52c-.21-1.74-.79-5.92-.79-5.92a7.81,7.81,0,0,1-2.52,1.77,4.23,4.23,0,0,1-3.29.12c-1.21-.49-.82-2.9-.82-2.9s-5.39,4-8.19,2.7c-2-.9-.78-4-.74-4.16-.14.14-4.7,4.63-8.19,4.66a66.8,66.8,0,0,0-1.84,7.91.4.4,0,0,1-.26.29c0,.16,0,.34,0,.52,0,0-8.45-2.08-6.82-5.06,1.52-2.81-1.73-9.72-.72-12.75,3.72-11.1,21-12.43,25.06-12.58a1.91,1.91,0,0,1,1.48.6,20.62,20.62,0,0,1,4.62,7.85,6.55,6.55,0,0,1,4-1.68,2.53,2.53,0,0,1,2.16,1C155.23,66.06,155.25,78.55,154.45,81.76Z"/><path class="cls-3" d="M122.88,84.45l0,.26"/><path class="cls-11" d="M122.88,84.45l0,.26"/><path class="cls-12" d="M123,90.59l-1.25-.07c-1.93-.28-4.18-1.41-4.65-5.06-.31-2.41.31-3.75,1.23-4.48a4.37,4.37,0,0,1,2.59-.81l3.09-.32"/><path class="cls-13" d="M119.58,82.06s2,.52,2.13,3.54a10.59,10.59,0,0,0,.71,2.2"/><path class="cls-3" d="M122.14,89.26a.5.5,0,0,1-1,0,.5.5,0,0,1,1,0"/><path class="cls-3" d="M149.58,85h0c0-.17,0-.33,0-.47,0-.53,0-1.23,0-2,0-2.07-.81-8.19-.81-8.19a7.92,7.92,0,0,1-2.53,1.77,4.23,4.23,0,0,1-3.29.12c-1.21-.48-.82-2.91-.82-2.91s-5.39,4-8.2,2.72c-2-.92-.77-4.06-.73-4.17-.14.14-4.7,4.63-8.19,4.66a68,68,0,0,0-1.85,7.91.39.39,0,0,1-.25.29,31.42,31.42,0,0,0,.17,5.88,12.23,12.23,0,0,0,.5,2.31c1,2.62,3.25,4.07,5.49,5a18.75,18.75,0,0,0,5.53,1.16l1.08.08q1.17.06,2.22,0a20.53,20.53,0,0,0,2.87-.28,13.37,13.37,0,0,0,5.34-2.06l.31-.24s0,0,0,0c.19-.14.37-.29.54-.44l.07-.06.28-.26.23-.25a1.29,1.29,0,0,0,.16-.17c.05-.06.11-.12.15-.18L148,95a9.42,9.42,0,0,0,.86-1.33l.15-.28c.05-.11.11-.23.16-.35s.1-.23.14-.34.09-.23.13-.34.08-.21.11-.32v0l.06-.21a.83.83,0,0,0,0-.15,1.09,1.09,0,0,0,.05-.17,2.61,2.61,0,0,0,.06-.27,2.3,2.3,0,0,0,.06-.28l0-.13s0-.07,0-.11a8,8,0,0,0,.12-1.07,36.46,36.46,0,0,0-.44-4.61m-19.67-4.45c0-.77.42-1.4.94-1.4s.94.63.94,1.4-.42,1.4-.94,1.4-.94-.63-.94-1.4m11,15.59a9.07,9.07,0,0,1-3.23.59A8.53,8.53,0,0,1,132,94.26a3.11,3.11,0,0,1-1-2.45,2.53,2.53,0,0,1,.36-1c1-1.72,4.76,0,6.6.07s3.39-.42,4.5-.29a1.59,1.59,0,0,1,1.31.84c.91,1.63-.3,3.69-2.8,4.68"/><path class="cls-3" d="M149.81,84.89l0-.26"/><path class="cls-11" d="M149.81,84.89l0-.26"/><path class="cls-12" d="M154.29,81.16a3.67,3.67,0,0,0-1.4-.66,5.47,5.47,0,0,0-1.11-.15,25.22,25.22,0,0,1-2,4.28l-.2.34a36.46,36.46,0,0,1,.44,4.61,8,8,0,0,1-.12,1.07s0,.07,0,.11l1-.06a5.05,5.05,0,0,0,3.84-2.48,7,7,0,0,0,.81-2.58c.31-2.41-.32-3.75-1.24-4.48"/><path class="cls-3" d="M151.78,80.35h-.07"/><path class="cls-14" d="M151.78,80.35h-.07"/><path class="cls-13" d="M153.08,82.24s-2,.52-2.14,3.54a10.36,10.36,0,0,1-.7,2.2"/><path class="cls-15" d="M137,83.89s3.68-.82,2.95,3.4"/><path class="cls-10" d="M121.08,80.24c1.52,1.62,1.48,10.41,1.59,11.09a13.38,13.38,0,0,0,1.39,4.34.42.42,0,0,0,.51.2s.18,0,.45-1.41l1-17.94-.1-1-3.53,1"/><path class="cls-10" d="M151.69,76.52c.76,5.81-1,17.94-1,17.94-.27,1.38-.45,1.41-.45,1.41a.42.42,0,0,1-.51-.2,17.81,17.81,0,0,1-1-4.54c-.1-.68.55-8.89.46-14"/><line class="cls-11" x1="133.15" y1="71.85" x2="133.14" y2="71.85"/><path class="cls-11" d="M125,76.51a3.12,3.12,0,0,1-2.53-1.17c-1.06-1.31-.1-4.27,3.75-6.45"/><path class="cls-16" d="M130.85,81.92c-.52,0-.94-.63-.94-1.4s.42-1.4.94-1.4.94.63.94,1.4S131.37,81.92,130.85,81.92Z"/><path d="M131.79,80.52c0,.77-.42,1.4-.94,1.4s-.94-.63-.94-1.4.42-1.4.94-1.4.94.63.94,1.4"/><path class="cls-16" d="M130.85,79.12a2.45,2.45,0,0,1-1.57-.07"/><path class="cls-17" d="M142.79,80.43c0,.77.42,1.4.94,1.4s.94-.63.94-1.4-.43-1.4-.94-1.4-.94.62-.94,1.4"/><path class="cls-16" d="M143.73,79A2.41,2.41,0,0,0,145.3,79"/><path class="cls-9" d="M112.72,63.87a4.63,4.63,0,0,1-2.6,1.66c-.84.25,1,3.41,3.34.93"/><path class="cls-9" d="M112.72,65.77a3.55,3.55,0,0,1-1,2.94c-.54.68,2.93,2,3.18-1.4"/><path class="cls-16" d="M133.14,71.85s3.71-3.35,2.3-3.85c-1.19-.42-2.32,2.2-2.47,4.41"/><path class="cls-16" d="M142.16,73.13s3.71-3.35,2.3-3.85c-1.2-.42-2.33,2.21-2.48,4.41"/><path class="cls-18" d="M122.31,88.94a.67.67,0,1,1-.67-.67.67.67,0,0,1,.67.67"/><path class="cls-16" d="M129,76.79s2.33-2.39,3.56.2"/><path class="cls-16" d="M142.26,78s2.33-2.4,3.56.19"/><path class="cls-19" d="M140.92,96.11c-1.58-1-5.47-3-9-1.85a3.11,3.11,0,0,1-1-2.45,13.54,13.54,0,0,0,10.9,1.07.83.83,0,0,0,.57-.78c0-.45,0-1.07,0-1.51a1.59,1.59,0,0,1,1.31.84c.91,1.63-.3,3.69-2.8,4.68"/><path class="cls-13" d="M140.92,96.11c-1.58-1-5.47-3-9-1.85a3.11,3.11,0,0,1-1-2.45,13.54,13.54,0,0,0,10.9,1.07.83.83,0,0,0,.57-.78c0-.45,0-1.07,0-1.51a1.59,1.59,0,0,1,1.31.84C144.63,93.06,143.42,95.12,140.92,96.11Z"/><path class="cls-13" d="M142.42,92.1a.84.84,0,0,1-.57.78c-1.62.51-6.44,1.66-10.9-1.07a2.53,2.53,0,0,1,.36-1c1-1.72,4.76,0,6.6.07s3.39-.42,4.5-.29C142.41,91,142.41,91.65,142.42,92.1Z"/><path class="cls-20" d="M142.42,92.1a.84.84,0,0,1-.57.78c-1.62.51-6.44,1.66-10.9-1.07a2.53,2.53,0,0,1,.36-1c1-1.72,4.76,0,6.6.07s3.39-.42,4.5-.29c0,.44,0,1.06,0,1.51"/><path class="cls-13" d="M142.42,92.1a.84.84,0,0,1-.57.78c-1.62.51-6.44,1.66-10.9-1.07a2.53,2.53,0,0,1,.36-1c1-1.72,4.76,0,6.6.07s3.39-.42,4.5-.29C142.41,91,142.41,91.65,142.42,92.1Z"/><path class="cls-21" d="M140.92,96.11a8.86,8.86,0,0,1-3.23.59A8.51,8.51,0,0,1,132,94.26c3.5-1.15,7.39.88,9,1.85"/><path class="cls-13" d="M140.92,96.11a8.86,8.86,0,0,1-3.23.59A8.51,8.51,0,0,1,132,94.26C135.45,93.11,139.34,95.14,140.92,96.11Z"/><path class="cls-12" d="M141.38,103.55a40.89,40.89,0,0,1-6.79,5.6c-3.09-1-5.75-4.36-7-6.27.68-.09,1.37-.15,2.08-.19a4.12,4.12,0,0,0,.11-.57,26.34,26.34,0,0,0,.18-3.89,20.72,20.72,0,0,0,4.61.81c.37,0,.73.07,1.07.08a21.2,21.2,0,0,0,2.24,0l.91,0c0,1,0,2.17.07,3,0,.39.05.73.07,1C139.71,103.21,140.54,103.37,141.38,103.55Z"/><circle class="cls-3" cx="171.05" cy="106.99" r="4.12"/><path class="cls-3" d="M165.92,105.72c-.2-.91,1.47-2.34,1.45-3.5a11.47,11.47,0,0,0-.32-2.12s5.33-3,9.18.74c0,0-.34,3.13-.44,3.88a21,21,0,0,1-.87,3.71l-7.37.69A15.3,15.3,0,0,1,165.92,105.72Z"/><path class="cls-3" d="M165.75,93.1c-1.09.41-.31,2.42.45,4.56.58,1.62.85,2.44.85,2.44l2.68-.24a33.13,33.13,0,0,0-1-3.18C167.94,94.59,166.85,92.69,165.75,93.1Z"/><path class="cls-3" d="M162.56,101.69c-.77.88.87,2.29,2.55,3.81a17.47,17.47,0,0,1,2.19,2.4l1.61-2.38a16.43,16.43,0,0,0-2-2.08C165.2,102,163.33,100.81,162.56,101.69Z"/><path class="cls-3" d="M170.08,91.34c-1.17.12-.83,2.81-.64,5.07a18,18,0,0,1,0,3.25L172.2,99a17.8,17.8,0,0,0,0-2.91C171.91,93.89,171.24,91.23,170.08,91.34Z"/><path class="cls-3" d="M174.07,93.21c-1.06-.16-1.19,1.73-1.52,3.77a7.33,7.33,0,0,1-.79,2.44l2.72.32a15,15,0,0,0,.53-2.41C175.3,95.31,175.12,93.37,174.07,93.21Z"/><path class="cls-3" d="M176.64,95.88c-.78-.22-1,1.19-1.5,2.7a5.39,5.39,0,0,1-.82,1.75l1.67.73a7,7,0,0,0,1-2C177.37,97.57,177.42,96.1,176.64,95.88Z"/><path class="cls-22" d="M166.88,103.48c1.34,1.33,3.31.5,3.77,3.36"/><path class="cls-5" d="M154.45,160.52a44.24,44.24,0,0,1-20.45,6.7c-11.34.78-23.65-6.7-23.65-6.7s.05-.89.19-2.39c5.69,3.44,24.34,12.57,43.86-.65A18.46,18.46,0,0,1,154.45,160.52Z"/><path class="cls-5" d="M142.89,103.92c-2.37,3.3-8.22,6.52-8.22,6.52-2.13.5-7.22-4.79-9.37-7.24q.4-.08.81-.12v0c.47-.07,1-.13,1.44-.18,1.29,1.91,4,5.31,7,6.27a40.89,40.89,0,0,0,6.79-5.6l.65.14,0,.14a.5.5,0,0,0,0-.12Z"/><path class="cls-5" d="M173.11,113.57l-.63,2.75h-.42a10.15,10.15,0,0,1-5.45-1.71c.29-.94.55-1.86.77-2.71A7.32,7.32,0,0,0,173.11,113.57Z"/><path class="cls-3" d="M31.12,95.08c-.07.59-.16,1.38-.16,1.38L27.51,124c-1,6.66,2.38,8.23,4.63,7.25,5.11-2.23,12.76-8.66,20.67-17.16-3.19-.82-5.4-1.71-5.51-5.67C43.5,113,38.53,116.28,35,119c0,0,1.87-21.52,2-22.19a4.13,4.13,0,0,1-5.87-1.76Z"/><path class="cls-3" d="M31.19,94.91s0,.27-.06.61h0A4.15,4.15,0,0,0,37,97.19c0-.18.07-.35.11-.5a4,4,0,0,1,.14-.55l-2.47-.49h0Z"/><path class="cls-3" d="M30.71,93.7a.4.4,0,0,0,0,.11,4.07,4.07,0,0,0,.42,1.71h0a4.13,4.13,0,0,0,6.72,1h0a4.53,4.53,0,0,0,.43-.55,4.25,4.25,0,0,0,.4-3.71A1,1,0,0,0,38.6,92a4.12,4.12,0,0,0-7.22-.57A4,4,0,0,0,30.71,93.7Z"/><path class="cls-3" d="M40.1,94.15c.48-.8-.64-2.7-.25-3.79a11.28,11.28,0,0,1,1-1.9s-4.06-4.59-8.92-2.26c0,0-.68,3.08-.83,3.82a20.43,20.43,0,0,0-.37,3.79l6.75,3A15.68,15.68,0,0,0,40.1,94.15Z"/><path class="cls-3" d="M44.32,82.25c.91.74-.48,2.4-1.89,4.17-1.07,1.35-1.6,2-1.6,2l-2.45-1.09s1-1.48,2-2.69C41.76,83,43.41,81.51,44.32,82.25Z"/><path class="cls-3" d="M44.57,91.42C45,92.5,43,93.3,40.93,94.19a17.53,17.53,0,0,0-2.84,1.57L37.32,93a17.27,17.27,0,0,1,2.59-1.33C42,90.83,44.13,90.34,44.57,91.42Z"/><path class="cls-3" d="M40.79,79.2c1.07.48-.12,2.92-1,5a17.8,17.8,0,0,0-1,3.08l-2.45-1.5a16.8,16.8,0,0,1,1-2.73C38.24,81,39.73,78.71,40.79,79.2Z"/><path class="cls-3" d="M36.41,79.68c1.06.19.57,2,.22,4.06a7.23,7.23,0,0,0,0,2.56l-2.68-.58a15.82,15.82,0,0,1,.27-2.45C34.57,81.26,35.36,79.49,36.41,79.68Z"/><path class="cls-3" d="M33.12,81.38c.81,0,.61,1.46.55,3a5.63,5.63,0,0,0,.21,1.93l-1.81.15a7,7,0,0,1-.28-2.2C31.88,82.74,32.31,81.33,33.12,81.38Z"/><path class="cls-22" d="M39.91,91.71c-1.7.84-3.3-.59-4.65,2"/><path class="cls-23" d="M64,102.67c0,5-15.64,18.09-15.64,18.09a11.84,11.84,0,0,1-5.1-2.51,11.45,11.45,0,0,1-3.45-6.68S53.12,97.78,57.91,98C59.8,98.07,64,100.78,64,102.67Z"/><polygon class="cls-4" points="88.89 157.87 89.32 180.89 51.27 169.54 54.51 156.08 88.89 157.87"/><path class="cls-24" d="M82.85,69.2l-.13,1.26c2.5,1,7,.24,9-.18-.06.36-.12.72-.19,1.07v0c-.13.71-.27,1.4-.42,2.06-.71,3.25-1.54,5.78-1.54,5.78l-31.1-.08s-.48-2.52-.94-5.75a32.78,32.78,0,0,0,4.41-.13c.22-.64.42-1.32.62-2v0c0-.08,0-.15,0-.22a21.53,21.53,0,0,1-5.38.07l-.09-.8a30.61,30.61,0,0,0,5.72-.09c.14-.51.26-1,.37-1.54a23.76,23.76,0,0,1-6.25,0c-.27-3-.33-5.94.15-7.55,1.65-5.43,5-8.62,15.57-9.32,13-.86,16.7,5,18.81,9.89.75,1.74.75,4.37.42,7.07C88.24,69.73,82.85,69.2,82.85,69.2Z"/><path class="cls-25" d="M91.91,68.72q-.09.78-.21,1.56c-2,.42-6.47,1.17-9,.18l.13-1.26S88.25,69.73,91.91,68.72Z"/><path class="cls-25" d="M91.53,71.13c0,.07,0,.14,0,.22v0c-.13.71-.27,1.4-.42,2.06-2.11.42-6.29,1.06-8.68.12l.07-2S87.87,72.14,91.53,71.13Z"/><path class="cls-25" d="M63.2,68.64c-.11.52-.23,1-.37,1.54a30.61,30.61,0,0,1-5.72.09c-.06-.54-.11-1.09-.16-1.64A23.76,23.76,0,0,0,63.2,68.64Z"/><path class="cls-25" d="M62.58,71c0,.07,0,.14,0,.22v0c-.2.69-.4,1.37-.62,2a32.78,32.78,0,0,1-4.41.13c-.1-.74-.2-1.52-.3-2.32A21.53,21.53,0,0,0,62.58,71Z"/><path class="cls-23" d="M89.65,159.38c0,.6-11.94,4-21.51,3.35-6.42-.44-14.37-4.45-14.43-4.87-.15-1-.1-2.4,0-1.72.06.41,8,4.42,14.43,4.86,9.57.65,21.47-2.75,21.51-3.35Z"/><path class="cls-26" d="M94.59,101.79c-1.15,5.65-4.57,17.91-5.3,24.5-.7,6.28.74,25.52.36,31.36,0,.6-11.94,4-21.51,3.35-6.42-.44-14.37-4.45-14.43-4.86a21.4,21.4,0,0,1-.17-2.56,1.92,1.92,0,0,1,0-.24c.05-4.93.56-11.94.49-17.62,0-1.64-.08-3.17-.21-4.5-.1-.93-1.42-10.8-1.63-15.6,0-.92,0-1.83,0-2.72v-.25a81.85,81.85,0,0,1,1.32-12,2.23,2.23,0,0,1,1.42-2,17,17,0,0,1,4.63-1.13c.69-.09,1.47-.21,2.25-.29.83,2.58,3.24,6.31,10.42,6,0,0,6.59-.69,10-5.58.42,0,.84.1,1.25.15a43.44,43.44,0,0,1,8.68,1.67A4.47,4.47,0,0,1,94.59,101.79Z"/><path class="cls-12" d="M81,97.42c-9.66,8.22-15.23,2.89-17.44-.35.85-.07,1.74-.13,2.69-.17,0-.51,0-1.17,0-1.87v-.11c.05-1.87.26-4,1-4.84,1.63-1.88,10.38-2.87,10.21-.32a21.57,21.57,0,0,0,.5,5.73h0c.14.67.28,1.23.4,1.65Z"/><path class="cls-12" d="M60.41,84.13,58.85,84c-1.93-.28-4.18-1.41-4.65-5.06-.31-2.41.31-3.74,1.23-4.47s2.4-1.84,4.4.35Z"/><path class="cls-13" d="M56.14,75.51s1.76.53,2.14,3.54a6.77,6.77,0,0,0,.7,2.19"/><path class="cls-1" d="M85.35,77.61l0,.26"/><path class="cls-11" d="M85.35,77.61l0,.26"/><path class="cls-12" d="M85.05,83.84l1.56-.12c1.93-.28,4.18-1.42,4.65-5.07.31-2.4-.31-3.74-1.23-4.47s-2.39-1.84-4.4.35Z"/><path class="cls-13" d="M89.32,75.22s-1.75.54-2.14,3.54a6.65,6.65,0,0,1-.7,2.2"/><path class="cls-3" d="M78.32,73.68c0,.77-.42,1.4-.94,1.4s-.94-.63-.94-1.4.42-1.4.94-1.4.94.63.94,1.4Z"/><path class="cls-3" d="M85.76,78.19a66.49,66.49,0,0,1-.36,7.58,11.23,11.23,0,0,1-.5,2.3c-1,2.63-3.24,4.08-5.49,5a18.75,18.75,0,0,1-5.53,1.16l-1.07.08c-.78,0-1.52.05-2.23,0a19,19,0,0,1-2.86-.27A13.26,13.26,0,0,1,62.38,92l-.32-.23h0c-1.11-.75-2.16-1.73-3-5.14-.53-2.15,0-11.3.05-12.11a44.26,44.26,0,0,0,.37-6.31c0-.22-.14-1-.17-1.19-.34-2.18.1-7.06,3.16-7.9C68.13,57.56,71.63,63,71.63,63s7.16-5.34,11.75-2.58c2.89,1.73,1.93,8.56,1.85,9.15A47.19,47.19,0,0,1,85.76,78.19Z"/><path class="cls-24" d="M85.4,85.79a11.23,11.23,0,0,1-.5,2.3c-1,2.63-3.24,4.08-5.49,5a18.75,18.75,0,0,1-5.53,1.16l-1.07.08c-.78,0-1.52,0-2.23,0a19,19,0,0,1-2.86-.27A13.26,13.26,0,0,1,62.38,92l-.32-.23h0c-1.11-.75-2-1.77-3-5.14-.77-2.67-.34-8-.15-10.27a3.33,3.33,0,0,0-1.36-2.85l2.3,1.56s.77,4.24,1,5.37c.24,1,.31,2.84,1.15,3.38,1.44.93,2.08-1.3,4.7-1.43,1.87-.1,3.74,1.07,5,1,1.57-.07,3-1.76,6.17-1.65,2.13.07,2.37,2,3.54,1.48s.83-2.17,1.34-3.89c.39-1.32.58-2.3.83-3.3,0,0,2.35-.44,2.28.12a28,28,0,0,0,0,4.38C85.7,83.17,85.66,83.82,85.4,85.79Z"/><path class="cls-1" d="M58.42,78.05l0-.26"/><path class="cls-27" d="M79.07,74.86c.52,0,1-.6,1-1.37s-.38-1.41-.89-1.43-1,.6-1,1.37S78.55,74.84,79.07,74.86Z"/><path class="cls-17" d="M66.69,73.57c0,.77-.51,1.36-1,1.33s-.89-.69-.84-1.46.52-1.37,1-1.33.9.68.84,1.46"/><path class="cls-16" d="M80.59,69.83S78.26,67.44,77,70"/><path class="cls-16" d="M67.23,71.06s-2.34-2.39-3.56.2"/><path class="cls-24" d="M59.65,71.2c-.79,0-1.57,0-2.3-.12,0-.28,0-.55,0-.79a20.63,20.63,0,0,0,2.35.07C59.66,70.63,59.65,70.91,59.65,71.2Z"/><path class="cls-24" d="M59.85,75.2l-.83.22a4.6,4.6,0,0,0-1.43-1.8c0-.07,0-.14-.05-.23.74,0,1.47,0,2.16,0C59.73,74.06,59.78,74.68,59.85,75.2Z"/><path class="cls-24" d="M88.67,69.25a35.83,35.83,0,0,1-4.34,0,13,13,0,0,0,.92-2.76c.08-1.94-1.39-5-5.93-5a7.67,7.67,0,0,0-3.66.62c-1.66,1-3.37,3-6.4,2.66-1.81-.19-2.83-1.15-2.72-2.29.06-.53-1-1-2.69-1-6.22-.06-3.76,5.23-4.06,7.15a.49.49,0,0,0,0,.12c-.84,0-1.66-.08-2.4-.16l1.27-7.83L63,57.79l7.73-1.3L82.59,57l4,5.68A45.26,45.26,0,0,1,88.67,69.25Z"/><path class="cls-24" d="M90.07,74.08a3.4,3.4,0,0,0-.59-.35h0A2.35,2.35,0,0,0,88,73.5a2.5,2.5,0,0,0-1,.5,3.32,3.32,0,0,0-1,1.59l-2.24-.29c0-.44.06-.89.1-1.37,0-.71.11-1.45.18-2.21,0-.06,0-.13,0-.19l.06-.71a18.49,18.49,0,0,0,4.81-.07,2.24,2.24,0,0,0,.13.51l.11.3c.25.68.65,1.54.85,2.07h0C90.16,74,90.2,74.17,90.07,74.08Z"/><path class="cls-25" d="M88.94,70.75a18.49,18.49,0,0,1-4.81.07l.12-1.24a1.57,1.57,0,0,1,.09-.28,35.83,35.83,0,0,0,4.34,0A12.78,12.78,0,0,1,88.94,70.75Z"/><path class="cls-25" d="M90,73.63l-.55.1h0A2.35,2.35,0,0,0,88,73.5a2.5,2.5,0,0,0-1,.5,15.43,15.43,0,0,1-3.13-.07c0-.71.11-1.45.18-2.21a33.31,33.31,0,0,0,5.13-.16C89.43,72.24,89.83,73.1,90,73.63Z"/><path class="cls-25" d="M59.78,68.83a14.14,14.14,0,0,0-.11,1.53,20.63,20.63,0,0,1-2.35-.07c0-.61,0-1,0-1l.09-.58C58.12,68.75,58.94,68.81,59.78,68.83Z"/><path class="cls-25" d="M59.7,73.41c-.69,0-1.42,0-2.16,0a20.52,20.52,0,0,1-.19-2.31c.73.07,1.51.11,2.3.12C59.65,71.92,59.66,72.68,59.7,73.41Z"/><path class="cls-24" d="M83.78,75s2.89-1.07,2.62-.47a7.61,7.61,0,0,0-.63,2.48l-2.21-.83Z"/><path class="cls-24" d="M62,54.31s-3.31.11-3.71,1c-.17.37.73,1.48.73,1.48s-2.59.61-2.68,1.36c0,.36,1.11.93,1.11.93S55.88,60.42,56,61c.07.31,1,.52,1.15.55S62,54.31,62,54.31Z"/><path class="cls-28" d="M73.59,78.08c-2.39-.66-5.83-.75-4.59,3.46"/><path class="cls-19" d="M68.75,90.78c1.57-1,5.47-3,9-1.85a3.13,3.13,0,0,0,1-2.46,13.5,13.5,0,0,1-10.9,1.07.81.81,0,0,1-.56-.78c0-.44,0-1.06,0-1.5a1.6,1.6,0,0,0-1.32.83c-.91,1.64.3,3.7,2.81,4.69Z"/><path class="cls-13" d="M68.75,90.78c1.57-1,5.47-3,9-1.85a3.13,3.13,0,0,0,1-2.46,13.5,13.5,0,0,1-10.9,1.07.81.81,0,0,1-.56-.78c0-.44,0-1.06,0-1.5a1.6,1.6,0,0,0-1.32.83C65,87.73,66.24,89.79,68.75,90.78Z"/><path class="cls-13" d="M67.25,86.76a.81.81,0,0,0,.56.78,13.5,13.5,0,0,0,10.9-1.07,2.46,2.46,0,0,0-.35-1c-1-1.72-4.76,0-6.61.06s-3.39-.41-4.49-.28C67.26,85.7,67.25,86.32,67.25,86.76Z"/><path class="cls-20" d="M67.25,86.76a.81.81,0,0,0,.56.78,13.5,13.5,0,0,0,10.9-1.07,2.46,2.46,0,0,0-.35-1c-1-1.72-4.76,0-6.61.06s-3.39-.41-4.49-.28c0,.44,0,1.06,0,1.5Z"/><path class="cls-13" d="M67.25,86.76a.81.81,0,0,0,.56.78,13.5,13.5,0,0,0,10.9-1.07,2.46,2.46,0,0,0-.35-1c-1-1.72-4.76,0-6.61.06s-3.39-.41-4.49-.28C67.26,85.7,67.25,86.32,67.25,86.76Z"/><path class="cls-21" d="M68.75,90.78a8.79,8.79,0,0,0,3.23.58,8.5,8.5,0,0,0,5.73-2.43c-3.49-1.15-7.39.88-9,1.85Z"/><path class="cls-13" d="M68.75,90.78a8.79,8.79,0,0,0,3.23.58,8.5,8.5,0,0,0,5.73-2.43C74.22,87.78,70.32,89.81,68.75,90.78Z"/><path class="cls-23" d="M82.23,97.58c-3.39,4.89-10,5.58-10,5.58-7.18.35-9.64-3.35-10.47-5.93l1.74-.16c2.21,3.24,7.78,8.57,17.44.35Z"/><path class="cls-3" d="M86.78,106.3s6.08,33,6.25,37.78l8.43-1.46s-4.87-32-7.62-38.35Z"/><path class="cls-23" d="M93,99.84c4.25,2.66,7.22,22.79,7.22,22.79a11.71,11.71,0,0,1-4.8,3,11.38,11.38,0,0,1-7.5-.55s-4.76-18.6-2.07-22.57C86.88,101,91.37,98.83,93,99.84Z"/><path class="cls-3" d="M100.19,164.28l-.27,4.61-6.33-2.75,0-3C95.53,164.85,98.63,164.57,100.19,164.28Z"/><path class="cls-3" d="M101.46,142.62l-1.17,20a8.83,8.83,0,0,1-6.78-1.28l-.3-17.89Z"/><path class="cls-24" d="M100.29,162.66l-.1,1.62c-1.56.29-4.66.57-6.65-1.15l0-1.75A8.83,8.83,0,0,0,100.29,162.66Z"/><circle class="cls-24" cx="97.43" cy="163.46" r="1.62"/><circle class="cls-29" cx="97.43" cy="163.49" r="1.35"/><circle class="cls-24" cx="97.49" cy="163.54" r="0.12"/><polygon class="cls-24" points="97.73 162.38 97.43 163.46 97.5 163.5 97.78 162.38 97.73 162.38"/><polyline class="cls-24" points="97.4 163.58 97.73 164.66 97.87 164.7 97.56 163.57"/></g></svg>