<?xml version="1.0" encoding="UTF-8"?>
<svg width="406px" height="356px" viewBox="0 0 406 356" version="1.1" xmlns="http://www.w3.org/2000/svg" xmlns:xlink="http://www.w3.org/1999/xlink">
    <!-- Generator: Sketch 63.1 (92452) - https://sketch.com -->
    <title>Profesores@2x</title>
    <desc>Created with Sketch.</desc>
    <defs>
        <rect id="path-1" x="0" y="0" width="350" height="300" rx="8"></rect>
        <filter x="-12.3%" y="-13.7%" width="124.6%" height="128.7%" filterUnits="objectBoundingBox" id="filter-3">
            <feOffset dx="0" dy="2" in="SourceAlpha" result="shadowOffsetOuter1"></feOffset>
            <feGaussianBlur stdDeviation="14" in="shadowOffsetOuter1" result="shadowBlurOuter1"></feGaussianBlur>
            <feColorMatrix values="0 0 0 0 0   0 0 0 0 0   0 0 0 0 0  0 0 0 0.06 0" type="matrix" in="shadowBlurOuter1"></feColorMatrix>
        </filter>
        <path d="M148.604325,206.776193 C108.439513,223.410112 62.2094737,214.209956 31.4732168,183.466144 C0.736959863,152.722333 -8.45183439,106.490034 8.19195453,66.3293103 C24.8357434,26.1685865 64.0340265,-0.0106793646 107.506999,-3.26611503e-06 C136.008289,0.00350530039 163.340849,11.3289573 183.491827,31.484889 C203.642806,51.6408208 214.961541,78.9761633 214.95804,107.477453 C214.95804,150.950427 188.769138,190.142275 148.604325,206.776193 Z" id="path-4"></path>
    </defs>
    <g id="Screens" stroke="none" stroke-width="1" fill="none" fill-rule="evenodd">
        <g id="Inicio-" transform="translate(-897.000000, -336.000000)">
            <g id="Profesores" transform="translate(925.000000, 362.000000)">
                <g id="Rectangle-Copy-2">
                    <g id="Card-Copy">
                        <g id="Card">
                            <g id="Group-2">
                                <mask id="mask-2" fill="white">
                                    <use xlink:href="#path-1"></use>
                                </mask>
                                <g id="Mask">
                                    <use fill="black" fill-opacity="1" filter="url(#filter-3)" xlink:href="#path-1"></use>
                                    <use fill="#FFFFFF" fill-rule="evenodd" xlink:href="#path-1"></use>
                                </g>
                            </g>
                        </g>
                    </g>
                    <g id="madre_Mesa-de-trabajo-1-Copy-2" transform="translate(67.000000, 42.000000)">
                        <g id="Group" transform="translate(0.775970, 0.805516)">
                            <mask id="mask-5" fill="white">
                                <use xlink:href="#path-4"></use>
                            </mask>
                            <use id="Mask" fill="#E4E9F2" fill-rule="nonzero" xlink:href="#path-4"></use>
                            <g id="los-maestros-01" mask="url(#mask-5)">
                                <g transform="translate(2.224030, 17.194484)">
                                    <path d="M190.80468,314.2152 C190.471885,313.168827 190.068478,312.146238 189.59724,311.15448 C188.47979,308.982473 187.148781,306.927168 185.62392,305.019 C183.114427,301.51869 180.409784,298.162496 177.52284,294.96636 L177.00336,294.46092 L176.48388,293.94144 C176.65236,293.77296 176.83488,293.60448 176.83488,293.436 C177.042896,293.243926 177.214173,293.015556 177.34032,292.76208 C177.52284,292.41108 177.34032,292.2426 177.34032,292.07412 C176.83488,286.6266 176.48388,281.34756 176.3154,275.90004 C175.62744,263.26404 175.44492,252.73404 175.27644,240.12612 C175.10796,227.5182 174.75696,214.58736 174.069,201.81096 L174.069,201.81096 C173.21256,197.21988 171.13464,185.80536 171.13464,185.80536 C171.156131,185.615995 171.094701,185.426586 170.96616,185.28588 C170.79768,183.88188 170.44668,182.56212 170.2782,181.20024 L169.23924,174.89628 L169.23924,174.89628 C169.262351,174.710996 169.200419,174.5252 169.07076,174.39084 L168.90228,173.71692 C168.90228,173.36592 168.71976,173.02896 168.71976,172.692 L168.71976,172.17252 C168.55128,170.76852 168.20028,169.61724 168.0318,168.25536 L168.55128,168.25536 C168.55128,168.08688 168.3828,167.74992 168.3828,167.58144 L168.3828,167.076 L168.20028,166.55652 C167.69484,163.66428 166.99284,160.60356 166.4874,157.69728 C165.98196,154.791 164.40948,149.18904 163.03356,144.24696 C162.997665,143.882714 162.877495,143.53182 162.68256,143.22204 L162.51408,142.54812 L162.3456,141.69168 C162.3456,141.69168 161.82612,140.28768 160.9416,140.66676 C160.42212,140.83524 150.59412,145.9458 150.07464,146.11428 C149.55516,146.28276 132.31404,146.97072 132.31404,146.97072 L130.7556,146.63376 C130.7556,146.97072 130.58712,149.35752 130.58712,149.69448 C130.4046,151.9128 130.23612,154.13112 130.23612,154.97352 C129.54816,164.52072 129.02868,174.05388 128.34072,183.58704 C127.82124,192.2778 127.13328,201.13704 126.6138,209.81376 L126.6138,209.81376 C126.6138,210.50172 126.44532,211.21776 126.44532,211.8636 C126.361063,213.050827 126.361063,214.242533 126.44532,215.42976 L126.44532,227.53224 C126.44532,233.4852 126.27684,239.28372 126.27684,245.23668 C126.27684,251.18964 126.09432,255.06468 126.09432,261.24228 C126.09432,267.41988 125.92584,272.99376 125.92584,278.96076 C125.92584,283.73436 125.92584,288.49392 125.75736,293.26752 L125.75736,293.94144 L126.27684,294.29244 L126.27684,294.29244 L125.75736,294.79788 C122.422679,298.47041 119.30965,302.338256 116.4348,306.38088 C115.028515,308.301932 113.815198,310.357046 112.81248,312.51636 C112.30704,313.92036 111.0996,316.93896 113.51448,317.27592 C114.697342,317.314939 115.873591,317.08449 116.95428,316.602 C118.16172,316.08252 119.36916,315.57708 120.40812,315.07164 C122.65452,313.87824 125.0694,312.51636 127.30176,311.15448 C131.79456,308.43072 136.27332,305.69292 140.75208,302.73048 L144.20592,300.5262 C144.866384,299.982582 145.447644,299.349339 145.93284,298.64484 C146.526729,297.864322 146.829623,296.901021 146.78928,295.92108 C146.78928,295.24716 146.6208,294.51708 146.6208,294.05376 L146.9718,293.87124 L147.47724,293.53428 L147.47724,291.14748 C147.14028,282.63924 146.79864,274.12632 146.45232,265.60872 C146.10132,256.74948 145.76436,250.27704 145.24488,241.4178 C144.7254,231.71616 144.03744,222.01452 143.68644,212.29884 C143.51796,207.52524 143.34948,202.93416 143.51796,198.16056 C143.68644,193.38696 144.03744,188.45892 144.20592,183.51684 C144.7254,175.851 145.76436,168.18516 147.01392,160.53336 L147.01392,160.35084 L148.55832,160.18236 L148.55832,160.35084 C149.4288,163.15884 150.28524,165.8124 150.9732,168.53616 C151.84368,171.59688 152.53164,174.6576 153.2196,177.73236 C153.196489,177.917644 153.258421,178.10344 153.38808,178.2378 L153.38808,178.40628 L155.115,184.54176 L154.59552,184.54176 C154.59552,184.71024 154.764,185.0472 154.764,185.21568 C154.94652,186.2406 155.28348,187.434 155.45196,188.45892 C156.6594,194.93136 157.86684,201.4038 158.9058,208.04472 L158.9058,208.90116 C158.9058,212.81832 158.56884,216.90396 158.38632,220.82112 C158.04936,227.46204 157.52988,233.93448 157.17888,240.5754 C156.6594,248.40972 156.32244,254.02572 155.77488,261.86004 C155.22732,269.69436 154.91844,277.52868 154.73592,285.363 C154.73592,287.41284 154.56744,289.44864 154.56744,291.66696 L154.56744,292.34088 L155.08692,292.86036 C155.42388,293.19732 155.94336,293.53428 156.29436,293.87124 C156.29436,294.72768 156.12588,295.58412 156.12588,296.25804 C156.112566,297.393294 156.632288,298.469117 157.52988,299.16432 C158.552831,299.994587 159.647582,300.732252 160.8012,301.3686 L164.592,303.7554 C169.0848,306.47916 173.56356,309.3714 178.05636,311.92668 C180.28872,313.33068 182.53512,314.48196 184.95,315.67536 C186.030884,316.253401 187.196668,316.656213 188.40384,316.86876 C189.26028,317.03724 190.46772,317.20572 191.21184,316.36332 C191.371903,315.621678 191.225036,314.846828 190.80468,314.2152 Z M136.13292,296.84772 C135.263711,296.875574 134.393847,296.819151 133.53552,296.67924 C134.393847,296.819151 135.263711,296.875574 136.13292,296.84772 Z M131.13468,296.15976 C130.304619,295.95688 129.49595,295.674786 128.7198,295.31736 C129.48531,295.700544 130.296929,295.983667 131.13468,296.15976 L131.13468,296.15976 Z M146.1294,294.6294 C146.10438,294.925017 146.162749,295.221728 146.29788,295.48584 C146.4804,295.8228 146.29788,295.99128 146.4804,296.32824 L146.4804,297.35316 C146.4804,297.52164 146.4804,297.69012 146.29788,297.69012 C146.11536,297.69012 146.29788,297.8586 146.1294,298.04112 C145.96092,298.54656 145.44144,298.88352 145.09044,299.23452 C144.139207,300.031958 143.09783,300.715215 141.9876,301.27032 L138.36528,303.65712 L131.99112,307.57428 C129.92724,308.97828 127.68084,310.12956 125.60292,311.49144 L124.05852,312.34788 C122.50008,313.19028 120.7872,314.2152 119.22876,314.88912 C118.184492,315.458117 117.08928,315.928165 115.95744,316.29312 C115.400479,316.485975 114.819127,316.59941 114.23052,316.63008 C113.686918,316.766968 113.110575,316.642353 112.67208,316.29312 L112.5036,316.1106 C112.5036,315.94212 112.33512,315.77364 112.33512,315.60516 C112.341256,314.837876 112.513698,314.081047 112.84056,313.38684 C113.187117,312.235232 113.713052,311.145455 114.399,310.15764 C115.25544,308.62728 116.12592,307.2654 117.207,305.721 L118.23192,304.317 C119.43936,302.61816 120.6468,301.0878 122.03676,299.38896 C123.42672,297.69012 124.62012,296.3142 125.99604,294.78384 C126.040724,294.78384 126.083577,294.766089 126.115173,294.734493 C126.146769,294.702897 126.16452,294.660044 126.16452,294.61536 L126.16452,294.61536 L126.684,294.10992 C127.512657,294.635329 128.375726,295.104389 129.26736,295.51392 C134.628338,298.28085 141.062596,297.953775 146.11536,294.65748 L146.1294,294.6294 Z M148.71276,160.77204 L148.71276,160.77204 C149.198795,162.10782 149.60204,163.472287 149.9202,164.85768 C149.60204,163.472287 149.198795,162.10782 148.71276,160.77204 L148.71276,160.77204 Z M190.10268,316.61604 C189.678109,316.982546 189.096929,317.109349 188.55828,316.953 C186.163374,316.482262 183.880629,315.557726 181.83312,314.22924 C179.58672,313.03584 177.52284,311.84244 175.44492,310.64904 C171.13464,308.09376 166.82436,305.37 162.51408,302.81472 L159.41124,300.9474 C158.454672,300.463085 157.582376,299.827826 156.82788,299.06604 C156.012608,297.822747 155.762606,296.292122 156.13992,294.85404 L157.68432,295.87896 C162.577188,298.486907 168.433321,298.549763 173.38104,296.04744 C174.23748,295.542 175.10796,295.02252 175.79592,294.51708 L176.65236,295.542 L177.17184,296.21592 C180.165609,299.524275 182.977739,302.992569 185.59584,306.60552 C186.96028,308.435734 188.171808,310.375117 189.21816,312.40404 C189.715902,313.366451 190.066136,314.39822 190.25712,315.46476 C190.59408,315.63324 190.59408,316.13868 190.0746,316.65816 L190.10268,316.61604 Z" id="Shape" stroke="none" fill="#58738F" fill-rule="nonzero"></path>
                                    <path d="M160.61868,137.77452 L160.4502,136.91808 L160.26768,136.07568 C159.4471,135.974437 158.614323,136.090639 157.8528,136.41264 C154.967858,137.798923 151.971463,138.940183 148.89528,139.82436 C145.76921,140.796986 142.509369,141.2708 139.23576,141.22836 C138.529561,141.214896 137.829279,141.096605 137.15784,140.87736 C136.13292,140.70888 135.61344,141.39684 134.57448,141.22836 C133.694202,141.078212 132.829486,140.847934 131.99112,140.5404 L130.43268,141.56532 L130.6152,141.56532 L130.6152,142.42176 C130.6152,143.82576 130.43268,146.1564 130.2642,148.5432 L130.78368,148.5432 L131.99112,148.8942 C137.44084,150.42078 143.180786,150.594279 148.71276,149.39964 C149.23224,149.23116 149.75172,149.23116 150.2712,149.06268 L151.82964,148.5432 C152.192025,148.508202 152.542104,148.393108 152.85456,148.20624 C153.37404,148.03776 153.72504,147.86928 154.25856,147.7008 C155.267471,147.300076 156.247867,146.830987 157.19292,146.2968 L157.54392,146.11428 L157.7124,146.11428 L158.23188,145.77732 C158.72432,145.539423 159.194235,145.257475 159.63588,144.93492 C159.98688,144.58392 160.84332,144.24696 161.53128,143.74152 L161.7138,143.74152 L162.40176,143.22204 L162.40176,143.22204 L162.73872,142.88508 L162.73872,142.88508 C161.82993,141.272607 161.11815,139.556793 160.61868,137.77452 Z M144.234,145.60884 C144.433301,145.248532 144.730132,144.951701 145.09044,144.7524 C145.476869,144.411056 145.979111,144.230249 146.49444,144.24696 C147.051401,144.054105 147.632753,143.94067 148.22136,143.91 C149.452303,143.733044 150.708194,143.908285 151.84368,144.41544 C152.198544,144.541669 152.500346,144.7841 152.70012,145.1034 C153.223374,145.681133 153.223374,146.561467 152.70012,147.1392 C152.208697,147.702194 151.624645,148.177033 150.9732,148.5432 C149.750898,149.169598 148.385831,149.464878 147.01392,149.39964 L145.97496,149.39964 C145.256825,149.367301 144.578442,149.060772 144.07956,148.5432 C143.494296,147.633739 143.556501,146.451839 144.234,145.60884 L144.234,145.60884 Z" id="Shape" stroke="none" fill="#205280" fill-rule="nonzero"></path>
                                    <path d="M152.85456,146.97072 C152.366328,147.537008 151.781659,148.012349 151.12764,148.37472 C149.905338,149.001118 148.540271,149.296398 147.16836,149.23116 L146.1294,149.23116 C145.411265,149.198821 144.732882,148.892292 144.234,148.37472 C143.713159,147.541497 143.713159,146.484183 144.234,145.65096 C144.433301,145.290652 144.730132,144.993821 145.09044,144.79452 C145.476869,144.453176 145.979111,144.272369 146.49444,144.28908 C147.051401,144.096225 147.632753,143.98279 148.22136,143.95212 C149.452303,143.775164 150.708194,143.950405 151.84368,144.45756 C152.198544,144.583789 152.500346,144.82622 152.70012,145.14552 C153.164254,145.646432 153.227928,146.398942 152.85456,146.97072 L152.85456,146.97072 Z" id="Path" stroke="none" fill="#2F303F" fill-rule="nonzero"></path>
                                    <path d="M152.5176,145.1034 C152.318128,144.893899 152.085742,144.718424 151.82964,144.58392 C151.072097,144.23852 150.247234,144.065875 149.41476,144.07848 C149.059939,144.050477 148.703589,144.108264 148.3758,144.24696 C147.787193,144.27763 147.205841,144.391065 146.64888,144.58392 C145.808832,144.775707 145.071908,145.277016 144.585,145.98792 C144.063798,146.635516 144.063798,147.558644 144.585,148.20624 C145.051207,148.65939 145.692738,148.885209 146.34,148.824 C147.997182,148.967318 149.662897,148.671944 151.16976,147.96756 C151.765662,147.680972 152.296161,147.274734 152.7282,146.77416 C152.904314,146.213114 152.827434,145.603192 152.5176,145.1034 L152.5176,145.1034 Z M152.85456,144.93492 C152.654786,144.61562 152.352984,144.373189 151.99812,144.24696 C150.859366,143.751299 149.60674,143.576514 148.3758,143.74152 C147.787193,143.77219 147.205841,143.885625 146.64888,144.07848 C146.170257,144.215848 145.701235,144.384696 145.24488,144.58392 C144.877492,144.778516 144.574944,145.076185 144.3744,145.44036 C143.853559,146.273583 143.853559,147.330897 144.3744,148.16412 C144.873282,148.681692 145.551665,148.988221 146.2698,149.02056 L147.30876,149.02056 C148.676335,148.996549 150.026049,148.705622 151.28208,148.16412 C151.968062,147.857299 152.559468,147.37254 152.99496,146.76012 C153.37646,146.173385 153.306841,145.401773 152.82648,144.8928 L152.85456,144.93492 Z" id="Shape" stroke="none" fill="#AFB1BF" fill-rule="nonzero"></path>
                                    <path d="M144.585,147.99564 C145.030357,148.459328 145.655961,148.705468 146.29788,148.66956 C147.954124,148.824694 149.621711,148.533836 151.12764,147.82716 C151.723542,147.540572 152.254041,147.134334 152.68608,146.63376 C153.021858,146.117255 153.021858,145.451425 152.68608,144.93492 C152.5176,144.7524 152.1666,144.58392 151.99812,144.41544 C151.240577,144.07004 150.415714,143.897395 149.58324,143.91 C149.228465,143.88309 148.872371,143.940835 148.54428,144.07848 C147.955673,144.10915 147.374321,144.222585 146.81736,144.41544 C145.978978,144.611039 145.243321,145.111486 144.75348,145.81944 C144.134704,146.388114 144.061125,147.338502 144.585,147.99564 L144.585,147.99564 Z" id="Path" stroke="none" fill="#AFB1BF" fill-rule="nonzero"></path>
                                    <path d="M146.1294,294.6294 C140.791665,297.811324 134.25584,298.254696 128.53728,295.8228 C127.641354,295.421894 126.777674,294.952502 125.95392,294.4188 L125.43444,294.92424 C125.43444,295.017289 125.359009,295.09272 125.26596,295.09272 C122.492084,298.119374 119.899523,301.307333 117.50184,304.63992 C116.083848,306.462363 114.816087,308.396872 113.71104,310.4244 C113.19156,311.44932 112.67208,312.47424 112.1526,313.66764 C111.81564,314.51004 111.29616,315.87192 112.1526,316.55988 C112.583834,316.924144 113.16784,317.050416 113.71104,316.89684 C114.299647,316.86617 114.880999,316.752735 115.43796,316.55988 C116.569857,316.195079 117.665084,315.725025 118.70928,315.15588 C120.95568,314.13096 123.01956,312.76908 125.09748,311.57568 C129.40776,309.0204 133.71804,306.29664 137.85984,303.74136 L141.48216,301.35456 C142.50708,300.68064 143.71452,299.95056 144.585,299.31876 C144.964162,298.954788 145.307387,298.555143 145.60992,298.12536 C145.829817,297.521873 145.948417,296.88618 145.96092,296.244 C146.240175,295.75297 146.301267,295.167503 146.1294,294.6294 L146.1294,294.6294 Z M146.1294,294.6294 C140.791665,297.811324 134.25584,298.254696 128.53728,295.8228 C127.641354,295.421894 126.777674,294.952502 125.95392,294.4188 L125.43444,294.92424 C125.43444,295.017289 125.359009,295.09272 125.26596,295.09272 C122.492084,298.119374 119.899523,301.307333 117.50184,304.63992 C116.083848,306.462363 114.816087,308.396872 113.71104,310.4244 C113.19156,311.44932 112.67208,312.47424 112.1526,313.66764 C111.81564,314.51004 111.29616,315.87192 112.1526,316.55988 C112.583834,316.924144 113.16784,317.050416 113.71104,316.89684 C114.299647,316.86617 114.880999,316.752735 115.43796,316.55988 C116.569857,316.195079 117.665084,315.725025 118.70928,315.15588 C120.95568,314.13096 123.01956,312.76908 125.09748,311.57568 C129.40776,309.0204 133.71804,306.29664 137.85984,303.74136 L141.48216,301.35456 C142.50708,300.68064 143.71452,299.95056 144.585,299.31876 C144.964162,298.954788 145.307387,298.555143 145.60992,298.12536 C145.829817,297.521873 145.948417,296.88618 145.96092,296.244 C146.240175,295.75297 146.301267,295.167503 146.1294,294.6294 L146.1294,294.6294 Z M143.54604,183.7134 C143.37756,184.73832 143.37756,185.76324 143.19504,186.95664 C142.85808,190.70532 142.6896,194.62248 142.6896,198.35712 C142.6896,194.62248 142.85808,190.70532 143.19504,186.95664 C143.386431,185.89941 143.499061,184.829429 143.532,183.75552 L143.54604,183.7134 Z" id="Shape" stroke="none" fill="#3F4E66" fill-rule="nonzero"></path>
                                    <path d="M178.37928,183.25008 C176.206518,184.799203 173.631977,185.68664 170.96616,185.80536 L170.44668,185.80536 C170.468171,185.615995 170.406741,185.426586 170.2782,185.28588 C170.10972,183.88188 169.75872,182.56212 169.59024,181.20024 C166.085477,183.90132 161.771858,185.340842 157.34736,185.28588 L154.93248,185.28588 L154.413,184.94892 L154.23048,184.44348 C153.89352,182.56212 153.54252,180.86328 153.02304,178.99596 L153.02304,178.99596 C152.85456,178.99596 152.85456,178.81344 152.85456,178.81344 L152.85456,178.64496 L153.36,178.64496 C157.792227,179.64728 162.441006,178.854817 166.29084,176.44068 C166.9788,175.9212 167.84928,175.41576 168.53724,174.89628 L168.53724,174.89628 C168.560351,174.710996 168.498419,174.5252 168.36876,174.39084 L168.18624,173.71692 C168.18624,173.36592 168.01776,173.02896 168.01776,172.692 L168.01776,172.17252 C167.84928,170.76852 167.49828,169.61724 167.3298,168.25536 L167.84928,168.25536 L168.53724,168.43788 L168.88824,168.60636 L168.88824,169.1118 L168.88824,169.1118 L168.88824,169.44876 L169.2252,171.16164 L169.2252,171.4986 L169.91316,171.33012 L169.91316,171.33012 L172.72116,170.64216 L172.72116,170.64216 L173.40912,170.47368 L173.40912,170.47368 C173.40912,170.3052 173.40912,170.13672 173.24064,170.13672 L173.24064,169.96824 L173.05812,169.44876 L173.40912,169.44876 L175.473,169.96824 L175.65552,169.96824 C175.748569,169.96824 175.824,170.043671 175.824,170.13672 C176.51196,174.22236 177.228,178.308 178.23888,182.39364 C178.73028,182.52 178.54776,183.25008 178.37928,183.25008 Z" id="Path" stroke="none" fill="#205280" fill-rule="nonzero"></path>
                                    <path d="M143.532,183.75552 C143.36352,184.78044 143.36352,185.80536 143.181,186.99876 C142.84404,190.74744 142.67556,194.6646 142.67556,198.39924 C142.67556,194.6646 142.84404,190.74744 143.181,186.99876 C143.379187,185.928015 143.496519,184.843874 143.532,183.75552 L143.532,183.75552 Z" id="Path" stroke="none" fill="#3E4A68" fill-rule="nonzero"></path>
                                    <path d="M169.59024,172.00404 C170.39313,172.200428 171.237279,172.141533 172.00512,171.83556 C172.664834,171.670734 173.260896,171.314074 173.718,170.81064 L173.21256,168.60636 C173.007061,168.214109 172.61495,167.954468 172.1736,167.9184 C172.1736,167.9184 169.07076,167.9184 169.23924,169.44876 C169.265415,170.310547 169.383076,171.167114 169.59024,172.00404 Z" id="Path" stroke="none" fill="#FFFFFF" fill-rule="nonzero"></path>
                                    <path d="M168.55128,165.02616 L169.40772,168.25536 C169.904269,168.75964 170.633573,168.958053 171.31716,168.77484 C173.03004,168.60636 173.03004,167.74992 173.03004,167.74992 L173.21256,164.52072 L168.55128,165.02616 Z" id="Path" stroke="none" fill="#00B0ED" fill-rule="nonzero"></path>
                                    <ellipse id="Oval" stroke="none" fill="#21A2D4" fill-rule="nonzero" transform="translate(170.799602, 164.862167) rotate(-7.340000) translate(-170.799602, -164.862167) " cx="170.799602" cy="164.862167" rx="2.2464" ry="1.02492"></ellipse>
                                    <path d="M164.92896,95.71068 L164.92896,95.71068 L164.76048,96.90408 L164.76048,96.90408 C164.760892,97.0887678 164.696276,97.2677063 164.57796,97.40952 C164.092565,99.3209236 163.341105,101.154676 162.3456,102.85704 C161.13816,104.90688 159.76224,106.95672 158.37228,108.99252 C158.143753,113.207034 158.261146,117.433191 158.72328,121.62852 C159.06024,123.8328 159.41124,126.05112 159.93072,128.26944 C160.0992,129.29436 160.4502,130.30524 160.61868,131.33016 L161.13816,132.86052 C161.330338,133.354596 161.444033,133.875697 161.47512,134.40492 C161.467534,135.113629 161.294453,135.810761 160.96968,136.44072 L160.96968,136.6092 L160.61868,137.12868 L160.4502,137.46564 C160.021589,138.109019 159.495872,138.682098 158.89176,139.16448 L158.89176,139.16448 C156.419342,141.216175 153.442823,142.568697 150.2712,143.08164 C146.825849,143.874859 143.283538,144.163352 139.75524,143.93808 C139.23576,143.93808 138.71628,143.7696 138.1968,143.7696 C137.15784,143.60112 136.3014,143.4186 135.26244,143.25012 L133.85844,142.91316 L133.85844,142.91316 L131.27508,141.71976 L131.27508,141.71976 C130.92408,141.55128 130.7556,141.3828 130.4046,141.21432 L129.89916,140.86332 L129.71664,140.69484 C128.31264,139.29084 128.8602,137.46564 129.37968,135.93528 C130.555527,131.833321 130.964852,127.549692 130.58712,123.29928 C130.06764,116.15292 128.17224,109.161 126.6138,102.23928 C126.336972,101.522943 125.988906,100.836218 125.57484,100.18944 C125.57484,100.18944 121.78404,99.17856 121.61556,99.17856 C119.72016,98.99604 115.57836,95.42988 116.26632,93.89952 C116.4348,93.54852 116.4348,93.21156 116.61732,92.8746 C117.1368,91.4706 117.47376,90.31932 118.02132,88.95744 C118.87776,86.73912 119.57976,84.35232 120.26772,81.93744 C120.990098,79.3213248 122.153376,76.8475774 123.70752,74.6226 C125.071724,72.4335249 127.363634,70.9900872 129.92724,70.70544 C130.735857,70.7327607 131.54513,70.6762998 132.34212,70.53696 L135.61344,70.36848 L139.92372,70.01748 L140.4432,70.01748 L148.8672,69.849 L156.11184,71.253 L156.11184,71.42148 L156.11184,71.42148 L157.51584,71.58996 C158.037371,71.559397 158.560201,71.621186 159.06024,71.77248 C160.906789,73.9496516 161.837773,76.7576997 161.65764,79.6068 L161.65764,81.0108 C161.82612,81.0108 162.3456,85.2228 163.06164,87.13224 L163.3986,88.15716 C163.546441,88.5655085 163.719947,88.9641033 163.91808,89.35056 L164.1006,90.03852 L164.1006,90.03852 C164.26908,90.37548 164.26908,90.71244 164.43756,91.0494 L164.43756,91.0494 L164.60604,91.56888 L164.60604,91.56888 C164.60604,91.73736 164.78856,92.07432 164.78856,92.2428 C164.95704,93.09924 165.12552,93.95568 165.30804,94.96656 C165.12552,94.96656 165.12552,95.31756 164.95704,95.823 C165.09744,95.87916 164.92896,95.37372 164.92896,95.71068 Z" id="Path" stroke="none" fill="#FF881D" fill-rule="evenodd"></path>
                                    <path d="M168.71976,58.23792 C168.746542,57.8922772 168.688714,57.5453134 168.55128,57.22704 C168.414802,56.9035471 168.357059,56.552279 168.3828,56.20212 C168.3828,56.53908 168.55128,56.87604 168.55128,57.22704 L168.71976,58.23792 Z" id="Path" stroke="none" fill="#3F4E66" fill-rule="nonzero"></path>
                                    <path d="M199.7622,72.03924 L200.1132,72.3762 L200.1132,72.3762 C200.540645,72.7233937 201.012886,73.0114609 201.5172,73.23264 L203.553,70.2 C203.73552,69.86304 203.904,69.69456 204.07248,69.3576 C204.24096,69.02064 203.904,68.66964 203.553,68.50116 L202.0086,67.09716 C201.344847,67.6372969 200.763126,68.2710416 200.28168,68.97852 L199.24272,70.50888 L199.07424,70.84584 L199.07424,70.84584 C199.131337,71.3207734 199.379823,71.751821 199.7622,72.03924 L199.7622,72.03924 Z M199.7622,71.1828 C199.7622,71.01432 199.94472,70.84584 200.1132,70.67736 C200.28168,70.50888 200.45016,70.50888 200.63268,70.3404 C200.760771,70.2310148 200.928736,70.1801163 201.096,70.2 C201.60144,70.2 201.95244,70.71948 201.78396,71.05644 C201.772017,71.5692378 201.58919,72.0633657 201.26448,72.46044 L201.26448,72.46044 C201.26448,72.5534889 201.189049,72.62892 201.096,72.62892 L200.745,72.62892 L200.394,72.46044 L199.88856,71.955 L199.70604,71.78652 L199.7622,71.1828 Z" id="Shape" stroke="none" fill="#D19F69" fill-rule="nonzero"></path>
                                    <path d="M197.17884,69.31548 L197.8668,69.9894 L198.55476,70.50888 C198.73728,70.50888 198.73728,70.84584 198.90576,70.67736 C199.07424,70.50888 199.07424,70.50888 199.07424,70.3404 C200.052698,68.7546688 201.27516,67.333201 202.69656,66.1284 C201.9671,65.4336264 201.278013,64.6976624 200.63268,63.92412 C200.28168,64.26108 199.94472,64.76652 199.59372,65.11752 C199.59372,65.2105689 199.518289,65.286 199.42524,65.286 L199.42524,65.286 C198.417389,66.1946116 197.597023,67.2916126 197.01036,68.5152 C196.65936,68.97852 196.884,69.31548 197.17884,69.31548 Z M197.17884,68.62752 C197.17884,68.45904 197.34732,68.29056 197.52984,68.12208 C197.71236,67.9536 197.8668,67.9536 198.03528,67.78512 C198.171428,67.6480572 198.362802,67.5808176 198.55476,67.6026 C198.978561,67.6539683 199.283938,68.034132 199.24272,68.45904 L199.24272,68.62752 C199.239141,69.1394408 199.060817,69.6347842 198.73728,70.03152 L198.73728,70.03152 L198.55476,70.2 L198.38628,70.2 C198.293231,70.2 198.2178,70.1245689 198.2178,70.03152 L197.8668,69.86304 C197.69832,69.69456 197.52984,69.69456 197.34732,69.52608 L197.17884,69.3576 C197.34732,68.97852 197.34732,68.796 197.17884,68.62752 L197.17884,68.62752 Z" id="Shape" stroke="none" fill="#D19F69" fill-rule="nonzero"></path>
                                    <path d="M192.51756,71.1828 L193.38804,70.3404 L192.51756,71.1828 Z M196.13988,62.84304 C196.13988,63.01152 196.3224,63.01152 196.49088,62.84304 L196.49088,62.84304 C196.49088,63.01152 196.3224,63.01152 196.13988,62.84304 C196.3224,63.01152 196.13988,63.01152 196.13988,62.84304 Z M197.17884,62.15508 L196.65936,62.84304 L196.65936,62.84304 C196.790115,62.58458 196.966045,62.3515912 197.17884,62.15508 Z M197.17884,69.82092 L197.01036,69.65244 L197.17884,69.82092 L197.69832,70.15788 L197.17884,69.82092 Z" id="Shape" stroke="none" fill="#D19F69" fill-rule="nonzero"></path>
                                    <path d="M192.51756,71.1828 L193.38804,70.3404 L192.51756,71.1828 Z" id="Path" stroke="none" fill="#D19F69" fill-rule="nonzero"></path>
                                    <path d="M193.38804,70.3404 L192.51756,71.1828 C192.672,70.84584 193.03704,70.67736 193.38804,70.3404 Z" id="Path" stroke="none" fill="#D19F69" fill-rule="nonzero"></path>
                                    <path d="M194.076,69.48396 C194.211006,69.2814526 194.270634,69.0379752 194.24448,68.796 C194.270634,69.0379752 194.211006,69.2814526 194.076,69.48396 Z" id="Path" stroke="none" fill="#D19F69" fill-rule="nonzero"></path>
                                    <path d="M196.49088,62.84304 C196.49088,63.01152 196.3224,63.01152 196.13988,62.84304 L196.13988,62.84304 C196.237798,62.9375417 196.392962,62.9375417 196.49088,62.84304 L196.49088,62.84304 Z" id="Path" stroke="none" fill="#D19F69" fill-rule="nonzero"></path>
                                    <path d="M197.01036,62.15508 C196.82784,62.32356 196.65936,62.67456 196.49088,62.84304 L196.49088,62.84304 L197.01036,62.15508 Z" id="Path" stroke="none" fill="#D19F69" fill-rule="nonzero"></path>
                                    <path d="M192.51756,71.1828 L193.38804,70.3404 L192.51756,71.1828 Z" id="Path" stroke="none" fill="#D19F69" fill-rule="nonzero"></path>
                                    <path d="M192.51756,71.1828 L193.38804,70.3404 L192.51756,71.1828 Z" id="Path" stroke="none" fill="#D19F69" fill-rule="nonzero"></path>
                                    <path d="M193.55652,68.12208 L193.55652,68.12208 C193.55652,68.29056 193.725,68.45904 193.725,68.62752 C193.725,68.45904 193.55652,68.29056 193.55652,68.12208 Z M196.13988,62.84304 L196.13988,62.84304 C196.13988,62.84304 196.3224,63.01152 196.3224,62.84304 C196.3224,63.01152 196.3224,63.01152 196.13988,62.84304 L196.13988,62.84304 Z M193.55652,68.12208 L193.55652,68.12208 C193.55652,68.29056 193.725,68.45904 193.725,68.62752 C193.725,68.45904 193.55652,68.29056 193.55652,68.12208 Z M196.13988,62.84304 L196.13988,62.84304 C196.13988,62.84304 196.3224,63.01152 196.3224,62.84304 C196.3224,63.01152 196.3224,63.01152 196.13988,62.84304 L196.13988,62.84304 Z" id="Shape" stroke="none" fill="#D19F69" fill-rule="nonzero"></path>
                                    <path d="M209.533724,55.6369141 C209.182724,54.7804741 208.21428,53.47836 207.87732,52.62192 C207.87732,52.45344 207.6948,52.45344 207.52632,52.45344 C205.303346,53.6162619 203.268132,55.1071746 201.48912,56.87604 C200.45016,57.90096 199.42524,58.7574 198.38628,59.76828 C200.531607,56.7150812 203.018779,53.9170133 205.7994,51.42852 L205.7994,50.92308 C205.310715,50.2706598 204.728868,49.6935425 204.07248,49.2102 C203.706925,48.8155756 203.205029,48.5746655 202.66848,48.53628 C202.149,48.53628 201.81204,49.04172 201.46104,49.5612 L200.42208,50.57208 C197.827788,53.2206585 195.407839,56.0345532 193.17744,58.99608 C192.321,60.18948 191.63304,61.38288 190.94508,62.39376 L190.59408,62.91324 C190.4256,62.74476 190.0746,62.57628 189.90612,62.22528 L189.38664,61.88832 C188.69868,61.38288 187.32276,60.35796 186.45228,61.03188 C186.053169,61.50614 185.709317,62.0242726 185.42736,62.57628 C184.037879,66.4281236 184.037879,70.6443964 185.42736,74.49624 C184.90788,75.33864 184.55688,76.19508 184.02336,77.05152 L183.6864,77.72544 L182.844,79.35408 C181.63656,81.90936 180.2466,84.29616 179.22168,86.85144 C177.81768,89.9262 176.41368,93.1554 175.07988,96.21612 C174.72888,95.37372 174.2094,94.51728 173.87244,93.66084 C173.87244,93.49236 173.68992,93.32388 173.68992,93.1554 L173.18448,93.1554 C171.743136,93.3954235 170.380498,93.9780355 169.21116,94.85424 C168.047066,95.5377386 167.184435,96.6360887 166.79628,97.929 L166.45932,98.60292 L166.79628,99.1224 C168.20028,101.67768 169.60428,104.40144 171.10656,106.95672 C171.969892,108.981089 173.487703,110.657108 175.41684,111.71628 C176.256795,112.216157 177.329641,112.076976 178.01424,111.37932 C178.424115,110.949518 178.718717,110.423098 178.87068,109.84896 L181.45404,102.68856 C184.0374,95.87916 186.80328,89.06976 189.21816,82.26036 C189.21816,82.09188 189.73764,80.379 189.73764,80.21052 C189.73764,80.04204 189.90612,80.04204 189.90612,79.87356 C190.060212,79.2796482 190.291503,78.7085014 190.59408,78.17472 C191.178943,78.4786254 191.860182,78.53918 192.48948,78.3432 C193.492041,77.8537422 194.377808,77.1547045 195.08688,76.29336 C196.393165,74.8001204 197.836205,73.4322876 199.39716,72.20772 L199.49544,71.8848 C200.051903,72.4386473 200.652968,72.9457963 201.29256,73.40112 C201.46104,73.40112 201.81204,73.06416 201.98052,73.06416 C202.83696,71.87076 203.70744,70.50888 204.56388,69.31548 C204.774322,69.0778809 203.081836,69.0332896 203.098667,68.7163419 C203.098667,68.3793819 203.00544,69.0677634 202.66848,68.8992834 C201.7512,68.1479798 201.29256,67.547272 201.29256,67.09716 C201.29256,66.9564802 201.7512,66.6710002 202.66848,66.24072 C202.83696,66.07224 200.549702,67.85532 200.886662,67.6728 L202.66848,65.90376 C201.818324,65.1915101 201.05069,64.3862016 200.37996,63.50292 L201.46104,62.67456 C201.81204,62.32356 201.98052,61.9866 202.33152,61.64964 C204.216607,59.8582497 206.229651,58.2065212 208.35468,56.70756 C208.820518,56.5307187 209.702204,55.9738741 209.533724,55.6369141 Z M193.725,69.147 C193.591128,69.4519249 193.34466,69.6933632 193.03704,69.82092 C193.20552,69.65244 193.55652,69.48396 193.725,69.147 Z M193.55652,68.29056 L193.55652,68.29056 C193.55652,68.45904 193.725,68.62752 193.725,68.796 C193.725,68.62752 193.55652,68.45904 193.55652,68.29056 Z M196.82784,67.6026 L196.82784,67.6026 C196.705184,67.8622989 196.533567,68.0958892 196.3224,68.29056 C196.49088,68.12208 196.65936,67.78512 196.884,67.6026 L196.82784,67.6026 Z M196.82784,69.9894 L196.65936,69.82092 L196.82784,69.9894 L197.34732,70.3404 L196.82784,69.9894 Z M198.90576,72.54468 L198.288,73.008 C198.62496,72.657 198.97596,72.48852 199.31292,72.15156 L198.90576,72.54468 Z" id="Shape" stroke="none" fill="#D5A179" fill-rule="nonzero"></path>
                                    <polygon id="Path" stroke="none" fill="#D19F69" fill-rule="nonzero" points="197.34732 70.3404 196.82784 69.9894 196.65936 69.82092 196.82784 69.9894"></polygon>
                                    <path d="M151.64712,69.31548 C151.47864,69.31548 151.47864,69.147 151.31016,68.97852 L151.31016,68.97852 C151.31016,69.147 151.47864,69.147 151.64712,69.31548 Z" id="Path" stroke="none" fill="#C18D5D" fill-rule="nonzero"></path>
                                    <polygon id="Path" stroke="none" fill="#C18D5D" fill-rule="nonzero" points="151.12764 69.48396 151.12764 69.48396 150.79068 69.31548"></polygon>
                                    <path d="M153.02304,70.3404 L152.85456,70.50888 L152.5176,70.50888 C152.7011,70.5170268 152.881128,70.4570172 153.02304,70.3404 Z" id="Path" stroke="none" fill="#C18D5D" fill-rule="nonzero"></path>
                                    <path d="M147.85632,77.82372 L147.50532,77.82372 L147.50532,78.17472 C147.50532,77.9922 147.68784,77.9922 147.85632,77.82372 Z M147.85632,77.82372 L147.50532,77.82372 L147.50532,78.17472 C147.50532,77.9922 147.68784,77.9922 147.85632,77.82372 Z M147.85632,77.82372 L147.50532,77.82372 L147.50532,78.17472 C147.50532,77.9922 147.68784,77.9922 147.85632,77.82372 Z M147.85632,77.82372 L147.50532,77.82372 L147.50532,78.17472 C147.50532,77.9922 147.68784,77.9922 147.85632,77.82372 Z M147.85632,77.82372 L147.50532,77.82372 L147.50532,78.17472 C147.50532,77.9922 147.68784,77.9922 147.85632,77.82372 Z M147.85632,77.82372 L147.50532,77.82372 L147.50532,78.17472 C147.50532,77.9922 147.68784,77.9922 147.85632,77.82372 Z M147.85632,77.82372 L147.50532,77.82372 L147.50532,78.17472 C147.50532,77.9922 147.68784,77.9922 147.85632,77.82372 Z M147.85632,77.82372 L147.50532,77.82372 L147.50532,78.17472 C147.50532,77.9922 147.68784,77.9922 147.85632,77.82372 Z M147.85632,77.82372 L147.50532,77.82372 L147.50532,78.17472 C147.50532,77.9922 147.68784,77.9922 147.85632,77.82372 Z M147.85632,77.82372 L147.50532,77.82372 L147.50532,78.17472 C147.50532,77.9922 147.68784,77.9922 147.85632,77.82372 Z M147.85632,77.82372 L147.50532,77.82372 L147.50532,78.17472 C147.50532,77.9922 147.68784,77.9922 147.85632,77.82372 Z M147.85632,77.82372 L147.50532,77.82372 L147.50532,78.17472 C147.50532,77.9922 147.68784,77.9922 147.85632,77.82372 Z M147.85632,77.82372 L147.50532,77.82372 L147.50532,78.17472 C147.50532,77.9922 147.68784,77.9922 147.85632,77.82372 Z M147.85632,77.82372 L147.50532,77.82372 L147.50532,78.17472 C147.50532,77.9922 147.68784,77.9922 147.85632,77.82372 Z M147.85632,77.82372 L147.50532,77.82372 L147.50532,78.17472 C147.50532,77.9922 147.68784,77.9922 147.85632,77.82372 Z M147.85632,77.82372 L147.50532,77.82372 L147.50532,78.17472 C147.50532,77.9922 147.68784,77.9922 147.85632,77.82372 Z M147.85632,77.82372 L147.50532,77.82372 L147.50532,78.17472 C147.50532,77.9922 147.68784,77.9922 147.85632,77.82372 Z M147.85632,77.82372 L147.50532,77.82372 L147.50532,78.17472 C147.50532,77.9922 147.68784,77.9922 147.85632,77.82372 Z M147.85632,77.82372 L147.50532,77.82372 L147.50532,78.17472 C147.50532,77.9922 147.68784,77.9922 147.85632,77.82372 Z M147.85632,77.82372 L147.50532,77.82372 L147.50532,78.17472 C147.50532,77.9922 147.68784,77.9922 147.85632,77.82372 Z M147.85632,77.82372 L147.50532,77.82372 L147.50532,78.17472 C147.50532,77.9922 147.68784,77.9922 147.85632,77.82372 Z M147.85632,77.82372 L147.50532,77.82372 L147.50532,78.17472 C147.50532,77.9922 147.68784,77.9922 147.85632,77.82372 Z M147.85632,77.82372 L147.50532,77.82372 L147.50532,78.17472 C147.50532,77.9922 147.68784,77.9922 147.85632,77.82372 Z M147.85632,77.82372 L147.50532,77.82372 L147.50532,78.17472 C147.50532,77.9922 147.68784,77.9922 147.85632,77.82372 Z M147.85632,77.82372 L147.50532,77.82372 L147.50532,78.17472 C147.50532,77.9922 147.68784,77.9922 147.85632,77.82372 Z M147.85632,77.82372 L147.50532,77.82372 L147.50532,78.17472 C147.50532,77.9922 147.68784,77.9922 147.85632,77.82372 Z M147.85632,77.82372 L147.50532,77.82372 L147.50532,78.17472 C147.50532,77.9922 147.68784,77.9922 147.85632,77.82372 Z M147.85632,77.82372 L147.50532,77.82372 L147.50532,78.17472 C147.50532,77.9922 147.68784,77.9922 147.85632,77.82372 Z M147.85632,77.82372 L147.50532,77.82372 L147.50532,78.17472 C147.50532,77.9922 147.68784,77.9922 147.85632,77.82372 Z M147.85632,77.82372 L147.50532,77.82372 L147.50532,78.17472 C147.50532,77.9922 147.68784,77.9922 147.85632,77.82372 Z M147.85632,77.82372 L147.50532,77.82372 L147.50532,78.17472 C147.50532,77.9922 147.68784,77.9922 147.85632,77.82372 Z M147.85632,77.82372 L147.50532,77.82372 L147.50532,78.17472 C147.50532,77.9922 147.68784,77.9922 147.85632,77.82372 Z M147.85632,77.82372 L147.50532,77.82372 L147.50532,78.17472 C147.50532,77.9922 147.68784,77.9922 147.85632,77.82372 Z M147.85632,77.82372 L147.50532,77.82372 L147.50532,78.17472 C147.50532,77.9922 147.68784,77.9922 147.85632,77.82372 Z M147.85632,77.82372 L147.50532,77.82372 L147.50532,78.17472 C147.50532,77.9922 147.68784,77.9922 147.85632,77.82372 Z M147.85632,77.82372 L147.50532,77.82372 L147.50532,78.17472 C147.50532,77.9922 147.68784,77.9922 147.85632,77.82372 Z M147.85632,77.82372 L147.50532,77.82372 L147.50532,78.17472 C147.50532,77.9922 147.68784,77.9922 147.85632,77.82372 Z M147.85632,77.82372 L147.50532,77.82372 L147.50532,78.17472 C147.50532,77.9922 147.68784,77.9922 147.85632,77.82372 Z M147.85632,77.82372 L147.50532,77.82372 L147.50532,78.17472 C147.50532,77.9922 147.68784,77.9922 147.85632,77.82372 Z M147.85632,77.82372 L147.50532,77.82372 L147.50532,78.17472 C147.50532,77.9922 147.68784,77.9922 147.85632,77.82372 Z M147.85632,77.82372 L147.50532,77.82372 L147.50532,78.17472 C147.50532,77.9922 147.68784,77.9922 147.85632,77.82372 Z M147.85632,77.82372 L147.50532,77.82372 L147.50532,78.17472 C147.50532,77.9922 147.68784,77.9922 147.85632,77.82372 Z M147.85632,77.82372 L147.50532,77.82372 L147.50532,78.17472 C147.50532,77.9922 147.68784,77.9922 147.85632,77.82372 Z" id="Shape" stroke="none" fill="#4094E0" fill-rule="nonzero"></path>
                                    <path d="M142.50708,55.1772 L143.02656,55.85112 L143.37756,56.3706 C143.02656,55.85112 142.6896,55.68264 142.50708,55.1772 Z M142.50708,55.1772 L143.02656,55.85112 L143.37756,56.3706 C143.02656,55.85112 142.6896,55.68264 142.50708,55.1772 Z" id="Shape" stroke="none" fill="#D19F69" fill-rule="nonzero"></path>
                                    <path d="M143.19504,56.16 C143.542076,56.5130254 143.835367,56.9151183 144.06552,57.3534 L143.71452,57.0024 L143.19504,56.16 Z" id="Path" stroke="none" fill="#D19F69" fill-rule="nonzero"></path>
                                    <path d="M143.19504,56.16 L142.85808,55.64052 L142.3386,54.9666 C142.6896,55.68264 143.02656,55.85112 143.19504,56.16 Z" id="Path" stroke="none" fill="#D19F69" fill-rule="nonzero"></path>
                                    <path d="M145.79244,59.09436 L144.75348,58.06944 C144.585,57.90096 144.585,57.73248 144.40248,57.564 L144.75348,58.06944 L145.79244,59.09436 Z" id="Path" stroke="none" fill="#D19F69" fill-rule="nonzero"></path>
                                    <polygon id="Path" stroke="none" fill="#D19F69" fill-rule="nonzero" points="122.6826 104.05044 122.50008 104.56992 122.50008 104.56992"></polygon>
                                    <polygon id="Path" stroke="none" fill="#2F303F" fill-rule="nonzero" points="161.784 143.74152 161.784 143.74152 161.09604 144.24696"></polygon>
                                    <path d="M193.38804,66.5802 C193.03704,66.07476 192.51756,65.3868 192.1806,64.88136 C191.84364,64.37592 191.31012,63.85644 190.7766,63.33696 L190.7766,63.33696 L190.4256,63 L190.25712,63.51948 L190.59408,63.85644 L191.63304,64.88136 C192.437859,65.8177354 193.130515,66.8449396 193.69692,67.94208 C193.924269,68.232175 193.992667,68.6162544 193.87944,68.967 C193.733262,69.2681437 193.484297,69.5071498 193.17744,69.64092 C193.00896,69.8094 192.84048,70.1604 192.48948,70.32888 L192.15252,70.66584 C191.98404,70.83432 191.80152,70.66584 191.63304,70.49736 C190.94508,69.30396 190.4256,68.11056 189.73764,66.74868 C189.56916,66.41172 189.21816,66.74868 189.38664,66.91716 C189.860329,67.7334141 190.264244,68.588211 190.59408,69.47244 L191.28204,70.66584 C191.46456,71.0028 191.63304,71.17128 191.98404,71.17128 C192.251227,71.1634429 192.502014,71.0406083 192.672,70.83432 C193.034694,70.644653 193.332804,70.3514294 193.52844,69.99192 C193.87944,69.64092 194.5674,68.967 194.5674,68.27904 C194.115128,67.7562007 193.719781,67.1867139 193.38804,66.5802 L193.38804,66.5802 Z" id="Path" stroke="none" fill="#C18D5D" fill-rule="nonzero"></path>
                                    <path d="M204.07248,68.29056 L202.3596,66.7602 C202.556905,66.5482836 202.789728,66.372479 203.04756,66.24072 L203.04756,65.90376 C202.207427,65.1993497 201.453407,64.3982034 200.80116,63.51696 L200.80116,63.51696 L200.45016,63.18 L200.45016,63.18 L200.28168,63.34848 C199.7622,63.86796 199.42524,64.3734 198.87768,64.87884 L198.87768,64.87884 C198.3582,65.39832 197.47368,66.7602 197.15076,67.09716 C196.76233,67.5324813 196.414559,68.0024417 196.1118,68.50116 C195.94332,69.02064 196.4628,69.3576 196.79976,69.69456 L197.67024,70.38252 C197.864911,70.5936865 198.098501,70.7653039 198.3582,70.88796 L198.52668,70.88796 C198.530451,71.2468836 198.729596,71.5752036 199.04616,71.7444 L199.04616,71.7444 L199.56564,72.24984 C200.070537,72.7413591 200.654268,73.1447505 201.29256,73.44324 L201.62952,73.44324 C202.5,72.24984 203.35644,70.88796 204.22692,69.69456 C204.440585,69.4601354 204.560524,69.155289 204.56388,68.83812 C204.42348,68.796 204.42348,68.45904 204.07248,68.29056 Z M198.73728,70.67736 C198.55476,70.67736 198.55476,70.50888 198.38628,70.50888 L197.69832,69.9894 L197.01036,69.31548 C196.82784,69.147 196.49088,68.97852 196.65936,68.62752 C197.322664,67.4521156 198.134271,66.3668267 199.07424,65.39832 L199.07424,65.39832 L199.24272,65.22984 L200.28168,64.03644 C200.927837,64.8136702 201.621823,65.5498583 202.3596,66.24072 C200.879305,67.4741052 199.649604,68.9802517 198.73728,70.67736 C198.73728,70.50888 198.90576,70.67736 198.73728,70.67736 Z M204.07248,69.48396 C203.904,69.82092 203.73552,69.9894 203.553,70.3404 L201.48912,73.40112 C200.978667,73.1217911 200.506709,72.7772617 200.08512,72.3762 L199.73412,72.03924 C199.39716,71.70228 199.04616,71.35128 199.21464,71.01432 L199.21464,71.01432 C199.21464,70.84584 199.39716,70.84584 199.39716,70.67736 L200.42208,69.147 C200.951192,68.4787099 201.528365,67.8499203 202.149,67.26564 L203.70744,68.66964 C203.87592,68.83812 204.22692,69.02064 204.0444,69.52608 L204.07248,69.48396 Z" id="Shape" stroke="none" fill="#C18D5D" fill-rule="nonzero"></path>
                                    <polygon id="Path" stroke="none" fill="#C18D5D" fill-rule="nonzero" points="151.12764 69.48396 151.12764 69.48396 150.79068 69.31548"></polygon>
                                    <path d="M153.02304,70.3404 L152.85456,70.50888 L152.5176,70.50888 C152.7011,70.5170268 152.881128,70.4570172 153.02304,70.3404 Z" id="Path" stroke="none" fill="#C18D5D" fill-rule="nonzero"></path>
                                    <path d="M153.27576,70.39656 L153.02304,71.16876 C152.554338,72.3935987 151.916337,73.5467275 151.12764,74.59452 C149.140853,76.2220388 146.367771,76.4882548 144.10764,75.26844 C142.919532,74.6092671 141.787816,73.8532243 140.724,73.008 C140.439085,72.1721896 140.209272,71.3185991 140.03604,70.45272 L140.03604,69.59628 L140.38704,69.59628 C140.991292,69.2372704 141.516637,68.7596841 141.93144,68.19228 C142.028979,68.1041022 142.09339,67.9851892 142.11396,67.85532 L142.63344,66.99888 C142.931492,66.3454798 143.162009,65.6633381 143.3214,64.96308 C143.516791,63.6658405 143.629339,62.3574708 143.65836,61.04592 C143.637636,59.845666 143.524986,58.6487635 143.3214,57.46572 L143.3214,57.46572 L143.3214,56.94624 L143.13888,56.10384 C143.13888,56.10384 143.3214,56.94624 143.65836,56.10384 L144.17784,56.77776 L144.34632,57.29724 C145.03428,57.97116 145.75032,59.33304 146.42424,58.70124 C147.96864,57.17088 146.7612,59.89464 146.94372,60.2316 C147.12624,60.56856 147.63168,60.73704 147.80016,60.90552 L148.31964,61.08804 L149.3586,61.59348 L149.86404,61.76196 L150.21504,61.76196 L150.21504,62.6184 C149.997184,64.1401998 150.039914,65.6879778 150.3414,67.19544 C150.552,68.64156 153.10728,70.2 153.27576,70.39656 Z" id="Path" stroke="none" fill="#D5A179" fill-rule="nonzero"></path>
                                    <path d="M163.55304,73.90656 C162.951649,73.3598853 162.318766,72.8488909 161.65764,72.3762 C160.908972,71.9516645 160.091619,71.6617892 159.24276,71.51976 C160.078677,71.7090108 160.88927,71.9964886 161.65764,72.3762 C162.396863,72.7367001 163.044864,73.259901 163.55304,73.90656 Z" id="Path" stroke="none" fill="#8E388E" fill-rule="nonzero"></path>
                                    <path d="M174.23748,93.32388 C174.104139,93.6324434 173.858083,93.8784993 173.54952,94.01184 C172.285289,94.448153 171.071025,95.0176332 169.9272,95.71068 C168.366765,96.6193568 167.062455,97.9091748 166.1364,99.45936 L166.1364,99.45936 C165.996671,99.5895703 165.806474,99.6512558 165.61692,99.62784 C165.44844,99.62784 165.27996,99.45936 165.09744,99.29088 C164.91492,99.1224 164.76048,98.93988 164.76048,98.7714 C164.76048,98.60292 164.40948,98.26596 164.241,97.929 C164.222283,97.7974547 164.163449,97.6748835 164.07252,97.578 L164.241,96.3846 L164.241,96.3846 L164.241,94.51728 C164.140889,93.5969391 163.967173,92.6861028 163.72152,91.79352 C163.72152,91.62504 163.55304,91.28808 163.55304,91.10556 L163.55304,91.10556 L163.37052,90.60012 L163.37052,90.60012 L163.20204,89.74368 C163.37052,89.5752 166.99284,87.01992 167.41404,86.85144 C168.319777,86.8386069 169.224066,86.9280939 170.10972,87.1182 C170.10972,87.1182 170.86788,87.01992 170.86788,87.1182 C171.11195,87.0909477 171.357379,87.1560616 171.55584,87.30072 C171.857441,87.4372261 172.101105,87.675917 172.2438,87.97464 C172.369961,88.6348121 172.602294,89.2701707 172.93176,89.856 C173.28276,90.36144 173.61972,91.03536 173.97072,91.55484 C174.404552,92.0385179 174.509394,92.7337801 174.23748,93.32388 Z" id="Path" stroke="none" fill="#FFFFFF" fill-rule="nonzero"></path>
                                    <path d="M161.65764,72.3762 C160.921925,71.9239477 160.099024,71.6321048 159.24276,71.51976 C160.099024,71.6321048 160.921925,71.9239477 161.65764,72.3762 C162.396863,72.7367001 163.044864,73.259901 163.55304,73.90656 C163.044864,73.259901 162.396863,72.7367001 161.65764,72.3762 Z" id="Path" stroke="none" fill="#A546A0" fill-rule="nonzero"></path>
                                    <path d="M161.65764,72.3762 C160.908972,71.9516645 160.091619,71.6617892 159.24276,71.51976 C160.117127,71.5475347 160.961151,71.8468688 161.65764,72.3762 C162.396863,72.7367001 163.044864,73.259901 163.55304,73.90656 C163.044864,73.259901 162.396863,72.7367001 161.65764,72.3762 Z" id="Path" stroke="none" fill="#8E388E" fill-rule="nonzero"></path>
                                    <path d="M170.2782,87.1884 L169.40772,87.1884 C169.07076,87.1884 168.90228,87.37092 168.55128,87.37092 C168.20028,87.37092 168.0318,87.5394 167.69484,87.70788 C167.35788,87.87636 167.17536,87.87636 166.82436,88.04484 C166.47336,88.21332 166.4874,88.21332 166.1364,88.3818 C165.7854,88.55028 164.07252,89.9262 164.07252,89.9262 L163.55304,90.43164 L163.55304,90.43164 L163.37052,90.60012 L163.37052,90.60012 L163.20204,90.09468 C163.20204,90.0016311 163.126609,89.9262 163.03356,89.9262 L162.86508,89.5752 C162.86508,89.40672 162.68256,89.23824 162.68256,89.06976 C162.556389,88.6553384 162.386977,88.2553377 162.17712,87.87636 L161.82612,86.85144 C161.13816,84.98412 160.61868,80.73 160.42212,80.73 L160.42212,79.326 C160.577416,76.4978962 159.561874,73.7305424 157.61412,71.6742 C157.092589,71.704763 156.569759,71.642974 156.06972,71.49168 L154.66572,71.3232 L154.32876,71.3232 L153.97776,70.81776 L154.49724,70.81776 C155.29484,70.9520312 156.103602,71.0084565 156.91212,70.98624 C158.219489,71.0217041 159.507286,71.3126506 160.70292,71.84268 C163.98828,73.24668 165.88368,76.60224 167.2596,79.84548 C168.29856,82.23228 169.155,84.60504 170.0676,86.86548 C170.0676,87.03396 170.23608,87.20244 170.23608,87.55344 L170.2782,87.1884 Z" id="Path" stroke="none" fill="#FF881D" fill-rule="evenodd"></path>
                                    <path d="M156.99636,77.9922 C156.664364,79.156895 155.623036,79.9775067 154.413,80.028 C153.009,80.19648 148.71276,76.7988 147.85632,76.7988 C147.68784,76.7988 147.33684,77.30424 147.33684,77.30424 C147.069036,77.6184142 146.838204,77.9623077 146.64888,78.32916 C146.112457,78.8810185 145.540257,79.3969357 144.936,79.87356 C144.769735,80.0845075 144.516626,80.2084791 144.24804,80.21052 L143.89704,80.379 L143.20908,80.54748 C143.0406,80.54748 142.70364,80.73 142.52112,80.73 L140.62572,80.73 C137.812818,80.0420157 136.054003,77.2453127 136.6524,74.412 C136.6524,74.24352 136.82088,74.061 136.82088,73.89252 C137.293523,72.4467398 138.058126,71.1134637 139.06728,69.97536 L139.23576,69.80688 L139.23576,69.80688 L139.75524,69.30144 L140.61168,69.30144 L140.0922,69.97536 L140.0922,69.97536 L140.0922,70.2 C140.065937,70.3924383 140.133861,70.58576 140.27472,70.71948 C140.27472,70.88796 140.4432,71.05644 140.4432,71.22492 C140.4432,71.3934 140.4432,71.3934 140.61168,71.56188 L140.61168,71.56188 C140.831785,72.1511922 141.187734,72.6803065 141.65064,73.10628 C141.81912,73.27476 141.81912,73.44324 141.9876,73.61172 C142.15608,73.7802 142.6896,74.11716 143.02656,74.46816 C143.36352,74.81916 143.37756,74.63664 143.54604,74.80512 C143.71452,74.9736 143.883,74.9736 144.06552,75.14208 C146.381296,76.4657792 149.278275,76.1962928 151.31016,74.46816 C151.990563,73.3870518 152.568704,72.2448705 153.03708,71.05644 L153.20556,70.551 L153.37404,70.38252 L153.37404,70.38252 L153.89352,70.551 L154.58148,70.71948 L154.93248,70.71948 L155.26944,71.22492 L155.26944,71.22492 L155.43792,71.56188 C155.9574,72.5868 156.47688,73.44324 156.99636,74.46816 C157.160967,75.6370735 157.160967,76.8232865 156.99636,77.9922 L156.99636,77.9922 Z" id="Path" stroke="none" fill="#FFFFFF" fill-rule="nonzero"></path>
                                    <path d="M163.55304,20.61072 L147.50532,19.06632 L139.23576,27.92556 C139.23576,28.09404 138.02832,34.06104 138.02832,34.56648 C138.02832,35.07192 139.57272,37.9782 139.43232,40.18248 C139.403025,41.5499366 139.290497,42.9143411 139.09536,44.26812 C139.09536,46.13544 139.6008,48.18528 139.78332,50.0526 C140.252372,51.4979741 140.829646,52.9059582 141.51024,54.2646 L141.67872,54.6156 L142.01568,55.12104 C142.36668,55.62648 142.71768,55.97748 143.05464,56.52504 L143.05464,56.69352 L143.22312,56.862 L143.7426,57.54996 C144.328536,58.2698583 144.961735,58.9499613 145.638,59.58576 L146.50848,60.4422 C146.828834,60.6243606 147.117971,60.8566177 147.36492,61.13016 L147.8844,61.46712 L148.92336,61.97256 L149.44284,62.14104 L149.94828,62.30952 L150.1308,62.30952 C151.874065,62.7818935 153.733746,62.5393265 155.29752,61.6356 C158.228053,59.7979025 160.613176,57.2091706 162.2052,54.13824 C162.528398,53.5338006 162.81441,52.9102017 163.06164,52.27092 C163.23012,52.10244 163.23012,51.75144 163.3986,51.58296 C163.56708,51.41448 165.996,50.4036 165.996,50.4036 L166.16448,40.5756 L167.37192,30.35448 L163.55304,20.61072 Z" id="Path" stroke="none" fill="#D5A179" fill-rule="nonzero"></path>
                                    <path d="M147.85632,39.00312 C147.85632,40.014 147.33684,40.87044 146.45232,40.87044 C145.5678,40.87044 145.24488,40.014 145.24488,39.00312 C145.24488,37.99224 145.76436,37.29024 146.45232,37.29024 C147.311225,37.3788845 147.937978,38.1435224 147.85632,39.00312 Z" id="Path" stroke="none" fill="#000000" fill-rule="nonzero"></path>
                                    <path d="M160.78716,39.1716 C160.78716,40.19652 160.26768,40.87044 159.57972,40.87044 C158.754875,40.7312293 158.157084,40.0079024 158.17572,39.1716 C158.17572,38.31516 158.6952,37.29024 159.57972,37.29024 C160.46424,37.29024 160.78716,38.14668 160.78716,39.1716 Z" id="Path" stroke="none" fill="#000000" fill-rule="nonzero"></path>
                                    <path d="M154.764,55.34568 L154.764,55.34568 C152.625061,56.0559483 150.290705,55.8794961 148.282837,54.8557739 C146.27497,53.8320516 144.761052,52.0464402 144.07956,49.89816 C143.873646,49.1181945 143.75591,48.3175849 143.72856,47.51136 C143.72856,47.4183111 143.803991,47.34288 143.89704,47.34288 C143.944102,47.3389442 143.990656,47.3549415 144.025358,47.3869742 C144.06006,47.4190069 144.079724,47.4641339 144.07956,47.51136 C144.08624,49.97217 145.311349,52.2699068 147.35088,53.64684 C148.044315,54.1410923 148.799549,54.5423104 149.59728,54.84024 L150.28524,55.00872 C150.671977,55.1468035 151.082916,55.2041438 151.49268,55.1772 C152.482829,55.232031 153.475093,55.1180868 154.42704,54.84024 L154.59552,54.84024 C154.725179,54.9746003 154.787111,55.1603961 154.764,55.34568 L154.764,55.34568 Z" id="Path" stroke="none" fill="#000000" fill-rule="nonzero"></path>
                                    <path d="M151.31016,18.252 C152.02963,18.906577 152.666174,19.6468541 153.20556,20.45628 C152.710842,19.6139566 152.068849,18.8673423 151.31016,18.252 Z" id="Path" stroke="none" fill="#3F4E66" fill-rule="nonzero"></path>
                                    <path d="M133.53552,35.5914 C132.972654,34.3794533 132.503285,33.1262401 132.13152,31.84272 C131.509864,30.3636332 131.039468,28.8254385 130.72752,27.25164 C131.039468,28.8254385 131.509864,30.3636332 132.13152,31.84272 C132.679683,33.0607725 133.148658,34.3129352 133.53552,35.5914 L133.53552,35.5914 Z" id="Path" stroke="none" fill="#3F4E66" fill-rule="nonzero"></path>
                                    <path d="M169.07076,23.166 C169.098307,22.6454813 169.041411,22.1239356 168.90228,21.6216 C168.71976,21.11616 168.90228,20.61072 168.71976,20.09124 C168.71976,20.61072 168.90228,21.11616 168.90228,21.6216 C169.061738,22.1198294 169.119041,22.6451081 169.07076,23.166 Z" id="Path" stroke="none" fill="#3F4E66" fill-rule="nonzero"></path>
                                    <path d="M144.40248,4.75956 C144.374837,4.39407746 144.080495,4.10574189 143.71452,4.08564 L142.50708,3.74868 L140.27472,3.2292 L135.78192,2.0358 L133.704,1.53036 C133.027273,1.35196329 132.306642,1.54413155 131.8086,2.0358 C131.425207,2.58343299 131.078142,3.15562092 130.76964,3.74868 C130.459495,4.39057013 130.1126,5.01404469 129.73068,5.616 C128.391233,8.14107689 127.628787,10.9319148 127.49832,13.78728 C127.447312,14.2140738 127.568587,14.6435901 127.83528,14.98068 C128.03687,15.3040167 128.344593,15.5472174 128.70576,15.66864 C129.479051,15.9943002 130.290463,16.2207409 131.12064,16.34256 C132.143717,16.5433369 133.181405,16.6607225 134.22348,16.69356 C136.285929,14.5429744 138.825368,12.9077293 141.6366,11.91996 C142.081074,11.7257447 142.556394,11.611668 143.0406,11.583 C143.614764,10.6692128 144.085652,9.69447634 144.4446,8.67672 C144.613683,7.37544741 144.599505,6.05689595 144.40248,4.75956 L144.40248,4.75956 Z M137.916,11.91996 L137.916,11.91996 C137.73348,11.75148 137.73348,11.41452 137.565,11.232 C137.050729,10.1783308 136.474065,9.15627576 135.83808,8.17128 C134.954802,7.18552962 134.456351,5.9144803 134.43408,4.59108 C134.43408,4.4226 134.60256,4.4226 134.77104,4.4226 C135.953493,4.96468358 136.883095,5.93950908 137.36844,7.14636 C137.862318,8.39155072 138.096431,9.72456021 138.0564,11.06352 C138.22488,11.232 138.22488,11.41452 138.39336,11.75148 C138.56184,12.08844 138.02832,12.08844 137.916,11.91996 Z" id="Shape" stroke="none" fill="#46485B" fill-rule="nonzero"></path>
                                    <path d="M137.767465,48.8167646 C137.627277,47.5723988 139.567595,45.7853924 139.59559,44.5334678 C138.25516,42.9219329 137.645785,42.1723255 137.767465,42.2846455 C137.849859,42.4432158 136.98936,40.53348 136.98936,40.365 L136.98936,37.12176 L137.767465,35.1813516 C136.515645,34.5935848 135.722756,34.2480692 135.3888,34.1448047 C134.660049,35.1306621 134.206089,35.6690205 134.02692,35.75988 L133.33896,36.09684 C132.795532,36.5810732 132.444532,36.9788732 132.28596,37.29024 C132.05717,37.739485 131.827126,38.4826027 131.595829,39.5195932 C131.411503,40.120929 131.605789,42.1269918 132.28596,43.5668467 C133.060784,45.2070737 134.365689,46.2732966 134.6868,46.52856 L135.0378,46.87956 L135.3888,47.21652 L136.07676,47.72196 L136.59624,48.07296 L136.9332,48.5784 L137.767465,48.8167646 Z M134.74296,38.87676 L134.74296,38.87676 L134.74296,39.22776 L134.74296,39.22776 L134.74296,38.87676 L134.74296,38.87676 Z" id="Shape" stroke="none" fill="#D5A179" fill-rule="nonzero"></path>
                                    <polygon id="Path" stroke="none" fill="#D19F69" fill-rule="nonzero" points="134.57448 39.00312 134.57448 39.00312 134.406 38.8206"></polygon>
                                    <polygon id="Path" stroke="none" fill="#D19F69" fill-rule="nonzero" points="134.57448 39.00312 134.57448 39.00312 134.406 38.8206"></polygon>
                                    <polygon id="Path" stroke="none" fill="#3F4E66" fill-rule="nonzero" points="136.82088 40.87044 136.98936 41.2074 136.98936 41.2074"></polygon>
                                    <path d="M141.65064,54.15228 C141.81912,54.48924 142.17012,54.84024 142.3386,55.1772 L141.81912,54.48924 L141.65064,54.15228 Z" id="Path" stroke="none" fill="#D19F69" fill-rule="nonzero"></path>
                                    <path d="M169.07076,21.6216 C169.07076,21.11616 168.90228,20.61072 168.90228,20.09124 C168.90228,20.61072 169.07076,21.11616 169.07076,21.6216 L169.07076,21.6216 Z" id="Path" stroke="none" fill="#3F4E66" fill-rule="nonzero"></path>
                                    <path d="M169.07076,21.6216 C169.07076,21.11616 168.90228,20.61072 168.90228,20.09124 C168.90228,20.61072 169.07076,21.11616 169.07076,21.6216 L169.07076,21.6216 Z" id="Path" stroke="none" fill="#3F4E66" fill-rule="nonzero"></path>
                                    <path d="M171.349909,46.96396 C171.209722,45.7195941 169.980597,44.4332039 170.008592,43.1812793 C170.781124,41.2360003 171.228229,40.3195208 171.349909,40.4318408 C171.432303,40.5904111 170.571805,38.6806753 170.571805,38.5121953 L170.571805,35.2689553 L171.349909,33.3285469 C170.098089,32.7407801 169.305201,32.3952645 168.971245,32.292 C168.242493,33.2778574 167.788533,33.8162158 167.609365,33.9070753 L166.921405,34.2440353 C166.377977,34.7282685 166.026977,35.1260685 165.868405,35.4374353 C165.639614,35.8866803 165.409571,36.629798 165.178274,37.6667885 C164.993947,38.2681243 165.188234,40.2741871 165.868405,41.714042 C166.643229,43.354269 167.948134,44.4204919 168.269245,44.6757553 L168.620245,45.0267553 L168.971245,45.3637153 L169.659205,45.8691553 L170.178685,46.2201553 L170.515645,46.7255953 L171.349909,46.96396 Z M168.325405,37.0239553 L168.325405,37.0239553 L168.325405,37.3749553 L168.325405,37.3749553 L168.325405,37.0239553 L168.325405,37.0239553 Z" id="Shape" stroke="none" fill="#D5A179" fill-rule="nonzero" transform="translate(168.233956, 39.627980) scale(-1, 1) translate(-168.233956, -39.627980) "></path>
                                    <path d="M165.996,40.716 C165.996,40.716 167.429872,34.7304131 170.208,37.0299606" id="Path" stroke="#000000" stroke-width="0.54" fill="none" stroke-linecap="round" stroke-linejoin="round" transform="translate(168.102000, 38.610000) scale(-1, 1) rotate(-44.000000) translate(-168.102000, -38.610000) "></path>
                                    <path d="M166.82436,39.50856 L166.99284,38.10456 C168.604034,32.3899991 169.469834,28.7115191 169.59024,27.06912 C169.789006,24.5750981 169.727837,22.0671662 169.40772,19.5858 C169.264372,17.7382342 168.396308,16.0222931 166.99284,14.8122 C165.705103,13.8231737 164.242968,13.0849619 162.68256,12.636 C160.96968,12.13056 159.24276,11.7936 157.51584,11.45664 C155.78892,11.11968 153.89352,10.76868 151.99812,10.6002 C149.757191,10.4034768 147.501227,10.4599936 145.27296,10.76868 C146.579559,9.72559474 147.687676,8.45577801 148.54428,7.02 C149.229333,5.97096574 149.754559,4.82587921 150.10272,3.62232 C150.10272,3.27132 150.2712,3.10284 150.2712,2.76588 C150.407055,2.50201905 150.465465,2.20509893 150.43968,1.90944 C150.43968,1.57248 150.10272,1.57248 149.9202,1.57248 C149.521594,1.49138676 149.118339,1.43511853 148.71276,1.404 C148.54428,1.404 148.54428,1.404 148.3758,1.57248 C147.68784,4.9842 146.9718,8.90136 144.06552,10.93716 L143.37756,11.10564 C144.017438,10.0519879 144.491004,8.90596001 144.78156,7.70796 C144.91525,6.91973746 144.971678,6.12034683 144.95004,5.32116 C144.95004,4.6332 144.95004,3.91716 144.26208,3.62232 C143.948375,3.42483625 143.592317,3.30454628 143.22312,3.27132 L142.01568,2.93436 L139.43232,2.2464 C137.7054,1.74096 135.97848,1.404 134.2656,0.8424 C133.644998,0.674173728 132.990802,0.674173728 132.3702,0.8424 C131.795789,1.09469802 131.307742,1.50953803 130.9662,2.0358 C130.146391,3.3712646 129.455326,4.78160217 128.90232,6.2478 C128.208228,7.65453295 127.685026,9.13929555 127.34388,10.6704 C127.149256,11.4521937 127.036331,12.2520822 127.00692,13.0572 C126.847483,13.6992009 126.970106,14.3787376 127.34388,14.92452 C127.775022,15.3845686 128.309114,15.7358185 128.90232,15.94944 C129.684728,16.2515876 130.493026,16.4818584 131.3172,16.6374 C132.052633,16.7772044 132.801474,16.8337207 133.54956,16.80588 C133.268737,17.1047498 133.03659,17.4458649 132.8616,17.81676 C132.221627,18.8016826 131.649347,19.8289708 131.14872,20.89152 C130.15582,23.1964672 129.910313,25.7546463 130.44672,28.20636 C131.204884,30.9376458 132.142933,33.6157752 133.25472,36.2232 C133.739143,35.9309992 134.257892,35.6999203 134.79912,35.53524 L135.3186,35.53524 C135.882965,35.6452135 136.4155,35.8802967 136.87704,36.2232 L136.87704,43.36956 C136.87704,44.77356 137.04552,45.92484 137.04552,47.11824 L137.04552,49.33656 L137.214,50.34744 C137.39652,52.2288 137.73348,54.2646 138.08448,56.14596 C138.208673,57.2421009 138.439075,58.3235818 138.77244,59.37516 C138.978734,60.3061069 139.265286,61.2174335 139.62888,62.09892 C139.97988,62.6184 140.33088,63.12384 141.03288,63.12384 C141.687066,62.9117895 142.110772,62.2791316 142.0578,61.59348 C142.0247,61.1774549 141.910213,60.7719811 141.72084,60.40008 C141.55236,59.71212 141.55236,58.99608 141.36984,58.35024 C141.173311,57.1709865 141.060708,55.9792738 141.03288,54.78408 L141.03288,53.38008 C140.994608,52.3822692 140.89143,51.3880075 140.724,50.4036 L140.724,44.7876 C140.69802,43.7080451 140.759058,42.6281517 140.90652,41.5584 C141.075,39.50856 141.24348,37.3464 141.426,35.25444 C141.426,34.73496 141.59448,34.22952 141.59448,33.72408 C141.59448,33.21864 141.76296,32.0112 141.76296,31.84272 L141.76296,31.50576 L142.11396,29.28744 L142.28244,28.61352 L142.45092,27.06912 C142.600042,26.694828 142.662444,26.2916192 142.63344,25.88976 C142.63344,25.53876 142.80192,25.37028 142.80192,25.03332 C142.80192,24.69636 142.9704,24.69636 142.9704,24.52788 L143.13888,24.34536 L143.3214,24.17688 C144.138868,23.4716133 145.164278,23.0525758 146.24172,22.98348 L147.64572,22.98348 C148.175599,23.0197416 148.696619,23.1381555 149.19012,23.33448 L149.37264,23.33448 C150.22908,23.67144 152.47548,24.73848 152.64396,24.73848 L152.81244,24.73848 C153.337589,24.7660702 153.863761,24.7091866 154.37088,24.57 C155.41895,24.2873221 156.490296,24.0993668 157.572,24.0084 C158.689934,23.8271262 159.836536,24.0092046 160.84332,24.52788 C161.494765,24.894047 162.078817,25.3688865 162.57024,25.93188 C163.10034,26.5654871 163.570364,27.2470219 163.97424,27.96768 C164.50593,29.5128074 164.85463,31.114944 165.0132,32.74128 L165.0132,33.93468 C165.0132,34.6086 164.84472,41.60052 164.49372,43.76268 C164.464798,44.7950302 164.352108,45.8233283 164.15676,46.83744 C163.97424,48.70476 162.75276,51.76548 162.94932,51.948 C163.462764,53.8252486 164.153845,55.6493255 165.0132,57.39552 C165.657463,59.0170114 166.803835,60.3897061 168.28452,61.31268 C168.28452,61.48116 168.46704,61.48116 168.63552,61.31268 C169.181228,60.0813784 169.304629,58.7042246 168.98652,57.39552 C168.63552,54.15228 167.77908,50.92308 167.2596,47.56752 L167.07708,47.06208 L167.07708,46.5426 L166.9086,45.7002 C166.9086,45.18072 166.74012,44.84376 166.74012,44.2962 L166.74012,44.12772 C166.74012,43.27128 166.57164,42.58332 166.57164,41.74092 C166.74012,40.365 166.82436,39.62088 166.82436,39.50856 Z M169.07076,21.6216 L169.07076,21.6216 C169.07076,21.11616 168.90228,20.61072 168.90228,20.09124 C168.90228,20.61072 169.07076,21.06 169.07076,21.6216 Z M136.3014,8.33976 L136.3014,8.33976 L135.26244,6.64092 C134.917906,6.14191827 134.736427,5.54843269 134.74296,4.94208 C135.734459,5.46161615 136.524806,6.29642044 136.98936,7.31484 C137.345805,8.24173816 137.522118,9.22813607 137.50884,10.22112 C137.15784,9.70164 136.82088,9.02772 136.3014,8.33976 Z M165.27996,28.782 L165.27996,28.782 C165.27996,28.95048 165.44844,29.11896 165.44844,29.45592 C165.44844,29.11896 165.27996,28.95048 165.27996,28.782 Z" id="Shape" stroke="none" fill="#3F4E66" fill-rule="nonzero"></path>
                                    <path d="M135.26244,46.83744 L135.61344,47.1744 L135.26244,46.83744 Z" id="Path" stroke="none" fill="#4FAE32" fill-rule="nonzero"></path>
                                    <polygon id="Path" stroke="none" fill="#4FAE32" fill-rule="nonzero" points="136.3014 47.736 136.82088 48.087 136.6524 48.087"></polygon>
                                    <path d="M137.34036,49.72968 C137.34036,49.2102 137.15784,48.87324 137.15784,48.32568 L136.82088,47.98872 L136.82088,47.98872 C136.3014,47.63772 135.78192,47.13228 135.26244,46.79532 L135.26244,46.79532 L134.92548,46.44432 C134.74296,46.6128 134.74296,46.79532 134.57448,46.9638 C134.076662,47.5191427 133.669212,48.1492696 133.36704,48.83112 C133.19856,49.16808 132.84756,49.51908 132.67908,49.85604 C132.47837,50.2412713 132.304788,50.64004 132.1596,51.04944 C132.085922,51.2088203 132.081893,51.391673 132.14848,51.5541438 C132.215066,51.7166146 132.346261,51.8440476 132.5106,51.90588 C132.769927,52.0786948 133.107713,52.0786948 133.36704,51.90588 C134.106903,51.5401076 134.75477,51.0122167 135.26244,50.36148 L135.9504,49.68756 C135.573402,50.2899292 135.231202,50.9133894 134.92548,51.55488 C134.57448,52.07436 134.406,52.74828 134.055,53.26776 C133.896398,53.6449032 134.0478,54.0809421 134.406,54.27864 L134.74296,54.27864 C135.841097,53.4117829 136.729033,52.3078624 137.34036,51.04944 C137.34036,50.9563911 137.415791,50.88096 137.50884,50.88096 L137.34036,49.72968 Z" id="Path" stroke="none" fill="#3F4E66" fill-rule="nonzero"></path>
                                    <path d="M149.58324,29.28744 C149.58324,31.67424 148.17924,29.6244 139.92372,32.3622 C140.4432,30.14388 147.16836,25.53876 149.58324,29.28744 Z" id="Path" stroke="none" fill="#2F303F" fill-rule="nonzero"></path>
                                    <path d="M156.47688,29.80692 C156.3084,32.17968 157.88088,30.14388 166.1364,32.86764 C165.61692,30.64932 158.89176,26.05824 156.47688,29.80692 Z" id="Path" stroke="none" fill="#2F303F" fill-rule="nonzero"></path>
                                    <path d="M121.99464,187.67268 L121.99464,183.75552 C121.928096,180.791554 121.693721,177.833737 121.29264,174.89628 C121.206131,173.641674 121.037287,172.394107 120.7872,171.16164 C120.60468,169.28028 118.37232,169.44876 118.37232,169.28028 L118.37232,152.76924 C118.37232,147.30768 118.5408,142.94124 118.70928,137.43756 C118.70928,134.7138 118.87776,131.82156 118.87776,128.91528 L118.70928,128.7468 C119.758924,120.14954 121.315393,111.621774 123.37056,103.20804 C120.721045,103.317869 118.111117,102.536868 115.95744,100.98972 C114.75,106.10028 114.048,111.37932 113.14944,116.65836 C112.451087,120.148417 111.935584,123.672582 111.60504,127.21644 L111.60504,127.38492 C111.42252,132.66396 111.42252,138.11148 111.60504,143.57304 C111.78756,149.0346 112.11048,153.40104 112.62996,158.89068 L112.98096,162.47088 L113.14944,164.16972 L113.31792,165.36312 C113.50044,165.5316 113.50044,166.05108 113.50044,166.55652 L113.66892,167.58144 C113.8038,168.036601 113.860762,168.51129 113.8374,168.98544 L112.4334,168.98544 C112.014867,169.169873 111.655349,169.466231 111.39444,169.84188 C111.068559,170.349711 110.888827,170.93748 110.87496,171.54072 C110.368002,174.12786 110.025674,176.744555 109.85004,179.37504 C109.85004,180.04896 109.66752,182.26728 109.66752,182.26728 L109.66752,182.52 L109.66752,182.35152 C109.350856,182.345604 108.35569,187.085674 108.432,189.54 C108.43577,189.855602 108.561558,190.157494 108.783,190.3824 C109.591223,190.613966 110.411432,190.801442 111.24,190.944 C111.40848,190.944 111.40848,190.944 111.40848,190.77552 C111.40848,190.944 111.591,191.28096 111.75948,191.28096 C112.481562,191.503752 113.244499,191.561332 113.99184,191.44944 C114.292581,191.488778 114.597975,191.42967 114.86232,191.28096 L115.0308,191.28096 L116.75772,191.44944 C117.021832,191.584571 117.318543,191.64294 117.61416,191.61792 C117.860477,191.642721 118.10793,191.583333 118.31616,191.44944 C118.445819,191.31508 118.507751,191.129284 118.48464,190.944 L118.48464,190.593 L121.75596,190.593 C122.27544,190.42452 122.10696,189.7506 122.10696,189.41364 L121.99464,187.67268 Z" id="Shape" stroke="none" fill="#D5A179" fill-rule="nonzero"></path>
                                    <path d="M111.12768,190.944 C111.781244,189.688454 112.021993,188.258703 111.81564,186.85836" id="Path" stroke="#C18D5D" stroke-width="0.54" fill="none" stroke-linecap="round" stroke-linejoin="round"></path>
                                    <path d="M114.91848,191.42136 C115.5824,190.169307 115.823721,188.736154 115.60644,187.33572" id="Path" stroke="#C18D5D" stroke-width="0.54" fill="none" stroke-linecap="round" stroke-linejoin="round"></path>
                                    <path d="M118.37232,191.0844 C119.028658,189.829785 119.269559,188.399132 119.06028,186.99876" id="Path" stroke="#C18D5D" stroke-width="0.54" fill="none" stroke-linecap="round" stroke-linejoin="round"></path>
                                    <path d="M126.81036,99.1224 L126.81036,99.1224 C126.729595,99.5116104 126.673324,99.9055038 126.64188,100.30176 C126.64188,100.82124 126.4734,101.1582 126.4734,101.49516 L126.4734,102.01464 C126.4734,102.3516 125.78544,102.85704 125.60292,102.85704 C125.09748,103.03956 123.01956,104.05044 118.58292,102.68856 C116.628324,101.967421 114.902478,100.736059 113.58468,99.1224 C113.40216,99.1224 113.23368,98.60292 113.23368,98.60292 C113.40216,97.76052 113.75316,96.7356 113.92164,95.87916 C114.064712,95.4005708 114.238226,94.9316149 114.44112,94.47516 L114.9606,93.45024 C115.126865,93.2392925 115.379974,93.1153209 115.64856,93.11328 L115.64856,92.9448 C115.838114,92.9213842 116.028311,92.9830697 116.16804,93.11328 L116.16804,93.11328 L116.33652,93.28176 L116.33652,93.28176 C116.505,93.28176 116.505,93.45024 116.505,93.61872 L116.856,94.068 L117.207,94.40496 C117.568746,94.7439152 117.974957,95.0320412 118.41444,95.2614 C120.164536,96.1719204 122.069099,96.7480508 124.03044,96.96024 L125.28,96.96024 C125.460629,96.99003 125.635749,97.0468256 125.79948,97.12872 L126.31896,97.2972 L126.48744,97.2972 C126.768379,97.3829462 126.993137,97.5950018 127.095065,97.8704825 C127.196993,98.1459631 127.164388,98.4532432 127.00692,98.7012 C126.81036,98.93988 126.81036,98.93988 126.81036,99.1224 Z" id="Path" stroke="none" fill="#FFFFFF" fill-rule="nonzero"></path>
                                    <path d="M142.479,67.392 C142.479,67.392 147.1122,72.3762 150.903,68.34672" id="Path" stroke="#3F4E66" stroke-width="0.54" fill="none" stroke-linecap="round" stroke-linejoin="round"></path>
                                    <ellipse id="Oval" stroke="none" fill="#3F4E66" fill-rule="nonzero" cx="147.51936" cy="70.67736" rx="1" ry="1"></ellipse>
                                    <path d="M83.03364,201.06684 C83.03364,210.26304 83.13192,248.0166 83.13192,248.0166 L69.1902,248.28336 C69.1902,248.28336 67.7862,238.10436 67.2246,229.17492 C66.83148,222.91308 69.42888,217.21284 69.03576,213.22548 C68.43204,207.34272 66.60684,195.0858 65.00628,184.8366 C61.1874,197.27604 58.57596,208.5642 58.75848,217.56384 C58.8990287,224.803363 57.9186735,232.02105 55.8522,238.9608 L42.33168,234.87516 L50.2362,156.57408 L74.63772,156.04056 L81.65772,155.31048 C83.80584,163.88892 83.03364,201.06684 83.03364,201.06684 Z" id="Path" stroke="none" fill="#58738F" fill-rule="nonzero"></path>
                                    <path d="M18.7866,120.15432 L18.7866,120.05604 C18.7866,119.4102 18.7866,115.84404 20.92068,114.075 C20.92068,114.075 24.192,111.50568 26.32608,111.49164 L26.88768,114.9174 L24.07968,118.55376 L19.86768,120.65976" id="Path" stroke="none" fill="#21A2D4" fill-rule="nonzero"></path>
                                    <path d="M26.81748,112.85352 L25.596,117.61308 L19.6992,120.64572 L15.02388,114.58044 C13.3704898,114.491792 11.7410161,114.146003 10.19412,113.55552 C5.3082,111.51972 0.15552,97.7184 0.15552,97.7184 C-0.2376,95.823 2.44404,95.9634 2.44404,95.9634 C2.44404,95.9634 2.44404,95.83704 2.37384,95.79492 C1.32084,92.69208 3.44088,88.77492 3.44088,88.77492 C7.18956,83.34144 10.61532,88.70472 10.61532,88.70472 C12.6257836,92.6456067 15.2674312,96.2310387 18.4356,99.31896 C15.81012,93.1554 18.70236,93.00096 20.09232,93.70296 C22.5774,94.92444 22.90032,98.02728 22.25448,104.61204 C22.18428,105.28596 22.10004,105.90372 21.98772,106.4934 L26.81748,112.85352 Z" id="Path" stroke="none" fill="#F2C6A5" fill-rule="nonzero"></path>
                                    <path d="M18.7866,120.15432 L22.61952,124.77348 L29.76588,121.96548 L29.93436,116.34948 L26.32608,111.44952 C26.32608,111.44952 26.45244,117.83772 18.7866,120.15432 Z" id="Path" stroke="none" fill="#EDF7FA" fill-rule="nonzero"></path>
                                    <ellipse id="Oval" stroke="none" fill="#F3DFF4" fill-rule="nonzero" cx="22.66164" cy="121.3758" rx="1.06704" ry="1.08108"></ellipse>
                                    <path d="M47.34396,94.68576 L46.36116,120.87036 C46.36116,120.87036 40.74516,133.75908 37.44576,136.13184 L37.23516,136.24416 C37.0320156,136.337277 36.8126133,136.389742 36.58932,136.3986 C32.84064,138.0834 22.26852,124.57692 22.26852,124.57692 C30.69252,122.13396 29.82204,116.15292 29.82204,116.15292 L32.72832,119.74716 L47.34396,94.68576 Z" id="Path" stroke="none" fill="#21A2D4" fill-rule="nonzero"></path>
                                    <path d="M5.18184,87.048 C7.89156,86.68296 8.21448,89.28036 8.94456,91.62504 C9.5904,93.73104 11.64024,97.74648 13.8726,98.50464" id="Path" stroke="#E2B486" stroke-width="0.54" fill="none" stroke-linecap="round" stroke-linejoin="round"></path>
                                    <path d="M2.83716,90.31932 C5.94,90.16488 6.06636,93.32388 7.344,95.472 C8.62164,97.62012 9.05688,99.41724 10.72764,100.65276" id="Path" stroke="#E2B486" stroke-width="0.54" fill="none" stroke-linecap="round" stroke-linejoin="round"></path>
                                    <path d="M7.695,103.13784 C6.70953457,102.085883 5.91597964,100.869415 5.35032,99.5436 C4.90980703,97.9869357 3.83458151,96.6874926 2.38788,95.9634" id="Path" stroke="#E2B486" stroke-width="0.54" fill="none" stroke-linecap="round" stroke-linejoin="round"></path>
                                    <path d="M50.10984,150.66324 L49.63248,158.21676 C49.63248,158.21676 66.29796,166.78116 82.55628,156.44772 L82.02276,148.62744 L57.59316,152.16552 L50.10984,150.66324 Z" id="Path" stroke="none" fill="#205280" fill-rule="nonzero"></path>
                                    <path d="M56.86308,153.1764 C56.86308,153.1764 55.45908,158.21676 56.73672,160.51932 C56.73672,160.51932 64.43064,162.28836 66.1014,161.27748 C66.1014,161.27748 65.56788,154.67868 66.22776,153.12024 L56.86308,153.1764 Z" id="Path" stroke="none" fill="#AFB1BF" fill-rule="nonzero"></path>
                                    <path d="M58.8006,84.43656 L58.8006,87.70788 C58.54788,87.62364 56.2032,86.57064 56.7648,85.16664 C57.3977612,84.8110667 58.0859248,84.564277 58.8006,84.43656 L58.8006,84.43656 Z" id="Path" stroke="none" fill="#006DD0" fill-rule="nonzero"></path>
                                    <path d="M58.8006,84.24 L58.8006,84.50676 C58.1080831,84.6477494 57.4643999,84.9671712 56.93328,85.4334 C56.4074653,85.9084623 55.9060623,86.4098653 55.431,86.93568 C54.9344051,87.7318472 54.5248897,88.5791206 54.20952,89.46288 L54.20952,89.46288 C54.3483673,86.8698781 56.2468063,84.710186 58.8006,84.24 Z" id="Path" stroke="none" fill="#EDF7FA" fill-rule="nonzero"></path>
                                    <path d="M71.39448,84.942 L71.05752,89.154 L63.153,99.22068 L57.3264,96.41268 L54.18144,89.4348 L54.18144,89.4348 L54.18144,89.4348 C54.4390239,88.462404 54.8015116,87.5208776 55.26252,86.6268 C55.7654168,86.1749315 56.316256,85.7794572 56.9052,85.44744 C56.3436,86.85144 58.5198,87.70788 58.77252,87.79212 L58.77252,84.24 L58.91292,84.24 C58.91292,84.24 68.78304,82.49904 71.39448,84.942 Z" id="Path" stroke="none" fill="#006DD0" fill-rule="nonzero"></path>
                                    <path d="M67.84236,78.02028 C67.84236,78.02028 66.83148,84.74544 67.96872,89.16804 L63.89712,100.1052 L59.68512,98.7012 L58.14072,87.62364 C58.14072,87.62364 56.58228,81.46008 58.14072,78.80652 L67.84236,78.02028 Z" id="Path" stroke="none" fill="#EEB284" fill-rule="nonzero"></path>
                                    <path d="M84.22704,112.64292 C84.22704,112.64292 78.77952,134.60148 81.27864,144.16272 L82.23336,149.23116 C82.23336,149.23116 75.33972,155.2824 62.1,154.62252 C62.1,154.62252 52.272,153.036 50.12388,151.4214 C50.12388,151.4214 47.7792,150.87384 49.71672,148.69764 C49.71672,148.69764 47.58264,147.29364 49.99752,145.77732 C49.99752,145.77732 50.39064,144.55584 48.79008,136.73556 C47.18952,128.91528 42.62652,101.80404 46.90872,95.3316 C46.90872,95.3316 48.31272,92.08836 54.19548,89.4348 L57.00348,87.94656 L58.22496,87.80616 L58.22496,88.15716 C60.0010783,91.1987412 61.2406397,94.5232354 61.8894,97.98516 L61.8894,97.88688 C61.9298793,97.8023617 61.9582385,97.7125576 61.97364,97.62012 L61.97364,97.80264 C61.97364,97.80264 65.45556,88.8732 67.58964,88.19928 L67.37904,87.91848 L73.4724,88.78896 C76.3440222,89.6364677 79.1164124,90.789669 81.74196,92.22876 L81.74196,92.22876 C85.30812,94.46112 85.79952,105.38424 84.22704,112.64292 Z" id="Path" stroke="none" fill="#00B0ED" fill-rule="nonzero"></path>
                                    <path d="M57.888,89.39268 C57.4390355,91.06752 57.2310247,92.7977917 57.27024,94.53132 C54.06912,94.26456 54.19548,89.4348 54.19548,89.4348 C54.19548,89.4348 54.19548,89.4348 54.19548,89.4348 L57.888,89.39268 Z" id="Path" stroke="none" fill="#EDF7FA" fill-rule="nonzero"></path>
                                    <path d="M66.70512,87.87636 C66.70512,87.87636 72.01224,86.79528 70.04664,85.2228 C69.2140777,84.7144399 68.3349392,84.2866239 67.42116,83.94516 L67.42116,83.45376 C67.42116,83.45376 70.43976,83.70648 71.42256,84.63312 C72.40536,85.55976 73.14948,87.3288 73.6128,90.24912 C72.9996898,92.2702759 71.7299207,94.0291778 70.00452,95.24736 L69.20424,95.65452 C69.86412,89.3646 66.71916,87.97464 66.71916,87.97464 L66.70512,87.87636 Z" id="Path" stroke="none" fill="#EDF7FA" fill-rule="nonzero"></path>
                                    <path d="M58.8006,87.70788 L58.8006,87.70788 C58.3512492,88.1777944 58.0361085,88.7595927 57.888,89.39268 L54.20952,89.39268 C54.4423854,88.3400605 54.7957135,87.3177643 55.26252,86.346 C55.7650515,85.9336646 56.3287235,85.6020929 56.93328,85.3632 C56.37168,86.7672 58.54788,87.62364 58.8006,87.70788 Z" id="Path" stroke="none" fill="#EDF7FA" fill-rule="nonzero"></path>
                                    <path d="M67.37904,88.21332 C65.31516,88.88724 61.76304,97.81668 61.76304,97.81668 L61.76304,97.63416 L61.76304,97.63416 C62.21232,95.92128 64.19196,88.98552 66.8034,87.90444 L67.0842,87.90444 L67.37904,88.21332 Z" id="Path" stroke="none" fill="#EDF7FA" fill-rule="nonzero"></path>
                                    <path d="M61.749,97.9992 C61.1002397,94.5372754 59.8606783,91.2127812 58.08456,88.1712 L58.08456,87.8202 L58.74444,87.73596 C60.5732206,90.8585519 61.6051064,94.383358 61.749,97.9992 Z" id="Path" stroke="none" fill="#EDF7FA" fill-rule="nonzero"></path>
                                    <path d="M37.44576,136.188 C37.3898795,136.247006 37.3231399,136.294677 37.2492,136.3284 L37.2492,136.3284 L37.44576,136.188 Z" id="Path" stroke="none" fill="#0275D8" fill-rule="nonzero"></path>
                                    <path d="M75.63456,149.07672 C76.3100338,147.720503 77.6364961,146.807897 79.14456,146.66184 C79.73424,146.74608 80.4222,148.36068 80.4222,148.36068 L82.28952,146.95668 C82.28952,146.95668 80.68896,145.65096 80.78724,144.87876 C81.4862534,142.984804 83.0536983,141.542754 84.99924,141.00372 C85.98204,140.91948 87.45624,142.94124 88.41096,142.81488 C89.36568,142.68852 90.43272,140.5404 91.21896,140.09112 C92.46852,139.30488 96.4278,140.23152 96.4278,140.23152 L98.98308,147.57444 L96.68052,150.25608 C96.459463,150.505495 96.3946114,150.856775 96.51204,151.16868 C97.1636174,152.541233 97.0845526,154.148885 96.30144,155.45088 C96.30144,155.45088 92.08944,162.17604 89.28144,162.9342 C86.4311963,163.778926 83.3472852,162.991774 81.25056,160.88436 C77.544,157.33224 74.63772,151.51968 75.63456,149.07672 Z" id="Path" stroke="none" fill="#F2C6A5" fill-rule="nonzero"></path>
                                    <path d="M77.76864,149.7366 C80.4911917,148.789282 82.8612016,147.036259 84.564,144.71028" id="Path" stroke="#E2B486" stroke-width="0.54" fill="none" stroke-linecap="round" stroke-linejoin="round"></path>
                                    <path d="M75.88728,153.036 C77.2504138,154.066584 78.9702755,154.506666 80.66088,154.25748" id="Path" stroke="#E2B486" stroke-width="0.54" fill="none" stroke-linecap="round" stroke-linejoin="round"></path>
                                    <path d="M78.3864,157.6692 C78.3864,157.6692 81.4752,158.89068 83.16,157.93596" id="Path" stroke="#E2B486" stroke-width="0.54" fill="none" stroke-linecap="round" stroke-linejoin="round"></path>
                                    <path d="M81.22248,160.92648 C81.22248,160.92648 84.73248,162.06372 86.29092,161.20728" id="Path" stroke="#E2B486" stroke-width="0.54" fill="none" stroke-linecap="round" stroke-linejoin="round"></path>
                                    <path d="M89.92728,140.751 L94.13928,134.82612 L101.29968,135.44388 L102.24036,142.7166 L98.96904,147.61656 C98.96904,147.61656 96.68052,140.80716 89.92728,140.751 Z" id="Path" stroke="none" fill="#EDF7FA" fill-rule="nonzero"></path>
                                    <path d="M81.60156,92.28492 C81.60156,92.28492 105.624,112.82544 109.75176,127.764 C109.883369,128.235874 109.822795,128.740661 109.58328,129.168 L102.17016,142.7868 C102.17016,142.7868 100.30284,135.99144 93.46536,135.58428 L97.08768,130.572 C97.08768,130.572 90.92412,117.7956 83.42676,109.63836 L81.60156,92.28492 Z" id="Path" stroke="none" fill="#00B0ED" fill-rule="evenodd"></path>
                                    <ellipse id="Oval" stroke="none" fill="#F3DFF4" fill-rule="nonzero" cx="99.62892" cy="142.5762" rx="1.06704" ry="1.08108"></ellipse>
                                    <path d="M61.59456,105.62292 C61.3627652,102.957023 61.419252,100.273899 61.76304,97.62012 C61.7924057,97.59903 61.8319543,97.59903 61.86132,97.62012 C61.876368,97.6461839 61.876368,97.6782961 61.86132,97.70436 C61.7371959,99.0249365 61.690316,100.351636 61.72092,101.67768 C61.72092,102.99744 61.72092,104.33124 61.83324,105.651 C61.83324,105.736295 61.7640949,105.80544 61.6788,105.80544 C61.5935051,105.80544 61.52436,105.736295 61.52436,105.651 L61.59456,105.62292 Z" id="Path" stroke="none" fill="#EDF7FA" fill-rule="nonzero"></path>
                                    <ellipse id="Oval" stroke="none" fill="#006DD0" fill-rule="nonzero" cx="62.98452" cy="99.93672" rx="1" ry="1"></ellipse>
                                    <ellipse id="Oval" stroke="none" fill="#006DD0" fill-rule="nonzero" cx="63.0828" cy="103.83984" rx="1" ry="1"></ellipse>
                                    <path d="M56.6244,167.076 C58.5112421,167.852479 60.5654965,168.132825 62.5914,167.89032 L65.3994,186.46524" id="Path" stroke="#205280" stroke-width="0.65988" fill="none" stroke-linecap="round"></path>
                                    <path d="M73.332,161.46 C73.332,161.46 77.79672,168.98544 82.69668,167.44104" id="Path" stroke="#205280" stroke-width="0.65988" fill="none" stroke-linecap="round"></path>
                                    <path d="M53.57772,160.4772 C53.57772,160.4772 52.60896,164.38032 50.46084,165.19464" id="Path" stroke="#205280" stroke-width="0.65988" fill="none" stroke-linecap="round"></path>
                                    <path d="M79.14456,66.46536 C79.14456,66.46536 82.90728,71.30916 81.8262,72.40428 C81.09612,73.16244 79.48152,72.12348 78.34428,71.87076 C78.0354,71.87076 77.93712,71.87076 78.00732,72.26388 C78.1758,72.99396 78.1758,74.6226 77.78268,74.88936 C77.38956,75.15612 72.79848,74.88936 72.25092,72.5166 C72.0558972,70.4637852 72.3344847,68.3935922 73.06524,66.46536 L78.34428,64.584 L79.14456,66.46536 Z" id="Path" stroke="none" fill="#684642" fill-rule="nonzero"></path>
                                    <path d="M43.10388,53.4222 C43.10388,53.4222 38.21796,52.11648 38.38644,58.28004 C38.38644,58.28004 37.97928,65.01924 44.38152,66.78828 L43.10388,53.4222 Z" id="Path" stroke="none" fill="#F2C6A5" fill-rule="nonzero"></path>
                                    <path d="M39.74832,55.76688 C39.74832,55.76688 42.55632,54.95256 43.67952,59.12244" id="Path" stroke="#000000" stroke-width="0.54" fill="none" stroke-linecap="round" stroke-linejoin="round"></path>
                                    <path d="M41.26464,37.23408 L43.497,72.33408 C43.497,72.33408 43.34256,77.51484 49.3938,79.59276 C53.90064,81.13716 68.03892,84.591 73.93572,74.60856 C74.9330439,72.2182802 75.3283711,69.6197269 75.087,67.041 L74.736,40.32288 L68.57244,33.38712 L49.2534,32.61492 L41.26464,37.23408 Z" id="Path" stroke="none" fill="#F2C6A5" fill-rule="nonzero"></path>
                                    <path d="M74.53944,54.756 C74.53944,54.756 75.42396,50.4036 78.58296,50.15088 C81.74196,49.89816 84.78864,52.74828 85.30812,57.64824 C85.30812,57.64824 85.30812,66.28284 79.45344,67.47624 C77.7687577,67.5976084 76.106936,67.0301571 74.84832,65.90376 L74.53944,54.756 Z" id="Path" stroke="none" fill="#F2C6A5" fill-rule="nonzero"></path>
                                    <path d="M76.50504,58.968 C76.50504,58.968 78.5268,51.51276 82.44396,54.37692" id="Path" stroke="#000000" stroke-width="0.54" fill="none" stroke-linecap="round" stroke-linejoin="round"></path>
                                    <path d="M82.6686,51.72336 C81.4752,50.57208 80.81532,50.8248 79.35516,50.9652 C77.4811089,51.2057246 76.01414,52.6958868 75.80304,54.57348 C75.80304,54.57348 75.33972,59.3892 75.03084,60.84936 C74.9466,61.24248 73.72512,61.13016 73.72512,61.13016 C73.34604,61.13016 72.71424,60.87744 72.65808,60.5124 C72.6295085,57.5315251 72.8549638,54.5536354 73.332,51.61104 C73.7690968,50.167615 73.5591204,48.6055956 72.75636,47.32884 C71.97012,47.07612 70.42572,46.50048 70.11684,45.92484 C69.62544,45.02628 70.41168,42.85008 70.27128,41.86728 C70.0757127,41.0547691 69.8366891,40.253337 69.55524,39.46644 C66.74724,36.504 56.484,36.06876 56.484,36.06876 C46.99296,35.75988 43.0056,41.92344 43.0056,41.92344 C36.39276,41.92344 33.00912,37.71144 32.67216,36.48996 C31.01544,30.56508 45.86976,28.83816 45.86976,28.83816 C38.48472,27.33588 35.0028,26.97084 36.04176,24.44364 C38.31624,18.82764 54.39204,23.92416 55.69776,24.3594 C46.656,20.1474 49.6746,17.42364 49.6746,17.42364 C54.20952,15.19128 67.716,25.98804 67.716,25.98804 C70.83288,27.15336 78.18984,30.64932 78.18984,30.64932 C84.04452,34.58052 80.9136,38.1186 80.9136,38.1186 C85.51872,45.96696 83.2302,50.74056 82.6686,51.72336 Z" id="Path" stroke="none" fill="#684642" fill-rule="nonzero"></path>
                                    <path d="M73.59876,61.776 L75.2274,61.67772 C75.3540579,61.6700496 75.4785579,61.7131226 75.5733967,61.7974237 C75.6682354,61.8817248 75.7256079,62.0003163 75.73284,62.127 L75.81708,63.531 C75.8337426,63.7847829 75.6485073,64.0070653 75.39588,64.03644 L73.87956,64.24704 C73.6124953,64.2802682 73.3683871,64.0924927 73.332,63.82584 L73.14948,62.28144 C73.1410655,62.0203151 73.3384495,61.7982582 73.59876,61.776 L73.59876,61.776 Z" id="Path" stroke="none" fill="#684642" fill-rule="nonzero"></path>
                                    <path d="M42.99156,62.15508 L44.10072,62.15508 C44.1901079,62.1512778 44.2773382,62.1831809 44.343181,62.2437563 C44.4090238,62.3043316 44.448073,62.3886057 44.45172,62.478 L44.45172,63.4608 C44.4682755,63.6344348 44.343954,63.7898367 44.17092,63.8118 L43.11792,63.96624 C43.0299446,63.9780892 42.940971,63.9531998 42.8719134,63.8974225 C42.8028557,63.8416452 42.7598047,63.7598993 42.75288,63.6714 L42.62652,62.60436 C42.5857079,62.4928864 42.6065633,62.3681616 42.6814208,62.2760294 C42.7562782,62.1838971 42.8740925,62.1379514 42.99156,62.15508 L42.99156,62.15508 Z" id="Path" stroke="none" fill="#684642" fill-rule="nonzero"></path>
                                    <path d="M43.16004,64.1628 L44.28324,64.1628 C44.46576,64.1628 44.6202,64.1628 44.63424,64.33128 L44.63424,64.89288 C44.63424,64.99116 44.52192,65.0754 44.3394,65.08944 L43.30044,65.17368 C43.11792,65.17368 42.94944,65.17368 42.92136,65.0052 L42.795,64.41552 C42.83712,64.27512 42.97752,64.17684 43.16004,64.1628 Z" id="Path" stroke="none" fill="#684642" fill-rule="nonzero"></path>
                                    <path d="M73.73916,64.8648 L75.35376,64.8648 C75.62052,64.8648 75.84516,64.97712 75.8592,65.1456 L75.94344,66.00204 C75.94344,66.15648 75.77496,66.28284 75.53628,66.31092 L74.00592,66.43728 C73.73916,66.43728 73.50048,66.339 73.4724,66.18456 L73.332,65.18772 C73.24776,65.01924 73.45836,64.8648 73.73916,64.8648 Z" id="Path" stroke="none" fill="#684642" fill-rule="nonzero"></path>
                                    <path d="M44.57808,39.77532 C43.59528,41.17932 44.57808,45.46152 44.57808,45.46152 C44.0505633,46.3665598 43.5816019,47.3044828 43.17408,48.26952 C42.3738,50.79672 43.96032,58.8978 44.43768,61.1442 C44.4621768,61.3848947 44.3406148,61.6169676 44.1288,61.73388 L42.7248,61.73388 C42.4993338,61.5446871 42.349763,61.2804453 42.3036,60.98976 C41.82624,57.69036 39.97296,44.38044 40.98384,40.18248 C40.98384,40.09824 40.98384,39.99996 41.05404,39.91572 C42.444,35.39484 45.08352,39.05928 44.57808,39.77532 Z" id="Path" stroke="none" fill="#684642" fill-rule="nonzero"></path>
                                    <path d="M67.07016,56.25828 C67.7862,56.25828 68.38992,55.41588 68.47416,54.3348 C68.5584,53.25372 67.95468,52.3692 67.23864,52.35516 C66.5226,52.34112 65.93292,53.18352 65.83464,54.2646 C65.73636,55.34568 66.312,56.2302 67.07016,56.25828 Z" id="Path" stroke="#000000" stroke-width="0.54" fill="#000000" fill-rule="nonzero"></path>
                                    <path d="M50.95224,54.62964 C50.88204,55.71072 50.25024,56.53908 49.54824,56.49696 C48.84624,56.45484 48.32676,55.5282 48.39696,54.44712 C48.46716,53.36604 49.113,52.55172 49.80096,52.59384 C50.48892,52.63596 51.03648,53.5626 50.95224,54.62964" id="Path" stroke="#000000" stroke-width="0.54" fill="#000000" fill-rule="nonzero"></path>
                                    <path d="M69.12,49.23828 C69.12,49.23828 65.90484,45.89676 64.22004,49.50504" id="Path" stroke="#000000" stroke-width="0.54" fill="none" stroke-linecap="round" stroke-linejoin="round"></path>
                                    <path d="M51.69636,51.13368 C51.69636,51.13368 48.4812,47.8062 46.7964,51.41448" id="Path" stroke="#000000" stroke-width="0.54" fill="none" stroke-linecap="round" stroke-linejoin="round"></path>
                                    <path d="M58.85676,60.372 C55.8522,59.5296 51.54192,59.40324 53.08632,64.78056" id="Path" stroke="#000000" stroke-width="0.54" fill="none" stroke-linecap="round" stroke-linejoin="round"></path>
                                    <path d="M51.8508,73.59768 C51.8508,73.59768 62.54928,76.40568 67.2948,68.50116" id="Path" stroke="#000000" stroke-width="0.54" fill="none"></path>
                                    <path d="M65.72232,56.62332 C66.5840933,56.2845011 67.5421867,56.2845011 68.40396,56.62332" id="Path" stroke="#000000" stroke-width="0.54" fill="none" stroke-linecap="round" stroke-linejoin="round"></path>
                                    <path d="M48.14424,56.90412 C49.0013332,56.5661889 49.9547468,56.5661889 50.81184,56.90412" id="Path" stroke="#000000" stroke-width="0.54" fill="none" stroke-linecap="round" stroke-linejoin="round"></path>
                                    <path d="M154.768755,41.03892 C154.200247,45.1415616 155.061842,47.8443591 157.353539,49.1473125 C159.645236,50.4502659 158.356177,51.0421884 153.48636,50.92308" id="Path-2" stroke="#000000" stroke-width="0.5616" fill="none" stroke-linecap="round" stroke-linejoin="round"></path>
                                </g>
                            </g>
                        </g>
                    </g>
                </g>
            </g>
        </g>
    </g>
</svg>