<svg xmlns="http://www.w3.org/2000/svg" width="51" height="51" viewBox="0 0 51 51">
    <g fill="none" fill-rule="evenodd" transform="translate(-8.18 -8)">
        <circle cx="33.551" cy="33.373" r="23.543" fill="#00B0ED" transform="rotate(-45 33.55 33.373)"/>
        <path fill="#006DD0" d="M45.813 50.897c-2.933-.183-3.348-2.661-3.407-3.37-.012-.134-.051-.263-.116-.381L26.628 18.619c-.076-.139-.183-.26-.316-.343-1.95-1.215-1.445-3.444-.999-4.616.155-.407.008-.854-.344-1.111-.331-.242-.519-.542-.617-.853-.869.37-1.725.796-2.563 1.28C10.527 19.478 6.668 33.88 13.17 45.141c6.503 11.262 20.903 15.12 32.165 8.619.603-.348 1.184-.72 1.744-1.112-.208-.294-.3-.617-.334-.907-.054-.47-.46-.815-.932-.844z"/>
        <path fill="#2A428C" fill-rule="nonzero" d="M16.484 49.584c.399-.123.79-.29 1.167-.508l3.918-2.262-5.622-9.738-3.918 2.262c-.381.22-.725.479-1.033.767.515 1.722 1.236 3.412 2.174 5.036.948 1.642 2.065 3.125 3.314 4.443z"/>
        <path fill="#1C2E7A" fill-rule="nonzero" d="M13.935 45.904c-.242-.687.033-1.463.663-1.83l.02-.012 1.898-1.095c1.116-.645 2.543-.262 3.187.854l1.763 3.053.103-.06-5.622-9.738-3.918 2.262c-.381.22-.725.479-1.033.767.515 1.721 1.236 3.411 2.174 5.036.366.633.757 1.242 1.171 1.828-.144-.353-.28-.708-.406-1.065z"/>
        <path fill="#FFF" fill-rule="nonzero" d="M40.69 36.13c-.836-.648-.989-1.851-.341-2.687 2.03-2.622-.146-6.392-3.432-5.945-1.048.143-2.013-.591-2.156-1.64-.142-1.047.591-2.013 1.64-2.155 6.676-.908 11.103 6.754 6.976 12.084-.649.838-1.85.989-2.686.342z"/>
        <path fill="#FFF" fill-rule="nonzero" d="M46.382 38.842c-.905-.547-1.195-1.724-.648-2.63 3.966-6.558-.86-14.918-8.523-14.763-1.058.022-1.932-.818-1.954-1.876-.02-1.057.819-1.932 1.876-1.953 10.676-.216 17.404 11.436 11.879 20.574-.55.908-1.728 1.193-2.63.648z"/>
        <path fill="#006DD0" d="M46.123 55.124c-11.996 6.925-27.39 2.8-34.316-9.195-6.926-11.996-2.801-27.39 9.195-34.317 11.996-6.925 27.39-2.8 34.316 9.196 6.926 11.995 2.8 27.39-9.195 34.316zM22.576 14.34c-10.492 6.057-14.1 19.522-8.042 30.014s19.522 14.1 30.014 8.042c10.492-6.057 14.1-19.522 8.042-30.014-6.057-10.492-19.522-14.1-30.014-8.042z"/>
        <path fill="#00B0ED" d="M46.745 51.742c-.026-.23-.137-.428-.297-.576-.606.438-1.239.849-1.9 1.23-10.492 6.058-23.956 2.45-30.014-8.042-6.057-10.492-2.45-23.957 8.042-30.014.893-.516 1.808-.96 2.737-1.337-.066-.176-.182-.336-.344-.454-.794-.582-.77-1.49-.636-2.098.033-.15.028-.302-.008-.445-1.13.448-2.24.981-3.323 1.606-11.996 6.926-16.121 22.32-9.195 34.316 6.925 11.996 22.32 16.121 34.316 9.195.827-.478 1.616-.997 2.368-1.552-.094-.074-.203-.135-.324-.173-1.044-.335-1.354-1.067-1.422-1.656z"/>
        <path fill="#3C58A0" fill-rule="nonzero" d="M19.18 33.87l-3.371 1.946c-.449.259-.602.832-.343 1.28l5.845 10.125c.259.448.832.601 1.28.343l3.372-1.947c.448-.259.602-.832.343-1.28L20.46 34.213c-.26-.449-.832-.602-1.28-.343z"/>
        <path fill="#2A428C" fill-rule="nonzero" d="M20.222 41.848l1.81-1.046c.762-.44 1.685-.341 2.334.174l-3.905-6.763c-.26-.449-.832-.602-1.28-.343l-3.373 1.946c-.448.259-.601.832-.343 1.28l3.721 6.445c.036-.68.403-1.328 1.036-1.693z"/>
        <path fill="#D3DCFB" fill-rule="nonzero" d="M26.239 19.354l-6 12.33c-.47.77-.483 1.736-.032 2.517l5.876 10.176c.45.781 1.293 1.254 2.194 1.231l13.786 1.155-15.824-27.41z"/>
        <path fill="#BEC8F7" fill-rule="nonzero" d="M24.403 39.145l2.281-4.586c1.362-2.737 4.599-3.551 6.99-2.328l-7.436-12.877-6 12.33c-.47.77-.482 1.736-.031 2.517l3.812 6.602c-.059-.568.07-1.152.384-1.658z"/>
        <path fill="#E9EFFF" fill-rule="nonzero" d="M42.396 47.34c-.916.528-2.087.214-2.616-.702L25.059 21.14c-.529-.916-.215-2.087.701-2.616.916-.528 2.087-.215 2.616.702l14.721 25.497c.529.916.215 2.087-.701 2.616z"/>
        <path fill="#D3DCFB" fill-rule="nonzero" d="M32.255 29.77c.705-.407 1.538-.383 2.2-.014l-6.08-10.53c-.528-.916-1.7-1.23-2.615-.701-.916.529-1.23 1.7-.701 2.616l6.084 10.538c.008-.762.405-1.5 1.112-1.909z"/>
    </g>
</svg>
