<svg xmlns="http://www.w3.org/2000/svg" width="88" height="99" viewBox="0 0 88 99">
    <g fill="none" fill-rule="evenodd">
        <path fill="#DBDBDB" d="M59.492 19.595L63.711 94.736 4.691 98.371 0.472 23.23z"/>
        <path fill="#F1F1F1" d="M70.325 0.122L74.544 75.263 50.186 76.763 15.524 78.898 11.305 3.757z"/>
        <path fill="#DBDBDB" d="M66.207 23.195L22.109 25.622 22.109 27.24 66.207 24.408zM65.645 15.336L21.546 17.764 21.546 19.382 65.645 16.55zM67.017 30.882L22.918 33.714 22.918 34.927 67.421 32.5zM67.017 38.569L22.513 41.401 22.918 42.614 67.017 40.187zM67.421 45.851L22.918 48.683 23.323 49.897 67.421 47.469zM67.826 55.156L23.727 57.988 23.727 59.202 68.231 56.775zM62.162 64.057L24.536 66.08 24.536 67.294 62.162 65.27zM65.413 7.693L21.314 10.12 21.314 11.739 65.413 8.907z"/>
        <path fill="#0052C2" d="M54.319 48.797c-9.322 0-16.879 7.557-16.879 16.879 0 9.322 7.557 16.88 16.879 16.88 9.322 0 16.88-7.558 16.88-16.88s-7.558-16.88-16.88-16.88zm0 4.992c6.565 0 11.887 5.322 11.887 11.887S60.884 77.563 54.32 77.563s-11.887-5.322-11.887-11.887 5.322-11.887 11.887-11.887z"/>
        <path fill="#0052C2" d="M62.902 75.731l18.806 18.85c.326.34.815.308 1.092-.072l4.288-5.879c.278-.38.201-.924-.171-1.213l-20.71-15.442-3.305 3.756z"/>
        <path fill="#0052C2" d="M54.319 48.797c-9.322 0-16.879 7.557-16.879 16.879 0 6.864 4.117 12.744 10 15.382 1.32.186 2.664.312 4.04.312 5.796 0 11.128-1.746 15.522-4.665 2.58-2.964 4.196-6.791 4.196-11.03 0-9.32-7.557-16.878-16.879-16.878zm0 4.992c6.565 0 11.887 5.322 11.887 11.887S60.884 77.563 54.32 77.563s-11.887-5.322-11.887-11.887 5.322-11.887 11.887-11.887z"/>
        <path fill="#0052C2" d="M54.319 53.789c6.565 0 11.887 5.322 11.887 11.887S60.884 77.563 54.32 77.563s-11.887-5.322-11.887-11.887 5.322-11.887 11.887-11.887z" opacity=".3"/>
        <path fill="#F1F1F1" d="M54.319 61.428c0-2.347 1.902-4.249 4.249-4.249 2.346 0 4.248 1.902 4.248 4.249 0 2.346-1.902 4.248-4.248 4.248-2.347 0-4.249-1.902-4.249-4.248z"/>
    </g>
</svg>
