<svg xmlns="http://www.w3.org/2000/svg" xmlns:xlink="http://www.w3.org/1999/xlink" width="255" height="234" viewBox="0 0 255 234">
    <defs>
        <circle id="prefix__c" cx="62.43" cy="62.43" r="62.43"/>
        <rect id="prefix__a" width="255" height="234" x="0" y="0" rx="8"/>
    </defs>
    <g fill="none" fill-rule="evenodd">
        <mask id="prefix__b" fill="#fff">
            <use xlink:href="#prefix__a"/>
        </mask>
        <rect width="254" height="233" x=".5" y=".5" stroke="#CCC" rx="8"/>
        <text fill="#000" font-family="Montserrat-Medium, Montserrat" font-size="18" font-weight="400" mask="url(#prefix__b)">
            <tspan x="50.222" y="201">Cocina saludable</tspan>
        </text>
        <g>
            <g transform="translate(64 37) translate(2.093 1)">
                <use fill="#95C120" xlink:href="#prefix__c"/>
            </g>
            <g fill-rule="nonzero">
                <path fill="#195C85" d="M52.138 5.214h-41.71c0-2.88 2.766-5.214 6.18-5.214h29.35c3.414 0 6.18 2.334 6.18 5.214zM49.531 18.248v5.214h14.338c.72 0 1.303.584 1.303 1.304v26.068h5.214V23.462c0-2.88-2.334-5.214-5.214-5.214H49.531z" transform="translate(64 37) matrix(-1 0 0 1 71 38)"/>
                <path fill="#87CEE9" d="M52.138 14.689V5.214H0l10.428 9.475-3.91 9.474V48.53c0 17.193 8.21 27.071 24.765 27.071 16.554 0 24.765-9.878 24.765-27.071V24.163l-3.91-9.474z" transform="translate(64 37) matrix(-1 0 0 1 71 38)"/>
                <path fill="#195C85" d="M20.855 15.641H10.428c-.72 0-1.304-.583-1.304-1.303s.584-1.304 1.304-1.304h10.427c.72 0 1.304.584 1.304 1.304 0 .72-.584 1.303-1.304 1.303zM31.283 15.641h-5.214c-.72 0-1.303-.583-1.303-1.303s.583-1.304 1.303-1.304h5.214c.72 0 1.303.584 1.303 1.304 0 .72-.583 1.303-1.303 1.303z" transform="translate(64 37) matrix(-1 0 0 1 71 38)"/>
                <path fill="#C3E9F4" d="M50.834 28.584c-9.775 0-9.775 2.699-19.551 2.699-9.776 0-9.776-2.7-19.552-2.7v19.943c0 14.711 6.396 21.86 19.552 21.86 13.155 0 19.551-7.149 19.551-21.859V28.584z" transform="translate(64 37) matrix(-1 0 0 1 71 38)"/>
                <g fill="#195C85">
                    <path d="M13.034 0L15.641 0 15.641 2.607 13.034 2.607zM16.945 5.214L19.552 5.214 19.552 7.821 16.945 7.821zM0 11.731L2.607 11.731 2.607 14.338 0 14.338zM3.91 16.945L6.517 16.945 6.517 19.552 3.91 19.552z" transform="translate(64 37) matrix(-1 0 0 1 71 38) translate(22.159 36.497)"/>
                </g>
            </g>
            <g fill-rule="nonzero">
                <path fill="#E6E6E6" d="M36.598 63.762H50.4c1.25 0 2.021-1.364 1.376-2.434l-.013-.021c-.893-1.483-1.067-3.348-.27-4.885.695-1.344 1.825-2.452 3.249-3.133 9.726-4.644 16.623-9.833 17.34-20.42.068-1.002-.72-1.865-1.726-1.865H1.733c-1.006 0-1.795.863-1.727 1.866.717 10.585 7.613 15.775 17.34 20.42 1.423.678 2.554 1.788 3.25 3.132.796 1.537.622 3.402-.27 4.885l-.014.021c-.645 1.071.126 2.434 1.376 2.434h14.91z" transform="translate(64 37) translate(47 55)"/>
                <path fill="#FFF" d="M45.36 56.202H34.39c-.696 0-1.26-.563-1.26-1.26 0-.696.564-1.26 1.26-1.26h10.97c.696 0 1.26.564 1.26 1.26 0 .697-.564 1.26-1.26 1.26zM30.726 56.202H26.46c-.696 0-1.26-.563-1.26-1.26 0-.696.564-1.26 1.26-1.26h4.266c.696 0 1.26.564 1.26 1.26 0 .697-.564 1.26-1.26 1.26zM45.36 59.982h-18.9c-.696 0-1.26-.563-1.26-1.26 0-.696.564-1.26 1.26-1.26h18.9c.696 0 1.26.564 1.26 1.26 0 .697-.564 1.26-1.26 1.26z" transform="translate(64 37) translate(47 55)"/>
                <path fill="#D13834" d="M51.66.762c-6.263 0-11.34 5.077-11.34 11.34 0 .886.112 1.744.304 2.572.638.656 1.614.882 2.468.486l.494-.228c1.375-.636 2.963.281 3.1 1.79l.049.541c.095 1.054.93 1.889 1.984 1.983l.542.05c1.508.136 2.425 1.726 1.79 3.1l-.229.493c-.076.163-.1.334-.132.504.321.028.644.05.971.05 6.264 0 11.34-5.079 11.34-11.34C63 5.838 57.923.762 51.66.762z" transform="translate(64 37) translate(47 55)"/>
                <path fill="#436B1C" d="M62.967 12.75c-.337 5.96-5.263 10.692-11.307 10.692-.328 0-.653-.015-.974-.043-.16.83.144 1.695.86 2.2l.445.314c1.238.872 1.238 2.708 0 3.579l-.446.313c-.404.285-.672.69-.812 1.136.017.02.032.041.05.061h16.87c1.8-2.007 2.904-4.652 2.904-7.56.003-4.948-3.17-9.144-7.59-10.692z" transform="translate(64 37) translate(47 55)"/>
                <path fill="#ED3F32" d="M49.878 11.58c-.322 0-.645-.123-.89-.369l-3.565-3.563c-.493-.492-.493-1.289 0-1.781.493-.493 1.289-.493 1.782 0l3.564 3.563c.493.492.493 1.289 0 1.781-.246.246-.568.37-.89.37zM57.006 18.707c-.322 0-.645-.123-.89-.369l-3.565-3.563c-.493-.493-.493-1.29 0-1.782.492-.493 1.289-.493 1.781 0l3.565 3.563c.491.493.493 1.29 0 1.782-.247.247-.568.37-.89.37zM53.442 11.58c-.323 0-.645-.123-.891-.369-.493-.492-.493-1.289 0-1.781l3.564-3.563c.493-.493 1.29-.493 1.782 0 .493.492.491 1.289 0 1.781l-3.565 3.563c-.245.246-.568.37-.89.37zM46.944 18.077c-.323 0-.645-.123-.891-.369-.493-.493-.493-1.289 0-1.782l2.935-2.933c.492-.493 1.289-.493 1.781 0 .493.493.493 1.29 0 1.782l-2.934 2.933c-.246.247-.569.37-.891.37z" transform="translate(64 37) translate(47 55)"/>
                <path fill="#659C35" d="M66.78 23.442h-5.04c-.697 0-1.26-.563-1.26-1.26 0-.696.563-1.26 1.26-1.26h5.04c.697 0 1.26.564 1.26 1.26 0 .697-.563 1.26-1.26 1.26zM59.22 31.002c-.697 0-1.26-.563-1.26-1.26v-5.04c0-.696.563-1.26 1.26-1.26.697 0 1.26.564 1.26 1.26v5.04c0 .697-.563 1.26-1.26 1.26z" transform="translate(64 37) translate(47 55)"/>
                <path fill="#88C057" d="M29.56 19.388c1.226.381 1.897 1.781 1.329 3.008l-.228.494c-.445.96-.139 2.1.726 2.71l.446.314c1.237.872 1.237 2.708-.002 3.579l-.444.314c-.425.298-.71.727-.843 1.198h20.16c.132-.471.418-.899.843-1.198l.444-.314c1.238-.872 1.239-2.707.002-3.579l-.446-.315c-.865-.608-1.17-1.748-.726-2.709l.228-.494c.636-1.374-.281-2.963-1.79-3.1l-.541-.048c-1.053-.096-1.889-.93-1.985-1.983l-.049-.542c-.136-1.508-1.726-2.426-3.1-1.79l-.492.227c-.96.445-2.1.139-2.709-.725l-.314-.445c-.872-1.239-2.707-1.239-3.58 0l-.313.445c-.609.864-1.749 1.17-2.71.725l-.493-.229c-1.375-.636-2.964.282-3.1 1.79l-.049.541c-.05.557-.302 1.18-.495 1.588-.1.215.006.467.232.538z" transform="translate(64 37) translate(47 55)"/>
                <path fill="#A46F3E" d="M15.807 13.709l7.257-10.3c1.197-1.7 3.569-2.111 5.267-.913 1.7 1.197 2.11 3.568.912 5.267l-7.257 10.3c-1.197 1.7-3.569 2.11-5.267.913-1.7-1.197-2.11-3.567-.912-5.267z" transform="translate(64 37) translate(47 55)"/>
                <path fill="#FBD490" d="M31.831 25.912l-.444-.314c-.865-.608-1.17-1.749-.726-2.709l.228-.494c.636-1.374-.282-2.963-1.79-3.1l-.541-.049c-1.053-.095-1.889-.93-1.983-1.983l-.05-.542c-.107-1.181-1.108-1.99-2.197-1.982l-2.341 3.323c-1.197 1.7-3.568 2.11-5.267.912-1.269-.894-1.818-2.442-1.517-3.877-.58.294-1.27.35-1.895.062l-.494-.23c-1.374-.636-2.963.283-3.1 1.79l-.049.542c-.095 1.053-.93 1.888-1.983 1.983l-.542.05c-1.508.135-2.425 1.725-1.789 3.099l.228.494c.445.96.139 2.1-.725 2.709l-.445.313c-1.238.872-1.238 2.708 0 3.58l.445.314c.424.298.709.727.841 1.197h24.85c.132-.471.418-.899.842-1.197l.444-.314c1.239-.87 1.239-2.705 0-3.577z" transform="translate(64 37) translate(47 55)"/>
                <path fill="#436B1C" d="M37.17 22.812c-.323 0-.645-.123-.89-.369-.493-.493-.493-1.289 0-1.782l1.89-1.89c.492-.492 1.288-.492 1.78 0 .493.493.493 1.29 0 1.782l-1.89 1.89c-.245.246-.567.37-.89.37zM44.1 25.962c-.323 0-.645-.123-.89-.369l-1.26-1.26c-.493-.493-.493-1.289 0-1.782.492-.492 1.288-.492 1.78 0l1.26 1.26c.493.493.493 1.29 0 1.782-.245.246-.567.37-.89.37zM37.8 28.482c-.323 0-.645-.123-.89-.369-.493-.493-.493-1.289 0-1.782l1.26-1.26c.492-.492 1.288-.492 1.78 0 .493.493.493 1.29 0 1.782l-1.26 1.26c-.245.246-.567.37-.89.37z" transform="translate(64 37) translate(47 55)"/>
            </g>
        </g>
    </g>
</svg>
