<svg xmlns="http://www.w3.org/2000/svg" width="255" height="160" viewBox="0 0 255 160">
    <g fill="none" fill-rule="evenodd">
        <path fill="#CCF2FF" d="M0 0H255V160H0z"/>
        <path fill="#CCF2FF" d="M0 0H255V160H0z"/>
        <g transform="translate(62 12)">
            <path stroke="#FFF" stroke-dasharray="9" d="M109 70c0 19.01-11.451 36.147-29.014 43.421-17.563 7.275-37.779 3.253-51.22-10.19C15.324 89.79 11.304 69.573 18.58 52.011 25.856 34.448 42.995 22.998 62.005 23c12.464 0 24.418 4.952 33.232 13.766C104.05 45.58 109 57.535 109 69.999z"/>
            <path fill="#73A0D3" fill-rule="nonzero" d="M59 50H61V109H59z"/>
            <path fill="#D9A5C6" fill-rule="nonzero" d="M61 50H63V109H61z"/>
            <path fill="#F4DE64" fill-rule="nonzero" d="M64 50H66V109H64z"/>
            <path fill="#6EAC82" fill-rule="nonzero" d="M66 50H68V109H66z"/>
            <path fill="#D0E6F7" fill-rule="nonzero" d="M69 50H71V109H69z"/>
            <path fill="#905B37" fill-rule="nonzero" d="M58.41 35.972c-.1-.929-.921-1.248-1.826-.712l-7.827 4.623c-.947.6-1.594 1.565-1.781 2.66l-.973 12.447c-.075.93 1.14 1.28 2.069.787l1.048-.562c.932-.5 2.989-6.438 2.989-6.438.227-.91 1.251-1.94 2.275-2.286l2.917-.98c1.029-.347 1.79-3.148 1.69-4.093l-.582-5.446z"/>
            <path fill="#CA7E4F" fill-rule="nonzero" d="M58.391 35.975c-.102-.929-.542-1.252-1.474-.716l-8.067 4.623c-.976.6-1.642 1.568-1.832 2.663L46.01 54.991c-.078.928.243 1.278 1.2.786l1.08-.562c.961-.5 3.606-6.437 3.606-6.437.234-.909 1.29-1.94 2.35-2.286l3.002-.98c1.06-.346 1.845-3.148 1.742-4.092l-.6-5.445z"/>
            <path fill="#905B37" fill-rule="nonzero" d="M71.59 35.972c.096-.929.917-1.248 1.826-.712l7.827 4.623c.946.6 1.591 1.566 1.777 2.66l.977 12.447c.075.93-1.14 1.28-2.073.787l-1.044-.562c-.932-.5-2.993-6.438-2.993-6.438-.223-.91-1.247-1.94-2.275-2.286l-2.917-.98c-1.025-.347-1.786-3.148-1.686-4.093l.582-5.446z"/>
            <path fill="#CA7E4F" fill-rule="nonzero" d="M70.605 35.975c.102-.929.542-1.252 1.474-.716l8.072 4.623c.976.6 1.642 1.568 1.832 2.663l1.007 12.446c.074.928-.243 1.278-1.204.786l-1.076-.562c-.961-.5-3.61-6.437-3.61-6.437-.23-.909-1.287-1.94-2.346-2.286l-3.007-.98c-1.056-.346-1.84-3.148-1.738-4.092l.596-5.445z"/>
            <path fill="#E6B65A" fill-rule="nonzero" d="M57.808 54h13.375c.748-1.35 1.565-4.159 1.84-5.596 1.35-7.314 2.696-22.382 1.537-29.751C74.278 16.849 69.422 9 69.422 9h-9.837s-4.857 7.85-5.138 9.653c-1.174 7.369.187 22.449 1.537 29.75.282 1.446.987 4.313 1.824 5.597z"/>
            <path fill="#EFCB4B" fill-rule="nonzero" d="M59.899 54h10.194c.648-1.817 1.116-3.69 1.397-5.596 1.03-7.314 2.06-22.382 1.174-29.751C72.448 16.849 68.748 9 68.748 9h-7.496s-3.7 7.85-3.915 9.653c-.887 7.369.143 22.449 1.169 29.75.204 1.446.754 4.313 1.393 5.597z"/>
            <path fill="#27446B" fill-rule="nonzero" d="M59 11L65 0 71 11z"/>
            <path fill="#2F4F7C" fill-rule="nonzero" d="M60 11L64.502 0 69 11z"/>
            <path fill="#FFF" fill-rule="nonzero" d="M70 22.5c0 2.225-1.34 4.23-3.396 5.082-2.056.85-4.422.38-5.994-1.194-1.573-1.574-2.043-3.94-1.19-5.996.853-2.055 2.86-3.394 5.084-3.392 1.459-.001 2.858.578 3.889 1.61 1.03 1.032 1.61 2.431 1.607 3.89z"/>
            <path fill="#D0E6F7" fill-rule="nonzero" d="M70 23c0 2.023-1.219 3.846-3.087 4.62-1.87.773-4.02.345-5.45-1.086-1.43-1.43-1.856-3.582-1.081-5.45.775-1.869 2.6-3.086 4.622-3.084 1.326-.001 2.598.525 3.535 1.463.938.939 1.463 2.21 1.461 3.537z"/>
            <path fill="#FFF" fill-rule="nonzero" d="M71 38.5c0 3.59-2.91 6.5-6.5 6.5S58 42.09 58 38.5s2.91-6.5 6.5-6.5 6.5 2.91 6.5 6.5z"/>
            <circle cx="64.5" cy="38.5" r="5.5" fill="#D0E6F7" fill-rule="nonzero"/>
            <path fill="#FFF" fill-rule="nonzero" d="M61.264 34c-.498.39-.926.87-1.264 1.416L64.16 44h.282c.528 0 1.054-.082 1.558-.246L61.264 34zM66.001 33.077c-.28-.05-.566-.076-.85-.077-.387 0-.773.041-1.151.125L68.788 43c.498-.469.909-1.03 1.212-1.657l-3.999-8.266zM61.381 19c-.582.415-1.053.934-1.381 1.521l3.784 6.408c.303.047.61.07.917.071.439 0 .875-.051 1.299-.15L61.381 19zM65.993 18.18c-.647-.197-1.33-.233-1.993-.105L67.905 26c.488-.489.863-1.086 1.095-1.747l-3.007-6.074z" opacity=".4"/>
            <path fill="#27446B" fill-rule="nonzero" d="M58 54H72V56H58z"/>
            <path fill="#BE346C" fill-rule="nonzero" d="M22 120H102V137H22z"/>
            <path fill="#EFCB4B" fill-rule="nonzero" d="M30 120H34V137H30zM27 120H28V137H27zM35 120H36V137H35zM90 120H94V137H90zM88 120H89V137H88zM96 120H97V137H96z"/>
            <path fill="#BE346C" fill-rule="nonzero" d="M0.04 0.033H79.82600000000001V8.763H0.04z" opacity=".4" transform="translate(22 128)"/>
            <path fill="#5560A2" fill-rule="nonzero" d="M10 112H102V120H10z"/>
            <path fill="#FCF6B0" fill-rule="nonzero" d="M13 114H65V118H13z"/>
            <path fill="#EFCB4B" fill-rule="nonzero" d="M94 112H96V120H94zM92.775 112H93.775V120H92.775zM96.775 112H97.775V120H96.775z"/>
            <path fill="#5560A2" fill-rule="nonzero" d="M0.299 0.036H92.94800000000001V3.916H0.299z" opacity=".3" transform="translate(9 116)"/>
            <path fill="#E8E8D7" fill-rule="nonzero" d="M106 76.231l-8.248 6.697s-8.61-.66-20.805 6.729c-5.003 3.027-5.985 3.327-7.682 5.458C66.36 98.76 65.016 97.565 64 101c0 0-.124-3.239 2.102-6.885 2.227-3.646 3.992-8.24 10.343-12.283 6.35-4.042 20.01-9.24 29.554-5.601z"/>
            <path fill="#FCFCE8" fill-rule="nonzero" d="M64 101s.278-.79.742-2.201c.222-.703.614-1.505.999-2.45.213-.497.452-.983.718-1.454.27-.502.523-1.051.832-1.58.683-1.16 1.424-2.286 2.221-3.371l.643-.877c.21-.3.48-.561.717-.85l.746-.857c.245-.3.51-.585.793-.85.563-.537 1.118-1.095 1.705-1.636l1.9-1.513c.634-.459 1.368-.929 2.054-1.4l.527-.35.536-.305 1.079-.616c.36-.198.701-.431 1.078-.609l1.118-.545 1.119-.546c.369-.181.761-.312 1.138-.47l1.138-.45c.37-.163.75-.302 1.138-.42l2.265-.718c1.453-.38 2.927-.678 4.413-.893 1.336-.192 2.68-.308 4.03-.348 1.26-.032 2.418-.02 3.442 0 .884.03 1.765.11 2.64.237.565.08 1.125.19 1.678.328l.591.15-.571-.213c-.54-.2-1.092-.362-1.654-.486-2.012-.427-4.061-.658-6.119-.692-1.382-.044-2.765.008-4.14.154-1.539.15-3.065.406-4.568.767l-2.352.68c-.793.213-1.562.569-2.355.857-.397.158-.794.292-1.19.474-.397.182-.77.368-1.154.55l-1.158.553c-.397.181-.75.419-1.126.628l-1.119.652-.559.324-.523.356c-.698.49-1.372.924-2.082 1.446l-1.935 1.608c-.6.577-1.162 1.186-1.73 1.743-.284.28-.549.58-.793.897l-.737.908c-.238.309-.5.585-.706.905l-.623.925c-.773 1.14-1.474 2.328-2.097 3.556-.286.573-.52 1.138-.754 1.672-.23.498-.434 1.009-.61 1.529-.318.988-.651 1.83-.818 2.549C64.182 100.174 64 101 64 101z"/>
            <path fill="#E8E8D7" fill-rule="nonzero" d="M112 88.01l-7.203.86s-8.172-2.726-21.867 1.212c-5.625 1.624-9.144 5.064-11.333 6.668-3.74 2.727-4.737 1.266-6.597 4.25 0 0 .707-3.081 3.792-5.967 3.086-2.887 5.97-6.786 13.15-9.025C89.12 83.768 103.7 82.233 112 88.01z"/>
            <path fill="#FCFCE8" fill-rule="nonzero" d="M64 101s.474-.701 1.282-1.945c.398-.626.983-1.304 1.592-2.12.335-.43.692-.841 1.07-1.232.399-.42.797-.884 1.215-1.332.962-.953 1.971-1.858 3.025-2.71l.848-.69c.279-.233.605-.42.912-.641l.943-.642c.313-.228.64-.436.98-.622.684-.396 1.369-.792 2.077-1.157l2.222-.99c.728-.286 1.564-.555 2.348-.836l.601-.206.601-.163 1.195-.325c.398-.103.796-.238 1.194-.317l1.226-.245 1.222-.242c.398-.083.82-.111 1.23-.167l1.218-.15c.395-.062.794-.102 1.194-.119l2.389-.123c1.507.002 3.012.086 4.51.254 1.339.153 2.668.381 3.98.685 1.234.29 2.357.595 3.34.884.851.25 1.687.55 2.504.895.53.221 1.046.47 1.549.745l.533.293-.502-.348c-.472-.332-.967-.631-1.48-.896-1.847-.921-3.779-1.664-5.768-2.219-1.33-.393-2.685-.694-4.057-.899-1.532-.243-3.078-.383-4.63-.42l-2.455.067c-.832 0-1.664.155-2.508.234-.418.056-.844.08-1.266.163l-1.258.241-1.266.242c-.422.075-.836.214-1.258.32l-1.25.35-.625.174-.6.21c-.797.297-1.57.55-2.39.876l-2.292 1.07c-.728.396-1.429.84-2.126 1.247-.345.202-.678.426-.995.67l-.951.697c-.303.238-.63.44-.912.698l-.784.745c-1.042.91-2.026 1.883-2.946 2.916-.422.483-.796.97-1.158 1.426-.362.456-.713.884-.987 1.331-.558.88-1.095 1.609-1.441 2.263C64.386 100.247 64 101 64 101z"/>
            <path fill="#E8E8D7" fill-rule="nonzero" d="M118 98.527l-7.807-1.021s-7.827-5.289-23.32-4.658c-6.355.252-11.018 3.104-13.755 4.263-4.691 1.982-5.334.098-8.118 2.889 0 0 1.596-3.214 5.645-5.562 4.049-2.347 8.154-5.858 16.323-6.37 8.17-.513 23.895 1.806 31.032 10.46z"/>
            <path fill="#FCFCE8" fill-rule="nonzero" d="M65 100s.688-.605 1.87-1.69c.585-.546 1.388-1.096 2.253-1.787.468-.357.953-.69 1.455-1 .526-.33 1.056-.713 1.641-1.064 1.265-.74 2.57-1.413 3.906-2.018l1.075-.492c.36-.171.752-.28 1.135-.429l1.162-.418c.387-.155.783-.285 1.186-.39.823-.214 1.649-.452 2.495-.655l2.601-.441c.85-.102 1.8-.164 2.7-.25l.688-.055H91.192c.45 0 .897-.039 1.352 0l1.356.07 1.352.07c.447.024.89.106 1.332.153l1.325.168c.438.042.873.109 1.304.199l2.542.507c1.584.386 3.145.861 4.673 1.424 1.373.512 2.715 1.104 4.017 1.772 1.222.628 2.317 1.245 3.277 1.807.82.49 1.612 1.025 2.372 1.6.494.367.97.757 1.424 1.17l.482.45-.43-.496c-.41-.471-.849-.914-1.317-1.327-1.692-1.45-3.52-2.737-5.46-3.844-1.291-.764-2.635-1.438-4.02-2.017-1.542-.66-3.127-1.215-4.745-1.663l-2.601-.585c-.874-.219-1.791-.281-2.697-.422-.458-.054-.913-.14-1.375-.167l-1.388-.082-1.396-.082c-.466-.036-.94 0-1.411 0l-1.407.03h-.704l-.688.063c-.921.094-1.799.152-2.767.277l-2.7.504c-.874.234-1.728.5-2.57.741-.403.135-.795.296-1.175.484-.395.156-.79.316-1.186.472-.395.156-.79.293-1.15.484l-1.087.55c-1.343.67-2.641 1.423-3.887 2.256-.573.39-1.095.804-1.6 1.17-.487.349-.953.724-1.396 1.125-.827.78-1.582 1.385-2.131 1.978C65.609 99.317 65 100 65 100z"/>
            <path fill="#FCFCE8" fill-rule="nonzero" d="M127.949 103.795c-.856-.203-1.692-.483-2.496-.836.774.177 1.559.307 2.349.389l-.091-.272s-6.304-1.945-25.937-9.723C82.142 85.574 66 99.575 66 99.575V107h63l-1.051-3.205z"/>
            <path fill="#E8E8D7" fill-rule="nonzero" d="M20 88.01l7.203.86s8.172-2.726 21.867 1.212c5.625 1.624 9.144 5.064 11.33 6.668 3.744 2.727 4.74 1.266 6.6 4.25 0 0-.707-3.081-3.792-5.967-3.086-2.887-5.97-6.786-13.154-9.025-7.183-2.24-21.738-3.775-30.054 2.002z"/>
            <path fill="#FCFCE8" fill-rule="nonzero" d="M67 101s-.478-.701-1.282-1.945c-.398-.625-.987-1.303-1.593-2.118-.334-.43-.692-.84-1.07-1.232-.399-.42-.797-.883-1.219-1.33-.958-.954-1.965-1.856-3.018-2.706l-.848-.689c-.278-.233-.605-.42-.911-.641l-.936-.654c-.313-.228-.64-.436-.98-.622-.684-.396-1.37-.792-2.078-1.156l-2.221-.99c-.729-.285-1.565-.555-2.35-.836l-.6-.206-.602-.162-1.194-.325c-.398-.103-.796-.238-1.195-.317l-1.23-.245-1.222-.242c-.398-.083-.796-.11-1.226-.166l-1.219-.15c-.395-.063-.794-.103-1.194-.12l-2.389-.122c-1.508.001-3.016.086-4.515.253-1.339.153-2.668.381-3.981.685-1.234.29-2.357.594-3.344.884-.85.25-1.685.55-2.5.895-.53.221-1.046.47-1.55.744L20 87.78l.502-.348c.472-.332.967-.63 1.48-.895 1.847-.92 3.777-1.664 5.766-2.218 1.33-.393 2.688-.694 4.06-.9 1.533-.242 3.08-.382 4.631-.419l2.457.067c.832 0 1.664.155 2.508.234.418.055.848.08 1.266.162l1.258.242 1.266.242c.422.075.84.213 1.258.32l1.25.349.625.174.602.21c.796.297 1.568.55 2.388.875l2.294 1.07c.728.396 1.425.84 2.126 1.247.345.202.678.426.995.67l.948.696c.31.238.637.44.915.697l.84.741c1.045.908 2.03 1.882 2.95 2.915.423.483.797.97 1.16 1.426.351.425.68.87.983 1.33.56.88 1.098 1.608 1.445 2.262C66.613 100.248 67 101 67 101z"/>
            <path fill="#E8E8D7" fill-rule="nonzero" d="M13 98.527l7.807-1.021s7.827-5.289 23.32-4.658c6.355.252 11.018 3.104 13.755 4.263 4.691 1.982 5.334.098 8.118 2.889 0 0-1.596-3.214-5.64-5.562-4.046-2.347-8.159-5.858-16.328-6.37-8.17-.513-23.895 1.806-31.032 10.46z"/>
            <path fill="#FCFCE8" fill-rule="nonzero" d="M66 100s-.687-.605-1.868-1.69c-.585-.546-1.387-1.096-2.252-1.787-.467-.357-.952-.69-1.453-1-.526-.33-1.055-.713-1.64-1.064-1.263-.74-2.564-1.413-3.898-2.018l-1.078-.492c-.36-.171-.75-.28-1.134-.429l-1.165-.418c-.386-.156-.782-.286-1.185-.39-.822-.214-1.651-.452-2.493-.655l-2.599-.441c-.849-.102-1.797-.164-2.698-.25l-.683-.055h-2.026c-.45 0-.897-.039-1.351 0l-1.355.07-1.35.07c-.447.024-.89.106-1.332.153l-1.323.168c-.438.042-.873.109-1.304.199l-2.547.468c-1.584.398-3.143.887-4.669 1.463-1.374.513-2.717 1.105-4.021 1.772-1.217.628-2.31 1.245-3.27 1.807-.82.49-1.61 1.025-2.37 1.6-.494.367-.969.757-1.423 1.17l-.513.45.43-.496c.408-.471.848-.914 1.316-1.327 1.69-1.45 3.517-2.737 5.455-3.844 1.29-.764 2.632-1.438 4.017-2.017 1.54-.66 3.124-1.215 4.74-1.663l2.599-.585c.877-.219 1.789-.281 2.694-.422.458-.054.912-.14 1.374-.167l1.387-.082 1.394-.082c.466-.036.94 0 1.406 0l1.41.03h.703l.688.063c.92.094 1.797.152 2.764.277l2.698.504c.873.234 1.726.5 2.568.741.418.116.827.26 1.224.433l1.185.473c.395.163.79.292 1.146.483l1.086.55c1.342.67 2.639 1.423 3.883 2.256.572.39 1.094.804 1.6 1.171.486.348.951.723 1.394 1.124.825.78 1.58 1.385 2.129 1.979C65.372 99.317 66 100 66 100z"/>
            <path fill="#FCFCE8" fill-rule="nonzero" d="M30.226 93.364c-19.637 7.794-25.937 9.698-25.937 9.698l-.139.423c.544 0 1.444.148 2.127-.058-.752.265-1.524.47-2.31.613L3 107h63v-7.444s-16.142-13.99-35.774-6.192z"/>
            <path fill="#EFCB4B" fill-rule="nonzero" d="M73.824 110c.118-.553.177-1.117.176-1.682C74 103.732 70.196 98 65.5 98s-8.5 5.732-8.5 10.318c-.001.565.06 1.13.18 1.682h16.644z"/>
            <path fill="#000E39" fill-rule="nonzero" d="M72.842 110c.106-.461.159-.931.158-1.403 0-3.802-3.36-8.597-7.5-8.597-4.14 0-7.5 4.776-7.5 8.597-.001.472.052.942.158 1.403h14.684z"/>
            <path fill="#E6B65A" fill-rule="nonzero" d="M74 111.667S72.26 114 65.5 114c-7.808 0-8.5-2.333-8.5-2.333V107s1.648 2.333 8.5 2.333c6.244 0 8.5-2.333 8.5-2.333v4.667zM0 107H57V112H0zM74 107H131V112H74z"/>
            <path fill="#E8E8D7" fill-rule="nonzero" d="M29 98c1.427-.655 2.898-1.221 4.403-1.693 1.554-.503 3.135-.93 4.735-1.279.877-.186 1.786-.38 2.714-.52.929-.142 1.885-.275 2.842-.362.957-.088 1.921-.126 2.87-.145.936-.009 1.871.033 2.802.126.872.08 1.736.223 2.586.426.397.084.789.19 1.173.32.362.106.718.233 1.064.38.324.124.638.269.941.434.278.138.545.295.8.468.24.163.473.304.669.46l.52.445c.24.21.461.44.66.685l.221.247-.268-.205c-.25-.194-.51-.375-.78-.54l-.57-.35c-.211-.115-.451-.225-.704-.35-.264-.134-.539-.25-.82-.347-.305-.123-.618-.228-.937-.315-.342-.11-.69-.2-1.045-.27-.36-.092-.74-.153-1.132-.217-.824-.127-1.653-.212-2.486-.255-.432-.027-.877-.027-1.325-.042l-1.36.019c-.918.03-1.85.08-2.779.179-.928.099-1.861.186-2.774.312-.912.125-1.813.258-2.678.41-1.737.301-3.35.628-4.735.921C30.845 97.551 29 98 29 98zM103 98c-1.428-.656-2.9-1.222-4.407-1.693-1.546-.502-3.119-.93-4.71-1.279-.878-.186-1.784-.38-2.717-.52-.933-.142-1.883-.275-2.844-.362-.962-.088-1.923-.126-2.873-.145-.936-.009-1.872.033-2.804.126-.872.08-1.737.223-2.588.426-.397.085-.79.191-1.174.32-.36.107-.715.234-1.061.38-.325.124-.641.269-.946.434-.277.14-.545.295-.8.468-.245.163-.478.304-.674.46l-.52.445c-.24.21-.46.44-.658.685l-.224.247.268-.205c.245-.195.5-.378.766-.548l.568-.35c.217-.114.457-.224.706-.35.266-.133.542-.249.825-.346.305-.124.618-.23.937-.316.341-.11.689-.201 1.042-.27.36-.092.74-.152 1.137-.217.823-.127 1.652-.212 2.484-.255.437-.027.882-.027 1.33-.042l1.358.02c.918.03 1.851.08 2.78.178.93.099 1.863.186 2.777.312.913.126 1.815.259 2.684.41 1.734.301 3.353.629 4.735.922C101.153 97.55 103 98 103 98zM14 102.923l1.877-.127c1.195-.068 2.896-.207 4.94-.312 2.044-.105 4.427-.292 6.977-.465 1.275-.097 2.594-.195 3.92-.322 1.328-.128 2.65-.312 3.985-.563 1.335-.251 2.726-.469 4.04-.641 1.315-.173 2.666-.323 3.957-.41 2.354-.171 4.722-.078 7.052.278 1.65.263 3.24.79 4.702 1.557.234.122.46.258.677.405.165.101.324.211.475.33l.398.29-.398-.256c-.132-.086-.303-.18-.502-.285-.2-.105-.435-.229-.706-.345-1.483-.655-3.07-1.077-4.697-1.25-1.082-.133-2.173-.197-3.264-.19-1.163 0-2.39.07-3.653.176-2.53.225-5.204.671-7.886 1.166-1.343.259-2.702.445-4.068.56-1.35.127-2.673.198-3.956.266-2.562.138-4.957.16-7.009.198-2.052.038-3.761 0-4.956 0-1.196 0-1.905-.06-1.905-.06zM119 102.942l-1.877-.127c-1.195-.068-2.897-.207-4.945-.312-2.048-.105-4.427-.292-6.977-.465-1.272-.098-2.59-.195-3.921-.323-1.331-.127-2.646-.31-3.985-.562-1.34-.252-2.694-.47-4.033-.66-1.339-.192-2.666-.323-3.953-.41-2.354-.171-4.722-.078-7.053.278-1.65.262-3.24.788-4.702 1.557-.235.121-.46.257-.677.405-.166.101-.326.211-.479.33l-.398.29.398-.256c.164-.103.333-.198.507-.285.199-.109.434-.229.7-.345 1.484-.654 3.071-1.076 4.699-1.25 1.083-.133 2.175-.197 3.267-.19 1.16 0 2.391.07 3.655.176 2.526.225 5.204.671 7.881 1.166 1.346.259 2.705.445 4.073.56 1.347.127 2.67.198 3.953.266 2.566.138 4.961.16 7.01.198 2.047.038 3.76 0 4.96 0 1.2 0 1.897-.04 1.897-.04z"/>
            <path fill="#FFF" fill-rule="nonzero" d="M47.978 55.886h-.4c-.493-4.025-3.607-7.22-7.601-7.795-3.994-.575-7.875 1.612-9.472 5.336-.897-.442-1.884-.67-2.883-.668-2.312.001-4.454 1.224-5.64 3.22-.31-.06-.625-.09-.94-.093-2.197-.005-4.143 1.423-4.807 3.528-.663 2.105.109 4.399 1.908 5.666 1.798 1.268 4.207 1.215 5.948-.13 2.79 1.797 6.476 1.22 8.591-1.345 3.166 2.956 7.987 3.197 11.43.572 1.489 1.802 4.016 2.338 6.103 1.293 2.087-1.044 3.184-3.395 2.651-5.676-.533-2.281-2.557-3.894-4.888-3.896v-.012zM107.981 34.892h-.4c-.492-4.029-3.605-7.225-7.596-7.8-3.991-.576-7.87 1.612-9.466 5.34-.902-.454-1.896-.69-2.904-.69-2.312.001-4.452 1.225-5.637 3.222-.309-.06-.622-.09-.936-.092-2.196-.008-4.142 1.42-4.806 3.527-.664 2.106.107 4.403 1.904 5.672 1.797 1.269 4.205 1.216 5.946-.13 2.79 1.799 6.474 1.222 8.59-1.345 3.166 2.957 7.987 3.194 11.425.56 1.481 1.813 4.009 2.361 6.1 1.322 2.092-1.04 3.197-3.393 2.667-5.68-.53-2.287-2.554-3.905-4.887-3.906z"/>
        </g>
    </g>
</svg>
