<svg xmlns="http://www.w3.org/2000/svg" xmlns:xlink="http://www.w3.org/1999/xlink" width="255" height="234" viewBox="0 0 255 234">
    <defs>
        <rect id="prefix__a" width="255" height="234" x="0" y="0" rx="8"/>
    </defs>
    <g fill="none" fill-rule="evenodd">
        <mask id="prefix__b" fill="#fff">
            <use xlink:href="#prefix__a"/>
        </mask>
        <rect width="254" height="233" x=".5" y=".5" stroke="#CCC" rx="8"/>
        <text fill="#000" font-family="Montserrat-Medium, Montserrat" font-size="18" font-weight="400" mask="url(#prefix__b)">
            <tspan x="102.161" y="201">Retos</tspan>
        </text>
        <g transform="translate(65 33)">
            <circle cx="62.5" cy="66.5" r="62.5" fill="#70178A"/>
            <g fill-rule="nonzero">
                <g fill="#E0E0E0">
                    <path d="M16.104 24.097c-21.474 12.398-21.474 32.512 0 44.894 21.475 12.382 56.29 12.398 77.76 0 21.468-12.398 21.473-32.512 0-44.894-21.475-12.382-56.285-12.398-77.76 0z" transform="translate(8 48) translate(0 14.63)"/>
                    <path d="M8.009 4.622c-9.754 5.62-9.754 14.728 0 20.353 9.754 5.625 25.511 5.62 35.249 0 9.737-5.62 9.753-14.734 0-20.353-9.754-5.619-25.517-5.619-35.25 0z" transform="translate(8 48) translate(0 14.63)"/>
                </g>
                <path fill="#412A0A" d="M7.077 47.755c.052-.549.396-1.027.9-1.252 1.361-.692 2.972-.692 4.334 0 .503.225.845.704.894 1.252l-.894 22.612c-.043.381-.284.71-.634.867-.964.488-2.102.488-3.067 0-.347-.158-.586-.487-.628-.867l-.905-22.612zM102.365 47.755c-.049-.548-.39-1.028-.894-1.252-1.362-.692-2.973-.692-4.335 0-.505.223-.85.702-.9 1.252l.9 22.612c.042.38.28.71.629.867.964.488 2.102.488 3.067 0 .35-.156.59-.486.634-.867l.899-22.612zM58.05 64.727c-.046-.551-.389-1.033-.893-1.258-1.364-.686-2.972-.686-4.335 0-.506.226-.85.707-.9 1.258l.9 22.612c.044.377.282.704.628.861.964.488 2.103.488 3.067 0 .348-.155.59-.482.634-.861l.9-22.612z" transform="translate(8 48)"/>
                <path fill="#875004" d="M110 31.748h-.054c0-8.128-5.316-16.256-16.056-22.45C72.394-3.1 37.58-3.1 16.104 9.299 5.37 15.499.044 23.62.054 31.749H0v4.335c.13 8.015 5.51 16.007 16.104 22.13 21.475 12.393 56.29 12.393 77.76 0 10.598-6.117 15.979-14.088 16.109-22.13l.027-4.335z" transform="translate(8 48)"/>
                <path fill="#B67C28" d="M16.104 9.299c-21.474 12.376-21.474 32.496 0 44.888 21.475 12.393 56.29 12.398 77.76 0 21.468-12.398 21.473-32.512 0-44.894C72.388-3.089 37.578-3.1 16.103 9.3z" transform="translate(8 48)"/>
                <g>
                    <path fill="#000" d="M0.108 27.289L44.683 1.555 89.257 27.289 44.683 53.022z" opacity=".15" transform="translate(8 48) translate(10.296 5.419)"/>
                    <path fill="#FFF" d="M0.108 26.254L44.688 0.52 89.257 26.254 44.688 51.993z" transform="translate(8 48) translate(10.296 5.419)"/>
                    <path fill="#FF810E" d="M44.688 50.838L2.108 26.254 44.688 1.674 87.263 26.254z" transform="translate(8 48) translate(10.296 5.419)"/>
                    <path fill="#000" d="M8.193 29.765L14.273 26.254 20.353 29.77 14.273 33.282z" opacity=".1" transform="translate(8 48) translate(10.296 5.419)"/>
                    <path fill="#FFF" d="M8.193 22.742L14.273 19.231 20.353 22.742 14.273 26.254z" opacity=".3" transform="translate(8 48) translate(10.296 5.419)"/>
                    <path fill="#FFF" d="M14.273 19.231L20.353 15.72 26.438 19.231 20.353 22.742z" opacity=".5" transform="translate(8 48) translate(10.296 5.419)"/>
                    <path fill="#FFF" d="M20.353 15.72L26.438 12.208 32.523 15.72 26.438 19.231z" opacity=".6" transform="translate(8 48) translate(10.296 5.419)"/>
                    <path fill="#FFF" d="M26.438 12.208L32.523 8.697 38.603 12.208 32.523 15.72z" opacity=".5" transform="translate(8 48) translate(10.296 5.419)"/>
                    <path fill="#FFF" d="M32.523 8.697L38.603 5.186 44.688 8.697 38.603 12.208zM44.683 43.816L50.768 40.304 56.853 43.816 50.768 47.327z" opacity=".3" transform="translate(8 48) translate(10.296 5.419)"/>
                    <path fill="#FFF" d="M50.768 40.304L56.848 36.793 62.933 40.304 56.848 43.816z" opacity=".5" transform="translate(8 48) translate(10.296 5.419)"/>
                    <path fill="#FFF" d="M56.853 36.793L62.933 33.282 69.018 36.793 62.933 40.304z" opacity=".6" transform="translate(8 48) translate(10.296 5.419)"/>
                    <path fill="#FFF" d="M62.933 33.282L69.018 29.77 75.098 33.282 69.018 36.793z" opacity=".5" transform="translate(8 48) translate(10.296 5.419)"/>
                    <path fill="#FFF" d="M69.018 29.77L75.098 26.254 81.183 29.77 75.098 33.282z" opacity=".3" transform="translate(8 48) translate(10.296 5.419)"/>
                    <path fill="#000" d="M14.273 33.282L20.353 29.77 26.438 33.282 20.353 36.793zM26.438 40.304L32.523 36.793 38.603 40.304 32.523 43.816z" opacity=".2" transform="translate(8 48) translate(10.296 5.419)"/>
                    <path fill="#000" d="M20.353 36.793L26.438 33.282 32.523 36.793 26.438 40.304z" opacity=".35" transform="translate(8 48) translate(10.296 5.419)"/>
                    <path fill="#000" d="M32.523 43.816L38.603 40.304 44.688 43.816 38.603 47.327zM44.688 8.697L50.768 5.186 56.853 8.697 50.768 12.208z" opacity=".1" transform="translate(8 48) translate(10.296 5.419)"/>
                    <path fill="#000" d="M50.768 12.208L56.853 8.697 62.933 12.208 56.853 15.72z" opacity=".2" transform="translate(8 48) translate(10.296 5.419)"/>
                    <path fill="#000" d="M56.853 15.72L62.933 12.208 69.018 15.72 62.933 19.231z" opacity=".35" transform="translate(8 48) translate(10.296 5.419)"/>
                    <path fill="#000" d="M62.933 19.231L69.018 15.72 75.098 19.231 69.018 22.742z" opacity=".2" transform="translate(8 48) translate(10.296 5.419)"/>
                    <path fill="#000" d="M69.018 22.742L75.098 19.231 81.183 22.748 75.098 26.254z" opacity=".1" transform="translate(8 48) translate(10.296 5.419)"/>
                    <path fill="#FAFAFA" d="M80.929 29.911l.504-.287-5.836-3.37 5.836-3.365-.504-.288-5.831 3.366-5.581-3.252 5.83-3.365-.498-.287-5.83 3.365-5.587-3.224 5.835-3.365-.498-.287-5.836 3.414-5.581-3.252 5.83-3.36-.498-.287-5.83 3.366-5.587-3.225 5.835-3.365-.503-.292-5.831 3.37-5.587-3.224 5.836-3.37-.498-.288-5.836 3.37-5.83-3.37-.5.293 5.831 3.365-5.581 3.224-5.836-3.365-.499.287 5.836 3.365-5.592 3.225-5.825-3.366-.498.288 5.83 3.36-5.581 3.25-5.847-3.386-.498.287 5.836 3.365-5.576 3.224-5.83-3.365-.5.287 5.831 3.382-5.581 3.25-5.836-3.408-.499.288 5.836 3.365-5.836 3.37.499.287 5.836-3.36 5.581 3.252-5.83 3.332.498.288 5.83-3.365 5.587 3.25-5.83 3.339.498.287 5.83-3.338 5.582 3.251-5.83 3.311.498.287 5.825-3.365 5.587 3.224-5.825 3.365.498.288 5.831-3.365 5.587 3.25-5.836 3.339.498.292 5.836-3.37 5.83 3.365.5-.287-5.831-3.365 5.581-3.251 5.836 3.365.498-.288-5.835-3.365 5.586-3.224 5.83 3.365.5-.287-5.831-3.338 5.581-3.251 5.836 3.365.498-.287-5.835-3.365 5.58-3.252 5.837 3.365.498-.287-5.83-3.365 5.581-3.164 5.83 3.36zM44.689 43.53L14.77 26.254l29.912-17.27L74.6 26.254 44.688 43.529z" transform="translate(8 48) translate(10.296 5.419)"/>
                    <path fill="#FAFAFA" d="M44.688 8.697L14.273 26.254 44.688 43.816 75.098 26.254z" transform="translate(8 48) translate(10.296 5.419)"/>
                    <g>
                        <path fill="#455A64" d="M22.12 8.426c-.01-.11-.079-.205-.18-.25L9.434.955c-.273-.136-.594-.136-.867 0L.542 5.603c-.1.045-.169.14-.179.25v3.9c.01.112.078.209.179.255l12.517 7.224c.271.135.59.135.862 0l8.046-4.65c.102-.046.17-.144.18-.254l-.028-3.902z" transform="translate(8 48) translate(10.296 5.419) translate(31.429 18.966)"/>
                        <path fill="#37474F" d="M13.47 13.433v3.907c-.152.004-.303-.032-.438-.103L.542 10.014c-.1-.045-.166-.141-.174-.25V5.853c.008.109.075.204.174.25l12.517 7.223c.127.068.268.106.412.108z" transform="translate(8 48) translate(10.296 5.419) translate(31.429 18.966)"/>
                        <path fill="#455A64" d="M13.032 13.325L.542 6.1c-.239-.14-.239-.363 0-.498L8.594.953c.273-.135.594-.135.867 0l12.506 7.224c.239.135.239.357 0 .498l-8.046 4.65c-.277.15-.612.15-.889 0z" transform="translate(8 48) translate(10.296 5.419) translate(31.429 18.966)"/>
                        <path fill="#263238" d="M22.125 8.426v3.918c-.013.11-.083.205-.185.25L13.9 17.241c-.132.069-.28.104-.428.103v-3.912c.15.002.297-.035.428-.108L21.94 8.67c.103-.04.174-.134.185-.244zM.336 6.703L3.121 8.312.336 6.546zM.336 8.757L3.121 10.366.336 8.6zM.336 7.586L5.229 10.485.336 7.429z" transform="translate(8 48) translate(10.296 5.419) translate(31.429 18.966)"/>
                        <path fill="#263238" d="M9.212 11.824l3.923 2.265c.208.119.464.119.672 0l3.712-2.168-3.74 1.946c-.192.103-.424.103-.617 0l-3.95-2.043z" transform="translate(8 48) translate(10.296 5.419) translate(31.429 18.966)"/>
                        <path fill="#263238" d="M10.837 13.937l2.276 1.317c.208.119.464.119.672 0l3.712-2.168-3.739 1.946c-.193.103-.425.103-.618 0l-2.303-1.095z" transform="translate(8 48) translate(10.296 5.419) translate(31.429 18.966)"/>
                        <path fill="#263238" d="M9.212 14.143l3.934 2.27c.208.12.464.12.672 0l3.712-2.167-3.74 1.945c-.192.103-.424.103-.617 0l-3.961-2.048z" transform="translate(8 48) translate(10.296 5.419) translate(31.429 18.966)"/>
                        <path fill="#000" d="M17.519 13.092l-3.74 1.945c-.095.05-.2.075-.308.076v.233c.118 0 .234-.032.336-.092l3.712-2.162zM13.47 13.953v.233c.119-.003.234-.034.337-.092l3.712-2.167-3.74 1.945c-.094.051-.2.079-.308.081zM13.807 16.413l1.669-.97-1.696.754c-.095.051-.201.077-.31.075v.233c.12 0 .235-.032.337-.092zM22.119 10.133L19.177 11.824 22.119 10.323zM22.119 11.406L19.177 13.092 22.119 11.596z" transform="translate(8 48) translate(10.296 5.419) translate(31.429 18.966)"/>
                        <path fill="#000" d="M21.94 8.177L9.434.954c-.273-.136-.594-.136-.867 0L.542 5.603c-.055.03-.101.073-.136.125.033.055.08.1.136.13l12.517 7.223c.27.14.592.14.862 0l8.046-4.65c.057-.031.105-.076.141-.13-.045-.053-.103-.096-.168-.124z" opacity=".15" transform="translate(8 48) translate(10.296 5.419) translate(31.429 18.966)"/>
                        <path fill="#455A64" d="M13.032 12.891L.542 5.663c-.239-.136-.239-.358 0-.499L8.567.542c.273-.136.594-.136.867 0L21.94 7.765c.239.14.239.363 0 .499l-8.046 4.654c-.276.127-.595.117-.862-.027z" transform="translate(8 48) translate(10.296 5.419) translate(31.429 18.966)"/>
                        <path fill="#FFF" d="M8.6 5.186c1.653-.84 3.608-.84 5.261 0 1.452.834 1.452 2.167 0 3.034-1.653.84-3.608.84-5.261 0-1.453-.84-1.453-2.2 0-3.034z" transform="translate(8 48) translate(10.296 5.419) translate(31.429 18.966)"/>
                        <path fill="#455A64" d="M9.412 5.527c.197-.114.406-.205.623-.27.219-.07.444-.113.672-.13.211-.026.424-.026.634 0 .19.027.374.09.542.183.105.055.196.133.266.228.051.07.084.152.097.238.014.08.014.16 0 .239 0 .076 0 .157-.043.227-.008.074-.008.149 0 .223.008.07.04.135.092.184.023.024.04.054.049.086 0 .028 0 .055-.049.076l-.634.369c-.043.023-.092.034-.14.032-.05.001-.098-.01-.142-.032-.094-.052-.174-.127-.233-.217-.04-.075-.064-.158-.07-.244-.01-.083-.01-.166 0-.249.02-.077.036-.155.049-.233.01-.066.01-.134 0-.2-.016-.066-.06-.121-.12-.152-.107-.06-.23-.084-.352-.07-.156.016-.306.068-.439.151-.157.092-.244.168-.265.233-.022.058-.022.121 0 .179.023.045.048.088.076.13 0 .043 0 .081-.065.12l-.634.362c-.032.03-.072.048-.114.054-.042 0-.083-.01-.12-.032-.114-.066-.21-.162-.276-.277-.069-.113-.1-.246-.086-.379.018-.152.078-.297.173-.417.136-.174.31-.315.51-.412zm3.994 1.783c.034.012.056.045.056.081 0 .036-.022.069-.056.081l-.656.38c-.043.022-.092.034-.14.032-.05.001-.098-.01-.142-.032l-.541-.304c-.034-.012-.057-.045-.057-.081 0-.036.023-.069.057-.081l.65-.38c.089-.043.193-.043.282 0l.547.304z" transform="translate(8 48) translate(10.296 5.419) translate(31.429 18.966)"/>
                    </g>
                    <g>
                        <path fill="#000" d="M15.384 18.781c-.098 0-.194-.015-.287-.043L.542 14.408c-.167-.034-.305-.15-.369-.308-.026-.105.003-.215.076-.293l4.828-5.419c.157-.145.366-.221.58-.211.097 0 .194.015.287.043l2.71.808-3.907-2.255c-.122-.058-.203-.179-.212-.314.008-.137.089-.26.212-.32l7.445-4.297c.138-.074.293-.111.45-.108.157-.003.311.035.45.108l5.684 3.284-1.165-1.842c-.048-.086-.048-.19 0-.277.083-.162.241-.272.422-.292L27.917.623c.072-.005.145-.005.217 0 .234-.017.462.08.612.26l5.63 8.87c.054.085.065.19.027.282-.085.162-.246.27-.428.288l-9.878 2.086c-.072.008-.145.008-.217 0-.234.017-.462-.08-.612-.26l-1.013-1.599-2.872 1.664 1.084.33c.165.033.304.147.368.304.026.106-.002.217-.076.298l-4.823 5.419c-.149.14-.347.218-.552.216z" opacity=".15" transform="translate(8 48) translate(10.296 5.419) translate(37.931)"/>
                        <path fill="#455A64" d="M16.392 12.886L4.828 6.204c-.098-.034-.164-.126-.164-.23 0-.104.066-.196.164-.23l7.44-4.297c.25-.13.547-.13.797 0l11.563 6.681c.222.13.222.336 0 .46l-7.434 4.303c-.254.123-.55.121-.802-.005z" transform="translate(8 48) translate(10.296 5.419) translate(37.931)"/>
                        <path fill="#37474F" d="M9.467 8.881L19.128 11.764 19.41 11.601 9.201 8.73zM22.287 9.943L22.005 10.1 18.933 4.833 19.101 4.931z" transform="translate(8 48) translate(10.296 5.419) translate(37.931)"/>
                        <path fill="#FFF" d="M12.295 5.76c1.532-.779 3.345-.779 4.877 0 1.344.775 1.344 2.032 0 2.807-1.531.784-3.346.784-4.877 0-1.344-.775-1.344-2.032 0-2.807z" transform="translate(8 48) translate(10.296 5.419) translate(37.931)"/>
                        <path fill="#455A64" d="M13.048 6.074c.183-.104.378-.188.58-.249.202-.058.409-.098.618-.12.194-.021.39-.021.585 0 .176.027.345.086.499.174.095.05.178.12.243.206.045.067.075.143.087.222.01.074.01.149 0 .223 0 .07-.027.14-.043.21-.008.067-.008.135 0 .201.007.067.038.128.086.174.025.02.04.05.044.081 0 .027 0 .049-.044.07l-.585.336c-.039.024-.084.035-.13.033-.045 0-.09-.01-.13-.033-.09-.045-.164-.114-.217-.2-.038-.068-.06-.144-.065-.222-.01-.077-.01-.156 0-.233 0-.076.033-.147.044-.217.01-.06.01-.123 0-.184-.016-.062-.057-.113-.114-.141-.097-.054-.21-.077-.32-.065-.144.018-.283.068-.406.146-.145.08-.226.15-.244.212-.022.051-.022.11 0 .162.02.043.041.084.065.125 0 .038 0 .076-.06.108l-.585.336c-.031.018-.067.028-.103.027-.036.003-.072-.007-.103-.027-.107-.062-.196-.15-.26-.255-.06-.107-.087-.23-.076-.352.013-.141.068-.275.157-.385.132-.153.294-.277.477-.363zm3.69 1.653c.033 0 .055.043.055.076-.005.032-.025.06-.055.076l-.601.347c-.04.02-.085.03-.13.027-.045.003-.09-.006-.13-.027l-.488-.282c-.03-.013-.05-.043-.049-.076.002-.03.02-.058.05-.07l.606-.353c.043-.01.087-.01.13 0 .043-.008.087-.008.13 0l.482.282zM15.13 18.142L.59 13.807c-.276-.081-.384-.282-.243-.439l4.828-5.419c.212-.172.498-.225.758-.14l14.534 4.334c.276.087.384.282.243.445l-4.822 5.418c-.212.176-.5.227-.759.136z" transform="translate(8 48) translate(10.296 5.419) translate(37.931)"/>
                        <path fill="#FFF" d="M7.472 12.078c.873-.975 2.948-1.36 4.633-.856 1.686.504 2.352 1.702 1.48 2.677-.873.975-2.943 1.355-4.633.85-1.69-.503-2.352-1.695-1.48-2.67z" transform="translate(8 48) translate(10.296 5.419) translate(37.931)"/>
                        <path fill="#455A64" d="M8.356 12.246c.12-.134.26-.25.417-.341.171-.095.353-.17.542-.222.177-.047.359-.074.542-.082.183-.002.366.023.542.076.122.03.238.084.34.157.076.054.144.118.201.19.047.066.085.137.114.211.021.072.047.143.076.212.022.07.054.136.098.195.043.064.103.114.173.146.033.018.063.042.087.07.02.022.02.055 0 .076l-.38.423c-.026.03-.063.05-.103.054-.046.009-.094.009-.14 0-.115-.03-.221-.084-.315-.157-.07-.056-.131-.124-.179-.2-.045-.07-.082-.144-.108-.222-.02-.072-.043-.143-.07-.212-.023-.064-.056-.125-.098-.179-.047-.054-.11-.094-.179-.113-.111-.033-.23-.033-.341 0-.122.039-.23.11-.314.205-.093.109-.13.19-.12.25.012.06.045.113.092.151.041.04.085.076.13.109.04.032.04.07 0 .114l-.379.422c-.023.024-.053.04-.086.044-.038.01-.077.01-.114 0-.14-.043-.27-.11-.385-.2-.11-.085-.197-.195-.255-.32-.06-.123-.078-.262-.054-.396.038-.178.13-.339.266-.46zm4.383.921c.038.011.07.034.093.066.019.023.019.057 0 .08l-.396.44c-.029.029-.068.046-.108.048-.045.011-.091.011-.136 0l-.612-.178c-.036-.011-.066-.034-.087-.065-.019-.024-.019-.058 0-.082l.39-.439c.032-.024.07-.041.109-.048.046-.011.094-.011.14 0l.607.178zM23.35 11.618l-5.63-8.87c-.11-.169.043-.353.335-.418L27.94.238c.26-.07.537.005.726.195L34.29 9.3c.108.168-.038.357-.336.417l-9.879 2.097c-.26.07-.536-.004-.726-.195z" transform="translate(8 48) translate(10.296 5.419) translate(37.931)"/>
                        <path fill="#FFF" d="M24.823 4.162c1.783-.38 3.755.151 4.411 1.18.656 1.03-.26 2.168-2.043 2.548-1.783.379-3.76-.152-4.416-1.182-.656-1.03.265-2.173 2.048-2.546z" transform="translate(8 48) translate(10.296 5.419) translate(37.931)"/>
                        <path fill="#455A64" d="M25.273 4.628c.232-.049.468-.076.704-.082.218-.01.436.003.65.038.188.03.37.085.542.163.131.062.243.157.326.276.052.072.077.16.07.25-.011.077-.039.15-.081.216-.045.074-.1.142-.163.2l-.19.185c-.06.055-.112.116-.157.184-.036.053-.053.116-.048.179.01.026.01.055 0 .081 0 .027-.044.044-.093.054l-.774.163c-.046.014-.095.014-.141 0-.038-.009-.073-.03-.098-.06-.046-.068-.063-.152-.049-.233.018-.079.053-.153.103-.216.054-.075.116-.144.185-.206l.195-.185c.05-.05.096-.107.135-.168.032-.047.032-.11 0-.157-.058-.078-.147-.127-.244-.135-.157-.02-.317-.01-.471.027-.135.018-.265.066-.38.14-.053.035-.094.087-.113.147 0 .049 0 .087-.033.13-.032.044-.048.065-.13.081l-.775.163c-.037.01-.076.01-.113 0-.032-.003-.06-.021-.076-.049-.053-.09-.07-.196-.05-.298.03-.126.095-.242.185-.336.124-.126.269-.23.428-.309.207-.11.427-.192.656-.243zm2.167 2.395c.02.023.02.057 0 .08-.026.03-.063.05-.103.055l-.802.168c-.046.011-.094.011-.14 0-.037-.01-.07-.03-.093-.06l-.238-.373c-.019-.024-.019-.058 0-.082.026-.028.06-.047.098-.054l.807-.168c.044-.013.091-.013.135 0 .039.004.074.024.098.054l.238.38z" transform="translate(8 48) translate(10.296 5.419) translate(37.931)"/>
                    </g>
                    <g transform="translate(8 48) translate(10.296 5.419) translate(59.606 26.552)">
                        <path fill="#000" d="M1.084 11.742c1.484.748 3.235.748 4.72 0 1.305-.753 1.305-1.977 0-2.709-1.484-.753-3.237-.753-4.72 0-1.306.72-1.306 1.956 0 2.71z" opacity=".1"/>
                        <path fill="#455A64" d="M5.473 8.567c-1.275-.65-2.784-.65-4.059 0-.476.211-.799.667-.84 1.187v.542c.05.513.37.96.84 1.17 1.275.65 2.784.65 4.059 0 .472-.209.793-.657.84-1.17v-.542c-.04-.52-.363-.977-.84-1.187z"/>
                        <path fill="#37474F" d="M1.414 10.908c1.275.65 2.784.65 4.059 0 1.122-.645 1.122-1.696 0-2.341-1.275-.65-2.784-.65-4.059 0-1.121.645-1.121 1.696 0 2.34z"/>
                        <path fill="#000" d="M1.696 10.447c1.097.57 2.403.57 3.5 0 .965-.574.965-1.5 0-2.075-1.097-.57-2.403-.57-3.5 0-.964.574-.964 1.5 0 2.075z" opacity=".15"/>
                        <path fill="#455A64" d="M5.847 9.212c0-.943-.986-2.894-.986-5.782H2.027c0 2.883-.976 4.823-.981 5.771.035.433.302.813.699.992 1.068.541 2.33.541 3.397 0 .396-.175.665-.55.705-.981z"/>
                        <path fill="#37474F" d="M2.628 9.91c-.482-.4-.574-1.012-.184-2.443.328-1.33.51-2.694.542-4.064H2.01c0 2.883-.975 4.823-.98 5.77.034.434.302.814.699.993 1.067.541 2.33.541 3.397 0l.19-.125c-.862.395-2.211.255-2.688-.13z"/>
                        <path fill="#37474F" d="M2.444 3.999c.63.32 1.375.32 2.005 0 .248-.084.415-.317.415-.58 0-.262-.167-.495-.415-.58-.632-.314-1.374-.314-2.005 0-.249.085-.416.318-.416.58 0 .263.167.496.416.58z"/>
                        <ellipse cx="3.446" cy="3.143" fill="#000" opacity=".15" rx="1.149" ry="1"/>
                        <path fill="#455A64" d="M4.969 1.962c.002.619-.37 1.178-.94 1.416-.572.238-1.23.107-1.669-.33-.437-.438-.568-1.097-.33-1.668.238-.572.797-.943 1.416-.941.841 0 1.523.682 1.523 1.523z"/>
                        <path fill="#37474F" d="M4.942 2.265c-.36.682-1.163 1-1.891.748-.766-.3-1.156-1.153-.884-1.93-.173.253-.265.551-.265.857.005.78.598 1.432 1.375 1.51.778.078 1.488-.442 1.649-1.207l.016.022z"/>
                    </g>
                    <g transform="translate(8 48) translate(10.296 5.419) translate(71.527 12.463)">
                        <path fill="#000" d="M1.409 11.661c1.483.753 3.236.753 4.72 0 1.305-.753 1.305-1.972 0-2.71-1.484-.752-3.237-.752-4.72 0-1.306.738-1.306 1.957 0 2.71z" opacity=".1"/>
                        <path fill="#F5F5F5" d="M5.798 8.534c-1.276-.645-2.783-.645-4.059 0-.47.21-.79.658-.84 1.17v.543c.062.499.38.929.84 1.132 1.276.645 2.783.645 4.059 0 .472-.208.793-.656.84-1.17v-.542c-.06-.5-.38-.93-.84-1.133z"/>
                        <path fill="#E0E0E0" d="M1.74 10.88c1.275.646 2.782.646 4.058 0 1.122-.65 1.122-1.7 0-2.346-1.276-.645-2.783-.645-4.059 0-1.121.645-1.121 1.697 0 2.347z"/>
                        <ellipse cx="3.771" cy="9.38" fill="#000" opacity=".15" rx="2.476" ry="1.468"/>
                        <path fill="#F5F5F5" d="M6.172 9.152c0-.943-.986-2.888-.986-5.782H2.352c0 2.883-.976 4.829-.981 5.771.032.434.301.816.699.992 1.068.542 2.33.542 3.397 0 .397-.174.666-.55.705-.98z"/>
                        <path fill="#E0E0E0" d="M2.953 9.884c-.482-.401-.574-1.014-.184-2.45.326-1.33.508-2.693.542-4.064h-.976c0 2.883-.975 4.829-.98 5.771.032.434.3.816.699.992 1.067.542 2.33.542 3.397 0 .066-.037.13-.079.19-.125-.862.396-2.211.288-2.688-.124z"/>
                        <ellipse cx="3.771" cy="3.392" fill="#E0E0E0" rx="1.414" ry="1"/>
                        <ellipse cx="3.771" cy="3.116" fill="#000" opacity=".15" rx="1.149" ry="1"/>
                        <path fill="#F5F5F5" d="M5.294 1.934c0 .621-.375 1.18-.95 1.415-.574.234-1.233.099-1.668-.344-.435-.443-.559-1.104-.314-1.674.245-.57.81-.936 1.431-.925.835.012 1.504.694 1.501 1.528z"/>
                        <path fill="#E0E0E0" d="M5.267 2.233c-.356.685-1.162 1.004-1.891.747-.75-.302-1.13-1.138-.867-1.902-.174.252-.267.55-.266.856.008.78.602 1.43 1.378 1.506.777.077 1.486-.444 1.646-1.207z"/>
                    </g>
                </g>
            </g>
            <g fill-rule="nonzero" transform="translate(67)">
                <path fill="#D88E19" d="M50.35 7.276c-.171-.532-.613-.934-1.16-1.056-2.82-.66-5.74-.767-8.6-.314-.593.095-1.09.496-1.303 1.054-.214.558-.113 1.187.265 1.65.378.463.976.69 1.568.596 2.142-.331 4.325-.295 6.454.108 1.144 3.053 1.847 6.253 2.088 9.504.058.899.083 1.798.083 2.697 0 .43 0 .966-.041 1.263.007.214-.088.419-.257.552-.319.268-.654.516-1.003.743-.373.256-.754.495-1.135.734-.772.471-1.568.9-2.386 1.287-.44.186-.653.686-.48 1.13.082.219.25.395.466.488.215.093.46.096.677.007.895-.354 1.781-.75 2.643-1.196.43-.223.828-.454 1.276-.701.455-.245.892-.52 1.309-.825.581-.448.97-1.1 1.085-1.823.108-.62.116-1.023.166-1.518.075-.966.116-1.931.116-2.896.002-3.9-.616-7.776-1.831-11.484zM.205 28.874c-.273-.484-.273-1.075 0-1.559 1.415-2.54 3.315-4.778 5.593-6.592.47-.374 1.106-.47 1.667-.251.56.218.962.719 1.052 1.312.09.593-.144 1.188-.615 1.563C6.214 24.7 4.77 26.33 3.627 28.165c1.485 2.904 3.382 5.58 5.634 7.945.622.651 1.268 1.278 1.939 1.889.323.28.713.643.961.825.155.146.369.213.58.181.416-.053.828-.13 1.235-.23.43-.1.87-.215 1.309-.339.868-.25 1.723-.544 2.56-.883.422-.17.905 0 1.127.396.105.209.121.45.045.671-.077.22-.24.401-.451.5-.868.428-1.759.808-2.668 1.14-.456.164-.92.321-1.384.461-.493.166-.997.298-1.508.396-.356.066-.72.066-1.077 0-.355-.08-.694-.219-1.002-.412-.539-.347-.829-.61-1.252-.908-.754-.585-1.5-1.212-2.22-1.848-2.883-2.624-5.33-5.687-7.25-9.075zM42.595 3.844c-.464-1.279-1.086-2.657-1.997-3.176L40.49.593C38.054-.553 33.803.24 31.26.676c-3.267.572-6.445 1.565-9.454 2.953-5.332 2.42-10.341 5.487-14.915 9.133-1.102.875-2.245 1.906-2.485 3.3-.072.67-.019 1.346.157 1.997.141.651.307 1.287.497 1.922C14.842 9.735 28.398 3.907 42.595 3.844z"/>
                <path fill="#F7BA57" d="M43.282 5.824c-.19-.503-.414-1.221-.687-1.98-14.185.07-27.727 5.894-37.502 16.129 1.79 6.088 5.577 11.467 9.686 16.326 2.595 3.29 5.631 6.21 9.024 8.68 1.764 1.204 3.562 2.367 5.418 3.44 3.574 2.012 7.986 1.826 11.377-.479 3.157-2.227 4.325-6.121 4.872-9.751 1.649-10.915 1.756-21.888-2.188-32.365z"/>
                <path fill="#F7BA57" d="M35.615 37.938L42.239 37.948 42.266 55.286 35.643 55.275z" transform="rotate(-24 38.94 46.612)"/>
                <ellipse cx="28.55" cy="22.753" fill="#FFCC83" rx="11.313" ry="11.357" transform="rotate(-76.8 28.55 22.753)"/>
                <path fill="#D88E19" d="M55.194 54.322c-3.018-2.895-8.204-1.043-11.393.476-2.376 1.133-4.824 2.346-6.478 4.387-1.49 1.798-2.105 4.71-.55 6.445 1.076.255 2.18.379 3.288.369 3.659-.063 13.01-3.425 16.488-7.92.163-1.394-.338-2.784-1.355-3.757z"/>
                <path fill="#F7BA57" d="M55.8 51.382c-2.513-2.793-7.056-1.895-10.228-.997-3.713 1.014-7.143 2.898-10.018 5.504-2.293 2.101-3.602 4.58-2.732 7.183.527 1.598 2.293 2.487 4.112 2.927-1.511-1.733-.879-4.606.536-6.438 1.608-2.038 3.99-3.25 6.3-4.381 3.102-1.518 8.146-3.367 11.08-.476.992.974 1.48 2.366 1.319 3.762 1.564-2.2 1.863-4.624-.37-7.084z"/>
                <text fill="#D88E19" font-family="Helvetica" font-size="15.67" transform="rotate(-21.36 28.583 24.35)">
                    <tspan x="24.855" y="29.849">1</tspan>
                </text>
            </g>
        </g>
    </g>
</svg>
