<svg xmlns="http://www.w3.org/2000/svg" xmlns:xlink="http://www.w3.org/1999/xlink" width="255" height="234" viewBox="0 0 255 234">
    <defs>
        <rect id="prefix__a" width="255" height="234" x="0" y="0" rx="8"/>
        <path id="prefix__c" d="M125 62.501c.017 30.516-22.021 56.575-52.117 61.628-25.866 4.357-51.702-7.9-64.687-30.69-12.985-22.792-10.357-51.265 6.58-71.294C31.716 2.116 59.358-5.205 83.99 3.813 108.621 12.832 125 36.271 125 62.501z"/>
    </defs>
    <g fill="none" fill-rule="evenodd">
        <mask id="prefix__b" fill="#fff">
            <use xlink:href="#prefix__a"/>
        </mask>
        <rect width="254" height="233" x=".5" y=".5" stroke="#CCC" rx="8"/>
        <text fill="#000" font-family="Montserrat-Medium, Montserrat" font-size="18" font-weight="400" mask="url(#prefix__b)">
            <tspan x="55.181" y="201">Socioemocional</tspan>
        </text>
        <g>
            <g transform="translate(59 37) translate(6)">
                <mask id="prefix__d" fill="#fff">
                    <use xlink:href="#prefix__c"/>
                </mask>
                <use fill="#6F7BDD" fill-rule="nonzero" xlink:href="#prefix__c"/>
                <path fill="#F7CFA9" fill-rule="nonzero" d="M85.391 105L76 125s20.345-5.719 24-10.994L85.391 105zM73.242 72.915l-1.504 62.944c-6.737 1.389-13.611 1.408-20.353.055l-.557-62.37 22.414-.63z" mask="url(#prefix__d)"/>
            </g>
            <g fill-rule="nonzero">
                <path fill="#F7CFA9" d="M100.45 50.91c-1.031 4.982-14.133 14.44-20.18 18.572-1.84 1.258-3.028 2.029-3.028 2.029v-.221c-5.305 3.56-12.102 3.998-17.817 1.148-5.715-2.85-9.475-8.554-9.859-14.953h-.12l-4.56-31.895s-.378-4.083 2.898-5.023c3.097-.892 4.209 2.44 4.209 2.44L55.09 38.72l1.755-1.621-2.457-24.868s.034-4.169 3.81-4.56c4.153-.432 4.632 2.441 4.632 2.441l1.772 23.606 1.992-.211.981-30.015S67.438.107 72.345.249c3.999.114 4.419 3.315 4.419 3.315L75.73 34.378l2.014.325c1.121-4.494 2.102-23.955 2.102-23.955s.633-3.308 4.347-2.96c3.286.312 3.369 3.946 3.369 3.946-.647 8.151-1.72 30.288-2.168 39.999 3.847-2.42 10.548-8.118 12.268-7.399 1.645.688 3.17 4.827 2.788 6.576z" transform="translate(59 37) translate(0 4)"/>
                <path fill="#FDB143" d="M100.45 50.91c-1.031 4.982-14.133 14.44-20.18 18.572-3.028 1.808-6.585 4.213-11.77 3.8-12.054-.962-8.728 0-12.829-2.92-2.673-1.904-5.812-8.133-6.094-12.877h-.12l-4.56-31.895s-.38-4.083 2.897-5.023c3.097-.892 4.209 2.44 4.209 2.44L55.1 38.72l1.755-1.621-2.457-24.868s.035-4.169 3.81-4.56c4.154-.432 4.632 2.441 4.632 2.441l1.772 23.606 1.993-.211.98-30.015S67.449.107 72.356.249c4 .114 4.42 3.315 4.42 3.315l-1.033 30.814 2.013.325c1.122-4.494 2.103-23.955 2.103-23.955s.633-3.308 4.346-2.96c3.287.312 3.37 3.946 3.37 3.946-.648 8.151-1.721 30.288-2.169 39.999 3.848-2.42 10.548-8.118 12.269-7.399 1.634.688 3.159 4.827 2.777 6.576z" transform="translate(59 37) translate(0 4)"/>
                <path fill="#D22C80" d="M78.65 43.968c-5.706-4.263-9.24 1.442-9.84 2.524-.602-1.082-4.129-6.787-9.838-2.524-1.907 1.438-4.98 7.661 1.875 13.372 1.652 1.383 5.083 3.765 6.883 5.563.381.36.727.756 1.033 1.182l.061.093.059-.093c.306-.426.652-.822 1.032-1.182 1.793-1.798 5.221-4.19 6.883-5.563 6.845-5.711 3.755-11.934 1.852-13.372z" transform="translate(59 37) translate(0 4)"/>
                <path fill="#F7CFA9" d="M45.77 103.189l8.632 16.217s-14.11-2.54-21.578-9.268l12.947-6.95z" transform="translate(59 37) translate(0 4)"/>
                <path fill="#96C02E" d="M53.868 74.062c2.499 5.248-5.241 26.78-5.241 26.78l-.117-.153c-.96 2.842-3.985 4.014-6.539 5.974-6.6 5.075-14.698 5.466-20.067-.757l-.082.07L1.724 86.192s-2.43-2.64-.643-5.047c1.686-2.282 4.226-.553 4.226-.553l10.486 9.275.36-2.074L1.25 71.784s-2.189-2.921.234-5.217c2.664-2.52 4.522-.778 4.522-.778l13.766 15.495 1.273-1.213L5.806 58.637s-1.893-2.286 1.603-4.813c2.843-2.074 4.818-.059 4.818-.059l15.631 22.019 1.576-.847C27.837 71.2 18.202 57.126 18.202 57.126s-1.315-2.645 1.459-4.387c2.453-1.542 4.44.944 4.44.944 3.87 6.025 14.873 22.018 19.708 29.04 1.377-3.748 3.042-11.302 4.622-11.724 1.507-.415 4.763 1.65 5.437 3.063z" transform="translate(59 37) translate(0 4)"/>
                <path fill="#96C02E" d="M33.437 80.7c-6.236.087-5.672 5.953-5.507 7.028-.99-.432-6.48-2.513-8.194 3.51-.57 2.012.585 8.006 8.404 8.297 1.88.072 5.538-.097 7.74.197.455.048.904.14 1.342.273l.093.03c-.002-.031-.002-.064 0-.096-.015-.463.015-.926.09-1.383.292-2.209 1.414-5.711 1.834-7.55 1.738-7.644-3.724-10.337-5.802-10.306z" transform="translate(59 37) translate(0 4)"/>
                <path fill="#FFF" d="M22.72 84.741l4.925 7.212c.399.584 1.256-.104.857-.691l-4.925-7.205c-.4-.584-1.256.104-.857.691v-.007zM28.103 80.907l4.925 7.211c.4.584 1.256-.104.857-.691l-4.925-7.205c-.399-.584-1.256.104-.857.691v-.006zM28.182 104.312c1.769-7.205 8.52-12.024 15.875-11.332.688.066.83-1.037.124-1.093-6.067-.55-11.924 2.38-15.142 7.575-.887 1.462-1.543 3.052-1.945 4.716-.034.302.181.575.482.611.299.025.565-.189.606-.487v.01z" transform="translate(59 37) translate(0 4)"/>
                <path fill="#1CB1EB" d="M84.163 72.597c-2.499 5.247 5.244 26.779 5.244 26.779l.114-.153c.96 2.842 3.703 4.47 6.253 6.43 6.604 5.093 15.001 5.01 20.352-1.23l.083.07 20.098-19.783s2.43-2.64.647-5.047c-1.69-2.282-4.23-.553-4.23-.553l-10.482 9.293-.365-2.075 14.908-16.01s2.185-2.921-.237-5.213c-2.664-2.524-4.522-.781-4.522-.781L118.26 79.819l-1.273-1.214 15.238-21.434s1.893-2.282-1.603-4.813c-2.843-2.074-4.818-.055-4.818-.055l-15.631 22.015-1.576-.847c1.61-3.744 11.243-17.818 11.243-17.818s1.318-2.645-1.46-4.387c-2.45-1.538-4.439.944-4.439.944-3.871 6.026-14.874 22.018-19.709 29.04-1.376-3.748-1.762-10.424-4.621-11.723-1.429-.654-4.774 1.656-5.448 3.07z" transform="translate(59 37) translate(0 4)"/>
                <path fill="#1CB1EB" d="M104.598 79.238c6.232.083 5.668 5.95 5.506 7.025.991-.433 6.48-2.514 8.194 3.509.571 2.012-.585 8.01-8.404 8.297-1.879.072-5.537-.097-7.736.197-.456.048-.907.14-1.346.273l-.09.031v-.097c.018-.463-.012-.926-.089-1.383-.292-2.212-1.414-5.714-1.834-7.553-1.745-7.64 3.717-10.33 5.799-10.3z" transform="translate(59 37) translate(0 4)"/>
                <path fill="#FFF" d="M106.99 82.328l-5.163 6.037c-.454.532.317 1.313.775.774l5.145-6.033c.457-.532-.313-1.313-.771-.778h.014zM112.3 86.18l-5.162 6.036c-.454.532.317 1.314.775.774l5.145-6.032c.457-.533-.314-1.314-.771-.778h.013z" transform="translate(59 37) translate(0 4)"/>
                <path fill="#FFF" d="M97.601 82.743c-2.604 3.23-3.09 7.69-1.245 11.409 1.983 3.835 6.104 6.057 10.382 5.597 2.277-.263 4.41-1.256 6.081-2.831.51-.491-.265-1.266-.774-.778-2.633 2.52-6.749 3.357-10.104 1.86-2.668-1.164-4.644-3.512-5.34-6.349-.698-2.837-.038-5.839 1.785-8.116.44-.546-.344-1.328-.774-.778l-.01-.014z" transform="translate(59 37) translate(0 4)"/>
                <path fill="#FE8830" d="M54.636 36.418c-2.612 1.524-5.104 3.246-7.454 5.15l-.345-2.385c2.335-1.818 4.798-3.462 7.372-4.92l.427 2.155zM64.475 32.03c-1.624.5-3.217 1.096-4.77 1.784-1.053.464-2.065.958-3.039 1.473l-.22-2.223c.768-.39 1.56-.765 2.374-1.127 1.789-.794 3.628-1.466 5.507-2.012l.148 2.105zM75.924 28.653l-.069 2.033c-3.084-.249-6.188.005-9.192.75l.07-2.12c3.013-.682 6.111-.906 9.191-.663zM86.376 31.74l-.12 2.299c-2.447-1.454-5.125-2.472-7.916-3.011.072-.633.148-1.314.22-2.026 2.73.5 5.367 1.424 7.816 2.738zM53.194 29.054c-2.477 1.543-4.837 3.267-7.062 5.158l-.344-2.42c2.208-1.803 4.54-3.445 6.979-4.916l.427 2.178zM63.872 24c-1.416.456-2.807.987-4.167 1.59-1.335.587-2.609 1.227-3.81 1.884l-.224-2.237c1.005-.529 2.065-1.037 3.15-1.524 1.592-.705 3.226-1.312 4.893-1.815l.158 2.101zM76.2 20.456l-.07 2.033c-3.081-.284-6.188-.06-9.198.66L67 21.033c3.02-.655 6.12-.85 9.198-.577zM86.802 23.754l-.124 2.32c-2.345-1.451-4.914-2.503-7.602-3.112.052-.691.1-1.383.152-2.05 2.653.558 5.207 1.516 7.574 2.842zM51.463 21.956c-2.228 1.476-4.342 3.12-6.322 4.916l-.069-.072-.172-1.207c-.028-.44-.012-.883.048-1.32 1.543-1.313 3.15-2.545 4.818-3.693.696.268 1.29.75 1.697 1.376zM63.284 15.972c-1.173.401-2.361.862-3.565 1.383-1.565.692-3.094 1.464-4.58 2.313l-.225-2.25c1.232-.675 2.544-1.332 3.92-1.94 1.4-.623 2.833-1.17 4.292-1.64l.158 2.134zM76.471 12.259l-.065 2.036c-3.078-.32-6.187-.127-9.202.57l.068-2.108c3.024-.632 6.126-.8 9.2-.498zM87.277 15.796c-.048.74-.097 1.52-.148 2.34-2.308-1.495-4.845-2.6-7.509-3.27.045-.778.083-1.476.117-2.075 2.65.613 5.193 1.626 7.54 3.005zM61.629 8.349c-.638.244-1.28.51-1.924.795-1.816.805-3.583 1.716-5.293 2.728.072-.674.344-2.14 1.418-3.16.64-.346 1.304-.664 1.982-.982.124-.024.251-.041.385-.055 1.666-.173 2.743.187 3.432.674zM76.747 4.066l-.07 2.036c-3.072-.35-6.182-.187-9.202.484l.07-2.106c3.028-.607 6.131-.747 9.202-.414zM87.122 9.908c-1.272-.82-2.615-1.527-4.012-2.109.36-.04.724-.04 1.084 0 1.297.083 2.434.902 2.928 2.11z" transform="translate(59 37) translate(0 4)"/>
            </g>
        </g>
    </g>
</svg>
