<svg xmlns="http://www.w3.org/2000/svg" width="260" height="71" viewBox="0 0 260 71">
    <g fill="none" fill-rule="evenodd">
        <g transform="translate(-18 -453) translate(30 460)">
            <rect width="229" height="55" x="9" y="1" fill="#FF881D" rx="22"/>
            <text fill="#FFF" font-family="Montserrat-SemiBold, Montserrat" font-size="18" font-weight="500">
                <tspan x="71" y="35">A VIAJAR</tspan>
            </text>
            <g fill-rule="nonzero">
                <path fill="#00B0ED" d="M27.87 55.738c15.35 0 27.868-12.52 27.868-27.869C55.738 12.52 43.22 0 27.87 0S0 12.52 0 27.87c0 15.349 12.52 27.868 27.87 27.868z"/>
                <path fill="#0E7886" d="M27.51 13.896c13.624 0 24.666 11.043 24.666 24.665 0 .855-.044 1.7-.128 2.533-4.71 8.72-13.931 14.644-24.537 14.644S7.684 49.814 2.974 41.094c-.085-.832-.128-1.678-.128-2.533 0-13.623 11.043-24.665 24.665-24.665z"/>
                <path fill="#15BDB1" d="M42.921 19.303c4.587 3.675 7.833 8.953 8.886 14.987-.075-.114-.15-.264-.227-.487-.482.158-.497.171-1.066.266l-.025.035c-.226.322.012.186-.386.522-.473.398-.782.941-1.31 1.264-.064.563.046.69-.096 1.36-.055.246-.331.91-.655.86-.103-.02-.537-1.094-.64-1.392-.174-.505-.37-.879-.497-1.46-.071-.31-.119-.905-.19-1.114-.34.05-.324.266-.648.039-.229-.165-.126-.266-.253-.513-.268-.253-.544-.506-.82-.759-.214-.069-1.035.05-1.383.013-.624-.057-.678-.02-1.05-.518-.656.032-.6.278-1.24-.273-.418-.354-.34-.923-.947-.6-.023.518.229.633.458.873.165.183.37.31.457.556.008.007.048.24.056.272.593.038.734-.246 1.058-.487.316.297.008.348.466.582.363.184.293.076.529.373.118.398-.813 1.48-1.122 1.676-.236.152-.362.063-.576.239-.316.267.04.228-.513.43-.592.216-1.177.67-1.8.709l-.403-1.113c-.395-1.27-.38-.778-.782-1.435-.19-.285-.111-.468-.237-.721-.088-.19-.221-.272-.34-.506-.182-.36-.394-.923-.813-.866-.087.284.386 1.246.505 1.48.118.234.308.335.363.67.079.461-.015.404.237.713.53.638-.024.525.798 1.15.615.47.458.608.718 1.235.403.113 1.603-.424 1.808-.266.245.436-.284 1.132-.418 1.511-.442 1.271-1.216 1.253-1.809 2.226-.323.526-.473.595-.773 1.227-.34.715.686 2.694.071 3.523-.134.19-.569.303-1.113.88-.577.625.015.518-.206 1.56-.173.24-.387.253-.6.425-.079.246-.015.441-.15.745-.142.367-.165.17-.372.469-.15.233-.133.328-.307.543-.15.197-.23.253-.37.38-.688.632-2.165.65-2.291.562-.348-.296-.11-.372-.197-.79-.085-.367-.28-.674-.442-.957l-.016-.03c-.079-.138-.15-.271-.19-.398-.284-.898-.181-1.58-.679-2.49-.624-1.177.347-1.79.308-2.455-.016-.177-.079-.284-.095-.424-.119-.733-.189-1.39-.679-1.966-.537-.626-.466-.405-.292-1.435.22-1.183-.285-.88-.996-.91-.347-1.075-1.027-.551-1.706-.235-.426.196-.584-.056-1.066.013-1.074.145-.229.607-1.666-.531-.6-.475-.198-.234-.553-.829-.118-.215-.482-.499-.648-.715-.545-.682.103-1.372.008-2.156-.166-1.454-.403-.19.41-1.948.428-.935 1.075-.941 1.241-1.36.143-.372.048-.638.316-.98.237-.277.577-.22.711-.657.19-.537-.174-.606-.569-.62-.165-.562-.165-.424-.04-.942.072-.291.009-.43.072-.721.158-.727 1.398-.006 1.753-.304.166-.31.19-.613 0-.91-.198-.298-.458-.26-.592-.544.3-.202.079-.025.34-.083.307-.069.268-.158.631-.227.324-.064.53-.36.845-.562.45-.292.237-.552.782-.639.877-.152.308-.127.403-.943.134-.05.26-.108.387-.164.276.36-.071.215.26.455.087-.05.19-.1.285-.151-.048-.393-.23-.317-.348-.803-.434.07-.592.436-.94.303-.339-.126-.355-.613-.339-1.018.126-.303.758-.468 1.002-.544.396-.133.34-.398.703-.76.474-.473.126.007.355-.606.522-.02.277-.038.585-.196l.015-.006.032-.013c.182-.082.419-.1.656-.183.868-.29 1.223-.145 1.855.113.49.203 1.967.21 2.077.83-.355.372-.694.1-1.208.132.094.48.134.48.569.613.071-.228-.032-.139.087-.284.142.031.284.056.426.083.143-.488.308-.418.79-.475-.08-.336-.166-.24.016-.506.498.051.095.007.34.405.347-.044.687-.43 1.168-.48.3-.032.285.082.71.037.348-.037.332-.164.68-.018.126-.235 0-.229.308-.285.473-.082.884.208 1.342.272-.339-.417-.663-.335-.244-1.03.529-.108.576-.032.805.367.13-.073.185-.147.25-.184zM16.36 53.415c-.822-.359-1.622-.756-2.4-1.19-.01-.032-.018-.067-.026-.108-.118-.702.182-.778-.15-1.948-.218-.774-.13-2.608-.36-3.547-.037-.15-.083-.277-.137-.374-.214-.354-.735-.518-1.153-.803-.024-.006-.04-.013-.047-.026-.577-.404-1.122-1.992-1.58-2.585-.213-.286-.347-.16-.442-.608-.103-.41.055-.34.19-.683-.703-1.29.908-1.271.577-2.82-.072-.285-.276-.683-.45-.809-.332.145-.175.227-.348.505-.268-.152-.537-.304-.797-.455-.814-.784-.38-.215-.608-.727-.49-1.075-.956-.474-1.54-1.005-.262-.222-.309-.57-.743-.506-.655.088-.292.19-.971-.127-.577-.273-1.177-.588-1.58-.955-.016-.57.19-.595-.165-1.126-.063-.098-.134-.19-.206-.277 1.111-5.056 3.772-9.53 7.46-12.899.287.1.666.034.95.023.103-.19.166-.355.348-.424.071-.025.158-.031.277-.025.015.094.04.19.063.284 0 .007.016.07.008.057.008-.013.015.038.023.056.498-.29.08-.297.347-.822-.418-.082-.363-.032-.624-.297.254-.278.743-.373 1.106-.348-.024.254-.142.247-.047.462.285-.177.482-.651.94-.563.087.063.19.12.284.177-.237.221-.592.234-.9.36-.135 1.373.435.222.245 1.165.339-.026.67-.272.797-.525-.126-.165-.308-.165-.41-.36.08-.254.25-.445.49-.56.162-.076.356-.118.576-.118 2.511.02 1.319.133 2.093.488.173.075.481.114.584.265.158.24.008.468.26.658.222.164.254-.007.546.36-.063.209-.213.424-.521.43-.427.007-.174-.284-.632-.24.008.43.434.595.039.829-.347.209-.127-.076-.387.07l-.039.025c-.015.013-.032.032-.04.044-.046.051-.087.095-.125.14-.632-.171-.513-.095-.893-.512-.142-.158-.165-.196-.418-.177-.158.006-.363.075-.514-.064.309-.385.459-.012.909-.24.079-.039.576-.424.656-.513-.135-.304-.016-.051-.213-.247-.443-.448-.57-.335-1.169-.335-.28.323-.49.723-.797.898-.185.106-.405.13-.695.006.134.544.481.127.512.784-.228-.044-.347-.158-.584-.076-.506.19-.055.17-.016.272 0 .007.237.032 0 .12-.26.095-.04-.05-.545-.347.071-.127.143-.26.214-.392-.41.127-.924.329-1.406.563-.545.272-1.058.582-1.366.866-.008.475.079.158.126.721.734.044.498.265 1.232.474.142.039.324.077.545.114 0 .355-.316.62-.095.987.513.36.529-.342.655-.79 1.739-.363.901-.874 1.35-1.83.067-.143.163-.296.3-.46.135.007.68.064.798.088.395.07.182.165.609.355-.008.341-.182.784.323.702.387-.069.301-.373.774-.45.213.5.158.716.253 1.316 1.137.443.631.803.41 1.632.143.07.292.133.442.196l-.023.709c-.024 0-1.217-.26-1.295-.285.181-.519.513-.525.726-1.055-.426.075-.395.208-.703.303-.276.082-.489.025-.781.063-.103.341-.008-.298.024.138.016.165.095.007-.016.184-.395-.184-.26-.614-.995-.215.166.076.331.145.505.215-.023.486-.063.12-.165.442-.253.829.686.316.931.272-.063.437-.331.437-.71.557-.418.126-.545.297-.877.373 0-.519-.079-.082.15-.442-.332.03-.577.183-.893.316l-.03.012c-.407.165-.468.19-.515.708-.347.108-.75.229-.995.482-.244.233-.49.467-.727.695-.023.019-.04.038-.054.05.087.651 0 .664-.396.918-.331.214-.442.208-.75.48-.987.886-.513.474-.458 1.998-.205-.062-.403-.132-.592-.202-.15-1.012.055-.676-.758-.91-.877-.253-.76.177-1.122.252-.403.088-.6-.367-1.185.013-.323.22-.631.367-.71.758-.095.475-.308.822-.277 1.347.056 1.424 1.35 1.505 1.683.841.22-.442.166-.682.884-.569.071.38-.04.658-.135.95-.062.17-.236.48-.15.714.514.209.53-.184 1.209.221.048.676-.308 1.435.213 1.827.402.297.426.032.781-.03.396-.07.325.176.688.233.205-.253.118-.094.253-.405.237-.536.3-.284.86-.612.056-.032.103-.064.159-.102.063.133.134.26.196.386.411-.487.458-.013.933.12.204.056.348.076.46.077.345.005.38-.162.85.004.056.027.127.045.19.064.008 0 .032.013.032.026l.04.032c.078.088.087.177.15.272l.963.923c.624.247.624-.215 1.335.474.3.284.165.279.331.645.024.057.071.113.103.183.063.171.134.335.205.5.323.423.766.158 1.216.594.26.253.063.177.64.278.892.146.545.064 1.224.576.26.19.323.082.568.246.34.474.253.987-.031 1.404-.877 1.277-.577 1.069-.617 2.08-.031.582-.197 1.784-.742 1.93-1.982.556-.83.942-1.35 1.922-.15.279-.261.348-.356.57-.394.922-.118 1.233-1.287 1.024.111.195.04.063.15.24.348.537.403.942-.308 1.074-.592.114-.34 0-.394.658-.23.095-.332 0-.482.152l.056.104h-.001zM11.154 20.1c.153-.02.152-.086.553-.183-.032-.133-.056-.133-.087-.183l-.013-.026c-.152.13-.304.26-.453.393zm21.109 7.333l-.016-.01c-.055-.038-.11-.076-.157-.12-.348-.31-.42-.588-.806-.519-.008.291.032.303.174.493.537.67.371.443.79.69l.015.009c.099.057.214.136.37.25-.536.473-.038.524-.37.683l-.016.007c-.032.012-.063.025-.086.038-.111-.279.134-.146-.15-.55-.158-.21-.308-.272-.553-.387-.617-.29-.537-.518-.916-.898-.427.013-.332.146-.632.298-.363.176-.308-.031-.734.006-.348.614.15.102-.482.607-.758.588-.134 1.202-1.35 1.386-.087.012-.119 0-.205.03-.23.083-.096.013-.23.146.103.24-.04.202.372.26.75.1.845-.361 1.39-.475.268-.057 1.95-.127 2.068-.095.364.405.064.69.064 1.03.396.21.956.26 1.185.475.26.247.134.208.26.253l.016.005c.048.013.117.038.237.084.316.107.3.17.64.195.308-1.03-.009-.923 1.476-.45 1.548.508.853.046 1.509.115.324.032.237.133.687.076.086-.177.726-1.784-.103-1.581-.245.063-.079.151-.427.063-.363-.094-.015-.164-.417-.108-.396.058-.87.406-1.178-.79-.118-.43-.331-.803-.82-.152.126.221.213.24.354.455-.039.063-.173.222-.22.273-.268.265.11.139-.324.195-.237-.177-.19-.405-.419-.72-.402-.59-.142-.317-.347-.88-.161-.142-.43-.248-.648-.387h-.001zm8.434 17.025c-.347.177-.395.582-.655.81-.284.259-.664.14-.774.62-.142.6.237.417-.181 1.2-.15.291-.158 1.018.071 1.234.687.663 1.058-1.011 1.216-1.536.119-.373.23-.797.355-1.145.127-.373.308-.702-.032-1.183zM39.56 26.815c.056.772.513 1.069.837 1.423-.039.367-.126.272-.118.784.387.279.67.449 1.177.31.07-.62-.127-.589-.316-1.012.032-.05.118-.114.134-.126.143-.19.071.075.143-.247-.371-.12-.972-.5-1.018-.999.181-.145.126-.057.26-.145.292-.19.07.1.244-.222-.15-.29-.315-.341-.678-.196-.158.064-.577.36-.664.43zm-3.23.202c-.244-.34-.23-.512-.703-.525-.189.203-.41.506-.513.816-.157.468-.047.145-.031.652-.008.018 0 .045 0 .063-.008.303-.08-.057-.032.221.372-.076.088-.07.364-.158.26-.089 1.058-.329 1.287-.272.545.127 1.003.557 1.62.127-.033-.55-.696-.76-1.154-1 .024-.505.158-.107.126-.594-.158-.007-.253-.032-.403.031-.355.158-.158.203-.158.26.016.271.356-.057-.007.278-.103.088-.27.088-.395.101zm-9.224-3.832c-.015.886.293.588.584 1.025-.133.373-.158.083-.307.468-.134.323.031.032-.056.594.23.013.569-.069.87-.094.426-.039.417-.076.568-.513-.237-.29-.474-.582-.719-.872-.308-.469 0-.146-.094-.538-.071-.14-.135-.278-.198-.418-.41.14-.37.102-.648.348z"/>
                <path fill="#FBB429" d="M42.715 21.619l-.24-.24-.984-.984-.239-.239c-.777.295-1.75 1.569-2.133 2.372l.12.12.984.984.12.12c.803-.384 2.077-1.356 2.372-2.133z"/>
                <path fill="#FFF" d="M42.715 21.619l-.24-.24-.984-.984-.239-.239c-.18.069-.368.189-.56.343l1.68 1.68c.154-.191.274-.38.342-.56z"/>
                <path fill="#FBB429" d="M44.363 26.3l-.239-.239-.984-.984-.239-.239c-.777.295-1.75 1.568-2.133 2.372l.12.12.984.984.12.12c.803-.384 2.077-1.356 2.372-2.134z"/>
                <path fill="#FFF" d="M44.363 26.3l-.239-.238-.984-.985-.239-.238c-.18.068-.369.188-.56.343l1.68 1.679c.154-.191.274-.38.342-.56z"/>
                <path fill="#FBB429" d="M30.922 9.826l.239.239.984.984.24.24c-.296.776-1.57 1.749-2.373 2.133l-.12-.12-.984-.984-.12-.12c.385-.803 1.357-2.077 2.133-2.372z"/>
                <path fill="#FFF" d="M30.922 9.826l.239.239.984.984.24.24c-.069.179-.189.368-.344.559l-1.679-1.679c.19-.155.38-.275.56-.343z"/>
                <path fill="#FBB429" d="M26.24 8.178l.239.239.985.984.238.24c-.294.776-1.568 1.748-2.371 2.132l-.12-.12-.985-.984-.12-.12c.385-.803 1.357-2.077 2.134-2.372z"/>
                <g fill="#FFF">
                    <path d="M8.963.775l.238.239.985.985.239.238c-.068.18-.188.37-.343.56L8.403 1.118c.19-.155.38-.275.56-.343z" transform="translate(17.278 7.403)"/>
                    <path d="M5.466 22.97l2.888 4.107.921-1.113-1.634-4.32c.205-.176-.18.175.663-.584.844-.76 4.551-4.168 7.909-6.898l9.67 13.671.882-.882L21.42 9.912c2.185-1.8 3.875-3.237 4.33-3.758 1.393-1.59 2.653-3.713 1.658-5.701-1.989-.995-4.11.265-5.701 1.657-.52.455-1.957 2.146-3.758 4.33L.91 1.096l-.882.882 13.67 9.671c-2.73 3.358-6.138 7.065-6.896 7.909-.76.844-.409.458-.586.663l-4.318-1.635-1.114.922 4.107 2.888c-.446.768-.192 1.022.575.576z" transform="translate(17.278 7.403)"/>
                </g>
                <g fill="#C8CACC">
                    <path d="M5.466 21.337L8.354 25.444 8.576 25.176 5.776 21.123 5.466 21.338 5.466 21.338zM1.052 17.651L.783 17.874 4.89 20.762 5.105 20.452 1.051 17.651zM16.213 12.529L25.884 26.2 26.224 25.859 16.784 12.063zM.367.004L.028.344 13.698 10.015 14.164 9.444.367.004z" transform="translate(17.278 9.036)"/>
                </g>
                <path fill="#15BDB1" d="M43.855 8.686c-.196-.196-.433-.334-.696-.416L43 8.715c.166.1.322.22.464.362.142.142.263.298.362.464l.445-.16c-.082-.262-.22-.499-.416-.695zm-1.051-.491c-.406-.049-.85.015-1.292.184.397-.033.797.025 1.163.174l.129-.358zm1.184 1.67c.15.367.207.766.174 1.164.17-.441.233-.886.184-1.292l-.358.129z"/>
                <path fill="#FFF" d="M19.765 33.05l.003-.003.059-.057.058-.055.058-.057.06-.057.058-.057.06-.057.059-.058.06-.057.06-.058.06-.058.06-.058.06-.059.061-.059.06-.059.062-.06.062-.058.062-.06.062-.06.062-.06.063-.061.062-.061.063-.061.063-.062.063-.061.064-.062.064-.063.063-.062.065-.063.064-.063.064-.063-.359-.366-.064.062-.064.063-.064.063-.064.062-.063.062-.063.062-.063.061-.063.062-.062.06-.063.06-.062.061-.062.06-.062.06-.061.06-.062.06-.061.059-.06.059-.062.058-.06.059-.06.058-.06.058-.06.058-.06.057-.06.058-.06.056-.058.057-.06.057-.058.056-.058.057-.058.056-.004.003.356.37v.001zm28.748-.212l-.06.16-.062.156-.06.155-.061.152-.062.15-.061.147-.061.145-.062.143-.061.14-.062.139-.061.137-.062.134-.062.132-.062.13-.003.005.461.226.005-.009.063-.133.063-.135.063-.138.064-.139.062-.141.063-.144.063-.146.062-.148.063-.15.063-.153.062-.155.062-.157.062-.159.062-.162-.48-.182h-.001zm-1.577 3.364l-.032.053-.063.103-.063.102-.063.1-.063.097-.063.096-.064.094-.063.092-.063.09-.064.089-.063.087-.064.085-.063.083-.064.082-.064.08-.064.078-.064.077-.064.075-.064.073-.064.071-.064.07-.065.069-.064.066-.064.066-.012.01.36.367.016-.015.068-.07.069-.071.068-.073.069-.075.067-.076.068-.077.068-.08.067-.08.068-.084.067-.083.067-.086.067-.088.066-.089.067-.091.066-.093.067-.095.066-.096.066-.098.065-.1.066-.102.065-.103.066-.106.066-.107.03-.053-.44-.265.003.001zm-2.662 2.912h-.002l-.066.04-.065.04-.066.036-.066.037-.067.035-.065.034-.067.033-.066.031-.067.031-.066.03-.067.028-.067.028-.067.027-.066.026-.068.024-.067.025-.068.023-.067.022-.068.022-.068.02-.068.02-.068.018-.069.018-.068.017-.069.016-.069.016-.069.014-.069.014-.07.013-.069.013-.07.012-.07.011-.07.01-.07.01-.004.001.065.51.01-.002.075-.01.074-.011.075-.013.075-.012.075-.014.075-.014.074-.015.075-.016.073-.017.075-.017.074-.019.075-.02.074-.02.074-.02.074-.023.073-.023.073-.024.074-.025.074-.026.073-.027.073-.029.073-.029.073-.03.073-.032.073-.032.072-.034.072-.035.073-.035.072-.038.073-.038.072-.04.071-.04.072-.042.072-.043.001-.001-.268-.438.002-.001zm-3.81.881H40.382l-.075-.001-.074-.001-.075-.002-.075-.001-.075-.002-.075-.002-.076-.003-.076-.002-.075-.003-.076-.002-.076-.003-.077-.003-.077-.003-.076-.003-.077-.003-.077-.004-.077-.003-.078-.003-.077-.003-.078-.003-.078-.003-.078-.003-.079-.003-.078-.003-.079-.003-.079-.002-.079-.003-.08-.003-.079-.002-.08-.002-.08-.002-.079-.001-.008-.001-.01.513h.008l.078.002.079.002.078.002.078.002.079.003.078.002.078.003.078.003.078.003.078.003.078.003.077.003.077.003.078.003.077.003.078.003.077.003.077.003.078.003.077.003.077.004.077.003.077.002.076.003.077.002.077.002.077.002.077.002.077.002.076.001.077.001.076.001h.086l.001-.513-.002.001zm-4.125-.046l-.066.005-.084.007-.084.008-.084.008-.084.009-.085.01-.084.01-.085.01-.085.01-.085.013-.085.013-.086.015-.085.014-.085.015-.086.016-.086.017-.087.017-.086.019-.087.02-.087.02-.087.022-.087.022-.087.023-.088.024-.087.025-.088.026-.088.027-.088.028-.088.03-.089.03-.011.004.174.484.007-.003.083-.029.083-.027.083-.026.083-.026.083-.024.083-.024.082-.023.083-.022.082-.021.083-.02.082-.02.082-.018.082-.018.081-.016.081-.016.082-.016.082-.014.081-.014.082-.013.08-.012.082-.011.081-.011.081-.01.081-.01.08-.009.081-.009.081-.008.08-.007.08-.006.067-.005-.04-.512h-.004zm-4.017 1.168l-.069.039-.09.052-.092.054-.09.054-.092.057-.091.058-.092.06-.09.06-.092.062-.092.063-.092.066-.092.067-.091.068-.092.07-.092.07-.092.074-.093.074-.093.076-.092.077-.093.08-.093.08-.093.083-.092.084-.024.022.35.375.02-.017.09-.082.089-.08.09-.077.088-.075.089-.075.089-.073.088-.071.088-.07.088-.068.088-.066.088-.066.088-.063.087-.062.088-.06.087-.06.087-.057.087-.057.087-.054.086-.054.086-.052.086-.05.086-.05.069-.039-.254-.446h-.001zm-3.207 2.667l-.01.01-.094.107-.092.106-.092.104-.092.103-.091.102-.092.1-.091.1-.091.097-.091.097-.09.095-.091.094-.09.093-.09.092-.09.09-.09.09-.09.087-.09.087-.089.086-.089.084-.017.016.35.375.019-.017.091-.087.092-.087.091-.089.092-.09.092-.091.092-.093.092-.094.092-.094.093-.097.093-.097.092-.098.093-.1.093-.101.094-.102.093-.104.094-.105.094-.106.094-.107.091-.105.01-.01-.385-.34zm-2.901 2.833l-.062.049-.085.066-.086.066-.086.065-.085.064-.085.063-.085.061-.084.06-.085.06-.084.058-.084.057-.083.057-.084.055-.083.054-.083.053-.083.052-.082.051-.083.05-.082.049-.081.048-.082.046-.081.046-.081.045-.081.044-.08.043-.04.02.236.457.043-.022.084-.046.085-.045.084-.047.085-.048.085-.05.085-.049.086-.051.085-.052.086-.053.086-.054.086-.055.087-.056.086-.058.087-.058.087-.06.088-.06.087-.061.088-.063.088-.064.088-.065.088-.065.088-.067.09-.069.088-.069.061-.049-.317-.404zm-3.475 1.971l-.068.022-.075.025-.076.023-.075.022-.074.022-.075.02-.074.02-.073.02-.074.017-.073.017-.073.017-.073.015-.072.015-.072.014-.072.013-.072.012-.07.012-.071.01-.071.01-.07.01-.07.008-.07.008-.07.007-.07.006-.068.005-.069.004-.068.004-.069.003-.067.002-.068.002h-.266l-.026-.002-.019.513.032.001.072.002H20.607l.073-.003.073-.002.073-.003.075-.005.074-.005.074-.005.075-.007.075-.007.075-.009.076-.009.075-.01.076-.01.076-.011.077-.013.077-.013.077-.014.077-.015.077-.016.078-.016.078-.018.078-.019.079-.019.078-.02.08-.021.079-.022.08-.023.079-.024.08-.024.08-.026.067-.022-.159-.488zm-3.89.16l-.025-.007-.06-.018-.058-.018-.058-.018-.059-.02-.058-.02-.058-.02-.057-.02-.057-.022-.057-.022-.056-.023-.056-.023-.056-.023-.056-.024-.055-.025-.055-.026-.054-.025-.054-.027-.055-.026-.053-.027-.053-.028-.053-.029-.053-.028-.052-.03-.052-.03-.052-.03-.052-.03-.05-.032-.051-.032-.05-.032-.05-.033-.05-.033-.05-.033-.05-.034-.048-.034-.049-.036-.048-.035-.048-.035-.047-.037-.047-.036-.047-.037-.021-.017-.323.4.024.019.05.04.05.039.052.038.051.04.052.037.053.038.052.037.054.036.053.036.054.036.054.035.054.035.055.034.055.034.056.033.056.033.056.032.057.032.058.031.057.03.058.03.058.03.058.03.06.028.059.028.059.027.06.027.06.026.06.026.061.025.062.024.061.024.062.024.063.023.062.022.063.021.064.021.063.02.064.02.065.019.025.007.143-.493zm-3.222-2.18l-.021-.027-.038-.046-.037-.046-.036-.047-.036-.047-.036-.048-.035-.047-.035-.048-.035-.048-.034-.048-.035-.048-.033-.049-.033-.049-.033-.05-.032-.048-.032-.05-.031-.05-.031-.05-.031-.05-.03-.05-.03-.052-.03-.05-.03-.052-.028-.05-.028-.052-.028-.051-.028-.052-.027-.051-.027-.052-.026-.053-.026-.051-.026-.053-.025-.052-.025-.053-.024-.053-.024-.053-.023-.053-.023-.052-.023-.054-.022-.053-.022-.053-.021-.053-.018-.045-.478.186.019.048.023.057.023.057.023.057.024.056.025.056.025.057.026.056.026.057.026.056.026.055.028.056.027.056.028.055.029.056.028.054.03.055.03.055.03.054.03.055.032.054.031.054.032.054.033.053.032.054.033.052.034.054.033.053.034.052.035.053.035.051.036.052.036.052.037.051.037.052.037.05.038.051.038.05.038.05.039.05.039.05.04.05.021.026.399-.324zm-1.655-3.572c-.148-.814-.172-1.635.007-2.447l-.501-.11c-.196.866-.17 1.78-.01 2.65l.504-.093zm.494-3.84c.348-.74.867-1.452 1.383-2.083l-.396-.327c-.54.652-1.088 1.42-1.449 2.185l.462.224zm2.392-3.223l.004-.004.043-.046.044-.046.044-.046.045-.047.045-.047.045-.047.045-.047.046-.047.045-.047.046-.047.046-.048.047-.047.047-.048.047-.048.047-.048.048-.048.048-.049.049-.049.048-.048.049-.049.048-.048.05-.05.05-.049.05-.05.05-.05.05-.049.051-.05.05-.05.052-.05.051-.05.052-.051.052-.05.052-.052.053-.05.052-.052.053-.051.053-.052.004-.003-.358-.368-.004.003-.053.052-.053.052-.053.051-.053.052-.052.05-.052.052-.052.05-.052.051-.051.051-.052.05-.05.05-.052.05-.05.05-.05.05-.05.05-.05.05-.05.05-.048.05-.05.048-.048.05-.048.048-.048.049-.048.048-.048.049-.047.048-.047.048-.048.048-.046.048-.047.048-.046.048-.046.048-.045.047-.046.048-.044.046-.046.048-.044.047-.045.047-.003.004.374.351v-.002z"/>
            </g>
        </g>
    </g>
</svg>
