<svg xmlns="http://www.w3.org/2000/svg" xmlns:xlink="http://www.w3.org/1999/xlink" width="260" height="71" viewBox="0 0 260 71">
    <defs>
        <circle id="prefix__c" cx="17.101" cy="16.855" r="16.855"/>
        <path id="prefix__a" d="M56 27.997c.007 4.491-1.073 8.917-3.147 12.901-.43.831-.904 1.64-1.417 2.422-.143.22-.289.435-.441.65-.784 1.13-1.652 2.2-2.596 3.202-.388.414-.789.815-1.203 1.202-.146.138-.292.273-.44.407-.692.62-1.412 1.21-2.162 1.766l-.19.139c-.729.534-1.484 1.032-2.262 1.49-.156.096-.325.19-.49.281l-.07.039c-.425.237-.856.462-1.294.675-.208.103-.416.202-.621.298-.205.097-.466.211-.705.31-.301.128-.605.252-.913.369-1.156.446-2.342.812-3.548 1.097-.603.143-1.212.266-1.83.37-.224.037-.45.073-.676.104-.643.091-1.292.16-1.948.208-.656.048-1.332.072-2.028.073-2.94.002-5.863-.458-8.66-1.365-.348-.114-.693-.233-1.035-.358-13.316-4.906-20.856-19-17.549-32.8C4.083 7.674 17.192-1.47 31.285.194 45.378 1.859 55.997 13.805 56 27.997z"/>
    </defs>
    <g fill="none" fill-rule="evenodd">
        <g>
            <g transform="translate(-18 -1143) translate(-23 1117)">
                <rect width="229" height="55" x="62" y="34" fill="#6E79E0" rx="22"/>
                <text fill="#FFF" font-family="Montserrat-SemiBold, Montserrat" font-size="18" font-weight="500">
                    <tspan x="124" y="68">ENGLISH TIME</tspan>
                </text>
                <g>
                    <g transform="translate(.584 .816) translate(52.524 37.2)">
                        <mask id="prefix__b" fill="#fff">
                            <use xlink:href="#prefix__a"/>
                        </mask>
                        <use fill="#1171C8" fill-rule="nonzero" xlink:href="#prefix__a"/>
                        <path fill="#A01260" d="M42.058 52.88c-.23.113-.458.223-.683.329-.226.105-.512.232-.775.341-.332.14-.666.277-1.004.405-1.273.49-2.576.893-3.903 1.207l3.927-5.889v-.013l.12-.183.172-.265.029.057 2.117 4.012z" mask="url(#prefix__b)"/>
                        <path fill="#B71A6B" d="M49.182 48.061c-.76.683-1.552 1.33-2.376 1.943l-.21.152c-.802.588-1.633 1.135-2.49 1.639-.17.106-.356.208-.537.309l-.079.043c-.467.26-.94.508-1.422.742-.229.113-.458.222-.683.328-.225.106-.512.232-.775.342-.331.14-.666.276-1.004.404l-.181.019c-.854-.427-.38-3.635.205-4.7v-.014c.02-.036.04-.07.063-.104.018-.027.037-.054.058-.079.062-.075.13-.145.205-.208.864-.743 2.798-1.173 2.798-1.173s2.595-.614 3.468-.527c.67.053 1.823.443 2.96.884z" mask="url(#prefix__b)"/>
                        <path fill="#A01260" d="M23.58 55.59c-1.541-.25-3.06-.618-4.546-1.1-.382-.124-.761-.256-1.137-.394l-.046-2.412.772-2.529 4.956 6.435z" mask="url(#prefix__b)"/>
                        <path fill="#B71A6B" d="M19.034 54.49c-1.916-.623-3.766-1.434-5.523-2.42-1.858-1.044-3.604-2.277-5.209-3.68 1.366-.561 2.95-1.143 3.787-1.229.873-.087 3.468.528 3.468.528s2.448.544 3.073 1.466c.625.922 1.205 4.752.404 5.336z" mask="url(#prefix__b)"/>
                    </g>
                    <path fill="#FFF" d="M100.928 44.313c.78 7.63-3.834 14.78-11.108 17.212l.958 3.478-5.757-2.59.149-.053c-8.901.292-16.407-6.576-16.904-15.467C67.77 38 74.463 30.34 83.341 29.639c8.878-.701 16.691 5.815 17.596 14.674h-.009z" opacity=".58" transform="translate(.584 .816)"/>
                    <g transform="translate(.584 .816) translate(64.087 28)">
                        <mask id="prefix__d" fill="#fff">
                            <use xlink:href="#prefix__c"/>
                        </mask>
                        <circle cx="17.101" cy="16.855" r="18.855" stroke="#FFF" stroke-width="4"/>
                        <g fill-rule="nonzero" mask="url(#prefix__d)">
                            <g>
                                <path fill="#1171C8" d="M0.693 0.661L44.569 0.662 44.57 36.209 0.693 36.208z" transform="translate(-5.4 -1.532) rotate(-.44 22.631 18.435)"/>
                                <path fill="#FFF" d="M3.296 0.756L18.889 12.504 18.969 0.636 25.745 0.821 25.834 12.293 42.22 0.302 44.232 0.523 44.039 5.397 34.05 12.938 43.984 13.019 44.175 23.079 34.188 23.39 44.236 30.858 44.329 35.572 41.892 35.333 25.863 22.981 26.01 35.319 19.009 35.608 19.515 24.456 4.362 36.131 0.582 36.142 1.244 31.986 12.982 23.026 0.599 23.488 0.461 13.036 10.624 13.038 0.516 5.178 0.425 0.777z" transform="translate(-5.4 -1.532)"/>
                                <path fill="#DB3945" d="M20.508 1.213L25.045 1.213 25.046 35.814 20.508 35.814z" transform="translate(-5.4 -1.532) rotate(-.44 22.777 18.514)"/>
                                <path fill="#DB3945" d="M1.098 15.399L44.342 15.399 44.342 22.099 1.098 22.098z" transform="translate(-5.4 -1.532) rotate(-.44 22.72 18.749)"/>
                                <path fill="#DB3945" d="M26.409 13.531L30.225 13.742 44.286 3.27 44.329 1.198 42.861 1.207zM13.408 13.742L16.553 13.64 1.356 2.094 1.321 4.721zM15.754 23.598L19.241 23.65 3.329 35.884 1.33 36.142 1.321 34.689zM29.097 23.598L32.3 23.654 44.248 32.445 44.329 35.246z" transform="translate(-5.4 -1.532)"/>
                            </g>
                        </g>
                    </g>
                    <path fill="#FFF" d="M68.096 65.444L70.807 60.068 76.16 61.331z" transform="translate(.584 .816)"/>
                    <path fill="#161F36" d="M71.642 69.233c-.807-1.753.924-3.669 2.239-4.43.46-.253 1.823-.67 2.22-.046.322.512-.231 1.338-.554 1.661-.046.046-.6.555-.6.531-.023-.138.484-.162.554-.184.946-.342 2.815.208 3.252 1.176 1.108 2.447-2.975 2.77-3.073 1.823 0-.07.512.391.553.437.279.371-.068.854-.368 1.04-.992.646-2.239-.392-3.046-.693l-1.177-1.315z" transform="translate(.584 .816)"/>
                    <path fill="#D83291" d="M71.158 68.54s.324-.16.761.14c.437.3 1.455 1.914-.046 2.653l-.715-2.793z" transform="translate(.584 .816)"/>
                    <path fill="#161F36" d="M70.509 68.011s3.623 4.198 2.146 7.683l-1.43.253-1.502-6.137.786-1.799z" transform="translate(.584 .816)"/>
                    <path fill="#F6BD9A" d="M64.006 68.218c3.53-.784 6.967 1.13 7.683 4.292l.577 2.515c.368 1.683 1.108 1.821.807 4.244-.208 1.707-1.707 3.024-4.2 3.831-.323.092-1.475.253-1.475.253-5.354.3-7.154-2.26-7.869-5.445l-.575-2.515c-.762-3.16 1.52-6.39 5.052-7.175z" transform="translate(.584 .816)"/>
                    <path fill="#F6BD9A" d="M56.738 78.832c-.207-1.316.17-1.823.693-2.262.691-.553 1.383-.485 1.914-.512 1.593-.117 1.937 1.108 2.22 2.422.252 1.154 1.314 1.984.091 2.445-.162.07-.853.439-1.108.463-2.01.328-3.602-1.334-3.81-2.556z" transform="translate(.584 .816)"/>
                    <path fill="#161F36" d="M59.807 80.608c-.024-.11-.001-.226.064-.318.065-.093.166-.153.278-.167.223-.053.449.08.512.3.024.108.003.22-.058.312-.062.092-.158.154-.266.173-.11.037-.231.026-.332-.032-.101-.057-.173-.155-.198-.268z" transform="translate(.584 .816)"/>
                    <path fill="#161F36" fill-rule="nonzero" d="M69.655 77.862c-.025 0-.045-.02-.046-.046-.026-.215-.153-.405-.341-.512-.6-.3-1.684.206-1.684.206-.011.01-.027.012-.04.008-.015-.005-.026-.016-.03-.03-.009-.011-.011-.027-.007-.041.005-.014.017-.025.031-.029.046-.022 1.152-.53 1.8-.206.222.115.376.33.414.577-.023.022-.046.068-.092.068l-.005.005z" transform="translate(.584 .816)"/>
                    <path fill="#DB3945" d="M70.68 79.754c-.301-.738-1.879.092-2.84.162-1.536.092-4.014-1.176-4.13.23-.114 1.293 2.539 2.562 4.246 2.307 1.708-.254 3.225-1.499 2.724-2.7z" transform="translate(.584 .816)"/>
                    <path fill="#FF514F" d="M66.082 81.116c-1.084-.07-1.776-.186-2.076-.17.715.945 2.607 1.66 3.945 1.476.39-.058.77-.166 1.13-.322-.414-.8-1.799-.891-3-.984z" transform="translate(.584 .816)"/>
                    <path fill="#F5FAFE" d="M64.192 79.501c-.203.049-.368.195-.44.391.558.455 1.214.771 1.917.924.3-.23.923-.623 1.43.114l.046.092c1.108.07 2.05-.046 2.607-.737v-.808c-.599.093-1.338.37-1.891.393-1.156.092-2.84-.606-3.67-.369z" transform="translate(.584 .816)"/>
                    <path fill="#161F36" d="M70.328 75.185c-.024-.299.114-.575.322-.575.209 0 .393.206.44.512.045.306-.117.577-.323.577-.233.041-.417-.191-.44-.514z" transform="translate(.584 .816)"/>
                    <path fill="#161F36" fill-rule="nonzero" d="M69.266 74.033c-.035-.007-.067-.023-.092-.046-.025-.023-.036-.055-.031-.088.004-.032.025-.06.055-.075.068-.046 1.452-1.195 2.422-.368.045.044.045.117 0 .162s-.117.045-.162 0c-.808-.716-2.1.369-2.1.369-.044.022-.068.046-.092.046z" transform="translate(.584 .816)"/>
                    <path fill="#161F36" d="M57.477 72.624c.068-.299 1.13-3.09 2.93-4.914 3.414-3.484 10.36-3.392 11.743 2.93.53 2.423-1.366 2.33-2.746 1.339-.046-.022-1.222-1.195-1.038-1.269.277-.092.67 1.385.67 1.57 0 1.222-.67 1.913-1.916 2.121-1.082.208-2.186-.225-2.838-1.113-.046-.046-.761-1.29-.623-1.268.9.138.785 3.807-.53 4.499-1.085.554-1.638.512-2.354-.093-.138-.114-.138 1.062-.022 1.662.116.599.461.923.461 1.522 0 .832-1.222-.341-1.268-.875-.209-1.94-.024-2.978-2.146-2.423-.832.19-.555-2.788-.323-3.688z" transform="translate(.584 .816)"/>
                    <path fill="#161F36" d="M58.607 71.494c-.67-.512-2.1.024-3.073 1.87-.973 1.845.37 4.82 1.27 5.745 0 0-.276-.513.138-1.732.415-1.219 1.223-1.038 2.05-1.477.607-.298-.385-4.406-.385-4.406z" transform="translate(.584 .816)"/>
                    <path fill="#D83291" d="M55.816 74.055c-.924-1.822-1.662.184-1.523 1.224.068.512.853.9.946.23l.577-1.454z" transform="translate(.584 .816)"/>
                    <path fill="#161F36" d="M55.122 73.664c0-2.008-2.583-3.046-4.244-3.184-.577-.046-2.124.16-2.22.9-.092.623.832 1.176 1.293 1.314.07.022.831.255.831.23-.046-.138-.554.07-.623.07-1.084.093-2.699 1.407-2.699 2.516 0 2.791 4.198 1.314 3.876.39-.024-.068-.323.578-.342.67-.114.485.463.761.854.831 1.27.185 2.03-1.338 2.7-1.984l.574-1.753zM65.558 76.155c-.023-.3.116-.577.324-.577.208 0 .39.208.437.512.046.304-.114.577-.323.577-.208 0-.421-.212-.438-.512z" transform="translate(.584 .816)"/>
                    <path fill="#161F36" fill-rule="nonzero" d="M64.306 75.602c-.026.003-.052-.006-.07-.024-.041-.043-.05-.108-.022-.16.046-.07 1.195-1.41 2.306-.762.053.035.072.103.047.16-.037.057-.11.077-.171.046-.946-.553-2.006.694-2.03.716-.019.01-.039.019-.06.024z" transform="translate(.584 .816)"/>
                    <path fill="#F6B79A" d="M63.659 78.163c-.046-.37.439-.832 1.195-.9.756-.068 1.5.277 1.523.645.024.37-.623.44-1.385.512-.761.074-1.287.111-1.333-.257zM70.12 77.125c-.047-.37.392-.832 1.084-.878.691-.046 1.384.3 1.43.67.046.368-.577.438-1.268.484-.692.046-1.199.069-1.246-.276z" transform="translate(.584 .816)"/>
                    <path fill="#EFB892" d="M64.989 83.406c0 .13-.39.823-.376.956.499.541.735.596 1.385.97.307.193.593.417.854.669.326-.196 1.034-.632 1.166-.891.034-.299-.553-.342-.775-.47-.09-.053.071-.543.1-.9.04-.525.147-1.133.147-1.133s-2.057-.615-2.39-.072c-.108.18-.126.509-.111.87z" transform="translate(.584 .816)"/>
                    <g>
                        <path fill="#543532" d="M2.237 4.36s-1.13 2.664.368 6.318l1.482.31 1.714-6.334-3.564-.294z" transform="translate(.584 .816) translate(86.561 64.878)"/>
                        <path fill="#EFB892" d="M11.8 3.118c-3.074-.782-6.41.38-7.781 2.798-.24.529-.406 1.088-.497 1.661l-.47 2.404c-.448 1.76-1.194 1.909-.957 4.396.196 1.781 1.707 3.2 4.282 4.098.328.114 1.553.341 1.553.341 5.548.461 7.513-2.156 8.339-5.463l.668-2.62c.816-3.3-1.51-6.678-5.138-7.615z" transform="translate(.584 .816) translate(86.561 64.878)"/>
                        <path fill="#EFB892" d="M19.093 14.386c.261-1.337-.11-1.914-.639-2.39-.683-.605-1.442-.542-2.002-.574-1.667-.13-2.05 1.082-2.356 2.441-.296 1.196-1.44 2.027-.142 2.519.37.21.759.386 1.16.527 2.017.415 3.707-1.28 3.979-2.523z" transform="translate(.584 .816) translate(86.561 64.878)"/>
                        <path fill="#161F36" fill-rule="nonzero" d="M5.661 12.969h-.013c-.011-.003-.021-.01-.027-.02-.006-.009-.008-.02-.006-.031.041-.25.2-.464.427-.576.664-.32 1.805.236 1.854.26.017.004.029.019.03.036.003.017-.005.033-.02.042-.015.008-.034.007-.047-.003-.012 0-1.153-.56-1.781-.26-.201.1-.342.29-.379.513-.001.02-.017.036-.038.039z" transform="translate(.584 .816) translate(86.561 64.878)"/>
                        <g>
                            <path fill="#DB3945" d="M.28.434C.621-.304 2.226.58 3.21.68c1.618.153 4.229-1.14 4.318.358.056 1.366-2.688 2.571-4.498 2.27C1.22 3.004-.273 1.667.28.433z" transform="translate(.584 .816) translate(86.561 64.878) translate(4.268 14.512)"/>
                            <path fill="#FF514F" d="M5.008 1.957c1.121-.06 1.84-.135 2.156-.106-.779.95-2.785 1.68-4.134 1.456-.407-.067-.803-.19-1.176-.369.45-.823 1.899-.89 3.154-.981z" transform="translate(.584 .816) translate(86.561 64.878) translate(4.268 14.512)"/>
                            <path fill="#F5FAFE" d="M7.026.376c.209.054.37.22.42.43-.436.448-1.01.737-1.63.82C5.492 1.39 4.723.55 4 1.81c-.025.071-.025.071-.075.095-1.157.046-2.129-.088-2.692-.814L1.28.253c.62.092 1.366.394 1.954.474C4.436.817 6.189.084 7.026.376z" transform="translate(.584 .816) translate(86.561 64.878) translate(4.268 14.512)"/>
                        </g>
                        <path fill="#161F36" d="M5.011 10.215c.027-.316-.126-.574-.321-.6-.195-.025-.442.214-.47.53-.027.316.127.574.321.6.236.04.441-.213.47-.53z" transform="translate(.584 .816) translate(86.561 64.878)"/>
                        <path fill="#543532" d="M17.77 5.521C15.907-2.015 3.369-.3.867 2.541c-.729.805 1.84.802 1.84.802S.247 4.444.086 6.548c-.206.826.793-.05 2.867-.39.341-.044.965 1.682 1.327 1.808.776.23 2.56-1.635 3.243-1.603 3.567.181 5.841 1.257 5.857 2.037-.233 1.024.358 1.429.633 1.81.616.341-.256 1.909-.068 2.422.141.415 1.468.47 1.495.275.028-.194.063-.304.436-.785.481-.567 1.287-.654 2.209-.374.558.154 1.313-3.66.965-5.941-.197-1.05-1.146-.198-1.28-.286z" transform="translate(.584 .816) translate(86.561 64.878)"/>
                        <path fill="#161F36" d="M10.13 10.732c.029-.316-.127-.573-.321-.6-.195-.028-.441.213-.47.528-.029.316.126.574.321.601.265-.038.463-.261.47-.529z" transform="translate(.584 .816) translate(86.561 64.878)"/>
                        <path fill="#161F36" fill-rule="nonzero" d="M11.306 9.918c-.028.003-.056-.009-.074-.03-.012-.015-1.13-1.4-2.132-.802-.04.024-.092.011-.116-.029-.012-.019-.015-.042-.01-.064.005-.022.02-.04.039-.052 1.13-.674 2.301.779 2.35.84.02.024.026.057.013.086-.012.029-.039.048-.07.05zM3.616 9.527c-.02.002-.041-.004-.058-.016-.037-.028-.046-.08-.019-.119.046-.063 1.148-1.545 2.346-.958.042.02.06.07.04.113-.02.042-.071.06-.113.04-1.074-.527-2.124.892-2.136.906-.014.02-.036.032-.06.034z" transform="translate(.584 .816) translate(86.561 64.878)"/>
                    </g>
                    <path fill="#EFB892" d="M98.369 83.406c0 .13.389.823.375.956-.498.541-.734.596-1.384.97-.307.193-.593.417-.854.669-.326-.196-1.035-.632-1.166-.891-.034-.299.553-.342.775-.47.09-.053-.072-.543-.1-.9-.04-.525-.147-1.133-.147-1.133s2.048-.615 2.39-.072c.107.18.126.509.11.87z" transform="translate(.584 .816)"/>
                </g>
                <path fill="#FFD33F" fill-rule="nonzero" d="M98.033 60.871c.183 0 .335-.059.456-.177.12-.118.181-.264.181-.436 0-.177-.06-.326-.181-.447s-.273-.182-.456-.182c-.188 0-.344.06-.468.182-.123.12-.185.27-.185.447 0 .172.062.318.185.436.124.118.28.177.468.177zm.597 4.355l-.202-3.677h-.798l-.194 3.677h1.194zm2.322-1.242v-2.42h2.92v2.42h1.048v-5.645h-1.049v2.33h-2.919v-2.33h-1.048v5.645h1.048zm7.41.056c.372 0 .705-.059 1-.177.297-.118.541-.293.735-.524l-.54-.621c-.307.312-.697.468-1.17.468-.37 0-.681-.093-.931-.279-.25-.185-.405-.436-.464-.754h3.379c.01-.129.016-.228.016-.298 0-.44-.093-.83-.278-1.165-.186-.336-.444-.597-.774-.782-.331-.186-.706-.279-1.125-.279-.425 0-.807.095-1.145.283-.339.188-.604.45-.795.786-.19.336-.286.714-.286 1.133 0 .425.098.805.294 1.141.197.336.475.598.835.786.36.188.777.282 1.25.282zm1.065-2.556h-2.443c.048-.317.184-.571.407-.762.223-.19.496-.286.819-.286.328 0 .602.097.822.29.22.194.352.446.395.758zm2.936 2.5v-5.983h-1.008v5.983h1.008zm2.33 0v-5.983h-1.008v5.983h1.008zm3.258.056c.44 0 .836-.094 1.185-.282.35-.188.623-.45.819-.786.196-.336.294-.716.294-1.141 0-.425-.098-.804-.294-1.137-.196-.333-.47-.594-.819-.782-.349-.188-.744-.283-1.185-.283-.435 0-.828.095-1.177.283-.35.188-.623.449-.819.782-.196.333-.294.712-.294 1.137 0 .425.098.805.294 1.141.196.336.47.598.819.786.35.188.742.282 1.177.282zm0-.862c-.37 0-.676-.124-.915-.371-.24-.248-.36-.573-.36-.976s.12-.729.36-.976c.239-.247.544-.37.915-.37s.677.123.92.37c.241.247.362.573.362.976s-.12.728-.363.976c-.242.247-.548.37-.919.37zm4.129-1.065l.201-3.774h-1.193l.193 3.774h.799zm-.395 1.927c.182 0 .334-.06.455-.181s.182-.27.182-.448c0-.177-.06-.325-.182-.443-.12-.118-.273-.177-.455-.177-.188 0-.344.059-.468.177-.124.118-.186.266-.186.443 0 .178.062.327.186.448s.28.181.468.181z"/>
                <path fill="#95C120" fill-rule="nonzero" d="M52.785 61.767c.183 0 .335-.059.456-.177.12-.118.181-.264.181-.436 0-.177-.06-.326-.181-.447s-.273-.182-.456-.182c-.188 0-.344.06-.468.182-.123.12-.185.27-.185.447 0 .172.062.318.185.436.124.118.28.177.468.177zm.597 4.355l-.202-3.677h-.798l-.194 3.677h1.194zm2.322-1.242v-2.42h2.92v2.42h1.048v-5.645h-1.049v2.33h-2.919v-2.33h-1.048v5.645h1.048zm5.895-5.016c.188 0 .343-.06.464-.181.12-.121.181-.27.181-.448 0-.166-.062-.305-.185-.415-.124-.11-.277-.165-.46-.165s-.336.057-.46.173c-.123.116-.185.26-.185.431 0 .172.062.316.185.432.124.115.277.173.46.173zm.5 5.016v-4.306H61.09v4.306h1.008zm2.185-1.87l.202-3.775h-1.194l.194 3.774h.798zm-.395 1.926c.183 0 .335-.06.456-.181.12-.121.181-.27.181-.448 0-.177-.06-.325-.181-.443s-.273-.177-.456-.177c-.188 0-.344.059-.468.177-.123.118-.185.266-.185.443 0 .178.062.327.185.448.124.121.28.181.468.181z"/>
            </g>
        </g>
        <path fill="#F57F00" fill-rule="nonzero" d="M1106.766-383.805l20.72 4.686-16.18 13.763-1.846-7.507c-51 22.24-161.16 121.925-331.274 296.196-72.66 74.434-155.907 162.07-256.022 269.203-75.847 81.165-138.653 148.968-281.562 303.682C93.628 655.332 29.076 725.009-48.722 808.202c-102.697 109.818-187.773 199.216-261.58 274.52-173.404 176.926-282.39 273.598-328.107 286.648l-.09.024c.01 4.663-3.419 8.739-8.167 9.412-5.195.737-10.003-2.877-10.74-8.072-.737-5.195 2.877-10.003 8.072-10.74 4.623-.655 8.939 2.134 10.353 6.416 45.035-13.063 154.003-109.75 326.537-285.787 73.787-75.285 158.848-164.667 261.531-274.47 77.793-83.187 142.341-152.86 289.311-311.97C381.311 339.463 444.12 271.657 519.972 190.487 620.101 83.34 703.362-4.31 776.04-78.763c170.995-175.173 281.34-274.967 332.697-297.056l-1.97-7.986zm-1755.679 1746.77c-3.554.503-6.027 3.793-5.523 7.348.504 3.554 3.794 6.027 7.349 5.523 3.554-.504 6.027-3.794 5.523-7.349-.504-3.554-3.794-6.027-7.349-5.523z"/>
    </g>
</svg>
