<svg xmlns="http://www.w3.org/2000/svg" width="278" height="71" viewBox="0 0 278 71">
    <defs>
        <linearGradient id="prefix__a" x1="49.563%" x2="51.13%" y1="6.293%" y2="81.491%">
            <stop offset=".559%" stop-color="#161F36"/>
            <stop offset="99.44%" stop-color="#8D929E"/>
        </linearGradient>
        <linearGradient id="prefix__b" x1="53.654%" x2="69.18%" y1="50.699%" y2="74.467%">
            <stop offset=".559%" stop-color="#161F36"/>
            <stop offset="98.88%" stop-color="#797D87"/>
        </linearGradient>
        <linearGradient id="prefix__c" x1="46.734%" x2="51.947%" y1="47.533%" y2="57.991%">
            <stop offset="0%" stop-color="#3F2721"/>
            <stop offset="100%" stop-color="#827572"/>
        </linearGradient>
        <linearGradient id="prefix__d" x1="15.453%" x2="76.546%" y1="50.533%" y2="49.804%">
            <stop offset="0%" stop-color="#3F2721"/>
            <stop offset="100%" stop-color="#797D87"/>
        </linearGradient>
        <linearGradient id="prefix__e" x1="15.557%" x2="76.65%" y1="50.465%" y2="49.736%">
            <stop offset="0%" stop-color="#3F2721"/>
            <stop offset="100%" stop-color="#797D87"/>
        </linearGradient>
        <linearGradient id="prefix__f" x1="51.829%" x2="50.532%" y1="43.753%" y2="64.87%">
            <stop offset="0%" stop-color="#FFB233"/>
            <stop offset="99.44%" stop-color="#FFC475"/>
        </linearGradient>
        <linearGradient id="prefix__g" x1="51.661%" x2="50.474%" y1="44.288%" y2="63.399%">
            <stop offset="0%" stop-color="#FFB233"/>
            <stop offset="99.44%" stop-color="#FFC475"/>
        </linearGradient>
    </defs>
    <g fill="none" fill-rule="evenodd">
        <g transform="translate(4 7)">
            <rect width="229" height="55" x="35" y="1" fill="#A546A0" rx="22"/>
            <text fill="#FFF" font-family="Montserrat-SemiBold, Montserrat" font-size="14" font-weight="500">
                <tspan x="97" y="34">Y LA ESCUELA SIGUE</tspan>
            </text>
            <circle cx="54" cy="28" r="28" fill="#6E79E0"/>
            <g transform="translate(.912 3.136)">
                <path fill="#006663" d="M12.848 18.543s-1.378.067-1.942.451c0 0-.474.632-.497.971l1.355.52.745-.79.316-.498v-.654h.023z"/>
                <g fill="#FF514F">
                    <path d="M1.638 0.743L8.976 0.743 8.976 10.656 1.638 10.656z" transform="translate(0 6.237) rotate(-167.109 5.307 5.7)"/>
                    <path d="M0.655 9.709L7.79 11.357 7.18 11.786 0.045 10.138z" transform="translate(0 6.237)"/>
                    <path d="M0.655 9.709L0.045 10.138 2.235 0.474 2.868 0.045z" transform="translate(0 6.237)"/>
                </g>
                <path fill="#E0A277" fill-rule="nonzero" d="M14.609 23.871h-.113c-.294-.045-.542-.18-.7-.429l-5.261-7.27c-.339-.452-.226-1.107.226-1.423.451-.316 1.106-.226 1.422.226l4.584 6.39 6.21-5.284c.428-.36 1.083-.316 1.444.113.361.43.316 1.084-.113 1.445l-7.022 5.984c-.203.158-.429.248-.677.248z"/>
                <path fill="#00938F" d="M21.45 15.675s-6.186 5.396-6.57 5.306c-.474-.09-2.032-2.461-2.032-2.461s-1.152 1.964-2.416 1.445c0 0 2.641 4.087 4.086 4.29 1.468.203 7.203-5.374 7.203-5.374l-.27-3.206z"/>
                <path fill="#E0A277" d="M8.851 13.236s.406 0 .587-.293c.203-.316.136-.632.18-.745.068-.249-.428-.474-.428-.474s-1.671-.384-2.055 0c-.18.18-.18 1.196.248 1.174l1.468.338z"/>
                <path fill="#E0A277" d="M10.025 14.794L9.596 12.401 8.896 12.695 8.083 16.262 8.828 15.946z"/>
                <path fill="#FFF" d="M2.664 6.44L0.497 15.946 7.429 17.707 7.18 17.865 0.203 16.262 2.348 6.643z"/>
                <path fill="#006663" d="M36.285 25.79s-1.942.09-2.078-2.01l1.04-.406.835.407.203.858v1.151z"/>
                <path fill="#E0A277" fill-rule="nonzero" d="M31.408 29.245c-.316 0-.61-.135-.813-.406-.339-.452-.271-1.084.18-1.445l6.21-4.787-7.226-5.261c-.451-.339-.564-.971-.225-1.423.338-.451.97-.564 1.422-.225l8.332 6.073c.27.181.406.497.429.813 0 .316-.136.632-.407.836l-7.293 5.622c-.158.135-.384.203-.61.203z"/>
                <path fill="#009B9B" d="M29.579 14.93s10.657 5.712 10.364 7.428c-.226 1.31-3.658 3.41-3.658 3.41s-.452-1.694-2.078-2.01l2.1-1.422-7.677-4.493-.09-2.168 1.039-.745z"/>
                <g fill="#0D1423">
                    <path d="M7.541.564L4.335 23.257S.61 24.61.158 26.01c-.113.316 0 1.355 0 1.355l1.174.339 5.103-2.349 6.142-22.579L7.54.564zM18.47 2.213l.09 22.263s4.697 1.31 5.261 2.574c.113.248-.406.97-.406.97l-1.039.362-6.367-1.897L13.683 3.14l4.787-.926z" transform="translate(14 30.397)"/>
                    <path d="M18.718.723c-2.1-1.897-6.412 1.625-11.177-.159l-.09 1.83s1.761 1.377 4.042 1.76c2.687.452 6.006-.18 7.022-1.377 0 0 .61-1.67.203-2.054z" transform="translate(14 30.397)"/>
                </g>
                <path fill="#009B9B" d="M32.898 31.684s-3.229 1.332-6.096 1.467c-2.868.136-5.374-1.377-5.374-1.377s-.249-2.235-.226-3.906c.022-1.671.248-3.635.113-4.584-.113-.858-.655-2.122-.994-3.635-.406-1.784.113-3.161.113-3.161.632-.43 1.378-1.287 1.965-1.58 4.38-2.213 7.338-.25 8.309.722 1.084 1.129 2.19 16.054 2.19 16.054z"/>
                <path fill="#E0A277" d="M26.982 14.794s-.52.497-1.106.926c-.203.136-.362-.429-.587-.316-.045.023-.113.068-.18.136-.227.248-.746.7-.814.767-.022.023-.022 0-.045-.022-.023-.046-.068-.136-.09-.249l.022-.226c-.067-.248 0-.248-.067-.383 0 0-.023-.068.022-.09-.045-.046-.068-.068-.09-.068-.09-.023-.158.045-.203 0-.023-.023-.046-.046-.068-.113-.113-.384-.158-.768-.136-.858v-.181c0-.023-.067-.18-.067-.203 0-.136.045-.18.045-.339v-.203-.09c0-.068 0-.136-.023-.204l-.09-1.354.023-.023.925-.361 2.53-.994v4.448z"/>
                <path fill="#E0A277" d="M29.33 7.253c-.022 2.01-.97 2.326-1.851 2.303h-.136v.113c0 .09-.022.18-.022.293-.045.407-.18.79-.361 1.13-.633 1.241-1.942 2.054-3.387 2.009h-.113c-2.032-.136-3.545-1.874-3.432-3.884l.022-.496.045-.587V8.11l.046-.835v-.023l.022-.474.09-1.423c.023-.225.046-.451.113-.677.09-.339.204-.632.384-.926.678-1.174 1.965-1.92 3.41-1.829 2.032.136 3.567 1.874 3.432 3.906l-.023.317c.294-.204.949-.43 1.378-.068.225.18.383.542.383 1.174z"/>
                <path fill="#007774" d="M27.727 14.298c.023-.249-.203-.633-.338-.79-.181-.204-.384-.136-.384-.136-1.016 1.851-2.326 1.648-2.032 1.942.587.61.587 1.467.587 1.467.474-.09 2.1-1.941 2.167-2.483z"/>
                <path fill="#007774" d="M24.273 16.217l-.181-1.061-.339-.113.497 1.558.926-1.13s.022-.315-.136-.315c-.203.022-.767 1.06-.767 1.06z"/>
                <path fill="#007774" d="M23.392 16.736c-.655-.497-.79-1.964-.79-2.235-.023-.248.384-.7.587-.926.203-.226.406-.18.406-.18s0 .203.023.654c.022.452.474 1.084.474 1.084l-.7 1.603zM24.047 15.9c-.09 1.017.18 5.171.564 9.936.158 1.987.836 7.338.836 7.338l.361-.023s-.723-4.81-1.039-7.993l-.135-1.422c-.023-.362-.068-.7-.09-1.039-.249-3.319-.226-6.3-.226-6.3l-.271-.496z"/>
                <path fill="#161F36" d="M22.286 22.02c.09-.158.113-.158 0-.045v.045z"/>
                <path fill="#161F36" fill-rule="nonzero" d="M22.489 9.24c-.045 0-.813-.248-.745-.632.113-.655.903-2.055.948-2.123.023-.022.045-.022.068-.022.022.022.022.045.022.067 0 .023-.835 1.445-.948 2.078-.045.27.474.474.655.542.022 0 .045.022.022.045.023.022 0 .045-.022.045z"/>
                <path fill="url(#prefix__a)" d="M20.276 3.144c-1.942-.881-.09 4.65-.113 4.086-.068-1.354 1.355-3.545.113-4.086z"/>
                <path fill="url(#prefix__b)" d="M22.286 1.202c-5.42-3.094-4.223 7.406 3.522 2.687 0 0 .677.79 1.106 1.31.158.45-.045 1.648-.135 2.415-.045.339.745.271.858.249.113-.023 1.016-1.31 1.016-1.31 1.287-1.422.835-4.99-.903-3.32h-.023c1.174-2.19-2.89-3.318-5.012-3.228-1.13 0-1.558.429-.43 1.197z"/>
                <path fill="#161F36" d="M21.97 6.96c0-.226-.113-.384-.249-.384-.135 0-.27.158-.27.36 0 .227.112.385.248.385.135 0 .27-.158.27-.362zM25.244 6.937c0-.226-.113-.384-.249-.384-.135 0-.27.158-.27.361 0 .226.112.384.248.384.158 0 .27-.158.27-.361z"/>
                <path fill="#161F36" fill-rule="nonzero" d="M25.47 6.079c-.023 0-.046 0-.068-.023-.475-.542-1.175-.067-1.22-.045-.045.023-.09.023-.113-.022-.022-.046-.022-.09.023-.113 0 0 .835-.565 1.422.09.023.023.023.09 0 .113h-.045zM21.857 6.214c-.023 0-.045 0-.068-.022-.474-.542-1.174-.068-1.22-.045-.045.022-.09.022-.112-.023-.023-.045-.023-.09.022-.113 0 0 .836-.564 1.423.09.022.023.022.09 0 .113h-.045z"/>
                <path fill="#161F36" d="M27.592 7.84l-.226 1.716-.045.406c-.023.452-.18.813-.407 1.197-1.151 1.942-3.341 2.01-3.341 1.942h-.113c-2.032-.136-3.545-1.874-3.432-3.884l.022-.496c0 .383 0 .767.249.812.316.046.384-.564.903-.632.384-.045.88.407 1.264.43 1.016.044 1.445-.61 2.032-.588.407.023 1.22.678 1.558.587.452-.135.723-1.648.723-1.648l.813.158z" opacity=".14"/>
                <g>
                    <path fill="#DB3945" d="M.113 1.242c.045-.43 1.061-.226 1.626-.339.88-.158 2.077-1.197 2.37-.474.271.655-1.016 1.693-2.01 1.806-1.015.158-2.076-.27-1.986-.993z" transform="translate(21.224 9.398)"/>
                    <path fill="#FF514F" d="M2.777 1.242c.61-.203 1.107-.271 1.265-.294-.249.61-1.197 1.242-1.987 1.332-.226.023-.474.023-.7 0 .135-.496.767-.835 1.422-1.038z" transform="translate(21.224 9.398)"/>
                </g>
                <path fill="#9297A0" d="M26.869 6.801L28.179 7.163 28.585 6.598 26.937 6.327z" opacity=".6"/>
                <path fill="#9297A0" d="M26.982 5.785L28.766 6.282 29.105 5.718 26.937 5.266z" opacity=".85"/>
                <g>
                    <g>
                        <path fill="#CC2E2E" d="M9.754 12.057s1.332.068 1.874.452c0 0 .452.61.474.948l-1.31.497-.722-.768-.316-.496v-.633z" transform="translate(66.834 .818) translate(15.58 4.064)"/>
                        <g fill="#009B9B">
                            <path d="M1.083 0.837L8.196 0.837 8.196 10.456 1.083 10.456z" transform="translate(66.834 .818) translate(15.58 4.064) translate(12.419) rotate(-12.891 4.64 5.647)"/>
                            <path d="M9.19 9.551L2.235 11.132 2.845 11.538 9.777 9.957z" transform="translate(66.834 .818) translate(15.58 4.064) translate(12.419)"/>
                            <path d="M9.19 9.551L9.777 9.957 7.632 0.587 7.022 0.181z" transform="translate(66.834 .818) translate(15.58 4.064) translate(12.419)"/>
                        </g>
                        <path fill="#E0A277" fill-rule="nonzero" d="M8.038 17.228c-.226 0-.474-.09-.655-.226L.52 11.177c-.429-.362-.474-.994-.113-1.4.362-.407.994-.474 1.4-.113l6.029 5.125 4.448-6.186c.316-.452.948-.542 1.377-.226.452.316.542.948.226 1.377l-5.08 7.068c-.158.225-.407.383-.677.406h-.09z" transform="translate(66.834 .818) translate(15.58 4.064)"/>
                        <path fill="#F74B4B" d="M1.4 9.28s6.006 5.238 6.39 5.148c.474-.09 1.964-2.393 1.964-2.393s1.13 1.896 2.348 1.4c0 0-2.551 3.974-3.973 4.154-1.423.18-7-5.216-7-5.216l.27-3.093z" transform="translate(66.834 .818) translate(15.58 4.064)"/>
                        <path fill="#E0A277" d="M13.638 6.91s-.384 0-.565-.294c-.203-.294-.135-.61-.158-.723-.045-.248.407-.451.407-.451s1.625-.384 1.987 0c.18.18.18 1.174-.249 1.151l-1.422.316z" transform="translate(66.834 .818) translate(15.58 4.064)"/>
                        <path fill="#E0A277" d="M12.509 8.422L12.915 6.096 13.57 6.39 14.36 9.845 13.66 9.551z" transform="translate(66.834 .818) translate(15.58 4.064)"/>
                        <path fill="#FFF" d="M19.644 0.316L21.744 9.551 15.015 11.244 15.264 11.402 22.015 9.845 19.937 0.519z" transform="translate(66.834 .818) translate(15.58 4.064)"/>
                    </g>
                    <path fill="#CC2E2E" d="M3.838 23.798s1.875.09 2.033-1.941l-1.016-.384-.813.384-.204.835v1.106z" transform="translate(66.834 .818)"/>
                    <path fill="#E0A277" fill-rule="nonzero" d="M8.558 27.14c-.204 0-.43-.068-.61-.203l-7.09-5.464c-.248-.18-.384-.497-.384-.79 0-.317.158-.61.407-.79l8.106-5.894c.451-.316 1.06-.226 1.4.226.316.451.225 1.061-.226 1.4l-7 5.103 6.029 4.651c.429.339.52.97.18 1.4-.225.226-.519.361-.812.361z" transform="translate(66.834 .818)"/>
                    <path fill="#FF514F" d="M10.341 13.254S0 18.808.294 20.479c.225 1.287 3.544 3.32 3.544 3.32s.43-1.649 2.033-1.942l-2.055-1.378 7.451-4.357.09-2.123-1.016-.745zM12.125 12.825c.18-.023.361-.023.565-.023h.451c1.016.023 2.032.158 2.845.294-.158.316-.813 1.603-1.31 1.67-.745.136-2.348-1.715-2.551-1.941z" transform="translate(66.834 .818)"/>
                    <path fill="#FF514F" d="M17.567 17.25c-.023.136-.046.249-.09.384-.565 1.784-1.49 4.155-1.49 4.155.225 4.99.044 8.58.044 8.58s-.022 0-.045.023c-.474.203-3.703 1.558-4.9 1.603-1.467.045-5.486-1.378-6.096-1.603-.045-.023-.068-.023-.068-.023.226-1.942.678-4.042 1.242-6.096.632-2.303 1.355-4.516 2.032-6.323.43-1.174.813-2.167 1.107-2.912.36-.926.61-1.468.61-1.468.044-.022.09-.068.157-.113 0 0 .023 0 .023-.022.09-.046.18-.113.316-.158.294-.136.655-.271.948-.34.181-.022.362-.044.565-.067.18.339 1.467 2.71 2.958 2.394.09-.023.158-.023.225-.046.271-.293 1.31-1.4 1.355-2.01.068.023.158.023.226.046.136.023.271.068.384.113.022 0 .045.022.068.045.158.203.36.903.474 1.739.022.677.068 1.467-.045 2.1z" transform="translate(66.834 .818)"/>
                    <path fill="#00A2AA" d="M16.596 13.231c-.09-.022-.158-.022-.226-.045-.113-.022-.248-.045-.361-.067-.836-.136-1.852-.271-2.845-.294h-.249.452c.542.023 1.061.068 1.58.113.384.045.746.09 1.084.158.113.023.249.045.361.068.068 0 .136.022.204.045-.023-.023 0 0 0 .022z" transform="translate(66.834 .818)"/>
                    <g>
                        <path fill="#3F2721" d="M4.02 6.164c.09.136.135.248.135.294.022.09-.294 1.31-.34 1.603-.067.338-.044 1.377-.044 1.377-.452.09-.88-.045-1.423-.226-.158-.045-.451.994-.632.926-.79-.316-1.422-.722-1.422-.722-.7-3.004.88-6.255 1.016-6.526v-.022c.067-.158.135-.271.203-.384.564-.633 2.145-.88 3.454 0-.767 1.219-.948 2.754-.948 3.68z" transform="translate(66.834 .818) translate(5.193)"/>
                        <path fill="#DB3945" d="M5.148 3.251l-.542 3.071v.023L4.29 7.45l-.564-.677s-.43-.362-.384-1.852c.022-.722.88-2.551 1.603-2.483.27.18-.023.541.203.812z" transform="translate(66.834 .818) translate(5.193)"/>
                        <path fill="#3F2721" d="M14.428 5.148s.474-.18.497-.79c.022-.271-.203-.745-.339-1.107C14.022 1.693 10.838-.384 8.13.226c-1.942.429-5.442 3.68-4.38 6.164C5.576 10.635 7.315 9.8 7.315 9.8l5.644-3.5 1.468-1.152z" transform="translate(66.834 .818) translate(5.193)"/>
                        <g>
                            <path fill="#E0A277" d="M6.142 10.657h-.746c-2.1-.18-3.025-1.783-3.319-3.5-.158-.857-.158-1.715-.135-2.325l.022-.406.023-.226.045-.858C2.168 1.468 3.974.022 6.074.135c1.964.09 3.522 1.513 3.612 3.23v.338l-.09 1.49c-.09 1.761.045 5.329-3.454 5.464z" transform="translate(66.834 .818) translate(5.193) translate(4.742 1.806)"/>
                            <path fill="#E0A277" d="M2.348 7.09c-.045 0-.158.022-.27.045-.136.023-.317.045-.385.045C.587 7.045-.045 5.96.023 5.306c.09-.722.383-.993.722-1.151.452-.181.79-.113 1.174.022.023 0 .023 0 .045.023.316.067.497.226.61.429.158.316.136.745.09 1.196-.022.633.407 1.22-.316 1.265z" transform="translate(66.834 .818) translate(5.193) translate(4.742 1.806)"/>
                            <path fill="#2B3B5E" d="M1.603 6.819c0-.068.068-.113.136-.113.067 0 .112.068.112.135 0 .068-.067.113-.135.113-.068-.022-.113-.067-.113-.135z" transform="translate(66.834 .818) translate(5.193) translate(4.742 1.806)"/>
                            <path fill="#161F36" fill-rule="nonzero" d="M7.135 7.09c-.023 0-.023-.023-.023-.045.023-.204 0-.339-.112-.43-.294-.248-.971-.044-.971-.044-.023 0-.023 0-.046-.023 0-.023 0-.023.023-.045.023 0 .723-.226 1.039.045.113.113.158.27.135.497 0 .022-.022.045-.045.045z" transform="translate(66.834 .818) translate(5.193) translate(4.742 1.806)"/>
                            <g>
                                <path fill="#DB3945" d="M3.364 1.016C3.32.677 2.53.836 2.1.768 1.4.632.474-.158.248.406c-.225.52.79 1.333 1.58 1.423.791.09 1.604-.248 1.536-.813z" transform="translate(66.834 .818) translate(5.193) translate(4.742 1.806) translate(4.064 7.677)"/>
                                <path fill="#FF514F" d="M1.264 1.016C.79.858.406.79.271.79c.203.474.926.971 1.558 1.039.18.022.361.022.542 0-.09-.384-.587-.655-1.107-.813z" transform="translate(66.834 .818) translate(5.193) translate(4.742 1.806) translate(4.064 7.677)"/>
                            </g>
                            <path fill="#161F36" d="M4.742 3.229c-.226 0-.497.113-.723.248-.203.113-.384.271-.361.271.045.023.158-.09.384-.203.293-.158.654-.248.925-.203.113.022.226.067.34.135.022.023.067.023.09 0 .022-.022.022-.045 0-.068-.113-.09-.249-.135-.407-.158-.09-.022-.18-.022-.248-.022zM8.31 3.568c.202.045.406.18.586.36.158.159.294.317.271.317-.045 0-.113-.113-.293-.248-.226-.204-.52-.362-.768-.34-.113 0-.226.023-.316.091-.023.023-.068.023-.09-.022-.023-.023-.023-.046.022-.068.113-.068.248-.09.384-.09.068-.023.135-.023.203 0z" transform="translate(66.834 .818) translate(5.193) translate(4.742 1.806)"/>
                            <g fill="#161F36">
                                <path fill-rule="nonzero" d="M4.584 1.061C4.38.926 4.087.993 4.087.993c-.023 0-.023 0-.023-.022 0-.023 0-.023.023-.023.022 0 .316-.067.52.068 0 0 0 .023-.023.045.022 0 0 0 0 0zM.948.79s-.022 0 0 0C.723.7.452.768.452.768c-.023 0-.023 0-.023-.023 0-.022 0-.022.023-.022.022 0 .293-.068.519.022.022 0 .022.023.022.023C.971.79.948.79.948.79z" transform="translate(66.834 .818) translate(5.193) translate(4.742 1.806) translate(3.838 4.742)"/>
                                <path d="M3.816.632c.022-.226.113-.361.27-.361.159 0 .25.18.25.361-.023.226-.114.361-.272.361-.158 0-.27-.158-.248-.36zM.18.406C.204.181.295.046.453.046.61.045.7.225.7.405.677.632.587.768.429.768.271.768.181.61.181.406z" transform="translate(66.834 .818) translate(5.193) translate(4.742 1.806) translate(3.838 4.742)"/>
                            </g>
                        </g>
                        <path fill="url(#prefix__c)" d="M14.428 5.148c-.361-2.642-2.71-1.58-2.71-1.58-1.241-.475-2.212-.475-2.89-.046-.496.316-.406 1.265-.7 1.784-.248.474-.61.745-.812 1.106-.045.09-.068.181-.09.271-.068.34 0 .858-.046 1.062-.045.203-.248.09-.248.09l-.226-1.626-.045-.226c-.361-.112-.7-.225-1.174-.022-.497.226.361-1.377.384-1.377l.429-.226c.135-1.874 2.348-2.868 4.47-2.755 2.01.113 3.59 1.829 3.658 3.545z" transform="translate(66.834 .818) translate(5.193)"/>
                    </g>
                    <path fill="#E0A277" d="M16.031 13.05l-.022.023s0 .023-.023.046c-.158.316-.813 1.603-1.31 1.67-.767.09-2.37-1.738-2.551-1.964 0-.023-.023-.023-.023-.023h1.287l.294-.903.09-.248.113-.339 1.378.384-.09.339-.114.361-.158.52 1.13.135z" transform="translate(66.834 .818)"/>
                    <g fill="#0D1423">
                        <path d="M15.94.474l3.523 22.963s3.906 1.378 4.358 2.732c.113.316-.293 1.265-.293 1.265l-1.13.338-5.102-2.822-6.232-22.33L15.94.473zM5.329 2.1l-.09 21.608S.676 24.973.134 26.214c-.112.226.384.949.384.949l.994.361L7.7 25.673l2.257-22.67L5.33 2.1z" transform="translate(66.834 .818) translate(0 29.353)"/>
                        <path d="M5.103.655c2.055-1.83 6.232 1.58 10.838-.158l.09 1.783s-1.716 1.355-3.929 1.717c-2.596.429-5.825-.181-6.818-1.355.022-.023-.588-1.626-.181-1.987z" transform="translate(66.834 .818) translate(0 29.353)"/>
                    </g>
                    <path fill="url(#prefix__d)" d="M12.96 5.893s-2.28-.293-2.957-.068c-.068.023-.113.046-.158.068-.384.339 0-.384 0-.384s3.183-.632 3.454-.248l-.339.632z" opacity=".2" transform="translate(66.834 .818)"/>
                    <path fill="url(#prefix__e)" d="M13.344 4.832s-2.28-.294-2.958-.068c-.067.023-.112.045-.158.068-.383.339 0-.384 0-.384s3.184-.632 3.455-.248l-.339.632z" opacity=".2" transform="translate(66.834 .818)"/>
                </g>
                <g>
                    <path fill="#FFB233" d="M9.032 13.006l.045-.09c.293-.136.632-.25.97-.34.227-.067.452-.112.7-.157 0 0 .204.022.52.067.316.045.723.113 1.197.204-.068.067-1.287 1.467-1.874 1.467-.475.023-1.558-1.151-1.558-1.151z" transform="translate(41.094 6.237)"/>
                    <path fill="#FFB233" d="M17.34 27.93c-.112.204-.293.407-.473.588-1.016.993-2.958 1.806-4.448 2.1-.317.067-.633.09-.881.112-.429.023-1.039-.045-1.67-.18-1.333-.271-2.868-.813-3.794-1.58-.384-.317-.655-.656-.768-1.04-.09-.293-.135-.654-.18-1.038-.09-.836-.068-1.83 0-2.913.067-1.016.18-2.1.338-3.138.113-.858.249-1.694.384-2.462.339-2.032.7-3.59.745-3.793v-.022s.858-.858 2.19-1.49c0 0 .903 1.738 2.01 1.512 0 0 1.761-1.106 2.1-1.784.745.158 1.58.384 2.28.7.023 0 .023.023.045.023h.023v.023c.045.18.474 2.032.948 4.38.113.564.226 1.129.339 1.738.158.813.316 1.649.452 2.462.293 1.783.541 3.454.564 4.583-.045.565-.09 1.016-.203 1.22z" transform="translate(41.094 6.237)"/>
                    <path fill="#C18963" d="M12.464 12.69c-.068.067-1.287 1.467-1.874 1.467-.497 0-1.58-1.151-1.58-1.151l.044-.09.249-.633.135-.339h2.326l.158.158.022.023.52.565z" transform="translate(41.094 6.237)"/>
                    <path fill="#E0E0E0" d="M5.17 6.412s-.88-1.738-.135-2.506c1.016-1.061 1.536-.745 1.536-.745s-.294-1.58.564-2.168C7.812.52 9.009.248 10.319.181c.293-.023.7.338.993.36.316 0 .497-.338.813-.293.248.023.474.046.723.09.158.023.316.046.474.091 1.693.339 3.093 1.061 3.364 2.122.203.813-1.603 2.642-1.603 2.642s1.039 1.513.903 2.078c-.135.541-1.445 1.467-1.445 1.467s.474 2.461.045 3.003c-.361.452-2.687.361-2.687.361l-2.167-.36s-2.258.564-2.98.293c-.385-.158-.723-2.01-.723-2.01s-1.445-.52-1.603-1.016c-.452-1.355.745-2.597.745-2.597z" transform="translate(41.094 6.237)"/>
                    <g transform="translate(41.094 6.237) translate(5.193 2.71)">
                        <path fill="#CF976D" d="M5.532 9.71c-.18 0-.384.022-.587 0h-.09C2.958 9.573 2.077 8.15 1.76 6.592c-.158-.79-.18-1.558-.158-2.1l.023-.361v-.203l.022-.79C1.738 1.445 3.342.09 5.261.159c1.784.044 3.229 1.309 3.32 2.844v.316l-.069 1.355c-.022 1.626.181 4.854-2.98 5.035z"/>
                        <g>
                            <path fill="#DB3945" d="M2.913.723C2.89.474 2.37.542 1.987.542c-.09 0-.158.09-.226.068-.09-.023-.18-.136-.27-.158C.902.248.247-.226.067.226-.112.7.813 1.422 1.513 1.49c.722.045 1.467-.248 1.4-.767z" transform="translate(3.613 7)"/>
                            <path fill="#FF514F" d="M1.016.745C.587.61.226.565.113.565c.18.428.858.88 1.422.903.158.022.34 0 .497-.023-.09-.316-.564-.564-1.016-.7z" transform="translate(3.613 7)"/>
                        </g>
                        <path fill="#161F36" d="M3.884 3.003c-.204.023-.452.113-.655.226-.18.113-.339.248-.316.248.045 0 .135-.068.338-.18.271-.136.587-.249.836-.204.113.023.226.046.316.113.023.023.068.023.09 0 .023 0 .023-.045 0-.067-.113-.068-.248-.113-.384-.136h-.225zM7.112 3.229c.181.045.384.158.542.316.136.135.271.27.249.293-.023 0-.113-.09-.271-.225-.203-.181-.474-.316-.7-.294-.09 0-.203.023-.294.09-.022.023-.067.023-.067 0-.023-.022-.023-.045 0-.067.112-.068.225-.09.338-.09.09-.046.158-.023.203-.023z"/>
                        <path fill="#161F36" fill-rule="nonzero" d="M3.838 5.08s-.022 0 0 0c-.316-.203-.745-.022-.745-.022-.022 0-.022 0-.022-.023 0-.022 0-.022.022-.022.023 0 .452-.204.79.022-.022 0-.022.023-.045.045 0-.022 0 0 0 0z"/>
                        <path fill="#161F36" d="M6.796 4.764c0-.203.113-.338.226-.338.136 0 .226.158.226.316 0 .203-.113.338-.226.338-.135 0-.248-.135-.226-.316zM3.635 4.742c0-.204.113-.34.226-.34.136 0 .226.159.226.317 0 .203-.113.339-.226.339-.113.022-.226-.136-.226-.316z"/>
                        <path fill="#CF976D" d="M8.332 7.112c.948-.09 1.377-.541 1.58-1.31.18-.744.023-1.173-.203-1.376-.587-.633-1.4-.113-1.468.09-.112.316-.09.79-.067 1.242.045.632-.384 1.242.158 1.354zM1.739 7.112C.79 7.022.36 6.571.159 5.802-.024 5.059.134 4.63.36 4.427c.587-.633 1.4-.113 1.468.09.113.316.09.79.068 1.242-.023.632.406 1.242-.158 1.354z"/>
                        <path fill="#161F36" fill-rule="nonzero" d="M5.938 7.09c-.338 0-.835-.158-.858-.158-.022 0-.022-.023-.022-.045 0-.023.022-.023.045-.023.226.068.88.248 1.061.113.136-.113.226-.248.248-.406.068-.633-.632-1.49-.654-1.513v-.045c0-.023.022 0 .045 0 .022.045.745.903.655 1.558-.023.18-.113.338-.271.451-.045.045-.136.068-.249.068z"/>
                        <path fill="#CF976D" fill-rule="nonzero" d="M4.47 9.641s.859.813 1.875-.045l-.474-.339-.904.159-.496.225z"/>
                        <path fill="#161F36" fill-rule="nonzero" d="M7.654 5.17s-.022 0 0 0c-.316-.27-.745-.022-.745-.022h-.022v-.023s.451-.27.79.023c0 0 0 .023-.023.023z"/>
                        <circle cx="1.355" cy="6.525" r="1" fill="#FFF"/>
                        <circle cx="8.716" cy="6.683" r="1" fill="#FFF"/>
                    </g>
                    <path fill="#E0E0E0" d="M6.774 6.954s.497.926.474 1.558c-.045.655.045-3.657.903-4.38.361-.294 1.016-.474 1.739-.542.248-.022.632.407.88.407.271 0 .384-.407.632-.384.61.09 1.152.248 1.468.496.723.565.858 3.568.858 3.568l.113-.903.474-3.071-1.174-.993-2.597-.43-2.01-.022-1.173 1.061-.565 1.287-.203.79.18 1.558z" transform="translate(41.094 6.237)"/>
                    <g opacity=".47" transform="translate(41.094 6.237) translate(9.483 7.677)">
                        <circle cx=".519" cy=".587" r="1" fill="#7FE2DF"/>
                        <path fill="#686868" fill-rule="nonzero" d="M.523 1.09c-.273 0-.5-.227-.5-.5 0-.272.227-.5.5-.5.272 0 .5.228.5.5 0 .273-.228.5-.5.5zm0-.977c-.25 0-.455.205-.455.455s.205.454.455.454S.977.818.977.568.773.113.523.113z"/>
                    </g>
                    <g opacity=".46" transform="translate(41.094 6.237) translate(11.29 7.677)">
                        <circle cx=".61" cy=".587" r="1" fill="#7FE2DF"/>
                        <path fill="#686868" fill-rule="nonzero" d="M.613 1.09c-.273 0-.5-.227-.5-.5 0-.272.227-.5.5-.5s.5.228.5.5c0 .273-.205.5-.5.5zm0-.977c-.25 0-.455.205-.455.455s.205.454.455.454.454-.204.454-.454C1.09.318.886.113.613.113z"/>
                    </g>
                    <path fill="#686868" fill-rule="nonzero" d="M10.454 8.06l-.045-.022s.203-.27.52-.293c.203-.023.406.045.609.203l-.023.045c-.18-.158-.383-.203-.587-.18-.27 0-.474.248-.474.248z" transform="translate(41.094 6.237)"/>
                    <g>
                        <g>
                            <g fill="#202C92">
                                <path d="M0.883 0.724L6.573 0.724 6.573 8.423 0.883 8.423z" transform="translate(41.094 6.237) translate(0 14.45) translate(7.451) rotate(-12.891 3.728 4.574)"/>
                                <path d="M7.361 7.677L1.806 8.941 2.28 9.28 7.835 8.016z" transform="translate(41.094 6.237) translate(0 14.45) translate(7.451)"/>
                                <path d="M7.361 7.677L7.835 8.016 6.119 0.519 5.645 0.181z" transform="translate(41.094 6.237) translate(0 14.45) translate(7.451)"/>
                            </g>
                            <path fill="#FFF" d="M5.803 0.294L7.474 7.677 2.1 9.032 2.28 9.167 7.7 7.925 6.029 0.452z" transform="translate(41.094 6.237) translate(0 14.45) translate(7.451)"/>
                        </g>
                        <g fill="#CF976D">
                            <path d="M.135 1.851l1.581-.767S3.139.248 3.545.294c.135.022.384.158.429.293.135.361-.113 1.174-.18 1.535-.046.204-.25.813-.25.813l-.247.271-1.49.271-1.333.43L.135 1.85z" transform="translate(41.094 6.237) translate(0 14.45) translate(9.032 4.742)"/>
                            <path d="M.203 1.829c.023 0 .068-.52.632-.813.587-.316.34-.429.362-.61.022-.09.225-.203.316-.203.09 0 .293.09.338.18.046.069 0 .317-.045.407-.09.226-.496.813-.496.813L.203 1.83z" transform="translate(41.094 6.237) translate(0 14.45) translate(9.032 4.742)"/>
                        </g>
                        <path fill="url(#prefix__f)" d="M6.57.113S-.293 5.825.18 7.54c.294 1.062 4.426 3.297 9.71.949 0 0 .248-.678.09-1.671-.113-.79-1.061-1.061-1.061-1.061s-5.735 1.377-5.69.316c.022-.678 3.5-2.687 3.5-2.687L6.57.113z" transform="translate(41.094 6.237) translate(0 14.45)"/>
                    </g>
                    <g>
                        <g fill="#CF976D">
                            <path d="M3.59 2.642l-1.264-1.22S1.219.181.836.112C.7.09.428.159.338.249.09.542.09 1.4.023 1.761 0 1.964 0 2.62 0 2.62l.135.339s.813.677 1.13.858c.316.203 1.332.655 1.332.655l.993-1.83z" transform="translate(41.094 6.237) translate(8.806 13.322) translate(0 1.58)"/>
                            <path d="M3.522 2.597c-.022-.023.113-.497-.338-.971-.452-.474-.181-.52-.158-.7 0-.09-.158-.249-.226-.294-.09-.045-.316 0-.384.068-.045.045-.09.293-.09.384.022.248.225.926.225.926l.971.587z" transform="translate(41.094 6.237) translate(8.806 13.322) translate(0 1.58)"/>
                        </g>
                        <path fill="url(#prefix__g)" d="M6.322.135s6.164 6.458 5.487 8.106c-.407 1.016-4.47 1.22-9.438-1.738 0 0-.18-.7.09-1.671.203-.768 1.174-.926 1.174-.926s5.239 3.568 5.329 2.506c.068-.677-3.161-3.07-3.161-3.07l.52-3.207z" transform="translate(41.094 6.237) translate(8.806 13.322)"/>
                    </g>
                    <g fill="#000">
                        <path d="M16.167 1.513l.587 16.889s4.087.835 4.335 2.1c.045.293-.406 1.106-.406 1.106l-1.062.158-4.99-2.28-3.07-16.641 4.606-1.332zM5.08 2.258L4.764 17.68S.632 18.83.135 19.937c-.09.204.362.858.362.858l.903.317 5.622-1.671L9.325 3.048l-4.245-.79z" transform="translate(41.094 6.237) translate(.677 26.643)"/>
                        <path d="M4.629.203c3.59 1.558 7.022 1.761 12.215-.18 0 0 .294 1.535.113 1.987-.7 1.67-2.077 1.874-4.561 2.28-2.935.474-6.66-.406-7.519-1.874-.316-.474-.813-2.461-.248-2.213z" transform="translate(41.094 6.237) translate(.677 26.643)"/>
                    </g>
                </g>
                <path fill="#E0E0E0" d="M53.942 19.017c-.339.677-2.1 1.783-2.1 1.783-1.107.226-2.01-1.512-2.01-1.512.09-.045.204-.09.316-.136l-.045.09s1.084 1.175 1.58 1.152c.588 0 1.807-1.4 1.875-1.468.113.023.248.068.384.09zM83.204 14.004c-.045.61-1.06 1.716-1.354 2.01-.068.022-.136.022-.226.045-1.49.316-2.777-2.055-2.958-2.394.09 0 .18-.022.293-.022.204.226 1.784 2.055 2.552 1.964.497-.067 1.151-1.354 1.31-1.67.135.022.27.045.383.067z"/>
                <circle cx="92.191" cy="18.339" r="1" fill="#E0E0E0"/>
            </g>
        </g>
    </g>
</svg>
