<svg xmlns="http://www.w3.org/2000/svg" width="260" height="71" viewBox="0 0 260 71">
    <g fill="none" fill-rule="evenodd">
        <g>
            <g transform="translate(-18 -544) translate(27 551)">
                <rect width="229" height="55" x="12" y="1" fill="#BC0F6A" rx="22"/>
                <text fill="#FFF" font-family="Montserrat-SemiBold, Montserrat" font-size="18" font-weight="500">
                    <tspan x="74" y="24">CINE Y </tspan> <tspan x="74" y="46">TEATRO</tspan>
                </text>
                <g fill-rule="nonzero">
                    <g>
                        <path fill="#A546A0" d="M28 0c15.464 0 28 12.536 28 28S43.464 56 28 56 0 43.464 0 28 12.536 0 28 0z" transform="translate(3)"/>
                        <path fill="#EFC84A" d="M33.087 39.696h5.9c0-.978-.778-1.772-1.739-1.772-.332 0-.64.1-.904.265-.188-1.155-1.17-2.037-2.356-2.037-.515 0-.99.167-1.38.45.45.502.728 1.176.728 1.919 0 .42-.09.817-.249 1.175z" transform="translate(3)"/>
                        <path fill="#EFCB58" d="M23.747 36.496c-.445-.218-.944-.344-1.474-.344-1.338 0-2.49.784-3.023 1.914-.239-.087-.494-.142-.764-.142-1.077 0-1.976.76-2.182 1.772h4.753c.484-1.36 1.448-2.493 2.69-3.2z" transform="translate(3)"/>
                        <path fill="#F4D985" d="M20.911 39.696h4.543c.053-1.333 1.146-2.399 2.49-2.399.1 0 .197.008.293.019.195-.39.48-.725.826-.982-.762-.344-1.61-.537-2.505-.537-1.08 0-2.093.281-2.968.77-1.237.691-2.197 1.8-2.679 3.13z" transform="translate(3)"/>
                        <path fill="#F8E5AB" d="M28.238 37.316c-.094-.011-.19-.019-.286-.019-1.313 0-2.381 1.066-2.433 2.4h7.55c.157-.35.247-.74.247-1.15 0-.727-.277-1.386-.726-1.877-.49-.536-1.184-.873-1.956-.873-.595 0-1.144.2-1.589.537-.338.257-.616.593-.807.982z" transform="translate(3)"/>
                        <g fill="#DF5A48">
                            <path d="M20.982 0v9.757c.778.488 1.377 1.051 1.749 1.67V0h-1.749zM24.48 0v12.048c.593-.265 1.176-.55 1.748-.855V0h-1.749zM17.485 0v8.372c.623.147 1.208.326 1.749.53V0h-1.749zM0 0v11.193c.571.304 1.154.59 1.748.855V0H0zM5.246 0H3.497v11.426c.372-.618.97-1.181 1.748-1.669V0zM8.743 0H6.994v8.903c.541-.206 1.126-.384 1.749-.531V0zM15.737 0h-1.749v7.907c.6.025 1.185.074 1.749.148V0zM12.24 0H10.49v8.055c.563-.074 1.148-.123 1.749-.148V0z" transform="translate(3) translate(14.886 41.468)"/>
                        </g>
                        <path fill="#EBEEEE" d="M33.004 39.696H13.113v11.821c.571.355 1.155.69 1.752 1.005v-11.09h1.752V53.37c.714.315 1.445.601 2.19.858.014-2.272 4.124-4.112 9.193-4.112s9.179 1.84 9.194 4.112c.744-.256 1.475-.543 2.19-.858V41.433h1.75v11.09c.598-.315 1.182-.65 1.752-1.006V39.696h-9.882zM18.368 52.753v-11.32h1.751V51.1c-.779.482-1.379 1.041-1.751 1.653zm3.502-2.5v-8.82h1.752v8.294c-.624.146-1.21.323-1.752.526zm3.503-.84v-7.98h1.751v7.834c-.601.024-1.187.073-1.75.146zm3.503-.146v-7.834h1.751v7.98c-.564-.073-1.15-.122-1.751-.146zm3.502.46v-8.294h1.752v8.82c-.542-.203-1.128-.38-1.752-.526zm3.503 1.373v-9.667h1.751v11.32c-.372-.612-.972-1.17-1.751-1.653z" transform="translate(3)"/>
                        <path fill="#EFC84A" d="M28 50.33c-5.08 0-9.2 1.848-9.215 4.13C21.672 55.458 24.772 56 28 56c3.228 0 6.328-.543 9.215-1.54-.015-2.282-4.135-4.13-9.215-4.13z" transform="translate(3)"/>
                    </g>
                    <g>
                        <path fill="#FDB62F" d="M15.398 1.456v8.44c.005 4.484 1.914 8.755 5.252 11.75 1.85 1.655 4.627 1.728 6.561.171l.176-.14c3.716-2.992 5.876-7.507 5.873-12.278V1.456c-5.796-1.941-12.066-1.941-17.862 0z" transform="rotate(-9 88.93 -176.918)"/>
                        <path fill="#FFA83D" d="M29.819.543V9.4c.003 4.77-2.157 9.285-5.872 12.277l-.176.14c-.437.352-.93.628-1.457.818 1.663.604 3.52.294 4.897-.817l.176-.141c3.716-2.992 5.875-7.506 5.873-12.277V1.456c-1.127-.377-2.276-.681-3.441-.913z" transform="rotate(-9 88.93 -176.918)"/>
                        <g fill="#DE4C3C">
                            <path d="M2.087 7.412c2.81 1.412 6.121 1.412 8.93 0l-.547 1.65c-.558 1.69-2.137 2.834-3.918 2.837-1.781-.003-3.36-1.146-3.918-2.838l-.547-1.65zM.598 2.881c-.317 0-.573-.258-.573-.574 0-.113.033-.222.095-.316C1.145.446 3.031-.287 4.83.162l.373.094c.306.08.49.392.412.698-.079.304-.386.488-.69.414l-.374-.093c-1.327-.33-2.719.21-3.475 1.35-.107.16-.286.256-.478.256zM13.25 3.09c-.192 0-.372-.097-.478-.257-.756-1.139-2.147-1.68-3.474-1.35l-.374.094c-.31.067-.615-.13-.682-.44-.064-.295.112-.59.403-.672L9.02.37c1.798-.448 3.684.284 4.709 1.828.175.264.103.62-.161.795-.094.063-.204.096-.317.096z" transform="rotate(-9 88.93 -176.918) translate(17.777 5.878)"/>
                        </g>
                        <path fill="#4398D1" d="M15.398 6.189C10.301 7.395 4.968 7.154 0 5.49v8.419c-.002 4.485 1.908 8.76 5.252 11.75 1.85 1.655 4.627 1.728 6.561.171l.176-.14c2.614-2.106 4.486-4.992 5.342-8.237-1.267-2.318-1.932-4.916-1.933-7.557V6.189z" transform="rotate(-9 88.93 -176.918)"/>
                        <path fill="#3E8CC7" d="M15.398 9.895V6.19c-.732.172-1.469.312-2.209.426V8.94c0 3.176.696 6.314 2.04 9.192l1.022 2.19c.452-.919.813-1.88 1.08-2.87-1.267-2.317-1.932-4.915-1.933-7.557z" transform="rotate(-9 88.93 -176.918)"/>
                        <g fill="#3570AB">
                            <path d="M.573 3.461C.257 3.461 0 3.205 0 2.888c0-.317.257-.573.573-.573 1.206 0 2.33-.607 2.994-1.613l.25-.377c.174-.264.53-.336.795-.16.264.174.336.53.16.795l-.249.376c-.876 1.327-2.36 2.125-3.95 2.125zM11.737 3.461c-1.589.002-3.073-.796-3.95-2.121l-.25-.377C7.364.699 7.436.343 7.7.168c.264-.175.62-.103.795.16l.25.378c.664 1.005 1.788 1.61 2.993 1.61.317 0 .574.257.574.573 0 .317-.257.574-.574.574V3.46zM3.306 11.081c.397.6 1.18.81 1.823.487 1.165-.586 2.539-.586 3.704 0 .643.323 1.426.114 1.823-.487.438-.657.261-1.546-.395-1.985-1.984-1.33-4.575-1.33-6.56 0-.656.44-.833 1.328-.395 1.985z" transform="rotate(-9 88.93 -176.918) translate(1.72 10.824)"/>
                        </g>
                        <path fill="#87CED9" d="M13.47 13.753l-1.12 2.613c-.263.62.024 1.335.643 1.6.151.064.314.097.478.097.673 0 1.218-.546 1.218-1.219 0-.165-.033-.328-.098-.48l-1.12-2.611z" transform="rotate(-9 88.93 -176.918)"/>
                    </g>
                    <g>
                        <path fill="#DEDEDE" d="M26.837 29.934H1.032C.462 29.934 0 29.47 0 28.9V16h27.87v12.902c0 .57-.463 1.033-1.033 1.033z" transform="translate(.312 2.688)"/>
                        <path fill="#666" d="M7.225 12.902L7.225 15.999 27.869 15.999 27.869 11.87 6.4 11.87z" transform="translate(.312 2.688)"/>
                        <g fill="#DEDEDE">
                            <path d="M9.741 4.129L5.613 4.129 8.709 0 12.838 0zM17.999 4.129L13.87 4.129 16.967 0 21.095 0zM.452 0L.052.533.452 1.032.452 4.129 1.484 4.129 4.58 0z" transform="translate(.312 2.688) translate(6.774 11.87)"/>
                        </g>
                        <path fill="#666" d="M6.826 12.403L6.4 11.87 5.638 10.918 5.379 10.595 3.097 7.741 1.972 7.741 0 7.741 0 11.87 0 15.999 4.129 15.999 7.225 15.999 7.225 12.902z" transform="translate(.312 2.688)"/>
                        <g fill="#DEDEDE">
                            <path d="M0 4.129L1.032 4.129 1.032 5.161 0 5.161zM0 0L1.032 0 1.032 1.032 0 1.032zM3.097 4.129L4.129 4.129 4.129 5.161 3.097 5.161z" transform="translate(.312 2.688) translate(1.548 9.29)"/>
                        </g>
                        <g fill="#C7C7C7">
                            <path d="M0 0L22.708 0 22.708 1.032 0 1.032zM22.708 4.129L0 4.129 0 5.161 6.709 5.161 6.709 8.258 7.741 8.258 7.741 5.161 14.967 5.161 14.967 8.258 15.999 8.258 15.999 5.161 22.708 5.161z" transform="translate(.312 2.688) translate(2.58 19.612)"/>
                        </g>
                        <path fill="#DEDEDE" d="M5.638 10.918L27.869 3.939 26.633 0 1.972 7.741 3.097 7.741z" transform="translate(.312 2.688)"/>
                        <g fill="#666">
                            <path d="M11.682 7.34L7.742 8.576 9.461 3.71 13.399 2.473zM19.56 4.867L15.621 6.103 17.339 1.237 21.278 0zM.283 10.918L3.803 9.813 5.521 4.946 1.582 6.183.025 10.595z" transform="translate(.312 2.688) translate(5.354)"/>
                        </g>
                        <path fill="#C7C7C7" d="M0 15.999L27.869 15.999 27.869 17.547 0 17.547z" transform="translate(.312 2.688)"/>
                    </g>
                </g>
            </g>
        </g>
    </g>
</svg>
