<?xml version="1.0" encoding="UTF-8"?>
<svg width="311px" height="366px" viewBox="0 0 311 366" version="1.1" xmlns="http://www.w3.org/2000/svg" xmlns:xlink="http://www.w3.org/1999/xlink">
    <!-- Generator: Sketch 63.1 (92452) - https://sketch.com -->
    <title>convocatorias@2x</title>
    <desc>Created with Sketch.</desc>
    <defs>
        <rect id="path-1" x="0" y="0" width="255" height="310" rx="8"></rect>
        <filter x="-16.9%" y="-13.2%" width="133.7%" height="127.7%" filterUnits="objectBoundingBox" id="filter-3">
            <feOffset dx="0" dy="2" in="SourceAlpha" result="shadowOffsetOuter1"></feOffset>
            <feGaussianBlur stdDeviation="14" in="shadowOffsetOuter1" result="shadowBlurOuter1"></feGaussianBlur>
            <feColorMatrix values="0 0 0 0 0   0 0 0 0 0   0 0 0 0 0  0 0 0 0.06 0" type="matrix" in="shadowBlurOuter1"></feColorMatrix>
        </filter>
        <path d="M3.00025,7.99927241 C2.74425,7.99927241 2.48825,7.90127241 2.29325,7.70627241 C1.90225,7.31527241 1.90225,6.68327241 2.29325,6.29227241 L5.59825,2.98727241 L2.41825,-0.305727588 C2.03525,-0.703727588 2.04625,-1.33672759 2.44325,-1.71972759 C2.84125,-2.10272759 3.47425,-2.09172759 3.85725,-1.69572759 L7.71925,2.30427241 C8.09825,2.69727241 8.09325,3.32027241 7.70725,3.70627241 L3.70725,7.70627241 C3.51225,7.90127241 3.25625,7.99927241 3.00025,7.99927241" id="path-4"></path>
    </defs>
    <g id="Screens" stroke="none" stroke-width="1" fill="none" fill-rule="evenodd">
        <g id="Materias-" transform="translate(-137.000000, -1723.000000)">
            <g id="Ficha-de-repaso" transform="translate(165.000000, 1749.000000)">
                <g id="Group">
                    <mask id="mask-2" fill="white">
                        <use xlink:href="#path-1"></use>
                    </mask>
                    <g id="Mask">
                        <use fill="black" fill-opacity="1" filter="url(#filter-3)" xlink:href="#path-1"></use>
                        <use fill="#FFFFFF" fill-rule="evenodd" xlink:href="#path-1"></use>
                    </g>
                    <rect id="Rectangle" fill="#E4E9F2" fill-rule="nonzero" opacity="0.497465588" mask="url(#mask-2)" x="0" y="0" width="255" height="88"></rect>
                    <g id="atomo/-button/-primario/-228x48px/-active-copy-2" mask="url(#mask-2)">
                        <g transform="translate(27.000000, 232.000000)" id="Group">
                            <g>
                                <rect id="Rectangle" fill="#BC0F6A" x="0" y="0" width="200" height="48" rx="24"></rect>
                                <g id="Group-2" transform="translate(30.225131, 16.000000)">
                                    <g id="Group-3">
                                        <text id="Ver-actividades" font-family="Montserrat-Medium, Montserrat" font-size="16" font-weight="400" line-spacing="16" fill="#FFFFFF">
                                            <tspan x="0.298429319" y="15">Ver actividades</tspan>
                                        </text>
                                        <g id="Arrow_down" transform="translate(140.596859, 9.000000) rotate(-90.000000) translate(-140.596859, -9.000000) translate(135.596859, 6.000000)">
                                            <mask id="mask-5" fill="white">
                                                <use xlink:href="#path-4"></use>
                                            </mask>
                                            <use id="🎨-Icon-Сolor" fill="#FFFFFF" fill-rule="nonzero" transform="translate(5.000080, 2.999636) rotate(-270.000000) translate(-5.000080, -2.999636) " xlink:href="#path-4"></use>
                                        </g>
                                    </g>
                                </g>
                            </g>
                        </g>
                    </g>
                    <text id="Fichas-de-repaso" font-family="Montserrat-Medium, Montserrat" font-size="20" font-weight="400" letter-spacing="0.416666667" fill="#333E53">
                        <tspan x="53.1216667" y="196">Convocatorias</tspan>
                    </text>
                </g>
                <g id="icono_01--copy-9" transform="translate(74.000000, 24.000000)">
                    <g id="convocatoria">
                        <g id="Capa_1_1_" fill="#D50080">
                            <path d="M0.0114435754,53.9396648 C0.0114435754,24.1495642 24.1610279,0 53.9511285,0 C83.7412291,0 107.890793,24.1495642 107.890793,53.9396648 C107.890793,83.7297654 83.7412291,107.87933 53.9511285,107.87933 C24.1610279,107.87933 0.0114435754,83.7297654 0.0114435754,53.9396648 Z" id="Path"></path>
                        </g>
                        <g id="Layer-4" transform="translate(15.083799, 11.463687)">
                            <path d="M0.357184358,12.9604022 L58.7031285,0.65473743 C58.8199777,0.630100559 58.9370279,0.716379888 58.9647821,0.847427933 L74.6513296,75.2235084 C74.6788827,75.3546369 74.6066816,75.4807374 74.4898324,75.5054749 L16.1438883,87.8110391 C16.0270391,87.8357765 15.9099888,87.7494972 15.8822346,87.6183687 L0.195687151,13.2423687 C0.168134078,13.1112402 0.240335196,12.9849385 0.357184358,12.9604022 Z" id="Path" fill="#D8D8D8"></path>
                            <path d="M8.9953743,4.26211844 L68.4848715,0.135686517 C68.6041341,0.127870391 68.7087151,0.234522905 68.7189721,0.374319553 L74.4544358,79.7114413 C74.4644916,79.8512179 74.3762011,79.9712849 74.2571397,79.9795307 L14.7676425,84.1059004 C14.6483799,84.1136983 14.5435978,84.0071061 14.5335419,83.8673296 L8.79807821,4.53022793 C8.78802235,4.39041117 8.87631285,4.27038436 8.9953743,4.26211844 Z" id="Path" fill="#ECECEC"></path>
                        </g>
                        <g id="Layer-2" transform="translate(31.575419, 30.569832)" fill="#D8D8D8" stroke="#D5D5D5" stroke-linecap="round" stroke-linejoin="round" stroke-width="1.60893855">
                            <line x1="0.166324022" y1="4.08690503" x2="47.4813855" y2="0.147418994" id="Path"></line>
                            <line x1="0.712759777" y1="9.37930726" x2="48.0278212" y2="5.43962011" id="Path"></line>
                            <line x1="1.30545251" y1="15.1191955" x2="48.6203128" y2="11.1795084" id="Path"></line>
                            <line x1="1.93293855" y1="21.1963575" x2="49.2477989" y2="17.2566704" id="Path"></line>
                            <line x1="1.69682682" y1="27.1128268" x2="49.0118883" y2="23.1731397" id="Path"></line>
                            <line x1="2.33979888" y1="33.3388156" x2="49.6546592" y2="29.3993296" id="Path"></line>
                            <line x1="3.03626816" y1="40.0852961" x2="29.7711955" y2="38.2706145" id="Path"></line>
                        </g>
                        <g id="Layer-3" transform="translate(32.178771, 12.067039)">
                            <path d="M46.2825251,4.32174972 L43.6410503,7.44053631 C43.6410503,7.44053631 43.5563799,7.81280447 43.7044022,8.00603799 C43.8524246,8.19935196 44.2329385,8.21343017 44.2329385,8.21343017 C44.2329385,8.21343017 46.9267039,5.57539441 46.872,5.08569385 C46.817095,4.59601341 46.2825251,4.32174972 46.2825251,4.32174972 Z" id="Path" fill="#C8C8C8"></path>
                            <path d="M44.5915307,4.09492961 C44.5915307,4.09492961 45.2009162,5.20119553 45.8215642,5.73954637 C46.6712849,6.47652067 48.5631955,7.15038436 48.5666145,7.05817207 C48.5732514,6.87457207 50.4287598,2.63431508 50.6528045,2.50566034 C50.8768492,2.37700559 50.2618324,1.60306592 49.7308827,1.18709497 C49.1299441,0.716319553 48.4346816,0.791517318 48.4346816,0.791517318 C48.4004916,0.785805587 48.3494078,0.80117095 48.320648,0.825807821 L44.547486,3.71495866 C44.5185251,3.73959553 44.5750391,4.06327374 44.5915307,4.09492961 Z" id="Path" fill="#D50080"></path>
                            <path d="M44.2723575,3.74333631 C44.9420782,4.94477095 46.2362682,6.6764514 48.3496089,7.28933631" id="Path" stroke="#D50080" stroke-width="1.60893855" stroke-linecap="round" stroke-linejoin="round"></path>
                            <path d="M48.6534972,1.84193296 C48.0549721,1.14536313 48.0567821,0.37858324 48.6575196,0.129298324 C49.258257,-0.120006704 50.1349274,0.214873743 50.7336536,0.911443575 C51.3321788,1.60801341 51.4258994,2.40246704 50.825162,2.65177207 C50.2244246,2.90107709 49.2522235,2.53850279 48.6534972,1.84193296 Z" id="Path" fill="#D50080"></path>
                            <polygon id="Path" fill="#CFCFCF" points="8.84473743 12.1571397 0.144201117 12.5949721 2.52362011 14.6393296 0.690435754 17.3129832 9.63935196 16.714257"></polygon>
                            <polygon id="Path" fill="#CFCFCF" points="38.7168939 9.93278212 47.4244693 9.61763128 45.2841788 11.8574749 47.4063687 14.3601788 38.4339218 14.5365587"></polygon>
                            <polygon id="Path" fill="#D9D9D9" points="6.04739665 7.82165363 6.04739665 16.140067 41.8213408 13.3976313 41.135933 5.60886034"></polygon>
                        </g>
                    </g>
                </g>
            </g>
        </g>
    </g>
</svg>