<svg xmlns="http://www.w3.org/2000/svg" xmlns:xlink="http://www.w3.org/1999/xlink" width="255" height="234" viewBox="0 0 255 234">
    <defs>
        <filter id="prefix__e" width="700%" height="700%" x="-300%" y="-300%" filterUnits="objectBoundingBox">
            <feGaussianBlur in="SourceGraphic" stdDeviation="2.315"/>
        </filter>
        <filter id="prefix__f" width="700%" height="700%" x="-300%" y="-300%" filterUnits="objectBoundingBox">
            <feGaussianBlur in="SourceGraphic" stdDeviation="2.315"/>
        </filter>
        <circle id="prefix__c" cx="62.523" cy="62.43" r="62.43"/>
        <rect id="prefix__a" width="255" height="234" x="0" y="0" rx="8"/>
    </defs>
    <g fill="none" fill-rule="evenodd">
        <mask id="prefix__b" fill="#fff">
            <use xlink:href="#prefix__a"/>
        </mask>
        <rect width="254" height="233" x=".5" y=".5" stroke="#CCC" rx="8"/>
        <text fill="#000" font-family="Montserrat-Medium, Montserrat" font-size="18" font-weight="400" mask="url(#prefix__b)">
            <tspan x="18.731" y="201">Convivencia en el hogar</tspan>
        </text>
        <g transform="translate(66 38)">
            <mask id="prefix__d" fill="#fff">
                <use xlink:href="#prefix__c"/>
            </mask>
            <use fill="#6E79E0" xlink:href="#prefix__c"/>
            <g mask="url(#prefix__d)">
                <g>
                    <g transform="translate(-9.078 24.441)">
                        <path fill="#6F2E81" fill-rule="nonzero" d="M79.935 102.281L73.091 104.283 72.579 97.277 70.554 97.277 70.042 104.05 61.639 101.304 62.919 89.129 78.771 88.943z"/>
                        <path fill="#1C117A" fill-rule="nonzero" d="M43.529 77.561L45.088 95.95 19.297 88.943 24.651 75.512z"/>
                        <path fill="#5C5CB4" fill-rule="nonzero" d="M97.556 77.561L96.788 98.976 122.672 94.507 118.971 76.397z"/>
                        <path fill="#3F4E66" fill-rule="nonzero" d="M117.202 32.402s6.727 3.26 4.143 9.637l-8.17.745-2.211-.931s-.163-6.052 3.119-8.706l3.119-.745z"/>
                        <path fill="#EDE579" fill-rule="nonzero" d="M112.71 32.076l.186 1.746s3.794-.558 4.655-1.606l-.698-2.63-4.144 2.49z"/>
                        <path fill="#3F4E66" fill-rule="nonzero" d="M110.172 33.007s18.622.815 8.776-23.812l-6.564 7.937-2.212 15.875z"/>
                        <path fill="#F9DDB7" fill-rule="nonzero" d="M109.358 30.912L109.939 40.107 105.633 39.572 103.794 31.262z"/>
                        <path fill="#F2E26B" fill-rule="nonzero" d="M120.251 78.142s-6.168 2.468-12.08 3.143c-4.772.535-11.383-2.56-11.383-2.56l.395-36.197c-.07-2.467 1.886-4.516 4.377-4.586h.326l10.963-.163 1.327-.023c2.42-.047 4.446 1.862 4.54 4.283l1.535 36.103z"/>
                        <path fill="#F9DDB7" fill-rule="nonzero" d="M101.885 37.942c.56 1.886 2.608 3.352 5.145 3.538 2.933.21 5.47-1.42 5.82-3.7l-10.965.162z"/>
                        <path fill="#684642" fill-rule="nonzero" d="M107.332 24.837l-5.19.186c-.536.024-.978-.395-1.001-.93-.024-.536.395-.978.93-1.002l5.192-.186c.535-.023.977.396 1 .931.024.559-.395 1.001-.93 1.001z"/>
                        <path fill="#F9DDB7" fill-rule="nonzero" d="M107.286 34.497c5.307-1.187 8.775-6.308 7.89-11.662l-1.35-8.473c-.907-5.61-6.168-9.427-11.778-8.52l-1.117.187c-5.61.908-9.427 6.168-8.52 11.778l1.374 8.473c.908 5.61 6.168 9.428 11.778 8.52l1.118-.186c.21-.024.395-.07.605-.117"/>
                        <circle cx="108.615" cy="24.17" r="1.157" fill="#E966E2" filter="url(#prefix__e)"/>
                        <circle cx="97.041" cy="27.642" r="1.157" fill="#E966E2" filter="url(#prefix__f)"/>
                        <ellipse cx="96.365" cy="21.087" fill="#684642" fill-rule="nonzero" rx="1" ry="1.304" transform="rotate(-11.21 96.365 21.087)"/>
                        <ellipse cx="105.009" cy="19.55" fill="#684642" fill-rule="nonzero" rx="1" ry="1.304" transform="rotate(-12.022 105.009 19.55)"/>
                        <path fill="#684642" fill-rule="nonzero" d="M102.52 28.937c.764-.21 1.354-.953 1.862-1.584.112-.143.074-.325-.07-.438-.142-.112-.324-.073-.437.07-.401.512-.878 1.223-1.478 1.375-.602.153-1.328-.254-1.936-.53-.156-.063-.333-.001-.395.155s0 .333.155.395c.694.352 1.553.74 2.299.557z"/>
                        <circle cx="114.898" cy="20.461" r="3.887" fill="#F9DDB7" fill-rule="nonzero"/>
                        <path fill="#E2C39F" fill-rule="nonzero" d="M113.804 20.414c.535-2.863 3.189-1.769 3.189-1.769s-.35-.023-1.607.768c-.395.256-1.582 1.001-1.582 1.001z"/>
                        <path fill="#684642" fill-rule="nonzero" d="M113.78 20.6c.093 0 .163-.07.186-.14.163-.79.49-1.326 1.001-1.605.862-.466 1.932-.024 1.956-.024.093.047.21 0 .232-.093.024-.093 0-.21-.093-.232-.046-.024-1.257-.513-2.258.046-.605.326-1 .955-1.187 1.862-.023.093.047.187.14.21l.023-.023z"/>
                        <path fill="#3F4E66" fill-rule="nonzero" d="M117.97 18.017s-4.748-3.375-6.029 1.606l-.093 1.653-1.583-7.45c-.186-3.118-2.863-5.26-10.358-3.91-2.863.512-5.843 2.724-6.355 7.053-.21 1.84-.046 7.589-.046 7.589s-2.119-9.916-1.28-13.268c.977-3.864 5.516-8.846 13.85-7.752.302.047 9.753 1.024 12.5 4.772 1.978 2.677-.606 9.707-.606 9.707z"/>
                        <path fill="#3F4E66" fill-rule="nonzero" d="M106.122 9.45s1.28 4.004 4.818 5.331l1.118-1.187-1.118-3.073-2.63-1.49-2.188.42z"/>
                        <path fill="#684642" fill-rule="nonzero" d="M95.787 17.9c.512-.163.977-.488 1.327-.907.07-.094.046-.21-.047-.257h-.023c-.093-.046-.233-.023-.303.07-.559.722-1.513 1.001-2.374.722-.117-.023-.233.023-.28.116-.046.093 0 .21.094.256h.023c.535.14 1.07.14 1.583 0zM104.725 16.69c.536-.07 1.071-.28 1.49-.629.07-.07.093-.186.023-.256l-.023-.023c-.093-.07-.21-.07-.303 0-.675.582-1.676.675-2.467.233-.093-.047-.233-.023-.303.07-.07.093-.046.21.047.256 0 0 .023 0 .023.023.466.256.978.372 1.513.326z"/>
                        <path fill="#F2E26B" fill-rule="nonzero" d="M139.828 72.602c1.839 0 3.328-1.49 3.328-3.328 0-.792-.279-1.56-.791-2.165l-23.953-28.143c-1.187-1.42-3.282-1.606-4.702-.419-1.42 1.188-1.606 3.283-.419 4.703.024.023.024.046.047.046l23.953 28.143c.628.744 1.56 1.163 2.537 1.163zM80.75 68.878c.791-.116 1.536-.512 2.071-1.117l18.971-23.743c1.188-1.42 1.001-3.515-.419-4.702-1.373-1.164-3.421-1.025-4.609.326l-18.97 23.743c-1.211 1.396-1.071 3.491.325 4.702.722.628 1.676.93 2.63.791z"/>
                        <path stroke="#684642" stroke-linecap="round" stroke-linejoin="round" stroke-width=".579" d="M103.142 22.253s-3.7-.558-3.305 2.305"/>
                        <path fill="#F9DDB7" fill-rule="nonzero" d="M33.962 30.75L33.403 39.944 37.709 39.409 39.525 31.099z"/>
                        <path fill="#5C5CB4" fill-rule="nonzero" d="M46.16 42.365l-.978 36.15s-4.377 2.723-10.01 2.607c-3.119-.07-12.08-3.142-12.08-3.142l1.536-36.104c.093-2.42 2.118-4.33 4.539-4.283l1.326.023c.35 2.282 2.887 3.911 5.82 3.702 2.537-.187 4.586-1.653 5.144-3.539h.28c2.467.024 4.445 2.072 4.422 4.54v.046z"/>
                        <path fill="#F9DDB7" fill-rule="nonzero" d="M41.457 37.78c-.558 1.885-2.607 3.351-5.144 3.538-2.933.209-5.47-1.42-5.82-3.702l10.964.163z"/>
                        <path fill="#684642" fill-rule="nonzero" d="M36.29 21.415l5.703.303c.581.023 1.024.535 1 1.117-.023.582-.535 1.024-1.117 1.001l-5.703-.302c-.582-.024-1.024-.536-1-1.118.046-.582.535-1.024 1.117-1z"/>
                        <path fill="#F9DDB7" fill-rule="nonzero" d="M42.365 2.817l1.21.21c6.122 1.093 10.196 6.959 9.102 13.104L51 25.396c-1.094 6.122-6.96 10.195-13.105 9.101l-1.21-.21c-6.123-1.093-10.196-6.96-9.102-13.105l1.676-9.264C30.354 5.773 36.22 1.7 42.365 2.817z"/>
                        <ellipse cx="48.298" cy="19.611" fill="#684642" fill-rule="nonzero" rx="1.443" ry="1" transform="rotate(-77.708 48.298 19.61)"/>
                        <ellipse cx="38.84" cy="17.779" fill="#684642" fill-rule="nonzero" rx="1.443" ry="1" transform="rotate(-76.909 38.84 17.78)"/>
                        <path fill="#684642" fill-rule="nonzero" d="M41.582 28.277c-.861-.07-1.684-.88-2.36-1.438-.14-.14-.14-.35-.023-.489.117-.14.35-.14.49-.023.547.488 1.196 1.223 1.893 1.248.666.025 1.378-.64 1.947-1.039.163-.093.372-.07.465.093.094.163.07.373-.093.466-.651.489-1.481 1.206-2.32 1.182z"/>
                        <path fill="#684642" fill-rule="nonzero" d="M41.108 23.696c-1.63-.651-5.33-.419-6.634 2.282 0 0 5.098.163 6.587-.536 0 0 .187.978 1.537.326 0 0 1.187.326 2.42.792.908.349 1.816.907 2.398.675 1.327-.536-1.885-3.585-4.725-3.376l-.722.443c-.233-.233-.535-.443-.861-.606z"/>
                        <circle cx="27.98" cy="18.552" r="4.283" fill="#F9DDB7" fill-rule="nonzero"/>
                        <path fill="#E2C39F" fill-rule="nonzero" d="M29.167 18.529c-.536-3.143-3.469-2.002-3.469-2.002s.373-.023 1.746.885c.442.279 1.723 1.117 1.723 1.117z"/>
                        <path fill="#684642" fill-rule="nonzero" d="M29.19 18.738c-.093 0-.163-.07-.186-.163-.163-.884-.512-1.49-1.048-1.792-.93-.535-2.118-.07-2.141-.07-.093.047-.21 0-.256-.116-.047-.093 0-.21.116-.256.047-.023 1.373-.536 2.467.093.652.372 1.094 1.07 1.257 2.072.024.116-.046.21-.163.232h-.046zM26.7 14.502s4.12.302 4.515 3.212l.07 1.816 2.235-8.636c.162-.652.721-1.117 1.373-1.187 1.839-.187 5.68-.443 9.195.093 3.235.489 6.168 2.281 7.146 2.98l.163 10.893 3.724-14.92c.163-.63.023-1.327-.396-1.816C52.863 4.749 47.16-.815 37.99.209c-.559.07-.931.582-.861 1.118v.046l.163.885-9.242 2.49c-.675.187-1.14.792-1.164 1.49l-.186 8.264z"/>
                        <path fill="#684642" fill-rule="nonzero" d="M48.976 16.155c-.559-.187-1.071-.56-1.443-1.025-.07-.093-.047-.21.046-.279 0 0 .023 0 .023-.023.117-.07.256-.024.326.07.582.791 1.63 1.14 2.584.838.116-.047.256.023.303.14.046.116 0 .232-.117.255h-.023c-.559.187-1.164.187-1.7.024zM39.2 14.642c-.606-.07-1.165-.326-1.607-.722-.093-.07-.093-.21-.023-.28l.023-.023c.093-.07.233-.07.326 0 .745.675 1.816.792 2.7.303.117-.07.256-.023.326.093.07.093.023.233-.07.28 0 0-.023 0-.023.023-.489.256-1.07.372-1.653.326z"/>
                        <path fill="#5C5CB4" fill-rule="nonzero" d="M3.515 72.44c-1.839 0-3.329-1.49-3.329-3.33 0-.79.28-1.559.792-2.164l23.929-28.142c1.187-1.42 3.282-1.607 4.702-.42 1.42 1.188 1.606 3.283.419 4.703-.023.023-.023.046-.047.046L6.052 71.276c-.628.744-1.56 1.163-2.537 1.163zM59.38 71.276c-.767-.233-1.442-.722-1.885-1.42l-16.48-26.048c-.978-1.56-.535-3.608 1.024-4.609 1.56-.977 3.608-.535 4.609 1.024l16.48 26.048c.978 1.56.536 3.608-1.024 4.609-.814.535-1.815.675-2.723.396z"/>
                        <path stroke="#684642" stroke-linecap="round" stroke-linejoin="round" stroke-width=".579" d="M41.41 20.042s3.702-.559 3.306 2.304"/>
                        <path fill="#FF881D" fill-rule="nonzero" d="M76.955 56.564H65.084c-1.676 0-3.026 1.35-3.026 3.026v30.703s5.75 2.281 9.59 1.909c3.003-.303 8.31-1.909 8.31-1.909V59.59c0-1.652-1.35-3.002-3.003-3.026z"/>
                        <path fill="#E2C39F" fill-rule="nonzero" d="M69.623 52.328H72.742V57.542H69.623z"/>
                        <path fill="#F9DDB7" fill-rule="nonzero" d="M71.276 55.354c-6.681 0-12.105-5.4-12.105-12.058v-5.633c0-6.68 5.424-12.104 12.105-12.104 6.68 0 12.104 5.423 12.104 12.104v5.587c0 6.68-5.424 12.104-12.104 12.104z"/>
                        <circle cx="83.194" cy="41.876" r="3.911" fill="#F9DDB7" fill-rule="nonzero"/>
                        <path fill="#684642" fill-rule="nonzero" d="M58.496 39.874c-.023.093-.023.21-.023.303-.047-.116-.093-.28-.163-.489.047.07.116.14.186.186z"/>
                        <path fill="#684642" fill-rule="nonzero" d="M58.52 40.317l.046 1.629c-.116-.582-.14-1.187-.093-1.77.023.094.047.14.047.14z"/>
                        <path fill="#543734" fill-rule="nonzero" d="M84.311 38.57c-.07.28-.28.513-.535.63l-.769.302s-.675-.256-.675-.512c-.116-2.654-1.21-5.191-3.072-7.1-1.653.442-3.329.745-5.005.955l-12.15.79-.094.07c-.861 1.514-1.815 3.772-1.862 6.309 0 .21-.466.419-.466.419l-1.047-.489c-.047-.023-.093-.046-.14-.093-.07-.047-.14-.116-.186-.186-.093-.28-.233-.675-.35-1.118-.674-2.141-1.629-5.772-1.512-8.17.116 2.351.954 5.377 1.513 7.286.14.442.256.838.35 1.117.046.07.115.14.185.186.047.047.093.07.14.094l1.047.488s.466-.186.466-.419c.047-2.537 1-4.795 1.862-6.308l.093-.07 12.151-.791c1.7-.186 3.375-.512 5.005-.954 1.862 1.908 2.956 4.446 3.072 7.1 0 .255.675.511.675.511l.769-.302c.279-.093.488-.35.535-.629.326-1.396.535-2.84.582-4.283.023 1.723-.163 3.469-.582 5.168z"/>
                        <path fill="#684642" fill-rule="nonzero" d="M84.404 29.586l-.28.21c.49 1.116.746 2.35.769 3.56v.024c.023 1.746-.163 3.492-.582 5.19-.07.28-.28.513-.535.63l-.769.302s-.675-.256-.675-.512c-.116-2.654-1.21-5.191-3.072-7.1-1.653.442-3.329.745-5.005.955l-12.15.79-.094.07c-.861 1.514-1.815 3.772-1.862 6.309 0 .21-.466.419-.466.419l-1.047-.489c-.047-.023-.093-.046-.14-.093-.07-.047-.14-.116-.186-.186-.093-.28-.233-.675-.35-1.118-.674-2.141-1.629-5.772-1.512-8.17v-.023c.046-.955.28-1.723.768-2.118.186-.14.535-.094.931.046.838.256.675-.21.908-1.047.465-1.513 1.187-3.562 1.932-4.144 5.005-3.84 23.999-3.259 25.605 2.933.047.163.093.326.093.489 0 0-.093 1.513-2.28 3.073zM58.31 39.688c-.116-.116-.186-.28-.233-.442-.046-.186-.093-.42-.14-.675.14.442.257.838.373 1.117zM77.328 41.527c-.792-.023-1.56-.28-2.188-.768-.117-.14-.093-.326.023-.442.093-.094.256-.094.372-.024 1.025.815 2.491.815 3.539 0 .14-.116.325-.093.442.024.116.116.093.325-.023.442l-.024.023c-.628.466-1.373.745-2.141.745z"/>
                        <path fill="#684642" fill-rule="nonzero" d="M65.62 41.527c-.792-.023-1.56-.28-2.189-.768-.116-.14-.093-.326.023-.442.093-.094.256-.094.373-.024 1.024.815 2.49.815 3.538 0 .14-.116.326-.093.442.024.117.116.093.325-.023.442l-.023.023c-.629.466-1.374.745-2.142.745zM73.487 45.717c-.116 0-.186-.093-.186-.21 0 0 .116-1.094-.675-1.466-.931-.466-2.584.419-2.607.419-.093.047-.21.023-.256-.07-.047-.093-.024-.21.07-.256.07-.046 1.838-.978 2.956-.442 1.024.512.884 1.792.884 1.862-.023.093-.093.163-.186.163zM65.55 36.08c.79.023 1.559.28 2.187.768.117.14.094.326-.046.443-.093.093-.256.093-.35.023-1.023-.815-2.49-.815-3.537 0-.14.116-.326.093-.443-.023-.116-.117-.093-.326.024-.443l.023-.023c.628-.466 1.373-.722 2.141-.745zM77.258 36.08c.791.023 1.56.28 2.188.768.116.14.093.326-.047.443-.093.093-.256.093-.349.023-1.024-.815-2.49-.815-3.515.023-.14.116-.326.093-.442-.023-.116-.117-.093-.326.023-.442l.024-.024c.605-.489 1.35-.745 2.118-.768z"/>
                        <path fill="#E2C39F" fill-rule="nonzero" d="M74.767 56.518c0 .14-.023.279-.046.395 0 .094-.024.163-.047.256-.116.513-.372.978-.698 1.374-.07.07-.14.163-.21.233l-.186.186c-.163.14-.35.28-.559.372l-.279.14c-.07.046-.14.07-.21.093-.116.047-.255.093-.395.116-.093.024-.21.047-.326.07-.116.024-.21.024-.326.024h-.093c-1.816 0-3.305-1.42-3.375-3.26h6.75zM82.635 42.574c.652-2.863 3.259-1.675 3.259-1.675s-.35-.047-1.653.721c-.396.233-1.606.954-1.606.954z"/>
                        <path stroke="#684642" stroke-linecap="round" stroke-width=".579" d="M82.635 42.574c.652-2.863 3.259-1.675 3.259-1.675"/>
                        <circle cx="58.38" cy="42.668" r="3.911" fill="#F9DDB7" fill-rule="nonzero"/>
                        <path fill="#E2C39F" fill-rule="nonzero" d="M59.45 42.574c-.651-2.863-3.258-1.675-3.258-1.675s.349-.047 1.653.721c.395.233 1.606.954 1.606.954z"/>
                        <path stroke="#684642" stroke-linecap="round" stroke-width=".579" d="M56.238 40.922s2.607-1.187 3.26 1.676"/>
                        <path fill="#684642" fill-rule="nonzero" d="M71.764 50.466c-.791-.094-1.536-.42-2.118-.955-.116-.116-.116-.326.023-.442.117-.116.303-.116.42 0 .954.908 2.42 1.024 3.514.303.14-.094.326-.047.42.093.092.14.046.326-.094.419-.652.442-1.396.628-2.165.582z"/>
                    </g>
                    <path fill="#FF881D" fill-rule="nonzero" d="M66.131 74.511c-.232.326-.558.605-.93.768-.21.093-.42.14-.63.163l-2.49.28h-.093l-8.752 1c-.094 0-.163.024-.256.024-.792 0-1.514-.42-1.933-1.094-.162-.28-.256-.582-.302-.908-.047-.535.093-1.094.419-1.513l10.894-15.014c.465-.652 1.233-1.001 2.025-.885.396.024.768.163 1.07.396 1.002.722 1.211 2.095.49 3.096l-3.678 5.075-4.237 5.842 3.422-.396.815-.093 2.071-.232c.07 0 .163-.024.233-.024 1.234 0 2.235.978 2.258 2.212 0 .465-.14.93-.396 1.303zM90.992 74.581c-.024 1.21-1.001 2.165-2.212 2.165-.093 0-.163 0-.256-.023l-11.29-1.304h-.023c-1.21-.14-2.095-1.234-1.955-2.467.14-1.141 1.094-1.979 2.235-1.979.07 0 .163 0 .232.023l1.444.163 1.443.163 3.422.396-4.889-6.704-3.049-4.213c-.722-1.001-.489-2.375.489-3.096.186-.14.372-.233.582-.303.93-.326 1.955 0 2.514.792l10.894 15.014c.279.395.442.884.419 1.373z" transform="translate(-9.078 24.441)"/>
                    <path fill="#FF881D" fill-rule="nonzero" d="M76.047 57.402c-.209.07-.419.163-.581.303-.978.721-1.21 2.118-.49 3.096l3.05 4.213v-3.771c0-1.513-.722-2.933-1.979-3.84zm1.071 12.174s-6.401-1.815-6.96.931c-.395 1.932 3.771 5.121 3.771 5.121l.024-.046c1.094 1.024 2.723 1.234 4.05.535v-6.191c-.256-.187-.559-.303-.885-.35z" transform="translate(-9.078 24.441)"/>
                    <path fill="#ED7818" fill-rule="nonzero" d="M65.2 75.28c-.21.092-.419.139-.628.162l-2.491.28h-.093l-8.752 1c-.094 0-.163.024-.256.024-.792 0-1.514-.42-1.933-1.094-.162-.28-.256-.582-.302-.908l10.032-1.187 4.05-.466.373 2.188z" transform="translate(-9.078 24.441)"/>
                    <path fill="#F9DDB7" fill-rule="nonzero" d="M66.69 75.605l-.023-.07c-1.28 1.21-3.236 1.28-4.61.187-.023-.024-.07-.047-.092-.07-.629-.536-1.048-1.28-1.188-2.095-.302-1.84.908-3.585 2.724-3.98 0 0 6.401-1.816 6.96.93.419 1.932-3.771 5.098-3.771 5.098z" transform="translate(-9.078 24.441)"/>
                    <path fill="#ED7818" fill-rule="nonzero" d="M90.992 74.581c-.024 1.21-1.001 2.165-2.212 2.165-.093 0-.163 0-.256-.023l-11.29-1.304 2.305-2.42 11.453 1.582z" transform="translate(-9.078 24.441)"/>
                    <path fill="#F9DDB7" fill-rule="nonzero" d="M80.982 72.998v.233c-.07.978-.535 1.885-1.28 2.49-.163.14-.35.257-.559.373-1.326.722-2.98.489-4.073-.535l-.023.046s-4.167-3.166-3.771-5.12c.558-2.748 6.96-.932 6.96-.932.325.07.628.186.907.326 1.118.605 1.84 1.792 1.84 3.12z" transform="translate(-9.078 24.441)"/>
                </g>
            </g>
            <path fill="#FFF" fill-rule="nonzero" d="M72.183 15.27c-5.447-4.05-8.822 1.373-9.38 2.398-.582-1.025-3.934-6.448-9.381-2.398-1.816 1.35-4.772 7.263 1.792 12.71 1.583 1.303 4.842 3.584 6.564 5.284.35.325.675.698.978 1.117.023.023.047.046.047.093.023-.023.046-.047.07-.093.302-.42.628-.792.977-1.117 1.7-1.7 4.981-3.98 6.564-5.284 6.541-5.447 3.585-11.36 1.77-12.71z"/>
        </g>
    </g>
</svg>
