<svg xmlns="http://www.w3.org/2000/svg" xmlns:xlink="http://www.w3.org/1999/xlink" width="255" height="234" viewBox="0 0 255 234">
    <defs>
        <circle id="prefix__c" cx="62.43" cy="62.43" r="62.43"/>
        <rect id="prefix__a" width="255" height="234" x="0" y="0" rx="8"/>
    </defs>
    <g fill="none" fill-rule="evenodd">
        <mask id="prefix__b" fill="#fff">
            <use xlink:href="#prefix__a"/>
        </mask>
        <rect width="254" height="233" x=".5" y=".5" stroke="#CCC" rx="8"/>
        <text fill="#000" font-family="Montserrat-Medium, Montserrat" font-size="18" font-weight="400" mask="url(#prefix__b)">
            <tspan x="26.849" y="201">Divertimúsica y danza</tspan>
        </text>
        <g>
            <g transform="translate(65 32) translate(1.093 6)">
                <mask id="prefix__d" fill="#fff">
                    <use xlink:href="#prefix__c"/>
                </mask>
                <use fill="#D50080" xlink:href="#prefix__c"/>
                <g fill-rule="nonzero" mask="url(#prefix__d)">
                    <g>
                        <path fill="#555582" d="M26.012 75c-.563 0-1.125-.215-1.554-.644-.858-.858-.858-2.249 0-3.107 3.42-3.42 5.302-7.965 5.302-12.801s-1.883-9.382-5.302-12.801L2.113 23.302C.75 21.939 0 20.128 0 18.201c0-3.978 3.236-7.215 7.214-7.215h16.92c1.213 0 2.197.984 2.197 2.198 0 1.213-.984 2.197-2.197 2.197H7.214c-1.554 0-2.82 1.265-2.82 2.82 0 .753.294 1.461.827 1.994L27.566 42.54c4.249 4.249 6.589 9.899 6.589 15.908 0 6.01-2.34 11.66-6.59 15.908-.428.43-.99.644-1.553.644z" transform="rotate(-39 115.042 43.662)"/>
                        <path fill="#BEDCFA" d="M0 56.04v-8.287c0-.583.231-1.142.644-1.554l27.285-27.285 13.385 1.116L3.751 57.593C2.367 58.977 0 57.997 0 56.039z" transform="rotate(-39 115.042 43.662)"/>
                        <path fill="#FFC700" d="M73.187 52.182L57.513 49.4c-.64-.113-1.297.062-1.795.48-.499.417-.786 1.033-.786 1.683v7.849c-.688-.244-1.427-.378-2.198-.378-3.634 0-6.591 2.957-6.591 6.592s2.957 6.592 6.591 6.592c3.635 0 6.592-2.957 6.592-6.592v-11.44l11.28 2.002v6.007c-.688-.244-1.427-.378-2.198-.378-3.635 0-6.592 2.957-6.592 6.592S64.773 75 68.408 75 75 72.043 75 68.408V54.346c0-1.066-.764-1.977-1.813-2.164z" transform="rotate(-39 115.042 43.662)"/>
                        <path fill="#3B3B54" d="M0 18.2c0 1.928.75 3.74 2.113 5.102l22.345 22.345c3.42 3.42 5.302 7.966 5.302 12.801 0 4.836-1.883 9.382-5.302 12.801-.858.858-.858 2.25 0 3.107.43.43.992.644 1.554.644s1.125-.214 1.553-.644c4.25-4.249 6.59-9.898 6.59-15.908s-2.34-11.659-6.59-15.908L5.221 20.195c-.533-.533-.826-1.241-.826-1.994 0-1.555 1.265-2.82 2.82-2.82h16.919c1.213 0 2.197-.984 2.197-2.197H2.037C.777 14.484 0 16.252 0 18.2z" transform="rotate(-39 115.042 43.662)"/>
                        <path fill="#FF5A91" d="M53.027 21.973c-.05 0-.102-.002-.154-.006l-24.342-1.71c-3.698-.259-6.595-3.366-6.595-7.073 0-3.707 2.897-6.815 6.595-7.074L52.873 4.4c.608-.042 1.207.169 1.653.585.445.415.699.997.699 1.607v13.183c0 .61-.254 1.192-.7 1.608-.408.38-.944.59-1.498.59z" transform="rotate(-39 115.042 43.662)"/>
                        <path fill="#F32464" d="M21.937 13.184c0 3.707 2.896 6.814 6.594 7.073l24.343 1.71c.051.004.102.006.154.006.554 0 1.09-.21 1.498-.59.445-.416.699-.998.699-1.608v-6.591H21.937z" transform="rotate(-39 115.042 43.662)"/>
                        <path fill="#FFE951" d="M53.027 15.38h-4.394c-1.214 0-2.197-.983-2.197-2.196 0-1.214.983-2.198 2.197-2.198h4.394c1.214 0 2.198.984 2.198 2.198 0 1.213-.984 2.197-2.198 2.197z" transform="rotate(-39 115.042 43.662)"/>
                        <path fill="#FFC700" d="M48.633 15.38h4.394c1.214 0 2.198-.983 2.198-2.196h-8.79c0 1.213.984 2.197 2.198 2.197z" transform="rotate(-39 115.042 43.662)"/>
                        <path fill="#555582" d="M51.943 21.902c2.506 2.85 6.048 4.465 9.873 4.465 7.347 0 13.31-6.04 13.182-13.417C74.872 5.704 68.825-.125 61.578.002c-3.734.066-7.181 1.672-9.635 4.463v17.437z" transform="rotate(-39 115.042 43.662)"/>
                        <path fill="#3B3B54" d="M51.943 13.184v8.718c2.506 2.85 6.048 4.465 9.873 4.465 7.27 0 13.183-5.914 13.183-13.183H51.943z" transform="rotate(-39 115.042 43.662)"/>
                    </g>
                </g>
            </g>
            <g fill-rule="nonzero">
                <g>
                    <path fill="#E3E3E3" d="M22.807 8.22c-.484 0-.877-.393-.877-.877V.877c0-.484.393-.877.877-.877.485 0 .877.393.877.877v6.466c0 .484-.392.877-.877.877z" transform="translate(65 32) translate(71) translate(7.135)"/>
                    <path fill="#77839E" d="M18.75 12.287V9.094c0-1.486 1.206-2.691 2.692-2.691h2.73c1.487 0 2.692 1.205 2.692 2.691v3.192H18.75z" transform="translate(65 32) translate(71) translate(7.135)"/>
                    <g>
                        <path fill="#8EDEF7" d="M44.025 14.645h-9.05c.558 2.533.866 5.285.866 8.162 0 2.878-.308 5.63-.867 8.163h9.05c.976-2.534 1.512-5.285 1.512-8.163 0-2.877-.536-5.629-1.511-8.162z" transform="translate(65 32) translate(71) translate(7.135) translate(0 9.474)"/>
                        <path fill="#00CCF4" d="M9.774 22.807c0-2.877.307-5.629.866-8.162H1.59C.614 17.178.078 19.93.078 22.807c0 2.878.536 5.63 1.512 8.163h9.05c-.559-2.534-.866-5.285-.866-8.163z" transform="translate(65 32) translate(71) translate(7.135) translate(0 9.474)"/>
                        <path fill="#8EDEF7" d="M22.807.078C13.132.078 4.87 6.125 1.59 14.645h9.05C12.521 6.125 17.26.078 22.807.078zM10.64 30.97H1.59c3.28 8.52 11.542 14.566 21.217 14.566-5.548 0-10.286-6.046-12.167-14.566z" transform="translate(65 32) translate(71) translate(7.135) translate(0 9.474)"/>
                        <path fill="#00CCF4" d="M34.974 14.645h9.05C40.745 6.125 32.484.078 22.808.078c5.549 0 10.286 6.047 12.167 14.567zM22.807 45.536c9.676 0 17.938-6.046 21.218-14.566h-9.05c-1.882 8.52-6.62 14.566-12.168 14.566z" transform="translate(65 32) translate(71) translate(7.135) translate(0 9.474)"/>
                        <path fill="#6EDEFF" d="M10.64 14.645c-.559 2.533-.866 5.285-.866 8.162 0 2.878.307 5.63.866 8.163h12.167V14.645H10.64z" transform="translate(65 32) translate(71) translate(7.135) translate(0 9.474)"/>
                        <path fill="#CEF1FC" d="M22.807 30.97h12.167c.56-2.534.867-5.285.867-8.163 0-2.877-.308-5.629-.867-8.162H22.807V30.97zM10.64 30.97c1.881 8.52 6.619 14.566 12.167 14.566V30.97H10.64z" transform="translate(65 32) translate(71) translate(7.135) translate(0 9.474)"/>
                        <path fill="#8EDEF7" d="M34.974 30.97H22.807v14.566c5.549 0 10.286-6.046 12.167-14.566z" transform="translate(65 32) translate(71) translate(7.135) translate(0 9.474)"/>
                        <path fill="#6EDEFF" d="M34.974 14.645C33.094 6.125 28.356.078 22.807.078v14.567h12.167z" transform="translate(65 32) translate(71) translate(7.135) translate(0 9.474)"/>
                        <path fill="#CEF1FC" d="M10.64 14.645h12.167V.078c-5.548 0-10.286 6.047-12.167 14.567z" transform="translate(65 32) translate(71) translate(7.135) translate(0 9.474)"/>
                    </g>
                    <path fill="#AEE9FC" d="M17.895 49.873c-.235 0-.47-.094-.643-.28-1.654-1.783-2.693-4.185-2.736-4.287-.447-1.042 1.165-1.733 1.612-.69.01.021.967 2.228 2.41 3.784.492.53.074 1.473-.643 1.473z" transform="translate(65 32) translate(71) translate(7.135)"/>
                    <path fill="#57D7FF" d="M42.31 33.158c-.453 0-.895-.465-.878-.91.088-2.323-.723-4.684-.731-4.708-.373-1.071 1.284-1.648 1.657-.576.038.109.927 2.7.827 5.35-.018.473-.407.844-.876.844z" transform="translate(65 32) translate(71) translate(7.135)"/>
                    <path fill="#FFED59" d="M10.008 27.438L11.549 30.928 14.367 32.469 11.549 34.01 10.008 37.5 8.466 34.01 5.649 32.469 8.466 30.928z" transform="translate(65 32) translate(71) translate(7.135)"/>
                </g>
                <g fill="#FCF29C">
                    <path d="M12.29 20.077c-.315 0-.62-.17-.776-.468-.227-.429-.062-.96.366-1.185l6.132-3.236c.428-.226.959-.062 1.185.367.226.428.062.959-.366 1.185l-6.132 3.235c-.13.07-.27.102-.409.102zM.885 9.787c-.13 0-.261-.03-.385-.09-.435-.213-.616-.738-.403-1.173L4.027.492C4.24.057 4.766-.123 5.201.09c.435.213.615.738.402 1.173l-3.93 8.032c-.152.31-.464.492-.788.492z" transform="translate(65 32) translate(71) translate(40.585)"/>
                </g>
                <g fill="#FCF29C">
                    <path d="M.878 4.329c-.347 0-.675-.207-.813-.547-.183-.449.033-.96.482-1.143L6.883.065c.448-.182.96.034 1.142.483.183.449-.033.96-.482 1.143L1.208 4.264c-.109.044-.22.065-.33.065zM14.483 16.258c-.143 0-.288-.035-.423-.11-.424-.233-.579-.766-.345-1.19l2.201-3.997c.234-.424.768-.579 1.192-.345.424.234.579.767.345 1.191l-2.201 3.997c-.16.29-.46.454-.77.454z" transform="translate(65 32) translate(71) translate(0 43.626)"/>
                </g>
                <g fill="#FCF29C">
                    <path d="M7.212 20.184c-.138 0-.278-.032-.408-.101L.468 16.74c-.428-.226-.592-.757-.366-1.185.226-.429.756-.593 1.185-.367l6.335 3.343c.429.226.593.757.367 1.185-.157.298-.462.468-.777.468zM18.414 9.787c-.324 0-.636-.181-.789-.492l-3.93-8.032c-.212-.435-.032-.96.403-1.173.435-.213.96-.033 1.173.402l3.93 8.032c.213.435.033.96-.402 1.173-.124.06-.255.09-.385.09z" transform="translate(65 32) translate(71)"/>
                    <g>
                        <path d="M16.784 4.329c-.11 0-.222-.02-.33-.065l-6.336-2.573C9.67 1.508 9.453.997 9.636.548c.182-.449.694-.665 1.143-.483l6.335 2.574c.449.182.665.694.483 1.143-.139.34-.467.547-.813.547zM3.179 16.258c-.31 0-.61-.164-.77-.454l-2.2-3.997c-.235-.424-.08-.957.344-1.191.425-.234.958-.08 1.192.345l2.201 3.996c.234.425.08.958-.345 1.192-.134.074-.28.109-.422.109z" transform="translate(65 32) translate(71) translate(42.222 43.626)"/>
                    </g>
                </g>
                <path fill="#FFED59" d="M46.114 12.342L47.223 14.855 49.252 15.964 47.223 17.074 46.114 19.586 45.004 17.074 42.975 15.964 45.004 14.855z" transform="translate(65 32) translate(71)"/>
            </g>
        </g>
    </g>
</svg>
