<svg xmlns="http://www.w3.org/2000/svg" xmlns:xlink="http://www.w3.org/1999/xlink" width="255" height="234" viewBox="0 0 255 234">
    <defs>
        <rect id="prefix__a" width="255" height="234" x="0" y="0" rx="8"/>
    </defs>
    <g fill="none" fill-rule="evenodd">
        <mask id="prefix__b" fill="#fff">
            <use xlink:href="#prefix__a"/>
        </mask>
        <rect width="254" height="233" x=".5" y=".5" stroke="#CCC" rx="8"/>
        <text fill="#000" font-family="Montserrat-Medium, Montserrat" font-size="18" font-weight="400" mask="url(#prefix__b)">
            <tspan x="65.243" y="201">Diverticiencia</tspan>
        </text>
        <g fill-rule="nonzero">
            <path fill="#FFB233" d="M66.5 2C101.018 2 129 29.982 129 64.5S101.018 127 66.5 127 4 99.018 4 64.5 31.982 2 66.5 2z" transform="translate(61 35)"/>
            <g>
                <path fill="#EBEEEE" d="M57.045 19.523v-5.785c.565-.202.971-.738.971-1.375 0-.808-.652-1.465-1.457-1.465h-9.716c-.805 0-1.458.656-1.458 1.465 0 .637.407 1.173.97 1.375v5.798c-3.043.953-5.746 2.685-7.856 4.98-.082-.013 12.477 30.225 12.562 30.315l.64.012c9.929 0 17.976-8.088 17.976-18.066 0-8.107-5.312-14.966-12.632-17.254z" transform="translate(61 35) translate(0 58)"/>
                <path fill="#A546A0" d="M39.469 27.468c2.773-3.477 7.351-5.827 12.144-5.827 8.36 0 15.137 6.776 15.137 15.136s-6.776 15.137-15.137 15.137c-.62 0-1.536-.037-2.137-.11" transform="translate(61 35) translate(0 58)"/>
                <path fill="#872182" d="M56.984 38.242c-1.617 0-2.93 1.312-2.93 2.93s1.313 2.93 2.93 2.93c1.619 0 2.93-1.312 2.93-2.93s-1.312-2.93-2.93-2.93zm3.906-5.86c-1.078 0-1.953.876-1.953 1.954 0 1.08.876 1.953 1.953 1.953 1.079 0 1.954-.874 1.954-1.953 0-1.078-.875-1.953-1.954-1.953z" transform="translate(61 35) translate(0 58)"/>
                <path fill="#ECF0F0" d="M34.523 14.776v-8.76c0-.355-.072-.69-.188-1.007 1.205-.15 2.141-1.166 2.141-2.412 0-1.348-1.093-2.441-2.441-2.441H19.386c-1.348 0-2.441 1.093-2.441 2.441 0 1.247.936 2.262 2.141 2.412-.116.316-.188.652-.188 1.007V14.8L.343 59.726c-.568 1.547 1.313 2.93 2.93 2.93h46.875c1.618 0 3.499-1.444 2.93-2.93l-18.555-44.95z" transform="translate(61 35) translate(0 58)"/>
                <path fill="#E45136" d="M37.736 30.498c4.873 12.04 11.436 27.275 11.436 27.275.569 1.425-.336 1.954-1.953 1.954H6.203c-1.617 0-2.42-.447-1.953-1.954l11.058-27.32c6.235-5.424 12.118 1.993 22.428.045z" transform="translate(61 35) translate(0 58)"/>
                <path fill="#F36A51" d="M24.27 41.172c-2.966 0-5.371 2.405-5.371 5.371 0 2.967 2.405 5.371 5.37 5.371 2.968 0 5.372-2.404 5.372-5.371 0-2.966-2.405-5.371-5.371-5.371zm10.253-3.418c0-1.348-1.092-2.441-2.441-2.441-1.35 0-2.442 1.093-2.442 2.44 0 1.35 1.093 2.442 2.442 2.442 1.349 0 2.441-1.093 2.441-2.441zm2.93 9.277c-2.157 0-3.906 1.75-3.906 3.906 0 2.158 1.75 3.906 3.906 3.906 2.157 0 3.906-1.748 3.906-3.906 0-2.157-1.749-3.906-3.906-3.906z" transform="translate(61 35) translate(0 58)"/>
                <g fill="#BDBFBF">
                    <path d="M0 .977h15.625c0-.344-.07-.67-.18-.977H.18C.07.308 0 .633 0 .977zM27.458 8.699H38.144999999999996V9.699H27.458z" transform="translate(61 35) translate(0 58) translate(18.898 5.04)"/>
                </g>
            </g>
            <g>
                <path fill="#00366D" d="M5.218 56.853l-4.91-8.505c-.634-1.096-.258-2.498.838-3.13l8.505-4.91c1.094-.632 2.498-.26 3.131.838l4.91 8.506c.634 1.096.258 2.498-.838 3.13l-8.505 4.91c-1.102.636-2.502.252-3.131-.839z" transform="translate(61 35) translate(67 20)"/>
                <path fill="#01223C" d="M17.697 49.397L15.271 45 3 52.452l2.41 4.366c.62 1.125 1.999 1.52 3.084.865l8.377-5.06c1.08-.652 1.45-2.096.826-3.226z" transform="translate(61 35) translate(67 20)"/>
                <path fill="#004C9C" d="M14.644 53.869L7.306 41.275c-.59-1.013-.303-2.306.662-2.98L52.17 7.414c.525-.367 1.18-.498 1.807-.361.627.136 1.166.528 1.487 1.078l12.23 20.988c.32.55.393 1.21.2 1.815-.195.606-.637 1.103-1.22 1.37L17.58 54.791c-1.066.488-2.342.097-2.936-.922z" transform="translate(61 35) translate(67 20)"/>
                <path fill="#00366D" d="M17.604 55.788l49.071-22.797c.582-.27 1.024-.774 1.218-1.388.194-.615.122-1.283-.199-1.84L61.511 19 11 48.465l3.67 6.388c.594 1.034 1.87 1.43 2.934.935z" transform="translate(61 35) translate(67 20)"/>
                <path fill="#A733C1" d="M36.508 48.147c-1.187-.448-2.509.16-2.953 1.357l-9.41 25.371c-.443 1.197.16 2.53 1.347 2.978 1.187.448 2.509-.16 2.953-1.357l9.41-25.371c.443-1.197-.16-2.53-1.347-2.978z" transform="translate(61 35) translate(67 20)"/>
                <path fill="#613393" d="M41.492 48.147c1.187-.448 2.509.16 2.953 1.357l9.41 25.371c.443 1.197-.16 2.53-1.347 2.978-1.187.448-2.509-.16-2.953-1.357l-9.41-25.371c-.443-1.197.16-2.53 1.347-2.978z" transform="translate(61 35) translate(67 20)"/>
                <path fill="#1861C8" d="M65.135 33.853L50.31 8.346c-.638-1.096-.26-2.498.844-3.13l8.56-4.909c1.101-.631 2.513-.258 3.15.839L77.69 26.653c.638 1.096.26 2.498-.844 3.13l-8.56 4.91c-1.11.637-2.518.249-3.15-.84z" transform="translate(61 35) translate(67 20)"/>
                <path fill="#004C9C" d="M68.45 34.696l8.416-4.853c1.084-.625 1.456-2.01.83-3.094L70.326 14 58 21.147l7.353 12.72c.622 1.076 2.006 1.459 3.098.829z" transform="translate(61 35) translate(67 20)"/>
                <path fill="#D82EBE" d="M39.5 53c-5.238 0-9.5-4.262-9.5-9.5s4.262-9.5 9.5-9.5 9.5 4.262 9.5 9.5-4.262 9.5-9.5 9.5z" transform="translate(61 35) translate(67 20)"/>
                <path fill="#A733C1" d="M39 53V34c5.514 0 10 4.262 10 9.5S44.514 53 39 53z" transform="translate(61 35) translate(67 20)"/>
            </g>
            <g transform="translate(61 35) translate(19)">
                <circle cx="11.5" cy="7.5" r="7.5" fill="#C7E2FC"/>
                <circle cx="27.5" cy="27.5" r="15.5" fill="#C7E2FC"/>
                <path fill="#EBF7FE" d="M42 22c4.97 0 9-4.03 9-9s-4.03-9-9-9-9 4.03-9 9v.08c4.106 1.549 7.371 4.814 8.92 8.92H42zM40 28h-1.857c0-6.144-4.999-11.143-11.143-11.143V15c7.168 0 13 5.832 13 13z"/>
                <circle cx="47.5" cy="47.5" r="7.5" fill="#EBF7FE"/>
                <path fill="#C7E2FC" d="M52 48h-2c0-1.654-1.346-3-3-3v-2c2.757.001 5 2.243 5 5z"/>
                <path fill="#EBF7FE" d="M16 8h-2c0-1.654-1.346-3-3-3V3c2.757 0 5 2.242 5 5z"/>
                <path fill="#C7E2FC" d="M48 13h-1.714c0-2.363-1.923-4.286-4.286-4.286V7c3.309 0 6 2.692 6 6z"/>
                <circle cx="11.5" cy="51.5" r="3.5" fill="#C7E2FC"/>
                <circle cx="3.5" cy="34.5" r="3.5" fill="#C7E2FC"/>
                <g fill="#EBF7FE" transform="translate(3 4)">
                    <ellipse cx="3.636" cy="20.114" rx="3.636" ry="3.657"/>
                    <ellipse cx="46.364" cy="26.514" rx="2.727" ry="2.743"/>
                    <ellipse cx="27.273" cy="44.8" rx="2.727" ry="2.743"/>
                    <ellipse cx="24.545" cy="1.829" rx="1.818" ry="1.829"/>
                    <ellipse cx="8.182" cy="39.314" rx="1.818" ry="1.829"/>
                </g>
            </g>
        </g>
    </g>
</svg>
