<svg xmlns="http://www.w3.org/2000/svg" xmlns:xlink="http://www.w3.org/1999/xlink" width="260" height="71" viewBox="0 0 260 71">
    <defs>
        <path id="prefix__a" d="M55.95 27.892c0 15.404-12.487 27.891-27.89 27.891C12.654 55.783.167 43.296.167 27.892.168 12.488 12.655 0 28.059 0c7.408-.035 14.523 2.892 19.761 8.13 5.238 5.239 8.166 12.354 8.13 19.762z"/>
    </defs>
    <g fill="none" fill-rule="evenodd">
        <g>
            <g transform="translate(-18 -844) translate(24 851)">
                <rect width="229" height="55" x="15" y="1" fill="#00A2AA" rx="22"/>
                <text fill="#FFF" font-family="Montserrat-SemiBold, Montserrat" font-size="18" font-weight="500">
                    <tspan x="77" y="24">VIDA Y </tspan> <tspan x="77" y="46">MOVIMIENTO</tspan>
                </text>
                <g>
                    <g transform="translate(.624) translate(5.376)">
                        <mask id="prefix__b" fill="#fff">
                            <use xlink:href="#prefix__a"/>
                        </mask>
                        <use fill="#D22C80" fill-rule="nonzero" xlink:href="#prefix__a"/>
                        <g mask="url(#prefix__b)">
                            <g transform="translate(1.474 15.467)">
                                <path fill="#3B3688" fill-rule="nonzero" d="M35.463 28.193s-.894 1.353-.773 1.839c.25 1.036 2.5 2.097 3.587 2.308 1.34.258 4.765.643 5.723-.427.324-.367.075-1.957.075-1.957l-8.612-1.763z"/>
                                <g>
                                    <path fill="#3B3688" fill-rule="nonzero" d="M13.209 27.064c.968-.107 3.61-1.179 3.61-1.179l-.294 2.956c-2.747 2.939-8.027 2.218-8.986.096-.373-.821.549-3.109.549-3.109s2.785 1.493 5.12 1.236z" transform="translate(.238 .31)"/>
                                    <path fill="#3B3688" fill-rule="nonzero" d="M-0.886 34.318L14.742 34.318 14.742 38.059 -0.886 38.059z" transform="translate(.238 .31) rotate(-71.87 6.928 36.189)"/>
                                    <path fill="#624A40" d="M.408 10.101c.846 3.544 2.741 4.507 2.62 8.33-.037 1.13-1.073 2.061-1.271 3.586-.136 1.056.427 2.204 3.078 3.373 2.233.986 6.756-.29 6.465-2.64 0 0 1.793-8.37-1.392-11.97L3.48 8.326S.2 9.226.408 10.1z" transform="translate(.238 .31)"/>
                                    <path fill="#C8D4EA" d="M17.861 13.937c.028.025.026 0 0 0" transform="translate(.238 .31)"/>
                                    <path fill="#557FAF" d="M10.101 21.482L10.101 21.482 10.101 21.482 10.103 21.508 10.101 21.482" transform="translate(.238 .31)"/>
                                    <path fill="#FEAF46" fill-rule="nonzero" d="M7.008 17.273s3.548-2.855 6.527-3.388c.357-.065 1.196.196 1.437.693 1.107 2.28 2.906 6.296 1.763 12.098-1.2.433-2.455.703-3.727.804-2.118.142-4.517-.288-5.04-1.567 0 0 .763-1.927.7-3.345-.062-1.386-1.66-5.295-1.66-5.295z" transform="translate(.238 .31)"/>
                                    <path fill="#F7CFA9" d="M6.264 13.789c.268-.183.518-.39.747-.619.825-.634-.168-1.056-.592-1.888-.521-.949-1.057-1.815-2.254-1.36-.4.144-.968.234-1.35.824-.299.444-.483.95-.012 1.906.354.892 1.984 1.822 3.461 1.137z" transform="translate(.238 .31)"/>
                                    <path fill="#624A40" d="M10.726 2.815l2.524 4.383 1.057-.512c.362-3.019-3.35-5.44-3.35-5.44l-.23 1.569z" transform="translate(.238 .31)"/>
                                    <path fill="#F7CFA9" d="M3.678 9.521l.98 1.827c1.264 2.285 3.229 3.822 7.269 2.411l1.082-.516c1.717-1.174 2.611-2.534 2.37-3.867-.31-1.933-.91-1.892-1.572-3.055l-.994-1.83c-1.26-2.258-4.331-2.957-6.863-1.575-2.527 1.356-3.557 4.35-2.272 6.605z" transform="translate(.238 .31)"/>
                                    <path fill="#161F36" fill-rule="nonzero" d="M10.734 9.194c-.01 0-.018-.005-.025-.011-.012-.013-.012-.034 0-.047.031-.026.763-.645 1.323-.535.195.04.36.17.442.351.008.016.002.035-.014.044-.008.004-.017.005-.025.002-.009-.002-.016-.008-.02-.016-.074-.163-.221-.28-.396-.317-.527-.103-1.26.515-1.268.52-.005.005-.01.008-.017.009z" transform="translate(.238 .31)"/>
                                    <g>
                                        <path fill="#DB3945" d="M3.825 2.844c-1.237.566-3.59.203-3.78-.824C-.185.919 2.003 1.363 3.174.913c.722-.276 1.734-1.23 2.13-.738.685.816-.19 2.119-1.479 2.67z" transform="translate(.238 .31) translate(8.352 10.053)"/>
                                        <path fill="#FF514F" d="M4.623 2.373c-.25.202-.526.37-.82.5-1.011.454-2.617.34-3.347-.258.225-.09.797-.154 1.638-.341.942-.23 2.048-.432 2.53.099z" transform="translate(.238 .31) translate(8.352 10.053)"/>
                                        <path fill="#F5FAFE" d="M3.174.913C3.573.769 4.102.394 4.54.192l.179.632c-.266.65-.959.947-1.856 1.168-.03-.022-.034-.048-.063-.07-.577-.463-.929-.035-1.126.234-.57.055-1.143-.046-1.66-.29-.003-.167.083-.322.226-.407.63-.39 2.063-.197 2.934-.546z" transform="translate(.238 .31) translate(8.352 10.053)"/>
                                    </g>
                                    <path fill="#161F36" d="M12.84 7.105c.175-.054.217-.298.124-.547-.092-.25-.294-.351-.445-.3-.152.05-.217.298-.128.523.011.098.063.186.142.245.08.059.18.082.277.064.003.02.003.02.03.015z" transform="translate(.238 .31)"/>
                                    <path fill="#161F36" fill-rule="nonzero" d="M13.339 5.664c-.013 0-.026-.005-.036-.012-.099-.067-.18-.129-.255-.184-.344-.259-.517-.389-1.406-.353-.035 0-.065-.027-.068-.062-.001-.017.005-.034.017-.047.011-.013.027-.02.045-.021.937-.037 1.133.11 1.49.377.073.056.155.116.25.183.015.009.025.024.028.041.003.017 0 .035-.011.049-.012.018-.033.029-.054.029z" transform="translate(.238 .31)"/>
                                    <path fill="#624A40" d="M2.959 10.482c.618-.391 1.296-.498 1.718-.169.306.285.543.637.693 1.027.051.155.817-.686.845-1.008.015-.4.999-2.354.638-3.62-.135-.566-.42-1.087-.822-1.507.825.37 4.926-.786 5.696-.593.634.164 1.91.039 1.004-1.667C11.16.075 9.354.02 8.143.055c-1.503.029-2.909.491-3.83 1.51-1.804 1.954-2.84 5.24-2.84 5.4.088.725.934 3.87 1.486 3.517z" transform="translate(.238 .31)"/>
                                    <path fill="#624A40" d="M3.822 9.92c-.554.512-1.211.539-1.251 1.603-.068 1.069.295 1.355.295 1.355-.997-.64-1.832-1.502-2.44-2.52-.294-.472-.42-1.03-.358-1.584.14-1.449.265-3.48 2.54-4.134-.034-.046 1.628 4.897 1.214 5.28z" transform="translate(.238 .31)"/>
                                    <path fill="#161F36" d="M9.147 8.49c.176-.056.217-.3.124-.55-.093-.248-.294-.349-.446-.3-.151.05-.216.3-.126.523.092.251.272.38.448.327z" transform="translate(.238 .31)"/>
                                    <path fill="#161F36" fill-rule="nonzero" d="M7.627 7.819c-.009.002-.018.002-.027 0-.015-.008-.028-.02-.034-.037-.006-.016-.005-.034.002-.05.025-.054.619-1.33 1.598-1.1.034.01.055.044.048.08-.009.034-.044.056-.08.049-.868-.206-1.442 1.013-1.447 1.025-.012.021-.036.034-.06.033z" transform="translate(.238 .31)"/>
                                    <path fill="#F7CFA9" d="M9.296 15.693s2.355 1.007 3.013.671c.587-.3.255-2.288.255-2.288s-.698.31-1.54.636c-.608.267-1.187.596-1.728.98z" transform="translate(.238 .31)"/>
                                    <path fill="#F7CFA9" d="M9.791 13.801L10.426 15.58 12.049 14.817 11.102 13.646z" transform="translate(.238 .31)"/>
                                    <path fill="#3B3688" fill-rule="nonzero" d="M18.003 44.837c-.02-10.632-4.575-14.384-4.621-14.4l.05.01.592-2.416c.12.018 1.223-1.07 2.595-.092 2.285 1.634 5.104 8.088 5.127 16.89l-3.743.008z" transform="translate(.238 .31)"/>
                                </g>
                                <path fill="#FEAF46" fill-rule="nonzero" d="M15.08 16.59l-1.89-2.166.945 1.083-.947-1.083c1.463-1.388 2.688-3.008 3.625-4.794 1.125-2.183 1.704-4.606 1.688-7.061l2.872-.053c.023 2.935-.667 5.832-2.01 8.44-1.098 2.108-2.546 4.013-4.283 5.634z"/>
                                <path fill="#F7CFA9" fill-rule="nonzero" d="M21.894 3.721l-3.74-.904s.23-2.336.854-2.63c.832-.391 3.472 1.74 3.472 1.74l-.586 1.794z"/>
                                <path fill="#19B3E9" fill-rule="nonzero" d="M19.097 -0.453L20.679 -0.453 20.679 6.08 19.097 6.08z" transform="rotate(-76.4 19.888 2.813)"/>
                                <path fill="#19B3E9" fill-rule="nonzero" d="M25.053 3.902c-.226.928-.67 1.624-.995 1.547-.017-.004-.033-.01-.048-.017l-1.137-.275c-.017.002-.034.002-.05 0-.324-.08-.403-.897-.177-1.83.215-.894.634-1.567.953-1.547h.04l1.237.299c.324.072.402.892.177 1.823zM17.678 2.117c-.226.928-.67 1.626-.993 1.547-.017-.003-.033-.01-.048-.018l-1.138-.27c-.017.002-.034.002-.051 0-.324-.078-.402-.898-.177-1.83.217-.893.635-1.568.953-1.546h.04l1.238.3c.323.067.402.886.176 1.817z"/>
                                <path fill="#F7CFA9" fill-rule="nonzero" d="M18.088 4.003c-.204-.155-.294-1.23-.142-1.44.423-.582 1.754-.676 2.273-.422.169.118.29.293.339.493.015.14-.084.464-.212.523-.201.088-.804-.17-.875-.085-.072.085.057.394.057.394l2.37.608s-.107.49-.268.578c-.78.426-2.823-.099-3.542-.65z"/>
                                <path fill="#FEAF46" fill-rule="nonzero" d="M2.672 4.923s-.107 4.187 1.029 5.322l-.851.248s-1.633-4.47-.746-5.18l.568-.39z"/>
                                <path fill="#19A2AA" fill-rule="nonzero" d="M37.069 15.083s3.993.96 7.424 2.308c0 0 .377 4.127.408 5.77.03 1.606-.608 6.77-.608 6.77s-4.217.287-5.568-.05c-1.082-.27-3.964-2.056-3.964-2.056l1.41-4.451.898-8.29z"/>
                                <g>
                                    <path fill="#161F36" d="M1.957 2.858s-1.054 1.95-.178 4.85l1.107.344L4.652 3.35l-2.695-.49z" transform="translate(33.955 .928)"/>
                                    <path fill="#EFB892" d="M9.337 2.603c-2.284-.82-4.913-.176-6.134 1.568-.221.389-.39.805-.5 1.238l-.531 1.799c-.464 1.308-1.05 1.368-1.05 3.282.02 1.37 1.063 2.562 2.966 3.435.241.11 1.16.37 1.16.37 4.196.753 5.888-1.099 6.754-3.558l.7-1.949c.866-2.457-.663-5.203-3.365-6.185z" transform="translate(33.955 .928)"/>
                                    <path fill="#EFB892" d="M14.081 11.729c.295-1 .056-1.467-.31-1.856-.479-.512-1.06-.519-1.484-.584-1.26-.22-1.64.676-1.975 1.69-.31.895-1.238 1.44-.291 1.91.267.187.55.35.848.485 1.501.452 2.914-.717 3.212-1.645z" transform="translate(33.955 .928)"/>
                                    <path fill="#161F36" fill-rule="nonzero" d="M3.943 9.671h-.01c-.008-.002-.015-.007-.02-.015-.004-.008-.004-.017-.001-.025.048-.187.185-.34.366-.408.53-.197 1.36.31 1.392.332.008.005.013.012.015.02.002.009 0 .018-.004.025-.004.008-.012.013-.02.015-.009.002-.018 0-.025-.005-.01 0-.838-.51-1.338-.327-.162.062-.285.2-.328.368-.004.012-.015.02-.027.02z" transform="translate(33.955 .928)"/>
                                    <g>
                                        <path fill="#DB3945" d="M.165.27c.31-.538 1.474.254 2.217.401C3.604.906 5.689.11 5.649 1.26 5.59 2.303 3.412 3.024 2.054 2.662.696 2.3-.345 1.172.165.27z" transform="translate(33.955 .928) translate(2.784 10.827)"/>
                                        <path fill="#FF514F" d="M3.661 1.776c.858.037 1.412.03 1.652.075-.664.67-2.246 1.083-3.259.81-.306-.08-.598-.203-.87-.366.403-.594 1.512-.54 2.477-.52z" transform="translate(33.955 .928) translate(2.784 10.827)"/>
                                        <path fill="#F5FAFE" d="M5.313.716c.156.057.267.196.29.36-.365.309-.82.487-1.297.506-.23-.202-.756-.898-1.392.008-.025.054-.025.054-.063.068-.885-.05-1.617-.221-1.994-.817L.954.206c.464.116 1.016.4 1.456.504.89.155 2.287-.272 2.903.006z" transform="translate(33.955 .928) translate(2.784 10.827)"/>
                                    </g>
                                    <path fill="#161F36" d="M3.646 7.525c.044-.239-.055-.446-.202-.481-.146-.036-.35.131-.395.37-.045.237.055.446.2.48.174.048.353-.13.397-.37zM13.716 4.874C12.844-1.004 3.158-.612 1.049 1.372c-.619.563 1.345.747 1.345.747S.44 2.779.161 4.371c-.217.619.608.02 2.215-.088.263-.01.618 1.352.88 1.474.575.232 2.075-1.06 2.592-.985 2.705.395 4.362 1.382 4.317 1.978-.252.76.168 1.115.35 1.426.446.31-.333 1.437-.226 1.842.077.326 1.082.464 1.12.317.036-.147.07-.226.39-.566.407-.398 1.028-.405 1.71-.125.414.154 1.267-2.695 1.168-4.46-.08-.815-.867-.235-.961-.31z" transform="translate(33.955 .928)"/>
                                    <path fill="#161F36" d="M7.512 8.292c.045-.24-.055-.447-.2-.483-.146-.035-.353.132-.398.37-.045.238.055.447.2.482.205-.01.372-.166.398-.37z" transform="translate(33.955 .928)"/>
                                    <path fill="#161F36" fill-rule="nonzero" d="M8.468 7.757c-.022 0-.042-.011-.054-.03 0-.012-.761-1.149-1.568-.765-.033.015-.072.001-.087-.031-.015-.033-.002-.072.031-.087.911-.431 1.701.761 1.732.812.02.03.011.07-.018.09-.011.006-.023.01-.036.01zM2.632 6.898c-.025 0-.049-.014-.059-.037-.01-.023-.006-.05.012-.07.04-.044.986-1.096 1.856-.56.03.019.038.058.02.089-.01.014-.024.025-.04.028-.017.004-.034.001-.049-.008-.78-.478-1.684.527-1.7.537-.01.011-.024.019-.04.021z" transform="translate(33.955 .928)"/>
                                    <path fill="#EFB892" d="M8.202 13.685c.215.438-.31 1.872-.18 1.9.155 0 .387.083.401.207 0 .23-1.262.536-1.765.436-.202-.124-.812-.744-.9-.965 0-.23.364-.19.543-.273.18-.081.073-1.424.073-1.424s1.613-.319 1.828.12z" transform="translate(33.955 .928)"/>
                                </g>
                                <path fill="#FEAF46" fill-rule="nonzero" d="M48.03 27.242c-2.607 0-5.877-.173-9.337-.495-3.791-.353-7.345-.845-10.006-1.383-1.034-.194-2.055-.457-3.054-.786-.73-.258-1.468-.609-1.408-1.245.045-.492.14-1.514 9.316-1.082h.046l2.354.33-.142 1.057-2.32-.31c-4.298-.203-6.76-.053-7.772.155 1.482.608 6.154 1.566 13.097 2.212 6.863.64 11.6.572 13.224.26-1.082-.402-3.808-1.038-8.661-1.684l.14-1.058c2.77.37 5.151.773 6.882 1.177 2.736.63 3.225 1.082 3.168 1.689-.06.635-.85.843-1.614.963-1.049.135-2.106.2-3.164.195-.24.003-.492.005-.749.005z"/>
                                <path fill="#19A2AA" fill-rule="nonzero" d="M23.843 19.24l-1.839-1.626c5.092-5.756 15.639-2.373 16.086-2.226l-.774 2.332.384-1.166-.382 1.166c-.09-.029-9.455-3.025-13.475 1.52z"/>
                                <circle cx="23.025" cy="18.545" r="1.655" fill="#EFB892" fill-rule="nonzero"/>
                                <path fill="#EFB892" fill-rule="nonzero" d="M21.845 17.34s-1.126 1.02-1.262 1.488c-.088.3.258 1.121.258 1.121s1.721 1.32 2.408 1.329c.35 0 1.07-.554 1.066-.903 0-.129-.4-.325-.4-.325l.262-.29.155.214.29.037s.426-.619.45-.916c.038-.437.025-1.027-.765-1.604l-2.462-.151z"/>
                                <path fill="#19A2AA" fill-rule="nonzero" d="M41.808 24.554c-.656.006-1.2-.505-1.237-1.16-.036-.654.45-1.222 1.102-1.287 3.67-.413 5.984-.837 7.437-1.193l-5.355-1.488c-.653-.181-1.035-.858-.854-1.51.181-.655.565-.807 1.216-.62l8.722 2.112c.366.1.665.366.809.718.163.423.117.9-.125 1.283-.35.591-1.17 1.974-11.576 3.143-.046.004-.093.004-.14.002z"/>
                                <circle cx="43.09" cy="23.026" r="1.605" fill="#EFB892" fill-rule="nonzero"/>
                                <path fill="#EFB892" fill-rule="nonzero" d="M42.72 21.437s-1.409.048-2.516.668c-.391.22-.744 1.083-.744 1.083s.72 1.32 1.421 1.522c0 0 1.94.233 2.743-.135l-.904-3.138z"/>
                                <path fill="#3B3688" fill-rule="nonzero" d="M34.859 29.279s-4.515 7.09-6.12 10.952c0 0 3.829-.283 5.284-.835 0 0 3.344-7.257 4.749-7.66l-3.913-2.457zM44.13 31.449c-.066 1.045-.235 2.081-.506 3.093l-1.538 1.137-2.977 1.672.464-5.284s4.638-1.894 4.556-.618z"/>
                            </g>
                        </g>
                    </g>
                    <g fill="#19B3E9" fill-rule="nonzero">
                        <path d="M3.95 -0.055L5.505 -0.049 5.53 6.471 3.975 6.465z" transform="translate(.624) translate(0 41.216) rotate(-76.4 4.74 3.208)"/>
                        <path d="M9.899 4.279c-.226.911-.67 1.595-.994 1.519-.016-.005-.032-.011-.048-.019l-1.135-.27c-.017.002-.034.002-.051 0-.323-.076-.402-.881-.178-1.796.217-.88.635-1.54.953-1.519h.04l1.237.294c.32.071.4.876.176 1.79zM2.533 2.527c-.226.912-.67 1.595-.994 1.52-.016-.004-.033-.01-.048-.018L.356 3.758c-.017.002-.034.002-.051 0-.323-.078-.402-.882-.176-1.798C.343 1.082.762.422 1.08.441h.04l1.236.294c.323.072.4.876.177 1.792z" transform="translate(.624) translate(0 41.216)"/>
                    </g>
                    <path fill="#F7CFA9" fill-rule="nonzero" d="M4.429 42.56s-1.624 2.12-1.232 2.896c.353.702 1.954 1.676 2.74 1.577.376-.046 1.079-1.05 1.079-1.05s-.9-.974-.17-1.474l.77.041s-.63-.739-.716-1.042c-.017-.214-.008-.429.028-.64l-2.502-.305" transform="translate(.624)"/>
                    <path fill="#FEAF46" fill-rule="nonzero" d="M6.873 42.672s-1.218.414-1.622.323c-.372-.083-1.219-.91-1.219-.91 1.029-4.813 3.926-7.336 6.174-8.605 2.392-1.35 5.148-1.862 5.922-1.61l-.918 2.71c.138.047.283.07.429.07-.064.002-7.17.565-8.766 8.022z" transform="translate(.624)"/>
                </g>
            </g>
        </g>
        <path fill="#F57F00" fill-rule="nonzero" d="M1106.766-84.805l20.72 4.686-16.18 13.763-1.846-7.507c-51 22.24-161.16 121.925-331.274 296.196-72.66 74.434-155.907 162.07-256.022 269.203-75.847 81.165-138.653 148.968-281.562 303.682C93.628 954.332 29.076 1024.009-48.722 1107.202c-102.697 109.818-187.773 199.216-261.58 274.52-173.404 176.926-282.39 273.598-328.107 286.648l-.09.024c.01 4.663-3.419 8.739-8.167 9.412-5.195.737-10.003-2.877-10.74-8.072-.737-5.195 2.877-10.003 8.072-10.74 4.623-.655 8.939 2.134 10.353 6.416 45.035-13.063 154.003-109.75 326.537-285.787 73.787-75.285 158.848-164.667 261.531-274.47 77.793-83.187 142.341-152.86 289.311-311.97C381.311 638.463 444.12 570.657 519.972 489.487 620.101 382.34 703.362 294.69 776.04 220.237 947.034 45.064 1057.379-54.73 1108.736-76.819l-1.97-7.986zm-1755.679 1746.77c-3.554.503-6.027 3.793-5.523 7.348.504 3.554 3.794 6.027 7.349 5.523 3.554-.504 6.027-3.794 5.523-7.349-.504-3.554-3.794-6.027-7.349-5.523z"/>
    </g>
</svg>
