<svg xmlns="http://www.w3.org/2000/svg" width="260" height="71" viewBox="0 0 260 71">
    <g fill="none" fill-rule="evenodd">
        <g transform="translate(-18 -25) translate(28 31)">
            <rect width="229" height="55" x="11" y="2" fill="#6E79E0" rx="22"/>
            <text fill="#FFF" font-family="Montserrat-SemiBold, Montserrat" font-size="18" font-weight="500">
                <tspan x="73" y="36">DIVERTICIENCIA</tspan>
            </text>
            <g fill-rule="nonzero">
                <path fill="#FFB233" d="M30 1c15.464 0 28 12.536 28 28S45.464 57 30 57 2 44.464 2 29 14.536 1 30 1z"/>
                <g>
                    <path fill="#EBEEEE" d="M25.556 8.746V6.155c.253-.09.435-.331.435-.616 0-.362-.292-.657-.653-.657h-4.353c-.36 0-.652.294-.652.657 0 .285.182.525.434.616v2.597c-1.363.427-2.574 1.203-3.52 2.231-.036-.006 5.59 13.541 5.628 13.581l.287.006c4.448 0 8.053-3.624 8.053-8.094 0-3.632-2.38-6.705-5.659-7.73z" transform="translate(.208 26.088)"/>
                    <path fill="#A546A0" d="M17.682 12.306c1.242-1.558 3.294-2.611 5.44-2.611 3.746 0 6.782 3.036 6.782 6.781 0 3.746-3.036 6.782-6.781 6.782-.278 0-.688-.017-.958-.05" transform="translate(.208 26.088)"/>
                    <path fill="#872182" d="M25.529 17.133c-.724 0-1.313.587-1.313 1.312 0 .725.588 1.313 1.313 1.313s1.313-.588 1.313-1.313-.588-1.313-1.313-1.313zm1.75-2.625c-.483 0-.875.392-.875.875s.392.875.875.875.875-.392.875-.875c0-.484-.392-.875-.875-.875z" transform="translate(.208 26.088)"/>
                    <path fill="#ECF0F0" d="M15.466 6.62V2.695c0-.159-.032-.31-.084-.451.54-.067.96-.522.96-1.08 0-.604-.49-1.094-1.094-1.094H8.685c-.604 0-1.094.49-1.094 1.094 0 .558.42 1.013.96 1.08-.052.142-.085.292-.085.451V6.63L.154 26.757c-.255.694.588 1.313 1.312 1.313h21c.725 0 1.568-.647 1.313-1.313L15.466 6.62z" transform="translate(.208 26.088)"/>
                    <path fill="#E45136" d="M16.906 13.663c2.183 5.394 5.123 12.22 5.123 12.22.255.638-.15.875-.875.875H2.779c-.724 0-1.084-.2-.875-.875l4.954-12.24c2.793-2.43 5.429.893 10.048.02z" transform="translate(.208 26.088)"/>
                    <path fill="#F36A51" d="M10.873 18.445c-1.329 0-2.406 1.078-2.406 2.406 0 1.33 1.077 2.407 2.406 2.407 1.33 0 2.406-1.078 2.406-2.407 0-1.328-1.077-2.406-2.406-2.406zm4.593-1.531c0-.604-.49-1.094-1.093-1.094-.605 0-1.094.49-1.094 1.094 0 .604.49 1.093 1.094 1.093.604 0 1.093-.49 1.093-1.093zm1.313 4.156c-.966 0-1.75.784-1.75 1.75 0 .967.784 1.75 1.75 1.75s1.75-.783 1.75-1.75c0-.966-.784-1.75-1.75-1.75z" transform="translate(.208 26.088)"/>
                    <g fill="#BDBFBF">
                        <path d="M0 .438h7c0-.155-.032-.3-.08-.438H.08C.032.138 0 .283 0 .438zM12.301 3.897H17.089V4.897H12.301z" transform="translate(.208 26.088) translate(8.466 2.257)"/>
                    </g>
                </g>
                <g>
                    <path fill="#00366D" d="M2.338 25.47l-2.2-3.81c-.284-.491-.116-1.12.376-1.403l3.81-2.2c.49-.282 1.119-.115 1.402.377l2.2 3.81c.284.491.116 1.119-.376 1.402l-3.81 2.2c-.493.285-1.12.113-1.402-.376z" transform="translate(30.224 9.064)"/>
                    <path fill="#01223C" d="M7.928 22.13l-1.087-1.97-5.497 3.338 1.08 1.957c.277.503.895.68 1.381.387l3.753-2.267c.484-.292.65-.94.37-1.445z" transform="translate(30.224 9.064)"/>
                    <path fill="#004C9C" d="M6.56 24.133l-3.287-5.642c-.264-.454-.136-1.033.297-1.335L23.372 3.321c.235-.164.53-.223.81-.161.28.06.522.236.666.483l5.479 9.402c.144.247.176.542.09.814-.088.271-.286.494-.547.613L7.876 24.546c-.478.219-1.05.044-1.315-.413z" transform="translate(30.224 9.064)"/>
                    <path fill="#00366D" d="M7.887 24.993L29.87 14.78c.26-.121.458-.347.545-.622.087-.275.055-.574-.089-.824l-2.77-4.822-22.629 13.2 1.644 2.862c.266.463.838.64 1.315.42z" transform="translate(30.224 9.064)"/>
                    <path fill="#A733C1" d="M16.356 21.57c-.532-.2-1.124.072-1.323.608l-4.216 11.366c-.198.536.071 1.133.603 1.334.532.2 1.124-.072 1.323-.608l4.216-11.366c.198-.536-.071-1.134-.603-1.334z" transform="translate(30.224 9.064)"/>
                    <path fill="#613393" d="M18.588 21.57c.532-.2 1.124.072 1.323.608l4.216 11.366c.198.536-.071 1.133-.603 1.334-.532.2-1.124-.072-1.323-.608l-4.216-11.366c-.198-.536.071-1.134.603-1.334z" transform="translate(30.224 9.064)"/>
                    <path fill="#1861C8" d="M29.18 15.166L22.54 3.74c-.286-.491-.116-1.119.378-1.402l3.835-2.2c.493-.282 1.126-.115 1.411.376l6.642 11.428c.286.49.116 1.119-.378 1.402l-3.835 2.2c-.497.285-1.128.111-1.411-.377z" transform="translate(30.224 9.064)"/>
                    <path fill="#004C9C" d="M30.666 15.544l3.77-2.174c.486-.28.652-.901.372-1.386l-3.302-5.712-5.522 3.202 3.294 5.698c.279.482.899.654 1.388.372z" transform="translate(30.224 9.064)"/>
                    <path fill="#D82EBE" d="M17.696 23.744c-2.347 0-4.256-1.91-4.256-4.256 0-2.347 1.91-4.256 4.256-4.256 2.347 0 4.256 1.91 4.256 4.256 0 2.347-1.91 4.256-4.256 4.256z" transform="translate(30.224 9.064)"/>
                    <path fill="#A733C1" d="M17.472 23.744v-8.512c2.47 0 4.48 1.91 4.48 4.256 0 2.347-2.01 4.256-4.48 4.256z" transform="translate(30.224 9.064)"/>
                </g>
                <g transform="translate(8.72 .104)">
                    <circle cx="5.152" cy="3.36" r="3.36" fill="#C7E2FC"/>
                    <circle cx="12.32" cy="12.32" r="6.944" fill="#C7E2FC"/>
                    <path fill="#EBF7FE" d="M18.816 9.856c2.227 0 4.032-1.805 4.032-4.032 0-2.227-1.805-4.032-4.032-4.032-2.227 0-4.032 1.805-4.032 4.032v.036c1.84.694 3.302 2.157 3.996 3.996h.036zM17.92 12.544h-.832c0-2.753-2.24-4.992-4.992-4.992V6.72c3.211 0 5.824 2.613 5.824 5.824z"/>
                    <circle cx="21.28" cy="21.28" r="3.36" fill="#EBF7FE"/>
                    <path fill="#C7E2FC" d="M23.296 21.504H22.4c0-.741-.603-1.344-1.344-1.344v-.896c1.235 0 2.24 1.005 2.24 2.24z"/>
                    <path fill="#EBF7FE" d="M7.168 3.584h-.896c0-.741-.603-1.344-1.344-1.344v-.896c1.235 0 2.24 1.005 2.24 2.24z"/>
                    <path fill="#C7E2FC" d="M21.504 5.824h-.768c0-1.059-.861-1.92-1.92-1.92v-.768c1.482 0 2.688 1.206 2.688 2.688z"/>
                    <circle cx="5.152" cy="23.072" r="1.568" fill="#C7E2FC"/>
                    <circle cx="1.568" cy="15.456" r="1.568" fill="#C7E2FC"/>
                    <g fill="#EBF7FE" transform="translate(1.344 1.792)">
                        <ellipse cx="1.629" cy="9.011" rx="1.629" ry="1.638"/>
                        <ellipse cx="20.771" cy="11.878" rx="1.222" ry="1.229"/>
                        <ellipse cx="12.218" cy="20.07" rx="1.222" ry="1.229"/>
                        <circle cx="10.996" cy=".819" r="1"/>
                        <circle cx="3.665" cy="17.613" r="1"/>
                    </g>
                </g>
            </g>
        </g>
    </g>
</svg>
