<svg xmlns="http://www.w3.org/2000/svg" xmlns:xlink="http://www.w3.org/1999/xlink" width="260" height="72" viewBox="0 0 260 72">
    <defs>
        <filter id="prefix__c" width="1439.3%" height="1439.3%" x="-669.6%" y="-669.6%" filterUnits="objectBoundingBox">
            <feGaussianBlur in="SourceGraphic" stdDeviation="2.315"/>
        </filter>
        <filter id="prefix__d" width="1439.3%" height="1439.3%" x="-669.6%" y="-669.6%" filterUnits="objectBoundingBox">
            <feGaussianBlur in="SourceGraphic" stdDeviation="2.315"/>
        </filter>
        <circle id="prefix__a" cx="28.01" cy="27.969" r="27.969"/>
    </defs>
    <g fill="none" fill-rule="evenodd">
        <g transform="translate(-18 -374) translate(30 381)">
            <rect width="229" height="55" x="9" y="1" fill="#00B0ED" rx="22"/>
            <text fill="#FFF" font-family="Montserrat-SemiBold, Montserrat" font-size="18" font-weight="500">
                <tspan x="71" y="24">CONVIVENCIA </tspan> <tspan x="71" y="46">EN EL HOGAR</tspan>
            </text>
            <g transform="translate(.448 .448)">
                <mask id="prefix__b" fill="#fff">
                    <use xlink:href="#prefix__a"/>
                </mask>
                <use fill="#6E79E0" xlink:href="#prefix__a"/>
                <g mask="url(#prefix__b)">
                    <g>
                        <g transform="translate(-4.067 10.95)">
                            <path fill="#6F2E81" fill-rule="nonzero" d="M35.811 45.822L32.745 46.719 32.515 43.58 31.608 43.58 31.379 46.615 27.614 45.384 28.188 39.93 35.289 39.847z"/>
                            <path fill="#1C117A" fill-rule="nonzero" d="M19.501 34.747L20.2 42.985 8.645 39.847 11.044 33.829z"/>
                            <path fill="#5C5CB4" fill-rule="nonzero" d="M43.705 34.747L43.361 44.341 54.957 42.339 53.299 34.226z"/>
                            <path fill="#3F4E66" fill-rule="nonzero" d="M52.507 14.516s3.013 1.46 1.856 4.318l-3.66.333-.991-.417s-.073-2.711 1.397-3.9l1.398-.334z"/>
                            <path fill="#EDE579" fill-rule="nonzero" d="M50.494 14.37l.083.782s1.7-.25 2.086-.72l-.313-1.178-1.856 1.116z"/>
                            <path fill="#3F4E66" fill-rule="nonzero" d="M49.357 14.787s8.343.365 3.932-10.668l-2.941 3.556-.99 7.112z"/>
                            <path fill="#F9DDB7" fill-rule="nonzero" d="M48.992 13.849L49.253 17.968 47.324 17.728 46.5 14.005z"/>
                            <path fill="#F2E26B" fill-rule="nonzero" d="M53.873 35.008s-2.764 1.105-5.413 1.408c-2.137.24-5.1-1.147-5.1-1.147l.178-16.216c-.031-1.106.845-2.024 1.96-2.055h.147l4.911-.073.595-.01c1.084-.021 1.992.834 2.033 1.919l.689 16.174z"/>
                            <path fill="#F9DDB7" fill-rule="nonzero" d="M45.645 16.998c.25.845 1.168 1.502 2.304 1.585 1.314.094 2.451-.636 2.607-1.658l-4.911.073z"/>
                            <path fill="#684642" fill-rule="nonzero" d="M48.085 11.127l-2.326.083c-.24.01-.438-.177-.448-.417-.01-.24.177-.438.417-.448l2.326-.084c.24-.01.438.178.448.418.01.25-.177.448-.417.448z"/>
                            <path fill="#F9DDB7" fill-rule="nonzero" d="M48.064 15.455c2.378-.532 3.932-2.826 3.535-5.225l-.605-3.796c-.406-2.513-2.763-4.223-5.276-3.816l-.5.083c-2.514.407-4.224 2.763-3.818 5.277l.616 3.796c.406 2.513 2.763 4.223 5.276 3.816l.5-.083c.095-.01.178-.031.272-.052"/>
                            <circle cx="48.66" cy="10.828" r="1" fill="#E966E2" filter="url(#prefix__c)"/>
                            <circle cx="43.474" cy="12.384" r="1" fill="#E966E2" filter="url(#prefix__d)"/>
                            <circle cx="43.172" cy="9.447" r="1" fill="#684642" fill-rule="nonzero" transform="rotate(-11.21 43.172 9.447)"/>
                            <circle cx="47.044" cy="8.758" r="1" fill="#684642" fill-rule="nonzero" transform="rotate(-12.022 47.044 8.758)"/>
                            <path fill="#684642" fill-rule="nonzero" d="M45.929 12.964c.342-.094.606-.427.834-.71.05-.064.033-.146-.03-.196-.065-.05-.147-.033-.197.031-.18.23-.393.548-.662.616-.27.069-.595-.114-.867-.237-.07-.028-.15 0-.177.07-.028.069 0 .148.07.176.31.158.695.331 1.029.25z"/>
                            <circle cx="51.474" cy="9.166" r="1.742" fill="#F9DDB7" fill-rule="nonzero"/>
                            <path fill="#E2C39F" fill-rule="nonzero" d="M50.984 9.146c.24-1.283 1.429-.793 1.429-.793s-.157-.01-.72.344c-.177.115-.709.449-.709.449z"/>
                            <path fill="#684642" fill-rule="nonzero" d="M50.974 9.23c.041 0 .073-.032.083-.064.073-.354.219-.594.448-.72.386-.208.866-.01.876-.01.042.021.094 0 .105-.041.01-.042 0-.094-.042-.104-.02-.01-.563-.23-1.012.02-.27.146-.448.428-.531.835-.01.041.02.083.062.093l.01-.01z"/>
                            <path fill="#3F4E66" fill-rule="nonzero" d="M52.85 8.072s-2.127-1.513-2.7.72l-.042.74-.71-3.338c-.083-1.397-1.282-2.356-4.64-1.752-1.282.23-2.617 1.22-2.847 3.16-.093.824-.02 3.4-.02 3.4s-.95-4.443-.574-5.944c.438-1.731 2.471-3.963 6.205-3.473.135.021 4.37.459 5.6 2.138.886 1.2-.271 4.349-.271 4.349z"/>
                            <path fill="#3F4E66" fill-rule="nonzero" d="M47.543 4.234s.573 1.794 2.158 2.388l.5-.532-.5-1.376-1.178-.668-.98.188z"/>
                            <path fill="#684642" fill-rule="nonzero" d="M42.912 8.02c.23-.074.438-.22.595-.407.031-.042.02-.094-.021-.115h-.01c-.042-.02-.105-.01-.136.031-.25.324-.678.449-1.064.324-.052-.01-.104.01-.125.052-.02.041 0 .094.042.114h.01c.24.063.48.063.71 0zM46.917 7.477c.24-.031.48-.125.667-.281.032-.032.042-.084.01-.115l-.01-.01c-.041-.032-.093-.032-.135 0-.303.26-.751.302-1.106.104-.041-.021-.104-.01-.135.031-.031.042-.021.094.02.115 0 0 .011 0 .011.01.209.115.438.167.678.146z"/>
                            <path fill="#F2E26B" fill-rule="nonzero" d="M62.643 32.526c.824 0 1.491-.668 1.491-1.491 0-.355-.125-.7-.354-.97L53.049 17.457c-.532-.636-1.47-.72-2.107-.188-.636.532-.72 1.47-.187 2.107.01.01.01.02.02.02l10.731 12.608c.282.334.699.522 1.137.522zM36.176 30.857c.354-.052.688-.23.928-.5l8.499-10.637c.532-.636.448-1.575-.188-2.107-.615-.521-1.533-.458-2.065.146l-8.499 10.637c-.542.626-.48 1.565.146 2.107.324.281.751.417 1.179.354z"/>
                            <path stroke="#684642" stroke-linecap="round" stroke-linejoin="round" stroke-width=".579" d="M46.208 9.97s-1.658-.25-1.481 1.032"/>
                            <path fill="#F9DDB7" fill-rule="nonzero" d="M15.215 13.776L14.965 17.895 16.894 17.655 17.707 13.932z"/>
                            <path fill="#5C5CB4" fill-rule="nonzero" d="M20.68 18.98l-.439 16.195s-1.96 1.22-4.484 1.168c-1.397-.032-5.412-1.408-5.412-1.408l.688-16.174c.042-1.085.95-1.94 2.034-1.92l.594.011c.157 1.022 1.293 1.752 2.607 1.658 1.137-.083 2.055-.74 2.305-1.585h.125c1.105.01 1.992.928 1.981 2.034v.02z"/>
                            <path fill="#F9DDB7" fill-rule="nonzero" d="M18.573 16.925c-.25.845-1.168 1.502-2.305 1.585-1.314.094-2.45-.636-2.607-1.658l4.912.073z"/>
                            <path fill="#684642" fill-rule="nonzero" d="M16.258 9.594l2.555.136c.26.01.459.24.448.5-.01.26-.24.459-.5.449l-2.555-.136c-.261-.01-.46-.24-.449-.5.021-.261.24-.46.5-.449z"/>
                            <path fill="#F9DDB7" fill-rule="nonzero" d="M18.98 1.262l.542.094c2.742.49 4.567 3.118 4.077 5.87l-.75 4.151c-.49 2.743-3.119 4.568-5.872 4.078l-.542-.094c-2.743-.49-4.568-3.118-4.077-5.871l.75-4.15c.49-2.754 3.118-4.579 5.872-4.078z"/>
                            <circle cx="21.638" cy="8.786" r="1" fill="#684642" fill-rule="nonzero" transform="rotate(-77.708 21.638 8.786)"/>
                            <circle cx="17.4" cy="7.965" r="1" fill="#684642" fill-rule="nonzero" transform="rotate(-76.909 17.4 7.965)"/>
                            <path fill="#684642" fill-rule="nonzero" d="M18.629 12.668c-.386-.031-.755-.394-1.057-.644-.063-.063-.063-.157-.01-.22.051-.062.156-.062.218-.01.246.219.536.548.849.56.298.01.617-.287.872-.466.073-.041.167-.031.208.042.042.073.032.167-.041.209-.292.219-.664.54-1.04.53z"/>
                            <path fill="#684642" fill-rule="nonzero" d="M18.416 10.616c-.73-.292-2.388-.188-2.972 1.022 0 0 2.284.073 2.952-.24 0 0 .083.438.688.146 0 0 .532.146 1.084.355.407.156.814.406 1.074.302.595-.24-.844-1.606-2.116-1.512l-.324.198c-.104-.104-.24-.198-.386-.271z"/>
                            <circle cx="12.535" cy="8.311" r="1.919" fill="#F9DDB7" fill-rule="nonzero"/>
                            <path fill="#E2C39F" fill-rule="nonzero" d="M13.067 8.3c-.24-1.407-1.554-.896-1.554-.896s.167-.01.782.396c.198.126.772.5.772.5z"/>
                            <path fill="#684642" fill-rule="nonzero" d="M13.077 8.395c-.042 0-.073-.031-.083-.073-.073-.396-.23-.668-.47-.803-.417-.24-.949-.031-.959-.031-.042.02-.094 0-.115-.053-.02-.041 0-.093.052-.114.021-.01.616-.24 1.106.041.292.167.49.48.563.929.01.052-.02.093-.073.104h-.02zM11.961 6.497s1.846.135 2.023 1.439l.032.813 1-3.869c.074-.292.324-.5.616-.531.824-.084 2.545-.199 4.12.041 1.449.22 2.763 1.022 3.2 1.335l.074 4.88 1.668-6.684c.073-.282.01-.594-.177-.813-.834-.98-3.39-3.473-7.498-3.014-.25.031-.417.26-.386.5v.021l.073.397-4.14 1.115c-.302.084-.51.355-.521.668l-.084 3.702z"/>
                            <path fill="#684642" fill-rule="nonzero" d="M21.941 7.237c-.25-.083-.48-.25-.646-.459-.032-.041-.021-.093.02-.125 0 0 .01 0 .01-.01.053-.031.116-.01.147.031.26.355.73.511 1.157.376.053-.021.115.01.136.062.02.052 0 .104-.052.115h-.01c-.25.083-.522.083-.762.01zM17.561 6.56c-.27-.032-.521-.147-.72-.324-.041-.031-.041-.094-.01-.125l.01-.01c.042-.032.105-.032.147 0 .333.302.813.354 1.21.135.052-.031.114-.01.145.042.032.042.01.104-.03.125 0 0-.011 0-.011.01-.22.115-.48.167-.74.146z"/>
                            <path fill="#5C5CB4" fill-rule="nonzero" d="M1.575 32.453c-.824 0-1.492-.668-1.492-1.491 0-.355.126-.7.355-.97l10.72-12.608c.532-.636 1.47-.72 2.107-.188.636.532.72 1.47.188 2.107-.01.01-.01.02-.021.02L2.712 31.932c-.282.334-.7.522-1.137.522zM26.603 31.931c-.345-.104-.647-.323-.845-.636l-7.383-11.669c-.438-.699-.24-1.616.459-2.065.698-.438 1.616-.24 2.064.46l7.384 11.668c.438.7.24 1.617-.46 2.065-.364.24-.813.303-1.22.177z"/>
                            <path stroke="#684642" stroke-linecap="round" stroke-linejoin="round" stroke-width=".579" d="M18.552 8.979s1.658-.25 1.48 1.032"/>
                            <path fill="#FF881D" fill-rule="nonzero" d="M34.476 25.34h-5.318c-.751 0-1.356.606-1.356 1.356v13.755s2.576 1.022 4.296.856c1.346-.136 3.723-.856 3.723-.856V26.696c0-.74-.605-1.345-1.345-1.355z"/>
                            <path fill="#E2C39F" fill-rule="nonzero" d="M31.191 23.443H32.588V25.779H31.191z"/>
                            <path fill="#F9DDB7" fill-rule="nonzero" d="M31.931 24.799c-2.992 0-5.422-2.42-5.422-5.402v-2.524c0-2.993 2.43-5.423 5.422-5.423 2.993 0 5.423 2.43 5.423 5.423v2.503c0 2.993-2.43 5.423-5.423 5.423z"/>
                            <circle cx="37.271" cy="18.761" r="1.752" fill="#F9DDB7" fill-rule="nonzero"/>
                            <path fill="#684642" fill-rule="nonzero" d="M26.206 17.864c-.01.041-.01.094-.01.135-.021-.052-.042-.125-.073-.219.02.032.052.063.083.084zM26.217 18.062l.02.73c-.052-.26-.062-.532-.041-.793.01.042.02.063.02.063z"/>
                            <path fill="#543734" fill-rule="nonzero" d="M37.771 17.28c-.031.125-.125.23-.24.281l-.344.136s-.302-.115-.302-.23c-.052-1.188-.542-2.325-1.377-3.18-.74.198-1.49.333-2.242.427l-5.443.355-.042.031c-.386.678-.813 1.69-.834 2.826 0 .094-.209.188-.209.188l-.47-.219c-.02-.01-.04-.02-.062-.042-.031-.02-.062-.052-.083-.083-.042-.125-.104-.303-.157-.5-.302-.96-.73-2.587-.677-3.661.052 1.053.427 2.409.677 3.264.063.198.115.375.157.5.02.032.052.063.083.084.021.02.042.031.063.042l.47.219s.208-.084.208-.188c.02-1.137.448-2.148.834-2.826l.042-.031 5.443-.355c.762-.083 1.512-.23 2.242-.427.835.855 1.325 1.991 1.377 3.18 0 .115.302.23.302.23l.344-.136c.126-.042.22-.156.24-.282.146-.625.24-1.272.261-1.918.01.771-.073 1.553-.26 2.315z"/>
                            <path fill="#684642" fill-rule="nonzero" d="M37.813 13.254l-.125.094c.219.5.334 1.053.344 1.596v.01c.01.782-.073 1.564-.26 2.326-.032.125-.126.23-.24.281l-.345.136s-.302-.115-.302-.23c-.052-1.188-.542-2.325-1.377-3.18-.74.198-1.49.333-2.242.427l-5.443.355-.042.031c-.386.678-.813 1.69-.834 2.826 0 .094-.209.188-.209.188l-.47-.219c-.02-.01-.04-.02-.062-.042-.031-.02-.062-.052-.083-.083-.042-.125-.104-.303-.157-.5-.302-.96-.73-2.587-.677-3.661v-.01c.02-.428.125-.772.344-.95.083-.062.24-.041.417.021.375.115.302-.093.407-.469.208-.678.531-1.595.865-1.856 2.242-1.72 10.752-1.46 11.471 1.314.021.073.042.146.042.219 0 0-.042.678-1.022 1.376zM26.123 17.78c-.052-.052-.084-.125-.104-.198-.021-.083-.042-.188-.063-.302.063.198.115.375.167.5zM34.643 18.604c-.355-.01-.699-.125-.98-.344-.053-.063-.042-.146.01-.198.042-.042.115-.042.167-.01.459.364 1.116.364 1.585 0 .063-.053.146-.042.198.01.052.052.042.146-.01.198l-.01.01c-.282.209-.616.334-.96.334z"/>
                            <path fill="#684642" fill-rule="nonzero" d="M29.397 18.604c-.354-.01-.698-.125-.98-.344-.052-.063-.042-.146.01-.198.042-.042.115-.042.167-.01.46.364 1.116.364 1.586 0 .062-.053.146-.042.198.01.052.052.041.146-.01.198l-.011.01c-.282.209-.615.334-.96.334zM32.922 20.481c-.052 0-.083-.042-.083-.094 0 0 .052-.49-.303-.657-.417-.208-1.157.188-1.168.188-.041.02-.094.01-.114-.031-.021-.042-.01-.094.03-.115.032-.02.825-.438 1.325-.198.46.23.397.803.397.834-.01.042-.042.073-.084.073zM29.366 16.164c.355.01.699.125.98.344.053.063.042.146-.02.198-.042.042-.115.042-.157.01-.459-.364-1.116-.364-1.585 0-.063.053-.146.042-.198-.01-.052-.052-.042-.146.01-.198l.01-.01c.282-.209.616-.324.96-.334zM34.612 16.164c.354.01.698.125.98.344.052.063.042.146-.021.198-.042.042-.115.042-.156.01-.46-.364-1.116-.364-1.575.011-.063.052-.146.042-.198-.01-.052-.053-.042-.146.01-.199l.01-.01c.272-.219.605-.334.95-.344z"/>
                            <path fill="#E2C39F" fill-rule="nonzero" d="M33.496 25.32c0 .062-.01.125-.021.177 0 .042-.01.073-.021.115-.052.23-.167.438-.313.615-.031.031-.062.073-.094.104l-.083.084c-.073.062-.157.125-.25.167l-.126.062c-.03.021-.062.032-.093.042-.053.02-.115.042-.178.052-.041.01-.094.021-.146.031-.052.01-.094.01-.146.01h-.041c-.814 0-1.481-.635-1.512-1.46h3.024zM37.02 19.073c.292-1.282 1.46-.75 1.46-.75s-.156-.021-.74.323l-.72.427z"/>
                            <path stroke="#684642" stroke-linecap="round" stroke-width=".579" d="M37.02 19.073c.292-1.282 1.46-.75 1.46-.75"/>
                            <circle cx="26.154" cy="19.115" r="1.752" fill="#F9DDB7" fill-rule="nonzero"/>
                            <path fill="#E2C39F" fill-rule="nonzero" d="M26.634 19.073c-.292-1.282-1.46-.75-1.46-.75s.156-.021.74.323c.178.104.72.427.72.427z"/>
                            <path stroke="#684642" stroke-linecap="round" stroke-width=".579" d="M25.195 18.333s1.168-.532 1.46.75"/>
                            <path fill="#684642" fill-rule="nonzero" d="M32.15 22.609c-.354-.042-.688-.188-.949-.428-.052-.052-.052-.146.01-.198.053-.052.136-.052.189 0 .427.407 1.084.459 1.574.135.063-.041.146-.02.188.042.042.063.02.146-.042.188-.292.198-.625.281-.97.26z"/>
                        </g>
                        <path fill="#FF881D" fill-rule="nonzero" d="M29.627 33.381c-.104.146-.25.271-.417.344-.094.042-.188.063-.282.073l-1.116.125h-.041l-3.921.449c-.042 0-.073.01-.115.01-.355 0-.678-.188-.866-.49-.073-.125-.114-.26-.135-.407-.021-.24.041-.49.187-.678l4.88-6.726c.21-.292.554-.448.908-.396.177.01.344.073.48.177.448.323.542.939.219 1.387l-1.648 2.274-1.898 2.617 1.533-.177.365-.042.928-.104c.032 0 .073-.01.105-.01.552 0 1 .437 1.011.99 0 .209-.062.417-.177.584zM40.764 33.412c-.01.543-.448.97-.99.97-.042 0-.073 0-.115-.01l-5.058-.584h-.01c-.543-.063-.939-.553-.876-1.106.062-.51.49-.886 1-.886.032 0 .074 0 .105.01l.647.073.646.073 1.533.178-2.19-3.004-1.366-1.887c-.323-.449-.219-1.064.22-1.387.083-.063.166-.105.26-.136.417-.146.876 0 1.126.355l4.88 6.726c.126.177.199.396.188.615z" transform="translate(-4.067 10.95)"/>
                        <path fill="#FF881D" fill-rule="nonzero" d="M34.07 25.716c-.095.031-.188.073-.261.136-.438.323-.543.949-.22 1.387l1.367 1.887v-1.69c0-.677-.324-1.313-.887-1.72zm.479 5.454s-2.868-.813-3.118.417c-.177.866 1.69 2.295 1.69 2.295l.01-.021c.49.459 1.22.552 1.814.24v-2.774c-.114-.084-.25-.136-.396-.157z" transform="translate(-4.067 10.95)"/>
                        <path fill="#ED7818" fill-rule="nonzero" d="M29.21 33.725c-.094.042-.188.063-.282.073l-1.116.125h-.041l-3.921.449c-.042 0-.073.01-.115.01-.355 0-.678-.188-.866-.49-.073-.125-.114-.26-.135-.407l4.494-.532 1.815-.208.167.98z" transform="translate(-4.067 10.95)"/>
                        <path fill="#F9DDB7" fill-rule="nonzero" d="M29.877 33.871l-.01-.031c-.574.542-1.45.573-2.065.083-.01-.01-.031-.02-.042-.031-.281-.24-.47-.574-.532-.939-.135-.823.407-1.606 1.22-1.783 0 0 2.868-.813 3.118.417.188.866-1.689 2.284-1.689 2.284z" transform="translate(-4.067 10.95)"/>
                        <path fill="#ED7818" fill-rule="nonzero" d="M40.764 33.412c-.01.543-.448.97-.99.97-.042 0-.073 0-.115-.01l-5.058-.584 1.033-1.085 5.13.71z" transform="translate(-4.067 10.95)"/>
                        <path fill="#F9DDB7" fill-rule="nonzero" d="M36.28 32.703v.104c-.031.438-.24.845-.573 1.116-.073.063-.157.115-.25.167-.595.323-1.336.22-1.826-.24l-.01.021s-1.867-1.418-1.69-2.294c.25-1.23 3.119-.417 3.119-.417.146.031.281.083.406.146.5.27.824.803.824 1.397z" transform="translate(-4.067 10.95)"/>
                    </g>
                </g>
                <path fill="#FFF" fill-rule="nonzero" d="M32.338 6.841c-2.44-1.815-3.952.615-4.202 1.074-.261-.459-1.763-2.889-4.203-1.074-.813.605-2.138 3.254.803 5.694.71.584 2.169 1.606 2.94 2.367.157.146.303.313.439.5.01.011.02.021.02.042.011-.01.021-.02.032-.041.135-.188.281-.355.438-.501.761-.761 2.231-1.783 2.94-2.367 2.931-2.44 1.607-5.09.793-5.694z"/>
            </g>
        </g>
    </g>
</svg>
