<svg xmlns="http://www.w3.org/2000/svg" xmlns:xlink="http://www.w3.org/1999/xlink" width="260" height="71" viewBox="0 0 260 71">
    <defs>
        <circle id="prefix__a" cx="28.01" cy="27.969" r="27.969"/>
    </defs>
    <g fill="none" fill-rule="evenodd">
        <g>
            <g transform="translate(-18 -644) translate(21 651)">
                <rect width="229" height="55" x="18" y="1" fill="#A546A0" rx="22"/>
                <text fill="#FFF" font-family="Montserrat-SemiBold, Montserrat" font-size="18" font-weight="500">
                    <tspan x="80" y="24">BAILE DE LAS </tspan> <tspan x="80" y="46">EMOCIONES</tspan>
                </text>
                <g transform="translate(9.448 .448)">
                    <use fill="#006DD0" xlink:href="#prefix__a"/>
                </g>
                <g fill-rule="nonzero" transform="translate(.488 1.344)">
                    <path fill="#000" d="M58.774 51.423c3.435.03 6.867.04 10.295.026.367 0 .75 0 1.09.176.94.492.635 1.518-.254 1.848-1.854.685-4.398.615-6.364.78-2.397.2-4.801.31-7.206.371-4.743.12-9.486.046-14.23.093-5.495.055-10.99.091-16.485.05-5.35-.041-11.037.307-16.321-.602-1.324-.228-2.632-.549-3.967-.713-1.26-.154-2.533-.083-3.793-.25-.688-.09-.918-.718-.321-1.147.673-.484 1.853-.212 2.63-.22 1.332-.018 2.668-.116 3.999-.174 5.904-.26 11.769-.869 17.67-.766l18.364.319c4.963.086 9.93.166 14.893.21z" opacity=".12" style="mix-blend-mode:multiply"/>
                    <path fill="#EAC5B0" d="M34.594 44.236l.048 2.91c-.02.809.053 1.612.102 2.417.046.747-.105 1.518.25 2.21.111.22.348.368.527.118.14-.193.074-.528.11-.752.257-1.687.735-3.332.976-5.023.25-1.77-.434-1.723-2.013-1.88z"/>
                    <path fill="#292949" d="M34.759 51.276L34.572 51.762 35.493 52.572 36.336 52.606 36.609 52.162 35.475 51.175z"/>
                    <path fill="#EAC5B0" d="M32.533 44.268l-.531 2.862c-.184 1.28-.602 2.526-.786 3.806-.043.295-.022.617-.147.895-.126.278-.356.282-.564.097-.278-.247-.147-.688-.147-1.025.034-2.246-.143-4.461-.185-6.711-.005-.03.004-.06.024-.082.02-.013.044-.018.068-.013.223.01 2.256.23 2.268.171z"/>
                    <path fill="#292949" d="M30.356 51.395L30.065 51.826 30.779 52.823 31.592 53.048 31.958 52.676 31.076 51.459zM37.593 46.088L37.196 41.928 37.004 39.224 36.361 37.017 32.885 36.477 28.588 37.214 28.381 38.049 29.208 45.776 33.353 46.088 33.297 41.278 33.937 44.259 33.909 46.088z"/>
                    <path fill="#FFF" d="M29.5 28.888c-.006.14-.01.281-.012.422-.05 2.853.107 5.743.125 8.62 1.474-.23 2.962-.357 4.454-.38.346-.005 1.912.237 2.133.031.294-.28-.03-.227-.008-.588.029-.472-.199-.858-.113-1.417.101-.656.301-1.306.416-1.962.233-1.318.374-2.65.42-3.988.04-1.185 0-2.414-.515-3.483-1.256-2.64-5.307-2.593-6.418.164-.331.816-.445 1.7-.482 2.581z"/>
                    <path fill="#292949" d="M34.065 20.516c.169.308.262.652.272 1.003.004.093.01.2.086.255.075.055.01.187.073.109.064-.079.27-.351.278-.45.023-.232.023-.466 0-.698-.02-.202-.06-.413-.193-.567-.083-.087-.18-.16-.286-.217-.143-.099-.304-.171-.473-.213-.294-.056-.477.05-.216.256.185.143.341.32.46.522z"/>
                    <path fill="#EAC5B0" d="M32.22 24.478c0 .143-.028.295.099.403.064.049.14.079.22.086.207.033.42.018.62-.043.083-.022.16-.063.225-.12.06-.06.09-.143.08-.228 0-.108.026-.22.04-.326.03-.24.047-.48.052-.72.353-.061.77-.176.89-.547.033-.12.047-.243.041-.367l.011-1.544c.012-.178-.008-.356-.058-.526-.108-.29-.378-.462-.645-.57-.678-.277-1.47-.266-2.095.128-.175.1-.32.246-.42.422-.147.282-.13.63-.107.956.022.3.043.6.063.901.025.346.074.744.345.926.143.097.327.115.45.24.214.221.112.546.175.81.01.039.014.08.014.12z"/>
                    <path fill="#292949" d="M34.613 22.41c-.006-.094-.047-.374-.19-.198-.035.05-.052.11-.05.171.003.062-.003.123-.018.182-.044.132-.19.192-.32.19-.052 0-.102-.012-.148-.036-.043-.028-.082-.064-.114-.105l-.25-.287c-.144-.165-.428-.094-.622-.069-.228.022-.445.106-.628.244l-.054.045c-.042.04-.089.073-.14.1-.171.084-.385 0-.505-.16-.055-.073-.107-.164-.193-.176-.07-.003-.137.037-.167.102-.031.066-.048.137-.048.21-.023.266.023.532.134.774.25.51.731.573 1.216.562l.574-.014c.35-.008.72-.022 1.016-.226.26-.18.414-.485.478-.805.03-.166.04-.335.03-.503zm-1.28.724c-.177.114-.396.14-.594.069-.087-.027-.05-.173.037-.147.161.06.341.04.485-.054.077-.05.148.08.071.132zM34.686 19.628c.033-.125.058-.251.073-.38-.118.042-.244.053-.367.033v-.22c0-.062-.832-.105-.9-.11-.631-.052-1.21-.102-1.78.238-.489.29-.802.722-.877 1.285-.074.539.105 1.241.416 1.687 0-.142-.085-.48-.05-.617.021-.136.066-.268.132-.39.134-.24.328-.443.564-.588.375-.223.794-.365 1.228-.417.394-.055.874-.105 1.264 0 .187.05.22.097.331-.092.064-.137.119-.278.163-.423l-.197-.006z"/>
                    <circle cx="32.533" cy="11.419" r="8.035" fill="#FFD33F" transform="rotate(-45 32.533 11.42)"/>
                    <path fill="#000" d="M35.738 4.044c1.91 2.23 2.45 5.323 1.413 8.07-1.038 2.745-3.49 4.706-6.397 5.116-1.47.21-2.968.006-4.328-.588 2.152 2.51 5.623 3.445 8.745 2.356 3.123-1.089 5.26-3.979 5.385-7.283.125-3.305-1.787-6.349-4.818-7.67z" opacity=".08"/>
                    <path fill="#FFF" d="M25.775 13.225c-.445-3.163 1.174-6.259 4.026-7.698 2.852-1.44 6.303-.903 8.584 1.333-1.707-2.206-4.502-3.275-7.246-2.772-2.743.503-4.977 2.494-5.79 5.163-.814 2.668-.071 5.567 1.925 7.515-.802-1.028-1.319-2.25-1.5-3.54z" opacity=".2"/>
                    <path fill="#292949" d="M29.38 13.522c.434 1.697 2.074 2.795 3.808 2.551 1.733-.243 3.007-1.751 2.957-3.501l-6.765.95z"/>
                    <path fill="#D67086" d="M30.719 15.464c1.45 1.032 3.449.783 4.603-.572l-.042-.068c-2.427-.788-4.532.618-4.561.64z"/>
                    <path fill="#292949" d="M34.325 9.83c.144-.586.627-1.026 1.223-1.116.596-.09 1.187.189 1.498.705.057.098.038.222-.045.298-.084.077-.21.084-.302.018-.501-.367-1.25-.611-1.954.299-.038.05-.094.081-.155.09-.048.007-.096 0-.139-.022-.102-.049-.155-.163-.126-.273zM27.488 10.79c.145-.584.628-1.024 1.224-1.114.595-.09 1.186.188 1.497.704.057.098.039.222-.045.299-.084.076-.21.083-.301.017-.502-.367-1.25-.611-1.955.298-.038.05-.094.083-.156.091-.047.007-.095 0-.138-.022-.101-.05-.154-.163-.126-.272z"/>
                    <circle cx="28.31" cy="13.306" r="1.403" fill="#D67086" transform="rotate(-17.56 28.31 13.306)"/>
                    <circle cx="38.002" cy="11.873" r="1.403" fill="#D67086" transform="rotate(-6.58 38.002 11.873)"/>
                    <path fill="#EAC5B0" d="M27.135 16.098c.012.019.022.04.029.061.053.2-.04.336-.044.542 0 .092.194.22.03.325-.06.037-.22.108-.35.186-.188.114-.357.372-.454.602-.171.415-.301.847-.388 1.288-.079.39-.265.992-.196 1.386.064.359.54.81.754 1.112.27.383.533.77.79 1.161.182.276.364.56.442.883.045.195.043.416-.079.574-.086.096-.192.173-.31.224-.203.106-.422.214-.648.186-.279-.034-.488-.262-.666-.48-.406-.487-.762-1.014-1.061-1.573-.206-.397-.593-1.103-.502-1.556.22-1.033.494-2.053.824-3.057.088-.277.31-.474.39-.731.05-.164-.03-.33-.016-.495.02-.181.07-.358.147-.523.143-.294.472-.348.755-.429.059-.022.123-.03.185-.019.109.024.18.106.251.186.044.045.083.094.117.147zM38.446 15.737c-.013.018-.023.039-.03.06-.053.2.04.336.044.542 0 .092-.194.224-.03.325.06.037.22.108.35.186.188.114.357.372.454.602.17.416.299.847.385 1.288.078.391.265.992.195 1.387-.064.358-.54.81-.753 1.11-.27.385-.533.772-.791 1.163-.182.275-.363.56-.438.883-.044.195-.043.416.08.574.086.095.192.17.31.22.202.106.42.214.647.187.279-.035.489-.263.662-.481.407-.487.762-1.015 1.06-1.575.206-.399.593-1.103.502-1.557-.219-1.033-.494-2.054-.824-3.057-.088-.277-.31-.473-.39-.73-.05-.166.03-.33.016-.496-.019-.181-.069-.358-.147-.523-.147-.294-.472-.349-.755-.428-.059-.024-.123-.03-.185-.02-.101.034-.19.098-.251.185-.042.048-.08.1-.111.155z"/>
                    <path fill="#5D66D3" d="M32.395 24.52l-.028-.36c-.417.097-.934.146-1.381.258-.575-.2-1.219-.213-1.746-.515-.371-.214-.65-.555-.92-.888-.345-.423-.502-.868-1.005-.7-.376.125-.874.795-1.177 1.066l-.436.395c-.037.027-.063.067-.073.111-.002.034.005.067.02.097.397.944.988 1.895 1.777 2.559.494.414.871.882 1.23 1.384-.18 1.297 0 2.681 0 3.97 0 .532-.358 6.232-.085 6.246.947.048 1.941-.113 2.885-.199.432-.039.939.056 1.034-.426.07-.344.022-.755.032-1.103l.107-3.784c.01-.332.126-5.246.147-5.246l-1.103-2.005.722-.86zM39.948 23.522c-.011-.044-.037-.083-.073-.11l-.44-.395c-.3-.272-.797-.942-1.176-1.067-.504-.167-.662.277-1.005.7-.27.333-.549.674-.92.889-.566.326-1.264.317-1.869.564-.035.015-.07.031-.103.05-.112-.023-.231-.049-.362-.08-.252-.062-.796-.26-.662.24.078.286.534.643.727.873l-1.103 2.005.172 6.076.08 2.8c.01.324.017.648.028.973.004.147-.036.39.047.509.18.257.839.177 1.126.2.447.035.902.073 1.323.226.281.103.547.258.844.3.065.016.135.004.192-.032.052-.056.078-.13.074-.206.103-1.39.105-2.824.182-4.23.063-1.15.224-2.365.124-3.516 0-.02-.003-.039-.007-.058-.19-1.036-.065-1.94-.129-2.822.326-.455.706-.87 1.132-1.232.79-.662 1.38-1.618 1.78-2.56.014-.03.02-.063.018-.097z"/>
                    <path fill="#EAC5B0" d="M53.901 21.693c.025 0 .05.004.074.01.206.074.27.233.448.358.078.056.31-.037.302.166 0 .073-.036.256-.043.415-.012.233.114.533.258.754.566.867 1.352 1.555 2.151 2.212.043.041.095.071.152.087.103.023.202-.044.288-.105.399-.284.824-.53 1.269-.735.396-.184.819-.336 1.256-.331.438.005.892.194 1.121.566.172.285.197.635.067.942-.323.744-1.508.73-2.193.853-.648.116-1.303.186-1.96.21-.081.01-.163.001-.24-.023-.08-.037-.15-.09-.207-.156-.784-.793-1.493-1.65-2.189-2.526-.191-.24-.232-.551-.41-.772-.114-.141-.305-.17-.441-.279-.148-.123-.274-.27-.372-.435-.17-.294-.028-.62.07-.913.014-.065.046-.125.092-.174.085-.081.199-.094.31-.11.065-.012.131-.016.197-.014z"/>
                    <path fill="#3B3387" d="M59.372 27.392c-.694.11-1.399.14-2.1.093-.168-.003-.333-.043-.485-.116-.118-.074-.223-.167-.31-.275l-1.633-1.793c-.077-.085-.16-.195-.124-.304.03-.063.08-.114.14-.147l.789-.542c.044-.038.099-.06.157-.065.054.008.103.034.14.074.257.22.392.567.668.765.254.18.588.207.896.141 1.274-.274 2.42-1.31 3.53-1.956.588-.342 1.195-.692 1.871-.759 1.442-.14 2.336 1.545 1.28 2.608-.896.902-2.05 1.555-3.263 1.93-.51.153-1.03.269-1.556.346z"/>
                    <path fill="#EDCEAF" d="M62.635 49.107L62.862 50.738 61.895 50.872 61.643 49.063z"/>
                    <path fill="#292949" d="M61.95 50.605l.876.173.285.24.037.645-2.254.46c-.108-.119-.153-.282-.122-.44.031-.158.134-.291.28-.361l.1-.05.797-.667z"/>
                    <path fill="#EDCEAF" d="M69.638 42.665c.408-.134.805-.402 1.216-.498.02.32.052.64.078.956-.492.24-1.013.412-1.55.515.084-.32.194-.643.256-.973z"/>
                    <path fill="#292949" d="M70.962 43.108c-.03-.04-.05-.087-.056-.137-.06-.234-.22-.886 0-1.085.036-.033.053 0 .085.014.512.242.974.577 1.362.989.184.186.362.42.375.69-.003.108-.034.214-.089.306-.065.134-.143.262-.232.381-.031.043-.058.093-.12.088-.126-.008-.186-.152-.21-.27-.025-.117-.035-.261-.114-.361-.037-.04-.08-.073-.13-.097-.314-.181-.65-.199-.871-.518zM62.606 41.806c.789 1.402 1.95 2.012 3.346 2.446 1.598.496 2.973.225 4.397-.571.025-.475-.02-.947.015-1.397-1.583.251-2.348.195-3.417-1.219-1.544-2.044-.01-5.053-.434-7.523-.04-.285-.132-.561-.27-.815-1.679-2.892-4.694-.96-5.068 1.694-.334 2.373.255 5.295 1.43 7.385z"/>
                    <path fill="#292949" d="M65.53 33.32c-.093-.801-.284-1.589-.567-2.345-1.368.097-2.885.442-4.196.879-1.277.428-2.064.818-1.897 2.244.31 2.625-.437 4.986-.565 7.561-.074 1.497.533 2.751 1.194 4.045.757 1.482 1.433 3.004 2.027 4.559l1.365-.179c.197-2.078-.25-4.155-.47-6.23-.153-1.443-.189-2.935.172-4.35.397-1.557 1.307-1.07 2.16-2.051.831-.95.962-2.61.777-4.133z"/>
                    <path fill="#3B3387" d="M63.704 23.169c.154.114.3.241.434.378l.367.36c.428.415.662 1.049.86 1.595 1.057 2.877 1.576 6.868 1.123 9.947-2.253.302-4.9-.147-7.17-.347-.221-.02-.473-.057-.596-.242-.064-.119-.095-.253-.09-.388-.09-1.937.221-4.038.515-5.965.12-.815.29-1.62.506-2.415.231-.84.495-1.747 1.103-2.403.646-.702 1.93-1.094 2.804-.61.05.027.097.057.144.09z"/>
                    <path fill="#FEE0D4" d="M63.476 23.587l.085-.795c.052-.029.103-.06.152-.095.915-.646 2.345-3.956-.204-4.559-2.315-.55-2.048 2.586-1.54 3.876.081.221.202.426.357.604.11.12.132.096.124.242-.008.146-.14.308-.166.458-.033.16 0 .328.093.464.063.078.144.139.235.179.143.072.305.094.461.063.184-.046.382-.246.403-.437z"/>
                    <path fill="#1A3151" d="M61.376 20.85c.16.411.374.8.636 1.155-.05-.773.008-1.55.17-2.309.02-.056.017-.118-.01-.172-.037-.042-.09-.066-.146-.069-.97-.162-.928.678-.65 1.394zM63.958 21.895c.164.21.5.136.735.005.956-.537 1.471-1.748 1.207-2.81-.22-.889-1.386-1.508-1.562-.386-.063.398.203.934.169 1.373-.053.63-.317 1.24-.549 1.818z"/>
                    <path fill="#1A3151" d="M61.225 17.418c-.108.048-.22.099-.333.147-.238.106-.413.147-.67.016-.074-.038-.575-.47-.464-.569-.736.662-.063 1.545.254 2.176.214.426.283 1.039.732 1.303.493.294.803-.121 1.23-.319.375-.174.786-.278 1.17-.436.636-.262 1.58-.712 1.323-1.562-.298-.993-1.327-1.195-2.238-1.076-.35.054-.688.161-1.004.32z"/>
                    <path fill="#EAC5B0" d="M60.908 24.487c.024-.006.049-.009.073-.007.221.019.32.16.522.237.09.035.295-.112.334.086.016.073.028.258.06.414.046.228.242.489.435.667.368.338 1.728.834 1.623 1.467-.246 1.488-2.217-.869-2.437-1.033-.147-.11-.337-.09-.497-.163-.174-.082-.332-.194-.468-.33-.237-.246-.178-.594-.155-.903-.002-.067.014-.132.047-.19.062-.1.169-.14.273-.184.061-.027.125-.047.19-.06z"/>
                    <path fill="#3B3387" d="M66.805 29.174c-.192.614-1.392.214-1.812.03-.883-.379-1.715-.865-2.478-1.448-.057-.025-.098-.078-.106-.14-.01-.06.014-.122.062-.162l.644-.908c.04-.069.098-.126.167-.166.273-.126.647.232.925.26.073-.681-.332-1.259-.533-1.878-.275-.848.694-1.074 1.218-.639.64.533 1.072 1.328 1.348 2.101.298.838.441 1.723.577 2.602.023.115.018.235-.012.348z"/>
                    <path fill="#EAC5B0" d="M42.53 21.62c-.121-.124-.24-.252-.355-.36l-.058-.498c-.005-.025-.003-.05.007-.074.013-.018.031-.033.052-.042l.266-.147c.017-.011.036-.018.056-.02.044 0 .078.034.105.069.094.118.43.515.438.193.006-.05.044-.09.093-.101.049-.01.1-.009.147.004.035.005.074.016.088.05.004.015.004.032 0 .047-.025.17-.059.314-.024.486l.1.57c0 .01-.249.137-.272.151-.132.082-.073.118-.226.026-.153-.101-.293-.22-.417-.355z"/>
                    <path fill="#D67086" d="M48.807 24.985L45.524 25.395 43.864 21.739 42.998 22.253 43.887 27.635 45.035 28.84 47.294 28.653z"/>
                    <path fill="#EAC5B0" d="M51.25 36.307L50.044 44.063 50.472 49.667 49.595 49.941 48.81 44.763 47.134 35.301z"/>
                    <path fill="#292949" d="M49.597 50.099L49.5 50.679 49.72 51.783 50.445 51.722 50.581 50.087 50.475 49.825z"/>
                    <path fill="#EAC5B0" d="M44.151 36.076L44.538 42.655 46.177 51.852 47.064 51.842 46.67 43.314 47.822 35.452z"/>
                    <path fill="#292949" d="M46.191 51.695L45.057 52.44 45.198 52.996 47.276 52.553 47.107 51.749zM43.956 37.062L43.993 44.698 45.037 49.847 47.415 49.503 47.346 43.552 47.839 37.015 47.595 36.025 44.155 36.374z"/>
                    <path fill="#292949" d="M48.176 43.665L48.912 49.08 50.981 48.792 50.506 43.637 51.273 37.043 50.822 35.258 47.348 35.782z"/>
                    <path fill="#D67086" d="M52.27 27.461c-.228-.765-.63-2.071-1.306-2.44l-.042-.023c-.138-.072-.281-.135-.428-.187-.27-.17-.657-.243-1.04-.217-.341-.027-.685.006-1.015.097-.148.049-.29.112-.426.188-.405.211-.716.302-.967.716-.22.36-.35.78-.515 1.169-1.385 3.246-2.51 7.577-3.408 11.01.424-.04.85-.11 1.273-.178 1.95.221 4.176.81 5.895 1.392.515.307 1.022.63 1.526.956-.13-.083.484-2.8.533-3.105.175-1.107.328-2.219.432-3.335.194-2.071.078-4.066-.512-6.043z"/>
                    <path fill="#EAC5B0" d="M51.447 22.142c-.358-1.36-2.247-1.94-2.782-.415-.161.459-.27.95-.206 1.43.064.482.324.957.75 1.177h.007c.074.039-.338.82-.367.883-.049.096-.087.198-.113.303-.05.235.02.478.104.703.076.206.164.407.262.604.007.018.019.033.034.046.037.026.089 0 .126-.025.305-.208.573-.466.792-.764.053-.066.095-.14.125-.22.028-.092.04-.189.036-.285 0-.267-.227-.928-.093-1.137.052-.08.303-.138.39-.192.143-.09.274-.199.39-.323.43-.453.711-1.155.545-1.785z"/>
                    <path fill="#292949" d="M48.686 22.147c-.214.345-.201.768-.147 1.157.055.39.011.752.1 1.13-.041.058-.131.02-.188-.024-.33-.254-.658-.512-.982-.774-.034-.025-.063-.056-.084-.092-.02-.05-.027-.105-.019-.158.074-1.058.49-1.83 1.084-2.664.287-.406 1.055-.853 1.492-.368.09.119.146.261.16.41.021.087.024.177.01.266-.08.347-.404.327-.662.44-.316.146-.581.381-.764.677z"/>
                    <path fill="#292949" d="M51.098 22.844c-.009.32-.064.635-.164.939-.031.1-.22.331-.228.4-.017.195.385.655.49.826l1.888-1.048c.051-.023.095-.059.127-.104.022-.046.033-.096.03-.147.036-.996-.22-1.892-.6-2.794-.38-.903-1.231-1.633-2.233-1.57-.81.05-1.378.648-1.081 1.482.22.63 1.007.764 1.434 1.194.228.211.351.512.337.822z"/>
                    <path fill="#EAC5B0" d="M12.708 18.503c-.014.017-.024.036-.031.056-.06.185.02.318.013.515 0 .086-.194.2-.046.304.055.038.202.113.32.193.17.117.316.367.396.588.311.87.376 1.8.413 2.72.006.053 0 .106-.019.155-.04.086-.14.12-.23.147-.418.13-.822.3-1.208.505-.344.183-.68.401-.912.715-.232.313-.342.739-.202 1.103.11.275.346.482.634.555.703.171 1.331-.679 1.787-1.1.432-.398.836-.826 1.208-1.28.112-.107.155-.266.112-.415-.152-.983-.358-1.957-.616-2.918-.068-.265-.267-.461-.328-.707-.039-.157.044-.309.04-.465-.008-.171-.044-.34-.108-.499-.12-.28-.426-.353-.688-.441-.054-.025-.114-.034-.173-.027-.097.026-.183.082-.246.16-.043.041-.082.087-.116.136z"/>
                    <path fill="#D67086" d="M13.344 24.984l-.74-1.593c.017.034-2.476.97-2.623 1.03-.559.232-1.136.477-1.544.92-.878.95-.162 2.494 1.163 2.316 1.44-.193 2.925-.951 3.952-1.973.024-.019.042-.044.054-.073.006-.043-.003-.087-.025-.124l-.237-.503z"/>
                    <path fill="#292949" d="M.746 40.22c-.033.2-.054.4-.073.588-.029.317.022.678-.058.988-.038.12-.07.244-.094.368-.025.125-.006.255.054.367.078.126.22.171.348.2.118.034.242.04.363.018.241-.06.42-.32.493-.599.088-.334.043-.661.031-1.003 0-.533-.142-.989-.12-1.526.013-.09-.003-.183-.046-.264-.058-.077-.15-.12-.247-.116-.191.006-.375.06-.452.242-.094.237-.16.484-.199.736z"/>
                    <path fill="#EAC5B0" d="M1.246 39.797c-.1.086-.184.189-.25.303-.048.074-.097.172-.049.247.021.026.048.048.078.064l.363.22c.023.018.052.027.08.027.024-.005.045-.017.062-.034.117-.1.228-.205.333-.317.473-.505-.193-.841-.617-.51z"/>
                    <path fill="#353A85" d="M9.6 35.307c-.043-.116-.127-.213-.236-.272-1.07-.725-2.267-1.24-3.53-1.515-.107-.023-.79 2.101-.856 2.307-.255.8-.472 1.612-.661 2.43-.205.898-.415 1.793-.632 2.687-.416-.407-.86-.783-1.332-1.125-.076-.065-.17-.109-.269-.125-.121-.007-.232.066-.329.14-.168.13-.326.272-.47.427-.054.05-.091.113-.108.183-.005.071.01.142.043.205.47 1.118 1.211 2.916 1.807 3.97.287.516.84.687 1.397.643.126-.014.25-.046.368-.095.147-.052.308-.052.456-.103.096-.04.18-.105.244-.186.6-.668 1.009-1.604 1.37-2.417.388-.886.724-1.794 1.006-2.719l.066-.203c.453-1.377 1.067-2.563 1.618-3.916.051-.096.069-.208.048-.316z"/>
                    <path fill="#EAC5B0" d="M7.902 51.034c.196.073.4.061.6.1.203-.68.335-1.379.396-2.086-.405.24-.599-.032-.784.599-.058.204-.077 1.092-.212 1.387z"/>
                    <path fill="#292949" d="M8.707 50.928c0 .389.307.81.476 1.156.066.1.05.232-.039.312-.048.082-.118.148-.203.191-.09.027-.184.027-.273 0-.151-.033-.301-.073-.448-.12-.038-.01-.073-.026-.105-.048-.032-.032-.057-.07-.073-.112-.105-.21-.194-.359-.188-.593.006-.233.036-.491-.008-.735-.021-.116-.05-.265.05-.328.073-.05.22.019.301.032.147.024.284.015.42.092.029.015.054.036.073.062.014.028.02.06.017.091z"/>
                    <path fill="#353A85" d="M7.7 38.611c.087 1.725.271 3.442.141 5.178-.162 2.145-.024 4.328-.267 6.453.245.084.496.15.75.199.294.054.762.117.956-.158.1-.141.125-.414.169-.58.136-.53.262-1.064.386-1.597.351-1.51.742-3.027.924-4.567.191-1.618.396-3.242.621-4.854.117-.831.202-1.667.247-2.506.012-.216.127-2.445.018-2.46-1.278-.191-2.58-.136-3.838.163-.123.029-.247.074-.317.17-.057.094-.08.205-.064.314.023 1.05.172 2.076.22 3.13l.055 1.115z"/>
                    <path fill="#D67086" d="M6.976 24.774l-.063.023c-.346.13-.641.368-.93.6-.433.35-.647.504-.813 1.022-.147.49-.264.988-.35 1.492-.49 2.557-.585 5.106-.937 7.68-.096.702-.17 1.526.348 2.008.92-.718 2.077-.758 3.196-.758.784 0 1.55-.255 2.336-.167.75.083 1.406-.104 2.168-.055.184.013.418.01.49-.159-.263-.79-.259-1.64-.319-2.471-.154-2.15-.866-4.213-1.153-6.348-.098-.726-.147-1.93-.712-2.48-.611-.597-2.004-.609-2.79-.492-.16.02-.318.056-.471.105z"/>
                    <path fill="#EAC5B0" d="M7.559 24.738c.013.027.031.052.053.074.095.087.215.143.343.158.167.016.335.004.497-.035.22-.042.214-.172.246-.373.017-.11.028-.22.037-.331.005-.061-.019-.28.02-.322.026-.03.133-.019.18-.044.074-.044.137-.105.181-.18.066-.115.115-.238.147-.367l.203-.665c.077-.225.13-.456.16-.69.034-.357-.024-.858-.294-1.119-.245-.236-.602-.32-.93-.361-.433-.06-.875.03-1.251.254-.16.09-.292.219-.386.376-.137.256-.127.574-.112.873l.04.825c.017.317.056.682.295.853.126.092.294.111.399.228.134.147.125.368.131.552-.008.1.006.2.04.294z"/>
                    <path fill="#292949" d="M8.93 21.178c.016.025.029.052.038.08.051.147.017.311.066.458.079.231.35.367.39.612.033.198-.102.386-.113.589-.012.22.127.425.106.64-.036.217-.122.422-.25.6.034-.045.348-.03.43-.079.124-.073.138-.124.176-.254.037-.13.008-.256.065-.388.074-.162.215-.28.266-.453.069-.236-.056-.485-.047-.73.015-.373.336-.723.221-1.076-.068-.207-.27-.34-.382-.526-.086-.141-.118-.308-.178-.463-.06-.155-.162-.31-.32-.356-.09-.026-.184-.016-.274-.033-.157-.028-.287-.136-.437-.187-.216-.074-.597.147-.722.327-.126.18-.062.336.066.496.21.266.725.441.9.743z"/>
                    <path fill="#292949" d="M6.03 20.082c-.13.095-.29.163-.407.274-.23.216-.273.561-.282.877-.007.28-.13.53-.1.822.012.201.108.388.264.515.2.147.515.169.601.398.097.25-.161.563-.005.78.086.12.256.137.38.22.138.09.209.25.294.39.085.142.21.276.373.281.006-.25.014-.448-.094-.677-.062-.134-.245-.38-.104-.523.089-.12.298-.16.304-.31-.01-.069-.039-.134-.085-.186-.146-.235-.17-.525-.063-.78.108-.252.305-.455.553-.57.286-.14.24-.21.324-.483.074-.252.22-.312.446-.404.204-.082.27-.134.345-.324.055-.14.123-.308.043-.463-.073-.118-.172-.218-.288-.294-.231-.176-.49-.36-.781-.34-.16.011-.312.087-.474.096-.107.006-.214-.018-.321-.021-.188-.006-.373.05-.526.158-.147.11-.147.226-.229.382-.042.073-.1.135-.168.182z"/>
                    <path fill="#292949" d="M6.677 19.053c.028-.174.01-.401-.157-.46-.09-.033-.193 0-.288-.016-.202-.042-.271-.287-.377-.464-.014-.028-.035-.05-.063-.065-.042-.012-.088-.012-.13 0-.201.025-.354-.174-.543-.246-.248-.082-.516.05-.6.298-.03.1-.025.205-.052.304-.11.403-.7.575-.714.992-.01.282.265.552.158.813-.069.166-.284.28-.258.459.027.117.134.198.254.192.117-.01.226-.06.31-.142.138-.121.243-.277.375-.405.133-.128.308-.232.491-.21.184.024.337.16.515.131.14-.024.245-.147.383-.185.139-.037.264.018.397.026.134.008.295-.06.301-.195-.005-.032-.005-.064 0-.096.028-.086.175-.08.203-.168-.07-.106-.167-.068-.22-.209-.035-.105-.003-.244.015-.354z"/>
                    <path fill="#EAC5B0" d="M6.741 34.839c.005-.021.008-.043.007-.064-.015-.194-.14-.286-.206-.468-.03-.081.103-.26-.074-.3-.065-.013-.23-.026-.368-.056-.202-.043-.433-.221-.588-.395-.617-.686-1.03-1.522-1.415-2.36-.026-.047-.04-.099-.042-.152.005-.094.085-.164.157-.224.336-.279.646-.589.925-.925.249-.3.477-.63.572-1.008.095-.378.036-.813-.232-1.097-.206-.213-.503-.315-.796-.272-.716.108-.974 1.134-1.237 1.696-.248.532-.458 1.08-.63 1.642-.025.068-.037.14-.034.213.014.077.043.15.087.213.514.851 1.075 1.674 1.678 2.465.164.22.423.326.573.53.096.13.074.302.14.446.071.155.17.298.29.42.22.214.527.165.803.147.06.003.119-.011.17-.04.08-.061.14-.146.168-.242.022-.055.04-.111.052-.17z"/>
                    <path fill="#D67086" d="M3.69 29.085l1.29 1.192c-.029-.025 1.921-1.838 2.034-1.95.429-.428.87-.873 1.082-1.441.45-1.211-.798-2.367-1.957-1.7-1.257.726-2.344 1.992-2.906 3.327-.015.028-.022.06-.02.09.011.043.037.08.073.106l.404.376z"/>
                    <circle cx="9.562" cy="14.2" r="6.712" fill="#FFD33F" transform="rotate(-45 9.562 14.2)"/>
                    <path fill="#000" d="M14.497 9.64c.906 2.995-.377 6.218-3.092 7.771-2.716 1.554-6.145 1.025-8.267-1.274.8 2.644 3.14 4.529 5.894 4.748 2.754.219 5.362-1.272 6.57-3.757 1.208-2.485.77-5.457-1.105-7.488z" opacity=".08"/>
                    <path fill="#FFF" d="M3.787 13.31c.725-2.568 3.004-4.39 5.67-4.53 2.664-.141 5.123 1.43 6.114 3.908-.566-2.257-2.343-4.01-4.607-4.547-2.264-.537-4.639.233-6.158 1.995-1.52 1.763-1.93 4.225-1.065 6.385-.267-1.056-.25-2.163.046-3.211z" opacity=".2"/>
                    <path fill="#292949" d="M8.1 12.096c-.125.441-.441.742-.702.668-.261-.075-.375-.494-.25-.937.125-.442.44-.742.703-.668.261.074.374.493.249.937zM12.86 13.439c-.125.44-.441.742-.702.668-.261-.074-.375-.493-.25-.937.125-.443.44-.742.703-.668.261.075.374.494.249.937zM5.048 13.586c-.37 2.278 1.027 4.472 3.248 5.099 2.222.627 4.56-.513 5.435-2.648l-8.683-2.45z"/>
                    <path fill="#D67086" d="M5.634 16.646c1.205 2.018 3.752 2.782 5.868 1.758l-.014-.105c-2.517-2.244-5.809-1.66-5.854-1.653z"/>
                    <g transform="translate(10.722 20.905)">
                        <circle cx="30.75" cy="17.15" r="11.963" fill="#FFD33F" transform="rotate(-45 30.75 17.15)"/>
                        <path fill="#000" d="M37.008 6.94c3 4.698 2.36 10.846-1.546 14.823-3.906 3.978-10.041 4.731-14.793 1.816 2.652 4.149 7.575 6.248 12.405 5.29 4.83-.957 8.58-4.776 9.45-9.622.869-4.847-1.32-9.73-5.516-12.307z" opacity=".08"/>
                        <path fill="#FFF" d="M20.413 18.412c-.004-4.758 3.024-8.99 7.529-10.521 4.505-1.532 9.484-.023 12.382 3.75-2.07-3.587-5.964-5.726-10.102-5.546-4.139.179-7.833 2.646-9.585 6.4-1.752 3.753-1.27 8.17 1.252 11.456-.97-1.684-1.48-3.595-1.476-5.539z"/>
                        <path fill="#292949" d="M25.846 18.383c-.133-.131-.34-.15-.496-.046-.155.104-.216.303-.146.477.903 2.256 3.078 3.744 5.508 3.768 2.43.024 4.634-1.42 5.581-3.659.167-.392-.331-.732-.637-.435-1.751 1.698-5.467 4.113-9.81-.105z"/>
                        <ellipse cx="26.343" cy="14.159" fill="#292949" rx="1" ry="1.485"/>
                        <ellipse cx="35.157" cy="14.159" fill="#292949" rx="1" ry="1.485"/>
                        <circle cx="9.7" cy="9.7" r="6.564" fill="#FFD33F" transform="rotate(-45 9.7 9.7)"/>
                        <path fill="#292949" d="M7.046 10.508c-.078-.06-.187-.061-.266-.002-.08.059-.11.163-.074.255.556 1.212 1.788 1.969 3.12 1.916 1.333-.052 2.501-.904 2.96-2.156.034-.096-.004-.204-.091-.257-.088-.053-.2-.038-.27.036-.914.977-2.885 2.4-5.379.208zM11.306 7.886c.16-.466.586-.789 1.078-.818.492-.03.953.24 1.167.684.041.084.018.185-.057.242-.074.056-.178.052-.247-.01-.382-.335-.97-.588-1.613.1-.062.067-.164.082-.243.034-.08-.047-.115-.144-.085-.232zM5.676 8.165c.16-.466.586-.79 1.078-.819.492-.029.953.241 1.167.685.04.084.016.184-.058.24-.074.056-.177.053-.247-.008-.38-.335-.97-.589-1.611.099-.035.037-.083.06-.134.062-.039.002-.077-.008-.11-.028-.08-.047-.115-.144-.085-.231z"/>
                        <circle cx="4.922" cy="10.764" r="1.144" fill="#D67086" transform="rotate(-32.735 4.922 10.764)"/>
                        <path fill="#D67086" d="M15.709 10.317c.023.462-.235.893-.654 1.092-.42.198-.916.124-1.26-.187-.343-.31-.465-.798-.31-1.234.157-.437.56-.736 1.023-.76.632-.03 1.169.457 1.2 1.089z"/>
                    </g>
                    <path fill="#000" d="M47.73 27.845c3.001 4.698 2.36 10.846-1.546 14.823-3.906 3.978-10.041 4.731-14.793 1.816 2.652 4.149 7.575 6.248 12.405 5.29 4.83-.957 8.58-4.776 9.45-9.622.869-4.846-1.32-9.73-5.516-12.307z" opacity=".08"/>
                    <path fill="#FFF" d="M31.135 39.317c-.004-4.758 3.024-8.99 7.53-10.52 4.504-1.533 9.484-.024 12.381 3.75-2.07-3.588-5.964-5.727-10.102-5.547-4.139.18-7.833 2.646-9.585 6.4-1.752 3.753-1.27 8.17 1.252 11.457-.97-1.685-1.48-3.596-1.476-5.54z" opacity=".2"/>
                    <path fill="#292949" d="M36.568 39.288c-.133-.131-.34-.15-.496-.046-.155.104-.216.303-.146.477.903 2.256 3.078 3.744 5.508 3.768 2.43.024 4.635-1.42 5.582-3.659.166-.392-.332-.731-.638-.435-1.75 1.698-5.467 4.113-9.81-.105z"/>
                    <ellipse cx="37.065" cy="35.065" fill="#292949" rx="1" ry="1.485"/>
                    <ellipse cx="45.879" cy="35.065" fill="#292949" rx="1" ry="1.485"/>
                    <circle cx="61.142" cy="18.107" r="7.052" fill="#FFD33F" transform="rotate(-88.72 61.142 18.107)"/>
                    <path fill="#000" d="M64.546 11.92c1.899 2.684 1.692 6.323-.498 8.774-2.19 2.45-5.782 3.064-8.661 1.478 1.677 2.37 4.634 3.47 7.452 2.773 2.818-.698 4.92-3.051 5.298-5.93.377-2.878-1.048-5.694-3.59-7.094z" opacity=".08"/>
                    <path fill="#FFF" d="M55.093 19.137c-.136-2.802 1.53-5.379 4.14-6.406 2.61-1.027 5.585-.276 7.396 1.867-1.324-2.04-3.67-3.176-6.091-2.953-2.421.224-4.519 1.772-5.447 4.019-.928 2.247-.534 4.824 1.024 6.69-.618-.964-.97-2.073-1.022-3.217z" opacity=".2"/>
                    <path fill="#292949" d="M59.256 16.718c-.22-.48-.708-.781-1.236-.762-.529.02-.993.356-1.177.852-.034.093.003.198.087.25.085.052.194.038.263-.034.373-.397.976-.73 1.735-.06.074.065.184.07.264.01.08-.058.107-.166.064-.256zM65.308 16.434c-.22-.482-.708-.784-1.237-.764-.53.02-.994.357-1.177.853-.036.094 0 .199.086.25.085.054.196.04.264-.033.373-.398.977-.731 1.734-.062.04.036.093.055.147.053.042-.002.082-.017.116-.041.08-.059.109-.166.067-.256z"/>
                    <path fill="#D67086" d="M58.058 19.583v-.01c-.033-.704-.572-1.324-1.337-1.288-.607.029-.939.482-1.04.897-.139-.403-.514-.823-1.12-.795-.763.036-1.241.704-1.208 1.407v.01c0 .154.08 1.71 2.492 2.868 2.294-1.38 2.224-2.936 2.213-3.089z"/>
                    <path fill="#292949" d="M61.328 22.025c-.452.02-.875-.223-1.084-.624-.21-.401-.167-.888.109-1.246-.3-.315-.4-.772-.258-1.183.142-.412.503-.709.933-.77.431-.063.86.121 1.113.476.06.089.04.21-.047.273-.087.063-.208.046-.274-.038-.177-.247-.482-.366-.78-.304-.296.062-.528.295-.59.592-.062.297.058.603.305.779.049.035.079.091.082.152.002.06-.023.118-.068.158-.226.199-.314.511-.225.799.089.287.338.495.636.532.299.037.59-.104.747-.361.057-.094.18-.124.274-.067.094.058.124.18.067.274-.201.33-.553.54-.94.558z"/>
                    <path fill="#EAC5B0" d="M50.182 36.349c-.037.107-.087.21-.147.307-.028.051-.066.096-.112.133-.034.023-.07.043-.108.058l-.266.118c-.029.016-.062.023-.094.02-.024-.006-.045-.017-.064-.033-.1-.074-.197-.156-.294-.238-.016-.012-.03-.029-.039-.047-.008-.042.005-.085.036-.114.132-.163.085-.224.127-.4.029-.12.113-.179.203-.259l.452-.4c.017-.014.368.232.408.259-.055.132-.03.298-.062.441-.01.052-.024.104-.04.155z"/>
                    <path fill="#D67086" d="M50.382 26.024c-.068.065-.126.14-.172.22-.211.361-.243.81-.17 1.219.113.652.434 1.272.62 1.908.215.726.429 1.453.642 2.18l-1.727 4.075.836.47 3.023-4.521c-.331-.951-.658-1.878-.927-2.843-.24-.864-.323-1.845-.932-2.545-.345-.399-.847-.486-1.193-.163z"/>
                    <path fill="#292949" d="M17.539 46.864c-.154.835-.28 1.788.262 2.452.523.641 1.46.756 2.297.823 1.397.111 2.909.198 4.097-.53.826-.507 1.38-1.358 1.51-2.32.01-.058.009-.12-.005-.178-.032-.08-.084-.15-.152-.204l-1.514-1.435c-.118-.123-.252-.228-.4-.313-.13-.062-.268-.108-.41-.137-1.331-.32-3.066-.743-4.442-.534-1.193.183-1.06 1.39-1.243 2.376z"/>
                    <path fill="#B97262" d="M18.367 40.65c.188-.366.122-.812-.164-1.109l-1.568-1.636c-.294-.306-.74-.628-.91-1.007-.3-.67-.393-1.536-.54-2.252-.073-.363-.254-.845-.207-1.215.009-.069.28-.661.264-.672l-.127-.105-.102.127-.115.01.186-.444-.52-.182-.5.398c.086.392.276.77.267 1.176 0 .172-.035.342-.053.515-.032.294-.024.589-.028.883-.005.294-.064.57-.064.85 0 .626.005 1.25.007 1.877l2.547 2.978c.215.25.538.375.865.337.326-.039.612-.237.762-.529z"/>
                    <path fill="#474EBB" d="M16.12 37.444c.017-.081.034-.162.053-.244.342-.015.688.03 1.034.005.425-.031.842-.128 1.267-.169.19-.018.382-.026.573-.033.847-.033.27 1.24.157 1.684-.165.664-.375 1.316-.628 1.952-.133.334-.285.66-.455.978-.087.16-.26.675-.442.723-.147.038-.266-.112-.347-.24-.404-.636-.938-1.18-1.567-1.594-.089-.032-.136-.127-.108-.217.138-.948.266-1.912.463-2.845z"/>
                    <path fill="#B97262" d="M23.153 40.37c-.187-.366-.121-.811.164-1.108l1.567-1.636c.295-.306.74-.629.91-1.008.301-.669.393-1.536.541-2.251.074-.364.254-.845.207-1.215-.009-.07-.28-.662-.264-.674l.126-.103.103.126.115.011-.186-.445.52-.182.5.398c-.087.392-.276.77-.267 1.177.004.171.035.341.054.515.031.294.023.588.028.882.004.294.063.57.063.851 0 .626-.005 1.25-.007 1.877l-2.546 2.974c-.213.25-.537.377-.864.34-.326-.038-.613-.236-.764-.528z"/>
                    <path fill="#474EBB" d="M25.4 37.164l-.053-.244c-.343-.015-.688.03-1.033.005-.425-.032-.843-.128-1.267-.17-.19-.017-.383-.025-.575-.032-.845-.033-.268 1.239-.155 1.684.164.664.373 1.316.626 1.951.133.335.284.661.454.978.088.16.26.676.442.724.147.038.266-.112.347-.24.404-.637.94-1.181 1.569-1.596.046-.023.083-.061.106-.108.009-.036.009-.073 0-.11-.137-.948-.264-1.909-.46-2.842z"/>
                    <path fill="#474EBB" d="M20.032 36.638c-.688.13-1.281.398-1.677 1.079-.284.488-.402 1.06-.521 1.606-.313 1.427-.452 2.88-.61 4.33-.146 1.387-.545 2.85-.104 4.22.06.182.228.402.395.307l.261-.907c.03-.133.085-.258.164-.368.081-.085.179-.154.286-.202.584-.296 1.22-.474 1.873-.523.723-.054 1.446.052 2.146.23.7.177 1.355.486 2.05.615.455.085.906.191 1.351.32.015.005.03.006.046.004.027-.01.036-.043.04-.074.037-.307.012-.619-.074-.916-.085-.3-.08-.627-.11-.94-.06-.67-.156-1.339-.29-2-.3-1.435-.82-2.814-1.074-4.26-.11-.624-.178-1.659-.767-2.138-.64-.519-2.087-.545-2.9-.453-.163.017-.327.04-.485.07z"/>
                    <path fill="#736052" d="M21.087 36.82c-.135.089-.47.158-.841.065-.075-.019-.131-.082-.14-.159-.025-.215-.035-.431-.03-.648 0-.056-.764-.299-.85-.36-.479-.347-.562-.968-.588-1.517-.013-.251-.019-.519.11-.735.146-.248.431-.374.707-.455.456-.132.932-.181 1.405-.147.43.032.898.162 1.134.525.337.52.251 1.544-.036 2.064-.166.301-.432.397-.644.632-.195.214-.136.472-.227.735z"/>
                    <path fill="#1A1A1A" d="M22.375 32.771c.067-.12.132-.236.09-.359-.03-.084-.105-.147-.148-.22-.102-.194.022-.442-.05-.648-.093-.272-.486-.383-.515-.67-.103-.092-.225.085-.341.162-.264.172-.578-.231-.89-.184-.236.035-.392.324-.632.313-.179-.008-.354-.187-.515-.103-.073.037-.107.116-.168.166-.196.16-.582 0-.692.228-.064.134-.037.252-.174.342-.12.079-.36-.05-.434.122-.013.04-.017.08-.011.122l.085 1.25c-.002.114.027.227.085.326.047.066.12.112.152.186.039.091.004.199.028.294.038.156.546.956.698.693.055-.096.036-.215.017-.323-.027-.16-.046-.333.035-.473.13-.22.43-.242.685-.258.238-.003.473-.057.689-.159.147-.073.34-.183.45-.062.024.036.05.07.079.1.06.048.147.022.214-.018.06-.047.13-.08.206-.095.073 0 .157.082.115.148.026.073.136-.025.217-.02.067.005.097.085.111.151l.128.593c.168.011.324-.088.387-.244.172-.39-.094-.762-.005-1.134.024-.08.059-.156.104-.226z"/>
                    <circle cx="20.422" cy="30.605" r="6.564" fill="#FFD33F" transform="rotate(-45 20.422 30.605)"/>
                    <path fill="#000" d="M23.575 24.84c1.769 2.492 1.583 5.876-.448 8.16-2.03 2.285-5.37 2.866-8.052 1.401 1.565 2.203 4.32 3.22 6.941 2.566 2.622-.656 4.574-2.85 4.919-5.53.345-2.68-.988-5.297-3.357-6.595l-.003-.002z" opacity=".08"/>
                    <path fill="#FFF" d="M14.792 31.576c-.128-2.605 1.417-5.002 3.841-5.963 2.425-.96 5.192-.272 6.884 1.713-1.23-1.912-3.423-2.98-5.687-2.77-2.264.209-4.223 1.661-5.082 3.767-.858 2.106-.472 4.514 1 6.247-.576-.897-.906-1.93-.956-2.994z" opacity=".2"/>
                    <path fill="#292949" d="M17.768 31.413c-.078-.06-.187-.061-.266-.002-.079.059-.11.163-.074.256.556 1.211 1.788 1.968 3.12 1.915 1.333-.052 2.501-.904 2.96-2.156.034-.096-.004-.203-.091-.257-.087-.053-.2-.038-.27.036-.914.977-2.885 2.4-5.379.208zM22.028 28.791c.16-.466.586-.789 1.078-.818.492-.03.953.24 1.167.684.042.084.018.185-.057.242-.074.056-.178.052-.247-.01-.382-.334-.97-.588-1.613.1-.062.067-.164.082-.243.034-.08-.047-.115-.144-.085-.232zM16.398 29.07c.16-.466.586-.79 1.078-.818.492-.03.953.24 1.167.684.04.084.016.184-.058.24-.074.056-.177.053-.247-.008-.38-.335-.97-.588-1.61.1-.036.037-.084.059-.135.062-.038.001-.077-.009-.11-.028-.08-.048-.115-.145-.085-.232z"/>
                    <circle cx="15.644" cy="31.669" r="1.144" fill="#D67086" transform="rotate(-32.735 15.644 31.669)"/>
                    <path fill="#D67086" d="M26.43 31.222c.024.462-.234.894-.653 1.092-.419.198-.916.125-1.26-.186-.343-.312-.465-.799-.31-1.235.157-.437.56-.736 1.023-.759.632-.03 1.17.456 1.2 1.088z"/>
                    <path fill="#B97262" d="M19.867 51.18c-.189.042-.374 0-.562.008-.09-.65-.112-1.307-.067-1.961.336.277.55.055.63.657.026.194-.083 1.006-.001 1.297z"/>
                    <path fill="#292949" d="M19.214 50.868c-.229-.045-.2.482-.184.604.016.072.023.146.022.22-.015.08-.046.158-.092.225l-.256.442c-.042.064-.073.135-.092.21-.026.194.092.38.28.44.626.209 1.053-.588 1.11-1.075.008-.073.011-.147.014-.225.007-.157.074-.505-.01-.645-.096-.162-.29-.005-.441-.05-.15-.044-.258-.128-.35-.146zM20.77 41.81c.056.063.107.128.154.196.376.544.509 1.227.494 1.887-.015.66-.167 1.31-.319 1.953-.182.777-.416 1.551-.455 2.342-.021.42-.09.842-.137 1.26-.042.371-.088.745-.115 1.119-.01.132-.032.14-.171.16-.512.08-1.036.027-1.522-.15-.228-.085-.16-.524-.18-.722-.057-.575-.101-1.153-.147-1.73-.086-1.151-.192-2.304-.226-3.459-.03-1-.189-1.985.515-2.802.264-.308.628-.556 1.03-.573.401-.017.8.208 1.08.52z"/>
                    <path fill="#B97262" d="M22.564 50.866c.195.033.383-.019.575-.02.06-.67.05-1.343-.028-2.01-.33.3-.56.083-.612.703-.017.201.134 1.026.065 1.327z"/>
                    <path fill="#292949" d="M23.217 50.514c.231-.057.228.483.22.609-.013.074-.017.15-.012.226.02.082.055.16.106.226l.283.442c.047.063.082.135.105.21.035.199-.076.394-.264.466-.632.243-1.107-.547-1.188-1.045-.013-.074-.02-.154-.027-.231-.015-.16-.098-.515-.021-.662.09-.172.294-.02.448-.074.136-.045.255-.143.35-.167zM21.369 41.822c-.052.063-.098.129-.14.198-.34.545-.437 1.214-.392 1.854.045.64.22 1.263.4 1.881.213.745.477 1.486.55 2.252.02.2.407 2.444.365 2.446.271-.013.541.061.815.031.294-.032.592-.051.886-.095-.007-.16.047-.267.066-.418.018-.15 0-.294.009-.441.03-.561.045-1.124.06-1.686.03-1.122.079-2.245.058-3.368-.018-.972.09-1.936-.628-2.697-.27-.286-.636-.51-1.03-.508-.393.002-.763.235-1.02.55z"/>
                </g>
            </g>
        </g>
    </g>
</svg>
