<svg xmlns="http://www.w3.org/2000/svg" xmlns:xlink="http://www.w3.org/1999/xlink" width="260" height="71" viewBox="0 0 260 71">
    <defs>
        <path id="prefix__a" d="M56 28c.007 13.671-9.866 25.346-23.348 27.61-11.589 1.952-23.163-3.54-28.98-13.75C-2.146 31.65-.968 18.894 6.62 9.92 14.208.949 26.592-2.331 37.627 1.709 48.662 5.748 56 16.25 56 28.001z"/>
        <path id="prefix__c" d="M3.944.002l20.014 6.502c-.073.233-.113.481-.113.738 0 1.365 1.106 2.471 2.47 2.471h.006l-2.478 7.628c-.436-.39-1.012-.627-1.644-.627-1.155 0-2.125.793-2.395 1.865L0 12.143l.387-1.195c.06.034.123.062.19.084.54.176 1.121-.12 1.297-.661.176-.541-.12-1.122-.66-1.297-.068-.022-.136-.037-.203-.044l.14-.432c.059.034.123.062.19.084.54.176 1.12-.12 1.297-.661.175-.54-.12-1.122-.66-1.297-.068-.022-.136-.037-.204-.044l.267-.823c.06.033.123.062.19.083.541.176 1.122-.12 1.297-.66.176-.541-.12-1.122-.66-1.298-.067-.022-.135-.036-.203-.044l.267-.823c.06.034.123.062.19.084.54.176 1.121-.12 1.297-.661.176-.541-.12-1.122-.66-1.297-.068-.022-.136-.037-.203-.044L3.944.002z"/>
        <path id="prefix__d" d="M7.588 0C8.224 0 8.74.516 8.74 1.152c0 .158-.032.314-.095.459l-.287.66c1.615-.827 2.783-.43 3.505 1.194.723 1.622.569 2.782-.462 3.477 1.297.817 1.412 2.622.347 5.416-1.065 2.794-2.195 4.816-3.39 6.066l1.299 1.171H2.812l1.298-1.171c-1.195-1.25-2.325-3.272-3.39-6.066s-.949-4.6.348-5.416C.038 6.247-.117 5.087.605 3.465c.696-1.563 1.805-1.99 3.328-1.28l.177.086-.286-.66c-.063-.145-.095-.301-.095-.459 0-.594.449-1.083 1.026-1.145L4.881 0h2.707zm-5.96 3.831c-.975 1.806-.264 2.562.534 2.3.8-.26 3.093-.449 1.826-2.69l-.016-.016c-.156-.149-1.43-1.287-2.344.406zm9.127-.318c-.975-1.806-2.252-.262-2.252-.262-1.355 2.091.919 2.302 1.718 2.563.798.261 1.509-.495.534-2.3z"/>
        <filter id="prefix__b" width="126.6%" height="137.7%" x="-13.3%" y="-13.5%" filterUnits="objectBoundingBox">
            <feOffset dy="1" in="SourceAlpha" result="shadowOffsetOuter1"/>
            <feGaussianBlur in="shadowOffsetOuter1" result="shadowBlurOuter1" stdDeviation="1"/>
            <feColorMatrix in="shadowBlurOuter1" values="0 0 0 0 0 0 0 0 0 0 0 0 0 0 0 0 0 0 0.277780813 0"/>
        </filter>
    </defs>
    <g fill="none" fill-rule="evenodd">
        <g transform="translate(5 5)">
            <rect width="229" height="55" x="16" y="3" fill="#95C11F" rx="22"/>
            <text fill="#FFF" font-family="Montserrat-SemiBold, Montserrat" font-size="18" font-weight="500">
                <tspan x="78" y="37">MUSEOS</tspan>
            </text>
            <g transform="translate(7 2)">
                <use fill="#033974" fill-rule="nonzero" xlink:href="#prefix__a"/>
            </g>
            <g transform="translate(.28 .208)">
                <g transform="translate(31.245)">
                    <use fill="#000" filter="url(#prefix__b)" xlink:href="#prefix__c"/>
                    <use fill="#FFECD1" xlink:href="#prefix__c"/>
                </g>
                <path fill="#008EB5" d="M61.695 48.255H63.759V54.448H61.695z"/>
                <path fill="#008EB5" d="M61.695 54.332L59.608 55.334 59.608 56.175 65.722 56.175 65.722 55.194 63.759 54.332z"/>
                <path fill="#FAB321" d="M61.695 38.965H63.759V41.287000000000006H61.695z"/>
                <circle cx="62.727" cy="37.675" r="1.032" fill="#FAB321"/>
                <path fill="#E66026" d="M55.76 39.997H69.695V49.028999999999996H55.76z"/>
                <path fill="#FFF" d="M57.05 41.546H61.178999999999995V46.191H57.05z"/>
                <path fill="#D8D8D8" stroke="#979797" stroke-width=".6" d="M61.995 41.846H67.846V42.846H61.995z"/>
                <path fill="#FFF" d="M61.695 41.546H68.404V42.836H61.695zM61.695 43.094H68.404V44.126000000000005H61.695zM61.695 44.384H65.05V45.416H61.695z"/>
                <path fill="#D8D8D8" d="M61.695 45.674H65.05V46.706H61.695z"/>
                <path fill="#FFF" d="M61.695 46.965H65.05V47.997H61.695z"/>
                <path fill="#D8D8D8" d="M61.695 45.674H65.05V46.706H61.695z"/>
                <path fill="#FFF" d="M61.695 45.674H65.05V46.706H61.695zM65.308 44.384H68.405V45.416H65.308zM65.308 46.965H68.405V47.997H65.308zM65.308 45.674H68.405V46.706H65.308z"/>
                <path fill="#9F3F00" d="M16.278 42.836v13.006h35.523V42.836"/>
                <path fill="#0AAAD7" d="M31.245 35.095H34.6V42.32H31.245z"/>
                <path fill="#008EB5" d="M33.31 35.095H36.665V42.32H33.31z"/>
                <path fill="#833502" d="M13.956 42.836H53.69499999999999V47.223H13.956z"/>
                <path fill="#0AAAD7" d="M24.512 40.836L24.512 42.836 29.446 42.836 29.446 40.772z"/>
                <path fill="#008EB5" d="M29.446 40.836L43.673 40.836 43.673 42.836 29.446 42.836M29.446 40.836L33.205 39.108 36.559 39.108 43.673 40.836"/>
                <path fill="#0AAAD7" d="M24.512 40.836L31.609 39.108 33.205 39.108 29.446 40.836z"/>
                <path fill="#FFF" d="M22.133 19.15c0 .752.31 1.14.932 1.163-1.222-.15-2.092.024-2.608.518-.517.495-.914.89-1.19 1.184h4.289l.956.399c2.348 1.157 3.993 1.515 4.934 1.075.94-.44 1.595-.44 1.96 0 .077 2.42.954 3.853 2.634 4.298 1.68.444 1.975.674.887.692-.449 1.169-.744 2.022-.887 2.559-.143.536-1.02 1.731-2.633 3.585l-.603.974h13.949c2.601.462 4.132.202 4.593-.78-5.144-1.018-8.331-1.987-9.561-2.906-1.846-1.379-1.72-.222-2.629-2.334-.605-1.407-.327-2.365.836-2.874h14.54c-4.358-3.27-7.871-5.066-10.539-5.388-2.667-.323-4.28-.855-4.837-1.598-.194-.504-1.105-.89-2.732-1.158-1.626-.269-5.102-.523-10.427-.765-1.243.15-1.864.602-1.864 1.355z"/>
                <path fill="#DEDEDE" d="M38.932 26.703v2.232c.961-.965 1.376-1.709 1.243-2.232M40.843 26.703v2.232c.876-1.01 1.313-1.753 1.313-2.232M42.795 26.703v2.232c.81-.683 1.215-1.427 1.215-2.232M44.67 26.703c.134.262.207.571.22.927.011.357-.034.883-.136 1.578 1.008-.655 1.45-1.49 1.329-2.505M46.552 26.703c.11.497.163.914.163 1.253 0 .338-.054.816-.163 1.435.87-.464 1.305-1.36 1.305-2.688M48.475 26.703c.18.085.27.41.27.977v.276c0 .337-.09.815-.27 1.435 1.167-.472 1.664-1.368 1.49-2.688M50.374 26.703c.196.449.294.866.294 1.253 0 .386-.098.94-.294 1.659 1.2-.914 1.74-1.885 1.617-2.912M38.932 31.348c.647-.54.97-1.033.97-1.476 0-.664.97 2.108 0 2.108M40.537 32.336l.963-2.363c.732 1.55.792 2.511.18 2.883M42.156 32.931c.705-1.15 1.058-1.978 1.058-2.481.477 1.26.556 2.206.237 2.839M43.632 33.428c.826-1.028 1.24-1.763 1.24-2.204.564 1.7.668 2.543.309 2.53-.359-.013-.875-.122-1.55-.326zM45.696 33.853c.639-1.22.958-2.063.958-2.53 0-.702.652 2.55.652 2.843M47.76 34.354c.668-1.136 1.002-1.97 1.002-2.504 0-.799 1.236 3 .31 3"/>
                <path fill="#032850" d="M33.826 23.656c-.026 1.475 1.7 2.063 5.18 1.765 1.36-.604 1.688-1.3.983-2.088-.705-.789-1.875-1.916-3.512-3.383l-1.35-.146c-1.23-.128-1.664 1.155-1.301 3.852z"/>
                <path fill="#FFF" d="M15.95 28.159c.226-1.36.835-2.039 1.828-2.039 1.488 0 1.697-1.349 2.804-1.349 1.107 0 3.095-.244 5.685.725 2.591.969 2.912-2.252 3.988-1.762 1.076.49.806 1.624.94 3.64.09 1.345 1.173 1.865 3.248 1.561-.826.683-1.238 1.445-1.238 2.289 0 .843-.983 2.306-2.95 4.387-7.1-3.338-11.259-5.285-12.477-5.841-1.22-.557-1.829-1.093-1.829-1.611z"/>
                <g transform="translate(0 36.112)">
                    <mask id="prefix__e" fill="#fff">
                        <use xlink:href="#prefix__d"/>
                    </mask>
                    <use fill="#F84900" xlink:href="#prefix__d"/>
                    <path stroke="#FFF" stroke-width="1.152" d="M-1.269 7.756L13.182 7.756M-.237 11.627L12.666 11.627" mask="url(#prefix__e)"/>
                    <path stroke="#FFF" stroke-width=".6" d="M0 8.387L2.874 8.387 2.874 10.018 2.002 10.018" mask="url(#prefix__e)"/>
                    <path stroke="#FFF" stroke-width=".6" d="M2.103 9.203L1.155 9.203 1.155 10.849 3.476 10.849 3.476 8.387 5.951 8.387 5.951 10.018 5.055 10.018" mask="url(#prefix__e)"/>
                    <path stroke="#FFF" stroke-width=".6" d="M5.415 9.203L4.153 9.203 4.153 10.849 6.568 10.849 6.568 8.387 8.959 8.387 8.959 10.018 8.2 10.018" mask="url(#prefix__e)"/>
                    <path stroke="#FFF" stroke-width=".6" d="M8.381 9.329L7.285 9.329 7.285 10.849 9.655 10.849 9.655 8.387 12.025 8.387 12.025 10.018 11.228 10.018" mask="url(#prefix__e)"/>
                    <path stroke="#FFF" stroke-width=".6" d="M11.49 9.203h-1.031v1.536h1.32" mask="url(#prefix__e)"/>
                </g>
                <path fill="#D8D8D8" d="M22.746 20.647c-1.674-.2-2.834.257-3.48 1.368 2.926.144 4.518.26 4.776.348.388.132 2.919 2.688 4.925 1.544 2.007-1.143 2.027-.68 2.387-.34.174.164.04 1.188.353 2.182.337 1.072 1.152 2.119 2.228 2.295.904.148.883.459.665 1.164l-.451 1.466c8.865 3.441 13.93 4.822 15.197 4.142-.942-.435-1.656-.727-2.141-.874-6.474-1.97-10.078-3.087-10.497-3.722-.467-.707-.48-1.804-.04-3.293-1.962.16-3.338-.846-4.128-3.02-.79-2.173-2.26-2.756-4.406-1.75l-5.388-1.51z"/>
                <path stroke="#FFF" stroke-linecap="round" stroke-width=".6" d="M63.102 37.053c.146.166.237.295.274.387.073.18.071.383.052.569"/>
            </g>
            <path fill="#EC1818" fill-rule="nonzero" d="M38.552 9.577l.179-.49-1.778-.647.316-.868 1.521.554.175-.481-1.521-.554.298-.818 1.715.624.178-.49-2.3-.837-1.146 3.147 2.363.86zm1.162.423l.442-1.214c.085-.234.21-.391.375-.472.166-.08.352-.083.559-.008.183.067.305.171.365.314.06.142.052.318-.024.528l-.475 1.304.563.205.5-1.376c.127-.348.131-.643.012-.887-.118-.243-.33-.42-.632-.53-.177-.065-.347-.094-.509-.089-.161.006-.309.047-.442.124l.113-.31-.536-.195-.874 2.401.563.205zm3.414 1.278c.105.038.21.061.314.069.104.007.2-.004.285-.034l-.012-.458c-.108.036-.225.03-.351-.015-.108-.04-.18-.1-.214-.183-.035-.082-.03-.181.012-.298l.415-1.142.644.234.164-.45-.644-.234.2-.549-.563-.204-.2.548-.396-.144-.163.45.396.144-.42 1.155c-.097.264-.098.491-.004.681.094.19.273.334.537.43zm1.578.539l.424-1.165c.087-.24.215-.4.385-.483.169-.083.363-.084.582-.005.04.014.081.035.126.061l.195-.535c-.408-.148-.74-.126-.993.067l.128-.351-.536-.195-.874 2.401.563.205zm2.04.778c.18.066.345.094.493.085.147-.009.275-.053.382-.133l-.106.292.53.193.513-1.407c.124-.342.124-.631-.002-.869s-.366-.42-.72-.55c-.198-.072-.395-.115-.59-.128-.196-.014-.375.005-.536.055l.072.49c.117-.043.249-.061.395-.056.145.006.286.033.42.082.199.072.332.172.4.298.067.127.07.274.01.442l-.013.036-.622-.226c-.345-.126-.621-.153-.83-.08-.207.071-.35.215-.429.43-.05.139-.058.276-.025.412.034.136.107.26.22.37.112.11.259.199.439.264zm.267-.366c-.144-.053-.246-.124-.305-.213-.06-.09-.07-.185-.033-.287.077-.213.278-.26.602-.142l.58.211-.1.279c-.09.103-.2.167-.333.192-.133.024-.27.011-.411-.04zm2.759 1.467c.165.06.326.087.483.08.158-.008.303-.051.438-.131l-.113.31.54.196 1.214-3.336-.562-.205-.449 1.232c-.053-.141-.136-.263-.249-.365-.112-.102-.248-.182-.407-.24-.231-.084-.457-.109-.68-.074-.22.034-.418.126-.59.273-.173.148-.304.343-.392.586-.089.243-.114.477-.077.703.036.225.129.422.276.592.147.169.337.295.568.38zm.242-.456c-.135-.05-.245-.124-.33-.225-.086-.1-.14-.22-.161-.357-.022-.136-.006-.28.049-.43.055-.15.134-.27.239-.36.104-.092.221-.148.352-.17.13-.023.263-.01.398.04s.245.124.331.225c.086.1.14.22.16.356.022.137.006.28-.049.43-.054.15-.134.27-.238.362-.105.09-.222.147-.352.17-.13.021-.264.008-.399-.041zm2.558 1.475c.18.066.344.094.491.085.148-.009.275-.053.383-.133l-.107.292.531.193.513-1.407c.124-.342.123-.631-.003-.869s-.366-.42-.72-.55c-.198-.072-.395-.115-.59-.128-.196-.014-.374.005-.535.055l.072.49c.117-.043.249-.061.394-.056.146.006.287.033.422.082.198.072.33.172.398.298.068.127.072.274.01.442l-.013.036-.62-.226c-.346-.126-.622-.153-.83-.08-.208.071-.352.215-.43.43-.05.139-.059.276-.025.412.034.136.107.26.22.37.112.11.259.199.439.264zm.266-.366c-.144-.053-.246-.124-.305-.213-.06-.09-.07-.185-.033-.287.077-.213.278-.26.602-.142l.58.211-.1.279c-.09.103-.2.167-.333.192-.133.025-.27.011-.411-.04z"/>
        </g>
    </g>
</svg>
