<svg xmlns="http://www.w3.org/2000/svg" xmlns:xlink="http://www.w3.org/1999/xlink" width="255" height="234" viewBox="0 0 255 234">
    <defs>
        <rect id="prefix__a" width="255" height="234" x="0" y="0" rx="8"/>
        <path id="prefix__c" d="M124.89 62.258c0 34.384-27.874 62.258-62.258 62.258S.374 96.642.374 62.258 28.248 0 62.632 0c16.536-.078 32.417 6.456 44.11 18.149 11.692 11.693 18.226 27.574 18.148 44.11z"/>
    </defs>
    <g fill="none" fill-rule="evenodd">
        <mask id="prefix__b" fill="#fff">
            <use xlink:href="#prefix__a"/>
        </mask>
        <rect width="254" height="233" x=".5" y=".5" stroke="#CCC" rx="8"/>
        <text fill="#000" font-family="Montserrat-Medium, Montserrat" font-size="18" font-weight="400" mask="url(#prefix__b)">
            <tspan x="42.212" y="201">Vida y movimiento</tspan>
        </text>
        <g>
            <g transform="translate(53 37) translate(12)">
                <mask id="prefix__d" fill="#fff">
                    <use xlink:href="#prefix__c"/>
                </mask>
                <use fill="#D22C80" fill-rule="nonzero" xlink:href="#prefix__c"/>
                <g mask="url(#prefix__d)">
                    <g transform="translate(3.29 34.525)">
                        <path fill="#3B3688" fill-rule="nonzero" d="M79.16 62.93s-1.996 3.022-1.727 4.106c.556 2.313 5.58 4.681 8.006 5.15 2.99.577 10.637 1.437 12.774-.952.725-.818.17-4.367.17-4.367L79.158 62.93z"/>
                        <g>
                            <path fill="#3B3688" fill-rule="nonzero" d="M29.484 60.41c2.161-.238 8.058-2.63 8.058-2.63l-.656 6.597c-6.132 6.56-17.918 4.951-20.059.214-.832-1.833 1.226-6.939 1.226-6.939s6.218 3.332 11.43 2.759z" transform="translate(.53 .69)"/>
                            <path fill="#3B3688" fill-rule="nonzero" d="M-1.978 76.602L32.906 76.602 32.906 84.954 -1.978 84.954z" transform="translate(.53 .69) rotate(-71.87 15.464 80.778)"/>
                            <path fill="#624A40" d="M.911 22.548C2.8 30.458 7.03 32.608 6.76 41.143c-.083 2.52-2.396 4.598-2.838 8.002-.304 2.358.953 4.92 6.87 7.53 4.986 2.2 15.08-.649 14.431-5.893 0 0 4.002-18.685-3.107-26.719L7.768 18.584S.445 20.594.911 22.548z" transform="translate(.53 .69)"/>
                            <path fill="#C8D4EA" d="M39.869 31.11c.062.055.058 0 0 0" transform="translate(.53 .69)"/>
                            <path fill="#557FAF" d="M22.548 47.951L22.548 47.951 22.548 47.951 22.551 48.009 22.548 47.951" transform="translate(.53 .69)"/>
                            <path fill="#FEAF46" fill-rule="nonzero" d="M15.643 38.557s7.92-6.373 14.57-7.565c.797-.145 2.668.439 3.207 1.547 2.471 5.092 6.487 14.055 3.935 27.005-2.68.967-5.479 1.57-8.32 1.795-4.726.318-10.081-.642-11.248-3.497 0 0 1.702-4.302 1.56-7.468-.138-3.093-3.704-11.817-3.704-11.817z" transform="translate(.53 .69)"/>
                            <path fill="#F7CFA9" d="M13.982 30.778c.597-.408 1.156-.87 1.668-1.38 1.84-1.416-.376-2.359-1.322-4.216-1.164-2.116-2.358-4.05-5.03-3.035-.895.321-2.162.522-3.015 1.84-.666.991-1.077 2.12-.027 4.254.79 1.992 4.43 4.067 7.726 2.537z" transform="translate(.53 .69)"/>
                            <path fill="#624A40" d="M23.943 6.283l5.634 9.785 2.358-1.143c.808-6.74-7.478-12.146-7.478-12.146l-.514 3.504z" transform="translate(.53 .69)"/>
                            <path fill="#F7CFA9" d="M8.21 21.253l2.185 4.077c2.824 5.1 7.209 8.531 16.227 5.383l2.416-1.153c3.833-2.62 5.828-5.655 5.29-8.631-.691-4.316-2.03-4.223-3.508-6.819l-2.22-4.084c-2.814-5.04-9.667-6.601-15.319-3.518-5.64 3.028-7.94 9.712-5.071 14.745z" transform="translate(.53 .69)"/>
                            <path fill="#161F36" fill-rule="nonzero" d="M23.96 20.521c-.021 0-.04-.009-.055-.024-.028-.03-.028-.074 0-.104.069-.058 1.702-1.44 2.951-1.194.437.087.804.379.988.784.018.035.004.078-.031.096-.018.01-.038.012-.057.006-.019-.006-.035-.019-.043-.037-.166-.362-.494-.625-.884-.707-1.177-.228-2.814 1.15-2.831 1.163-.01.01-.024.016-.038.017z" transform="translate(.53 .69)"/>
                            <g>
                                <path fill="#DB3945" d="M8.538 6.349C5.776 7.613.525 6.801.1 4.509-.41 2.05 4.47 3.042 7.084 2.037c1.613-.615 3.87-2.745 4.754-1.647 1.53 1.823-.424 4.73-3.3 5.959z" transform="translate(.53 .69) translate(18.643 22.44)"/>
                                <path fill="#FF514F" d="M10.32 5.296c-.56.45-1.175.827-1.83 1.119-2.258 1.011-5.842.756-7.472-.577.501-.2 1.778-.345 3.657-.763 2.102-.51 4.57-.963 5.644.221z" transform="translate(.53 .69) translate(18.643 22.44)"/>
                                <path fill="#F5FAFE" d="M7.084 2.037C7.975 1.716 9.156.88 10.133.428l.4 1.412C9.94 3.29 8.393 3.953 6.39 4.447c-.065-.049-.076-.107-.141-.156-1.288-1.035-2.072-.079-2.513.522-1.271.122-2.551-.103-3.705-.65-.007-.37.186-.717.504-.907 1.409-.87 4.606-.439 6.55-1.22z" transform="translate(.53 .69) translate(18.643 22.44)"/>
                            </g>
                            <path fill="#161F36" d="M28.659 15.86c.393-.12.486-.666.28-1.222-.208-.556-.657-.783-.995-.67-.338.114-.483.667-.287 1.167.026.22.142.417.319.548.177.13.4.183.617.143.007.045.007.045.066.034z" transform="translate(.53 .69)"/>
                            <path fill="#161F36" fill-rule="nonzero" d="M29.774 12.643c-.029 0-.057-.01-.08-.028-.22-.148-.404-.286-.57-.41-.766-.577-1.152-.867-3.138-.788-.078 0-.144-.06-.151-.138-.002-.038.011-.076.037-.105.026-.028.062-.045.1-.047 2.093-.083 2.531.245 3.329.843.162.124.345.259.556.407.033.02.055.054.063.092.007.038-.002.077-.025.108-.027.041-.073.066-.121.066z" transform="translate(.53 .69)"/>
                            <path fill="#624A40" d="M6.604 23.397c1.381-.873 2.894-1.112 3.836-.376.684.636 1.213 1.42 1.547 2.292.114.345 1.823-1.533 1.885-2.25.034-.892 2.23-5.255 1.426-8.08-.303-1.265-.937-2.427-1.837-3.366 1.844.829 10.996-1.753 12.715-1.322 1.416.366 4.264.086 2.24-3.722C24.914.166 20.88.045 18.178.121c-3.356.065-6.494 1.098-8.552 3.373C5.6 7.854 3.287 15.19 3.287 15.546c.197 1.62 2.085 8.638 3.317 7.851z" transform="translate(.53 .69)"/>
                            <path fill="#624A40" d="M8.531 22.144c-1.236 1.143-2.703 1.201-2.793 3.577-.152 2.385.66 3.024.66 3.024-2.227-1.427-4.09-3.353-5.445-5.624-.659-1.054-.941-2.3-.801-3.535.31-3.235.59-7.768 5.669-9.229-.076-.103 3.635 10.93 2.71 11.787z" transform="translate(.53 .69)"/>
                            <path fill="#161F36" d="M20.418 18.95c.393-.124.483-.67.276-1.225-.207-.556-.656-.78-.994-.67-.339.11-.484.67-.284 1.167.208.56.608.85 1.002.728z" transform="translate(.53 .69)"/>
                            <path fill="#161F36" fill-rule="nonzero" d="M17.024 17.452c-.02.005-.04.005-.059 0-.035-.016-.063-.045-.076-.081-.014-.037-.013-.077.004-.112.055-.121 1.38-2.97 3.566-2.455.076.022.123.098.107.176-.019.079-.097.128-.176.11-1.94-.459-3.221 2.262-3.231 2.29-.028.047-.08.075-.135.072z" transform="translate(.53 .69)"/>
                            <path fill="#F7CFA9" d="M20.75 35.028s5.257 2.248 6.724 1.499c1.312-.67.57-5.106.57-5.106s-1.557.69-3.435 1.418c-1.358.596-2.652 1.33-3.86 2.19z" transform="translate(.53 .69)"/>
                            <path fill="#F7CFA9" d="M21.854 30.806L23.273 34.776 26.894 33.074 24.782 30.461z" transform="translate(.53 .69)"/>
                            <path fill="#3B3688" fill-rule="nonzero" d="M40.186 100.082C40.141 76.35 29.974 67.975 29.87 67.94l.11.021 1.323-5.393c.27.042 2.731-2.389 5.793-.203 5.1 3.645 11.393 18.052 11.445 37.7l-8.355.017z" transform="translate(.53 .69)"/>
                        </g>
                        <path fill="#FEAF46" fill-rule="nonzero" d="M33.66 37.03l-4.22-4.833 2.11 2.417-2.113-2.417c3.267-3.099 6.001-6.715 8.093-10.702 2.511-4.872 3.804-10.28 3.767-15.76l6.41-.118c.052 6.55-1.489 13.016-4.487 18.84-2.45 4.704-5.683 8.956-9.56 12.574z"/>
                        <path fill="#F7CFA9" fill-rule="nonzero" d="M48.871 8.307l-8.348-2.02s.511-5.213 1.906-5.87c1.857-.873 7.75 3.885 7.75 3.885l-1.308 4.005z"/>
                        <path fill="#19B3E9" fill-rule="nonzero" d="M42.628 -1.012L46.159 -1.012 46.159 13.571 42.628 13.571z" transform="rotate(-76.4 44.393 6.28)"/>
                        <path fill="#19B3E9" fill-rule="nonzero" d="M55.921 8.71c-.504 2.072-1.495 3.626-2.22 3.453-.037-.008-.073-.02-.107-.038l-2.537-.615c-.038.005-.077.005-.114 0-.722-.176-.898-2.002-.394-4.084.48-1.995 1.416-3.497 2.127-3.452h.09l2.761.666c.722.162.898 1.992.394 4.07zM39.46 4.726c-.504 2.072-1.495 3.629-2.217 3.453-.038-.007-.074-.021-.107-.042l-2.54-.6c-.038.003-.077.003-.115 0-.721-.176-.897-2.006-.393-4.085.483-1.995 1.415-3.5 2.127-3.452.03-.002.06-.002.09 0l2.761.67c.722.148.898 1.978.394 4.056z"/>
                        <path fill="#F7CFA9" fill-rule="nonzero" d="M40.375 8.935c-.456-.345-.656-2.745-.318-3.214.946-1.298 3.915-1.509 5.075-.943.377.264.645.655.756 1.101.035.315-.186 1.036-.473 1.167-.449.197-1.795-.38-1.954-.19-.159.19.128.88.128.88l5.293 1.358s-.242 1.094-.601 1.29c-1.74.95-6.3-.22-7.906-1.45z"/>
                        <path fill="#FEAF46" fill-rule="nonzero" d="M5.964 10.99s-.238 9.345 2.296 11.879l-1.899.552S2.716 13.444 4.697 11.86l1.267-.87z"/>
                        <path fill="#19A2AA" fill-rule="nonzero" d="M82.743 33.668s8.914 2.14 16.572 5.151c0 0 .842 9.211.911 12.878.066 3.587-1.357 15.114-1.357 15.114s-9.415.64-12.428-.114c-2.417-.6-8.85-4.588-8.85-4.588l3.15-9.936 2.002-18.505z"/>
                        <g>
                            <path fill="#161F36" d="M4.367 6.38s-2.35 4.354-.397 10.823l2.472.77 3.943-10.498L4.367 6.38z" transform="translate(75.793 2.071)"/>
                            <path fill="#EFB892" d="M20.842 5.81C15.743 3.98 9.874 5.417 7.15 9.311c-.494.867-.87 1.796-1.115 2.762l-1.188 4.015c-1.036 2.921-2.34 3.056-2.344 7.326.045 3.06 2.375 5.721 6.622 7.668.538.245 2.59.825 2.59.825 9.366 1.682 13.142-2.45 15.076-7.94l1.56-4.35c1.934-5.486-1.477-11.614-7.509-13.807z" transform="translate(75.793 2.071)"/>
                            <path fill="#EFB892" d="M31.43 26.18c.66-2.23.125-3.273-.69-4.143-1.07-1.143-2.368-1.157-3.314-1.302-2.814-.493-3.66 1.509-4.409 3.774-.69 1.995-2.762 3.214-.649 4.26.597.418 1.23.78 1.892 1.084 3.353 1.008 6.505-1.602 7.17-3.673z" transform="translate(75.793 2.071)"/>
                            <path fill="#161F36" fill-rule="nonzero" d="M8.8 21.588h-.02c-.02-.005-.035-.017-.044-.034-.01-.017-.011-.037-.005-.056.109-.418.414-.758.818-.911 1.185-.439 3.035.69 3.108.742.016.01.028.026.033.045.004.019 0 .039-.01.055-.01.017-.026.029-.045.033s-.039 0-.054-.012c-.021 0-1.872-1.14-2.987-.729-.362.14-.635.446-.732.822-.01.026-.034.044-.062.045z" transform="translate(75.793 2.071)"/>
                            <g>
                                <path fill="#DB3945" d="M.37.604c.69-1.201 3.29.566 4.947.894 2.727.525 7.381-1.253 7.291 1.312-.127 2.33-4.992 3.94-8.023 3.132C1.554 5.134-.77 2.617.369.604z" transform="translate(75.793 2.071) translate(6.214 24.167)"/>
                                <path fill="#FF514F" d="M8.172 3.963c1.916.083 3.152.07 3.687.17-1.481 1.494-5.013 2.416-7.274 1.809-.683-.18-1.336-.455-1.94-.819.897-1.325 3.373-1.204 5.527-1.16z" transform="translate(75.793 2.071) translate(6.214 24.167)"/>
                                <path fill="#F5FAFE" d="M11.86 1.598c.347.127.596.437.645.805-.812.688-1.83 1.085-2.893 1.129-.515-.452-1.689-2.006-3.108.017-.055.12-.055.12-.141.152-1.975-.11-3.608-.494-4.45-1.823L2.13.46c1.036.26 2.268.894 3.249 1.126 1.985.345 5.106-.608 6.48.013z" transform="translate(75.793 2.071) translate(6.214 24.167)"/>
                            </g>
                            <path fill="#161F36" d="M8.137 16.796c.1-.532-.12-.994-.448-1.074-.328-.079-.784.294-.884.825-.1.532.124.998.449 1.074.386.107.787-.29.883-.825zM30.616 10.879C28.67-2.241 7.05-1.367 2.341 3.062.96 4.32 5.344 4.73 5.344 4.73S.98 6.204.36 9.757c-.483 1.38 1.357.044 4.944-.197.587-.02 1.38 3.017 1.964 3.29 1.285.518 4.634-2.365 5.787-2.2 6.038.885 9.735 3.087 9.635 4.416-.562 1.699.377 2.49.784 3.184.994.69-.746 3.207-.507 4.111.172.729 2.416 1.036 2.5.708.082-.328.158-.504.87-1.263.91-.888 2.295-.905 3.818-.28.925.345 2.827-6.014 2.606-9.953-.18-1.82-1.933-.525-2.144-.694z" transform="translate(75.793 2.071)"/>
                            <path fill="#161F36" d="M16.768 18.508c.1-.535-.124-.997-.448-1.077-.325-.08-.788.294-.888.825-.1.532.125.998.45 1.078.455-.025.829-.372.886-.826z" transform="translate(75.793 2.071)"/>
                            <path fill="#161F36" fill-rule="nonzero" d="M18.902 17.314c-.049 0-.094-.025-.12-.066 0-.027-1.7-2.565-3.502-1.709-.072.035-.159.004-.193-.069-.034-.072-.003-.159.07-.193 2.033-.963 3.797 1.699 3.866 1.813.043.066.025.156-.042.2-.024.014-.05.023-.079.024zM5.876 15.398c-.057.001-.11-.032-.133-.084-.023-.052-.013-.113.026-.154.09-.1 2.203-2.448 4.143-1.254.066.044.086.133.045.2-.02.033-.052.056-.09.064-.036.009-.075.002-.107-.018-1.743-1.067-3.76 1.177-3.798 1.197-.021.027-.052.044-.086.049z" transform="translate(75.793 2.071)"/>
                            <path fill="#EFB892" d="M18.308 30.547c.48.977-.69 4.178-.4 4.24.345 0 .863.186.894.462 0 .515-2.817 1.198-3.94.974-.452-.276-1.812-1.66-2.009-2.154 0-.515.812-.425 1.212-.608.4-.183.162-3.18.162-3.18s3.601-.711 4.081.266z" transform="translate(75.793 2.071)"/>
                        </g>
                        <path fill="#FEAF46" fill-rule="nonzero" d="M107.21 60.808c-5.82 0-13.119-.387-20.842-1.105-8.462-.787-16.396-1.885-22.334-3.087-2.309-.433-4.587-1.019-6.818-1.753-1.63-.577-3.277-1.36-3.142-2.78.1-1.098.314-3.38 20.794-2.416h.104l5.254.735-.317 2.361-5.18-.69c-9.593-.456-15.09-.12-17.348.345 3.308 1.357 13.738 3.494 29.236 4.937 15.318 1.43 25.893 1.278 29.518.58-2.417-.897-8.5-2.316-19.334-3.76l.314-2.361c6.184.825 11.497 1.726 15.36 2.627 6.108 1.409 7.199 2.417 7.07 3.77-.13 1.42-1.895 1.882-3.6 2.151-2.342.302-4.702.447-7.064.435-.535.007-1.098.01-1.67.01z"/>
                        <path fill="#19A2AA" fill-rule="nonzero" d="M53.221 42.948l-4.105-3.632c11.366-12.846 34.908-5.296 35.906-4.968l-1.727 5.206.857-2.603-.853 2.603c-.2-.065-21.105-6.752-30.078 3.394z"/>
                        <circle cx="51.395" cy="41.395" r="3.694" fill="#EFB892" fill-rule="nonzero"/>
                        <path fill="#EFB892" fill-rule="nonzero" d="M48.76 38.705s-2.513 2.279-2.816 3.321c-.197.67.576 2.503.576 2.503s3.843 2.945 5.376 2.966c.78 0 2.389-1.236 2.378-2.016 0-.287-.894-.725-.894-.725l.587-.646.345.477.646.083s.953-1.381 1.008-2.044c.083-.977.055-2.293-1.709-3.58l-5.496-.339z"/>
                        <path fill="#19A2AA" fill-rule="nonzero" d="M93.321 54.807c-1.464.015-2.68-1.125-2.76-2.587-.08-1.462 1.003-2.728 2.46-2.874 8.192-.922 13.357-1.868 16.6-2.662l-11.953-3.322c-1.457-.406-2.31-1.915-1.906-3.373.404-1.46 1.26-1.798 2.714-1.38l19.468 4.712c.818.225 1.485.817 1.806 1.602.364.946.26 2.008-.28 2.866-.78 1.318-2.61 4.405-25.838 7.015-.103.008-.207.009-.31.003z"/>
                        <circle cx="96.183" cy="51.396" r="3.584" fill="#EFB892" fill-rule="nonzero"/>
                        <path fill="#EFB892" fill-rule="nonzero" d="M95.358 47.85s-3.145.108-5.617 1.492c-.873.49-1.66 2.417-1.66 2.417s1.605 2.948 3.172 3.397c0 0 4.33.521 6.121-.3l-2.016-7.005z"/>
                        <path fill="#3B3688" fill-rule="nonzero" d="M77.81 65.354S67.731 81.18 64.151 89.801c0 0 8.544-.632 11.793-1.864 0 0 7.464-16.199 10.6-17.097l-8.736-5.486zM98.503 70.198c-.145 2.334-.523 4.647-1.129 6.905l-3.431 2.538-6.646 3.732 1.035-11.794s10.354-4.229 10.171-1.38z"/>
                    </g>
                </g>
            </g>
            <g fill="#19B3E9" fill-rule="nonzero">
                <path d="M8.816 -0.122L12.288 -0.108 12.344 14.445 8.872 14.431z" transform="translate(53 37) translate(0 92) rotate(-76.4 10.58 7.161)"/>
                <path d="M22.095 9.55c-.503 2.035-1.496 3.56-2.217 3.391-.037-.01-.073-.024-.107-.04l-2.535-.604c-.037.005-.076.005-.113 0-.721-.17-.897-1.967-.397-4.008.483-1.963 1.417-3.438 2.128-3.39h.09l2.758.654c.717.159.893 1.956.393 3.997zM5.653 5.64C5.149 7.676 4.16 9.202 3.436 9.033c-.038-.008-.073-.02-.107-.038L.794 8.387c-.038.005-.076.005-.114 0-.72-.173-.896-1.966-.393-4.011.48-1.96 1.414-3.435 2.124-3.39h.09l2.759.654c.72.162.893 1.956.393 4z" transform="translate(53 37) translate(0 92)"/>
            </g>
            <path fill="#F7CFA9" fill-rule="nonzero" d="M9.886 95s-3.626 4.732-2.75 6.463c.788 1.569 4.362 3.742 6.118 3.521.839-.102 2.406-2.343 2.406-2.343s-2.007-2.174-.378-3.29l1.718.092s-1.406-1.65-1.598-2.327c-.039-.477-.018-.957.062-1.429l-5.585-.68" transform="translate(53 37)"/>
            <path fill="#FEAF46" fill-rule="nonzero" d="M15.34 95.25s-2.718.924-3.618.721C10.892 95.786 9 93.939 9 93.939c2.296-10.743 8.763-16.373 13.78-19.206C28.12 71.72 34.274 70.576 36 71.14l-2.048 6.049c.307.104.63.157.956.158-.143.003-16.004 1.26-19.567 17.904z" transform="translate(53 37)"/>
        </g>
    </g>
</svg>
