<?xml version="1.0" encoding="utf-8"?>
<!-- Generator: Adobe Illustrator 24.0.2, SVG Export Plug-In . SVG Version: 6.00 Build 0)  -->
<svg version="1.1" id="Capa_1" xmlns="http://www.w3.org/2000/svg" xmlns:xlink="http://www.w3.org/1999/xlink" x="0px" y="0px"
	 viewBox="0 0 350 100" style="enable-background:new 0 0 350 100;" xml:space="preserve">
<style type="text/css">
	.st0{display:none;}
	.st1{display:inline;fill:#A546A0;}
	.st2{display:inline;fill:#FAFDFE;}
	.st3{font-family:'Arial-BoldMT';}
	.st4{font-size:19.9942px;}
	.st5{fill:#2C374B;}
	.st6{font-family:'Nunito-Regular';}
	.st7{font-size:18px;}
	.st8{display:inline;fill:#6E79E0;}
	.st9{font-size:20.1429px;}
	.st10{fill:#692D86;}
	.st11{fill:#FAFDFE;}
	.st12{font-size:20.4392px;}
</style>
<g class="st0">
	<path class="st1" d="M22.5,50.1c0-18.6,15.1-33.7,33.7-33.7S90,31.5,90,50.1c0,18.6-15.1,33.7-33.7,33.7S22.5,68.7,22.5,50.1z"/>
	<text transform="matrix(1 0 0 1 44.5127 58.3604)" class="st2 st3 st4">1ยบ</text>
</g>
<text transform="matrix(1 0 0 1 101.7578 55.2524)" class="st5 st6 st7">Tercero de secundaria</text>
<g class="st0">
	<path class="st8" d="M22,50c0-18.8,15.2-34,34-34s34,15.2,34,34c0,18.8-15.2,34-34,34S22,68.8,22,50z"/>
	<text transform="matrix(1 0 0 1 44.125 58.3164)" class="st2 st3 st9">2ยบ</text>
</g>
<g>
	<path class="st10" d="M21.4,49.5c0-19,15.4-34.5,34.5-34.5s34.5,15.4,34.5,34.5c0,19-15.4,34.5-34.5,34.5S21.4,68.6,21.4,49.5z"/>
	<text transform="matrix(1 0 0 1 43.8491 57.9395)" class="st11 st3 st12">3ยบ</text>
</g>
</svg>
