<svg width="62" height="87" viewBox="0 0 62 87" fill="none" xmlns="http://www.w3.org/2000/svg">
<g clip-path="url(#clip0)">
<path d="M4.53783 85.3723C3.48251 85.8974 2.69102 85.3723 2.69102 84.2172L2.90208 20.6867C2.95485 19.4266 3.69357 18.2715 4.74889 17.6415L37.2527 0.735009C38.2553 0.209964 39.0995 0.735009 39.0995 1.89011L39.6272 65.5256C39.5744 66.7857 38.8885 67.9408 37.7804 68.5709L4.53783 85.3723Z" fill="#1E2B3D"/>
<path d="M5.96258 86.7899C4.90726 87.315 4.063 86.79 4.063 85.6348L4.32683 21.6318C4.3796 20.3717 5.11832 19.2166 6.22641 18.5866L39.3107 1.5751C40.366 1.05005 41.2102 1.5751 41.2102 2.7302L41.7379 66.7332C41.6851 67.9933 40.9992 69.1484 39.8911 69.7785L5.96258 86.7899Z" fill="#3C567A"/>
<path d="M7.65102 83.0621C7.12336 82.8521 6.64846 82.2221 6.64846 81.6445L6.85953 22.5769C6.85953 21.9994 7.28166 21.3168 7.80932 21.0543L38.994 5.04043C39.5217 4.7779 40.0493 4.56789 40.577 4.7254C40.577 4.7254 41.1574 4.93542 41.474 5.14544C42.0017 5.40796 42.7931 5.82799 42.7931 6.40554L40.4714 64.6856C40.4714 65.2631 39.9965 65.9982 39.5217 66.2607L10.3421 83.2722C9.86719 83.5872 8.97017 83.6397 8.44251 83.4297L7.65102 83.0621Z" fill="#FDCFA4"/>
<path d="M10.3949 83.3248C9.86728 83.5873 9.44515 83.3248 9.44515 82.7472L9.65622 23.7321C9.65622 23.1546 10.0783 22.472 10.606 22.2095L41.7907 6.19562C42.3183 5.93309 42.7932 5.72308 42.7932 6.30063L42.846 65.8408C42.846 66.4183 42.4239 67.1009 41.8962 67.3634L10.3949 83.3248Z" fill="#FFF3BF"/>
<path d="M11.1336 27.6698C11.6873 27.6698 12.1362 26.9646 12.1362 26.0947C12.1362 25.2247 11.6873 24.5195 11.1336 24.5195C10.5799 24.5195 10.1311 25.2247 10.1311 26.0947C10.1311 26.9646 10.5799 27.6698 11.1336 27.6698Z" fill="#FDCFA4"/>
<path d="M11.5557 26.1998C11.4502 25.6747 10.9225 25.3597 10.3949 25.5172C10.0783 25.5697 9.81446 25.8322 9.70893 26.1472C9.39233 27.0398 7.91489 27.7224 6.01531 27.8274C3.85191 27.9324 2.21616 27.3023 1.8468 26.6723C1.79404 26.5148 1.79404 26.4098 1.89957 26.2523C2.3217 26.8823 3.90468 27.4599 6.01531 27.3549C7.91489 27.2498 9.39233 26.5673 9.70893 25.6747C9.86723 25.1497 10.4477 24.8871 10.9225 25.0972C11.4502 25.2022 11.714 25.7272 11.5557 26.1998Z" fill="#F1F4FA"/>
<path d="M11.5558 26.1998C11.5558 26.2523 11.5558 26.2523 11.5558 26.3048C10.9226 27.9849 8.91746 29.0875 6.12087 29.245C5.9098 29.245 5.75151 29.245 5.54044 29.245C3.32427 29.245 0.949804 28.5625 0.158315 27.0398C0.0527827 26.8823 1.67466e-05 26.6723 1.67466e-05 26.4623C-0.0527492 25.7797 0.158315 24.7822 1.16087 23.6271C1.53023 23.207 2.90214 22.682 2.79661 23.6271C2.79661 23.7321 2.79661 23.7846 2.79661 23.8896C2.79661 23.9421 2.79661 23.9946 2.79661 23.9946C2.84938 24.1521 2.84938 24.3621 2.79661 24.5196C2.74385 24.6246 2.69108 24.7296 2.63831 24.8347C2.32172 25.2022 1.74129 25.7797 1.89959 26.1473C1.89959 26.1473 1.89959 26.1998 1.95236 26.1998C1.89959 26.3048 1.84683 26.4623 1.89959 26.6198C2.21619 27.2499 3.9047 27.8799 6.0681 27.7749C7.96768 27.6699 9.44512 26.9873 9.76172 26.0948C9.92002 25.6222 10.5004 25.3597 10.9753 25.5172C11.2392 25.6222 11.503 25.8322 11.5558 26.1998Z" fill="#F1F4FA"/>
<path d="M11.1336 38.1708C11.6873 38.1708 12.1362 37.4656 12.1362 36.5956C12.1362 35.7257 11.6873 35.0205 11.1336 35.0205C10.5799 35.0205 10.1311 35.7257 10.1311 36.5956C10.1311 37.4656 10.5799 38.1708 11.1336 38.1708Z" fill="#FDCFA4"/>
<path d="M11.5557 36.7007C11.4502 36.1757 10.9225 35.8607 10.3949 36.0182C10.0783 36.0707 9.81446 36.3332 9.70893 36.6482C9.39233 37.5408 7.91489 38.2234 6.01531 38.3284C3.85191 38.4334 2.21616 37.8033 1.8468 37.1733C1.79404 37.0158 1.79404 36.9107 1.89957 36.7532C2.3217 37.3833 3.90468 37.9608 6.01531 37.8558C7.91489 37.7508 9.39233 37.0683 9.70893 36.1757C9.86723 35.6506 10.4477 35.3881 10.9225 35.5981C11.4502 35.7031 11.714 36.2282 11.5557 36.7007Z" fill="#F1F4FA"/>
<path d="M11.5558 36.7008C11.5558 36.7533 11.5558 36.7533 11.5558 36.8058C10.9226 38.4859 8.91746 39.5885 6.12087 39.746C5.9098 39.746 5.75151 39.746 5.54044 39.746C3.32427 39.746 0.949804 39.0635 0.158315 37.5408C0.0527827 37.3833 1.67466e-05 37.1733 1.67466e-05 36.9633C-0.0527492 36.2807 0.158315 35.2831 1.16087 34.128C1.53023 33.708 2.90214 33.183 2.79661 34.128C2.79661 34.233 2.79661 34.2855 2.79661 34.3906C2.79661 34.4431 2.79661 34.4956 2.79661 34.4956C2.84938 34.6531 2.84938 34.8631 2.79661 35.0206C2.74385 35.1256 2.69108 35.2306 2.63831 35.3356C2.32172 35.7032 1.74129 36.2807 1.89959 36.6482C1.89959 36.6482 1.89959 36.7008 1.95236 36.7008C1.89959 36.8058 1.84683 36.9633 1.89959 37.1208C2.21619 37.7508 3.9047 38.3809 6.0681 38.2759C7.96768 38.1709 9.44512 37.4883 9.76172 36.5957C9.92002 36.1232 10.5004 35.8607 10.9753 36.0182C11.2392 36.1232 11.503 36.3332 11.5558 36.7008Z" fill="#F1F4FA"/>
<path d="M11.1336 48.6718C11.6873 48.6718 12.1362 47.9665 12.1362 47.0966C12.1362 46.2267 11.6873 45.5215 11.1336 45.5215C10.5799 45.5215 10.1311 46.2267 10.1311 47.0966C10.1311 47.9665 10.5799 48.6718 11.1336 48.6718Z" fill="#FDCFA4"/>
<path d="M11.5557 47.2017C11.4502 46.6767 10.9225 46.3616 10.3949 46.5191C10.0783 46.5717 9.81446 46.8342 9.70893 47.1492C9.39233 48.0418 7.91489 48.7243 6.01531 48.8294C3.85191 48.9344 2.21616 48.3043 1.8468 47.6743C1.79404 47.5167 1.79404 47.4117 1.89957 47.2542C2.3217 47.8843 3.90468 48.4618 6.01531 48.3568C7.91489 48.2518 9.39233 47.5692 9.70893 46.6767C9.86723 46.1516 10.4477 45.8891 10.9225 46.0991C11.4502 46.2041 11.714 46.7292 11.5557 47.2017Z" fill="#F1F4FA"/>
<path d="M11.5558 47.2015C11.5558 47.254 11.5558 47.254 11.5558 47.3065C10.9226 48.9866 8.91746 50.0892 6.12087 50.2467C5.9098 50.2467 5.75151 50.2467 5.54044 50.2467C3.32427 50.2467 0.949804 49.5642 0.158315 48.0416C0.0527827 47.884 1.67466e-05 47.674 1.67466e-05 47.464C-0.0527492 46.7814 0.158315 45.7839 1.16087 44.6288C1.53023 44.2087 2.90214 43.6837 2.79661 44.6288C2.79661 44.7338 2.79661 44.7863 2.79661 44.8913C2.79661 44.9438 2.79661 44.9963 2.79661 44.9963C2.84938 45.1538 2.84938 45.3638 2.79661 45.5213C2.74385 45.6263 2.69108 45.7314 2.63831 45.8364C2.32172 46.2039 1.74129 46.7814 1.89959 47.149C1.89959 47.149 1.89959 47.2015 1.95236 47.2015C1.89959 47.3065 1.84683 47.464 1.89959 47.6215C2.21619 48.2516 3.9047 48.8816 6.0681 48.7766C7.96768 48.6716 9.44512 47.989 9.76172 47.0965C9.92002 46.6239 10.5004 46.3614 10.9753 46.5189C11.2392 46.6239 11.503 46.834 11.5558 47.2015Z" fill="#F1F4FA"/>
<path d="M11.1336 59.1727C11.6873 59.1727 12.1362 58.4675 12.1362 57.5976C12.1362 56.7277 11.6873 56.0225 11.1336 56.0225C10.5799 56.0225 10.1311 56.7277 10.1311 57.5976C10.1311 58.4675 10.5799 59.1727 11.1336 59.1727Z" fill="#FDCFA4"/>
<path d="M11.5557 57.7024C11.4502 57.1774 10.9225 56.8624 10.3949 57.0199C10.0783 57.0724 9.81446 57.3349 9.70893 57.6499C9.39233 58.5425 7.91489 59.2251 6.01531 59.3301C3.85191 59.4351 2.21616 58.805 1.8468 58.175C1.79404 58.0175 1.79404 57.9125 1.89957 57.7549C2.3217 58.385 3.90468 58.9626 6.01531 58.8575C7.91489 58.7525 9.39233 58.07 9.70893 57.1774C9.86723 56.6523 10.4477 56.3898 10.9225 56.5998C11.4502 56.7049 11.714 57.2299 11.5557 57.7024Z" fill="#F1F4FA"/>
<path d="M11.5558 57.7025C11.5558 57.755 11.5558 57.755 11.5558 57.8075C10.9226 59.4876 8.91746 60.5902 6.12087 60.7477C5.9098 60.7477 5.75151 60.7477 5.54044 60.7477C3.32427 60.7477 0.949804 60.0652 0.158315 58.5425C0.0527827 58.385 1.67466e-05 58.175 1.67466e-05 57.965C-0.0527492 57.2824 0.158315 56.2848 1.16087 55.1297C1.53023 54.7097 2.90214 54.1847 2.79661 55.1297C2.79661 55.2347 2.79661 55.2873 2.79661 55.3923C2.79661 55.4448 2.79661 55.4973 2.79661 55.4973C2.84938 55.6548 2.84938 55.8648 2.79661 56.0223C2.74385 56.1273 2.69108 56.2323 2.63831 56.3373C2.32172 56.7049 1.74129 57.2824 1.89959 57.65C1.89959 57.65 1.89959 57.7025 1.95236 57.7025C1.89959 57.8075 1.84683 57.965 1.89959 58.1225C2.21619 58.7525 3.9047 59.3826 6.0681 59.2776C7.96768 59.1726 9.44512 58.49 9.76172 57.5974C9.92002 57.1249 10.5004 56.8624 10.9753 57.0199C11.2392 57.1249 11.503 57.3349 11.5558 57.7025Z" fill="#F1F4FA"/>
<path d="M11.1336 69.6735C11.6873 69.6735 12.1362 68.9683 12.1362 68.0983C12.1362 67.2284 11.6873 66.5232 11.1336 66.5232C10.5799 66.5232 10.1311 67.2284 10.1311 68.0983C10.1311 68.9683 10.5799 69.6735 11.1336 69.6735Z" fill="#FDCFA4"/>
<path d="M11.5557 68.2034C11.4502 67.6784 10.9225 67.3633 10.3949 67.5209C10.0783 67.5734 9.81446 67.8359 9.70893 68.1509C9.39233 69.0435 7.91489 69.7261 6.01531 69.8311C3.85191 69.9361 2.21616 69.306 1.8468 68.676C1.79404 68.5184 1.79404 68.4134 1.89957 68.2559C2.3217 68.886 3.90468 69.4635 6.01531 69.3585C7.91489 69.2535 9.39233 68.5709 9.70893 67.6784C9.86723 67.1533 10.4477 66.8908 10.9225 67.1008C11.4502 67.2058 11.714 67.7309 11.5557 68.2034Z" fill="#F1F4FA"/>
<path d="M11.5558 68.2034C11.5558 68.2559 11.5558 68.2559 11.5558 68.3084C10.9226 69.9886 8.91746 71.0912 6.12087 71.2487C5.9098 71.2487 5.75151 71.2487 5.54044 71.2487C3.32427 71.2487 0.949804 70.5661 0.158315 69.0435C0.0527827 68.886 1.67466e-05 68.676 1.67466e-05 68.466C-0.0527492 67.7834 0.158315 66.7858 1.16087 65.6307C1.53023 65.2107 2.90214 64.6856 2.79661 65.6307C2.79661 65.7357 2.79661 65.7882 2.79661 65.8932C2.79661 65.9457 2.79661 65.9982 2.79661 65.9982C2.84938 66.1558 2.84938 66.3658 2.79661 66.5233C2.74385 66.6283 2.69108 66.7333 2.63831 66.8383C2.32172 67.2059 1.74129 67.7834 1.89959 68.1509C1.89959 68.1509 1.89959 68.2034 1.95236 68.2034C1.89959 68.3084 1.84683 68.466 1.89959 68.6235C2.21619 69.2535 3.9047 69.8836 6.0681 69.7786C7.96768 69.6736 9.44512 68.991 9.76172 68.0984C9.92002 67.6259 10.5004 67.3634 10.9753 67.5209C11.2392 67.6259 11.503 67.8359 11.5558 68.2034Z" fill="#F1F4FA"/>
<path d="M26.4357 19.1643C26.4357 19.1643 26.2774 24.3622 26.6468 25.9898C27.0162 27.6175 29.3379 32.0804 29.3379 32.0804L41.6323 26.3574C41.6323 26.3574 39.5745 22.2095 39.2579 20.7394C38.8357 18.8492 39.0996 13.0737 39.0996 13.0737L26.4357 19.1643Z" fill="#8D6ED7"/>
<path d="M14.8273 26.7248C14.669 26.7774 14.5635 26.6723 14.5107 26.5148C14.4579 26.3573 14.5635 26.2523 14.7218 26.1998L24.4307 21.6844C24.5362 21.6319 24.6945 21.6844 24.8001 21.7894C24.8528 21.8944 24.8001 22.0519 24.6945 22.157L14.9856 26.6723C14.9328 26.6723 14.8801 26.7248 14.8273 26.7248Z" fill="#FDCFA4"/>
<path d="M14.8272 30.1377C14.7217 30.1377 14.6162 30.0852 14.5634 29.9802C14.5106 29.8752 14.5634 29.7177 14.6689 29.6126L24.3779 25.0973C24.5362 25.0448 24.6417 25.0973 24.7472 25.2023C24.8 25.3073 24.7472 25.4648 24.6417 25.5698L14.9328 30.0852C14.9328 30.0852 14.88 30.0852 14.8272 30.1377Z" fill="#FDCFA4"/>
<path d="M14.8272 33.4978C14.7217 33.4978 14.6162 33.4453 14.5634 33.3403C14.5106 33.2353 14.5634 33.0778 14.6689 32.9728L24.3779 28.4574C24.5362 28.4049 24.6945 28.4574 24.7472 28.5624C24.8 28.7199 24.7472 28.8774 24.6417 28.9299L14.9328 33.4453C14.9328 33.4978 14.88 33.4978 14.8272 33.4978Z" fill="#FDCFA4"/>
<path d="M14.8272 36.9106C14.6689 36.9106 14.5634 36.8056 14.5634 36.6481C14.5634 36.5431 14.6161 36.4381 14.7217 36.4381L24.4306 31.9227C24.5361 31.8702 24.6944 31.9227 24.8 32.0277C24.8527 32.1327 24.8 32.2902 24.6944 32.3952L14.9855 36.9106C14.9327 36.9106 14.88 36.9106 14.8272 36.9106Z" fill="#FDCFA4"/>
<path d="M19.4706 48.6716V53.3445L13.9829 56.3373L13.7719 51.8219L19.4706 48.6716Z" fill="#CB316F"/>
<path d="M26.1719 44.9438V49.6693L20.737 52.662V47.9891L26.1719 44.9438Z" fill="#8D6ED7"/>
<path d="M33.2426 41.0586V45.784L27.4383 48.9868V44.2614L33.2426 41.0586Z" fill="#73BE44"/>
<path d="M40.6826 36.9631V41.6885L34.509 45.1013V40.3234L40.6826 36.9631Z" fill="#FC9F4A"/>
<path d="M40.5507 47.6744L14.1552 61.7983L14.4051 62.2607L40.8006 48.1368L40.5507 47.6744Z" fill="#FDCFA4"/>
<path d="M40.5511 53.9757L14.1556 68.0996L14.4055 68.562L40.801 54.4381L40.5511 53.9757Z" fill="#FDCFA4"/>
<path d="M40.5508 60.2745L14.1553 74.3984L14.4052 74.8608L40.8007 60.7369L40.5508 60.2745Z" fill="#FDCFA4"/>
<path d="M20.6843 53.9221H20.1566V71.3011H20.6843V53.9221Z" fill="#FDCFA4"/>
<path d="M27.3856 49.9844H26.8579V67.3634H27.3856V49.9844Z" fill="#FDCFA4"/>
<path d="M34.034 46.0989H33.5064V63.4779H34.034V46.0989Z" fill="#FDCFA4"/>
<path d="M62 46.5714L42.5293 77.9166L42.371 78.1267L36.0391 83.1146L36.514 76.289L36.9889 75.5014L56.4068 43.3162C56.354 43.3687 60.6281 41.321 62 46.5714Z" fill="#8D6ED7"/>
<path d="M42.5821 78.0217L42.4238 78.2317L38.308 81.3295C37.6748 80.9094 36.9361 80.5944 36.1974 80.5419L36.514 76.289L36.9889 75.5015C38.2553 75.5015 40.9463 75.8165 42.5821 78.0217Z" fill="#FFF3BF"/>
<path d="M38.308 81.3296L35.9336 83.0622L36.1446 80.4895C36.9361 80.647 37.6748 80.9095 38.308 81.3296Z" fill="#8D6ED7"/>
</g>
<defs>
<clipPath id="clip0">
<rect width="62" height="87" fill="white"/>
</clipPath>
</defs>
</svg>
