<svg width="93" height="87" viewBox="0 0 93 87" fill="none" xmlns="http://www.w3.org/2000/svg">
<path d="M45.5423 83.0322L93 55.1594V59.1219L45.5423 87.0001L14.7173 68.344L12.7369 64.2296L45.5423 83.0322Z" fill="#0076A1"/>
<path d="M60.0377 36.7583L93 55.1592L45.775 84.0199L12.7369 64.2294L60.0377 36.7583Z" fill="#009ED7"/>
<path d="M16.2539 66.2867L3.36548 27.8728L51.4887 1.39502L63.5493 38.8156L16.2539 66.2867Z" fill="#009ED7"/>
<path d="M18.8402 62.6119L7.41809 28.5621L50.1793 5.28687L60.7681 38.2619L18.8402 62.6119Z" fill="#002736"/>
<path d="M3.36549 27.8728L16.914 67.0195L12.7369 64.2295L0 26.0381L48.1936 0L51.4887 1.395L3.36549 27.8728Z" fill="#0076A1"/>
<path d="M35.2131 74.8792L18.1963 65.1848L18.2288 64.3055L61.7907 39.9175L76.8001 47.7772L76.8759 48.8031L35.2131 74.8792Z" fill="#002736"/>
<path d="M59.9619 72.3065L51.7971 66.6179L65.8543 58.3511L74.7495 63.1983L59.9619 72.3065Z" fill="#002736"/>
<path d="M31.5879 29.9192C31.2525 30.1309 30.8899 30.3426 30.5058 30.5543C30.1278 30.7613 29.7263 30.9217 29.31 31.032C28.9434 31.1323 28.5645 31.1798 28.1846 31.1731C27.8426 31.1693 27.5129 31.0443 27.2539 30.8203C26.3772 30.1022 25.7471 29.1264 25.4521 28.0303C25.2119 27.0274 25.2721 25.9756 25.6253 25.0069C26.0188 23.9446 26.6414 22.9826 27.4487 22.1898C28.3531 21.2853 29.3962 20.5321 30.5382 19.9589C31.7074 19.336 33.0027 18.9889 34.3258 18.9438C35.3583 18.9351 36.3757 19.193 37.28 19.6929C38.1524 20.1977 38.9099 20.88 39.5039 21.6958C40.1182 22.5308 40.6475 23.4255 41.0838 24.3664C41.5666 25.3611 41.8672 26.4349 41.9712 27.5363C42.0317 28.3195 41.9304 29.1067 41.6736 29.8487C41.4442 30.4735 41.1031 31.051 40.6672 31.5531C40.2379 32.038 39.8375 32.4831 39.466 32.8883C39.1243 33.2474 38.8197 33.6402 38.557 34.0608C38.4427 34.2453 38.3699 34.4526 38.3438 34.6682C38.3176 34.8839 38.3386 35.1026 38.4055 35.3092C38.5152 35.5957 38.6568 35.8688 38.8275 36.1234C39.0391 36.4574 39.2202 36.8099 39.3686 37.1765C39.4898 37.4539 39.5292 37.7603 39.4822 38.0594C39.4352 38.3586 39.3038 38.638 39.1035 38.8646C38.6645 39.4105 38.11 39.8518 37.4802 40.1564C36.8458 40.4748 36.1442 40.6349 35.435 40.6232C35.1348 40.6387 34.8363 40.5703 34.5726 40.4256C34.3089 40.2809 34.0905 40.0655 33.9416 39.8036C33.3439 38.844 32.9156 37.7881 32.6755 36.6825C32.5258 35.9322 32.5387 35.1584 32.7134 34.4136C32.8725 33.7955 33.154 33.2158 33.5412 32.7092C33.9199 32.2261 34.2879 31.7702 34.6233 31.3468C34.9406 30.9415 35.2162 30.505 35.4458 30.0441C35.6862 29.5633 35.7402 29.0101 35.5973 28.4917C35.527 28.1714 35.4295 27.7589 35.2997 27.2541C35.1825 26.7607 34.9792 26.2921 34.6991 25.8699C34.4332 25.4607 34.0302 25.1603 33.5629 25.0232C32.9008 24.8998 32.2168 25.0316 31.6474 25.3923C31.1064 25.6691 30.8575 26.0219 30.9062 26.4453C30.9616 26.8979 31.0914 27.3381 31.2903 27.748C31.4959 28.1931 31.6745 28.6057 31.8314 28.9965C31.9134 29.1529 31.9339 29.3345 31.8888 29.5054C31.8437 29.6763 31.7363 29.824 31.5879 29.9192ZM37.4911 47.4137C37.8446 47.5265 38.2257 47.517 38.5732 47.3865C39.6025 47.1029 40.5916 46.6888 41.5166 46.1544C41.8726 45.9581 42.2048 45.7213 42.5068 45.4487C42.6354 45.303 42.7263 45.1277 42.7716 44.9384C42.8169 44.7491 42.8152 44.5516 42.7666 44.3631C42.683 43.8289 42.5226 43.3096 42.2904 42.8216C42.0576 42.3229 41.7572 41.8589 41.3976 41.4429C41.1625 41.1181 40.8118 40.8966 40.4183 40.8241C40.0673 40.8224 39.7184 40.8774 39.3848 40.9869C38.9304 41.1155 38.4871 41.2807 38.0592 41.4809C37.637 41.6776 37.2285 41.9024 36.8364 42.1539C36.5333 42.3319 36.2714 42.5724 36.068 42.8596C35.8885 43.191 35.8292 43.5747 35.9003 43.9452C35.9496 44.4339 36.0568 44.9149 36.2195 45.3782C36.3794 45.8353 36.5842 46.2753 36.8309 46.6918C36.9817 46.988 37.2099 47.2375 37.4911 47.4137Z" fill="#009ED7"/>
<path d="M32.8757 30.5052C32.5403 30.7169 32.1723 30.9285 31.7936 31.1402C31.4156 31.3472 31.0141 31.5076 30.5978 31.6179C30.2312 31.7182 29.8523 31.7657 29.4724 31.759C29.1289 31.7546 28.7977 31.6298 28.5363 31.4062C27.6616 30.6874 27.0334 29.7117 26.7399 28.6162C26.4994 27.6151 26.5597 26.565 26.9131 25.5983C27.3064 24.5342 27.929 23.5704 28.7365 22.7757C29.6398 21.87 30.6831 21.1166 31.8261 20.5448C32.9952 19.922 34.2906 19.5748 35.6136 19.5298C36.6461 19.521 37.6635 19.779 38.5679 20.2788C39.4402 20.7836 40.1977 21.4659 40.7917 22.2818C41.406 23.1167 41.9353 24.0114 42.3716 24.9523C42.8551 25.9487 43.1557 27.0244 43.259 28.1277C43.3202 28.9095 43.217 29.6954 42.956 30.4346C42.7296 31.0625 42.3883 31.6424 41.9496 32.1444C41.5275 32.6221 41.1271 33.0672 40.7538 33.4743C40.4121 33.8347 40.1059 34.2273 39.8394 34.6467C39.7273 34.8322 39.6563 35.0396 39.6311 35.255C39.6059 35.4704 39.6271 35.6887 39.6933 35.8952C39.8018 36.1811 39.9416 36.4542 40.1099 36.7094C40.3235 37.0422 40.5046 37.3948 40.651 37.7624C40.7728 38.04 40.8121 38.347 40.7641 38.6465C40.7161 38.946 40.5829 39.2252 40.3805 39.4505C39.9446 39.9996 39.3894 40.4415 38.7572 40.7424C38.1223 41.0598 37.4214 41.2216 36.712 41.2146C36.4113 41.2295 36.1123 41.1603 35.8486 41.0146C35.5849 40.8689 35.3668 40.6525 35.2186 40.3895C34.6209 39.4299 34.1926 38.3741 33.9525 37.2684C33.8028 36.5182 33.8157 35.7444 33.9904 34.9995C34.1496 34.3831 34.4312 33.8053 34.8182 33.3006C35.1789 32.8121 35.5397 32.3561 35.9004 31.9327C36.2405 31.5287 36.5379 31.0903 36.7877 30.6246C37.0281 30.1438 37.0822 29.5906 36.9392 29.0722C36.8689 28.7573 36.7715 28.3394 36.6416 27.8346C36.5245 27.3412 36.3211 26.8726 36.041 26.4505C35.7752 26.0412 35.3721 25.7408 34.9048 25.6037C34.2428 25.4803 33.5587 25.6121 32.9894 25.9728C32.4483 26.2496 32.1994 26.6024 32.2481 27.0258C32.3041 27.4776 32.4319 27.9174 32.6268 28.3285C32.8379 28.7736 33.0164 29.1916 33.1679 29.577C33.2473 29.7397 33.2613 29.9269 33.2069 30.0997C33.1525 30.2725 33.0339 30.4177 32.8757 30.5052ZM38.7789 48.0213C39.1324 48.1346 39.5136 48.125 39.861 47.9942C40.3659 47.8573 40.8612 47.6868 41.3436 47.4839C41.847 47.2784 42.3352 47.0371 42.8045 46.762C43.161 46.5692 43.4918 46.3321 43.7892 46.0564C43.92 45.9119 44.0127 45.7369 44.059 45.5473C44.1053 45.3577 44.1037 45.1596 44.0543 44.9708C43.97 44.4367 43.8096 43.9176 43.5782 43.4292C43.35 42.9334 43.0551 42.4713 42.7017 42.0559C42.4665 41.7312 42.1158 41.5096 41.7223 41.4371C41.3714 41.4355 41.0224 41.4905 40.6889 41.6C40.2345 41.7286 39.7911 41.8938 39.3632 42.0939C38.9405 42.2895 38.5319 42.5144 38.1404 42.767C37.8373 42.945 37.5755 43.1855 37.3721 43.4726C37.1899 43.8032 37.1304 44.1879 37.2043 44.5582C37.2511 45.0473 37.3583 45.5287 37.5236 45.9912C37.6824 46.4488 37.8873 46.8889 38.135 47.3048C38.2821 47.597 38.5044 47.8444 38.7789 48.0213Z" fill="white"/>
</svg>
