<svg width="84" height="86" viewBox="0 0 84 86" fill="none" xmlns="http://www.w3.org/2000/svg">
<g clip-path="url(#clip0)">
<path d="M65.849 24.7553V31.343V35.9235V36.0264V37.416V39.4746L65.7974 40.3495V40.5039V44.93V45.0844V49.3561V49.8193L63.6832 51.003L63.5801 51.106L59.2486 53.5764L59.0939 53.6793L54.814 56.2011L54.6593 56.2526L50.3278 58.7744L50.2247 58.8259L47.337 60.4728V58.2598L5.87845 82.4489L5.2081 38.7026L15.2633 33.0413L15.2118 32.9899L30.9392 24.1892L64.3536 5.35254V5.50694L64.302 25.6302L65.849 24.7553Z" fill="#8D6ED7"/>
<path d="M63.9411 5.60992C64.1989 5.45552 64.4052 5.40405 64.4052 5.40405C64.4052 5.40405 64.4052 5.71285 64.4052 5.97018L64.3536 25.0641C64.3536 25.3215 64.3536 25.7847 64.3536 26.0935V31.6518C64.3536 31.9091 64.3536 32.3723 64.3536 32.6811V36.1808C64.3536 36.4896 64.3536 36.747 64.3536 36.747C64.3536 36.7984 64.3536 37.0558 64.3536 37.3131V37.5704C64.3536 37.8278 64.3536 38.2909 64.3536 38.5997V39.6291C64.3536 39.9379 64.3536 40.3496 64.3536 40.6069C64.3536 40.8643 64.3536 41.1216 64.3536 41.1731C64.3536 41.2245 64.3536 41.4819 64.3536 41.7392V44.6213C64.3536 44.9301 64.3536 45.2389 64.3536 45.3933C64.3536 45.5477 64.3536 45.7021 64.3536 45.7535C64.3536 45.805 64.3536 45.9594 64.3536 46.0623C64.3536 46.2167 64.3536 46.577 64.3536 46.8343V47.8122C64.3536 48.121 64.2505 48.3783 64.0958 48.4813C63.9411 48.5842 63.7864 48.6357 63.7348 48.6871C63.6833 48.7386 63.6317 48.7386 63.5801 48.7901C63.5286 48.8415 63.3223 48.9445 63.0645 49.0989L59.7643 51.0031C59.5065 51.1575 59.3002 51.2604 59.2486 51.3119C59.1971 51.3119 58.9908 51.4663 58.733 51.6207C58.4751 51.7751 58.1142 51.981 57.8564 52.1354L55.2781 53.6279C55.0203 53.7823 54.814 53.8852 54.7624 53.9367C54.7109 53.9881 54.5046 54.0911 54.2984 54.194C54.0921 54.2969 53.6796 54.5543 53.4733 54.7087L50.8435 56.2527C50.5856 56.4071 50.3794 56.51 50.3278 56.5614C50.2762 56.5614 50.07 56.7158 49.8122 56.8702L48.884 57.3849C48.6262 57.5393 48.2136 57.7452 48.0074 57.8996L47.8527 58.0025C47.5949 58.1569 47.1823 58.3628 46.9761 58.5172L6.39411 82.1916C6.13629 82.346 5.93002 82.2431 5.93002 81.9343L5.25967 39.1659C5.25967 38.9085 5.46594 38.5483 5.72376 38.3939L14.9024 33.2473C15.1602 33.0929 15.5728 32.887 15.779 32.7326L30.5783 24.3951C30.8361 24.2407 31.2486 24.0348 31.4549 23.8804L63.9411 5.60992Z" fill="#1E2B3D"/>
<path d="M64.3536 45.2901V45.7533V45.8563L64.302 46.4224L64.2505 48.481V48.5325L63.6832 48.8413L63.5801 48.8928L59.2486 51.3631L59.0939 51.4146L58.2689 51.9293L57.3923 52.3925L54.814 51.2087L54.6593 51.1573L54.5562 51.1058L52.8545 50.3338L52.4936 50.1279L50.3278 49.1501L50.2247 49.0986L47.337 47.7605L15.2634 33.0412L15.2118 32.9897L30.9392 24.189L32.8472 23.1597L48.9355 34.4822L53.9374 37.9819L57.547 40.5038L57.6501 40.6067L59.0939 41.636L59.2486 41.6875L61.0534 42.9741L61.1565 43.0771L63.5801 44.7755L63.6832 44.8269L64.2505 45.2387L64.3536 45.2901Z" fill="#3C567A"/>
<path d="M53.9889 54.5542L13.6133 34.4309L10.4162 35.872L48.4199 57.6422L53.9889 54.5542Z" fill="#3C567A"/>
<path d="M24.2357 83.1178C24.4936 83.2722 24.8545 83.2722 25.1123 83.1693L48.9871 69.7881C49.2449 69.6337 49.4512 69.3249 49.4512 69.0161V67.9868C49.4512 67.678 49.2449 67.3692 48.9871 67.2662L46.3057 66.134C46.0479 66.0311 45.6354 66.0311 45.3775 66.1855L22.5341 79.052C22.2762 79.2064 22.07 79.5152 22.07 79.824V81.1107C22.07 81.4195 22.2762 81.7797 22.4825 81.9341L24.2357 83.1178Z" fill="#8D6ED7"/>
<path d="M39.6022 64.3843V71.0749L33.93 74.6775L31.3517 74.1629V67.9869L32.6924 67.3179L39.6022 64.3843Z" fill="#8D6ED7"/>
<path d="M82.9687 44.0551C82.9687 45.2903 82.2984 46.474 81.267 47.1431L48.9355 66.0826C47.9558 66.6488 46.4088 65.8768 46.4088 64.7445V41.5333L53.0092 37.8277L63.3223 32.0635L64.8693 31.1886L82.1437 21.5129L82.9687 44.0551Z" fill="#B1B4BA"/>
<path d="M82.0921 21.513L64.8177 31.1886L63.2707 32.0636L47.3886 41.6877L46.3573 41.5333V37.2616C46.4088 36.0779 47.0276 34.9971 47.9558 34.3281C48.0074 34.2766 48.1105 34.2251 48.1621 34.1737L63.3223 25.4759L64.8692 24.601L80.081 15.8517C81.0608 15.2856 82.7624 15.5944 82.814 16.7266L82.0921 21.513Z" fill="#982553"/>
<path d="M39.7053 64.8474V64.9503L39.6022 66.4943L31.3517 70.869V69.6338C31.919 69.5308 38.7256 65.465 39.6022 64.8989L39.7053 64.8474Z" fill="#6A52A1"/>
<path d="M84 44.2095C84 45.4447 83.3297 46.6284 82.2984 47.2974L49.1934 65.9282C48.2136 66.4943 47.3886 66.0311 47.3886 64.8989V41.6876L53.9889 37.9821L64.302 32.2179L65.849 31.3429L83.1234 21.7188L84 44.2095Z" fill="#DDEAFC"/>
<path d="M83.1234 21.7188L65.849 31.3944L64.302 32.2693L53.9889 38.0335L47.3886 41.6876V37.416C47.4401 36.2322 48.0589 35.1514 48.9871 34.4824C49.0387 34.4309 49.1418 34.3794 49.1934 34.328L64.3536 25.6302L65.9006 24.7553L81.1123 16.006C82.0921 15.4399 82.9171 15.9031 82.9687 17.0353L83.1234 21.7188Z" fill="#CB316F"/>
<path d="M50.2247 44.5696H50.3278L50.431 62.6342L50.2247 62.8401V44.5696Z" fill="#B1B4BA"/>
<path d="M81.4019 27.2312L50.2633 44.5149L50.3135 44.6048L81.452 27.3212L81.4019 27.2312Z" fill="#B1B4BA"/>
<path d="M81.3958 31.6587L50.2573 48.9424L50.3074 49.0323L81.446 31.7487L81.3958 31.6587Z" fill="#B1B4BA"/>
<path d="M50.3278 53.5248L50.2247 53.4218L81.8858 36.1807L81.9374 36.2836L50.3278 53.5248Z" fill="#B1B4BA"/>
<path d="M50.3278 57.951L50.2247 57.8481L81.8858 40.6069L81.9374 40.7099L50.3278 57.951Z" fill="#B1B4BA"/>
<path d="M54.7624 42.0994H54.6593V60.3699H54.7624V42.0994Z" fill="#B1B4BA"/>
<path d="M59.1971 39.6804H59.0939V57.9509H59.1971V39.6804Z" fill="#B1B4BA"/>
<path d="M63.6832 37.21H63.5801V55.4805H63.6832V37.21Z" fill="#B1B4BA"/>
<path d="M68.1179 34.7397H68.0147V53.0102H68.1179V34.7397Z" fill="#B1B4BA"/>
<path d="M72.5525 32.2693H72.4494V50.5398H72.5525V32.2693Z" fill="#B1B4BA"/>
<path d="M76.9871 29.7991H76.884V48.0696H76.9871V29.7991Z" fill="#B1B4BA"/>
<path d="M81.4315 27.3311L81.3284 27.334L81.822 45.0827L81.9251 45.0798L81.4315 27.3311Z" fill="#B1B4BA"/>
<path d="M81.8956 45.1829L50.3516 62.6917L50.4017 62.7816L81.9458 45.2728L81.8956 45.1829Z" fill="#B1B4BA"/>
<path d="M52.4936 48.4295L60.744 44.3123V46.3709L52.4936 50.4882V48.4295Z" fill="#8D6ED7"/>
<path d="M57.1344 49.9737L65.3849 45.8564V47.9151L57.1344 52.0324V49.9737Z" fill="#CB316F"/>
<path d="M71.0571 46.8856L79.3076 42.7683V44.827L71.0571 48.9443V46.8856Z" fill="#A7BC26"/>
<path d="M72.6041 38.1363L77.7606 35.563V37.6216L72.6041 40.1949V38.1363Z" fill="#8D6ED7"/>
<path d="M60.2284 40.1949L68.4788 36.0776V38.1363L60.2284 42.2536V40.1949Z" fill="#FC9F4A"/>
<path d="M65.9521 1.38959V1.54399L65.849 24.0347L64.302 24.9096L64.4052 5.50688V5.40395L30.9908 24.1891L15.2118 32.9898L15.2634 33.0413L5.2081 38.7026L5.98159 81.7798L46.3573 58.8773V61.0904L39.7053 64.9503L31.3518 69.7881C31.3518 69.7881 10.674 81.7283 3.91897 86C3.24862 86.4117 0.412523 85.2795 0.412523 84.5075C0.412523 78.8462 0 38.9599 0 38.9599C0 38.9599 0 36.3351 0.412523 35.6146C0.928177 34.6882 3.66114 33.5045 3.66114 33.5045C3.66114 33.5045 47.8527 7.82286 62.9098 0.102935C63.6317 -0.308794 65.9521 1.38959 65.9521 1.38959Z" fill="#8D6ED7"/>
</g>
<defs>
<clipPath id="clip0">
<rect width="84" height="86" fill="white"/>
</clipPath>
</defs>
</svg>
