<svg width="84" height="87" viewBox="0 0 84 87" fill="none" xmlns="http://www.w3.org/2000/svg">
<g clip-path="url(#clip0)">
<path d="M62.2383 54.2246L5.82121 86.3982L4.4067 85.9057C4.4067 85.9057 1.14245 65.3868 1.25126 50.3397C1.25126 49.5736 1.25126 48.4793 1.30566 47.2208V47.1661C1.30566 46.2359 1.36007 45.1963 1.36007 44.1566C1.36007 43.9925 1.36007 43.8831 1.36007 43.7189L2.33934 44.4849L2.44815 44.5397L60.8782 13.0774L62.2383 54.2246Z" fill="#BDCD5D"/>
<path d="M5.386 86.7265L4.13471 85.9058C2.39377 73.102 0.979266 61.1737 0.870457 48.2605L0.707245 44.0473C0.707245 42.8982 1.57771 38.5208 1.4145 43.7737L2.39377 44.5397C2.39377 49.7925 2.44818 55.9756 2.66579 61.9397C3.04662 73.102 4.56994 84.5925 5.386 86.7265Z" fill="#E9EEC9"/>
<path d="M21.9793 20.9565C22.0337 21.5037 22.0881 21.832 22.0881 21.832L16.7021 23.8565V23.8018L21.9793 20.9565Z" fill="#32946B"/>
<path d="M44.7202 8.75464C44.6114 10.3961 44.4482 11.5999 44.4482 11.5999L39.6062 12.9131C39.7694 12.366 39.8782 11.8188 39.987 11.2716L44.7202 8.75464Z" fill="#32946B"/>
<path d="M61.64 1.20373C61.5311 0.656559 60.2254 -0.27363 59.7358 -4.48488e-05C56.6348 1.69618 53.0985 2.95467 44.7747 7.27731V7.38675C44.7747 7.8792 44.7747 8.37165 44.7203 8.86411L44.6659 8.91882C44.6659 8.91882 44.6659 8.86411 44.6659 8.80939C44.7203 8.37165 44.7203 7.93392 44.7203 7.44146V7.33203H44.7747C44.7747 4.9792 44.5026 2.46222 43.2514 1.69618C37.3757 -1.75099 21.2721 6.01882 18.1166 12.0377C16.8109 14.5547 16.6477 19.3698 16.6477 22.0509V22.215C10.228 25.4434 5.05964 28.2886 2.88347 29.6018C-0.0543501 31.4075 0.924924 38.7943 0.761712 44.0471L1.36016 44.266H1.41456L2.39384 44.5943V44.5396L2.50264 44.5943L61.7488 12.8584C61.7488 12.8584 62.1296 3.61128 61.64 1.20373ZM16.7021 23.8018H16.6477V23.7471L16.7021 23.6924V23.8018ZM21.9793 20.9018C21.9249 20.9018 21.9249 20.9018 21.9793 20.9018V20.9018ZM39.6063 12.9132C39.7151 12.4207 39.8239 11.8735 39.9327 11.3811L39.9871 11.3264C39.8783 11.8735 39.7695 12.366 39.6063 12.9132ZM21.9249 19.3151C21.8705 19.3151 21.8705 19.2603 21.8705 19.2056C21.8161 17.4547 22.0337 15.1018 23.1218 13.4603C25.5156 9.7943 36.1788 3.44712 39.2254 6.62071C39.9871 7.38675 40.1503 8.59052 40.1503 9.73958C34.2747 12.749 27.8006 16.1415 21.9249 19.3151Z" fill="#32946B"/>
<path d="M21.9793 20.9019C21.9249 20.9566 21.9249 20.9566 21.9793 20.9019V20.9019Z" fill="#32946B"/>
<path d="M44.7747 7.33203C44.7747 7.82448 44.7747 8.31694 44.7203 8.80939L44.6659 8.86411C44.6659 8.86411 44.6659 8.80939 44.6659 8.75467C44.7203 8.31694 44.7203 7.8792 44.7747 7.33203Z" fill="#32946B"/>
<path d="M21.9793 20.9019C21.9249 20.9566 21.9249 20.9566 21.9793 20.9019V20.9019Z" fill="#32946B"/>
<path d="M44.7747 7.27734V7.38678C44.7747 7.87923 44.7747 8.37168 44.7203 8.86414L44.6659 8.91885C44.6659 8.91885 44.6659 8.86414 44.6659 8.80942C44.7203 8.37168 44.7203 7.93395 44.7203 7.44149L44.7747 7.27734C44.7203 7.27734 44.7747 7.27734 44.7747 7.27734Z" fill="#32946B"/>
<path d="M21.9793 20.9019C21.9249 20.9566 21.9249 20.9566 21.9793 20.9019V20.9019Z" fill="#32946B"/>
<path d="M44.7747 7.27734V7.38678C44.7747 7.87923 44.7747 8.37168 44.7203 8.86414L44.6659 8.91885C44.6659 8.91885 44.6659 8.86414 44.6659 8.80942C44.7203 8.37168 44.7203 7.93395 44.7203 7.44149L44.7747 7.27734C44.7203 7.27734 44.7747 7.27734 44.7747 7.27734Z" fill="#32946B"/>
<path d="M60.5518 7.55099L9.95591 33.268C9.35747 33.5963 8.97664 34.1982 8.92224 34.8548C8.92224 34.8548 7.83415 50.5585 7.61654 55.7019C7.39892 61.5567 8.10617 76.4944 8.32379 81.0359L6.80047 81.8567C6.52845 82.0755 6.09322 82.0208 5.93001 81.7472C5.8212 81.6378 5.8212 81.4736 5.8212 81.3095C5.8212 81.3095 4.78752 61.5567 5.00514 54.6076C5.16835 49.4642 5.93001 33.4868 5.93001 33.4868C5.98441 32.8302 6.36524 32.2284 6.96369 31.9001L58.2124 6.34722C58.702 6.07363 60.5518 6.73024 60.5518 7.55099Z" fill="white"/>
<path d="M60.3886 52.8018L8.37826 81.0905C8.16064 76.549 7.45339 61.6112 7.671 55.7565C7.83421 50.6131 8.59587 34.6357 8.59587 34.6357C8.65028 33.9791 9.03111 33.3773 9.62955 33.049L60.5518 7.44141C60.6062 11.2716 60.6062 22.4886 60.171 27.7961C59.627 34.0886 61.2591 51.215 61.2591 51.215C61.2591 51.8169 60.9327 52.4188 60.3886 52.8018Z" fill="#FDCFA4"/>
<path d="M66.5363 18.4944C65.6114 23.7472 64.7409 29.1642 64.4689 31.8453C63.816 38.5208 63.0544 54.9906 63.0544 54.9906L5.98444 87.0001L5.05957 86.1793C5.05957 86.1793 7.07252 63.3076 8.1062 55.5378C8.37822 53.568 8.43263 49.5736 9.03107 46.017L9.3575 46.4548L66.5363 18.4944Z" fill="#E9EEC9"/>
<path d="M11.1327 63.7867C11.2817 62.954 10.923 62.1921 10.3316 62.0851C9.74017 61.978 9.13994 62.5663 8.99094 63.3991C8.84195 64.2319 9.20062 64.9938 9.79205 65.1008C10.3835 65.2078 10.9837 64.6195 11.1327 63.7867Z" fill="#FDCFA4"/>
<path d="M10.1874 70.4086C10.3364 69.5758 9.97774 68.8139 9.3863 68.7069C8.79486 68.5998 8.19462 69.1882 8.04563 70.0209C7.89663 70.8537 8.2553 71.6156 8.84674 71.7226C9.43818 71.8297 10.0384 71.2413 10.1874 70.4086Z" fill="#FDCFA4"/>
<path d="M13.2105 48.7124C13.3595 47.8796 12.9769 47.1134 12.3559 47.001C11.7348 46.8886 11.1106 47.4726 10.9616 48.3054C10.8126 49.1381 11.1953 49.9043 11.8163 50.0167C12.4373 50.1291 13.0615 49.5451 13.2105 48.7124Z" fill="#FDCFA4"/>
<path d="M12.2866 54.8773C12.4356 54.0445 12.0769 53.2827 11.4854 53.1756C10.894 53.0686 10.2938 53.6569 10.1448 54.4897C9.99578 55.3225 10.3545 56.0843 10.9459 56.1914C11.5373 56.2984 12.1376 55.7101 12.2866 54.8773Z" fill="#FDCFA4"/>
<path d="M9.98018 78.193C10.1268 77.3905 9.7665 76.6515 9.17549 76.5423C8.58447 76.4331 7.98652 76.995 7.83993 77.7975C7.69333 78.6 8.05361 79.339 8.64462 79.4482C9.23564 79.5574 9.83359 78.9955 9.98018 78.193Z" fill="#FDCFA4"/>
<path d="M4.78757 51.7623C3.75389 51.817 2.77461 51.5435 1.84974 51.051C0.707254 50.4491 0 49.2453 0 47.9321C0 47.385 0.435233 47.002 0.924871 47.002C1.46891 47.002 1.84974 47.4397 1.84974 47.9321C1.84974 48.534 2.17617 49.1359 2.72021 49.4095C4.08031 50.2303 7.18135 50.1208 11.6425 47.4944C12.1321 47.2755 12.6762 47.4397 12.8938 47.9321C13.1114 48.3699 12.9482 48.8623 12.5674 49.1359C9.68394 50.8869 6.96373 51.7623 4.78757 51.7623Z" fill="#FC9F4A"/>
<path d="M4.84193 58.8207C3.97147 58.8207 3.15541 58.6565 2.39375 58.3282C1.03364 57.7811 0.163177 56.4678 0.163177 54.9905C0.163177 54.4433 0.598411 54.0603 1.08805 54.0603C1.63209 54.0603 2.01292 54.498 2.01292 54.9905C2.01292 55.7018 2.50256 56.3584 3.15541 56.5773C4.56991 57.2339 7.39893 57.0697 10.6088 54.3339C11.044 54.0056 11.588 54.0603 11.9145 54.498C12.2409 54.8811 12.1865 55.4829 11.8057 55.8112C9.24867 58.0546 6.74608 58.8207 4.84193 58.8207Z" fill="#FC9F4A"/>
<path d="M5.16842 66.2075C4.24355 66.2075 3.31868 65.9886 2.44821 65.6056C1.19692 65.0037 0.380854 63.7453 0.380854 62.3773C0.32645 61.8849 0.707279 61.4471 1.19692 61.3924C1.68655 61.3377 2.12179 61.7207 2.17619 62.2132C2.17619 62.2679 2.17619 62.3226 2.17619 62.3773C2.17619 63.0886 2.61142 63.7453 3.26427 64.0188C4.51557 64.6754 7.07256 64.7302 10.0648 62.6509C10.5 62.3773 11.0441 62.5415 11.3161 62.9792C11.5337 63.3622 11.4793 63.8547 11.0985 64.183C9.41194 65.3868 7.34458 66.0981 5.16842 66.2075Z" fill="#FC9F4A"/>
<path d="M4.46113 73.4301C4.18911 73.4301 3.91709 73.4301 3.59066 73.3754C2.39377 73.1565 1.4689 72.2263 1.25128 71.0773C1.14247 70.5848 1.4689 70.0924 1.95854 69.9829C2.44817 69.8735 2.93781 70.2018 3.04662 70.6943C3.10102 71.1867 3.48185 71.515 3.97149 71.5697C5.33159 71.8433 7.50776 70.9131 8.32382 69.6546C8.59584 69.2169 9.19429 69.1622 9.57512 69.4358C10.0104 69.7094 10.0648 70.3112 9.79273 70.6943C8.54144 72.3905 6.58289 73.3754 4.46113 73.4301Z" fill="#FC9F4A"/>
<path d="M5.22274 80.4341C4.84192 80.4341 4.46109 80.3794 4.08026 80.2699C2.93777 79.9964 2.0673 79.1209 1.84969 77.9718C1.74088 77.4794 2.12171 76.9869 2.61135 76.9322C3.10098 76.8775 3.59062 77.2058 3.64502 77.6982C3.75383 78.136 4.13466 78.4643 4.56989 78.519C5.76679 78.7926 6.96368 78.3001 7.67093 77.3699C7.99736 76.9869 8.5958 76.9869 8.97663 77.3152C9.30305 77.6435 9.35746 78.1907 9.08544 78.519C8.16057 79.7228 6.74606 80.3794 5.22274 80.4341Z" fill="#FC9F4A"/>
<path d="M32.2616 51.7624C32.2616 56.8511 28.943 61.0643 24.101 61.5568C19.6399 61.9945 16.3756 57.836 16.3756 52.7473C16.3756 47.6586 20.1295 42.1869 25.5155 42.6794C29.8678 43.1718 32.2616 46.6737 32.2616 51.7624Z" fill="#568E33"/>
<path d="M32.6969 52.2546C32.6969 57.3433 29.3783 61.5565 24.5363 62.0489C20.0752 62.4867 16.8109 58.3282 16.8109 53.2395C16.8109 48.1508 20.5104 42.6791 25.8964 43.1716C30.3031 43.6093 32.6969 47.1112 32.6969 52.2546Z" fill="#73BE44"/>
<path d="M46.7332 62.3226C43.9586 61.2829 42.5985 60.8452 39.8783 59.9697C38.1373 61.2829 36.4508 62.7056 34.8731 64.1829C34.3834 61.9395 34.1658 59.6414 34.1658 57.3433C31.8264 55.866 30.6296 55.0999 28.399 53.5678C31.1736 52.8018 32.5881 52.4188 35.3627 51.6528C36.4508 49.0811 37.1581 47.7679 38.4094 44.5396C39.3342 46.7282 40.4223 48.8075 41.728 50.7773H48.855C46.9508 52.9112 45.9715 53.8414 44.1762 55.866C45.0467 58.2735 45.4819 59.4226 46.7332 62.3226Z" fill="#FC9F4A"/>
<path d="M47.2228 62.5416C44.4481 61.5019 43.088 61.0642 40.3678 60.1887C38.6269 61.5019 36.9404 62.9246 35.3626 64.4019C34.873 62.1585 34.6554 59.8604 34.6554 57.5623C32.316 56.085 31.1191 55.3189 28.8885 53.7868C31.6632 53.0208 33.0777 52.6378 35.8523 51.8717C36.9404 49.3001 37.6476 47.9868 38.8989 44.7585C39.8238 46.9472 40.9119 49.0265 42.2176 50.9963H49.3445C47.4404 53.1302 46.4611 54.0604 44.6658 56.085C45.4818 58.4925 45.9715 59.6416 47.2228 62.5416Z" fill="#FDB777"/>
<path d="M47.658 41.9133C47.658 41.9133 46.9508 70.5303 58.7021 85.6869L83.5104 73.1567C83.5104 73.1567 71.2694 50.5039 76.7643 29.2737L47.658 41.9133Z" fill="#B1B4BA"/>
<path d="M48.0932 40.7641C48.0932 40.7641 47.386 69.3811 59.1373 84.5377L83.9456 72.0075C83.9456 72.0075 74.2072 49.1905 76.7098 28.6169L48.0932 40.7641Z" fill="#FAFBFD"/>
<path d="M68.9845 6.94903C68.4949 10.3962 67.6788 12.0377 66.5363 18.4943C66.5363 18.4943 25.6244 40.1622 11.0985 46.6188C10.7176 46.783 9.08551 45.9622 9.08551 45.9622C9.41194 40.217 9.19432 34.5264 11.5337 33.4868C17.6814 30.6962 52.0104 15.3754 66.9171 5.41696C67.842 4.81507 69.0933 6.01884 68.9845 6.94903Z" fill="#43C58F"/>
<path d="M28.7254 26.7567C28.7254 26.7567 28.2357 18.4945 30.1399 14.8832C33.2953 8.86429 49.3989 1.09447 55.2746 4.54164C57.7772 6.019 56.5259 14.5549 56.5259 14.5549L51.6295 15.8681C51.6295 15.8681 53.044 11.3813 51.2487 9.52089C48.202 6.3473 37.5388 12.6945 35.145 16.3605C33.1321 19.4247 34.1114 24.7322 34.1114 24.7322L28.7254 26.7567Z" fill="#43C58F"/>
<path d="M64.5234 26.2095C63.9793 26.2095 63.5985 25.717 63.5985 25.2246C63.5985 24.7321 63.9793 24.3491 64.469 24.2944C64.9586 24.2944 65.7747 24.0208 65.9379 23.6925C66.0467 23.4736 65.9379 23.0359 65.6659 22.5434C65.3938 22.1057 65.5027 21.5038 65.9379 21.2302C66.3731 20.9566 66.9716 21.0661 67.2436 21.5038C67.2436 21.5038 67.2436 21.5585 67.298 21.5585C68.0052 22.7076 68.1141 23.7472 67.6244 24.6227C66.8628 26.0453 64.7954 26.1547 64.5234 26.2095Z" fill="#FC9F4A"/>
<path d="M63.7617 32.5566C63.2177 32.5566 62.7824 32.1736 62.7824 31.6264C62.7824 31.0792 63.1633 30.6415 63.7073 30.6415C64.1969 30.6415 65.013 30.3679 65.1762 30.0396C65.285 29.8208 65.1762 29.383 64.8498 28.8906C64.5778 28.4528 64.741 27.8509 65.1762 27.5774C65.6115 27.3038 66.2099 27.4679 66.4819 27.9057C67.1892 29.0547 67.298 30.0943 66.8083 30.9698C66.1011 32.4472 64.0337 32.5566 63.7617 32.5566Z" fill="#FC9F4A"/>
<path d="M51.3576 47.7679C50.7591 47.7679 50.2695 47.2754 50.2695 46.6735C50.2695 46.2358 50.5415 45.8528 50.9223 45.6886L72.956 36.2773C73.5 36.0584 74.1529 36.2773 74.3705 36.8792C74.5881 37.4811 74.3705 38.0829 73.7721 38.3018L51.7928 47.6584C51.6296 47.7131 51.5208 47.7679 51.3576 47.7679Z" fill="#ECF0F8"/>
<path d="M52.8264 56.5227C52.2279 56.5227 51.7383 56.0302 51.7383 55.4283C51.7383 54.9906 52.0103 54.6076 52.3911 54.4434L73.3367 45.5246C73.8808 45.251 74.5336 45.5246 74.8056 46.0717C75.0777 46.6189 74.8056 47.2755 74.2616 47.5491C74.2616 47.5491 74.2072 47.5491 74.2072 47.6038L53.2616 56.5227C53.0984 56.468 52.9896 56.5227 52.8264 56.5227Z" fill="#ECF0F8"/>
<path d="M54.6762 65.7152C54.0777 65.7152 53.5881 65.2227 53.5881 64.6208C53.5881 64.1831 53.8057 63.8001 54.1865 63.6359L74.3161 54.0057C74.8601 53.7321 75.5129 53.951 75.785 54.4982C76.057 55.0453 75.8394 55.702 75.2953 55.9755H75.2409L55.1114 65.6057C55.0026 65.7152 54.8394 65.7152 54.6762 65.7152Z" fill="#ECF0F8"/>
<path d="M57.2876 75.6734C56.6892 75.6734 56.1995 75.2357 56.1451 74.6338C56.1451 74.1961 56.3627 73.8131 56.7436 73.6489L77.9612 62.0489C78.5052 61.7753 79.1581 61.9395 79.4301 62.4866C79.7021 63.0338 79.5389 63.6904 78.9949 63.964L57.7772 75.564C57.614 75.6187 57.4508 75.6734 57.2876 75.6734Z" fill="#ECF0F8"/>
<path d="M72.5751 71.0774C72.3575 71.0774 72.0855 71.0227 71.8679 70.9679L64.5777 68.1227C63.5985 67.7396 63.1088 66.6453 63.4896 65.6604C63.8705 64.6755 64.9586 64.183 65.9378 64.5661L71.1062 66.5906L73.7176 53.8962C73.8808 52.8566 74.8601 52.1453 75.8938 52.3094C76.9275 52.4736 77.6347 53.4585 77.4715 54.4981C77.4715 54.5528 77.4715 54.6076 77.4171 54.6076L74.3705 69.4906C74.2617 70.4208 73.5 71.0774 72.5751 71.0774Z" fill="#568E33"/>
<path d="M73.2824 71.898C73.0648 71.898 72.7927 71.8433 72.5751 71.7886L65.285 68.9433C64.3057 68.5603 63.8161 67.466 64.1969 66.4811C64.5777 65.4962 65.6658 65.0037 66.6451 65.3867L71.8135 67.4113L74.4249 54.7169C74.6425 53.6773 75.6218 53.0207 76.6554 53.2396C77.6891 53.4584 78.342 54.4433 78.1244 55.483L75.0777 70.366C74.9689 71.2414 74.2073 71.898 73.2824 71.898Z" fill="#73BE44"/>
</g>
<defs>
<clipPath id="clip0">
<rect width="84" height="87" fill="white"/>
</clipPath>
</defs>
</svg>
