<?xml version="1.0" encoding="utf-8"?>
<!-- Generator: Adobe Illustrator 24.0.2, SVG Export Plug-In . SVG Version: 6.00 Build 0)  -->
<svg version="1.1" id="Capa_1" xmlns="http://www.w3.org/2000/svg" xmlns:xlink="http://www.w3.org/1999/xlink" x="0px" y="0px"
	 viewBox="0 0 47.2 42.9" style="enable-background:new 0 0 47.2 42.9;" xml:space="preserve">
<style type="text/css">
	.st0{display:none;}
	.st1{display:inline;filter:url(#Adobe_OpacityMaskFilter);}
	.st2{fill-rule:evenodd;clip-rule:evenodd;fill:#FFFFFF;}
	.st3{display:inline;mask:url(#prefix__c_1_);}
	.st4{fill:#0052C2;}
	.st5{fill:#E0F4FF;}
	.st6{fill:#FFDA2D;}
	.st7{fill:#00B8F0;}
	.st8{fill-rule:evenodd;clip-rule:evenodd;fill:#58CB7D;}
	.st9{fill:#FDBF00;}
	.st10{fill:#F03800;}
	.st11{filter:url(#Adobe_OpacityMaskFilter_1_);}
	.st12{mask:url(#prefix__c_2_);}
	.st13{fill-rule:evenodd;clip-rule:evenodd;fill:#D23689;}
	.st14{fill-rule:evenodd;clip-rule:evenodd;fill:#FEFFFE;}
</style>
<g class="st0">
	<defs>
		<filter id="Adobe_OpacityMaskFilter" filterUnits="userSpaceOnUse" x="0" y="0" width="47.2" height="41.5">
			<feColorMatrix  type="matrix" values="1 0 0 0 0  0 1 0 0 0  0 0 1 0 0  0 0 0 1 0"/>
		</filter>
	</defs>
	<mask maskUnits="userSpaceOnUse" x="0" y="0" width="47.2" height="41.5" id="prefix__c_1_" style="display:inline;">
		<g style="filter:url(#Adobe_OpacityMaskFilter);">
			<path id="prefix__a_3_" class="st2" d="M-113-12h272c4.4,0,8,3.6,8,8v244c0,4.4-3.6,8-8,8h-272c-4.4,0-8-3.6-8-8V-4
				C-121-8.4-117.4-12-113-12z"/>
		</g>
	</mask>
	<g class="st3">
		<g transform="translate(121 12)">
			<path class="st4" d="M-73.8-7.9c0-2.3-1.9-4.1-4.1-4.1h-38.9c-2.3,0-4.1,1.9-4.1,4.1v8.3l0.9,0.9h45.3l0.9-0.9V-7.9z"/>
			<path class="st5" d="M-121,0.4v24.9c0,2.3,1.9,4.1,4.1,4.1H-78c2.3,0,4.1-1.9,4.1-4.1V0.4H-121z"/>
			<path class="st6" d="M-102.9,15.6H-114c-0.8,0-1.4,0.6-1.4,1.4v5.5c0,0.8,0.6,1.4,1.4,1.4h11.1c0.8,0,1.4-0.6,1.4-1.4V17
				C-101.6,16.3-102.2,15.6-102.9,15.6z"/>
			<path class="st7" d="M-89.1,4.6H-114c-0.8,0-1.4,0.6-1.4,1.4c0,0.8,0.6,1.4,1.4,1.4h24.9c0.8,0,1.4-0.6,1.4-1.4
				S-88.3,4.6-89.1,4.6z M-94.6,10.1H-114c-0.8,0-1.4,0.6-1.4,1.4s0.6,1.4,1.4,1.4h19.4c0.8,0,1.4-0.6,1.4-1.4
				C-93.3,10.7-93.9,10.1-94.6,10.1z"/>
			<circle class="st8" cx="-114" cy="-5.1" r="1.4"/>
			<circle class="st9" cx="-108.5" cy="-5.1" r="1.4"/>
			<circle class="st10" cx="-102.9" cy="-5.1" r="1.4"/>
		</g>
	</g>
</g>
<defs>
	<filter id="Adobe_OpacityMaskFilter_1_" filterUnits="userSpaceOnUse" x="0" y="6.3" width="47.2" height="30.2">
		<feColorMatrix  type="matrix" values="1 0 0 0 0  0 1 0 0 0  0 0 1 0 0  0 0 0 1 0"/>
	</filter>
</defs>
<mask maskUnits="userSpaceOnUse" x="0" y="6.3" width="47.2" height="30.2" id="prefix__c_2_">
	<g class="st11">
		<path id="prefix__a_2_" class="st2" d="M-104.6-9.7h256.3c4.2,0,7.5,3.4,7.5,7.5v229.9c0,4.2-3.4,7.5-7.5,7.5h-256.3
			c-4.2,0-7.5-3.4-7.5-7.5V-2.1C-112.1-6.3-108.8-9.7-104.6-9.7z"/>
	</g>
</mask>
<g class="st12">
	<g>
		<path class="st13" d="M7.2,6.3H40c4,0,7.2,3.2,7.2,7.2v15.8c0,4-3.2,7.2-7.2,7.2H7.2c-4,0-7.2-3.2-7.2-7.2V13.6
			C0,9.6,3.2,6.3,7.2,6.3z"/>
		<path class="st14" d="M19.4,16.8l-0.1,9.4c0,0.7,0.4,1,0.8,0.7l8.9-4.7c0.5-0.2,0.5-0.7,0-0.9l-8.8-5.2
			C19.8,15.8,19.4,16.1,19.4,16.8z"/>
	</g>
</g>
</svg>
