<svg xmlns="http://www.w3.org/2000/svg" xmlns:xlink="http://www.w3.org/1999/xlink" width="255" height="234" viewBox="0 0 255 234">
    <defs>
        <rect id="prefix__a" width="255" height="234" x="0" y="0" rx="8"/>
    </defs>
    <g fill="none" fill-rule="evenodd">
        <mask id="prefix__b" fill="#fff">
            <use xlink:href="#prefix__a"/>
        </mask>
        <rect width="254" height="233" x=".5" y=".5" stroke="#CCC" rx="8"/>
        <text fill="#000" font-family="Montserrat-Medium, Montserrat" font-size="18" font-weight="400" mask="url(#prefix__b)">
            <tspan x="70.103" y="201">Cine y teatro</tspan>
        </text>
        <g fill-rule="nonzero">
            <g>
                <path fill="#A546A0" d="M62.5 0C97.018 0 125 27.982 125 62.5S97.018 125 62.5 125 0 97.018 0 62.5 27.982 0 62.5 0z" transform="translate(59 37) translate(6)"/>
                <path fill="#EFC84A" d="M73.856 88.608h13.17c0-2.185-1.739-3.956-3.882-3.956-.743 0-1.43.223-2.019.592-.42-2.58-2.611-4.548-5.26-4.548-1.148 0-2.21.374-3.08 1.003 1.006 1.122 1.626 2.627 1.626 4.285 0 .938-.203 1.824-.555 2.624z" transform="translate(59 37) translate(6)"/>
                <path fill="#EFCB58" d="M53.006 81.464c-.993-.487-2.107-.768-3.29-.768-2.987 0-5.556 1.752-6.748 4.273-.532-.195-1.103-.317-1.704-.317-2.405 0-4.411 1.698-4.872 3.956h10.61c1.08-3.037 3.232-5.567 6.004-7.144z" transform="translate(59 37) translate(6)"/>
                <path fill="#F4D985" d="M46.677 88.608h10.14c.118-2.977 2.558-5.355 5.56-5.355.22 0 .437.016.652.041.436-.868 1.07-1.618 1.844-2.192-1.701-.766-3.595-1.197-5.591-1.197-2.412 0-4.673.627-6.626 1.718-2.761 1.542-4.904 4.016-5.979 6.985z" transform="translate(59 37) translate(6)"/>
                <path fill="#F8E5AB" d="M63.032 83.294c-.21-.025-.423-.041-.639-.041-2.931 0-5.315 2.378-5.431 5.355h16.852c.352-.782.553-1.648.553-2.566 0-1.622-.618-3.092-1.621-4.19-1.093-1.196-2.642-1.947-4.367-1.947-1.329 0-2.554.446-3.546 1.197-.755.573-1.376 1.324-1.801 2.192z" transform="translate(59 37) translate(6)"/>
                <g fill="#DF5A48">
                    <path d="M46.835 0v21.779c1.736 1.088 3.073 2.347 3.903 3.726V0h-3.903zM54.641 0v26.893c1.326-.592 2.628-1.23 3.903-1.909V0h-3.903zM39.03 0v18.687c1.39.329 2.695.728 3.902 1.186V0H39.03zM0 0v24.984c1.276.68 2.577 1.317 3.903 1.91V0H0zM11.709 0H7.806v25.505c.83-1.38 2.167-2.638 3.903-3.726V-.001zM19.515 0h-3.903v19.872c1.208-.458 2.513-.856 3.903-1.185V0zM35.127 0h-3.903v17.65c1.34.055 2.645.166 3.902.33V0zM27.32 0h-3.902v17.98c1.257-.164 2.562-.275 3.902-.33V0z" transform="translate(59 37) translate(6) translate(33.228 92.563)"/>
                </g>
                <path fill="#EBEEEE" d="M73.67 88.608H29.272V114.993c1.273.793 2.577 1.541 3.91 2.244V92.484h3.908v26.645c1.596.704 3.226 1.343 4.889 1.915.033-5.07 9.207-9.178 20.521-9.178s20.488 4.107 20.522 9.178c1.662-.572 3.293-1.21 4.888-1.915V92.484h3.909v24.753c1.332-.702 2.636-1.45 3.909-2.244V88.608H73.67zM41 117.753v-25.27h3.909v21.579c-1.739 1.077-3.078 2.324-3.91 3.691zm7.818-5.58v-19.69h3.91v18.515c-1.393.326-2.7.72-3.91 1.175zm7.818-1.875V92.484h3.91v17.486c-1.344.055-2.65.165-3.91.328zm7.819-.328V92.484h3.909v17.814c-1.26-.163-2.566-.273-3.91-.328zm7.818 1.028V92.484h3.91v19.689c-1.21-.455-2.518-.849-3.91-1.175zm7.818 3.064V92.484h3.91v25.269c-.832-1.367-2.17-2.613-3.91-3.691z" transform="translate(59 37) translate(6)"/>
                <path fill="#EFC84A" d="M62.5 112.342c-11.34 0-20.536 4.127-20.57 9.222C48.374 123.788 55.294 125 62.5 125c7.206 0 14.126-1.212 20.57-3.436-.034-5.095-9.23-9.222-20.57-9.222z" transform="translate(59 37) translate(6)"/>
            </g>
            <g>
                <path fill="#FDB62F" d="M34.37 3.25v18.838c.01 10.01 4.272 19.544 11.723 26.227 4.13 3.697 10.329 3.86 14.647.384l.393-.315c8.294-6.677 13.114-16.755 13.107-27.403V3.249c-12.937-4.333-26.933-4.333-39.87 0z" transform="translate(59 37) rotate(-9 198.156 -390.482)"/>
                <path fill="#FFA83D" d="M66.56 1.213V20.98c.006 10.648-4.814 20.724-13.107 27.402l-.393.315c-.976.784-2.075 1.4-3.253 1.825 3.713 1.348 7.86.656 10.933-1.825l.393-.315c8.293-6.678 13.113-16.754 13.107-27.402V3.249c-2.515-.84-5.08-1.52-7.68-2.036z" transform="translate(59 37) rotate(-9 198.156 -390.482)"/>
                <g fill="#DE4C3C">
                    <path d="M4.658 16.544c6.271 3.153 13.664 3.153 19.935 0l-1.221 3.682c-1.246 3.775-4.77 6.328-8.747 6.333-3.976-.005-7.5-2.558-8.746-6.333l-1.221-3.682zM1.334 6.431C.627 6.43.054 5.856.056 5.15c0-.25.075-.496.213-.704C2.555.995 6.766-.64 10.78.363l.832.208c.685.177 1.097.875.92 1.56-.175.677-.862 1.089-1.542.924l-.833-.21c-2.962-.735-6.068.47-7.757 3.014-.237.358-.638.573-1.067.572zM29.577 6.897c-.43 0-.83-.215-1.068-.573-1.688-2.543-4.792-3.749-7.754-3.013l-.836.208c-.69.15-1.372-.288-1.522-.98-.143-.66.251-1.317.9-1.502l.835-.21c4.014-1 8.223.635 10.51 4.082.39.59.23 1.384-.359 1.775-.21.139-.455.213-.706.213z" transform="translate(59 37) rotate(-9 198.156 -390.482) translate(39.68 13.12)"/>
                </g>
                <path fill="#4398D1" d="M34.37 13.814C22.993 16.507 11.089 15.968 0 12.256v18.792c-.005 10.013 4.259 19.553 11.722 26.227 4.13 3.697 10.33 3.86 14.647.384l.393-.315c5.834-4.698 10.012-11.14 11.922-18.384-2.827-5.173-4.31-10.974-4.313-16.87v-8.276z" transform="translate(59 37) rotate(-9 198.156 -390.482)"/>
                <path fill="#3E8CC7" d="M34.37 22.088v-8.274c-1.633.384-3.278.698-4.93.953v5.187c0 7.09 1.554 14.095 4.552 20.52l2.282 4.89c1.01-2.053 1.816-4.198 2.41-6.407-2.827-5.173-4.31-10.973-4.313-16.869z" transform="translate(59 37) rotate(-9 198.156 -390.482)"/>
                <g fill="#3570AB">
                    <path d="M1.28 7.727C.573 7.727 0 7.153 0 6.447c0-.707.573-1.28 1.28-1.28 2.69-.001 5.201-1.354 6.683-3.6l.555-.84c.391-.59 1.186-.751 1.776-.36.59.39.75 1.185.36 1.775l-.557.84C8.14 5.946 4.829 7.728 1.28 7.728zM26.199 7.727c-3.547.002-6.859-1.777-8.815-4.736l-.558-.841c-.391-.59-.23-1.384.359-1.775s1.383-.23 1.774.359l.558.84C21 3.82 23.51 5.17 26.2 5.17c.707 0 1.28.573 1.28 1.28 0 .707-.573 1.28-1.28 1.28v-.002zM7.38 24.735c.886 1.34 2.634 1.806 4.07 1.086 2.6-1.307 5.665-1.307 8.266 0 1.435.72 3.183.254 4.069-1.086.978-1.468.583-3.45-.882-4.432-4.428-2.97-10.212-2.97-14.64 0-1.466.981-1.86 2.964-.883 4.432z" transform="translate(59 37) rotate(-9 198.156 -390.482) translate(3.84 24.16)"/>
                </g>
                <path fill="#87CED9" d="M30.068 30.699l-2.5 5.833c-.589 1.381.053 2.98 1.435 3.569.337.144.7.218 1.065.218 1.503 0 2.72-1.218 2.72-2.72 0-.368-.075-.733-.22-1.071l-2.5-5.83z" transform="translate(59 37) rotate(-9 198.156 -390.482)"/>
            </g>
            <g>
                <path fill="#DEDEDE" d="M59.904 66.816h-57.6C1.031 66.816 0 65.785 0 64.512v-28.8h62.208v28.8c0 1.273-1.031 2.304-2.304 2.304z" transform="translate(59 37) translate(0 6)"/>
                <path fill="#666" d="M16.128 28.8L16.128 35.712 62.208 35.712 62.208 26.496 14.285 26.496z" transform="translate(59 37) translate(0 6)"/>
                <g fill="#DEDEDE">
                    <path d="M21.744 9.216L12.528 9.216 19.44 0 28.656 0zM40.176 9.216L30.96 9.216 37.872 0 47.088 0zM1.008 0L.116 1.189 1.008 2.304 1.008 9.216 3.312 9.216 10.224 0z" transform="translate(59 37) translate(0 6) translate(15.12 26.496)"/>
                </g>
                <path fill="#666" d="M15.236 27.685L14.285 26.496 12.584 24.371 12.007 23.649 6.912 17.28 4.402 17.28 0 17.28 0 26.496 0 35.712 9.216 35.712 16.128 35.712 16.128 28.8z" transform="translate(59 37) translate(0 6)"/>
                <g fill="#DEDEDE">
                    <path d="M0 9.216L2.304 9.216 2.304 11.52 0 11.52zM0 0L2.304 0 2.304 2.304 0 2.304zM6.912 9.216L9.216 9.216 9.216 11.52 6.912 11.52z" transform="translate(59 37) translate(0 6) translate(3.456 20.736)"/>
                </g>
                <g fill="#C7C7C7">
                    <path d="M0 0L50.688 0 50.688 2.304 0 2.304zM50.688 9.216L0 9.216 0 11.52 14.976 11.52 14.976 18.432 17.28 18.432 17.28 11.52 33.408 11.52 33.408 18.432 35.712 18.432 35.712 11.52 50.688 11.52z" transform="translate(59 37) translate(0 6) translate(5.76 43.776)"/>
                </g>
                <path fill="#DEDEDE" d="M12.584 24.371L62.208 8.793 59.448 0 4.402 17.28 6.912 17.28z" transform="translate(59 37) translate(0 6)"/>
                <g fill="#666">
                    <path d="M26.076 16.384L17.282 19.144 21.117 8.281 29.909 5.52zM43.661 10.863L34.869 13.624 38.703 2.76 47.496 0zM.632 24.371L8.489 21.904 12.324 11.041 3.531 13.801.055 23.649z" transform="translate(59 37) translate(0 6) translate(11.952)"/>
                </g>
                <path fill="#C7C7C7" d="M0 35.712L62.208 35.712 62.208 39.168 0 39.168z" transform="translate(59 37) translate(0 6)"/>
            </g>
        </g>
    </g>
</svg>
