<svg xmlns="http://www.w3.org/2000/svg" xmlns:xlink="http://www.w3.org/1999/xlink" width="255" height="234" viewBox="0 0 255 234">
    <defs>
        <rect id="prefix__a" width="255" height="234" x="0" y="0" rx="8"/>
        <path id="prefix__c" d="M125 62.501c.017 30.516-22.021 56.575-52.117 61.628-25.866 4.357-51.702-7.9-64.687-30.69-12.985-22.792-10.357-51.265 6.58-71.294C31.716 2.116 59.358-5.205 83.99 3.813 108.621 12.832 125 36.271 125 62.501z"/>
    </defs>
    <g fill="none" fill-rule="evenodd">
        <mask id="prefix__b" fill="#fff">
            <use xlink:href="#prefix__a"/>
        </mask>
        <rect width="254" height="233" x=".5" y=".5" stroke="#CCC" rx="8"/>
        <text fill="#000" font-family="Montserrat-Medium, Montserrat" font-size="18" font-weight="400" mask="url(#prefix__b)">
            <tspan x="55.82" y="201">Pintura creativa</tspan>
        </text>
        <g transform="translate(63 29)">
            <g transform="translate(2 8)">
                <use fill="#FF7D05" fill-rule="nonzero" xlink:href="#prefix__c"/>
            </g>
            <path fill="#43364A" fill-rule="nonzero" d="M28.887 139.994L25 141 46.81 42 50 42.943zM101.457 139.873L105 141 82.846 42 80 42.834z"/>
            <path fill="#2A222D" fill-rule="nonzero" d="M63 0H67V135H63z"/>
            <path fill="#723939" fill-rule="nonzero" d="M40 79H90V82H40z"/>
            <path fill="#C98642" fill-rule="nonzero" d="M97 78L33 78 37.561 7 92.439 7z"/>
            <path fill="#996533" fill-rule="nonzero" d="M91 70L39 70 42.706 14 87.294 14zM90 79L40 79 41.306 74 88.694 74z"/>
            <path fill="#FFF" fill-rule="nonzero" d="M87 74L43 74 44.316 17 85.684 17z"/>
            <circle cx="47" cy="19" r="1" fill="#FE5524" fill-rule="nonzero"/>
            <circle cx="83" cy="19" r="1" fill="#FE5524" fill-rule="nonzero"/>
            <path fill="#FE5524" fill-rule="nonzero" d="M59 75v2s11.668-.239 18.813-.684c2.499-.155 4.187-.335 4.187-.535C82 75 59 75 59 75z"/>
            <path fill="#DA3100" fill-rule="nonzero" d="M59 76v1s11.784-.239 19-.684C70.784 76 59 76 59 76z"/>
            <path fill="#FACD8C" fill-rule="nonzero" d="M59 75L53 75.239 53 76 59 76z"/>
            <path fill="#FAA04A" fill-rule="nonzero" d="M59 77L53 76.755 53 76 59 76z"/>
            <path fill="#650101" fill-rule="nonzero" d="M48 76.043c3.09 1.667 5 .65 5 .65v-1.305s-1.929-1.073-4.498.35c-.163.088-.333.194-.502.305z"/>
            <path fill="#723939" fill-rule="nonzero" d="M49 76.022c2.484 1.809 4 .554 4 .554v-1.039s-1.715-1.486-4 .485z"/>
            <g fill-rule="nonzero" transform="rotate(-8 528.402 29.954)">
                <path fill="#648BCC" d="M0 0H36.26V46.55H0z"/>
                <path fill="#98CAFF" d="M7.32 7H43.58V53.55H7.32z"/>
                <rect width="22.95" height="44.89" x="38.85" y="3.32" fill="#C9B4A3" rx="2.08"/>
                <rect width="22.95" height="44.89" x="38.85" y="1.76" fill="#EAD1BB" rx="2.08"/>
                <path fill="#433648" d="M56.1 10.67c-1.626 0-2.957-1.294-3-2.92-.001-.202.022-.404.07-.6.348-1.316 1.539-2.232 2.9-2.232s2.552.916 2.9 2.232c.048.196.071.398.07.6-.042 1.603-1.337 2.889-2.94 2.92z"/>
                <path fill="#705A89" d="M56.1 9.47c-1.387-.01-2.586-.97-2.9-2.32.348-1.316 1.539-2.232 2.9-2.232s2.552.916 2.9 2.232c-.314 1.35-1.513 2.31-2.9 2.32z"/>
                <path fill="#648BCC" d="M56.1 18.78c-1.626 0-2.957-1.294-3-2.92-.003-.202.021-.404.07-.6.348-1.316 1.539-2.232 2.9-2.232s2.552.916 2.9 2.232c.049.196.073.398.07.6-.042 1.603-1.337 2.889-2.94 2.92z"/>
                <path fill="#98CAFF" d="M56.1 17.58c-1.387-.01-2.586-.97-2.9-2.32.348-1.316 1.539-2.232 2.9-2.232s2.552.916 2.9 2.232c-.314 1.35-1.513 2.31-2.9 2.32z"/>
                <path fill="#FE5524" d="M56.1 26.88c-.785.016-1.544-.282-2.107-.83-.564-.546-.885-1.295-.893-2.08-.003-.202.021-.404.07-.6.348-1.316 1.539-2.232 2.9-2.232s2.552.916 2.9 2.232c.049.196.073.398.07.6-.016 1.612-1.328 2.91-2.94 2.91z"/>
                <path fill="#FF8703" d="M56.1 25.69c-1.387-.01-2.586-.97-2.9-2.32.348-1.316 1.539-2.232 2.9-2.232s2.552.916 2.9 2.232c-.314 1.35-1.513 2.31-2.9 2.32z"/>
                <path fill="#DA3100" d="M56.1 35c-.785.016-1.544-.282-2.107-.83-.564-.546-.885-1.295-.893-2.08-.003-.202.021-.404.07-.6.348-1.316 1.539-2.232 2.9-2.232s2.552.916 2.9 2.232c.049.196.073.398.07.6-.016 1.612-1.328 2.91-2.94 2.91z"/>
                <path fill="#FE5524" d="M56.1 33.8c-1.387-.01-2.586-.97-2.9-2.32.348-1.316 1.539-2.232 2.9-2.232s2.552.916 2.9 2.232c-.314 1.35-1.513 2.31-2.9 2.32z"/>
                <path fill="#018251" d="M56.1 43.1c-.785.016-1.544-.282-2.107-.83-.564-.546-.885-1.295-.893-2.08-.003-.202.021-.404.07-.6.348-1.316 1.539-2.232 2.9-2.232s2.552.916 2.9 2.232c.049.196.073.398.07.6-.016 1.612-1.328 2.91-2.94 2.91z"/>
                <path fill="#00AA5C" d="M56.1 41.91c-1.387-.01-2.586-.97-2.9-2.32.348-1.316 1.539-2.232 2.9-2.232s2.552.916 2.9 2.232c-.314 1.35-1.513 2.31-2.9 2.32z"/>
                <path fill="#650101" d="M44.68 10.66c-1.626 0-2.957-1.294-3-2.92.003-.199.026-.396.07-.59.342-1.325 1.537-2.251 2.905-2.251 1.368 0 2.563.926 2.905 2.251.04.194.06.392.06.59-.042 1.603-1.337 2.889-2.94 2.92z"/>
                <ellipse cx="44.68" cy="7.15" fill="#723939" rx="2.9" ry="2.32"/>
                <path fill="#FAA04A" d="M44.68 18.77c-1.626 0-2.957-1.294-3-2.92.003-.199.026-.396.07-.59.342-1.325 1.537-2.251 2.905-2.251 1.368 0 2.563.926 2.905 2.251.04.194.06.392.06.59-.042 1.603-1.337 2.889-2.94 2.92z"/>
                <path fill="#FACD8C" d="M44.68 17.58c-1.387-.01-2.586-.97-2.9-2.32.342-1.325 1.537-2.251 2.905-2.251 1.368 0 2.563.926 2.905 2.251-.315 1.354-1.52 2.314-2.91 2.32z"/>
                <path fill="#0D647F" d="M44.68 26.88c-1.626 0-2.957-1.294-3-2.92.003-.199.026-.396.07-.59.342-1.325 1.537-2.251 2.905-2.251 1.368 0 2.563.926 2.905 2.251.04.194.06.392.06.59-.042 1.603-1.337 2.889-2.94 2.92z"/>
                <path fill="#1D80A9" d="M44.68 25.68c-1.384-.009-2.582-.963-2.9-2.31.342-1.325 1.537-2.251 2.905-2.251 1.368 0 2.563.926 2.905 2.251-.32 1.35-1.523 2.306-2.91 2.31z"/>
                <path fill="#EDECCD" d="M44.68 35c-1.626 0-2.957-1.294-3-2.92.004-.202.027-.403.07-.6.342-1.325 1.537-2.251 2.905-2.251 1.368 0 2.563.926 2.905 2.251.04.198.06.399.06.6-.042 1.603-1.337 2.889-2.94 2.92z"/>
                <path fill="#FFF" d="M44.68 33.79c-1.387-.01-2.586-.97-2.9-2.32.342-1.325 1.537-2.251 2.905-2.251 1.368 0 2.563.926 2.905 2.251-.315 1.354-1.52 2.314-2.91 2.32z"/>
                <path fill="#2A222D" d="M44.68 43.1c-1.626 0-2.957-1.294-3-2.92.004-.202.027-.403.07-.6.342-1.325 1.537-2.251 2.905-2.251 1.368 0 2.563.926 2.905 2.251.04.198.06.399.06.6-.042 1.603-1.337 2.889-2.94 2.92z"/>
                <ellipse cx="44.68" cy="39.58" fill="#43364A" rx="2.9" ry="2.32"/>
                <path fill="#C9B4A3" d="M50.4 43.1c-.616 0-1.123-.484-1.15-1.1V6.6c.005-.631.519-1.14 1.15-1.14.302 0 .592.12.806.334.214.214.334.504.334.806V42c-.022.614-.526 1.1-1.14 1.1z"/>
                <path fill="#FE5524" d="M26.18 33.72l2.06.77s-5.47 13.75-9.12 22.07c-1.28 2.9-2.22 4.84-2.43 4.76-.8-.32 9.49-27.6 9.49-27.6z"/>
                <path fill="#DA3100" d="M27.21 34.1l1 .39s-5.47 13.75-9.12 22.07C22 48 27.21 34.1 27.21 34.1z"/>
                <path fill="#FACD8C" d="M26.18 33.72L28.93 27.18 29.71 27.47 27.21 34.1z"/>
                <path fill="#FAA04A" d="M28.24 34.49L30.48 27.77 29.71 27.47 27.21 34.1z"/>
                <path fill="#650101" d="M31.77 22c.72 4.15-1.28 5.78-1.28 5.78l-1.56-.58c-.174-1.894.695-3.733 2.27-4.8l.57-.4z"/>
                <path fill="#723939" d="M31.2 22.4c.4 3.65-1.38 5.11-1.38 5.11l-.89-.33c-.167-1.887.702-3.717 2.27-4.78z"/>
                <path fill="#FFF" d="M29.1 26.65c-.042-.364-.004-.732.11-1.08.034-.143.142-.257.282-.299.141-.042.293-.006.4.095.107.1.152.251.118.394-.067.241-.1.49-.1.74l-.81.15z"/>
                <path fill="#00AA5C" d="M18.86 29.78l1.89 1.12S13 43.51 8 51.07c-1.76 2.65-3 4.4-3.21 4.28-.79-.43 14.07-25.57 14.07-25.57z"/>
                <path fill="#FE5524" d="M26.78 22.25s-1.13 2.38-2.66 2.41c-1.17 0-1.39-.49-1.43-.72-.006-.043-.006-.087 0-.13-.273-1.241-.012-2.54.72-3.58 1 .5 2 1.13 2.66 1.55l.71.47z"/>
                <path fill="#FF8703" d="M26.07 21.78c-.29.54-1.29 2.23-2.58 2.25-.27.013-.54-.017-.8-.09-.006-.043-.006-.087 0-.13-.273-1.241-.012-2.54.72-3.58.97.5 2 1.13 2.66 1.55z"/>
                <path fill="#018251" d="M19.8 30.34l.95.56S13 43.51 8 51.07c4.29-7.98 11.8-20.73 11.8-20.73z"/>
                <path fill="#FACD8C" d="M18.86 29.78L22.69 23.81 23.41 24.24 19.8 30.34z"/>
                <path fill="#FAA04A" d="M20.75 30.9L24.12 24.66 23.41 24.24 19.8 30.34z"/>
                <path fill="#FFF" d="M23 23.32c.026-.35.125-.69.29-1 .042-.101.123-.181.224-.223.102-.041.215-.04.316.003.103.04.185.12.227.222.041.103.039.218-.007.318-.109.224-.183.464-.22.71l-.83-.03zM44.08 6.5c0 .276-.224.5-.5.5-.274-.005-.495-.226-.5-.5 0-.276.224-.5.5-.5s.5.224.5.5zM55.44 6.5c0 .276-.224.5-.5.5s-.5-.224-.5-.5.224-.5.5-.5.5.224.5.5zM44.08 14.55c0 .276-.224.5-.5.5s-.5-.224-.5-.5.224-.5.5-.5c.133-.003.262.049.357.143.094.095.146.224.143.357zM55.44 14.55c.004.203-.115.388-.302.469-.186.08-.403.04-.548-.102-.145-.142-.19-.358-.113-.546.077-.188.26-.311.463-.311.272 0 .495.218.5.49zM44.08 22.61c0 .276-.224.5-.5.5s-.5-.224-.5-.5c.005-.274.226-.495.5-.5.133 0 .26.053.354.146.093.094.146.221.146.354zM55.44 22.61c0 .276-.224.5-.5.5s-.5-.224-.5-.5.224-.5.5-.5.5.224.5.5zM55.44 30.67c0 .276-.224.5-.5.5s-.5-.224-.5-.5.224-.5.5-.5.5.224.5.5zM44.08 38.72c0 .276-.224.5-.5.5s-.5-.224-.5-.5.224-.5.5-.5c.133-.003.262.049.357.143.094.095.146.224.143.357zM55.44 38.72c.004.203-.115.388-.302.469-.186.08-.403.04-.548-.102-.145-.142-.19-.358-.113-.546.077-.188.26-.311.463-.311.272 0 .495.218.5.49z"/>
            </g>
            <g fill-rule="nonzero">
                <path fill="#00AA5C" d="M21.407 15.224c.436-.118.841-.318 1.194-.589.316-.185.467-.545.37-.885-.097-.34-.418-.58-.789-.589-.744-.147-1.55.708-1.984 1.15-.052.052-.094.111-.124.177-.496 1.473-5.318 1.178-5.489-.649-.014-.54.076-1.08.264-1.591.178-.517.178-1.075 0-1.591-.217-.527-.84-.79-1.396-.59-.447.33-.611.9-.403 1.4.206.481.382.973.527 1.473.073.755-.252 1.494-.868 1.975-1.318 1.105-2.822 1.297-4 2.711-.202.236-2.31-1.606-2.667-.987-.356.619 1.644 1.473 2.14 1.65-.956 1.617-1.223 3.521-.744 5.32 2.155 5.186 8.698.339 11.364 3.698.483.548.64 1.292.419 1.975-.093.22-.217.53 0 .663.217.132.372 0 .527-.118 1.473-1.164 1.085-2.166-.17-3.212-1.256-1.047.728-2.284 1.286-3.227.793-1.31.868-2.902.202-4.274-.28-.515-.667-1.002-.9-1.547-.27-.537-.241-1.167.078-1.68.31-.326.714-.557 1.163-.663zM3.914 14.887c0-.217-1.453-.482-1.71-.563-.256-.08-2.77-.651-2.086-.056.46.241 1.051.419 1.71.515.542.115 1.12.188 1.71.217.171 0 .445 0 .462-.097l-.086-.016z" transform="translate(48 28)"/>
                <path fill="#FE5524" d="M33.103 3.285c.26-.091.502-.236.709-.425.162-.137.227-.364.165-.573-.063-.208-.24-.355-.448-.37-.448-.009-.904.499-1.163.807-.013.035-.013.074-.001.11-.27.98-3.15.88-3.293-.327-.014-.354.033-.708.137-1.045.11-.339.116-.706.017-1.048-.066-.166-.192-.297-.35-.365-.16-.067-.337-.065-.495.005-.264.195-.379.547-.283.871.134.312.248.633.342.96.049.497-.131.987-.484 1.322-.759.752-1.657.908-2.344 1.85-.108.17-1.476-1.013-1.602-.593-.127.42 1.014.926 1.31 1.057-.542 1.075-.664 2.33-.341 3.498 1.436 3.374 5.192.095 6.843 2.221.298.35.408.835.292 1.288-.003.157-.126.358-.008.438.118.08.224.004.315-.088.864-.798.606-1.444-.159-2.1-.765-.655.384-1.557.707-2.145.44-.878.458-1.922.047-2.815-.173-.348-.407-.649-.565-.996-.175-.35-.168-.768.018-1.11.167-.204.388-.353.634-.427zM23 3.775c.006-.17-1.116-.36-1.385-.422-.27-.062-2.073-.467-1.505-.012.352.182.803.314 1.303.38.398.081.819.132 1.249.151.125.001.355.003.337-.077v-.02z" transform="translate(48 28)"/>
            </g>
        </g>
    </g>
</svg>
