<svg xmlns="http://www.w3.org/2000/svg" xmlns:xlink="http://www.w3.org/1999/xlink" width="260" height="71" viewBox="0 0 260 71">
    <defs>
        <path id="prefix__a" d="M56 28c.007 13.671-9.866 25.346-23.348 27.61-11.589 1.952-23.163-3.54-28.98-13.75C-2.146 31.65-.968 18.894 6.62 9.92 14.208.949 26.592-2.331 37.627 1.709 48.662 5.748 56 16.25 56 28.001z"/>
    </defs>
    <g fill="none" fill-rule="evenodd">
        <g transform="translate(11 3)">
            <rect width="229" height="55" x="10" y="5" fill="#24AFB6" rx="22"/>
            <text fill="#FFF" font-family="Montserrat-SemiBold, Montserrat" font-size="18" font-weight="500">
                <tspan x="72" y="28">PINTURA </tspan> <tspan x="72" y="50">CREATIVA</tspan>
            </text>
            <g transform="translate(1 4)">
                <use fill="#FF7D05" fill-rule="nonzero" xlink:href="#prefix__a"/>
            </g>
            <path fill="#43364A" fill-rule="nonzero" d="M13.045 63.133L11.304 63.584 21.075 19.232 22.504 19.655zM45.557 63.079L47.144 63.584 37.219 19.232 35.944 19.606z"/>
            <path fill="#2A222D" fill-rule="nonzero" d="M28.328 0.416H30.12V60.895999999999994H28.328z"/>
            <path fill="#723939" fill-rule="nonzero" d="M18.024 35.808H40.424V37.152H18.024z"/>
            <path fill="#C98642" fill-rule="nonzero" d="M43.56 35.36L14.888 35.36 16.931 3.552 41.517 3.552z"/>
            <path fill="#996533" fill-rule="nonzero" d="M40.872 31.776L17.576 31.776 19.236 6.688 39.212 6.688zM40.424 35.808L18.024 35.808 18.609 33.568 39.839 33.568z"/>
            <path fill="#FFF" fill-rule="nonzero" d="M39.08 33.568L19.368 33.568 19.957 8.032 38.491 8.032z"/>
            <circle cx="21.16" cy="8.928" r="1" fill="#FE5524" fill-rule="nonzero"/>
            <circle cx="37.288" cy="8.928" r="1" fill="#FE5524" fill-rule="nonzero"/>
            <path fill="#FE5524" fill-rule="nonzero" d="M26.536 34.016v.896s5.227-.107 8.428-.306c1.12-.07 1.876-.15 1.876-.24 0-.35-10.304-.35-10.304-.35z"/>
            <path fill="#DA3100" fill-rule="nonzero" d="M26.536 34.464v.448s5.28-.107 8.512-.306c-3.233-.142-8.512-.142-8.512-.142z"/>
            <path fill="#FACD8C" fill-rule="nonzero" d="M26.536 34.016L23.848 34.123 23.848 34.464 26.536 34.464z"/>
            <path fill="#FAA04A" fill-rule="nonzero" d="M26.536 34.912L23.848 34.802 23.848 34.464 26.536 34.464z"/>
            <path fill="#650101" fill-rule="nonzero" d="M21.608 34.483c1.384.747 2.24.291 2.24.291v-.584s-.864-.48-2.015.156c-.073.04-.15.088-.225.137z"/>
            <path fill="#723939" fill-rule="nonzero" d="M22.056 34.474c1.113.81 1.792.248 1.792.248v-.465s-.768-.666-1.792.217z"/>
            <g fill-rule="nonzero" transform="rotate(-8 239.75 12.884)">
                <path fill="#648BCC" d="M0 0H16.244V20.854H0z"/>
                <path fill="#98CAFF" d="M3.279 3.136H19.523V23.99H3.279z"/>
                <rect width="10.282" height="20.111" x="17.405" y="1.487" fill="#C9B4A3" rx="2.08"/>
                <rect width="10.282" height="20.111" x="17.405" y=".788" fill="#EAD1BB" rx="2.08"/>
                <path fill="#433648" d="M25.133 4.78c-.729 0-1.325-.58-1.344-1.308 0-.09.01-.18.031-.269.156-.59.69-1 1.3-1 .61 0 1.142.41 1.299 1 .021.088.032.178.03.269-.018.718-.598 1.294-1.316 1.308z"/>
                <path fill="#705A89" d="M25.133 4.243c-.621-.005-1.159-.435-1.3-1.04.157-.59.69-1 1.3-1 .61 0 1.143.41 1.299 1-.14.605-.678 1.035-1.3 1.04z"/>
                <path fill="#648BCC" d="M25.133 8.413c-.729 0-1.325-.58-1.344-1.308-.001-.09.01-.18.031-.269.156-.589.69-1 1.3-1 .61 0 1.142.411 1.299 1 .022.088.032.179.03.27-.018.717-.598 1.293-1.316 1.307z"/>
                <path fill="#98CAFF" d="M25.133 7.876c-.621-.005-1.159-.434-1.3-1.04.157-.589.69-1 1.3-1 .61 0 1.143.411 1.299 1-.14.606-.678 1.035-1.3 1.04z"/>
                <path fill="#FE5524" d="M25.133 12.042c-.352.007-.692-.126-.944-.371-.253-.245-.397-.58-.4-.932-.001-.091.01-.181.031-.27.156-.589.69-1 1.3-1 .61 0 1.142.411 1.299 1 .022.089.032.179.03.27-.006.722-.594 1.303-1.316 1.303z"/>
                <path fill="#FF8703" d="M25.133 11.51c-.621-.005-1.159-.435-1.3-1.04.157-.59.69-1 1.3-1 .61 0 1.143.41 1.299 1-.14.605-.678 1.035-1.3 1.04z"/>
                <path fill="#DA3100" d="M25.133 15.68c-.352.007-.692-.127-.944-.371-.253-.245-.397-.581-.4-.933-.001-.09.01-.18.031-.268.156-.59.69-1 1.3-1 .61 0 1.142.41 1.299 1 .022.087.032.178.03.268-.006.722-.594 1.304-1.316 1.304z"/>
                <path fill="#FE5524" d="M25.133 15.142c-.621-.004-1.159-.434-1.3-1.039.157-.59.69-1 1.3-1 .61 0 1.143.41 1.299 1-.14.605-.678 1.035-1.3 1.04z"/>
                <path fill="#018251" d="M25.133 19.309c-.352.007-.692-.127-.944-.372-.253-.245-.397-.58-.4-.932-.001-.09.01-.18.031-.269.156-.59.69-1 1.3-1 .61 0 1.142.41 1.299 1 .022.088.032.179.03.27-.006.721-.594 1.303-1.316 1.303z"/>
                <path fill="#00AA5C" d="M25.133 18.776c-.621-.005-1.159-.435-1.3-1.04.157-.59.69-1 1.3-1 .61 0 1.143.41 1.299 1-.14.605-.678 1.035-1.3 1.04z"/>
                <path fill="#650101" d="M20.017 4.776c-.729 0-1.325-.58-1.344-1.308.001-.09.011-.178.031-.265.153-.593.688-1.008 1.301-1.008s1.149.415 1.302 1.008c.018.087.027.176.027.265-.02.717-.6 1.294-1.317 1.308z"/>
                <ellipse cx="20.017" cy="3.203" fill="#723939" rx="1.299" ry="1.039"/>
                <path fill="#FAA04A" d="M20.017 8.409c-.729 0-1.325-.58-1.344-1.308.001-.09.011-.178.031-.265.153-.593.688-1.008 1.301-1.008s1.149.415 1.302 1.008c.018.087.027.176.027.265-.02.718-.6 1.294-1.317 1.308z"/>
                <path fill="#FACD8C" d="M20.017 7.876c-.622-.005-1.159-.434-1.3-1.04.153-.593.689-1.008 1.302-1.008.613 0 1.148.415 1.301 1.008-.14.607-.68 1.037-1.303 1.04z"/>
                <path fill="#0D647F" d="M20.017 12.042c-.729 0-1.325-.58-1.344-1.308.001-.089.011-.177.031-.264.153-.594.688-1.009 1.301-1.009s1.149.415 1.302 1.009c.018.087.027.175.027.264-.02.718-.6 1.294-1.317 1.308z"/>
                <path fill="#1D80A9" d="M20.017 11.505c-.62-.004-1.157-.432-1.3-1.035.153-.594.689-1.009 1.302-1.009.613 0 1.148.415 1.301 1.009-.143.605-.682 1.033-1.303 1.035z"/>
                <path fill="#EDECCD" d="M20.017 15.68c-.729 0-1.325-.58-1.344-1.308.001-.09.012-.18.031-.269.153-.594.688-1.008 1.301-1.008s1.149.414 1.302 1.008c.018.089.027.179.027.269-.02.718-.6 1.294-1.317 1.308z"/>
                <path fill="#FFF" d="M20.017 15.138c-.622-.005-1.159-.434-1.3-1.04.153-.593.689-1.008 1.302-1.008.613 0 1.148.415 1.301 1.009-.14.606-.68 1.036-1.303 1.039z"/>
                <path fill="#2A222D" d="M20.017 19.309c-.729 0-1.325-.58-1.344-1.308.001-.09.012-.18.031-.27.153-.593.688-1.008 1.301-1.008s1.149.415 1.302 1.009c.018.088.027.178.027.269-.02.718-.6 1.294-1.317 1.308z"/>
                <ellipse cx="20.017" cy="17.732" fill="#43364A" rx="1.299" ry="1.039"/>
                <path fill="#C9B4A3" d="M22.58 19.309c-.277 0-.504-.217-.516-.493V2.956c.002-.282.232-.51.515-.51.136 0 .266.054.361.15.096.095.15.225.15.36v15.86c-.01.275-.236.493-.51.493z"/>
                <path fill="#FE5524" d="M11.729 15.107l.923.345s-2.451 6.16-4.086 9.887c-.574 1.3-.995 2.168-1.089 2.132-.358-.143 4.252-12.364 4.252-12.364z"/>
                <path fill="#DA3100" d="M12.19 15.277l.448.175s-2.45 6.16-4.086 9.887c1.304-3.835 3.638-10.062 3.638-10.062z"/>
                <path fill="#FACD8C" d="M11.729 15.107L12.961 12.177 13.31 12.307 12.19 15.277z"/>
                <path fill="#FAA04A" d="M12.652 15.452L13.655 12.441 13.31 12.307 12.19 15.277z"/>
                <path fill="#650101" d="M14.233 9.856c.323 1.86-.573 2.59-.573 2.59l-.7-.26c-.077-.849.312-1.673 1.018-2.15l.255-.18z"/>
                <path fill="#723939" d="M13.978 10.035c.179 1.635-.619 2.29-.619 2.29l-.398-.148c-.075-.846.314-1.665 1.017-2.142z"/>
                <path fill="#FFF" d="M13.037 11.94c-.019-.164-.002-.329.05-.485.014-.064.062-.115.126-.134.063-.018.13-.002.179.043.048.045.068.112.052.176-.03.108-.045.22-.044.332l-.363.067z"/>
                <path fill="#00AA5C" d="M8.45 13.341l.846.502s-3.472 5.65-5.712 9.036c-.788 1.188-1.344 1.972-1.438 1.918-.354-.193 6.303-11.456 6.303-11.456z"/>
                <path fill="#FE5524" d="M11.997 9.968s-.506 1.066-1.191 1.08c-.524 0-.623-.22-.64-.323-.004-.02-.004-.039 0-.058-.123-.556-.006-1.138.322-1.604.448.224.896.506 1.191.694l.318.211z"/>
                <path fill="#FF8703" d="M11.68 9.757c-.13.242-.579 1-1.156 1.008-.121.006-.242-.007-.359-.04-.003-.02-.003-.039 0-.058-.122-.556-.005-1.138.323-1.604.434.224.896.506 1.191.694z"/>
                <path fill="#018251" d="M8.87 13.592l.426.251s-3.472 5.65-5.712 9.036c1.922-3.575 5.286-9.287 5.286-9.287z"/>
                <path fill="#FACD8C" d="M8.449 13.341L10.165 10.667 10.488 10.86 8.87 13.592z"/>
                <path fill="#FAA04A" d="M9.296 13.843L10.806 11.048 10.488 10.86 8.87 13.592z"/>
                <path fill="#FFF" d="M10.304 10.447c.012-.156.056-.309.13-.448.019-.045.055-.08.1-.1.046-.018.097-.017.142.002.046.018.083.054.101.1.02.045.018.097-.003.142-.048.1-.081.207-.098.318l-.372-.014zM19.748 2.912c0 .124-.1.224-.224.224-.123-.002-.222-.101-.224-.224 0-.124.1-.224.224-.224s.224.1.224.224zM24.837 2.912c0 .124-.1.224-.224.224s-.224-.1-.224-.224.1-.224.224-.224.224.1.224.224zM19.748 6.518c0 .124-.1.224-.224.224s-.224-.1-.224-.224c0-.123.1-.224.224-.224.06 0 .117.022.16.065.042.042.065.1.064.16zM24.837 6.518c.002.091-.051.174-.135.21-.084.037-.18.019-.246-.045-.065-.064-.085-.16-.05-.245.034-.084.116-.14.207-.14.122 0 .222.098.224.22zM19.748 10.13c0 .123-.1.223-.224.223s-.224-.1-.224-.224c.002-.122.101-.221.224-.224.06 0 .116.024.158.066.042.042.066.099.066.158zM24.837 10.13c0 .123-.1.223-.224.223s-.224-.1-.224-.224c0-.123.1-.224.224-.224s.224.1.224.224zM24.837 13.74c0 .124-.1.224-.224.224s-.224-.1-.224-.224.1-.224.224-.224.224.1.224.224zM19.748 17.347c0 .123-.1.224-.224.224s-.224-.1-.224-.224.1-.224.224-.224c.06-.002.117.022.16.064.042.042.065.1.064.16zM24.837 17.347c.002.09-.051.174-.135.21-.084.036-.18.018-.246-.046-.065-.064-.085-.16-.05-.245.034-.084.116-.139.207-.139.122 0 .222.098.224.22z"/>
            </g>
            <g fill-rule="nonzero">
                <path fill="#00AA5C" d="M9.59 6.82c.195-.053.377-.142.535-.264.142-.082.21-.244.166-.396-.043-.153-.187-.26-.353-.264-.334-.066-.695.317-.89.515-.023.023-.041.05-.055.08-.222.66-2.382.528-2.459-.291-.006-.242.034-.484.118-.713.08-.231.08-.481 0-.713-.097-.236-.376-.354-.625-.264-.2.148-.274.403-.18.627.092.216.17.436.236.66.032.338-.113.67-.39.885-.59.495-1.263.58-1.791 1.215-.09.105-1.035-.72-1.195-.443-.16.278.736.66.958.74-.428.724-.547 1.577-.333 2.383.966 2.323 3.897.151 5.091 1.657.217.245.287.578.188.884-.042.1-.097.238 0 .297.097.06.167 0 .236-.053.66-.521.486-.97-.076-1.439-.563-.468.326-1.023.576-1.445.355-.587.389-1.3.09-1.915-.124-.23-.298-.449-.402-.693-.122-.24-.109-.523.034-.752.139-.147.32-.25.521-.297zM1.754 6.67c0-.098-.652-.217-.767-.253-.114-.036-1.24-.292-.934-.025.206.108.47.188.766.23.243.052.501.085.766.098.077 0 .2 0 .207-.043l-.038-.007z" transform="translate(21.608 12.96)"/>
                <path fill="#FE5524" d="M14.83 1.472c.117-.041.225-.106.318-.19.072-.062.102-.164.074-.257-.028-.094-.108-.16-.201-.167-.2-.003-.405.224-.52.362-.007.016-.007.034-.002.05-.12.439-1.41.394-1.475-.147-.006-.158.015-.317.061-.468.05-.152.053-.316.008-.47-.03-.074-.086-.133-.157-.163-.071-.03-.15-.03-.221.002-.119.088-.17.245-.127.39.06.14.111.284.153.43.022.223-.059.443-.217.593-.34.337-.742.406-1.05.828-.048.077-.661-.453-.718-.265-.056.188.455.415.588.473-.243.482-.298 1.044-.154 1.567.644 1.512 2.326.043 3.066.996.134.156.183.373.13.577 0 .07-.055.16-.002.196.053.036.1.002.14-.04.388-.357.272-.646-.07-.94-.343-.294.172-.698.316-.961.198-.394.205-.861.021-1.262-.077-.155-.182-.29-.253-.446-.078-.156-.075-.344.008-.497.075-.092.174-.158.284-.191zM10.304 1.691c.003-.076-.5-.16-.62-.189-.121-.028-.93-.21-.675-.005.158.081.36.14.584.17.178.036.367.06.56.068.056 0 .159.001.15-.035v-.009z" transform="translate(21.608 12.96)"/>
            </g>
        </g>
    </g>
</svg>
