<svg xmlns="http://www.w3.org/2000/svg" width="260" height="71" viewBox="0 0 260 71">
    <g fill="none" fill-rule="evenodd">
        <g transform="translate(-18 -104) translate(30 102)">
            <rect width="229" height="55" x="9" y="10" fill="#95C11F" rx="22"/>
            <text fill="#FFF" font-family="Montserrat-SemiBold, Montserrat" font-size="18" font-weight="500">
                <tspan x="71" y="33">TECNOLOGÍA </tspan> <tspan x="71" y="55">Y JUEGOS</tspan>
            </text>
            <g transform="translate(0 9)">
                <path fill="#00A2AA" fill-rule="nonzero" d="M55.196 28.021c-.001 7.931-3.417 15.477-9.374 20.712-.347.303-.697.603-1.06.889-.146.12-.304.24-.458.355-1.71 1.303-3.567 2.402-5.531 3.274-2.538 1.13-5.234 1.866-7.994 2.18-.74.09-1.492.146-2.249.167h-1.295c-3.4-.04-6.764-.712-9.918-1.983-1.274-.51-2.507-1.115-3.689-1.813l-.15-.085c-.517-.312-1.021-.633-1.513-.975l-.628-.427c-.201-.137-.406-.3-.607-.458C.497 41.956-2.88 28.01 2.61 16.303 8.098 4.597 20.978-1.73 33.597 1.083c12.619 2.813 21.593 14.01 21.59 26.938h.01z"/>
                <rect width="37.802" height="16.685" x="3.92" y="17.441" fill="#F7F0F2" fill-rule="nonzero" rx="2.32"/>
                <rect width="2.364" height="2.364" x="4.634" y="18.386" fill="#E5D6D9" fill-rule="nonzero" rx="1.16"/>
                <rect width="2.364" height="2.364" x="7.699" y="18.386" fill="#E5D6D9" fill-rule="nonzero" rx="1.16"/>
                <rect width="2.364" height="2.364" x="10.764" y="18.386" fill="#E5D6D9" fill-rule="nonzero" rx="1.16"/>
                <rect width="2.364" height="2.364" x="13.829" y="18.386" fill="#E5D6D9" fill-rule="nonzero" rx="1.16"/>
                <rect width="2.364" height="2.364" x="16.894" y="18.386" fill="#E5D6D9" fill-rule="nonzero" rx="1.16"/>
                <rect width="2.364" height="2.364" x="19.955" y="18.386" fill="#E5D6D9" fill-rule="nonzero" rx="1.16"/>
                <rect width="2.364" height="2.364" x="23.02" y="18.386" fill="#E5D6D9" fill-rule="nonzero" rx="1.16"/>
                <rect width="2.364" height="2.364" x="26.085" y="18.386" fill="#E5D6D9" fill-rule="nonzero" rx="1.16"/>
                <rect width="2.364" height="2.364" x="29.15" y="18.386" fill="#E5D6D9" fill-rule="nonzero" rx="1.16"/>
                <rect width="2.364" height="2.364" x="32.215" y="18.386" fill="#E5D6D9" fill-rule="nonzero" rx="1.16"/>
                <rect width="2.364" height="2.364" x="35.28" y="18.386" fill="#E5D6D9" fill-rule="nonzero" rx="1.16"/>
                <rect width="2.364" height="2.364" x="38.341" y="18.386" fill="#E5D6D9" fill-rule="nonzero" rx="1.16"/>
                <rect width="2.364" height="2.364" x="4.634" y="22.896" fill="#E5D6D9" fill-rule="nonzero" rx="1.16"/>
                <rect width="2.364" height="2.364" x="7.699" y="22.896" fill="#E5D6D9" fill-rule="nonzero" rx="1.16"/>
                <rect width="2.364" height="2.364" x="10.764" y="22.896" fill="#E5D6D9" fill-rule="nonzero" rx="1.16"/>
                <rect width="2.364" height="2.364" x="13.829" y="22.896" fill="#E5D6D9" fill-rule="nonzero" rx="1.16"/>
                <rect width="2.364" height="2.364" x="16.894" y="22.896" fill="#E5D6D9" fill-rule="nonzero" rx="1.16"/>
                <rect width="2.364" height="2.364" x="19.955" y="22.896" fill="#E5D6D9" fill-rule="nonzero" rx="1.16"/>
                <rect width="2.364" height="2.364" x="23.02" y="22.896" fill="#E5D6D9" fill-rule="nonzero" rx="1.16"/>
                <rect width="2.364" height="2.364" x="26.085" y="22.896" fill="#E5D6D9" fill-rule="nonzero" rx="1.16"/>
                <rect width="2.364" height="2.364" x="4.634" y="26.243" fill="#E5D6D9" fill-rule="nonzero" rx="1.16"/>
                <rect width="2.364" height="2.364" x="7.699" y="26.243" fill="#E5D6D9" fill-rule="nonzero" rx="1.16"/>
                <rect width="2.364" height="2.364" x="10.764" y="26.243" fill="#E5D6D9" fill-rule="nonzero" rx="1.16"/>
                <rect width="2.364" height="2.364" x="13.829" y="26.243" fill="#E5D6D9" fill-rule="nonzero" rx="1.16"/>
                <rect width="2.364" height="2.364" x="16.894" y="26.243" fill="#E5D6D9" fill-rule="nonzero" rx="1.16"/>
                <rect width="2.364" height="2.364" x="19.955" y="26.243" fill="#E5D6D9" fill-rule="nonzero" rx="1.16"/>
                <rect width="2.364" height="2.364" x="23.02" y="26.243" fill="#E5D6D9" fill-rule="nonzero" rx="1.16"/>
                <rect width="2.364" height="2.364" x="26.085" y="26.243" fill="#E5D6D9" fill-rule="nonzero" rx="1.16"/>
                <rect width="2.364" height="2.364" x="4.634" y="29.595" fill="#E5D6D9" fill-rule="nonzero" rx="1.16"/>
                <rect width="2.364" height="2.364" x="7.699" y="29.595" fill="#E5D6D9" fill-rule="nonzero" rx="1.16"/>
                <rect width="2.364" height="2.364" x="10.764" y="29.595" fill="#E5D6D9" fill-rule="nonzero" rx="1.16"/>
                <rect width="2.364" height="2.364" x="13.829" y="29.595" fill="#E5D6D9" fill-rule="nonzero" rx="1.16"/>
                <rect width="2.364" height="2.364" x="16.894" y="29.595" fill="#E5D6D9" fill-rule="nonzero" rx="1.16"/>
                <rect width="2.364" height="2.364" x="19.955" y="29.595" fill="#E5D6D9" fill-rule="nonzero" rx="1.16"/>
                <rect width="2.364" height="2.364" x="23.02" y="29.595" fill="#E5D6D9" fill-rule="nonzero" rx="1.16"/>
                <rect width="2.364" height="2.364" x="26.085" y="29.595" fill="#E5D6D9" fill-rule="nonzero" rx="1.16"/>
                <rect width="2.364" height="2.364" x="32.215" y="22.896" fill="#E5D6D9" fill-rule="nonzero" rx="1.16"/>
                <rect width="2.364" height="2.364" x="35.28" y="22.896" fill="#E5D6D9" fill-rule="nonzero" rx="1.16"/>
                <rect width="2.364" height="2.364" x="38.341" y="22.896" fill="#E5D6D9" fill-rule="nonzero" rx="1.16"/>
                <rect width="2.364" height="2.364" x="32.215" y="26.243" fill="#E5D6D9" fill-rule="nonzero" rx="1.16"/>
                <rect width="2.364" height="2.364" x="35.28" y="26.243" fill="#E5D6D9" fill-rule="nonzero" rx="1.16"/>
                <rect width="2.364" height="2.364" x="38.341" y="26.243" fill="#E5D6D9" fill-rule="nonzero" rx="1.16"/>
                <rect width="2.364" height="2.364" x="32.215" y="29.595" fill="#E5D6D9" fill-rule="nonzero" rx="1.16"/>
                <rect width="2.364" height="2.364" x="35.28" y="29.595" fill="#E5D6D9" fill-rule="nonzero" rx="1.16"/>
                <rect width="2.364" height="2.364" x="38.341" y="29.595" fill="#E5D6D9" fill-rule="nonzero" rx="1.16"/>
                <ellipse cx="47.322" cy="26.709" fill="#EDE2E5" fill-rule="nonzero" rx="4.63" ry="6.622"/>
                <path stroke="#CAB9BC" d="M42.693 26.235L51.947 26.235M47.322 26.235s.193-4.622 0-6.148"/>
                <path stroke="#AA9D9F" d="M47.322 20.092c-.325-2.565-3.026-11.692-6.074-8.272s4.672 6.694 8.665-.026"/>
                <path fill="#EAB27F" fill-rule="nonzero" d="M19.28 39.606c.048 2.126-1.129 4.09-3.026 5.05-1.897.96-4.177.745-5.861-.553-1.684-1.298-2.473-3.448-2.027-5.527.035-.172.08-.342.132-.509.274-.913.776-1.741 1.458-2.407.207-.2.43-.382.667-.547.813-.577 1.77-.914 2.766-.974h.124c.447-.018.895.02 1.333.11.678.14 1.323.406 1.903.783l.034.026c.812.532 1.47 1.27 1.906 2.137.283.556.468 1.156.548 1.774.027.211.041.424.042.637z"/>
                <path fill="#EAB27F" fill-rule="nonzero" d="M21.896 29.817c-.967 2.932-2.027 7.297-2.437 9.037-.107.427-.171.714-.18.752l-.286-.517-.611-1.09-1.612-2.924c.418-1.797.972-3.559 1.659-5.271.585-1.654 1.765-1.637 2.565-1.176.61.304 1.013.868.902 1.189zM16.565 36.11s.82-4.942 1.659-8.781c.183-.855-2.736-2.59-3.42.316-.558 2.285-1 4.596-1.326 6.925l3.087 1.54zM13.367 36.485s0-4.74.201-8.455c.043-.817-2.95-1.996-3.159.825 0 0-.577 5.489-.427 7.853l3.385-.223z"/>
                <path fill="#EAB27F" fill-rule="nonzero" d="M11.35 36.96s-1.48-3.69-2.488-6.639c-.223-.645-2.924-.628-2.202 1.633 0 0 1.137 4.677 1.992 6.468l2.698-1.462zM22.315 41.068c-1.527 1.006-3.127 1.895-4.788 2.659l-.073.034-2.45-.76-2.492-.774s2.45-1.12 5.1-2.441c.458-.227.924-.458 1.381-.697l.24-.12.226-.115c.752-.398 1.479-.787 2.137-1.159.74-.431 3.28 1.83.719 3.373z"/>
                <path fill="#FF6F0F" fill-rule="nonzero" d="M18.18 44.95l-.854 8.677c-1.274-.508-2.508-1.114-3.69-1.812l-.149-.086c-.517-.312-1.022-.632-1.513-.974-.214-.146-.428-.29-.629-.428-.2-.136-.406-.299-.607-.457-1.811-1.4-3.442-3.02-4.856-4.822l.91-2.445c.667-.181 1.345-.311 2.031-.39 1.242-.16 2.499-.16 3.74 0 1.24.156 2.44.54 3.54 1.13.777.424 1.48.97 2.086 1.615l-.008-.008z"/>
                <path fill="#EAB27F" fill-rule="nonzero" d="M35.276 42.18c.521 1.378 1.569 2.493 2.913 3.1 1.343.605 2.873.653 4.251.131 2.871-1.086 4.318-4.293 3.232-7.164-1.086-2.871-4.294-4.318-7.165-3.232-1.378.521-2.493 1.57-3.1 2.913-.605 1.344-.653 2.873-.131 4.252z"/>
                <path fill="#EAB27F" fill-rule="nonzero" d="M34.976 41.008s-2.32-5.762-4.12-9.259c-.394-.77 1.979-3.206 3.42-.577.951 1.588 1.779 3.247 2.475 4.963l-1.775 4.873zM37.105 37.122s-1.581-4.749-2.992-8.412c-.316-.804 2.296-2.993 3.445-.223 0 0 1.753 4.211 2.394 6.63l-2.847 2.005zM40.324 36.994s-.752-4.702-1.526-8.319c-.17-.799 2.6-2.436 3.249.317 0 0 1.432 5.33 1.659 7.694l-3.382.308z"/>
                <path fill="#EAB27F" fill-rule="nonzero" d="M42.393 37.148s.88-3.877 1.415-6.946c.116-.676 2.787-1.082 2.428 1.26 0 0-.389 4.801-.953 6.703l-2.89-1.017zM42.064 42.526S36.08 40.87 32.4 39.478c-.808-.304-2.963 2.33-.188 3.45 1.685.765 3.428 1.4 5.21 1.898l4.643-2.3z"/>
                <path fill="#FF6F0F" fill-rule="nonzero" d="M49.425 44.885c-1.075 1.395-2.282 2.683-3.603 3.848l-.218.188c-.274.24-.556.474-.855.701-.146.12-.304.24-.458.355-1.71 1.303-3.566 2.402-5.531 3.274l-1.877-7.147c.503-.734 1.118-1.384 1.821-1.928.981-.745 2.09-1.305 3.27-1.654h.039c1.212-.358 2.465-.558 3.727-.595.69-.032 1.38-.01 2.065.064l1.62 2.894z"/>
                <path fill="#FF871E" fill-rule="nonzero" d="M12.555 42.205l-1.218 8.122c-.205-.15-.406-.299-.607-.457-1.812-1.4-3.443-3.02-4.856-4.822l.91-2.445c.666-.181 1.345-.311 2.03-.39 1.242-.163 2.5-.166 3.741-.008zM49.425 44.885c-1.075 1.395-2.282 2.683-3.603 3.848l-.218.188-3.617-6.412h.039c1.208-.353 2.456-.548 3.714-.582.69-.032 1.38-.01 2.065.064l1.62 2.894z"/>
            </g>
            <g fill-rule="nonzero" transform="rotate(-27 33.173 5.698)">
                <path fill="#FFD33F" d="M14.698 1.63L12.53.656C8.975-.942 4.797.646 3.2 4.201c-.114.253-.213.512-.296.777L2.396 6.6.061 19.65c-.328 1.594.699 3.153 2.293 3.48.172.036.346.056.52.06 1.154.061 2.273-.402 3.047-1.26l3.975-3.416c.743-.638 1.664-1.033 2.639-1.13l.347-.035c2.606-.26 5.23-.26 7.836 0l.347.035c.975.097 1.896.492 2.639 1.13l3.976 3.416c.773.858 1.892 1.321 3.046 1.26 1.628-.04 2.914-1.393 2.873-3.02-.005-.175-.024-.35-.06-.52L31.206 6.601l-.51-1.624C29.529 1.26 25.567-.808 21.849.36c-.266.084-.526.183-.78.296l-2.167.974c-1.337.6-2.866.6-4.203 0z"/>
                <g fill="#FFAC3E">
                    <path d="M5.799 17.041c-1.863 0-3.72-.214-5.533-.637L.06 17.551c-.328 1.595.699 3.154 2.293 3.481.172.036.346.055.521.06 1.153.06 2.273-.402 3.046-1.26l3.569-3.069c-1.222.186-2.456.279-3.691.278zM33.54 17.548L31.205 4.502l-.51-1.624c-.334-1.066-.919-2.036-1.705-2.83-2.143 6.758-7.12 12.248-13.636 15.04 1.789-.068 3.58-.015 5.362.16l.347.035c.975.097 1.896.491 2.639 1.13l3.975 3.416c.774.858 1.893 1.32 3.047 1.26 1.627-.04 2.914-1.392 2.874-3.02-.004-.175-.024-.35-.06-.52z" transform="translate(0 2.1)"/>
                </g>
                <path fill="#383856" d="M8.404 4.086h1.737c.16 0 .29.13.29.29v1.158c0 .16.13.29.29.29h1.157c.16 0 .29.13.29.289V7.85c0 .16-.13.29-.29.29H10.72c-.16 0-.29.13-.29.29v1.157c0 .16-.129.29-.289.29H8.404c-.16 0-.29-.13-.29-.29V8.43c0-.16-.129-.29-.289-.29H6.667c-.16 0-.29-.129-.29-.289V6.113c0-.16.13-.29.29-.29h1.158c.16 0 .29-.13.29-.289V4.376c0-.16.13-.29.29-.29z"/>
                <path fill="#202033" d="M11.878 5.823h-.495C10.881 7.16 9.52 7.885 8.065 8.277c.031.044.049.098.05.152v1.158c0 .16.13.29.29.29h1.736c.16 0 .29-.13.29-.29V8.43c0-.16.13-.29.29-.29h1.158c.16 0 .29-.13.29-.289V6.113c-.001-.16-.13-.29-.29-.29z"/>
                <circle cx="22.009" cy="6.981" r="1.158" fill="#EA3836"/>
                <path fill="#D62327" d="M22.486 5.928c.265.579.01 1.263-.569 1.528-.305.14-.655.14-.96 0 .26.585.945.848 1.53.588.584-.26.847-.944.587-1.529-.116-.261-.325-.47-.588-.587z"/>
                <circle cx="26.641" cy="6.981" r="1.158" fill="#EA3836"/>
                <path fill="#D62327" d="M27.118 5.928c.266.579.01 1.263-.569 1.528-.304.14-.655.14-.96 0 .26.585.945.848 1.53.588.584-.26.847-.944.587-1.529-.116-.261-.325-.47-.588-.587z"/>
                <circle cx="24.325" cy="4.665" r="1.158" fill="#00A2AA"/>
                <path fill="#13868B" d="M24.802 3.612c.266.579.01 1.263-.569 1.528-.304.14-.655.14-.96 0 .26.584.945.848 1.53.588.584-.26.847-.944.587-1.529-.116-.261-.325-.471-.588-.587z"/>
                <circle cx="24.325" cy="9.297" r="1.158" fill="#00A2AA"/>
                <path fill="#13868B" d="M24.802 8.244c.266.579.01 1.263-.569 1.528-.304.14-.655.14-.96 0 .26.585.945.848 1.53.588.584-.26.847-.944.587-1.528-.116-.262-.325-.472-.588-.588z"/>
            </g>
        </g>
    </g>
</svg>
