<svg xmlns="http://www.w3.org/2000/svg" xmlns:xlink="http://www.w3.org/1999/xlink" width="255" height="234" viewBox="0 0 255 234">
    <defs>
        <linearGradient id="prefix__c" x1="49.563%" x2="51.13%" y1="6.293%" y2="81.491%">
            <stop offset=".559%" stop-color="#161F36"/>
            <stop offset="99.44%" stop-color="#8D929E"/>
        </linearGradient>
        <linearGradient id="prefix__d" x1="53.654%" x2="69.18%" y1="50.699%" y2="74.467%">
            <stop offset=".559%" stop-color="#161F36"/>
            <stop offset="98.88%" stop-color="#797D87"/>
        </linearGradient>
        <linearGradient id="prefix__e" x1="46.734%" x2="51.947%" y1="47.533%" y2="57.991%">
            <stop offset="0%" stop-color="#3F2721"/>
            <stop offset="100%" stop-color="#827572"/>
        </linearGradient>
        <linearGradient id="prefix__f" x1="15.453%" x2="76.546%" y1="50.533%" y2="49.804%">
            <stop offset="0%" stop-color="#3F2721"/>
            <stop offset="100%" stop-color="#797D87"/>
        </linearGradient>
        <linearGradient id="prefix__g" x1="15.557%" x2="76.65%" y1="50.465%" y2="49.736%">
            <stop offset="0%" stop-color="#3F2721"/>
            <stop offset="100%" stop-color="#797D87"/>
        </linearGradient>
        <linearGradient id="prefix__h" x1="51.829%" x2="50.532%" y1="43.753%" y2="64.87%">
            <stop offset="0%" stop-color="#FFB233"/>
            <stop offset="99.44%" stop-color="#FFC475"/>
        </linearGradient>
        <linearGradient id="prefix__i" x1="51.661%" x2="50.474%" y1="44.288%" y2="63.399%">
            <stop offset="0%" stop-color="#FFB233"/>
            <stop offset="99.44%" stop-color="#FFC475"/>
        </linearGradient>
        <rect id="prefix__a" width="255" height="234" x="0" y="0" rx="8"/>
    </defs>
    <g fill="none" fill-rule="evenodd">
        <mask id="prefix__b" fill="#fff">
            <use xlink:href="#prefix__a"/>
        </mask>
        <rect width="254" height="233" x=".5" y=".5" stroke="#CCC" rx="8"/>
        <text fill="#000" font-family="Montserrat-Medium, Montserrat" font-size="18" font-weight="400" mask="url(#prefix__b)">
            <tspan x="47.54" y="201">Y la escuela sigue</tspan>
        </text>
        <g transform="translate(9 37)">
            <circle cx="118.5" cy="62.5" r="62.5" fill="#6E79E0"/>
            <g transform="translate(0 7)">
                <path fill="#006663" d="M28.678 41.39s-3.075.15-4.335 1.008c0 0-1.058 1.41-1.109 2.167l3.024 1.159 1.664-1.764.705-1.109V41.39h.05z"/>
                <g fill="#FF514F">
                    <path d="M3.657 1.659H20.037V23.785H3.657z" transform="translate(0 13.922) rotate(-167.109 11.847 12.722)"/>
                    <path d="M1.462 21.672L17.388 25.351 16.027 26.309 0.101 22.63z" transform="translate(0 13.922)"/>
                    <path d="M1.462 21.672L0.101 22.63 4.99 1.058 6.401 0.101z" transform="translate(0 13.922)"/>
                </g>
                <path fill="#E0A277" fill-rule="nonzero" d="M32.609 53.284h-.252c-.655-.1-1.21-.403-1.563-.958L19.051 36.098c-.756-1.008-.504-2.47.504-3.176 1.008-.705 2.47-.504 3.175.504L32.962 47.69l13.86-11.794c.957-.806 2.419-.706 3.225.252.807.958.706 2.42-.252 3.226L34.121 52.73c-.454.352-.958.554-1.512.554z"/>
                <path fill="#00938F" d="M47.88 34.989S34.07 47.034 33.214 46.833c-1.059-.202-4.536-5.494-4.536-5.494s-2.57 4.385-5.393 3.226c0 0 5.897 9.122 9.122 9.576 3.276.453 16.078-11.995 16.078-11.995l-.605-7.157z"/>
                <path fill="#E0A277" d="M19.757 29.546s.907 0 1.31-.656c.454-.705.303-1.41.403-1.663.152-.554-.957-1.058-.957-1.058s-3.73-.857-4.587 0c-.403.403-.403 2.671.555 2.62l3.276.757z"/>
                <path fill="#E0A277" d="M22.378 33.023L21.42 27.681 19.858 28.336 18.043 36.299 19.706 35.594z"/>
                <path fill="#FFF" d="M5.947 14.375L1.109 35.594 16.582 39.525 16.027 39.878 0.454 36.299 5.242 14.829z"/>
                <path fill="#006663" d="M80.993 57.568s-4.335.202-4.637-4.486l2.318-.907 1.865.907.454 1.916v2.57z"/>
                <path fill="#E0A277" fill-rule="nonzero" d="M70.106 65.28c-.705 0-1.36-.303-1.814-.908-.756-1.008-.605-2.42.403-3.226l13.86-10.684-16.128-11.744c-1.008-.756-1.26-2.167-.504-3.175s2.167-1.26 3.175-.504l18.598 13.558c.605.403.907 1.109.958 1.814 0 .706-.303 1.411-.908 1.865l-16.279 12.55c-.353.302-.857.453-1.36.453z"/>
                <path fill="#009B9B" d="M66.024 33.326s23.789 12.75 23.134 16.581c-.504 2.923-8.165 7.61-8.165 7.61s-1.008-3.78-4.637-4.485l4.687-3.175-17.136-10.03-.201-4.838 2.318-1.663z"/>
                <g fill="#0D1423">
                    <path d="M16.834 1.26L9.677 51.912S1.36 54.936.353 58.061c-.252.705 0 3.024 0 3.024l2.62.756 11.391-5.242L28.073 6.2 16.833 1.26zM41.227 4.94l.202 49.694s10.483 2.923 11.743 5.745c.252.555-.907 2.167-.907 2.167l-2.319.807-14.212-4.234-5.192-52.113 10.685-2.067z" transform="translate(31.248 67.85)"/>
                    <path d="M41.782 1.613c-4.688-4.234-14.314 3.629-24.948-.353l-.202 4.082s3.931 3.075 9.022 3.932c5.997 1.008 13.406-.404 15.674-3.075 0 0 1.36-3.73.454-4.586z" transform="translate(31.248 67.85)"/>
                </g>
                <path fill="#009B9B" d="M73.433 70.722s-7.207 2.974-13.608 3.276c-6.401.303-11.995-3.074-11.995-3.074s-.555-4.99-.504-8.72c.05-3.729.554-8.114.252-10.23-.252-1.916-1.462-4.738-2.218-8.115-.907-3.981.252-7.056.252-7.056 1.411-.957 3.074-2.873 4.385-3.528 9.777-4.939 16.38-.554 18.547 1.613 2.42 2.52 4.889 35.834 4.889 35.834z"/>
                <path fill="#E0A277" d="M60.228 33.023s-1.16 1.109-2.47 2.067c-.453.302-.806-.958-1.31-.706-.1.05-.252.151-.403.302-.504.555-1.663 1.563-1.815 1.714-.05.05-.05 0-.1-.05-.05-.101-.152-.303-.202-.555l.05-.504c-.15-.554 0-.554-.15-.857 0 0-.051-.15.05-.201-.101-.101-.152-.151-.202-.151-.202-.05-.353.1-.454 0-.05-.05-.1-.101-.15-.252-.253-.857-.354-1.714-.303-1.916v-.403c0-.05-.151-.403-.151-.453 0-.303.1-.404.1-.756v-.454-.202c0-.15 0-.302-.05-.453l-.202-3.024.05-.05 2.067-.807 5.645-2.218V33.023z"/>
                <path fill="#E0A277" d="M65.47 16.19c-.05 4.485-2.168 5.19-4.133 5.14h-.303v.252c0 .202-.05.404-.05.656-.1.907-.403 1.764-.806 2.52-1.412 2.772-4.335 4.586-7.56 4.485h-.252c-4.536-.302-7.913-4.183-7.661-8.669l.05-1.108.101-1.31v-.051l.1-1.865v-.05l.051-1.059.202-3.175c.05-.504.1-1.008.252-1.512.201-.756.453-1.411.857-2.066 1.512-2.621 4.384-4.284 7.61-4.083 4.536.303 7.963 4.183 7.66 8.72l-.05.705c.656-.454 2.117-.958 3.075-.151.504.403.857 1.21.857 2.62z"/>
                <path fill="#007774" d="M61.891 31.914c.05-.554-.453-1.41-.756-1.764-.403-.453-.857-.302-.857-.302-2.268 4.133-5.19 3.68-4.536 4.334 1.31 1.361 1.31 3.276 1.31 3.276 1.06-.201 4.688-4.334 4.84-5.544z"/>
                <path fill="#007774" d="M54.18 36.198l-.403-2.368-.756-.252 1.109 3.477 2.066-2.52s.05-.705-.302-.705c-.454.05-1.714 2.368-1.714 2.368z"/>
                <path fill="#007774" d="M52.214 37.358c-1.461-1.11-1.764-4.385-1.764-4.99-.05-.554.857-1.562 1.31-2.066.454-.504.908-.404.908-.404s0 .454.05 1.462 1.059 2.42 1.059 2.42l-1.563 3.578zM53.676 35.493c-.202 2.268.403 11.541 1.26 22.176.353 4.435 1.865 16.38 1.865 16.38l.806-.05s-1.613-10.736-2.318-17.842l-.303-3.175c-.05-.807-.15-1.563-.201-2.319-.555-7.409-.504-14.061-.504-14.061l-.605-1.11z"/>
                <path fill="#161F36" d="M49.745 49.151c.201-.353.252-.353 0-.1v.1z"/>
                <path fill="#161F36" fill-rule="nonzero" d="M50.198 20.625c-.1 0-1.814-.555-1.663-1.411.252-1.462 2.016-4.587 2.117-4.738.05-.05.1-.05.151-.05.05.05.05.1.05.15 0 .051-1.864 3.226-2.116 4.638-.101.604 1.058 1.058 1.461 1.21.05 0 .101.05.05.1.051.05 0 .1-.05.1z"/>
                <path fill="url(#prefix__c)" d="M45.26 7.017c-4.335-1.966-.202 10.382-.253 9.122-.151-3.024 3.024-7.913.252-9.122z"/>
                <path fill="url(#prefix__d)" d="M49.745 2.682C37.649-4.222 40.32 19.214 57.607 8.68c0 0 1.512 1.764 2.47 2.923.353 1.008-.101 3.68-.303 5.393-.1.756 1.664.605 1.916.554.252-.05 2.268-2.923 2.268-2.923 2.872-3.175 1.864-11.138-2.016-7.409h-.05C64.511 2.33 55.44-.19 50.701.011c-2.52 0-3.477.958-.957 2.671z"/>
                <path fill="#161F36" d="M49.04 15.534c0-.504-.253-.856-.555-.856-.303 0-.605.352-.605.806 0 .504.252.857.554.857.303 0 .605-.353.605-.807zM56.347 15.484c0-.504-.252-.857-.554-.857-.303 0-.605.353-.605.807 0 .504.252.856.554.856.353 0 .605-.352.605-.806z"/>
                <path fill="#161F36" fill-rule="nonzero" d="M56.851 13.569c-.05 0-.1 0-.151-.05-1.058-1.21-2.62-.152-2.722-.101-.1.05-.201.05-.252-.05-.05-.102-.05-.202.05-.253 0 0 1.866-1.26 3.176.202.05.05.05.201 0 .252h-.1zM48.787 13.871c-.05 0-.1 0-.151-.05-1.058-1.21-2.62-.151-2.722-.101-.1.05-.201.05-.252-.05-.05-.101-.05-.202.05-.252 0 0 1.866-1.26 3.176.201.05.05.05.202 0 .252h-.1z"/>
                <path fill="#161F36" d="M61.589 17.5l-.504 3.83-.101.908c-.05 1.008-.403 1.814-.907 2.67-2.57 4.335-7.46 4.486-7.46 4.335h-.251c-4.536-.302-7.913-4.183-7.661-8.669l.05-1.108c0 .856 0 1.713.555 1.814.705.1.856-1.26 2.016-1.411.856-.101 1.965.907 2.822.957 2.268.101 3.226-1.36 4.536-1.31.907.05 2.722 1.512 3.478 1.31 1.008-.302 1.612-3.679 1.612-3.679l1.815.353z" opacity=".14"/>
                <g>
                    <path fill="#DB3945" d="M.252 2.772c.1-.958 2.369-.504 3.629-.756C5.846 1.663 8.518-.655 9.173.958c.605 1.461-2.268 3.78-4.486 4.032C2.42 5.342.05 4.385.252 2.772z" transform="translate(47.376 20.978)"/>
                    <path fill="#FF514F" d="M6.2 2.772c1.36-.454 2.469-.605 2.822-.655-.555 1.36-2.672 2.772-4.436 2.973-.504.05-1.058.05-1.562 0 .302-1.108 1.714-1.864 3.175-2.318z" transform="translate(47.376 20.978)"/>
                </g>
                <path fill="#9297A0" d="M59.976 15.182L62.899 15.988 63.806 14.728 60.127 14.123z" opacity=".6"/>
                <path fill="#9297A0" d="M60.228 12.914L64.21 14.022 64.966 12.762 60.127 11.754z" opacity=".85"/>
                <g>
                    <g>
                        <path fill="#CC2E2E" d="M21.773 26.914s2.973.15 4.183 1.008c0 0 1.008 1.36 1.058 2.116l-2.923 1.11-1.613-1.714-.705-1.11v-1.41z" transform="translate(149.184 1.826) translate(34.776 9.072)"/>
                        <g fill="#009B9B">
                            <path d="M2.418 1.869H18.294V23.339H2.418z" transform="translate(149.184 1.826) translate(34.776 9.072) translate(27.72) rotate(-12.891 10.357 12.604)"/>
                            <path d="M20.513 21.319L4.99 24.847 6.35 25.754 21.823 22.226z" transform="translate(149.184 1.826) translate(34.776 9.072) translate(27.72)"/>
                            <path d="M20.513 21.319L21.823 22.226 17.035 1.31 15.674 0.403z" transform="translate(149.184 1.826) translate(34.776 9.072) translate(27.72)"/>
                        </g>
                        <path fill="#E0A277" fill-rule="nonzero" d="M17.942 38.455c-.504 0-1.058-.201-1.461-.504L1.159 24.948C.202 24.142.101 22.73.907 21.823c.807-.907 2.218-1.058 3.125-.252l13.457 11.441 9.929-13.81c.705-1.008 2.116-1.21 3.074-.504 1.008.706 1.21 2.117.504 3.075l-11.34 15.775c-.353.504-.907.857-1.512.907h-.202z" transform="translate(149.184 1.826) translate(34.776 9.072)"/>
                        <path fill="#F74B4B" d="M3.125 20.714S16.53 32.407 17.388 32.206c1.058-.202 4.385-5.343 4.385-5.343s2.52 4.234 5.241 3.125c0 0-5.695 8.87-8.87 9.274-3.175.403-15.624-11.643-15.624-11.643l.605-6.905z" transform="translate(149.184 1.826) translate(34.776 9.072)"/>
                        <path fill="#E0A277" d="M30.442 15.422s-.857 0-1.26-.655c-.454-.655-.303-1.36-.353-1.613-.101-.554.907-1.008.907-1.008s3.629-.856 4.435 0c.403.404.403 2.621-.554 2.57l-3.175.706z" transform="translate(149.184 1.826) translate(34.776 9.072)"/>
                        <path fill="#E0A277" d="M27.922 18.799L28.829 13.608 30.29 14.263 32.054 21.974 30.492 21.319z" transform="translate(149.184 1.826) translate(34.776 9.072)"/>
                        <path fill="#FFF" d="M43.848 0.706L48.535 21.319 33.516 25.099 34.07 25.452 49.14 21.974 44.503 1.159z" transform="translate(149.184 1.826) translate(34.776 9.072)"/>
                    </g>
                    <path fill="#CC2E2E" d="M8.568 53.122s4.183.201 4.536-4.335l-2.268-.857-1.814.857-.454 1.865v2.47z" transform="translate(149.184 1.826)"/>
                    <path fill="#E0A277" fill-rule="nonzero" d="M19.102 60.58c-.454 0-.958-.15-1.361-.453L1.915 47.93c-.554-.403-.857-1.108-.857-1.764 0-.705.353-1.36.908-1.764l18.093-13.154c1.008-.706 2.369-.504 3.125.504.706 1.008.504 2.369-.504 3.125L7.056 46.267 20.513 56.65c.957.756 1.159 2.167.403 3.124-.504.504-1.16.807-1.814.807z" transform="translate(149.184 1.826)"/>
                    <path fill="#FF514F" d="M23.083 29.585S0 41.983.655 45.713c.504 2.873 7.913 7.409 7.913 7.409s.958-3.68 4.536-4.335l-4.586-3.074 16.632-9.727.201-4.738-2.268-1.663zM27.065 28.627c.403-.05.806-.05 1.26-.05h1.008c2.268.05 4.536.353 6.35.655-.353.706-1.814 3.578-2.923 3.73-1.663.302-5.242-3.83-5.695-4.335z" transform="translate(149.184 1.826)"/>
                    <path fill="#FF514F" d="M39.211 38.506c-.05.302-.1.554-.201.856-1.26 3.982-3.327 9.274-3.327 9.274.504 11.138.101 19.152.101 19.152s-.05 0-.1.05c-1.06.454-8.266 3.478-10.938 3.579-3.276.1-12.247-3.075-13.608-3.579-.1-.05-.15-.05-.15-.05.503-4.334 1.511-9.022 2.771-13.608 1.411-5.14 3.024-10.08 4.536-14.112.958-2.62 1.815-4.838 2.47-6.502.806-2.066 1.36-3.276 1.36-3.276.101-.05.202-.15.353-.252 0 0 .05 0 .05-.05.202-.1.404-.252.706-.353.656-.302 1.462-.605 2.117-.756.403-.05.807-.1 1.26-.151.403.756 3.276 6.048 6.603 5.342.201-.05.352-.05.504-.1.604-.656 2.923-3.125 3.024-4.486.15.05.352.05.504.1.302.051.604.152.856.253.05 0 .101.05.152.1.352.454.806 2.017 1.058 3.881.05 1.512.151 3.276-.1 4.688z" transform="translate(149.184 1.826)"/>
                    <path fill="#00A2AA" d="M37.044 29.534c-.202-.05-.353-.05-.504-.1-.252-.05-.554-.101-.806-.152-1.865-.302-4.133-.604-6.35-.655h-.555 1.008c1.21.05 2.369.151 3.528.252.857.101 1.663.202 2.419.353.252.05.554.1.806.151.152 0 .303.05.454.101-.05-.05 0 0 0 .05z" transform="translate(149.184 1.826)"/>
                    <g>
                        <path fill="#3F2721" d="M8.971 13.76c.202.302.303.554.303.654.05.202-.656 2.924-.756 3.579-.152.756-.101 3.074-.101 3.074-1.008.202-1.966-.1-3.175-.504-.353-.1-1.008 2.218-1.412 2.067-1.764-.706-3.175-1.613-3.175-1.613C-.907 14.314 2.621 7.056 2.923 6.45v-.05c.151-.353.303-.605.454-.857 1.26-1.411 4.788-1.966 7.711 0-1.714 2.722-2.117 6.149-2.117 8.215z" transform="translate(149.184 1.826) translate(11.592)"/>
                        <path fill="#DB3945" d="M11.491 7.258l-1.21 6.854v.05l-.705 2.47-1.26-1.512s-.958-.806-.857-4.133c.05-1.613 1.966-5.695 3.579-5.544.604.403-.05 1.21.453 1.815z" transform="translate(149.184 1.826) translate(11.592)"/>
                        <path fill="#3F2721" d="M32.206 11.491s1.058-.403 1.108-1.764c.05-.605-.453-1.663-.756-2.47C31.298 3.78 24.192-.856 18.144.505c-4.334.958-12.146 8.215-9.778 13.76 4.083 9.474 7.964 7.61 7.964 7.61l12.6-7.812 3.276-2.57z" transform="translate(149.184 1.826) translate(11.592)"/>
                        <g>
                            <path fill="#E0A277" d="M13.709 23.789h-1.663c-4.688-.403-6.754-3.982-7.41-7.812-.352-1.915-.352-3.83-.302-5.191l.05-.908.051-.504.101-1.915C4.838 3.276 8.87.05 13.558.302c4.384.202 7.862 3.377 8.064 7.208v.756l-.202 3.326c-.202 3.931.1 11.894-7.711 12.197z" transform="translate(149.184 1.826) translate(11.592) translate(10.584 4.032)"/>
                            <path fill="#E0A277" d="M5.242 15.826c-.101 0-.353.05-.605.1-.303.05-.706.101-.857.101-2.47-.302-3.88-2.721-3.73-4.183.202-1.613.857-2.218 1.613-2.57 1.008-.404 1.764-.252 2.621.05.05 0 .05 0 .1.05.706.152 1.11.504 1.362.958.352.706.302 1.663.201 2.671-.05 1.411.907 2.722-.705 2.823z" transform="translate(149.184 1.826) translate(11.592) translate(10.584 4.032)"/>
                            <path fill="#2B3B5E" d="M3.578 15.22c0-.15.152-.251.303-.251s.252.151.252.302-.151.252-.303.252c-.15-.05-.252-.151-.252-.302z" transform="translate(149.184 1.826) translate(11.592) translate(10.584 4.032)"/>
                            <path fill="#161F36" fill-rule="nonzero" d="M15.926 15.826c-.05 0-.05-.05-.05-.101.05-.454 0-.756-.252-.958-.655-.554-2.167-.1-2.167-.1-.05 0-.05 0-.101-.051 0-.05 0-.05.05-.1.05 0 1.613-.505 2.319.1.252.252.353.605.302 1.109 0 .05-.05.1-.1.1z" transform="translate(149.184 1.826) translate(11.592) translate(10.584 4.032)"/>
                            <g>
                                <path fill="#DB3945" d="M7.51 2.268c-.101-.756-1.865-.403-2.823-.554C3.125 1.41 1.058-.353.554.907.05 2.067 2.318 3.881 4.082 4.082c1.764.202 3.579-.554 3.428-1.814z" transform="translate(149.184 1.826) translate(11.592) translate(10.584 4.032) translate(9.072 17.136)"/>
                                <path fill="#FF514F" d="M2.822 2.268C1.764 1.915.907 1.764.605 1.764c.453 1.058 2.066 2.167 3.477 2.318.404.05.807.05 1.21 0-.202-.856-1.31-1.461-2.47-1.814z" transform="translate(149.184 1.826) translate(11.592) translate(10.584 4.032) translate(9.072 17.136)"/>
                            </g>
                            <path fill="#161F36" d="M10.584 7.207c-.504 0-1.109.252-1.613.555-.453.252-.857.604-.806.604.1.05.353-.201.857-.453.655-.353 1.461-.555 2.066-.454.252.05.504.151.756.303.05.05.151.05.202 0 .05-.05.05-.101 0-.152-.252-.201-.555-.302-.908-.352-.201-.05-.403-.05-.554-.05zM18.547 7.963c.454.101.907.403 1.31.807.353.352.656.705.605.705-.1 0-.252-.252-.655-.554-.504-.454-1.159-.807-1.713-.756-.252 0-.504.05-.706.201-.05.05-.151.05-.202-.05-.05-.05-.05-.1.05-.151.253-.151.555-.202.858-.202.15-.05.302-.05.453 0z" transform="translate(149.184 1.826) translate(11.592) translate(10.584 4.032)"/>
                            <g fill="#161F36">
                                <path fill-rule="nonzero" d="M10.231 2.369c-.453-.303-1.109-.151-1.109-.151-.05 0-.05 0-.05-.05 0-.051 0-.051.05-.051s.706-.151 1.16.151c0 0 0 .05-.05.1.05 0 0 0 0 0zM2.117 1.764s-.05 0 0 0c-.504-.202-1.109-.05-1.109-.05-.05 0-.05 0-.05-.05 0-.051 0-.051.05-.051s.655-.151 1.16.05c.05 0 .05.05.05.05-.05.051-.101.051-.101.051z" transform="translate(149.184 1.826) translate(11.592) translate(10.584 4.032) translate(8.568 10.584)"/>
                                <path d="M8.518 1.411c.05-.504.252-.806.604-.806.353 0 .555.403.555.806-.05.504-.252.807-.605.807s-.605-.353-.554-.807zM.403.907c.05-.504.252-.806.605-.806s.554.403.554.806c-.05.504-.252.807-.604.807-.353 0-.555-.353-.555-.807z" transform="translate(149.184 1.826) translate(11.592) translate(10.584 4.032) translate(8.568 10.584)"/>
                            </g>
                        </g>
                        <path fill="url(#prefix__e)" d="M32.206 11.491c-.807-5.897-6.048-3.528-6.048-3.528-2.772-1.058-4.94-1.058-6.452-.1-1.108.705-.907 2.822-1.562 3.981-.554 1.058-1.36 1.663-1.814 2.47-.101.201-.152.403-.202.604-.151.756 0 1.916-.1 2.37-.102.453-.555.2-.555.2l-.504-3.628-.101-.504c-.806-.252-1.562-.504-2.62-.05-1.11.504.806-3.075.856-3.075l.958-.504c.302-4.183 5.241-6.4 9.979-6.149 4.485.252 8.013 4.083 8.165 7.913z" transform="translate(149.184 1.826) translate(11.592)"/>
                    </g>
                    <path fill="#E0A277" d="M35.784 29.131l-.05.05s0 .051-.05.101c-.354.706-1.815 3.579-2.924 3.73-1.714.202-5.292-3.88-5.695-4.385 0-.05-.05-.05-.05-.05h2.872l.655-2.016.202-.555.252-.756 3.074.857-.201.756-.252.807-.353 1.159 2.52.302z" transform="translate(149.184 1.826)"/>
                    <g fill="#0D1423">
                        <path d="M35.582 1.058l7.863 51.257s8.719 3.075 9.727 6.099c.252.705-.655 2.822-.655 2.822l-2.52.756-11.39-6.3L24.695 5.846l10.886-4.788zM11.894 4.687l-.201 48.233S1.512 55.742.303 58.514c-.253.504.856 2.117.856 2.117l2.218.807 13.81-4.133 5.04-50.602-10.333-2.016z" transform="translate(149.184 1.826) translate(0 65.52)"/>
                        <path d="M11.39 1.462c4.587-4.083 13.91 3.528 24.192-.353l.202 3.981s-3.83 3.024-8.77 3.83c-5.796.958-13.003-.402-15.22-3.023.05-.05-1.31-3.629-.404-4.435z" transform="translate(149.184 1.826) translate(0 65.52)"/>
                    </g>
                    <path fill="url(#prefix__f)" d="M28.93 13.154s-5.09-.655-6.603-.15c-.151.05-.252.1-.353.15-.856.756 0-.856 0-.856s7.107-1.412 7.712-.555l-.756 1.411z" opacity=".2" transform="translate(149.184 1.826)"/>
                    <path fill="url(#prefix__g)" d="M29.786 10.786s-5.09-.656-6.602-.152c-.151.05-.252.101-.353.152-.857.756 0-.857 0-.857s7.107-1.411 7.711-.555l-.756 1.412z" opacity=".2" transform="translate(149.184 1.826)"/>
                </g>
                <g>
                    <path fill="#FFB233" d="M20.16 29.03l.1-.201c.656-.303 1.412-.555 2.168-.756.504-.151 1.008-.252 1.562-.353 0 0 .454.05 1.16.151.705.101 1.612.252 2.67.454-.15.151-2.872 3.276-4.182 3.276-1.059.05-3.478-2.57-3.478-2.57z" transform="translate(91.728 13.922)"/>
                    <path fill="#FFB233" d="M38.707 62.345c-.252.453-.655.907-1.058 1.31-2.268 2.218-6.603 4.032-9.929 4.687-.706.152-1.411.202-1.966.252-.957.05-2.318-.1-3.73-.403-2.973-.605-6.4-1.814-8.466-3.528-.857-.705-1.462-1.461-1.714-2.318-.202-.655-.302-1.462-.403-2.319-.202-1.864-.151-4.082 0-6.501.151-2.268.403-4.687.756-7.006.252-1.915.554-3.78.857-5.493.756-4.536 1.562-8.014 1.663-8.468v-.05s1.915-1.915 4.889-3.326c0 0 2.016 3.88 4.485 3.376 0 0 3.931-2.47 4.687-3.981 1.664.353 3.528.857 5.09 1.562.051 0 .051.05.102.05h.05v.051c.1.403 1.058 4.536 2.117 9.778.252 1.26.504 2.52.756 3.88.353 1.815.705 3.68 1.008 5.494.655 3.982 1.21 7.711 1.26 10.231-.101 1.26-.202 2.268-.454 2.722z" transform="translate(91.728 13.922)"/>
                    <path fill="#C18963" d="M27.82 28.325c-.15.151-2.872 3.276-4.182 3.276-1.11 0-3.528-2.57-3.528-2.57l.1-.202.555-1.411.302-.756h5.191l.353.352.05.05 1.16 1.26z" transform="translate(91.728 13.922)"/>
                    <path fill="#E0E0E0" d="M11.542 14.314s-1.966-3.881-.303-5.595c2.268-2.369 3.427-1.663 3.427-1.663s-.655-3.528 1.26-4.838C17.438 1.159 20.11.554 23.033.403c.655-.05 1.562.756 2.217.807.706 0 1.11-.756 1.815-.656.554.05 1.058.101 1.613.202.352.05.705.1 1.058.202 3.78.756 6.905 2.368 7.51 4.737.453 1.815-3.579 5.897-3.579 5.897s2.319 3.377 2.016 4.637c-.302 1.21-3.225 3.276-3.225 3.276s1.058 5.493.1 6.703c-.806 1.008-5.997.806-5.997.806l-4.839-.806s-5.04 1.26-6.652.655c-.857-.353-1.613-4.485-1.613-4.485s-3.226-1.16-3.579-2.268c-1.008-3.024 1.664-5.796 1.664-5.796z" transform="translate(91.728 13.922)"/>
                    <g transform="translate(91.728 13.922) translate(11.592 6.048)">
                        <path fill="#CF976D" d="M12.348 21.672c-.403 0-.857.05-1.31 0h-.202c-4.234-.302-6.2-3.478-6.905-6.955-.353-1.764-.403-3.478-.353-4.687l.05-.807V8.77l.051-1.764C3.881 3.226 7.46.202 11.743.353c3.982.1 7.207 2.923 7.409 6.35v.706l-.151 3.024c-.05 3.629.403 10.836-6.653 11.239z"/>
                        <g>
                            <path fill="#DB3945" d="M6.502 1.613c-.05-.555-1.21-.403-2.067-.403-.201 0-.353.201-.504.15-.201-.05-.403-.302-.605-.352C2.016.554.554-.504.151.504c-.403 1.058 1.663 2.671 3.226 2.822 1.613.101 3.276-.554 3.125-1.713z" transform="translate(8.064 15.624)"/>
                            <path fill="#FF514F" d="M2.268 1.663C1.31 1.361.504 1.26.252 1.26c.403.958 1.915 1.966 3.175 2.016.353.05.756 0 1.109-.05-.202-.706-1.26-1.26-2.268-1.563z" transform="translate(8.064 15.624)"/>
                        </g>
                        <path fill="#161F36" d="M8.669 6.703c-.454.05-1.008.252-1.462.504-.403.252-.756.555-.705.555.1 0 .302-.152.756-.404.604-.302 1.31-.554 1.864-.453.252.05.504.1.706.252.05.05.151.05.202 0 .05 0 .05-.101 0-.151-.252-.152-.555-.252-.857-.303h-.504zM15.876 7.207c.403.101.857.353 1.21.706.302.302.604.605.554.655-.05 0-.252-.202-.605-.504-.453-.403-1.058-.706-1.562-.655-.202 0-.454.05-.655.201-.05.05-.152.05-.152 0-.05-.05-.05-.1 0-.15.252-.152.504-.202.756-.202.202-.101.353-.05.454-.05z"/>
                        <path fill="#161F36" fill-rule="nonzero" d="M8.568 11.34s-.05 0 0 0c-.706-.454-1.663-.05-1.663-.05-.05 0-.05 0-.05-.05 0-.051 0-.051.05-.051s1.008-.454 1.764.05c-.05 0-.05.05-.101.101 0-.05 0 0 0 0z"/>
                        <path fill="#161F36" d="M15.17 10.634c0-.453.252-.756.504-.756.303 0 .504.353.504.706 0 .454-.252.756-.504.756-.302 0-.554-.302-.504-.706zM8.114 10.584c0-.454.252-.756.504-.756.303 0 .504.353.504.706 0 .453-.252.756-.504.756-.252.05-.504-.303-.504-.706z"/>
                        <path fill="#CF976D" d="M18.598 15.876c2.116-.202 3.074-1.21 3.528-2.923.403-1.663.05-2.621-.454-3.075-1.31-1.41-3.125-.252-3.276.202-.252.706-.202 1.764-.151 2.772.1 1.411-.857 2.772.353 3.024zM3.88 15.876c-2.116-.202-3.074-1.21-3.527-2.923-.403-1.663-.05-2.621.453-3.075 1.31-1.41 3.125-.252 3.276.202.252.706.202 1.764.152 2.772-.05 1.411.907 2.772-.353 3.024z"/>
                        <path fill="#161F36" fill-rule="nonzero" d="M13.255 15.826c-.756 0-1.865-.353-1.915-.353-.05 0-.05-.05-.05-.101 0-.05.05-.05.1-.05.504.15 1.966.554 2.37.252.302-.252.503-.555.554-.908.15-1.41-1.412-3.326-1.462-3.376v-.101c0-.05.05 0 .1 0 .051.1 1.664 2.016 1.462 3.477-.05.404-.252.756-.604 1.008-.101.101-.303.152-.555.152z"/>
                        <path fill="#CF976D" fill-rule="nonzero" d="M9.98 21.52s1.914 1.815 4.182-.1l-1.058-.756-2.016.353-1.109.504z"/>
                        <path fill="#161F36" fill-rule="nonzero" d="M17.086 11.542s-.05 0 0 0c-.706-.605-1.664-.05-1.664-.05h-.05v-.051s1.008-.605 1.764.05c0 0 0 .05-.05.05z"/>
                        <circle cx="3.024" cy="14.566" r="1" fill="#FFF"/>
                        <circle cx="19.454" cy="14.918" r="1" fill="#FFF"/>
                    </g>
                    <path fill="#E0E0E0" d="M15.12 15.523s1.109 2.067 1.058 3.478c-.1 1.461.101-8.165 2.016-9.778.807-.655 2.268-1.058 3.881-1.21.555-.05 1.411.908 1.966.908.605 0 .857-.907 1.411-.857 1.36.202 2.57.554 3.276 1.109 1.613 1.26 1.915 7.963 1.915 7.963l.252-2.016 1.059-6.854-2.621-2.218-5.796-.958-4.486-.05-2.62 2.369-1.26 2.873-.454 1.764.403 3.477z" transform="translate(91.728 13.922)"/>
                    <g opacity=".47" transform="translate(91.728 13.922) translate(21.168 17.136)">
                        <circle cx="1.159" cy="1.31" r="1.058" fill="#7FE2DF"/>
                        <path fill="#686868" fill-rule="nonzero" d="M1.16 2.42C.553 2.42.05 1.914.05 1.31.05.706.554.202 1.16.202c.604 0 1.108.504 1.108 1.108 0 .605-.504 1.11-1.109 1.11zm0-2.168C.604.252.15.706.15 1.26S.605 2.268 1.16 2.268c.555 0 1.008-.454 1.008-1.008S1.714.252 1.16.252z"/>
                    </g>
                    <g opacity=".46" transform="translate(91.728 13.922) translate(25.2 17.136)">
                        <circle cx="1.361" cy="1.31" r="1.058" fill="#7FE2DF"/>
                        <path fill="#686868" fill-rule="nonzero" d="M1.36 2.42C.757 2.42.253 1.914.253 1.31.252.706.756.202 1.361.202S2.47.706 2.47 1.31c0 .605-.454 1.11-1.11 1.11zm0-2.168C.807.252.354.706.354 1.26S.806 2.268 1.36 2.268c.554 0 1.008-.454 1.008-1.008C2.419.706 1.966.252 1.36.252z"/>
                    </g>
                    <path fill="#686868" fill-rule="nonzero" d="M23.335 17.993l-.1-.05s.453-.605 1.159-.656c.453-.05.907.101 1.36.454l-.05.1c-.403-.352-.857-.453-1.31-.403-.605 0-1.059.555-1.059.555z" transform="translate(91.728 13.922)"/>
                    <g>
                        <g>
                            <g fill="#202C92">
                                <path d="M1.972 1.616H14.673V18.802H1.972z" transform="translate(91.728 13.922) translate(0 32.256) translate(16.632) rotate(-12.891 8.322 10.21)"/>
                                <path d="M16.43 17.136L4.032 19.958 5.09 20.714 17.489 17.892z" transform="translate(91.728 13.922) translate(0 32.256) translate(16.632)"/>
                                <path d="M16.43 17.136L17.489 17.892 13.658 1.159 12.6 0.403z" transform="translate(91.728 13.922) translate(0 32.256) translate(16.632)"/>
                            </g>
                            <path fill="#FFF" d="M12.953 0.655L16.682 17.136 4.687 20.16 5.09 20.462 17.186 17.69 13.457 1.008z" transform="translate(91.728 13.922) translate(0 32.256) translate(16.632)"/>
                        </g>
                        <g fill="#CF976D">
                            <path d="M.302 4.133L3.83 2.419S7.006.554 7.913.655c.302.05.857.353.957.655.303.807-.252 2.621-.403 3.428-.1.453-.554 1.814-.554 1.814l-.555.605-3.326.605-2.974.957-.756-4.586z" transform="translate(91.728 13.922) translate(0 32.256) translate(20.16 10.584)"/>
                            <path d="M.454 4.082c.05 0 .15-1.159 1.41-1.814 1.311-.706.757-.958.807-1.36.05-.202.504-.454.706-.454.201 0 .655.201.756.403.1.151 0 .705-.101.907-.202.504-1.109 1.814-1.109 1.814l-2.47.504z" transform="translate(91.728 13.922) translate(0 32.256) translate(20.16 10.584)"/>
                        </g>
                        <path fill="url(#prefix__h)" d="M14.666.252S-.655 13.003.403 16.834c.655 2.368 9.879 7.358 21.672 2.116 0 0 .555-1.512.202-3.73-.252-1.763-2.369-2.368-2.369-2.368s-12.802 3.074-12.7.706c.05-1.512 7.811-5.998 7.811-5.998L14.666.252z" transform="translate(91.728 13.922) translate(0 32.256)"/>
                    </g>
                    <g>
                        <g fill="#CF976D">
                            <path d="M8.014 5.897L5.19 3.175S2.721.403 1.865.252C1.562.202.958.352.756.554.202 1.21.202 3.124.05 3.931 0 4.385 0 5.846 0 5.846l.302.756s1.815 1.512 2.52 1.916c.706.453 2.974 1.461 2.974 1.461l2.218-4.082z" transform="translate(91.728 13.922) translate(19.656 29.736) translate(0 3.528)"/>
                            <path d="M7.862 5.796c-.05-.05.252-1.109-.756-2.167-1.008-1.059-.403-1.16-.352-1.563 0-.201-.353-.554-.504-.655-.202-.1-.706 0-.857.151-.101.101-.202.656-.202.857.05.555.504 2.067.504 2.067l2.167 1.31z" transform="translate(91.728 13.922) translate(19.656 29.736) translate(0 3.528)"/>
                        </g>
                        <path fill="url(#prefix__i)" d="M14.112.302s13.76 14.415 12.247 18.094c-.907 2.268-9.979 2.722-21.067-3.88 0 0-.403-1.563.202-3.73.453-1.714 2.62-2.067 2.62-2.067s11.693 7.963 11.895 5.595c.151-1.512-7.056-6.855-7.056-6.855L14.112.302z" transform="translate(91.728 13.922) translate(19.656 29.736)"/>
                    </g>
                    <g fill="#000">
                        <path d="M36.086 3.377l1.31 37.699s9.123 1.865 9.678 4.687c.1.655-.908 2.47-.908 2.47l-2.368.353-11.139-5.09L25.805 6.35l10.281-2.973zM11.34 5.04l-.706 34.423s-9.223 2.57-10.332 5.04c-.201.454.807 1.915.807 1.915l2.016.706 12.55-3.73 5.14-36.59L11.34 5.04z" transform="translate(91.728 13.922) translate(1.512 59.472)"/>
                        <path d="M10.332.454C18.346 3.93 26.006 4.384 37.598.05c0 0 .656 3.428.252 4.436-1.562 3.73-4.636 4.183-10.18 5.09-6.552 1.058-14.868-.907-16.784-4.183-.705-1.059-1.814-5.494-.554-4.94z" transform="translate(91.728 13.922) translate(1.512 59.472)"/>
                    </g>
                </g>
                <path fill="#E0E0E0" d="M120.406 42.448c-.756 1.512-4.688 3.982-4.688 3.982-2.47.504-4.485-3.377-4.485-3.377.201-.101.453-.202.705-.303l-.1.202s2.419 2.62 3.528 2.57c1.31 0 4.032-3.124 4.183-3.276.252.05.554.152.857.202zM185.724 31.26c-.1 1.36-2.369 3.83-3.024 4.485-.151.05-.302.05-.504.1-3.326.706-6.2-4.586-6.602-5.342.201 0 .403-.05.655-.05.453.504 3.981 4.586 5.695 4.385 1.109-.152 2.57-3.024 2.923-3.73.303.05.605.1.857.151z"/>
                <circle cx="205.783" cy="40.936" r="1" fill="#E0E0E0"/>
            </g>
        </g>
    </g>
</svg>
