<svg xmlns="http://www.w3.org/2000/svg" width="350" height="84" fill="none" viewBox="0 0 350 84">
    <path fill="#96BF32" d="M0 8c0-4.418 3.582-8 8-8h334c4.418 0 8 3.582 8 8v68c0 4.418-3.582 8-8 8H8c-4.418 0-8-3.582-8-8V8z"/>
    <path fill="#D5E6A5" d="M59.897 73.794c16.512 0 29.897-13.385 29.897-29.897S76.41 14 59.897 14 30 27.385 30 43.897s13.385 29.897 29.897 29.897z" opacity=".8"/>
    <path fill="url(#prefix__paint0_linear)" d="M64.59 65.554h18.523l1.051-20.626H63.538l1.052 20.626z"/>
    <path fill="#FFF7CC" d="M80.412 62.714l.761-14.946H66.53l.761 14.946h13.12z"/>
    <path fill="#993352" d="M63.538 44.928h-8.847l2.605 20.626h7.294l-1.052-20.626z"/>
    <path fill="#E8A699" d="M62.263 47.768l.532 14.946H58.42l-1.662-14.946h5.505z"/>
    <path style="mix-blend-mode:screen" fill="url(#prefix__paint1_linear)" d="M83.602 45.58L82.54 64.46 82.06 47l-17.205-1.42h18.746z" opacity=".75"/>
    <path fill="#B86053" d="M64.59 46.469l.81 18.408 16.456.296L66.53 63.99l-1.94-17.52z" opacity=".3"/>
    <path fill="#993352" d="M72.483 60.375l1.903-5.258.121-.332 2.103-5.796h-5.288l.188 1.336 3.051-.079-1.275 4.539-.09.332-1.686 6.02h4.834l-.072-.84-3.79.078z"/>
    <path fill="url(#prefix__paint2_linear)" d="M47.669 44.746h18.516l1.052-20.626h-20.62l1.052 20.626z"/>
    <path fill="#FFF7CC" d="M63.49 41.906l.761-14.945H49.602l.762 14.945H63.49z"/>
    <path fill="#993352" d="M46.617 24.12h-8.854l2.605 20.626h7.3L46.617 24.12z"/>
    <path fill="#E8A699" d="M45.342 26.96l.532 14.946h-4.382l-1.656-14.945h5.506z"/>
    <path style="mix-blend-mode:screen" fill="url(#prefix__paint3_linear)" d="M66.675 24.773l-1.064 18.88-.471-17.46-17.206-1.42h18.74z" opacity=".75"/>
    <path fill="#B86053" d="M47.669 25.662l.81 18.408 16.45.296-15.327-1.185-1.933-17.52z" opacity=".3"/>
    <path fill="#993352" d="M57.743 34.594l.109-.32 1.88-5.814-1.578.314-1.215 4.774L55.7 28.4h-1.577l1.885 5.874.103.32.145.454-1.843 5.415h.87l1.644-4.545 1.644 4.545h.87l-1.843-5.415.145-.453z"/>
    <path fill="url(#prefix__paint4_linear)" d="M41.117 65.554H59.64l1.052-20.626H40.066l1.051 20.626z"/>
    <path fill="#FFF7CC" d="M56.939 62.714l.761-14.946H43.057l.762 14.946h13.12z"/>
    <path fill="#993352" d="M40.066 44.928h-8.854l2.605 20.626h7.3l-1.051-20.626z"/>
    <path fill="#E8A699" d="M38.79 47.768l.533 14.946H34.94l-1.656-14.946h5.506z"/>
    <path style="mix-blend-mode:screen" fill="url(#prefix__paint5_linear)" d="M60.13 45.58l-1.064 18.88L58.59 47l-17.206-1.42H60.13z" opacity=".75"/>
    <path fill="#B86053" d="M41.117 46.469l.81 18.408 16.456.296-15.326-1.184-1.94-17.52z" opacity=".3"/>
    <path fill="#993352" d="M51.935 49.327L50.497 54.9l-.085.327-.054.2-.03-.2-.055-.327-.955-5.91h-1.504l1.625 5.91.09.327.472 1.716v4.424h.883l-.29-4.424.531-1.716.103-.327 1.783-5.747-1.076.175z"/>
    <path fill="#fff" d="M149.112 51V33.912h6.816c1.76 0 3.128.424 4.104 1.272.992.848 1.488 2.016 1.488 3.504 0 1.472-.496 2.64-1.488 3.504-.992.864-2.36 1.296-4.104 1.296h-4.848V51h-1.968zm1.968-9.144h4.68c1.264 0 2.216-.272 2.856-.816.64-.56.96-1.344.96-2.352 0-1.008-.32-1.784-.96-2.328-.64-.544-1.592-.816-2.856-.816h-4.68v6.312zM164.27 51v-8.688c0-.56-.016-1.12-.048-1.68-.016-.576-.064-1.144-.144-1.704h1.848l.264 2.976-.264-.072c.224-1.056.704-1.848 1.44-2.376.752-.544 1.592-.816 2.52-.816.208 0 .4.016.576.048.192.016.368.048.528.096l-.048 1.776c-.368-.128-.792-.192-1.272-.192-.832 0-1.504.184-2.016.552-.496.368-.864.84-1.104 1.416-.224.56-.336 1.152-.336 1.776V51h-1.944zm18.349-1.44c-.528.496-1.208.888-2.04 1.176-.816.288-1.656.432-2.52.432-1.248 0-2.328-.248-3.24-.744-.896-.496-1.592-1.208-2.088-2.136-.48-.944-.72-2.064-.72-3.36 0-1.248.24-2.344.72-3.288s1.144-1.68 1.992-2.208c.864-.528 1.856-.792 2.976-.792 1.072 0 1.992.24 2.76.72.768.464 1.352 1.136 1.752 2.016.416.88.624 1.936.624 3.168v.36h-9.12v-1.272h8.016l-.624.888c.032-1.408-.248-2.488-.84-3.24-.576-.752-1.424-1.128-2.544-1.128-1.168 0-2.088.416-2.76 1.248-.656.816-.984 1.952-.984 3.408 0 1.568.344 2.752 1.032 3.552.704.8 1.728 1.2 3.072 1.2.704 0 1.376-.112 2.016-.336.656-.24 1.28-.6 1.872-1.08l.648 1.416zm13.055 0c-.528.496-1.208.888-2.04 1.176-.816.288-1.656.432-2.52.432-1.248 0-2.328-.248-3.24-.744-.896-.496-1.592-1.208-2.088-2.136-.48-.944-.72-2.064-.72-3.36 0-1.248.24-2.344.72-3.288s1.144-1.68 1.992-2.208c.864-.528 1.856-.792 2.976-.792 1.072 0 1.992.24 2.76.72.768.464 1.352 1.136 1.752 2.016.416.88.624 1.936.624 3.168v.36h-9.12v-1.272h8.016l-.624.888c.032-1.408-.248-2.488-.84-3.24-.576-.752-1.424-1.128-2.544-1.128-1.168 0-2.088.416-2.76 1.248-.656.816-.984 1.952-.984 3.408 0 1.568.344 2.752 1.032 3.552.704.8 1.728 1.2 3.072 1.2.704 0 1.376-.112 2.016-.336.656-.24 1.28-.6 1.872-1.08l.648 1.416zm7.247 1.608c-2.032 0-3.64-.52-4.824-1.56l.648-1.44c.64.496 1.296.864 1.968 1.104.688.224 1.448.336 2.28.336.912 0 1.6-.152 2.064-.456.48-.32.72-.776.72-1.368 0-.48-.16-.856-.48-1.128-.32-.288-.848-.52-1.584-.696l-2.04-.48c-1.008-.224-1.792-.624-2.352-1.2-.544-.576-.816-1.264-.816-2.064 0-.704.192-1.32.576-1.848.384-.544.92-.968 1.608-1.272.688-.304 1.504-.456 2.448-.456.848 0 1.648.136 2.4.408.752.272 1.384.664 1.896 1.176l-.648 1.416c-.576-.48-1.168-.832-1.776-1.056-.592-.24-1.216-.36-1.872-.36-.864 0-1.536.168-2.016.504-.464.336-.696.792-.696 1.368 0 .496.144.888.432 1.176.304.288.784.512 1.44.672l2.04.504c1.136.24 1.968.64 2.496 1.2.544.544.816 1.24.816 2.088 0 1.04-.424 1.872-1.272 2.496-.848.624-2 .936-3.456.936zm12.89 0c-1.184 0-2.208-.256-3.072-.768-.864-.512-1.536-1.232-2.016-2.16-.464-.928-.696-2.024-.696-3.288 0-1.248.24-2.344.72-3.288.48-.96 1.16-1.704 2.04-2.232.88-.528 1.92-.792 3.12-.792.816 0 1.6.144 2.352.432.768.272 1.4.656 1.896 1.152l-.648 1.44c-.592-.464-1.176-.808-1.752-1.032-.56-.24-1.144-.36-1.752-.36-1.216 0-2.184.408-2.904 1.224-.704.816-1.056 1.968-1.056 3.456 0 1.472.352 2.608 1.056 3.408.704.8 1.672 1.2 2.904 1.2.592 0 1.176-.112 1.752-.336.576-.24 1.16-.592 1.752-1.056l.648 1.44c-.512.48-1.16.864-1.944 1.152-.768.272-1.568.408-2.4.408zm11.811 0c-1.152 0-2.16-.256-3.024-.768-.848-.512-1.512-1.232-1.992-2.16-.464-.944-.696-2.056-.696-3.336 0-1.264.232-2.368.696-3.312.48-.944 1.144-1.672 1.992-2.184.864-.512 1.872-.768 3.024-.768s2.152.256 3 .768c.864.512 1.528 1.24 1.992 2.184.48.944.72 2.048.72 3.312 0 1.28-.24 2.392-.72 3.336-.464.928-1.128 1.648-1.992 2.16-.848.512-1.848.768-3 .768zm0-1.608c1.184 0 2.096-.392 2.736-1.176.656-.8.984-1.96.984-3.48 0-1.488-.328-2.632-.984-3.432-.656-.8-1.568-1.2-2.736-1.2-1.168 0-2.088.4-2.76 1.2-.656.8-.984 1.944-.984 3.432 0 1.52.32 2.68.96 3.48.656.784 1.584 1.176 2.784 1.176zm8.742 1.44V33.336h1.944V51h-1.944zm10.351.168c-1.072 0-2.016-.248-2.832-.744-.8-.512-1.424-1.232-1.872-2.16-.432-.944-.648-2.048-.648-3.312 0-1.264.224-2.368.672-3.312.448-.944 1.072-1.68 1.872-2.208.816-.528 1.752-.792 2.808-.792 1.104 0 2.04.272 2.808.816.768.544 1.288 1.32 1.56 2.328l-.288.192v-3.048h1.92V51h-1.92v-3.12l.288.144c-.272 1.008-.792 1.784-1.56 2.328-.768.544-1.704.816-2.808.816zm.384-1.608c1.184 0 2.096-.4 2.736-1.2.64-.816.96-1.968.96-3.456s-.328-2.632-.984-3.432c-.64-.8-1.544-1.2-2.712-1.2-1.184 0-2.112.416-2.784 1.248-.656.816-.984 1.96-.984 3.432s.328 2.608.984 3.408c.672.8 1.6 1.2 2.784 1.2zm9.375 1.44v-8.688c0-.56-.016-1.12-.048-1.68-.016-.576-.064-1.144-.144-1.704h1.848l.264 2.976-.264-.072c.224-1.056.704-1.848 1.44-2.376.752-.544 1.592-.816 2.52-.816.208 0 .4.016.576.048.192.016.368.048.528.096l-.048 1.776c-.368-.128-.792-.192-1.272-.192-.832 0-1.504.184-2.016.552-.496.368-.864.84-1.104 1.416-.224.56-.336 1.152-.336 1.776V51h-1.944zm19.921-.888V35.064l1.128.576-4.632 2.952v-1.896l4.368-2.784h1.128v16.2h-1.992zm-3.768.888v-1.656h9.528V51h-9.528zm15.446-9.864c-.752 0-1.4-.152-1.944-.456-.528-.32-.936-.76-1.224-1.32-.288-.56-.432-1.2-.432-1.92s.144-1.352.432-1.896c.288-.544.696-.968 1.224-1.272.544-.32 1.192-.48 1.944-.48.768 0 1.416.16 1.944.48.544.304.96.728 1.248 1.272.288.544.432 1.176.432 1.896s-.144 1.36-.432 1.92c-.288.56-.704 1-1.248 1.32-.528.304-1.176.456-1.944.456zm0-1.392c.624 0 1.096-.2 1.416-.6.32-.4.48-.968.48-1.704 0-.72-.16-1.28-.48-1.68-.32-.4-.792-.6-1.416-.6-.608 0-1.072.2-1.392.6-.304.4-.456.96-.456 1.68 0 .736.152 1.304.456 1.704.32.4.784.6 1.392.6z"/>
    <defs>
        <linearGradient id="prefix__paint0_linear" x1="84.998" x2="56.854" y1="43.423" y2="71.924" gradientUnits="userSpaceOnUse">
            <stop offset=".08" stop-color="#FF7082"/>
            <stop offset=".33" stop-color="#F64E6C"/>
            <stop offset=".61" stop-color="#ED2D58"/>
            <stop offset=".84" stop-color="#E7194C"/>
            <stop offset="1" stop-color="#E51247"/>
        </linearGradient>
        <linearGradient id="prefix__paint1_linear" x1="85.544" x2="71.689" y1="41.562" y2="57.093" gradientUnits="userSpaceOnUse">
            <stop stop-color="#FFF7CC"/>
            <stop offset="1" stop-color="#FFF7CC"/>
        </linearGradient>
        <linearGradient id="prefix__paint2_linear" x1="68.07" x2="39.935" y1="22.616" y2="51.108" gradientUnits="userSpaceOnUse">
            <stop stop-color="#3AB5D4"/>
            <stop offset=".21" stop-color="#3AB2D2"/>
            <stop offset=".39" stop-color="#3BA7CA"/>
            <stop offset=".57" stop-color="#3C95BD"/>
            <stop offset=".73" stop-color="#3E7DAB"/>
            <stop offset=".89" stop-color="#405D94"/>
            <stop offset="1" stop-color="#424180"/>
        </linearGradient>
        <linearGradient id="prefix__paint3_linear" x1="68.61" x2="54.764" y1="20.754" y2="36.281" gradientUnits="userSpaceOnUse">
            <stop stop-color="#FFF7CC"/>
            <stop offset="1" stop-color="#FFF7CC"/>
        </linearGradient>
        <linearGradient id="prefix__paint4_linear" x1="61.526" x2="33.382" y1="43.423" y2="71.924" gradientUnits="userSpaceOnUse">
            <stop offset=".08" stop-color="#FBB03B"/>
            <stop offset=".39" stop-color="#F99A27"/>
            <stop offset=".75" stop-color="#F88615"/>
            <stop offset="1" stop-color="#F77F0F"/>
        </linearGradient>
        <linearGradient id="prefix__paint5_linear" x1="62.072" x2="48.217" y1="41.562" y2="57.093" gradientUnits="userSpaceOnUse">
            <stop stop-color="#FFF7CC"/>
            <stop offset="1" stop-color="#FFF7CC"/>
        </linearGradient>
    </defs>
</svg>
