<svg xmlns="http://www.w3.org/2000/svg" width="160" height="84" fill="none" viewBox="0 0 160 84">
    <path fill="#006CD0" d="M0 8c0-4.418 3.582-8 8-8h144c4.418 0 8 3.582 8 8v68c0 4.418-3.582 8-8 8H8c-4.418 0-8-3.582-8-8V8z"/>
    <g clip-path="url(#prefix__clip0)">
        <mask id="prefix__a" width="60" height="61" x="30" y="11" maskUnits="userSpaceOnUse">
            <path fill="#fff" d="M30 11.486h59.993V71.48H30V11.487z"/>
        </mask>
        <g mask="url(#prefix__a)">
            <path fill="#1163B0" fill-rule="evenodd" d="M89.993 41.483c0 16.567-13.43 29.996-29.996 29.996C43.43 71.48 30 58.05 30 41.483c0-16.567 13.43-29.996 29.997-29.996 16.566 0 29.996 13.43 29.996 29.996z" clip-rule="evenodd"/>
        </g>
        <path fill="#472D1A" fill-rule="evenodd" d="M47.562 22.47c1.596-5.26 6.164-9.062 11.542-9.062 5.999 0 10.987 4.728 11.972 10.934.849.304 1.47 1.267 1.47 2.406 0 1.164-.649 2.144-1.526 2.425-1.107 6.044-6.024 10.605-11.916 10.605-2.068 0-4.015-.563-5.72-1.553-.196.076-.404.117-.62.117-.782 0-1.463-.542-1.806-1.336-1.02-.14-1.816-1.202-1.816-2.492 0-.117.007-.233.02-.347-.377-.58-.711-1.196-.999-1.84-.824-.106-1.504-.816-1.739-1.761-.717-.39-1.218-1.27-1.218-2.294 0-.824.325-1.555.826-2.012-.187-.379-.295-.823-.295-1.297 0-1.294.8-2.36 1.825-2.493z" clip-rule="evenodd"/>
        <path fill="#FFC7A5" fill-rule="evenodd" d="M70.763 40.082c.561 2.61-.02 9.54-1.3 9.758-1.47.25-4.349-1.72-6.368-2.635.472 2.31.709 5.372.757 7.866.204 1.363.534 2.728.818 4.099.885 4.265 2.178 14.175 2.186 14.274.066.846-2.422.923-2.636-.023-.96-4.9-2.069-10.369-3.06-15.295-.927.358-1.866.47-2.817.337-.064.507-.123 1.016-.183 1.524-.533 4.508-.79 9.075-1.33 13.526 0 0-2.688-.07-2.682-.12.61-5.215.35-10.96 1.124-16.181l-.026-.017c.034-.16.068-.318.1-.476l.052-.325c.117-.735.236-1.474.413-2.19-.176-.043-.349-.117-.513-.194-1.162-.543-2.3-1.17-3.254-2.08-1.126-1.075-1.932-2.759-1.243-4.55.58-1.506 1.85-2.53 3.075-3.352 1.335-.896 2.775-1.58 4.223-2.25l.082-.028v-1.303c-3.228-.364-6.168-2.302-7.994-4.902-.271 1.17-2.57 1.861-3.992-.133-1.377-1.35-2.236-3.639-.636-5.311 1.036-1.083 2.216-.574 2.706-.526-.196-6.054.323-14.109 9.484-15.315 9.41-1.24 10.427 5.305 11.79 12.366 1.257 6.504.192 11.625-8.02 13.614-.396.096-.794.166-1.19.21v1.206c.084-.003.167.024.252.025 1.416.018 7.109 4.495 7.513 4.593.392.09.703-3.58.828-5.555-.025-.13-.042-.2-.042-.2-.06-.055-.118-.115-.147-.132-.204-.122-.905-.422-.812-.81.048-.199.852-.1.966-.134l.003-.001.009-.005c-.036-.128-.063-.286-.069-.31-.055-.247-.326-1.383.054-1.485h.004c.018-.005.037-.007.057-.007.265.003.505 1.147.518 1.14.037-.304.214-1.191.59-1.295l.006-.001c.022-.006.044-.009.067-.009.088 0 .096.238.097.296.005.335-.016.972-.012.974.088-.152.475-.855.76-.936l.004-.001c.04-.01.077-.008.111.008.383.188-.158 1.198-.286 1.386h.002c.046-.02.947-.544.954-.215.01.472-.636.908-.992 1.097l-.001.003zm-13.982 5.27c-1.114.571-2.182 1.234-3.07 2.157-.443.463-.871 1.063-.643 1.601.304.718 1.007 1.178 1.674 1.596.496.312 1.015.58 1.543.825.294-2.036.474-4.051.496-6.18z" clip-rule="evenodd"/>
        <path fill="#B47A4E" fill-rule="evenodd" d="M69.653 40.47c.018-.403-.215-.848-.495-.947l-.043-.061.055-.044c.384.012.74.538.578 1.072 0 0-.02.106-.095-.016v-.003z" clip-rule="evenodd"/>
        <path fill="#F5A77C" fill-rule="evenodd" d="M60.33 41.545c-.308-.23-.692-.795-.59-1.016.06-.128.337-.056.59-.025v1.041z" clip-rule="evenodd"/>
        <path fill="#B47A4F" fill-rule="evenodd" d="M48.782 33.608l.002.001h-.002z" clip-rule="evenodd"/>
        <path fill="#D54F4A" fill-rule="evenodd" d="M62.654 37.713c-1.788-.104-2.69-1.01-2.992-1.901-.169-.5.196-.965.4-.964 1.31.002 3.834.274 5.112.011.389-.08.596.334.377.955-.444 1.265-1.57 1.976-2.897 1.899z" clip-rule="evenodd"/>
        <path fill="#FF9A9A" fill-rule="evenodd" d="M59.826 36.186c.794-.625 1.771-.993 2.828-.993 1.028 0 1.981.349 2.764.943-.512 1.062-1.554 1.647-2.764 1.577-1.537-.09-2.42-.77-2.828-1.527z" clip-rule="evenodd"/>
        <path fill="#fff" fill-rule="evenodd" d="M60.027 34.852c.012-.003.024-.004.035-.004 1.31.002 3.834.274 5.113.01.048-.009.093-.011.135-.006-.723.397-1.643.635-2.642.635-1 0-1.918-.237-2.641-.635z" clip-rule="evenodd"/>
        <path fill="#262827" fill-rule="evenodd" d="M58.027 27.638c.428.007.77.458.762 1.007-.007.548-.36.987-.788.98-.428-.007-.77-.458-.763-1.007.008-.548.361-.987.789-.98zM66.202 27.208c.427.007.77.444.762.976-.007.532-.36.958-.789.951-.428-.007-.77-.444-.762-.976.007-.532.36-.958.789-.951z" clip-rule="evenodd"/>
        <path fill="#5B3A21" fill-rule="evenodd" d="M71.767 20.95c-.03.1-.064.197-.1.292.132.313.207.669.207 1.046 0 .699-.258 1.324-.663 1.74.014.087.026.175.035.265.117 1.245-.424 2.328-1.206 2.417-.171.02-.34-.01-.5-.082v-.002c-.157-.81-.309-1.612-.469-2.397-.199-.148-.373-.34-.514-.566-1.254-.002-2.351-.83-2.95-2.063-.073.005-.147.008-.222.008-1.052 0-1.994-.582-2.624-1.497-.38-.414-.663-.96-.8-1.58-.506.36-1.094.568-1.721.568-.07 0-.14-.003-.21-.008-.45.327-.976.515-1.537.515-.456 0-.889-.124-1.276-.345-.298.142-.616.235-.948.27-.475 1.61-1.73 2.764-3.203 2.777-.408.96-1.148 1.674-2.032 1.913-.047 1-.574 1.844-1.302 2.19.115.285.18.606.18.945 0 1.174-.776 2.127-1.733 2.127-.957 0-1.734-.953-1.734-2.127 0-.118.008-.233.023-.346-.264-.373-.425-.86-.425-1.394 0-.326.06-.636.168-.913-.298-.526-.474-1.166-.474-1.855 0-1.376.697-2.553 1.68-3.028.042-.24.102-.471.18-.691-.017-.148-.026-.299-.026-.452 0-1.61.956-2.949 2.208-3.207-.002-.05-.003-.102-.003-.152 0-1.796 1.188-3.253 2.65-3.253.28 0 .551.054.806.153.391-1.196 1.346-2.042 2.46-2.042.175 0 .346.021.512.062C56.689 9.484 57.441 9 58.284 9c.738 0 1.407.372 1.888.971.21-.066.43-.101.657-.101.876 0 1.653.523 2.136 1.328.286-.13.595-.201.918-.201.95 0 1.784.614 2.252 1.537.06-.007.12-.01.182-.01.5 0 .954.243 1.286.639l.058-.004c.382-.398.897-.643 1.464-.643 1.175 0 2.128 1.05 2.128 2.342 0 .248-.035.488-.1.712.44.231.743.725.743 1.296 0 .232-.05.451-.139.645.478.391.789 1.018.789 1.724 0 .7-.306 1.323-.779 1.715z" clip-rule="evenodd"/>
        <path fill="#472D1A" fill-rule="evenodd" d="M71.793 22.956c-.107.424-.312.795-.582 1.072.014.087.026.175.035.265.117 1.245-.424 2.328-1.206 2.417-.171.02-.34-.01-.5-.082v-.002c-.157-.81-.309-1.612-.469-2.397-.199-.148-.373-.34-.514-.566-1.254-.002-2.351-.83-2.95-2.063-.073.005-.147.008-.222.008-1.052 0-1.994-.582-2.624-1.497-.38-.414-.663-.96-.8-1.58-.506.36-1.094.568-1.721.568-.07 0-.14-.003-.21-.008-.45.327-.976.515-1.537.515-.456 0-.889-.124-1.276-.345-.298.142-.616.235-.948.27-.475 1.61-1.73 2.764-3.203 2.777-.408.96-1.148 1.674-2.032 1.913-.047 1-.574 1.844-1.302 2.19.115.285.18.606.18.945 0 1.174-.776 2.128-1.733 2.128-.957 0-1.734-.954-1.734-2.128 0-.118.008-.233.023-.346-.264-.373-.424-.86-.424-1.394 0-.326.06-.636.167-.913-.298-.526-.474-1.166-.474-1.855 0-1.376.697-2.553 1.68-3.028.042-.24.102-.471.18-.691-.017-.148-.026-.299-.026-.452 0-1.61.956-2.949 2.208-3.207-.002-.05-.003-.102-.003-.152 0-1.796 1.188-3.253 2.65-3.253.28 0 .551.054.806.153.23-.704.656-1.286 1.193-1.646l-.011.136c-.715.47-1.195 1.328-1.195 2.308 0 .92.422 1.731 1.064 2.217-.24.487-.318 1.073-.177 1.65.291 1.199 1.413 1.91 2.501 1.59.367-.108.683-.32.931-.598.512.315 1.132.42 1.743.24.762-.225 1.335-.841 1.587-1.6.636-.114 1.234-.338 1.774-.652.422.738 1.033 1.331 1.757 1.7-.068.243-.105.505-.105.777 0 1.335.895 2.418 1.997 2.418.48 0 .922-.206 1.267-.55v.03c0 1.192.828 2.16 1.847 2.16.265 0 .517-.066.745-.183.21.523.636.882 1.127.882.184 0 .358-.05.516-.14zM67.381 16.311c.629.122 1.132.729 1.198 1.383.038.379-.05.78-.22 1.106l-.083.04s.072-.666.043-.918c-.077-.676-.489-1.261-.972-1.482l-.046-.085s.06-.047.08-.044zM63.043 14.96c.254-.846-.282-1.815-.57-2.185-.133-.17-.3-.314-.492-.382l-.053-.08.071-.052c.747.086 1.204 1.071 1.282 1.559.065.4.054.827-.125 1.19l-.085.044s-.034-.074-.028-.095z" clip-rule="evenodd"/>
        <path fill="#472D1A" fill-rule="evenodd" d="M55.776 14.206c.316.005.624.133.914.294l.042.087-.077.04-.118-.026-.062-.013c-.436-.086-.872-.074-1.327.18-.17.094-.333.324-.44.281-.218-.088-.01-.123.008-.15.137-.197.293-.396.56-.552l.042-.024c.142-.076.3-.118.458-.117zm-.986.784l-.02-.06s.015.084.02.06zM64.15 12.267c.067 0 .135.007.202.018.364.06.708.272.904.601l-.005.1s-.078-.007-.14-.066c-.494-.451-1.327-.31-1.627-.076-.143.112-.251.273-.313.453l-.075.054-.043-.08c.051-.44.335-.82.78-.958.102-.032.209-.046.316-.046zM59.227 11.994c.315.006.624.112.899.312l.032.093s-.677-.12-.917-.086c-.426.06-.857.257-1.168.542-.06.054-.088.171-.088.171l-.048.077s-.081-.033-.081-.137c0-.314.306-.496.47-.63.248-.201.541-.332.87-.341h.032z" clip-rule="evenodd"/>
        <path fill="#472D1A" fill-rule="evenodd" d="M58.603 12.341c-.056.014.077.036.077.036s-.078.333-.225-.162c-.015-.053.171.118-.185-.305-.135-.16-.261-.265-.448-.422l-.091-.074c-.242-.189-.51-.334-.79-.44l-.053-.08s.651-.023 1.136.323c0 0 .44.407.55.725.029.08.054.201.054.201.055.38-.006.198-.006.198-.03-.01-.024.001-.019 0zM70.489 18.6s.38.873.38 1.169c0 .457-.17.879-.325 1.246l-.077.049-.04-.083c.053-.367.1-.731.118-1.11l.007-.143.004-.128c.005-.311-.035-.612-.1-.909l.032-.091z" clip-rule="evenodd"/>
        <path fill="#5C3A22" fill-rule="evenodd" d="M51.412 18.028c.424.009.773.4 1.15.448l.07.068s-.145.088-.339.042c-.375-.09-.702-.317-1.137-.165-.032.01-.062.022-.094.034-.31.118-.601.298-.866.512-.15.13-.242.378-.387.439l-.08-.032s.044-.101.038-.096c.217-.218.298-.6.781-.939.255-.18.565-.313.864-.311z" clip-rule="evenodd"/>
        <path fill="#5C3A22" fill-rule="evenodd" d="M52.999 16.36c.032 0 .077.004.077.004l.061.066s-.053.061-.126.078c-.73.175-1.24.9-1.416 1.252-.075.15-.12.322-.103.487l-.045.086-.072-.049c-.164-.5.173-1.074.42-1.339.294-.315.654-.568 1.168-.585H53zM49.503 23.348c.366.008.799.18.994.458l.001.093s-.377-.152-.582-.18c-.143-.02-.329-.05-.704 0-.223.03-.458.095-.579.305l-.082.038s.03-.334.275-.51c.187-.135.395-.2.637-.204h.04z" clip-rule="evenodd"/>
        <path fill="#00A09E" fill-rule="evenodd" d="M55.627 55.052c.12-.259 8.297.477 8.337.707.201 1.134 2.17 8.095 2.55 10.783.035.252-3.843 1.672-4.009.891-.604-2.856-1.754-9.16-1.96-9.106-.616.165-1.237.222-1.864.173-.113-.01-.307 6.274-.521 8.716-.03.34-4.115.316-4.095-.364.411-5.34 1.086-9.379 1.562-11.8z" clip-rule="evenodd"/>
        <path fill="#008B8A" fill-rule="evenodd" d="M66.5 66.454l.014.088c.035.252-3.843 1.672-4.008.891-.605-2.856-1.754-9.161-1.96-9.106-.616.165-1.238.222-1.865.173-.112-.01-.306 6.274-.52 8.716-.031.34-4.116.316-4.096-.364l.018-.22c.227.125.487.24.562.263.472.144 2.133.515 2.445-.105.229-.455.724-8.31.86-9.151.036-.219-.593-.189-.696-.199-.68-.06-1.326-.277-1.995-.387.13-.756.255-1.424.368-2.001.121-.26 8.297.477 8.338.706.032.185.112.524.224.974-.633.247-1.353.479-1.611 1.327-.427 1.398 1.613 8.233 1.967 8.455.167.105 1.263.017 1.956-.06z" clip-rule="evenodd"/>
        <path fill="#7FC200" fill-rule="evenodd" d="M60.71 41.928c-.058-.147-.11-.297-.092-.347.048-.134.205-.007.268.07l.027.002c.349.019 3.673 2.04 4.59 2.773.19-.007.308.072.226.406l-.005.024c-.095 1.69.042 2.39-.687 4.297-.052.127-1.633-.953-1.682-.869-.037.063.936 9.219.917 9.424-.09 1.04-8.962.867-9.086.495-.106-.316-.035-.485.192-.792.249-2.15 1.12-8.276 1.27-9.948-.034-.004-.067-.014-.1-.032-.104-.054-.131-.172-.118-.31-.541.27-1.847 1.08-2.01 1.066-.096-.007-1.5-3.546-1.44-3.8.035-.142 3.565-1.877 4.552-2.366.038-.065.07-.12.094-.153.093-.125.21-.215.288-.016v.001l.017-.004c.006 0-.113.151-.113.292 0 .92.65 1.667 1.452 1.667.802 0 1.452-.747 1.452-1.667 0-.072-.003-.143-.011-.212z" clip-rule="evenodd"/>
        <path fill="#393939" fill-rule="evenodd" d="M68.951 74.637c0 .72-3.767.617-4.448.257-.45-.238-.408-1.272-.427-2.222.304.776 2.03.563 2.707.023 1.087.66 2.168 1.546 2.168 1.942zM52.06 74.637c0 .72 3.767.617 4.448.257.45-.238.408-1.272.427-2.222-.304.776-2.03.563-2.707.023-1.087.66-2.168 1.546-2.168 1.942z" clip-rule="evenodd"/>
        <path fill="#D48752" fill-rule="evenodd" d="M62.56 29.719l-.104-.094c-.09-.001-.152.073-.188.143-.248.49-.306 1.247-.11 1.842.079.24.34.266.54.232.487-.08.883-.33 1.257-.22.198.058.193.286.107.422-.253.399-.929.719-1.443.53l-.027-.01-.137.038.055.14c.197.117.448.141.686.122.526-.042 1.119-.28 1.339-.753.174-.376-.057-.86-.446-.978-.505-.153-.953.084-1.402.221-.214.065-.122.012-.122.012-.081-.312-.11-.637-.123-.96-.01-.25.063-.57.025-.588-.027.003.093-.1.093-.1z" clip-rule="evenodd"/>
    </g>
    <path fill="#fff" d="M114.464 51.168c-1.04 0-2.064-.184-3.072-.552-1.008-.384-1.856-.904-2.544-1.56l.744-1.512c.784.64 1.576 1.128 2.376 1.464.816.336 1.648.504 2.496.504 1.2 0 2.136-.336 2.808-1.008.688-.688 1.032-1.616 1.032-2.784 0-.752-.152-1.408-.456-1.968-.304-.576-.736-1.024-1.296-1.344-.544-.32-1.192-.48-1.944-.48-.816 0-1.552.168-2.208.504-.64.32-1.208.816-1.704 1.488h-1.368V33.912h10.248v1.632h-8.28v6.912l-.624-.072c.464-.672 1.056-1.192 1.776-1.56.736-.368 1.56-.552 2.472-.552 1.088 0 2.032.232 2.832.696.8.448 1.416 1.08 1.848 1.896.432.816.648 1.76.648 2.832 0 1.072-.24 2.024-.72 2.856-.464.816-1.128 1.456-1.992 1.92-.864.464-1.888.696-3.072.696zm11.055-10.032c-.752 0-1.4-.152-1.944-.456-.528-.32-.936-.76-1.224-1.32-.288-.56-.432-1.2-.432-1.92s.144-1.352.432-1.896c.288-.544.696-.968 1.224-1.272.544-.32 1.192-.48 1.944-.48.768 0 1.416.16 1.944.48.544.304.96.728 1.248 1.272.288.544.432 1.176.432 1.896s-.144 1.36-.432 1.92c-.288.56-.704 1-1.248 1.32-.528.304-1.176.456-1.944.456zm0-1.392c.624 0 1.096-.2 1.416-.6.32-.4.48-.968.48-1.704 0-.72-.16-1.28-.48-1.68-.32-.4-.792-.6-1.416-.6-.608 0-1.072.2-1.392.6-.304.4-.456.96-.456 1.68 0 .736.152 1.304.456 1.704.32.4.784.6 1.392.6z"/>
    <defs>
        <clipPath id="prefix__clip0">
            <path fill="#fff" d="M30 9H90V75.279H30z"/>
        </clipPath>
    </defs>
</svg>
