<?xml version="1.0" encoding="utf-8"?>
<!-- Generator: Adobe Illustrator 24.0.1, SVG Export Plug-In . SVG Version: 6.00 Build 0)  -->
<svg version="1.1" id="Capa_1" xmlns="http://www.w3.org/2000/svg" xmlns:xlink="http://www.w3.org/1999/xlink" x="0px" y="0px"
	 viewBox="0 0 846 420" style="enable-background:new 0 0 846 420;" xml:space="preserve">
<style type="text/css">
	.st0{clip-path:url(#SVGID_2_);}
	.st1{fill-rule:evenodd;clip-rule:evenodd;fill:#59318F;}
	.st2{opacity:5.000000e-02;}
	.st3{fill-rule:evenodd;clip-rule:evenodd;fill:#FFFFFF;}
	.st4{fill-rule:evenodd;clip-rule:evenodd;fill:#242F68;}
	.st5{fill-rule:evenodd;clip-rule:evenodd;fill:#A4145C;}
	.st6{fill-rule:evenodd;clip-rule:evenodd;fill:#810844;}
	.st7{fill-rule:evenodd;clip-rule:evenodd;fill:#CF4742;}
	.st8{fill-rule:evenodd;clip-rule:evenodd;fill:#B23940;}
	.st9{fill-rule:evenodd;clip-rule:evenodd;fill:#912C40;}
	.st10{fill-rule:evenodd;clip-rule:evenodd;fill:#E0594B;}
	.st11{fill:#D1E0ED;}
	.st12{fill:#582A1A;}
	.st13{fill:#FFB680;}
	.st14{fill:#EF9D65;}
	.st15{fill:#3F3F3F;}
	.st16{fill:#849EAF;}
	.st17{fill:#281805;}
	.st18{fill:#9FB6C9;}
	.st19{fill:#333333;}
	.st20{fill:#545454;}
	.st21{fill:#FFFFFF;}
	.st22{fill:#4C4C4C;}
	.st23{fill:#A54A38;}
	.st24{fill:#7E3422;}
	.st25{fill-rule:evenodd;clip-rule:evenodd;fill:#EDF2F4;}
	.st26{fill-rule:evenodd;clip-rule:evenodd;fill:#281805;}
	.st27{fill-rule:evenodd;clip-rule:evenodd;fill:#54B7F0;}
	.st28{fill-rule:evenodd;clip-rule:evenodd;fill:#121D52;}
	.st29{fill:#A3A3A3;}
	.st30{fill:#EFB27B;}
	.st31{fill:#FFD3A4;}
	.st32{fill:#6D291B;}
	.st33{fill:#C66959;}
	.st34{fill:#A4145C;}
</style>
<g>
	<defs>
		<rect id="SVGID_1_" x="0.6" width="847.2" height="420"/>
	</defs>
	<clipPath id="SVGID_2_">
		<use xlink:href="#SVGID_1_"  style="overflow:visible;"/>
	</clipPath>
	<g class="st0">
		<polygon id="path-1_1_" class="st1" points="846,491.5 0,491.5 0,-54.9 846,-54.9 		"/>
		<g id="Group" transform="translate(0.000000, 0.000000)" class="st2">
			<rect id="Rectangle-Copy" x="20" y="-13" class="st3" width="23" height="433"/>
			<rect id="Rectangle-Copy-5" x="186.8" y="-13" class="st3" width="23" height="433"/>
			<rect id="Rectangle-Copy-2" x="72.9" y="-13" class="st3" width="10" height="433"/>
			<rect id="Rectangle-Copy-6" x="229.7" y="-13" class="st3" width="10" height="433"/>
			<rect id="Rectangle-Copy-3" x="102.9" y="-13" class="st3" width="22" height="433"/>
			<rect id="Rectangle-Copy-4" x="154.8" y="-13" class="st3" width="4" height="433"/>
			<rect id="Rectangle-Copy-7" x="259.7" y="-13" class="st3" width="4" height="433"/>
		</g>
		<g id="Group-Copy" transform="translate(290.656434, 0.000000)" class="st2">
			<rect id="Rectangle" x="-10" y="-13" class="st3" width="10" height="433"/>
			<rect id="Rectangle-Copy_1_" x="20" y="-13" class="st3" width="23" height="433"/>
			<rect id="Rectangle-Copy-5_1_" x="186.8" y="-13" class="st3" width="23" height="433"/>
			<rect id="Rectangle-Copy-2_1_" x="72.9" y="-13" class="st3" width="10" height="433"/>
			<rect id="Rectangle-Copy-6_1_" x="229.7" y="-13" class="st3" width="10" height="433"/>
			<rect id="Rectangle-Copy-3_1_" x="102.9" y="-13" class="st3" width="22" height="433"/>
			<rect id="Rectangle-Copy-4_1_" x="154.8" y="-13" class="st3" width="4" height="433"/>
			<rect id="Rectangle-Copy-7_1_" x="259.7" y="-13" class="st3" width="4" height="433"/>
			<g id="Group-Copy_1_" transform="translate(290.656434, 0.000000)">
				<rect id="Rectangle_5_" x="-5.2" y="-13" class="st3" width="10" height="433"/>
				<rect id="Rectangle-Copy_3_" x="24.8" y="-13" class="st3" width="23" height="433"/>
				<rect id="Rectangle-Copy-5_3_" x="191.6" y="-13" class="st3" width="23" height="433"/>
				<rect id="Rectangle-Copy-2_3_" x="77.7" y="-13" class="st3" width="10" height="433"/>
				<rect id="Rectangle-Copy-6_3_" x="234.5" y="-13" class="st3" width="10" height="433"/>
				<rect id="Rectangle-Copy-3_3_" x="107.7" y="-13" class="st3" width="22" height="433"/>
				<rect id="Rectangle-Copy-4_3_" x="159.6" y="-13" class="st3" width="4" height="433"/>
				<rect id="Rectangle-Copy-7_3_" x="264.5" y="-13" class="st3" width="4" height="433"/>
			</g>
		</g>
		<path class="st4" d="M976.2,317.8l-10,244L459.9,525l-61.3-122.7c282.6-87.5,459.6-116.9,577.5-88"/>
		<path class="st5" d="M-142.9,389.9c0,0,85.1-104.5,357.7-82.8c0,0,91,5.9,249.6,50.2c0,0,246.3,81.6,413.5,13.5l-3.2,167.9
			l-983.9-14.6L-142.9,389.9z"/>
		<g id="Oval">
			<ellipse class="st6" cx="450" cy="399.5" rx="78.4" ry="7.5"/>
		</g>
		<g id="Oval-Copy">
			<ellipse class="st6" cx="133.8" cy="338.5" rx="45.9" ry="7.5"/>
		</g>
		<g transform="translate(727.140496, -112.000000)">
			<g id="Group-10" transform="translate(0.000000, 21.933600)">
				<g id="Group-3" transform="translate(73.513105, 233.600000)">
					<path id="Fill-1" class="st7" d="M26.4,16.1c0,0-77.5,190.5,34.5,370.3c35.5-38.3,80.9-57.1,80.9-57.1l7.7-325.9L26.4,16.1z"/>
				</g>
				<path id="Fill-4" class="st8" d="M109,228.7c0,0-15,25.4-22.7,66.9c28.4,1,56.1-5.2,56.1-5.2l5.3-40.6L109,228.7z"/>
				<path id="Fill-6" class="st9" d="M118.9,263.8l-0.4,1l-0.4,1.1l-0.9,2.2l-1.6,4.5c-0.6,1.5-1,3.1-1.5,4.6l-1.4,4.6l-2.6,9.4
					c-0.8,3.1-1.5,6.3-2.3,9.5c-0.4,1.6-0.8,3.2-1.1,4.7l-1,4.8l-1.9,9.6l-1.6,9.7l-0.8,4.8c-0.3,1.6-0.6,3.2-0.7,4.8
					c-3.7,25.8-5.4,52-5.9,78.2l-0.2,9.8l-0.1,4.9v2.5v2.5l0.3,19.7c0.1,3.3,0.1,6.6,0.2,9.8l0.5,9.8l1,19.6
					c0.1,3.3,0.5,6.5,0.7,9.8l0.8,9.8l1.7,19.6l4.6,39.1l-0.8,0.1l-5.6-39l-2.2-19.6l-1.1-9.8c-0.3-3.3-0.8-6.5-1-9.8l-1.5-19.7
					l-0.8-9.8c-0.2-3.3-0.3-6.6-0.5-9.9L90.2,437l-0.1-2.5V432v-4.9l-0.1-9.9c-0.1-26.3,0.9-52.7,4-79c0.1-1.6,0.4-3.3,0.6-4.9
					l0.7-4.9l1.4-9.8l1.7-9.8l0.9-4.9c0.3-1.6,0.7-3.2,1-4.9c0.7-3.2,1.4-6.5,2.1-9.7l2.4-9.7l1.4-4.8c0.5-1.6,0.9-3.2,1.4-4.8
					l1.6-4.8l0.9-2.4l0.4-1.2l0.5-1.3L118.9,263.8z"/>
				<path class="st10" d="M137.5,3.6L249.1,2l-7.7,310.1c-2.1-0.4-89.4-24.6-91.4-25.1c-1.4-0.3-2.8-0.6-4.2-0.9
					c-0.9-0.2-1.8-0.4-2.7-0.6c-10.3-2.4-19.9-5.3-28.8-8.7c-2.6-1-5.2-2-7.7-3.1c-4.4-1.9-8.7-3.9-12.8-6c-0.2-0.1-0.4-0.2-0.6-0.3
					C24.8,232,4.4,167.1,0.8,111.8c-3.5-53.2,8.6-97.4,8.6-97.4l6.2-0.5h0l39.5-3.4l0.9-0.1l34.9-3L105,6.4L137.5,3.6z"/>
			</g>
			<path class="st9" d="M168.6,308.2l8.3,11.8l-13.6-5.2c-4.5-1.8-9-3.7-13.4-5.8c-1.4-0.7-2.9-1.4-4.3-2.1
				c-0.8-0.4-1.6-0.8-2.4-1.2c-6.2-3.1-12.2-6.5-18-10.2c-2.8-1.7-5.5-3.5-8.1-5.4c-2.4-1.7-4.8-3.4-7.1-5.2c-4-3-7.9-6.1-11.6-9.4
				c-0.2-0.1-0.3-0.3-0.5-0.4c-2.2-1.9-4.3-3.8-6.3-5.8c-20.6-19.6-37-43.3-48.9-68.9c-10.9-23.3-18.2-48-22.7-73.1
				c-0.5-2.5-0.9-5.1-1.3-7.6c-2.2-13.9-3.5-27.9-4.1-41.9c-0.3-7-0.4-14-0.2-21c0.1-7,0.4-14,1.2-21h0.7
				c-0.5,6.9-0.7,13.9-0.7,20.9s0.3,14,0.7,20.9c0.9,13.9,2.6,27.8,5.1,41.5c0.4,2.4,0.9,4.9,1.4,7.3c5.1,24.9,12.9,49.2,24.2,71.8
				c12.3,24.8,28.8,47.5,49.2,66c1.5,1.3,2.9,2.6,4.5,3.9c0.8,0.7,1.7,1.4,2.6,2.2c12.6,10.4,26.5,19.3,41.2,26.6
				c0.2,0.1,0.4,0.2,0.6,0.3c0.9,0.4,1.8,0.9,2.6,1.3c0.1,0.2,0.3,0.3,0.5,0.5c2.3,2.4,4.7,4.7,7,7.1c0.4,0.4,0.7,0.8,1.1,1.2
				c0.8,0.8,1.5,1.6,2.2,2.4c1,1.2,2,2.4,2.7,3.4l5.3-6.6c-3.4-1.3-6.8-2.6-10.2-4.1c-2.9-1.2-5.7-2.5-8.6-3.9
				c-0.9-0.9-1.8-1.8-2.7-2.7c-0.1-0.1-0.2-0.2-0.3-0.3c-3.6-3.6-7.1-7.2-10.7-10.9c-5.9-6.3-11.8-12.7-17.3-19.3
				c-3.2-3.8-6.3-7.6-9.3-11.5c0,0,0,0,0,0c-16.6-21.4-30.7-45-40.7-70.2c-8.5-21.2-14-43.5-16.4-66.1c-0.4-4.3-0.8-8.6-1-12.9
				c-0.8-13.5-0.3-27,1-40.5c1.1-10.6,2.8-21.1,5-31.6c0.6-2.8,1.2-5.5,1.8-8.2v-0.1l0.1-0.1c3.3-3.3,6.6-6.5,10.1-9.6
				c0.5-0.5,1.1-1,1.6-1.4c3-2.6,6.1-5,9.3-7.2C80,4.6,82,3.4,84,2.4c2.1-1,4.3-1.9,6.6-2.2c1.9-0.3,3.8-0.3,5.6,0.5
				C94.4,0,92.5,0,90.7,0.3c-2.3,0.4-4.5,1.2-6.6,2.2c-2.1,1-4.1,2.2-6,3.6c-3,2.1-5.9,4.5-8.7,6.9c-0.7,0.6-1.4,1.3-2.1,1.9
				c-3.4,3.2-6.5,6.4-9.7,9.8c0,0,0-0.1,0-0.1l-0.1,0.2c0,0,0,0,0.1-0.1c-0.6,2.6-1.1,5.2-1.5,7.8c-2,10.5-3.3,21.2-4.2,31.9
				c-1,13.4-1,26.8,0.1,40.1c0.3,4,0.7,8,1.3,12C56,139,62.1,161.1,71,181.9c10.5,24.5,24.8,47.2,41.6,67.8c1.5,1.8,2.9,3.5,4.4,5.3
				c2.2,2.6,4.4,5.1,6.6,7.6c5.1,5.7,10.4,11.2,15.8,16.6c1.5,1.5,3.1,3.1,4.6,4.6c0.6,0.6,1.2,1.1,1.8,1.7c2.6,2.5,5.3,5.1,8,7.6
				c0.8,0.7,1.5,1.5,2.3,2.2c1.7,1.6,3.4,3.2,5,4.8c1.2,1.2,2.4,2.4,3.7,3.7C166.1,305.1,167.3,306.4,168.6,308.2z"/>
			<path class="st9" d="M187,246.5l-0.2,0.8c-10.7-3.2-21.1-7.9-30.6-14c-0.3-0.2-0.7-0.4-1-0.6c-9.7-6.5-18.5-14.5-25.9-23.7
				s-13.5-19.3-18.5-30S102,157.2,99,145.8c-3.6-13.8-6-27.8-7.5-42c-1-9.2-1.6-18.5-1.9-27.7c-0.3-11.7-0.2-23.5,0.5-35.2
				c0.2-3.8,0.5-7.6,0.8-11.4c0.2-2.1,0.3-4.1,0.5-6.2c0.3-2.9,0.6-5.9,1-8.8l0.6-4.4c0-0.1,0-0.2,0-0.3c0.2-1.4,0.4-2.7,0.7-4.2
				v2.8c0.3,0.2,0.5,0.1,0.7,0.1c0.2,0,0.5-0.1,0.6-0.2c0.3-0.1,0.7-0.3,1-0.5c0.5-0.3,1.1-0.7,1.5-1.1c0.9-1,1.3-1.7,1.5-2.5
				c0.1-0.7,0-1.4-0.3-1.8c0.5,0.3,1.1,0.6,1.9,0.8s1.7,0.5,3,0.8c0.6,0.2,1.4,0.3,2.1,0.5c0.4,0.1,0.9,0.2,1.3,0.4
				c0.2,0.1,0.5,0.1,0.7,0.2c0.3,0.1,0.5,0.2,0.8,0.5v2.8c-0.3,1.2-0.6,2.7-0.8,4l-0.8,4.2c-0.5,2.8-0.9,5.6-1.4,8.4
				c-0.2,1.1-0.3,2.2-0.5,3.3c-0.6,4.5-1.3,9.1-1.7,13.6c-1.2,11.3-2,22.7-2.2,34.1c-0.2,8.2-0.1,16.4,0.3,24.5
				c0.7,14.6,2.4,29.1,5.3,43.4c2.3,11.1,5.5,22.1,9.8,32.6s9.6,20.6,16.3,29.8c6.6,9,14.4,17.1,23.4,23.8c0.2,0.1,0.3,0.3,0.5,0.4
				C165.9,237.3,176.2,242.7,187,246.5z"/>
		</g>
		
			<g transform="translate(44.946871, 209.500000) scale(-1, 1) translate(-44.946871, -209.500000) translate(-48.942149, -112.000000)">
			<g id="Group-10_1_" transform="translate(0.000000, 21.933600)">
				<g id="Group-3_1_" transform="translate(73.513105, 233.600000)">
					<path id="Fill-1_1_" class="st7" d="M26.4,16.1c0,0-77.5,190.5,34.5,370.3c35.5-38.3,87.6-79.3,87.6-79.3L109.9,1.6L26.4,16.1z
						"/>
				</g>
				<path id="Fill-4_1_" class="st8" d="M109,228.7c0,0-15,25.4-22.7,66.9c28.4,1,56.1-5.2,56.1-5.2l5.3-40.6L109,228.7z"/>
				<path id="Fill-6_1_" class="st9" d="M118.9,263.8l-0.4,1l-0.4,1.1l-0.9,2.2l-1.6,4.5c-0.6,1.5-1,3.1-1.5,4.6l-1.4,4.6l-2.6,9.4
					c-0.8,3.1-1.5,6.3-2.3,9.5c-0.4,1.6-0.8,3.2-1.1,4.7l-1,4.8l-1.9,9.6l-1.6,9.7l-0.8,4.8c-0.3,1.6-0.6,3.2-0.7,4.8
					c-3.7,25.8-5.4,52-5.9,78.2l-0.2,9.8l-0.1,4.9v2.5v2.5l0.3,19.7c0.1,3.3,0.1,6.6,0.2,9.8l0.5,9.8l1,19.6
					c0.1,3.3,0.5,6.5,0.7,9.8l0.8,9.8l1.7,19.6l4.6,39.1l-0.8,0.1l-5.6-39l-2.2-19.6l-1.1-9.8c-0.3-3.3-0.8-6.5-1-9.8l-1.5-19.7
					l-0.8-9.8c-0.2-3.3-0.3-6.6-0.5-9.9L90.2,437l-0.1-2.5V432v-4.9l-0.1-9.9c-0.1-26.3,0.9-52.7,4-79c0.1-1.6,0.4-3.3,0.6-4.9
					l0.7-4.9l1.4-9.8l1.7-9.8l0.9-4.9c0.3-1.6,0.7-3.2,1-4.9c0.7-3.2,1.4-6.5,2.1-9.7l2.4-9.7l1.4-4.8c0.5-1.6,0.9-3.2,1.4-4.8
					l1.6-4.8l0.9-2.4l0.4-1.2l0.5-1.3L118.9,263.8z"/>
				<path class="st10" d="M0.8,111.8C4.4,167.1,24.8,232,93.1,267.5c0.2,0.1,0.4,0.2,0.6,0.3c4.1,2.1,8.4,4.1,12.8,6
					c2.5,1.1,5.1,2.1,7.7,3.1c8.9,3.4,18.5,6.3,28.8,8.7c0.9,0.2,1.8,0.4,2.7,0.6c1.4,0.3,2.8,0.6,4.2,0.9
					c2.1,0.4,35,14.4,37.1,14.8l64.9-308L137.5,3.6L105,6.4L90.9,7.6l-34.9,3l-0.9,0.1L15.6,14h0l-6.2,0.5
					C9.4,14.5-2.7,58.7,0.8,111.8z"/>
			</g>
			<path class="st7" d="M0.8,133.8l19.2-6.4l2.8-0.9l27.4-9l3-1l38.3-12.6l9.9-3.3l49.4-16.3l-13.3-58.7l-4.8-21l-24.2,3.2L93,9.8
				L69.4,13l-0.6,0.1c-0.5,0.5-1.1,0.9-1.6,1.4c-3.5,3.1-6.8,6.3-10.1,9.6L57,24.2v0.1c-0.6,2.7-1.3,5.5-1.8,8.2l-39.5,3.4h0
				l-6.2,0.5C9.4,36.4-2.7,80.6,0.8,133.8z"/>
			<path class="st9" d="M156.2,233.3c9.5,6.1,19.9,10.8,30.6,14l0.2-0.8c-10.8-3.8-21.1-9.2-30.3-16c-0.2-0.1-0.3-0.3-0.5-0.4
				c-9-6.7-16.8-14.8-23.4-23.8c-6.7-9.2-12-19.3-16.3-29.8c-4.3-10.5-7.5-21.5-9.8-32.6c-3-14.2-4.6-28.8-5.3-43.4
				c-0.4-8.2-0.5-16.4-0.3-24.5c0.2-11.4,1-22.8,2.2-34.1c0.5-4.5,1.1-9.1,1.7-13.6c0.2-1.1,0.3-2.2,0.5-3.3
				c0.5-2.8,0.9-5.6,1.4-8.4l0.8-4.2c0.2-1.3,0.5-2.8,0.8-4V5.6c-0.3-0.3-0.5-0.4-0.8-0.5C107.5,5,107.2,5,107,4.9
				c-0.4-0.2-0.9-0.3-1.3-0.4c-0.7-0.2-1.5-0.3-2.1-0.5c-1.3-0.3-2.2-0.6-3-0.8s-1.4-0.5-1.9-0.8C99,2.8,99.1,3.5,99,4.2
				c-0.2,0.8-0.6,1.5-1.5,2.5c-0.4,0.4-1,0.8-1.5,1.1c-0.3,0.2-0.7,0.4-1,0.5c-0.1,0.1-0.4,0.2-0.6,0.2S94,8.6,93.7,8.4V5.6
				c-0.3,1.5-0.5,2.8-0.7,4.2c0,0.1,0,0.2,0,0.3l-0.6,4.4c-0.4,2.9-0.7,5.9-1,8.8c-0.2,2.1-0.3,4.2-0.5,6.2
				c-0.3,3.8-0.6,7.6-0.8,11.4c-0.7,11.7-0.8,23.5-0.5,35.2c0.3,9.2,0.9,18.5,1.8,27.7c1.5,14.1,3.9,28.2,7.5,42
				c3,11.4,6.8,22.5,11.8,33.2s11.1,20.8,18.5,30c7.4,9.2,16.2,17.2,25.9,23.7C155.5,232.9,155.9,233.1,156.2,233.3z"/>
			<path class="st9" d="M14.6,77.9c0.6,14,1.9,28,4.1,41.9c0.4,2.5,0.8,5.1,1.3,7.6c4.5,25.1,11.8,49.8,22.7,73.1
				c11.9,25.6,28.3,49.3,48.9,68.9c2.1,2,4.2,3.9,6.3,5.8c0.2,0.1,0.3,0.3,0.5,0.4c3.8,3.3,7.6,6.4,11.6,9.4
				c2.4,1.8,4.7,3.5,7.2,5.2c2.7,1.8,5.4,3.6,8.1,5.4c5.8,3.7,11.8,7.1,18,10.2c0.8,0.4,1.6,0.8,2.4,1.2c1.4,0.7,2.8,1.4,4.3,2.1
				c4.4,2.1,8.9,4,13.4,5.8l13.6,5.2l-8.3-11.8c-1.3-1.8-2.5-3.1-3.7-4.4l-3.7-3.7c-1.6-1.6-3.3-3.2-5-4.8c-0.8-0.7-1.5-1.5-2.3-2.2
				c-2.7-2.5-5.4-5.1-8-7.6c-0.6-0.6-1.2-1.1-1.8-1.7c-1.6-1.5-3.1-3-4.7-4.6c-5.4-5.4-10.7-10.9-15.8-16.6c-2.3-2.5-4.5-5-6.7-7.6
				c-1.5-1.8-3-3.5-4.4-5.3c-16.8-20.6-31.1-43.3-41.6-67.8c-8.9-20.8-15-42.9-17.8-65.4c-0.5-4-0.9-8-1.3-12
				c-1.1-13.3-1.1-26.7-0.1-40.1C52.7,53.7,54.1,43,56,32.5c0.5-2.6,1-5.2,1.5-7.8c0,0,0,0.1-0.1,0.1l0.1-0.2c0,0,0,0.1,0,0.1
				c3.2-3.4,6.4-6.6,9.7-9.8c0.7-0.6,1.4-1.3,2.1-1.9c2.8-2.4,5.6-4.8,8.7-6.9c1.9-1.4,3.9-2.6,6-3.6c2.1-1,4.3-1.8,6.6-2.2
				C92.5,0,94.4,0,96.2,0.7c-1.7-0.8-3.7-0.8-5.6-0.5c-2.3,0.3-4.5,1.2-6.6,2.2c-2,1-4,2.2-5.9,3.5c-3.2,2.2-6.3,4.6-9.3,7.2
				c-0.5,0.5-1.1,0.9-1.6,1.4c-3.5,3.1-6.8,6.3-10.1,9.6L57,24.2v0.1c-0.6,2.7-1.3,5.5-1.8,8.2c-2.2,10.4-3.9,21-5,31.6
				c-1.3,13.5-1.8,27-1,40.5c0.2,4.3,0.6,8.6,1,12.9c2.4,22.6,7.9,45,16.4,66.1c10,25.2,24.1,48.8,40.7,70.2c0,0,0,0,0,0
				c3,3.9,6.1,7.8,9.3,11.5c5.6,6.6,11.4,13,17.3,19.3c3.5,3.7,7.1,7.3,10.7,10.9c0.1,0.1,0.2,0.2,0.3,0.3c0.9,0.9,1.8,1.8,2.7,2.7
				c2.8,1.4,5.7,2.6,8.6,3.9c3.4,1.5,6.8,2.8,10.2,4.1l-5.3,6.6c-0.7-1-1.7-2.2-2.7-3.4c-0.7-0.8-1.4-1.6-2.2-2.4
				c-0.4-0.4-0.7-0.8-1.1-1.2c-2.3-2.4-4.7-4.7-7-7.1c-0.2-0.2-0.3-0.3-0.5-0.5c-0.9-0.4-1.8-0.8-2.6-1.3c-0.2-0.1-0.4-0.2-0.6-0.3
				c-14.7-7.3-28.5-16.1-41.2-26.6c-0.9-0.7-1.7-1.4-2.6-2.2c-1.5-1.3-3-2.6-4.5-3.9c-20.4-18.5-36.9-41.2-49.2-66
				c-11.3-22.6-19.1-46.9-24.2-71.8c-0.5-2.4-1-4.9-1.4-7.3c-2.5-13.7-4.2-27.6-5.1-41.5c-0.4-6.9-0.7-13.9-0.7-20.9
				s0.2-14,0.7-20.9h-0.7c-0.8,7-1.1,14-1.2,21C14.2,63.9,14.3,70.9,14.6,77.9z"/>
		</g>
		<g id="dance">
			<g id="Path" transform="translate(342.595041, 87.000000)">
				<path class="st11" d="M95.8,197.3c-3.7,14.2-2.2,18.9-5.4,23.6c-8.6,12.4-14.2,28.8-18.9,41.7c-3.1,8.6-10,18.4-17,32.5
					c-1,2.1-2.2,5-0.5,6.6c2.8,2,6.8,1.5,9-1.3c9.6-11.2,12.5-10.8,14.8-13.4s-0.3-6.9,2.7-13.6c1.5-3.3,8.6-18.5,16-26.2
					c8.6-9,7.3-21.5,9.3-24.3c11.8-17.3,24-39.8,24-39.8l-21.5-13C102.4,178.2,98.2,187.5,95.8,197.3L95.8,197.3z"/>
				<path class="st11" d="M158.7,297.3c-4.9-1.4-15.9-3.4-18.2-7.5c-0.7-1.3,0-8.9,1.3-14.6c2.7-12.1,3.1-27.5,7.4-38.8
					c3.7-9.6-0.7-46.1-0.7-46.1l-15.7-3.8c0,0,0,30.1-2.9,40.5c-3.4,11.7-3.7,13.4-1.9,31.5c1.9,19.8,0.7,23.7-1.9,33.9
					c-2.6,10.2,2.9,11.3,9.7,11.3c8.8,0,12.7-0.8,26.5-0.8C167.5,302.9,164.2,298.9,158.7,297.3z"/>
				<path class="st12" d="M115.5,34.6c-1.2-0.3-20.5,7.9-21.2,10s-5.2,18.1,6.9,25.9c4.7,3.1,10.7,3.5,15.8,1.1
					c2.3-0.6,7.5-13.1,9.5-17.9C129.8,46.1,125.8,37,115.5,34.6z"/>
				<path class="st13" d="M108.3,67.4l0.3,0.3c0-0.1,0-0.2,0-0.3H108.3z"/>
				<path class="st13" d="M126.1,72.6c-0.6,1-1.3,1.9-2.1,2.7c-2.9,2.9-9.4,1-12.7-0.3c-0.4,1.2-1.2,2.2-2.2,2.9
					c-4,3.1,8,8.2,11.5,10.2s15.9,14.4,15.9,14.4V71.7C133.2,72.9,129.6,73.2,126.1,72.6z"/>
				<path class="st14" d="M121.2,66.4c-0.5-4.8-11.1,0-12.7,0.8c0,0.1,0,0.2,0,0.3c0.9,0.9,3.9,4.1,2.9,7.4
					c3.3,1.2,9.9,3.2,12.7,0.3c0.8-0.8,1.5-1.8,2.1-2.7C123.4,71.9,121.3,69.4,121.2,66.4z"/>
				<path class="st13" d="M33.5,120.4c-9.2,5.9-12.8,12-4.3,10.3c3.6-0.6,6.9-2.3,9.6-4.8c1-0.6,1.5,0.5,0,2.5
					c-0.9,1.2-1.4,2.6-1.6,4c-0.6,3.5,0,4.1,4.5-1.6s6.5-7.9,6.5-7.9l-4.2-8.3C43.9,114.6,42.8,114.6,33.5,120.4z"/>
				<path class="st14" d="M211.7,19.5c-2,0.7-2.2,1.5-3.6,1.6c-1.9,0.2-2.5-0.5-0.3-2.9c4.3-4.6,9.3-7.7,3.9-7.6
					c-3.2,0-8,3.1-10.9,5.8c-3,2.8-5.7,6-7.9,9.5l7,3.7c2-1.8,4.4-3.2,6.9-3.9c2.6-0.8,4.6-3.5,5.8-4.2
					C215.4,19.7,215.1,18.3,211.7,19.5z"/>
				<path class="st15" d="M177.8,40.1c-8.9,5.8-26.3,20.6-30.3,24.1s-15.6,8.6-19.7,8.6c5.5,8.8,7.8,19.3,6.5,29.7
					c-4.9-11.5-25.1-24.6-25.1-24.6l-10.6,6.6c-4.7,2.9-11.7,10.9-16.2,13.7c-9.5,5.9-35.4,14.1-40,16.3c2.9,1.8,5.1,10.9,5.1,10.9
					s12.3-2.9,28.8-6.3c13.2-2.9,26.9-13.7,32.1-9.4c5.2,4.2,8.5,28.6,8.5,28.6l31.6-1.1c0,0,9.2-44.4,7.1-52.2s21.1-16.8,26.7-23.8
					c5.6-7,20.1-32.4,20.1-32.4L192,23.5C188.6,30.1,183.8,35.8,177.8,40.1z"/>
				<polygon class="st11" points="46.7,125.8 50.7,124.6 54.2,110 41.8,114.5 				"/>
				<polygon class="st11" points="186.2,32.2 200.2,32.8 202.5,28.8 191.2,22.9 				"/>
				<path class="st11" d="M127,72.7c1.2,4.6,5.8,15.4,3.7,19.6c-6.8-4.1-15.1-14.4-19.8-16.5c-2.4,2.2-4,3.5-4,3.5
					s27.3,21.7,29.6,24.8c1.4-14.4-5.2-31.7-5.2-31.7L127,72.7z"/>
				<path class="st14" d="M203,3.3c2.1-3.9,0-4.4-4.2-1.2c-4.9,3.7-11.8,8.6-12.6,13.9s-0.2,10.9-3.1,17.8c-4.6,11-5,24-9.1,31.7
					c-2.4,4.6-9.4,11-11.7,19.5c-0.9,3.1,11,15.9,11,12.8c0-6.7,5.5-15.2,7.7-21.8c2.9-8.6,5.4-12,7.4-23.7
					c1.9-10.6,3.2-21.3,3.9-32.1c0-2.6,1.2-3.9,4.1-4.4c2.3-0.7,4.4-1.9,6.2-3.6c1.5-1.1,1.3-1.7-0.5-1.3c-1.2,0.2-3.5,1.9-4.2,0.5
					c-0.3-0.6,0.8-2.4,2.3-4.3C201.2,6,202.2,4.7,203,3.3z"/>
				<path class="st13" d="M111.8,94c-10.2,0.9-25.2,1.3-31.2,1.8c-8.6,0.7-11,1.9-21.8,6.8c-3.3,1.5-4.6,4.3,1.8,3.2
					c3.2-0.7,6.2-1.8,9.1-3.2c3.1-0.9,0.5,3.6-1.2,5.3c-2.5,2.6,0.4,3.1,5.8-2.6c2.4-2.5,6.9-2.9,10.6-2.9c9.6,0,26,5.8,36.4,2.9
					c8.6-2.4,14.8,0.7,17.7,5.2c1.2,1.8,2.6,3.5,4.2,5c1.6-2,3.7-4.5,4.4-5.3c2.2-2.3,3.2-9,0.9-14.4c-1.7-3-4-5.6-6.7-7.6
					c-0.7,0.4-1.5,0.6-2.3,0.6C133.1,89.1,123.8,92.9,111.8,94z"/>
				<path class="st13" d="M158.5,80.8c-1.3,0.9-2.7,1.6-4.3,2.1c-3,0.7-6.2,0.5-9.1-0.5c-0.2,2.3-1.5,4.4-3.4,5.8
					c4.7,0.8,9.3,2,13.8,3.5c5.3,1.8,10.3,4,15.2,6.7v-8.6c-3.6-2.1-7.2-4.4-10.5-6.9C159.5,82.3,158.9,81.6,158.5,80.8z"/>
				<path class="st14" d="M157.1,72l-11.7,4.7c0.1,1.9,0.1,3.9-0.3,5.8c2.9,1,6.1,1.2,9.1,0.5c1.5-0.5,2.9-1.2,4.3-2.1
					C157.3,78.1,156.8,75,157.1,72z"/>
				<path class="st11" d="M173.2,91.4c-0.8-0.7-1.7-1.2-2.6-1.8v8.6c-4.8-2.7-9.9-5-15.2-6.7c-4.5-1.5-9.1-2.7-13.8-3.5
					c2.8,2,5,4.6,6.7,7.6c2.2,5.4,1.2,12.1-0.9,14.4c-0.2,0.2-0.5,0.5-0.8,0.9c1.9,2.1,3.6,4.4,5.1,6.8c3.2,4.5,4.1,10.2,2.4,15.5
					c-0.1,0.2-0.2,0.5-0.3,0.7c6.5,3.1,13.3,5.7,20.1,7.9c2.4-22.8,2.9-27.6,3.7-35.2C178.6,99.9,180.1,96.8,173.2,91.4z"/>
				<path class="st16" d="M146.7,111.1c-1,1.1-2.4,2.9-3.6,4.4c1.2,1.2,2.6,2.6,4.4,4.2c2.4,3.1,2.8,7.3,0.9,10.7
					c1.7,1.5,3.5,2.7,5.6,3.6c0.1-0.2,0.2-0.5,0.3-0.7c1.7-5.3,0.8-11-2.4-15.5C150.3,115.5,148.6,113.2,146.7,111.1z"/>
				<path class="st14" d="M137.4,99.1c-4.6-2.3-11.5,2.1-11.5,2.1c7.7,0,10.3,4.4,14.7,5.5S142,101.4,137.4,99.1z"/>
				<path class="st13" d="M141.6,45.2c-7.4,2.9-10.7,12.2-7.4,21s12,13.7,19.4,10.9c7.4-2.8,10.7-12.2,7.4-21S148.9,42.5,141.6,45.2
					z"/>
				<path class="st13" d="M105.8,37.8c-7.4,2.9-10.7,12.2-7.4,21c1.8,5,5.6,8.9,10.5,10.8c2.9,1.1,6.1,1.1,9,0
					c7.4-2.9,10.7-12.2,7.4-21S113.2,35,105.8,37.8z"/>
				<path class="st17" d="M152.9,43.9c-4.5-3.1-10.3-3.7-15.3-1.4c-3.3,1.6-6,4.1-7.8,7.2c0.1,4.6,1,9.1,2.9,13.3
					c2.2,4.8,4.1,9.1,7.7,10.2c2.2-6.4,3.7-11.1,1.7-15c-1.9-4-0.3-8.8,3.6-10.9c6.6-2.9,12.2,3.5,12.2,3.5S158.6,48.1,152.9,43.9z"
					/>
				<path class="st17" d="M132.8,63c-1.8-4.2-2.8-8.7-2.9-13.3c-2.7,5.7-2.4,12.4,0.7,17.9c2.5,4.1,6.6,7.1,11.3,8.2
					C143.4,75,134.9,67.7,132.8,63z"/>
				<path class="st16" d="M151.8,167.2c-18.3-12.8-38.5-39.4-51.5-46.7c-7.2-4.1-14.6,2.1-14.6,2.1c-1.5,1.1-2.7,2.6-3.6,4.3
					c-1.8,8.2,1.9,21.1,18.1,39.6c20.9,23.9,49.6,28.2,73.8,27.4c18.5-0.6,30.6-3.7,38.4-7.5C200.7,189,175.3,183.7,151.8,167.2z"/>
				<path class="st18" d="M144.7,159.6l-11.9-12.7c-1.8-0.3-30.2,16.9-39.8,21.9c-8.1,4.3-25.9,6.8-34.1,12.2
					c-11.3,7.4-28,17.9-34.5,19.2c-9.2,1.8-19.9,3.1-23.5,9.1c-1,1.7,0.7,8.6,2.3,9.3c5.8,2.2,15-3.4,21-5c8.6-2.4,9-8.4,17.4-10.7
					c5.1-1.4,19.2-5.5,27.5-8.6c5.5-2.1,12.7-6.8,17.5-7.5c11.8-1.8,24.3-6.7,31.8-8.6c7.2-2.1,14.1-5,20.7-8.6
					c2.9,13.1,6.8,32.5,7.4,37.8c0.6,5.2,2.4,9.2,0.6,17c-2.8,12.5-3.1,25.5-1,38.1c1.8,11.2-0.5,11.9-3.2,16.7
					c-2.7,4.8,1.5,7.2,3.9,11.5c2.3,4.3,2.6,9.4,3.6,15c0.5,2.9,4.1,2.9,5.1-1.2c3.3-12.7-0.2-22.3,0-27c0-3.5,0.5-9.5,0.9-12.9
					c2.7-19.2,9.4-35.5,8.6-49c-1.1-16.3,2.1-45.2,2.1-45.2S155.1,163.8,144.7,159.6z"/>
				<path class="st11" d="M173.8,137.1l-25.9-8.6c0,0-32.8-14.9-53.6-12.7c-6,0.7-10.9,5.2-12.1,11.1c0.8-1.7,2.1-3.2,3.6-4.3
					c0,0,7.3-6.2,14.6-2.1c13,7.3,33.2,33.9,51.5,46.7c23.5,16.4,48.9,21.8,60.6,19.2c11.5-5.6,13.6-12.9,12.5-16.4
					C223.2,164.2,173.8,137.1,173.8,137.1z"/>
				<path class="st12" d="M102.1,35.8c-5.9,3.1-9.3,9.4-8.8,16c0.3,5.4,2.4,12.2,5,14.2c5.8,4.4,7.5,4.1,6.4,2
					c-2.9-5.4-2.4-10-1.8-17.3c5.2-1.4,9.8-4.7,12.8-9.2c11.3,3.5,7.8-2.9,7.8-2.9C117.9,33,109.1,31.8,102.1,35.8z"/>
			</g>
		</g>
		<g id="violin-2" transform="translate(95.886659, 106.000000)">
			<path id="Path_41_" class="st19" d="M15,116.2c0,0,2.4,42.2,8.7,57.2c5.9,13.9,14.4,18,14.4,18l4.8-39.2l5.5,39.4
				c6.2-5.6,10.8-12.8,13.2-20.8c6.3-19.9,9.1-56.2,9.1-56.2S59.3,91.4,58.3,91.1C57.2,90.8,15,116.2,15,116.2z"/>
			<path id="Path_42_" class="st15" d="M69.2,221.4c3,2.2,6.2,4.3,9.6,6c3.5,1.6,5.8,3.4,6.2,6.5c0.4,3-4.3,3.7-10.9,2.9
				c-6.7-0.8-10-5-10.7-4.5c-2.7,1.8-6.9-1.2-6.9-1.2v-8.7L69.2,221.4z"/>
			<path id="Path_43_" class="st15" d="M37.5,224.3c3,2.2,6.2,4.3,9.6,6c3.4,1.6,5.7,3.4,6.2,6.5c0.4,3-4.2,3.8-10.9,2.9
				s-10.1-5-10.8-4.5c-2.7,1.8-6.9-1.2-6.9-1.2v-8.7L37.5,224.3z"/>
			<path id="Path_44_" class="st20" d="M21,102.6c-1.1,14.8-1.5,29.6-1.1,44.5c0.8,20.3,2.2,77,2.2,77c3.3,1.6,6.8,2.6,10.5,2.9
				c2.9,0,5.7-1,8-2.7l3-51.7c0.4-6.4,1.7-34,1.7-34l2.4,0.1l5.6,85.4c2.8,0.6,5.7,1,8.6,1.3c4-0.3,7.9-1.4,11.3-3.4
				c0,0-0.2-25.4-1.1-56.1c-0.6-19.2-3.1-36.9-3.4-44c-0.7-17.4-3-24.9-3-24.9L21,102.6z"/>
			<path id="Path_45_" class="st14" d="M53.2,37.8c-0.6-3.9-17.1-3.2-17.1-3.2c0.1,1.9-0.5,3.8-1.6,5.4c-1.8,2.4,2.4,11.4,11.7,10.1
				s9.8-6.7,9.8-6.7C54.5,41.9,53.5,39.9,53.2,37.8L53.2,37.8z"/>
			<polygon id="Path_46_" class="st21" points="38.7,47.1 31.4,47.9 33.3,102.3 42.6,107.7 47.6,101.4 54,106.9 63.1,100.9 
				60.1,48.3 			"/>
			<path id="Path_47_" class="st15" d="M18.5,76.1c0,0,2.9-9.3,1.6-16.2c-0.7-3.4-3.7-13.4-3.7-13.4s-10.9,21-16,33.2
				c-1.1,2.6-0.2,6.5,5.3,9.6c4.8,2.8,25.1,2.6,25.1,2.6l-1.7-13.2L18.5,76.1z"/>
			<path id="Path_48_" class="st15" d="M34.6,40l-18.2,6.4c0,0,1.3,57-1.3,69.8c12.2,5.5,28.5-15.4,28.5-15.4L39,62.4L34.6,40z"/>
			<path id="Path_49_" class="st15" d="M54.9,38.8l-0.2,17.7l-0.6,42.3c0,0,12,18.1,16.4,15.8c-2.1-13.7-3.2-68.3-3.2-68.3
				L54.9,38.8z"/>
			<polygon id="Path_50_" class="st21" points="33,43 34,52.5 44.4,46.5 34.8,38.5 			"/>
			<polygon id="Path_51_" class="st21" points="44.4,46.5 54.7,53.2 56,43.3 54.3,39.1 			"/>
			<path id="Path_52_" class="st20" d="M37.3,44.4c-2.4,0.5-2.3,6.8,0,6.9c6.5,0.3,7.2-4.5,7.2-4.5S40.1,43.9,37.3,44.4z"/>
			<path id="Path_53_" class="st20" d="M51.6,44.6c-2.7-0.6-7.2,2.2-7.2,2.2s0.5,4.8,7,4.7C53.7,51.5,54,45.2,51.6,44.6z"/>
			<path id="Path_54_" class="st22" d="M44.5,46.3c-0.4,0.1-0.7,0.4-0.7,0.9c0,0.4,0.3,0.8,0.7,0.9c0.5,0,0.9-0.4,0.9-0.9
				S45,46.3,44.5,46.3z"/>
			<path id="Path_55_" class="st20" d="M25.3,54.9L36.8,58L30,69.2c5.8,9.9,10.4,20.6,13.5,31.6c2.4-31.9-9.3-60.6-9.3-60.6
				L25.3,54.9z"/>
			<path id="Path_56_" class="st20" d="M56.8,41.3c0,0-1.9,1.9-3.6,15c-1.4,10.3,0.2,28.3,1,42.5c8.4-20.4,8.2-32.2,8.2-32.2l-6.5-9
				l13.7-2.9L56.8,41.3z"/>
			<path id="Path_57_" class="st15" d="M81.5,71.4c-9.1-20.8-14.1-25.1-14.1-25.1L66,73.7c2.7,4.3,6,8.3,9.7,11.8
				c5.4,4.1,9.8-0.3,11.7-2.1c3.7-3.7,6.6-8.2,8.3-13.2c-2.8-1.1-5.4-2.7-7.6-4.8C85.8,67.3,83.5,69.2,81.5,71.4z"/>
			<path id="Path_58_" class="st23" d="M80.4,37.6c-0.2,2.2-3.5,2.1-5.5,0.9c-1-0.4-1.8-1.3-2-2.3s0-2.2,0.7-3
				c-4.6-4.1-12.9-9-18.6,1.2c0,0-7.4,7.7-2.6,14.4c3.2,4.5,6.2,6.9,9.7,6.6c0.4-1.3,1.4-2.3,2.7-2.8c1.3-0.5,2.7-0.3,3.8,0.4
				c3.1,1.6,3.5,4.6,1.5,5.3c1.7,4.6,10.4,5.5,13.9,3.8c7.6-3.7,10-9.7,6.6-16.2C88.2,42.1,84.6,39.2,80.4,37.6L80.4,37.6z"/>
			<path id="Path_59_" class="st13" d="M47.2,2.6c-9-0.5-14,8.5-14.6,19.2c-0.3,6.1,0,10.9,3.4,14.7c2.7,2.9,6.6,6.6,10.5,5.9
				c5-1,9.2-4.2,11.5-8.7c0.8-2.2,1.2-4.5,1.1-6.9c0.1-0.8,2.5-5.2,2.6-6.1C62.2,10.1,56.2,3.1,47.2,2.6z"/>
			<path id="Path_60_" class="st12" d="M47,0c-7.4,0-16,1.2-17.9,11.6c-1.6,9,1.7,12.9,1.7,12.9s2.9-4.1,5.8-8.4s10.6,6,15.8,6.6
				c9.2,1.2,10.9-0.2,10.2-7.7C62,7.6,56.6,0,47,0z"/>
			<polygon id="Rectangle_3_" class="st24" points="57.9,38.8 59.9,35.5 106.6,65.1 104.5,68.3 			"/>
			<polygon id="Rectangle_4_" class="st24" points="55.5,40.3 61,32.8 62.4,33.8 56.8,41.3 			"/>
			<polygon id="Path_61_" class="st24" points="48.5,77.2 49.8,77.9 81.8,29.3 79.5,29.9 			"/>
			<path id="Path_62_" class="st13" d="M55.6,75.5c-3.6-1.2-7.4-1.3-11-0.2c-5.1,2.1-10.6,3.4-16.1,3.8l0.6,7.6
				c0,0,7.5,1.9,12.6-0.4c4.1-1.8,4.1-4,7.9-5.1C55.7,79.5,57.5,76.2,55.6,75.5z"/>
			<path id="Path_63_" class="st13" d="M94.1,44.9c-4.3-3.7-6.1,4.5-4.8,11.4c0.9,3.3,0.8,6.7-0.2,9.9c0,0,0.7,1.4,5.4,3.5
				c1.3-2.9,2.4-5.2,3.5-7.6s1.2-4,0.4-9.4C98,49.7,96.5,46.8,94.1,44.9z"/>
			<path id="Path_64_" class="st20" d="M45.5,52.8c-0.5-0.1-1.1,0-1.4,0.5c-0.3,0.4-0.3,1,0,1.4s0.9,0.6,1.4,0.5
				c0.5,0.1,1.1,0,1.4-0.5c0.3-0.4,0.3-1,0-1.4C46.6,52.8,46.1,52.7,45.5,52.8L45.5,52.8z"/>
			<path id="Path_65_" class="st20" d="M46.7,61.3c-0.5-0.1-1.1,0-1.4,0.5c-0.3,0.4-0.3,1,0,1.4s0.9,0.6,1.4,0.5
				c0.5,0.1,1.1,0,1.4-0.5c0.3-0.4,0.3-1,0-1.4C47.8,61.3,47.3,61.1,46.7,61.3z"/>
			<path id="Path_66_" class="st20" d="M47.3,69.6c-0.3,0-0.7,0.1-0.9,0.3c-0.2,0.2-0.4,0.5-0.4,0.9c0.2,0.5,0.6,0.9,1.2,0.9
				c0.6,0,1-0.4,1.2-0.9C48.4,70.2,48,69.7,47.3,69.6L47.3,69.6z"/>
			<path id="Path_67_" class="st20" d="M48.4,85c-0.3,0-0.7,0.1-0.9,0.3c-0.2,0.2-0.4,0.5-0.4,0.9c0.2,0.5,0.6,0.9,1.2,0.9
				c0.6,0,1-0.4,1.2-0.9C49.5,85.6,49,85,48.4,85z"/>
			<path id="Path_68_" class="st20" d="M48.2,94.1c-0.5-0.1-1.1,0-1.4,0.5c-0.3,0.4-0.3,1,0,1.4s0.9,0.6,1.4,0.5
				c0.5,0.1,1.1,0,1.4-0.5c0.3-0.4,0.3-1,0-1.4C49.3,94.1,48.7,93.9,48.2,94.1L48.2,94.1z"/>
			<path id="Path_69_" class="st24" d="M104.9,64l-2.2,3.2c0,0,3.5,6.2,8.1,6.5c1.6,0.1,3-0.6,3.8-2c0.8-1.3,0.7-3-0.1-4.3
				C112.5,64.8,104.9,64,104.9,64z"/>
			<path id="Path_70_" class="st13" d="M34.4,21.9c0,0-3.3-3.4-5.1,0c-1.8,3.4,3.9,6.8,3.9,6.8L34.4,21.9z"/>
			<path id="Path_71_" class="st14" d="M32.9,22.8c-0.4-0.5-1.1-0.8-1.7-0.7c-0.6,0.2-0.9,1.1-0.6,1.3c0.3,0.2,0.3-0.8,0.8-0.8
				c0.6,0.1,1,0.6,0.9,1.2c-0.1,0.4-0.3,0.7-0.5,1.1c-0.2,0.5-0.1,1.1,0.3,1.5c0.1,0.1,0.6,0.3,0.6,0c0.1-0.3-0.7-0.9,0-1.7
				S33.3,23.3,32.9,22.8z"/>
		</g>
		<g id="Group-12" transform="translate(465.000000, 122.000000)">
			<g id="Group-3_2_" transform="translate(22.800000, 1.167240)">
				<path id="Fill-1_2_" class="st25" d="M0.3,0.3c0,0,1.6,0.9,2.1,1.1c1.3,0.4,2.2-0.1,4.3,1.7c3.8,3.3,7.4,6.4,3.5,10.4
					c-0.1,0.1-10-8.8-10-8.8L0.3,0.3z"/>
			</g>
			<g id="Group-6" transform="translate(0.000000, 3.567240)">
				<path id="Fill-4_2_" class="st26" d="M12.2,30.4c0,0-8.7,3.4-11.5-3.7C-1.7,20.9,3,17.9,3,17.9S-0.5,9.2,6.2,4
					C17-4.5,26.1,4,26.1,4L18,26L12.2,30.4z"/>
			</g>
			<path id="Fill-7" class="st26" d="M20.8,5.5c2.2,0.7,6.5,5.7-0.8,9.9c-11.4,6.5-7.8,10.8-7.8,10.8s-4.6,1-5.9-8.7
				c-1.4-9.7,3.3-11.1,7-11.9S19,4.9,20.8,5.5"/>
			<g id="Group-11" transform="translate(4.800000, 0.567240)">
				<path id="Fill-9" class="st25" d="M3,18.4c0.1-1.2-1.2-3.5-1-5.5C2.6,9,5.3,7.4,6.7,6.6c0.8-0.5,1.1-0.4,2.5-2.5
					c1.1-1.7,3.7-3.3,5.3-3.6c4.2-0.8,8.6,2,6.7,5.8c-0.1,0.2-4.6-1.1-8.1,2c-3.9,3.4-4.9,6.9-5.5,12.9c-0.3,3.5-0.4,10-0.4,10
					c-0.3,0.9-3.3-0.1-4.4-1.5c-0.9-1.1-1.4-2.1-1.6-4.5C0.9,22,2.8,20.7,3,18.4"/>
			</g>
		</g>
		<g id="Group-3_3_" transform="translate(489.000000, 129.000000)">
			<path id="Fill-1_3_" class="st26" d="M9.1,11.7c6.8,2,6.5,6.3,6.5,6.3s1.8-8.8-2.3-14c-1.9-2.4-5.2-3.2-8-3.8C2.6-0.5,0,1,0,1
				S3.6,10,9.1,11.7z"/>
		</g>
		<g id="Group-4" transform="translate(471.000000, 137.000000)">
			<path id="Path-4" class="st27" d="M2.5,4.9C0,5.4-0.6,6.3,0.6,7.7s2.2,1,2.8-1.2C4.2,9.3,5,10.4,5.6,9.7c1-0.9,2.4-4.3,0.6-4.8
				C5.1,4.6,3.8,4.6,2.5,4.9z"/>
			<path id="Path-4-Copy" class="st27" d="M5.5,5C8,4.6,8.6,3.6,7.4,2.3s-2.2-1-2.8,1.2C3.7,0.6,3-0.5,2.4,0.2C1.4,1.1,0,4.5,1.7,5
				C2.9,5.3,4.1,5.3,5.5,5z"/>
			<ellipse id="Oval_2_" class="st3" cx="3.7" cy="5.2" rx="3.6" ry="1"/>
		</g>
		<g id="Oval_3_">
			<ellipse class="st28" cx="678.2" cy="366.9" rx="78.4" ry="7.5"/>
		</g>
		<g id="violin" transform="translate(616.271547, 106.000000)">
			<polygon id="Path_1_" class="st29" points="151.3,233.3 148.3,233.3 146.2,173.6 154.2,173.6 			"/>
			<polygon id="Path_2_" class="st29" points="136.3,244.4 133.4,244.4 131.3,184.8 139.2,184.8 			"/>
			<path id="Path_3_" class="st30" d="M119.6,186.5c8.4,1.7,17,1.4,25.2-0.7c12.8-3.2,17.2-8.8,16.1-13.7
				c-0.9-4.1-10.9-5.7-10.9-5.7l-25.6,2.6L119.6,186.5z"/>
			<path id="Path_4_" class="st31" d="M110.9,180.2c0,0,18.1,5,34,0.5s15.7-10.5,8.7-15s-29.1-5.7-29.1-5.7L110.9,180.2z"/>
			<path id="Path_5_" class="st15" d="M26.4,224.2c0,0-10,2.8-15.1,4s-8.9,3.3-10.3,7.3s4.9,6.4,14.3,6.9s15.1-4.4,16-3.5
				c3.3,3.2,9.8,0.2,9.8,0.2l1.4-7.1L26.4,224.2z"/>
			<path id="Path_6_" class="st15" d="M101.7,246c0,0-8.7,5.6-13.2,8.4s-7.4,5.8-7.5,10.1c0,4.3,6.5,4.6,15.6,2.2s13.1-8.8,14.2-8.2
				c4.1,2.1,9.4-2.8,9.4-2.8l-0.8-7.2L101.7,246z"/>
			<path id="Path_7_" class="st20" d="M136.3,139.4c0,0,7.7,14.1,3.2,25c-2.7,6.5-7.7,11.8-14,14.9v62.4c0,0-3.2,9.6-16,9.6
				c-8.2,0-15.5-6.4-15.5-6.4s4.8-52.4,4.8-60.6c-0.1-8.2-0.3-40.4,7.5-44.8S136.3,139.4,136.3,139.4z"/>
			<path id="Path_8_" class="st20" d="M44.3,169l-24.1,52.4c3.6,5.1,8.8,8.8,14.7,10.6c5.2,1.9,10.8,1.9,16,0l16.4-51.7L44.3,169z"
				/>
			<path id="Path_9_" class="st14" d="M119.7,54.5c0,0-17.2-0.9-17.9,3.1c-0.3,2.2-1.4,4.3-3.1,5.8c0,0,0.4,5.7,10.2,7.2
				s14.2-7.9,12.4-10.4C120.2,58.5,119.6,56.5,119.7,54.5L119.7,54.5z"/>
			<polygon id="Path_10_" class="st21" points="94.4,68.5 90.6,123.5 100,129.8 106.8,124.2 111.9,130.8 121.7,125.3 124.4,68.5 
				116.9,67.5 			"/>
			<path id="Path_11_" class="st15" d="M140.2,67.2c0,0-3.3,10.4-4.1,14c-1.5,7.2,1.5,16.9,1.5,16.9l-7.7,1.1l0.8,13.5
				c-3.2,2.6,20.5,2.6,26-0.6c5.6-3.1,1.7-12.2,0.6-14.9C152.2,84.3,140.2,67.2,140.2,67.2z"/>
			<path id="Path_12_" class="st15" d="M121.2,60.2l-4.8,23.3l-6.9,65c0,0,23.7,4.6,36.4-5.1c-2.6-13.4-5.7-76.1-5.7-76.1
				L121.2,60.2z"/>
			<path id="Path_13_" class="st15" d="M84.5,123.5c4.7,2.6,15.5-2.2,15.5-2.2V77.1V60.2l-14.8,6.1C85.2,66.3,86.9,109.2,84.5,123.5
				z"/>
			<polygon id="Path_14_" class="st21" points="108.8,67.6 121.6,73.3 122.9,63.3 121,58.6 			"/>
			<polygon id="Path_15_" class="st21" points="98.8,63.3 98.7,74.6 108.8,67.6 100.6,58.9 			"/>
			<path id="Path_16_" class="st20" d="M116.9,65.4c-2.9-0.9-8,1.9-8,1.9s0.1,5.3,7.3,5.7C118.7,73.1,119.5,66.2,116.9,65.4z"/>
			<path id="Path_17_" class="st20" d="M101.3,64c-2.7,0.4-3,7.3-0.6,7.6c7.2,0.8,8.2-4.4,8.2-4.4S104.3,63.7,101.3,64z"/>
			<path id="Path_18_" class="st22" d="M109,66.7c-0.5,0-0.9,0.4-0.9,0.9s0.3,0.9,0.8,1c0.5,0,1-0.4,1-0.9S109.5,66.7,109,66.7z"/>
			<path id="Path_19_" class="st20" d="M121.7,60.2c-7.9,20.1-11.5,41.7-10.6,63.3c3.7-12,8.8-23.6,15.3-34.4l-7.4-9.4l11.6-3.8
				L121.7,60.2z"/>
			<path id="Path_20_" class="st15" d="M65.8,99.1c-1.2,1.4-7.3,3.3-13.7,3.7c-5.3,1.3-6.8,15.1-4.2,16.3
				c17.1,7.7,26.2-3.7,28.7-5.7C80.7,110.4,88,95,88,95l-2.8-28.7C85.2,66.3,80.3,73.5,65.8,99.1z"/>
			<path id="Path_21_" class="st13" d="M113.8,19.3c9.4,1.6,14.3,10.9,12.5,22.1c-0.8,6.1-3.8,11.6-8.6,15.5
				c-3.4,2.4-8.3,5.4-12.1,3.7c-4.9-2.1-8.5-6.4-9.9-11.6c-0.3-2.5-0.2-5,0.4-7.4c0-0.8-1.4-7.7-1.3-8.5
				C96.6,21.9,104.3,17.8,113.8,19.3z"/>
			<path id="Path_22_" d="M108.2,16.9c-7.7-0.4-15,8-15,14.9c0,7.7,14.2,5.7,19.3,1.6c0.5,3.3,3.4,7.7,6.1,8.5
				c0.4-0.8,1.1-1.4,1.9-1.6s1.7,0,2.4,0.6c2.2,1.5,1.6,6.8,1.6,6.8s5.7-4.7,3.8-16.3C126.4,20.5,116,17.4,108.2,16.9z"/>
			<path id="Path_23_" class="st20" d="M109.5,73.3c-0.6,0.1-1,0.7-1,1.3s0.4,1.2,1,1.3c0.6-0.1,1-0.7,1-1.3S110.1,73.4,109.5,73.3
				L109.5,73.3z"/>
			<path id="Path_24_" class="st20" d="M108.2,82.2c-0.5-0.1-1,0.1-1.3,0.6c-0.3,0.4-0.3,1,0,1.5c0.3,0.4,0.8,0.7,1.3,0.6
				c0.6-0.1,1-0.7,1-1.3C109.2,82.9,108.8,82.3,108.2,82.2z"/>
			<path id="Path_25_" class="st20" d="M107.5,90.9c-0.7,0-1.3,0.6-1.3,1.3c0,0.3,0.1,0.7,0.4,0.9s0.6,0.4,0.9,0.4
				c0.7,0,1.3-0.6,1.3-1.3c0-0.3-0.1-0.7-0.4-0.9C108.2,91.1,107.9,90.9,107.5,90.9z"/>
			<path id="Path_26_" class="st20" d="M106.2,107c-0.6,0.1-1,0.7-1,1.3c0,0.6,0.4,1.2,1,1.3c0.6-0.1,1-0.7,1-1.3
				C107.3,107.6,106.8,107.1,106.2,107L106.2,107z"/>
			<ellipse id="Oval_1_" class="st20" cx="106.2" cy="117.8" rx="1.3" ry="1.3"/>
			<path id="Path_27_" class="st20" d="M100.1,60.2L86.9,73.3l9.2,5.1l-7.4,6.4c2.7,12.5,6.5,24.7,11.3,36.5c1-15.6,1-31.2,0-46.7
				C98.7,61.2,100.1,60.2,100.1,60.2z"/>
			<polygon id="Path_28_" class="st24" points="32.4,253.4 55,212.8 48,210.4 			"/>
			<path id="Path_29_" class="st32" d="M119.6,100.6l-75.3,110c0,0,11.7,9.5,26.4,8.8c11.4-0.6,20.1-5.6,24.6-11.6
				c10.4-14,16.2-38.8,16.2-38.8s-8.5-4.3-2.6-14.4c4.5-7.7,10.2-2.6,10.2-2.6c3.2-4.5,6.2-9.3,8.9-14.1
				c10.9-19.5,0.6-32.9,0.6-32.9L119.6,100.6z"/>
			<path id="Path_30_" class="st23" d="M108.8,93.8c-7.8-2.8-19.6-8.4-33,4.4s-15.3,20.2-15.3,20.2s8.2,7.7,2.9,16.4
				c-2.9,4.9-8.9,6.9-14.2,4.8c0,0-22.2,30-18.8,48.4s22,34.2,46,25.9c24-8.2,30.2-44.9,30.2-44.9s-10.8-5.1-4-17.5s14-3.7,14-3.7
				s11.3-20.9,10.6-27.9c-0.3-4.2-1.3-8.3-3-12.1C121.4,101.1,115.8,96,108.8,93.8L108.8,93.8z"/>
			<polygon id="Rectangle_2_" class="st33" points="50.9,191.5 99.3,102.5 105.3,105.7 56.8,194.7 			"/>
			<polygon id="Path_31_" class="st24" points="84.2,127.5 92.4,132.3 144.1,35.8 135.2,31.1 			"/>
			<path id="Path_32_" class="st24" d="M41,207.4c1,1.2,2.1,2.3,3.2,3.3c1.5,0.8,3.1,1.6,4.7,2.2l16.3-27.8l-10.6-5.8L41,207.4z"/>
			<path id="Path_33_" class="st24" d="M139.3,4.6c-5.5,9.8,6.6,12.4,6.1,16.8s-10.2,9.7-10.2,9.7l8.8,4.7c0,0,9.5-4.9,11.3-11.9
				c2-7.8,1.5-12-0.4-16.5S144.8-5.1,139.3,4.6z"/>
			<path id="Path_34_" class="st32" d="M87.7,160.4c-1.9,0.6-4.3,4.4,1.1,5.1c4.2,0.6,4.6,2.3,3.3,4.7c-2.7,5.5-9.6,5.8-11.5,14.3
				c-0.7,2.3-0.3,6.2,2.7,7.4c1.7,0.7,4.9-0.4,5.1-2.6c0-0.7-0.7-1.8-2.6-1.7s-3.5-2-1.6-6.1c1.9-4,11.6-7.3,12.4-13.3
				C97.2,165.2,94.8,158.2,87.7,160.4z"/>
			<path id="Path_35_" class="st32" d="M60.1,144.9c-2.3-0.8-5-0.2-6.6,1.7c-1.9,2.1-3.9,5.1-2.6,13.5c0.5,2.1,0.6,4.3,0.2,6.4
				c-0.4,1.6-1.9,2.7-3.6,2.6c-0.9-0.3-1.6-1-1.9-1.9c-0.4-1.7-2.2-1.8-2.8,0c-0.4,1.2-0.2,2.5,0.5,3.5s1.9,1.6,3.2,1.6
				c3.3-0.1,6.1-2.2,7.1-5.3c2-5.5-2.6-13.6,0.5-16.3c1.4-1.2,3.8-2.6,6.2,2.1c0.6,1,3.7,1.4,3.2-2.6C63.4,148,62.1,146,60.1,144.9
				L60.1,144.9z"/>
			<path id="Path_36_" class="st32" d="M44.9,210.9l-1.1-0.6c0.4-0.8,39.5-76.8,46.5-89.3s46.3-88.2,46.7-89l1.1,0.6
				c-0.4,0.8-39.7,76.5-46.7,89C84.4,134.2,45.2,210.2,44.9,210.9z"/>
			<path id="Path_37_" class="st32" d="M46.4,211.8l-1.1-0.6c0.4-0.8,41.1-76.4,48.1-89s46.3-88.3,46.7-88.9l1.1,0.6
				c-0.4,0.6-39.7,76.2-46.7,89C87.5,135.7,46.8,211,46.4,211.8z"/>
			<path id="Path_38_" class="st13" d="M110.3,95.6c-2,0.8-0.9,3.9,5.3,5.7c4,1.2,3.1,3,7.3,4.9c4.3,1.7,8.8,2.8,13.4,3.4v-9.2
				c-5.6-1.8-11.1-4-16.5-6.6C118.1,92.9,114,94.2,110.3,95.6z"/>
			<polygon id="Path_39_" class="st32" points="39.6,121.3 39.6,123.5 119.6,121.3 116.9,119.1 			"/>
			<path id="Path_40_" class="st13" d="M50.1,106.6c0,0-4.6,1.1-6.4,9.9s1.2,11.8,3.2,15.8c1.1,2.2,5.8,2.6,7.9-5.8
				c1.3-5.2,1.3-10.6,0-15.7C54.5,107,52.3,105.3,50.1,106.6z"/>
		</g>
		<g>
			<g>
				<path class="st21" d="M103.8,378.5V364h-5.5v-4h16v4h-5.5v14.6H103.8z"/>
				<path class="st21" d="M117.1,378.5V360h13.2v3.7h-8.5v3.5h7.9v3.7h-7.9v3.8h8.5v3.7H117.1z"/>
				<path class="st21" d="M136.3,378.5h-4.9l8.7-18.5h3.8l8.7,18.5h-4.8l-6.3-14.6h1.1L136.3,378.5z M135.4,374.7l1.9-3.7h9.1
					l1.9,3.7H135.4z"/>
				<path class="st21" d="M158.7,378.5V364h-5.5v-4h16v4h-5.5v14.6H158.7z"/>
				<path class="st21" d="M172.1,378.5V360h8.6c2.3,0,3.9,0.5,5.1,1.5c1.1,1,1.7,2.3,1.7,4.1c0,1.7-0.6,3-1.8,4
					c-1.2,1-2.8,1.5-4.9,1.5l2.2-0.5c0.6,0,1.2,0.2,1.7,0.6c0.5,0.4,0.9,1,1.2,1.7l2.2,5.5H183l-2.4-6.2c-0.2-0.4-0.4-0.6-0.8-0.8
					c-0.4-0.2-0.8-0.2-1.2-0.2h-1.8v7.2H172.1z M176.8,367.7h3.1c1.1,0,1.8-0.2,2.3-0.5c0.5-0.3,0.7-0.8,0.7-1.5
					c0-0.7-0.2-1.2-0.7-1.5c-0.5-0.3-1.2-0.5-2.3-0.5h-3.1V367.7z"/>
				<path class="st21" d="M200.3,378.8c-1.9,0-3.6-0.4-5-1.2c-1.4-0.8-2.5-1.9-3.2-3.3c-0.8-1.4-1.1-3.1-1.1-5c0-1.9,0.4-3.6,1.1-5
					s1.8-2.5,3.2-3.3c1.4-0.8,3-1.2,4.9-1.2s3.5,0.4,4.9,1.2c1.4,0.8,2.4,1.9,3.2,3.3s1.1,3.1,1.1,5c0,1.9-0.4,3.6-1.1,5
					c-0.8,1.4-1.8,2.5-3.2,3.3C203.9,378.4,202.2,378.8,200.3,378.8z M200.3,375c1.4,0,2.4-0.5,3.2-1.5c0.8-1,1.2-2.4,1.2-4.3
					c0-1.9-0.4-3.3-1.2-4.3c-0.8-1-1.9-1.4-3.2-1.4s-2.4,0.5-3.2,1.4s-1.2,2.4-1.2,4.3c0,1.9,0.4,3.4,1.2,4.4S199,375,200.3,375z"/>
				<path class="st21" d="M221.7,378.5V360h13.2v3.7h-8.5v3.5h7.9v3.7h-7.9v3.8h8.5v3.7H221.7z"/>
				<path class="st21" d="M238.3,378.5V360h3.6l9.2,11.5l-0.8,0.6V360h4.6v18.5h-3.6l-9.1-11.4l0.7-0.7v12.1H238.3z"/>
				<path class="st21" d="M276.5,378.8c-1.9,0-3.6-0.4-5-1.2c-1.4-0.8-2.5-1.9-3.3-3.3c-0.8-1.4-1.2-3.1-1.2-5c0-1.9,0.4-3.5,1.2-5
					c0.8-1.4,1.9-2.5,3.3-3.3c1.4-0.8,3.1-1.2,5-1.2c1.2,0,2.4,0.2,3.5,0.5c1.1,0.4,2,0.9,2.7,1.5l-1.5,3.5c-0.8-0.6-1.6-1-2.3-1.2
					c-0.8-0.3-1.5-0.4-2.3-0.4c-1.5,0-2.6,0.5-3.4,1.4c-0.8,0.9-1.2,2.3-1.2,4.2s0.4,3.3,1.2,4.2c0.8,1,1.9,1.4,3.4,1.4
					c0.8,0,1.6-0.1,2.3-0.4c0.8-0.3,1.5-0.7,2.3-1.2l1.5,3.5c-0.7,0.6-1.6,1.1-2.7,1.5C278.9,378.6,277.8,378.8,276.5,378.8z"/>
				<path class="st21" d="M288.9,378.5H284l8.7-18.5h3.8l8.7,18.5h-4.8l-6.3-14.6h1.1L288.9,378.5z M288,374.7l1.9-3.7h9.1l1.9,3.7
					H288z"/>
				<path class="st21" d="M313.8,378.8c-0.9,0-1.8-0.1-2.8-0.2c-0.9-0.2-1.8-0.4-2.6-0.7c-0.8-0.3-1.5-0.7-2.1-1.1l1.5-3.5
					c0.9,0.6,1.9,1,2.9,1.3c1,0.3,2,0.4,3.1,0.4c1.1,0,1.9-0.1,2.4-0.4s0.8-0.7,0.8-1.2c0-0.3-0.1-0.6-0.3-0.8s-0.5-0.5-1.1-0.7
					c-0.5-0.2-1.3-0.4-2.2-0.6c-1.3-0.3-2.4-0.6-3.3-0.9c-0.9-0.4-1.6-0.8-2.1-1.2c-0.5-0.5-0.8-1-1-1.5s-0.3-1.2-0.3-1.9
					c0-1.1,0.3-2.1,1-3c0.6-0.9,1.5-1.6,2.7-2.1c1.1-0.5,2.5-0.8,4-0.8c0.9,0,1.8,0.1,2.6,0.2c0.9,0.2,1.7,0.4,2.4,0.7
					c0.7,0.3,1.3,0.7,1.8,1.1l-1.5,3.5c-0.8-0.6-1.7-1-2.6-1.3c-0.9-0.3-1.8-0.4-2.7-0.4c-0.9,0-1.6,0.2-2.1,0.5
					c-0.5,0.3-0.8,0.8-0.8,1.4c0,0.3,0.1,0.5,0.3,0.8c0.2,0.2,0.5,0.4,1.1,0.6s1.3,0.4,2.4,0.6c1.3,0.3,2.4,0.6,3.2,0.9
					c0.9,0.4,1.5,0.8,2,1.2c0.5,0.5,0.8,1,1.1,1.5c0.2,0.6,0.3,1.2,0.3,1.9c0,1.2-0.3,2.2-0.9,3.1c-0.6,0.9-1.5,1.5-2.7,2
					C317,378.5,315.5,378.8,313.8,378.8z"/>
				<path class="st21" d="M328.1,378.5h-4.9l8.7-18.5h3.8l8.7,18.5h-4.8l-6.3-14.6h1.1L328.1,378.5z M327.2,374.7l1.9-3.7h9.1
					l1.9,3.7H327.2z"/>
			</g>
		</g>
		<g>
			<path class="st21" d="M144.9,408.9c0-0.5,0-0.8,0-1.2c0-3.6,0-7.2,0-10.8c0-1.4,0.1-2.8,1.5-3.7c-1.7,0-3.3,0-5,0
				c1.5,1,1.6,2.3,1.6,3.7c0,2.1,0,4.3,0,6.4c0,0.2,0,0.5-0.1,0.7c-2.1-3.2-4.1-6.4-5.9-9.6c-0.5-1-1-1.3-2.1-1.2
				c-1.4,0.1-2.9,0-4.6,0c1.4,1,1.6,2.1,1.6,3.4c0,2.8,0,5.5,0,8.3c0,1.5,0,3-1.5,4c1.7,0,3.3,0,5,0c-1.2-0.8-1.5-1.9-1.5-3.1
				c0-2.5,0-5.1,0-7.6c0-0.2,0-0.5,0.1-1c0.3,0.4,0.5,0.7,0.6,0.9c2.2,3.4,4.3,6.9,6.5,10.3c0.2,0.3,0.5,0.5,0.8,0.6
				C142.8,408.9,143.7,408.9,144.9,408.9z M197.6,405.2c-1,2-2.9,2.2-4.8,2.1c-0.3,0-0.6,0-0.9,0c-1.5-0.1-2-0.6-2-2
				c0-2.7,0-5.4,0-8.2c0-1.4,0.1-2.8,1.5-3.8c-2.2,0-4.3,0-6.6,0c1.1,0.8,1.4,1.8,1.4,3c0,3,0,6,0,9c0,1.4-0.1,2.7-1.5,3.6
				c4.4,0,8.6,0,12.9,0C197.6,407.6,197.6,406.4,197.6,405.2z M120.7,393.2c0.9,0.7,1.4,1.5,1.4,2.6c0,3.3,0.1,6.6,0.1,10
				c0,1.2-0.3,2.4-1.6,3.2c2.3,0,4.5,0,6.7,0c-1.2-1.1-1.5-1.8-1.5-3.4c0-2.6,0-5.1,0-7.7c0-1.6-0.2-3.4,1.5-4.6
				C125.1,393.2,123,393.2,120.7,393.2z"/>
			<path class="st21" d="M149.1,408.8c1.3-0.8,1.6-2,1.6-3.2c0-3.1,0-6.2,0-9.3c0-1.2-0.3-2.3-1.6-3.2c0.6,0,1,0,1.4,0
				c2.8,0.1,5.6,0.1,8.3,0.2c0.6,0,1.2,0.3,1.8,0.6c2.1,1.1,2.4,3.7,0.6,5.2c-0.4,0.3-0.8,0.6-1.4,1c0.4,0.2,0.7,0.3,1,0.4
				c2.1,0.8,3,2.1,2.9,4.1c-0.1,1.8-1.2,3.1-3.2,3.7c-0.8,0.2-1.7,0.4-2.6,0.4c-2.7,0.1-5.5,0-8.3,0
				C149.6,408.9,149.4,408.9,149.1,408.8z M154.3,404.4C154.3,404.4,154.3,404.4,154.3,404.4c0,0.7-0.1,1.4,0,2.1
				c0,0.2,0.4,0.6,0.6,0.6c0.9,0,1.9,0,2.8-0.1c1.2-0.2,2-1.1,2.1-2.2c0.1-1.5-0.4-2.5-1.8-2.9c-0.7-0.2-1.5-0.3-2.3-0.3
				c-1.5,0.1-1.5,0.1-1.5,1.6C154.3,403.6,154.3,404,154.3,404.4z M154.4,400c0.8,0,1.3,0,1.9,0c1.8,0,2.9-1.5,2.4-3.3
				c-0.4-1.4-2.6-2.4-4-1.8c-0.1,0.1-0.3,0.3-0.3,0.4C154.3,396.9,154.4,398.4,154.4,400z"/>
			<path class="st21" d="M144.9,408.9c-1.2,0-2.1,0-3.1,0c-0.3,0-0.6-0.3-0.8-0.6c-2.2-3.4-4.3-6.9-6.5-10.3
				c-0.2-0.2-0.3-0.5-0.6-0.9c0,0.5-0.1,0.7-0.1,1c0,2.5,0,5.1,0,7.6c0,1.2,0.3,2.3,1.5,3.1c-1.7,0-3.3,0-5,0c1.5-1,1.5-2.5,1.5-4
				c0-2.8,0-5.5,0-8.3c0-1.3-0.2-2.5-1.6-3.4c1.7,0,3.2,0.1,4.6,0c1.1-0.1,1.6,0.3,2.1,1.2c1.8,3.3,3.8,6.5,5.9,9.6
				c0-0.2,0.1-0.5,0.1-0.7c0-2.1,0-4.3,0-6.4c0-1.4-0.1-2.8-1.6-3.7c1.8,0,3.3,0,5,0c-1.4,1-1.5,2.3-1.5,3.7c0,3.6,0,7.2,0,10.8
				C144.9,408.1,144.9,408.4,144.9,408.9z"/>
			<path class="st21" d="M175.7,408.8c1.4-1.1,1.5-2,0.5-3.3c-1.3-1.6-4.2-2.5-6.2-1.7c-0.2,0.1-0.4,0.2-0.5,0.4
				c-0.3,1-0.7,1.9-0.8,2.9c-0.1,0.6,0.4,1.2,0.7,1.8c-1.4,0-3.1,0-5,0c2-1.1,2.4-3,3-4.7c0.9-2.8,1.9-5.5,2.8-8.3
				c0.3-0.9,0.4-1.7-0.3-2.6c2.6,0,5,0,7.6,0c-0.9,0.9-0.7,1.8-0.4,2.8c1.2,3.4,2.4,6.7,3.7,10.1c0.4,1.1,1,2.1,2.3,2.7
				C180.5,408.8,178.1,408.8,175.7,408.8z M175.3,402.9c0.1-0.1,0.1-0.1,0.1-0.2c-0.9-2.5-1.8-5-2.8-7.5c-0.1,0-0.2,0-0.2,0
				c-0.8,2.3-1.5,4.5-2.3,6.9C172.1,401.8,173.8,401.9,175.3,402.9z"/>
			<path class="st21" d="M197.6,405.2c0,1.2,0,2.4,0,3.7c-4.3,0-8.5,0-12.9,0c1.4-0.9,1.5-2.2,1.5-3.6c0-3,0-6,0-9
				c0-1.2-0.3-2.2-1.4-3c2.2,0,4.4,0,6.6,0c-1.3,1-1.5,2.3-1.5,3.8c0,2.7,0,5.4,0,8.2c0,1.5,0.5,2,2,2c0.3,0,0.6,0,0.9,0
				C194.7,407.3,196.5,407.2,197.6,405.2z"/>
			<path class="st21" d="M120.7,393.2c2.3,0,4.4,0,6.7,0c-1.7,1.2-1.5,2.9-1.5,4.6c0,2.6,0,5.1,0,7.7c0,1.6,0.3,2.3,1.5,3.4
				c-2.2,0-4.4,0-6.7,0c1.3-0.7,1.6-1.9,1.6-3.2c0-3.3,0-6.6-0.1-10C122.1,394.7,121.6,393.9,120.7,393.2z"/>
			<g>
				<path class="st21" d="M108.8,407.5v1.9h-0.5v-1.9c0-0.1,0.1-0.3,0.3-0.3S108.8,407.4,108.8,407.5z"/>
				<path class="st21" d="M105.1,407.5v1.9h-0.5v-1.9c0-0.1,0.1-0.3,0.3-0.3C104.9,407.3,105.1,407.4,105.1,407.5z"/>
				<g>
					<path class="st21" d="M101.6,408.4v1.1h-0.7v-1.1c0-0.2,0.2-0.4,0.4-0.4C101.4,408,101.6,408.2,101.6,408.4z"/>
					<path class="st21" d="M104.2,407.3v2.2h-2.3v-1c0-0.4-0.3-0.7-0.7-0.7c-0.4,0-0.7,0.3-0.7,0.7v1h-0.3v-2.2H104.2z"/>
					<rect x="98.6" y="407.3" class="st21" width="1.2" height="2.2"/>
				</g>
				<g>
					<path class="st21" d="M103.5,405.3v1.5h-0.7v-1.5c0-0.1,0.2-0.3,0.4-0.3S103.5,405.2,103.5,405.3z"/>
					<path class="st21" d="M101.6,405.3v1.5h-0.7v-1.5c0-0.1,0.2-0.3,0.4-0.3S101.6,405.2,101.6,405.3z"/>
					<rect x="98.6" y="404.4" class="st21" width="1.1" height="2.4"/>
					<path class="st21" d="M104.2,404.4v2.4h-0.3v-2h-1.6v2H102v-2h-1.6v2h-0.3v-2.4h0.7v0c0-0.2,0.2-0.4,0.4-0.4
						c0.2,0,0.4,0.2,0.4,0.4v0H104.2z"/>
					<path class="st21" d="M104.8,403c-0.2,0.3-0.4,0.6-0.5,1h-2.4c-0.1-0.2-0.4-0.4-0.6-0.4s-0.5,0.2-0.6,0.4h-0.5v-1H104.8z"/>
					<path class="st21" d="M103.2,401.4v1.1h-2.4c0,0,0.3-0.7,1-1.1H103.2z"/>
					<rect x="103.5" y="401.4" class="st21" width="0.7" height="1.1"/>
					<rect x="104.5" y="401.4" class="st21" width="0.7" height="1.1"/>
					<path class="st21" d="M106.1,401.5v0.8c-0.2,0.1-0.5,0.1-0.7,0.3v-1.1H106.1z"/>
				</g>
				<rect x="106.3" y="401.5" class="st21" width="0.6" height="0.8"/>
				<path class="st21" d="M109.1,401.1h-4.8c0-1.2,1.1-2.2,2.4-2.2C108,398.9,109.1,399.9,109.1,401.1z"/>
				<path class="st21" d="M106.1,398.4v0.7h1.2v-0.7H106.1z M107,398.8h-0.6v-0.2h0.6V398.8z"/>
				<path class="st21" d="M107,398.4h-0.6v-0.6c0-0.1,0.1-0.3,0.3-0.3h0.1c0.1,0,0.3,0.1,0.3,0.3V398.4z"/>
				<rect x="106.5" y="396.7" class="st21" width="0.3" height="1"/>
				<path class="st21" d="M106.7,397C106.6,397,106.6,397,106.7,397c-0.1,0-0.6-0.7-0.6-0.8c0,0,0.6,0.5,0.6,0.5s0.5-0.6,0.6-0.5
					C107.3,396.3,106.7,397,106.7,397C106.7,397,106.7,397,106.7,397z"/>
				<g>
					<polygon class="st21" points="106.4,396.1 106.1,395.8 106.1,393.4 106.4,393.4 					"/>
					<path class="st21" d="M105.4,393.4v5.3c-0.1,0-0.2,0.1-0.3,0.1v-5.4H105.4z"/>
					<path class="st21" d="M104.5,393.4v5.9c-0.1,0.1-0.2,0.2-0.3,0.4v-6.3H104.5z"/>
					<rect x="103.3" y="393.4" class="st21" width="0.2" height="7.6"/>
					<rect x="102.3" y="393.4" class="st21" width="0.2" height="7.6"/>
					<polygon class="st21" points="101.7,400.9 101.4,401.1 101.4,393.4 101.6,393.4 					"/>
					<polygon class="st21" points="100.7,401.7 100.5,402.2 100.5,393.4 100.7,393.4 					"/>
					<rect x="99.5" y="393.4" class="st21" width="0.4" height="10.6"/>
					<rect x="98.6" y="393.4" class="st21" width="0.4" height="10.6"/>
				</g>
				<path class="st21" d="M106.6,402.6c-1.2,0-2.1,0.9-2.1,2.1v2.1h0.4v-2h0.4v2h2.6v-2h0.4v2h0.4v-2.1
					C108.8,403.6,107.8,402.6,106.6,402.6z M104.9,404.4c0.3-0.9,1-1.5,1.8-1.5c0.8,0,1.5,0.6,1.8,1.5H104.9z"/>
				<path class="st21" d="M107.9,404h-2.6c0.2-0.5,0.7-0.8,1.3-0.8C107.2,403.2,107.7,403.6,107.9,404z"/>
				<rect x="105.4" y="407.3" class="st21" width="2.5" height="2.2"/>
				<g>
					<path class="st21" d="M109.8,405.3v1.5h0.7v-1.5c0-0.1-0.2-0.3-0.4-0.3S109.8,405.2,109.8,405.3z"/>
					<path class="st21" d="M111.7,405.3v1.5h0.7v-1.5c0-0.1-0.2-0.3-0.4-0.3S111.7,405.2,111.7,405.3z"/>
					
						<rect x="113.6" y="404.4" transform="matrix(-1 -4.507296e-11 4.507296e-11 -1 228.2651 811.1635)" class="st21" width="1.1" height="2.4"/>
					<path class="st21" d="M109.1,404.4v2.4h0.3v-2h1.6v2h0.3v-2h1.6v2h0.3v-2.4h-0.7v0c0-0.2-0.2-0.4-0.4-0.4
						c-0.2,0-0.4,0.2-0.4,0.4v0H109.1z"/>
					<path class="st21" d="M108.5,403c0.2,0.3,0.4,0.6,0.5,1h2.4c0.1-0.2,0.4-0.4,0.6-0.4s0.5,0.2,0.6,0.4h0.5v-1H108.5z"/>
					<path class="st21" d="M110.1,401.4v1.1h2.4c0,0-0.3-0.7-1-1.1H110.1z"/>
					
						<rect x="109.1" y="401.4" transform="matrix(-1 -4.446100e-11 4.446100e-11 -1 218.9262 804.0263)" class="st21" width="0.7" height="1.1"/>
					
						<rect x="108.2" y="401.4" transform="matrix(-1 -4.446100e-11 4.446100e-11 -1 217.0385 804.0263)" class="st21" width="0.7" height="1.1"/>
					<path class="st21" d="M107.3,401.5v0.8c0.2,0.1,0.5,0.1,0.7,0.3v-1.1H107.3z"/>
				</g>
				<g>
					<polygon class="st21" points="107,396.1 107.3,395.8 107.3,393.4 107,393.4 					"/>
					<path class="st21" d="M107.9,393.4v5.3c0.1,0,0.2,0.1,0.3,0.1v-5.4H107.9z"/>
					<path class="st21" d="M108.8,393.4v5.9c0.1,0.1,0.2,0.2,0.3,0.4v-6.3H108.8z"/>
					
						<rect x="109.8" y="393.4" transform="matrix(-1 -4.455337e-11 4.455337e-11 -1 219.8188 794.4188)" class="st21" width="0.2" height="7.6"/>
					
						<rect x="110.7" y="393.4" transform="matrix(-1 -4.455337e-11 4.455337e-11 -1 221.6926 794.4188)" class="st21" width="0.2" height="7.6"/>
					<polygon class="st21" points="111.6,400.9 111.9,401.1 111.9,393.4 111.7,393.4 					"/>
					<polygon class="st21" points="112.6,401.7 112.8,402.2 112.8,393.4 112.6,393.4 					"/>
					
						<rect x="113.4" y="393.4" transform="matrix(-1 -4.603841e-11 4.603841e-11 -1 227.1993 797.4111)" class="st21" width="0.4" height="10.6"/>
					
						<rect x="114.4" y="393.4" transform="matrix(-1 -4.603841e-11 4.603841e-11 -1 229.1432 797.4111)" class="st21" width="0.4" height="10.6"/>
				</g>
				<g>
					<path class="st21" d="M111.7,408.4v1.1h0.7v-1.1c0-0.2-0.2-0.4-0.4-0.4C111.9,408,111.7,408.2,111.7,408.4z"/>
					<path class="st21" d="M109.1,407.3v2.2h2.3v-1c0-0.4,0.3-0.7,0.7-0.7c0.4,0,0.7,0.3,0.7,0.7v1h0.3v-2.2H109.1z"/>
					
						<rect x="113.4" y="407.3" transform="matrix(-1 -4.545221e-11 4.545221e-11 -1 228.1326 816.7867)" class="st21" width="1.2" height="2.2"/>
				</g>
				<path class="st21" d="M106.7,396.8L106.7,396.8c-0.1,0-0.1,0-0.1-0.1v-0.2c0-0.1,0-0.1,0.1-0.1h0.1c0.1,0,0.1,0,0.1,0.1
					L106.7,396.8C106.8,396.8,106.7,396.8,106.7,396.8z"/>
			</g>
		</g>
		<path class="st34" d="M120,398.2c0,0-0.3,0.2-0.4,0.4v0.3C119.6,398.9,120,398.4,120,398.2"/>
	</g>
</g>
</svg>
