<svg width="1132" height="227" viewBox="0 0 1132 227" fill="none" xmlns="http://www.w3.org/2000/svg">
<path d="M459.475 197.927C458.93 202.591 457.204 206.195 454.296 208.74C451.409 211.264 447.562 212.526 442.756 212.526C437.547 212.526 433.367 210.658 430.217 206.922C427.087 203.187 425.522 198.189 425.522 191.93V187.689C425.522 183.59 426.249 179.986 427.703 176.877C429.177 173.767 431.257 171.384 433.942 169.729C436.628 168.053 439.738 167.215 443.271 167.215C447.956 167.215 451.712 168.527 454.538 171.152C457.365 173.757 459.011 177.371 459.475 181.995H453.63C453.125 178.482 452.024 175.938 450.328 174.363C448.652 172.788 446.3 172 443.271 172C439.556 172 436.638 173.373 434.518 176.119C432.418 178.866 431.368 182.773 431.368 187.841V192.112C431.368 196.897 432.368 200.703 434.367 203.53C436.366 206.357 439.162 207.77 442.756 207.77C445.987 207.77 448.461 207.044 450.177 205.59C451.913 204.116 453.064 201.561 453.63 197.927H459.475ZM472.651 211.92H467.047V179.148H472.651V211.92ZM466.593 170.456C466.593 169.547 466.866 168.78 467.411 168.154C467.976 167.528 468.804 167.215 469.894 167.215C470.985 167.215 471.813 167.528 472.378 168.154C472.943 168.78 473.226 169.547 473.226 170.456C473.226 171.364 472.943 172.121 472.378 172.727C471.813 173.333 470.985 173.636 469.894 173.636C468.804 173.636 467.976 173.333 467.411 172.727C466.866 172.121 466.593 171.364 466.593 170.456ZM494.791 207.952C496.79 207.952 498.537 207.346 500.031 206.135C501.525 204.923 502.353 203.409 502.515 201.592H507.815C507.714 203.47 507.068 205.257 505.877 206.953C504.685 208.649 503.09 210.002 501.091 211.011C499.112 212.021 497.012 212.526 494.791 212.526C490.329 212.526 486.775 211.042 484.13 208.073C481.505 205.085 480.192 201.006 480.192 195.837V194.898C480.192 191.708 480.778 188.871 481.949 186.387C483.12 183.903 484.796 181.975 486.977 180.602C489.178 179.229 491.773 178.542 494.761 178.542C498.436 178.542 501.485 179.643 503.908 181.844C506.351 184.045 507.654 186.902 507.815 190.415H502.515C502.353 188.295 501.545 186.559 500.092 185.206C498.658 183.833 496.881 183.146 494.761 183.146C491.914 183.146 489.703 184.176 488.128 186.236C486.573 188.275 485.796 191.233 485.796 195.11V196.17C485.796 199.946 486.573 202.854 488.128 204.893C489.683 206.932 491.904 207.952 494.791 207.952ZM520.203 211.92H514.6V165.397H520.203V211.92ZM527.714 195.231C527.714 192.021 528.34 189.133 529.592 186.569C530.864 184.004 532.621 182.026 534.862 180.632C537.124 179.239 539.698 178.542 542.586 178.542C547.048 178.542 550.653 180.087 553.399 183.177C556.165 186.266 557.548 190.375 557.548 195.504V195.898C557.548 199.088 556.932 201.955 555.701 204.499C554.489 207.023 552.742 208.992 550.461 210.406C548.199 211.819 545.594 212.526 542.646 212.526C538.204 212.526 534.6 210.981 531.834 207.892C529.087 204.802 527.714 200.713 527.714 195.625V195.231ZM533.348 195.898C533.348 199.532 534.186 202.45 535.862 204.651C537.558 206.852 539.82 207.952 542.646 207.952C545.494 207.952 547.755 206.842 549.431 204.62C551.107 202.379 551.945 199.249 551.945 195.231C551.945 191.637 551.087 188.729 549.37 186.508C547.674 184.267 545.413 183.146 542.586 183.146C539.82 183.146 537.588 184.247 535.892 186.448C534.196 188.649 533.348 191.799 533.348 195.898ZM605.767 191.536H586.655V207.165H608.856V211.92H580.84V167.82H608.553V172.606H586.655V186.781H605.767V191.536ZM634.298 203.227C634.298 201.713 633.723 200.542 632.572 199.714C631.441 198.866 629.452 198.139 626.605 197.533C623.778 196.927 621.527 196.2 619.851 195.352C618.195 194.504 616.963 193.495 616.156 192.324C615.368 191.152 614.974 189.759 614.974 188.144C614.974 185.458 616.105 183.187 618.367 181.329C620.648 179.471 623.556 178.542 627.09 178.542C630.805 178.542 633.814 179.502 636.115 181.42C638.438 183.338 639.599 185.791 639.599 188.78H633.965C633.965 187.245 633.309 185.923 631.996 184.812C630.704 183.702 629.068 183.146 627.09 183.146C625.05 183.146 623.455 183.59 622.304 184.479C621.153 185.367 620.578 186.528 620.578 187.962C620.578 189.315 621.113 190.335 622.183 191.021C623.253 191.708 625.181 192.364 627.968 192.99C630.775 193.616 633.046 194.363 634.783 195.231C636.519 196.099 637.801 197.149 638.629 198.381C639.477 199.593 639.901 201.077 639.901 202.833C639.901 205.761 638.73 208.114 636.388 209.891C634.046 211.647 631.007 212.526 627.271 212.526C624.646 212.526 622.324 212.061 620.305 211.132C618.286 210.204 616.701 208.911 615.55 207.256C614.419 205.58 613.854 203.772 613.854 201.834H619.457C619.558 203.712 620.305 205.206 621.698 206.317C623.112 207.407 624.969 207.952 627.271 207.952C629.392 207.952 631.088 207.528 632.36 206.68C633.652 205.812 634.298 204.661 634.298 203.227ZM660.346 207.952C662.345 207.952 664.092 207.346 665.586 206.135C667.08 204.923 667.908 203.409 668.069 201.592H673.37C673.269 203.47 672.623 205.257 671.431 206.953C670.24 208.649 668.645 210.002 666.646 211.011C664.667 212.021 662.567 212.526 660.346 212.526C655.883 212.526 652.33 211.042 649.685 208.073C647.06 205.085 645.747 201.006 645.747 195.837V194.898C645.747 191.708 646.333 188.871 647.504 186.387C648.675 183.903 650.351 181.975 652.532 180.602C654.733 179.229 657.327 178.542 660.316 178.542C663.991 178.542 667.04 179.643 669.463 181.844C671.906 184.045 673.208 186.902 673.37 190.415H668.069C667.908 188.295 667.1 186.559 665.646 185.206C664.213 183.833 662.436 183.146 660.316 183.146C657.469 183.146 655.258 184.176 653.683 186.236C652.128 188.275 651.35 191.233 651.35 195.11V196.17C651.35 199.946 652.128 202.854 653.683 204.893C655.237 206.932 657.458 207.952 660.346 207.952ZM678.186 195.231C678.186 192.021 678.812 189.133 680.063 186.569C681.336 184.004 683.092 182.026 685.334 180.632C687.595 179.239 690.17 178.542 693.057 178.542C697.52 178.542 701.124 180.087 703.87 183.177C706.636 186.266 708.019 190.375 708.019 195.504V195.898C708.019 199.088 707.404 201.955 706.172 204.499C704.96 207.023 703.214 208.992 700.932 210.406C698.67 211.819 696.066 212.526 693.118 212.526C688.675 212.526 685.071 210.981 682.305 207.892C679.559 204.802 678.186 200.713 678.186 195.625V195.231ZM683.819 195.898C683.819 199.532 684.657 202.45 686.333 204.651C688.029 206.852 690.291 207.952 693.118 207.952C695.965 207.952 698.226 206.842 699.902 204.62C701.578 202.379 702.416 199.249 702.416 195.231C702.416 191.637 701.558 188.729 699.842 186.508C698.145 184.267 695.884 183.146 693.057 183.146C690.291 183.146 688.06 184.247 686.363 186.448C684.667 188.649 683.819 191.799 683.819 195.898ZM721.134 211.92H715.531V165.397H721.134V211.92ZM750.362 211.92C750.039 211.274 749.777 210.123 749.575 208.467C746.97 211.173 743.86 212.526 740.246 212.526C737.015 212.526 734.36 211.617 732.28 209.8C730.221 207.962 729.191 205.64 729.191 202.833C729.191 199.421 730.483 196.776 733.068 194.898C735.672 193 739.327 192.051 744.032 192.051H749.484V189.476C749.484 187.518 748.898 185.963 747.727 184.812C746.556 183.641 744.829 183.055 742.548 183.055C740.549 183.055 738.873 183.56 737.52 184.57C736.167 185.579 735.491 186.801 735.491 188.235H729.857C729.857 186.599 730.433 185.024 731.584 183.51C732.755 181.975 734.33 180.764 736.308 179.875C738.307 178.987 740.498 178.542 742.881 178.542C746.657 178.542 749.615 179.491 751.755 181.39C753.896 183.267 755.006 185.862 755.087 189.174V204.257C755.087 207.266 755.471 209.658 756.238 211.435V211.92H750.362ZM741.064 207.649C742.82 207.649 744.486 207.195 746.061 206.286C747.636 205.378 748.777 204.196 749.484 202.743V196.019H745.092C738.227 196.019 734.794 198.028 734.794 202.046C734.794 203.803 735.38 205.176 736.551 206.165C737.722 207.155 739.226 207.649 741.064 207.649ZM779.711 184.176C778.863 184.035 777.944 183.964 776.955 183.964C773.28 183.964 770.786 185.529 769.474 188.659V211.92H763.871V179.148H769.322L769.413 182.934C771.251 180.006 773.856 178.542 777.228 178.542C778.318 178.542 779.146 178.684 779.711 178.966V184.176ZM828.596 211.92H799.701V207.892L814.967 190.93C817.228 188.366 818.783 186.286 819.631 184.691C820.499 183.076 820.933 181.41 820.933 179.693C820.933 177.392 820.237 175.504 818.843 174.03C817.45 172.556 815.593 171.818 813.27 171.818C810.484 171.818 808.313 172.616 806.759 174.211C805.224 175.786 804.457 177.987 804.457 180.814H798.853C798.853 176.755 800.156 173.474 802.761 170.97C805.385 168.467 808.889 167.215 813.27 167.215C817.369 167.215 820.61 168.295 822.993 170.456C825.376 172.596 826.567 175.453 826.567 179.027C826.567 183.368 823.801 188.538 818.268 194.535L806.456 207.346H828.596V211.92ZM862.186 193.111C862.186 199.673 861.065 204.55 858.824 207.74C856.582 210.931 853.079 212.526 848.314 212.526C843.609 212.526 840.126 210.971 837.864 207.861C835.603 204.732 834.432 200.067 834.351 193.868V186.387C834.351 179.905 835.472 175.09 837.713 171.94C839.954 168.79 843.468 167.215 848.253 167.215C852.998 167.215 856.492 168.739 858.733 171.788C860.974 174.817 862.125 179.502 862.186 185.842V193.111ZM856.582 185.448C856.582 180.703 855.916 177.25 854.583 175.09C853.251 172.909 851.141 171.818 848.253 171.818C845.386 171.818 843.296 172.899 841.984 175.059C840.671 177.22 839.995 180.541 839.954 185.024V193.989C839.954 198.755 840.641 202.278 842.014 204.56C843.407 206.821 845.507 207.952 848.314 207.952C851.08 207.952 853.13 206.882 854.462 204.742C855.815 202.601 856.522 199.229 856.582 194.625V185.448ZM898.259 211.92H869.364V207.892L884.629 190.93C886.891 188.366 888.446 186.286 889.294 184.691C890.162 183.076 890.596 181.41 890.596 179.693C890.596 177.392 889.899 175.504 888.506 174.03C887.113 172.556 885.255 171.818 882.933 171.818C880.147 171.818 877.976 172.616 876.421 174.211C874.887 175.786 874.119 177.987 874.119 180.814H868.516C868.516 176.755 869.818 173.474 872.423 170.97C875.048 168.467 878.551 167.215 882.933 167.215C887.032 167.215 890.273 168.295 892.656 170.456C895.038 172.596 896.23 175.453 896.23 179.027C896.23 183.368 893.463 188.538 887.931 194.535L876.118 207.346H898.259V211.92ZM931.848 193.111C931.848 199.673 930.728 204.55 928.486 207.74C926.245 210.931 922.742 212.526 917.976 212.526C913.272 212.526 909.789 210.971 907.527 207.861C905.265 204.732 904.094 200.067 904.014 193.868V186.387C904.014 179.905 905.134 175.09 907.376 171.94C909.617 168.79 913.13 167.215 917.916 167.215C922.661 167.215 926.154 168.739 928.395 171.788C930.637 174.817 931.788 179.502 931.848 185.842V193.111ZM926.245 185.448C926.245 180.703 925.579 177.25 924.246 175.09C922.913 172.909 920.803 171.818 917.916 171.818C915.049 171.818 912.959 172.899 911.646 175.059C910.334 177.22 909.657 180.541 909.617 185.024V193.989C909.617 198.755 910.303 202.278 911.676 204.56C913.07 206.821 915.17 207.952 917.976 207.952C920.743 207.952 922.792 206.882 924.125 204.742C925.478 202.601 926.184 199.229 926.245 194.625V185.448ZM951.263 195.473H936.482V190.9H951.263V195.473ZM985.064 211.92H956.17V207.892L971.435 190.93C973.696 188.366 975.251 186.286 976.099 184.691C976.967 183.076 977.402 181.41 977.402 179.693C977.402 177.392 976.705 175.504 975.312 174.03C973.918 172.556 972.061 171.818 969.739 171.818C966.952 171.818 964.782 172.616 963.227 174.211C961.692 175.786 960.925 177.987 960.925 180.814H955.322C955.322 176.755 956.624 173.474 959.229 170.97C961.854 168.467 965.357 167.215 969.739 167.215C973.838 167.215 977.079 168.295 979.461 170.456C981.844 172.596 983.035 175.453 983.035 179.027C983.035 183.368 980.269 188.538 974.736 194.535L962.924 207.346H985.064V211.92ZM1018.65 193.111C1018.65 199.673 1017.53 204.55 1015.29 207.74C1013.05 210.931 1009.55 212.526 1004.78 212.526C1000.08 212.526 996.594 210.971 994.333 207.861C992.071 204.732 990.9 200.067 990.819 193.868V186.387C990.819 179.905 991.94 175.09 994.181 171.94C996.423 168.79 999.936 167.215 1004.72 167.215C1009.47 167.215 1012.96 168.739 1015.2 171.788C1017.44 174.817 1018.59 179.502 1018.65 185.842V193.111ZM1013.05 185.448C1013.05 180.703 1012.38 177.25 1011.05 175.09C1009.72 172.909 1007.61 171.818 1004.72 171.818C1001.85 171.818 999.764 172.899 998.452 175.059C997.139 177.22 996.463 180.541 996.423 185.024V193.989C996.423 198.755 997.109 202.278 998.482 204.56C999.875 206.821 1001.98 207.952 1004.78 207.952C1007.55 207.952 1009.6 206.882 1010.93 204.742C1012.28 202.601 1012.99 199.229 1013.05 194.625V185.448ZM1054.73 211.92H1025.83V207.892L1041.1 190.93C1043.36 188.366 1044.91 186.286 1045.76 184.691C1046.63 183.076 1047.06 181.41 1047.06 179.693C1047.06 177.392 1046.37 175.504 1044.97 174.03C1043.58 172.556 1041.72 171.818 1039.4 171.818C1036.61 171.818 1034.44 172.616 1032.89 174.211C1031.35 175.786 1030.59 177.987 1030.59 180.814H1024.98C1024.98 176.755 1026.29 173.474 1028.89 170.97C1031.52 168.467 1035.02 167.215 1039.4 167.215C1043.5 167.215 1046.74 168.295 1049.12 170.456C1051.51 172.596 1052.7 175.453 1052.7 179.027C1052.7 183.368 1049.93 188.538 1044.4 194.535L1032.59 207.346H1054.73V211.92ZM1079.08 211.92H1073.45V174.575L1062.15 178.724V173.636L1078.2 167.608H1079.08V211.92Z" fill="white"/>
<path d="M1106.73 67.5298H1092.41V135.64H1106.73V67.5298Z" fill="white"/>
<path d="M1131.07 67.5298H1116.75V135.64H1131.07V67.5298Z" fill="white"/>
<path d="M301.66 121.87H271.82L266.13 135.64H250.89L279.53 71.3799H294.22L322.95 135.64H307.35L301.66 121.87ZM296.97 110.58L286.78 85.9999L276.59 110.6L296.97 110.58Z" fill="white"/>
<path d="M370.37 88.6899C374.097 90.7676 377.163 93.8518 379.22 97.5899C381.336 101.724 382.439 106.301 382.439 110.945C382.439 115.589 381.336 120.166 379.22 124.3C377.167 128.043 374.099 131.131 370.37 133.21C366.539 135.337 362.221 136.429 357.84 136.38C351.527 136.38 346.567 134.38 342.96 130.38V153.38H328.64V86.1799H342.32V91.9999C345.873 87.7133 351.047 85.57 357.84 85.57C362.221 85.5207 366.539 86.6132 370.37 88.7399V88.6899ZM364.37 120.96C366.723 118.48 367.9 115.147 367.9 110.96C367.9 106.773 366.723 103.44 364.37 100.96C361.962 98.5777 358.712 97.2415 355.325 97.2415C351.938 97.2415 348.688 98.5777 346.28 100.96C343.927 103.44 342.75 106.773 342.75 110.96C342.75 115.147 343.927 118.48 346.28 120.96C348.688 123.342 351.938 124.678 355.325 124.678C358.712 124.678 361.962 123.342 364.37 120.96" fill="white"/>
<path d="M412.59 87.3596C415.783 86.078 419.2 85.4522 422.64 85.5196V98.7396C421.053 98.6196 419.983 98.5596 419.43 98.5596C415.33 98.5596 412.117 99.7062 409.79 102C407.463 104.293 406.3 107.733 406.3 112.32V135.64H391.98V86.2496H405.66V92.7696C407.412 90.3477 409.815 88.4719 412.59 87.3596" fill="white"/>
<path d="M478.82 115H441.46C442.052 117.942 443.762 120.541 446.23 122.25C448.995 124.102 452.274 125.033 455.6 124.91C457.931 124.952 460.251 124.563 462.44 123.76C464.516 122.942 466.405 121.71 467.99 120.14L475.61 128.4C470.943 133.733 464.15 136.4 455.23 136.4C450.115 136.499 445.049 135.382 440.45 133.14C436.356 131.146 432.918 128.023 430.54 124.14C428.187 120.166 426.985 115.617 427.07 111C427.006 106.408 428.195 101.886 430.51 97.9197C432.762 94.0735 436.037 90.9269 439.97 88.8296C444.107 86.6261 448.734 85.5047 453.42 85.5697C457.984 85.505 462.493 86.5772 466.54 88.6896C470.41 90.7276 473.614 93.8341 475.77 97.6397C478.039 101.767 479.177 106.421 479.07 111.13C479.07 111.31 478.98 112.6 478.79 114.99L478.82 115ZM445.29 99.1096C443.057 101.023 441.628 103.709 441.29 106.63H465.61C465.245 103.728 463.821 101.064 461.61 99.1496C459.346 97.2664 456.474 96.2712 453.53 96.3497C450.563 96.2536 447.661 97.2338 445.36 99.1096" fill="white"/>
<path d="M533.49 91C537.25 94.6666 539.133 100.113 539.14 107.34V135.61H524.82V109.57C524.82 105.65 523.96 102.727 522.24 100.8C520.53 98.8799 518.05 97.91 514.81 97.91C513.217 97.8343 511.626 98.0934 510.14 98.6704C508.654 99.2474 507.305 100.13 506.18 101.26C504.04 103.5 502.97 106.833 502.97 111.26V135.68H488.65V86.25H502.32V92C504.28 89.8766 506.698 88.2281 509.39 87.1799C512.346 86.0228 515.496 85.4456 518.67 85.48C524.783 85.48 529.723 87.3166 533.49 90.9899" fill="white"/>
<path d="M602.93 67.5298V135.64H589.26V130C585.707 134.28 580.563 136.423 573.83 136.43C569.425 136.49 565.079 135.416 561.21 133.31C557.467 131.245 554.393 128.154 552.35 124.4C550.24 120.248 549.14 115.657 549.14 111C549.14 106.343 550.24 101.751 552.35 97.5998C554.393 93.8457 557.467 90.7541 561.21 88.6898C565.079 86.5838 569.425 85.5093 573.83 85.5698C580.143 85.5698 585.07 87.5698 588.61 91.5698V67.5698L602.93 67.5298ZM585.31 120.91C587.703 118.43 588.897 115.096 588.89 110.91C588.883 106.723 587.69 103.39 585.31 100.91C582.905 98.5257 579.656 97.1881 576.27 97.1881C572.884 97.1881 569.635 98.5257 567.23 100.91C564.843 103.39 563.65 106.723 563.65 110.91C563.65 115.096 564.843 118.43 567.23 120.91C569.635 123.294 572.884 124.631 576.27 124.631C579.656 124.631 582.905 123.294 585.31 120.91" fill="white"/>
<path d="M664.25 115H626.89C627.489 117.942 629.202 120.539 631.67 122.25C634.444 124.105 637.735 125.033 641.07 124.9C643.402 124.942 645.721 124.553 647.91 123.75C649.986 122.932 651.875 121.7 653.46 120.13L661.08 128.39C656.413 133.723 649.62 136.39 640.7 136.39C635.585 136.489 630.519 135.372 625.92 133.13C621.826 131.136 618.388 128.013 616.01 124.13C613.638 120.165 612.415 115.619 612.48 111C612.416 106.408 613.605 101.886 615.92 97.9197C618.172 94.0735 621.447 90.9269 625.38 88.8296C629.517 86.6261 634.144 85.5047 638.83 85.5697C643.394 85.505 647.903 86.5772 651.95 88.6896C655.82 90.7276 659.024 93.8341 661.18 97.6397C663.475 101.777 664.631 106.449 664.53 111.18C664.53 111.36 664.44 112.65 664.25 115.04V115ZM630.75 99.1597C628.517 101.073 627.088 103.759 626.75 106.68H651.07C650.703 103.779 649.279 101.115 647.07 99.1997C644.806 97.3164 641.934 96.3212 638.99 96.3996C636.023 96.3035 633.121 97.2838 630.82 99.1597" fill="white"/>
<path d="M748.16 115H710.8C711.392 117.943 713.102 120.541 715.57 122.25C718.332 124.101 721.608 125.032 724.93 124.91C727.261 124.953 729.581 124.563 731.77 123.76C733.848 122.94 735.74 121.709 737.33 120.14L744.95 128.4C740.283 133.733 733.49 136.4 724.57 136.4C719.455 136.501 714.388 135.383 709.79 133.14C705.693 131.146 702.252 128.024 699.87 124.14C697.596 120.147 696.4 115.63 696.4 111.035C696.4 106.439 697.596 101.923 699.87 97.9299C702.115 94.0815 705.387 90.934 709.32 88.8399C713.425 86.7214 717.974 85.6043 722.593 85.58C727.213 85.5557 731.773 86.6248 735.9 88.6999C739.767 90.7385 742.967 93.845 745.12 97.6499C747.419 101.786 748.576 106.459 748.47 111.19C748.47 111.37 748.38 112.66 748.2 115.05L748.16 115ZM714.69 99.1699C712.46 101.086 711.032 103.77 710.69 106.69H735.02C734.653 103.789 733.229 101.125 731.02 99.2099C728.757 97.3251 725.884 96.3296 722.94 96.4099C719.973 96.3156 717.072 97.2957 714.77 99.1699" fill="white"/>
<path d="M802.82 91C806.587 94.6666 808.47 100.113 808.47 107.34V135.61H794.15V109.57C794.15 105.65 793.293 102.727 791.58 100.8C789.86 98.8799 787.38 97.91 784.14 97.91C782.547 97.8343 780.956 98.0934 779.47 98.6704C777.984 99.2474 776.635 100.13 775.51 101.26C773.37 103.5 772.3 106.833 772.3 111.26V135.68H757.98V86.25H771.66V92C773.615 89.876 776.03 88.2273 778.72 87.1799C781.676 86.0228 784.826 85.4456 788 85.48C794.12 85.48 799.06 87.3166 802.82 90.9899" fill="white"/>
<path d="M861.39 132.47C856.217 129.747 851.895 125.65 848.9 120.63C845.925 115.415 844.36 109.514 844.36 103.51C844.36 97.5057 845.925 91.6051 848.9 86.3899C851.898 81.3718 856.219 77.2756 861.39 74.5498C866.468 71.9863 872.037 70.5411 877.721 70.3117C883.405 70.0823 889.072 71.0739 894.34 73.2199C898.733 75.0988 902.619 77.991 905.68 81.6599L896.13 90.4799C894.173 88.1 891.705 86.1917 888.909 84.8968C886.113 83.6018 883.061 82.9534 879.98 82.9999C876.263 82.9328 872.592 83.8358 869.33 85.6198C866.258 87.3133 863.728 89.8405 862.03 92.9099C860.313 96.1971 859.416 99.851 859.416 103.56C859.416 107.269 860.313 110.923 862.03 114.21C863.73 117.28 866.26 119.81 869.33 121.51C872.594 123.289 876.263 124.192 879.98 124.13C883.074 124.166 886.136 123.498 888.934 122.176C891.732 120.854 894.193 118.913 896.13 116.5L905.68 125.32C902.632 129.044 898.727 131.974 894.3 133.86C889.504 135.864 884.347 136.861 879.15 136.79C872.965 136.88 866.858 135.412 861.39 132.52" fill="white"/>
<path d="M951.85 90.9996C955.95 94.6396 958.003 100.133 958.01 107.48V135.66H944.6V129.51C941.933 134.096 936.933 136.393 929.6 136.4C926.209 136.479 922.841 135.82 919.73 134.47C917.135 133.344 914.92 131.493 913.35 129.14C911.871 126.844 911.105 124.161 911.15 121.43C911.067 119.339 911.495 117.26 912.397 115.373C913.3 113.485 914.65 111.847 916.33 110.6C919.79 107.973 925.123 106.656 932.33 106.65H943.71C943.71 103.53 942.77 101.13 940.87 99.4496C938.97 97.7696 936.13 96.9196 932.33 96.9196C929.697 96.9224 927.082 97.3408 924.58 98.1596C922.239 98.8849 920.045 100.019 918.1 101.51L912.96 91.5096C915.912 89.4918 919.19 87.9998 922.65 87.0996C926.432 86.0567 930.337 85.5319 934.26 85.5396C941.913 85.5396 947.787 87.3596 951.88 90.9996H951.85ZM939.65 125C941.534 123.86 942.952 122.088 943.65 120V115H933.83C927.957 115 925.02 116.926 925.02 120.78C924.992 121.628 925.174 122.471 925.551 123.231C925.928 123.992 926.488 124.648 927.18 125.14C928.927 126.303 931.004 126.868 933.1 126.75C935.388 126.79 937.643 126.202 939.62 125.05" fill="white"/>
<path d="M975.54 134.86C972.232 134.103 969.068 132.817 966.17 131.05L970.95 120.77C973.433 122.304 976.129 123.463 978.95 124.21C981.933 125.079 985.023 125.526 988.13 125.54C994.19 125.54 997.22 124.043 997.22 121.05C997.22 119.64 996.39 118.63 994.74 118.05C992.265 117.253 989.709 116.73 987.12 116.49C983.742 116.016 980.4 115.307 977.12 114.37C974.508 113.59 972.149 112.134 970.28 110.15C968.35 108.15 967.39 105.26 967.39 101.52C967.347 98.5261 968.3 95.6029 970.1 93.21C972.144 90.6219 974.88 88.6662 977.99 87.57C981.914 86.1491 986.068 85.4709 990.24 85.57C993.745 85.5697 997.239 85.9554 1000.66 86.72C1003.67 87.3161 1006.57 88.3825 1009.25 89.88L1004.45 100C1000.11 97.5555 995.202 96.2902 990.22 96.33C987.16 96.33 984.867 96.76 983.34 97.62C982.686 97.8983 982.124 98.3558 981.719 98.9397C981.314 99.5236 981.082 100.21 981.05 100.92C981.041 101.655 981.28 102.371 981.728 102.953C982.176 103.536 982.808 103.95 983.52 104.13C986.093 104.959 988.738 105.545 991.42 105.88C994.764 106.396 998.074 107.118 1001.33 108.04C1003.9 108.798 1006.22 110.239 1008.03 112.21C1009.93 114.21 1010.88 117.027 1010.88 120.66C1010.91 123.616 1009.94 126.496 1008.13 128.83C1006.04 131.398 1003.27 133.322 1000.13 134.38C996.107 135.79 991.863 136.468 987.6 136.38C983.552 136.383 979.52 135.872 975.6 134.86" fill="white"/>
<path d="M1057.24 90.9996C1061.34 94.6396 1063.39 100.133 1063.39 107.48V135.66H1049.98V129.51C1047.31 134.096 1042.3 136.393 1034.93 136.4C1031.54 136.478 1028.17 135.819 1025.06 134.47C1022.47 133.341 1020.25 131.491 1018.68 129.14C1017.2 126.844 1016.44 124.161 1016.48 121.43C1016.4 119.338 1016.83 117.259 1017.73 115.372C1018.64 113.484 1019.99 111.846 1021.67 110.6C1025.12 107.973 1030.46 106.656 1037.67 106.65H1049.07C1049.15 105.314 1048.94 103.976 1048.45 102.731C1047.96 101.487 1047.2 100.366 1046.22 99.4496C1044.32 97.7696 1041.48 96.9196 1037.68 96.9196C1035.05 96.9224 1032.43 97.3408 1029.93 98.1596C1027.59 98.887 1025.4 100.021 1023.45 101.51L1018.31 91.5096C1021.26 89.4936 1024.54 88.0017 1028 87.0996C1031.78 86.0567 1035.69 85.5319 1039.61 85.5396C1047.26 85.5396 1053.14 87.3596 1057.24 90.9996V90.9996ZM1045.07 125C1046.95 123.856 1048.37 122.086 1049.07 120V115H1039.24C1033.37 115 1030.43 116.926 1030.43 120.78C1030.4 121.628 1030.58 122.471 1030.96 123.231C1031.34 123.992 1031.9 124.648 1032.59 125.14C1034.34 126.301 1036.41 126.866 1038.51 126.75C1040.82 126.783 1043.09 126.177 1045.07 125" fill="white"/>
<path d="M195.69 66.25L114.3 16.71" stroke="white" stroke-width="0.5" stroke-miterlimit="10"/>
<path d="M195.22 68.2998L113.83 18.7598" stroke="white" stroke-width="0.5" stroke-miterlimit="10"/>
<g opacity="0.2">
<g opacity="0.2">
<path opacity="0.2" d="M199.97 126.27L118.58 76.73" stroke="white" stroke-width="1.16" stroke-miterlimit="10"/>
</g>
</g>
<path d="M103.61 16.5099L107.29 10.46L194.92 62.1799L190.3 69.28L103.61 16.5099Z" stroke="white" stroke-width="2" stroke-miterlimit="10"/>
<path d="M12.8101 66.25L94.2001 16.71" stroke="white" stroke-width="0.5" stroke-miterlimit="10"/>
<path d="M13.28 68.2998L94.67 18.7598" stroke="white" stroke-width="0.5" stroke-miterlimit="10"/>
<g opacity="0.2">
<g opacity="0.2">
<path opacity="0.2" d="M8.53003 126.27L89.92 76.73" stroke="white" stroke-width="1.16" stroke-miterlimit="10"/>
</g>
</g>
<path d="M104.89 16.5099L101.2 10.46L13.47 62.28L18.2 69.28L104.89 16.5099Z" stroke="white" stroke-width="2" stroke-miterlimit="10"/>
<path d="M95.63 16.1499C97.63 18.1499 99.34 20.8199 104.25 20.5499C109.16 20.2799 110.86 18.1099 112.87 16.1499L203.43 67.9999L208.5 59.1999L110.14 1.99986C108.35 0.963006 106.318 0.416992 104.25 0.416992C102.182 0.416992 100.15 0.963006 98.36 1.99986L0 59.2399L5.07 67.9999L95.63 16.1499Z" fill="white"/>
<path d="M138.58 135.71C132.095 135.702 125.878 133.122 121.293 128.537C116.708 123.952 114.128 117.735 114.12 111.25C114.12 110.247 114.18 109.246 114.3 108.25L115.82 108.43C115.708 109.369 115.651 110.314 115.65 111.26C115.65 117.341 118.066 123.174 122.366 127.474C126.666 131.774 132.499 134.19 138.58 134.19C144.661 134.19 150.494 131.774 154.794 127.474C159.094 123.174 161.51 117.341 161.51 111.26C161.511 110.475 161.471 109.691 161.39 108.91L162.91 108.75C162.999 109.584 163.042 110.422 163.04 111.26C163.032 117.745 160.452 123.962 155.867 128.547C151.282 133.132 145.065 135.712 138.58 135.72" fill="white"/>
<path d="M164.17 103.45L166.17 95.7599C166.198 95.6683 166.201 95.5709 166.179 95.4778C166.156 95.3847 166.11 95.2992 166.044 95.23C165.977 95.1609 165.894 95.1105 165.802 95.0841C165.71 95.0577 165.613 95.0562 165.52 95.0799L163.42 95.6299C163.34 95.6497 163.256 95.651 163.176 95.6336C163.095 95.6161 163.02 95.5804 162.955 95.5293C162.89 95.4781 162.838 95.4128 162.803 95.3384C162.767 95.2639 162.749 95.1824 162.75 95.0999V84.5299C162.751 84.4463 162.733 84.3636 162.697 84.2882C162.661 84.2128 162.608 84.1469 162.542 84.0955C162.476 84.0441 162.399 84.0087 162.317 83.9922C162.235 83.9756 162.151 83.9782 162.07 83.9999L158.36 85.2799C158.242 85.3239 158.113 85.3239 157.995 85.2798C157.877 85.2357 157.78 85.1505 157.72 85.0399L153.96 78.6299C153.904 78.5283 153.815 78.4485 153.708 78.4032C153.601 78.3579 153.482 78.3497 153.37 78.3799L149.3 79.4999C149.204 79.5244 149.103 79.5224 149.008 79.4942C148.913 79.4661 148.827 79.4127 148.76 79.3399L144.21 74.1799C144.131 74.0868 144.021 74.0248 143.9 74.0046C143.779 73.9845 143.655 74.0076 143.55 74.0699L137.67 77.4799C137.577 77.5387 137.467 77.5656 137.357 77.5565C137.247 77.5475 137.143 77.5031 137.06 77.4299L134.5 75.2799C134.446 75.2341 134.384 75.1998 134.316 75.179C134.249 75.1582 134.178 75.1513 134.108 75.1588C134.038 75.1663 133.97 75.188 133.908 75.2225C133.847 75.2571 133.793 75.3038 133.75 75.3599L131.07 78.7099C131.021 78.7704 130.96 78.8192 130.89 78.8527C130.819 78.8863 130.743 78.9037 130.665 78.9037C130.587 78.9037 130.511 78.8863 130.441 78.8527C130.37 78.8192 130.309 78.7704 130.26 78.7099L127.07 75.0899C127.012 75.0235 126.938 74.9728 126.854 74.9424C126.771 74.912 126.682 74.9028 126.595 74.9157C126.507 74.9286 126.424 74.9632 126.354 75.0164C126.283 75.0695 126.227 75.1394 126.19 75.2199L123 82.0599C122.95 82.1714 122.863 82.2622 122.754 82.3169C122.644 82.3716 122.519 82.3867 122.4 82.3599L118.98 81.5999C118.905 81.584 118.828 81.5842 118.753 81.6003C118.679 81.6165 118.609 81.6483 118.547 81.6937C118.486 81.7391 118.435 81.797 118.397 81.8635C118.36 81.9301 118.337 82.0038 118.33 82.0799L117.69 88.3099C117.683 88.392 117.657 88.4714 117.614 88.5418C117.571 88.6122 117.513 88.6716 117.443 88.7152C117.373 88.7589 117.294 88.7857 117.212 88.7935C117.13 88.8012 117.047 88.7897 116.97 88.7599L114.8 87.9399C114.707 87.9049 114.606 87.8964 114.508 87.9153C114.41 87.9342 114.319 87.9799 114.246 88.0472C114.172 88.1145 114.119 88.2008 114.091 88.2966C114.064 88.3923 114.063 88.4939 114.09 88.5899L115.5 94.4499C115.527 94.5649 115.517 94.6854 115.472 94.7947C115.427 94.9039 115.35 94.9966 115.25 95.0599L112.25 96.8599C112.133 96.9308 112.046 97.0423 112.005 97.1731C111.965 97.304 111.974 97.4451 112.03 97.5699L114.2 102.26C114.234 102.33 114.252 102.407 114.254 102.485C114.256 102.563 114.242 102.64 114.211 102.712C114.181 102.784 114.136 102.849 114.079 102.902C114.022 102.955 113.954 102.995 113.88 103.02L112.35 103.5C112.281 103.522 112.217 103.559 112.162 103.606C112.106 103.654 112.061 103.712 112.029 103.777C111.996 103.842 111.977 103.913 111.972 103.985C111.967 104.058 111.977 104.131 112 104.2L114.15 110.69C114.154 110.746 114.154 110.803 114.15 110.86C114.15 111.1 114.21 111.81 114.7 111.79C115.07 112.016 115.427 112.264 115.77 112.53C115.862 112.6 115.974 112.637 116.09 112.637C116.206 112.637 116.318 112.6 116.41 112.53L118.71 110.7C118.787 110.635 118.847 110.551 118.882 110.456C118.917 110.362 118.927 110.26 118.91 110.16L117.29 101.38C117.27 101.284 117.277 101.185 117.309 101.093C117.341 101.001 117.398 100.919 117.473 100.857C117.548 100.794 117.638 100.753 117.734 100.738C117.831 100.722 117.929 100.734 118.02 100.77L119.55 101.41C119.623 101.439 119.701 101.453 119.779 101.449C119.857 101.445 119.933 101.425 120.003 101.389C120.072 101.353 120.133 101.302 120.181 101.24C120.229 101.178 120.263 101.106 120.28 101.03L121.28 96.6899C121.297 96.6162 121.329 96.5468 121.375 96.4861C121.42 96.4255 121.477 96.3748 121.543 96.3372C121.608 96.2997 121.681 96.2761 121.756 96.2679C121.832 96.2598 121.908 96.2673 121.98 96.2899L125.98 97.6299C126.061 97.6567 126.147 97.664 126.231 97.6511C126.316 97.6383 126.396 97.6057 126.465 97.5559C126.534 97.5062 126.591 97.4407 126.63 97.3649C126.669 97.2891 126.69 97.2052 126.69 97.1199L126.76 93.6799C126.759 93.5796 126.786 93.481 126.838 93.3952C126.89 93.3094 126.965 93.2398 127.054 93.1941C127.143 93.1484 127.244 93.1285 127.344 93.1366C127.444 93.1447 127.539 93.1804 127.62 93.2399L129.55 94.6899C129.604 94.7319 129.665 94.7629 129.731 94.7812C129.797 94.7994 129.866 94.8045 129.934 94.7961C130.001 94.7878 130.067 94.7661 130.126 94.7324C130.186 94.6988 130.238 94.6537 130.28 94.5999L134.13 89.7399C134.179 89.6717 134.244 89.6162 134.318 89.5779C134.393 89.5397 134.476 89.5197 134.56 89.5197C134.644 89.5197 134.727 89.5397 134.802 89.5779C134.876 89.6162 134.941 89.6717 134.99 89.7399L137.41 93.4299C137.458 93.5063 137.524 93.5694 137.603 93.6132C137.681 93.6569 137.77 93.6799 137.86 93.6799C137.95 93.6799 138.039 93.6569 138.117 93.6132C138.196 93.5694 138.262 93.5063 138.31 93.4299L140.47 89.9599C140.517 89.8767 140.585 89.8075 140.668 89.7593C140.751 89.7111 140.844 89.6858 140.94 89.6858C141.036 89.6858 141.129 89.7111 141.212 89.7593C141.295 89.8075 141.363 89.8767 141.41 89.9599L143.41 94.0699C143.449 94.1572 143.511 94.2322 143.589 94.2872C143.667 94.3422 143.759 94.375 143.854 94.3822C143.949 94.3894 144.045 94.3706 144.13 94.328C144.216 94.2853 144.288 94.2203 144.34 94.1399L146.51 90.8399C146.562 90.7594 146.634 90.6944 146.72 90.6518C146.805 90.6091 146.901 90.5904 146.996 90.5976C147.091 90.6047 147.183 90.6375 147.261 90.6925C147.339 90.7475 147.401 90.8226 147.44 90.9099L150.22 96.9099C150.249 96.9753 150.291 97.0341 150.343 97.0829C150.396 97.1316 150.457 97.1693 150.525 97.1936C150.592 97.2179 150.663 97.2283 150.735 97.2242C150.806 97.2201 150.876 97.2017 150.94 97.1699L156.15 94.7999C156.233 94.7629 156.323 94.7474 156.414 94.7548C156.504 94.7621 156.591 94.7921 156.667 94.8419C156.743 94.8917 156.805 94.9598 156.847 95.0398C156.89 95.1198 156.911 95.2093 156.91 95.2999L157.31 99.1899C157.31 99.281 157.333 99.3706 157.376 99.4505C157.42 99.5304 157.483 99.598 157.56 99.6469C157.637 99.6958 157.725 99.7245 157.816 99.7302C157.907 99.736 157.998 99.7187 158.08 99.6799L159.4 99.0399C159.486 98.9993 159.58 98.9818 159.675 98.9894C159.769 98.9969 159.86 99.0292 159.938 99.0829C160.016 99.1365 160.078 99.2098 160.119 99.2953C160.16 99.3808 160.177 99.4755 160.17 99.5699L160 102.15C159.993 102.225 160.002 102.301 160.026 102.372C160.05 102.443 160.089 102.509 160.139 102.564C160.19 102.62 160.252 102.664 160.321 102.695C160.39 102.725 160.465 102.74 160.54 102.74C160.622 102.742 160.703 102.763 160.776 102.8C160.849 102.837 160.913 102.89 160.963 102.956C161.012 103.021 161.047 103.096 161.064 103.177C161.081 103.257 161.079 103.34 161.06 103.42L159.27 110.81C159.251 110.882 159.248 110.958 159.26 111.032C159.272 111.106 159.299 111.177 159.34 111.24L160.45 113.02C160.5 113.092 160.566 113.151 160.644 113.192C160.721 113.233 160.807 113.254 160.895 113.254C160.983 113.254 161.069 113.233 161.146 113.192C161.224 113.151 161.29 113.092 161.34 113.02L166.84 105.1C166.894 105.022 166.927 104.932 166.936 104.838C166.945 104.744 166.93 104.649 166.892 104.563C166.854 104.477 166.794 104.401 166.718 104.345C166.643 104.288 166.554 104.252 166.46 104.24L164.73 104.03C164.652 104.02 164.577 103.993 164.51 103.952C164.444 103.91 164.387 103.855 164.343 103.79C164.299 103.724 164.27 103.65 164.258 103.573C164.245 103.495 164.249 103.416 164.27 103.34" fill="white"/>
<path d="M139.41 128.24C133.54 128.24 128.61 124.47 128.41 124.31C128.288 124.217 128.209 124.079 128.188 123.927C128.167 123.776 128.208 123.622 128.3 123.5C128.395 123.38 128.533 123.302 128.684 123.283C128.836 123.264 128.989 123.306 129.11 123.4C129.16 123.4 133.94 127.09 139.41 127.09C144.88 127.09 149.61 123.44 149.65 123.4C149.771 123.306 149.924 123.264 150.076 123.283C150.227 123.302 150.365 123.38 150.46 123.5C150.553 123.621 150.595 123.774 150.577 123.925C150.558 124.077 150.48 124.215 150.36 124.31C150.16 124.47 145.28 128.24 139.41 128.24" fill="white"/>
<path d="M133.15 112.61C133.15 114.13 132.27 115.36 131.15 115.36C130.03 115.36 129.15 114.13 129.15 112.61C129.15 111.09 130.03 109.86 131.15 109.86C132.27 109.86 133.15 111.09 133.15 112.61Z" fill="white"/>
<path d="M149.58 112.61C149.58 114.13 148.69 115.36 147.58 115.36C146.47 115.36 145.58 114.13 145.58 112.61C145.58 111.09 146.47 109.86 147.58 109.86C148.69 109.86 149.58 111.09 149.58 112.61Z" fill="white"/>
<path d="M99.62 100.94C99.62 100.45 99.56 99.9397 99.53 99.4897C98.53 86.8197 85.12 76.9097 71.93 76.9097C65.1788 76.9047 58.6441 79.2915 53.4854 83.6465C48.3267 88.0016 44.8776 94.0433 43.75 100.7L45.24 102L50.15 99.5797C50.15 99.5797 60.03 94.6997 66.24 94.6597C66.24 94.6597 79.68 107.74 95.09 104.14L98.4 100.69L99.62 100.97" fill="white"/>
<path d="M101.58 127.49C104.74 106.18 99.58 100.7 99.58 100.7L89.54 96.9997C87.2766 94.1262 84.3778 91.8167 81.0712 90.2524C77.7647 88.6882 74.1405 87.912 70.4834 87.9847C66.8262 88.0573 63.2358 88.977 59.994 90.6713C56.7522 92.3657 53.9474 94.7886 51.8 97.7497L43.8 100.75C43.8 100.75 38.66 106.23 41.8 127.54C41.8 127.54 43.8 132.94 36.8 134.07C36.8 134.07 45.38 146.53 54.97 129.31C54.9664 129.283 54.9664 129.256 54.97 129.23C59.4965 133.388 65.4652 135.619 71.6095 135.449C77.7539 135.279 83.5902 132.722 87.88 128.32C88.05 128.65 88.22 128.98 88.4 129.32C97.99 146.54 106.57 134.08 106.57 134.08C99.57 132.95 101.57 127.55 101.57 127.55L101.58 127.49ZM70.94 133.98C66.5394 133.98 62.2375 132.675 58.5785 130.23C54.9196 127.785 52.0677 124.31 50.3837 120.244C48.6996 116.179 48.259 111.705 49.1175 107.389C49.976 103.073 52.0951 99.1083 55.2069 95.9966C58.3186 92.8849 62.2832 90.7658 66.5992 89.9073C70.9153 89.0487 75.389 89.4894 79.4547 91.1734C83.5203 92.8575 86.9953 95.7093 89.4402 99.3683C91.885 103.027 93.19 107.329 93.19 111.73C93.1847 117.629 90.8388 123.285 86.6673 127.457C82.4957 131.629 76.8394 133.974 70.94 133.98" fill="white"/>
<path d="M65.69 113C65.69 114.47 64.82 115.67 63.76 115.67C62.7 115.67 61.83 114.47 61.83 113C61.83 111.53 62.7 110.33 63.76 110.33C64.82 110.33 65.69 111.53 65.69 113Z" fill="white"/>
<path d="M81.63 113C81.63 114.47 80.76 115.67 79.7 115.67C78.64 115.67 77.77 114.47 77.77 113C77.77 111.53 78.64 110.33 79.7 110.33C80.76 110.33 81.63 111.53 81.63 113Z" fill="white"/>
<path d="M71.76 128.16C66.06 128.16 61.28 124.51 61.08 124.35C61.0121 124.309 60.9535 124.254 60.9083 124.19C60.863 124.125 60.8319 124.051 60.8172 123.973C60.8025 123.895 60.8045 123.815 60.823 123.738C60.8414 123.661 60.876 123.589 60.9244 123.527C60.9728 123.464 61.0339 123.412 61.1037 123.375C61.1735 123.338 61.2504 123.316 61.3294 123.31C61.4083 123.305 61.4875 123.316 61.5617 123.344C61.636 123.371 61.7035 123.414 61.76 123.47C61.76 123.47 66.45 127.05 71.76 127.05C77.07 127.05 81.65 123.51 81.7 123.47C81.8158 123.379 81.9625 123.338 82.1084 123.355C82.2543 123.372 82.3877 123.445 82.48 123.56C82.5709 123.677 82.6123 123.825 82.5955 123.973C82.5787 124.12 82.5049 124.256 82.39 124.35C82.19 124.5 77.45 128.16 71.76 128.16Z" fill="white"/>
<path d="M194.98 73.54H174.88V76.07H194.98V73.54Z" fill="white"/>
<path d="M194.98 81.6899H174.88V84.9699H194.98V81.6899Z" fill="white"/>
<path d="M194.98 150.58H174.88V153.86H194.98V150.58Z" fill="white"/>
<path d="M194.98 90.5898H174.88V144.96H194.98V90.5898Z" fill="white"/>
<path d="M194.98 159.48H174.88V165.35H194.98V159.48Z" fill="white"/>
<path d="M32.48 73.54H12.38V76.07H32.48V73.54Z" fill="white"/>
<path d="M32.48 81.6899H12.38V84.9699H32.48V81.6899Z" fill="white"/>
<path d="M32.48 150.58H12.38V153.86H32.48V150.58Z" fill="white"/>
<path d="M32.48 90.5898H12.38V144.96H32.48V90.5898Z" fill="white"/>
<path d="M32.48 159.48H12.38V165.35H32.48V159.48Z" fill="white"/>
</svg>
