<?xml version="1.0" encoding="utf-8"?>
<!-- Generator: Adobe Illustrator 24.2.1, SVG Export Plug-In . SVG Version: 6.00 Build 0)  -->
<svg version="1.1" id="Capa_1" xmlns="http://www.w3.org/2000/svg" xmlns:xlink="http://www.w3.org/1999/xlink" x="0px" y="0px"
	 viewBox="0 0 1204.5 303.4" style="enable-background:new 0 0 1204.5 303.4;" xml:space="preserve">
<style type="text/css">
	.st0{clip-path:url(#SVGID_3_);}
	.st1{clip-path:url(#SVGID_4_);}
	.st2{fill:#FFFFFF;}
	.st3{font-family:'Montserrat-Regular';}
	.st4{font-size:62.03px;}
	.st5{clip-path:url(#SVGID_7_);}
	.st6{clip-path:url(#SVGID_8_);}
	.st7{clip-path:url(#SVGID_10_);}
	.st8{fill:none;stroke:#FFFFFF;stroke-width:0.5;stroke-miterlimit:10;}
	.st9{opacity:0.2;}
	.st10{clip-path:url(#SVGID_12_);}
	.st11{fill:none;stroke:#FFFFFF;stroke-width:1.16;stroke-miterlimit:10;}
	.st12{clip-path:url(#SVGID_15_);}
	.st13{clip-path:url(#SVGID_16_);}
	.st14{fill:none;stroke:#FFFFFF;stroke-width:2;stroke-miterlimit:10;}
	.st15{clip-path:url(#SVGID_18_);}
	.st16{clip-path:url(#SVGID_20_);}
	.st17{clip-path:url(#SVGID_23_);}
	.st18{clip-path:url(#SVGID_24_);}
	.st19{fill:#C62A84;}
</style>
<g id="Capa_2_1_">
	<g id="Capa_1-2">
		<g>
			<defs>
				<rect id="SVGID_1_" x="4.1" y="0.1" width="1200" height="300"/>
			</defs>
			<defs>
				<rect id="SVGID_2_" x="4.1" y="0.1" width="1200" height="300"/>
			</defs>
			<clipPath id="SVGID_3_">
				<use xlink:href="#SVGID_1_"  style="overflow:visible;"/>
			</clipPath>
			<clipPath id="SVGID_4_" class="st0">
				<use xlink:href="#SVGID_2_"  style="overflow:visible;"/>
			</clipPath>
			<g class="st1">
				<text transform="matrix(1 0 0 1 447.54 253.1728)" class="st2 st3 st4">Ci</text>
				<text transform="matrix(1 0 0 1 508.83 253.1728)" class="st2 st3 st4">c</text>
				<text transform="matrix(1 0 0 1 543.32 253.1728)" class="st2 st3 st4">lo </text>
				<text transform="matrix(1 0 0 1 615.15 253.1728)" class="st2 st3 st4">E</text>
				<text transform="matrix(1 0 0 1 656.21 253.1728)" class="st2 st3 st4">s</text>
				<text transform="matrix(1 0 0 1 686.55 253.1728)" class="st2 st3 st4">c</text>
				<text transform="matrix(1 0 0 1 720.98 253.1728)" class="st2 st3 st4">olar </text>
				<text transform="matrix(1 0 0 1 854.28 253.1728)" class="st2 st3 st4">2</text>
				<text transform="matrix(1 0 0 1 889.27 253.1728)" class="st2 st3 st4">0</text>
				<text transform="matrix(1 0 0 1 930.27 253.1728)" class="st2 st3 st4">2</text>
				<text transform="matrix(1 0 0 1 965.25 253.1728)" class="st2 st3 st4">0</text>
				<text transform="matrix(1 0 0 1 1006.8101 253.1728)" class="st2 st3 st4">-</text>
				<text transform="matrix(1 0 0 1 1029.83 253.1728)" class="st2 st3 st4">2</text>
				<text transform="matrix(1 0 0 1 1064.8101 253.1728)" class="st2 st3 st4">0</text>
				<text transform="matrix(1 0 0 1 1105.8201 253.1728)" class="st2 st3 st4">21</text>
				<rect x="1124.4" y="104.8" class="st2" width="14.3" height="68.1"/>
				<rect x="1148.8" y="104.8" class="st2" width="14.3" height="68.1"/>
				<path class="st2" d="M333.7,159.1h-29.8l-5.7,13.8h-15.2l28.6-64.3h14.7l28.7,64.3h-15.6L333.7,159.1z M329,147.8l-10.2-24.6
					l-10.2,24.6L329,147.8z"/>
				<g>
					<defs>
						<rect id="SVGID_5_" x="4.1" y="0.1" width="1200" height="300"/>
					</defs>
					<defs>
						<rect id="SVGID_6_" x="4.1" y="0.1" width="1200" height="300"/>
					</defs>
					<clipPath id="SVGID_7_">
						<use xlink:href="#SVGID_5_"  style="overflow:visible;"/>
					</clipPath>
					<clipPath id="SVGID_8_" class="st5">
						<use xlink:href="#SVGID_6_"  style="overflow:visible;"/>
					</clipPath>
					<g class="st6">
						<path class="st2" d="M402.4,125.9c3.7,2.1,6.8,5.2,8.9,8.9c4.3,8.4,4.3,18.3,0,26.7c-2.1,3.7-5.1,6.8-8.9,8.9
							c-3.8,2.1-8.1,3.2-12.5,3.2c-6.3,0-11.3-2-14.9-6v23h-14.3v-67.2h13.7v5.8c3.6-4.3,8.7-6.4,15.5-6.4
							C394.2,122.7,398.5,123.8,402.4,125.9 M396.4,158.2c2.4-2.5,3.5-5.8,3.5-10s-1.2-7.5-3.5-10c-5-5-13.1-5-18.1,0
							c-2.4,2.5-3.5,5.8-3.5,10c0,4.2,1.2,7.5,3.5,10C383.3,163.1,391.4,163.1,396.4,158.2"/>
						<path class="st2" d="M444.6,124.6c3.2-1.3,6.6-1.9,10-1.8V136c-1.6-0.1-2.7-0.2-3.2-0.2c-4.1,0-7.3,1.1-9.6,3.4
							s-3.5,5.7-3.5,10.3v23.3H424v-49.4h13.7v6.5C439.4,127.6,441.8,125.7,444.6,124.6"/>
						<path class="st2" d="M510.8,152.2h-37.4c0.6,2.9,2.3,5.5,4.8,7.2c2.8,1.9,6,2.8,9.4,2.7c2.3,0,4.7-0.3,6.8-1.1
							c2.1-0.8,4-2,5.5-3.6l7.6,8.3c-4.7,5.3-11.5,8-20.4,8c-5.1,0.1-10.2-1-14.8-3.3c-4.1-2-7.5-5.1-9.9-9c-2.4-4-3.6-8.5-3.5-13.1
							c-0.1-4.6,1.1-9.1,3.4-13.1c2.3-3.8,5.5-7,9.5-9.1c4.1-2.2,8.8-3.3,13.5-3.3c4.6-0.1,9.1,1,13.1,3.1c3.9,2,7.1,5.1,9.2,9
							c2.3,4.1,3.4,8.8,3.3,13.5C511.1,148.5,511,149.8,510.8,152.2 M477.3,136.3c-2.2,1.9-3.7,4.6-4,7.5h24.3
							c-0.4-2.9-1.8-5.6-4-7.5c-2.3-1.9-5.1-2.9-8.1-2.8C482.6,133.5,479.7,134.5,477.3,136.3"/>
						<path class="st2" d="M565.5,128.2c3.8,3.7,5.6,9.1,5.7,16.3v28.3h-14.3v-26c0-3.9-0.9-6.8-2.6-8.8c-1.7-1.9-4.2-2.9-7.4-2.9
							c-3.2-0.2-6.4,1.1-8.6,3.4c-2.1,2.2-3.2,5.6-3.2,10v24.4h-14.3v-49.4h13.7v5.8c2-2.1,4.4-3.8,7.1-4.8c3-1.2,6.1-1.7,9.3-1.7
							C556.8,122.7,561.7,124.5,565.5,128.2"/>
						<path class="st2" d="M634.9,104.8v68.1h-13.7v-5.6c-3.6,4.3-8.7,6.4-15.4,6.4c-4.4,0.1-8.8-1-12.6-3.1
							c-3.7-2.1-6.8-5.2-8.9-8.9c-4.3-8.4-4.3-18.4,0-26.8c2-3.8,5.1-6.8,8.9-8.9c3.9-2.1,8.2-3.2,12.6-3.1c6.3,0,11.2,2,14.8,6v-24
							L634.9,104.8z M617.3,158.1c2.4-2.5,3.6-5.8,3.6-10c0-4.2-1.2-7.5-3.6-10c-5-5-13.1-5-18.1,0c-2.4,2.5-3.6,5.8-3.6,10
							c0,4.2,1.2,7.5,3.6,10C604.2,163.1,612.3,163.1,617.3,158.1"/>
						<path class="st2" d="M696.2,152.2h-37.4c0.6,2.9,2.3,5.5,4.8,7.2c2.8,1.9,6.1,2.8,9.4,2.6c2.3,0,4.7-0.3,6.8-1.1
							c2.1-0.8,4-2,5.5-3.6l7.6,8.3c-4.7,5.3-11.5,8-20.4,8c-5.1,0.1-10.2-1-14.8-3.3c-4.1-2-7.5-5.1-9.9-9c-2.4-4-3.6-8.5-3.5-13.1
							c-0.1-4.6,1.1-9.1,3.4-13.1c2.3-3.8,5.5-7,9.5-9.1c4.1-2.2,8.8-3.3,13.5-3.3c4.6-0.1,9.1,1,13.1,3.1c3.9,2,7.1,5.1,9.2,9
							c2.3,4.1,3.5,8.8,3.3,13.5C696.5,148.6,696.4,149.9,696.2,152.2 M662.7,136.4c-2.2,1.9-3.7,4.6-4,7.5h24.3
							c-0.4-2.9-1.8-5.6-4-7.5c-2.3-1.9-5.1-2.9-8.1-2.8C668,133.5,665.1,134.5,662.7,136.4"/>
						<path class="st2" d="M780.2,152.2h-37.4c0.6,2.9,2.3,5.5,4.8,7.2c2.8,1.9,6,2.8,9.4,2.7c2.3,0,4.7-0.3,6.8-1.1
							c2.1-0.8,4-2.1,5.6-3.6l7.6,8.3c-4.7,5.3-11.5,8-20.4,8c-5.1,0.1-10.2-1-14.8-3.3c-4.1-2-7.5-5.1-9.9-9
							c-4.6-8.1-4.6-18.1,0-26.2c2.2-3.8,5.5-7,9.5-9.1c8.3-4.3,18.2-4.3,26.6-0.1c3.9,2,7.1,5.1,9.2,9c2.3,4.1,3.5,8.8,3.3,13.5
							C780.5,148.6,780.4,149.9,780.2,152.2 M746.7,136.4c-2.2,1.9-3.7,4.6-4,7.5H767c-0.4-2.9-1.8-5.6-4-7.5
							c-2.3-1.9-5.1-2.9-8.1-2.8C752,133.5,749.1,134.5,746.7,136.4"/>
						<path class="st2" d="M834.8,128.2c3.8,3.7,5.7,9.1,5.7,16.3v28.3h-14.3v-26c0-3.9-0.9-6.8-2.6-8.8c-1.7-1.9-4.2-2.9-7.4-2.9
							c-3.2-0.2-6.4,1.1-8.6,3.4c-2.1,2.2-3.2,5.6-3.2,10v24.4H790v-49.4h13.7v5.8c2-2.1,4.4-3.8,7.1-4.8c3-1.2,6.1-1.7,9.3-1.7
							C826.1,122.7,831.1,124.5,834.8,128.2"/>
						<path class="st2" d="M893.4,169.7c-5.2-2.7-9.5-6.8-12.5-11.8c-6.1-10.6-6.1-23.6,0-34.2c3-5,7.3-9.1,12.5-11.8
							c10.3-5.2,22.3-5.7,33-1.3c4.4,1.9,8.3,4.8,11.3,8.4l-9.5,8.8c-4-4.8-9.9-7.6-16.2-7.5c-3.7-0.1-7.4,0.8-10.7,2.6
							c-3.1,1.7-5.6,4.2-7.3,7.3c-3.5,6.7-3.5,14.6,0,21.3c1.7,3.1,4.2,5.6,7.3,7.3c3.3,1.8,6.9,2.7,10.7,2.6
							c6.3,0.1,12.2-2.7,16.2-7.6l9.5,8.8c-3,3.7-7,6.7-11.4,8.5c-4.8,2-10,3-15.2,2.9C905,174.1,898.9,172.6,893.4,169.7"/>
						<path class="st2" d="M983.9,128.2c4.1,3.6,6.2,9.1,6.2,16.5v28.2h-13.4v-6.1c-2.7,4.6-7.7,6.9-15,6.9
							c-3.4,0.1-6.8-0.6-9.9-1.9c-2.6-1.1-4.8-3-6.4-5.3c-1.5-2.3-2.2-5-2.2-7.7c-0.2-4.2,1.8-8.3,5.2-10.8c3.5-2.6,8.8-3.9,16-4
							h11.4c0-3.1-0.9-5.5-2.8-7.2s-4.7-2.5-8.5-2.5c-2.6,0-5.2,0.4-7.8,1.2c-2.3,0.7-4.5,1.9-6.5,3.4l-5.1-10c3-2,6.2-3.5,9.7-4.4
							c3.8-1,7.7-1.6,11.6-1.6C973.9,122.8,979.8,124.6,983.9,128.2 M971.7,162.2c1.9-1.1,3.3-2.9,4-5v-5h-9.8
							c-5.9,0-8.8,1.9-8.8,5.8c-0.1,1.7,0.8,3.4,2.2,4.4c1.7,1.2,3.8,1.7,5.9,1.6C967.4,164,969.6,163.4,971.7,162.2"/>
						<path class="st2" d="M1007.5,172.1c-3.3-0.8-6.5-2-9.4-3.8l4.8-10.3c2.5,1.5,5.2,2.7,8,3.4c3,0.9,6.1,1.3,9.2,1.3
							c6.1,0,9.1-1.5,9.1-4.5c0-1.4-0.8-2.4-2.5-3c-2.5-0.8-5-1.3-7.6-1.6c-3.4-0.5-6.7-1.2-10-2.1c-2.6-0.8-5-2.2-6.8-4.2
							c-1.9-2-2.9-4.9-2.9-8.6c0-3,0.9-5.9,2.7-8.3c2-2.6,4.8-4.5,7.9-5.6c3.9-1.4,8.1-2.1,12.2-2c3.5,0,7,0.4,10.4,1.1
							c3,0.6,5.9,1.7,8.6,3.2l-4.8,10.1c-4.3-2.4-9.2-3.7-14.2-3.7c-3.1,0-5.4,0.4-6.9,1.3c-1.3,0.6-2.2,1.9-2.3,3.3
							c0,1.5,1,2.8,2.5,3.2c2.6,0.8,5.2,1.4,7.9,1.8c3.3,0.5,6.7,1.2,9.9,2.2c2.6,0.8,4.9,2.2,6.7,4.2c1.9,2,2.8,4.8,2.8,8.5
							c0,3-0.9,5.8-2.8,8.2c-2.1,2.6-4.9,4.5-8,5.5c-4,1.4-8.3,2.1-12.5,2C1015.6,173.6,1011.5,173.1,1007.5,172.1"/>
						<path class="st2" d="M1089.2,128.2c4.1,3.6,6.2,9.1,6.2,16.5v28.2H1082v-6.1c-2.7,4.6-7.7,6.9-15.1,6.9
							c-3.4,0.1-6.8-0.6-9.9-1.9c-2.6-1.1-4.8-3-6.4-5.3c-1.5-2.3-2.2-5-2.2-7.7c-0.2-4.2,1.8-8.3,5.2-10.8c3.5-2.6,8.8-3.9,16-4
							h11.4c0.2-2.7-0.9-5.3-2.8-7.2c-1.9-1.7-4.7-2.5-8.5-2.5c-2.6,0-5.2,0.4-7.8,1.2c-2.3,0.7-4.5,1.9-6.5,3.4l-5.1-10
							c3-2,6.2-3.5,9.7-4.4c3.8-1,7.7-1.6,11.6-1.6C1079.3,122.8,1085.1,124.6,1089.2,128.2 M1077.1,162.2c1.9-1.1,3.3-2.9,4-5v-5
							h-9.8c-5.9,0-8.8,1.9-8.8,5.8c-0.1,1.7,0.8,3.4,2.2,4.4c1.7,1.2,3.8,1.7,5.9,1.6C1072.8,164,1075.1,163.4,1077.1,162.2"/>
					</g>
				</g>
				<g>
					<defs>
						<polygon id="SVGID_9_" points="135.6,53.7 222.3,106.5 226.9,99.4 139.3,47.7 						"/>
					</defs>
					<clipPath id="SVGID_10_">
						<use xlink:href="#SVGID_9_"  style="overflow:visible;"/>
					</clipPath>
					<g class="st7">
						<line class="st8" x1="227.7" y1="103.5" x2="146.3" y2="53.9"/>
						<line class="st8" x1="227.2" y1="105.5" x2="145.8" y2="56"/>
						<g class="st9">
							<g>
								<defs>
									<rect id="SVGID_11_" x="150.3" y="113.5" width="82" height="50.5"/>
								</defs>
								<clipPath id="SVGID_12_">
									<use xlink:href="#SVGID_11_"  style="overflow:visible;"/>
								</clipPath>
								<g class="st10">
									<line class="st11" x1="232" y1="163.5" x2="150.6" y2="114"/>
								</g>
							</g>
						</g>
					</g>
				</g>
				<g>
					<defs>
						<rect id="SVGID_13_" x="4.1" y="0.1" width="1200" height="300"/>
					</defs>
					<defs>
						<rect id="SVGID_14_" x="4.1" y="0.1" width="1200" height="300"/>
					</defs>
					<clipPath id="SVGID_15_">
						<use xlink:href="#SVGID_13_"  style="overflow:visible;"/>
					</clipPath>
					<clipPath id="SVGID_16_" class="st12">
						<use xlink:href="#SVGID_14_"  style="overflow:visible;"/>
					</clipPath>
					<g class="st13">
						<polygon class="st14" points="135.6,53.7 139.3,47.7 226.9,99.4 222.3,106.5 						"/>
					</g>
				</g>
				<g>
					<defs>
						<polygon id="SVGID_17_" points="45.5,99.5 50.2,106.5 136.9,53.7 133.2,47.7 						"/>
					</defs>
					<clipPath id="SVGID_18_">
						<use xlink:href="#SVGID_17_"  style="overflow:visible;"/>
					</clipPath>
					<g class="st15">
						<line class="st8" x1="44.8" y1="103.5" x2="126.2" y2="53.9"/>
						<line class="st8" x1="45.3" y1="105.5" x2="126.7" y2="56"/>
						<g class="st9">
							<g>
								<defs>
									<rect id="SVGID_19_" x="40.2" y="113.5" width="82" height="50.5"/>
								</defs>
								<clipPath id="SVGID_20_">
									<use xlink:href="#SVGID_19_"  style="overflow:visible;"/>
								</clipPath>
								<g class="st16">
									<line class="st11" x1="40.5" y1="163.5" x2="121.9" y2="114"/>
								</g>
							</g>
						</g>
					</g>
				</g>
				<g>
					<defs>
						<rect id="SVGID_21_" x="4.1" y="0.1" width="1200" height="300"/>
					</defs>
					<defs>
						<rect id="SVGID_22_" x="4.1" y="0.1" width="1200" height="300"/>
					</defs>
					<clipPath id="SVGID_23_">
						<use xlink:href="#SVGID_21_"  style="overflow:visible;"/>
					</clipPath>
					<clipPath id="SVGID_24_" class="st17">
						<use xlink:href="#SVGID_22_"  style="overflow:visible;"/>
					</clipPath>
					<g class="st18">
						<polygon class="st14" points="136.9,53.7 133.2,47.7 45.5,99.5 50.2,106.5 						"/>
						<path class="st2" d="M127.6,53.4c2,2,3.7,4.7,8.6,4.4s6.6-2.4,8.6-4.4l90.6,51.9l5.1-8.8l-98.4-57.2c-3.6-2.1-8.1-2.1-11.8,0
							L32,96.5l5.1,8.8L127.6,53.4z"/>
						<path class="st2" d="M170.6,172.9c-13.5,0-24.4-11-24.5-24.5c0-1,0.1-2,0.2-3l1.5,0.2c-0.1,0.9-0.2,1.9-0.2,2.8
							c0,12.7,10.3,22.9,22.9,22.9s22.9-10.3,22.9-22.9c0-0.8,0-1.6-0.1-2.4l1.5-0.2c0.1,0.8,0.1,1.7,0.1,2.5
							C195,162,184.1,172.9,170.6,172.9"/>
						<path class="st2" d="M196.2,140.7l2-7.7c0.1-0.3-0.1-0.6-0.4-0.7c-0.1,0-0.2,0-0.3,0l-2.1,0.5c-0.3,0.1-0.6-0.1-0.7-0.4
							c0,0,0-0.1,0-0.1v-10.6c0-0.3-0.2-0.5-0.5-0.5c-0.1,0-0.1,0-0.1,0l-3.7,1.3c-0.2,0.1-0.5,0-0.6-0.2l-3.8-6.4
							c-0.1-0.2-0.4-0.3-0.6-0.2l-4.1,1.1c-0.2,0-0.4,0-0.5-0.2l-4.6-5.2c-0.2-0.2-0.4-0.2-0.7-0.1l-5.9,3.4c-0.2,0.1-0.4,0.1-0.6,0
							l-2.6-2.1c-0.2-0.2-0.5-0.2-0.7,0.1c0,0,0,0,0,0l-2.7,3.3c-0.2,0.2-0.5,0.3-0.7,0.1c0,0-0.1,0-0.1-0.1l-3.2-3.6
							c-0.2-0.2-0.5-0.2-0.7,0c-0.1,0-0.1,0.1-0.1,0.2l-3.2,6.8c-0.1,0.2-0.4,0.4-0.6,0.3l-3.4-0.8c-0.3-0.1-0.6,0.1-0.6,0.4
							c0,0,0,0,0,0.1l-0.6,6.2c0,0.3-0.3,0.5-0.6,0.5c-0.1,0-0.1,0-0.1,0l-2.2-0.8c-0.3-0.1-0.6,0-0.7,0.3c0,0.1,0,0.2,0,0.3
							l1.4,5.9c0.1,0.2,0,0.5-0.2,0.6l-3,1.8c-0.2,0.1-0.3,0.5-0.2,0.7l2.2,4.7c0.1,0.3,0,0.6-0.3,0.7c0,0,0,0-0.1,0l-1.5,0.5
							c-0.3,0.1-0.4,0.4-0.4,0.7c0,0,0,0,0,0l2.1,6.5c0,0.1,0,0.1,0,0.2c0,0.2,0.1,1,0.6,0.9c0.4,0.2,0.7,0.5,1.1,0.7
							c0.2,0.1,0.5,0.1,0.6,0l2.3-1.8c0.2-0.1,0.2-0.3,0.2-0.5l-1.6-8.8c-0.1-0.3,0.1-0.6,0.4-0.6c0.1,0,0.2,0,0.3,0l1.5,0.6
							c0.3,0.1,0.6,0,0.7-0.3c0,0,0-0.1,0-0.1l1-4.3c0.1-0.3,0.4-0.5,0.7-0.4c0,0,0,0,0,0l4,1.3c0.3,0.1,0.6-0.1,0.7-0.3
							c0-0.1,0-0.1,0-0.2l0.1-3.4c0-0.3,0.2-0.5,0.5-0.5c0.1,0,0.2,0,0.3,0.1l1.9,1.5c0.2,0.2,0.6,0.1,0.7-0.1c0,0,0,0,0,0l3.9-4.9
							c0.2-0.2,0.5-0.3,0.7-0.1c0,0,0.1,0.1,0.1,0.1l2.4,3.7c0.2,0.2,0.5,0.3,0.7,0.2c0.1,0,0.1-0.1,0.2-0.2l2.2-3.5
							c0.1-0.3,0.5-0.4,0.7-0.2c0.1,0,0.2,0.1,0.2,0.2l2,4.1c0.1,0.3,0.4,0.4,0.7,0.3c0.1,0,0.2-0.1,0.2-0.2l2.2-3.3
							c0.2-0.2,0.5-0.3,0.7-0.2c0.1,0.1,0.2,0.1,0.2,0.2l2.8,6c0.1,0.3,0.4,0.4,0.7,0.3c0,0,0,0,0,0l5.2-2.4c0.3-0.1,0.6,0,0.7,0.3
							c0,0.1,0,0.1,0,0.2l0.4,3.9c0,0.3,0.2,0.5,0.5,0.5c0.1,0,0.2,0,0.2-0.1l1.3-0.6c0.3-0.1,0.6,0,0.7,0.3c0,0.1,0.1,0.2,0.1,0.3
							l-0.2,2.6c0,0.3,0.2,0.6,0.5,0.6c0,0,0,0,0.1,0c0.3,0,0.5,0.3,0.5,0.6c0,0,0,0.1,0,0.1l-1.8,7.4c0,0.1,0,0.3,0.1,0.4l1.1,1.8
							c0.2,0.2,0.5,0.3,0.8,0.1c0.1,0,0.1-0.1,0.1-0.1l5.5-7.9c0.2-0.2,0.1-0.6-0.1-0.8c-0.1-0.1-0.2-0.1-0.2-0.1l-1.7-0.2
							C196.4,141.2,196.2,140.9,196.2,140.7c0.1-0.1,0.1-0.1,0.1-0.1"/>
						<path class="st2" d="M171.4,165.5c-5.9,0-10.8-3.8-11-3.9c-0.3-0.2-0.3-0.6-0.1-0.8c0.2-0.2,0.6-0.3,0.8-0.1
							c0.1,0,4.8,3.7,10.3,3.7s10.2-3.6,10.2-3.7c0.3-0.2,0.6-0.1,0.8,0.1c0.2,0.3,0.1,0.6-0.1,0.8
							C182.2,161.7,177.3,165.5,171.4,165.5"/>
						<path class="st2" d="M165.1,149.8c0,1.5-0.9,2.8-2,2.8s-2-1.2-2-2.8s0.9-2.8,2-2.8S165.1,148.3,165.1,149.8"/>
						<path class="st2" d="M181.6,149.8c0,1.5-0.9,2.8-2,2.8c-1.1,0-2-1.2-2-2.8s0.9-2.8,2-2.8C180.7,147.1,181.6,148.3,181.6,149.8
							"/>
						<path class="st2" d="M131.6,138.2c0-0.5-0.1-1-0.1-1.5l0,0l0,0c-1-12.7-14.4-22.6-27.6-22.6c-13.9,0-25.9,10-28.2,23.8
							l1.5,1.3l4.9-2.4c0,0,9.9-4.9,16.1-4.9c0,0,13.4,13.1,28.8,9.5l3.3-3.5L131.6,138.2"/>
						<path class="st2" d="M133.6,164.7c3.2-21.3-2-26.8-2-26.8l-10-3.7c-8.1-10.3-23-12-33.2-3.9c-1.7,1.3-3.2,2.9-4.5,4.7l-8,3
							c0,0-5.1,5.5-2,26.8c0,0,2,5.4-5,6.5c0,0,8.6,12.5,18.2-4.8c0,0,0-0.1,0-0.1c9.4,8.6,24,8.2,32.9-0.9c0.2,0.3,0.3,0.7,0.5,1
							c9.6,17.2,18.2,4.8,18.2,4.8C131.6,170.2,133.6,164.8,133.6,164.7 M102.9,171.2c-12.3,0-22.2-10-22.2-22.2s10-22.2,22.2-22.2
							s22.2,10,22.2,22.2C125.2,161.2,115.2,171.2,102.9,171.2"/>
						<path class="st2" d="M97.7,150.2c0,1.5-0.9,2.7-1.9,2.7s-1.9-1.2-1.9-2.7s0.9-2.7,1.9-2.7S97.7,148.8,97.7,150.2"/>
						<path class="st2" d="M113.6,150.2c0,1.5-0.9,2.7-1.9,2.7s-1.9-1.2-1.9-2.7s0.9-2.7,1.9-2.7S113.6,148.8,113.6,150.2"/>
						<path class="st2" d="M103.8,165.4c-5.7,0-10.5-3.6-10.7-3.8c-0.3-0.2-0.4-0.5-0.2-0.8c0.2-0.3,0.5-0.4,0.8-0.2
							c0,0,0.1,0,0.1,0.1c0,0,4.7,3.6,10,3.6s9.9-3.5,9.9-3.6c0.2-0.2,0.6-0.1,0.8,0.1c0.2,0.2,0.1,0.6-0.1,0.8
							C114.2,161.7,109.5,165.4,103.8,165.4"/>
					</g>
				</g>
				<rect x="2402.3" y="-175.8" class="st19" width="14.3" height="68.1"/>
				<rect x="2426.6" y="-175.8" class="st19" width="14.3" height="68.1"/>
			</g>
		</g>
	</g>
</g>
</svg>
