<?xml version="1.0" encoding="UTF-8" standalone="no"?>
<svg
   xmlns:dc="http://purl.org/dc/elements/1.1/"
   xmlns:cc="http://creativecommons.org/ns#"
   xmlns:rdf="http://www.w3.org/1999/02/22-rdf-syntax-ns#"
   xmlns:svg="http://www.w3.org/2000/svg"
   xmlns="http://www.w3.org/2000/svg"
   xmlns:sodipodi="http://sodipodi.sourceforge.net/DTD/sodipodi-0.dtd"
   xmlns:inkscape="http://www.inkscape.org/namespaces/inkscape"
   width="240px"
   height="61px"
   viewBox="0 0 240 61"
   version="1.1"
   id="svg872"
   sodipodi:docname="manual_alumnos@2x.svg"
   inkscape:version="0.92.5 (2060ec1f9f, 2020-04-08)">
  <metadata
     id="metadata878">
    <rdf:RDF>
      <cc:Work
         rdf:about="">
        <dc:format>image/svg+xml</dc:format>
        <dc:type
           rdf:resource="http://purl.org/dc/dcmitype/StillImage" />
        <dc:title>carta_padres@2x</dc:title>
      </cc:Work>
    </rdf:RDF>
  </metadata>
  <defs
     id="defs876" />
  <sodipodi:namedview
     pagecolor="#ffffff"
     bordercolor="#666666"
     borderopacity="1"
     objecttolerance="10"
     gridtolerance="10"
     guidetolerance="10"
     inkscape:pageopacity="0"
     inkscape:pageshadow="2"
     inkscape:window-width="1894"
     inkscape:window-height="1032"
     id="namedview874"
     showgrid="false"
     showborder="true"
     inkscape:zoom="4.6333333"
     inkscape:cx="76.460242"
     inkscape:cy="30.5"
     inkscape:window-x="9"
     inkscape:window-y="31"
     inkscape:window-maximized="0"
     inkscape:current-layer="layer2" />
  <!-- Generator: Sketch 63.1 (92452) - https://sketch.com -->
  <title
     id="title834">carta_padres@2x</title>
  <desc
     id="desc836">Created with Sketch.</desc>
  <g
     inkscape:groupmode="layer"
     id="layer2"
     inkscape:label="Layer 2"
     style="opacity:1">
    <g
       style="fill:none;fill-rule:evenodd"
       id="g1047">
      <rect
         style="fill:#00a2aa"
         x="0"
         width="240"
         height="48"
         y="13"
         rx="24"
         id="rect1021" />
      <circle
         style="fill:#037d83"
         cx="24"
         cy="37"
         r="24"
         id="circle1023" />
      <path
         style="fill:#006dd0"
         inkscape:connector-curvature="0"
         d="M 46.656,44.172 H 3.456 V 13.068 H 0 v 34.56 h 21.03 c 0.699,-0.017 1.342,0.38 1.642,1.011 0.407,0.956 1.345,1.576 2.384,1.576 1.04,0 1.977,-0.62 2.384,-1.576 0.3,-0.632 0.943,-1.028 1.642,-1.01 h 21.03 v -34.56 h -3.456 z"
         id="path1025" />
      <path
         style="fill:#efeadd;fill-rule:nonzero"
         inkscape:connector-curvature="0"
         d="m 3.456,9.612 h 43.2 v 34.56 h -43.2 z"
         id="path1027" />
      <path
         style="fill:#333e53;fill-rule:nonzero"
         inkscape:connector-curvature="0"
         d="M 6.912,18.252 H 20.736 V 28.62 H 6.912 Z"
         id="path1029" />
      <path
         style="fill:#ffb233"
         inkscape:connector-curvature="0"
         d="m 37.152,12.204 c -0.002,5.235 -3.37,9.875 -8.346,11.5 l -3.75,6.705 -3.75,-6.705 c -5.884,-1.919 -9.371,-7.97 -8.08,-14.023 1.291,-6.053 6.944,-10.156 13.099,-9.506 6.155,0.649 10.827,5.84 10.827,12.03 z"
         id="path1031" />
      <path
         style="fill:#333e53;fill-rule:nonzero"
         inkscape:connector-curvature="0"
         d="M 28.512,32.94 H 43.2 v 6.912 H 28.512 Z"
         id="path1033" />
      <path
         style="fill:#ffffff"
         inkscape:connector-curvature="0"
         d="m 23.328,11.34 h 3.456 v 8.64 h -3.456 z m 3.456,-4.32 c 0,0.955 -0.774,1.728 -1.728,1.728 -0.954,0 -1.728,-0.773 -1.728,-1.728 0,-0.954 0.774,-1.728 1.728,-1.728 0.954,0 1.728,0.774 1.728,1.728 z"
         id="path1035" />
      <path
         style="fill:#d7d3c7;fill-rule:nonzero"
         inkscape:connector-curvature="0"
         d="m 3.456,22.572 v 21.6 h 19.872 c -10.984,0 -19.872,-9.66 -19.872,-21.6 z"
         id="path1037" />
      <g
         style="fill:#333e53;fill-rule:nonzero"
         id="g1041">
        <path
           inkscape:connector-curvature="0"
           d="m 0,12.96 h 1.728 v 1.728 H 0 Z m 3.456,0 h 12.096 v 1.728 H 3.456 Z M 0,16.416 h 1.728 v 1.728 H 0 Z m 3.456,0 h 12.096 v 1.728 H 3.456 Z M 0,19.872 H 1.728 V 21.6 H 0 Z m 3.456,0 H 15.552 V 21.6 H 3.456 Z M 25.92,10.368 h 11.232 v 1.728 H 25.92 Z m 0,-3.456 H 37.152 V 8.64 H 25.92 Z m 4.32,-3.456 h 6.912 V 5.184 H 30.24 Z M 31.968,0 h 5.184 v 1.728 h -5.184 z"
           transform="translate(6.048,18.252)"
           id="path1039" />
      </g>
      <text
         style="font-weight:400;font-size:16px;font-family:Montserrat-Medium, Montserrat;fill:#ffffff"
         font-size="16"
         font-weight="400"
         id="text1045">
        <tspan
           x="55"
           y="43"
           id="tspan1043">Manual para alumnos</tspan>
      </text>
    </g>
  </g>
  <g
     inkscape:groupmode="layer"
     id="layer3"
     inkscape:label="Layer 1" />
</svg>
