<?xml version="1.0" encoding="UTF-8"?>
<svg width="240px" height="61px" viewBox="0 0 240 61" version="1.1" xmlns="http://www.w3.org/2000/svg" xmlns:xlink="http://www.w3.org/1999/xlink">
    <!-- Generator: Sketch 63.1 (92452) - https://sketch.com -->
    <title>prueba@2x</title>
    <desc>Created with Sketch.</desc>
    <g id="Screens" stroke="none" stroke-width="1" fill="none" fill-rule="evenodd">
        <g id="Introducción-" transform="translate(-340.000000, -786.000000)">
            <g id="Group-2" transform="translate(165.000000, 217.000000)">
                <g id="prueba" transform="translate(175.000000, 569.000000)">
                    <rect id="Rectangle" fill="#00A2AA" x="0" y="13" width="240" height="48" rx="24"></rect>
                    <circle id="Oval" fill="#037D83" cx="24" cy="37" r="24"></circle>
                    <g id="manual">
                        <path d="M46.656,44.1724218 L3.456,44.1724218 L3.456,13.0684218 L0,13.0684218 L0,47.6284218 L21.029625,47.6284218 C21.7286718,47.611125 22.3720313,48.0072657 22.6715625,48.6392343 C23.0786718,49.5947813 24.0169218,50.2153593 25.056,50.2153593 C26.0950782,50.2153593 27.0333282,49.5947813 27.4404375,48.6392343 C27.7399687,48.0072657 28.3833282,47.611125 29.082375,47.6284218 L50.112,47.6284218 L50.112,13.0684218 L46.656,13.0684218 L46.656,44.1724218 Z" id="Path" fill="#006DD0"></path>
                        <polygon id="Path" fill="#EFEADD" fill-rule="nonzero" points="3.456 9.61242185 46.656 9.61242185 46.656 44.1724218 3.456 44.1724218"></polygon>
                        <polygon id="Path" fill="#333E53" fill-rule="nonzero" points="6.912 18.2524218 20.736 18.2524218 20.736 28.6204218 6.912 28.6204218"></polygon>
                        <path d="M37.152,12.2044218 C37.1498907,17.4390468 33.7820625,22.07925 28.805625,23.7043125 L25.056,30.40875 L21.306375,23.7043125 C15.4216407,21.7852032 11.9348437,15.73425 13.2262032,9.68076565 C14.5171407,3.62770315 20.1694218,-0.474609348 26.3245782,0.174656304 C32.4801563,0.823921848 37.152,6.01467185 37.152,12.2044218 Z" id="Path" fill="#FFB233"></path>
                        <polygon id="Path" fill="#333E53" fill-rule="nonzero" points="28.512 32.9404218 43.2 32.9404218 43.2 39.8524218 28.512 39.8524218"></polygon>
                        <polygon id="Path" fill="#FFFFFF" points="23.328 11.3404218 26.784 11.3404218 26.784 19.9804218 23.328 19.9804218"></polygon>
                        <path d="M26.784,7.02042185 C26.784,7.97470315 26.0102813,8.74842185 25.056,8.74842185 C24.1017187,8.74842185 23.328,7.97470315 23.328,7.02042185 C23.328,6.0657187 24.1017187,5.29242185 25.056,5.29242185 C26.0102813,5.29242185 26.784,6.0657187 26.784,7.02042185 Z" id="Path" fill="#FFFFFF"></path>
                        <path d="M3.456,22.5724218 L3.456,44.1724218 L23.328,44.1724218 C12.3440625,44.1724218 3.456,34.5110625 3.456,22.5724218 Z" id="Path" fill="#D7D3C7" fill-rule="nonzero"></path>
                        <g id="Group" transform="translate(6.048000, 18.252000)" fill="#333E53" fill-rule="nonzero">
                            <polygon id="Path" points="0 12.9604218 1.728 12.9604218 1.728 14.6884218 0 14.6884218"></polygon>
                            <polygon id="Path" points="3.456 12.9604218 15.552 12.9604218 15.552 14.6884218 3.456 14.6884218"></polygon>
                            <polygon id="Path" points="0 16.4164218 1.728 16.4164218 1.728 18.1444218 0 18.1444218"></polygon>
                            <polygon id="Path" points="3.456 16.4164218 15.552 16.4164218 15.552 18.1444218 3.456 18.1444218"></polygon>
                            <polygon id="Path" points="0 19.8724218 1.728 19.8724218 1.728 21.6004218 0 21.6004218"></polygon>
                            <polygon id="Path" points="3.456 19.8724218 15.552 19.8724218 15.552 21.6004218 3.456 21.6004218"></polygon>
                            <polygon id="Path" points="25.92 10.3684218 37.152 10.3684218 37.152 12.0964218 25.92 12.0964218"></polygon>
                            <polygon id="Path" points="25.92 6.91242185 37.152 6.91242185 37.152 8.64042185 25.92 8.64042185"></polygon>
                            <polygon id="Path" points="30.24 3.45642185 37.152 3.45642185 37.152 5.18442185 30.24 5.18442185"></polygon>
                            <polygon id="Path" points="31.968 0.000421848 37.152 0.000421848 37.152 1.72842185 31.968 1.72842185"></polygon>
                        </g>
                    </g>
                    <text id="Manual-para-alumnos" font-family="Montserrat-Medium, Montserrat" font-size="16" font-weight="400" fill="#FFFFFF">
                        <tspan x="55" y="43">Manual para alumnos </tspan>
                    </text>
                </g>
            </g>
        </g>
    </g>
</svg>