<svg xmlns="http://www.w3.org/2000/svg" width="349" height="84" fill="none" viewBox="0 0 349 84">
    <rect width="349" height="84" fill="#0F7B30" rx="8"/>
    <path fill="#0BA240" d="M48.765 66.203c13.587 0 24.602-11.015 24.602-24.602C73.367 28.016 62.352 17 48.765 17S24.164 28.015 24.164 41.602s11.014 24.601 24.601 24.601z"/>
    <path fill="#7E7F55" d="M20.283 61.831l3.55 1.539H36.14l-5.014-1.754-10.844.215zM61.29 64.44l3.545 1.538h12.313l-5.018-1.754-10.84.216zM32.087 59.943l4.244 2.177h39.13L80 56.49H68.398L54.7 58.734l-20.057-.068-2.557 1.276z" opacity=".25"/>
    <path fill="url(#prefix__paint0_linear)" d="M38.28 60.232h-6.607l-.295-6.903h6.902v6.903z"/>
    <path fill="#2B6B78" d="M38.28 53.329h1.745l-.241 6.903H38.28v-6.903z"/>
    <path style="mix-blend-mode:overlay" fill="url(#prefix__paint1_linear)" d="M32.087 59.943l-.314-6.197h6.119l-5.2.82-.605 5.377z" opacity=".75"/>
    <path fill="#22567D" d="M37.892 53.746v6.197h-5.805l5.088-.44.717-5.757z" opacity=".3"/>
    <path fill="url(#prefix__paint2_linear)" d="M41.897 53.329H35.29l-.296-6.903h6.903v6.903z"/>
    <path fill="#2B6B78" d="M41.897 46.426h1.741l-.24 6.903h-1.5v-6.903z"/>
    <path style="mix-blend-mode:overlay" fill="url(#prefix__paint3_linear)" d="M35.701 53.04l-.315-6.197h6.12l-5.201.82-.604 5.377z" opacity=".75"/>
    <path fill="#22567D" d="M41.505 46.843v6.197h-5.804l5.088-.44.716-5.757z" opacity=".3"/>
    <path fill="url(#prefix__paint4_linear)" d="M45.28 60.232h-6.608l-.295-6.903h6.903v6.903z"/>
    <path fill="#800A45" d="M45.28 53.329h1.744l-.241 6.903H45.28v-6.903z"/>
    <path style="mix-blend-mode:overlay" fill="url(#prefix__paint5_linear)" d="M39.087 59.943l-.315-6.197h6.12l-5.201.82-.604 5.377z" opacity=".75"/>
    <path fill="#943219" d="M44.891 53.746v6.197h-5.804l5.088-.44.716-5.757z" opacity=".3"/>
    <path fill="url(#prefix__paint6_linear)" d="M58.315 60.232h-6.608l-.295-6.903h6.903v6.903z"/>
    <path fill="#2B6B78" d="M58.315 53.329h1.74l-.24 6.903h-1.5v-6.903z"/>
    <path style="mix-blend-mode:overlay" fill="url(#prefix__paint7_linear)" d="M52.122 59.943l-.315-6.197h6.119l-5.204.82-.6 5.377z" opacity=".75"/>
    <path fill="#22567D" d="M57.926 53.746v6.197h-5.804l5.088-.44.716-5.757z" opacity=".3"/>
    <path fill="url(#prefix__paint8_linear)" d="M58.15 46.41h-6.607l-.295-6.903h6.903v6.903z"/>
    <path fill="#2B6B78" d="M58.15 39.507h1.745l-.24 6.903H58.15v-6.903z"/>
    <path style="mix-blend-mode:overlay" fill="url(#prefix__paint9_linear)" d="M51.958 46.12l-.315-6.192h6.12l-5.204.815-.601 5.378z" opacity=".75"/>
    <path fill="#22567D" d="M57.762 39.928v6.193h-5.804l5.088-.44.716-5.753z" opacity=".3"/>
    <path fill="url(#prefix__paint10_linear)" d="M54.26 53.329h-2.916c.537-5.516-6.8-5.583-6.064 0h-3.184v-6.903h12.165v6.903z"/>
    <path fill="#2B6B78" d="M47.024 53.329H45.28c-.43-3.273 1.927-4.6 3.816-4.032-1.317.402-2.377 1.738-2.072 4.032zm7.237-6.903v6.903H56v-6.903h-1.74z"/>
    <path style="mix-blend-mode:overlay" fill="url(#prefix__paint11_linear)" d="M42.498 52.998l-.119-6.27 11.378.16v1.751l-.434-.957-9.788-.196-.215 5.512h-.822z" opacity=".75"/>
    <path fill="#943219" d="M53.757 48.934l.218 4.064H51.99l1.23-.222.537-3.842zM45.055 51.389l-.112 1.609h-1.485l.954-.273.643-1.337z" opacity=".3"/>
    <path fill="url(#prefix__paint12_linear)" d="M54.26 39.565h-2.916c.537-5.516-6.8-5.58-6.064 0h-3.184v-6.903h12.165v6.903z"/>
    <path fill="#2B6B78" d="M47.024 39.565H45.28c-.43-3.27 1.927-4.6 3.816-4.028-1.317.398-2.377 1.737-2.072 4.028zm7.237-6.903v6.903H56v-6.903h-1.74z"/>
    <path style="mix-blend-mode:overlay" fill="url(#prefix__paint13_linear)" d="M42.498 39.234l-.119-6.27 11.378.16v1.75l-.434-.956-9.788-.193-.215 5.509h-.822z" opacity=".75"/>
    <path fill="#943219" d="M53.757 35.173l.218 4.06H51.99l1.23-.22.537-3.84zM45.055 37.624l-.112 1.61h-1.485l.954-.27.643-1.34z" opacity=".3"/>
    <path fill="url(#prefix__paint14_linear)" d="M61.264 53.313h-6.608l-.295-6.903h6.903v6.903z"/>
    <path fill="#800A45" d="M61.263 46.41h1.741l-.24 6.903h-1.5V46.41z"/>
    <path style="mix-blend-mode:overlay" fill="url(#prefix__paint15_linear)" d="M55.067 53.023l-.311-6.196h6.119l-5.204.82-.604 5.377z" opacity=".75"/>
    <path fill="#943219" d="M60.875 46.827v6.197h-5.808l5.091-.44.717-5.757z" opacity=".3"/>
    <path fill="url(#prefix__paint16_linear)" d="M45.347 46.41H38.74l-.296-6.903h6.903v6.903z"/>
    <path fill="#800A45" d="M45.347 39.507h1.741l-.24 6.903h-1.5v-6.903z"/>
    <path style="mix-blend-mode:overlay" fill="url(#prefix__paint17_linear)" d="M39.154 46.12l-.315-6.192h6.12l-5.204.815-.6 5.378z" opacity=".75"/>
    <path fill="#943219" d="M44.959 39.928v6.193h-5.805l5.088-.44.717-5.753z" opacity=".3"/>
    <path fill="url(#prefix__paint18_linear)" d="M65.218 60.232H58.61l-.295-6.903h6.903v6.903z"/>
    <path fill="#2B6B78" d="M65.218 53.329h1.74l-.24 6.903h-1.5v-6.903z"/>
    <path style="mix-blend-mode:overlay" fill="url(#prefix__paint19_linear)" d="M59.021 59.943l-.311-6.197h6.119l-5.204.82-.604 5.377z" opacity=".75"/>
    <path fill="#22567D" d="M64.829 53.746v6.197h-5.808l5.092-.44.716-5.757z" opacity=".3"/>
    <path fill="url(#prefix__paint20_linear)" d="M42.096 32.662l6.264-13.283 5.9 13.283H42.098z"/>
    <path fill="#215A66" d="M48.36 19.38h2.249l5.393 13.282h-1.741l-5.9-13.283z"/>
    <path style="mix-blend-mode:overlay" fill="url(#prefix__paint21_linear)" d="M48.36 20.725l2.952 7.012-2.952-2.89-4.902 7.439h-.69l5.592-11.56z" opacity=".75"/>
    <path fill="#22567D" d="M52.417 29.906l1.34 2.53h-9.431l8.046-.532.045-1.998z" opacity=".3"/>
    <path fill="url(#prefix__paint22_linear)" d="M26.903 62.12h-6.607L20 55.218h6.903v6.902z"/>
    <path fill="#2B6B78" d="M26.903 55.218h1.74l-.24 6.902h-1.5v-6.902z"/>
    <path style="mix-blend-mode:overlay" fill="url(#prefix__paint23_linear)" d="M20.707 61.831l-.312-6.196h6.12l-5.204.82-.604 5.376z" opacity=".75"/>
    <path fill="#22567D" d="M26.514 55.635v6.196h-5.807l5.091-.44.716-5.756z" opacity=".3"/>
    <path fill="url(#prefix__paint24_linear)" d="M74.59 56.779h-6.607l-.295-6.903h6.903v6.903z"/>
    <path fill="#2B6B78" d="M74.59 49.876h1.745l-.241 6.903h-1.503v-6.903z"/>
    <path style="mix-blend-mode:overlay" fill="url(#prefix__paint25_linear)" d="M68.398 56.49l-.315-6.194h6.12l-5.205.816-.6 5.377z" opacity=".75"/>
    <path fill="#22567D" d="M74.202 50.296v6.194h-5.804l5.088-.437.716-5.757z" opacity=".3"/>
    <path fill="url(#prefix__paint26_linear)" d="M67.797 64.783H61.19l-.296-6.9h6.903v6.9z"/>
    <path fill="#800A45" d="M67.797 57.884h1.744l-.24 6.9h-1.504v-6.9z"/>
    <path style="mix-blend-mode:overlay" fill="url(#prefix__paint27_linear)" d="M61.604 64.497l-.315-6.196h6.12l-5.201.816-.604 5.38z" opacity=".75"/>
    <path fill="#943219" d="M67.408 58.301v6.196h-5.804l5.088-.44.716-5.756z" opacity=".3"/>
    <path fill="#fff" d="M148.112 51V33.912h6.816c1.76 0 3.128.424 4.104 1.272.992.848 1.488 2.016 1.488 3.504 0 1.472-.496 2.64-1.488 3.504-.992.864-2.36 1.296-4.104 1.296h-4.848V51h-1.968zm1.968-9.144h4.68c1.264 0 2.216-.272 2.856-.816.64-.56.96-1.344.96-2.352 0-1.008-.32-1.784-.96-2.328-.64-.544-1.592-.816-2.856-.816h-4.68v6.312zM163.27 51v-8.688c0-.56-.016-1.12-.048-1.68-.016-.576-.064-1.144-.144-1.704h1.848l.264 2.976-.264-.072c.224-1.056.704-1.848 1.44-2.376.752-.544 1.592-.816 2.52-.816.208 0 .4.016.576.048.192.016.368.048.528.096l-.048 1.776c-.368-.128-.792-.192-1.272-.192-.832 0-1.504.184-2.016.552-.496.368-.864.84-1.104 1.416-.224.56-.336 1.152-.336 1.776V51h-1.944zm18.349-1.44c-.528.496-1.208.888-2.04 1.176-.816.288-1.656.432-2.52.432-1.248 0-2.328-.248-3.24-.744-.896-.496-1.592-1.208-2.088-2.136-.48-.944-.72-2.064-.72-3.36 0-1.248.24-2.344.72-3.288s1.144-1.68 1.992-2.208c.864-.528 1.856-.792 2.976-.792 1.072 0 1.992.24 2.76.72.768.464 1.352 1.136 1.752 2.016.416.88.624 1.936.624 3.168v.36h-9.12v-1.272h8.016l-.624.888c.032-1.408-.248-2.488-.84-3.24-.576-.752-1.424-1.128-2.544-1.128-1.168 0-2.088.416-2.76 1.248-.656.816-.984 1.952-.984 3.408 0 1.568.344 2.752 1.032 3.552.704.8 1.728 1.2 3.072 1.2.704 0 1.376-.112 2.016-.336.656-.24 1.28-.6 1.872-1.08l.648 1.416zm13.055 0c-.528.496-1.208.888-2.04 1.176-.816.288-1.656.432-2.52.432-1.248 0-2.328-.248-3.24-.744-.896-.496-1.592-1.208-2.088-2.136-.48-.944-.72-2.064-.72-3.36 0-1.248.24-2.344.72-3.288s1.144-1.68 1.992-2.208c.864-.528 1.856-.792 2.976-.792 1.072 0 1.992.24 2.76.72.768.464 1.352 1.136 1.752 2.016.416.88.624 1.936.624 3.168v.36h-9.12v-1.272h8.016l-.624.888c.032-1.408-.248-2.488-.84-3.24-.576-.752-1.424-1.128-2.544-1.128-1.168 0-2.088.416-2.76 1.248-.656.816-.984 1.952-.984 3.408 0 1.568.344 2.752 1.032 3.552.704.8 1.728 1.2 3.072 1.2.704 0 1.376-.112 2.016-.336.656-.24 1.28-.6 1.872-1.08l.648 1.416zm7.247 1.608c-2.032 0-3.64-.52-4.824-1.56l.648-1.44c.64.496 1.296.864 1.968 1.104.688.224 1.448.336 2.28.336.912 0 1.6-.152 2.064-.456.48-.32.72-.776.72-1.368 0-.48-.16-.856-.48-1.128-.32-.288-.848-.52-1.584-.696l-2.04-.48c-1.008-.224-1.792-.624-2.352-1.2-.544-.576-.816-1.264-.816-2.064 0-.704.192-1.32.576-1.848.384-.544.92-.968 1.608-1.272.688-.304 1.504-.456 2.448-.456.848 0 1.648.136 2.4.408.752.272 1.384.664 1.896 1.176l-.648 1.416c-.576-.48-1.168-.832-1.776-1.056-.592-.24-1.216-.36-1.872-.36-.864 0-1.536.168-2.016.504-.464.336-.696.792-.696 1.368 0 .496.144.888.432 1.176.304.288.784.512 1.44.672l2.04.504c1.136.24 1.968.64 2.496 1.2.544.544.816 1.24.816 2.088 0 1.04-.424 1.872-1.272 2.496-.848.624-2 .936-3.456.936zm12.89 0c-1.184 0-2.208-.256-3.072-.768-.864-.512-1.536-1.232-2.016-2.16-.464-.928-.696-2.024-.696-3.288 0-1.248.24-2.344.72-3.288.48-.96 1.16-1.704 2.04-2.232.88-.528 1.92-.792 3.12-.792.816 0 1.6.144 2.352.432.768.272 1.4.656 1.896 1.152l-.648 1.44c-.592-.464-1.176-.808-1.752-1.032-.56-.24-1.144-.36-1.752-.36-1.216 0-2.184.408-2.904 1.224-.704.816-1.056 1.968-1.056 3.456 0 1.472.352 2.608 1.056 3.408.704.8 1.672 1.2 2.904 1.2.592 0 1.176-.112 1.752-.336.576-.24 1.16-.592 1.752-1.056l.648 1.44c-.512.48-1.16.864-1.944 1.152-.768.272-1.568.408-2.4.408zm11.811 0c-1.152 0-2.16-.256-3.024-.768-.848-.512-1.512-1.232-1.992-2.16-.464-.944-.696-2.056-.696-3.336 0-1.264.232-2.368.696-3.312.48-.944 1.144-1.672 1.992-2.184.864-.512 1.872-.768 3.024-.768s2.152.256 3 .768c.864.512 1.528 1.24 1.992 2.184.48.944.72 2.048.72 3.312 0 1.28-.24 2.392-.72 3.336-.464.928-1.128 1.648-1.992 2.16-.848.512-1.848.768-3 .768zm0-1.608c1.184 0 2.096-.392 2.736-1.176.656-.8.984-1.96.984-3.48 0-1.488-.328-2.632-.984-3.432-.656-.8-1.568-1.2-2.736-1.2-1.168 0-2.088.4-2.76 1.2-.656.8-.984 1.944-.984 3.432 0 1.52.32 2.68.96 3.48.656.784 1.584 1.176 2.784 1.176zm8.742 1.44V33.336h1.944V51h-1.944zm10.351.168c-1.072 0-2.016-.248-2.832-.744-.8-.512-1.424-1.232-1.872-2.16-.432-.944-.648-2.048-.648-3.312 0-1.264.224-2.368.672-3.312.448-.944 1.072-1.68 1.872-2.208.816-.528 1.752-.792 2.808-.792 1.104 0 2.04.272 2.808.816.768.544 1.288 1.32 1.56 2.328l-.288.192v-3.048h1.92V51h-1.92v-3.12l.288.144c-.272 1.008-.792 1.784-1.56 2.328-.768.544-1.704.816-2.808.816zm.384-1.608c1.184 0 2.096-.4 2.736-1.2.64-.816.96-1.968.96-3.456s-.328-2.632-.984-3.432c-.64-.8-1.544-1.2-2.712-1.2-1.184 0-2.112.416-2.784 1.248-.656.816-.984 1.96-.984 3.432s.328 2.608.984 3.408c.672.8 1.6 1.2 2.784 1.2zm9.375 1.44v-8.688c0-.56-.016-1.12-.048-1.68-.016-.576-.064-1.144-.144-1.704h1.848l.264 2.976-.264-.072c.224-1.056.704-1.848 1.44-2.376.752-.544 1.592-.816 2.52-.816.208 0 .4.016.576.048.192.016.368.048.528.096l-.048 1.776c-.368-.128-.792-.192-1.272-.192-.832 0-1.504.184-2.016.552-.496.368-.864.84-1.104 1.416-.224.56-.336 1.152-.336 1.776V51h-1.944zm20.113.168c-1.104 0-2.168-.184-3.192-.552-1.008-.368-1.864-.888-2.568-1.56l.768-1.512c.768.656 1.56 1.152 2.376 1.488.816.32 1.672.48 2.568.48 1.216 0 2.136-.272 2.76-.816.64-.544.96-1.344.96-2.4 0-1.056-.328-1.84-.984-2.352-.656-.528-1.64-.792-2.952-.792h-1.968v-1.656h1.584c1.264 0 2.232-.28 2.904-.84.672-.56 1.008-1.36 1.008-2.4 0-.928-.28-1.64-.84-2.136-.544-.496-1.32-.744-2.328-.744-.848 0-1.672.168-2.472.504-.8.32-1.592.808-2.376 1.464l-.744-1.512c.688-.656 1.536-1.168 2.544-1.536 1.008-.384 2.048-.576 3.12-.576 1.024 0 1.92.184 2.688.552.768.352 1.352.856 1.752 1.512.416.656.624 1.432.624 2.328 0 1.056-.28 1.96-.84 2.712-.544.736-1.296 1.24-2.256 1.512l-.072-.24c1.152.24 2.032.728 2.64 1.464.608.736.912 1.672.912 2.808 0 1.488-.504 2.664-1.512 3.528-1.008.848-2.376 1.272-4.104 1.272zm11.486-10.032c-.752 0-1.4-.152-1.944-.456-.528-.32-.936-.76-1.224-1.32-.288-.56-.432-1.2-.432-1.92s.144-1.352.432-1.896c.288-.544.696-.968 1.224-1.272.544-.32 1.192-.48 1.944-.48.768 0 1.416.16 1.944.48.544.304.96.728 1.248 1.272.288.544.432 1.176.432 1.896s-.144 1.36-.432 1.92c-.288.56-.704 1-1.248 1.32-.528.304-1.176.456-1.944.456zm0-1.392c.624 0 1.096-.2 1.416-.6.32-.4.48-.968.48-1.704 0-.72-.16-1.28-.48-1.68-.32-.4-.792-.6-1.416-.6-.608 0-1.072.2-1.392.6-.304.4-.456.96-.456 1.68 0 .736.152 1.304.456 1.704.32.4.784.6 1.392.6z"/>
    <defs>
        <linearGradient id="prefix__paint0_linear" x1="31.686" x2="37.317" y1="52.821" y2="59.589" gradientUnits="userSpaceOnUse">
            <stop offset=".08" stop-color="#E0C73C"/>
            <stop offset=".46" stop-color="#B6BE3E"/>
            <stop offset=".81" stop-color="#95B83F"/>
            <stop offset="1" stop-color="#89B540"/>
        </linearGradient>
        <linearGradient id="prefix__paint1_linear" x1="29.69" x2="37.022" y1="50.749" y2="58.978" gradientUnits="userSpaceOnUse">
            <stop offset=".13" stop-color="#FFF7CC"/>
            <stop offset=".89" stop-color="#FFF7CC"/>
        </linearGradient>
        <linearGradient id="prefix__paint2_linear" x1="35.3" x2="43.018" y1="45.918" y2="55.198" gradientUnits="userSpaceOnUse">
            <stop stop-color="#3AB5D4"/>
            <stop offset=".21" stop-color="#3BA2C6"/>
            <stop offset=".63" stop-color="#3F70A2"/>
            <stop offset="1" stop-color="#424180"/>
        </linearGradient>
        <linearGradient id="prefix__paint3_linear" x1="-385.837" x2="-378.504" y1="43.846" y2="52.075" gradientUnits="userSpaceOnUse">
            <stop offset=".13" stop-color="#FFF7CC"/>
            <stop offset=".89" stop-color="#FFF7CC"/>
        </linearGradient>
        <linearGradient id="prefix__paint4_linear" x1="37.458" x2="50.024" y1="52.802" y2="63.861" gradientUnits="userSpaceOnUse">
            <stop stop-color="#F26018"/>
            <stop offset=".53" stop-color="#CC1417"/>
            <stop offset="1" stop-color="#7A0D39"/>
        </linearGradient>
        <linearGradient id="prefix__paint5_linear" x1="-382.455" x2="-375.122" y1="50.749" y2="58.978" gradientUnits="userSpaceOnUse">
            <stop offset=".13" stop-color="#FFF7CC"/>
            <stop offset=".89" stop-color="#FFF7CC"/>
        </linearGradient>
        <linearGradient id="prefix__paint6_linear" x1="-378.048" x2="-372.421" y1="52.821" y2="59.589" gradientUnits="userSpaceOnUse">
            <stop offset=".08" stop-color="#E0C73C"/>
            <stop offset=".46" stop-color="#B6BE3E"/>
            <stop offset=".81" stop-color="#95B83F"/>
            <stop offset="1" stop-color="#89B540"/>
        </linearGradient>
        <linearGradient id="prefix__paint7_linear" x1="-369.42" x2="-362.087" y1="50.749" y2="58.978" gradientUnits="userSpaceOnUse">
            <stop offset=".13" stop-color="#FFF7CC"/>
            <stop offset=".89" stop-color="#FFF7CC"/>
        </linearGradient>
        <linearGradient id="prefix__paint8_linear" x1="-378.212" x2="-372.584" y1="38.999" y2="45.767" gradientUnits="userSpaceOnUse">
            <stop offset=".08" stop-color="#E0C73C"/>
            <stop offset=".46" stop-color="#B6BE3E"/>
            <stop offset=".81" stop-color="#95B83F"/>
            <stop offset="1" stop-color="#89B540"/>
        </linearGradient>
        <linearGradient id="prefix__paint9_linear" x1="-370.02" x2="-362.688" y1="36.927" y2="45.16" gradientUnits="userSpaceOnUse">
            <stop offset=".13" stop-color="#FFF7CC"/>
            <stop offset=".89" stop-color="#FFF7CC"/>
        </linearGradient>
        <linearGradient id="prefix__paint10_linear" x1="42.096" x2="54.261" y1="49.876" y2="49.876" gradientUnits="userSpaceOnUse">
            <stop offset=".08" stop-color="#FBB03B"/>
            <stop offset=".39" stop-color="#F99A27"/>
            <stop offset=".75" stop-color="#F88615"/>
            <stop offset="1" stop-color="#F77F0F"/>
        </linearGradient>
        <linearGradient id="prefix__paint11_linear" x1="-391.738" x2="-377.365" y1="48.188" y2="56.149" gradientUnits="userSpaceOnUse">
            <stop offset=".13" stop-color="#FFF7CC"/>
            <stop offset=".89" stop-color="#FFF7CC"/>
        </linearGradient>
        <linearGradient id="prefix__paint12_linear" x1="-387.672" x2="-375.507" y1="36.115" y2="36.115" gradientUnits="userSpaceOnUse">
            <stop offset=".08" stop-color="#FBB03B"/>
            <stop offset=".39" stop-color="#F99A27"/>
            <stop offset=".75" stop-color="#F88615"/>
            <stop offset="1" stop-color="#F77F0F"/>
        </linearGradient>
        <linearGradient id="prefix__paint13_linear" x1="-391.738" x2="-377.365" y1="34.425" y2="42.386" gradientUnits="userSpaceOnUse">
            <stop offset=".13" stop-color="#FFF7CC"/>
            <stop offset=".89" stop-color="#FFF7CC"/>
        </linearGradient>
        <linearGradient id="prefix__paint14_linear" x1="-376.326" x2="-363.76" y1="45.886" y2="56.942" gradientUnits="userSpaceOnUse">
            <stop stop-color="#F26018"/>
            <stop offset=".53" stop-color="#CC1417"/>
            <stop offset="1" stop-color="#7A0D39"/>
        </linearGradient>
        <linearGradient id="prefix__paint15_linear" x1="-366.471" x2="-359.138" y1="43.83" y2="52.059" gradientUnits="userSpaceOnUse">
            <stop offset=".13" stop-color="#FFF7CC"/>
            <stop offset=".89" stop-color="#FFF7CC"/>
        </linearGradient>
        <linearGradient id="prefix__paint16_linear" x1="-392.243" x2="-379.677" y1="38.983" y2="50.039" gradientUnits="userSpaceOnUse">
            <stop stop-color="#F26018"/>
            <stop offset=".53" stop-color="#CC1417"/>
            <stop offset="1" stop-color="#7A0D39"/>
        </linearGradient>
        <linearGradient id="prefix__paint17_linear" x1="-382.827" x2="-375.492" y1="36.927" y2="45.16" gradientUnits="userSpaceOnUse">
            <stop offset=".13" stop-color="#FFF7CC"/>
            <stop offset=".89" stop-color="#FFF7CC"/>
        </linearGradient>
        <linearGradient id="prefix__paint18_linear" x1="-371.145" x2="-365.517" y1="52.821" y2="59.589" gradientUnits="userSpaceOnUse">
            <stop offset=".08" stop-color="#FBB03B"/>
            <stop offset=".39" stop-color="#F99A27"/>
            <stop offset=".75" stop-color="#F88615"/>
            <stop offset="1" stop-color="#F77F0F"/>
        </linearGradient>
        <linearGradient id="prefix__paint19_linear" x1="-362.517" x2="-355.184" y1="50.749" y2="58.978" gradientUnits="userSpaceOnUse">
            <stop offset=".13" stop-color="#FFF7CC"/>
            <stop offset=".89" stop-color="#FFF7CC"/>
        </linearGradient>
        <linearGradient id="prefix__paint20_linear" x1="-316.842" x2="-306.822" y1="22.791" y2="35.886" gradientUnits="userSpaceOnUse">
            <stop stop-color="#3AB5D4"/>
            <stop offset=".21" stop-color="#3BA2C6"/>
            <stop offset=".63" stop-color="#3F70A2"/>
            <stop offset="1" stop-color="#424180"/>
        </linearGradient>
        <linearGradient id="prefix__paint21_linear" x1="-190.678" x2="-182.654" y1="22.46" y2="30.72" gradientUnits="userSpaceOnUse">
            <stop offset=".13" stop-color="#FFF7CC"/>
            <stop offset=".89" stop-color="#FFF7CC"/>
        </linearGradient>
        <linearGradient id="prefix__paint22_linear" x1="-409.46" x2="-403.832" y1="54.71" y2="61.478" gradientUnits="userSpaceOnUse">
            <stop offset=".08" stop-color="#FBB03B"/>
            <stop offset=".39" stop-color="#F99A27"/>
            <stop offset=".75" stop-color="#F88615"/>
            <stop offset="1" stop-color="#F77F0F"/>
        </linearGradient>
        <linearGradient id="prefix__paint23_linear" x1="-400.831" x2="-393.499" y1="52.638" y2="60.867" gradientUnits="userSpaceOnUse">
            <stop offset=".13" stop-color="#FFF7CC"/>
            <stop offset=".89" stop-color="#FFF7CC"/>
        </linearGradient>
        <linearGradient id="prefix__paint24_linear" x1="-361.772" x2="-356.145" y1="49.368" y2="56.139" gradientUnits="userSpaceOnUse">
            <stop offset=".08" stop-color="#FBB03B"/>
            <stop offset=".39" stop-color="#F99A27"/>
            <stop offset=".75" stop-color="#F88615"/>
            <stop offset="1" stop-color="#F77F0F"/>
        </linearGradient>
        <linearGradient id="prefix__paint25_linear" x1="-353.58" x2="-346.245" y1="47.3" y2="55.528" gradientUnits="userSpaceOnUse">
            <stop offset=".13" stop-color="#FFF7CC"/>
            <stop offset=".89" stop-color="#FFF7CC"/>
        </linearGradient>
        <linearGradient id="prefix__paint26_linear" x1="-369.793" x2="-357.232" y1="57.361" y2="68.415" gradientUnits="userSpaceOnUse">
            <stop stop-color="#F26018"/>
            <stop offset=".53" stop-color="#CC1417"/>
            <stop offset="1" stop-color="#7A0D39"/>
        </linearGradient>
        <linearGradient id="prefix__paint27_linear" x1="-359.938" x2="-352.605" y1="55.304" y2="63.529" gradientUnits="userSpaceOnUse">
            <stop offset=".13" stop-color="#FFF7CC"/>
            <stop offset=".89" stop-color="#FFF7CC"/>
        </linearGradient>
    </defs>
</svg>
