<svg xmlns="http://www.w3.org/2000/svg" width="350" height="84" fill="none" viewBox="0 0 350 84">
    <rect width="349" height="83" x=".5" y=".5" fill="#38B44E" stroke="#38B44E" rx="7.5"/>
    <path fill="#fff" d="M150.112 51V33.912h6.816c1.76 0 3.128.424 4.104 1.272.992.848 1.488 2.016 1.488 3.504 0 1.472-.496 2.64-1.488 3.504-.992.864-2.36 1.296-4.104 1.296h-4.848V51h-1.968zm1.968-9.144h4.68c1.264 0 2.216-.272 2.856-.816.64-.56.96-1.344.96-2.352 0-1.008-.32-1.784-.96-2.328-.64-.544-1.592-.816-2.856-.816h-4.68v6.312zM165.27 51v-8.688c0-.56-.016-1.12-.048-1.68-.016-.576-.064-1.144-.144-1.704h1.848l.264 2.976-.264-.072c.224-1.056.704-1.848 1.44-2.376.752-.544 1.592-.816 2.52-.816.208 0 .4.016.576.048.192.016.368.048.528.096l-.048 1.776c-.368-.128-.792-.192-1.272-.192-.832 0-1.504.184-2.016.552-.496.368-.864.84-1.104 1.416-.224.56-.336 1.152-.336 1.776V51h-1.944zm18.349-1.44c-.528.496-1.208.888-2.04 1.176-.816.288-1.656.432-2.52.432-1.248 0-2.328-.248-3.24-.744-.896-.496-1.592-1.208-2.088-2.136-.48-.944-.72-2.064-.72-3.36 0-1.248.24-2.344.72-3.288s1.144-1.68 1.992-2.208c.864-.528 1.856-.792 2.976-.792 1.072 0 1.992.24 2.76.72.768.464 1.352 1.136 1.752 2.016.416.88.624 1.936.624 3.168v.36h-9.12v-1.272h8.016l-.624.888c.032-1.408-.248-2.488-.84-3.24-.576-.752-1.424-1.128-2.544-1.128-1.168 0-2.088.416-2.76 1.248-.656.816-.984 1.952-.984 3.408 0 1.568.344 2.752 1.032 3.552.704.8 1.728 1.2 3.072 1.2.704 0 1.376-.112 2.016-.336.656-.24 1.28-.6 1.872-1.08l.648 1.416zm13.055 0c-.528.496-1.208.888-2.04 1.176-.816.288-1.656.432-2.52.432-1.248 0-2.328-.248-3.24-.744-.896-.496-1.592-1.208-2.088-2.136-.48-.944-.72-2.064-.72-3.36 0-1.248.24-2.344.72-3.288s1.144-1.68 1.992-2.208c.864-.528 1.856-.792 2.976-.792 1.072 0 1.992.24 2.76.72.768.464 1.352 1.136 1.752 2.016.416.88.624 1.936.624 3.168v.36h-9.12v-1.272h8.016l-.624.888c.032-1.408-.248-2.488-.84-3.24-.576-.752-1.424-1.128-2.544-1.128-1.168 0-2.088.416-2.76 1.248-.656.816-.984 1.952-.984 3.408 0 1.568.344 2.752 1.032 3.552.704.8 1.728 1.2 3.072 1.2.704 0 1.376-.112 2.016-.336.656-.24 1.28-.6 1.872-1.08l.648 1.416zm7.247 1.608c-2.032 0-3.64-.52-4.824-1.56l.648-1.44c.64.496 1.296.864 1.968 1.104.688.224 1.448.336 2.28.336.912 0 1.6-.152 2.064-.456.48-.32.72-.776.72-1.368 0-.48-.16-.856-.48-1.128-.32-.288-.848-.52-1.584-.696l-2.04-.48c-1.008-.224-1.792-.624-2.352-1.2-.544-.576-.816-1.264-.816-2.064 0-.704.192-1.32.576-1.848.384-.544.92-.968 1.608-1.272.688-.304 1.504-.456 2.448-.456.848 0 1.648.136 2.4.408.752.272 1.384.664 1.896 1.176l-.648 1.416c-.576-.48-1.168-.832-1.776-1.056-.592-.24-1.216-.36-1.872-.36-.864 0-1.536.168-2.016.504-.464.336-.696.792-.696 1.368 0 .496.144.888.432 1.176.304.288.784.512 1.44.672l2.04.504c1.136.24 1.968.64 2.496 1.2.544.544.816 1.24.816 2.088 0 1.04-.424 1.872-1.272 2.496-.848.624-2 .936-3.456.936zm12.89 0c-1.184 0-2.208-.256-3.072-.768-.864-.512-1.536-1.232-2.016-2.16-.464-.928-.696-2.024-.696-3.288 0-1.248.24-2.344.72-3.288.48-.96 1.16-1.704 2.04-2.232.88-.528 1.92-.792 3.12-.792.816 0 1.6.144 2.352.432.768.272 1.4.656 1.896 1.152l-.648 1.44c-.592-.464-1.176-.808-1.752-1.032-.56-.24-1.144-.36-1.752-.36-1.216 0-2.184.408-2.904 1.224-.704.816-1.056 1.968-1.056 3.456 0 1.472.352 2.608 1.056 3.408.704.8 1.672 1.2 2.904 1.2.592 0 1.176-.112 1.752-.336.576-.24 1.16-.592 1.752-1.056l.648 1.44c-.512.48-1.16.864-1.944 1.152-.768.272-1.568.408-2.4.408zm11.811 0c-1.152 0-2.16-.256-3.024-.768-.848-.512-1.512-1.232-1.992-2.16-.464-.944-.696-2.056-.696-3.336 0-1.264.232-2.368.696-3.312.48-.944 1.144-1.672 1.992-2.184.864-.512 1.872-.768 3.024-.768s2.152.256 3 .768c.864.512 1.528 1.24 1.992 2.184.48.944.72 2.048.72 3.312 0 1.28-.24 2.392-.72 3.336-.464.928-1.128 1.648-1.992 2.16-.848.512-1.848.768-3 .768zm0-1.608c1.184 0 2.096-.392 2.736-1.176.656-.8.984-1.96.984-3.48 0-1.488-.328-2.632-.984-3.432-.656-.8-1.568-1.2-2.736-1.2-1.168 0-2.088.4-2.76 1.2-.656.8-.984 1.944-.984 3.432 0 1.52.32 2.68.96 3.48.656.784 1.584 1.176 2.784 1.176zm8.742 1.44V33.336h1.944V51h-1.944zm10.351.168c-1.072 0-2.016-.248-2.832-.744-.8-.512-1.424-1.232-1.872-2.16-.432-.944-.648-2.048-.648-3.312 0-1.264.224-2.368.672-3.312.448-.944 1.072-1.68 1.872-2.208.816-.528 1.752-.792 2.808-.792 1.104 0 2.04.272 2.808.816.768.544 1.288 1.32 1.56 2.328l-.288.192v-3.048h1.92V51h-1.92v-3.12l.288.144c-.272 1.008-.792 1.784-1.56 2.328-.768.544-1.704.816-2.808.816zm.384-1.608c1.184 0 2.096-.4 2.736-1.2.64-.816.96-1.968.96-3.456s-.328-2.632-.984-3.432c-.64-.8-1.544-1.2-2.712-1.2-1.184 0-2.112.416-2.784 1.248-.656.816-.984 1.96-.984 3.432s.328 2.608.984 3.408c.672.8 1.6 1.2 2.784 1.2zm9.375 1.44v-8.688c0-.56-.016-1.12-.048-1.68-.016-.576-.064-1.144-.144-1.704h1.848l.264 2.976-.264-.072c.224-1.056.704-1.848 1.44-2.376.752-.544 1.592-.816 2.52-.816.208 0 .4.016.576.048.192.016.368.048.528.096l-.048 1.776c-.368-.128-.792-.192-1.272-.192-.832 0-1.504.184-2.016.552-.496.368-.864.84-1.104 1.416-.224.56-.336 1.152-.336 1.776V51h-1.944zm15.073 0v-1.488l5.976-6.624c.8-.896 1.384-1.704 1.752-2.424.368-.72.552-1.44.552-2.16 0-.944-.272-1.664-.816-2.16-.544-.512-1.32-.768-2.328-.768-.832 0-1.648.168-2.448.504-.8.32-1.6.808-2.4 1.464l-.744-1.512c.672-.64 1.52-1.152 2.544-1.536 1.024-.384 2.056-.576 3.096-.576s1.936.184 2.688.552c.768.352 1.36.864 1.776 1.536.416.672.624 1.472.624 2.4 0 .976-.224 1.92-.672 2.832-.432.896-1.16 1.904-2.184 3.024l-5.76 6.24-.144-.96h9.48V51h-10.992zm16.526-9.864c-.752 0-1.4-.152-1.944-.456-.528-.32-.936-.76-1.224-1.32-.288-.56-.432-1.2-.432-1.92s.144-1.352.432-1.896c.288-.544.696-.968 1.224-1.272.544-.32 1.192-.48 1.944-.48.768 0 1.416.16 1.944.48.544.304.96.728 1.248 1.272.288.544.432 1.176.432 1.896s-.144 1.36-.432 1.92c-.288.56-.704 1-1.248 1.32-.528.304-1.176.456-1.944.456zm0-1.392c.624 0 1.096-.2 1.416-.6.32-.4.48-.968.48-1.704 0-.72-.16-1.28-.48-1.68-.32-.4-.792-.6-1.416-.6-.608 0-1.072.2-1.392.6-.304.4-.456.96-.456 1.68 0 .736.152 1.304.456 1.704.32.4.784.6 1.392.6z"/>
    <path fill="#0D9F28" d="M59.897 71.794c16.512 0 29.897-13.385 29.897-29.897S76.41 12 59.897 12 30 25.385 30 41.897s13.385 29.897 29.897 29.897z" opacity=".8"/>
    <path fill="#F2C6A5" d="M60.754 54.065c.056-.023 1.264-.402 1.015-.642-.355-.343-1.267-.115-1.732.047-.822-1.41-1.872-2.673-3.108-3.739-.296.202-.619.403-.933.593-.068.27-.09.549-.062.825.013.127.013.255 0 .382.846.954 1.544 2.029 2.072 3.189-.004.072-.014.145-.03.216-.085.257-.479 1.057-.097 1.255.199.1.838-.64.965-.71h.015c.068.12.166.257.18.278.143.222.78 1.258 1.185 1.012.02-.01.04-.025.056-.041.234-.222-.435-1.24-.42-1.246.269.186 1.113.672 1.527.432.025-.013.048-.03.068-.05.077-.072-.1-.25-.142-.297-.254-.242-.767-.68-.767-.684.199.036 1.087.214 1.404.033.04-.022.073-.056.094-.098.196-.453-1.068-.722-1.329-.749l.039-.006zM44.134 54.894s.05-.133.154-.358c-.606-.53-1.18-1.097-1.717-1.696-.34.565-.527.944-.53.95-.474-.127-1.403-.296-1.74.083-.235.255.997.542 1.053.566-.258.044-1.51.405-1.288.84.022.04.056.073.098.092.329.157 1.21-.083 1.403-.133 0 0-.485.473-.728.734-.041.047-.207.234-.127.296l.07.044c.433.208 1.25-.334 1.508-.538.014 0-.593 1.062-.356 1.267.018.016.038.029.06.038.432.213 1.012-.861 1.142-1.095 0-.02.104-.163.163-.296h.05c.134.062.815.752 1.007.636.373-.225-.065-.988-.166-1.24-.023-.062-.041-.125-.056-.19z"/>
    <path fill="#7A2C14" fill-rule="evenodd" d="M40.197 33.026l21.122-.107c2.256.37 2.072 11.629 2.212 12.413.082.456-3.118 2.18-5.418 2.742-2.664.65-8.76 1.358-11.217.73-1.696-.428-9.041-2.693-8.979-5.186.024-.888.45-4.603.465-4.65.047-.172 2.16-5.877 1.815-5.942z" clip-rule="evenodd"/>
    <path fill="#F2C6A5" fill-rule="evenodd" d="M54.43 50.306c1.075 1.113 1.596 2.3 3.011 3.762-.003-.152.014-.304.05-.453.13-.708.76-1.213 1.48-1.184-2.134-2.717-4.064-6.092-5.068-7.333-.541-.666-1.036-1.48-1.891-1.551h-.104v-.915c.431-.042.86-.106 1.285-.192 8.848-1.83 9.994-6.54 8.641-12.523-1.48-6.492-2.137-11.421-12.28-10.281-9.867 1.104-10.852 7.422-10.645 12.987-.527-.044-1.8-.512-2.916.486-1.723 1.536-.8 3.64.687 4.884 1.53 1.833 4.008 1.184 4.301.122 2.177 2.565 5.267 4.182 8.615 4.508v1.185c-.224.107-.438.235-.64.382-.808.63-1.536 1.358-2.167 2.166-.669.79-1.67 2.51-3.656 5.104.826.453 1.013 1.581 1.149 2.475 3.825-5.527 4.618-5.545 3.689-4.358-.145 1.744-2.271 12.692-2.585 15.016-.121.888 3.233.968 3.36.162.435-2.788 1.019-4.5 1.122-5.538.852.091 1.713.023 2.54-.202.21 3.097 1.016 4.903 1.093 5.675.077.773 3.455.963 3.378-.145-.208-2.99-2.173-12.534-2.449-14.24z" clip-rule="evenodd"/>
    <path fill="#DA7968" d="M54.936 37.934v.154c-.847.818-1.917 1.367-3.075 1.58-.921.179-1.872.118-2.762-.177-.569-.19-1.094-.491-1.543-.888l-.03-.163h.163c.48.292 1.001.51 1.546.649 1.111.207 2.255.165 3.348-.122.785-.193 1.524-.538 2.176-1.015l.177-.018z"/>
    <path fill="#E18560" d="M51.428 34.337c-.018.181-.026.363-.023.545l.014.216c.053.284.276.506.56.557.234 0 .592-.21.995-.11.206.05.38.187.478.375.099.189.11.41.034.608-.237.527-.92.755-1.466.76-.205.01-.41-.037-.592-.132l-.044-.145.154-.042c.528.142 1.087-.06 1.403-.506.113-.178.08-.447-.527-.332l-.257.056c-.495.098-.945-.36-1.08-.745-.109-.384-.068-.795.114-1.15.033-.086.112-.147.205-.156l.118.103-.103.113c.044-.02 0-.006.017-.015z"/>
    <path fill="#2B2C2B" fill-rule="evenodd" d="M55.736 33.73c.362-.015.698.19.847.521.15.33.084.718-.167.98-.25.263-.635.346-.972.211-.337-.135-.558-.46-.558-.824-.007-.23.079-.455.239-.622.16-.167.38-.263.61-.266zM46.926 34.127c.378-.028.735.18.897.524.162.343.096.751-.167 1.026-.262.274-.667.358-1.017.212-.35-.147-.574-.494-.563-.874 0-.476.374-.867.85-.888z" clip-rule="evenodd"/>
    <path fill="#8E3B21" fill-rule="evenodd" d="M47.447 19.08c-.04-.1-.066-.205-.077-.312 0-.108.008-.217.023-.325.032-.12.072-.239.122-.353.076-.155.169-.301.275-.438.084-.114.176-.222.275-.322l.154-.13.119-.018.017.106V17.344c-.05.194-.081.393-.094.592.038-.05.106-.133.139-.165l.047-.045.148-.133c.412-.32 1.06-.616 1.312-.246v.119l-.237-.02c-.113 0-.056.02-.071.026-.252.182-.446.431-.563.72l-.21.313c-.015.015-.03.032-.041.05-.108.135-.207.276-.296.424.11-.074.219-.148.331-.216 1.818-1.11 3.736-1.072 5.779-.38 4.26 1.454 6.874 5.421 7.635 9.279.112.592.622 2.51.388 3.303.001.15-.11.277-.258.296-.13.018-.262-.01-.373-.08 0 0-.426-.068-.787-.136-2.665-.497-4.98-1.93-6.91-3.792-.287-.222 1.519 2.241 3.188 3.105.74.392 1.569.58 2.404.548l.095.068-.077.086c-1.605.237-3.256-.53-4.497-1.48-.781-.592-6.752-7.851-6.776-7.451-.06 1.17-.3 2.325-.714 3.422-.014.041-.166.405-.266.619-.042.091-.086.183-.133.272-.002.012-.002.023 0 .035-.519.988-1.177 1.897-1.954 2.697-.953.998-2.126 1.76-3.425 2.224l-.116-.039.044-.1c1.487-.76 2.746-1.899 3.65-3.302.55-.822 1.027-1.69 1.428-2.593.017-.038.263-.592.408-.995.053-.142.104-.296.151-.432-1.51 3.189-4.65 7.564-8.67 8.831-1.297.412-1.096-.26-1.253-1.456-.705-5.356 2.049-8.627 4.976-10.436-1.862 1.004-2.483.563-.764-.44.214-.125.436-.238.664-.344.929-.418 1.913-.702 2.922-.844.515-.08 1.035-.119 1.557-.115l.31-.054z" clip-rule="evenodd"/>
    <path fill="url(#prefix__paint0_linear)" d="M61.6 62.947c-1.394-.456-3.005.456-4.538.781-.7.195-1.447.142-2.114-.148-.328-.167-.672-.3-1.027-.396-2.62-.705-3.34 1.69-5.705.61l-.177-.086c-.707-.385-1.485-.62-2.286-.693-1.4-.122-2.261.296-3.75-1.184-.116-.735 6.11-8.29 7.697-8.518.982-.142 4.407-.509 5.032.063 1.282 1.199 7.428 8.94 6.868 9.57z"/>
    <path fill="#BEC2D6" d="M48.216 63.805l-.177-.086c-.707-.384-1.485-.62-2.286-.692 1.551-4.61 2.925-5.41 2.925-5.41s1.341 2.017-.462 6.188zM57.062 63.74c-.7.195-1.447.142-2.114-.148-.328-.167-.672-.3-1.027-.397.382-2.28-.379-5.577-.379-5.577s3.526 1.628 3.52 6.122z" opacity=".4"/>
    <path fill="#fff" fill-rule="evenodd" d="M48.924 64.09c-.154 1.033-.4 2.042-.592 2.992-.02.977.02 1.584-.518 1.827-.823.373-4.352 1.29-4.352.545.053-.995.632-1.886 1.519-2.339.165-.92.24-1.957.378-3.026h3.565zm7.993 0c.092 1.305.092 2.391.14 2.995 1.316.684 2.625 1.602 2.625 2.01 0 .746-4.565.64-5.39.267-.546-.246-.495-1.314-.519-2.3-.002.007-.002.014 0 .02-.16-.985-.346-1.983-.438-2.984l3.582-.009z" clip-rule="evenodd"/>
    <path fill="#D7D7D8" fill-rule="evenodd" d="M44.087 67.852c.164-.204.356-.383.57-.533.28.122.593.157.865.267.14.053.205.198.323.254.067-.013.136-.022.204-.026.118.01.237.01.356 0 .365-.04.684-.263.846-.592.142-.33.254-.67.335-1.019.196-.595.324-1.21.379-1.835 0-.05 0-.151.03-.27h.929c-.154 1.034-.4 2.043-.592 2.993-.02.977.02 1.584-.518 1.827-.776.294-1.577.518-2.392.669.19-.294.266-.648.213-.995-.065-.248-.853-.456-1.072-.55-.053-.021-.296-.13-.477-.19zm15.447.909c.088.088.146.202.166.326 0 .746-4.565.639-5.391.266-.545-.246-.494-1.314-.518-2.3-.002.007-.002.014 0 .02-.16-.985-.347-1.983-.438-2.984h1.912c0 1.217.062 4.11.394 4.163.435.07 1.45-.684 1.714-.93l.053-.05c.296.169.592.346.888.524-.352.228-.796.37-.826.909-.038.678 1.105.485 1.48.355.202-.073.392-.174.566-.299z" clip-rule="evenodd"/>
    <path fill="#3C3C3C" fill-rule="evenodd" d="M44.323 67.535c.024-.017.507-.447.563-.491.926.388 3.517.491 3.496.343-.118-.654.61 1.341.273 1.581-.726.524-5.184 1.48-5.492.805-.145-.328.136-.98.545-1.45 0 .03 1.93 1.214 2.469-.184 0 0-1.88-.473-1.945-.515.03-.031.06-.061.091-.089zM58.957 68.107c.494.367.743.775.743.98 0 .746-4.565.639-5.391.266-.296-.142-.43-.554-.477-1.066.637-.047 2.543-.02 3.257-1.21.216.115.515.16.725.296-.285.184-.55.4-.788.642.533.776 1.664.287 1.93.092z" clip-rule="evenodd"/>
    <path fill="url(#prefix__paint1_linear)" fill-rule="evenodd" d="M46.958 55.17c.388-2.564.95-4.867 1.013-5.607-1.01 1.29-1.794 3.398-2.79 4.736-.994 1.338-3.797-1.29-2.687-2.791 1.246-1.682 2.96-3.577 4.295-5.16.631-.809 1.359-1.536 2.167-2.167.423-.093.864-.044 1.256.139.248.106.411.755.68.713.317-.044.483-.737.681-.888.391-.296.696-.124.992-.121 1.335 0 4.95 5.192 6.999 7.623.763.906-1.85 3.6-2.496 2.857-.645-.743-1.16-2.369-1.776-3.088.091.556.346 1.915.44 3.14.158.17 0 .338.146.516.192.222.482.51.43.832-.229 1.353-9.54.906-9.602-.116.023-.167.113-.318.25-.417.055-.056-.087-.121.002-.201z" clip-rule="evenodd"/>
    <path fill="#BEC2D6" fill-rule="evenodd" d="M52.527 44.015h.038c.37 0 .912.4 1.549 1.024-.536.702-1.342 1.362-1.922 1.12-.394-.167-.334-.794-.592-.93-.258-.137-.423.888-.441.888-.35-.03-.592-.912-.956-.856-.122.02-.296 1.149-.974 1.226-.817.094-1.25-.592-1.53-1.184.383-.417.805-.797 1.26-1.134.423-.093.864-.044 1.256.139.248.106.411.755.68.713.27-.041.388-.423.53-.684.046-.017.092-.031.14-.04.204-.045.379.085.574 0 .138-.082.268-.176.388-.282zM55.312 51.546c-.23-.731-.444-1.48-.296-1.678.071-.101.616.781.663.888.095.234.22.459.323.693.256.696.594 1.36 1.007 1.977.334.435 1.039.548 1.584.518-.593.542-1.235.867-1.513.545-.619-.714-1.16-2.368-1.776-3.088-.006.047 0 .095.008.145z" clip-rule="evenodd"/>
    <path fill="#BEC2D6" d="M59.407 51.451l.136.163-.044.116c-.036.097-.042.106-.063.154-.14.312-.32.604-.538.867-.042.053-.086.104-.13.154-.487.52-1.044.97-1.656 1.335-.053.033-.11.068-.168.098l-.071-.104c.474-.331.905-.721 1.281-1.16.515-.458.94-1.009 1.253-1.623zM42.677 51.259c.162.524.398 1.023.702 1.48.39.569.918 1.152 1.711 1.184.125.003.25-.008.373-.035l-.086.127c-.55.112-1.12-.017-1.569-.355-.673-.544-1.14-1.303-1.32-2.15l.19-.251zM46.934 55.377c.243.14.507.24.782.296 1.69.426 3.553.246 4.5.23 1.344-.02 2.747 0 4-.408.017.036.035.071.05.107-2.407.953-5.412.66-6.89.506l-.242-.026c-.74-.086-1.498-.175-2.114-.56l-.142-.095.056-.05z"/>
    <path fill="#fff" fill-rule="evenodd" d="M50.901 44.823c.092-.127.888-1.243 1.07-1.5.088-.137 1.536.49 1.589.86.041.297-1.027 1.31-1.276 1.389-.512.166-.272-.888-.743-1.095-.15.37-.321.73-.512 1.08-.039.018-.575-.941-.658-1.012-.515.163-.364 1.184-.888 1.033-.251-.08-1.418-.654-1.38-.944.051-.37 1.274-1.43 1.38-1.306.225.272 1.28 1.374 1.395 1.48l.023.015z" clip-rule="evenodd"/>
    <path fill="url(#prefix__paint2_linear)" d="M88.004 62.455l-3.046-10.462-7.253 3.576-2.132 11.522 1.451.495 3.052-8.985c.24-.898.86-1.645 1.7-2.043l.982-.465c.278-.13.597-.143.884-.034.287.109.517.33.638.612l2.182 5.388 1.542.396z"/>
    <path fill="url(#prefix__paint3_linear)" d="M89.547 61.842L86.5 51.993l-7.253 3.576-2.223 11.993 1.969-1.252 2.626-7.733c.24-.897.86-1.643 1.699-2.043l.983-.464c.277-.131.596-.144.883-.035.287.109.517.33.638.612l2.182 5.796 1.543-.6z"/>
    <path fill="url(#prefix__paint4_linear)" d="M74.656 58.166l-3.41-10.362-8.627 3.58-2.534 11.498 1.207.494 4.145-8.985c.333-.95 1.075-1.7 2.022-2.043l1.166-.464c.667-.28 1.437-.028 1.81.592l2.9 5.328 1.32.362z"/>
    <path fill="url(#prefix__paint5_linear)" d="M76.506 57.553l-3.931-9.77-8.624 3.58-2.644 11.992 2.342-1.252 3.123-7.733c.331-.95 1.073-1.7 2.02-2.042l1.183-.465c.667-.28 1.437-.028 1.81.592l2.9 5.714 1.821-.616z"/>
    <path fill="#A21822" d="M86.811 52.95l-8.277 6.489-1.51-.285.583-3.049 8.893-4.103.311.947zM66.754 54.382l-3.958 2.158-1.22-.429 1.043-4.737 4.849 1.833-.714 1.175z" opacity=".3"/>
    <path fill="url(#prefix__paint6_linear)" d="M72.954 46.996l-11.001 1.776c-.566.175-.43 2.51.133 2.694l13.484 4.36c1.534.495 3.203.343 4.622-.42l7.368-3.96c.474-.258.67-2.295.154-2.452l-11.326-2.001c-1.12-.34-2.315-.339-3.434.003z"/>
    <path fill="url(#prefix__paint7_linear)" d="M72.954 45.391l-10.856 3.313c-.27.062-.46.301-.46.577 0 .277.19.516.46.578l13.484 4.36c1.533.496 3.202.345 4.622-.417l7.368-3.964c.229-.106.365-.346.34-.597-.026-.25-.207-.458-.452-.516l-11.06-3.34c-1.124-.34-2.324-.337-3.447.006z"/>
    <path style="mix-blend-mode:color-dodge" fill="url(#prefix__paint8_linear)" d="M87.545 49.625l-7.368 3.949c-1.42.763-3.088.915-4.621.42l-13.485-4.37c-.211-.067-.367-.248-.403-.467-.066.3.11.602.403.693l13.485 4.36c1.532.495 3.2.344 4.618-.417l7.368-3.964c.227-.124.346-.38.296-.633-.026.18-.134.339-.293.429z" opacity=".55"/>
    <path style="mix-blend-mode:color-dodge" fill="url(#prefix__paint9_linear)" d="M77.024 67.574L79.15 56.11 77.4 67.334l-.376.24z" opacity=".55"/>
    <path style="mix-blend-mode:color-dodge" fill="url(#prefix__paint10_linear)" d="M61.292 63.367l2.345-10.903-2.06 10.752-.285.151z" opacity=".55"/>
    <path style="mix-blend-mode:color-dodge" fill="url(#prefix__paint11_linear)" d="M88.004 62.455l-1.945-5.24 2.167 5.151-.222.09z" opacity=".55"/>
    <path fill="#fff" d="M75.828 54.302c1.285.357 2.654.26 3.875-.275v1.605s-1.927.888-3.955.248l.08-1.578zM80.177 55.407l.1-1.661.758-.409-.097 1.658-.761.412z"/>
    <path fill="#A21822" d="M87.545 51.23l-7.368 3.963c-1.419.764-3.089.915-4.621.418L62.07 51.25c-.373-.121-.556-1.184-.474-1.945-.15.752.033 2.025.444 2.158l13.485 4.36c1.533.495 3.2.343 4.618-.42l7.369-3.96c.213-.116.37-.593.43-1.093-.075.417-.217.782-.398.88z" opacity=".3"/>
    <path fill="#A21822" d="M85.627 49.459l-11.3 4.364-11.99-3.879 10.61-3.756 12.68 3.271z" opacity=".13"/>
    <path fill="url(#prefix__paint12_linear)" d="M72.361 46.294l-8.253 2.585 11.918 3.499 6.815-3.135-10.48-2.949z"/>
    <path fill="#C31139" d="M72.281 49.992c1.675 0 3.032-.323 3.032-.722 0-.4-1.357-.723-3.032-.723-1.674 0-3.03.323-3.03.723 0 .399 1.356.722 3.03.722zM75.748 50.267c0 .05-.246.092-.547.092-.302 0-.545-.041-.545-.092 0-.05.245-.089.544-.089.3 0 .548.039.548.09zM76.009 47.396c0 .097-.427.177-.954.177-.527 0-.953-.08-.953-.177 0-.098.426-.181.953-.181.527 0 .954.08.954.18z"/>
    <defs>
        <linearGradient id="prefix__paint0_linear" x1="41.999" x2="61.636" y1="58.583" y2="58.583" gradientUnits="userSpaceOnUse">
            <stop stop-color="#3AB5D4"/>
            <stop offset=".21" stop-color="#3BA2C6"/>
            <stop offset=".63" stop-color="#3F70A2"/>
            <stop offset="1" stop-color="#424180"/>
        </linearGradient>
        <linearGradient id="prefix__paint1_linear" x1="42.239" x2="59.7" y1="50.35" y2="50.35" gradientUnits="userSpaceOnUse">
            <stop stop-color="#3AB5D4"/>
            <stop offset=".21" stop-color="#3BA2C6"/>
            <stop offset=".63" stop-color="#3F70A2"/>
            <stop offset="1" stop-color="#424180"/>
        </linearGradient>
        <linearGradient id="prefix__paint2_linear" x1="81.79" x2="81.79" y1="67.574" y2="52.005" gradientUnits="userSpaceOnUse">
            <stop stop-color="#E55B16"/>
            <stop offset="1" stop-color="#A6311F"/>
        </linearGradient>
        <linearGradient id="prefix__paint3_linear" x1="83.285" x2="83.285" y1="67.574" y2="52.005" gradientUnits="userSpaceOnUse">
            <stop stop-color="#FE8C32"/>
            <stop offset="1" stop-color="#C5461F"/>
        </linearGradient>
        <linearGradient id="prefix__paint4_linear" x1="67.37" x2="67.37" y1="63.367" y2="47.795" gradientUnits="userSpaceOnUse">
            <stop stop-color="#E55B16"/>
            <stop offset="1" stop-color="#A6311F"/>
        </linearGradient>
        <linearGradient id="prefix__paint5_linear" x1="68.892" x2="68.892" y1="63.367" y2="47.795" gradientUnits="userSpaceOnUse">
            <stop stop-color="#FE8C32"/>
            <stop offset="1" stop-color="#C5461F"/>
        </linearGradient>
        <linearGradient id="prefix__paint6_linear" x1="61.529" x2="87.814" y1="51.323" y2="52.797" gradientUnits="userSpaceOnUse">
            <stop stop-color="#C5461F"/>
            <stop offset="1" stop-color="#FE8C32"/>
        </linearGradient>
        <linearGradient id="prefix__paint7_linear" x1="61.668" x2="87.725" y1="49.717" y2="51.178" gradientUnits="userSpaceOnUse">
            <stop stop-color="#FFAB5E"/>
            <stop offset="1" stop-color="#FFD7AC"/>
        </linearGradient>
        <linearGradient id="prefix__paint8_linear" x1="61.58" x2="87.621" y1="51.779" y2="53.237" gradientUnits="userSpaceOnUse">
            <stop stop-color="#595639"/>
            <stop offset="1"/>
        </linearGradient>
        <linearGradient id="prefix__paint9_linear" x1="78.061" x2="78.117" y1="61.801" y2="61.804" gradientUnits="userSpaceOnUse">
            <stop stop-color="#595639"/>
            <stop offset="1"/>
        </linearGradient>
        <linearGradient id="prefix__paint10_linear" x1="62.425" x2="62.51" y1="57.867" y2="57.871" gradientUnits="userSpaceOnUse">
            <stop stop-color="#595639"/>
            <stop offset="1"/>
        </linearGradient>
        <linearGradient id="prefix__paint11_linear" x1="86.933" x2="87.358" y1="59.773" y2="59.797" gradientUnits="userSpaceOnUse">
            <stop stop-color="#595639"/>
            <stop offset="1"/>
        </linearGradient>
        <linearGradient id="prefix__paint12_linear" x1="73.475" x2="73.475" y1="52.378" y2="46.294" gradientUnits="userSpaceOnUse">
            <stop stop-color="#FFF3BD"/>
            <stop offset="1" stop-color="#FCA"/>
        </linearGradient>
    </defs>
</svg>
