<svg xmlns="http://www.w3.org/2000/svg" width="160" height="84" fill="none" viewBox="0 0 160 84">
    <path fill="#01A2AA" d="M0 8c0-4.418 3.582-8 8-8h144c4.418 0 8 3.582 8 8v68c0 4.418-3.582 8-8 8H8c-4.418 0-8-3.582-8-8V8z"/>
    <path fill="#068C92" fill-rule="evenodd" d="M89.698 41.849c0 16.485-13.364 29.848-29.849 29.848S30 58.334 30 41.85 43.364 12 59.849 12s29.849 13.364 29.849 29.849z" clip-rule="evenodd"/>
    <path fill="#A80D0C" fill-rule="evenodd" d="M58.468 39.4c-1.104.857-4.162-2.952-3.887-3.173.271-.22.962.136 1.279.14.913.009 3.688-.36 3.814-.122.2.378-.352 1.057-.451 1.423-.154.565-.242 1.334-.755 1.732z" clip-rule="evenodd"/>
    <path fill="#FFCAA7" fill-rule="evenodd" d="M48.686 29.506c2 2.482 5.22 4.334 8.756 4.68v1.394l-.033.014h3.044c-.372-.15-.615-.246-.656-.246V34.19c.433-.043.868-.109 1.304-.2 8.995-1.9 10.162-6.79 8.786-13.001C68.392 14.246 67.279 7.997 56.97 9.18c-10.037 1.152-10.605 8.844-10.39 14.625-.538-.047-1.83-.532-2.964.502-1.753 1.597-.812 3.782.696 5.072.492.601 3.82 2.018 4.374.127z" clip-rule="evenodd"/>
    <path fill="#FFBE8B" fill-rule="evenodd" d="M48.686 29.506c2 2.482 5.22 4.334 8.756 4.68v1.395c-.008.002-.023.01-.033.013h3.044c-.372-.15-.615-.246-.656-.245v-1.16c.433-.041.868-.108 1.304-.2 3.09-.652 5.256-1.657 6.713-2.948-5.009 3.26-12.165 4.82-15.865-2.155-1.087-2.05-1.29-7.187-1.666-7.727-.017-.024-.097-.086-.077-.124.161-.302 1.38-.683 1.743-1.306.247-.424.08-1.486.379-1.75.202-.178 1.672-.076 2.44-.705.457-.376.827-.869 1.016-1.418.05-.145.103-.819.273-.886.023-.01.444.479.618.515.688.147 1.428-.097 2.101-.208.496-.082.956-.26 1.385-.513.066-.039.519-.462.535-.452.343.218.316 1.634 1.171 2.079.663.344 1.535.49 2.282.468.181-.006.918-.273 1.05-.209.022.011.865 1.433 1.091 1.636.376.338.78.491 1.292.48.099-.001.64-.216.677-.192.291.184.282.561.748.62.164.021.33.029.482.008-1.368-6.012-3.13-11.1-12.52-10.022-10.036 1.152-10.604 8.844-10.389 14.625-.538-.047-1.83-.532-2.964.502-1.753 1.597-.812 3.782.696 5.072.492.601 3.82 2.018 4.374.127z" clip-rule="evenodd"/>
    <path fill="#F29C5B" fill-rule="evenodd" d="M44.576 33.617l-.002-.002c-.002 0 0 0 .002.002z" clip-rule="evenodd"/>
    <path fill="#D54F4A" fill-rule="evenodd" d="M60.45 30.217c-1.96-.1-2.947-.963-3.278-1.815-.185-.477.215-.921.439-.92 1.435.002 4.2.262 5.6.01.426-.076.653.319.413.912-.487 1.208-1.72 1.887-3.174 1.813z" clip-rule="evenodd"/>
    <path fill="#FF9A9A" fill-rule="evenodd" d="M57.351 28.76c.87-.597 1.941-.95 3.099-.95 1.126 0 2.17.334 3.027.901-.56 1.015-1.702 1.573-3.027 1.506-1.684-.085-2.65-.736-3.099-1.458z" clip-rule="evenodd"/>
    <path fill="#fff" fill-rule="evenodd" d="M57.571 27.485l.04-.003c1.434.002 4.2.261 5.6.01.053-.01.102-.012.148-.007-.792.38-1.8.607-2.894.607-1.095 0-2.101-.227-2.894-.607z" clip-rule="evenodd"/>
    <path fill="#F6B281" fill-rule="evenodd" d="M61.224 22.565l-.12-.109c-.104 0-.175.084-.217.166-.286.563-.352 1.436-.126 2.122.09.275.392.306.622.267.56-.093 1.017-.381 1.448-.255.228.068.223.33.123.487-.291.46-1.07.828-1.662.612l-.031-.013-.158.044.063.162c.227.134.517.162.79.14.607-.049 1.29-.322 1.543-.868.2-.432-.066-.99-.513-1.126-.583-.177-1.098.097-1.616.255-.247.075-.14.014-.14.014-.094-.36-.128-.734-.142-1.107-.011-.287.072-.657.029-.677-.031.003.107-.114.107-.114z" clip-rule="evenodd"/>
    <path fill="#262827" fill-rule="evenodd" d="M64.135 19.8c.468.006.843.424.835.932-.008.508-.395.915-.864.908-.47-.007-.844-.425-.835-.933.008-.508.395-.915.864-.908zM55.18 20.21c.468.007.843.437.834.962-.008.523-.395.942-.864.936-.468-.008-.843-.438-.835-.962.008-.523.395-.943.864-.936z" clip-rule="evenodd"/>
    <path fill="#2F2319" fill-rule="evenodd" d="M49.594 11.918c.55-.588 1.404-1.259 1.551-1.367 1.847-1.352 3.91-2.305 6.242-2.507 4.504-.391 8.939 1.894 12.195 4.762 3.338 2.94 2.315 6.162 2.203 6.091-.198-.126-1.374-.824-2.659-1.588.669.575 1.258 1.242 1.666 2.043l-.025.13s-.081.02-.16-.104c-.795-1.253-2.098-2.177-3.252-2.953.532.572.921 1.294.994 2.216.025.326-2.965-1.307-5.725-2.64.117.073.238.15.337.214 1.307.849 2.425 1.966 3.932 2.357l.15.036.068.097-.102.064c-2.09-.342-3.772-1.959-5.206-2.863-.487-.306-.959-.644-1.45-.939-.587-.242-1.102-.424-1.492-.512-.534-.12 1.595 2.154.76 2.353-.647.155-1.937-.576-2.5-.81-.808-.338-1.604-.708-2.415-1.04.197.122.38.24.547.344 1.221.758 2.46 1.571 3.913 1.816l.098.097-.098.07c-2.225-.24-7.63-3.213-7.954-3.207-.371.548-.65 1.182-.857 1.872-.18.813-.261 1.607-.304 2.307-.13 2.117-.064 4.267.341 6.282.148.732.354 1.474.355 2.203 0 .232-.036.47-.157.677l-.122.041-.033-.112.017-.033c.221-.438.056-1.01-.052-1.535-.136-.656-.268-1.305-.384-1.968.174 1.874.38 3.297.208 3.577-.379.611-.864-.219-1-.558-.434-1.076-.542-2.677-1.736-3.263-.191-.094-.755.104-.822.055-.467-.338-.49-1.874-.56-2.357-.261-1.788-.37-3.647.225-5.334-.31.563-.522 1.113-.628 1.575-.102.445-.126.906-.061 1.357l-.07.096s-.09-.024-.112-.128c-.256-1.23.195-2.537.916-3.589.318-.465.682-.91 1.096-1.296.23-.276.483-.553.79-.748-.186-.022-.376-.019-.569.031-.38.098-.726.297-1.066.488l-.126-.012.018-.116c.267-.248.546-.488.895-.643.05-.023.278-.101.505-.1.24.004.472.077.693.178l.026-.009c-.212-.194-.402-.42-.573-.677-.115-.173-.713-1.21-.174-1.27.75-.082 1.108.54 1.457 1.135.038-.049-.04-1.379.852-2.388.038-.043.075-.089.114-.132.306-.343.672-.638 1.084-.855l.141.013s.014.083-.088.156c-.612.445-1.064 1.069-1.413 1.732-.113.216-.214.438-.308.665-.007.018-.091.266-.136.523z" clip-rule="evenodd"/>
    <path fill="#201B18" fill-rule="evenodd" d="M46.708 14.788c.22-.094.42-.183.565-.229.073-.022.668-.25.73-.154.083.128-.113.547-.137.683-.095.552-.112 1.083.002 1.634.03.144.102.635.342.606.269-.033.429-.722.493-.911.209-.61.668-2.304 1.314-2.61.006-.003.008.23.007.253-.004.087-.03.845.002.827.23-.122.627-1.372 1.075-1.12.078.042.09.204.097.331-.364.543-.639 1.17-.843 1.852-.18.813-.26 1.607-.304 2.307-.13 2.117-.064 4.267.341 6.282.148.732.354 1.474.355 2.203 0 .232-.036.47-.156.676l-.123.042-.033-.112.017-.033c.221-.438.056-1.01-.052-1.535-.135-.656-.268-1.304-.384-1.968.174 1.874.38 3.297.208 3.577-.379.611-.864-.219-1-.558-.434-1.076-.542-2.677-1.736-3.263-.191-.094-.755.104-.821.055-.467-.338-.49-1.874-.56-2.357-.262-1.788-.372-3.647.224-5.334-.31.563-.523 1.114-.628 1.575-.102.445-.126.906-.06 1.357l-.07.096s-.091-.024-.113-.128c-.256-1.23.196-2.537.916-3.59.105-.153.216-.305.332-.454z" clip-rule="evenodd"/>
    <path fill="#FFCAA7" fill-rule="evenodd" d="M78.554 28.54h-.002c.245-.194 1.35-1.286.862-1.656-.044-.034-.097-.049-.157-.049h-.006c-.437.002-1.222.759-1.397.922-.005-.005.232-.803.334-1.23.017-.074.083-.378-.042-.408-.034-.008-.068-.012-.101-.013h-.007c-.576.001-1.119 1.063-1.27 1.434l-.001.002c-.02.003.006-1.53-.374-1.625-.03-.007-.056-.01-.083-.011h-.007c-.58-.003-.56 1.529-.56 1.862 0 .031-.012.241-.003.415-.002.002-.007.003-.014.004h-.004c-.175.003-1.299-.4-1.433-.166-.26.46.65 1.082.905 1.309.034.031.1.127.168.217 0 0 .078 4.122-2.489 7.167-1.087 1.29-2.98 1.534-4.552 1.208-1.763-.366-4.795-1.61-6.613-2.36h-5.27c-1.634.801-5.882 3.048-7.726 3.254-2.044.228-3.768-.859-4.506-2.438-.82-1.756-1.476-4.744-1.507-6.741-.008-.604-2.869-.215-2.866.274.016 3.485.171 7.71 2.597 10.191 2.125 2.174 5.367 2.62 8.148 1.966 1.494-.351 2.933-.908 4.36-1.513-.028 1.034-.088 2.05-.178 3.056-.215 2.427 10.229 2.305 9.497-.766-.226-.95-.487-1.886-.786-2.807 2.144.889 4.406 1.71 6.749 1.554 1.897-.126 3.745-.974 5.127-2.262 3.248-3.028 2.865-9.656 2.865-9.686.574-.115 1.646-.444 1.784-1.045.096-.419-1.369-.067-1.442-.06z" clip-rule="evenodd"/>
    <path fill="#F29C5B" fill-rule="evenodd" d="M76.712 29.638c.026-.528-.32-1.109-.734-1.237l-.063-.08.081-.057c.57.015 1.097.701.856 1.4 0 0-.03.137-.14-.022v-.004z" clip-rule="evenodd"/>
    <path fill="#FFBE8B" fill-rule="evenodd" d="M78.229 29.952c-.006.007-.012.014-.017.023-.46.666-.537 1.62-.683 2.385-.26 1.37-.583 2.922-1.413 4.09-.362.508-.814 1.11-1.37 1.435l-.015.009c-.052.046-.105.091-.158.134-.15.123-.413.364-.629.323-.16-.032-.255-.304-.31-.424-.198-.427-.367-.85-.683-1.215l-.038-.044-.04.046c-1.096 1.284-2.98 1.534-4.552 1.208-1.762-.366-4.795-1.61-6.613-2.36h-5.27c-1.635.801-5.882 3.048-7.726 3.254-.673.075-1.311.008-1.891-.173-.187.295-.402.578-.543.896-.25.562-.2 1.115-.98.936-.673-.154-1.291-.536-1.88-.874-1.068-.614-1.963-1.418-2.694-2.349.381 1.076.927 2.053 1.706 2.85 2.125 2.174 5.367 2.62 8.148 1.966 1.495-.351 2.934-.908 4.36-1.513-.028 1.034-.088 2.05-.178 3.056-.215 2.427 10.23 2.305 9.497-.766-.226-.95-.487-1.886-.786-2.807 2.144.889 4.406 1.71 6.749 1.555 1.897-.127 3.806-.915 5.127-2.263 2.937-2.999 2.933-8.082 2.882-9.378z" clip-rule="evenodd"/>
    <path fill="#FFCAA7" fill-rule="evenodd" d="M42.827 31.412c-.082-.54-.125-1.094-.118-1.65.067-.092.133-.188.168-.22.254-.225 1.164-.847.904-1.307-.14-.247-1.37.21-1.451.162.01-.173-.003-.384-.003-.416 0-.349.022-2.018-.65-1.85-.386.097-.352 1.677-.374 1.623-.161-.395-.763-1.569-1.378-1.422-.126.03-.06.335-.042.409.102.43.342 1.237.333 1.23-.2-.187-1.197-1.148-1.56-.873-.489.37.617 1.462.863 1.655.02.016-1.544-.372-1.445.06.139.6 1.21.93 1.784 1.044.004.517.016 1.036.04 1.555h2.93z" clip-rule="evenodd"/>
    <path fill="#F29C5B" fill-rule="evenodd" d="M42.211 28.581s-.625.635-.709.85c-.071.185-.087.471-.087.471s.023.134-.14.027c-.203-.575.127-1.382.85-1.404l.086.056z" clip-rule="evenodd"/>
    <mask id="prefix__a" width="8" height="5" x="65" y="71" maskUnits="userSpaceOnUse">
        <path fill="#fff" d="M65.71 71.11h7.077v4.145H65.71V71.11z"/>
    </mask>
    <g mask="url(#prefix__a)">
        <path fill="#393939" fill-rule="evenodd" d="M72.787 74.697c0 .94-5.311.508-6.32.038-1.009-.47-1.009-3.106 0-3.576 1.009-.47 6.32 2.597 6.32 3.538z" clip-rule="evenodd"/>
    </g>
    <mask id="prefix__b" width="9" height="5" x="47" y="71" maskUnits="userSpaceOnUse">
        <path fill="#fff" d="M47.96 71.11h7.077v4.145H47.96V71.11z"/>
    </mask>
    <g mask="url(#prefix__b)">
        <path fill="#393939" fill-rule="evenodd" d="M47.96 74.697c0 .94 5.312.508 6.32.038 1.009-.47 1.009-3.106 0-3.576-1.008-.47-6.32 2.597-6.32 3.538z" clip-rule="evenodd"/>
    </g>
    <path fill="#004392" fill-rule="evenodd" d="M53.662 50.864c.707-3.468 11.669-2.763 11.767 1.587.179 1.01.433 2.006.662 3.008 1.455 6.362 3.292 10.3 4.715 16.673l-5.377-.29s-3.288-8.384-4.756-14.813c0 0-1.095.044-2.504-.13-.095.663-2.2 10.08-3.008 15.94.784.102-5.77-.222-5.761-.287.906-6.818 3.916-20.606 4.262-21.688z" clip-rule="evenodd"/>
    <path fill="#6A6A6A" fill-rule="evenodd" d="M51.102 38.087c2.326-.942 5.156-2.476 5.845-2.764.57.652 1.344 1.053 2.196 1.053.824 0 1.575-.375 2.139-.99 1.22.502 3.268 1.359 5.038 1.96.108.344.166.709.166 1.087v2.696c-1.027-.291-2.033-.684-3.015-1.091 1.265 3.903 1.86 8.063 1.958 12.413.052.292.11.583.171.873-.706.825-1.772 1.35-2.964 1.35h-7.7c-.654 0-1.271-.157-1.81-.438.256-1.843.45-3.102.536-3.372.708-3.468 1.18-6.78 1.276-10.309-1.264.536-2.538 1.034-3.852 1.385v-3.507c0-.117.005-.232.016-.346z" clip-rule="evenodd"/>
    <path fill="#D1D1D0" fill-rule="evenodd" d="M60.918 36.705c-.288.293-.656.506-1.06.583-.213.04-.433.036-.65.017-.285-.024-.565-.081-.837-.164-.166-.05-.336-.1-.481-.178-.361-.204-.747-.474-.797-.283-.027.101.14.115.14.115.2.071.372.227.56.333.007.004.014.008.021.01.636.273 1.353.455 2.027.346.411-.066.863-.345.863-.345.14-.103.278-.21.39-.34.073-.085.055-.212-.044-.224-.143-.009-.132.13-.132.13z" clip-rule="evenodd"/>
    <path fill="#FF3D3B" fill-rule="evenodd" d="M62.483 54.727c-.105 1.028 4.316.5 4.28.341-.23-1.002-2.028-11.127-3.292-15.03 2.144.889 4.406 1.71 6.748 1.555.83-.056 1.663-.238 2.447-.538 1.009-.385-.417-3.742-.79-3.54-1.06.574-2.393.649-3.555.407-1.817-.377-4.985-1.689-6.78-2.429-.552-.228.14-1.543-.147-1.945-.102-.145-1.46 1.045-1.46 1.045.124.988 2.86 11.53 2.549 20.134zm-6.17-20.918c-.814-1.282.082 1.772-.54 2.083-1.925.965-5.433 2.742-7.061 2.924-1.629.181-2.07 3.418-1.533 3.474 1.14.122 2.305.035 3.399-.222 1.494-.351 2.933-.908 4.36-1.513-.096 3.53-2.99 11.219-3.697 14.687-.118.584 5.647.638 6.081.25.032-1.07-.046-2.469 0-3.653.239-6.082.495-14.24.355-16.612-.038-.645-.96-.463-1.364-1.418z" clip-rule="evenodd"/>
    <path fill="#F13433" fill-rule="evenodd" d="M56.136 34.412c.206.286.741.62.84.964.216.754.17 2.413-.276 3.043-.535.757-.453-.478-.628-.513-.367-.073-.96.38-1.251.538-1.213.654-2.565 1.034-3.864 1.489-.384.134-1.05.49-1.45.2-.276-.2.189-1.07.495-1.636-.495.165-.937.28-1.29.319-1.629.181-2.07 3.418-1.533 3.474 1.14.122 2.305.035 3.399-.222 1.494-.351 2.933-.908 4.36-1.513-.096 3.53-2.99 11.219-3.697 14.687-.118.584 5.647.638 6.081.25.032-1.07-.046-2.468 0-3.653.239-6.082.495-14.24.355-16.612-.038-.645-.96-.463-1.364-1.418-.382-.601-.388-.249-.35.327.053.094.109.187.173.276zm3.797.18c.125.989 2.86 11.53 2.55 20.135-.105 1.028 4.316.5 4.28.341-.23-1.002-2.028-11.127-3.292-15.03 2.144.889 4.406 1.71 6.748 1.554.83-.055 1.663-.237 2.447-.537 1.009-.385-.417-3.742-.79-3.54-.369.2-.77.34-1.187.426l.318.568c.165.297.876 1.534.167 1.714-.438.111-.643-.594-1.084-.627-2.642-.2-5.108-.82-7.392-2.122-.415-.236-.486-.614-.79-.918-.205-.206-.514-.214-.737-.386-.536-.414-.341-1.92-.077-2.453.012-.023.034-.053.062-.088-.417.257-1.223.964-1.223.964z" clip-rule="evenodd"/>
    <path fill="#A81211" fill-rule="evenodd" d="M61.544 39.628s1.4-.075 1.4-.064c0 .45.225 1.823 0 1.943-.84.45-1.263.045-1.4-1.88z" clip-rule="evenodd"/>
    <path fill="#C5C5C5" fill-rule="evenodd" d="M57.006 36.016c.111 0 .202.237.202.53 0 .292-.09.53-.202.53-.111 0-.202-.238-.202-.53 0-.293.09-.53.202-.53zM57.107 38.907c.111 0 .202.237.202.53 0 .293-.09.53-.202.53-.111 0-.202-.237-.202-.53 0-.293.09-.53.202-.53zM57.142 41.798c.111 0 .201.237.201.53 0 .293-.09.53-.201.53-.111 0-.202-.237-.202-.53 0-.293.09-.53.202-.53zM57.098 44.69c.111 0 .202.237.202.53 0 .292-.09.53-.202.53-.111 0-.202-.238-.202-.53 0-.293.09-.53.202-.53zM56.967 47.58c.111 0 .202.238.202.531 0 .293-.09.53-.202.53-.111 0-.202-.237-.202-.53 0-.293.09-.53.202-.53zM56.821 50.472c.111 0 .202.238.202.53 0 .293-.09.531-.202.531-.111 0-.202-.238-.202-.53 0-.293.09-.53.202-.53zM56.75 53.364c.11 0 .201.237.201.53 0 .293-.09.53-.201.53-.112 0-.202-.237-.202-.53 0-.293.09-.53.202-.53z" clip-rule="evenodd"/>
    <path fill="#FF7E7E" fill-rule="evenodd" d="M48.042 41.898s-.44.052-.449-.519c-.013-.91.287-1.477.756-2.254.214-.353.495-.711.71-1.022.008-.011-.597.056-1.017.227-.278.113-.394-.416-.568-.318-.184.104-.312.472-.428.636-.542.763-1.14 1.471-1.033 2.436.042.383.31.73.494 1.061.044.08.177.346.314.286.19-.084.17-.204.404-.226.324-.032.459.106.817-.307zM72.045 37.104s.418.307.607.54c.591.733.947 1.595.872 2.525-.025.306-.082.715-.316.946-.165.163-.284-.08-.403-.007-.165.1-.048.365-.31.408-.315.05-.288-.249-.31-.467-.042-.426-.08-.85-.159-1.272-.084-.456-.256-.899-.504-1.295-.128-.203-.4-.541-.393-.788.009-.294.393-.11.557-.228.142-.101.183-.488.359-.362z" clip-rule="evenodd"/>
    <path fill="#fff" d="M116.048 51V36.384h.6l-7.104 10.248.024-.984h11.04v1.632h-12.432v-1.488l8.232-11.88h1.608V51h-1.968zm9.471-9.864c-.752 0-1.4-.152-1.944-.456-.528-.32-.936-.76-1.224-1.32-.288-.56-.432-1.2-.432-1.92s.144-1.352.432-1.896c.288-.544.696-.968 1.224-1.272.544-.32 1.192-.48 1.944-.48.768 0 1.416.16 1.944.48.544.304.96.728 1.248 1.272.288.544.432 1.176.432 1.896s-.144 1.36-.432 1.92c-.288.56-.704 1-1.248 1.32-.528.304-1.176.456-1.944.456zm0-1.392c.624 0 1.096-.2 1.416-.6.32-.4.48-.968.48-1.704 0-.72-.16-1.28-.48-1.68-.32-.4-.792-.6-1.416-.6-.608 0-1.072.2-1.392.6-.304.4-.456.96-.456 1.68 0 .736.152 1.304.456 1.704.32.4.784.6 1.392.6z"/>
</svg>
