<svg xmlns="http://www.w3.org/2000/svg" width="160" height="84" fill="none" viewBox="0 0 160 84">
    <path fill="#01A2AA" d="M0 8c0-4.418 3.582-8 8-8h144c4.418 0 8 3.582 8 8v68c0 4.418-3.582 8-8 8H8c-4.418 0-8-3.582-8-8V8z"/>
    <g clip-path="url(#prefix__clip0)">
        <path fill="#068C92" fill-rule="evenodd" d="M89.906 42.4c0 15.132-12.268 27.399-27.4 27.399-15.132 0-27.4-12.267-27.4-27.4C35.106 27.267 47.374 15 62.506 15c15.132 0 27.4 12.267 27.4 27.4z" clip-rule="evenodd"/>
        <mask id="prefix__a" width="41" height="28" x="49" y="28" maskUnits="userSpaceOnUse">
            <path fill="#fff" d="M49.8 28.66h39.556v26.57H49.8V28.66z"/>
        </mask>
        <g mask="url(#prefix__a)">
            <path fill="#FFA015" fill-rule="evenodd" d="M54.826 55.202c2.123-.266 25.998-3.545 29.825-4.531 3.828-.986 5.107-2.08 4.599-6.441-.525-4.498-.904-10.627-1.3-12.245-.395-1.617.058-3.798-5.051-3.235-5.547.612-26.38 2.45-29.023 2.726-2.644.276-4.474.47-4.001 4.534.474 4.063 1.302 13.77 1.381 15.979.079 2.209 1.71 3.446 3.57 3.213z" clip-rule="evenodd"/>
        </g>
        <path fill="#007A7B" fill-rule="evenodd" d="M52.106 36.896c-.222-1.523-.678-3.1 1.847-3.337 2.525-.236 11.822-.745 18.884-1.337 7.063-.592 9.153-.868 10.89-1.026 1.735-.157 1.578-.473 1.972 3.117.395 3.59 1.539 10.337 1.657 11.363.119 1.026-.392 2.447-1.891 2.645-1.5.197-26.38 4.017-28.826 4.372-2.446.355-3.33-.394-3.635-3.802-.343-3.811-.621-10.101-.898-11.995z" clip-rule="evenodd"/>
        <path fill="#fff" fill-rule="evenodd" d="M56.821 41.876c-.631-.372-.315-.727.395-1.437.71-.71 2.801-2.959 3.393-3.354.592-.394 1.538-.197 1.578.829.04 1.026.947 8.207.986 8.917.04.71-.828.986-1.499.789-.67-.198-1.091-6.603-1.257-7.476-.109-.576-1.82 2.14-2.49 2.145-.672.004-1.106-.413-1.106-.413zM65.736 40.494c-.198-.631-.79-4.024 2.367-4.38 3.156-.354 3.314 2.565 2.959 3.749-.355 1.184-2.25 4.103-2.21 4.537.04.434 3.044-.68 3.399-.404.355.277.237 1.736 0 2.012-.237.277-4.306.917-5.253.64-.947-.275-1.105-1.893-.789-2.287.316-.395 3.7-5.202 2.367-5.84-1.08-.516-1.347.967-1.244 1.934.062.595-1.596.04-1.596.04zM73.824 37.834c.592.632 1.263 1.263 1.578.75.316-.513.809-1.96 1.846-1.649 1.399.42.434 1.855-.197 2.486-.631.631-.91.175-.673 1.083.237.907.748.27 1.755.887 1.403.86.377 2.702-.547 2.6-1.386-.154-1.53-.871-1.863-1.108-.334-.236-1.754.434-1.557.868.198.434 1.69 2.49 4.384 1.904 2.306-.501 2.532-3.154 1.94-4.276-.592-1.121-1.775-1.356-1.775-1.356s1.216-1.806.427-3.63c-.79-1.825-3.013-1.732-4.064-.8-1.254 1.114-1.254 2.241-1.254 2.241zM79.562 50.134c.379.576 4.796-.236 5.072-.828.276-.592-.513-1.539-2.92-1.105-2.406.434-2.49 1.42-2.152 1.933z" clip-rule="evenodd"/>
        <path fill="#2C374B" fill-rule="evenodd" d="M45.224 34.073l-1.627-4.65c-.03-.086-.16-.063-.157.029l.278 16.23.667 2.055 1.905-.67-1.066-12.994zM46.788 50.232l2.375 4.053-2.244.924-1.587-4.522 1.456-.455z" clip-rule="evenodd"/>
        <path fill="#003E5C" fill-rule="evenodd" d="M46.189 45.827l.6 4.405-1.457.455L32.346 39.62l-2.328-3.345c-.06-.085.044-.188.129-.128l13.57 9.537 2.472.144z" clip-rule="evenodd"/>
        <path fill="#EAD8C6" fill-rule="evenodd" d="M44.932 48.972c.869-.01 1.057-1.582-.205-1.605-1.261-.023-1.02 1.62.205 1.605z" clip-rule="evenodd"/>
        <path fill="#003E5C" fill-rule="evenodd" d="M36.411 46.673c-.104 0-.205-.057-.255-.156-.072-.141-.016-.314.125-.385l9.217-4.687c.14-.072.313-.016.385.125.071.141.015.314-.126.385l-9.216 4.687c-.042.021-.086.031-.13.031z" clip-rule="evenodd"/>
        <mask id="prefix__b" width="10" height="10" x="67" y="59" maskUnits="userSpaceOnUse">
            <path fill="#fff" d="M74.358 59.216l2.384 2.556-6.937 6.47-2.384-2.557 6.937-6.47z"/>
        </mask>
        <g mask="url(#prefix__b)">
            <path fill="#0059DF" fill-rule="evenodd" d="M74.835 60.353l1.009.456s-.573 1.796-1.363 3.024-6.155 2.822-6.155 2.822l.722-2.487 5.787-3.815z" clip-rule="evenodd"/>
        </g>
        <path fill="#0059DF" fill-rule="evenodd" d="M69.433 56.893c1.221-.528 2.277-.492 3.585.565 1.308 1.058 1.832 1.578 2.534 2.2.701.622.683 1.551-1.72 2.52-2.402.968-4.784 1.99-4.784 1.99l-5.638-4.915 6.023-2.36z" clip-rule="evenodd"/>
        <mask id="prefix__c" width="10" height="10" x="55" y="60" maskUnits="userSpaceOnUse">
            <path fill="#fff" d="M59.826 60.163l5.097 5.466-4.538 4.231-5.097-5.466 4.538-4.231z"/>
        </mask>
        <g mask="url(#prefix__c)">
            <path fill="#DB3A38" fill-rule="evenodd" d="M61.648 68.683s-1.765.349-3.981-1.762c-2.217-2.111-1.287-3.082-.447-4.15.84-1.068 1.576-1.719 2.608-2.165 1.03-.446 2.991 4.695 2.991 4.695l-1.17 3.382z" clip-rule="evenodd"/>
        </g>
        <path fill="#FF514F" fill-rule="evenodd" d="M63.41 59.253s-4.157 1.292-4.922 2.196c-.766.904 2.768 4.645 4.334 4.639 1.566-.007 4.65-.31 4.65-.31l1.576-1.61-5.638-4.915z" clip-rule="evenodd"/>
        <path fill="#DB3A38" fill-rule="evenodd" d="M68.326 66.655s-5.563 2.13-6.677 2.028c-1.115-.102.176-2.466 1.172-2.596.997-.13 6.227-1.919 6.227-1.919l-.722 2.487z" clip-rule="evenodd"/>
    </g>
    <path fill="#fff" d="M114.032 51.168c-1.104 0-2.168-.184-3.192-.552-1.008-.368-1.864-.888-2.568-1.56l.768-1.512c.768.656 1.56 1.152 2.376 1.488.816.32 1.672.48 2.568.48 1.216 0 2.136-.272 2.76-.816.64-.544.96-1.344.96-2.4 0-1.056-.328-1.84-.984-2.352-.656-.528-1.64-.792-2.952-.792H111.8v-1.656h1.584c1.264 0 2.232-.28 2.904-.84.672-.56 1.008-1.36 1.008-2.4 0-.928-.28-1.64-.84-2.136-.544-.496-1.32-.744-2.328-.744-.848 0-1.672.168-2.472.504-.8.32-1.592.808-2.376 1.464l-.744-1.512c.688-.656 1.536-1.168 2.544-1.536 1.008-.384 2.048-.576 3.12-.576 1.024 0 1.92.184 2.688.552.768.352 1.352.856 1.752 1.512.416.656.624 1.432.624 2.328 0 1.056-.28 1.96-.84 2.712-.544.736-1.296 1.24-2.256 1.512l-.072-.24c1.152.24 2.032.728 2.64 1.464.608.736.912 1.672.912 2.808 0 1.488-.504 2.664-1.512 3.528-1.008.848-2.376 1.272-4.104 1.272zm11.487-10.032c-.752 0-1.4-.152-1.944-.456-.528-.32-.936-.76-1.224-1.32-.288-.56-.432-1.2-.432-1.92s.144-1.352.432-1.896c.288-.544.696-.968 1.224-1.272.544-.32 1.192-.48 1.944-.48.768 0 1.416.16 1.944.48.544.304.96.728 1.248 1.272.288.544.432 1.176.432 1.896s-.144 1.36-.432 1.92c-.288.56-.704 1-1.248 1.32-.528.304-1.176.456-1.944.456zm0-1.392c.624 0 1.096-.2 1.416-.6.32-.4.48-.968.48-1.704 0-.72-.16-1.28-.48-1.68-.32-.4-.792-.6-1.416-.6-.608 0-1.072.2-1.392.6-.304.4-.456.96-.456 1.68 0 .736.152 1.304.456 1.704.32.4.784.6 1.392.6z"/>
    <defs>
        <clipPath id="prefix__clip0">
            <path fill="#fff" d="M30 15H90V69.894H30z"/>
        </clipPath>
    </defs>
</svg>
