<svg xmlns="http://www.w3.org/2000/svg" width="349" height="84" fill="none" viewBox="0 0 349 84">
    <rect width="349" height="84" fill="#792989" rx="8"/>
    <path fill="#C3ABCF" d="M59.997 71.994c16.567 0 29.997-13.43 29.997-29.997S76.564 12 59.997 12 30 25.43 30 41.997s13.43 29.997 29.997 29.997z" opacity=".8"/>
    <path fill="#B76053" d="M84.65 22.978l1.002.333-4.224 35.45-44.403-.276-.356-.692L84.65 22.978z" opacity=".6"/>
    <path fill="url(#prefix__paint0_linear)" d="M79.636 57.847h-44.54l-.792-35.953 50.596-.668-5.264 36.62z"/>
    <path fill="url(#prefix__paint1_linear)" d="M78.484 57.039l4.592-34.47-47.462.623.751 33.847h42.12z"/>
    <path fill="#E0E016" d="M52.96 38.347c0-.814 0-1.221.021-2.035l3.11-.024c-.035.826-.056 1.239-.092 2.08l-3.039-.021zM53.002 33.835l3.2-.027c-.036.826-.054 1.239-.093 2.08h-3.125c.006-.832.012-1.24.018-2.053z"/>
    <path fill="#F7A01E" d="M49.328 31.384l3.3-.026c-.027.81-.038 1.217-.065 2.028h-3.229c0-.802-.003-1.188-.006-2.002z"/>
    <path fill="#E0E016" d="M60.336 33.775l3.175-.023c-.06.852-.092 1.28-.151 2.132h-3.095c.032-.846.032-1.265.07-2.109z"/>
    <path fill="#F7A01E" d="M49.352 38.34v-1.998l3.124-.024c-.026.81-.041 1.218-.065 2.029l-3.06-.006z"/>
    <path fill="#E0E016" d="M60.181 38.361c.03-.84.042-1.262.071-2.103l3.084-.023-.149 2.132-3.006-.006zM56.572 38.355l.045-2.079 3.086-.015-.119 2.1-3.012-.005zM56.668 33.805l3.187-.027-.12 2.1h-3.109c.015-.831.024-1.244.042-2.073z"/>
    <path fill="#8BCCCB" d="M74.819 35.905c.074-.891.11-1.346.184-2.246l3.529-.026-.247 2.278-3.466-.006zM74.614 38.391l.187-2.245 3.463-.027c-.1.912-.148 1.366-.246 2.278l-3.404-.006z"/>
    <path fill="#DE7E3E" d="M42.006 33.92l3.238-.026v1.96h-3.17c-.035-.775-.044-1.16-.068-1.933zM42.128 38.326l-.05-1.928 3.148-.024v1.958l-3.098-.006z"/>
    <path fill="#8BCCCB" d="M75.024 33.419c.074-.891.11-1.346.184-2.246l3.591-.026-.246 2.278-3.53-.006zM75.41 28.69l3.657-.033-.244 2.282h-3.597l.184-2.249z"/>
    <path fill="#DE7E3E" d="M41.558 28.42h-3.496l-.075-2.555 3.565-.014.006 2.569z"/>
    <path fill="#F7A01E" d="M49.337 33.861l3.21-.023-.064 2.028h-3.14l-.006-2.005z"/>
    <path fill="#DE7E3E" d="M41.938 31.444l3.32-.027v1.96h-3.267c-.02-.775-.033-1.161-.053-1.933z"/>
    <path fill="#F7A01E" d="M45.594 28.93l3.398-.029c0 .8-.023 1.188-.038 1.996h-3.33l-.03-1.966z"/>
    <path fill="#DE7E3E" d="M41.881 28.966l3.395-.035v1.96h-3.353c-.02-.772-.042-1.152-.042-1.925z"/>
    <path fill="#F7A01E" d="M45.633 31.414l3.312-.027c-.018.8-.024 1.188-.042 1.996l-3.24.003-.03-1.972zM45.743 38.335l-.033-1.979h3.137l-.036 1.996-3.068-.017z"/>
    <path fill="#DE7E3E" d="M41.78 25.848h3.517c0 1.036 0 1.553-.018 2.59h-3.427c-.027-1.049-.042-1.563-.072-2.59z"/>
    <path fill="#F7A01E" d="M45.671 33.891l3.223-.024c0 .796-.02 1.189-.038 1.993H45.7l-.03-1.969zM49.307 28.907l3.39-.03c-.028.811-.04 1.218-.066 2.032h-3.315c.009-.79.006-1.203-.009-2.002z"/>
    <path fill="#E0E016" d="M52.958 38.792l3.024-.02c-.042.89-.06 1.348-.101 2.248h-2.944c.009-.885.012-1.334.02-2.228z"/>
    <path fill="#F7A01E" d="M49.352 38.819l3.038-.021c-.026.891-.041 1.34-.071 2.23h-2.97c.009-.878.006-1.321.003-2.21zM45.743 38.846l3.05-.021c0 .89-.024 1.328-.041 2.213h-2.97c-.013-.87-.021-1.313-.04-2.192z"/>
    <path fill="#DE7E3E" d="M42.145 38.872l3.066-.02v2.195h-2.994l-.072-2.175z"/>
    <path fill="#E0E016" d="M56.564 38.765l3.009-.032c-.054.89-.078 1.36-.131 2.266h-2.929c.021-.882.03-1.33.05-2.234zM60.17 38.733h2.994c-.066.912-.096 1.369-.16 2.284h-2.912c.03-.915.045-1.37.078-2.284zM67.382 38.685l2.97-.02c-.086.926-.13 1.392-.22 2.32h-2.878l.128-2.3zM63.776 38.712l2.97-.02c-.077.92-.113 1.38-.19 2.301H63.66c.053-.909.074-1.37.116-2.281z"/>
    <path fill="#DE7E3E" d="M41.623 38.878v2.178h-3.208c-.024-.865-.036-1.299-.063-2.163l3.27-.015z"/>
    <path fill="#8BCCCB" d="M74.596 38.632l3.398-.027-.252 2.376h-3.339l.193-2.35z"/>
    <path fill="#DE7E3E" d="M38.296 36.425l3.31-.024v1.925h-3.268c-.02-.764-.02-1.144-.042-1.901z"/>
    <path fill="#8BCCCB" d="M75.428 28.447l.222-2.736h3.737l-.297 2.753-3.662-.017z"/>
    <path fill="#DE7E3E" d="M41.584 33.924v1.925H38.26c-.02-.758-.032-1.135-.056-1.892l3.38-.033zM41.56 28.97v1.924h-3.427c-.02-.757-.033-1.134-.053-1.892l3.48-.033zM41.584 31.447v1.924h-3.377c-.024-.757-.036-1.137-.057-1.895l3.434-.03z"/>
    <path fill="#8BCCCB" d="M70.99 38.658l2.953-.02-.253 2.337h-2.863l.163-2.317z"/>
    <path fill="#E0E016" d="M67.399 38.376c.05-.87.077-1.304.125-2.174l3.06-.024c-.084.891-.126 1.322-.212 2.204l-2.973-.006zM67.67 33.719l3.151-.036c-.086.891-.127 1.325-.21 2.207h-3.069c.05-.867.077-1.3.128-2.171zM64.001 33.746l3.164-.024-.178 2.171h-3.084c.039-.861.06-1.289.098-2.147zM63.79 38.37c.039-.855.06-1.286.098-2.141l3.071-.024-.178 2.171-2.991-.006z"/>
    <path fill="#8BCCCB" d="M71.51 31.206l3.235-.027-.244 2.24h-3.145l.154-2.213zM71.008 38.385c.063-.89.092-1.328.155-2.213l3.044-.02c-.098.89-.145 1.342-.24 2.24l-2.959-.007z"/>
    <path fill="#B86053" d="M52.833 44.376c0-.814 0-1.22.018-2.034l3.047-.045c-.035.826-.053 1.239-.092 2.064l-2.973.015zM49.307 44.355v-1.998l3.06-.024-.066 2.031-2.994-.008zM59.902 44.376c.03-.843.042-1.265.072-2.106l3.02-.02-.148 2.132-2.944-.006zM56.368 44.376l.044-2.079h3.033l-.119 2.1-2.958-.02zM42.226 44.335l-.054-1.928 3.087-.024v1.96l-3.033-.008zM45.764 44.347l-.03-1.967 3.071-.02c-.015.798-.024 1.188-.038 1.992l-3.003-.005zM52.83 44.81l2.97-.02c-.038.89-.06 1.35-.098 2.248h-2.884c-.003-.88.003-1.334.012-2.228zM49.307 44.834l2.97-.021c-.03.891-.041 1.34-.07 2.234h-2.9v-2.213zM45.77 44.858l2.988-.021c0 .89-.024 1.33-.042 2.215h-2.914c-.012-.873-.018-1.315-.032-2.194zM42.24 44.884l3.004-.02v2.194h-2.932l-.071-2.174zM56.359 44.786l2.946-.02-.128 2.266h-2.866c.018-.894.03-1.346.048-2.246zM59.89 44.76l2.932-.018c-.065.912-.095 1.369-.16 2.284h-2.849c.03-.903.044-1.358.077-2.267zM66.95 44.712l2.906-.02c-.09.929-.134 1.392-.22 2.322h-2.82l.135-2.302zM63.422 44.736l2.917-.021c-.078.924-.113 1.384-.19 2.305h-2.834c.041-.91.062-1.37.107-2.284zM70.482 44.688l2.885-.015c-.102.936-.152 1.405-.25 2.34h-2.804l.17-2.325zM66.972 44.403l.124-2.174 3.003-.021-.208 2.204-2.92-.009zM63.437 44.394c.039-.855.06-1.283.098-2.142l3.009-.02c-.074.867-.11 1.3-.181 2.168l-2.926-.006zM70.503 44.412l.154-2.21 2.97-.02c-.094.89-.145 1.342-.24 2.239l-2.884-.01z"/>
    <path fill="#8BCCCB" d="M71.682 28.72l3.333-.027-.244 2.24h-3.243c.056-.888.092-1.328.154-2.213zM71.335 33.683l3.14-.024c-.096.892-.146 1.343-.241 2.24H71.18c.063-.885.107-1.325.155-2.216z"/>
    <path fill="#EAC494" d="M70.628 25.815l-17.852-.363c.113.868.17 1.304.28 2.172l17.414-.13c.063-.672.096-1.008.158-1.68zM66.66 29.002l-10.325-.214c.059.508.089.76.145 1.268l10.099-.07c.033-.393.05-.589.08-.984z"/>
    <path fill="#9E4015" d="M83.076 22.568l-47.462.624.751 33.847h.948l-.538-33.268 46.245-.79.056-.413z"/>
    <path fill="#FFF7CC" d="M84.9 21.226l-12.65.038-12.651.17-25.298.332-.16.003.003.125.395 17.976.208 8.988.35 8.989-.044-8.992-.19-8.988-.399-17.976-.157.128 25.298-.336 12.65-.163 12.645-.294z"/>
    <path fill="#EAC494" d="M65.162 53.676h10.616l.42-3.962h-11.6l.564 3.962zM51.956 49.714h11.748l.463 3.962H51.33l.626-3.962zM39.865 53.676H50.48l.42-3.962H39.3l.565 3.962z"/>
    <path fill="#fff" d="M147.536 51.192c-.88 0-1.704-.072-2.472-.216-.768-.16-1.48-.4-2.136-.72-.656-.336-1.248-.744-1.776-1.224l.744-1.512c.864.72 1.728 1.232 2.592 1.536.88.304 1.904.456 3.072.456 1.36 0 2.416-.264 3.168-.792.752-.544 1.128-1.304 1.128-2.28 0-.592-.192-1.064-.576-1.416-.368-.368-.88-.656-1.536-.864-.64-.224-1.368-.432-2.184-.624-.816-.176-1.592-.376-2.328-.6-.736-.24-1.392-.536-1.968-.888-.56-.352-1-.8-1.32-1.344-.32-.544-.48-1.224-.48-2.04 0-.976.256-1.832.768-2.568.512-.752 1.232-1.336 2.16-1.752.928-.416 2.024-.624 3.288-.624.784 0 1.536.088 2.256.264.72.16 1.384.4 1.992.72.624.32 1.176.712 1.656 1.176l-.768 1.512c-.784-.688-1.592-1.192-2.424-1.512-.832-.32-1.736-.48-2.712-.48-1.328 0-2.368.28-3.12.84-.752.56-1.128 1.344-1.128 2.352 0 .624.168 1.128.504 1.512.336.384.808.696 1.416.936.608.224 1.304.432 2.088.624.832.192 1.632.4 2.4.624.768.224 1.448.504 2.04.84.608.32 1.088.744 1.44 1.272.352.512.528 1.168.528 1.968 0 .976-.256 1.824-.768 2.544s-1.24 1.28-2.184 1.68c-.944.4-2.064.6-3.36.6zm19.177-1.632c-.528.496-1.208.888-2.04 1.176-.816.288-1.656.432-2.52.432-1.248 0-2.328-.248-3.24-.744-.896-.496-1.592-1.208-2.088-2.136-.48-.944-.72-2.064-.72-3.36 0-1.248.24-2.344.72-3.288s1.144-1.68 1.992-2.208c.864-.528 1.856-.792 2.976-.792 1.072 0 1.992.24 2.76.72.768.464 1.352 1.136 1.752 2.016.416.88.624 1.936.624 3.168v.36h-9.12v-1.272h8.016l-.624.888c.032-1.408-.248-2.488-.84-3.24-.576-.752-1.424-1.128-2.544-1.128-1.168 0-2.088.416-2.76 1.248-.656.816-.984 1.952-.984 3.408 0 1.568.344 2.752 1.032 3.552.704.8 1.728 1.2 3.072 1.2.704 0 1.376-.112 2.016-.336.656-.24 1.28-.6 1.872-1.08l.648 1.416zm8.231 1.608c-1.184 0-2.208-.256-3.072-.768-.864-.512-1.536-1.232-2.016-2.16-.464-.928-.696-2.024-.696-3.288 0-1.248.24-2.344.72-3.288.48-.96 1.16-1.704 2.04-2.232.88-.528 1.92-.792 3.12-.792.816 0 1.6.144 2.352.432.768.272 1.4.656 1.896 1.152l-.648 1.44c-.592-.464-1.176-.808-1.752-1.032-.56-.24-1.144-.36-1.752-.36-1.216 0-2.184.408-2.904 1.224-.704.816-1.056 1.968-1.056 3.456 0 1.472.352 2.608 1.056 3.408.704.8 1.672 1.2 2.904 1.2.592 0 1.176-.112 1.752-.336.576-.24 1.16-.592 1.752-1.056l.648 1.44c-.512.48-1.16.864-1.944 1.152-.768.272-1.568.408-2.4.408zm11.091 0c-1.44 0-2.528-.4-3.264-1.2-.72-.8-1.08-1.984-1.08-3.552v-7.488h1.944v7.44c0 1.088.224 1.888.672 2.4.448.512 1.128.768 2.04.768 1.072 0 1.936-.344 2.592-1.032.656-.688.984-1.608.984-2.76v-6.816h1.944V51h-1.896v-2.616l.288-.144c-.32.96-.864 1.688-1.632 2.184-.752.496-1.616.744-2.592.744zm9.579-.168v-8.688c0-.56-.016-1.12-.048-1.68-.016-.576-.064-1.144-.144-1.704h1.848l.216 2.496-.24.192c.336-.976.896-1.712 1.68-2.208.784-.512 1.688-.768 2.712-.768 2.896 0 4.344 1.592 4.344 4.776V51h-1.944v-7.488c0-1.12-.224-1.936-.672-2.448-.448-.528-1.152-.792-2.112-.792-1.12 0-2.016.344-2.688 1.032-.672.688-1.008 1.616-1.008 2.784V51h-1.944zm24.671 0h-1.92v-3.24l.288.264c-.272 1.008-.792 1.784-1.56 2.328-.768.544-1.704.816-2.808.816-1.056 0-1.992-.256-2.808-.768-.8-.528-1.424-1.264-1.872-2.208-.448-.96-.672-2.072-.672-3.336 0-1.264.216-2.36.648-3.288.448-.928 1.072-1.648 1.872-2.16.816-.512 1.76-.768 2.832-.768 1.104 0 2.04.28 2.808.84.768.544 1.288 1.312 1.56 2.304l-.312.24v-8.688h1.944V51zm-5.616-1.44c1.168 0 2.072-.4 2.712-1.2.656-.816.984-1.968.984-3.456 0-1.472-.32-2.608-.96-3.408-.64-.816-1.552-1.224-2.736-1.224-1.184 0-2.112.4-2.784 1.2-.656.8-.984 1.928-.984 3.384 0 1.488.328 2.648.984 3.48.672.816 1.6 1.224 2.784 1.224zm14.007 1.608c-1.072 0-2.016-.248-2.832-.744-.8-.512-1.424-1.232-1.872-2.16-.432-.944-.648-2.048-.648-3.312 0-1.264.224-2.368.672-3.312.448-.944 1.072-1.68 1.872-2.208.816-.528 1.752-.792 2.808-.792 1.104 0 2.04.272 2.808.816.768.544 1.288 1.32 1.56 2.328l-.288.192v-3.048h1.92V51h-1.92v-3.12l.288.144c-.272 1.008-.792 1.784-1.56 2.328-.768.544-1.704.816-2.808.816zm.384-1.608c1.184 0 2.096-.4 2.736-1.2.64-.816.96-1.968.96-3.456s-.328-2.632-.984-3.432c-.64-.8-1.544-1.2-2.712-1.2-1.184 0-2.112.416-2.784 1.248-.656.816-.984 1.96-.984 3.432s.328 2.608.984 3.408c.672.8 1.6 1.2 2.784 1.2zm9.375 1.44v-8.688c0-.56-.016-1.12-.048-1.68-.016-.576-.064-1.144-.144-1.704h1.847l.265 2.976-.265-.072c.225-1.056.705-1.848 1.441-2.376.752-.544 1.592-.816 2.52-.816.208 0 .4.016.576.048.192.016.368.048.528.096l-.048 1.776c-.368-.128-.792-.192-1.272-.192-.832 0-1.504.184-2.016.552-.496.368-.864.84-1.104 1.416-.224.56-.336 1.152-.336 1.776V51h-1.944zm8.695 0V38.928h1.944V51h-1.944zm-.192-17.184h2.376v2.208h-2.376v-2.208zm10.543 17.352c-1.072 0-2.016-.248-2.832-.744-.8-.512-1.424-1.232-1.872-2.16-.432-.944-.648-2.048-.648-3.312 0-1.264.224-2.368.672-3.312.448-.944 1.072-1.68 1.872-2.208.816-.528 1.752-.792 2.808-.792 1.104 0 2.04.272 2.808.816.768.544 1.288 1.32 1.56 2.328l-.288.192v-3.048h1.92V51h-1.92v-3.12l.288.144c-.272 1.008-.792 1.784-1.56 2.328-.768.544-1.704.816-2.808.816zm.384-1.608c1.184 0 2.096-.4 2.736-1.2.64-.816.96-1.968.96-3.456s-.328-2.632-.984-3.432c-.64-.8-1.544-1.2-2.712-1.2-1.184 0-2.112.416-2.784 1.248-.656.816-.984 1.96-.984 3.432s.328 2.608.984 3.408c.672.8 1.6 1.2 2.784 1.2zm20.792 1.608c-1.104 0-2.168-.184-3.192-.552-1.008-.368-1.864-.888-2.568-1.56l.768-1.512c.768.656 1.56 1.152 2.376 1.488.816.32 1.672.48 2.568.48 1.216 0 2.136-.272 2.76-.816.64-.544.96-1.344.96-2.4 0-1.056-.328-1.84-.984-2.352-.656-.528-1.64-.792-2.952-.792h-1.968v-1.656h1.584c1.264 0 2.232-.28 2.904-.84.672-.56 1.008-1.36 1.008-2.4 0-.928-.28-1.64-.84-2.136-.544-.496-1.32-.744-2.328-.744-.848 0-1.672.168-2.472.504-.8.32-1.592.808-2.376 1.464l-.744-1.512c.688-.656 1.536-1.168 2.544-1.536 1.008-.384 2.048-.576 3.12-.576 1.024 0 1.92.184 2.688.552.768.352 1.352.856 1.752 1.512.416.656.624 1.432.624 2.328 0 1.056-.28 1.96-.84 2.712-.544.736-1.296 1.24-2.256 1.512l-.072-.24c1.152.24 2.032.728 2.64 1.464.608.736.912 1.672.912 2.808 0 1.488-.504 2.664-1.512 3.528-1.008.848-2.376 1.272-4.104 1.272zm11.487-10.032c-.752 0-1.4-.152-1.944-.456-.528-.32-.936-.76-1.224-1.32-.288-.56-.432-1.2-.432-1.92s.144-1.352.432-1.896c.288-.544.696-.968 1.224-1.272.544-.32 1.192-.48 1.944-.48.768 0 1.416.16 1.944.48.544.304.96.728 1.248 1.272.288.544.432 1.176.432 1.896s-.144 1.36-.432 1.92c-.288.56-.704 1-1.248 1.32-.528.304-1.176.456-1.944.456zm0-1.392c.624 0 1.096-.2 1.416-.6.32-.4.48-.968.48-1.704 0-.72-.16-1.28-.48-1.68-.32-.4-.792-.6-1.416-.6-.608 0-1.072.2-1.392.6-.304.4-.456.96-.456 1.68 0 .736.152 1.304.456 1.704.32.4.784.6 1.392.6z"/>
    <defs>
        <linearGradient id="prefix__paint0_linear" x1="35.73" x2="77.379" y1="26.978" y2="68.119" gradientUnits="userSpaceOnUse">
            <stop stop-color="#F2C77B"/>
            <stop offset=".05" stop-color="#F2C172"/>
            <stop offset=".38" stop-color="#F19B39"/>
            <stop offset=".54" stop-color="#F18C23"/>
            <stop offset=".63" stop-color="#EB8722"/>
            <stop offset=".74" stop-color="#DA771F"/>
            <stop offset=".88" stop-color="#BF5F1B"/>
            <stop offset="1" stop-color="#9E4116"/>
        </linearGradient>
        <linearGradient id="prefix__paint1_linear" x1="76.69" x2="46.026" y1="49.496" y2="16.29" gradientUnits="userSpaceOnUse">
            <stop stop-color="#FFFBE4"/>
            <stop offset="1" stop-color="#FFE696"/>
        </linearGradient>
    </defs>
</svg>
