<?xml version="1.0" encoding="utf-8"?>
<!-- Generator: Adobe Illustrator 24.0.2, SVG Export Plug-In . SVG Version: 6.00 Build 0)  -->
<svg version="1.1" id="Capa_1" xmlns="http://www.w3.org/2000/svg" xmlns:xlink="http://www.w3.org/1999/xlink" x="0px" y="0px"
	 viewBox="0 0 47.2 42.9" style="enable-background:new 0 0 47.2 42.9;" xml:space="preserve">
<style type="text/css">
	.st0{display:none;}
	.st1{display:inline;filter:url(#Adobe_OpacityMaskFilter);}
	.st2{fill-rule:evenodd;clip-rule:evenodd;fill:#FFFFFF;}
	.st3{display:inline;mask:url(#prefix__c_1_);}
	.st4{fill:#0052C2;}
	.st5{fill:#E0F4FF;}
	.st6{fill:#FFDA2D;}
	.st7{fill:#00B8F0;}
	.st8{fill-rule:evenodd;clip-rule:evenodd;fill:#58CB7D;}
	.st9{fill:#FDBF00;}
	.st10{fill:#F03800;}
	.st11{filter:url(#Adobe_OpacityMaskFilter_1_);}
	.st12{display:none;mask:url(#prefix__c_2_);}
	.st13{display:inline;}
	.st14{fill-rule:evenodd;clip-rule:evenodd;fill:#D23689;}
	.st15{fill-rule:evenodd;clip-rule:evenodd;fill:#FEFFFE;}
	.st16{filter:url(#Adobe_OpacityMaskFilter_2_);}
	.st17{mask:url(#prefix__c_3_);}
	.st18{fill:#F29C1F;}
	.st19{fill:#F3D55B;}
	.st20{fill:#E64C3C;}
	.st21{fill:#FFFFFF;}
	.st22{fill:#ECF0F1;}
	.st23{fill:#BDC3C7;}
	.st24{fill:#95A5A5;}
</style>
<g class="st0">
	<defs>
		<filter id="Adobe_OpacityMaskFilter" filterUnits="userSpaceOnUse" x="0" y="0" width="47.2" height="41.5">
			<feColorMatrix  type="matrix" values="1 0 0 0 0  0 1 0 0 0  0 0 1 0 0  0 0 0 1 0"/>
		</filter>
	</defs>
	<mask maskUnits="userSpaceOnUse" x="0" y="0" width="47.2" height="41.5" id="prefix__c_1_" class="st13">
		<g style="filter:url(#Adobe_OpacityMaskFilter);">
			<path id="prefix__a_3_" class="st2" d="M-113-12h272c4.4,0,8,3.6,8,8v244c0,4.4-3.6,8-8,8h-272c-4.4,0-8-3.6-8-8V-4
				C-121-8.4-117.4-12-113-12z"/>
		</g>
	</mask>
	<g class="st3">
		<g transform="translate(121 12)">
			<path class="st4" d="M-73.8-7.9c0-2.3-1.9-4.1-4.1-4.1h-38.9c-2.3,0-4.1,1.9-4.1,4.1v8.3l0.9,0.9h45.3l0.9-0.9V-7.9z"/>
			<path class="st5" d="M-121,0.4v24.9c0,2.3,1.9,4.1,4.1,4.1H-78c2.3,0,4.1-1.9,4.1-4.1V0.4H-121z"/>
			<path class="st6" d="M-102.9,15.6H-114c-0.8,0-1.4,0.6-1.4,1.4v5.5c0,0.8,0.6,1.4,1.4,1.4h11.1c0.8,0,1.4-0.6,1.4-1.4V17
				C-101.6,16.3-102.2,15.6-102.9,15.6z"/>
			<path class="st7" d="M-89.1,4.6H-114c-0.8,0-1.4,0.6-1.4,1.4c0,0.8,0.6,1.4,1.4,1.4h24.9c0.8,0,1.4-0.6,1.4-1.4
				S-88.3,4.6-89.1,4.6z M-94.6,10.1H-114c-0.8,0-1.4,0.6-1.4,1.4s0.6,1.4,1.4,1.4h19.4c0.8,0,1.4-0.6,1.4-1.4
				C-93.3,10.7-93.9,10.1-94.6,10.1z"/>
			<circle class="st8" cx="-114" cy="-5.1" r="1.4"/>
			<circle class="st9" cx="-108.5" cy="-5.1" r="1.4"/>
			<circle class="st10" cx="-102.9" cy="-5.1" r="1.4"/>
		</g>
	</g>
</g>
<defs>
	<filter id="Adobe_OpacityMaskFilter_1_" filterUnits="userSpaceOnUse" x="0" y="6.3" width="47.2" height="30.2">
		<feColorMatrix  type="matrix" values="1 0 0 0 0  0 1 0 0 0  0 0 1 0 0  0 0 0 1 0"/>
	</filter>
</defs>
<mask maskUnits="userSpaceOnUse" x="0" y="6.3" width="47.2" height="30.2" id="prefix__c_2_">
	<g class="st11">
		<path id="prefix__a_2_" class="st2" d="M-104.6-9.7h256.3c4.2,0,7.5,3.4,7.5,7.5v229.9c0,4.2-3.4,7.5-7.5,7.5h-256.3
			c-4.2,0-7.5-3.4-7.5-7.5V-2.1C-112.1-6.3-108.8-9.7-104.6-9.7z"/>
	</g>
</mask>
<g class="st12">
	<g class="st13">
		<path class="st14" d="M7.2,6.3H40c4,0,7.2,3.2,7.2,7.2v15.8c0,4-3.2,7.2-7.2,7.2H7.2c-4,0-7.2-3.2-7.2-7.2V13.6
			C0,9.6,3.2,6.3,7.2,6.3z"/>
		<path class="st15" d="M19.4,16.8l-0.1,9.4c0,0.7,0.4,1,0.8,0.7l8.9-4.7c0.5-0.2,0.5-0.7,0-0.9l-8.8-5.2
			C19.8,15.8,19.4,16.1,19.4,16.8z"/>
	</g>
</g>
<defs>
	<filter id="Adobe_OpacityMaskFilter_2_" filterUnits="userSpaceOnUse" x="6.6" y="0.2" width="32.4" height="42.7">
		<feColorMatrix  type="matrix" values="1 0 0 0 0  0 1 0 0 0  0 0 1 0 0  0 0 0 1 0"/>
	</filter>
</defs>
<mask maskUnits="userSpaceOnUse" x="6.6" y="0.2" width="32.4" height="42.7" id="prefix__c_3_">
	<g class="st16">
		<path id="prefix__a_1_" class="st2" d="M-106-7.5h259.6c4.2,0,7.6,3.4,7.6,7.6v232.9c0,4.2-3.4,7.6-7.6,7.6H-106
			c-4.2,0-7.6-3.4-7.6-7.6V0.2C-113.7-4-110.2-7.5-106-7.5z"/>
	</g>
</mask>
<g class="st17">
	<g>
		<path class="st18" d="M37.6,41.5H35V1.6h2.6c0.8,0,1.5,0.7,1.5,1.5V40C39,40.8,38.4,41.4,37.6,41.5L37.6,41.5z"/>
		<path class="st19" d="M9.6,6.1V1.6c0-0.8,0.7-1.5,1.5-1.5h23.6c0.8,0,1.5,0.7,1.5,1.5v39.8c0,0.8-0.7,1.5-1.5,1.5H11
			c-0.8,0-1.5-0.7-1.5-1.5C9.6,41.5,9.6,6.1,9.6,6.1z"/>
		<path class="st19" d="M11,6.1V1.6c0-0.8,0.5-1.4,1.3-1.5h21c0.8,0,1.4,0.7,1.3,1.5v39.8c0,0.8-0.5,1.4-1.3,1.5h-21
			c-0.8,0-1.4-0.7-1.3-1.5V6.1z"/>
		<path class="st20" d="M31.7,7.5c-0.8,0-1.5-0.7-1.5-1.5V0.2h2.9v5.9C33.1,6.9,32.5,7.5,31.7,7.5z"/>
		<path class="st21" d="M28.3,16.6c-0.7-0.2-1.2-0.6-1.5-1.2c-0.7-1.6-2.3-2.6-4-2.6c-1.7,0-3.3,1-4,2.6c-0.3,0.6-0.8,1.1-1.5,1.2
			c-1.9,0.5-3.5,2.2-3.4,4.3c0.1,1.8,1.2,3.4,2.8,4.1c0.5,0.2,0.9,0.8,0.9,1.3v5.6c0,0.8,0.7,1.5,1.5,1.5h7.4c0.8,0,1.5-0.7,1.5-1.5
			v-5.6c0-0.6,0.3-1.1,0.9-1.3c1.7-0.7,2.8-2.3,2.8-4.1C31.8,18.8,30.2,17.1,28.3,16.6L28.3,16.6z"/>
		<path class="st22" d="M20.6,31.1c-0.4,0-0.7-0.3-0.7-0.7v-2.9c0-0.4,0.3-0.7,0.7-0.7c0.4,0,0.7,0.3,0.7,0.7v2.9
			C21.3,30.8,21,31.1,20.6,31.1L20.6,31.1z M25,31.1c-0.4,0-0.7-0.3-0.7-0.7v-2.9c0-0.4,0.3-0.7,0.7-0.7c0.4,0,0.7,0.3,0.7,0.7v2.9
			C25.8,30.8,25.4,31.1,25,31.1L25,31.1z"/>
		<g>
			<path class="st18" d="M28,37H17.7c-0.4,0-0.7-0.3-0.7-0.7c0-0.4,0.3-0.7,0.7-0.7H28c0.4,0,0.7,0.3,0.7,0.7
				C28.7,36.7,28.4,37,28,37L28,37z M25,40h-4.4c-0.4,0-0.7-0.3-0.7-0.7c0-0.4,0.3-0.7,0.7-0.7H25c0.4,0,0.7,0.3,0.7,0.7
				C25.8,39.6,25.4,40,25,40z M21.3,6.8h-6.6c-0.4,0-0.7-0.3-0.7-0.7c0-0.4,0.3-0.7,0.7-0.7h6.6c0.4,0,0.7,0.3,0.7,0.7
				C22.1,6.5,21.8,6.8,21.3,6.8z M17.7,9.8h-2.9C14.3,9.8,14,9.4,14,9s0.3-0.7,0.7-0.7h2.9c0.4,0,0.7,0.3,0.7,0.7
				C18.4,9.4,18.1,9.8,17.7,9.8L17.7,9.8z"/>
		</g>
		<path class="st23" d="M17.7,30.4H28v1.5c0,0.8-0.7,1.5-1.5,1.5h-7.4c-0.8,0-1.5-0.7-1.5-1.5V30.4z"/>
		<path class="st24" d="M9.6,11.2c-1.6,0-2.9-1.3-2.9-2.9c0-1.6,1.3-2.9,2.9-2.9c2.8,0,3.8,3.7,2.2,3.7C11.4,9,11,8.7,11,8.3
			c0-0.8-0.7-1.5-1.5-1.5c-0.8,0-1.5,0.7-1.5,1.5c0,0.8,0.7,1.5,1.5,1.5C9.6,9.8,9.6,11.2,9.6,11.2z M9.6,20.1
			c-1.6,0-2.9-1.3-2.9-2.9s1.3-2.9,2.9-2.9c2.8,0,3.8,3.7,2.2,3.7c-0.4,0-0.7-0.3-0.7-0.7c0-0.8-0.7-1.5-1.5-1.5
			c-0.8,0-1.5,0.7-1.5,1.5c0,0.8,0.7,1.5,1.5,1.5C9.6,18.6,9.6,20.1,9.6,20.1z M9.6,28.9c-1.6,0-2.9-1.3-2.9-2.9
			c0-1.6,1.3-2.9,2.9-2.9c2.8,0,3.8,3.7,2.2,3.7c-0.4,0-0.7-0.3-0.7-0.7c0-0.8-0.7-1.5-1.5-1.5c-0.8,0-1.5,0.7-1.5,1.5
			c0,0.8,0.7,1.5,1.5,1.5C9.6,27.4,9.6,28.9,9.6,28.9z M9.6,37.8c-1.6,0-2.9-1.3-2.9-2.9c0-1.6,1.3-2.9,2.9-2.9
			c2.8,0,3.8,3.7,2.2,3.7c-0.4,0-0.7-0.3-0.7-0.7c0-0.8-0.7-1.5-1.5-1.5c-0.8,0-1.5,0.7-1.5,1.5c0,0.8,0.7,1.5,1.5,1.5
			C9.6,36.3,9.6,37.8,9.6,37.8z"/>
	</g>
</g>
</svg>
