<svg xmlns="http://www.w3.org/2000/svg" width="160" height="84" fill="none" viewBox="0 0 160 84">
    <path fill="#006CD0" d="M0 8c0-4.418 3.582-8 8-8h144c4.418 0 8 3.582 8 8v68c0 4.418-3.582 8-8 8H8c-4.418 0-8-3.582-8-8V8z"/>
    <g clip-path="url(#prefix__clip0)">
        <path fill="#1163B0" fill-rule="evenodd" d="M84.994 42.832c0 14.688-11.907 26.595-26.595 26.595-14.688 0-26.595-11.907-26.595-26.595 0-14.688 11.907-26.595 26.595-26.595 14.688 0 26.595 11.907 26.595 26.595z" clip-rule="evenodd"/>
        <path fill="#2C374B" fill-rule="evenodd" d="M81.186 34.833c.1-.02.197.024.253.109.13.2.43.656.925 1.391.51.758.783 1.398.892 1.682.036.095.012.2-.062.27-.664.637-4.05 3.881-7.645 7.237-3.738 3.491-12.103 11.93-13.22 13.057-.077.078-.192.098-.29.048-.389-.196-1.535-.858-4.266-2.925-3.178-2.407-8.6-6.61-9.753-7.505-.119-.092-.131-.265-.029-.374l1.084-1.158c.072-.078.184-.102.282-.062l12.982 5.31c.083.033.177.022.249-.032.882-.665 6.686-5.114 11.87-11.032 4.508-5.148 6.224-5.914 6.728-6.016z" clip-rule="evenodd"/>
        <mask id="prefix__a" width="38" height="36" x="46" y="19" maskUnits="userSpaceOnUse">
            <path fill="#fff" d="M46.824 19.262H83.28v34.905H46.824V19.261z"/>
        </mask>
        <g mask="url(#prefix__a)">
            <path fill="#01A2AA" fill-rule="evenodd" d="M64.524 21.56l2.598-2.241c.089-.076.218-.077.308-.002 1.3 1.09 10.431 8.745 12.817 10.858 1.57 1.391 2.436 2.218 2.872 2.65.215.214.214.56 0 .774 0 0-6.348 7.57-11.628 12.46-4.906 4.545-8.465 7.49-9.156 8.056-.075.061-.178.069-.263.022l-12.83-7.1-.01-.005-2.274-1.101c-.134-.065-.176-.234-.088-.354l17.618-23.978c.01-.014.023-.027.036-.039z" clip-rule="evenodd"/>
        </g>
        <path fill="#EAD8C6" fill-rule="evenodd" d="M73.452 33.728c-.082-.002-.164-.031-.231-.088l-6.656-5.653c-.156-.133-.175-.367-.043-.523.133-.156.367-.175.523-.043l6.656 5.653c.156.133.175.367.042.523-.075.088-.183.133-.29.13zM71.837 35.456c-.083-.002-.166-.032-.234-.09L64.98 29.68c-.155-.133-.173-.368-.04-.523.134-.155.368-.173.524-.04l6.624 5.686c.155.133.173.368.04.523-.076.088-.183.132-.29.13zM70.585 36.794c-.08-.002-.159-.029-.225-.083l-6.798-5.5c-.16-.128-.184-.362-.056-.521.13-.16.363-.184.523-.055l6.798 5.5c.159.128.184.362.055.521-.075.093-.186.14-.297.138zM68.899 38.267c-.083-.002-.165-.031-.233-.09l-6.474-5.514c-.157-.133-.175-.367-.042-.523.133-.156.367-.175.523-.042l6.474 5.515c.157.133.175.367.042.523-.075.089-.183.133-.29.13z" clip-rule="evenodd"/>
        <path fill="#7FC200" fill-rule="evenodd" d="M42.625 16.586c-.011-.153.096-.287.247-.31 1.137-.165 5.748-.795 10.818-.9 3.792-.08 9.313.848 10.458 1.049.128.022.223.123.238.252.171 1.454 1.163 9.996 1.537 15.729.4 6.127.317 9.577.29 10.367-.005.111-.069.206-.17.252-.734.329-3.958 1.628-9.781 1.976-5.736.343-10.516-.881-11.531-1.165-.12-.033-.204-.138-.213-.261l-1.893-26.989z" clip-rule="evenodd"/>
        <path fill="#fff" fill-rule="evenodd" d="M49.513 22.805c-.192-.004-.35-.155-.362-.35-.012-.204.145-.38.35-.392l8.963-.51c.209-.012.38.145.391.35.012.205-.145.38-.35.392l-8.963.51h-.029zM49.675 25.053c-.193-.004-.353-.157-.363-.352-.01-.204.147-.38.352-.39l8.966-.465c.204-.011.38.147.39.351.01.205-.147.38-.351.39l-8.967.465h-.027zM49.82 27.076c-.189-.004-.347-.15-.362-.341-.017-.205.136-.384.34-.4l8.95-.712c.206-.016.382.136.399.34.016.205-.137.383-.34.4l-8.95.712-.037.001zM49.958 29.01c-.192-.005-.351-.156-.362-.351-.012-.205.145-.38.35-.391l8.732-.485c.206-.013.38.145.391.35.011.205-.146.38-.35.391l-8.732.485h-.029z" clip-rule="evenodd"/>
        <path fill="#DF6600" fill-rule="evenodd" d="M45.666 45.928l-2.115 2.506 1.188.159 2.278-2.451-1.35-.214z" clip-rule="evenodd"/>
        <path fill="#DF6600" fill-rule="evenodd" d="M61.666 65.514l-1.074.01s-9.919-9.235-15.398-15.006c-5.478-5.772-8.447-9.023-8.447-9.023l1.188.159 16.528 14.94 7.203 8.92z" clip-rule="evenodd"/>
        <path fill="#FFA015" fill-rule="evenodd" d="M61.666 65.514s-8.243-7.837-13.217-12.709c-4.974-4.871-10.514-11.151-10.514-11.151l2.278-2.451s12.563 12.15 17.007 16.009c4.444 3.859 7.468 7.052 7.468 7.052l-3.022 3.25z" clip-rule="evenodd"/>
        <path fill="#DF6600" fill-rule="evenodd" d="M61.84 63.223c-.059 0-.118-.023-.162-.07-.087-.09-.084-.233.006-.319l1.494-1.436c.09-.086.234-.084.32.006.087.09.084.233-.006.32l-1.494 1.436c-.044.042-.1.063-.157.063zM60.83 60.915c-.056 0-.113-.021-.157-.064-.09-.087-.091-.23-.004-.32l.784-.802c.087-.09.23-.092.32-.004.089.087.09.23.003.32l-.784.802c-.044.046-.103.068-.161.068zM58.737 60.652c-.053 0-.106-.019-.149-.056-.094-.082-.104-.224-.022-.318l1.553-1.786c.082-.094.225-.104.319-.023.094.083.104.226.022.32l-1.553 1.785c-.044.051-.107.078-.17.078zM57.614 58.345c-.055 0-.11-.02-.153-.06-.092-.085-.098-.228-.014-.32l.96-1.04c.085-.093.228-.098.32-.014.091.085.097.228.013.32l-.96 1.04c-.045.05-.105.074-.166.074zM55.683 57.33c-.052 0-.103-.017-.146-.053-.095-.08-.108-.223-.027-.318l1.24-1.479c.081-.095.223-.108.32-.027.095.08.107.222.027.318l-1.241 1.478c-.045.054-.109.081-.173.081zM54.48 55.604c-.05 0-.1-.017-.142-.05-.097-.079-.112-.221-.034-.318l.912-1.127c.078-.098.22-.112.318-.034.097.078.112.221.033.318l-.911 1.127c-.045.055-.11.084-.176.084zM52.353 54.776c-.057 0-.114-.022-.158-.065-.09-.088-.09-.23-.003-.32l1.594-1.624c.088-.089.231-.09.32-.003.09.087.09.23.003.32l-1.595 1.624c-.044.045-.103.068-.161.068zM51.318 52.835c-.057 0-.114-.021-.158-.064-.09-.088-.091-.23-.003-.32l1.092-1.114c.087-.09.23-.09.32-.003.088.087.09.23.002.32l-1.092 1.113c-.044.046-.102.068-.161.068zM49.19 51.979c-.054 0-.11-.02-.153-.06-.091-.084-.098-.227-.013-.32l1.617-1.76c.084-.092.227-.098.32-.014.091.085.098.228.013.32l-1.617 1.76c-.045.05-.105.074-.167.074zM48.066 49.559c-.057 0-.114-.022-.159-.065-.088-.087-.09-.23-.002-.32l.982-1.001c.087-.09.23-.091.32-.003.089.087.09.23.003.32l-.983 1.001c-.044.045-.103.068-.161.068zM46.107 48.584c-.054 0-.108-.02-.152-.059-.092-.084-.099-.227-.015-.32l1.376-1.512c.084-.093.227-.1.32-.015.092.084.098.227.015.319l-1.376 1.513c-.045.049-.106.074-.168.074zM45.264 46.26c-.054 0-.108-.019-.151-.057-.093-.084-.1-.227-.017-.32l.638-.707c.083-.092.226-.1.319-.016.093.083.1.227.016.32l-.637.706c-.044.05-.106.075-.168.075zM43.156 45.234c-.052 0-.105-.018-.148-.055-.094-.081-.105-.224-.023-.319l1.096-1.265c.082-.094.225-.104.32-.023.094.082.104.225.022.32l-1.096 1.264c-.045.052-.108.078-.17.078zM41.77 43.123c-.057 0-.114-.022-.158-.065-.089-.087-.09-.23-.003-.32l.788-.803c.088-.09.23-.09.32-.003s.09.23.003.32l-.788.803c-.044.045-.103.068-.162.068zM39.766 41.92c-.057 0-.115-.022-.159-.065-.089-.088-.09-.23-.002-.32l1.181-1.199c.088-.089.231-.09.32-.002.09.087.09.23.003.32l-1.183 1.198c-.044.045-.102.068-.16.068z" clip-rule="evenodd"/>
        <path fill="#2C374B" fill-rule="evenodd" d="M33.024 56.475c1.517-.39 2.123.767 2.012 1.596 0 0-.005 1.387-1.584 1.187-1.7-.216-1.635-2.472-.428-2.783zm-.427 3.378c1.06.526 2.61.383 3.125-.749 1.099-2.411-1.345-3.615-1.345-3.615s-.976-4.898-1.752-8.168c-.537-2.262-1.16-5.251-1.86-7.477-.077-.246-.432-.177-.423.08.075 2.075.484 4.828 1.077 8.42.952 5.764 1.481 7.23 1.481 7.23s-1.51.137-1.749 1.966c-.076.59.275 1.46.275 1.46s-.181 1.132.438 1.94c.068.09.207.07.253-.03l.48-1.057z" clip-rule="evenodd"/>
        <mask id="prefix__b" width="17" height="14" x="25" y="43" maskUnits="userSpaceOnUse">
            <path fill="#fff" d="M25 43.825h16.745v12.881H25V43.825z"/>
        </mask>
        <g mask="url(#prefix__b)">
            <path fill="#01A2AA" fill-rule="evenodd" d="M39.074 55.707c-1.045-.34-1.299-1.302-.794-2.21.46-.827 2.016-.782 2.437.466.356 1.058-.513 2.113-1.643 1.744zm2.65-1.56c-.29-2.518-2.857-2.383-3.566-1.773 0 0-2.843-2.034-4.95-3.687s-8.83-5.88-8.162-4.636c.668 1.244 8.35 6.853 8.35 6.853l3.633 2.621s-.382 1.352.775 2.528c1.313 1.334 4.21.59 3.92-1.906z" clip-rule="evenodd"/>
        </g>
        <path fill="#094A4D" fill-rule="evenodd" d="M32.37 49.26c.462-.33-.054-.906-.413-.552-.3.296.16.733.414.552z" clip-rule="evenodd"/>
    </g>
    <path fill="#fff" d="M114.752 51.192c-2.064 0-3.656-.712-4.776-2.136-1.12-1.44-1.68-3.496-1.68-6.168 0-1.936.256-3.584.768-4.944.528-1.376 1.28-2.424 2.256-3.144.992-.72 2.176-1.08 3.552-1.08.992 0 1.952.184 2.88.552.928.352 1.752.872 2.472 1.56l-.744 1.512c-.8-.688-1.576-1.184-2.328-1.488-.736-.32-1.48-.48-2.232-.48-1.472 0-2.616.656-3.432 1.968-.816 1.296-1.224 3.136-1.224 5.52v2.064l-.288-.648c.128-.816.424-1.52.888-2.112.464-.608 1.04-1.072 1.728-1.392.704-.336 1.48-.504 2.328-.504 1.056 0 1.984.232 2.784.696.8.448 1.424 1.08 1.872 1.896.448.816.672 1.76.672 2.832 0 1.056-.24 2-.72 2.832-.464.832-1.112 1.488-1.944 1.968-.816.464-1.76.696-2.832.696zm-.096-1.656c1.088 0 1.968-.344 2.64-1.032.672-.704 1.008-1.632 1.008-2.784 0-1.136-.336-2.048-1.008-2.736-.672-.704-1.56-1.056-2.664-1.056-.736 0-1.392.168-1.968.504-.576.32-1.024.768-1.344 1.344-.32.56-.48 1.208-.48 1.944 0 .768.16 1.44.48 2.016.32.56.768 1 1.344 1.32.576.32 1.24.48 1.992.48zm10.863-8.4c-.752 0-1.4-.152-1.944-.456-.528-.32-.936-.76-1.224-1.32-.288-.56-.432-1.2-.432-1.92s.144-1.352.432-1.896c.288-.544.696-.968 1.224-1.272.544-.32 1.192-.48 1.944-.48.768 0 1.416.16 1.944.48.544.304.96.728 1.248 1.272.288.544.432 1.176.432 1.896s-.144 1.36-.432 1.92c-.288.56-.704 1-1.248 1.32-.528.304-1.176.456-1.944.456zm0-1.392c.624 0 1.096-.2 1.416-.6.32-.4.48-.968.48-1.704 0-.72-.16-1.28-.48-1.68-.32-.4-.792-.6-1.416-.6-.608 0-1.072.2-1.392.6-.304.4-.456.96-.456 1.68 0 .736.152 1.304.456 1.704.32.4.784.6 1.392.6z"/>
    <defs>
        <clipPath id="prefix__clip0">
            <path fill="#fff" d="M25 15H85V69.43299999999999H25z"/>
        </clipPath>
    </defs>
</svg>
