<svg xmlns="http://www.w3.org/2000/svg" width="160" height="84" fill="none" viewBox="0 0 160 84">
    <path fill="#00B0ED" d="M0 8c0-4.418 3.582-8 8-8h144c4.418 0 8 3.582 8 8v68c0 4.418-3.582 8-8 8H8c-4.418 0-8-3.582-8-8V8z"/>
    <g clip-path="url(#prefix__clip0)">
        <mask id="prefix__a" width="60" height="61" x="30" y="12" maskUnits="userSpaceOnUse">
            <path fill="#fff" d="M30 12.148h59.897v59.897H30V12.148z"/>
        </mask>
        <g mask="url(#prefix__a)">
            <path fill="#70CCF5" fill-rule="evenodd" d="M89.897 42.096c0 16.54-13.409 29.949-29.949 29.949S30 58.636 30 42.096s13.408-29.948 29.949-29.948c16.54 0 29.948 13.409 29.948 29.948z" clip-rule="evenodd"/>
            <path fill="#2E378A" fill-rule="evenodd" d="M40.075 31.068c-1.966.48-3.958-.728-4.439-2.695-.481-1.967.727-3.958 2.694-4.44l23.275-5.692 1.745 7.134-23.275 5.693z" clip-rule="evenodd"/>
            <path fill="#fff" fill-rule="evenodd" d="M65.033 24.118L39.88 30.269c-1.53.374-3.072-.562-3.446-2.091-.374-1.53.563-3.072 2.092-3.446l22.491-5.5 4.016 4.886z" clip-rule="evenodd"/>
            <path fill="#4C55A4" fill-rule="evenodd" d="M42.984 58.42c.374 1.526 2.278 2.377 4.245 1.896l25.951-6.347-7.348-30.047L39.88 30.27c-1.967.481-3.87-.37-4.244-1.896l7.348 30.047z" clip-rule="evenodd"/>
            <path fill="#111F68" fill-rule="evenodd" d="M48.908 38.649l-1.058-1.73-.08 2.023 1.138-.293zm.392 2.856l-.293-1.139.826-.212-.335-.545-1.782.46-.03.637.678-.174.293 1.139-2.764.712-.294-1.14.591-.151.191-4.12-.356.093-.289-1.122 3.338-.86 2.811 4.542.608-.157.294 1.14-3.487.897zM55.847 38.614c.365-.094.632-.46.512-.929-.114-.443-.45-.7-.928-.577l-.669.172.39 1.514.695-.18zm-1.338-2.316l.53-.136c.46-.12.526-.405.419-.822-.103-.4-.407-.572-.738-.487l-.547.141.336 1.304zm-1.662 3.089l.505-.13-.986-3.826-.504.13-.288-1.121 3.242-.835c1.444-.372 2.27-.01 2.513.938.188.73.08 1.138-.505 1.567.671.012 1.31.339 1.528 1.182.316 1.226-.232 1.942-1.91 2.374l-3.303.85-.292-1.13zM64.451 36.445c-.423.804-1.18 1.611-2.319 1.904-1.843.475-3.373-.392-3.873-2.331-.514-2 .68-3.587 1.82-3.88.869-.224 1.385.163 1.49.247l.075-.539 1.365-.351.636 2.469-1.557.4c-.171-.558-.586-1.016-1.203-.858-.626.162-.835 1.04-.591 1.988.222.86.864 1.52 1.69 1.308.73-.188 1.106-1.101 1.163-1.208l1.304.85z" clip-rule="evenodd"/>
            <mask id="prefix__b" width="32" height="45" x="58" y="17" maskUnits="userSpaceOnUse">
                <path fill="#fff" d="M58.58 17.302h30.61V61.05H58.58V17.302z"/>
            </mask>
            <g mask="url(#prefix__b)">
                <path fill="#fff" fill-rule="evenodd" d="M77.392 30.86l.008-7.127c5.349-1.467 3.039-5.983 3.177-5.983 0-.54-2.993-.438-6.685-.442-.296 0-.587 0-.873.002 1.198.102 2.393.271 3.583.418.404.05 1.688.177 1.827.757-2.582.684-7.082 1.347-11.223-.516 0 0-2.192 4.688 3.21 5.922l-.007 6.962c-6.77 1.575-11.82 7.627-11.828 14.877-.01 8.452 6.836 15.312 15.288 15.32 8.453.01 15.312-6.836 15.32-15.288.008-7.25-5.031-13.312-11.797-14.901z" clip-rule="evenodd" opacity=".309"/>
            </g>
            <path fill="#2C374B" fill-rule="evenodd" d="M73.892 17.308c-3.692-.004-6.685.12-6.685.661 0 .542 2.991 1.295 6.683 1.299 3.692.003 6.687-.976 6.688-1.518 0-.54-2.993-.438-6.686-.442z" clip-rule="evenodd"/>
            <path fill="#FF960C" fill-rule="evenodd" d="M59.871 44.712c-.031.384-.053.77-.053 1.162-.008 7.77 6.283 14.074 14.052 14.082 7.77.008 14.074-6.284 14.082-14.052 0-.392-.02-.779-.05-1.162l-28.03-.03z" clip-rule="evenodd"/>
            <path fill="#FFBA0A" fill-rule="evenodd" d="M87.901 44.742c0 .502-6.275.903-14.015.895-7.74-.009-14.015-.422-14.014-.925 0-.502 6.275-.903 14.015-.895 7.74.009 14.015.422 14.014.925z" clip-rule="evenodd"/>
            <path fill="#2C374B" fill-rule="evenodd" d="M84.304 37.348s-5.07-7.055-14.407-4.206c-9.336 2.849-9.175 13.945-9.175 13.945s4.566-8.852 11.411-10.275c6.846-1.424 12.17.536 12.17.536z" clip-rule="evenodd" opacity=".074"/>
            <path fill="#fff" fill-rule="evenodd" d="M75.178 40.4c-.001 1.103-.897 1.997-2 1.996-1.103-.002-1.997-.897-1.996-2 .001-1.104.897-1.998 2-1.996 1.104.001 1.997.896 1.996 2zM81.481 38.572c0 .829-.674 1.5-1.503 1.5-.83 0-1.501-.674-1.5-1.503 0-.83.674-1.501 1.503-1.5.829 0 1.5.674 1.5 1.503zM77.719 49.023c-.001 1.059-.861 1.917-1.92 1.916-1.06 0-1.918-.86-1.917-1.92 0-1.06.86-1.918 1.92-1.917 1.06.001 1.918.862 1.917 1.921zM69.921 49.761c0 .991-.805 1.794-1.796 1.792-.99 0-1.793-.805-1.792-1.795.001-.991.805-1.794 1.796-1.793.99.002 1.793.805 1.792 1.796zM68.746 42.698c0 .664-.54 1.202-1.204 1.202-.664 0-1.202-.54-1.201-1.204 0-.665.54-1.203 1.204-1.202.664 0 1.202.54 1.201 1.204zM74.787 34.238c0 .364-.296.659-.66.658-.364 0-.659-.296-.658-.66 0-.363.295-.658.66-.658.363 0 .658.296.657.66zM79.234 42.665c0 .64-.52 1.157-1.159 1.157-.64 0-1.158-.52-1.157-1.16 0-.64.52-1.157 1.16-1.157.64 0 1.157.52 1.156 1.16zM80.975 48.674c0 .607-.493 1.098-1.1 1.098-.606-.001-1.098-.494-1.097-1.1 0-.607.493-1.098 1.1-1.098.607.001 1.098.493 1.097 1.1zM76.628 54.515c0 .515-.418.931-.932.93-.515 0-.931-.417-.93-.932 0-.514.417-.931.932-.93.514 0 .93.418.93.932z" clip-rule="evenodd"/>
        </g>
        <g fill-rule="evenodd" clip-path="url(#prefix__clip1)" clip-rule="evenodd">
            <path fill="#315F65" d="M47.189 58.444c-.694.594-2.655-.562-4.38-2.581-1.726-2.02-2.56-4.136-1.866-4.73l-1.298-1.519-2.46 2.102L47 63l2.5-2-2.311-2.556zM37.94 47.618l-2.46 2.102.881 1.032 2.46-2.102-.88-1.032z"/>
            <path fill="#315F65" d="M49.31 60.927L47 63l.731 1.061 2.461-2.102-.882-1.032z"/>
            <path fill="#F8582C" d="M35.51 44.775l-2.076 1.776c-.212.18-.237.497-.057.709l2.102 2.46 2.461-2.102-2.43-2.843zM47.732 64.061l1.014 1.188 5.893 2.911.492-.42-4.938-5.78-2.461 2.101z"/>
            <path fill="#fff" d="M38.822 48.65l-2.46 2.102.823.964 2.46-2.102-.823-.963z"/>
            <path fill="#26555B" d="M37.94 47.618l.882 1.032 2.46-2.102-.881-1.032-2.46 2.102zM50.193 61.96l2.46-2.103-.882-1.032-2.46 2.102.882 1.033zM39.645 49.614l2.46-2.102 9.666 11.313-2.46 2.102-2.121-2.483c.694-.593-.142-2.71-1.866-4.73-1.725-2.018-3.686-3.174-4.381-2.58l-1.298-1.52z"/>
            <path fill="#D74C2B" d="M40.4 45.516l-2.102-2.46c-.18-.212-.498-.236-.71-.056l-2.077 1.775 2.429 2.844 2.46-2.103zM53.667 61.044l-1.014-1.187-2.461 2.103 4.939 5.78.492-.421-1.956-6.275z"/>
            <path fill="#fff" d="M40.943 51.133c-.694.594.14 2.711 1.866 4.73 1.725 2.019 3.686 3.174 4.38 2.581.695-.593-.14-2.71-1.865-4.73-1.725-2.018-3.686-3.174-4.381-2.58zM39.645 49.614l2.46-2.102-.823-.963-2.46 2.101.823.964z"/>
        </g>
    </g>
    <path fill="#fff" d="M108.992 51v-1.488l5.976-6.624c.8-.896 1.384-1.704 1.752-2.424.368-.72.552-1.44.552-2.16 0-.944-.272-1.664-.816-2.16-.544-.512-1.32-.768-2.328-.768-.832 0-1.648.168-2.448.504-.8.32-1.6.808-2.4 1.464l-.744-1.512c.672-.64 1.52-1.152 2.544-1.536 1.024-.384 2.056-.576 3.096-.576s1.936.184 2.688.552c.768.352 1.36.864 1.776 1.536.416.672.624 1.472.624 2.4 0 .976-.224 1.92-.672 2.832-.432.896-1.16 1.904-2.184 3.024l-5.76 6.24-.144-.96h9.48V51h-10.992zm16.527-9.864c-.752 0-1.4-.152-1.944-.456-.528-.32-.936-.76-1.224-1.32-.288-.56-.432-1.2-.432-1.92s.144-1.352.432-1.896c.288-.544.696-.968 1.224-1.272.544-.32 1.192-.48 1.944-.48.768 0 1.416.16 1.944.48.544.304.96.728 1.248 1.272.288.544.432 1.176.432 1.896s-.144 1.36-.432 1.92c-.288.56-.704 1-1.248 1.32-.528.304-1.176.456-1.944.456zm0-1.392c.624 0 1.096-.2 1.416-.6.32-.4.48-.968.48-1.704 0-.72-.16-1.28-.48-1.68-.32-.4-.792-.6-1.416-.6-.608 0-1.072.2-1.392.6-.304.4-.456.96-.456 1.68 0 .736.152 1.304.456 1.704.32.4.784.6 1.392.6z"/>
    <defs>
        <clipPath id="prefix__clip0">
            <path fill="#fff" d="M30 12H90V72.69800000000001H30z"/>
        </clipPath>
        <clipPath id="prefix__clip1">
            <path fill="#fff" d="M33 42H56V69H33z"/>
        </clipPath>
    </defs>
</svg>
